<?xml version="1.0" encoding="UTF-8"?>
<svg id="FONDS" xmlns="http://www.w3.org/2000/svg" width="45.9998447" height="54.0001104" viewBox="0 0 45.9998447 54.0001104">
  <g>
    <path d="M33.5403177,23.6765747c-.0478516-.043457-.0986328-.0837402-.1513672-.1208496-.3085938-.21875-.6748047-.3381348-1.0507812-.3430176h-4.5209961c-.3764648-.0046387-.7412109-.1296387-1.0439453-.3569336-.1201172-.090332-.2280273-.1965332-.3203125-.315918-.1381836-.177002-.2421875-.3789062-.3066406-.5952148l-1.4448242-4.519043-.0068359-.0209961c-.109375-.3657227-.3325195-.6855469-.6357422-.9108887-.6274414-.463623-1.4765625-.463623-2.1035156,0-.3032227,.2260742-.5263672,.5456543-.6357422,.9108887v.0209961l-1.4008789,4.526123c-.1220703,.3635254-.3510742,.6799316-.6567383,.9060059-.3081055,.2268066-.6767578,.3530273-1.0571289,.3620605h-4.5087891c-.3701172,.0019531-.730957,.1210938-1.0317383,.3410645-.2993164,.2172852-.5229492,.5256348-.6386719,.8808594-.1274414,.3540039-.1347656,.7412109-.0209961,1.1000977,.1157227,.3613281,.3452148,.6740723,.652832,.8898926l3.6914062,2.6999512c.3051758,.21875,.534668,.5292969,.6567383,.8879395,.1206055,.3562012,.1269531,.7421875,.0175781,1.1020508l-1.3710938,4.3078613-.0688477,.2182617c-.1025391,.3569336-.0922852,.7380371,.0297852,1.0888672,.1220703,.3527832,.3491211,.6582031,.6494141,.8740234,.6196289,.4448242,1.4448242,.4560547,2.0756836,.027832l.4916992-.3549805,3.2148438-2.315918c.1259766-.0895996,.2626953-.1618652,.4067383-.2148438,.5717773-.2163086,1.2114258-.1362305,1.7143555,.2148438l3.7026367,2.6699219c.6401367,.4455566,1.4833984,.4455566,2.1235352,0,.3081055-.2148438,.5380859-.5268555,.6547852-.8879395,.1137695-.3586426,.1064453-.7458496-.0205078-1.0998535l-1.4008789-4.526123c-.1206055-.3557129-.1235352-.7419434-.0087891-1.0998535,.1147461-.359375,.3393555-.671875,.6411133-.8920898l3.5292969-2.7138672c.3051758-.21875,.534668-.5292969,.6567383-.8881836v.0041504c.1176758-.3562012,.1220703-.7414551,.0117188-1.1000977-.1049805-.2929688-.2827148-.5537109-.5151367-.7570801Z" style="fill: #272f60;"/>
    <path d="M43.568638,36.0657349c-1.3955078,3.8449707-3.6269531,7.3193359-6.5273438,10.1638184-3.6621094,3.4301758-8.0151367,6.0068359-12.7558594,7.5510254-.6572266,.2312012-1.362793,.2807617-2.0449219,.144043-.1796875-.0351562-.355957-.0825195-.5288086-.1420898-4.7441406-1.5429688-9.1005859-4.1196289-12.765625-7.5510254-2.9008789-2.8430176-5.1323242-6.3171387-6.5263672-10.1618652C-.2160299,28.9168091-.0646627,21.034729,.0520365,14.7088013v-.1000977c.0224609-.519043,.0395508-1.0708008,.0483398-1.677002,.027832-1.447998,.6000977-2.8300781,1.5991211-3.8618164,1.0063477-1.0437012,2.3598633-1.6665039,3.7949219-1.7460938,6.206543-.3459473,11.0185547-2.369873,15.1201172-6.369873l.0366211-.0341797c1.3339844-1.2263184,3.3637695-1.2263184,4.6977539,0l.034668,.0341797c4.1044922,4,8.9086914,6.0268555,15.1274414,6.3708496,1.4335938,.081543,2.7861328,.704834,3.7915039,1.7480469,.9975586,1.0319824,1.5688477,2.4130859,1.597168,3.8601074,.0087891,.6079102,.0258789,1.1577148,.0483398,1.6767578v.0410156c.1166992,6.3430176,.2670898,14.2358398-2.3793945,21.4150391Z" style="fill: #272f60;"/>
    <path d="M45.9480326,14.6096802c-.0224609-.519043-.0395508-1.0688477-.0483398-1.6767578-.0283203-1.4470215-.5996094-2.828125-1.597168-3.8601074-1.0053711-1.0432129-2.3579102-1.6665039-3.7915039-1.7480469-6.21875-.3439941-11.0229492-2.3708496-15.1274414-6.3708496l-.034668-.0341797c-1.3339844-1.2263184-3.3637695-1.2263184-4.6977539,0l-.0366211,.0341797c-4.1015625,4-8.9135742,6.0239258-15.1201172,6.369873-1.4350586,.0795898-2.7885742,.7023926-3.7949219,1.7460938C.700474,10.1016235,.1282084,11.4837036,.1003763,12.9317017c-.0087891,.6062012-.0258789,1.157959-.0483398,1.677002v.1000977c-.1166992,6.3259277-.2680664,14.2080078,2.3676758,21.3608398,1.394043,3.8447266,3.6254883,7.3188477,6.5263672,10.1618652,3.6650391,3.4313965,8.0214844,6.0080566,12.765625,7.5510254,.1728516,.0595703,.3491211,.1069336,.5288086,.1420898,.6821289,.1367188,1.3876953,.0871582,2.0449219-.144043,4.7407227-1.5441895,9.09375-4.1208496,12.7558594-7.5510254,2.9003906-2.8444824,5.1318359-6.3188477,6.5273438-10.1638184,2.6464844-7.1791992,2.4960938-15.0720215,2.3793945-21.4150391v-.0410156Z" style="fill: #272f60;"/>
  </g>
  <path d="M34.0437357,25.5337524v-.0041504c-.1220703,.3588867-.3515625,.6694336-.6567383,.8881836l-3.5292969,2.7138672c-.3017578,.2202148-.5263672,.5327148-.6411133,.8920898-.1147461,.3579102-.1118164,.7441406,.0087891,1.0998535l1.4008789,4.526123c.1269531,.3540039,.1342773,.7412109,.0205078,1.0998535-.1166992,.361084-.3466797,.6730957-.6547852,.8879395-.6401367,.4455566-1.4833984,.4455566-2.1235352,0l-3.7026367-2.6699219c-.5029297-.3510742-1.1425781-.4311523-1.7143555-.2148438-.144043,.0529785-.2807617,.1252441-.4067383,.2148438l-3.2148438,2.315918-.4916992,.3549805c-.6308594,.4282227-1.4560547,.4169922-2.0756836-.027832-.300293-.2158203-.5273438-.5212402-.6494141-.8740234-.1220703-.3508301-.1323242-.7319336-.0297852-1.0888672l.0688477-.2182617,1.3710938-4.3078613c.109375-.3598633,.1030273-.7458496-.0175781-1.1020508-.1220703-.3586426-.3515625-.6691895-.6567383-.8879395l-3.6914062-2.6999512c-.3076172-.2158203-.5371094-.5285645-.652832-.8898926-.1137695-.3588867-.1064453-.7460938,.0209961-1.1000977,.1157227-.3552246,.3393555-.6635742,.6386719-.8808594,.3007812-.2199707,.6616211-.3391113,1.0317383-.3410645h4.5087891c.3803711-.0090332,.7490234-.1352539,1.0571289-.3620605,.3056641-.2260742,.534668-.5424805,.6567383-.9060059l1.4008789-4.526123v-.0209961c.109375-.3652344,.3325195-.6848145,.6357422-.9108887,.6269531-.463623,1.4760742-.463623,2.1035156,0,.3032227,.2253418,.5263672,.545166,.6357422,.9108887l.0068359,.0209961,1.4448242,4.519043c.0644531,.2163086,.168457,.4182129,.3066406,.5952148,.0922852,.1193848,.2001953,.2255859,.3203125,.315918,.3027344,.2272949,.6674805,.3522949,1.0439453,.3569336h4.5209961c.3759766,.0048828,.7421875,.1242676,1.0507812,.3430176,.0527344,.0371094,.1035156,.0773926,.1513672,.1208496,.2324219,.2033691,.4101562,.4641113,.5151367,.7570801,.1103516,.3586426,.105957,.7438965-.0117188,1.1000977Z" style="fill: #ff9300;"/>
</svg>