<?xml version="1.0" encoding="utf-8"?>
<!-- Generator: Adobe Illustrator 26.2.1, SVG Export Plug-In . SVG Version: 6.00 Build 0)  -->
<svg version="1.1" xmlns="http://www.w3.org/2000/svg" xmlns:xlink="http://www.w3.org/1999/xlink" x="0px" y="0px"
	 viewBox="0 0 428 263.6285706" style="enable-background:new 0 0 428 263.6285706;" xml:space="preserve">
<style type="text/css">
	.st0{fill:url(#FOND_00000054974340266526422580000002805577729446349187_);}
	.st1{fill:url(#FOND_00000134970728336480758010000005869034815155864450_);}
	.st2{fill:#FFF5F7;}
	.st3{fill:url(#FOND_00000036932136117781636730000009961420284877204368_);}
	.st4{fill:url(#FOND_00000065051647625893880830000007435194097390156183_);}
	.st5{fill:url(#FOND_00000066481857894815924760000012885669933876232845_);}
	.st6{fill:url(#FOND_00000147191589044046058880000016077904146927586717_);}
	.st7{fill:url(#FOND_00000122709306716983886610000003740843252541496732_);}
	.st8{fill:url(#FOND_00000074400113905332698670000017210742694627139985_);}
	.st9{fill:url(#FOND_00000010270593620048396700000008806979845162133649_);}
	.st10{fill:url(#FOND_00000057831397236976258080000000476516069466388158_);}
	.st11{fill:url(#FOND_00000031892828949136317550000002257520077419937156_);}
	.st12{fill:#272F60;}
	.st13{fill:#FD657C;}
	.st14{fill:url(#FOND_00000078040140532822612360000017068205271356620209_);}
	.st15{fill:#F4AAB9;}
	.st16{clip-path:url(#Rectangle_10_00000001636847236834863030000010942863000335744431_);}
	.st17{fill:#FB657C;}
	.st18{fill:#FFFFFF;}
	.st19{fill:#FFBCC6;}
	.st20{clip-path:url(#SVGID_00000047738330874941128540000007692989829539644579_);}
	.st21{enable-background:new    ;}
	.st22{fill:#FB657C;stroke:#FD657C;stroke-width:3.8352001;stroke-linecap:round;stroke-linejoin:round;stroke-miterlimit:1.4382;}
	.st23{fill:#FFBCC6;stroke:#FFBCC6;stroke-width:3.8352001;stroke-linecap:round;stroke-linejoin:round;stroke-miterlimit:1.4382;}
	.st24{clip-path:url(#SVGID_00000154395097536409318860000012336770444804450980_);fill:#FB657C;}
	.st25{clip-path:url(#SVGID_00000141415238007510332110000017432814372295906224_);fill:#FFBCC6;}
	.st26{clip-path:url(#SVGID_00000132082194291214489060000004170553764095902882_);fill:#FFBCC6;}
	.st27{clip-path:url(#SVGID_00000108992897993575490940000012479000640362476956_);fill:#FFBCC6;}
	.st28{clip-path:url(#SVGID_00000105424566709181092390000005417684070986797981_);fill:#FFBCC6;}
	.st29{clip-path:url(#SVGID_00000053524890399084545350000005325052547153168260_);fill:#FFBCC6;}
	.st30{clip-path:url(#SVGID_00000037650257200600674300000017166092849703544198_);fill:#FFBCC6;}
	.st31{clip-path:url(#SVGID_00000183964833634737630750000010433634987610146468_);fill:#FFBCC6;}
	.st32{clip-path:url(#SVGID_00000165947036641037977420000013119046557162984621_);fill:#272F60;}
	.st33{clip-path:url(#SVGID_00000165947036641037977420000013119046557162984621_);fill:#FB657C;}
	.st34{clip-path:url(#SVGID_00000165947036641037977420000013119046557162984621_);fill:#FFBCC6;}
	.st35{clip-path:url(#SVGID_00000165947036641037977420000013119046557162984621_);fill:#FFFFFF;}
	.st36{fill:none;}
	.st37{clip-path:url(#SVGID_00000116917356748074291430000008972417072438141575_);fill:#FFFFFF;}
	.st38{clip-path:url(#SVGID_00000024684790075113286760000003352371477043726991_);fill:#FFFFFF;}
	.st39{clip-path:url(#SVGID_00000093146980732076928830000003518165431385334949_);fill:#FFFFFF;}
	.st40{clip-path:url(#SVGID_00000172401146744875617720000006092750213463145151_);fill:#FFFFFF;}
	.st41{clip-path:url(#SVGID_00000140725562301082241170000012362436993799252152_);fill:#FFFFFF;}
	.st42{clip-path:url(#SVGID_00000012465588152655981680000016066046801192794791_);fill:#FFFFFF;}
	.st43{clip-path:url(#SVGID_00000163070360756557835820000002145949431319628217_);fill:#FFFFFF;}
	.st44{clip-path:url(#SVGID_00000129901809030652917650000009636049120511037848_);fill:#FFFFFF;}
	.st45{clip-path:url(#SVGID_00000114787936365297196390000017295796323507909052_);fill:#FFFFFF;}
	.st46{clip-path:url(#SVGID_00000049221616273244114900000011900609937013061259_);fill:#FFFFFF;}
	.st47{clip-path:url(#SVGID_00000069382420262312569210000013524319303759063464_);fill:#FFFFFF;}
	.st48{clip-path:url(#SVGID_00000046305596634601102750000010334368969123144105_);fill:#FFFFFF;}
	.st49{clip-path:url(#SVGID_00000183944804458252067050000009107410829569852047_);fill:#FB657C;}
	.st50{clip-path:url(#SVGID_00000067211680471942830800000001318936111729933972_);fill:#FFFFFF;}
	.st51{clip-path:url(#SVGID_00000057132909219197273600000013823875093592683196_);fill:#FFFFFF;}
	.st52{fill:#FF647B;}
	.st53{fill:#FF657C;}
	.st54{clip-path:url(#SVGID_00000013178675347001220220000014329112302442145950_);}
	.st55{clip-path:url(#SVGID_00000036972900514049151050000016495989811669275052_);}
	.st56{clip-path:url(#SVGID_00000160882935658165525140000014939537095746743469_);}
	.st57{clip-path:url(#SVGID_00000036968921010149821040000004062153881775165082_);}
	.st58{fill:#272E5F;}
	.st59{fill:none;stroke:#272E5F;stroke-width:3;}
	.st60{clip-path:url(#SVGID_00000122707990679274200630000014206866787447297429_);}
	.st61{fill:#E94B67;}
	.st62{fill:#132350;}
	.st63{fill:#050605;}
	.st64{fill:#FFF5F7;stroke:#272E5F;stroke-width:2;}
	.st65{fill:none;stroke:#272E5F;stroke-width:2;stroke-linecap:round;stroke-linejoin:round;stroke-miterlimit:10;}
	.st66{fill:none;stroke:#272E5F;stroke-width:2;}
	.st67{fill:none;stroke:#272E5F;stroke-width:3;stroke-linecap:round;stroke-linejoin:round;stroke-miterlimit:10;}
	.st68{fill:none;stroke:#142664;stroke-width:2;stroke-linecap:round;stroke-linejoin:round;stroke-miterlimit:10;}
	.st69{clip-path:url(#SVGID_00000125569198374126824760000006545218783942435741_);}
	.st70{clip-path:url(#SVGID_00000044175041422229395350000003510570011899774342_);}
	.st71{clip-path:url(#SVGID_00000063630449487280729440000013127974656883385993_);fill:#FD657C;}
	.st72{clip-path:url(#SVGID_00000143590416513127784520000013559942328305713290_);fill:#FD657C;}
	.st73{clip-path:url(#SVGID_00000054963169153775294400000015320945091508426921_);}
	.st74{clip-path:url(#SVGID_00000003089789923729795970000012042247848381617846_);}
	.st75{clip-path:url(#SVGID_00000156550250419274241520000012268886853288316299_);}
	.st76{fill:none;stroke:#142664;stroke-width:3;stroke-linecap:round;stroke-linejoin:round;}
	.st77{clip-path:url(#SVGID_00000139988360710789315850000001629050140862417326_);}
	.st78{clip-path:url(#SVGID_00000152258592709710570990000006291974147675753639_);}
	.st79{clip-path:url(#SVGID_00000171717995190441682830000002182992965284828807_);}
	.st80{clip-path:url(#SVGID_00000181052932376957338160000014280138088280152973_);}
	.st81{clip-path:url(#SVGID_00000115488425628331144610000004850390815168196287_);}
	.st82{clip-path:url(#SVGID_00000039091350600893868600000016976017391671376794_);}
	.st83{clip-path:url(#SVGID_00000088811647260456702630000002695679287620568714_);}
	.st84{clip-path:url(#SVGID_00000054250662034154486480000018072315472597124227_);}
	.st85{clip-path:url(#SVGID_00000127734794528984504900000010002057203399572875_);}
	.st86{clip-path:url(#SVGID_00000124153248565177526910000001787369867911576222_);}
	.st87{clip-path:url(#SVGID_00000036252124335609975440000005814235240137319311_);}
	.st88{clip-path:url(#SVGID_00000105385782703302645850000005163664374577884046_);}
	.st89{clip-path:url(#SVGID_00000147925554787329902310000002883246257583790014_);}
	.st90{clip-path:url(#SVGID_00000135674666610192441680000010164215896311027638_);}
	.st91{clip-path:url(#SVGID_00000025411097240911405140000015080443969571237049_);}
	.st92{clip-path:url(#SVGID_00000182501691124211512300000012398084028190556071_);}
	.st93{clip-path:url(#SVGID_00000011751574273054218130000004760569784904772258_);}
	.st94{clip-path:url(#SVGID_00000003085246862262826500000008422362461854211725_);}
	.st95{clip-path:url(#SVGID_00000106123522935026465370000006293076002871951284_);}
	.st96{clip-path:url(#SVGID_00000101782499147709761210000008852651506969181327_);}
	.st97{clip-path:url(#SVGID_00000001658793334555422590000016362536832780172476_);}
	.st98{clip-path:url(#SVGID_00000061471953157830188810000015341523013148465328_);}
	.st99{clip-path:url(#SVGID_00000183964222882038449760000003098228781032543404_);}
	.st100{clip-path:url(#SVGID_00000122716032894112503700000018143764684747541646_);}
	.st101{clip-path:url(#SVGID_00000045581440752518556970000006125384977257991614_);}
	.st102{clip-path:url(#SVGID_00000088852166466475892880000002411472966874625415_);}
	.st103{clip-path:url(#SVGID_00000035518516050807393600000009334618192714278544_);}
	.st104{clip-path:url(#SVGID_00000126295877830075915550000005775043528520986514_);}
	.st105{clip-path:url(#SVGID_00000075876986737889052810000004851808405931125439_);}
	.st106{clip-path:url(#SVGID_00000047771693884489170770000002802502733585973125_);}
	.st107{clip-path:url(#SVGID_00000018930292114705061920000008727347248309664908_);}
	.st108{clip-path:url(#SVGID_00000087388317738260049270000014382350372050043574_);}
	.st109{clip-path:url(#SVGID_00000067222461314816159520000000770056799265124799_);}
	.st110{clip-path:url(#SVGID_00000077289001097693871060000007555567341960757148_);}
	.st111{clip-path:url(#SVGID_00000108294928158275990700000016669744275430914443_);}
	.st112{clip-path:url(#SVGID_00000116934275043146890520000006964147165885883557_);}
	.st113{clip-path:url(#SVGID_00000098936829726754601050000005520003820224666782_);}
	.st114{clip-path:url(#SVGID_00000178190000640224233810000009755791171844544178_);}
	.st115{clip-path:url(#SVGID_00000100350896525702784340000001596183572945517725_);}
	.st116{clip-path:url(#SVGID_00000161606325424194575290000002207189958525695921_);}
	.st117{clip-path:url(#SVGID_00000154419124069889081870000009928330408560228762_);}
	.st118{clip-path:url(#SVGID_00000171690355510156411620000011047782671061166261_);}
	.st119{clip-path:url(#SVGID_00000026877942082676984130000009489501142835790745_);}
	.st120{fill:#FFFFFF;stroke:#142664;stroke-width:3;stroke-linecap:round;stroke-linejoin:round;}
	.st121{clip-path:url(#SVGID_00000049923391871480874110000010395422455311450801_);}
	.st122{fill-rule:evenodd;clip-rule:evenodd;fill:#FFBCC6;}
	.st123{fill-rule:evenodd;clip-rule:evenodd;fill:#272F60;}
	.st124{fill-rule:evenodd;clip-rule:evenodd;fill:#FFFFFF;}
	.st125{fill-rule:evenodd;clip-rule:evenodd;fill:#FB657C;}
	.st126{clip-path:url(#SVGID_00000021117606157692647920000015803672634419743905_);}
	.st127{clip-path:url(#SVGID_00000078740101973603436220000007236813700770247595_);}
	.st128{clip-path:url(#SVGID_00000053522643721548322960000017540735297302668707_);}
	.st129{clip-path:url(#SVGID_00000096060424107366446640000008554938740917540249_);}
	.st130{clip-path:url(#SVGID_00000049911245050546185860000015374258550703777197_);}
	.st131{clip-path:url(#SVGID_00000101812604000587349950000000084595230498469800_);}
	.st132{clip-path:url(#SVGID_00000079476540902377838270000004157193163152348046_);}
	.st133{clip-path:url(#SVGID_00000113329454243010472280000012452797817271143337_);}
	.st134{clip-path:url(#SVGID_00000029009013055881448180000015325302793953515449_);}
	.st135{clip-path:url(#SVGID_00000018205921848944637570000001866149228903012515_);}
	.st136{clip-path:url(#SVGID_00000096031576831164279960000002472327317963385745_);}
	.st137{clip-path:url(#SVGID_00000110463836337517718600000002605757147362842262_);}
	.st138{clip-path:url(#SVGID_00000069362579112810464360000003017222978383890340_);}
	.st139{clip-path:url(#SVGID_00000016780171362580756860000009656325207978413445_);}
	.st140{clip-path:url(#SVGID_00000083798443717408015550000010561834864688496515_);}
	.st141{clip-path:url(#SVGID_00000021090449461200275930000005495847498052464814_);}
	.st142{clip-path:url(#SVGID_00000116953004157232809270000004474196764969913234_);}
	.st143{clip-path:url(#SVGID_00000128456553659216738250000015861696671436261777_);}
	.st144{clip-path:url(#SVGID_00000088820249435667762000000013102724422291604139_);}
	.st145{clip-path:url(#SVGID_00000018221701889600827430000008174191800228783806_);}
	.st146{clip-path:url(#SVGID_00000149347230494110732530000011242334223064242075_);}
	.st147{clip-path:url(#SVGID_00000083798057031818936900000000127727985468064907_);}
	.st148{clip-path:url(#SVGID_00000057134768918657668040000015907386063693606065_);}
	.st149{clip-path:url(#SVGID_00000042004095593462377270000005063684459403272067_);}
	.st150{clip-path:url(#SVGID_00000047750927513454084470000002563183967138477976_);}
	.st151{clip-path:url(#SVGID_00000103959559714034146420000007061628395327381940_);}
	.st152{clip-path:url(#SVGID_00000000922806483821368230000004092118365464582553_);}
	.st153{clip-path:url(#SVGID_00000151544646013652844610000016277865922222684296_);}
	.st154{clip-path:url(#SVGID_00000032606316517960602300000007763334537235242386_);}
	.st155{clip-path:url(#SVGID_00000155137341904918638650000016164676356766326960_);}
	.st156{clip-path:url(#SVGID_00000011028475813567857840000008659900167610094505_);}
	.st157{clip-path:url(#SVGID_00000087402393728364439750000015318019110002240403_);}
	.st158{clip-path:url(#SVGID_00000067232825331820649500000003214088321952947643_);}
	.st159{clip-path:url(#SVGID_00000106838791921686800200000016031239510866493075_);}
	.st160{clip-path:url(#SVGID_00000094613800835544024380000013429090144086177184_);}
	.st161{clip-path:url(#SVGID_00000032607232177224964910000011248749314416437894_);}
	.st162{clip-path:url(#SVGID_00000044877917059099690820000003198800574573042604_);}
	.st163{clip-path:url(#SVGID_00000115487599700484636760000003707979491199379867_);}
	.st164{clip-path:url(#SVGID_00000124884134913449967560000003647990088107823237_);}
	.st165{clip-path:url(#SVGID_00000175303589020987256550000005974897794722162600_);}
	.st166{clip-path:url(#SVGID_00000067930583183736814940000000052812044191930036_);}
	.st167{clip-path:url(#SVGID_00000031902408882000061390000016307084404153466272_);}
	.st168{clip-path:url(#SVGID_00000008861614221500486300000010324251058517518520_);}
	.st169{clip-path:url(#SVGID_00000090973469555810791980000002534034475485150863_);}
	.st170{clip-path:url(#SVGID_00000085211073212975056200000015752951134038270118_);}
	.st171{clip-path:url(#SVGID_00000137829199964723158560000010756712793465238940_);}
	.st172{clip-path:url(#SVGID_00000007419959848949240050000000111163236963860096_);}
	.st173{clip-path:url(#SVGID_00000173856042709462853880000007726735378935189651_);}
	.st174{clip-path:url(#SVGID_00000147201438444112761120000016777866501392445843_);}
	.st175{clip-path:url(#SVGID_00000060024588102354354620000004186496438543546043_);}
	.st176{clip-path:url(#SVGID_00000103944675942345180530000008601320453519872666_);}
	.st177{clip-path:url(#SVGID_00000101104568601799320850000004347706826179497148_);}
	.st178{clip-path:url(#SVGID_00000106106260044005527670000015015945076030304128_);}
	.st179{clip-path:url(#SVGID_00000051368065879071927110000012484243988672791686_);}
	.st180{clip-path:url(#SVGID_00000003810388932963249720000005558377556589326750_);}
	.st181{clip-path:url(#SVGID_00000010302425366748237200000012541171253961407412_);}
	.st182{clip-path:url(#SVGID_00000105398105302628127110000009174200324291845010_);}
	.st183{clip-path:url(#SVGID_00000057115602743676530770000007004684139687332025_);}
	.st184{clip-path:url(#SVGID_00000087373034160245579770000012705535667092381350_);}
	.st185{clip-path:url(#SVGID_00000026849506120438071190000014001208815543206333_);}
	.st186{clip-path:url(#SVGID_00000039096806420792412420000006231587823304351934_);}
	.st187{clip-path:url(#SVGID_00000175307223154138590160000015888426731930509704_);}
	.st188{clip-path:url(#SVGID_00000139990122651707981110000016424133133576712847_);}
	.st189{clip-path:url(#SVGID_00000093876525455724728030000002987953026301635260_);}
	.st190{clip-path:url(#SVGID_00000055705786886956482760000010394562788993997722_);}
	.st191{clip-path:url(#SVGID_00000015324744976673934660000012706767475079582101_);}
	.st192{clip-path:url(#SVGID_00000129195209566891634510000004087199243389568656_);}
	.st193{clip-path:url(#SVGID_00000158727372950223628420000003157560904275551676_);}
	.st194{clip-path:url(#SVGID_00000008114034112201800770000011409259459707092411_);}
	.st195{clip-path:url(#SVGID_00000036944328829166141690000008474656026171298979_);}
	.st196{clip-path:url(#SVGID_00000172411733518317671970000009403808929648430014_);}
	.st197{clip-path:url(#SVGID_00000168831622606448234960000015792386357985330326_);}
	.st198{clip-path:url(#SVGID_00000000912714936868255370000016446806814086064303_);}
	.st199{clip-path:url(#SVGID_00000064324504677523985670000006684450324206737544_);}
	.st200{clip-path:url(#SVGID_00000011753977579358708960000007269459074513579197_);}
	.st201{clip-path:url(#SVGID_00000001654958496710958100000006993655461847973042_);}
	.st202{clip-path:url(#SVGID_00000117677773625866573650000005715003927039354765_);}
	.st203{clip-path:url(#SVGID_00000062879336998779183180000018022637173011874451_);}
	.st204{clip-path:url(#SVGID_00000083794084254838092590000013899413033035590545_);}
	.st205{clip-path:url(#SVGID_00000077314137610106086250000010101457560014727822_);}
	.st206{clip-path:url(#SVGID_00000166647504379519757010000013043246855703865764_);}
	.st207{clip-path:url(#SVGID_00000008829782911496954280000002017474142835493285_);}
	.st208{clip-path:url(#SVGID_00000167387255443526013080000007451380857036672911_);}
	.st209{clip-path:url(#SVGID_00000049941105694864886870000009169142198871262909_);}
	.st210{clip-path:url(#SVGID_00000148633204763549778660000000100736634910972075_);}
	.st211{clip-path:url(#SVGID_00000071544511137784582960000008822635789099395740_);}
	.st212{clip-path:url(#SVGID_00000063612880737942987710000013600071962469703302_);}
	.st213{clip-path:url(#SVGID_00000137818776174829289110000007049022566827101844_);}
	.st214{clip-path:url(#SVGID_00000106853558191857585660000013652086655040736947_);}
	.st215{clip-path:url(#SVGID_00000152248937927748149460000005343828956684309654_);}
	.st216{clip-path:url(#SVGID_00000074409038117510705570000015180959411873263533_);}
	.st217{clip-path:url(#SVGID_00000039830194500608901000000001538712059774176668_);}
	.st218{clip-path:url(#SVGID_00000071561263788762544440000017598455005323378328_);}
	.st219{clip-path:url(#SVGID_00000025400536041761088970000010792794683300342922_);}
	.st220{clip-path:url(#SVGID_00000183957263949168686340000004181886468031208103_);}
	.st221{clip-path:url(#SVGID_00000171713233401959649730000014462454947238204863_);}
	.st222{clip-path:url(#SVGID_00000088121843537375036520000017532634535891198642_);}
	.st223{clip-path:url(#SVGID_00000000910110107713562070000000576466996575020215_);}
	.st224{clip-path:url(#SVGID_00000099622823682589595230000004413136621997585584_);}
	.st225{clip-path:url(#SVGID_00000176004171326587472450000006734356876883314620_);}
	.st226{clip-path:url(#SVGID_00000013166624414385312670000011982566150227374770_);}
	.st227{clip-path:url(#SVGID_00000152945689369830115080000017159897197193534641_);}
	.st228{clip-path:url(#SVGID_00000043416495853030881690000006501859424595387554_);}
	.st229{clip-path:url(#SVGID_00000045586796687586846230000017620183052477837476_);}
	.st230{clip-path:url(#SVGID_00000067914821566634773400000006493266519386193827_);}
	.st231{clip-path:url(#SVGID_00000076582978661357580860000000998530074948619140_);}
	.st232{clip-path:url(#SVGID_00000048483320595297295290000002145002050504540051_);}
	.st233{clip-path:url(#SVGID_00000098204214471804611700000002557106219321927311_);}
	.st234{clip-path:url(#SVGID_00000114789388048370973700000008776099579786768809_);}
	.st235{clip-path:url(#SVGID_00000159467620441040874500000004839819256271137954_);}
	.st236{clip-path:url(#SVGID_00000078754225854744927660000005493961007723628190_);}
	.st237{clip-path:url(#SVGID_00000089540879113477932320000012448771625516031371_);}
	.st238{clip-path:url(#SVGID_00000015341685371701374270000010966621050133408152_);}
	.st239{clip-path:url(#SVGID_00000038407400953287270410000015943315048864314522_);}
	.st240{clip-path:url(#SVGID_00000100372180998560814340000017918579480524283541_);}
	.st241{clip-path:url(#SVGID_00000100357747350884923620000005456461973192396733_);}
	.st242{clip-path:url(#SVGID_00000127751053411973691990000006920977932323895178_);}
	.st243{clip-path:url(#SVGID_00000086690818052187716650000008582448318669411481_);}
	.st244{clip-path:url(#SVGID_00000072256541915146169470000011352915987406295711_);}
	.st245{clip-path:url(#SVGID_00000079444325459212436480000010283345216409487761_);}
	.st246{clip-path:url(#SVGID_00000011732280770578576410000010967202713697992342_);}
	.st247{clip-path:url(#SVGID_00000163050335454395947900000000904693579142768524_);}
	.st248{clip-path:url(#SVGID_00000063617054453860422480000012314150704216076222_);}
	.st249{clip-path:url(#SVGID_00000071537925305582437420000009062927840845632421_);}
	.st250{clip-path:url(#SVGID_00000070817186227197191950000002973358202991347636_);}
	.st251{clip-path:url(#SVGID_00000014597993907517190600000010969577830390006960_);}
	.st252{clip-path:url(#SVGID_00000140006427219193849240000009603324998822722995_);}
	.st253{clip-path:url(#SVGID_00000084493661731154016300000005556794594435769253_);}
	.st254{clip-path:url(#SVGID_00000099631706794248977240000018244013418585025411_);}
	.st255{clip-path:url(#SVGID_00000035531166212749193920000004233535598630610094_);}
	.st256{fill:#E94966;}
	.st257{fill:#13224F;}
	.st258{display:none;}
	.st259{display:inline;}
	.st260{display:inline;enable-background:new    ;}
</style>
<g id="FONDS">
</g>
<g id="ILLUSTRATIONS">
	<path class="st19" d="M428,9.2023869c-19.3730469-13.5507812-46.2207031-12.2226562-64.1943359,4.5585938l-33.9345703,31.6445332
		c-20.6489258,19.286129-21.7861328,51.648922-2.5424805,72.3369141l45.284668,48.5620193
		c18.449707,19.8017578,17.3666992,50.8066406-2.4189453,69.2729492
		c-19.7978516,18.4775391-50.8261719,17.4072266-69.3032227-2.390625l-11.7700195-12.6220703
		c-3.0253906-3.2441406-2.8481445-8.3271484,0.3964844-11.3525391c3.2441406-3.0253906,8.3271484-2.8481445,11.3525391,0.3964844
		l-0.0019531,0.0004883c8.5795898,9.199707,22.9921875,9.7026367,32.1923828,1.1245117
		c9.2016602-8.5795898,9.7060547-22.9936523,1.1264648-32.1948242l-20.2695312-21.7368164
		c-2.7998047-3.0024414-7.5039062-3.1665039-10.5063477-0.3666992s-3.1665039,7.5039062-0.3666992,10.5063477l20.2700195,21.7373047
		c3.0258789,3.2441406,2.8481445,8.3271484-0.3959961,11.3525391c-3.2446289,3.0253906-8.3276367,2.8481445-11.3530273-0.3964844
		c-8.5795898-9.1992188-22.9921875-9.7026367-32.1923828-1.1240234c-9.2016602,8.5791016-9.7060547,22.9931641-1.1264648,32.1943359
		l11.7734375,12.6254883c24.0639648,25.7807617,64.4643555,27.1914062,90.2685547,3.1523438
		c25.8222656-24.0556641,27.2539062-64.4897461,3.1982422-90.3115234l-45.284668-48.5620193
		c-13.6484375-14.6835938-12.8427734-37.6425781,1.8017578-51.333004l33.9345703-31.6450214
		c14.6787109-13.6533203,37.6376953-12.855957,51.3334961,1.7827148L428,29.3395939V9.2023869z"/>
	<path class="st19" d="M168.4145508,52.6926231l-26.7338867-13.0249023
		c-19.1865234-9.3476582-40.9990234-4.2089844-48.6318359,11.4580078
		C85.4155273,66.7922287,94.8125,87.1369553,113.9990234,96.4846115l30.4428711,14.8320312
		c5.1171875,2.4931641,7.6586914,7.9960938,5.6235352,12.1738281l-35.6166992,73.103035l-11.1274414-5.4213867
		c-13.175293-6.4189453-28.1938477-2.8813477-33.4345703,7.875l-8.8037109,18.0698242
		c-1.78125,3.6552734-6.9658203,4.8769531-11.4428711,2.6958008L7.3017578,199.1848145
		C4.840332,197.986084,2.1694336,197.8449707,0,198.5905762v12.9819336c0.3183594,0.2001953,0.6464844,0.390625,0.9936523,0.5600586
		l42.3383789,20.6274414c13.3051758,6.4824219,28.3212891,2.9438477,33.612793-7.9169922l8.8037109-18.0703125
		c1.7807617-3.6542969,6.7875977-4.8344727,11.2646484-2.6533203l12.0268555,5.859375
		c8.1796875,3.987793,17.4794922,1.7954102,20.7348633-4.8857422l36.0771484-74.0488281
		c5.4951172-11.2793045-1.2827148-25.9531326-15.097168-32.6850662L120.3120117,83.527092
		c-10.487793-5.109375-15.5712891-16.1147461-11.3989258-24.6787071
		c4.1220703-8.4594727,15.9726562-11.3447266,26.4604492-6.2348633l26.7338867,13.0244102
		c4.3491211,2.1191406,9.3549805,0.940918,11.0844727-2.6083946
		C174.9208984,59.4802208,172.7636719,54.8117638,168.4145508,52.6926231z"/>
	<path id="Tracé_4269_00000012451890677188561450000014964632059553960359_" class="st12" d="M295.8274231,227.583725
		l-4.0872192-4.3829956l-10.8730164,10.139267l4.0872192,4.3829956L295.8274231,227.583725z M309.7070923,240.5338135
		c-1.4076233-0.9831085-2.8153687-1.9633789-4.134552-3.0276031l-9.4764709,11.4594879
		c1.7119751,1.4368134,3.5058899,2.7730255,5.3726807,4.0019531L309.7070923,240.5338135z M287.0145569,215.3192902
		c-0.0186462-1.0306549,0.1326904-2.0573425,0.4478455-3.0388031l-13.9010925-5.0624847
		c-0.981842,2.7586212-1.4298096,5.6788788-1.3200684,8.6049652L287.0145569,215.3192902z M326.3423767,247.4726562
		c-1.6820679-0.397644-3.3655701-0.7953339-5.0417175-1.3625946l-4.7342529,14.0844879
		c2.0965271,0.6661377,4.2808228,1.2504272,6.4650574,1.8361206L326.3423767,247.4726562z M344.2970581,248.094696
		c-1.705719,0.2793427-3.40625,0.3897705-5.106781,0.5001984l0.6704102,14.7805328
		c2.2064819-0.0927734,4.4210815-0.3557434,6.6362915-0.6166077L344.2970581,248.094696z M292.9762268,207.2973938
		c1.0013123-0.245697,2.0362549-0.3247681,3.0632935-0.2340546l1.8729553-14.6924133
		c-2.8985596-0.3789368-5.8430481-0.1929626-8.6708984,0.5476532L292.9762268,207.2973938z M305.649353,213.5049591
		c2.5166931,1.5192413,5.3034363,2.5374756,8.2067566,2.9985809l2.3802795-14.6732788
		c-1.0158386-0.1691742-1.9848328-0.549881-2.8441772-1.1174774L305.649353,213.5049591z M361.2131348,242.1513062
		c-1.4628296,0.8831177-2.9915161,1.6522064-4.5725098,2.3004456l5.9683838,13.6070557
		c2.068634-0.9459229,4.0553894-1.9795837,6.0421448-3.0118408L361.2131348,242.1513062z M333.9328308,209.9085083
		c2.0922241-2.094574,3.7128601-4.6118622,4.75354-7.3834229l-13.8000793-5.48349
		c-0.3532715,0.9815674-0.9376221,1.8636932-1.7037048,2.5718384L333.9328308,209.9085083z M336.6249084,181.5050201
		c-0.6824646-1.0908051-1.4697876-2.112381-2.350769-3.0502014l-2.2874146-2.4529572l-10.8730164,10.139267l2.2887878,2.4544373
		c0.3206482,0.3065033,0.5939941,0.6589355,0.8110962,1.0457611L336.6249084,181.5050201z M321.8501892,165.1317444
		l-4.0865173-4.3822632l-10.8730469,10.139267l4.0872192,4.3830109L321.8501892,165.1317444z M374.8502197,230.5816956
		c-1.0649719,1.31987-2.2103271,2.5520172-3.4434509,3.8660278l10.4854736,10.5419617
		c1.5879822-1.5918884,3.0904541-3.2668152,4.5011292-5.0177612L374.8502197,230.5816956z M383.4597168,214.8537903
		c-0.5686951,1.6775208-1.1307983,3.1861877-1.8676147,4.8549957l13.5270691,6.0675812
		c0.9045105-2.045517,1.6854248-4.1435089,2.3384705-6.2826385L383.4597168,214.8537903z M385.8654175,197.0420532
		c0.1222839,1.6937714,0.1194153,3.3942413-0.0085449,5.0876007l14.8151245,0.7699432
		c0.0769348-2.2034149,0.0726929-4.4924469-0.0206909-6.7010956L385.8654175,197.0420532z M381.6466064,179.5091095
		c0.704895,1.6356812,1.3293457,3.1850586,1.8660889,4.813446l14.0708008-4.5986633
		c-0.6776428-2.1378479-1.4824219-4.2332916-2.4100952-6.275116L381.6466064,179.5091095z M371.3156433,164.5624542
		l1.4710693,1.5775299c0.7782898,0.8052063,1.5127869,1.6515961,2.2003479,2.5355377l11.5270691-9.437912
		c-0.8929443-1.1335297-1.8729858-2.1844788-2.8543701-3.2368927l-1.4710693-1.5775299L371.3156433,164.5624542z
		 M328.8128357,118.9837646l4.0872192,4.3830032l10.8737793-10.1399612l-4.0858765-4.381546L328.8128357,118.9837646z
		 M342.9526978,134.1469269l4.0872192,4.3829956l10.8737793-10.1399536l-4.0858459-4.3815536L342.9526978,134.1469269z
		 M357.0932617,149.3108063l4.0872192,4.3829956l10.8737793-10.1399536l-4.0858765-4.381546L357.0932617,149.3108063z
		 M316.2936401,98.7022781c0.7329407,2.19767,1.5920715,4.3512115,2.5730896,6.449913l13.2892761-6.4924469
		c-0.719574-1.4681396-1.3180237-2.9926071-1.7893677-4.5581818L316.2936401,98.7022781z M314.4232788,74.7228851
		c-0.3626404,2.2940979-0.5572815,4.6115952-0.5824585,6.9340439l14.8329468,0.2597275
		c0.0412903-1.6447906,0.2123108-3.2837677,0.5115051-4.9016495L314.4232788,74.7228851z M323.6860657,52.4843788
		c-1.3384705,1.8940163-2.5682678,3.8625374-3.6834412,5.8960571l12.9827881,7.0660133
		c0.7859802-1.4528732,1.6861877-2.8409843,2.6921082-4.1512146L323.6860657,52.4843788z M334.8653564,40.7482758
		l10.1351624,10.8686485l4.3881226-4.0919914L339.253479,36.6562843L334.8653564,40.7482758z M350.0336304,26.603632
		l10.1351624,10.8686466l4.3881226-4.0919914l-10.1351624-10.8686466L350.0336304,26.603632z M371.127594,8.0803623
		c-1.9331665,1.3043451-3.7945862,2.7119789-5.5761719,4.2167721l9.6963501,11.2778454
		c1.3097839-1.0573139,2.6181641-2.1146736,3.9220276-3.0023861L371.127594,8.0803623z M393.8806458,0.1368234
		c-2.2998047,0.2089153-4.5815125,0.5837159-6.8272705,1.1214736l3.4815674,14.4520502
		c1.5973206-0.3858948,3.2233276-0.6414557,4.8619995-0.7641649L393.8806458,0.1368234z M417.7695923,3.4290316
		c-2.164978-0.8548312-4.3773804-1.5843388-6.6261902-2.1849058l-3.5602417,14.4636898
		c1.5982666,0.4006538,3.1678162,0.9081268,4.6980896,1.5189953L417.7695923,3.4290316z"/>
	<path id="Tracé_4270_00000137093581337232848050000017972333179675345299_" class="st12" d="M325.9655457,166.3792114
		c5.0844116-4.7390137,5.3643799-12.7024841,0.6253662-17.7868805c-0.0004578-0.0004883-0.0009155-0.0009766-0.0013428-0.0014648
		l-15.6116333-16.7414246l-34.4584656,32.1330414l15.6116333,16.7414246
		c4.7406311,5.0828857,12.7041626,5.3603516,17.7870789,0.6197205c0.0004883-0.0004578,0.0009766-0.0009155,0.0014648-0.0013733
		L325.9655457,166.3792114z"/>
	<path id="Tracé_4271_00000019674371794624220670000018055710579530245557_" class="st19" d="M281.4193726,169.2443237
		c2.4472961,2.6610107,6.5883484,2.834259,9.2493591,0.3869934c0.0243835-0.0224304,0.048584-0.0450287,0.0726318-0.0678253
		l24.724884-23.0563202c2.6617126-2.4464874,2.8362122-6.5875092,0.3897095-9.2492371
		c-0.020813-0.0226593-0.0418091-0.045166-0.0629578-0.0675354l-8.9089355-9.5536728
		c-2.4484558-2.6614075-6.5908203-2.8340378-9.2522583-0.3855743c-0.0218811,0.0201492-0.0436707,0.0404587-0.0653076,0.0609055
		l-24.7248535,23.0563202c-2.6643982,2.4452057-2.8421021,6.5873718-0.3968811,9.25177
		c0.0217285,0.0236664,0.0436096,0.0471649,0.0656738,0.0705109L281.4193726,169.2443237z"/>
	<path id="Tracé_4272_00000181054283530220929600000014584335189677359796_" class="st12" d="M286.4951782,128.6228333
		l13.1591492,14.1114655c1.424469,1.4781952,3.7775574,1.5217438,5.2557373,0.0972748
		c1.4440308-1.3915405,1.5238647-3.6776886,0.1804199-5.1665649l-13.1591492-14.1114731
		c-1.4047241-1.4903259-3.7475586-1.5715103-5.2520752-0.1819916c-1.4993896,1.3548203-1.6165771,3.668602-0.2617493,5.1679764
		C286.4429626,128.567688,286.4688721,128.595459,286.4951782,128.6228333"/>
	<path id="Tracé_4273_00000064318189459078241490000003787888593626194592_" class="st12" d="M269.5730591,144.4043121
		l13.1591797,14.1114655c1.424469,1.4781952,3.7775269,1.5217438,5.2557373,0.0972748
		c1.4440002-1.3915405,1.5238342-3.6776886,0.1804199-5.1665649l-13.1591797-14.1114655
		c-1.4046936-1.4903259-3.7475586-1.5715179-5.2520447-0.1819916
		C268.2667236,140.5570679,268.1846313,142.899353,269.5730591,144.4043121"/>
	
		<g id="Groupe_1184_00000094617510291950299960000012665406137889848971_" transform="matrix(-0.899, -0.438, 0.438, -0.899, 90.855, 655.948)">
		<g>
			<g id="Groupe_1183_00000137843740892981751460000003471441852885955976_">
				<path id="Tracé_4275_00000132808935643256600260000013148626391291819677_" class="st12" d="M209.4302521,576.2706909
					h-7.1139984v-14.4000244h7.1139984V576.2706909z M236.7492523,574.5286865
					c-2.9287415,0.807251-5.9323578,1.3129272-8.9639893,1.5089722l-1.7070007-14.2890015
					c1.6308594-0.1459961,3.2480164-0.4177856,4.8369904-0.8129883L236.7492523,574.5286865z M259.6552429,557.3356934
					c-1.2896118,2.2838745-2.8160095,4.4256592-4.5539856,6.3899536l-14.0850067-8.7109985
					c0.9979248-1.0484009,1.85849-2.2194824,2.5610046-3.4849854L259.6552429,557.3356934z M259.6552429,532.0106812
					c1.243866,2.2162476,2.1536865,4.6040039,2.7000122,7.0859985l-17.3580017,2.5559692
					c-0.3095245-1.3329468-0.7877045-2.6209717-1.4230042-3.8329468L259.6552429,532.0106812z M236.7482605,514.8146973
					c2.860611,0.7810059,5.6276093,1.87146,8.2519989,3.2519531l-9.3899994,12.2000122
					c-1.4180908-0.7043457-2.8933716-1.2871094-4.4100037-1.7420044L236.7482605,514.8146973z M190.3642578,513.1876831
					c-1.0060425-0.0010376-2.0086365-0.1177979-2.9879913-0.3480225l-5.1220093,13.8240356
					c2.6501007,0.668335,5.3774109,0.9807129,8.1100006,0.9289551h1.4230042V513.192688L190.3642578,513.1876831z
					 M209.4292603,513.1876831h7.1139984v14.3999634h-7.1130066L209.4292603,513.1876831z M179.9782562,504.4746704v0.2319946
					c0.0404053,0.9926758,0.2322845,1.9733276,0.5690002,2.90802l-16.5,5
					c-1.1437073-2.4757385-1.7282104-5.1729126-1.7120056-7.8999939v-0.2319946L179.9782562,504.4746704z M179.9782562,490.1856689
					h-17.6430054v-5.8089905h17.6440125L179.9782562,490.1856689z M179.9782562,469.9726868h-17.6430054v-5.8089905h17.6440125
					L179.9782562,469.9726868z M179.9782562,449.8726807h-17.6430054v-5.803009h17.6440125L179.9782562,449.8726807z
					 M179.9782562,429.6586914h-17.6430054v-5.803009h17.6440125L179.9782562,429.6586914z M189.6532593,423.2686768h-7.1130066
					v-14.3999939h7.1139984L189.6532593,423.2686768z M217.5352631,408.7546692
					c-1.1924591,2.7983398-2.9898224,5.297821-5.2630005,7.3190002l-13.0900116-9.6419983
					c0.799469-0.6567688,1.4329224-1.4926758,1.848999-2.4399719L217.5352631,408.7546692z M218.959259,392.1426697h-17.6380005
					v-5.8099976h17.6430054L218.959259,392.1426697z M223.511261,375.0656738
					c-1.0236969,0.4700317-1.9420166,1.1417542-2.6999969,1.9750061l-13.9410095-8.7129822
					c2.2196045-2.3511658,4.8774567-4.245697,7.8240051-5.5770264L223.511261,375.0656738z M268.0492554,374.014679h-7.1140137
					v-14.3999939h7.1140137V374.014679z M243.435257,374.014679h-7.1130066v-14.3999939h7.1130066V374.014679z"/>
				<path id="Tracé_4276_00000077284042488778336580000009767353498329371570_" class="st12" d="M199.6122589,546.1826782
					h-24.3300018v29.507019l-5.2639923,7.6669922c-1.1386414,1.6842651-1.1386414,3.8917236,0,5.5759888
					c1.3094025,1.5982666,3.2062073,2.6032104,5.2639923,2.7890015h47.9490051
					c2.318222,0.0559082,4.5290833-0.9760742,5.9749908-2.7890015c1.2808685-1.6380005,1.2808685-3.9379883,0-5.5759888
					c-6.5419922-9.4089966-17.0740051-24.7440186-23.6190033-34.3859863
					C204.1486511,547.1486206,201.932785,546.1146851,199.6122589,546.1826782"/>
				<path id="Tracé_4277_00000101805164520194673750000012343817731339429813_" class="st19" d="M151.6642609,591.8376465
					c-2.318573,0.057251-4.5301666-0.9744873-5.9759979-2.7879639c-1.2806702-1.6384277-1.2806702-3.9385986,0-5.5770264
					c6.5399933-9.4089966,17.072998-24.742981,23.6179962-34.3850098c1.4320831-1.8452148,3.6412811-2.9189453,5.977005-2.9049683
					c2.360199-0.1310425,4.6203461,0.9678345,5.9749908,2.9049683c6.5449982,9.6420288,17.0700073,24.8600464,23.6190033,34.3850098
					c1.1371613,1.6851196,1.1371613,3.8919067,0,5.5770264c-1.4465485,1.8131104-3.6582489,2.8447876-5.977005,2.7879639
					H151.6642609z"/>
				<path id="Tracé_4278_00000103954396108783110000000003759688384774329779_" class="st12" d="M169.7342529,567.90271
					c-0.5629578,0.0259399-1.0999908-0.2382202-1.4229889-0.7000122c-0.2853394-0.3782349-0.2853394-0.8997803,0-1.2780151
					c1.5649872-2.2000122,3.9869995-5.8009644,5.548996-8.1220093c0.3227386-0.4620972,0.8599548-0.7263794,1.4230042-0.7000122
					c0.5627594-0.0263672,1.0997009,0.237915,1.4219971,0.7000122c1.5650024,2.322998,3.9839935,5.9240112,5.548996,8.1310425
					c0.2866974,0.3777466,0.2866974,0.9002075,0,1.2779541c-0.3227539,0.4620972-0.8599548,0.7263794-1.4230042,0.7000122
					L169.7342529,567.90271z"/>
				<path id="Tracé_4279_00000009571501612373740340000001222679296253151655_" class="st12" d="M179.8352509,584.3986816
					c-0.5629578,0.026001-1.0999908-0.2382202-1.4229889-0.7000122c-0.2853394-0.3782349-0.2853394-0.8997803,0-1.2780151
					c1.5650024-2.1999512,3.9869995-5.8009644,5.548996-8.1220093c0.3227386-0.4620972,0.8599548-0.7263184,1.4230042-0.6999512
					c0.5627594-0.0264282,1.0997009,0.237915,1.4219971,0.6999512c1.5650024,2.3230591,3.9839935,5.9240112,5.548996,8.1310425
					c0.2866974,0.3777466,0.2866974,0.9002075,0,1.2780151c-0.3227386,0.4620972-0.8599548,0.7263184-1.4230042,0.6999512
					L179.8352509,584.3986816z"/>
				<path id="Tracé_4280_00000103953411162355356600000010925823372551752587_" class="st12" d="M159.6322632,584.3986816
					c-0.562973,0.026001-1.1000061-0.2382202-1.4230042-0.7000122c-0.2853394-0.3782349-0.2853394-0.8997803,0-1.2780151
					c1.5650024-2.1999512,3.9869995-5.8009644,5.548996-8.1220093c0.3227539-0.4620972,0.8599548-0.7263184,1.4230042-0.6999512
					c0.5627747-0.0264282,1.0997009,0.237915,1.4219971,0.6999512c1.5650024,2.3230591,3.9839935,5.9240112,5.548996,8.1310425
					c0.2866974,0.3777466,0.2866974,0.9002075,0,1.2780151c-0.3565521,0.4207764-0.8720398,0.6743774-1.4229889,0.6999512
					L159.6322632,584.3986816z"/>
			</g>
		</g>
	</g>
	<g id="Groupe_1186_00000169528798347575120960000016793842462630947489_" transform="translate(182.434 474.43)">
		<g>
			<g id="Groupe_1185_00000176023191918495249550000014452160543832394388_" transform="translate(0)">
				<path id="Tracé_4281_00000160152596194126950540000007389927380974084283_" class="st13" d="M28.0775299-345.0715637
					c-0.902832-0.9287415-0.902832-2.4072571,0-3.3359985l13.3710022-13.3450012
					c0.4377518-0.4295654,0.6961517-1.0092773,0.7229996-1.6220093c0.009491-0.6210022-0.2549744-1.2146912-0.7229996-1.6229858
					l-13.2799988-13.2550049c-0.9460602-0.9212646-0.9661713-2.4350281-0.0449066-3.3811035
					c0.0147705-0.0151672,0.0297394-0.0301208,0.0449066-0.0448914c1.3550034-1.2619934,3.1620026-2.8860168,4.5169983-4.1480103
					c0.9386978-0.830658,2.3606796-0.7913208,3.2519989,0.0899963l13.0999985,13.0740051
					c0.4207382,0.4523926,1.0082626,0.7128906,1.6259995,0.7210083c0.6216583,0.0104675,1.2164001-0.2532654,1.6260071-0.7210083
					c3.1629944-3.1549988,10.2089996-10.1889954,13.3710022-13.3439941c0.9311218-0.9036865,2.4118805-0.9036865,3.3430023,0
					l4.3359833,4.321991c0.9038849,0.9283142,0.9038849,2.4076843,0,3.3359985l-13.3699951,13.3439941
					c-0.4531555,0.4190979-0.7145081,1.0057983-0.7230072,1.6229858c-0.0098724,0.6208191,0.2546844,1.2143555,0.7230072,1.6220093
					l13.3699951,13.3450012c0.9038849,0.9283142,0.9038849,2.4076843,0,3.3359985l-4.3359985,4.3280029
					c-0.9311218,0.9036865-2.4118805,0.9036865-3.3430023,0l-13.3709869-13.3339844
					c-0.4209442-0.4520874-1.0083466-0.7125549-1.6260071-0.7210083c-0.6215134-0.0097656-1.2159805,0.2538147-1.6259995,0.7210083
					L35.6665268-340.739563c-0.9311142,0.9036865-2.4118881,0.9036865-3.3430023,0
					c-1.1750031-1.2619934-2.8899994-3.0660095-4.2460022-4.3280029"/>
			</g>
		</g>
	</g>
</g>
<g id="TEXTES_FR" class="st258">
</g>
<g id="TEXTES_GB">
</g>
</svg>
