<?xml version="1.0" encoding="UTF-8"?>
<svg id="Calque_2" data-name="Calque 2" xmlns="http://www.w3.org/2000/svg" width="7.5" height="6" viewBox="0 0 7.5 6">
  <g id="ILLUSTRATIONS">
    <g>
      <g id="Group_1" data-name="Group 1">
        <g id="Group_2029" data-name="Group 2029">
          <g id="Group_2028" data-name="Group 2028">
            <path id="Path_6887" data-name="Path 6887" d="m.2832439,2.5918439h.3260944c.1399471-.6778616.5492439-1.2732345,1.1375385-1.6546897l.2967079.4350535c-.9586442.6250985-1.2395551,1.8828221-.6351256,2.8436483.0479486.081056.0479486.181091,0,.262147l-.4199413.7306654.4540674.262147.2843847-.4843218c.0749707-.1265087.2403262-.1694649.3693322-.0959463.0017136.000977.0034161.0019717.0051076.0029859.3371971.2047207.7257825.313504,1.1223713.3142044h1.0673905c.3289293.0007358.6535039-.0737439.9479488-.2175258.1265992-.0609547.2797082-.0149736.3497931.1050457l.2189761.3718399.4540675-.262147-.3023954-.5233649c-.0545973-.0917459-.047102-.2067793.018959-.2909647.1514108-.1881975.2681791-.4008562.3450532-.6284106.0263757-.07929.0897756-.1414628.1706306-.1673284l.4739744-.149665v-.6367759l-.3981386-.0650718c-.102065-.016135-.1854925-.0885366-.2142363-.1859208-.0756745-.2875463-.2141025-.555555-.405722-.7855119-.0386642-.0513925-.0568665-.1148596-.0511891-.1784828.0149007-.2592764-.0074366-.5193187-.0663566-.7724975-.2256664.0684105-.442585.1619826-.6465012.2788795l-.2843848-.4452788c.3276953-.1886194.6814575-.3298287,1.0503275-.4192501.1366773-.0309366.2744929.0469864.3156671.1784828.1106271.3672264.1655644.7484157.1630471,1.1313231.1669855.2176925.2978368.459896.387711.7176511l.4569112.0678608c.1307808.0207201.2263594.1322446.2246638.262147v1.0467333c.0003047.112794-.0729999.2131339-.1820061.2491326l-.5346432.1729065c-.0684788.1838747-.158168.3594692-.2673216.5233649l.2085485.3644036c.1454126.2496646.0582194.5676119-.1952773.7120748l-.4540675.262147c-.0812008.04624-.1734223.0706144-.2673216.0706498-.047111.0002766-.094025-.0059823-.1393483-.0185924-.1379457-.0341405-.2563263-.1207888-.3289383-.2407673l-.0947948-.1701174c-.3025157.1137763-.6239501.1714614-.9479488.1701174h-1.0740259c-.4026567.000195-.8000815-.0894497-1.162185-.262147l-.148828.262147c-.1459831.2516965-.472393.3396834-.7290571.1965274-.0018742-.0010461-.003742-.0021029-.0056032-.0031703l-.4540674-.262147c-.2556299-.1438972-.3439046-.4637666-.197167-.7144489.000626-.0010692.0012559-.0021366.0018895-.0032022l.3469492-.5949438c-.2086662-.3807567-.3186961-.8059731-.3204067-1.2382287h-.2711134c-.1473758.0086189-.2739724-.1015527-.2827614-.2460759-.008789-.1445231.1035577-.2686701.2509335-.277289.0105999-.0006206.0212281-.0006206.031828-.0000018Z" style="fill: #fff;"/>
            <path id="Path_6888" data-name="Path 6888" d="m5.0931386,2.3296987c0,.144782.1196869.2621452.2673194.2621452.1476397,0,.2673266-.1173632.2673266-.2621452s-.1196869-.2621452-.2673266-.2621452c-.1476324,0-.2673194.1173632-.2673194.2621452" style="fill: #fff;"/>
          </g>
        </g>
      </g>
      <g id="Group_2041" data-name="Group 2041">
        <g id="Group_2040" data-name="Group 2040">
          <path id="Path_6944" data-name="Path 6944" d="m4.6741426,1.078455C4.6658237.4747467,4.160018-.0080423,3.544394.0001155l-.0002063.0000027c-.615615-.00879-1.1219359.4734794-1.1308994,1.0771788l-.0000034.0002284c.0006733.2874988.1200185.5624812.3308341.7622726.2143635.2031963.500983.3165586.7991208.3160641.615615.00879,1.1219359-.4734794,1.1308994-1.0771788l.0000034-.0002284m-1.0218887,0c-.0010383.057651-.0492704.1037049-.1080661.1031856h-.3791795c-.0581127,0-.1052223-.0461978-.1052223-.1031857,0-.0569878.0471096-.1031856.1052223-.1031856h.2730092v-.425757c.0079225-.0585281.0627278-.0996764.1224111-.0919072.0488253.0063557.0872401.0440269.0937212.0919072l-.001896.5289427Z" style="fill: #fff;"/>
        </g>
      </g>
    </g>
  </g>
</svg>