<?xml version="1.0" encoding="UTF-8"?>
<svg id="Calque_2" data-name="Calque 2" xmlns="http://www.w3.org/2000/svg" width="92.0530014" height="56.5" xmlns:xlink="http://www.w3.org/1999/xlink" viewBox="0 0 92.0530014 56.5">
  <defs>
    <clipPath id="clippath">
      <rect width="92.0530014" height="56.5" style="fill: none;"/>
    </clipPath>
    <clipPath id="clippath-1">
      <rect width="92.0530014" height="56.5" style="fill: none;"/>
    </clipPath>
  </defs>
  <g id="ILLUSTRATIONS">
    <g id="Groupe_1030" data-name="Groupe 1030">
      <g style="clip-path: url(#clippath);">
        <g id="Groupe_453" data-name="Groupe 453">
          <g id="Groupe_452" data-name="Groupe 452">
            <path id="Tracé_1673" data-name="Tracé 1673" d="M78.276989,49.42099H14.1859856c-1.0122681-.105835-1.7532654-1.0029449-1.6659851-2.0169983V-.0010071H79.9430046V47.4039917c.0872955,1.0140533-.653717,1.9111786-1.6660004,2.0169983" style="fill: #ffbcc6;"/>
          </g>
        </g>
      </g>
      <g style="clip-path: url(#clippath-1);">
        <g id="Groupe_458" data-name="Groupe 458">
          <g id="Groupe_454" data-name="Groupe 454">
            <path id="Tracé_1675" data-name="Tracé 1675" d="M12.2960014,33.6959934c-5.5600014-6.5879993-11.6149979,3.849-2.9860001,5.3640003h.0050011c.2791977,.0656157,.4561272,.3407402,.4000015,.6219997-.0449715,.6805906-.0449715,1.363409,0,2.0439997,.262001,2.0609999,.9669991,3.3099999,2.5089989,3.5250001v.7160001c-1.3718719,.2763553-2.63237,.9495471-3.625,1.9359999-.7585182,.7533849-1.339901,1.6661065-1.7019997,2.6720003-.1240005,.3433333-.2373352,.71-.3400002,1.1C2.7160034,52.9669936,.3700027,54.4619932,.0070038,56.0619936c-.0519981,.2280002,.1679993,.4380002,.4539986,.4380002H91.5900002c.2869987,0,.507-.21,.4550018-.4380002-.3460007-1.5250001-2.4960003-2.9560001-6.0220013-4.205-.1062908-.5016018-.2421951-.9964682-.4069996-1.482-.2743149-.9116122-.7297344-1.7585086-1.3390007-2.49-1.1383514-1.283839-2.6906586-2.1281071-4.387001-2.3859997v-.763c.3907127-.3778358,.6559982-.8665214,.7600002-1.4000001,.0400009-.2090001,.0750008-.4169998,.1070004-.625,.1689415-.1920004,.2959805-.4171276,.3729992-.6610003,.4677639-1.2955475,.6648254-2.6732712,.5790005-4.0480003-.1748409-1.5325499-.9026566-2.9487114-2.0470009-3.9829998-.2812881-.2683945-.5950603-.5005302-.934-.691-.2223263-.1270695-.3862896-.3358803-.4570007-.5820007-.2250004-.7800007-.2450008-.9220009-.2450008-.9220009-.0079994-.0550003-.0270004-.2000008-.1270008-.2530003-.1949997-.1000004-.5480003,.2189999-.6000004,.2709999-.0963688,.0891972-.181345,.1899605-.2530003,.2999992-.0261307,.0422821-.0815907,.0553761-.1238728,.0292454-.020113-.0124283-.0345268-.0322742-.0401268-.0552444-.2420006-.9629993-.2189999-2.0869999-.3689995-2.4239998-.4939995-1.1170006-2.2250004,.2630005-3.0510006,2.7089996-.0166798,.0468235-.0681591,.0712605-.1149826,.0545807-.0282431-.0100613-.0496216-.0335255-.0570173-.0625801-.0785437-.2462864-.1318188-.4999256-.1590004-.757,.0042267-.1127148-.0441828-.2209892-.1309996-.2929993-.2150002-.1270008-.6359997,.2140007-.6999998,.2749996-1.0584774,1.1584721-1.5740862,2.7125692-1.4180002,4.2740002v.0799999c.0304527,.3524017,.1775436,.6845875,.4180002,.9440002,.1000004,.1090002,.2110004,.2270002,.3249998,.3570004-.0089998,.1169996-.0159998,.2349997-.0150003,.3570004,.0067396,1.8295546,.1592216,3.6556644,.4560003,5.461,.104681,.868269,.687747,1.6043468,1.5089998,1.9050002,0,0-.0109997,.4450002-.0109997,.711-1.6108303,.4226923-3.0232697,1.3950927-3.993,2.7490001-5.055995-.6060002-10.740995-1.0270002-16.8109951-1.2080002-1.1571274-1.2717757-2.7210054-2.1009178-4.4229994-2.3450003,0-.2680001-.0120001-.691-.0120001-.691,1.0360003-.1999998,1.4320002-.7810001,1.7089996-2.1999998,.0868549-.46978,.149272-.9437504,.1870003-1.4200001,.2789998,.1289997,.586-.0360003,.829-.6000004,.2083831-.48382,.379221-.9829607,.5110002-1.493,1.26371-.3893518,2.2243357-1.4223776,2.5209999-2.7110004,.3482003-1.9028492-.8734722-3.7395573-2.763-4.1539993-.691205-.1187325-1.4016128-.0496597-2.0569997,.2000008-.1061382-.110815-.2257347-.2079048-.3559999-.2889996-.3007069-.1820164-.6362782-.2988701-.9849997-.3430004-1.8290138-.3760147-3.7324724-.0622158-5.3439999,.8810005-.8639727-.430685-1.8438921-.5709743-2.7939997-.3999996-1.8743038,.4794254-3.0324898,2.3568382-2.6200008,4.2469997,.3096352,1.1900549,1.1985855,2.1436834,2.3640003,2.5360003h0c-.0480556,1.7387381,.4877911,3.4434519,1.5219994,4.8419986,.0846348,.1632791,.2856102,.2270327,.4488888,.1423974,.0582771-.0302081,.1063271-.0769653,.1381111-.1343975,.2681732,.4728627,.7322044,.8024826,1.2670002,.9000001,0,0-.0120001,.4499998-.0120001,.7160001v.0370002l-.25,.0500002c-1.5589361,.2821279-2.9796133,1.0751457-4.0380011,2.2539999-5.7280006,.188-11.1000004,.5910001-15.9150009,1.166-1.0458221-1.2977487-2.5143204-2.1868464-4.1489983-2.5120004,0-.2540002-.0110016-.552-.0110016-.552,.8212509-.3006539,1.4043198-1.0367312,1.5089989-1.9049997,.2812614-1.6986771,.4327011-3.4163151,.4529991-5.1380005,1.2630005-.9860001,1.2150002-3.3360004,1.2150002-3.5410004-.0423279-1.2128487-1.0041313-2.1924477-2.2159996-2.257-.0499992,0-.0999985,0-.151001,.0049992-.2307739,.0030899-.4583359,.0545292-.6679993,.1509991-.3849602,.1493645-.8194809,.0924587-1.1529999-.1509991-.4060669-.3174076-.9120865-.4794617-1.4269981-.4570007-.6977844,.0588131-1.3273697,.4421177-1.7000008,1.0349998-.1448288,.2376423-.3914452,.3949165-.6679993,.4260006" style="fill: #272f60;"/>
          </g>
          <g id="Groupe_455" data-name="Groupe 455">
            <path id="Tracé_1676" data-name="Tracé 1676" d="M53.7509995,48.7689915c-.6952171-.742918-1.6675262-1.1640701-2.6850014-1.1630001h-10.0800018c-2.0377045,.0033126-3.6872101,1.6572974-3.6849976,3.6949999v5.1999998h1.3949966v-1.9679998c-.0038681-.3827138,.3032455-.6961014,.6859589-.6999709,.0013504-.0000136,.0026932-.0000233,.0040436-.0000291h13.2819977c.3819542,.0011013,.6910019,.3110457,.6910019,.693v1.9710001h1.394001v-5.1999998c.0017662-.9406438-.3559647-1.8464122-1-2.5320003" style="fill: #ff647b;"/>
          </g>
          <g id="Groupe_456" data-name="Groupe 456">
            <path id="Tracé_1677" data-name="Tracé 1677" d="M17.0629988,47.8369942h-7.7750015c-.2329178-.0003966-.465332,.0217059-.6940002,.066-1.7376823,.3368509-2.9922028,1.858971-2.9910011,3.6289999v4.9649999h1.394001v-1.7379999c-.0005531-.3821802,.3088188-.6924467,.6909981-.6929998h10.9770012c.3821793,.0005531,.6915512,.3108196,.6909981,.6929998v1.7379999h1.394001v-4.9649999c.0027618-2.0379289-1.647068-3.6922357-3.6849937-3.6949978-.0006676-.0000009-.0013351-.0000016-.0020027-.0000022" style="fill: #ff647b;"/>
          </g>
          <g id="Groupe_457" data-name="Groupe 457">
            <path id="Tracé_1678" data-name="Tracé 1678" d="M84.2769966,47.8869925c-.1940804-.031451-.3903885-.0471689-.5870018-.047h-7.7750015c-2.0380898,.0027613-3.6882095,1.6569078-3.685997,3.695v4.9650004h1.394001v-1.7350006c-.0044174-.3821554,.301796-.6955357,.6839523-.699954,.0023499-.0000272,.0046959-.0000424,.0070457-.0000458h10.9780006c.3819542,.0011015,.6910019,.3110456,.6910019,.6929998v1.7420006h1.3919983v-4.9650004c.0018501-1.8119564-1.3114853-3.3574589-3.0999985-3.648" style="fill: #ff647b;"/>
          </g>
        </g>
      </g>
    </g>
    <g>
      <path d="M31.1260843,12.819688v6.3895926h7.9711943v.9831314h-7.9711943v6.6032932h-1.0910148V11.8366654h10.0018391v.9830226h-8.9108243Z" style="fill: #fff;"/>
      <path d="M43.5274599,11.8366654h1.0910148v14.9590397h-1.0910148V11.8366654Z" style="fill: #fff;"/>
      <path d="M62.0172898,11.8366654v14.9590397h-.8978686l-10.1932452-12.9929945v12.9929945h-1.0910148V11.8366654h.9187493l10.1723645,12.9929945V11.8366654h1.0910148Z" style="fill: #fff;"/>
    </g>
  </g>
</svg>