<?xml version="1.0" encoding="UTF-8"?>
<svg id="FONDS" xmlns="http://www.w3.org/2000/svg" width="19" height="30" viewBox="0 0 19 30">
  <g id="Groupe_2932" data-name="Groupe 2932">
    <g id="Groupe_2923" data-name="Groupe 2923">
      <path id="Tracé_8339" data-name="Tracé 8339" d="M14.6986855,0H3.7011078C1.4882761,0,0,1.7661169,0,4.3978013V25.6091957c0,2.6246872,1.4882761,4.3908043,3.7011078,4.3908043H14.6986855c2.3720724-.0066018,4.2926529-1.9693732,4.2964178-4.3908043V4.3908048c-.003765-2.421431-1.9243454-4.3842037-4.2964178-4.3908048Zm2.5006955,25.6091957c-.0005416,1.4096022-1.119824,2.5521717-2.5006955,2.5527226H3.7011078c-1.7154342,0-1.9004895-1.7851068-1.9004895-2.5527245v-2.4407772h15.3987627v2.4407791Zm0-4.2778618H1.7996393V8.261869h15.3997417v13.0694648Zm0-14.9065466H1.7996393v-2.0339824c0-.7676163,.1850553-2.5557221,1.9004895-2.5557221H14.6986855c1.3811237,.0027544,2.4996179,1.1458616,2.5006955,2.5557221v2.0339824Zm-7.7018293,20.7706153c.3981848-.0000153,.7801566-.1610123,1.0623551-.4477761,.5846821-.5994012,.5846821-1.5685155,0-2.1679167-.599896-.5645504-1.5238346-.5645504-2.1237306,0-.5846821,.5994012-.5846821,1.5685155,0,2.1679167,.2818978,.2866113,.6635091,.4476064,1.0613755,.4477761ZM10.5501152,3.2133933h-2.1002313c-.4969563,0-.8998197,.4112448-.8998197,.9185407s.4028635,.9185409,.8998197,.9185409h2.1002313c.4969563,0,.8998193-.4112448,.8998193-.9185409s-.402863-.9185407-.8998193-.9185407" style="fill: #272f60;"/>
    </g>
  </g>
</svg>