<?xml version="1.0" encoding="utf-8"?>
<!-- Generator: Adobe Illustrator 26.2.1, SVG Export Plug-In . SVG Version: 6.00 Build 0)  -->
<svg version="1.1" xmlns="http://www.w3.org/2000/svg" xmlns:xlink="http://www.w3.org/1999/xlink" x="0px" y="0px"
	 viewBox="0 0 116.948288 107.6207657" style="enable-background:new 0 0 116.948288 107.6207657;" xml:space="preserve">
<style type="text/css">
	.st0{fill:url(#FOND_00000068636266498074015160000005612204789482557058_);}
	.st1{fill:url(#FOND_00000016048978078778474120000018373815526156683956_);}
	.st2{fill:#FFF5F7;}
	.st3{fill:url(#FOND_00000022520782078954772120000017306873715846270850_);}
	.st4{fill:url(#FOND_00000015350668396607857020000000217448574708246923_);}
	.st5{fill:url(#FOND_00000110469933687621344380000005698284845502937250_);}
	.st6{fill:url(#FOND_00000085944745279247646140000017645504692189706893_);}
	.st7{fill:url(#FOND_00000031909304034964991690000004152818543018140842_);}
	.st8{fill:url(#FOND_00000054968514850683040140000001870992921029159296_);}
	.st9{fill:url(#FOND_00000062186349661032779980000002044435636510641554_);}
	.st10{fill:url(#FOND_00000018943112129708322250000003886338105729081987_);}
	.st11{fill:#272F60;}
	.st12{fill:#FD657C;}
	.st13{fill:url(#FOND_00000144299162617114341460000018089596447263707066_);}
	.st14{fill:url(#FOND_00000048472050562037260750000002840772695690731422_);}
	.st15{fill:#F4AAB9;}
	.st16{clip-path:url(#Rectangle_10_00000045598223147194183680000000614424593616596614_);}
	.st17{fill:#FB657C;}
	.st18{fill:#FFFFFF;}
	.st19{fill:#FFBCC6;}
	.st20{clip-path:url(#SVGID_00000098188593012155731030000009573006720568603324_);}
	.st21{enable-background:new    ;}
	.st22{fill:#FB657C;stroke:#FD657C;stroke-width:3.8352001;stroke-linecap:round;stroke-linejoin:round;stroke-miterlimit:1.4382;}
	.st23{fill:#FFBCC6;stroke:#FFBCC6;stroke-width:3.8352001;stroke-linecap:round;stroke-linejoin:round;stroke-miterlimit:1.4382;}
	.st24{clip-path:url(#SVGID_00000059304240351370507230000006556700235896594066_);fill:#FB657C;}
	.st25{clip-path:url(#SVGID_00000110462415447291784440000012686721035538673839_);fill:#FFBCC6;}
	.st26{clip-path:url(#SVGID_00000095335219860762965600000012115141606789134997_);fill:#FFBCC6;}
	.st27{clip-path:url(#SVGID_00000015316512918146774050000006506058968261747363_);fill:#FFBCC6;}
	.st28{clip-path:url(#SVGID_00000080909159706150889000000005253527863815573946_);fill:#FFBCC6;}
	.st29{clip-path:url(#SVGID_00000153690871847503387000000011139099692871096205_);fill:#FFBCC6;}
	.st30{clip-path:url(#SVGID_00000017511399052209017880000006436997062926250121_);fill:#FFBCC6;}
	.st31{clip-path:url(#SVGID_00000009571096759009256260000008079889876759251863_);fill:#FFBCC6;}
	.st32{clip-path:url(#SVGID_00000177479954585685730470000006076226147632394427_);fill:#FFBCC6;}
	.st33{clip-path:url(#SVGID_00000092433113098788610240000009173491708818040511_);fill:#FFBCC6;}
	.st34{clip-path:url(#SVGID_00000083767151637206981180000014000353785091419523_);fill:#FFBCC6;}
	.st35{clip-path:url(#SVGID_00000037680607129430681440000015169043057782804634_);fill:#FFBCC6;}
	.st36{clip-path:url(#SVGID_00000065772569893088409800000005864718455893444237_);fill:#FFBCC6;}
	.st37{clip-path:url(#SVGID_00000062191852806929896890000017001169009354775187_);fill:#FFBCC6;}
	.st38{clip-path:url(#SVGID_00000162348732276795399160000015762251804829118636_);fill:#FFBCC6;}
	.st39{clip-path:url(#SVGID_00000013177632515526415690000014123067199128434864_);fill:#272F60;}
	.st40{clip-path:url(#SVGID_00000013177632515526415690000014123067199128434864_);fill:#FB657C;}
	.st41{clip-path:url(#SVGID_00000013177632515526415690000014123067199128434864_);fill:#FFBCC6;}
	.st42{clip-path:url(#SVGID_00000013177632515526415690000014123067199128434864_);fill:#FFFFFF;}
	.st43{fill:none;}
	.st44{clip-path:url(#SVGID_00000151511439985736032800000007492679631700739228_);fill:#FFFFFF;}
	.st45{clip-path:url(#SVGID_00000168827270379426625060000009006211215789325701_);fill:#FFFFFF;}
	.st46{clip-path:url(#SVGID_00000133512011479834499460000005033969510891085967_);fill:#FFFFFF;}
	.st47{clip-path:url(#SVGID_00000000216503495402666330000010025109038056433053_);fill:#FFFFFF;}
	.st48{clip-path:url(#SVGID_00000030487252144562112780000012171174852388650406_);fill:#FFFFFF;}
	.st49{clip-path:url(#SVGID_00000072264160336018592130000009298206030569443718_);fill:#FFFFFF;}
	.st50{clip-path:url(#SVGID_00000142896627566825030390000013532709929599032195_);fill:#FFFFFF;}
	.st51{clip-path:url(#SVGID_00000031929991544128662670000002233872483378157755_);fill:#FFFFFF;}
	.st52{clip-path:url(#SVGID_00000036236627234160551940000010850515947709153176_);fill:#FFFFFF;}
	.st53{clip-path:url(#SVGID_00000028309639550158591090000004107888121365334197_);fill:#FFFFFF;}
	.st54{clip-path:url(#SVGID_00000121264757316111660220000012435279784317265548_);fill:#FFFFFF;}
	.st55{clip-path:url(#SVGID_00000140003439841399246630000001501578159864756925_);fill:#FFFFFF;}
	.st56{clip-path:url(#SVGID_00000018956928399931108330000007432823288578604173_);fill:#FB657C;}
	.st57{clip-path:url(#SVGID_00000116232954270822010860000017637557815359878832_);fill:#FFFFFF;}
	.st58{clip-path:url(#SVGID_00000078034879779925396080000017484021481873649548_);fill:#FFFFFF;}
	.st59{fill:#FF647B;}
	.st60{fill:#FF657C;}
	.st61{fill:#272E5F;}
	.st62{fill:none;stroke:#272E5F;stroke-width:3;}
	.st63{clip-path:url(#SVGID_00000013889660975912322740000011413541730719835817_);}
	.st64{fill:#606060;}
	.st65{fill:#E94B67;}
	.st66{fill:#132350;}
	.st67{fill:#050605;}
	.st68{fill:#FFF5F7;stroke:#272E5F;stroke-width:2;}
	.st69{fill:none;stroke:#272E5F;stroke-width:2;stroke-linecap:round;stroke-linejoin:round;stroke-miterlimit:10;}
	.st70{fill:none;stroke:#272E5F;stroke-width:2;}
	.st71{fill:none;stroke:#272E5F;stroke-width:3;stroke-linecap:round;stroke-linejoin:round;stroke-miterlimit:10;}
	.st72{fill:none;stroke:#142664;stroke-width:2;stroke-linecap:round;stroke-linejoin:round;stroke-miterlimit:10;}
	.st73{clip-path:url(#SVGID_00000071525485360479093990000014188441917319169191_);}
	.st74{clip-path:url(#SVGID_00000062879985801574908850000013818257458980460988_);}
	.st75{clip-path:url(#SVGID_00000121992258650770818030000004621833001513201563_);fill:#FD657C;}
	.st76{clip-path:url(#SVGID_00000087377393356337128270000009053705935205919632_);fill:#FD657C;}
	.st77{clip-path:url(#SVGID_00000106834672697455909680000004951733457133766297_);}
	.st78{clip-path:url(#SVGID_00000088854618846704779900000007796629767302536631_);}
	.st79{clip-path:url(#SVGID_00000170264223842704575320000017989069959914883247_);}
	.st80{fill:none;stroke:#142664;stroke-width:3;stroke-linecap:round;stroke-linejoin:round;}
	.st81{clip-path:url(#SVGID_00000181084714424527897000000018154109409795722170_);}
	.st82{clip-path:url(#SVGID_00000122700302611608054300000007689684577163250817_);}
	.st83{clip-path:url(#SVGID_00000158713972499661193610000014931263805771923876_);}
	.st84{clip-path:url(#SVGID_00000109742619783576578140000011181771067221470865_);}
	.st85{clip-path:url(#SVGID_00000023999291072280525920000015507867616024238472_);}
	.st86{clip-path:url(#SVGID_00000047023942995701284520000012406970265663542923_);}
	.st87{clip-path:url(#SVGID_00000142888236970179335550000011505371278041497741_);}
	.st88{clip-path:url(#SVGID_00000163071596065203373140000005635696370888970638_);}
	.st89{clip-path:url(#SVGID_00000091713093469479228820000016239018544836705717_);}
	.st90{clip-path:url(#SVGID_00000169543447333658636590000009867958936185891477_);}
	.st91{clip-path:url(#SVGID_00000016072610705159245550000012248081336359231626_);}
	.st92{clip-path:url(#SVGID_00000118376487936867680130000001106232094260516277_);}
	.st93{clip-path:url(#SVGID_00000150814053817816313240000010630675361785640864_);}
	.st94{clip-path:url(#SVGID_00000166662864241929579450000010375100164916519852_);}
	.st95{clip-path:url(#SVGID_00000016040667427651782720000008087484419983720592_);}
	.st96{clip-path:url(#SVGID_00000031176667396791868510000000786206319691159742_);}
	.st97{clip-path:url(#SVGID_00000043426162045384253930000013511645164419997119_);}
	.st98{clip-path:url(#SVGID_00000085244550334738968840000000874877210875259315_);}
	.st99{clip-path:url(#SVGID_00000117675691563244389590000014740623733827284136_);}
	.st100{clip-path:url(#SVGID_00000168818954719705469690000005005187639078097084_);}
	.st101{clip-path:url(#SVGID_00000054247337099622976840000008995559282307020711_);}
	.st102{clip-path:url(#SVGID_00000139251453338624726990000015767584829133333915_);}
	.st103{clip-path:url(#SVGID_00000178926551733873708810000011168564182226808499_);}
	.st104{clip-path:url(#SVGID_00000100343244496103115760000007385092210963628931_);}
	.st105{clip-path:url(#SVGID_00000113334481486394764480000013305789745472103565_);}
	.st106{clip-path:url(#SVGID_00000170982447896443309620000012300023614241983374_);}
	.st107{clip-path:url(#SVGID_00000078015741785422854340000009347447113535947651_);}
	.st108{clip-path:url(#SVGID_00000036226223391453239490000018012090454158906255_);}
	.st109{clip-path:url(#SVGID_00000030467783168332917960000007450932713988891042_);}
	.st110{clip-path:url(#SVGID_00000013192833195739042700000014017343285916578722_);}
	.st111{clip-path:url(#SVGID_00000052089644785034190100000011377827587376084886_);}
	.st112{clip-path:url(#SVGID_00000103970365457659180350000000059389012088310666_);}
	.st113{clip-path:url(#SVGID_00000157283775570809040210000012608716364688017570_);}
	.st114{clip-path:url(#SVGID_00000005263151994602672720000012234078571654860167_);}
	.st115{clip-path:url(#SVGID_00000107558923970948298050000010307067904122441604_);}
	.st116{clip-path:url(#SVGID_00000124879521219540203470000007509278633645643146_);}
	.st117{clip-path:url(#SVGID_00000134246175875181805580000003875914344392883120_);}
	.st118{clip-path:url(#SVGID_00000031920808979693882810000002409225327337742999_);}
	.st119{clip-path:url(#SVGID_00000133511293384379596320000017226735407989709449_);}
	.st120{clip-path:url(#SVGID_00000152244605383704235180000009292156016865844133_);}
	.st121{clip-path:url(#SVGID_00000041263089929914663430000011197834636249618871_);}
	.st122{clip-path:url(#SVGID_00000103987499333550342170000018347013420573783175_);}
	.st123{clip-path:url(#SVGID_00000171720151867944957980000002962581615785739160_);}
	.st124{fill:#FFFFFF;stroke:#142664;stroke-width:3;stroke-linecap:round;stroke-linejoin:round;}
	.st125{clip-path:url(#SVGID_00000176032531101549059460000009196835943818047643_);}
	.st126{fill-rule:evenodd;clip-rule:evenodd;fill:#FFBCC6;}
	.st127{fill-rule:evenodd;clip-rule:evenodd;fill:#272F60;}
	.st128{fill-rule:evenodd;clip-rule:evenodd;fill:#FFFFFF;}
	.st129{fill-rule:evenodd;clip-rule:evenodd;fill:#FB657C;}
	.st130{clip-path:url(#SVGID_00000145754078269356625490000010686605571205850000_);}
	.st131{clip-path:url(#SVGID_00000136410496641400292720000000047081027809107373_);}
	.st132{clip-path:url(#SVGID_00000127742768765329991210000006420229522750448528_);}
	.st133{clip-path:url(#SVGID_00000179632050965694949530000018272178766533095079_);}
	.st134{clip-path:url(#SVGID_00000093157357433046134840000013342938983365695135_);}
	.st135{clip-path:url(#SVGID_00000024722098184864568520000011081681031586615681_);}
	.st136{clip-path:url(#SVGID_00000039845910645935273090000012295309814635734406_);}
	.st137{clip-path:url(#SVGID_00000176010966146783942710000015634681442310600102_);}
	.st138{clip-path:url(#SVGID_00000147928424547679318370000018040725763482447248_);}
	.st139{clip-path:url(#SVGID_00000117648718829157759970000006298005404148823958_);}
	.st140{clip-path:url(#SVGID_00000080922805973767412920000013749898068915122611_);}
	.st141{clip-path:url(#SVGID_00000145019965586111257830000011469457155880775578_);}
	.st142{clip-path:url(#SVGID_00000125597450537535470950000011782821861037709468_);}
	.st143{clip-path:url(#SVGID_00000091007665058260454320000002712846826114446224_);}
	.st144{clip-path:url(#SVGID_00000000206665099226032740000010554543742381980078_);}
	.st145{clip-path:url(#SVGID_00000124148070516608958540000012251610476166857604_);}
	.st146{clip-path:url(#SVGID_00000090257438075286575600000001979779571655269005_);}
	.st147{clip-path:url(#SVGID_00000000204307544637711130000011088277924158379692_);}
	.st148{clip-path:url(#SVGID_00000121983663054954269010000003365500586640421794_);}
	.st149{clip-path:url(#SVGID_00000143578562638812191840000001752157947493981870_);}
	.st150{clip-path:url(#SVGID_00000062173500810007304010000004751056701043612037_);}
	.st151{clip-path:url(#SVGID_00000160898153847555961840000017695934648969230740_);}
	.st152{clip-path:url(#SVGID_00000031180018874796560950000005392272715563063739_);}
	.st153{clip-path:url(#SVGID_00000036213138031921213200000010485670541448797365_);}
	.st154{clip-path:url(#SVGID_00000029748728184105372750000016917006211776976556_);}
	.st155{clip-path:url(#SVGID_00000152968881039323017010000007710032781460805272_);}
	.st156{clip-path:url(#SVGID_00000142883377218056681750000017989478037698340013_);}
	.st157{clip-path:url(#SVGID_00000032628202803985830190000002212323928594020497_);}
	.st158{clip-path:url(#SVGID_00000094576275331000080220000013724285896914071195_);}
	.st159{clip-path:url(#SVGID_00000014617477162592616790000014805941332927530936_);}
	.st160{clip-path:url(#SVGID_00000183227860299196437710000000463145923577595032_);}
	.st161{clip-path:url(#SVGID_00000054988386449525180480000013914646407715273601_);}
	.st162{clip-path:url(#SVGID_00000147916599443316611190000009428036755822370693_);}
	.st163{clip-path:url(#SVGID_00000121243172059720538090000013721844588902992007_);}
	.st164{clip-path:url(#SVGID_00000080908324950740429460000010393249893050463167_);}
	.st165{clip-path:url(#SVGID_00000036935972198707780220000010948717552186132915_);}
	.st166{clip-path:url(#SVGID_00000114772869268253292820000015564545610934631828_);}
	.st167{clip-path:url(#SVGID_00000007417570405086291840000009597821116234280623_);}
	.st168{clip-path:url(#SVGID_00000047059140200940810380000012291251204781565867_);}
	.st169{clip-path:url(#SVGID_00000053527547879355206560000007782615312930150791_);}
	.st170{clip-path:url(#SVGID_00000165219838022252744510000013107841714330864277_);}
	.st171{clip-path:url(#SVGID_00000013874144627083491420000013193114772797170843_);}
	.st172{clip-path:url(#SVGID_00000013906734511121553550000009139867185039054745_);}
	.st173{clip-path:url(#SVGID_00000170958789492013295140000000415262717193999798_);}
	.st174{clip-path:url(#SVGID_00000175321059594333065540000003518081273846333882_);}
	.st175{clip-path:url(#SVGID_00000109002078736132343500000017902093277973702041_);}
	.st176{clip-path:url(#SVGID_00000013884027739952557720000004749824530755901344_);}
	.st177{clip-path:url(#SVGID_00000147931118937892178990000006485617651729257859_);}
	.st178{clip-path:url(#SVGID_00000029004657656430840670000008958953525016404625_);}
	.st179{clip-path:url(#SVGID_00000046312000664604566480000000755192508498910118_);}
	.st180{clip-path:url(#SVGID_00000069356516277520540720000010165227029621032124_);}
	.st181{clip-path:url(#SVGID_00000037668605428090705650000006395777499200540584_);}
	.st182{clip-path:url(#SVGID_00000101794875728851522190000015693346108279308454_);}
	.st183{clip-path:url(#SVGID_00000139980321013508837170000015403462958486393758_);}
	.st184{clip-path:url(#SVGID_00000103223896864828711590000001854845120701176458_);}
	.st185{clip-path:url(#SVGID_00000114774390067328387280000006531511979528272316_);}
	.st186{clip-path:url(#SVGID_00000155839006462559671840000002032875501069116339_);}
	.st187{clip-path:url(#SVGID_00000142894759311431139180000016745700856146238632_);}
	.st188{clip-path:url(#SVGID_00000053534308102321648900000000031790593320740992_);}
	.st189{clip-path:url(#SVGID_00000079468416853386995160000013284996552939506100_);}
	.st190{clip-path:url(#SVGID_00000040532603835191914190000013088377548308023715_);}
	.st191{clip-path:url(#SVGID_00000171720799085539090090000000232118986583731603_);}
	.st192{clip-path:url(#SVGID_00000024683988123903267250000000857964505766439558_);}
	.st193{clip-path:url(#SVGID_00000014605632766049496680000000605119343162053780_);}
	.st194{clip-path:url(#SVGID_00000116928292596735153440000011912214544597965449_);}
	.st195{clip-path:url(#SVGID_00000003076260957520584570000006786922783337307014_);}
	.st196{clip-path:url(#SVGID_00000142167714110861480520000015610867937092476585_);}
	.st197{clip-path:url(#SVGID_00000063620111379088175880000011045925553628626570_);}
	.st198{clip-path:url(#SVGID_00000178901254537558195900000010879648748954709174_);}
	.st199{clip-path:url(#SVGID_00000005974380402608377820000010657602053050860717_);}
	.st200{clip-path:url(#SVGID_00000156583512625981272680000004325280951863170734_);}
	.st201{clip-path:url(#SVGID_00000074435824810365250510000003942196816547738247_);}
	.st202{clip-path:url(#SVGID_00000085969829323840159360000000246959804208655745_);}
	.st203{clip-path:url(#SVGID_00000050641115658404298630000002868467955958732690_);}
	.st204{clip-path:url(#SVGID_00000140014097186123016930000009353010398476147105_);}
	.st205{clip-path:url(#SVGID_00000078035821927278948530000007755161894021301146_);}
	.st206{clip-path:url(#SVGID_00000085959555915540527410000005516546785394804874_);}
	.st207{clip-path:url(#SVGID_00000057827696491153729050000010844103385876813967_);}
	.st208{clip-path:url(#SVGID_00000050624601535628717420000003182063845253605507_);}
	.st209{clip-path:url(#SVGID_00000013914844159087913070000000129359790007162286_);}
	.st210{clip-path:url(#SVGID_00000097458036126623315550000008477739127899789222_);}
	.st211{clip-path:url(#SVGID_00000100378121453998926570000000196034612378472601_);}
	.st212{clip-path:url(#SVGID_00000002342418081042485490000012127868028446540477_);}
	.st213{clip-path:url(#SVGID_00000083091376984015394340000014534452430085826439_);}
	.st214{clip-path:url(#SVGID_00000140006306926276758840000015025372070416682645_);}
	.st215{clip-path:url(#SVGID_00000081624753500870707570000017213413473275786625_);}
	.st216{clip-path:url(#SVGID_00000096052097939544672420000002830218305802623637_);}
	.st217{clip-path:url(#SVGID_00000052101312498333198700000004222759849558345359_);}
	.st218{clip-path:url(#SVGID_00000130635607160417198460000011713818126917682334_);}
	.st219{clip-path:url(#SVGID_00000057143965799643756260000001505532640154833796_);}
	.st220{clip-path:url(#SVGID_00000052802691852397429220000012662655489122083731_);}
	.st221{clip-path:url(#SVGID_00000168808629242703331800000008562638740727596931_);}
	.st222{clip-path:url(#SVGID_00000031906635249820584400000003628956489510129599_);}
	.st223{clip-path:url(#SVGID_00000152232328454341958810000017347430362770204821_);}
	.st224{clip-path:url(#SVGID_00000014612131851211783540000006457552938182442906_);}
	.st225{clip-path:url(#SVGID_00000072994197604395699350000016536679407421041032_);}
	.st226{clip-path:url(#SVGID_00000176033476354136186510000000359497139828218045_);}
	.st227{clip-path:url(#SVGID_00000008865269832958188470000009261245730499831690_);}
	.st228{clip-path:url(#SVGID_00000115506427510507550440000003128614195610427790_);}
	.st229{clip-path:url(#SVGID_00000021118536138166374250000017391060632168223883_);}
	.st230{clip-path:url(#SVGID_00000118376629433394533000000005146372034482933646_);}
	.st231{clip-path:url(#SVGID_00000003803750948588743590000016130500779345842609_);}
	.st232{clip-path:url(#SVGID_00000068639081101476941240000003334377138388445600_);}
	.st233{clip-path:url(#SVGID_00000036250797708440661600000011388309045386022537_);}
	.st234{clip-path:url(#SVGID_00000075859128935629412590000004639605808822164866_);}
	.st235{clip-path:url(#SVGID_00000017477389852925253440000013482002115260481165_);}
	.st236{clip-path:url(#SVGID_00000124133683618714138450000006160277429604779441_);}
	.st237{clip-path:url(#SVGID_00000013873531166280533950000006311187310159031689_);}
	.st238{clip-path:url(#SVGID_00000111169067711409031170000016336098422484846766_);}
	.st239{clip-path:url(#SVGID_00000173861947294008361690000016238450908384650403_);}
	.st240{clip-path:url(#SVGID_00000136387326769425076690000003578010431343742127_);}
	.st241{clip-path:url(#SVGID_00000007391217152756427150000003773552010180967857_);}
	.st242{clip-path:url(#SVGID_00000168099866612982324230000012817595902578393740_);}
	.st243{clip-path:url(#SVGID_00000150104354951341781750000001674359323920763522_);}
	.st244{clip-path:url(#SVGID_00000021105212685757028700000005329581021299063710_);}
	.st245{clip-path:url(#SVGID_00000103225404720812750120000015984199192333629607_);}
	.st246{clip-path:url(#SVGID_00000132807450435764911190000000805174358776239009_);}
	.st247{clip-path:url(#SVGID_00000088092444139823839610000011233837010039886476_);}
	.st248{clip-path:url(#SVGID_00000115486969427571873210000013441698397197617076_);}
	.st249{clip-path:url(#SVGID_00000006699515242462053840000012093970940444419213_);}
	.st250{clip-path:url(#SVGID_00000078764536243222758290000004380612615216999079_);}
	.st251{clip-path:url(#SVGID_00000034058774546573379710000012508827278134277816_);}
	.st252{clip-path:url(#SVGID_00000018954798124999109860000000739816797661575312_);}
	.st253{clip-path:url(#SVGID_00000166676998630425645930000015062849796882781332_);}
	.st254{clip-path:url(#SVGID_00000145739868049130393220000018082040243019097009_);}
	.st255{clip-path:url(#SVGID_00000138546262122755937380000016216603705932505764_);}
	.st256{clip-path:url(#SVGID_00000091707838872985101020000002483580120459342479_);}
	.st257{clip-path:url(#SVGID_00000035519065547680221680000014516338782222619046_);}
	.st258{clip-path:url(#SVGID_00000028302694814914390690000010098973782376243610_);}
	.st259{clip-path:url(#SVGID_00000170248606705754720680000002825042813031043003_);}
	.st260{fill:#E94966;}
	.st261{fill:#13224F;}
</style>
<g id="FONDS">
</g>
<g id="ILLUSTRATIONS">
	<g id="Groupe_1235" transform="translate(-262.932 -238.065)">
		<g id="Groupe_1213" transform="translate(264.171 260.443) rotate(-9)">
			<g>
				<g id="Groupe_1212" transform="translate(0)">
					<path id="Tracé_4311" class="st12" d="M39.1428833,85.3990402
						C32.7198792,82.644043,25.4218731,73.368042,20.5058651,61.7490349
						c-5.3630075-12.8499985-6.4400129-25.0200119-2.8780155-33.3250122
						c3.9849987-9.2890034,11.0069981-13.5870132,21.4070053-13.0720139
						c0.6828079-0.0149879,1.3236427-0.3326578,1.7490005-0.8670015c0.3003464-0.3533363,0.5048828-0.7779055,0.5940018-1.2330027
						c-1.3499756-0.8971252-1.7609329-2.6943283-0.9350052-4.0890017c0.8847656-1.4017882,2.7373238-1.8227601,4.1410027-0.941
						c2.3916779,1.490447,3.4392128,4.4336472,2.5270042,7.1000004c-1.1287498,3.5994387-4.4912262,6.0271959-8.2630005,5.9660063
						c-7.9120045-0.3539982-12.7070065,2.5710049-15.6840076,9.5100079
						c-2.8829975,6.7210064-1.7919922,17.475008,2.9090137,28.6780148
						c4.1900043,9.9480019,10.5440102,18.3670006,15.4170151,20.4570045
						c1.5167732,0.6287842,2.2366333,2.3681107,1.6078453,3.8848801c-0.6287842,1.516777-2.3681068,2.2366333-3.8848839,1.6078415
						c-0.022438-0.0093002-0.0447617-0.0188751-0.0669632-0.0287247"/>
					<path id="Tracé_4312" class="st12" d="M39.1478806,85.3980408c-1.519722-0.6216278-2.2477646-2.3575363-1.6261368-3.8772659
						c0.6216354-1.519722,2.3575439-2.2477646,3.8772583-1.6261368c0.0308456,0.012619,0.0614777,0.0257492,0.0918808,0.0393982
						c4.8740044,2.0899963,15.352005,0.8919907,25.4490051-2.928009
						c11.3570099-4.3150101,19.878006-10.882019,22.7840118-17.6570168
						c2.9769974-6.9390068,1.7909927-12.4290085-3.8870087-17.840004
						c-2.6437378-2.6912537-3.2020111-6.8010254-1.3720093-10.1000023c1.2717972-2.5323887,4.1546707-3.8145561,6.887001-3.0630074
						c1.5946808,0.4248276,2.5588684,2.0446854,2.1720047,3.6490021c-0.4207382,1.5748062-2.0219574,2.5255089-3.6060104,2.1410027
						c-0.2696686,0.3774414-0.43647,0.8185654-0.4840012,1.2799988c-0.0941238,0.676506,0.1172943,1.359848,0.5770111,1.8649979
						c7.5400009,7.1809998,9.2670059,15.2320061,5.2820053,24.5200081
						c-3.5630035,8.3050041-13.1200027,15.9150124-26.1650009,20.8000221
						c-11.807003,4.4450073-23.5580101,5.5500107-29.9810181,2.8000183"/>
					<path id="Tracé_4313" class="st19" d="M57.8798981,95.3750381L19.0628719,78.7250366
						c-1.3285618-0.5760803-1.95117-2.1099243-1.4000053-3.4490051l0.375-0.8739929
						c1.7999992-4.2070007,6.2460003-5.0840073,10.5650024-3.2320023l28.3000164,12.1380005
						c4.2640038,1.8289871,6.7680054,5.6199951,4.9400101,9.8820038l-0.375,0.8739929
						c-0.6373367,1.3382568-2.2277451,1.9212646-3.5790024,1.3119965"/>
					
						<rect id="Rectangle_666" x="21.3935738" y="48.8270073" transform="matrix(-0.3942119 0.9190195 -0.9190195 -0.3942119 123.9108124 31.5210152)" class="st19" width="60.3460274" height="15.5450068"/>
					<path id="Tracé_4314" class="st19" d="M87.1758804,23.2579918
						c-12.3135452-4.3762913-24.3356018-9.5330763-35.9930267-15.4389915
						c-1.9363022-0.8542247-4.1984711,0.0229702-5.0526962,1.95927c-0.0491562,0.1114273-0.0929718,0.225132-0.1313019,0.3407326
						l-7.5249977,24.2710114c-2.1799965,6.7630005,2.6490135,19.9620094,9.2930145,22.8120079l6.4780006,2.7799988
						c6.6450005,2.8499947,18.9590073-2.9310112,22.3810043-9.2260132l12.3999939-22.1770153
						c1.0106354-1.8311214,0.3454971-4.1348209-1.4856262-5.1454525c-0.1175919-0.0648994-0.2385559-0.1235008-0.3623734-0.1755486"
						/>
					<path id="Tracé_4315" class="st61" d="M62.3048744,41.9600105l-2.9140053-3.4489975
						c-0.1385269-0.1244812-0.3143082-0.1997147-0.5-0.2139969l-4.5,0.4000015
						c-0.3382263,0.0311432-0.6376572-0.217804-0.6687927-0.5560226c-0.0109482-0.1189117,0.0129547-0.2384338,0.0687943-0.3439789
						l2.3429985-3.7820015c0.0806961-0.1765823,0.096283-0.37603,0.0439987-0.5630035l-1.8499985-4.0930023
						c-0.1364975-0.291008-0.0112457-0.6375656,0.2797623-0.7740707c0.1234665-0.0579147,0.2633514-0.0706253,0.3952408-0.0359268
						l4.3789978,1.0999966c0.1962357,0.0329437,0.396553-0.0281525,0.5410004-0.1650009l3.3659973-2.9550037
						c0.235611-0.2258854,0.609726-0.2180042,0.8356209,0.0176105c0.1058197,0.1103783,0.1647415,0.2574768,0.1643829,0.4103889
						l0.3679962,4.4919987c0.0115356,0.2037964,0.137413,0.3835087,0.3249969,0.4639969l3.9420013,2.2730026
						c0.2866211,0.1662903,0.3841705,0.5334549,0.2178802,0.820076c-0.0650406,0.1121063-0.1646347,0.2001419-0.2838745,0.2509232
						l-4.1849976,1.6390038c-0.1713104,0.0915756-0.3048172,0.2406616-0.3769989,0.4209976l-0.9589958,4.3760033
						c-0.0502167,0.317482-0.3482971,0.5341415-0.6657791,0.4839249c-0.1452942-0.0229797-0.2764969-0.1001282-0.367218-0.2159271"
						/>
					<path id="Tracé_4316" class="st61" d="M61.4278946,93.9850311c-0.4479523-0.2013245-0.6591339-0.7187195-0.4800034-1.1759949
						c1.8000031-4.2070007-1.2490044-7.3280029-4.4610023-8.7059937L28.1948738,71.9650345
						c-3.1560001-1.3540039-7.5540047-1.4929962-9.3830013,2.768013c-0.196888,0.4586792-0.7283249,0.6708832-1.1870022,0.473999
						c-0.4586716-0.1968842-0.670887-0.7283173-0.473999-1.1869965l0,0c1.875-4.3710098,6.5999985-5.9000092,11.7460022-3.695015
						L57.196888,82.4620209c5.0999985,2.1860046,7.3180046,6.6329956,5.4190025,11.0579987
						c-0.2069702,0.4448242-0.7265854,0.6489868-1.1809998,0.4640045"/>
					<path id="Tracé_4317" class="st61" d="M50.8468742,59.0410194L50.8468742,59.0410194
						c-2.8083801-1.3432541-5.4259377-3.0535431-7.7840004-5.0859985c-1.8049088-1.7735214-3.1391487-3.9690704-3.8820076-6.3880005
						c-0.1685333-0.6146469,0.1931076-1.2495499,0.8077545-1.4180832c0.0232315-0.0063705,0.0466614-0.0120087,0.0702438-0.0169144
						c0.6363297-0.1643715,1.2854309,0.218235,1.4497986,0.8545647c0.0025253,0.0097809,0.0049286,0.0195923,0.0072021,0.0294342
						c0.6139069,1.9863853,1.7098122,3.7899895,3.1900063,5.2500038c2.147934,1.8338623,4.52808,3.3768005,7.0790062,4.5889969
						c0.5873871,0.2612381,0.8517761,0.9491882,0.5905418,1.5365753c-0.0095367,0.0214462-0.019722,0.0425949-0.0305405,0.0634232
						c-0.1986465,0.5553818-0.809906,0.844574-1.3652992,0.6459274c-0.0462036-0.0165253-0.0912094-0.0362167-0.1347046-0.0589294"
						/>
					<path id="Tracé_4318" class="st12" d="M43.5438881,85.0830307l-7.1410065-3.0619965
						c-0.2947235-0.1041718-0.4491959-0.427536-0.3450241-0.7222748c0.0074501-0.0210724,0.01614-0.0416718,0.0260239-0.0617218
						l0.7270012-1.6929932c0.1079102-0.2933807,0.4332161-0.4437256,0.726593-0.3358154
						c0.0209808,0.0077209,0.0414848,0.0166626,0.0614052,0.0268097l7.0880051,3.0410004
						c0.2947235,0.1041718,0.4491959,0.427536,0.3450241,0.7222748c-0.0074463,0.0210724-0.0161362,0.0416718-0.0260239,0.0617218
						l-0.7269974,1.6929932c-0.0957565,0.2876892-0.406601,0.4432831-0.6942825,0.3475189
						c-0.0130844-0.0043488-0.026001-0.009201-0.0387192-0.0145264"/>
				</g>
			</g>
		</g>
		<path id="Tracé_4325" class="st61" d="M373.6843262,259.4524536c-0.5308533-0.7947388-1.0045166-1.407196-1.0045166-1.407196
			c-0.4927368-0.4432068-0.5328979-1.2019348-0.0897217-1.6946716c0.4432068-0.4927673,1.2019348-0.5329285,1.6946716-0.0897522
			c0.0413513,0.0372009,0.0800476,0.0772095,0.1158447,0.119751c0.4829712,0.3161316,0.9419861,0.66745,1.3733215,1.0510864
			l0.0614929-0.0593567c0.4261169-0.3458557,0.8757629-0.6616821,1.3457031-0.9451294
			c0.4431763-0.4927826,1.2019348-0.5329742,1.6947021-0.0898132c0.4927673,0.4431763,0.532959,1.2019348,0.0897827,1.6947021
			c-0.0372009,0.0413513-0.07724,0.0800781-0.1197815,0.1158752c-0.2987671,0.4606018-0.629425,0.8996582-0.989624,1.3139954
			l-0.0613403,0.0603333l0.0593567,0.0614624c0.3458862,0.4261169,0.6616821,0.8757629,0.9451599,1.3457336
			c0.4191589,0.5133362,0.3428345,1.2692871-0.1705322,1.688446c-0.4538574,0.3706055-1.1090088,0.3592224-1.5497437-0.026886
			c-0.4602966-0.2987671-0.899292-0.6291199-1.3138428-0.9886475l-0.0593262-0.0614624
			c-0.7947388,0.5308533-1.407196,1.0044861-1.407196,1.0044861c-0.4431763,0.4927673-1.2019043,0.532959-1.6946716,0.0897827
			s-0.532959-1.2019043-0.0898132-1.6946716c0.0372009-0.0413513,0.07724-0.0800781,0.119812-0.1158752
			c0.0593262,0.0614624,0.4322815-0.5372314,1.0510864-1.3733521"/>
		<path id="Tracé_4326" class="st61" d="M376.6578979,285.2971497c0.0115356-0.5151672-0.007782-0.9312439-0.007782-0.9312439
			c-0.0556946-0.3515625,0.1841736-0.6817017,0.5357361-0.7373962s0.6817017,0.1841736,0.7373962,0.5357361
			c0.1152954,0.2886963,0.2090149,0.5855408,0.280365,0.888092l0.0454407-0.0072021
			c0.2949219-0.0206299,0.5908813-0.0208435,0.8858337-0.0005798c0.3515625-0.0556946,0.6817017,0.1841736,0.7373657,0.5357361
			c0.0556946,0.3515625-0.1841736,0.6817017-0.5357361,0.7373962c-0.2741089,0.1107483-0.5556641,0.2020569-0.8426208,0.2731628
			l-0.0454407,0.0072021l0.0071716,0.0454407c0.0210571,0.2948914,0.0212402,0.5908813,0.0005798,0.8858032
			c0.0556946,0.3515625-0.1841736,0.6817017-0.5357361,0.7373962s-0.6817017-0.1841736-0.7373962-0.5357361l0,0
			c-0.1103821-0.274231-0.2016296-0.5558167-0.2731628-0.8426514l-0.0065918-0.0414734
			c-0.5151367-0.0115662-0.9312439,0.007782-0.9312439,0.007782c-0.3515625,0.0556641-0.6817017-0.1841736-0.7373962-0.5357666
			c-0.0556641-0.3515625,0.1842041-0.6817017,0.5357666-0.7373657c0.3055115-0.0602722,0.603363-0.1542969,0.8880615-0.2803955"/>
		<path id="Tracé_4327" class="st61" d="M351.8363953,252.4989929c-0.4497986-0.6729279-0.8497314-1.1907349-0.8497314-1.1907349
			c-0.3947144-0.3964844-0.39328-1.0378876,0.0032349-1.4326019c0.3964844-0.3947144,1.0378723-0.3932648,1.4325867,0.0032196
			c0.0066528,0.0066833,0.0132141,0.0134735,0.0196838,0.02034c0.4085083,0.267807,0.7969971,0.5649567,1.1624146,0.8891144
			l0.0516968-0.0507202c0.3606262-0.2927551,0.7411499-0.5600586,1.1388855-0.8000031
			c0.4127502-0.3776703,1.0535278-0.3492126,1.4311829,0.0635376c0.3629456,0.3966522,0.3527527,1.0077362-0.0231323,1.3921204
			c-0.2527161,0.3894348-0.532196,0.760849-0.8364258,1.1115265l-0.0517273,0.050705l0.0497437,0.0518646
			c0.2927551,0.360611,0.5600586,0.7411652,0.8000183,1.1388702c0.3999023,0.3912201,0.4069824,1.0325928,0.0157471,1.4325104
			c-0.3912354,0.3999329-1.0325928,0.4069824-1.4325256,0.0157623c-0.0133057-0.0130463-0.0263062-0.0264587-0.0388794-0.0402222
			c-0.3896179-0.2524719-0.7610474-0.5319672-1.1115417-0.8364105l-0.0507202-0.051712
			c-0.6730652,0.448822-1.1917114,0.8498993-1.1917114,0.8498993c-0.4127502,0.3776703-1.0535278,0.3492432-1.4312134-0.0635071
			c-0.3629456-0.3966675-0.3527832-1.007782,0.0231628-1.3921509c0.0507202,0.0516968,0.3653564-0.4547577,0.8890991-1.1623993"/>
		<path id="Tracé_4328" class="st61" d="M320.8291016,242.3072205c-0.6531677-0.9788666-1.2365112-1.7278442-1.2365112-1.7278442
			c-0.574585-0.5766754-0.572876-1.5099487,0.0037842-2.0845337c0.5766907-0.5746002,1.5099487-0.5728912,2.0845337,0.0037842
			c0.0102234,0.0102234,0.0202637,0.0205994,0.0301208,0.0311279c0.5941467,0.3894501,1.1590271,0.8217773,1.6901855,1.2935181
			l0.075531-0.0727081c0.5245056-0.4257507,1.0779724-0.8144989,1.6564026-1.1634369
			c0.5933228-0.5573883,1.5261536-0.528244,2.0835266,0.0650787c0.5458374,0.5810089,0.5308228,1.4906921-0.0338745,2.05336
			c-0.3678284,0.5665741-0.7744751,1.1069641-1.2170105,1.6172943l-0.0765381,0.072876l0.0727234,0.0755463
			c0.4257202,0.5244904,0.8144836,1.0779572,1.1634216,1.6563873c0.5574036,0.5933228,0.5282898,1.5261536-0.0650024,2.0835419
			c-0.5810242,0.5458527-1.4907532,0.5308228-2.0534363-0.033905c-0.5667114-0.3680267-1.1071472-0.7750092-1.6174316-1.2179718
			l-0.0727234-0.0755463c-0.9788818,0.6531677-1.7278442,1.2365112-1.7278442,1.2365112
			c-0.5933228,0.557373-1.5261536,0.528244-2.0835266-0.0650787c-0.5458069-0.5810089-0.5307922-1.4906921,0.033905-2.0533752
			c0.072876,0.0765533,0.532074-0.661377,1.2935181-1.690155"/>
		<path id="Tracé_4329" class="st61" d="M287.140625,264.3994446c-0.4497986-0.6729431-0.8497314-1.1907349-0.8497314-1.1907349
			c-0.3947754-0.3964539-0.3934021-1.0378418,0.0030518-1.4326172c0.3964539-0.3947449,1.0378418-0.3933716,1.4325867,0.0030823
			c0.0067139,0.0067139,0.0133362,0.0135498,0.0198364,0.0204773c0.4085083,0.2678223,0.7969971,0.5649719,1.1624146,0.8891296
			l0.0516968-0.0507202c0.3606262-0.2927551,0.7411499-0.5600586,1.1388855-0.8000183
			c0.3912048-0.3999329,1.0325623-0.4070435,1.4324951-0.0158386c0.3999634,0.3912048,0.4070435,1.0325623,0.0158386,1.4325256
			c-0.0130615,0.0133667-0.0265198,0.0263672-0.0402832,0.0389709c-0.2527161,0.3894653-0.532196,0.7608643-0.8364258,1.1115417
			l-0.0516968,0.0506897l0.0497131,0.0518799c0.2927551,0.3605957,0.5600586,0.7411499,0.8000183,1.138855
			c0.3892517,0.4030151,0.3781128,1.0452881-0.0249023,1.4345703c-0.4030151,0.3892517-1.0452881,0.3781128-1.4345398-0.0249023
			c-0.3896179-0.2524719-0.7610474-0.5319519-1.1115417-0.8363953l-0.0507202-0.0517273
			c-0.6730652,0.448822-1.1917114,0.8499146-1.1917114,0.8499146c-0.4127197,0.3776855-1.0534973,0.3492737-1.4311829-0.0634766
			c-0.3630066-0.3966675-0.3528442-1.0078125,0.0231323-1.3921814c0.0507202,0.0516968,0.3653564-0.4547729,0.8890991-1.1624146"/>
		<path id="Tracé_4330" class="st61" d="M263.7968445,276.9953613c-0.3265076-0.4889526-0.6180725-0.8659668-0.6180725-0.8659668
			c-0.2888184-0.2868042-0.2904663-0.7534485-0.0036621-1.0422668s0.7534485-0.2904663,1.0422668-0.0036621
			c0.0068359,0.0067749,0.0135193,0.0136719,0.02005,0.0206909c0.2971802,0.1947327,0.5798035,0.4108887,0.8455811,0.646698
			l0.0377808-0.036377c0.2631836-0.2131348,0.5408936-0.4076843,0.8311462-0.5821838
			c0.2868042-0.2888184,0.7534485-0.2904358,1.0422668-0.0036316c0.2888184,0.2868347,0.2904358,0.7534485,0.0036316,1.0422668
			c-0.0067444,0.0068054-0.0136414,0.0134888-0.0206604,0.0200195c-0.1842651,0.2822266-0.3879395,0.5513-0.6095276,0.8052673
			l-0.0377808,0.0363464l0.036499,0.0387878c0.2128906,0.2622375,0.4072571,0.5389709,0.5817261,0.828186
			c0.2728882,0.3020325,0.2492371,0.7680664-0.0527954,1.0409241c-0.2875671,0.2598267-0.7272034,0.252533-1.006012-0.0166931
			c-0.2822266-0.1842651-0.5513-0.3879395-0.8052673-0.6095276l-0.0363464-0.0377808
			c-0.4899292,0.3266602-0.8669739,0.6182556-0.8669739,0.6182556c-0.2923889,0.2828369-0.7586975,0.2750854-1.0415344-0.0173035
			c-0.2828369-0.2923584-0.2750854-0.758667,0.0173035-1.0415039c0.0363464,0.0377502,0.2665405-0.33078,0.6466675-0.8455811"/>
	</g>
</g>
<g id="TEXTES_FR">
</g>
<g id="TEXTES_GB">
</g>
</svg>
