<?xml version="1.0" encoding="utf-8"?>
<!-- Generator: Adobe Illustrator 26.2.1, SVG Export Plug-In . SVG Version: 6.00 Build 0)  -->
<svg version="1.1" id="Calque_1" xmlns="http://www.w3.org/2000/svg" xmlns:xlink="http://www.w3.org/1999/xlink" x="0px" y="0px"
	 viewBox="0 0 351.9 358" style="enable-background:new 0 0 351.9 358;" xml:space="preserve">
<style type="text/css">
	.st0{fill:#FB657C;}
	.st1{fill:#272F60;}
	.st2{fill:#FFBCC6;}
	.st3{fill:#FFFFFF;}
</style>
<g id="ILLUSTRATIONS">
	<path class="st0" d="M243.7,15.8c-3-11.3-14.8-18.1-26.2-15.1c-34.1,9-102.3,27.1-136.4,36.5c-11.4,3-18.2,14.7-15.2,26
		c14.4,53.9,53.4,197.7,67.8,251.6c3,11.3,14.8,18.1,26.2,15.1c34.1-9,102.3-27.1,136.4-36.5c11.4-3,18.2-14.7,15.2-26
		C297.1,213.9,258.1,69.6,243.7,15.8L243.7,15.8z"/>
	<path class="st1" d="M230.4,42.9L90.9,80.2L147,288.5l139.5-37.3L230.4,42.9z"/>
	<path class="st1" d="M145.5,51.9l14.8-3.8c3.8-1.1,6.1-4.9,5.3-8.7c-1.1-3.8-4.9-6-8.7-5.3L142.1,38c-3.8,1.1-6.1,4.9-5.3,8.7
		C137.5,50.8,141.7,53.1,145.5,51.9z"/>
	<ellipse class="st1" cx="181.1" cy="35.7" rx="7.6" ry="7.5"/>
	<path class="st0" d="M151.6,278.8c0-0.8-0.4-1.5-0.8-2.1c-0.6-0.6-1.3-0.8-2.1-0.8h-7.4c-0.8,0-1.5,0.4-2.1,0.8
		c-0.6,0.6-0.8,1.3-0.8,2.1v7.4c0,0.8,0.4,1.5,0.8,2.1c0.6,0.6,1.3,0.8,2.1,0.8h7.4c0.8,0,1.5-0.4,2.1-0.8c0.6-0.6,0.8-1.3,0.8-2.1
		L151.6,278.8L151.6,278.8z"/>
	<path class="st0" d="M106,179.8c3.6-0.4,6.4-3.5,6.4-7.2v-7h-3.3v7c0,1.9-1.4,3.5-3.2,3.9l0,0c-0.6,0.1-0.7,0.4-0.7,0.8v1.9
		C105.2,179.5,105.2,179.9,106,179.8L106,179.8z"/>
	<rect x="109.1" y="167.7" class="st1" width="3.3" height="1.4"/>
	<rect x="109.1" y="170.9" class="st1" width="3.3" height="1.4"/>
	<path class="st1" d="M107.6,175.7c-0.4,0.3-0.8,0.5-1.3,0.7l1.7,2.9c0.4-0.2,0.9-0.4,1.2-0.7L107.6,175.7z"/>
	<path class="st1" d="M109,173.6c-0.1,0.5-0.3,0.9-0.6,1.3l3.1,1.2c0.2-0.4,0.4-0.9,0.6-1.3L109,173.6z"/>
	<path class="st1" d="M132.8,182.1V175c0-3.5-2.8-6.3-6.3-6.3h-6.7c-1.7,0-3-1.3-3-3h-3.3c0,3.5,2.8,6.3,6.3,6.3h6.7
		c1.7,0,3,1.3,3,3v7.1c0,0.4,0.3,0.7,0.7,0.7h2C132.5,182.8,132.8,182.5,132.8,182.1L132.8,182.1z"/>
	<path class="st0" d="M140.5,174c0,0.2-0.1,0.3-0.2,0.4c-0.1,0.1-0.3,0.2-0.4,0.1c-4.6-0.3-8.3-4.2-8.3-9h3.3c0,3.1,2.6,5.7,5.7,5.7
		V174L140.5,174z"/>
	<path class="st2" d="M119.2,165.7h8.5V178c0,0.5-0.4,0.9-0.9,0.9c-1.6,0-5.1,0-6.7,0c-0.5,0-0.9-0.4-0.9-0.9
		C119.2,175,119.2,165.7,119.2,165.7z"/>
	<path class="st1" d="M122,173.9h-2c-0.4,0-0.7,0.3-0.7,0.7c0,0.4,0.3,0.7,0.7,0.7h2.7c0.4,0,0.7-0.3,0.7-0.7v-8.4
		c0-0.4-0.3-0.7-0.7-0.7c-0.4,0-0.7,0.3-0.7,0.7V173.9L122,173.9z"/>
	<ellipse class="st1" cx="120.9" cy="177.9" rx="0.9" ry="0.9"/>
	<path class="st3" d="M100.7,147.8c0,0.8,0.5,2,0.5,2c0.8,1.7,2.6,2.8,4.6,2.8h0.1c0.2,0,0.4,0.1,0.5,0.2c0.1,0.1,0.2,0.3,0.2,0.5
		c0,2,0,7.7,0,10.5c0,1,0.8,1.8,1.7,1.8c5.6,0,23,0,28.6,0c1,0,1.7-0.8,1.7-1.8c0-2.5,0-6.9,0-9.4c0-0.5,0.2-0.9,0.5-1.3
		s0.8-0.5,1.3-0.5c2.1,0,5.4,0,5.4,0c2.8,0,5.1-2.3,5.1-5.1l0,0c0-1.2-0.9-2.1-2.1-2.1c-6.3,0-24.7,0-24.7,0c-3.7,0-6.8-3.1-6.8-6.8
		l0,0c0-3.8,3-6.8,6.8-6.8c0,0,18.4,0,24.7,0c1.2,0,2.1-1,2.1-2.1c0-5.9,0-22.1,0-22.1c0-5.2-2.4-10.1-6.1-13.8
		c-0.7-0.7-3.4-3.5-3.4-3.5h-26.9l-17.3,17.5v35.7l3.5,1.8C100.7,145.2,100.7,145.6,100.7,147.8L100.7,147.8z"/>
	<path class="st1" d="M147.4,131.8h-23.4c-3.7,0-6.8,3.1-6.8,6.8l0,0c0,3.8,3,6.8,6.8,6.8h23.4V131.8L147.4,131.8z"/>
	<path class="st0" d="M124.3,135.7v-3.9c0-0.4-0.3-0.7-0.7-0.7s-0.7,0.3-0.7,0.7v3.9h-4.3c-0.4,0-0.7,0.3-0.7,0.7
		c0,0.4,0.3,0.7,0.7,0.7h4.3v3.1h-4.3c-0.4,0-0.7,0.3-0.7,0.7c0,0.4,0.3,0.7,0.7,0.7h4.3v3.7c0,0.4,0.3,0.7,0.7,0.7
		c0.4,0,0.7-0.3,0.7-0.7v-3.7h4.6v3.7c0,0.4,0.3,0.7,0.7,0.7c0.4,0,0.7-0.3,0.7-0.7v-3.7h4.6v3.7c0,0.4,0.3,0.7,0.7,0.7
		c0.4,0,0.7-0.3,0.7-0.7v-3.7h4.6v3.7c0,0.4,0.3,0.7,0.7,0.7c0.4,0,0.7-0.3,0.7-0.7v-3.7h4.3c0.4,0,0.7-0.3,0.7-0.7
		c0-0.4-0.3-0.7-0.7-0.7h-4.3v-3.1h4.3c0.4,0,0.7-0.3,0.7-0.7c0-0.4-0.3-0.7-0.7-0.7h-4.3v-3.9c0-0.4-0.3-0.7-0.7-0.7
		c-0.4,0-0.7,0.3-0.7,0.7v3.9h-4.6v-3.9c0-0.4-0.3-0.7-0.7-0.7c-0.4,0-0.7,0.3-0.7,0.7v3.9h-4.6v-3.9c0-0.4-0.3-0.7-0.7-0.7
		c-0.4,0-0.7,0.3-0.7,0.7v3.9H124.3z M140.8,137.1v3.1h-4.6v-3.1H140.8z M134.8,137.1v3.1h-4.6v-3.1H134.8z M128.9,137.1v3.1h-4.6
		v-3.1H128.9z"/>
	<path class="st2" d="M140.5,113.9c0-1.9,1.5-3.4,3.4-3.4l0,0c1.9,0,3.4,1.5,3.4,3.4c0,2.1,0,4.6,0,6.7c0,1.9-1.5,3.4-3.4,3.4l0,0
		c-1.9,0-3.4-1.5-3.4-3.4C140.5,118.5,140.5,115.9,140.5,113.9z"/>
	<path class="st2" d="M120.8,113.9c0-1.9,1.5-3.4,3.4-3.4l0,0c1.9,0,3.4,1.5,3.4,3.4c0,2.1,0,4.6,0,6.7c0,1.9-1.5,3.4-3.4,3.4l0,0
		c-1.9,0-3.4-1.5-3.4-3.4C120.8,118.5,120.8,115.9,120.8,113.9z"/>
	<path class="st0" d="M101.9,128.3v-3.5h-8.8v17.7c0,1.2,0.8,2.2,2,2.5l5.6,1.3v-18H101.9L101.9,128.3z"/>
	<path class="st1" d="M98.9,136.6c0.2,0.2,0.2,0.5,0,0.7c-0.6,0.6-1.9,1.9-2.8,2.8c-0.1,0.1-0.3,0.2-0.5,0.1s-0.3-0.3-0.3-0.4
		c0-1.5,0-4.2,0-5.7c0-0.2,0.1-0.4,0.3-0.4c0.2-0.1,0.4,0,0.5,0.1C97,134.6,98.3,136,98.9,136.6L98.9,136.6z"/>
	<path class="st1" d="M100.6,147c0.4,0,0.7,0.3,0.7,0.7c0,0.6,0.4,1.5,0.4,1.7c0.7,1.4,2.2,2.4,3.9,2.4c0,0,0,0,0.1,0
		c0.4,0,0.8,0.2,1,0.4c0.3,0.3,0.4,0.7,0.4,1c0,2,0,7.6,0,10.5c0,0.6,0.5,1,1,1c5.6,0,23,0,28.6,0c0.6,0,1-0.5,1-1
		c0-2.5,0-6.9,0-9.4c0-0.4,0.1-0.7,0.3-1.1h-8.6c-0.4,0-0.7-0.3-0.7-0.7c0-0.4,0.3-0.7,0.7-0.7h16.3c2.4,0,4.3-1.9,4.3-4.4
		c0-0.7-0.6-1.4-1.4-1.4c-6.3,0-24.7,0-24.7,0c-3.3,0-6.1-2.2-7.1-5.2c0,0-0.1-0.1-0.1-0.1l-6.5-6.5h-9.7c-0.4,0-0.7-0.3-0.7-0.7
		c0-0.4,0.3-0.7,0.7-0.7h10c0.2,0,0.4,0.1,0.5,0.2l5.5,5.5c0-4.1,3.4-7.5,7.5-7.5c0,0,18.4,0,24.7,0c0.8,0,1.4-0.6,1.4-1.4v-20
		l-3.2-3.2h-2.4v3.4c1.9,0.3,3.4,2.1,3.4,3.9c0,2.1,0,4.6,0,6.7c0,2.3-1.9,4.1-4.1,4.1s-4.1-1.9-4.1-4.1c0-2.1,0-4.6,0-6.7
		c0-2,1.4-3.7,3.4-4.1v-4.1c0-0.4,0.3-0.7,0.7-0.7h3.4c0.2,0,0.4,0.1,0.5,0.2l2.4,2.4v-0.1c0-5-2.4-9.7-5.8-13.3
		c-0.3-0.3-0.3-0.7,0-1c0.3-0.3,0.7-0.3,1,0c3.7,3.8,6.3,8.9,6.3,14.3c0,0,0,16.2,0,22.1c0,1.6-1.3,2.8-2.8,2.8
		c-6.3,0-24.7,0-24.7,0c-3.3,0-6,2.7-6,6.1s2.7,6.1,6,6.1c0,0,18.4,0,24.7,0c1.6,0,2.8,1.3,2.8,2.8c0,3.2-2.6,5.8-5.8,5.8
		c0,0-3.3,0-5.4,0c-0.3,0-0.6,0.1-0.8,0.3s-0.3,0.5-0.3,0.8c0,2.5,0,7,0,9.4c0,1.3-1.1,2.5-2.4,2.5c-5.6,0-23,0-28.6,0
		c-1.3,0-2.4-1.1-2.4-2.5c0-2.8,0-8.5,0-10.5v0h0c-0.1,0-0.1,0-0.1,0c-2.3,0-4.3-1.3-5.2-3.2v0c0,0-0.6-1.3-0.6-2.3
		C99.9,147.3,100.2,147,100.6,147z M141.2,113.9c0,2.1,0,4.6,0,6.7c0,1.5,1.2,2.7,2.7,2.7c1.5,0,2.7-1.2,2.7-2.7c0-2.1,0-4.6,0-6.7
		c0-1.5-1.2-2.7-2.7-2.7C142.4,111.2,141.2,112.4,141.2,113.9z"/>
	<path class="st1" d="M110.2,109.8h5.6l4.5-4.6c0.1-0.1,0.3-0.2,0.5-0.2h3.4c0.4,0,0.7,0.3,0.7,0.7v4.1c1.9,0.3,3.4,2.1,3.4,4.1
		c0,2.1,0,4.6,0,6.7c0,2.3-1.9,4.1-4.1,4.1c-2.3,0-4.1-1.9-4.1-4.1c0-2.1,0-4.6,0-6.7c0-2,1.5-3.7,3.4-4.1v-3.4H121l-4.5,4.6
		c-0.1,0.1-0.3,0.2-0.5,0.2h-5.8c-0.4,0-0.7-0.3-0.7-0.7C109.5,110.1,109.8,109.8,110.2,109.8z M121.5,113.9c0,2.1,0,4.6,0,6.7
		c0,1.5,1.2,2.7,2.7,2.7c1.5,0,2.7-1.2,2.7-2.7c0-2.1,0-4.6,0-6.7c0-1.5-1.2-2.7-2.7-2.7C122.6,111.2,121.5,112.4,121.5,113.9z"/>
	<path class="st1" d="M123.3,83.9c0.7-1.3,2.1-2.2,3.7-2.2c2.4,0,6.4,0,8.8,0c1.5,0,2.9,0.8,3.7,2.2c1.4,2.6,3.9,7.1,3.9,7.1
		c0.1,0.3,0.1,0.6,0,0.8c-0.1,0.3-0.4,0.4-0.7,0.4h-22.7c-0.3,0-0.6-0.1-0.7-0.4c-0.1-0.3-0.1-0.6,0-0.8L123.3,83.9L123.3,83.9z"/>
	<path class="st2" d="M127.4,89.3c0.5-0.9,1.5-1.5,2.6-1.5c0.9,0,2,0,3,0c1.1,0,2.1,0.6,2.6,1.5c0.7,1.3,1.6,2.9,1.6,2.9h-11.3
		C125.8,92.2,126.7,90.6,127.4,89.3L127.4,89.3z"/>
	<path class="st0" d="M105.3,104.9c0,0.3-0.1,0.5-0.3,0.6c-0.2,0.1-0.4,0.2-0.7,0.1l-9.3-2.3c-0.4-0.1-0.6-0.4-0.6-0.8
		c0.5-11.6,10-20.9,21.6-20.9h11.1c0.3,0,0.6,0.1,0.7,0.4c0.1,0.3,0.1,0.6,0,0.8l-4.9,8.8c-0.1,0.3-0.4,0.4-0.7,0.4c0,0-3,0-4.8,0
		c-0.7,0-1.3,0.3-1.8,0.7c-2.1,2.1-7.3,7.2-9.5,9.3c-0.5,0.5-0.8,1.2-0.8,1.8L105.3,104.9L105.3,104.9z"/>
	<path class="st1" d="M112.2,124.3v-15.6c0-1.3-0.9-2.4-2.1-2.7c-3.8-0.9-12-2.8-16.6-3.9c-0.8-0.2-1.6,0-2.3,0.5
		c-0.6,0.5-1,1.3-1,2.1v15.8c0,0.7,0.3,1.5,0.9,2.1c2.5,2.5,9.6,9.7,9.6,9.7v-1.6c0-0.7,0.3-1.3,0.7-1.8c0.4-0.4,1.1-0.7,1.7-0.7
		c2.2,0,5.1,0,5.1,0c1,0,2-0.4,2.8-1.2C111.7,126.4,112.2,125.4,112.2,124.3L112.2,124.3z"/>
	<path class="st1" d="M99,89.9c-0.9,1.2-2.3,3.3-3.1,5.4c0.6,0.8,1.5,1.3,2.6,1.3c1.9,0,3.3-1.5,3.3-3.4
		C101.8,91.6,100.5,90.2,99,89.9L99,89.9z"/>
	<path class="st1" d="M113.1,87h4.1c0.3,0,0.5-0.1,0.6-0.4l2.1-3.7c0.2-0.3,0.1-0.8-0.3-1s-0.8-0.1-1,0.3l-1.9,3.4h-2.9l1.5-2.7
		c0.2-0.3,0.1-0.8-0.3-1c-0.3-0.2-0.8-0.1-1,0.3l-3.9,7.1h-5.4c-0.6-0.9-1.4-1.8-2.4-2.4c-0.3-0.2-0.8-0.1-1,0.3
		c-0.2,0.3-0.1,0.8,0.3,1c0.9,0.6,1.7,1.3,2.1,2.2l0,0c1,1.8,1.1,4.1,0,6c-1.7,2.8-5.3,3.8-8.1,2.1c-0.3-0.2-0.8-0.1-1,0.3
		c-0.2,0.3-0.1,0.8,0.3,1c3,1.8,6.7,1.2,9-1.2h6.6l4.6,4.6c0.3,0.3,0.7,0.3,1,0c0.3-0.3,0.3-0.7,0-1l-4.8-4.9
		c-0.2-0.2-0.5-0.3-0.7-0.1H105v0c1.2-2,1.3-4.4,0.6-6.4h5.1c0.3,0,0.5-0.1,0.6-0.4L113.1,87L113.1,87z M114.4,95.2l4.2,4.2
		c0.3,0.3,0.3,0.7,0,1c-0.3,0.3-0.7,0.3-1,0l-4.2-4.2c-0.3-0.3-0.3-0.7,0-1C113.6,94.9,114.1,94.9,114.4,95.2L114.4,95.2z"/>
	<ellipse class="st1" cx="108.5" cy="137.6" rx="1" ry="1"/>
	<ellipse class="st1" cx="104.3" cy="137.6" rx="1" ry="1"/>
	<path class="st1" d="M116.2,82c0.9-0.4,1.4-1.4,0.9-2.5c-0.2-0.3-0.4-0.9-0.6-1.4c-0.3-0.7-0.2-1.4,0.2-1.9
		c0.4-0.6,1.1-0.7,1.8-0.6c3.7,0.9,9.3,2.1,12.5,2.7c0.7,0.1,1.1,0.6,1.3,1.1c0.2,0.5,0.3,1.1-0.1,1.7c-1.6,2.8-4.5,7.8-6.4,11.1
		c-0.4,0.6-1,1-1.6,0.9c-0.7-0.1-1.2-0.5-1.5-1.2c-0.2-0.5-0.4-0.9-0.6-1.4c-0.4-0.9-1.4-1.4-2.5-1c-1,0.5-2.1,0.9-2.9,1.3
		c-0.5,0.2-0.9,0.2-1.4,0c-0.5-0.2-0.8-0.5-1-1c-0.6-1.4-1.4-3.3-2-4.5c-0.2-0.5-0.2-0.9,0-1.4c0.2-0.5,0.5-0.8,1-1
		C114.2,82.9,115.4,82.3,116.2,82z"/>
	<path class="st1" d="M149.7,265.5c0-0.8-0.4-1.5-0.8-2.1c-0.6-0.6-1.3-0.8-2.1-0.8h-7.4c-0.8,0-1.5,0.4-2.1,0.8
		c-0.6,0.6-0.8,1.3-0.8,2.1v7.4c0,0.8,0.4,1.5,0.8,2.1c0.6,0.6,1.3,0.8,2.1,0.8h7.4c0.8,0,1.5-0.4,2.1-0.8c0.6-0.6,0.8-1.3,0.8-2.1
		L149.7,265.5L149.7,265.5z"/>
	<path class="st1" d="M134.6,223.5c0-0.8-0.4-1.5-0.8-2.1c-0.6-0.6-1.3-0.8-2.1-0.8h-7.4c-0.8,0-1.5,0.4-2.1,0.8
		c-0.6,0.6-0.8,1.3-0.8,2.1v7.4c0,0.8,0.4,1.5,0.8,2.1c0.6,0.6,1.3,0.8,2.1,0.8h7.4c0.8,0,1.5-0.4,2.1-0.8c0.6-0.6,0.8-1.3,0.8-2.1
		L134.6,223.5L134.6,223.5z"/>
	<path class="st0" d="M207.7,166.5c0.7,2.9-2,6.1-6.1,7.1c-6.2,1.6-13.2-0.1-16-0.9c-0.3-0.1-0.5-0.3-0.5-0.6s0-0.6,0.2-0.8
		c2.1-2,7.6-6.8,13.7-8.4C203.1,162.1,207,163.6,207.7,166.5L207.7,166.5z"/>
	<path class="st3" d="M207.7,166.5c0.4,1.7-1.5,3.7-4.2,4.3c-3.7,0.9-7.7,0.4-9.9,0c-0.3-0.1-0.5-0.3-0.6-0.6
		c-0.1-0.3,0-0.6,0.3-0.8c1.7-1.4,5.1-3.8,8.7-4.7C204.7,164,207.3,164.8,207.7,166.5z"/>
	<path class="st1" d="M210.4,176.2l-6.8-18.2c0,0-2.7,2.2-4.4,3.5c-0.8,0.6-1.2,1.7-0.9,2.7c0.6,2.3,1.6,6.3,2.2,8.7
		c0.3,1,1.1,1.8,2.2,2C205.3,175.4,210.4,176.2,210.4,176.2z"/>
	<path class="st0" d="M199.6,166.7c-0.1-0.1-0.1-0.1-0.1-0.2c-0.1-0.2,0.1-0.4,0.3-0.5l4.9-1.2c0.2-0.1,0.4,0.1,0.5,0.3
		s-0.1,0.4-0.3,0.5l-4.9,1.2C199.9,166.8,199.7,166.8,199.6,166.7z"/>
	<path class="st0" d="M200,168.8c-0.1-0.1-0.1-0.1-0.1-0.2c-0.1-0.2,0.1-0.4,0.3-0.5l4.9-1.2c0.2-0.1,0.4,0.1,0.5,0.3
		c0.1,0.2-0.1,0.4-0.3,0.5l-4.9,1.2C200.3,169,200.2,168.9,200,168.8z"/>
	<path class="st2" d="M215,155.7c0,0-6.1-0.1-9.6-0.1c-0.6,0-1.2,0.2-1.7,0.6c-0.4,0.4-0.7,1-0.7,1.6c-0.1,3.1-0.2,8.2-0.2,10.4
		c0,0.6,0.2,1.2,0.6,1.7c1.3,1.4,4.4,4.6,6.3,6.5c0.4,0.4,1,0.7,1.6,0.7c0.6,0,1.2-0.2,1.7-0.6c2.3-2.2,6.2-6,6.2-6L215,155.7
		L215,155.7z"/>
	<path class="st2" d="M231.6,170l4.6,0.1c1.4,0,2.6,1.2,2.5,2.6s-1.2,2.6-2.6,2.5l-5.7-0.1c-0.7,0-1.3-0.3-1.8-0.8l-5.3-5.4
		c-1-1-1-2.7,0.1-3.7c1-1,2.7-1,3.7,0.1L231.6,170L231.6,170z"/>
	<path class="st1" d="M235.2,142.7l-6.8,6.6l0.2-8.3l6.5,0.4L235.2,142.7L235.2,142.7z"/>
	<path class="st1" d="M226.1,171.5c-0.4,0.4-0.9,0.5-1.4,0.5c-1.7,0-5.4-0.1-5.4-0.1l-6-5.8l0.3-13.6l14.4-13.9l5.3,1.9l-2.5,2.4
		c0,0-0.4,19.5-0.5,23.8c0,0.5-0.2,1-0.6,1.4C228.7,169,227,170.6,226.1,171.5L226.1,171.5z"/>
	<path class="st0" d="M201.5,162.7c-0.3,0.2-0.7,0.2-0.9-0.1c-0.2-0.3-0.2-0.7,0.1-0.9s0.7-0.2,0.9,0.1
		C201.9,162.1,201.8,162.4,201.5,162.7z"/>
	<path class="st2" d="M227.4,138.2c0.5-0.5,1.1-0.7,1.9-0.7l13.1,0.2c0.7,0,1.3,0.3,1.8,0.8l5.3,5.5c0.5,0.5,0.7,1.1,0.7,1.8
		l-0.1,5.7c0,1.4-1.2,2.6-2.6,2.5c-1.4,0-2.6-1.2-2.5-2.6l0.1-4.6l-3.8-3.9c0,0-8.5-0.1-10-0.1c-0.1,0-0.3,0.1-0.4,0.2l0,0
		c-0.2,0.2-0.3,0.5-0.2,0.8c0.1,0.3,0.4,0.5,0.7,0.5c1.8,0,4.3,0.1,4.3,0.1c0.7,0,1.3,0.3,1.8,0.8l5.3,5.5c0.5,0.5,0.7,1.1,0.7,1.8
		l-0.1,5.7c0,1.4-1.2,2.6-2.6,2.5c-1.4,0-2.6-1.2-2.5-2.6l0.1-4.6l-3.8-3.9c0,0-8.5-0.1-10-0.1c-0.1,0-0.3,0.1-0.4,0.2l0,0
		c-0.2,0.2-0.3,0.5-0.2,0.8s0.4,0.5,0.7,0.5c1.8,0,4.3,0.1,4.3,0.1c0.7,0,1.3,0.3,1.8,0.8l5.3,5.5c0.5,0.5,0.7,1.1,0.7,1.8l-0.1,5.7
		c0,1.4-1.2,2.6-2.6,2.5c-1.4,0-2.6-1.2-2.5-2.6l0.1-4.6l-3.8-3.9c0,0-3.6-0.1-6-0.1c-1,0-1.9,0.8-2,1.9c0,2.2-0.1,5.9-0.1,7.4
		c0,0.5,0.2,1,0.5,1.4c0.7,0.8,2.1,2.2,3.2,3.3c0.3,0.4,0.4,0.9,0.3,1.4c-0.2,0.5-0.7,0.8-1.2,0.8c-1.2,0-2.5,0-3.4-0.1
		c-0.7,0-1.3-0.3-1.8-0.8c-1-1-2.7-2.8-3.7-3.9c-0.5-0.5-0.7-1.1-0.7-1.8c0.1-2.7,0.2-9.7,0.2-12.4c0-0.7,0.3-1.3,0.8-1.8
		C216.8,148.4,227.4,138.2,227.4,138.2L227.4,138.2L227.4,138.2z"/>
	<path class="st1" d="M216.6,171.4l-3.5-3.7c-0.5-0.6-0.8-1.3-0.8-2.1l0.2-8.8c0-0.2,0.2-0.4,0.4-0.4c0.2,0,0.4,0.2,0.4,0.4
		l-0.2,8.8c0,0.6,0.2,1.1,0.6,1.5l3.5,3.7c0.2,0.2,0.2,0.4,0,0.6C217,171.5,216.8,171.5,216.6,171.4z"/>
	<path class="st1" d="M235.9,157.9c0,0-0.4,0.1-1,0.3c-0.3,0.1-0.7,0.2-1,0.3c-0.2,0.1-0.4,0.1-0.6,0.2c-0.8,0.3-1.4,0.6-1.4,0.6
		c-0.2,0.1-0.3,0.3-0.3,0.5c0.1,0.2,0.3,0.3,0.5,0.2c0,0,0.7-0.2,1.4-0.4c0.2-0.1,0.4-0.1,0.6-0.2c0.4-0.1,0.7-0.3,1-0.4
		c0.6-0.2,1-0.4,1-0.4c0.2-0.1,0.3-0.3,0.3-0.5C236.3,157.9,236.1,157.8,235.9,157.9L235.9,157.9z"/>
	<path class="st1" d="M242.7,151.4c0,0-0.4,0.1-1,0.3c-0.3,0.1-0.7,0.2-1,0.3c-0.2,0.1-0.4,0.1-0.6,0.2c-0.8,0.3-1.4,0.6-1.4,0.6
		c-0.2,0.1-0.3,0.3-0.3,0.5c0.1,0.2,0.3,0.3,0.5,0.2c0,0,0.7-0.2,1.4-0.4c0.2-0.1,0.4-0.1,0.6-0.2c0.4-0.1,0.7-0.3,1-0.4
		c0.6-0.2,1-0.4,1-0.4c0.2-0.1,0.3-0.3,0.3-0.5C243.1,151.4,242.8,151.3,242.7,151.4L242.7,151.4z"/>
	<path class="st1" d="M249.6,144.7c0,0-0.4,0.1-1,0.3c-0.3,0.1-0.7,0.2-1,0.3c-0.2,0.1-0.4,0.1-0.6,0.2c-0.8,0.3-1.4,0.6-1.4,0.6
		c-0.2,0.1-0.3,0.3-0.3,0.5c0.1,0.2,0.3,0.3,0.5,0.2c0,0,0.7-0.2,1.4-0.4c0.2-0.1,0.4-0.1,0.6-0.2c0.4-0.1,0.7-0.3,1-0.4
		c0.6-0.2,1-0.4,1-0.4c0.2-0.1,0.3-0.3,0.3-0.5C250,144.7,249.7,144.6,249.6,144.7L249.6,144.7z"/>
	<path class="st1" d="M228.3,155.6c0,0,0.2-0.4,0.5-0.9c0.2-0.3,0.3-0.6,0.5-1c0.1-0.2,0.2-0.4,0.3-0.6c0.3-0.8,0.5-1.4,0.5-1.4
		c0.1-0.2,0-0.4-0.2-0.5c-0.2-0.1-0.4,0-0.5,0.2c0,0-0.3,0.6-0.7,1.4c-0.1,0.2-0.2,0.4-0.3,0.6c-0.2,0.3-0.3,0.7-0.4,1
		c-0.2,0.6-0.4,1-0.4,1c-0.1,0.2,0,0.4,0.2,0.5C228,155.9,228.2,155.8,228.3,155.6z"/>
	<path class="st1" d="M235.1,149.1c0,0,0.2-0.4,0.5-0.9c0.2-0.3,0.3-0.6,0.5-1c0.1-0.2,0.2-0.4,0.3-0.6c0.3-0.8,0.5-1.4,0.5-1.4
		c0.1-0.2,0-0.4-0.2-0.5c-0.2-0.1-0.4,0-0.5,0.2c0,0-0.3,0.6-0.7,1.4c-0.1,0.2-0.2,0.4-0.3,0.6c-0.2,0.3-0.3,0.7-0.4,1
		c-0.2,0.6-0.4,1-0.4,1c-0.1,0.2,0,0.4,0.2,0.5C234.7,149.4,235,149.3,235.1,149.1z"/>
	<path class="st1" d="M241.9,142.4c0,0,0.2-0.4,0.5-0.9c0.2-0.3,0.3-0.6,0.5-1c0.1-0.2,0.2-0.4,0.3-0.6c0.3-0.8,0.5-1.4,0.5-1.4
		c0.1-0.2,0-0.4-0.2-0.5c-0.2-0.1-0.4,0-0.5,0.2c0,0-0.3,0.6-0.7,1.4c-0.1,0.2-0.2,0.4-0.3,0.6c-0.2,0.3-0.3,0.7-0.4,1
		c-0.2,0.6-0.4,1-0.4,1c-0.1,0.2,0,0.4,0.2,0.5C241.6,142.7,241.9,142.6,241.9,142.4z"/>
	<path class="st1" d="M231,170.4c0,0-0.2,0.4-0.5,0.9c-0.1,0.3-0.3,0.6-0.4,0.9c-0.1,0.2-0.2,0.4-0.2,0.6c-0.3,0.7-0.4,1.3-0.4,1.3
		c-0.1,0.2,0,0.4,0.2,0.5c0.2,0.1,0.4,0,0.5-0.2c0,0,0.3-0.6,0.6-1.2c0.1-0.2,0.2-0.4,0.3-0.5c0.1-0.3,0.2-0.6,0.4-0.9
		c0.2-0.5,0.3-0.9,0.3-0.9c0.1-0.2,0-0.4-0.2-0.5C231.3,170.1,231.1,170.2,231,170.4z"/>
	<path class="st1" d="M206.4,172.9c-0.2-0.2-0.2-0.4,0-0.6l2.1-2l0.2-9.5l-2.9,0c-0.1,0-0.2,0-0.3-0.1l0,0c-0.1-0.1-0.1-0.2-0.1-0.3
		l0.1-4.5c0-0.2,0.2-0.4,0.4-0.4c0.2,0,0.4,0.2,0.4,0.4l-0.1,4l2.9,0c0.2,0,0.4,0.2,0.4,0.4l-0.2,10.1c0,0.1,0,0.2-0.1,0.3l-2.3,2.2
		C206.8,173.1,206.5,173.1,206.4,172.9z"/>
	<path class="st1" d="M213.3,171.8c0,0,0,0.1,0.1,0.3c0.1,0.1,0.1,0.2,0.2,0.3c0.1,0.1,0.1,0.1,0.2,0.1c0.3,0.2,0.5,0.2,0.5,0.2
		c0.2,0.2,0.6,0.2,0.8,0c0.2-0.2,0.2-0.6,0-0.8c0,0-0.1-0.2-0.2-0.5c0-0.1-0.1-0.1-0.1-0.2c-0.1-0.1-0.2-0.2-0.3-0.2
		c-0.2-0.1-0.3-0.2-0.3-0.2c-0.2-0.2-0.6-0.2-0.8,0C213.1,171.2,213.1,171.5,213.3,171.8L213.3,171.8z"/>
	<path class="st1" d="M211.7,173.3c0,0,0,0.1,0.1,0.3c0.1,0.1,0.1,0.2,0.2,0.3c0.1,0.1,0.1,0.1,0.2,0.1c0.3,0.2,0.5,0.2,0.5,0.2
		c0.2,0.2,0.6,0.2,0.8,0c0.2-0.2,0.2-0.6,0-0.8c0,0-0.1-0.2-0.2-0.5c0-0.1-0.1-0.1-0.1-0.2c-0.1-0.1-0.2-0.2-0.3-0.2
		c-0.2-0.1-0.3-0.2-0.3-0.2c-0.2-0.2-0.6-0.2-0.8,0S211.5,173.1,211.7,173.3z"/>
	<path class="st1" d="M210.2,174.8c0,0,0,0.1,0.1,0.3c0.1,0.1,0.1,0.2,0.2,0.3c0.1,0.1,0.1,0.1,0.2,0.1c0.3,0.2,0.5,0.2,0.5,0.2
		c0.2,0.2,0.6,0.2,0.8,0s0.2-0.6,0-0.8c0,0-0.1-0.2-0.2-0.5c0-0.1-0.1-0.1-0.1-0.2c-0.1-0.1-0.2-0.2-0.3-0.2
		c-0.2-0.1-0.3-0.2-0.3-0.2c-0.2-0.2-0.6-0.2-0.8,0C209.9,174.2,209.9,174.6,210.2,174.8L210.2,174.8z"/>
	<path class="st1" d="M215.7,150.3c-0.1-0.1-0.1-0.2-0.1-0.3c0-0.2,0.2-0.4,0.4-0.4l3.4,0.1l5.2-5.1l0.1-3.5c0-0.2,0.2-0.4,0.4-0.4
		c0.2,0,0.4,0.2,0.4,0.4l-0.1,3.7c0,0.1,0,0.2-0.1,0.3l-5.5,5.3c-0.1,0.1-0.2,0.1-0.3,0.1l-3.6-0.1
		C215.9,150.4,215.8,150.4,215.7,150.3z"/>
	
		<ellipse transform="matrix(0.7192 -0.6948 0.6948 0.7192 -51.7097 205.2477)" class="st0" cx="228.1" cy="166.6" rx="0.6" ry="0.6"/>
	
		<ellipse transform="matrix(0.7192 -0.6948 0.6948 0.7192 -49.996 204.5645)" class="st0" cx="228.1" cy="164.1" rx="0.6" ry="0.6"/>
	<path class="st0" d="M220.6,163.9c-0.1-0.1-0.1-0.2-0.1-0.3c0-0.2,0.2-0.4,0.4-0.4l4,0.1l3.6-3.5c0.2-0.2,0.4-0.2,0.6,0
		c0.2,0.2,0.2,0.4,0,0.6l-3.7,3.6c-0.1,0.1-0.2,0.1-0.3,0.1l-4.2-0.1C220.8,164,220.7,164,220.6,163.9z"/>
	<path class="st3" d="M169.5,280.7c1.2,0,2.2-1,2.2-2.2c0-2,0-4.9,0-6.9c0-1.2-1-2.2-2.2-2.2h-2c-0.9,0-1.7,0.8-1.7,1.7l0,0
		c0,0.9-0.8,1.7-1.7,1.7c-1.7,0-4.5,0-6.4,0c-1.2,0-2.2,1-2.2,2.2c0,1.1,0,2.4,0,3.5c0,1.2,1,2.2,2.2,2.2
		C160.9,280.7,166.5,280.7,169.5,280.7L169.5,280.7z"/>
	<path class="st3" d="M209.4,225.6c-1.2,0-2.2,1-2.2,2.2c0,1.3,0,3,0,4.3c0,1.2,1,2.2,2.2,2.2h2.5c0.3,0,0.6-0.1,0.8-0.3
		s0.3-0.6,0.3-0.8l0,0c0-0.3,0.1-0.6,0.3-0.8s0.6-0.3,0.8-0.3c0.7,0,1.4,0,2.2,0c1.2,0,2.2-1,2.2-2.2c0-0.6,0-1.3,0-1.9
		c0-1.2-1-2.2-2.2-2.2C214.5,225.6,211.5,225.6,209.4,225.6L209.4,225.6z"/>
	<path class="st3" d="M187.4,166.5c-1.2,0-2.2,1-2.2,2.2c0,3,0,8.2,0,11.2c0,1.2,1,2.2,2.2,2.2c1.8,0,4.4,0,6.3,0
		c1.2,0,2.2-1,2.2-2.2c0-0.6,0-1.1,0-1.7c0-1.2,1-2.2,2.2-2.2c4.4,0,14.1,0,18.5,0c0.6,0,1.2-0.2,1.6-0.7c0.4-0.4,0.7-1,0.7-1.6
		c0-1.6,0-3.5,0-5.1c0-0.6-0.2-1.2-0.7-1.6c-0.4-0.4-1-0.7-1.6-0.7C210.5,166.5,193.5,166.5,187.4,166.5L187.4,166.5z"/>
	<path class="st2" d="M137.4,98c0.6,0,1.2,0.2,1.6,0.7s0.7,1,0.7,1.6c0,3.1,0,8.6,0,11.7c0,0.6-0.2,1.2-0.7,1.6
		c-0.4,0.4-1,0.7-1.6,0.7c-0.8,0-1.7,0-2.4,0c-0.6,0-1.2,0.2-1.6,0.7s-0.7,1-0.7,1.6v2.5c0,1.3-1,2.3-2.3,2.3c-0.3,0-0.7,0-1.1,0
		c-1.3,0-2.3,1-2.3,2.3c0,4.6,0,15.1,0,19.7c0,1.2,1,2.3,2.3,2.3c4.4,0,14.3,0,18.8,0c1.3,0,2.3,1,2.3,2.3c0,0.7,0,1.6,0,2.3
		c0,1.3-1,2.3-2.3,2.3c-0.9,0-1.9,0-2.8,0c-1.2,0-2.3,1-2.3,2.3c0,2.8,0,7.6,0,10.4c0,0.6-0.2,1.2-0.7,1.6c-0.4,0.4-1,0.7-1.6,0.7
		s-1.2,0-1.8,0c-0.6,0-1.2,0.2-1.6,0.7s-0.7,1-0.7,1.6c0,2.7,0,7.3,0,10c0,1.2,1,2.3,2.3,2.3c3.3,0,9.3,0,12.6,0
		c0.6,0,1.2,0.2,1.6,0.7s0.7,1,0.7,1.6v8c0,0.6-0.2,1.2-0.7,1.6c-0.4,0.4-1,0.7-1.6,0.7c-4.3,0-13.7,0-18,0c-1.2,0-2.3,1-2.3,2.3
		c0,1.6,0,3.6,0,5.2c0,1.3,1,2.3,2.3,2.3c1.6,0,3.7,0,5.3,0c1.2,0,2.3,1,2.3,2.3c0,1.7,0,4,0,5.7c0,1.3-1,2.3-2.3,2.3
		c-3.4,0-9.7,0-13,0c-0.6,0-1.2,0.2-1.6,0.7c-0.4,0.4-0.7,1-0.7,1.6c0,2.6,0,6.9,0,9.5c0,0.6,0.2,1.2,0.7,1.6c0.4,0.4,1,0.7,1.6,0.7
		c5.8,0,21.3,0,27,0c0.6,0,1.2,0.2,1.6,0.7c0.4,0.4,0.7,1,0.7,1.6c0,4.4,0,13.9,0,18.3c0,1.2-1,2.3-2.3,2.3c-1.2,0-2.6,0-3.7,0
		c-1.3,0-2.3,1-2.3,2.3c0,3.6,0,10.7,0,14.4c0,0.6-0.2,1.2-0.7,1.6c-0.4,0.4-1,0.7-1.6,0.7c-0.4,0-0.9,0-1.4,0
		c-0.6,0-1.2,0.2-1.6,0.7c-0.4,0.4-0.7,1-0.7,1.6c0,2.7,0,7.1,0,9.9c0,0.6-0.2,1.2-0.7,1.6c-0.4,0.4-1,0.7-1.6,0.7
		c-1.6,0-3.6,0-5.1,0c-0.6,0-1.2,0.2-1.6,0.7c-0.4,0.4-0.7,1-0.7,1.6c0,1.4,0,3.2,0,4.7c0,1.2,1,2.3,2.3,2.3c3.7,0,11.1,0,14.8,0
		c1.2,0,2.3,1,2.3,2.3c0,1,0,2.2,0,3.3c0,1.2,1,2.3,2.3,2.3c4.3,0,13.5,0,17.7,0c1.3,0,2.3,1,2.3,2.3c0,2.7,0,7.3,0,10
		c0,0.6-0.2,1.2-0.7,1.6c-0.4,0.4-1,0.7-1.6,0.7c-1.9,0-4.5,0-6.4,0c-1.2,0-2.3,1-2.3,2.3c0,0.7,0,1.4,0,2.1c0,0.6-0.2,1.2-0.7,1.6
		c-0.4,0.4-1,0.7-1.6,0.7c-12.1,0-68.7,0-68.7,0V98.6L137.4,98L137.4,98z"/>
	<path class="st3" d="M136.7,176c-14.8-4.7-25.6-18.5-25.6-34.9c0-17.5,12.2-32,28.6-35.7v6.6c0,0.6-0.2,1.2-0.7,1.6
		c-0.4,0.4-1,0.7-1.6,0.7c-0.8,0-1.7,0-2.4,0c-0.6,0-1.2,0.2-1.6,0.7s-0.7,1-0.7,1.6v2.5c0,1.3-1,2.3-2.3,2.3c-0.3,0-0.7,0-1.1,0
		c-1.3,0-2.3,1-2.3,2.3c0,4.6,0,15.1,0,19.7c0,1.2,1,2.3,2.3,2.3c4.4,0,14.3,0,18.8,0c1.3,0,2.3,1,2.3,2.3c0,0.7,0,1.6,0,2.3
		c0,1.3-1,2.3-2.3,2.3c-0.9,0-1.9,0-2.8,0c-1.2,0-2.3,1-2.3,2.3c0,2.8,0,7.6,0,10.4c0,0.6-0.2,1.2-0.7,1.6c-0.4,0.4-1,0.7-1.6,0.7
		s-1.2,0-1.8,0c-0.6,0-1.2,0.2-1.6,0.7s-0.7,1-0.7,1.6L136.7,176L136.7,176z"/>
	<path class="st0" d="M142.2,166.7L104.5,135c-1-0.9-1.4-2.2-1.1-3.5c0.3-1.3,1.4-2.3,2.7-2.5l21-3.7v18c0,1.2,1,2.3,2.3,2.3
		c4.4,0,14.3,0,18.8,0c1.3,0,2.3,1,2.3,2.3c0,0.7,0,1.6,0,2.3c0,1.3-1,2.3-2.3,2.3c-0.9,0-1.9,0-2.8,0c-1.2,0-2.3,1-2.3,2.3
		c0,2.8,0,7.6,0,10.4c0,0.6-0.2,1.2-0.7,1.6C142.3,166.7,142.3,166.7,142.2,166.7L142.2,166.7z"/>
	<path class="st3" d="M74.1,269.6c-0.7-0.7-1.8-0.9-2.8-0.6c-0.9,0.4-1.6,1.3-1.6,2.3c0,8.6,0,23.6,0,27.7c0,0.7,0.3,1.3,0.7,1.8
		c1.7,1.7,5.8,5.8,9,9c0.7,0.7,1.8,0.9,2.8,0.6c0.9-0.4,1.6-1.3,1.6-2.3c0-8.6,0-23.6,0-27.7c0-0.7-0.3-1.3-0.7-1.8
		C81.4,277,77.3,272.9,74.1,269.6L74.1,269.6z"/>
	<path class="st2" d="M67.6,187.1h17.9c0.7,0,1.2-0.5,1.2-1.2c0-0.7-0.5-1.2-1.2-1.2H67.6c-0.7,0-1.2,0.5-1.2,1.2
		C66.5,186.6,67,187.1,67.6,187.1L67.6,187.1z"/>
	<path class="st2" d="M75.4,219.2c-0.3,0-0.6,0.1-0.8,0.3c-0.2,0.2-0.3,0.6-0.3,0.9c0,3.2,0,11.5,0,14.7c0,0.3,0.1,0.6,0.3,0.8
		c0.2,0.2,0.6,0.3,0.8,0.3c0.8,0,1.9,0,2.7,0c0.3,0,0.6-0.1,0.8-0.3c0.2-0.2,0.3-0.6,0.3-0.8c0-3.2,0-11.5,0-14.7
		c0-0.3-0.1-0.6-0.3-0.9c-0.2-0.2-0.6-0.3-0.8-0.3C77.3,219.2,76.2,219.2,75.4,219.2z"/>
	<path class="st2" d="M75.4,191.3c-0.3,0-0.6,0.1-0.8,0.3c-0.2,0.2-0.3,0.6-0.3,0.8c0,3.2,0,11.5,0,14.7c0,0.3,0.1,0.6,0.3,0.8
		c0.2,0.2,0.6,0.3,0.8,0.3c0.8,0,1.9,0,2.7,0c0.3,0,0.6-0.1,0.8-0.3c0.2-0.2,0.3-0.6,0.3-0.8c0-3.2,0-11.5,0-14.7
		c0-0.3-0.1-0.6-0.3-0.8c-0.2-0.2-0.6-0.3-0.8-0.3C77.3,191.3,76.2,191.3,75.4,191.3z"/>
	<path class="st2" d="M75.4,163.3c-0.3,0-0.6,0.1-0.8,0.3c-0.2,0.2-0.3,0.6-0.3,0.8c0,3.2,0,11.5,0,14.7c0,0.3,0.1,0.6,0.3,0.8
		c0.2,0.2,0.6,0.3,0.8,0.3c0.8,0,1.9,0,2.7,0c0.3,0,0.6-0.1,0.8-0.3c0.2-0.2,0.3-0.6,0.3-0.8c0-3.2,0-11.5,0-14.7
		c0-0.3-0.1-0.6-0.3-0.8c-0.2-0.2-0.6-0.3-0.8-0.3C77.3,163.3,76.2,163.3,75.4,163.3z"/>
	<ellipse class="st0" cx="76.6" cy="138.4" rx="9" ry="9"/>
	<ellipse class="st0" cx="54.4" cy="318.2" rx="4.1" ry="4.1"/>
	<ellipse class="st3" cx="54.4" cy="304.9" rx="4.1" ry="4.1"/>
	<ellipse class="st2" cx="54.4" cy="291.6" rx="4.1" ry="4.1"/>
	<ellipse class="st0" cx="76.6" cy="115" rx="9" ry="9"/>
	<path class="st3" d="M104.3,289.8c-0.6,0-1.2,0.2-1.6,0.7c-0.4,0.4-0.7,1-0.7,1.6c0,2,0,4.8,0,6.8c0,0.6,0.2,1.2,0.7,1.6
		c0.4,0.4,1,0.7,1.6,0.7c1.4,0,3.3,0,4.8,0c0.6,0,1.2-0.2,1.6-0.7c0.4-0.4,0.7-1,0.7-1.6c0-2,0-4.8,0-6.8c0-0.6-0.2-1.2-0.7-1.6
		c-0.4-0.4-1-0.7-1.6-0.7C107.6,289.8,105.7,289.8,104.3,289.8z"/>
	<path class="st3" d="M104.3,206.6c-1.3,0-2.3,1.1-2.3,2.3c0,11.2,0,60.2,0,71.4c0,1.3,1.1,2.3,2.3,2.3c1.4,0,3.3,0,4.8,0
		c1.3,0,2.3-1.1,2.3-2.3c0-11.2,0-60.2,0-71.4c0-1.3-1.1-2.3-2.3-2.3C107.6,206.6,105.7,206.6,104.3,206.6z"/>
	<path class="st3" d="M104.3,173.5c-1.3,0-2.3,1.1-2.3,2.3V197c0,1.3,1.1,2.3,2.3,2.3h4.8c1.3,0,2.3-1.1,2.3-2.3v-21.2
		c0-1.3-1.1-2.3-2.3-2.3L104.3,173.5L104.3,173.5z"/>
	<path class="st3" d="M77.6,109.6h-2.1l-0.4,1.6c-0.1,0-0.1,0.1-0.2,0.1l-1.4-0.9l-1.5,1.5l0.9,1.4c0,0.1-0.1,0.1-0.1,0.2l-1.6,0.4
		v2.1l1.6,0.4c0.1,0.1,0.1,0.1,0.1,0.2l-0.9,1.4l1.5,1.5l1.4-0.9c0.1,0,0.1,0.1,0.2,0.1l0.4,1.6h2.1l0.4-1.6c0.1,0,0.1-0.1,0.2-0.1
		l1.4,0.9l1.5-1.5l-0.9-1.4c0-0.1,0.1-0.1,0.1-0.2l1.6-0.4v-2.1l-1.6-0.4c0-0.1-0.1-0.1-0.1-0.2l0.9-1.4l-1.5-1.5l-1.4,0.9
		c-0.1,0-0.1-0.1-0.2-0.1L77.6,109.6z M78.3,115c0,1-0.8,1.8-1.8,1.8s-1.8-0.8-1.8-1.8s0.8-1.8,1.8-1.8
		C77.5,113.2,78.3,114,78.3,115z"/>
	<path class="st3" d="M125.1,290.7c0-0.4,0.2-0.8,0.4-1.1c0.3-0.3,0.7-0.4,1.1-0.4c0.3,0,0.6,0,0.9,0c0.4,0,0.8,0.2,1.1,0.4
		c0.3,0.3,0.4,0.7,0.4,1.1c0,2.3,0,6.7,0,8.9c0,0.4-0.2,0.8-0.4,1.1s-0.7,0.4-1.1,0.4c-0.3,0-0.6,0-0.9,0c-0.4,0-0.8-0.2-1.1-0.4
		s-0.4-0.7-0.4-1.1C125.1,297.3,125.1,293,125.1,290.7z M127.6,256.5c0.4,0,0.8,0.2,1.1,0.4c0.3,0.3,0.4,0.7,0.4,1.1
		c0,5,0,20.9,0,26c0,0.4-0.2,0.8-0.4,1.1c-0.3,0.3-0.7,0.4-1.1,0.4c-0.3,0-0.6,0-0.9,0c-0.4,0-0.8-0.2-1.1-0.4s-0.4-0.7-0.4-1.1
		c0-5,0-20.9,0-26c0-0.4,0.2-0.8,0.4-1.1c0.3-0.3,0.7-0.4,1.1-0.4C127,256.5,127.3,256.5,127.6,256.5z M129.1,228.3v23.1
		c0,0.4-0.2,0.8-0.4,1.1c-0.3,0.3-0.7,0.4-1.1,0.4c-0.3,0-0.6,0-0.9,0c-0.4,0-0.8-0.2-1.1-0.4c-0.3-0.3-0.4-0.7-0.4-1.1
		c0-5.4,0-23.1,0-23.1H129.1z M127.6,203.1c0.4,0,0.8,0.2,1.1,0.4c0.3,0.3,0.4,0.7,0.4,1.1c0,1.6,0,4.2,0,5.8c0,0.4-0.2,0.8-0.4,1.1
		c-0.3,0.3-0.7,0.4-1.1,0.4c-0.3,0-0.6,0-0.9,0c-0.4,0-0.8-0.2-1.1-0.4s-0.4-0.7-0.4-1.1c0-1.6,0-4.2,0-5.8c0-0.4,0.2-0.8,0.4-1.1
		s0.7-0.4,1.1-0.4C127,203.1,127.3,203.1,127.6,203.1z M126.7,199.5c-0.4,0-0.8-0.2-1.1-0.4c-0.3-0.3-0.4-0.7-0.4-1.1
		c0-2.3,0-6.5,0-8.8c0-0.4,0.2-0.8,0.4-1.1c0.3-0.3,0.7-0.4,1.1-0.4c0.3,0,0.6,0,0.9,0c0.4,0,0.8,0.2,1.1,0.4
		c0.3,0.3,0.4,0.7,0.4,1.1c0,2.3,0,6.5,0,8.8c0,0.4-0.2,0.8-0.4,1.1c-0.3,0.3-0.7,0.4-1.1,0.4C127.3,199.5,127,199.5,126.7,199.5
		L126.7,199.5z"/>
	<path class="st3" d="M117.5,275.6c0-0.9,0.7-1.6,1.6-1.6c0.3,0,0.6,0,0.9,0c0.9,0,1.6,0.7,1.6,1.6c0,4.8,0,19.3,0,24.1
		c0,0.9-0.7,1.6-1.6,1.6c-0.3,0-0.6,0-0.9,0c-0.9,0-1.6-0.7-1.6-1.6C117.5,294.8,117.5,280.3,117.5,275.6z M120,263.2
		c0.4,0,0.8,0.2,1.1,0.4c0.3,0.3,0.4,0.7,0.4,1.1c0,1.2,0,2.9,0,4.2c0,0.4-0.2,0.8-0.4,1.1c-0.3,0.3-0.7,0.4-1.1,0.4
		c-0.3,0-0.6,0-0.9,0c-0.4,0-0.8-0.2-1.1-0.4c-0.3-0.3-0.4-0.7-0.4-1.1c0-1.2,0-2.9,0-4.2c0-0.4,0.2-0.8,0.4-1.1
		c0.3-0.3,0.7-0.4,1.1-0.4C119.4,263.2,119.7,263.2,120,263.2z M120,217.9c0.4,0,0.8,0.2,1.1,0.4c0.3,0.3,0.4,0.7,0.4,1.1
		c0,6.6,0,32,0,38.6c0,0.4-0.2,0.8-0.4,1.1c-0.3,0.3-0.7,0.4-1.1,0.4c-0.3,0-0.6,0-0.9,0c-0.4,0-0.8-0.2-1.1-0.4
		c-0.3-0.3-0.4-0.7-0.4-1.1c0-6.6,0-32,0-38.6c0-0.4,0.2-0.8,0.4-1.1c0.3-0.3,0.7-0.4,1.1-0.4C119.4,217.9,119.7,217.9,120,217.9z
		 M119.1,214.4c-0.4,0-0.8-0.2-1.1-0.4s-0.4-0.7-0.4-1.1c0-4.7,0-18.8,0-23.6c0-0.4,0.2-0.8,0.4-1.1c0.3-0.3,0.7-0.4,1.1-0.4
		c0.3,0,0.6,0,0.9,0c0.4,0,0.8,0.2,1.1,0.4c0.3,0.3,0.4,0.7,0.4,1.1c0,4.7,0,18.8,0,23.6c0,0.4-0.2,0.8-0.4,1.1s-0.7,0.4-1.1,0.4
		C119.7,214.4,119.4,214.4,119.1,214.4L119.1,214.4z"/>
	<path class="st3" d="M132.7,293.4h4v6.2c0,0.4-0.2,0.8-0.4,1.1s-0.7,0.4-1.1,0.4c-0.3,0-0.6,0-0.9,0c-0.4,0-0.8-0.2-1.1-0.4
		c-0.3-0.3-0.4-0.7-0.4-1.1C132.7,297.4,132.7,293.4,132.7,293.4z M135.2,254.4c0.9,0,1.6,0.7,1.6,1.6c0,3,0,9.5,0,12.5
		c0,0.9-0.7,1.6-1.6,1.6c-0.3,0-0.6,0-0.9,0c-0.9,0-1.6-0.7-1.6-1.6c0-3,0-9.5,0-12.5c0-0.9,0.7-1.6,1.6-1.6
		C134.6,254.4,134.9,254.4,135.2,254.4L135.2,254.4z M135.2,245.2c0.9,0,1.6,0.7,1.6,1.6c0,0.8,0,1.8,0,2.5c0,0.9-0.7,1.6-1.6,1.6
		c-0.3,0-0.6,0-0.9,0c-0.9,0-1.6-0.7-1.6-1.6c0-0.8,0-1.8,0-2.5c0-0.9,0.7-1.6,1.6-1.6C134.6,245.2,134.9,245.2,135.2,245.2z
		 M132.7,228.3h4v11.8c0,0.4-0.2,0.8-0.4,1.1c-0.3,0.3-0.7,0.4-1.1,0.4c-0.3,0-0.6,0-0.9,0c-0.4,0-0.8-0.2-1.1-0.4
		c-0.3-0.3-0.4-0.7-0.4-1.1C132.7,236.6,132.7,228.3,132.7,228.3z M132.7,214.3V209c0-0.9,0.7-1.6,1.6-1.6c0.3,0,0.6,0,0.9,0
		c0.9,0,1.6,0.7,1.6,1.6c0,2,0,5.3,0,5.3H132.7L132.7,214.3z M134.2,281.3c-0.4,0-0.8-0.2-1.1-0.4s-0.4-0.7-0.4-1.1
		c0-1.4,0-3.3,0-4.7c0-0.4,0.2-0.8,0.4-1.1c0.3-0.3,0.7-0.4,1.1-0.4c0.3,0,0.6,0,0.9,0c0.4,0,0.8,0.2,1.1,0.4
		c0.3,0.3,0.4,0.7,0.4,1.1c0,1.4,0,3.3,0,4.7c0,0.4-0.2,0.8-0.4,1.1c-0.3,0.3-0.7,0.4-1.1,0.4C134.9,281.3,134.6,281.3,134.2,281.3z
		"/>
	<path class="st0" d="M77.5,259.9c-0.7-0.7-1.8-0.9-2.8-0.6c-0.9,0.4-1.6,1.3-1.6,2.3c0,6.9,0,17.7,0,21.1c0,0.7,0.3,1.3,0.7,1.8
		c0.6,0.6,1.3,1.3,2.2,2.2c0.7,0.7,1.8,0.9,2.8,0.6c0.9-0.4,1.6-1.3,1.6-2.3c0-6.9,0-17.7,0-21.1c0-0.7-0.3-1.3-0.7-1.8
		C79.1,261.6,78.3,260.7,77.5,259.9z"/>
	<path class="st0" d="M77.5,290.6c-0.7-0.7-1.8-0.9-2.8-0.6c-0.9,0.4-1.6,1.3-1.6,2.3c0,2.2,0,4.5,0,5.8c0,0.7,0.3,1.3,0.7,1.8
		c0.6,0.6,1.3,1.3,2.2,2.2c0.7,0.7,1.8,0.9,2.8,0.6c0.9-0.4,1.6-1.3,1.6-2.3c0-2.2,0-4.5,0-5.8c0-0.7-0.3-1.3-0.7-1.8
		C79.1,292.2,78.3,291.4,77.5,290.6z"/>
	<path class="st2" d="M214.4,297.2c0,0.9-0.7,1.6-1.6,1.6c-3.4,0-11.2,0-15.1,0c-0.6,0-1.2-0.2-1.6-0.7c-0.4-0.4-0.7-1-0.7-1.6
		c0-1.2,0-2.7,0-3.9s1-2.2,2.2-2.2h1c0.6,0,1.2-0.2,1.6-0.7c0.4-0.4,0.7-1,0.7-1.6c0-0.4,0-0.8,0-1.2c0-0.6,0.2-1.2,0.7-1.6
		c0.4-0.4,1-0.7,1.6-0.7c3.1,0,8.6,0,11.7,0c0.6,0,1.2,0.2,1.6,0.7c0.4,0.4,0.7,1,0.7,1.6c0,0.7,0,1.3,0,2c0,1.2,1,2.2,2.2,2.2
		c0.1,0,0.1,0,0.2,0c1.2,0,2.2,1,2.2,2.2l0,0c0,1.2-1,2.2-2.2,2.2c-1.2,0-2.5,0-3.5,0C215,295.6,214.4,296.3,214.4,297.2
		L214.4,297.2L214.4,297.2z"/>
	<path class="st0" d="M176.8,177.1c0,0.6-0.5,1.1-1.1,1.1c-2.6,0-9.3,0-12.2,0c-0.7,0-1.3-0.6-1.3-1.3c0-0.6,0-1.2,0-1.8
		c0-0.4,0.2-0.8,0.4-1.1c0.3-0.3,0.7-0.4,1.1-0.4l0,0c0.4,0,0.8-0.2,1.1-0.4s0.4-0.7,0.4-1.1c0,0,0,0,0-0.1c0-0.4,0.2-0.8,0.4-1.1
		c0.3-0.3,0.7-0.4,1.1-0.4c1.4,0,3.6,0,5.2,0c0.6,0,1.2,0.2,1.6,0.7c0.4,0.4,0.7,1,0.7,1.6c0,0.1,0,0.2,0,0.3c0,0.3,0.1,0.6,0.3,0.8
		c0.2,0.2,0.5,0.3,0.8,0.3c0.2,0,0.3,0,0.4,0c0.3,0,0.6,0.1,0.8,0.3c0.2,0.2,0.3,0.5,0.3,0.8C176.8,175.7,176.8,176.5,176.8,177.1
		L176.8,177.1z"/>
	<path class="st0" d="M185.9,305.1c-0.6,0-1.2,0.2-1.6,0.7c-0.4,0.4-0.7,1-0.7,1.6v2.9c0,0.6,0.2,1.2,0.7,1.6c0.4,0.4,1,0.7,1.6,0.7
		h2.9c0.6,0,1.2-0.2,1.6-0.7c0.4-0.4,0.7-1,0.7-1.6v-2.9c0-0.6-0.2-1.2-0.7-1.6c-0.4-0.4-1-0.7-1.6-0.7H185.9z"/>
	<path class="st3" d="M81.4,143.6L81.4,143.6c-2.4,0-4.3-0.4-4.8-3.5c-0.6,0.8-1.5,1.4-2.5,1.4c-1.7,0-3-1.4-3-3s1.4-3,3-3
		c1.1,0,2,0.6,2.5,1.4c0.5-3.1,2.4-3.5,4.8-3.5c0.1,0,0.2,0,0.2,0.1c0.1,0.1,0.1,0.1,0.1,0.2c0,1.4,0,8.4,0,9.9
		c0,0.1-0.1,0.1-0.1,0.2C81.5,143.6,81.5,143.6,81.4,143.6L81.4,143.6L81.4,143.6z"/>
	<path class="st2" d="M164.4,275c-0.6,0-1.2,0.2-1.6,0.7c-0.4,0.4-0.7,1-0.7,1.6c0,2.2,0,5.5,0,7.8c0,0.6,0.2,1.2,0.7,1.6
		c0.4,0.4,1,0.7,1.6,0.7c3,0,8.2,0,11.2,0c0.6,0,1.2-0.2,1.6-0.7c0.4-0.4,0.7-1,0.7-1.6c0-2.2,0-5.5,0-7.8c0-0.6-0.2-1.2-0.7-1.6
		c-0.4-0.4-1-0.7-1.6-0.7C172.6,275,167.4,275,164.4,275z"/>
	<path class="st0" d="M197.9,160.6c-1.2,0-2.2,1-2.2,2.2v4.9c0,1.2,1,2.2,2.2,2.2h14.5c1.2,0,2.2-1,2.2-2.2v-4.9
		c0-1.2-1-2.2-2.2-2.2H197.9z"/>
	<path class="st0" d="M153.1,120c-0.5,0-0.9,0.4-0.9,0.9c0,0.4,0,1,0,1.4c0,0.5,0.4,0.9,0.9,0.9c2.6,0,10,0,12.6,0
		c0.5,0,0.9-0.4,0.9-0.9c0-0.4,0-1,0-1.4c0-0.5-0.4-0.9-0.9-0.9C163.1,120,155.7,120,153.1,120z"/>
	<path class="st2" d="M192,190.6c-0.5,0-0.9,0.4-0.9,0.9c0,1.2,0,3.2,0,4.4c0,0.5,0.4,0.9,0.9,0.9c1.9,0,6.5,0,8.5,0
		c0.5,0,0.9-0.4,0.9-0.9c0-1.2,0-3.2,0-4.4c0-0.5-0.4-0.9-0.9-0.9C198.6,190.6,194,190.6,192,190.6z"/>
	<path class="st0" d="M151.7,217.4c0,1.2,1,2.2,2.2,2.2c3.7,0,11.1,0,14.7,0c1.2,0,2.2-1,2.2-2.2c0-1,0-2.2,0-3.2
		c0-1.2-1-2.2-2.2-2.2c-1.2,0-2.5,0-3.5,0c-0.3,0-0.7,0.1-0.9,0.4c-0.2,0.2-0.4,0.6-0.4,0.9l0,0c0,0.3-0.1,0.7-0.4,0.9
		c-0.2,0.2-0.6,0.4-0.9,0.4c-2,0-6.1,0-8.6,0c-1.2,0-2.2,1-2.2,2.2C151.7,216.9,151.7,217.2,151.7,217.4z"/>
	<path class="st3" d="M152.5,128.9c0-1.2-1-2.2-2.2-2.2c-3.3,0-9.4,0-12.6,0c-0.6,0-1.2,0.2-1.6,0.7c-0.4,0.4-0.7,1-0.7,1.6v4.2
		c0,0.6,0.2,1.2,0.7,1.6c0.4,0.4,1,0.7,1.6,0.7c1.4,0,3,0,4.3,0c0.8,0,1.4-0.7,1.4-1.4l0,0c0-0.4,0.2-0.8,0.4-1.1
		c0.3-0.3,0.7-0.4,1.1-0.4c1.4,0,3.8,0,5.4,0c1.2,0,2.2-1,2.2-2.2C152.5,129.8,152.5,129.3,152.5,128.9L152.5,128.9z"/>
	<path class="st2" d="M171.4,141c0,1.2,1,2.2,2.2,2.2c4.1,0,12.7,0,16.8,0c1.2,0,2.2-1,2.2-2.2c0-1.8,0-4.5,0-6.3
		c0-1.2-1-2.2-2.2-2.2c-2.9,0-7.9,0-10.6,0c-1,0-1.8,0.8-1.8,1.8l0,0c0,1-0.8,1.8-1.8,1.8h-2.6c-0.6,0-1.2,0.2-1.6,0.7
		c-0.4,0.4-0.7,1-0.7,1.6C171.4,139.1,171.4,140.1,171.4,141z"/>
	<path class="st2" d="M177.2,241c-0.6,0-1.2,0.2-1.6,0.7c-0.4,0.4-0.7,1-0.7,1.6c0,1.9,0,4.5,0,6.4c0,1.2,1,2.2,2.2,2.2
		c4.9,0,16.6,0,21.4,0c1.2,0,2.2-1,2.2-2.2c0-1.4,0-3.1,0-4.4c0-1.2-1-2.2-2.2-2.2c-0.7,0-1.4,0-1.9,0c-0.4,0-0.7,0.2-1,0.4
		c-0.3,0.3-0.4,0.6-0.4,1l0,0c0,0.4-0.2,0.7-0.4,1c-0.3,0.3-0.6,0.4-1,0.4c-2.2,0-6.3,0-8.8,0c-0.6,0-1.2-0.2-1.6-0.7
		c-0.4-0.4-0.7-1-0.7-1.6c0-0.1,0-0.3,0-0.4c0-0.6-0.2-1.2-0.7-1.6c-0.4-0.4-1-0.7-1.6-0.7C179.5,241,178.3,241,177.2,241L177.2,241
		z"/>
	<path class="st0" d="M192.9,249.3c-1.2,0-2.2,1-2.2,2.2c0,0.8,0,1.6,0,2.4c0,1.2,1,2.2,2.2,2.2c3.4,0,10,0,13.5,0
		c0.7,0,1.3-0.3,1.7-0.7c0.4-0.4,0.7-1.1,0.7-1.7s0-1.3,0-2c0-0.7-0.3-1.3-0.7-1.7c-0.4-0.4-1.1-0.7-1.7-0.7
		C202.9,249.3,196.4,249.3,192.9,249.3L192.9,249.3z"/>
	<path class="st0" d="M191.5,101.4c-1.2,0-2.2,1-2.2,2.2v4.3c0,1.2,1,2.2,2.2,2.2h4.3c1.2,0,2.2-1,2.2-2.2v-4.3c0-1.2-1-2.2-2.2-2.2
		H191.5z"/>
	<path class="st3" d="M175.8,113.7c-0.4,0-0.7,0.3-0.7,0.7v2.1c0,0.4,0.3,0.7,0.7,0.7h2.1c0.4,0,0.7-0.3,0.7-0.7v-2.1
		c0-0.4-0.3-0.7-0.7-0.7H175.8z"/>
	<path class="st3" d="M166.3,190.1c-0.4,0-0.7,0.3-0.7,0.7v2.1c0,0.4,0.3,0.7,0.7,0.7h2.1c0.4,0,0.7-0.3,0.7-0.7v-2.1
		c0-0.4-0.3-0.7-0.7-0.7H166.3z"/>
	<path class="st3" d="M217.9,237.9c-0.4,0-0.7,0.3-0.7,0.7c0,0.3,0,0.6,0,0.9c0,0.4,0.3,0.7,0.7,0.7c0.3,0,0.6,0,0.9,0
		c0.4,0,0.7-0.3,0.7-0.7c0-0.3,0-0.6,0-0.9c0-0.4-0.3-0.7-0.7-0.7H217.9z"/>
	<path class="st3" d="M210.4,110.1c-0.4,0-0.7,0.3-0.7,0.7c0,0.3,0,0.6,0,0.9c0,0.4,0.3,0.7,0.7,0.7c0.3,0,0.6,0,0.9,0
		c0.4,0,0.7-0.3,0.7-0.7c0-0.3,0-0.6,0-0.9c0-0.4-0.3-0.7-0.7-0.7H210.4z"/>
	<path class="st3" d="M222.5,158.1c-0.4,0-0.7,0.3-0.7,0.7c0,0.3,0,0.6,0,0.9c0,0.4,0.3,0.7,0.7,0.7c0.3,0,0.6,0,0.9,0
		c0.4,0,0.7-0.3,0.7-0.7c0-0.3,0-0.6,0-0.9c0-0.4-0.3-0.7-0.7-0.7H222.5z"/>
	<path class="st2" d="M203.3,154.7c-0.4,0-0.7,0.3-0.7,0.7c0,0.3,0,0.6,0,0.9c0,0.4,0.3,0.7,0.7,0.7c0.3,0,0.6,0,0.9,0
		c0.4,0,0.7-0.3,0.7-0.7c0-0.3,0-0.6,0-0.9c0-0.4-0.3-0.7-0.7-0.7H203.3z"/>
	<path class="st3" d="M157.6,133c-0.4,0-0.7,0.3-0.7,0.7c0,0.3,0,0.6,0,0.9c0,0.4,0.3,0.7,0.7,0.7c0.3,0,0.6,0,0.9,0
		c0.4,0,0.7-0.3,0.7-0.7c0-0.3,0-0.6,0-0.9c0-0.4-0.3-0.7-0.7-0.7H157.6z"/>
	<path class="st3" d="M166.7,257.6c-0.4,0-0.7,0.3-0.7,0.7c0,0.3,0,0.6,0,0.9c0,0.4,0.3,0.7,0.7,0.7c0.3,0,0.6,0,0.9,0
		c0.4,0,0.7-0.3,0.7-0.7c0-0.3,0-0.6,0-0.9c0-0.4-0.3-0.7-0.7-0.7H166.7z"/>
	<path class="st0" d="M187.7,284.4c-0.4,0-0.7,0.3-0.7,0.7c0,0.3,0,0.6,0,0.9c0,0.4,0.3,0.7,0.7,0.7c0.3,0,0.6,0,0.9,0
		c0.4,0,0.7-0.3,0.7-0.7c0-0.3,0-0.6,0-0.9c0-0.4-0.3-0.7-0.7-0.7H187.7z"/>
	<path class="st0" d="M207.2,270.8c-0.4,0-0.7,0.3-0.7,0.7c0,0.3,0,0.6,0,0.9c0,0.4,0.3,0.7,0.7,0.7c0.3,0,0.6,0,0.9,0
		c0.4,0,0.7-0.3,0.7-0.7c0-0.3,0-0.6,0-0.9c0-0.4-0.3-0.7-0.7-0.7H207.2z"/>
	<path class="st0" d="M223.9,233.2c-0.4,0-0.7,0.3-0.7,0.7c0,0.3,0,0.6,0,0.9c0,0.4,0.3,0.7,0.7,0.7c0.3,0,0.6,0,0.9,0
		c0.4,0,0.7-0.3,0.7-0.7c0-0.3,0-0.6,0-0.9c0-0.4-0.3-0.7-0.7-0.7H223.9z"/>
	<path class="st0" d="M143.5,114.6c-0.4,0-0.7,0.3-0.7,0.7c0,0.3,0,0.6,0,0.9c0,0.4,0.3,0.7,0.7,0.7c0.3,0,0.6,0,0.9,0
		c0.4,0,0.7-0.3,0.7-0.7c0-0.3,0-0.6,0-0.9c0-0.4-0.3-0.7-0.7-0.7H143.5z"/>
	<path class="st0" d="M187.7,198c-0.4,0-0.7,0.3-0.7,0.7c0,0.3,0,0.6,0,0.9c0,0.4,0.3,0.7,0.7,0.7c0.3,0,0.6,0,0.9,0
		c0.4,0,0.7-0.3,0.7-0.7c0-0.3,0-0.6,0-0.9c0-0.4-0.3-0.7-0.7-0.7H187.7z"/>
	<path class="st0" d="M136.4,217c-0.4,0-0.7,0.3-0.7,0.7c0,0.3,0,0.6,0,0.9c0,0.4,0.3,0.7,0.7,0.7c0.3,0,0.6,0,0.9,0
		c0.4,0,0.7-0.3,0.7-0.7c0-0.3,0-0.6,0-0.9c0-0.4-0.3-0.7-0.7-0.7H136.4z"/>
	<path class="st0" d="M151.7,274.7c-0.4,0-0.7,0.3-0.7,0.7c0,0.3,0,0.6,0,0.9c0,0.4,0.3,0.7,0.7,0.7c0.3,0,0.6,0,0.9,0
		c0.4,0,0.7-0.3,0.7-0.7c0-0.3,0-0.6,0-0.9c0-0.4-0.3-0.7-0.7-0.7H151.7z"/>
	<path class="st2" d="M210.7,301.7c-0.4,0-0.7,0.3-0.7,0.7c0,0.3,0,0.6,0,0.9c0,0.4,0.3,0.7,0.7,0.7c0.3,0,0.6,0,0.9,0
		c0.4,0,0.7-0.3,0.7-0.7c0-0.3,0-0.6,0-0.9c0-0.4-0.3-0.7-0.7-0.7H210.7z"/>
	<path class="st2" d="M219.7,204.1c-0.4,0-0.7,0.3-0.7,0.7c0,0.3,0,0.6,0,0.9c0,0.4,0.3,0.7,0.7,0.7c0.3,0,0.6,0,0.9,0
		c0.4,0,0.7-0.3,0.7-0.7c0-0.3,0-0.6,0-0.9c0-0.4-0.3-0.7-0.7-0.7H219.7z"/>
	<path class="st2" d="M172.1,186.6c-0.4,0-0.7,0.3-0.7,0.7c0,0.3,0,0.6,0,0.9c0,0.4,0.3,0.7,0.7,0.7c0.3,0,0.6,0,0.9,0
		c0.4,0,0.7-0.3,0.7-0.7c0-0.3,0-0.6,0-0.9c0-0.4-0.3-0.7-0.7-0.7H172.1z"/>
	<path class="st0" d="M157.6,162.3c-0.4,0-0.7,0.3-0.7,0.7v2.1c0,0.4,0.3,0.7,0.7,0.7h2.1c0.4,0,0.7-0.3,0.7-0.7V163
		c0-0.4-0.3-0.7-0.7-0.7H157.6z"/>
	<path class="st0" d="M207.1,208.4c-0.4,0-0.7,0.3-0.7,0.7v2.1c0,0.4,0.3,0.7,0.7,0.7h2.1c0.4,0,0.7-0.3,0.7-0.7v-2.1
		c0-0.4-0.3-0.7-0.7-0.7H207.1z"/>
	<path class="st0" d="M202.5,127.4c-0.4,0-0.7,0.3-0.7,0.7v2.1c0,0.4,0.3,0.7,0.7,0.7h2.1c0.4,0,0.7-0.3,0.7-0.7v-2.1
		c0-0.4-0.3-0.7-0.7-0.7H202.5z"/>
	<path class="st3" d="M181.2,289c-0.4,0-0.7,0.3-0.7,0.7v2.1c0,0.4,0.3,0.7,0.7,0.7h2.1c0.4,0,0.7-0.3,0.7-0.7v-2.1
		c0-0.4-0.3-0.7-0.7-0.7H181.2z"/>
	<path class="st3" d="M145.4,200.6c-0.4,0-0.7,0.3-0.7,0.7v2.1c0,0.4,0.3,0.7,0.7,0.7h2.1c0.4,0,0.7-0.3,0.7-0.7v-2.1
		c0-0.4-0.3-0.7-0.7-0.7H145.4z"/>
	<path class="st2" d="M159.6,254.1c-0.4,0-0.7,0.3-0.7,0.7v2.1c0,0.4,0.3,0.7,0.7,0.7h2.1c0.4,0,0.7-0.3,0.7-0.7v-2.1
		c0-0.4-0.3-0.7-0.7-0.7L159.6,254.1L159.6,254.1z"/>
	<path class="st2" d="M208.1,151.3c-0.4,0-0.7,0.3-0.7,0.7v2.1c0,0.4,0.3,0.7,0.7,0.7h2.1c0.4,0,0.7-0.3,0.7-0.7V152
		c0-0.4-0.3-0.7-0.7-0.7H208.1z"/>
	<path class="st3" d="M174.4,219.6c-0.4,0-0.7,0.3-0.7,0.7c0,0.6,0,1.5,0,2.1c0,0.4,0.3,0.7,0.7,0.7c1.2,0,3.6,0,4.8,0
		c0.4,0,0.7-0.3,0.7-0.7c0-0.6,0-1.5,0-2.1c0-0.4-0.3-0.7-0.7-0.7C178,219.6,175.6,219.6,174.4,219.6z"/>
	<path class="st2" d="M147.5,168.3c-0.4,0-0.7,0.3-0.7,0.7c0,0.6,0,1.5,0,2.1c0,0.4,0.3,0.7,0.7,0.7c1.2,0,3.6,0,4.8,0
		c0.4,0,0.7-0.3,0.7-0.7c0-0.6,0-1.5,0-2.1c0-0.4-0.3-0.7-0.7-0.7C151.1,168.3,148.7,168.3,147.5,168.3z"/>
	<path class="st3" d="M140.8,219.8c-0.4,0-0.7,0.3-0.7,0.7c0,0.6,0,1.5,0,2.1c0,0.4,0.3,0.7,0.7,0.7c1.2,0,3.6,0,4.8,0
		c0.4,0,0.7-0.3,0.7-0.7c0-0.6,0-1.5,0-2.1c0-0.4-0.3-0.7-0.7-0.7C144.4,219.8,142,219.8,140.8,219.8z"/>
	<path class="st3" d="M201,316c0.4,0,0.7-0.3,0.7-0.7c0-0.6,0-1.5,0-2.1c0-0.4-0.3-0.7-0.7-0.7c-1.2,0-3.6,0-4.8,0
		c-0.4,0-0.7,0.3-0.7,0.7c0,0.6,0,1.5,0,2.1c0,0.4,0.3,0.7,0.7,0.7C197.4,316,199.8,316,201,316z"/>
	<path class="st0" d="M151,281.7h-4.8c-0.4,0-0.7,0.3-0.7,0.7c0,0.6,0,1.5,0,2.1c0,0.4,0.3,0.7,0.7,0.7c0,0,0.8,0,1.4,0
		c0.3,0,0.7,0.3,0.7,0.7c0,0.6,0,1.4,0,1.4c0,0.4,0.3,0.7,0.7,0.7c0.6,0,1.5,0,2.1,0c0.4,0,0.7-0.3,0.7-0.7v-4.8l0,0l0,0l0,0l0,0
		l0,0l0,0l0,0l0,0l0,0l0,0l0,0l0,0l0,0l0,0l0,0l0,0l0,0l0,0l0,0l0,0l0,0l0,0l0,0l0,0l0,0l0,0l0,0l0,0l0,0l0,0l0,0l0,0l0,0l0,0l0,0
		l0,0l0,0l0,0l0,0l0,0l0,0l0,0l0,0l0,0l0,0l0,0l0,0l0,0l0,0l0,0l0,0l0,0l0,0l0,0l0,0l0,0l0,0l0,0l0,0l0,0L151,281.7L151,281.7
		L151,281.7L151,281.7L151,281.7z"/>
	<path class="st2" d="M211.4,179.8h-4.8c-0.4,0-0.7,0.3-0.7,0.7c0,0.6,0,1.5,0,2.1c0,0.4,0.3,0.7,0.7,0.7c0,0,0.8,0,1.4,0
		c0.3,0,0.7,0.3,0.7,0.7c0,0.6,0,1.4,0,1.4c0,0.4,0.3,0.7,0.7,0.7c0.6,0,1.5,0,2.1,0c0.4,0,0.7-0.3,0.7-0.7v-4.8l0,0l0,0l0,0l0,0
		l0,0l0,0l0,0l0,0l0,0l0,0l0,0l0,0l0,0l0,0l0,0l0,0l0,0l0,0l0,0l0,0l0,0l0,0l0,0l0,0l0,0l0,0l0,0l0,0l0,0l0,0l0,0l0,0l0,0l0,0l0,0
		l0,0l0,0l0,0l0,0l0,0l0,0l0,0l0,0l0,0l0,0l0,0l0,0l0,0l0,0l0,0l0,0l0,0l0,0l0,0l0,0l0,0l0,0l0,0l0,0l0,0L211.4,179.8L211.4,179.8
		L211.4,179.8L211.4,179.8L211.4,179.8z"/>
	<path class="st3" d="M200,271.2v-4.8c0-0.4-0.3-0.7-0.7-0.7c-0.6,0-1.5,0-2.1,0c-0.4,0-0.7,0.3-0.7,0.7c0,0,0,0.8,0,1.4
		c0,0.3-0.3,0.7-0.7,0.7c-0.6,0-1.4,0-1.4,0c-0.4,0-0.7,0.3-0.7,0.7c0,0.6,0,1.5,0,2.1c0,0.4,0.3,0.7,0.7,0.7h4.8l0,0l0,0l0,0l0,0
		l0,0l0,0l0,0l0,0l0,0l0,0l0,0l0,0l0,0l0,0l0,0l0,0l0,0l0,0l0,0l0,0l0,0l0,0l0,0l0,0l0,0l0,0l0,0l0,0l0,0l0,0l0,0l0,0l0,0l0,0l0,0
		l0,0l0,0l0,0l0,0l0,0l0,0l0,0l0,0l0,0l0,0l0,0l0,0l0,0l0,0l0,0l0,0l0,0l0,0l0,0l0,0l0,0l0,0l0,0l0,0l0,0L200,271.2L200,271.2
		L200,271.2L200,271.2L200,271.2z"/>
	<path class="st2" d="M198.9,263.9c-0.4,0-0.7,0.3-0.7,0.7v2.1c0,0.4,0.3,0.7,0.7,0.7h2.1c0.4,0,0.7-0.3,0.7-0.7v-2.1
		c0-0.4-0.3-0.7-0.7-0.7H198.9z"/>
	<path class="st0" d="M176,115.5c-0.2,0.1-0.5,0.2-0.8,0c-4.1-2.5-5.2-8.7-5.4-12c-0.2-3.3-0.6-9.6,1.9-10.5
		c1.8-0.7,3.2,1.7,3.9,4.8c0.2,0.7,1.2,0.8,1.5,0.1c1.9-5.4,5.4-17.4,10.6-17.1c3.7,0.2,8.1,8.2,8.8,12.7
		c0.7,4.6-7.3,17.5-12.7,20.8C183.6,114.3,176,115.5,176,115.5z"/>
	<path class="st0" d="M19.8,223.6c0.3-0.1,0.6-0.1,0.8,0.1c3.5,3.3,3.4,9.5,3,12.8c-0.4,3.2-0.7,9.4-3.9,10
		c-1.9,0.4-2.8-2.3-2.9-5.5c0-0.8-0.9-0.9-1.4-0.4c-3.9,3.9-0.9,10.5-4,12.9C7.8,256.4-0.5,243.4,0,238.5c0.6-5,4.5-9.2,6-10.7
		c2.3-2.5,5.7-4,8.9-4.6L19.8,223.6z"/>
	<path class="st1" d="M81.4,306.9c0,0-8.6,8.3-11.4,15.8c-2.1,5.5,0.1,11.2,2.4,14.9c0.7,1.1,1.8,1.7,3.2,1.8c1.3,0,2.5-0.5,3.3-1.6
		c3.7-5.1,9.9-13.7,13.3-18.3c1.2-1.7,0.9-4.2-0.9-5.4C87.3,311.2,81.4,306.9,81.4,306.9L81.4,306.9z"/>
	<path class="st1" d="M96,327.5c0,0,10.1,6.3,14.6,13c3.3,5,2.3,10.9,0.9,15c-0.4,1.2-1.4,2.1-2.7,2.5c-1.2,0.3-2.6,0-3.5-0.8
		c-4.7-4.2-12.6-11.3-16.9-15c-1.6-1.4-1.8-3.9-0.3-5.5C91.1,332.9,96,327.5,96,327.5L96,327.5z"/>
	<path class="st2" d="M44.8,277.5c0.4-10.5,8.2-24.5,17.9-31c24.2-16.1,39.9-16.9,39.9-16.9l32,1.5c2.1,5.9,4.3,13.1,5.5,20.6
		c3.6,21.9,3.3,31.7,0.8,42.2c-5.2,22.1-21.9,41.5-27.4,47.5c-1,1.1-2.6,1.2-3.8,0.3l-14.3-11.3c-1.2-1-1.4-2.7-0.4-3.9
		c4.3-5.2,14.8-19.4,19.3-36c2.6-9.8,1.1-20.2-1-27.6c-0.4-1.5-1.7-2.5-3.3-2.6l-15.2-0.7c-1.4-0.1-2.8,0.2-4,0.9
		c-7.7,4-20.8,12.2-21.2,22c-0.4,11,8.2,19.4,12.4,22.9c1.2,1,1.3,2.7,0.4,3.9l-10.7,13.6c-0.9,1.1-2.5,1.2-3.5,0.3
		C62.2,317.5,44,299.1,44.8,277.5z"/>
	<path class="st1" d="M88.9,242.2c0,0-2,1.9-5.2,3.4c-1.7,0.8-3.6,1.4-5.8,1.6c-1.1,0-2.3,0-3.5-0.2c-2.4-0.4-4.9-1.6-7.6-3.8
		c-0.4-0.4-1.1-0.4-1.6,0.1c-0.4,0.4-0.4,1.1,0.1,1.6c2.9,2.8,5.7,4.3,8.5,5c1.5,0.4,3,0.5,4.4,0.3c2.6-0.2,4.9-1,6.8-2.1
		c3.4-1.9,5.6-4.3,5.6-4.3c0.4-0.4,0.4-1.1,0-1.5C90.1,241.7,89.4,241.8,88.9,242.2z"/>
	<path class="st1" d="M122.6,242.7c0,0,0.7,2.7,2.5,5.7c1,1.6,2.3,3.2,4,4.5c0.9,0.6,1.9,1.3,3,1.8c2.2,1,5,1.4,8.5,0.9
		c0.6-0.1,1.2,0.3,1.3,0.9c0.1,0.6-0.3,1.2-0.9,1.3c-4,0.8-7.2,0.5-9.9-0.4c-1.4-0.5-2.8-1.2-3.8-2.1c-2.1-1.6-3.6-3.6-4.6-5.5
		c-1.9-3.4-2.3-6.6-2.3-6.6c-0.1-0.6,0.3-1.2,0.9-1.3C121.9,241.7,122.4,242.2,122.6,242.7z"/>
	<path class="st1" d="M93.9,258.6c0.8-0.5,1.6-1,2.4-1.4c3.2-1.7,6-2.7,6-2.7c0.6-0.3,1.3,0.2,1.5,0.8c0.3,0.7,0.1,1.4-0.4,1.7
		c0,0-2.1,1.1-4.6,2.8l-6.1-0.3c0,0,0,0,0,0C93.1,259.1,93.5,258.9,93.9,258.6z"/>
	<path class="st1" d="M121.2,261.1c0.2,0.7,0.4,1.5,0.6,2.3c0.2,0.6-0.2,1.3-0.9,1.4c-0.6,0.2-1.3-0.2-1.4-0.8
		c-0.2-0.7-0.4-1.4-0.6-2.1c-0.2-0.6,0.2-1.2,0.8-1.4C120.3,260.1,121,260.5,121.2,261.1z"/>
	<path class="st1" d="M122.8,267.9l0.3,2.3c0.1,0.6-0.4,1.2-1.1,1.3c-0.7,0.1-1.2-0.4-1.3-1l-0.3-2.2c-0.1-0.6,0.3-1.2,1-1.3
		C122.1,266.9,122.7,267.3,122.8,267.9z"/>
	<path class="st1" d="M123.6,274.9c0,0.8,0.1,1.6,0.1,2.3c0,0.6-0.5,1.2-1.2,1.2c-0.7,0-1.2-0.5-1.2-1.1c0-0.7,0-1.5-0.1-2.2
		c0-0.6,0.5-1.2,1.1-1.2S123.5,274.2,123.6,274.9z"/>
	<path class="st1" d="M123.5,281.9l-0.1,1.2l-0.1,1.2c-0.1,0.6-0.6,1.1-1.3,1c-0.7-0.1-1.1-0.6-1.1-1.3l0.1-1.1l0.1-1.1
		c0-0.6,0.6-1.1,1.2-1.1S123.6,281.2,123.5,281.9z"/>
	<path class="st1" d="M122.7,288.8c-0.1,0.8-0.2,1.5-0.4,2.3c-0.1,0.6-0.8,1-1.4,0.9c-0.6-0.1-1.1-0.7-0.9-1.4
		c0.2-0.7,0.3-1.5,0.4-2.2c0.1-0.6,0.7-1,1.4-0.9C122.4,287.6,122.8,288.2,122.7,288.8z"/>
	<path class="st1" d="M121.2,295.6c-0.2,0.8-0.5,1.5-0.7,2.2c-0.2,0.6-0.9,0.9-1.5,0.7c-0.6-0.2-0.9-0.9-0.7-1.5
		c0.2-0.7,0.5-1.4,0.7-2.1c0.2-0.6,0.8-0.9,1.5-0.8C121,294.4,121.4,295,121.2,295.6z"/>
	<path class="st1" d="M118.9,302.2c-0.3,0.7-0.6,1.4-0.9,2.1c-0.3,0.6-1,0.8-1.6,0.5c-0.6-0.3-0.9-1-0.6-1.5
		c0.3-0.7,0.6-1.4,0.9-2.1c0.2-0.6,0.9-0.8,1.5-0.6C118.8,301,119.1,301.6,118.9,302.2z"/>
	<path class="st1" d="M115.9,308.5c-0.3,0.7-0.7,1.4-1.1,2c-0.3,0.6-1,0.8-1.6,0.4c-0.6-0.3-0.8-1-0.5-1.6c0.4-0.7,0.7-1.3,1-2
		c0.3-0.6,1-0.8,1.6-0.5C116,307.3,116.2,307.9,115.9,308.5z"/>
	<path class="st1" d="M112.6,314.6l-1.2,2c-0.3,0.6-1.1,0.7-1.6,0.4c-0.6-0.4-0.7-1.1-0.4-1.6l1.2-1.9c0.3-0.5,1-0.7,1.6-0.4
		C112.7,313.3,112.9,314.1,112.6,314.6z"/>
	<path class="st1" d="M108.9,320.5c-0.4,0.6-0.8,1.3-1.3,1.9c-0.4,0.5-1.1,0.6-1.6,0.3c-0.5-0.4-0.7-1.1-0.3-1.6
		c0.4-0.6,0.8-1.2,1.3-1.9c0.3-0.5,1.1-0.7,1.6-0.3C109.1,319.2,109.3,320,108.9,320.5z"/>
	<path class="st1" d="M105,326.2l-1.4,1.8c-0.4,0.5-1.1,0.6-1.6,0.2c-0.5-0.4-0.6-1.1-0.2-1.6l1.4-1.8c0.4-0.5,1.1-0.6,1.6-0.2
		C105.2,324.9,105.3,325.7,105,326.2z"/>
	<path class="st1" d="M82.1,259.3c-0.7,0.4-1.4,0.7-2,1.1c-0.6,0.3-1.3,0.2-1.6-0.4c-0.4-0.6-0.2-1.3,0.4-1.6
		c0.7-0.4,1.4-0.8,2.1-1.2c0.6-0.3,1.3-0.1,1.6,0.5C82.9,258.3,82.7,259,82.1,259.3z"/>
	<path class="st1" d="M76.2,263c-0.6,0.5-1.2,0.9-1.8,1.4c-0.5,0.4-1.2,0.3-1.7-0.2c-0.4-0.5-0.4-1.3,0.2-1.7c0.6-0.5,1.3-1,1.9-1.5
		c0.6-0.4,1.3-0.3,1.7,0.3C76.9,261.9,76.7,262.6,76.2,263z"/>
	<path class="st1" d="M71,267.6c-0.5,0.6-1,1.1-1.5,1.7c-0.4,0.5-1.1,0.6-1.7,0.2c-0.5-0.4-0.6-1.1-0.2-1.7c0.5-0.6,1.1-1.3,1.6-1.9
		c0.5-0.5,1.2-0.5,1.7,0C71.4,266.4,71.4,267.1,71,267.6z"/>
	<path class="st1" d="M66.9,273.1l-0.5,1l-0.4,1c-0.2,0.6-0.9,0.9-1.5,0.7c-0.6-0.2-0.9-0.9-0.7-1.6l0.5-1.2l0.6-1.1
		c0.3-0.6,1.1-0.8,1.6-0.5C67,271.8,67.2,272.5,66.9,273.1z"/>
	<path class="st1" d="M64.8,279.5c-0.1,0.7-0.2,1.5-0.2,2.3c0,0.3-0.2,0.6-0.4,0.8c-0.2,0.2-0.5,0.3-0.8,0.3c-0.3,0-0.6-0.1-0.8-0.4
		c-0.2-0.2-0.4-0.5-0.3-0.9c0.1-0.8,0.1-1.7,0.3-2.5c0.1-0.7,0.8-1.1,1.4-1C64.5,278.2,65,278.8,64.8,279.5z"/>
	<path class="st1" d="M64.7,286.3c0.1,0.8,0.3,1.5,0.4,2.2c0.1,0.6-0.2,1.2-0.9,1.4c-0.6,0.2-1.3-0.2-1.5-0.9
		c-0.1-0.8-0.3-1.6-0.4-2.5c-0.1-0.7,0.4-1.3,1.1-1.3C64.1,285.2,64.7,285.6,64.7,286.3z"/>
	<path class="st1" d="M66.5,292.9c0.3,0.7,0.6,1.4,0.9,2.1c0.3,0.6,0.1,1.3-0.5,1.6c-0.6,0.3-1.3,0.1-1.6-0.5
		c-0.3-0.8-0.7-1.5-1-2.3c-0.2-0.7,0.1-1.3,0.7-1.6C65.6,292,66.3,292.3,66.5,292.9z"/>
	<path class="st1" d="M69.8,298.9c0.5,0.6,0.9,1.3,1.4,1.9c0.4,0.5,0.3,1.2-0.2,1.7c-0.5,0.4-1.3,0.3-1.7-0.2c-0.5-0.7-1-1.3-1.5-2
		c-0.4-0.6-0.2-1.3,0.3-1.7C68.7,298.2,69.4,298.4,69.8,298.9z"/>
	<path class="st1" d="M74.2,304.3c0.6,0.5,1.1,1.1,1.7,1.6c0.5,0.4,0.5,1.2,0.1,1.7s-1.2,0.6-1.7,0.1c-0.6-0.5-1.2-1.1-1.8-1.7
		c-0.5-0.5-0.5-1.3,0-1.7C73,303.8,73.7,303.8,74.2,304.3z"/>
	<path class="st1" d="M9.6,217.3c8.1-23.8,27.3-42.5,51.8-52.6c5.4-2.2,14.6-5.2,22.8-6.6v0c10-1.8,18.1-3.1,30-3.7
		c11.5-0.5,22.7-3.7,31.5-11c3.7-3,7.1-6.7,9.9-11.3c7.6-12.6,9.9-18.6,11-22.5c1.1-3.6,2.1-3.8,5.4-2.7c3.2,1,10.1,3.5,12.8,5.1
		c2.7,1.6,2.2,3.5,1.4,7.8c-0.7,4.2-8.9,43.3-44.1,61.7c0.3,2.6,0.5,5.4,0.8,8.5c0,0,1.5,22.8-1.1,49.3c-0.2,2.1-1.8,3.8-3.9,4
		c-10,1.2-38.5,4.3-64.4-3c-1.8-0.5-2.7-2.5-2.6-4.4c0.6-8.2,0.5-30.1-1.2-41.3c-6.3,0.8-13.8,3-22.7,9.6
		c-11.7,8.7-15.3,16.4-19.7,23.6c-1.9,3.1-4.4,4-8.6,2.4c-3.6-1.3-3.8-1.4-6.6-3C7.2,224.3,8.5,220.7,9.6,217.3z"/>
	<path class="st3" d="M70,184.9c0,0,0.3,1,0.6,2.5c0.1,0.7,0.3,1.6,0.3,2.5c0,0.5,0.1,1,0,1.5c0,1-0.1,1.9-0.2,2.5
		c-0.1,0.7-0.2,1.1-0.2,1.1c0,0.4-0.5,0.6-1.1,0.5c-0.6-0.1-1-0.4-1-0.6c0,0,0-0.4-0.1-1c0-0.6-0.1-1.4-0.2-2.3
		c-0.1-0.5-0.1-0.9-0.1-1.4c-0.1-0.8-0.1-1.7-0.1-2.4c-0.1-1.4-0.1-2.4-0.1-2.4c-0.1-0.3,0.4-0.6,0.9-0.7
		C69.4,184.3,70,184.6,70,184.9z"/>
	<path class="st3" d="M139.3,170.4c0,0,0.8,1,1.8,2.5c0.5,0.8,1,1.7,1.5,2.7c0.2,0.6,0.5,1.2,0.6,1.8c0.3,1.1,0.6,2.2,0.7,3
		c0.1,0.8,0.1,1.3,0.1,1.3c0.1,0.4-0.4,0.8-0.9,0.8c-0.6,0-1.1-0.2-1.1-0.5c0,0-0.1-0.4-0.3-1.1c-0.2-0.7-0.5-1.6-1-2.6
		c-0.2-0.5-0.5-1-0.7-1.6c-0.4-0.9-0.8-1.8-1.2-2.6c-0.7-1.5-1.3-2.6-1.3-2.6c-0.2-0.3,0-0.8,0.4-1.2
		C138.5,170.1,139.1,170.1,139.3,170.4z"/>
	<path class="st2" d="M38,200.7c-2.7-1.7-5.1-4.8-6.6-8.7c-0.9-2.2-1.3-4.6-1.4-6.7c1.1-1.1,2.4-2.4,3.9-3.6c0,0.1-0.1,0.3-0.1,0.4
		c-0.7,2.3-0.3,5.5,0.9,8.6c1.2,3.1,3.1,5.7,5.2,7c2.4,1.5,4.6,4.1,6.1,7.3c-1,0.8-1.9,1.5-2.8,2.3C41.9,204.4,40,201.9,38,200.7z"
		/>
	<path class="st2" d="M53.6,199.9c-0.9-1.5-2-2.6-3.2-3.3c-2.9-1.9-5.5-5.2-7.1-9.3c-1.6-4-2-8.3-1.1-11.6c0.1-0.2,0.1-0.4,0.1-0.7
		c2-1.4,3.9-2.6,5.9-3.7c0.3,2.2,0.2,4.3-0.3,6.1c-0.5,2.1-0.2,5,0.9,7.9c1.1,2.9,2.8,5.3,4.7,6.4c2,1.3,3.9,3.3,5.4,5.9
		C57.3,198.1,55.5,198.9,53.6,199.9z"/>
	<path class="st2" d="M149.1,140.4c1.7,1.2,3.4,2.8,4.8,4.7c2.6,3.5,4.1,7.5,4.1,10.9c0,2.1,1.1,4.9,2.9,7.4c0.6,0.8,1.3,1.6,2,2.3
		c-1.3,1.5-2.7,2.9-4.2,4.1c-0.9-0.9-1.8-1.8-2.6-2.9c-2.6-3.5-4.1-7.5-4.1-10.9c0-2.1-1.1-4.9-2.9-7.4c-1.4-1.8-3-3.3-4.7-4.2
		c0.5-0.3,0.9-0.7,1.3-1.1C146.9,142.5,148,141.5,149.1,140.4z"/>
	<path class="st2" d="M171,155.6c-0.7,1-1.4,2-2.1,3c-0.2-0.2-0.4-0.5-0.6-0.7c-2.4-3.3-3.8-7-3.8-10.2c0-2.4-1.2-5.4-3.1-8.1
		c-2-2.7-4.5-4.7-6.9-5.3c-0.1,0-0.1,0-0.2-0.1c0.4-0.6,0.9-1.3,1.3-2c0,0,0,0,0-0.1c0,0,0,0,0,0c0.2-0.3,0.4-0.7,0.6-1
		c2.8,1.1,5.7,3.3,7.9,6.4c2.4,3.3,3.8,7,3.8,10.2C168,150,169.1,153,171,155.6z"/>
	<path class="st0" d="M133.2,113.7c0-0.9-0.4-1.6-0.9-2.3c-0.6-0.6-1.4-0.9-2.3-0.9h-7.9c-0.9,0-1.6,0.4-2.3,0.9
		c-0.6,0.6-0.9,1.4-0.9,2.3v7.9c0,0.9,0.4,1.6,0.9,2.3c0.6,0.6,1.4,0.9,2.3,0.9h7.9c0.9,0,1.6-0.4,2.3-0.9c0.6-0.6,0.9-1.4,0.9-2.3
		L133.2,113.7L133.2,113.7z"/>
	<path class="st0" d="M90.8,150.3c-8.1-5.2-13.6-15.9-15.2-24.9c-2.3-12.8-1.2-20.8,1.1-25.8c3.7-8,11.2-14,20.2-15.2
		c0.4-0.1-0.4,0,0,0c9.8-1,19,1.8,24,8.7c5.3,7.3,6.8,15.8,7.1,25.2c0.3,13.3-1.2,23.5-12,30.6c0,0,0.4,3.2,0.6,4.7
		c0.1,1-0.5,2.1-1.5,2.4c-5.2,1.3-16.1,2.4-21.4,2.5c-1.1,0-2-0.8-2.1-1.9C91.3,154.5,90.8,150.3,90.8,150.3L90.8,150.3z"/>
	<path class="st1" d="M113.8,149.2c0,0-0.6,0-1.7,0.1c-0.7,0.1-1.6,0.2-2.5,0.4c-0.8,0.2-1.6,0.4-2.5,0.6c-0.6,0.1-1.1,0.3-1.7,0.5
		c-0.7,0-1.4,0.7-1.4,1.4c0,0.7,0.7,1.4,1.4,1.4c0.7,0.1,1.3,0.2,2,0.3c1.1,0.1,2.1,0,2.9-0.1c1.1-0.2,2-0.6,2.8-0.9
		c1.2-0.5,1.7-1,1.7-1c0.7-0.3,1.1-1.1,0.8-1.8C115.3,149.3,114.5,148.9,113.8,149.2L113.8,149.2z"/>
	<path class="st1" d="M95,115.3c0,0,0.4-0.4,1-1c0.3-0.3,0.7-0.6,1-1c0.2-0.2,0.4-0.4,0.5-0.7c0.7-0.8,1.3-1.5,1.3-1.5
		c0.2-0.1,0-0.7-0.3-1.2c-0.4-0.6-0.8-0.9-1-0.8c0,0-1,0.4-2,1.2c-0.3,0.2-0.5,0.4-0.8,0.7c-0.4,0.4-0.7,0.9-1,1.3
		c-0.5,0.8-0.8,1.5-0.8,1.5c-0.1,0.2,0.3,0.6,0.8,1C94.4,115.3,95,115.5,95,115.3z"/>
	<path class="st1" d="M116.9,117c0,0-0.2,1,0,2.1c0.1,1.1,0.6,2,0.6,2c0.1,1.2,1.3,2.1,2.5,1.9s2.1-1.3,2-2.5c0,0,0.2-1,0-2.1
		c-0.1-1.1-0.6-2-0.6-2c-0.1-1.2-1.3-2.1-2.5-1.9S116.7,115.8,116.9,117L116.9,117z"/>
	<path class="st1" d="M93.9,120.5c0,0-0.2,1,0,2.1c0.1,1.1,0.6,2,0.6,2c0.1,1.2,1.3,2.1,2.5,1.9c1.2-0.1,2.1-1.3,2-2.5
		c0,0,0.2-1,0-2.1c-0.1-1.1-0.6-2-0.6-2c-0.1-1.2-1.3-2.1-2.5-1.9S93.7,119.3,93.9,120.5L93.9,120.5z"/>
	<path class="st1" d="M119.1,109.4c0,0-0.5-0.5-1.2-1.1c-0.4-0.3-0.9-0.6-1.4-0.9c-0.3-0.1-0.6-0.3-1-0.3c-1.3-0.3-2.3-0.4-2.3-0.4
		c-0.2-0.1-0.5,0.5-0.6,1.1c-0.2,0.7-0.1,1.2,0,1.3c0,0,0.8,0.4,1.7,0.9c0.2,0.2,0.5,0.3,0.7,0.4c0.4,0.2,0.9,0.4,1.3,0.5
		c0.7,0.3,1.3,0.5,1.3,0.5c0.1,0.1,0.6-0.3,1-0.7C119.1,110.1,119.3,109.5,119.1,109.4z"/>
	<path class="st1" d="M109.7,130c-3.8,0.7-4.6,4.2-4.4,5.5c0.2,1,1.1,1.7,2.2,1.5c0,0-0.1,0.3,3.1-0.2c2.2-0.3,3.1-0.9,3.1-0.9
		c1-0.2,1.7-1.1,1.5-2.2C115.1,132.4,112.9,129.4,109.7,130z"/>
	<path class="st1" d="M80,84.7c-8.6,5.9-11.6,15.2-11.3,24.4c0,0.5,0,1,0,1.6c0.2,7.4-2.6,10.7-5,12.3c-2.1,1.6-0.4,3.6,2.4,5
		c0.4,0.2,0.7,0.6,0.9,1c0.2,0.4,0.1,0.9-0.1,1.3c-0.5,1.1-1.2,2-1.8,2.8c-4.4,5.4,7,9.1,16.4,7.8c0.4-0.1,0.6-0.5,0.4-0.9
		c-0.1-0.1-0.2-0.4-0.4-0.6c-0.3-0.5-0.6-0.9-0.8-1.4c-1.2-2.1-1.2-4.6,0.2-6.6c1-1.5,2-3.7,1.6-5.9c-1.1-5.3-5.4-10.8-1.4-12.4
		c2.9-1.2,4.5,2.2,4.6,5.5c0.2,4.3,6.1,3.1,5.3-0.7c-0.1-0.3-0.2-0.6-0.3-0.9c-4-8.2-5.4-18.4,3.3-21.8c8-3.1,10.8,5.4,22.9-1.6
		c2-1.1,4.5-0.1,5,2.1c0.6,2.3,0.6,3,1.1,4.9c0.2,0.8,1.4,0.8,1.5-0.1C127.6,81.6,104.3,68.2,80,84.7z"/>
	<path class="st2" d="M136.5,184.2c0-0.8-0.3-1.5-0.8-2c-0.6-0.6-1.2-0.8-2-0.8h-7.1c-0.8,0-1.5,0.3-2,0.8c-0.6,0.6-0.8,1.2-0.8,2
		v7.1c0,0.8,0.3,1.5,0.8,2c0.6,0.6,1.2,0.8,2,0.8h7.1c0.8,0,1.5-0.3,2-0.8c0.6-0.6,0.8-1.2,0.8-2L136.5,184.2L136.5,184.2z"/>
	<path class="st0" d="M136,105.7c0-0.2-0.1-0.4-0.2-0.6c-0.2-0.2-0.4-0.2-0.6-0.2h-2.1c-0.2,0-0.4,0.1-0.6,0.2
		c-0.2,0.2-0.2,0.4-0.2,0.6v2.1c0,0.2,0.1,0.4,0.2,0.6c0.2,0.2,0.4,0.2,0.6,0.2h2.1c0.2,0,0.4-0.1,0.6-0.2c0.2-0.2,0.2-0.4,0.2-0.6
		L136,105.7L136,105.7z"/>
	<path class="st1" d="M132.3,245.4c0-1-0.4-1.8-1-2.6c-0.7-0.7-1.6-1-2.6-1h-9c-1,0-1.8,0.4-2.6,1c-0.7,0.7-1,1.6-1,2.6v9
		c0,1,0.4,1.8,1,2.6c0.7,0.7,1.6,1,2.6,1h9c1,0,1.8-0.4,2.6-1c0.7-0.7,1-1.6,1-2.6L132.3,245.4L132.3,245.4z"/>
	<path class="st1" d="M135.1,158.5c0-1-0.4-1.8-1-2.6c-0.7-0.7-1.6-1-2.6-1h-9c-1,0-1.8,0.4-2.6,1c-0.7,0.7-1,1.6-1,2.6v9
		c0,1,0.4,1.8,1,2.6c0.7,0.7,1.6,1,2.6,1h9c1,0,1.8-0.4,2.6-1c0.7-0.7,1-1.6,1-2.6L135.1,158.5L135.1,158.5z"/>
	<path class="st1" d="M47.5,307.1c-1.1-0.9-2.1-1.9-3.2-3c-0.9-1-1.9-2.2-2.6-3.3c-2.5-3.6-4.2-7.5-5.3-11.5
		c-0.7-2.8-1.1-5.6-1.1-8.4c-0.1-7.1,2-14.1,6.2-20.1c0.6-0.7,0.4-1.6-0.3-2.2c-0.7-0.6-1.6-0.4-2.2,0.3c-5,6.4-7.7,14-7.8,21.9
		c-0.1,3.1,0.4,6.4,1.1,9.4c1.2,4.4,3.3,8.7,6.3,12.6c1,1.3,2.1,2.4,3.1,3.5c1.1,1.2,2.4,2.1,3.6,3c0.7,0.6,1.6,0.4,2.1-0.2
		C48.2,308.6,48.1,307.6,47.5,307.1L47.5,307.1z"/>
	<path class="st1" d="M46.5,315.7c-1.8-1.2-3.5-2.5-5.1-3.9c-1.2-1.1-2.3-2.2-3.4-3.3c-1.1-1.2-2.3-2.3-3.2-3.6
		c-0.6-0.9-1.3-1.6-1.8-2.4c-0.6-0.9-1.1-1.7-1.8-2.5c-0.4-0.7-1.3-1-2-0.6c-0.8,0.4-1,1.3-0.6,2c0.5,1,0.9,2,1.5,2.9
		c0.6,0.9,1.1,1.8,1.7,2.8c1,1.5,2.1,2.8,3.2,4.1c0.8,0.9,1.7,1.7,2.6,2.3c2.3,1.9,4.8,3.3,7.4,4.7c0.7,0.4,1.6,0.2,2.1-0.6
		C47.5,317.1,47.2,316.1,46.5,315.7L46.5,315.7z"/>
	<path class="st1" d="M27,286.8c0-0.7,0.1-1.4,0.1-2.2c0-0.7,0.1-1.4,0-2.1c0-0.4-0.1-0.9-0.1-1.2c-0.1-1-0.2-1.9-0.3-2.9
		c0-0.8-0.5-1.6-1.4-1.6c-0.8,0-1.6,0.5-1.7,1.4c-0.2,1.1-0.5,2.1-0.5,3.2c-0.1,0.4-0.1,1,0,1.4c0,0.8,0.1,1.5,0.3,2.3
		c0.2,0.8,0.3,1.5,0.6,2.2c0.1,0.9,0.9,1.3,1.7,1.2C26.6,288.4,27.2,287.6,27,286.8L27,286.8z"/>
	<path class="st1" d="M129.9,171.8c0-0.8-0.3-1.4-0.8-2c-0.5-0.5-1.2-0.8-2-0.8h-6.8c-0.8,0-1.4,0.3-2,0.8c-0.5,0.5-0.8,1.2-0.8,2
		v6.8c0,0.8,0.3,1.4,0.8,2c0.5,0.5,1.2,0.8,2,0.8h6.8c0.8,0,1.4-0.3,2-0.8c0.5-0.5,0.8-1.2,0.8-2L129.9,171.8L129.9,171.8z"/>
	<path class="st1" d="M319.4,67.4V38.7c0-0.4-0.2-0.8-0.5-1.1l-16.1-16.1c-0.3-0.3-0.6-0.5-1.1-0.5h-68.5c-0.5-1.2-1.8-2.1-3.3-2.1
		c-2,0-3.6,1.6-3.6,3.6c0,2,1.6,3.6,3.6,3.6c1.6,0.2,2.9-0.7,3.4-2h67.9l15.2,15.2v28.1c-18,0.8-32.4,15.6-32.4,33.8
		c0,18.7,15.2,33.9,34,33.9s34-15.2,34-33.9C351.9,83,337.4,68.1,319.4,67.4z"/>
	<path class="st0" d="M302.1,80.9c0.8-0.8,2.2-0.8,3,0c2.9,2.9,9.3,9.3,12.2,12.2c0.4,0.4,1,0.7,1.5,0.7c0.6,0,1.2-0.2,1.5-0.7
		c2.9-2.9,9.2-9.2,12.1-12.1c0.4-0.4,1-0.7,1.6-0.7c0.6,0,1.2,0.2,1.6,0.7c1.2,1.2,2.6,2.9,3.8,4.1c0.7,0.8,0.7,2.1-0.1,3
		c-2.8,2.8-9,9.1-11.9,11.9c-0.4,0.4-0.7,0.9-0.7,1.5c0,0.6,0.2,1.2,0.7,1.5c2.9,2.9,9.3,9.3,12.2,12.2c0.8,0.8,0.8,2.2,0,3
		c-1.2,1.2-2.8,2.8-3.9,4c-0.8,0.8-2.2,0.8-3,0c-2.9-2.9-9.3-9.3-12.2-12.2c-0.4-0.4-0.9-0.7-1.5-0.7c-0.6,0-1.2,0.2-1.5,0.7
		c-2.9,2.9-9.3,9.3-12.2,12.2c-0.8,0.8-2.2,0.8-3,0c-1.2-1.2-2.8-2.8-3.9-4c-0.8-0.8-0.8-2.2,0-3c2.9-2.9,9.3-9.3,12.2-12.2
		c0.4-0.4,0.7-0.9,0.7-1.5c0-0.6-0.2-1.2-0.7-1.5c-2.9-2.9-9.3-9.3-12.2-12.2c-0.8-0.8-0.8-2.2,0-3C299.3,83.7,301,82.2,302.1,80.9
		L302.1,80.9z"/>
	<path class="st1" d="M223.3,22.3c-0.5-1.7-1.6-3.2-3-4.1c-1.4-0.9-3.3-1.1-4.9-0.7c-3.7,1-8.5,2.2-12.3,3.2c-1.7,0.4-3.1,1.6-3.9,3
		s-1.1,3.4-0.6,5c0.1,0.5,0.2,0.9,0.3,1.3c0.5,1.7,1.6,3.2,3,4.1c1.5,1,3.3,1.1,4.9,0.7c3.7-1,8.5-2.2,12.3-3.2
		c1.7-0.4,3.1-1.6,3.9-3c0.9-1.5,1.1-3.4,0.6-5C223.5,23.3,223.4,22.8,223.3,22.3z"/>
	<circle class="st2" cx="32.6" cy="83.1" r="6.6"/>
	<path class="st1" d="M310.6,174c0-1.8-1.5-3.6-3.6-3.6c-0.7,0-1.8,0-2.9,0c-1.5,0-2.5-0.7-3.3-1.8c-0.7-1.1-0.4-2.5,0.4-3.6
		c4.4-5.8,10.9-14.8,14.5-19.9c0.7-1.1,1.8-1.4,2.9-1.4s2.2,0.4,2.9,1.4c3.6,5.1,10.2,14.1,14.5,19.9c0.7,1.1,1.1,2.5,0.4,3.6
		c-0.7,1.1-1.8,1.8-3.3,1.8c-1.1,0-1.8,0-2.9,0c-1.8,0-3.6,1.4-3.6,3.6c0,2.2,0,4.3,0,6.1c0,1.1-0.4,1.8-1.1,2.5
		c-0.7,0.7-1.5,1.1-2.5,1.1c-2.9,0-6.9,0-9.4,0c-1.1,0-1.8-0.4-2.5-1.1c-0.7-0.7-1.1-1.4-1.1-2.5C310.6,178.3,310.6,175.8,310.6,174
		z"/>
	<path class="st0" d="M23.9,40.1c0.4-0.7,0.6-1.5,0.3-2.3c-0.2-0.7-0.4-1.5-0.6-2.2c-0.2-0.8-0.8-1.4-1.5-1.8
		c-0.7-0.4-1.6-0.5-2.4-0.2c-2.4,0.7-5.7,1.6-8,2.3c-0.8,0.2-1.5,0.8-1.9,1.5s-0.6,1.5-0.3,2.3c0.2,0.7,0.4,1.5,0.6,2.2
		c0.2,0.8,0.8,1.4,1.5,1.8c0.7,0.4,1.6,0.5,2.4,0.2c2.3-0.7,5.6-1.6,8-2.3C22.8,41.4,23.5,40.9,23.9,40.1z"/>
	<path class="st0" d="M96.8,14.6c-0.5-1.6-2.3-2.5-3.9-2c-11.3,3.3-50.7,14.6-62.1,17.9c-1.7,0.5-2.7,2.2-2.2,3.8
		c0.2,0.7,0.4,1.5,0.6,2.2c0.5,1.6,2.3,2.5,3.9,2c11.3-3.3,50.7-14.6,62.1-17.9c1.7-0.5,2.7-2.2,2.2-3.8
		C97.2,16.1,97,15.3,96.8,14.6z"/>
	<path class="st0" d="M139.4,4.6l-0.6-2.2c-0.2-0.8-0.8-1.4-1.5-1.8c-0.7-0.4-1.6-0.5-2.4-0.2L104,9.2c-0.8,0.2-1.5,0.8-1.9,1.5
		c-0.4,0.7-0.6,1.5-0.3,2.3l0.6,2.2c0.2,0.8,0.8,1.4,1.5,1.8c0.7,0.4,1.6,0.5,2.4,0.2l30.8-8.9c0.8-0.2,1.5-0.8,1.9-1.5
		C139.5,6.2,139.6,5.4,139.4,4.6z"/>
	<path class="st0" d="M23.6,53.8c-3.7,0-6.6,3-6.6,6.6c0,3.7,3,6.6,6.6,6.6c3.7,0,6.6-3,6.6-6.6C30.2,56.8,27.3,53.8,23.6,53.8z"/>
	<path class="st0" d="M272.6,311.7c4.7-0.5,8.6-0.7,11.6-0.5c2.1,0.1,3.9,0.4,5,0.7c0.2,0.1,0.4,0.2,0.5,0.3c0.1,0.1,0.2,0,0.2,0.1
		c0,0.1-0.1,0.1-0.1,0.1c-0.1,0.1-0.1,0.2-0.3,0.4c-0.4,0.6-1,1.1-1.9,1.7c-3.3,2.4-9.5,5.4-17.6,8.6c-9.6,3.7-22,7.7-35.7,11.2
		c-13.6,3.7-26.3,6.3-36.6,7.8c-8.6,1.3-15.4,1.8-19.5,1.2c-1-0.1-1.8-0.3-2.5-0.6c-0.2,0-0.3-0.1-0.4-0.3c0-0.1-0.1-0.1-0.1-0.1
		c0-0.1,0.1-0.1,0.1-0.2c0.1-0.2,0.3-0.5,0.5-0.8c0.6-0.7,1.6-1.4,2.8-2.3c2.1-1.4,5-3,8.6-4.6c0.7-0.3,1-1.1,0.7-1.8
		c-0.3-0.8-1.1-1-1.8-0.7c-4.6,2-8.3,4-10.5,5.7c-1.4,1-2.3,2-2.8,3c-0.5,1-0.6,1.8-0.4,2.6c0.3,1.2,1.7,2.4,4.2,3
		c3.1,0.7,8.6,0.7,15.5,0.1c11.2-1.1,26.6-4,43.4-8.3c16.7-4.5,31.5-9.5,41.8-14c6.4-2.8,11-5.5,13.5-7.7c1.9-1.8,2.5-3.4,2.2-4.7
		c-0.2-0.9-0.9-1.6-2-2.2c-1-0.5-2.5-0.9-4.6-1.1c-3.4-0.3-8.2,0-14.1,0.7c-0.7,0.1-1.3,0.8-1.3,1.5
		C271.1,311.3,271.8,311.8,272.6,311.7L272.6,311.7z"/>
	<path class="st0" d="M276.4,330.7c-0.1-0.7,0.3-1.4,1-1.5c0.8-0.2,1.5,0.2,1.7,1c0.2,0.9-0.1,2.2-1.6,3.6c-1.7,1.6-5,3.4-9.5,5.5
		c-4.7,2.2-10.7,4.4-17.6,6.6c-3.8,1.2-7.8,2.3-11.9,3.5c-4.1,1.1-8.2,2.1-12.1,2.8c-7,1.5-13.4,2.4-18.6,2.9c-5,0.5-8.8,0.4-11-0.1
		c-2-0.4-3-1.4-3.2-2.4c-0.2-0.8,0.2-1.5,1-1.7c0.7-0.2,1.4,0.2,1.6,0.9l0.2,0.1c0.4,0.2,1,0.3,1.7,0.4c2.9,0.4,7.6-0.1,13.7-0.9
		c7.2-1.1,16.1-3,25.7-5.6c9.6-2.4,18.3-5.2,25.1-7.8c5.7-2.1,10-4.2,12.4-5.8c0.5-0.4,1-0.8,1.3-1.2
		C276.3,331,276.3,330.9,276.4,330.7C276.3,330.8,276.3,330.8,276.4,330.7L276.4,330.7L276.4,330.7c0,0.1,0,0.1,0,0.2L276.4,330.7
		L276.4,330.7L276.4,330.7L276.4,330.7z"/>
</g>
<g id="TEXTES_FR">
</g>
<g id="TEXTES_GB">
</g>
</svg>
