<?xml version="1.0" encoding="utf-8"?>
<!-- Generator: Adobe Illustrator 26.2.1, SVG Export Plug-In . SVG Version: 6.00 Build 0)  -->
<svg version="1.1" xmlns="http://www.w3.org/2000/svg" xmlns:xlink="http://www.w3.org/1999/xlink" x="0px" y="0px"
	 viewBox="0 0 257.6866455 37.7315063" style="enable-background:new 0 0 257.6866455 37.7315063;" xml:space="preserve">
<style type="text/css">
	.st0{fill:url(#FOND_00000121980345595468994550000015897899850575495102_);}
	.st1{fill:url(#FOND_00000006674930276558788160000014600963933296581280_);}
	.st2{fill:#FFF5F7;}
	.st3{fill:url(#FOND_00000091712942858055078120000008830649636785943186_);}
	.st4{fill:url(#FOND_00000057129608651925736570000002190553441138954923_);}
	.st5{fill:url(#FOND_00000029746509753593291070000011763265413864844975_);}
	.st6{fill:url(#FOND_00000022539102868505137470000010699141394522008217_);}
	.st7{fill:url(#FOND_00000130630314878635980830000009535779167372714650_);}
	.st8{fill:url(#FOND_00000073715479809077602320000017112439330621366193_);}
	.st9{fill:url(#FOND_00000124133717529894764770000016111207910094839478_);}
	.st10{fill:url(#FOND_00000037688853000731350140000012745335169251913660_);}
	.st11{fill:#272F60;}
	.st12{fill:#FD657C;}
	.st13{fill:url(#FOND_00000169548603283035970780000004578941315073640068_);}
	.st14{fill:url(#FOND_00000004532298196549964940000004836864816380725130_);}
	.st15{fill:#F4AAB9;}
	.st16{clip-path:url(#Rectangle_10_00000042015348136971275650000005276269610238386100_);}
	.st17{fill:#FB657C;}
	.st18{fill:#FFFFFF;}
	.st19{fill:#FFBCC6;}
	.st20{clip-path:url(#SVGID_00000157295445457099172060000000736800962628415919_);}
	.st21{enable-background:new    ;}
	.st22{fill:#FB657C;stroke:#FD657C;stroke-width:3.8352001;stroke-linecap:round;stroke-linejoin:round;stroke-miterlimit:1.4382;}
	.st23{fill:#FFBCC6;stroke:#FFBCC6;stroke-width:3.8352001;stroke-linecap:round;stroke-linejoin:round;stroke-miterlimit:1.4382;}
	.st24{clip-path:url(#SVGID_00000141434309695778960440000013685879289984266925_);fill:#FB657C;}
	.st25{clip-path:url(#SVGID_00000045596270853525493540000000268596939011233671_);fill:#FFBCC6;}
	.st26{clip-path:url(#SVGID_00000041269292067260772830000005073424553820532908_);fill:#FFBCC6;}
	.st27{clip-path:url(#SVGID_00000085218807076217017250000010791317062029445005_);fill:#FFBCC6;}
	.st28{clip-path:url(#SVGID_00000025440585698587067990000005326726223216379533_);fill:#FFBCC6;}
	.st29{clip-path:url(#SVGID_00000168795609761475907640000018133341116530485134_);fill:#FFBCC6;}
	.st30{clip-path:url(#SVGID_00000049180932652535200640000007039153979954763674_);fill:#FFBCC6;}
	.st31{clip-path:url(#SVGID_00000144297292067981444350000016244288009935386814_);fill:#FFBCC6;}
	.st32{clip-path:url(#SVGID_00000059310653146797190770000001697994547214695330_);fill:#FFBCC6;}
	.st33{clip-path:url(#SVGID_00000121995148735092430240000006447006782367759261_);fill:#FFBCC6;}
	.st34{clip-path:url(#SVGID_00000005970483698033296490000006211658129395829907_);fill:#FFBCC6;}
	.st35{clip-path:url(#SVGID_00000138540563275683159410000014351542106236187817_);fill:#FFBCC6;}
	.st36{clip-path:url(#SVGID_00000065042013885055552150000001427817799796134050_);fill:#FFBCC6;}
	.st37{clip-path:url(#SVGID_00000002356735366584412860000004682435160307141809_);fill:#FFBCC6;}
	.st38{clip-path:url(#SVGID_00000111150411867063673590000009928353468274067339_);fill:#FFBCC6;}
	.st39{clip-path:url(#SVGID_00000009589350652016849160000000576745142152788144_);fill:#272F60;}
	.st40{clip-path:url(#SVGID_00000009589350652016849160000000576745142152788144_);fill:#FB657C;}
	.st41{clip-path:url(#SVGID_00000009589350652016849160000000576745142152788144_);fill:#FFBCC6;}
	.st42{clip-path:url(#SVGID_00000009589350652016849160000000576745142152788144_);fill:#FFFFFF;}
	.st43{fill:none;}
	.st44{clip-path:url(#SVGID_00000026866997555028131540000010805035491759685504_);fill:#FFFFFF;}
	.st45{clip-path:url(#SVGID_00000160881200484277126170000012341189122905425290_);fill:#FFFFFF;}
	.st46{clip-path:url(#SVGID_00000045619998923309590550000016307767633373698479_);fill:#FFFFFF;}
	.st47{clip-path:url(#SVGID_00000016781866541426785140000004179785767838294440_);fill:#FFFFFF;}
	.st48{clip-path:url(#SVGID_00000111897026414854554260000001474378461270496945_);fill:#FFFFFF;}
	.st49{clip-path:url(#SVGID_00000100351319055514971240000011043433250585254531_);fill:#FFFFFF;}
	.st50{clip-path:url(#SVGID_00000005962809782638821050000006851583262166161798_);fill:#FFFFFF;}
	.st51{clip-path:url(#SVGID_00000010989877360042070520000005848700623624303271_);fill:#FFFFFF;}
	.st52{clip-path:url(#SVGID_00000119837449805029308870000014495607533110612157_);fill:#FFFFFF;}
	.st53{clip-path:url(#SVGID_00000058557615776388395870000000765670064639005329_);fill:#FFFFFF;}
	.st54{clip-path:url(#SVGID_00000098214147597568650180000008556992987803055286_);fill:#FFFFFF;}
	.st55{clip-path:url(#SVGID_00000176754574702899163350000011038189342932182460_);fill:#FFFFFF;}
	.st56{clip-path:url(#SVGID_00000055673224489585427880000003991968224767382202_);fill:#FB657C;}
	.st57{clip-path:url(#SVGID_00000118355807065971821890000007005355634528706730_);fill:#FFFFFF;}
	.st58{clip-path:url(#SVGID_00000150104795937127634350000004988598495113086136_);fill:#FFFFFF;}
	.st59{fill:#FF647B;}
	.st60{fill:#FF657C;}
	.st61{fill:#272E5F;}
	.st62{fill:none;stroke:#272E5F;stroke-width:3;}
	.st63{clip-path:url(#SVGID_00000158026115767842181000000010264740018753397433_);}
	.st64{fill:#606060;}
	.st65{fill:#E94B67;}
	.st66{fill:#132350;}
	.st67{fill:#050605;}
	.st68{fill:#FFF5F7;stroke:#272E5F;stroke-width:2;}
	.st69{fill:none;stroke:#272E5F;stroke-width:2;stroke-linecap:round;stroke-linejoin:round;stroke-miterlimit:10;}
	.st70{fill:none;stroke:#272E5F;stroke-width:2;}
	.st71{fill:none;stroke:#272E5F;stroke-width:3;stroke-linecap:round;stroke-linejoin:round;stroke-miterlimit:10;}
	.st72{fill:none;stroke:#142664;stroke-width:2;stroke-linecap:round;stroke-linejoin:round;stroke-miterlimit:10;}
	.st73{clip-path:url(#SVGID_00000000929749032955813200000012054101606631484596_);}
	.st74{clip-path:url(#SVGID_00000022537251359540161810000008002463952377139874_);}
	.st75{clip-path:url(#SVGID_00000060029666981893558700000005722322704787654554_);fill:#FD657C;}
	.st76{clip-path:url(#SVGID_00000044167054825443345400000016852378838214978462_);fill:#FD657C;}
	.st77{clip-path:url(#SVGID_00000029731064514366483650000002815506059709371042_);}
	.st78{clip-path:url(#SVGID_00000162321224922437950030000004069603492864048003_);}
	.st79{clip-path:url(#SVGID_00000006695185754121536960000002807163811811304329_);}
	.st80{fill:none;stroke:#142664;stroke-width:3;stroke-linecap:round;stroke-linejoin:round;}
	.st81{clip-path:url(#SVGID_00000157297433128840920050000015613238070705769900_);}
	.st82{clip-path:url(#SVGID_00000005244649746841966730000003680035927907321996_);}
	.st83{clip-path:url(#SVGID_00000054952219205232675990000015965155723888775088_);}
	.st84{clip-path:url(#SVGID_00000142147353282581763790000003936158355867491743_);}
	.st85{clip-path:url(#SVGID_00000098201356440103578920000006340120445621705126_);}
	.st86{clip-path:url(#SVGID_00000008128162365310343210000005679448112903855547_);}
	.st87{clip-path:url(#SVGID_00000163784992018156127710000000870980389773660863_);}
	.st88{clip-path:url(#SVGID_00000005233269985189489730000009423400434316679854_);}
	.st89{clip-path:url(#SVGID_00000134944476845988650110000008983520288680588934_);}
	.st90{clip-path:url(#SVGID_00000130616959953999205840000006106688671766863530_);}
	.st91{clip-path:url(#SVGID_00000064350632546937485220000016898314574176474003_);}
	.st92{clip-path:url(#SVGID_00000033366560809842736160000006456790756030997161_);}
	.st93{clip-path:url(#SVGID_00000114765239025083084520000013401260946650751139_);}
	.st94{clip-path:url(#SVGID_00000028312543162040291760000013135611547975593862_);}
	.st95{clip-path:url(#SVGID_00000064325117802615823960000012980233962798131365_);}
	.st96{clip-path:url(#SVGID_00000000944243453333589770000013723083852175887494_);}
	.st97{clip-path:url(#SVGID_00000085934227681579263500000012891053001085142404_);}
	.st98{clip-path:url(#SVGID_00000042709004333962282780000012068601721499413916_);}
	.st99{clip-path:url(#SVGID_00000030447595423166938830000017626767716584272050_);}
	.st100{clip-path:url(#SVGID_00000156573769755137885400000011933027761648231586_);}
	.st101{clip-path:url(#SVGID_00000123428842152928719550000011115694346243852453_);}
	.st102{clip-path:url(#SVGID_00000129896572674234340060000013327717108364198297_);}
	.st103{clip-path:url(#SVGID_00000072969581568645746000000012920048801964708234_);}
	.st104{clip-path:url(#SVGID_00000157994228434127381130000011616186824110343574_);}
	.st105{clip-path:url(#SVGID_00000093898064075461994910000016874692585735573901_);}
	.st106{clip-path:url(#SVGID_00000181771927173415779300000008091872786443096747_);}
	.st107{clip-path:url(#SVGID_00000062162276676402757310000005449984979226929285_);}
	.st108{clip-path:url(#SVGID_00000137849435656601024970000016807934495862844093_);}
	.st109{clip-path:url(#SVGID_00000163062673258971040000000004032664046768004770_);}
	.st110{clip-path:url(#SVGID_00000030482824415613735540000015295562077701620645_);}
	.st111{clip-path:url(#SVGID_00000075153650871931330350000008164880094145777312_);}
	.st112{clip-path:url(#SVGID_00000047056278713883242360000008152842955499356325_);}
	.st113{clip-path:url(#SVGID_00000144330101047975196230000011354613253300632756_);}
	.st114{clip-path:url(#SVGID_00000090976562353331181930000001083816059757513145_);}
	.st115{clip-path:url(#SVGID_00000032647806671796538750000013016499204493593244_);}
	.st116{clip-path:url(#SVGID_00000131333983785339476380000004682426575228904363_);}
	.st117{clip-path:url(#SVGID_00000098192029852475466980000012679838299241464734_);}
	.st118{clip-path:url(#SVGID_00000139260036385691396780000010903202543837992840_);}
	.st119{clip-path:url(#SVGID_00000009552834345514149600000005152285090570384002_);}
	.st120{clip-path:url(#SVGID_00000062888568899859458530000008258502259452329151_);}
	.st121{clip-path:url(#SVGID_00000162332975508958388030000001155787123897936300_);}
	.st122{clip-path:url(#SVGID_00000014627155243264482360000011269685069290246537_);}
	.st123{clip-path:url(#SVGID_00000183208549839349101040000013928919703719500724_);}
	.st124{fill:#FFFFFF;stroke:#142664;stroke-width:3;stroke-linecap:round;stroke-linejoin:round;}
	.st125{clip-path:url(#SVGID_00000168820609276992954350000015149584937624080781_);}
	.st126{fill-rule:evenodd;clip-rule:evenodd;fill:#FFBCC6;}
	.st127{fill-rule:evenodd;clip-rule:evenodd;fill:#272F60;}
	.st128{fill-rule:evenodd;clip-rule:evenodd;fill:#FFFFFF;}
	.st129{fill-rule:evenodd;clip-rule:evenodd;fill:#FB657C;}
	.st130{clip-path:url(#SVGID_00000099644738057316633230000009022900732088383926_);}
	.st131{clip-path:url(#SVGID_00000183937930467688736900000012122959395784557234_);}
	.st132{clip-path:url(#SVGID_00000162349603825189475090000008568446942467842228_);}
	.st133{clip-path:url(#SVGID_00000115504987774699976530000011763880458007888315_);}
	.st134{clip-path:url(#SVGID_00000001643743585546837710000012794802617217592459_);}
	.st135{clip-path:url(#SVGID_00000040558589237404805430000001462273417808005552_);}
	.st136{clip-path:url(#SVGID_00000031199751012618346070000016744663255682106265_);}
	.st137{clip-path:url(#SVGID_00000141450774435794802160000006799134528060389779_);}
	.st138{clip-path:url(#SVGID_00000090258578099852183230000009778485527546199989_);}
	.st139{clip-path:url(#SVGID_00000064346137763769456220000014428012963629931945_);}
	.st140{clip-path:url(#SVGID_00000177463255430171462920000009684547615919565968_);}
	.st141{clip-path:url(#SVGID_00000091701202997948124090000018398584956339315078_);}
	.st142{clip-path:url(#SVGID_00000131342307657254455450000012332959902836957081_);}
	.st143{clip-path:url(#SVGID_00000147189122146949021160000014739040792595065018_);}
	.st144{clip-path:url(#SVGID_00000134947290395438479130000005224440141678116767_);}
	.st145{clip-path:url(#SVGID_00000119119556738890488780000008680677020466008251_);}
	.st146{clip-path:url(#SVGID_00000173858726319171778590000004669374638738683788_);}
	.st147{clip-path:url(#SVGID_00000169534117007308630240000004603085285048724612_);}
	.st148{clip-path:url(#SVGID_00000078017546957215580200000012078634945121317810_);}
	.st149{clip-path:url(#SVGID_00000105416418522295966320000003023702598072710790_);}
	.st150{clip-path:url(#SVGID_00000129164246279564825830000007113285483236716693_);}
	.st151{clip-path:url(#SVGID_00000115476016643579637630000005637195994855994783_);}
	.st152{clip-path:url(#SVGID_00000006707012350239071020000003131161085650483339_);}
	.st153{clip-path:url(#SVGID_00000173849262609670833350000009822762657585540752_);}
	.st154{clip-path:url(#SVGID_00000060737749025678329810000000065539986179949193_);}
	.st155{clip-path:url(#SVGID_00000097492347095978782850000002618464209535930510_);}
	.st156{clip-path:url(#SVGID_00000168824751001462288260000008654976063768101298_);}
	.st157{clip-path:url(#SVGID_00000121965524905787686640000014702460440656891280_);}
	.st158{clip-path:url(#SVGID_00000162326258039867513100000017350043365275026335_);}
	.st159{clip-path:url(#SVGID_00000177450550404980992120000003951678397541471390_);}
	.st160{clip-path:url(#SVGID_00000124144796037820908790000006512641661202587540_);}
	.st161{clip-path:url(#SVGID_00000080186176002042412960000016551608543923201713_);}
	.st162{clip-path:url(#SVGID_00000098932407045215249140000011254458250347964840_);}
	.st163{clip-path:url(#SVGID_00000027595151858974937520000008757365496355013562_);}
	.st164{clip-path:url(#SVGID_00000057109457322657295200000013727456634507867030_);}
	.st165{clip-path:url(#SVGID_00000124153088727940845060000008749865866316654757_);}
	.st166{clip-path:url(#SVGID_00000050650297035886279390000003030340232260780433_);}
	.st167{clip-path:url(#SVGID_00000145040712586113785150000010937592740991728301_);}
	.st168{clip-path:url(#SVGID_00000183218008199210323430000011492210497669105557_);}
	.st169{clip-path:url(#SVGID_00000155108000345149946600000008812896773571867019_);}
	.st170{clip-path:url(#SVGID_00000116921530545005466200000008942642203158132119_);}
	.st171{clip-path:url(#SVGID_00000026158735441924722100000011955461106853237167_);}
	.st172{clip-path:url(#SVGID_00000075123457444009185130000013975546644866770101_);}
	.st173{clip-path:url(#SVGID_00000147214901221405998390000001096816431689343876_);}
	.st174{clip-path:url(#SVGID_00000121256846766968734310000017937417519898847389_);}
	.st175{clip-path:url(#SVGID_00000151520570735678173380000004298689633162995337_);}
	.st176{clip-path:url(#SVGID_00000090276623657356261680000016952461730712625298_);}
	.st177{clip-path:url(#SVGID_00000158730804610901470940000014025420340273713800_);}
	.st178{clip-path:url(#SVGID_00000165918657330836024470000017726157440522502840_);}
	.st179{clip-path:url(#SVGID_00000128453008864156549530000014160751187637650050_);}
	.st180{clip-path:url(#SVGID_00000059308622124299578520000012556855945458506401_);}
	.st181{clip-path:url(#SVGID_00000173864060538595097660000012378539383987267231_);}
	.st182{clip-path:url(#SVGID_00000080909931302552152720000011654487606896743083_);}
	.st183{clip-path:url(#SVGID_00000034810662988432983710000010963471881709802938_);}
	.st184{clip-path:url(#SVGID_00000066477234225610066510000008653626153424313482_);}
	.st185{clip-path:url(#SVGID_00000069357340945106592430000007124329954383618224_);}
	.st186{clip-path:url(#SVGID_00000164482648330061563870000000053423664026616719_);}
	.st187{clip-path:url(#SVGID_00000150063484085108700640000002218231328438058673_);}
	.st188{clip-path:url(#SVGID_00000151540149792698181770000010388177285940056756_);}
	.st189{clip-path:url(#SVGID_00000135680033671355592990000010548302427368574651_);}
	.st190{clip-path:url(#SVGID_00000158020457911156051370000011927708772324615078_);}
	.st191{clip-path:url(#SVGID_00000080180648323717690180000009461721172532761748_);}
	.st192{clip-path:url(#SVGID_00000183934973622586266100000017195984773461009550_);}
	.st193{clip-path:url(#SVGID_00000037669673592082160080000006987923694743964852_);}
	.st194{clip-path:url(#SVGID_00000034776785653905728630000005108288427491360387_);}
	.st195{clip-path:url(#SVGID_00000007391675701291606980000013522815132516955539_);}
	.st196{clip-path:url(#SVGID_00000160902830285236184940000015651156812605660035_);}
	.st197{clip-path:url(#SVGID_00000125585368155395447500000001365949711575455620_);}
	.st198{clip-path:url(#SVGID_00000078743997168469155590000015483035833033074560_);}
	.st199{clip-path:url(#SVGID_00000110465782339402214110000005564035115487996544_);}
	.st200{clip-path:url(#SVGID_00000071562017725434586040000006186092622359398026_);}
	.st201{clip-path:url(#SVGID_00000049908926221287014380000001816460421663960223_);}
	.st202{clip-path:url(#SVGID_00000008832166198739633490000004126406845186671753_);}
	.st203{clip-path:url(#SVGID_00000077306973515827133570000007314735252826433696_);}
	.st204{clip-path:url(#SVGID_00000162340119468972935660000017534856210691457722_);}
	.st205{clip-path:url(#SVGID_00000127733603635795585070000009526521969115780013_);}
	.st206{clip-path:url(#SVGID_00000098190810664239928810000008152535378130641041_);}
	.st207{clip-path:url(#SVGID_00000114786061235391459400000008028097231402519431_);}
	.st208{clip-path:url(#SVGID_00000180365730983500906230000005434537286284159899_);}
	.st209{clip-path:url(#SVGID_00000145029679316782368730000017226121232294527373_);}
	.st210{clip-path:url(#SVGID_00000045598762314020654740000002126355418032852899_);}
	.st211{clip-path:url(#SVGID_00000129163412327690646750000012420737446430050975_);}
	.st212{clip-path:url(#SVGID_00000160884921410806568130000011130094084508933804_);}
	.st213{clip-path:url(#SVGID_00000077294180950590629800000009314175100787544193_);}
	.st214{clip-path:url(#SVGID_00000153700268563853097610000018342922454018530440_);}
	.st215{clip-path:url(#SVGID_00000168822584775670688050000018417209002048344741_);}
	.st216{clip-path:url(#SVGID_00000034065251221093383790000002333744885519696559_);}
	.st217{clip-path:url(#SVGID_00000131325201794161691850000017925835445057977999_);}
	.st218{clip-path:url(#SVGID_00000134958135837675154770000012418715687450505636_);}
	.st219{clip-path:url(#SVGID_00000137101220722903820020000009393840141912769668_);}
	.st220{clip-path:url(#SVGID_00000025443536708829285770000016278957365008423612_);}
	.st221{clip-path:url(#SVGID_00000065792902053913442300000000278445639609645706_);}
	.st222{clip-path:url(#SVGID_00000088838043914100573010000014690360061341513112_);}
	.st223{clip-path:url(#SVGID_00000101819622637655014580000002525633765444124600_);}
	.st224{clip-path:url(#SVGID_00000094588972359572494210000011183455284051712447_);}
	.st225{clip-path:url(#SVGID_00000102518558034003160920000017736991384726876562_);}
	.st226{clip-path:url(#SVGID_00000046337628163316941020000014607418600338231451_);}
	.st227{clip-path:url(#SVGID_00000134943786584776531600000002057830538089028028_);}
	.st228{clip-path:url(#SVGID_00000057868474239588422730000003885541698686158506_);}
	.st229{clip-path:url(#SVGID_00000173875489959043239780000004386756653197374884_);}
	.st230{clip-path:url(#SVGID_00000177443188902126228200000015091681129729376426_);}
	.st231{clip-path:url(#SVGID_00000106849684136748623020000013533492848936515507_);}
	.st232{clip-path:url(#SVGID_00000013879500640730920770000004440371323682454156_);}
	.st233{clip-path:url(#SVGID_00000181080615727399824950000007408605730651559830_);}
	.st234{clip-path:url(#SVGID_00000051367147030265452820000014221826770440407939_);}
	.st235{clip-path:url(#SVGID_00000141453982679954883600000001188695694976382862_);}
	.st236{clip-path:url(#SVGID_00000183952515727173913940000013909394219570910371_);}
	.st237{clip-path:url(#SVGID_00000064352314981313499780000011044899630996662421_);}
	.st238{clip-path:url(#SVGID_00000083089853350928709070000003429294003126477441_);}
	.st239{clip-path:url(#SVGID_00000150806032280690339060000007643837791120952969_);}
	.st240{clip-path:url(#SVGID_00000034804135388875722690000007674127841986257542_);}
	.st241{clip-path:url(#SVGID_00000134245992236638923180000000656639319147033998_);}
	.st242{clip-path:url(#SVGID_00000003817297172890763870000014254991546073018250_);}
	.st243{clip-path:url(#SVGID_00000004517304040926293180000004513574931620698759_);}
	.st244{clip-path:url(#SVGID_00000083770722538714971870000007314255001813656198_);}
	.st245{clip-path:url(#SVGID_00000131363604345306170920000004819831464877198728_);}
	.st246{clip-path:url(#SVGID_00000085970297706208669210000011922167210886984892_);}
	.st247{clip-path:url(#SVGID_00000095304532533564597280000009284495882039620995_);}
	.st248{clip-path:url(#SVGID_00000052790597398403405530000005009239542352697784_);}
	.st249{clip-path:url(#SVGID_00000085937826880497211990000013469175921031073961_);}
	.st250{clip-path:url(#SVGID_00000036210310943403039170000012953750883326903429_);}
	.st251{clip-path:url(#SVGID_00000101795401623992326540000003761038516352056742_);}
	.st252{clip-path:url(#SVGID_00000036226756869432570670000001301692882933995944_);}
	.st253{clip-path:url(#SVGID_00000095337352521028791520000005470661718780744355_);}
	.st254{clip-path:url(#SVGID_00000088816170404240293410000007710261224275407515_);}
	.st255{clip-path:url(#SVGID_00000070805505401882322090000017029960229794310829_);}
	.st256{clip-path:url(#SVGID_00000129884963314634961400000014217319772819717559_);}
	.st257{clip-path:url(#SVGID_00000139288263729145530120000000316766116655480485_);}
	.st258{clip-path:url(#SVGID_00000059995135665660830400000002095721753005016236_);}
	.st259{clip-path:url(#SVGID_00000147941175546709194810000002128233802987984787_);}
	.st260{fill:#E94966;}
	.st261{fill:#13224F;}
</style>
<g id="FONDS">
</g>
<g id="ILLUSTRATIONS">
	<path id="Tracé_826_00000119806167001037245020000000730614228393759675_" class="st12" d="M19.9844704,5.876318
		L19.9844704,5.876318c4.45891-0.0353723,8.1037006,3.3762779,8.1408653,7.6201372
		c0.0003738,0.0426979,0.0003738,0.0853968,0,0.1280947l0,0v10.482275c0.0371647,4.2438583-3.547369,7.712862-8.0062752,7.7482338
		c-0.0448627,0.0003567-0.0897274,0.0003567-0.1345901,0l0,0c-4.4589109,0.0353718-8.1037006-3.3762798-8.1408653-7.6201344
		c-0.0003748-0.0426998-0.0003748-0.0853996,0-0.1280994v-10.482275c-0.0371637-4.2438593,3.547369-7.7128601,8.006279-7.7482319
		C19.894743,5.8759608,19.9396076,5.8759608,19.9844704,5.876318z"/>
	<path id="Tracé_827_00000057106299698015986160000011279170375929403805_" class="st12" d="M44.2202759,5.876318
		L44.2202759,5.876318c4.4589119-0.0353723,8.1037025,3.3762779,8.1408653,7.6201372
		c0.0003777,0.0426979,0.0003777,0.0853968,0,0.1280947v10.482275c0.0371666,4.2438583-3.5473671,7.712862-8.0062752,7.7482338
		c-0.0448608,0.0003567-0.0897255,0.0003567-0.1345901,0l0,0c-4.4589081,0.0353718-8.1036987-3.3762798-8.1408615-7.6201344
		c-0.0003777-0.0426998-0.0003777-0.0853996,0-0.1280994v-10.482275c-0.0371666-4.2438593,3.5473671-7.7128601,8.006279-7.7482319
		C44.1305504,5.8759608,44.175415,5.8759608,44.2202759,5.876318z"/>
	
		<path id="Tracé_826_00000139268549964248965440000015575615485549268633_2_00000116197987377491888120000017525625650593823923_" class="st12" d="
		M68.4560852,5.876318L68.4560852,5.876318c4.4589081-0.0353723,8.1036987,3.3762779,8.1408615,7.6201372
		c0.0003815,0.0426979,0.0003815,0.0853968,0,0.1280947l0,0v10.482275c0.0371704,4.2438583-3.5473633,7.712862-8.0062714,7.7482338
		c-0.0448608,0.0003567-0.0897293,0.0003567-0.1345901,0l0,0c-4.4589119,0.0353718-8.1036987-3.3762798-8.1408653-7.6201344
		c-0.0003738-0.0426998-0.0003738-0.0853996,0-0.1280994v-10.482275c-0.0371628-4.2438593,3.5473671-7.7128601,8.0062828-7.7482319
		C68.3663559,5.8759608,68.4112244,5.8759608,68.4560852,5.876318z"/>
	
		<path id="Tracé_827_00000095326724250973253690000004318942986274537405_2_00000098916859764762827700000013730793859764293815_" class="st12" d="
		M92.6918945,5.876318L92.6918945,5.876318c4.4589081-0.0353723,8.1036987,3.3762779,8.1408615,7.6201372
		c0.0003738,0.0426979,0.0003738,0.0853968,0,0.1280947v10.482275c0.0371628,4.2438583-3.5473709,7.712862-8.0062714,7.7482338
		c-0.0448685,0.0003567-0.0897293,0.0003567-0.1345901,0l0,0c-4.4589157,0.0353718-8.1036987-3.3762798-8.1408691-7.6201344
		c-0.0003738-0.0426998-0.0003738-0.0853996,0-0.1280994v-10.482275c-0.0371628-4.2438593,3.5473709-7.7128601,8.006279-7.7482319
		C92.6021652,5.8759608,92.6470261,5.8759608,92.6918945,5.876318z"/>
	
		<path id="Tracé_826_00000139268549964248965440000015575615485549268633_2_00000076582874756592616850000010329787836474230438_" class="st12" d="
		M116.9276962,5.876318L116.9276962,5.876318c4.4589157-0.0353723,8.1037064,3.3762779,8.1408691,7.6201372
		c0.0003738,0.0426979,0.0003738,0.0853968,0,0.1280947l0,0v10.482275c0.0371628,4.2438583-3.5473709,7.712862-8.006279,7.7482338
		c-0.0448608,0.0003567-0.0897217,0.0003567-0.1345901,0l0,0c-4.4589081,0.0353718-8.1036987-3.3762798-8.1408615-7.6201344
		c-0.0003738-0.0426998-0.0003738-0.0853996,0-0.1280994v-10.482275c-0.0371628-4.2438593,3.5473709-7.7128601,8.006279-7.7482319
		C116.8379745,5.8759608,116.8828354,5.8759608,116.9276962,5.876318z"/>
	
		<path id="Tracé_827_00000095326724250973253690000004318942986274537405_2_00000050640249316067513660000013958217923807086782_" class="st12" d="
		M141.1635132,5.876318L141.1635132,5.876318c4.4589081-0.0353723,8.1036987,3.3762779,8.1408539,7.6201372
		c0.0003815,0.0426979,0.0003815,0.0853968,0,0.1280947v10.482275c0.0371704,4.2438583-3.5473633,7.712862-8.0062714,7.7482338
		c-0.0448608,0.0003567-0.0897217,0.0003567-0.1345825,0l0,0c-4.4589233,0.0353718-8.103714-3.3762798-8.1408691-7.6201344
		c-0.0003815-0.0426998-0.0003815-0.0853996,0-0.1280994v-10.482275c-0.0371704-4.2438593,3.5473633-7.7128601,8.0062714-7.7482319
		C141.0737762,5.8759608,141.1186371,5.8759608,141.1635132,5.876318z"/>
	
		<path id="Tracé_826_00000139268549964248965440000015575615485549268633_2_00000004546072969602374920000006099600358219879833_" class="st12" d="
		M165.3993073,5.876318L165.3993073,5.876318c4.4589233-0.0353723,8.103714,3.3762779,8.1408691,7.6201372
		c0.0003815,0.0426979,0.0003815,0.0853968,0,0.1280947l0,0v10.482275c0.0371704,4.2438583-3.5473633,7.712862-8.0062714,7.7482338
		c-0.0448608,0.0003567-0.0897217,0.0003567-0.1345978,0l0,0c-4.4589081,0.0353718-8.1036987-3.3762798-8.1408539-7.6201344
		c-0.0003815-0.0426998-0.0003815-0.0853996,0-0.1280994v-10.482275c-0.0371704-4.2438593,3.5473633-7.7128601,8.0062714-7.7482319
		C165.3095856,5.8759608,165.3544464,5.8759608,165.3993073,5.876318z"/>
	
		<path id="Tracé_827_00000095326724250973253690000004318942986274537405_2_00000164482782985840998520000017674256869765339028_" class="st12" d="
		M189.6351166,5.876318L189.6351166,5.876318c4.4589233-0.0353723,8.1036987,3.3762779,8.1408691,7.6201372
		c0.0003815,0.0426979,0.0003815,0.0853968,0,0.1280947v10.482275c0.0371704,4.2438583-3.5473633,7.712862-8.0062714,7.7482338
		c-0.0448608,0.0003567-0.0897217,0.0003567-0.1345978,0l0,0c-4.4589081,0.0353718-8.1036987-3.3762798-8.1408539-7.6201344
		c-0.0003815-0.0426998-0.0003815-0.0853996,0-0.1280994v-10.482275c-0.0371704-4.2438593,3.5473633-7.7128601,8.0062714-7.7482319
		C189.5453949,5.8759608,189.5902557,5.8759608,189.6351166,5.876318z"/>
	<path id="Tracé_825_00000057828236916327526780000011407049672905221804_" class="st19" d="M238.8203278,0.0001313
		c10.4132385,0.0148716,18.85112,8.4527645,18.8659821,18.8660011l0,0
		c0.0598145,10.3590317-8.2893219,18.8051815-18.6483612,18.8650036c-0.0725403,0.0004158-0.1450806,0.0004158-0.2176208-0.0000076
		H18.8663273C8.4534769,37.716259,0.0157482,29.2789822,0.0003254,18.8661327l0,0
		C-0.0600498,8.507103,8.2886591,0.0605065,18.6476879,0.0001313C18.7205677-0.0002941,238.8203278,0.0001313,238.8203278,0.0001313
		z"/>
	<path id="Tracé_826_00000165211162177864987610000013798624098685439677_" class="st12" d="M19.9844704,5.8763251
		L19.9844704,5.8763251c4.45891-0.0353723,8.1037006,3.3762784,8.1408653,7.6201377
		c0.0003738,0.042697,0.0003738,0.0853968,0,0.1280937l0,0v10.482276c0.0371647,4.2438583-3.547369,7.712862-8.0062752,7.7482338
		c-0.0448627,0.0003567-0.0897274,0.0003567-0.1345901,0l0,0c-4.4589109,0.0353718-8.1037006-3.3762798-8.1408653-7.6201363
		c-0.0003748-0.0426979-0.0003748-0.0853977,0-0.1280975v-10.482276c-0.0371637-4.2438593,3.547369-7.7128592,8.006279-7.7482314
		C19.894743,5.8759685,19.9396076,5.8759685,19.9844704,5.8763251z"/>
	<path id="Tracé_827_00000100380498257040406110000013077849202989460378_" class="st12" d="M44.2202759,5.8763251
		L44.2202759,5.8763251c4.4589119-0.0353723,8.1037025,3.3762784,8.1408653,7.6201377
		c0.0003777,0.042697,0.0003777,0.0853968,0,0.1280937v10.482276c0.0371666,4.2438583-3.5473671,7.712862-8.0062752,7.7482338
		c-0.0448608,0.0003567-0.0897255,0.0003567-0.1345901,0l0,0c-4.4589081,0.0353718-8.1036987-3.3762798-8.1408615-7.6201363
		c-0.0003777-0.0426979-0.0003777-0.0853977,0-0.1280975v-10.482276c-0.0371666-4.2438593,3.5473671-7.7128592,8.006279-7.7482314
		C44.1305504,5.8759685,44.175415,5.8759685,44.2202759,5.8763251z"/>
	
		<path id="Tracé_826_00000139268549964248965440000015575615485549268633_2_00000124877928160563626110000017732204081421899138_" class="st12" d="
		M68.4560852,5.8763251L68.4560852,5.8763251c4.4589081-0.0353723,8.1036987,3.3762784,8.1408615,7.6201377
		c0.0003815,0.042697,0.0003815,0.0853968,0,0.1280937l0,0v10.482276c0.0371704,4.2438583-3.5473633,7.712862-8.0062714,7.7482338
		c-0.0448608,0.0003567-0.0897293,0.0003567-0.1345901,0l0,0c-4.4589119,0.0353718-8.1036987-3.3762798-8.1408653-7.6201363
		c-0.0003738-0.0426979-0.0003738-0.0853977,0-0.1280975v-10.482276c-0.0371628-4.2438593,3.5473671-7.7128592,8.0062828-7.7482314
		C68.3663559,5.8759685,68.4112244,5.8759685,68.4560852,5.8763251z"/>
	
		<path id="Tracé_827_00000095326724250973253690000004318942986274537405_2_00000067197723647305012830000005985826732842273711_" class="st12" d="
		M92.6918945,5.8763251L92.6918945,5.8763251c4.4589081-0.0353723,8.1036987,3.3762784,8.1408615,7.6201377
		c0.0003738,0.042697,0.0003738,0.0853968,0,0.1280937v10.482276c0.0371628,4.2438583-3.5473709,7.712862-8.0062714,7.7482338
		c-0.0448685,0.0003567-0.0897293,0.0003567-0.1345901,0l0,0c-4.4589157,0.0353718-8.1036987-3.3762798-8.1408691-7.6201363
		c-0.0003738-0.0426979-0.0003738-0.0853977,0-0.1280975v-10.482276c-0.0371628-4.2438593,3.5473709-7.7128592,8.006279-7.7482314
		C92.6021652,5.8759685,92.6470261,5.8759685,92.6918945,5.8763251z"/>
	
		<path id="Tracé_826_00000139268549964248965440000015575615485549268633_2_00000117653729728620972360000009202362464279046576_" class="st12" d="
		M116.9276962,5.8763251L116.9276962,5.8763251c4.4589157-0.0353723,8.1037064,3.3762784,8.1408691,7.6201377
		c0.0003738,0.042697,0.0003738,0.0853968,0,0.1280937l0,0v10.482276c0.0371628,4.2438583-3.5473709,7.712862-8.006279,7.7482338
		c-0.0448608,0.0003567-0.0897217,0.0003567-0.1345901,0l0,0c-4.4589081,0.0353718-8.1036987-3.3762798-8.1408615-7.6201363
		c-0.0003738-0.0426979-0.0003738-0.0853977,0-0.1280975v-10.482276c-0.0371628-4.2438593,3.5473709-7.7128592,8.006279-7.7482314
		C116.8379745,5.8759685,116.8828354,5.8759685,116.9276962,5.8763251z"/>
	
		<path id="Tracé_827_00000095326724250973253690000004318942986274537405_2_00000021083338548398470770000011194755881641536414_" class="st12" d="
		M141.1635132,5.8763251L141.1635132,5.8763251c4.4589081-0.0353723,8.1036987,3.3762784,8.1408539,7.6201377
		c0.0003815,0.042697,0.0003815,0.0853968,0,0.1280937v10.482276c0.0371704,4.2438583-3.5473633,7.712862-8.0062714,7.7482338
		c-0.0448608,0.0003567-0.0897217,0.0003567-0.1345825,0l0,0c-4.4589233,0.0353718-8.103714-3.3762798-8.1408691-7.6201363
		c-0.0003815-0.0426979-0.0003815-0.0853977,0-0.1280975v-10.482276c-0.0371704-4.2438593,3.5473633-7.7128592,8.0062714-7.7482314
		C141.0737762,5.8759685,141.1186371,5.8759685,141.1635132,5.8763251z"/>
	
		<path id="Tracé_826_00000139268549964248965440000015575615485549268633_2_00000069358744123212381890000010273446041435333819_" class="st12" d="
		M165.3993073,5.8763251L165.3993073,5.8763251c4.4589233-0.0353723,8.103714,3.3762784,8.1408691,7.6201377
		c0.0003815,0.042697,0.0003815,0.0853968,0,0.1280937l0,0v10.482276c0.0371704,4.2438583-3.5473633,7.712862-8.0062714,7.7482338
		c-0.0448608,0.0003567-0.0897217,0.0003567-0.1345978,0l0,0c-4.4589081,0.0353718-8.1036987-3.3762798-8.1408539-7.6201363
		c-0.0003815-0.0426979-0.0003815-0.0853977,0-0.1280975v-10.482276c-0.0371704-4.2438593,3.5473633-7.7128592,8.0062714-7.7482314
		C165.3095856,5.8759685,165.3544464,5.8759685,165.3993073,5.8763251z"/>
	
		<path id="Tracé_827_00000095326724250973253690000004318942986274537405_2_00000147185861997462289660000013508811581533886121_" class="st12" d="
		M189.6351166,5.8763251L189.6351166,5.8763251c4.4589233-0.0353723,8.1036987,3.3762784,8.1408691,7.6201377
		c0.0003815,0.042697,0.0003815,0.0853968,0,0.1280937v10.482276c0.0371704,4.2438583-3.5473633,7.712862-8.0062714,7.7482338
		c-0.0448608,0.0003567-0.0897217,0.0003567-0.1345978,0l0,0c-4.4589081,0.0353718-8.1036987-3.3762798-8.1408539-7.6201363
		c-0.0003815-0.0426979-0.0003815-0.0853977,0-0.1280975v-10.482276c-0.0371704-4.2438593,3.5473633-7.7128592,8.0062714-7.7482314
		C189.5453949,5.8759685,189.5902557,5.8759685,189.6351166,5.8763251z"/>
</g>
<g id="TEXTES_FR">
</g>
<g id="TEXTES_GB">
</g>
</svg>
