<?xml version="1.0" encoding="utf-8"?>
<!-- Generator: Adobe Illustrator 26.2.1, SVG Export Plug-In . SVG Version: 6.00 Build 0)  -->
<svg version="1.1" id="Calque_1" xmlns="http://www.w3.org/2000/svg" xmlns:xlink="http://www.w3.org/1999/xlink" x="0px" y="0px"
	 viewBox="0 0 428 249.6" style="enable-background:new 0 0 428 249.6;" xml:space="preserve">
<style type="text/css">
	.st0{fill:#FFBCC6;}
	.st1{fill:#272F60;}
	.st2{fill:#FD657C;}
</style>
<g id="TEXTES_FR">
</g>
<g>
	<g id="ILLUSTRATIONS">
		<g id="ICONO_00000106146638389688480380000003737143471680260008_" transform="translate(0 -131.446)">
			<g id="Groupe_98_00000147906020715556563310000015387886604782682788_">
				<path id="Tracé_137_00000123412605400838848170000006363316845765718952_" class="st0" d="M66.7,265.6L0,303.5v77.4l1.3-0.8
					l15.4-8.7l13.7-7.8l5.4-3l10-5.7l54.1-30.7L66.7,265.6z"/>
				<path id="Tracé_138_00000152240194233321568380000011073539779782323349_" class="st1" d="M193,160.5l-10.6-5.7l0,0v-0.1
					l-3.5-1.8l-0.2-0.1l-0.3-0.1L152.6,139c-6.9-3.6-15.5-1-19.2,5.9l-0.1,0.2L117,175.5l-3.6,6.7L102.9,202l-3.6,6.8l-9.5,17.8
					l-3.6,6.8L78,248.6c-3.7,6.9-1,15.5,5.9,19.2c6.9,3.7,15.5,1,19.2-5.9l7.7-14.5l0,0l3.6-6.8l0,0l1-1.9l9.5-17.8l3.6-6.8
					l10.5-19.7l3.6-6.8l4.2-7.8l0,0l3.2-6.1l0.1-0.2l1.6-3l0.3,0.3l-0.2-0.3l10.7,5.7l0,0l2.1,1.1l14.9,8c6.9,3.6,15.5,1,19.2-5.9
					C202.3,172.6,199.8,164.2,193,160.5C193,160.5,193,160.5,193,160.5L193,160.5z"/>
				<path id="Tracé_139_00000085218886926044241380000008295875636622916767_" class="st1" d="M176.7,169.2l-10.6-5.7l0,0v-0.1
					l-3.5-1.8l-0.2-0.1l-0.3-0.1l-25.8-13.8c-6.9-3.6-15.5-1-19.2,5.9l-0.1,0.2l-16.3,30.5l-3.6,6.7l-10.5,19.7l-3.6,6.8l-9.5,17.8
					l-3.6,6.8l-8.2,15.3c-3.7,6.9-1,15.5,5.9,19.2c6.9,3.7,15.5,1,19.2-5.9l0,0l7.7-14.5l0,0l3.6-6.8l0,0l1-1.9l9.5-17.8l3.6-6.8
					l10.5-19.7l3.6-6.8l4.2-7.8l0,0l3.2-6.1l0.1-0.2l1.6-3l0.3,0.3l-0.2-0.3l10.7,5.7l0,0l2.1,1.1l14.9,8c6.9,3.6,15.5,1,19.2-5.9
					C186,181.3,183.5,172.9,176.7,169.2C176.7,169.2,176.7,169.2,176.7,169.2L176.7,169.2z"/>
				<circle id="Ellipse_4_00000044896585233691494890000007793007816407171232_" class="st1" cx="95.1" cy="281.4" r="52.9"/>
				<path id="Tracé_140_00000024687203504484141000000003287076905754580415_" class="st2" d="M127.3,280.6
					c-4.6,6.3-3.1,15.2,3.2,19.7c0,0,0.1,0.1,0.1,0.1l59.4,42.5c6.4,4.6,15.2,3.2,19.8-3.2s3.2-15.2-3.2-19.8c0,0-0.1-0.1-0.1-0.1
					l-59.4-42.5C140.7,272.8,131.9,274.3,127.3,280.6z"/>
				<path id="Tracé_141_00000085966540115153966720000000004979077279815300_" class="st1" d="M169.1,328l7.8,5.6l16.5-23.1
					l-7.8-5.6L169.1,328z"/>
				<path id="Tracé_142_00000160898453596075115040000006651801811311600536_" class="st1" d="M141,308l7.8,5.6l16.5-23.1l-7.8-5.6
					L141,308z"/>
				<path id="Tracé_143_00000152230190061030670010000015515391683142948492_" class="st2" d="M212.3,173.8
					c-3.8,6.8-12.3,9.4-19.2,5.9l-14.9-8l-0.1-0.1l-1.9-1l-10.7-5.7l-0.1-0.1l-1.6,3l-3.3,6.2l-4.2,7.8l-3.6,6.8L142,208.3l-3.6,6.8
					l-9.5,17.8l-3.6,6.8l-4.6,8.8c-3.7,6.9-12.3,9.6-19.2,5.9c-6.9-3.7-9.6-12.3-5.9-19.2l4.1-7.7l3.6-6.8l9.5-17.8l3.6-6.8
					l10.5-19.7l3.6-6.7l16.3-30.5l0.1-0.2c3.8-6.8,12.3-9.4,19.2-5.9l25.8,13.8l0.3,0.1l3.6,1.9l10.6,5.7
					C213.3,158.3,215.9,166.9,212.3,173.8L212.3,173.8z"/>
				<path id="Tracé_144_00000114047271589832627760000017288660677319744653_" class="st1" d="M176,170.7l13-25.3l6.8,3.5l-13,25.3
					L176,170.7z"/>
				<path id="Tracé_145_00000115476954334362337560000003050521712139976602_" class="st1" d="M165.2,164.9l-4.9,9.3l-17.5-27.3
					l4.1-7.6c0.3-0.5,0.8-1.2,1.1-1.7l17.6,27.8L165.2,164.9z"/>
				<path id="Tracé_146_00000060017667348411055700000014220561950854271903_" class="st1" d="M156.1,181.9l-3.6,6.8l-25.7-12.3
					l3.6-6.7L156.1,181.9z"/>
				<path id="Tracé_147_00000090992578186074627370000016654282333223300744_" class="st1" d="M142,208.3l-3.6,6.8l-25.7-12.3
					l3.6-6.8L142,208.3z"/>
				<path id="Tracé_148_00000041981531856039580020000011133674566375720127_" class="st1" d="M127.8,234.8l-3.6,6.8l-25.7-12.3
					l3.6-6.8L127.8,234.8z"/>
				<path id="Tracé_149_00000120537924392679445370000012657534787311139220_" class="st1" d="M234.8,160.5l10.6-5.7l0,0v-0.1
					l3.5-1.8l0.2-0.1l0.3-0.1l25.8-13.8c6.9-3.6,15.5-1,19.2,5.9l0.1,0.2l16.3,30.5l3.6,6.7l10.5,19.7l3.6,6.8l9.5,17.8l3.6,6.8
					l8.2,15.3c3.7,6.9,1,15.5-5.9,19.2c-6.9,3.7-15.5,1-19.2-5.9l0,0l-7.7-14.5l0,0l-3.6-6.8l0,0l-1-1.9l-9.5-17.8l-3.6-6.8
					l-10.5-19.7l-3.6-6.8l-4.2-7.8l0,0l-3.2-6.1l-0.1-0.2l-1.6-3l-0.3,0.3l0.2-0.3l-10.7,5.7l0,0l-2.1,1.1l-14.9,8
					c-6.9,3.6-15.5,1-19.2-5.9c-3.7-6.7-1.3-15,5.4-18.7C234.6,160.6,234.7,160.6,234.8,160.5L234.8,160.5z"/>
				<path id="Tracé_150_00000147195029620951328950000008720309560882923136_" class="st0" d="M428,303.7l-67-38.1l-33.2,58.6
					l54.1,30.7l10.1,5.7l5.3,3l13.7,7.8l15.4,8.7l1.6,0.9V303.7z"/>
				<path id="Tracé_151_00000096767761345090797460000002777614661290082208_" class="st1" d="M251.1,169.2l10.6-5.7l0,0v-0.1
					l3.5-1.8l0.2-0.1l0.3-0.1l25.8-13.8c6.9-3.6,15.5-1,19.2,5.9l0.1,0.2l16.3,30.5l3.6,6.7l10.5,19.7l3.6,6.8l9.5,17.8l3.6,6.8
					l8.2,15.3c3.7,6.9,1,15.5-5.9,19.2c-6.9,3.7-15.5,1-19.2-5.9l-7.7-14.5l0,0l-3.6-6.8l0,0l-1-1.9l-9.5-17.8l-3.6-6.8L305,203.3
					l-3.6-6.8l-4.2-7.8l0,0l-3.2-6.1l-0.1-0.2l-1.6-3l-0.3,0.3l0.2-0.3l-10.7,5.7l0,0l-2.1,1.1l-14.9,8c-6.9,3.6-15.5,1-19.2-5.9
					C241.6,181.5,244.2,172.9,251.1,169.2C251,169.3,251.1,169.2,251.1,169.2L251.1,169.2z"/>
				<circle id="Ellipse_5_00000032610924135959416270000014676074088682492552_" class="st1" cx="332.6" cy="281.4" r="52.9"/>
				<path id="Tracé_152_00000147933706382119809480000014122704493843647622_" class="st2" d="M300.5,280.6
					c4.6,6.3,3.1,15.2-3.2,19.7c0,0-0.1,0.1-0.1,0.1l-59.4,42.5c-6.4,4.6-15.2,3.2-19.8-3.2s-3.2-15.2,3.2-19.8c0,0,0.1-0.1,0.1-0.1
					l59.4-42.5C287.1,272.8,295.9,274.3,300.5,280.6z"/>
				<path id="Tracé_153_00000101104176094860830180000002933529726885967002_" class="st1" d="M258.7,328l-7.8,5.6l-16.5-23.1
					l7.8-5.6L258.7,328z"/>
				<path id="Tracé_154_00000139971963093126323690000003490419483383923355_" class="st1" d="M286.7,308l-7.8,5.6l-16.5-23.1
					l7.8-5.6L286.7,308z"/>
				<path id="Tracé_155_00000060031441873113628650000004719851001066558871_" class="st2" d="M215.5,173.8
					c3.8,6.8,12.3,9.4,19.2,5.9l14.9-8l0.1-0.1l1.9-1l10.7-5.7l0.1-0.1l1.6,3l3.3,6.2l4.2,7.8l3.6,6.8l10.5,19.7l3.6,6.8l9.5,17.8
					l3.6,6.8l4.6,8.8c3.7,6.9,12.3,9.6,19.2,5.9c6.9-3.7,9.6-12.3,5.9-19.2l-4.1-7.7l-3.6-6.8l-9.5-17.8l-3.6-6.8l-10.5-19.7
					l-3.6-6.7L281,139.1l-0.1-0.2c-3.8-6.8-12.3-9.4-19.2-5.9l-25.8,13.8l-0.3,0.1l-3.6,1.9l-10.6,5.7
					C214.5,158.3,211.9,166.9,215.5,173.8L215.5,173.8z"/>
				<path id="Tracé_156_00000032631352396609904400000010711197764598397321_" class="st1" d="M231.9,148.9l6.8-3.5l13,25.3
					l-6.8,3.5L231.9,148.9z"/>
				<path id="Tracé_157_00000181047201113016339650000006643749892397375420_" class="st1" d="M262.5,164.9l4.9,9.3l17.5-27.3
					l-4.1-7.6c-0.3-0.5-0.8-1.2-1.1-1.7l-17.6,27.8L262.5,164.9z"/>
				<path id="Tracé_158_00000092435583912400446670000000775455580311615410_" class="st1" d="M271.6,181.9l3.6,6.8l25.7-12.3
					l-3.6-6.7L271.6,181.9z"/>
				<path id="Tracé_159_00000090273584901928367110000017655087392170808747_" class="st1" d="M285.7,208.3l3.6,6.8l25.7-12.3
					l-3.6-6.8L285.7,208.3z"/>
				<path id="Tracé_160_00000047034518828816896410000010004072208294614942_" class="st1" d="M299.9,234.8l3.6,6.8l25.7-12.3
					l-3.6-6.8L299.9,234.8z"/>
				<path id="Tracé_161_00000078010938283989787450000007719880370119953801_" class="st1" d="M428,309.5l-30.7,54.1l13.7,7.8
					l15.4,8.7l1.6-2.8V309.5z"/>
				<path id="Tracé_162_00000042010207939701222820000010678460788247714988_" class="st1" d="M0,318.7v62l12.9-7.3l13.7-7.8
					L0,318.7z"/>
			</g>
		</g>
	</g>
	<g id="TEXTES_GB">
	</g>
</g>
</svg>
