<?xml version="1.0" encoding="utf-8"?>
<!-- Generator: Adobe Illustrator 26.2.1, SVG Export Plug-In . SVG Version: 6.00 Build 0)  -->
<svg version="1.1" xmlns="http://www.w3.org/2000/svg" xmlns:xlink="http://www.w3.org/1999/xlink" x="0px" y="0px"
	 viewBox="0 0 96.1815414 68.0638733" style="enable-background:new 0 0 96.1815414 68.0638733;" xml:space="preserve">
<style type="text/css">
	.st0{fill:url(#FOND_00000179613539872638296070000011694992042498442629_);}
	.st1{fill:url(#FOND_00000149380233787650291190000000902927331228173465_);}
	.st2{fill:#FFF5F7;}
	.st3{fill:url(#FOND_00000129895109681838133460000000197433126762876816_);}
	.st4{fill:url(#FOND_00000050645670311678987300000013601332793536554124_);}
	.st5{fill:url(#FOND_00000114073691877138867710000005700974587812176829_);}
	.st6{fill:url(#FOND_00000019643756504557977310000002370721649105761705_);}
	.st7{fill:url(#FOND_00000054950314717062902750000011892549391213257628_);}
	.st8{fill:url(#FOND_00000044882058487935023210000015885497856828371329_);}
	.st9{fill:url(#FOND_00000152224280900083433870000000951686590801823644_);}
	.st10{fill:url(#FOND_00000034769148717490770400000000083443596862199729_);}
	.st11{fill:#272F60;}
	.st12{fill:#FD657C;}
	.st13{fill:url(#FOND_00000178199480097544674740000009618049322720143751_);}
	.st14{fill:url(#FOND_00000103959925056820807460000014554285459364344727_);}
	.st15{fill:#F4AAB9;}
	.st16{clip-path:url(#Rectangle_10_00000173124294489501504600000010862819511724853433_);}
	.st17{fill:#FB657C;}
	.st18{fill:#FFFFFF;}
	.st19{fill:#FFBCC6;}
	.st20{clip-path:url(#SVGID_00000093897148170080822020000002660978506409301891_);}
	.st21{enable-background:new    ;}
	.st22{fill:#FB657C;stroke:#FD657C;stroke-width:3.8352001;stroke-linecap:round;stroke-linejoin:round;stroke-miterlimit:1.4382;}
	.st23{fill:#FFBCC6;stroke:#FFBCC6;stroke-width:3.8352001;stroke-linecap:round;stroke-linejoin:round;stroke-miterlimit:1.4382;}
	.st24{clip-path:url(#SVGID_00000061462306947214447320000003130868184955571637_);fill:#FB657C;}
	.st25{clip-path:url(#SVGID_00000048500393941993732240000012386878161107173780_);fill:#FFBCC6;}
	.st26{clip-path:url(#SVGID_00000170271631920522217100000004843405315591462046_);fill:#FFBCC6;}
	.st27{clip-path:url(#SVGID_00000062877076150920202510000016679522488044988554_);fill:#FFBCC6;}
	.st28{clip-path:url(#SVGID_00000021800212332552862170000010735049378069108149_);fill:#FFBCC6;}
	.st29{clip-path:url(#SVGID_00000126292290451890248840000008881712154554084756_);fill:#FFBCC6;}
	.st30{clip-path:url(#SVGID_00000168821803783102984230000016332571167027389584_);fill:#FFBCC6;}
	.st31{clip-path:url(#SVGID_00000093159282734593346830000012159270554884829868_);fill:#FFBCC6;}
	.st32{clip-path:url(#SVGID_00000014607161207410724610000006979213495776524204_);fill:#FFBCC6;}
	.st33{clip-path:url(#SVGID_00000095321385638508285840000015685972616011202709_);fill:#FFBCC6;}
	.st34{clip-path:url(#SVGID_00000183928361301667159270000010897118603316439723_);fill:#FFBCC6;}
	.st35{clip-path:url(#SVGID_00000156579262873630738850000006989914852625038258_);fill:#FFBCC6;}
	.st36{clip-path:url(#SVGID_00000183946559519055856610000004192086759395688622_);fill:#FFBCC6;}
	.st37{clip-path:url(#SVGID_00000090261857238919475790000017971658535888663172_);fill:#FFBCC6;}
	.st38{clip-path:url(#SVGID_00000155124245254499729520000010998202906688060350_);fill:#FFBCC6;}
	.st39{clip-path:url(#SVGID_00000121247024988196926690000015700814542442751132_);fill:#272F60;}
	.st40{clip-path:url(#SVGID_00000121247024988196926690000015700814542442751132_);fill:#FB657C;}
	.st41{clip-path:url(#SVGID_00000121247024988196926690000015700814542442751132_);fill:#FFBCC6;}
	.st42{clip-path:url(#SVGID_00000121247024988196926690000015700814542442751132_);fill:#FFFFFF;}
	.st43{fill:none;}
	.st44{clip-path:url(#SVGID_00000183933533450136349070000014736841341475996079_);fill:#FFFFFF;}
	.st45{clip-path:url(#SVGID_00000029011416298630993130000017385686106972043140_);fill:#FFFFFF;}
	.st46{clip-path:url(#SVGID_00000037660754459414674160000005112752138627325068_);fill:#FFFFFF;}
	.st47{clip-path:url(#SVGID_00000166646936027203454080000015166445548979712160_);fill:#FFFFFF;}
	.st48{clip-path:url(#SVGID_00000018232614082107271290000005332472511049439405_);fill:#FFFFFF;}
	.st49{clip-path:url(#SVGID_00000114759227970666299930000007722735017317898426_);fill:#FFFFFF;}
	.st50{clip-path:url(#SVGID_00000127735356629343230310000004355059916071872174_);fill:#FFFFFF;}
	.st51{clip-path:url(#SVGID_00000041260313200624211210000005033116663341655193_);fill:#FFFFFF;}
	.st52{clip-path:url(#SVGID_00000168095284334986484390000017538630507585178258_);fill:#FFFFFF;}
	.st53{clip-path:url(#SVGID_00000061436998317979465860000002515914240551763593_);fill:#FFFFFF;}
	.st54{clip-path:url(#SVGID_00000098184290855400766690000010100805518929926043_);fill:#FFFFFF;}
	.st55{clip-path:url(#SVGID_00000063634780604182815380000002221752036314047393_);fill:#FFFFFF;}
	.st56{clip-path:url(#SVGID_00000063632024048755356100000007535429671491356544_);fill:#FB657C;}
	.st57{clip-path:url(#SVGID_00000175312176031827401400000006706460498785123247_);fill:#FFFFFF;}
	.st58{clip-path:url(#SVGID_00000097463222677864685550000009469026601686542480_);fill:#FFFFFF;}
	.st59{fill:#FF647B;}
	.st60{fill:#FF657C;}
	.st61{fill:#272E5F;}
	.st62{fill:none;stroke:#272E5F;stroke-width:3;}
	.st63{clip-path:url(#SVGID_00000141434813858733455410000005155862268558119334_);}
	.st64{fill:#606060;}
	.st65{fill:#E94B67;}
	.st66{fill:#132350;}
	.st67{fill:#050605;}
	.st68{fill:#FFF5F7;stroke:#272E5F;stroke-width:2;}
	.st69{fill:none;stroke:#272E5F;stroke-width:2;stroke-linecap:round;stroke-linejoin:round;stroke-miterlimit:10;}
	.st70{fill:none;stroke:#272E5F;stroke-width:2;}
	.st71{fill:none;stroke:#272E5F;stroke-width:3;stroke-linecap:round;stroke-linejoin:round;stroke-miterlimit:10;}
	.st72{fill:none;stroke:#142664;stroke-width:2;stroke-linecap:round;stroke-linejoin:round;stroke-miterlimit:10;}
	.st73{clip-path:url(#SVGID_00000113322935469591875770000012133598502026516106_);}
	.st74{clip-path:url(#SVGID_00000128460773580144604690000017540342741061330057_);}
	.st75{clip-path:url(#SVGID_00000173851060110723256480000008104259196379473578_);fill:#FD657C;}
	.st76{clip-path:url(#SVGID_00000007386092390536301370000003154210565868904071_);fill:#FD657C;}
	.st77{clip-path:url(#SVGID_00000070828085611830571740000011741817335519068857_);}
	.st78{clip-path:url(#SVGID_00000120541207517684397000000003104250283016169109_);}
	.st79{clip-path:url(#SVGID_00000080194029266536961090000005327359317109756565_);}
	.st80{fill:none;stroke:#142664;stroke-width:3;stroke-linecap:round;stroke-linejoin:round;}
	.st81{clip-path:url(#SVGID_00000113316439982560702630000009824523877801013923_);}
	.st82{clip-path:url(#SVGID_00000105423449575885984020000015226110798114156986_);}
	.st83{clip-path:url(#SVGID_00000068641203741885858450000007162603364274914723_);}
	.st84{clip-path:url(#SVGID_00000168100727537262563980000002234858819207401117_);}
	.st85{clip-path:url(#SVGID_00000105392100329340926950000005666967206890490240_);}
	.st86{clip-path:url(#SVGID_00000150090659227725315890000013613438862812035745_);}
	.st87{clip-path:url(#SVGID_00000160877942547822703410000005215693889395169680_);}
	.st88{clip-path:url(#SVGID_00000111910355486841562090000013300496507094356634_);}
	.st89{clip-path:url(#SVGID_00000059291810744289302290000009554468375035579791_);}
	.st90{clip-path:url(#SVGID_00000058553322701130453910000004346555365829469603_);}
	.st91{clip-path:url(#SVGID_00000098900884955600323440000010680229720969429181_);}
	.st92{clip-path:url(#SVGID_00000166651191887417103560000000839917943434043277_);}
	.st93{clip-path:url(#SVGID_00000008863049831254439270000015960522069684439223_);}
	.st94{clip-path:url(#SVGID_00000013874293864436284770000012232227295655564956_);}
	.st95{clip-path:url(#SVGID_00000121270267456031714450000010510905507401237682_);}
	.st96{clip-path:url(#SVGID_00000145771863633039191140000012219955537145362878_);}
	.st97{clip-path:url(#SVGID_00000083793720487732439400000015130412506365135505_);}
	.st98{clip-path:url(#SVGID_00000000211813766837732040000001611399845364968886_);}
	.st99{clip-path:url(#SVGID_00000120539546406483848230000006642232495468273030_);}
	.st100{clip-path:url(#SVGID_00000026158452565642681490000001199927959710139567_);}
	.st101{clip-path:url(#SVGID_00000134948249738447310900000008799985823039264673_);}
	.st102{clip-path:url(#SVGID_00000147927009894456484110000001440104272199205299_);}
	.st103{clip-path:url(#SVGID_00000119805655544513513170000006590584604388533944_);}
	.st104{clip-path:url(#SVGID_00000047738605587491100830000006327020111800645049_);}
	.st105{clip-path:url(#SVGID_00000158742466518783320490000004492784024186458809_);}
	.st106{clip-path:url(#SVGID_00000017497838135593037730000014912204269542082690_);}
	.st107{clip-path:url(#SVGID_00000158007434522549787590000000295754861071178124_);}
	.st108{clip-path:url(#SVGID_00000065070488700600810790000017833191524865168784_);}
	.st109{clip-path:url(#SVGID_00000129917950326621479280000001599244983462514105_);}
	.st110{clip-path:url(#SVGID_00000095305057678908342800000007673722726663763890_);}
	.st111{clip-path:url(#SVGID_00000109745413633377235060000015834213723604584622_);}
	.st112{clip-path:url(#SVGID_00000030449376613146043630000017497761504037851304_);}
	.st113{clip-path:url(#SVGID_00000036939754160496170170000002938101755754191802_);}
	.st114{clip-path:url(#SVGID_00000088823608167219131880000005379981282316482693_);}
	.st115{clip-path:url(#SVGID_00000075141672405540660900000006924034746003588224_);}
	.st116{clip-path:url(#SVGID_00000116937191082194958930000009620245434663172503_);}
	.st117{clip-path:url(#SVGID_00000052826016837584572510000013145103523180969636_);}
	.st118{clip-path:url(#SVGID_00000008108895528268078780000005137805604666770821_);}
	.st119{clip-path:url(#SVGID_00000139270220227504775970000016441076263060890294_);}
	.st120{clip-path:url(#SVGID_00000059282490917766833120000001535921147313959826_);}
	.st121{clip-path:url(#SVGID_00000176016816656490454030000013432898250268392320_);}
	.st122{clip-path:url(#SVGID_00000058558632182051279060000017606715039347825595_);}
	.st123{clip-path:url(#SVGID_00000052805342272624779680000015719802392463432354_);}
	.st124{fill:#FFFFFF;stroke:#142664;stroke-width:3;stroke-linecap:round;stroke-linejoin:round;}
	.st125{clip-path:url(#SVGID_00000002372220486466282100000008589735263000020115_);}
	.st126{fill-rule:evenodd;clip-rule:evenodd;fill:#FFBCC6;}
	.st127{fill-rule:evenodd;clip-rule:evenodd;fill:#272F60;}
	.st128{fill-rule:evenodd;clip-rule:evenodd;fill:#FFFFFF;}
	.st129{fill-rule:evenodd;clip-rule:evenodd;fill:#FB657C;}
	.st130{clip-path:url(#SVGID_00000148631949737050115820000004000067546478652042_);}
	.st131{clip-path:url(#SVGID_00000126302859383308036630000011241979189628724871_);}
	.st132{clip-path:url(#SVGID_00000178899297362598642780000008972894712433348757_);}
	.st133{clip-path:url(#SVGID_00000086654688418664361360000006974668728409353865_);}
	.st134{clip-path:url(#SVGID_00000011000730355460680960000001400212776390253472_);}
	.st135{clip-path:url(#SVGID_00000112621691583656578740000014996336997239421571_);}
	.st136{clip-path:url(#SVGID_00000159459794646218623270000010545622220435419318_);}
	.st137{clip-path:url(#SVGID_00000073679671671353776210000012334366080441447301_);}
	.st138{clip-path:url(#SVGID_00000096057064926686594780000017969154045312453031_);}
	.st139{clip-path:url(#SVGID_00000011727204541005116160000002002792115906091143_);}
	.st140{clip-path:url(#SVGID_00000149345128410985649660000013908796682368864154_);}
	.st141{clip-path:url(#SVGID_00000153688434281723814100000017433891456704612782_);}
	.st142{clip-path:url(#SVGID_00000092457350611259564350000012973896124297380776_);}
	.st143{clip-path:url(#SVGID_00000025409754259640618660000017779271410892871046_);}
	.st144{clip-path:url(#SVGID_00000001659870954813283230000011172585195195183022_);}
	.st145{clip-path:url(#SVGID_00000008129103260482110200000016854480355856470668_);}
	.st146{clip-path:url(#SVGID_00000054955569614466770850000014498520819064029856_);}
	.st147{clip-path:url(#SVGID_00000142890529302643800070000007314331142547495615_);}
	.st148{clip-path:url(#SVGID_00000063620683251946362420000010790002680871524779_);}
	.st149{clip-path:url(#SVGID_00000111149152810672836830000008830248676531212425_);}
	.st150{clip-path:url(#SVGID_00000058562743672393417840000017342745160992980671_);}
	.st151{clip-path:url(#SVGID_00000043450501432354589010000016039849774096037294_);}
	.st152{clip-path:url(#SVGID_00000072254890853908141940000003868504982934148760_);}
	.st153{clip-path:url(#SVGID_00000111177911786685391090000003010161803758113673_);}
	.st154{clip-path:url(#SVGID_00000146464772497853630590000005038464926236161465_);}
	.st155{clip-path:url(#SVGID_00000124868101787131209150000015492520443339755192_);}
	.st156{clip-path:url(#SVGID_00000115492310836464255530000004033601990655728040_);}
	.st157{clip-path:url(#SVGID_00000135678681400179844610000017537636875736112555_);}
	.st158{clip-path:url(#SVGID_00000027572994864812729280000012694513824371779513_);}
	.st159{clip-path:url(#SVGID_00000081630559128640449170000001074865551706131073_);}
	.st160{clip-path:url(#SVGID_00000080915230597214260330000003440290527490350994_);}
	.st161{clip-path:url(#SVGID_00000138558942875650060820000001009662258054184119_);}
	.st162{clip-path:url(#SVGID_00000080923893976001005760000000066837359324796055_);}
	.st163{clip-path:url(#SVGID_00000103973541615814879960000000605131205608558235_);}
	.st164{clip-path:url(#SVGID_00000142174663761023508920000000788654838839787433_);}
	.st165{clip-path:url(#SVGID_00000052084823121263124930000016938038269769826967_);}
	.st166{clip-path:url(#SVGID_00000080928369855374061060000013360726099299490737_);}
	.st167{clip-path:url(#SVGID_00000074404448550172040920000001794804982543255191_);}
	.st168{clip-path:url(#SVGID_00000099654165304729624530000004114206022902957705_);}
	.st169{clip-path:url(#SVGID_00000029727345225375337630000017581245470464897685_);}
	.st170{clip-path:url(#SVGID_00000112608731761914054610000013631893486801520520_);}
	.st171{clip-path:url(#SVGID_00000165951834713957505160000017592822864252767623_);}
	.st172{clip-path:url(#SVGID_00000145045950650090324740000014573676544152072853_);}
	.st173{clip-path:url(#SVGID_00000143587676830016219060000000477862285879290284_);}
	.st174{clip-path:url(#SVGID_00000093168573458690451070000017199170532285880740_);}
	.st175{clip-path:url(#SVGID_00000121966061310864691270000013654682242818413740_);}
	.st176{clip-path:url(#SVGID_00000132071443514473313000000002368837531508124081_);}
	.st177{clip-path:url(#SVGID_00000024695681967551427700000017316388936520524182_);}
	.st178{clip-path:url(#SVGID_00000173856614526067419820000003457582430634266784_);}
	.st179{clip-path:url(#SVGID_00000086677929750619715200000003657429655863677874_);}
	.st180{clip-path:url(#SVGID_00000124161379307679758610000001580219296621739683_);}
	.st181{clip-path:url(#SVGID_00000003076539611763990640000001265141876204499349_);}
	.st182{clip-path:url(#SVGID_00000086673744838703692520000012294555972787344034_);}
	.st183{clip-path:url(#SVGID_00000058576937920489301070000002166201969021133747_);}
	.st184{clip-path:url(#SVGID_00000031191157383442116810000007512610405775432376_);}
	.st185{clip-path:url(#SVGID_00000132780368621537424880000017205173493327837370_);}
	.st186{clip-path:url(#SVGID_00000145033097794801215040000007862944317358628010_);}
	.st187{clip-path:url(#SVGID_00000119116224238748463480000009949055465899208893_);}
	.st188{clip-path:url(#SVGID_00000111873893392557156910000003678956828129804160_);}
	.st189{clip-path:url(#SVGID_00000099652750156359611020000001224535752756424590_);}
	.st190{clip-path:url(#SVGID_00000091013520455645834000000011219057079330384036_);}
	.st191{clip-path:url(#SVGID_00000063627119797499318130000016932122870756769704_);}
	.st192{clip-path:url(#SVGID_00000039836987714859203310000002649723174094193809_);}
	.st193{clip-path:url(#SVGID_00000181768069961713896470000002974010966762097064_);}
	.st194{clip-path:url(#SVGID_00000011003679109787517890000009188909923738695352_);}
	.st195{clip-path:url(#SVGID_00000044867603941394214060000017188970958000767370_);}
	.st196{clip-path:url(#SVGID_00000170247120021181388220000011844662314895027636_);}
	.st197{clip-path:url(#SVGID_00000121266544250543656960000008754992377875098781_);}
	.st198{clip-path:url(#SVGID_00000016780574482065104490000011833827815419937461_);}
	.st199{clip-path:url(#SVGID_00000026159757540436685820000006161837905212843959_);}
	.st200{clip-path:url(#SVGID_00000127737436368472995480000014468086346450970276_);}
	.st201{clip-path:url(#SVGID_00000098220006939787101050000004118424919848737191_);}
	.st202{clip-path:url(#SVGID_00000094600638618523783660000002003630979891156402_);}
	.st203{clip-path:url(#SVGID_00000162310115137704255580000000770343014635803055_);}
	.st204{clip-path:url(#SVGID_00000171714106685011919620000016141398245072415417_);}
	.st205{clip-path:url(#SVGID_00000137813043765919510500000004494450148557040823_);}
	.st206{clip-path:url(#SVGID_00000132068838030193169320000011907774993019900594_);}
	.st207{clip-path:url(#SVGID_00000070811439686777262280000012251222170778645922_);}
	.st208{clip-path:url(#SVGID_00000149348540316476333300000002658484146555048610_);}
	.st209{clip-path:url(#SVGID_00000176039481012590036800000014198666241789294764_);}
	.st210{clip-path:url(#SVGID_00000009567205095137774670000018385433682294404486_);}
	.st211{clip-path:url(#SVGID_00000016073645720131863910000008237329404005247927_);}
	.st212{clip-path:url(#SVGID_00000072244502208843095660000013888146638528379805_);}
	.st213{clip-path:url(#SVGID_00000050662948358509774120000008143231047427185035_);}
	.st214{clip-path:url(#SVGID_00000161616853293484175970000005503194488421888389_);}
	.st215{clip-path:url(#SVGID_00000034793134800414637420000014125272644898448788_);}
	.st216{clip-path:url(#SVGID_00000052077061727322943680000003313898971017449357_);}
	.st217{clip-path:url(#SVGID_00000159442632656984957580000008567083448421614478_);}
	.st218{clip-path:url(#SVGID_00000049910766795942073120000007831096317089224639_);}
	.st219{clip-path:url(#SVGID_00000099653357980274030450000003285964159270452899_);}
	.st220{clip-path:url(#SVGID_00000083771627716420323700000017883705836707121304_);}
	.st221{clip-path:url(#SVGID_00000168813692615440576770000007147334149149703594_);}
	.st222{clip-path:url(#SVGID_00000031887755642845498340000015902686043161763724_);}
	.st223{clip-path:url(#SVGID_00000116924203001668256980000005606616073706835872_);}
	.st224{clip-path:url(#SVGID_00000120561026329003729310000010954442140323838593_);}
	.st225{clip-path:url(#SVGID_00000059289738347448410480000006343682656706477197_);}
	.st226{clip-path:url(#SVGID_00000130632537697500434980000008481322800117621920_);}
	.st227{clip-path:url(#SVGID_00000112619326933625011040000006084574016624766861_);}
	.st228{clip-path:url(#SVGID_00000005963678373465923690000006182940446832602001_);}
	.st229{clip-path:url(#SVGID_00000091003857871302320390000008461825751201510827_);}
	.st230{clip-path:url(#SVGID_00000085945222032716161440000004967839140808682122_);}
	.st231{clip-path:url(#SVGID_00000126300317280613107640000001146471899140046478_);}
	.st232{clip-path:url(#SVGID_00000068638786668432926400000013484909318720659637_);}
	.st233{clip-path:url(#SVGID_00000133507344804320160620000010090738049557146303_);}
	.st234{clip-path:url(#SVGID_00000057136627638850363430000010394148471135820713_);}
	.st235{clip-path:url(#SVGID_00000182500306416446091190000014273184656286989485_);}
	.st236{clip-path:url(#SVGID_00000060723936268287617390000010329531790014949017_);}
	.st237{clip-path:url(#SVGID_00000143602090624340369870000004596002111252179115_);}
	.st238{clip-path:url(#SVGID_00000124137948367352330970000009721063537665083284_);}
	.st239{clip-path:url(#SVGID_00000089566103188996080230000008115387463923401913_);}
	.st240{clip-path:url(#SVGID_00000036969949335965846710000012317586076139621553_);}
	.st241{clip-path:url(#SVGID_00000164510469591199782380000001723396041986979735_);}
	.st242{clip-path:url(#SVGID_00000075884214319600097660000007610442612927823528_);}
	.st243{clip-path:url(#SVGID_00000044152518754331422620000016892880611997287308_);}
	.st244{clip-path:url(#SVGID_00000093165459825189830280000010942529622008997788_);}
	.st245{clip-path:url(#SVGID_00000164511782219532245560000003033346267919306662_);}
	.st246{clip-path:url(#SVGID_00000140002429895353189840000006511941376998750608_);}
	.st247{clip-path:url(#SVGID_00000170257181046942402330000007620602772401302695_);}
	.st248{clip-path:url(#SVGID_00000128479454393488686370000003539222761145847722_);}
	.st249{clip-path:url(#SVGID_00000178907036673154321380000015824725960997858454_);}
	.st250{clip-path:url(#SVGID_00000057846132573575803610000013939715240337138618_);}
	.st251{clip-path:url(#SVGID_00000101072339659728649770000017761477035617755018_);}
	.st252{clip-path:url(#SVGID_00000000909650291828521160000008224840711798346114_);}
	.st253{clip-path:url(#SVGID_00000081631176197314086790000012471776222290221982_);}
	.st254{clip-path:url(#SVGID_00000174599368484014822860000011583758287438431662_);}
	.st255{clip-path:url(#SVGID_00000033340653521750330890000013244552581969148059_);}
	.st256{clip-path:url(#SVGID_00000135670320683965486300000010711939107579157132_);}
	.st257{clip-path:url(#SVGID_00000015332701604284550940000005732838260367486618_);}
	.st258{clip-path:url(#SVGID_00000113345203867287802230000000414520734360940463_);}
	.st259{clip-path:url(#SVGID_00000001643966245974948610000017785790995932762800_);}
	.st260{fill:#E94966;}
	.st261{fill:#13224F;}
</style>
<g id="FONDS">
</g>
<g id="ILLUSTRATIONS">
	<g id="ICONO_POTES" transform="translate(-280.943 -469.319)">
		<path id="Tracé_4139" class="st11" d="M337.7513123,531.6383057c-1.276001-0.3999634-2.5794983-0.7063599-3.9000854-0.916748
			c-1.9546204-0.3728027-3.9316711-0.6164551-5.918335-0.7294312c-1.9645996-0.055603-3.9307861-0.0092163-5.8905945,0.1390991
			c-1.3673706,0.0774536-2.6701355,0.3009644-3.9695435,0.453125c-1.3724365-0.088623-2.5568542,0.9521484-2.6454468,2.324585
			c-0.088623,1.3723755,0.9521179,2.5568237,2.3245544,2.6454468c1.2735291,0.3525391,2.5482788,0.7044067,3.8977051,0.9882812
			c1.9507141,0.4036255,3.927124,0.6711426,5.914978,0.8007202c1.9890747,0.0827026,3.9814148,0.0354614,5.9643555-0.1412964
			c1.3371277-0.1088257,2.6653442-0.3082886,3.9754944-0.5969849c1.3679199,0.0402832,2.5109558-1.03302,2.5567627-2.4007568
			c0.1061096-1.3095703-0.8695068-2.4572754-2.1790771-2.5633545c-0.0438538-0.0036011-0.0877686-0.0059204-0.1317444-0.007019"/>
		<path id="Tracé_4140" class="st17" d="M318.4816589,529.5205078c-1.1000366-0.9743042-1.7995605-2.3219604-1.9632874-3.7822876
			c-1.0493164-10.5234375,3.9279175-22.5537109,3.9279175-22.5537109s9.6361084-4.7200317,23.5546875,2.4718323
			c0,0,0.926239,13.0466003-2.3580933,22.7760925c-0.3806458,1.0800781-1.2456665,1.9192505-2.336853,2.2669678
			c-0.6614075,0.2215576-1.3419495,0.3814087-2.0328674,0.477417l-0.0687866,2.8139038
			c0,0-7.6373596,2.0770874-18.9676208-0.9416504L318.4816589,529.5205078z"/>
		<path id="Tracé_4141" class="st11" d="M336.2945862,530.6291504c0.5129395-0.0560913,0.987854,0.2771606,1.1096191,0.7785645
			c0.1149597,0.5300293-0.2214966,1.0529175-0.7515259,1.1678467c-0.032074,0.006958-0.0644836,0.0123291-0.0971069,0.0160522
			c-0.3024597,0.1850586-0.6229553,0.3389282-0.9565125,0.4592285c-0.4958496,0.1456299-1.0050964,0.2410278-1.5200195,0.284729
			c-0.5299377-0.0068359-1.0567627-0.0820312-1.5674133-0.223877c-0.3402405-0.1051025-0.6697693-0.2421265-0.9842224-0.4092407
			c-0.5537415-0.0797729-0.9379578-0.5933838-0.8581543-1.1471558c0.0772705-0.5361938,0.5627136-0.916687,1.1018372-0.8635864
			c0.306488-0.0913696,0.6221313-0.1484985,0.9411621-0.1704102c0.4299316-0.0744019,0.8636475-0.1248779,1.2991943-0.1511841
			c0.4302979-0.0154419,0.8611755,0.0057983,1.2879028,0.0634766
			C335.9404297,530.5408325,336.2945862,530.6291504,336.2945862,530.6291504z"/>
		<path id="Tracé_4142" class="st11" d="M329.2858276,512.9436035l2.8017273-0.0764771
			c0.4860535,0.2421265,1.0763855,0.0443726,1.318512-0.4416504c0.242157-0.4860535,0.0444031-1.0763855-0.4416504-1.318512
			c-0.2137146-0.2492371-0.4707031-0.4578552-0.7585449-0.6158142c-0.197052-0.1152649-0.4108276-0.1991577-0.633667-0.2486877
			c-0.3885193-0.1353149-0.7970276-0.2044067-1.2084351-0.2044067c-0.2146606-0.011261-0.3618164,0.0540771-0.5762329,0.0418396
			c-0.42099,0.0967712-0.819458,0.273468-1.1737976,0.5205078c-0.1925049,0.1390991-0.3687134,0.2994995-0.5252686,0.4781189
			c-0.0845947,0.1134033-0.1625671,0.2315979-0.2335815,0.3540039c-0.4382019,0.3806458-0.4848938,1.0444641-0.104248,1.4826965
			c0.0090942,0.010437,0.0183716,0.0206909,0.027832,0.0307617
			C328.2026062,513.343689,328.8629761,513.3426514,329.2858276,512.9436035z"/>
		<path id="Tracé_4143" class="st11" d="M340.0145569,513.6239014l2.7629395,0.7156982
			c0.3831482,0.3609619,0.9818115,0.3590088,1.3625488-0.0045166c0.3591614-0.3869019,0.3581543-0.9855957-0.0023193-1.3713379
			c-0.1416321-0.2957764-0.3207397-0.5721436-0.5328674-0.8223267c-0.1502075-0.1895142-0.3377686-0.3460693-0.5510864-0.4599609
			c-0.339447-0.2342529-0.7215881-0.3995667-1.1247253-0.4865417c-0.1817017-0.0684204-0.3746338-0.1022034-0.5687866-0.0995789
			c-0.4387512-0.0332642-0.8797913,0.0180664-1.2991943,0.1511841c-0.2354736,0.0768433-0.4585266,0.1875305-0.6621399,0.3285828
			c-0.2251892,0.2045898-0.2991333,0.2737732-0.2991333,0.2737732c-0.5224609,0.229126-0.7602234,0.8384399-0.5310669,1.3609009
			c0.0088501,0.0202026,0.0183411,0.0401001,0.0284729,0.0596924
			C338.9174805,513.7211914,339.5193787,513.8717041,340.0145569,513.6239014z"/>
		<path id="Tracé_4144" class="st11" d="M339.7229919,516.5699463c-0.149292,0.3642578-0.2414856,0.7493896-0.2733459,1.1417847
			c-0.0121765,0.3886719,0.0166016,0.7775879,0.0858765,1.1602173c-0.0794067,0.7887573,0.495636,1.4925537,1.2843628,1.5719604
			c0.7887268,0.0793457,1.4925232-0.4956665,1.5718994-1.2844238c0.1492615-0.3642578,0.2414551-0.7493896,0.2733459-1.1417847
			c0.0123596-0.3889771-0.0163574-0.7781982-0.0856018-1.1611938c0.0792236-0.7908325-0.4955444-1.4970093-1.2859802-1.5800171
			C340.5115051,515.2279663,339.8252869,515.7930908,339.7229919,516.5699463"/>
		<path id="Tracé_4145" class="st11" d="M328.9960632,515.8898926c-0.149292,0.3643188-0.2414856,0.7494507-0.2733459,1.1417847
			c-0.0121765,0.3887329,0.0166016,0.7775879,0.0858765,1.1602783c-0.0794067,0.7886963,0.495636,1.4924927,1.2843628,1.5718994
			c0.7887573,0.0794067,1.4925232-0.4956665,1.5718994-1.2843628c0.1492615-0.3643188,0.2414551-0.7493896,0.2733459-1.1417847
			c0.012207-0.3887329-0.016571-0.7775879-0.0858459-1.1602783c0.0792236-0.7907715-0.4955139-1.4969482-1.2859497-1.5800171
			C329.784729,514.5489502,329.0988464,515.1135254,328.9960632,515.8898926z"/>
		<path id="Tracé_4146" class="st11" d="M331.4076538,525.0384521c0.5098267,0.5687866,1.1185303,1.0404053,1.7966003,1.3920288
			c0.6852112,0.3527832,1.4260559,0.5848999,2.1900635,0.6861572c0.4850769,0.0178223,0.9702759-0.0311279,1.4420166-0.1454468
			c1.0578918-0.2351685,2.0288391-0.7617188,2.803009-1.5200195c0.5342102-0.3596191,0.6758118-1.0841675,0.3162231-1.6184082
			c-0.0062561-0.0092773-0.0126648-0.0184937-0.0191956-0.0276489c-0.3478088-0.5301514-1.0594788-0.6779175-1.5895996-0.3301392
			c-0.0155029,0.0101929-0.0307617,0.020752-0.0457764,0.0316162c-0.6760559,0.3220215-1.4253845,0.4591675-2.1716614,0.3974609
			l-0.5015564-0.0219727c-0.2859802-0.0146484-0.5015869-0.0220337-0.7121277-0.0374146
			c-0.6535645-0.1092529-1.2940674-0.2858887-1.9112549-0.5270386c-0.4717102-0.425293-1.1988831-0.3876953-1.624176,0.0839844
			c-0.0126648,0.0139771-0.0249329,0.0283203-0.0368652,0.0429688c-0.4255676,0.3791504-0.4631958,1.0314941-0.0840759,1.4570312
			C331.3041382,524.9519653,331.3538513,524.9978027,331.4076538,525.0384521z"/>
		<path id="Tracé_4147" class="st11" d="M319.480896,500.9696655c1.0501099-2.2337952,2.8693848-4.014801,5.125-5.0171814
			c15.1278687-6.9713135,27.2649841,8.585022,19.4463806,17.0767517l-0.1325378-5.9291687
			c-9.4143066,3.3551331-9.1989441-2.4069519-14.1726074-2.0062866s-5.8190613,5.920105-5.0549316,10.7257385
			c0.4437866,2.6222534-3.4256897,2.5004883-2.8017273,0.0764771c0.4446411-1.7834473,0.1858215-3.7463379-1.5455017-3.5441895
			c-2.3087769,0.2488403-0.9061584,3.7831421-1.1929626,6.6571655c-0.1973267,2.4448853-2.6953735,3.6925659-2.6953735,3.6925659
			C310.0669556,515.6657715,311.1854553,503.3010559,319.480896,500.9696655z"/>
		<path id="Tracé_4152" class="st17" d="M365.0021973,480.7506409c1.1096802-3.3016052,2.0171204-5.7961731,2.0171204-5.7961731
			c0.2605286-1.0421143,1.3165283-1.6757507,2.3586426-1.4152222c1.0412292,0.2602844,1.6748352,1.3147583,1.4158325,2.3562927
			c0,0-0.2677002,2.7973328-0.9401245,6.0647278c0.6743469,0.1681213,1.1790161,0.4382324,1.7175293,0.5725098
			c2.392334,0.7387085,4.0783997,1.4455872,4.0783997,1.4455872c1.0422974,0.2598877,1.6765747,1.3154907,1.416687,2.3577881
			c-0.2598572,1.0422668-1.3154602,1.6765442-2.3577576,1.416687c0,0-1.8205872-0.1674194-4.2799377-0.6373596
			c-0.5385132-0.1342773-1.1104126-0.1346436-1.7847595-0.3027649c-0.1681519,0.6743469-0.4363098,1.1794739-0.5705872,1.7179871
			c-0.7406311,2.3918762-1.4465637,4.078186-1.4465637,4.078186c-0.2605286,1.0421448-1.3165283,1.6757507-2.3586426,1.4152222
			c-1.0411987-0.2602844-1.6748047-1.3147583-1.415802-2.3562927c0,0,0.1674194-1.8205872,0.6383057-4.2796936
			c0.1342773-0.5385132,0.1665649-1.2467346,0.3008423-1.7852478c-3.166748-1.0760803-5.7962036-2.0171509-5.7962036-2.0171509
			c-1.0422668-0.2598877-1.6765442-1.3154907-1.416687-2.3577576c0.2598877-1.0422974,1.3154907-1.6765747,2.3577881-1.416687
			C360.9732056,480.0186768,362.9979248,480.3322144,365.0021973,480.7506409z"/>
		<path id="Tracé_4153" class="st17" d="M368.7078552,520.2387695c-0.5035706-2.1063843-0.8451538-3.7207031-0.8451538-3.7207031
			c-0.2245178-0.6288452,0.103241-1.3205566,0.7320557-1.5450439c0.6287842-0.2244873,1.3205261,0.1032104,1.5450134,0.7320557
			c0.0078125,0.0217896,0.0149536,0.0438843,0.0214844,0.0661011c0,0,0.7790222,1.5626831,1.5032654,3.506897
			c0.4108276-0.1334839,0.7645264-0.15802,1.0935974-0.2648926c1.504425-0.3984375,2.6261597-0.5799561,2.6261597-0.5799561
			c0.6406555-0.1879883,1.3124084,0.1789551,1.5004272,0.8196411c0.1803894,0.6147461-0.150177,1.2634888-0.7535706,1.4789429
			c0,0-1.0148315,0.5105591-2.466095,1.0725098c-0.329071,0.1069336-0.6290283,0.296936-1.039856,0.4304199
			c0.1334839,0.4108276,0.1560974,0.7651367,0.263031,1.0942383c0.398407,1.5043945,0.5818176,2.6255493,0.5818176,2.6255493
			c0.1879883,0.640625-0.1789856,1.3123779-0.8196716,1.5003662c-0.6147461,0.1803589-1.2634583-0.1501465-1.4788818-0.75354
			c0,0-0.5124817-1.0142212-1.0744629-2.4655151c-0.1069031-0.3290405-0.3221741-0.7132568-0.4284973-1.0404053
			c-2.0232849,0.4744263-3.7207031,0.8451538-3.7207031,0.8451538c-0.6287842,0.2244873-1.3205261-0.1032715-1.5450439-0.7320557
			c-0.2244873-0.6287842,0.1032715-1.3205566,0.7320557-1.5450439c0.0218506-0.0078125,0.0438843-0.0149536,0.0661316-0.0214844
			C366.3426514,521.1795654,367.5132446,520.6777954,368.7078552,520.2387695"/>
		<path id="Tracé_4154" class="st17" d="M320.6929016,477.4538269c-0.6460876-1.1477356-1.1174927-2.0346069-1.1174927-2.0346069
			c-0.2270508-0.336731-0.1381531-0.7937927,0.1986084-1.020874c0.336731-0.2270508,0.7937927-0.1381531,1.020874,0.1985779
			c0,0,0.7171021,0.7827148,1.4656677,1.7998352c0.2180176-0.1470337,0.4219971-0.2218628,0.5952759-0.3386841
			c0.8144226-0.4840698,1.4390259-0.7810364,1.4390259-0.7810364c0.3369751-0.2272034,0.794342-0.1382446,1.0215759,0.1987305
			c0.2272034,0.3369751,0.1382446,0.794342-0.1987305,1.0215759c0,0-0.506958,0.4696655-1.2635193,1.0413208
			c-0.1732483,0.1168213-0.3190918,0.2778931-0.5371399,0.4248962c0.1470337,0.2180176,0.2218628,0.4220276,0.3387146,0.5952759
			c0.4856873,0.8132935,0.7810059,1.4390259,0.7810059,1.4390259c0.2270813,0.3367615,0.1381531,0.7938232-0.1985779,1.020874
			c-0.3367615,0.2270813-0.7938232,0.1381836-1.020874-0.1985779l0,0c0,0-0.4696655-0.506958-1.0429993-1.2623901
			c-0.1168213-0.1732483-0.3069458-0.3622131-0.4248962-0.5371399c-1.1012573,0.6220093-2.0334778,1.1191406-2.0334778,1.1191406
			c-0.3369751,0.2272339-0.794342,0.1382751-1.0215759-0.1987c-0.2272034-0.3369751-0.1382446-0.7943726,0.1987305-1.0215759
			C319.4669189,478.3997192,320.067688,477.9104919,320.6929016,477.4538269"/>
		<path id="Tracé_4155" class="st11" d="M290.3019714,474.3506165c0.4962158-1.1890259,1.0620422-2.2078247,1.0620422-2.2078247
			c0.293335-0.7257385,0.9418945-1.2475281,1.713623-1.3786926c0.7735291-0.0955505,1.5561218,0.0823669,2.2123413,0.5029297
			c0,0,1.5962219,1.6416626,3.385498,3.5029602c2.3677063,2.5210571,5.0002441,5.4326172,5.0002441,5.4326172
			c0.5126343,0.4130249,0.5933838,1.1634216,0.1803589,1.6760864c-0.0148926,0.0184937-0.030365,0.0365295-0.0463562,0.0541382
			c-0.4439697,0.5126648-1.2195129,0.5683289-1.7321777,0.1243286c-0.0068054-0.0058594-0.0135498-0.0118408-0.0202026-0.0178528
			c0,0-3.22052-2.1828003-6.0817871-4.2083435c-0.4356995-0.3201294-0.7515259-0.5914307-1.1872253-0.9115906
			c-0.4948425,1.187561-1.0620422,2.2078247-1.0620422,2.2078247c-0.3193054,0.7060547-0.9555969,1.2179565-1.713623,1.3786926
			c-0.7742004,0.0955811-1.5574036-0.0828247-2.2138062-0.504303c0,0-1.6437073-1.5218201-3.4329834-3.3831177
			c-2.4173584-2.4032898-4.9796143-5.1453857-4.9796143-5.1453857c-0.5127563-0.4146423-0.5922852-1.1664429-0.1776733-1.6791992
			c0.0140991-0.017395,0.028656-0.0344238,0.0436707-0.0509949c0.4463196-0.5135803,1.2244873-0.5681152,1.7380676-0.1217957
			c0.0057678,0.0050354,0.0114746,0.0101013,0.0171509,0.0151978c0,0,3.2729187,2.0621033,6.0553589,3.9170532
			c0.3829651,0.3077087,0.7976074,0.573822,1.236908,0.7938232"/>
		<path id="Tracé_4156" class="st17" d="M293.038269,496.9543762c0.4204712-1.2483521,0.7621155-2.192749,0.7621155-2.192749
			c0.0981445-0.3944702,0.4974976-0.6346436,0.8919678-0.5364685c0.3944397,0.098175,0.634613,0.4974976,0.536438,0.8919678
			c-0.0000305,0.0001831-0.0000916,0.0003967-0.0001526,0.0005798c0,0-0.1016846,1.0567932-0.3565063,2.2939148
			c0.2551575,0.0635986,0.4473267,0.1651001,0.650116,0.2156677c0.9048462,0.28125,1.5436096,0.5466614,1.5436096,0.5466614
			c0.3944092,0.0983582,0.6343994,0.4978027,0.5360718,0.8922119s-0.4977722,0.6343994-0.8921814,0.5360718l0,0
			c0,0-0.6883545-0.0623779-1.6195679-0.2420044c-0.2027893-0.0505371-0.420105-0.0511475-0.675293-0.1147766
			c-0.0636292,0.255188-0.1651306,0.4473572-0.2156982,0.6501465c-0.2792969,0.905304-0.5466614,1.5436096-0.5466614,1.5436096
			c-0.0983276,0.3944092-0.4977722,0.6343994-0.8921814,0.5360718s-0.6344299-0.4977722-0.5361023-0.8921814
			c0,0,0.0682068-0.6869202,0.2420044-1.6195679c0.0505676-0.2027893,0.0637207-0.4705811,0.1147766-0.675293
			c-1.1993408-0.4020996-2.192749-0.7621155-2.192749-0.7621155c-0.3944092-0.0983276-0.6344299-0.4978027-0.5361023-0.8922119
			c0.0983582-0.3944092,0.4978027-0.6343994,0.8922119-0.5360718
			C291.5147095,496.6763916,292.2803955,496.7953796,293.038269,496.9543762"/>
	</g>
</g>
<g id="TEXTES_FR">
</g>
<g id="TEXTES_GB">
</g>
</svg>
