<?xml version="1.0" encoding="utf-8"?>
<!-- Generator: Adobe Illustrator 26.2.1, SVG Export Plug-In . SVG Version: 6.00 Build 0)  -->
<svg version="1.1" xmlns="http://www.w3.org/2000/svg" xmlns:xlink="http://www.w3.org/1999/xlink" x="0px" y="0px"
	 viewBox="0 0 48.5101395 55.4327354" style="enable-background:new 0 0 48.5101395 55.4327354;" xml:space="preserve">
<style type="text/css">
	.st0{fill:url(#FOND_00000019668538958156503340000007073387668288799895_);}
	.st1{fill:url(#FOND_00000154391180101987312410000001374207569203842747_);}
	.st2{fill:#FFF5F7;}
	.st3{fill:url(#FOND_00000030448361634952494860000013197890043503618238_);}
	.st4{fill:url(#FOND_00000081622352430584701130000005554143814631199372_);}
	.st5{fill:url(#FOND_00000088117175254031419640000004845925203492269209_);}
	.st6{fill:url(#FOND_00000021109849906061858220000010666302716683376792_);}
	.st7{fill:url(#FOND_00000173138318312059679210000016234235511736891042_);}
	.st8{fill:url(#FOND_00000103256682452177909730000003126935234516275590_);}
	.st9{fill:url(#FOND_00000054224345285994630660000001743500231775987899_);}
	.st10{fill:url(#FOND_00000101814583008359373620000016053612450562246079_);}
	.st11{fill:#272F60;}
	.st12{fill:#FD657C;}
	.st13{fill:url(#FOND_00000164502406653441972970000002192707584865798320_);}
	.st14{fill:url(#FOND_00000170257509477558565920000007505213156751765407_);}
	.st15{fill:#F4AAB9;}
	.st16{clip-path:url(#Rectangle_10_00000081628331962111650270000016001606059672918700_);}
	.st17{fill:#FB657C;}
	.st18{fill:#FFFFFF;}
	.st19{fill:#FFBCC6;}
	.st20{clip-path:url(#SVGID_00000026162754159760886300000012390641151331672986_);}
	.st21{enable-background:new    ;}
	.st22{fill:#FB657C;stroke:#FD657C;stroke-width:3.8352001;stroke-linecap:round;stroke-linejoin:round;stroke-miterlimit:1.4382;}
	.st23{fill:#FFBCC6;stroke:#FFBCC6;stroke-width:3.8352001;stroke-linecap:round;stroke-linejoin:round;stroke-miterlimit:1.4382;}
	.st24{clip-path:url(#SVGID_00000075844271106829680360000003074053787582728123_);fill:#FB657C;}
	.st25{clip-path:url(#SVGID_00000061464710016936194720000004230001374635010960_);fill:#FFBCC6;}
	.st26{clip-path:url(#SVGID_00000102526737244901524540000010879801815934334130_);fill:#FFBCC6;}
	.st27{clip-path:url(#SVGID_00000088828012287125000370000001526068920839615618_);fill:#FFBCC6;}
	.st28{clip-path:url(#SVGID_00000124873100297827569740000017269045666682729125_);fill:#FFBCC6;}
	.st29{clip-path:url(#SVGID_00000154385695293484709910000007834845773801879742_);fill:#FFBCC6;}
	.st30{clip-path:url(#SVGID_00000054267657324880063780000008719067797814034821_);fill:#FFBCC6;}
	.st31{clip-path:url(#SVGID_00000066485808753166970700000001886136811778511770_);fill:#FFBCC6;}
	.st32{clip-path:url(#SVGID_00000101792575158661233230000001331693097696209549_);fill:#FFBCC6;}
	.st33{clip-path:url(#SVGID_00000114767257808675384960000017874019746838386874_);fill:#FFBCC6;}
	.st34{clip-path:url(#SVGID_00000093863714506200742430000005199586898031826354_);fill:#FFBCC6;}
	.st35{clip-path:url(#SVGID_00000168804113925832104870000005850713777941107647_);fill:#FFBCC6;}
	.st36{clip-path:url(#SVGID_00000108998421710614910270000017396321622192916900_);fill:#FFBCC6;}
	.st37{clip-path:url(#SVGID_00000054960343659293861310000008640694608848151437_);fill:#FFBCC6;}
	.st38{clip-path:url(#SVGID_00000090991571044388997380000008170263388138391996_);fill:#FFBCC6;}
	.st39{clip-path:url(#SVGID_00000099626106798438481110000000295588745469994934_);fill:#272F60;}
	.st40{clip-path:url(#SVGID_00000099626106798438481110000000295588745469994934_);fill:#FB657C;}
	.st41{clip-path:url(#SVGID_00000099626106798438481110000000295588745469994934_);fill:#FFBCC6;}
	.st42{clip-path:url(#SVGID_00000099626106798438481110000000295588745469994934_);fill:#FFFFFF;}
	.st43{fill:none;}
	.st44{clip-path:url(#SVGID_00000158745878270571180970000012396431596204494490_);fill:#FFFFFF;}
	.st45{clip-path:url(#SVGID_00000074420208786131989760000010205107100360290990_);fill:#FFFFFF;}
	.st46{clip-path:url(#SVGID_00000124152877524119433830000011409111442579848878_);fill:#FFFFFF;}
	.st47{clip-path:url(#SVGID_00000163769677478622019440000018053554647761786803_);fill:#FFFFFF;}
	.st48{clip-path:url(#SVGID_00000116952167400535480130000004355293752846124161_);fill:#FFFFFF;}
	.st49{clip-path:url(#SVGID_00000067211807260921408650000000708408922066373275_);fill:#FFFFFF;}
	.st50{clip-path:url(#SVGID_00000061430469463247931810000000995657352295055500_);fill:#FFFFFF;}
	.st51{clip-path:url(#SVGID_00000080197233458119320750000008023479124842931103_);fill:#FFFFFF;}
	.st52{clip-path:url(#SVGID_00000160878977540998874070000017018017673517071252_);fill:#FFFFFF;}
	.st53{clip-path:url(#SVGID_00000105386823461419037460000015650501085270333091_);fill:#FFFFFF;}
	.st54{clip-path:url(#SVGID_00000142883884176871042560000010772910806083326358_);fill:#FFFFFF;}
	.st55{clip-path:url(#SVGID_00000047753735012995089030000011247702248924204990_);fill:#FFFFFF;}
	.st56{clip-path:url(#SVGID_00000109738137503144542770000006778220095111774386_);fill:#FB657C;}
	.st57{clip-path:url(#SVGID_00000181773952233647517150000008154827775600061620_);fill:#FFFFFF;}
	.st58{clip-path:url(#SVGID_00000045578496693627575490000012134826331005689227_);fill:#FFFFFF;}
	.st59{fill:#FF647B;}
	.st60{fill:#FF657C;}
	.st61{fill:#272E5F;}
	.st62{fill:none;stroke:#272E5F;stroke-width:3;}
	.st63{clip-path:url(#SVGID_00000153693384623405424160000012897065324431843768_);}
	.st64{fill:#606060;}
	.st65{fill:#E94B67;}
	.st66{fill:#132350;}
	.st67{fill:#050605;}
	.st68{fill:#FFF5F7;stroke:#272E5F;stroke-width:2;}
	.st69{fill:none;stroke:#272E5F;stroke-width:2;stroke-linecap:round;stroke-linejoin:round;stroke-miterlimit:10;}
	.st70{fill:none;stroke:#272E5F;stroke-width:2;}
	.st71{fill:none;stroke:#272E5F;stroke-width:3;stroke-linecap:round;stroke-linejoin:round;stroke-miterlimit:10;}
	.st72{fill:none;stroke:#142664;stroke-width:2;stroke-linecap:round;stroke-linejoin:round;stroke-miterlimit:10;}
	.st73{clip-path:url(#SVGID_00000137124703296621899780000000650515138411903161_);}
	.st74{clip-path:url(#SVGID_00000160170682095838883380000000994258410357474965_);}
	.st75{clip-path:url(#SVGID_00000055705263785235593950000008809327338790197182_);fill:#FD657C;}
	.st76{clip-path:url(#SVGID_00000128474113013884268020000014540304212925964199_);fill:#FD657C;}
	.st77{clip-path:url(#SVGID_00000052063588197943881680000001940716688142837399_);}
	.st78{clip-path:url(#SVGID_00000041293869225571695410000010170286183763471244_);}
	.st79{clip-path:url(#SVGID_00000093862726998240370700000015635376969800724875_);}
	.st80{fill:none;stroke:#142664;stroke-width:3;stroke-linecap:round;stroke-linejoin:round;}
	.st81{clip-path:url(#SVGID_00000072270592990586463710000012946293743151675270_);}
	.st82{clip-path:url(#SVGID_00000027574550048156564020000006245971874580756366_);}
	.st83{clip-path:url(#SVGID_00000057860071588517790070000010468985533935450293_);}
	.st84{clip-path:url(#SVGID_00000000909971271128087160000000005128560577038731_);}
	.st85{clip-path:url(#SVGID_00000050628236516715051670000011817449498869266085_);}
	.st86{clip-path:url(#SVGID_00000054253224859312087780000013613943341071392433_);}
	.st87{clip-path:url(#SVGID_00000049909384010183125880000010045815767101522599_);}
	.st88{clip-path:url(#SVGID_00000078021792291238125800000017857227435032594091_);}
	.st89{clip-path:url(#SVGID_00000157273164740648563370000011367420111304338066_);}
	.st90{clip-path:url(#SVGID_00000155843850960485174930000012407564060556522431_);}
	.st91{clip-path:url(#SVGID_00000163791025160087616480000002111128305694593161_);}
	.st92{clip-path:url(#SVGID_00000040568576881791649190000016578945420269602459_);}
	.st93{clip-path:url(#SVGID_00000088090507904618218000000016115434997353289873_);}
	.st94{clip-path:url(#SVGID_00000085232426233894297590000005010835193118093228_);}
	.st95{clip-path:url(#SVGID_00000058550299886082907130000014902322135924320654_);}
	.st96{clip-path:url(#SVGID_00000177457321715322209030000000979330508295701651_);}
	.st97{clip-path:url(#SVGID_00000094585155648251597190000013687471376676930955_);}
	.st98{clip-path:url(#SVGID_00000161600562832365281950000014669143515931626914_);}
	.st99{clip-path:url(#SVGID_00000013151478577416771280000000510925005513354678_);}
	.st100{clip-path:url(#SVGID_00000016036524676555762760000012999516326905629880_);}
	.st101{clip-path:url(#SVGID_00000083789425986267779710000016053026994593746846_);}
	.st102{clip-path:url(#SVGID_00000135657236518532824280000007348742971243547795_);}
	.st103{clip-path:url(#SVGID_00000117658041797674469790000001326260234458923946_);}
	.st104{clip-path:url(#SVGID_00000126306745117453067870000001548664165122793645_);}
	.st105{clip-path:url(#SVGID_00000179611626850158061030000005404509036894225301_);}
	.st106{clip-path:url(#SVGID_00000130633526608216634530000005149669327609102221_);}
	.st107{clip-path:url(#SVGID_00000133526554280328698550000002991996063051941791_);}
	.st108{clip-path:url(#SVGID_00000005259473545910774800000002577330543805100207_);}
	.st109{clip-path:url(#SVGID_00000159462143342433594170000008441450066762509205_);}
	.st110{clip-path:url(#SVGID_00000068671946985439351550000008907960543185336449_);}
	.st111{clip-path:url(#SVGID_00000096752988059642635850000013003346203830352291_);}
	.st112{clip-path:url(#SVGID_00000156586246866523995710000013654935242742553485_);}
	.st113{clip-path:url(#SVGID_00000038378795898354482780000006571101557380860070_);}
	.st114{clip-path:url(#SVGID_00000123417307719455752850000013760877142629807032_);}
	.st115{clip-path:url(#SVGID_00000051374628981011702620000011478883867113137823_);}
	.st116{clip-path:url(#SVGID_00000076569497221071597710000000500011495378282393_);}
	.st117{clip-path:url(#SVGID_00000174567622889074428150000001176770460619896766_);}
	.st118{clip-path:url(#SVGID_00000047774012099019018600000011715977353577406906_);}
	.st119{clip-path:url(#SVGID_00000027599681948701848730000017156896644840567458_);}
	.st120{clip-path:url(#SVGID_00000021121137352440810470000008872843383712261278_);}
	.st121{clip-path:url(#SVGID_00000167374473281169387780000004699930436343779978_);}
	.st122{clip-path:url(#SVGID_00000022558324148897678010000000917864542873836459_);}
	.st123{clip-path:url(#SVGID_00000064324210770313730000000005504438635332933053_);}
	.st124{fill:#FFFFFF;stroke:#142664;stroke-width:3;stroke-linecap:round;stroke-linejoin:round;}
	.st125{clip-path:url(#SVGID_00000100343059428147002930000002931064841889705391_);}
	.st126{fill-rule:evenodd;clip-rule:evenodd;fill:#FFBCC6;}
	.st127{fill-rule:evenodd;clip-rule:evenodd;fill:#272F60;}
	.st128{fill-rule:evenodd;clip-rule:evenodd;fill:#FFFFFF;}
	.st129{fill-rule:evenodd;clip-rule:evenodd;fill:#FB657C;}
	.st130{clip-path:url(#SVGID_00000085211216629544819260000017668030911702852747_);}
	.st131{clip-path:url(#SVGID_00000074402500030543617650000001193290785154185398_);}
	.st132{clip-path:url(#SVGID_00000041283125451299053040000004600236201679675019_);}
	.st133{clip-path:url(#SVGID_00000150090574942578277360000004019307248771529136_);}
	.st134{clip-path:url(#SVGID_00000101788424593802704670000004882286677642141827_);}
	.st135{clip-path:url(#SVGID_00000145776384094649896490000015245452615199022469_);}
	.st136{clip-path:url(#SVGID_00000126320166295243227050000013530906033435720867_);}
	.st137{clip-path:url(#SVGID_00000001636600581740150290000005159025609781885075_);}
	.st138{clip-path:url(#SVGID_00000150071136995047189410000015949617802285669275_);}
	.st139{clip-path:url(#SVGID_00000114785135662812161120000010769550971463677080_);}
	.st140{clip-path:url(#SVGID_00000167355487289672115410000000496357653497236410_);}
	.st141{clip-path:url(#SVGID_00000183943112456912098660000009209439751475513501_);}
	.st142{clip-path:url(#SVGID_00000113346333538388235700000016838309585821633169_);}
	.st143{clip-path:url(#SVGID_00000093144816681415765260000016568027981280045206_);}
	.st144{clip-path:url(#SVGID_00000117648239516262564500000011005210858107623060_);}
	.st145{clip-path:url(#SVGID_00000087408525854599852860000001890501909878449281_);}
	.st146{clip-path:url(#SVGID_00000002352396903714511400000009271667553441343374_);}
	.st147{clip-path:url(#SVGID_00000156579108255218224460000016343070182777114260_);}
	.st148{clip-path:url(#SVGID_00000151518945295030752510000008836529084710858673_);}
	.st149{clip-path:url(#SVGID_00000080207314237147810110000005337177643780556180_);}
	.st150{clip-path:url(#SVGID_00000052790500751380537630000008961436689092992957_);}
	.st151{clip-path:url(#SVGID_00000176723548933299285170000017530704874694880412_);}
	.st152{clip-path:url(#SVGID_00000129888952024804752920000010992120680559586745_);}
	.st153{clip-path:url(#SVGID_00000171705314911216118760000008580065675112688514_);}
	.st154{clip-path:url(#SVGID_00000109010907194196078670000009674414417089640622_);}
	.st155{clip-path:url(#SVGID_00000101103345386555914560000005607923727677918877_);}
	.st156{clip-path:url(#SVGID_00000116927112615582715540000015943335711203497400_);}
	.st157{clip-path:url(#SVGID_00000178903363522798418670000016307300662203570868_);}
	.st158{clip-path:url(#SVGID_00000159438938435377649940000009894153738827251900_);}
	.st159{clip-path:url(#SVGID_00000150079467863803923330000006926200006687495560_);}
	.st160{clip-path:url(#SVGID_00000111151141327607816860000009975417347791389061_);}
	.st161{clip-path:url(#SVGID_00000031177641962136026310000017645680507427893158_);}
	.st162{clip-path:url(#SVGID_00000047776339515077580140000005776140434155824567_);}
	.st163{clip-path:url(#SVGID_00000178165540476212199410000002997143888064561854_);}
	.st164{clip-path:url(#SVGID_00000018233973623740443750000012765385646765691563_);}
	.st165{clip-path:url(#SVGID_00000080915826901817475510000010308444970411232166_);}
	.st166{clip-path:url(#SVGID_00000173140596086006324280000002324412400764639361_);}
	.st167{clip-path:url(#SVGID_00000019648309240903237470000009137531074089144469_);}
	.st168{clip-path:url(#SVGID_00000181803081175436994740000017557386300618999205_);}
	.st169{clip-path:url(#SVGID_00000178168638489249284570000004159540073781833374_);}
	.st170{clip-path:url(#SVGID_00000093894896460515772640000006678831460302549926_);}
	.st171{clip-path:url(#SVGID_00000085228603161439606920000009463021177454006153_);}
	.st172{clip-path:url(#SVGID_00000024705329479705270890000007020528234189041585_);}
	.st173{clip-path:url(#SVGID_00000021100845817812338950000002022491445839789993_);}
	.st174{clip-path:url(#SVGID_00000151537748116127864210000001398488319259446185_);}
	.st175{clip-path:url(#SVGID_00000038392650237929020290000004198274928302151332_);}
	.st176{clip-path:url(#SVGID_00000031901921515282093000000009855911616149937565_);}
	.st177{clip-path:url(#SVGID_00000182526162270594797940000010468434812051430334_);}
	.st178{clip-path:url(#SVGID_00000020396875473565297590000000533517878772285371_);}
	.st179{clip-path:url(#SVGID_00000078044793152924777770000005942996114135352501_);}
	.st180{clip-path:url(#SVGID_00000072243971026391711990000007533289614096534177_);}
	.st181{clip-path:url(#SVGID_00000103947498955819113300000017886220283460070026_);}
	.st182{clip-path:url(#SVGID_00000046334561060432534530000013166691589873785268_);}
	.st183{clip-path:url(#SVGID_00000090254229395520100550000009640839301441915805_);}
	.st184{clip-path:url(#SVGID_00000150080248815738425370000010016915779171533995_);}
	.st185{clip-path:url(#SVGID_00000147210466113101737100000018439414212506414258_);}
	.st186{clip-path:url(#SVGID_00000049183229704802264220000017724752665308499896_);}
	.st187{clip-path:url(#SVGID_00000183962581439910058910000011953892895592542645_);}
	.st188{clip-path:url(#SVGID_00000087388812398606148940000005128935257231998126_);}
	.st189{clip-path:url(#SVGID_00000000212819059902570630000007379600933121388977_);}
	.st190{clip-path:url(#SVGID_00000093141255501967960130000003605777848039542462_);}
	.st191{clip-path:url(#SVGID_00000014614005534601929960000002042256775623924657_);}
	.st192{clip-path:url(#SVGID_00000106117586047664124420000016499930500121520824_);}
	.st193{clip-path:url(#SVGID_00000129174011189317011160000004245704103901491341_);}
	.st194{clip-path:url(#SVGID_00000179636455502417773940000007789297106617289130_);}
	.st195{clip-path:url(#SVGID_00000071558137844976592240000004716940121333320376_);}
	.st196{clip-path:url(#SVGID_00000070823989965706665280000015298608469337880506_);}
	.st197{clip-path:url(#SVGID_00000082334537581488950660000015603579470627774139_);}
	.st198{clip-path:url(#SVGID_00000022520679733637671470000000743484948067294347_);}
	.st199{clip-path:url(#SVGID_00000057120070537527340840000016119309342494808481_);}
	.st200{clip-path:url(#SVGID_00000100381119837034843930000004633087545004076210_);}
	.st201{clip-path:url(#SVGID_00000008847467342915299230000017289450592681469330_);}
	.st202{clip-path:url(#SVGID_00000166672302875300652300000008375313264681251771_);}
	.st203{clip-path:url(#SVGID_00000088120036117034618490000011289883417454669713_);}
	.st204{clip-path:url(#SVGID_00000162318027914910909730000009639471761965748379_);}
	.st205{clip-path:url(#SVGID_00000009576213352807554900000013422880038571535760_);}
	.st206{clip-path:url(#SVGID_00000067931422765841675840000004561122000586006949_);}
	.st207{clip-path:url(#SVGID_00000041987751207252263410000009635451157716778923_);}
	.st208{clip-path:url(#SVGID_00000037650876957573903710000013393066780660875438_);}
	.st209{clip-path:url(#SVGID_00000078750519252102588520000013838274843962005128_);}
	.st210{clip-path:url(#SVGID_00000140716366105367543470000002540393669663867038_);}
	.st211{clip-path:url(#SVGID_00000172438822254607766410000002391035976632327342_);}
	.st212{clip-path:url(#SVGID_00000019669625868926246650000002188088852981647000_);}
	.st213{clip-path:url(#SVGID_00000099620546070990140560000009446837327973070258_);}
	.st214{clip-path:url(#SVGID_00000180349284371806225240000016518117806795653007_);}
	.st215{clip-path:url(#SVGID_00000093165025045206087180000005706295914001792938_);}
	.st216{clip-path:url(#SVGID_00000158732979131774344440000011490830217355750288_);}
	.st217{clip-path:url(#SVGID_00000104670472767671236530000013355545719296981155_);}
	.st218{clip-path:url(#SVGID_00000134251682663522591030000012142591452225788034_);}
	.st219{clip-path:url(#SVGID_00000021095429471513790110000005930272458134977664_);}
	.st220{clip-path:url(#SVGID_00000144319131815661092970000010160498146016169358_);}
	.st221{clip-path:url(#SVGID_00000032621981832998712130000014235638006030178227_);}
	.st222{clip-path:url(#SVGID_00000128464205308414969730000010875780462699556537_);}
	.st223{clip-path:url(#SVGID_00000101091219792548698960000012889320097154194824_);}
	.st224{clip-path:url(#SVGID_00000137843478356974740160000018196824343158083744_);}
	.st225{clip-path:url(#SVGID_00000130629700652193167170000015133389727514560442_);}
	.st226{clip-path:url(#SVGID_00000081640596404381890010000007805069745275067561_);}
	.st227{clip-path:url(#SVGID_00000105399673567360678370000006490976497829573789_);}
	.st228{clip-path:url(#SVGID_00000100357497137951584250000014224233352929725882_);}
	.st229{clip-path:url(#SVGID_00000101816923261699409290000007312206219078014883_);}
	.st230{clip-path:url(#SVGID_00000000187321856645622390000006751604620701462456_);}
	.st231{clip-path:url(#SVGID_00000054263641531741087810000005673943819271199115_);}
	.st232{clip-path:url(#SVGID_00000133529698366232214790000008098121359200035719_);}
	.st233{clip-path:url(#SVGID_00000114067106639980572750000007825285878437348484_);}
	.st234{clip-path:url(#SVGID_00000070091469977224237970000013917148864554321039_);}
	.st235{clip-path:url(#SVGID_00000043421869647526339440000002853245815587293329_);}
	.st236{clip-path:url(#SVGID_00000130622239765305298230000008654506490085962896_);}
	.st237{clip-path:url(#SVGID_00000129923971399480581280000016219495131245366921_);}
	.st238{clip-path:url(#SVGID_00000034799247125803336930000009156657145491895484_);}
	.st239{clip-path:url(#SVGID_00000132802790040143054420000010457801357855425688_);}
	.st240{clip-path:url(#SVGID_00000171694226215595559570000015335868439199146390_);}
	.st241{clip-path:url(#SVGID_00000150792349670391226430000003963426717948600209_);}
	.st242{clip-path:url(#SVGID_00000087396364145057193450000012146850052117890186_);}
	.st243{clip-path:url(#SVGID_00000013880136020078349530000005582079234116200843_);}
	.st244{clip-path:url(#SVGID_00000094576087477457936700000004306650777764922259_);}
	.st245{clip-path:url(#SVGID_00000111187645107006165100000006841836044204080527_);}
	.st246{clip-path:url(#SVGID_00000079459305684502134530000015516758332697217166_);}
	.st247{clip-path:url(#SVGID_00000087404107028400905160000005827196140851144342_);}
	.st248{clip-path:url(#SVGID_00000109732504375937015400000002485808844799506568_);}
	.st249{clip-path:url(#SVGID_00000055667864252362532050000013510921786237050776_);}
	.st250{clip-path:url(#SVGID_00000092420792329785605380000014408954484998550687_);}
	.st251{clip-path:url(#SVGID_00000082341095208029490530000005072133462579120286_);}
	.st252{clip-path:url(#SVGID_00000044168170232275900630000016074941848345533338_);}
	.st253{clip-path:url(#SVGID_00000174569617045967899130000014115494321385231504_);}
	.st254{clip-path:url(#SVGID_00000053535169225450424740000007509242187815809698_);}
	.st255{clip-path:url(#SVGID_00000006708052798059909470000009797968799003424941_);}
	.st256{clip-path:url(#SVGID_00000044884926431148750010000003657839959984235184_);}
	.st257{clip-path:url(#SVGID_00000125573694594667065670000006123349142077706127_);}
	.st258{clip-path:url(#SVGID_00000021807493179336232890000014023170472781354667_);}
	.st259{clip-path:url(#SVGID_00000159447101851411502780000000049270479132684951_);}
	.st260{fill:#E94966;}
	.st261{fill:#13224F;}
</style>
<g id="FONDS">
</g>
<g id="ILLUSTRATIONS">
	<g id="Groupe_1028" transform="translate(0 377.504)">
		<g>
			<g id="Groupe_450" transform="translate(0 -377.504)">
				<g id="Groupe_447" transform="translate(15.915 0.165)">
					<path id="Tracé_1669" class="st59" d="M32.5951385,11.5656538l-1.3209972,3.6300011
						c-0.0310059-0.012001-0.0240021-0.0359993-0.0200043-0.0610008c0.146225-0.9197388-0.3617096-1.8186798-1.2250061-2.1679993
						c-0.0939941-0.038002-0.1889954-0.072998-0.2839966-0.1070023L2.7701278,3.0416515
						C2.6931319,3.0136516,2.6141219,2.9896495,2.5361342,2.964648c-0.2619934-0.1100006-0.526001-0.2160034-0.7859956-0.3300018
						C1.3298048,2.4600856,0.9327711,2.2340267,0.5681318,1.9616498C0.4172377,1.8471173,0.2826704,1.7125424,0.1681379,1.5616482
						c-0.2433014-0.5067444-0.1923676-1.1056137,0.1329956-1.564003L32.5951385,11.5656538z"/>
				</g>
				<g id="Groupe_448" transform="translate(3.085 2.83)">
					<path id="Tracé_1670" class="st19" d="M44.2101593,12.2296553L29.9921436,51.2936554
						c-0.0351257,0.0982399-0.0842896,0.1908722-0.1459961,0.2749977c-0.0178833,0.0671272-0.0495605,0.1297913-0.0929871,0.1840019
						c-0.4147949,0.5938568-1.1196594,0.9152527-1.8399963,0.8390007c-0.118988-0.0090027-0.2369995-0.0300026-0.355011-0.045002
						L0.0051436,42.5176544c0.0289917-0.0900002,0.0559998-0.1809998,0.0880127-0.2700005L15.3991556,0.1926525
						c0.0239868-0.0650024,0.0490112-0.1299973,0.072998-0.1999969c0.0780029,0.026001,0.1570129,0.0490036,0.2340088,0.0770035
						L42.6811676,9.88766c0.1000061,0.0350037,0.1900024,0.0690002,0.2839966,0.1070023
						c0.8632812,0.3493195,1.3712158,1.2482605,1.2250061,2.1679993c0,0.0250015-0.0100098,0.0490036,0.019989,0.060997
						 M29.2621632,18.2026539l2.5310059,0.9209976c0.0585022,0.0236206,0.1182556,0.0439835,0.1789856,0.060997
						c0.1844158,0.0559158,0.3810101-0.0382538,0.453001-0.2170029c0.0204773-0.0463486,0.0385132-0.0937424,0.0539856-0.1419983
						l1.5629883-4.2949972c0.019104-0.0470123,0.0354614-0.0950928,0.0490112-0.1439972
						c0.0550537-0.1767349-0.0309143-0.3667068-0.2000122-0.4420013c-0.0630493-0.0295639-0.1278381-0.055275-0.1940002-0.0770035
						l-5.0440044-1.8359985c-0.053009-0.0189972-0.1059875-0.0410004-0.1610107-0.0569992
						c-0.1933594-0.074234-0.4102478,0.0223236-0.4844971,0.2156677c-0.0023193,0.0060501-0.0044861,0.0121689-0.0065002,0.0183334
						c-0.0169983,0.0410004-0.0310059,0.0830002-0.04599,0.1240005l-1.5570068,4.2769995
						c-0.0169983,0.0479965-0.0369873,0.0950012-0.0499878,0.1429977c-0.0582275,0.176384,0.0241089,0.3685226,0.1919861,0.447998
						c0.0565186,0.0278778,0.1150208,0.0516052,0.1749878,0.0709991l2.5480042,0.9280014 M19.8031178,11.744647
						c-0.2666626,0.7333298-0.5333252,1.4696655-0.7999878,2.2089996c-0.1289978,0.3560028-0.0710144,0.4830017,0.2749939,0.6090012
						c0.8000183,0.2926712,1.6016846,0.5843353,2.4049988,0.875c0.3380127,0.1220016,0.4719849,0.0569992,0.5939941-0.2779999
						c0.5279846-1.4486618,1.0553284-2.8976669,1.5820007-4.3470001c0.0235901-0.051796,0.0410461-0.106163,0.052002-0.1620026
						c0.0299988-0.2740021-0.0220032-0.3460007-0.2330017-0.4319992c-0.0409851-0.0169983-0.0830078-0.0309982-0.1239929-0.0459976
						L22.3071156,9.718646c-0.3800049-0.1380005-0.7590027-0.2799988-1.1409912-0.4140015
						c-0.3190002-0.1119995-0.45401-0.0459976-0.5679932,0.2659988c-0.2666626,0.723999-0.5303345,1.4483261-0.7909851,2.1729965
						 M38.9381561,18.7596378c0.2680054-0.7360001,0.5289917-1.4749985,0.8070068-2.2070007
						c0.1070251-0.1932602,0.0371094-0.4366837-0.1561279-0.5437088c-0.0332031-0.0183859-0.0688477-0.031951-0.1058655-0.0402899
						c-0.5539856-0.1999969-1.1000061-0.4000015-1.6570129-0.5999985c-0.1868286-0.1060486-0.4242859-0.0405426-0.5303345,0.1462936
						c-0.0227966,0.040184-0.038269,0.0841064-0.0456543,0.1297073c-0.5333252,1.4666662-1.0666504,2.9333334-1.6000061,4.4000006
						c-0.1054077,0.189106-0.0375366,0.4278526,0.1515808,0.5332489c0.0383911,0.0214005,0.0801086,0.03619,0.1234131,0.0437508
						c0.2839966,0.105999,0.5700073,0.2080002,0.855011,0.3120003c0.2669983,0.0999985,0.5339966,0.2000008,0.7999878,0.2910004
						c0.1833496,0.1010017,0.4138489,0.0342598,0.5148315-0.1490746c0.01828-0.0331573,0.0314636-0.0688629,0.0391541-0.1059265
						c0.0180054-0.0470009,0.0350037-0.0999985,0.052002-0.1419983l0.7520142-2.0659981 M16.6001453,10.6236448l0.1879883-0.5159988
						c0.2090149-0.5759964,0.42099-1.151001,0.6260071-1.7279968c0.0941467-0.1719742,0.0310669-0.3877106-0.1408997-0.4818726
						c-0.0222473-0.0121841-0.0457458-0.0219498-0.0700989-0.029129c-0.4773254-0.1839981-0.9580078-0.3590012-1.441987-0.5250015
						c-0.1858826-0.073616-0.3962402,0.0173874-0.4698486,0.20327c-0.0029907,0.0074844-0.0056763,0.0150604-0.0081482,0.022728
						c-0.0130005,0.0289993-0.0230103,0.0589981-0.0339966,0.0889969c-0.5293274,1.4540024-1.0583496,2.9079971-1.5870056,4.3619995
						c-0.1149902,0.3160019-0.0350037,0.4860001,0.2829895,0.5999985c0.4206848,0.1553345,0.8420105,0.30867,1.2640076,0.4599991
						c0.053009,0.0205383,0.1079407,0.035614,0.1640015,0.0449982c0.1546936,0.0289536,0.3093567-0.0504379,0.3760071-0.1930008
						c0.0301514-0.0625839,0.0561829-0.1270523,0.0780029-0.1930008c0.2573252-0.7060013,0.5143137-1.4123306,0.770997-2.1190033
						 M24.0471668,13.2846327l-0.2269897,0.6230011c-0.2000122,0.5459976-0.3999939,1.0910034-0.6000061,1.6380005
						c-0.1059875,0.3000031-0.0379944,0.4369965,0.2529907,0.5439978c0.4206848,0.1546707,0.8420105,0.3079987,1.2640076,0.4599991
						c0.3380127,0.1210022,0.473999,0.0559998,0.5950012-0.2770004c0.5273132-1.4479971,1.0543213-2.8959951,1.5809937-4.3440008
						c0.0274963-0.0639496,0.0466614-0.1311646,0.0570068-0.1999969c0.0209961-0.2249985-0.026001-0.3170013-0.2359924-0.4000015
						c-0.4549866-0.1709976-0.9110107-0.3399963-1.3710022-0.5c-0.2869873-0.0999985-0.42099-0.0250015-0.5249939,0.2590027
						c-0.2666626,0.7300034-0.5333252,1.4600067-0.7999878,2.1900024 M18.7812061,11.4046354
						c0.2666626-0.7333298,0.5333252-1.4693298,0.7999878-2.2080002c0.104126-0.1866531,0.0372314-0.4223785-0.1494446-0.5265045
						c-0.0351257-0.0195999-0.0730896-0.0335999-0.1125488-0.0414963c-0.1409912-0.0550003-0.2829895-0.1080017-0.427002-0.1549988
						c-0.1889954-0.0899658-0.4151306-0.0096817-0.5050964,0.1793137c-0.010498,0.0220413-0.0188293,0.0450439-0.0249023,0.0686874
						c-0.0140076,0.0350037-0.026001,0.0709991-0.0390015,0.1070023l-1.5490112,4.2549973
						c-0.0210571,0.0526962-0.0393982,0.1064377-0.0549927,0.1610031c-0.0636292,0.1834717,0.0297241,0.384346,0.2109985,0.4540024
						c0.1850281,0.0811234,0.3750916,0.1502686,0.5690002,0.2070007c0.1781921,0.0561752,0.3697205-0.0333023,0.4410095-0.2060013
						c0.0238647-0.0516968,0.0445557-0.1047974,0.0620117-0.1589966l0.7780151-2.1360016 M35.4352264,17.4636402
						l0.5119934-1.4059982c0.1000061-0.2850027,0.2099915-0.5689993,0.3089905-0.8550024
						c0.0804138-0.1739578,0.0045776-0.3801651-0.1693726-0.4605789c-0.002533-0.0011673-0.0050659-0.0023117-0.0076294-0.003418
						c-0.1982727-0.0979996-0.4069214-0.1734695-0.6220093-0.2249985c-0.1662598-0.0424576-0.3380127,0.0459976-0.3999939,0.2060013
						c-0.0270081,0.0569992-0.04599,0.1179962-0.0679932,0.177002l-0.9200134,2.5279989
						c-0.2219849,0.6110001-0.4400024,1.223999-0.6700134,1.8320007c-0.088501,0.1915092-0.0050049,0.4185066,0.1864929,0.507019
						c0.0131836,0.0060921,0.0267029,0.011425,0.0404968,0.0159798c0.1650085,0.0639992,0.3299866,0.1279984,0.5,0.1800003
						c0.1868591,0.0756264,0.3996582-0.0145454,0.4752808-0.2014046c0.0044556-0.0110016,0.0083618-0.022213,0.0117188-0.033596
						c0.0190125-0.0470009,0.0350037-0.0950012,0.053009-0.1419983l0.7709961-2.118 M23.3861866,27.1506481l0.4620056,0.1679993
						c0.0570068,0.0209999,0.1099854,0.0330009,0.1380005-0.0439987c0.0960083-0.2666702,0.1929932-0.5333366,0.2909851-0.7999992
						c0.017395-0.0351448,0.0029907-0.0777321-0.0321655-0.0951233c-0.0041199-0.002037-0.0084229-0.0036697-0.0128479-0.0048752
						l-0.9760132-0.355999c-0.0589905-0.0209999-0.0929871,0-0.1140137,0.0579987
						c-0.0910034,0.2550011-0.1820068,0.5099983-0.2789917,0.7630005c-0.0339966,0.0890007,0,0.1259995,0.0799866,0.1529999
						c0.1489868,0.0509987,0.2999878,0.1069984,0.4440002,0.1609993 M18.4791431,24.2786503
						c-0.1480103-0.0540009-0.2999878-0.1100006-0.4440002-0.1609993c-0.1300049-0.0449982-0.1340027-0.0439987-0.1789856,0.0769997
						c-0.0880127,0.2360001-0.1700134,0.473999-0.2609863,0.7089996c-0.0350037,0.0900002-0.019989,0.1380005,0.0740051,0.1710014
						c0.2973633,0.1039963,0.5933228,0.2116623,0.8880005,0.3230019c0.0870056,0.0330009,0.1369934,0.0219994,0.1700134-0.0750008
						c0.0830078-0.2439995,0.1719971-0.4869995,0.2650146-0.7280006c0.0320129-0.0830002,0.0159912-0.1269989-0.0700073-0.1559982
						c-0.1489868-0.0499992-0.2999878-0.1069984-0.4440002-0.1609993 M25.1472034,27.7936535
						c0.1480103,0.0540009,0.2999878,0.105999,0.4440002,0.1629982c0.0780029,0.0299988,0.1279907,0.0229988,0.1589966-0.0670013
						c0.0870056-0.2509995,0.178009-0.5,0.2720032-0.7470016c0.0289917-0.0760002,0.0119934-0.1160011-0.0639954-0.1430016
						c-0.3093262-0.1100006-0.6176453-0.2223358-0.9249878-0.3370018c-0.0769958-0.0289993-0.1149902,0-0.1419983,0.0699997
						c-0.0886841,0.25-0.1793213,0.4990044-0.2720032,0.7470016c-0.0339966,0.0890007,0,0.1259995,0.0830078,0.1529999
						c0.1489868,0.0509987,0.2999878,0.1069984,0.4450073,0.1609993 M20.2242298,24.9136448
						c-0.1539917-0.0559998-0.3089905-0.1100006-0.4620056-0.1689987c-0.0759888-0.0299988-0.1149902-0.007-0.1419983,0.0680008
						c-0.0880127,0.25-0.1799927,0.5-0.2709961,0.7470016c-0.026001,0.0699997-0.0190125,0.1189995,0.0610046,0.1469994
						c0.3086853,0.1100006,0.6170044,0.2220001,0.9249878,0.3359985c0.0769958,0.0279999,0.1149902,0,0.1409912-0.0709991
						c0.0880127-0.25,0.177002-0.5,0.2730103-0.7459984c0.0350037-0.0900002,0-0.125-0.07901-0.151001
						c-0.1489868-0.0509987-0.2999878-0.1069984-0.4450073-0.1609993 M21.6252003,26.5136471
						c0.1539917,0.0559998,0.3089905,0.1110001,0.4620056,0.1689987c0.0690002,0.026001,0.118988,0.0250015,0.1480103-0.0559998
						c0.0933228-0.2613297,0.1880188-0.5220032,0.2839966-0.7820015c0.0230103-0.0620003,0-0.0940018-0.0580139-0.1139984
						c-0.3139954-0.1133308-0.6280212-0.2276649-0.9419861-0.3429985c-0.0660095-0.0239983-0.1000061-0.0089989-0.1289978,0.0600014
						c-0.0906677,0.2553329-0.1833191,0.5100021-0.2780151,0.7639999c-0.0289917,0.0769997-0.0050049,0.1170006,0.0690002,0.1419983
						c0.1489868,0.0519981,0.2999878,0.1069984,0.4450073,0.1609993 M26.9051991,28.435648
						c0.1539917,0.0559998,0.3089905,0.1100006,0.4620056,0.1689987c0.0740051,0.0279999,0.1170044,0.0139999,0.1440125-0.0639992
						c0.0899963-0.2550011,0.1820068-0.5099983,0.2780151-0.7639999c0.0310059-0.0830002-0.006012-0.1119995-0.0759888-0.1360016
						c-0.2999878-0.1080017-0.605011-0.2169991-0.9060059-0.3300018c-0.0889893-0.0330009-0.1229858,0-0.151001,0.0789986
						c-0.0830078,0.237999-0.1730042,0.473999-0.2569885,0.7109985c-0.04599,0.1290016-0.0440063,0.132,0.07901,0.1800003
						c0.1409912,0.0540009,0.2839966,0.0999985,0.4259949,0.1559982 M20.4492664,24.2836399
						c0.1480103,0.0540009,0.2999878,0.0999985,0.4440002,0.1629982c0.0849915,0.0340004,0.1380005,0.0289993,0.17099-0.0699997
						c0.0833435-0.2446671,0.1716919-0.4876671,0.2650146-0.7290001c0.0379944-0.0999985,0-0.1339989-0.0859985-0.1640015
						c-0.2909851-0.0999985-0.5820007-0.2080002-0.8710022-0.3180008c-0.0870056-0.0330009-0.1380005-0.0279999-0.1719971,0.0699997
						c-0.0840149,0.2446709-0.1723328,0.4876671-0.2650146,0.7290001c-0.0369873,0.0999985,0,0.1360016,0.0859985,0.1650009
						c0.1440125,0.0460014,0.2850037,0.0999985,0.427002,0.1539993 M24.3412647,24.6126347
						c-0.1600037-0.0579987-0.3200073-0.1139984-0.4790039-0.1749992c-0.0750122-0.0289993-0.1159973-0.0110016-0.1430054,0.0660019
						c-0.0899963,0.2550011-0.1830139,0.5089989-0.2770081,0.7630005c-0.0237732,0.041748-0.0092163,0.0948753,0.0325317,0.11866
						c0.0091248,0.0051994,0.019104,0.0087013,0.02948,0.0103416c0.3139954,0.1133308,0.6276855,0.2273293,0.9410095,0.3419991
						c0.0413513,0.0244598,0.0947266,0.0107613,0.1191711-0.0305977c0.0053711-0.0090637,0.0090332-0.0190277,0.0108337-0.0294037
						c0.0910034-0.2550011,0.1830139-0.5099983,0.2780151-0.7630005c0.0289917-0.0760002,0.0069885-0.1160011-0.0679932-0.1419983
						c-0.1489868-0.0509987-0.2999878-0.1069984-0.4440002-0.1609993 M26.0812855,25.2446384
						c-0.1480103-0.0540009-0.2999878-0.105999-0.4440002-0.1629982c-0.0769958-0.0299988-0.1289978-0.0279999-0.1610107,0.0620003
						c-0.0880127,0.25-0.1789856,0.5-0.2720032,0.7470016c-0.026001,0.0709991-0.0180054,0.1170006,0.0620117,0.1459999
						c0.3093262,0.1100006,0.6176453,0.2223358,0.9249878,0.3370018c0.0780029,0.0289993,0.1149902,0,0.1419983-0.0690002
						c0.0889893-0.25,0.178009-0.5,0.2730103-0.7470016c0.0339966-0.0890007,0-0.125-0.07901-0.1520004
						c-0.1489868-0.0499992-0.2999878-0.1069984-0.4450073-0.1609993 M17.5312672,26.8446407
						c0.1539917,0.0559998,0.3099976,0.1110001,0.4630127,0.1689987c0.0740051,0.0279999,0.1170044,0.0139999,0.144989-0.0639992
						c0.0906372-0.2559967,0.1833496-0.5113335,0.2780151-0.7659988c0.026001-0.0709991,0-0.0999985-0.0650024-0.1279984
						c-0.3093262-0.1113319-0.6183472-0.223999-0.927002-0.3380013c-0.072998-0.0270004-0.1170044-0.0159988-0.144989,0.0629997
						c-0.0879822,0.2506676-0.1789856,0.4999962-0.2730103,0.7480011c-0.0329895,0.0859985-0.006012,0.1269989,0.0759888,0.1539993
						c0.1499939,0.0499992,0.2999878,0.1069984,0.4460144,0.1609993 M23.1522694,27.8026409
						c-0.1480103-0.0540009-0.2999878-0.105999-0.4429932-0.1619987c-0.0759888-0.0289993-0.1270142-0.0279999-0.1589966,0.0649986
						c-0.0859985,0.25-0.177002,0.5-0.2709961,0.7449989c-0.0329895,0.0880013,0,0.125,0.07901,0.1529999
						c0.2999878,0.1069984,0.6000061,0.2169991,0.8999939,0.3300018c0.0880127,0.0330009,0.125,0,0.1530151-0.0789986
						c0.0849915-0.243,0.1719971-0.4869995,0.2659912-0.7270012c0.0390015-0.0999985,0-0.1349983-0.0859985-0.1640015
						c-0.1489868-0.0499992-0.2999878-0.1069984-0.4440002-0.1599998 M24.9073048,28.4446392L24.9073048,28.4446392
						c-0.1480103-0.0540009-0.2999878-0.105999-0.4440002-0.1629982c-0.0780029-0.0299988-0.1289978-0.026001-0.1600037,0.0639992
						c-0.0873413,0.25-0.178009,0.4990005-0.2720032,0.7470016c-0.0339966,0.0900002,0,0.1240005,0.0830078,0.1520004
						c0.2973328,0.1053314,0.5939941,0.2133331,0.8900146,0.3240013c0.07901,0.0289993,0.1279907,0.0229988,0.1589966-0.0660019
						c0.0870056-0.25,0.178009-0.5,0.2720032-0.7470016c0.0280151-0.0750008,0.0140076-0.1170006-0.0639954-0.1430016
						c-0.1549988-0.0530014-0.3089905-0.1110001-0.4630127-0.1669998 M22.5663013,29.4126377l-0.4620056-0.1679993
						c-0.0599976-0.0219994-0.1080017-0.0250015-0.1340027,0.0499992c-0.0933533,0.2606659-0.1880188,0.5209999-0.2839966,0.7809982
						c-0.0249939,0.0680008,0,0.1049995,0.0629883,0.1290016c0.3139954,0.1133347,0.6276855,0.2273331,0.9410095,0.3419991
						c0.0679932,0.0250015,0.1059875,0,0.1289978-0.0620003c0.0910034-0.2550011,0.1830139-0.5099983,0.2780151-0.7630005
						c0.0289917-0.0769997,0-0.1160011-0.0690002-0.1409988c-0.1549988-0.0530014-0.3080139-0.1110001-0.4620056-0.1669998
						 M24.3282948,30.054636c-0.1539917-0.0559998-0.3089905-0.1110001-0.4630127-0.1689987
						c-0.0599976-0.0219994-0.1099854-0.0270004-0.1359863,0.0470009c-0.1000061,0.2669983-0.1940002,0.5340004-0.2900085,0.7999992
						c-0.0158997,0.0370483,0.0012512,0.0799713,0.0382996,0.0958748c0.0040894,0.0017586,0.0083313,0.0031395,0.0126953,0.0041237
						l0.9609985,0.3499985c0.0378418,0.0217323,0.0861206,0.0086784,0.1078491-0.0291557
						c0.004425-0.0077095,0.0075378-0.0161095,0.0091553-0.0248451c0.0950012-0.2610016,0.1889954-0.5219994,0.2860107-0.7830009
						c0.026001-0.0690002,0-0.1049995-0.0629883-0.1279984c-0.1549988-0.0540009-0.3089905-0.1119995-0.4630127-0.1679993
						 M19.6502857,26.528635c-0.1600037-0.0579987-0.3210144-0.1150017-0.480011-0.1749992
						c-0.0650024-0.0250015-0.1069946-0.0130005-0.1319885,0.0559998c-0.0913391,0.2553329-0.1843262,0.5100021-0.2789917,0.7639999
						c-0.0256042,0.0489349-0.0066833,0.1093597,0.0422363,0.1349678c0.0078125,0.0040894,0.0161438,0.0071259,0.0247498,0.0090332
						c0.3033447,0.1073303,0.6053467,0.2173347,0.9060059,0.3300018c0.0820007,0.0309982,0.1270142,0.0159988,0.1570129-0.0699997
						c0.0870056-0.25,0.178009-0.5,0.2709961-0.7470016c0.0289917-0.0769997,0.0100098-0.1160011-0.0669861-0.1419983
						c-0.1489868-0.0509987-0.2999878-0.1069984-0.4450073-0.1609993 M21.0333118,28.1196384
						c0.1480103,0.0540009,0.2999878,0.0999985,0.4440002,0.1629982c0.0880127,0.0359993,0.1380005,0.026001,0.1719971-0.0709991
						c0.0840149-0.2439995,0.1740112-0.4869995,0.2650146-0.7290001c0.0310059-0.0810013,0.019989-0.1259995-0.0679932-0.1570015
						c-0.3033142-0.1060028-0.6053162-0.2160034-0.9060059-0.3300018c-0.0870056-0.0330009-0.1239929-0.0050011-0.1520081,0.0760002
						c-0.0849915,0.2439995-0.1730042,0.4869995-0.2659912,0.7290001c-0.0369873,0.0999985,0,0.1360016,0.0849915,0.1650009
						c0.1440125,0.0470009,0.2850037,0.0999985,0.427002,0.1539993 M26.6813221,29.0866337
						c-0.1539917-0.0559998-0.3089905-0.1090012-0.4609985-0.1689987c-0.0809937-0.0320015-0.1260071-0.019001-0.1560059,0.0680008
						c-0.0839844,0.2439995-0.1723328,0.4866676-0.2650146,0.7280006c-0.0339966,0.0890007-0.0190125,0.1360016,0.0759888,0.1689987
						c0.2999878,0.0999985,0.5929871,0.2120018,0.8880005,0.3230019c0.0830078,0.0309982,0.1260071,0.0149994,0.1560059-0.0709991
						c0.0870056-0.25,0.178009-0.5,0.2709961-0.7459984c0.0280151-0.0740013,0.0140076-0.1160011-0.0650024-0.1419983
						c-0.1489868-0.0499992-0.2999878-0.1069984-0.4440002-0.1599998 M19.0632801,28.1326427
						c-0.1600037-0.0579987-0.3210144-0.1150017-0.480011-0.1749992c-0.0401001-0.0254593-0.0932312-0.013588-0.1187134,0.0265083
						c-0.0062561,0.0098801-0.010437,0.0209351-0.0122986,0.0324898c-0.0939941,0.2610016-0.1889954,0.5219994-0.2839966,0.7830009
						c-0.0212402,0.0387459-0.0070496,0.087368,0.0317078,0.1086044c0.0072632,0.0039902,0.0151367,0.0068245,0.0232849,0.0083961
						c0.3146362,0.1133347,0.6289673,0.2276649,0.9429932,0.3429985c0.0404663,0.0248718,0.0934143,0.0122299,0.1182861-0.0282326
						c0.0059814-0.0097084,0.0099487-0.0205078,0.0117188-0.0317688c0.0920105-0.2550011,0.1839905-0.5110016,0.2789917-0.7649994
						c0.0289917-0.0769997,0.0079956-0.1160011-0.0679932-0.1419983c-0.1489868-0.0509987-0.2999878-0.1069984-0.4450073-0.1609993
						 M20.8202381,28.7716427L20.8202381,28.7716427c-0.1600037-0.0579987-0.3210144-0.1150017-0.480011-0.1749992
						c-0.039856-0.0247841-0.0922852-0.012558-0.1170654,0.0273132c-0.0061951,0.0099564-0.0102539,0.0210838-0.0119324,0.0326881
						c-0.0929871,0.262001-0.1889954,0.5219994-0.2839966,0.7830009c-0.0211487,0.0381699-0.0073242,0.0862465,0.0308228,0.1073837
						c0.0075378,0.0041695,0.0157166,0.0070801,0.0241699,0.0086174c0.3146667,0.1133347,0.6286621,0.2279968,0.9419861,0.3440018
						c0.0404968,0.0247955,0.0934448,0.0120544,0.1182556-0.0284538c0.006073-0.0099411,0.0100708-0.0210152,0.0117493-0.032547
						c0.0913391-0.2553368,0.1843262-0.5103302,0.2789917-0.7649994c0.0280151-0.0760002,0.0090027-0.1160011-0.0679932-0.1419983
						c-0.1489868-0.0499992-0.2999878-0.1069984-0.4450073-0.1609993 M22.5592213,23.9586506
						c-0.1480103-0.0540009-0.2999878-0.0999985-0.4440002-0.1629982c-0.0939941-0.0379982-0.1350098-0.0089989-0.1659851,0.0800018
						c-0.0840149,0.2439995-0.1740112,0.4869995-0.2640076,0.7290001c-0.026001,0.0699997-0.0230103,0.1170006,0.0589905,0.1459999
						c0.3089905,0.1100006,0.6170044,0.2229996,0.9240112,0.3359985c0.0629883,0.0229988,0.1080017,0.0200005,0.1340027-0.0509987
						c0.0939941-0.2613335,0.1889954-0.5219994,0.2850037-0.7820015c0.0249939-0.0690002,0-0.0999985-0.0650024-0.1279984
						c-0.1549988-0.0540009-0.3089905-0.1110001-0.4620056-0.1679993 M18.6852283,23.6356564
						c0.1539917,0.0559998,0.3089905,0.1090012,0.4609985,0.1689987c0.0840149,0.0330009,0.1260071,0.0099983,0.1549988-0.0740013
						c0.089325-0.2553329,0.1820068-0.5096664,0.2780151-0.7630005c0.0299988-0.0789986,0-0.112999-0.0690002-0.1419983
						c-0.2165222-0.0966072-0.4652405-0.0896187-0.6759949,0.019001c-0.1619873,0.0830002-0.3190002,0.1780014-0.4849854,0.2529984
						c-0.0965576,0.0471611-0.1662292,0.1359711-0.1889954,0.2410011c-0.0230103,0.0699997,0,0.1049995,0.0639954,0.1279984
						c0.1539917,0.0540009,0.3080139,0.1110001,0.4609985,0.1679993 M17.2982655,27.4866543
						c-0.1539917-0.0559998-0.3080139-0.112999-0.4630127-0.1679993c-0.0390015-0.0139999-0.0920105-0.0460014-0.1170044,0.0079994
						c-0.0419922,0.0890007-0.1000061,0.1759987-0.0570068,0.2849998c0.0849915,0.2000008,0.1629944,0.4109993,0.2529907,0.612999
						c0.0961914,0.2043839,0.2802124,0.3538284,0.5,0.4059982c0.0426941,0.023201,0.0961304,0.0073929,0.1193237-0.0353127
						c0.0048523-0.0089302,0.0081482-0.0186386,0.0096741-0.0286865c0.0933533-0.2613335,0.1883545-0.5223312,0.2850037-0.7830009
						c0.026001-0.0690002,0-0.105999-0.0629883-0.1290016c-0.1549988-0.0540009-0.3089905-0.1119995-0.4630127-0.1679993
						 M27.4922352,26.8186512c0.1430054,0.0519981,0.2839966,0.105999,0.428009,0.1549988
						c0.1279907,0.0439987,0.1530151,0.0279999,0.1860046-0.0999985c0.0116882-0.0428619,0.0081482-0.0884552-0.0100098-0.1290016
						c-0.1000061-0.2330017-0.1889954-0.4690018-0.2940063-0.7000008c-0.0795288-0.1754532-0.2278442-0.310379-0.4100037-0.3730011
						c-0.0750122-0.0279999-0.1159973-0.0139999-0.1430054,0.0639992c-0.0899963,0.2560005-0.1830139,0.512001-0.2789917,0.7659988
						c-0.0339966,0.0880013,0,0.1259995,0.0769958,0.1539993c0.1499939,0.0499992,0.2999878,0.1069984,0.4460144,0.1609993
						 M26.0862293,30.6806431L26.0862293,30.6806431c-0.1539917-0.0559998-0.3089905-0.1110001-0.4620056-0.1689987
						c-0.0639954-0.0239983-0.1059875-0.0149994-0.131012,0.0550003c-0.0933228,0.2613335-0.1883545,0.5223351-0.2850037,0.7830009
						c-0.0270081,0.0730019,0,0.0999985,0.0679932,0.125c0.1867065,0.0671158,0.3924255,0.0574036,0.571991-0.0270004
						c0.2170105-0.0999985,0.4299927-0.2130013,0.6440125-0.3209991c0.0289917-0.0123444,0.0554504-0.0299759,0.0780029-0.0519981
						c0.0910034-0.0999985,0.0690002-0.1910019-0.0559998-0.2389984c-0.1419983-0.0530014-0.2839966-0.0999985-0.427002-0.1559982
						 M15.6761942,25.0796528c-0.0158691,0.0314445-0.0158691,0.0685539,0,0.0999985
						c0.1466675,0.3546715,0.2940063,0.7093353,0.441987,1.0639992c0.010376,0.0297394,0.0263367,0.0572319,0.0469971,0.0810013
						c0.0366516,0.053894,0.1100464,0.0678825,0.1639404,0.0312424c0.0266724-0.0181389,0.0447693-0.0464134,0.0500488-0.0782433
						c0.0910034-0.2420006,0.1749878-0.4860001,0.2669983-0.7270012c0.0320129-0.0830002,0.0159912-0.1259995-0.0710144-0.1549988
						c-0.1730042-0.0579987-0.3429871-0.1259995-0.5159912-0.1850014c-0.1254282-0.0540009-0.2552195-0.0971603-0.3880014-0.1290016
						 M15.8841715,24.4276485c0.3330088,0.1209984,0.6400156,0.2319984,0.9450083,0.3450012
						c0.0750122,0.0270004,0.1000061-0.0149994,0.1239929-0.0730019c0.0899963-0.2490005,0.1830139-0.5,0.2709961-0.7459984
						c0.0360107-0.0999985,0.0140076-0.1300011-0.0899963-0.1590004c-0.0562744-0.0099983-0.1141357,0.0045586-0.1589966,0.0400009
						c-0.2789917,0.1469994-0.5580139,0.2919998-0.8340149,0.4440002c-0.0944214,0.0325508-0.1814585,0.0835381-0.2560129,0.1500015
						 M29.062151,29.2246532c0.0201416-0.0482635,0.0160522-0.103241-0.0109863-0.1479988
						c-0.1399841-0.3379974-0.2806702-0.6759987-0.4219971-1.0139999c-0.0100403-0.0296822-0.0245667-0.0576668-0.0429993-0.0830002
						c-0.0610046-0.0709991-0.1350098-0.0589981-0.1679993,0.0320015c-0.0929871,0.2480011-0.1789856,0.5-0.2739868,0.7459984
						c-0.0379944,0.0999985,0,0.1360016,0.0870056,0.1650009c0.1789856,0.0620003,0.3559875,0.1290016,0.5339966,0.1940002
						l0.2999878,0.1080017 M28.8171864,29.8686581c-0.2829895-0.0999985-0.5620117-0.2000008-0.8399963-0.3059998
						c-0.071991-0.0270004-0.1170044-0.019001-0.144989,0.0610008c-0.0899963,0.2560005-0.1870117,0.5099983-0.276001,0.7659988
						c-0.0320129,0.0919991,0.019989,0.1479988,0.1130066,0.125c0.0420837-0.0133591,0.0823975-0.0318298,0.1199951-0.0550003
						c0.3126526-0.1653366,0.625-0.3320045,0.9370117-0.5c0.0310059-0.0169983,0.072998-0.0229988,0.0920105-0.0929985"/>
				</g>
				<g id="Groupe_449" transform="translate(0 0)">
					<path id="Tracé_1671" class="st11" d="M18.5541325,2.8046539c-0.0240021,0.0639992-0.0490036,0.1289997-0.0719986,0.1940002
						L3.3131347,44.6746521c-0.0319977,0.0880013-0.0579987,0.1780014-0.086998,0.2670021l-1.3190002-0.4799995
						c-0.1556778-0.0833359-0.3195419-0.1503563-0.4889984-0.2000008c-0.184845-0.0646439-0.3614044-0.1509094-0.526001-0.257
						c-0.7863312-0.5362396-1.0981979-1.544426-0.7519989-2.4309998C2.0628142,36.313652,3.9798064,31.0516529,5.8911376,25.787653
						c2.9619975-8.1333332,5.9240031-16.2683334,8.8860016-24.4050026c0.0530014-0.1469994,0.1070023-0.2950001,0.1740036-0.4360009
						c0.2016068-0.5005932,0.6547394-0.8557816,1.1889963-0.9319973c0.0638733-0.0230885,0.1344452-0.0187473,0.1949997,0.0119991
						c-0.0569992,0.0739994-0.1139984,0.1450005-0.1679993,0.2199993c-0.2803812,0.3387813-0.2748804,0.8305721,0.0130005,1.1630001
						c0.1146164,0.1508198,0.2491837,0.2853813,0.4000015,0.3999996c0.365303,0.2713622,0.7626266,0.4967231,1.1829987,0.6709994
						c0.2600021,0.1140003,0.5240021,0.2199993,0.7860031,0.3299999"/>
				</g>
			</g>
		</g>
	</g>
</g>
<g id="TEXTES_FR">
</g>
<g id="TEXTES_GB">
</g>
</svg>
