<?xml version="1.0" encoding="utf-8"?>
<!-- Generator: Adobe Illustrator 26.0.1, SVG Export Plug-In . SVG Version: 6.00 Build 0)  -->
<svg version="1.1" id="Calque_1" xmlns="http://www.w3.org/2000/svg" xmlns:xlink="http://www.w3.org/1999/xlink" x="0px" y="0px"
	 viewBox="0 0 227 227" style="enable-background:new 0 0 227 227;" xml:space="preserve">
<style type="text/css">
	.st0{fill:#FFF5F7;}
	.st1{fill:#FFBCC6;}
	.st2{fill:#272F60;}
	.st3{fill:#FB657C;}
	.st4{fill:#FFFFFF;}
	.st5{fill:#FD657C;}
	.st6{fill:#FF657C;}
</style>
<g>
	<g id="TEXTES_FR">
	</g>
	<g>
		<g id="ILLUSTRATIONS">
			<g>
				<path id="Tracé_1071_00000139270434685956688210000000235650410092618896_" class="st0" d="M223.8,113.4
					c0,60.9-49.4,110.2-110.2,110.2c-2.3,0-4.4,0-6.5-0.2C46.2,219.8-0.1,167.6,3.5,106.7S59.3-0.4,120,3.3
					C178.3,6.7,223.8,55.1,223.8,113.4z"/>
				<path id="Tracé_1072_00000067934866904991303580000005740600835163340461_" class="st1" d="M107,135.3v88.2
					c-10.1-0.5-19.8-2.6-29.4-5.8v-82.3c0-8,6.5-14.7,14.7-14.7C100.4,120.5,107,127,107,135.3L107,135.3z"/>
				<path id="Tracé_1073_00000007424612633684423660000008981212421143057075_" class="st2" d="M113.5,0C50.8,0,0,50.8,0,113.5
					S50.8,227,113.5,227S227,176.2,227,113.5S176.2,0,113.5,0z M113.5,220.2c-58.9,0-106.8-47.9-106.8-106.8S54.6,6.5,113.5,6.5
					s106.8,47.9,106.8,106.8l0,0C220.3,172.3,172.5,220.2,113.5,220.2z"/>
				<path id="Tracé_1074_00000124134625688181530140000003790524428225870995_" class="st2" d="M77.5,185.3v12h29.4v-12H77.5z"/>
				<path id="Tracé_1075_00000115487786716828699610000003193155497893166738_" class="st2" d="M77.5,209.3v12h29.4v-12H77.5z"/>
				<path id="Tracé_1076_00000023266285826169569620000013337914668854235272_" class="st2" d="M190,98.3V86.2
					c0-1.9-0.7-3.7-2.1-5.2l-10.1-10.1c-1.3-1.3-3.2-2.1-5.2-2.1H45c-4.1,0-7.3,3.2-7.3,7.3l0,0V140c0,4.1,3.2,7.3,7.3,7.3h14.5
					c1.9,0,3.7,0.7,5.2,2.1l25,25c1.3,1.3,3.2,2.1,5.2,2.1H176c4.1,0,7.3-3.2,7.3-7.3v-11.7L190,98.3z"/>
				<path id="Tracé_1077_00000173124407093663589790000011582070313724662429_" class="st3" d="M98.6,98.3v40.9l22.1,22.1H108
					c-1,0-2.1-0.3-2.8-1.2l-19.8-19.8c-0.7-0.7-1.2-1.8-1.2-2.8V102c0-2.3,1.8-3.9,3.9-3.9l0,0C92.3,98.3,98.6,98.3,98.6,98.3z"/>
				<path id="Tracé_1078_00000087384278973220088570000001796235600511496079_" class="st1" d="M197.4,98.3c2.4,0,4.2,1.9,4.2,4.2
					c0,0,0,0,0,0.2v34.7c0,1.2-0.5,2.3-1.2,3.1L180.9,160c-0.8,0.8-1.9,1.2-3.1,1.2h-59.3c-0.8,0-1.8-0.3-2.4-1l-19.3-19.5
					c-1-1-1.8-2.6-1.8-3.9v-35.3c0-1.8,1.3-3.2,3.2-3.2l0,0H197.4z"/>
				<path id="Tracé_1079_00000004541681541048600540000013109675637732760202_" class="st4" d="M106.9,137.2
					c-0.5-0.5-0.8-1.3-0.8-2.1v-24.8c0-1.8,1.3-2.9,2.9-2.9l0,0h80c1.8,0,2.9,1.3,2.9,2.9l0,0v24.8c0,0.8-0.3,1.5-0.8,2.1
					l-13.8,13.8c-0.5,0.5-1.3,0.8-2.1,0.8H123c-0.8,0-1.5-0.3-2.1-0.8C117.9,148.4,109.6,140,106.9,137.2z"/>
				<circle id="Ellipse_86_00000181063829533159047880000007331421812061650833_" class="st5" cx="61.6" cy="128.9" r="5.2"/>
				<circle id="Ellipse_87_00000057124025870950240960000013516250371971603329_" class="st5" cx="61.6" cy="104" r="5.2"/>
				<path id="Tracé_834_00000069373633983912983340000009670662897036943752_" class="st6" d="M129.9,141.8
					c-4.2-0.5-7.2-4.2-6.8-8.4l0,0v-0.2c0.5-3.4,3.2-6.2,6.8-6.3l0,0c0.2-6,5.3-10.7,11.2-10.6c2.4,0,4.6,0.7,6.5,2.1
					c4.2-2.4,9.7-1,12.5,3.1c0.7,1,1,2.3,1.2,3.4h1c3.6,0,6.7,2.8,6.8,6.3c0,0.8-0.2,1.9-0.7,2.8c2.1,1,2.8,3.6,1.8,5.5
					c0,0,0,0.2-0.2,0.2c0,0.2,0,0.2-0.2,0.2l0,0c-0.8,1.3-2.4,2.1-3.9,2.1L129.9,141.8z"/>
				<path id="Tracé_835_00000079471983574928233120000001325719981950754207_" class="st4" d="M147.7,137.6c-0.7,0-1.2-0.5-1.2-1.2
					v-10.6c0-0.7,0.7-1.2,1.3-1.2c0.7,0,1.2,0.5,1.2,1.2v10.6C149.1,137.1,148.4,137.6,147.7,137.6z"/>
				<path id="Tracé_836_00000165197848874312490840000011994377613598519444_" class="st4" d="M151.8,130.1c-0.3,0-0.7-0.2-0.8-0.3
					l-3.1-2.9l-3.1,2.9c-0.5,0.3-1.3,0.3-1.9,0c-0.3-0.5-0.3-1.2,0-1.8l0,0l4.1-3.7c0.5-0.3,1.3-0.3,1.9,0l4.1,3.7
					c0.3,0.5,0.3,1.2,0,1.8l0,0C152.7,129.9,152.2,130.1,151.8,130.1z"/>
			</g>
		</g>
		<g id="TEXTES_GB">
		</g>
	</g>
</g>
</svg>
