<?xml version="1.0" encoding="UTF-8"?>
<svg id="Calque_2" data-name="Calque 2" xmlns="http://www.w3.org/2000/svg" width="388.1820068" height="277.1083278" viewBox="0 0 388.1820068 277.1083278">
  <g id="Calque_5" data-name="Calque 5">
    <g id="Groupe_1925" data-name="Groupe 1925">
      <path id="Tracé_6087" data-name="Tracé 6087" d="M311.7029972,1.08827H161.6910038c-7.621521,.0054801-13.7955551,6.1883912-13.7900772,13.8099194,.0000153,.0120268,.0000381,.0240536,.0000763,.0360804v247.2399893c-.0254135,7.6214905,6.1324234,13.8205261,13.7539139,13.8459473,.0120239,.0000305,.0240631,.000061,.036087,.000061h150.0119934V1.08827Z" style="fill: #fff;"/>
      <path id="Tracé_6088" data-name="Tracé 6088" d="M295.5640087,42.2042719H152.6589947v217.3090019c-.010498,2.7614136,2.2195435,5.0084839,4.980957,5.0189819,.0063477,.0000305,.0126953,.0000305,.019043,.0000305h132.9099884c2.7614136,.0000305,5.0000305-2.2385254,5.0000305-4.9999695,0-.0063324,0-.0126801-.0000305-.0190277l-.0049744-217.3090172Z" style="fill: #fb657c;"/>
      <path id="Tracé_6089" data-name="Tracé 6089" d="M301.7069874,277.1082717H161.694994c-8.1931152,.0222778-14.8530045-6.6015015-14.8752747-14.7946167-.0001297-.0464478-.0000381-.092926,.0002747-.1393738V14.93427c.0023346-3.9590425,1.5594482-7.7588058,4.3359985-10.5810003C153.9414387,1.5452011,157.7398243-.0236708,161.694994,.00027h139.9510193c.5975647-.0016613,1.0833435,.4814179,1.0849915,1.0789877,.0000305,.0030041,.0000305,.0060083,0,.0090123,.0033264,.5975629-.4784241,1.0846715-1.0759888,1.0879877-.0029907,.0000167-.006012,.0000207-.0090027,.0000124H161.694994c-3.3744202-.0127149-6.6106415,1.3394065-8.9729919,3.7490001-2.3939972,2.3864098-3.737854,5.6287422-3.7339935,9.0089998v247.2400112c.0086975,7.0225525,5.6845245,12.7211609,12.7069855,12.7579956h139.9510193c.5975647-.0016479,1.0833435,.4814148,1.0849915,1.0789795,.0000305,.0030212,.0000305,.006012,0,.0090332,.0097656,.5801697-.4443054,1.0626221-1.0240173,1.0879822Z" style="fill: #272f60;"/>
      <path id="Tracé_6090" data-name="Tracé 6090" d="M322.843998,12.3342698c.0583191-6.2195573-4.9363403-11.308784-11.1559143-11.3671057-6.2195435-.0583217-11.3087769,4.9363467-11.3670959,11.155904-.0006714,.0703993-.0006714,.1408024,0,.2112017v252.3789864c-.0583191,6.2195435,4.9363403,11.3087769,11.1559143,11.3670959,6.2195435,.0583191,11.3087769-4.9363403,11.3670959-11.1558838,.0006714-.0704041,.0006714-.1408081,0-.2112122V12.3342698Z" style="fill: #272f60;"/>
      <path id="Tracé_6091" data-name="Tracé 6091" d="M175.1819954,12.6372701h-26.8579941c-.6008835-.0003757-1.0876923-.4877949-1.0873184-1.0886803,.0003738-.6003542,.4869614-1.0869436,1.0873184-1.0873194h26.0750046c.7192383-2.2997055,1.9786835-4.3937564,3.6730042-6.1069999C180.8574104,1.5460298,184.6557198-.023176,188.6109962,.00027c.5975647-.0016698,1.0833435,.4814027,1.085022,1.0789725,0,.0030092,0,.0060184-.0000153,.0090276,.0033112,.5975629-.4784088,1.0846715-1.0759735,1.0879877-.0030212,.0000167-.0060272,.0000207-.0090332,.0000124-3.3744202-.0127189-6.6106415,1.3394024-8.9730072,3.7490001-1.6213531,1.6473966-2.7840881,3.6898594-3.3730011,5.9250002-.1623688,.4619036-.5935211,.775219-1.0829926,.7869997Z" style="fill: #272f60;"/>
      <path id="Tracé_6092" data-name="Tracé 6092" d="M300.3219872,12.6372703h-26.9789886c-.3284302-.0144892-.6350861-.1683626-.8430023-.4230003-.2071991-.2539158-.2749939-.5940466-.1809998-.908,1.6696014-6.6187453,7.6269226-11.2537799,14.4530029-11.2449999,.5975647-.0016698,1.0833435,.4814027,1.085022,1.0789724,0,.0030093,0,.0060185-.0000153,.0090277,.0033112,.5975629-.4784088,1.0846715-1.0759735,1.0879877-.0030212,.0000167-.0060272,.0000207-.0090332,.0000124-3.3744202-.0127149-6.6106415,1.3394065-8.9729919,3.7490001-1.3027496,1.3015547-2.3093262,2.8688869-2.951004,4.5950003h25.5349884c.5975647-.0005693,1.0824585,.4833975,1.0830383,1.0809689,0,.002677,0,.0053539-.0000305,.0080309-.0990906,.5555573-.5797119,.9618206-1.1440125,.967" style="fill: #272f60;"/>
      <path id="Tracé_6093" data-name="Tracé 6093" d="M224.5630035,5.7472701c3.539566-.0143619,6.4205933,2.843379,6.4349518,6.3829427,.0143585,3.5395641-2.8433838,6.4205894-6.3829498,6.4349518-3.5395508,.0143623-6.420578-2.843379-6.4349518-6.3829432-.0000305-.0086508-.0000458-.0173006-.0000458-.0259514-.0049744-3.5315046,2.8515015-6.3996201,6.3829956-6.4089999" style="fill: #272f60;"/>
      <path id="Tracé_6094" data-name="Tracé 6094" d="M224.5660057,9.7372698c1.335968-.0055246,2.4234619,1.0730104,2.4289856,2.4089756,.0055237,1.3359661-1.0730133,2.4234581-2.4089813,2.4289827-1.335968,.0055246-2.4234619-1.0730104-2.4289856-2.4089756-.0000153-.0033274-.0000153-.0066557-.0000153-.0099831-.0027618-1.3332129,1.0757751-2.4162359,2.4089966-2.4189997h0" style="fill: #ffbcc6;"/>
      <path id="Tracé_6095" data-name="Tracé 6095" d="M295.5640087,31.6832701c.010498-2.761404-2.219574-5.0084705-4.980957-5.0189629-.0063477-.0000248-.0126953-.0000362-.019043-.0000362H157.6569958c-2.7614288-.0000191-5.0000153,2.2385406-5.0000305,4.9999638,0,.0063457,0,.0126915,.0000305,.0190372v10.5209961h142.9070129v-10.520998Z" style="fill: #272f60;"/>
      <path id="Tracé_6096" data-name="Tracé 6096" d="M286.9529953,36.0372707h-11.8639984c-.901886,0-1.6329956-.7311192-1.6329956-1.6329994,0-.9018822,.7311096-1.6330013,1.6329956-1.6330013h11.8630066c.8963623-.0016785,1.6243591,.7236023,1.6260376,1.6199589,0,.0043468,0,.0086937-.0000305,.0130405-.0158997,.8923378-.7337341,1.6128139-1.6260071,1.632" style="fill: #fff;"/>
      <path id="Tracé_6097" data-name="Tracé 6097" d="M263.2249947,37.4272691c-.4252014,.0016708-.8175964-.2282486-1.0240021-.5999985-.1913147-.3861828-.1682129-.844038,.0610046-1.2089996,.7220001-1.1490002,1.6860046-2.5400009,2.348999-3.6280003,.2080688-.332819,.5705414-.5375881,.9629974-.5440006,.3999176-.0232906,.7765198,.1894474,.9629974,.5440006,.6629944,1.0879993,1.6260071,2.4790001,2.348999,3.6280003,.2292175,.3649616,.2523193,.8228168,.0610046,1.2089996-.2064056,.3717499-.5988007,.6016693-1.0240021,.5999985h-4.697998Z" style="fill: #fff;"/>
      <path id="Tracé_6098" data-name="Tracé 6098" d="M159.4640083,32.3482706c1.1354828-.0044155,2.0595703,.9125004,2.0639801,2.0479889,.0044098,1.1354885-.9125061,2.0595646-2.0479889,2.0639801-1.1354828,.0044155-2.0595703-.9125004-2.0639801-2.0479889-.0000153-.0026608-.0000153-.0053196-.0000153-.0079803-.0022125-1.1332855,.9147034-2.0537891,2.0479889-2.0559998h.0000153" style="fill: #fff;"/>
      <path id="Tracé_6099" data-name="Tracé 6099" d="M166.5099964,32.3482706c1.1354828-.0044155,2.0595703,.9125004,2.0639801,2.0479889s-.9125061,2.0595646-2.0479889,2.0639801c-1.1354828,.0044155-2.0595703-.9125004-2.0639801-2.0479889-.0000153-.0026608-.0000153-.0053196-.0000153-.0079803-.0022125-1.1332855,.9147034-2.0537891,2.0479889-2.0559998h.0000153" style="fill: #fff;"/>
      <path id="Tracé_6100" data-name="Tracé 6100" d="M173.5559998,32.3482706c1.1354828-.0044155,2.0595703,.9125004,2.0639801,2.0479889,.0044098,1.1354885-.9125061,2.0595646-2.0479889,2.0639801-1.1354828,.0044155-2.0595703-.9125004-2.0639801-2.0479889-.0000153-.0026608-.0000153-.0053196-.0000153-.0079803-.0022125-1.1332855,.9147034-2.0537891,2.0479889-2.0559998h.0000153" style="fill: #fff;"/>
      <path id="Tracé_6101" data-name="Tracé 6101" d="M316.2800026,222.2072727c1.135498-.0044098,2.0595703,.9125061,2.0639954,2.0479889,.0043945,1.1354828-.9125061,2.0595703-2.0480042,2.0639801s-2.0595703-.9125061-2.0639648-2.0479889c-.0000305-.002655-.0000305-.0053253-.0000305-.0079803-.0021973-1.1332855,.9147034-2.0537872,2.0480042-2.0559998h0" style="fill: #fb657c;"/>
      <path id="Tracé_6102" data-name="Tracé 6102" d="M254.9229965,32.3882691c1.1354828-.0044155,2.0595703,.9125004,2.0639801,2.0479889s-.9125061,2.0595646-2.0479889,2.0639801c-1.1354828,.0044155-2.0595703-.9125004-2.0639801-2.0479889-.0000153-.0026608-.0000153-.0053196-.0000153-.0079803-.0022125-1.1332855,.9147034-2.0537891,2.0479889-2.0559998h.0000153" style="fill: #fff;"/>
      <path id="Tracé_6103" data-name="Tracé 6103" d="M186.9259949,33.2552706c-.0112305-.4004307-.1602783-.7847214-.4219971-1.0879993-.2855988-.28689-.6785278-.4407196-1.0829926-.4239998h-2.4120026c-.399231,.0115414-.7820435,.1614189-1.0829926,.4239998-.2861023,.2880344-.4390564,.6823788-.4219971,1.0879993v2.4190006c.0112305,.4004307,.1602783,.7847233,.4219971,1.0880013,.2855988,.2868919,.6785278,.4407196,1.0829926,.4239998h2.4089966c.399231-.0115433,.7820435-.1614189,1.0829926-.4239998,.2861023-.2880344,.4390564-.6823788,.4219971-1.0879993l.003006-2.4190025Z" style="fill: #fff;"/>
      <path id="Tracé_6104" data-name="Tracé 6104" d="M309.897007,77.7562667c-2.2759399-.0114212-4.1116943-1.8656921-4.1002808-4.1416245,.000061-.0101242,.0001526-.0202484,.0002747-.0303726V34.7662708c-.0068054-2.2789478,1.8212891-4.139143,4.1000061-4.171999h4.1560059v47.1619949h-4.1560059Z" style="fill: #fff;"/>
      <path id="Tracé_6105" data-name="Tracé 6105" d="M309.897007,91.6032688h4.1560059v15.4780045h-4.1560059c-2.2759399-.0114212-4.1116943-1.8656921-4.1002808-4.1416245,.000061-.0101242,.0001526-.0202484,.0002747-.0303726v-7.1999969c.0194702-2.2580566,1.8420105-4.085495,4.1000061-4.1110001" style="fill: #fff;"/>
      <path id="Tracé_6106" data-name="Tracé 6106" d="M318.147995,34.7662708c.0355225-2.2950211-1.7961731-4.1843014-4.0911865-4.2198257-2.2950134-.0355244-4.1842957,1.7961597-4.2198181,4.0911808-.0006714,.0428791-.0006714,.0857658,0,.1286449v38.8179989c-.0355225,2.2950211,1.7961731,4.1843033,4.0911865,4.2198257s4.1842957-1.7961578,4.2198181-4.0911789c.0006714-.0428772,.0006714-.0857697,0-.1286469V34.7662708Z" style="fill: #fb657c;"/>
      <path id="Tracé_6107" data-name="Tracé 6107" d="M318.147995,95.7752735c.0355225-2.2950211-1.7961731-4.1843033-4.0911865-4.2198257s-4.1842957,1.7961578-4.2198181,4.0911789c-.0006714,.0428772-.0006714,.0857697,0,.1286469v7.1999969c-.0355225,2.2950211,1.7961731,4.1843033,4.0911865,4.2198257s4.1842957-1.7961578,4.2198181-4.0911789c.0006714-.0428772,.0006714-.0857697,0-.1286469v-7.1999969Z" style="fill: #fb657c;"/>
      <path id="Tracé_6108" data-name="Tracé 6108" d="M306.4030113,222.5692665c-.1434021,.0095367-.2871704-.011261-.4219971-.0610046-.3991089-.1548004-.6620483-.5389252-.6619873-.9669952v-45.9530029c-.0038757-.5970001,.4769592-1.0841064,1.0739746-1.0879822,.0030212-.0000153,.006012-.0000153,.0090332-.0000153h10.6000061c.5970154-.0011139,1.0819092,.4819489,1.0830383,1.0789642,0,.003006,0,.0060272-.0000305,.0090332v35.3099976c-.0083313,.2883606-.1140747,.5653992-.2999878,.7859955l-10.6000061,10.6410065c-.240509,.1356812-.5070496,.2188416-.7820435,.2440033Zm1.0239868-45.9530029v42.2640076l8.4309998-8.4649963v-33.7990112h-8.4309998Z" style="fill: #fb657c;"/>
      <path id="Tracé_6109" data-name="Tracé 6109" d="M162.8359966,271.8482696c-.2712097-.0023804-.538559-.0645294-.7830048-.1820068-.7628021-.4670105-1.4026642-1.1099548-1.8659973-1.875-.4183655-.7827301-.1230011-1.7564087,.659729-2.1747742,.0007477-.000412,.0015106-.0008087,.0022736-.0012207,.766922-.4111633,1.7215881-.1469574,2.1679993,.6000061,.1513062,.2434082,.3565979,.4487,.6000061,.6000061,.7647247,.4366302,1.0328827,1.4091339,.6000061,2.1759949-.2292023,.5527496-.7885284,.8948059-1.3849945,.8470001" style="fill: #272f60;"/>
      <path id="Tracé_6110" data-name="Tracé 6110" d="M169.9430027,271.8482696c-.2712097-.0023804-.538559-.0645294-.7830048-.1820068-.7628021-.4670105-1.4026642-1.1099548-1.8659973-1.875-.4183655-.7827301-.1230011-1.7564087,.659729-2.1747742,.0007477-.000412,.0015106-.0008087,.0022736-.0012207,.766922-.4111633,1.7215881-.1469574,2.1679993,.6000061,.1513062,.2434082,.3565979,.4487,.6000061,.6000061,.7647247,.4366302,1.0328827,1.4091339,.6000061,2.1759949-.2292023,.5527496-.7885284,.8948059-1.3849945,.8470001" style="fill: #272f60;"/>
      <path id="Tracé_6111" data-name="Tracé 6111" d="M177.0480003,271.8482696c-.2712097-.0024109-.5385437-.0645599-.7830048-.1820068-.7628021-.4670105-1.4026642-1.1099548-1.8659973-1.875-.4183655-.7827301-.1230011-1.7564087,.659729-2.1747742,.0007477-.000412,.0015106-.0008087,.0022736-.0012207,.766922-.4111633,1.7215881-.1469574,2.1679993,.6000061,.1513062,.2434082,.3565979,.4487,.6000061,.6000061,.7647247,.4366302,1.0328827,1.4091339,.6000061,2.1759949-.2292023,.5527496-.7885284,.8948059-1.3849945,.8470001" style="fill: #272f60;"/>
      <rect id="Rectangle_1036" data-name="Rectangle 1036" x="309.8970032" y="53.0872718" width="8.2510004" height="2.1760001" style="fill: #272f60;"/>
      <path id="Tracé_6112" data-name="Tracé 6112" d="M224.0969944,58.6912719c-.3766174,.0055237-.6864014-.2953033-.691925-.6719208-.000061-.0040245-.0000916-.0080528-.0000763-.0120773v-4.5699997c0-.3821831,.3098145-.6920013,.6920013-.6920013s.6920013,.3098183,.6920013,.6920013v4.5699997c.0011444,.3766556-.3032684,.6829262-.6799316,.6840668-.0040131,.0000153-.0080414-.0000114-.0120697-.0000687" style="fill: #272f60;"/>
      <path id="Tracé_6113" data-name="Tracé 6113" d="M226.5319939,61.837269c-.0976105-1.6105728-.7312469-3.142189-1.8000031-4.3509979-.2797699-.3504868-.7906952-.407814-1.1411743-.1280441-.0073853,.0058861-.0146484,.0119019-.0218201,.0180435-.0549927,.0279999-.0829926,.0830002-.1109924,.1100006-1.0687561,1.2088089-1.7023926,2.7404251-1.8000031,4.3509979,.0976105,1.6105728,.7312469,3.142189,1.8000031,4.3509979,.2797699,.3504868,.7906952,.407814,1.1411743,.1280441,.0073853-.0058861,.0146484-.0119019,.0218201-.0180435,.0549927-.0279999,.0829926-.0830002,.1109924-.1100006,1.0687561-1.2088089,1.7023926-2.7404251,1.8000031-4.3509979" style="fill: #ffbcc6;"/>
      <path id="Tracé_6114" data-name="Tracé 6114" d="M205.3949947,58.171271c-.3766174,.0055237-.6864014-.2953033-.691925-.6719208-.000061-.0040283-.0000916-.0080528-.0000763-.0120811v-4.5429993c0-.3821831,.3098145-.6920013,.6920013-.6920013s.6920013,.3098183,.6920013,.6920013v4.5699997c-.0196533,.3679924-.3234863,.6564636-.6920013,.6570015" style="fill: #272f60;"/>
      <path id="Tracé_6115" data-name="Tracé 6115" d="M207.8309917,61.3452684c-.0976105-1.6105728-.7312469-3.1421928-1.8000031-4.3510017-.2797699-.3504868-.7906952-.407814-1.1411743-.1280441-.0073853,.0058861-.0146484,.0119019-.0218201,.0180435-.0549927,.0279999-.0829926,.0830002-.1109924,.1100006-1.0687561,1.2088089-1.7023926,2.7404251-1.8000031,4.3509979,.0976105,1.6105728,.7312469,3.142189,1.8000031,4.3509979,.2797699,.3504868,.7906952,.407814,1.1411743,.1280441,.0073853-.0058861,.0146484-.0119019,.0218201-.0180435,.0549927-.0279999,.0829926-.0830002,.1109924-.1100006,1.0591888-1.2147675,1.6914062-2.7429771,1.8000031-4.3509979" style="fill: #fff;"/>
      <path id="Tracé_6116" data-name="Tracé 6116" d="M186.6680031,56.5292689c-.3766174,.0055237-.6864014-.2953033-.691925-.6719208-.000061-.0040245-.0000916-.0080528-.0000763-.0120773v-4.5699997c0-.3821831,.3098145-.6920013,.6920013-.6920013s.6920013,.3098183,.6920013,.6920013v4.5699997c-.008606,.3772469-.314682,.6797829-.6920013,.6839981" style="fill: #272f60;"/>
      <path id="Tracé_6117" data-name="Tracé 6117" d="M189.1300068,59.6752702c-.0976105-1.6105728-.7312469-3.1421928-1.8000031-4.3510017-.2797699-.3504868-.7906952-.407814-1.1411743-.1280441-.0073853,.0058861-.0146484,.0119019-.0218201,.0180435-.0549927,.0279999-.0829926,.0830002-.1109924,.1100006-1.0687561,1.2088089-1.7023926,2.7404251-1.8000031,4.3509979,.0976105,1.6105728,.7312469,3.142189,1.8000031,4.3509979,.2797699,.3504868,.7906952,.407814,1.1411743,.1280441,.0073853-.0058861,.0146484-.0119019,.0218201-.0180435,.0549927-.0279999,.0829926-.0830002,.1109924-.1100006,1.0641174-1.2117043,1.697052-2.7416611,1.8000031-4.3509979" style="fill: #ffbcc6;"/>
      <path id="Tracé_6118" data-name="Tracé 6118" d="M167.9670029,52.6422702c-.3766174,.0055237-.6864014-.2953033-.691925-.6719208-.000061-.0040245-.0000916-.0080528-.0000763-.0120773v-4.5699997c0-.3821831,.3098145-.6920013,.6920013-.6920013s.6920013,.3098183,.6920013,.6920013v4.5699997c.0011444,.3766556-.3032684,.6829262-.6799316,.6840668-.0040131,.0000153-.0080414-.0000114-.0120697-.0000687" style="fill: #272f60;"/>
      <path id="Tracé_6119" data-name="Tracé 6119" d="M170.4290047,55.7902709c-.0976105-1.6105728-.7312469-3.1421928-1.8000031-4.3510017-.2797699-.3504868-.7906952-.407814-1.1411743-.1280441-.0073853,.0058861-.0146484,.0119019-.0218201,.0180435-.0549927,.0279999-.0829926,.0830002-.1109924,.1100006-1.0687561,1.2088089-1.7023926,2.7404251-1.8000031,4.3509979,.0976105,1.6105728,.7312469,3.142189,1.8000031,4.3509979,.2797699,.3504868,.7906952,.407814,1.1411743,.1280441,.0073853-.0058861,.0146484-.0119019,.0218201-.0180435,.0549927-.0279999,.0829926-.0830002,.1109924-.1100006,1.0687561-1.2088089,1.7023926-2.7404251,1.8000031-4.3509979" style="fill: #fff;"/>
      <path id="Tracé_6120" data-name="Tracé 6120" d="M242.7979965,57.90227c-.3766174,.0055237-.6864014-.2953033-.691925-.6719208-.000061-.0040245-.0000916-.0080528-.0000763-.0120773v-4.2700005c0-.3821831,.3098145-.6920013,.6920013-.6920013s.6920013,.3098183,.6920013,.6920013h0v4.2999992c-.0103607,.3722076-.3197632,.6659584-.6920013,.6570015" style="fill: #272f60;"/>
      <path id="Tracé_6121" data-name="Tracé 6121" d="M240.3629913,61.3452684c.0976105-1.6105728,.7312469-3.1421928,1.8000031-4.3510017,.2797699-.3504868,.7906952-.407814,1.1411743-.1280441,.0073853,.0058861,.0146484,.0119019,.0218201,.0180435,.0549927,.0279999,.0829926,.0830002,.1109924,.1100006,1.0687561,1.2088089,1.7023926,2.7404251,1.8000031,4.3509979-.0976105,1.6105728-.7312469,3.142189-1.8000031,4.3509979-.2797699,.3504868-.7906952,.407814-1.1411743,.1280441-.0073853-.0058861-.0146484-.0119019-.0218201-.0180435-.0549927-.0279999-.0829926-.0830002-.1109924-.1100006-1.0591888-1.2147675-1.6914062-2.7429771-1.8000031-4.3509979" style="fill: #fff;"/>
      <path id="Tracé_6122" data-name="Tracé 6122" d="M261.4990005,56.2552706c-.3766174,.0055237-.6864014-.2953033-.691925-.6719208-.000061-.0040283-.0000916-.0080528-.0000763-.0120811v-4.2999992c0-.3821831,.3098145-.6920013,.6920013-.6920013s.6920013,.3098183,.6920013,.6920013v4.2999992c-.008606,.3772469-.314682,.6797829-.6920013,.6839981" style="fill: #272f60;"/>
      <path id="Tracé_6123" data-name="Tracé 6123" d="M259.0639954,59.6752702c.0976105-1.6105728,.7312469-3.1421928,1.8000031-4.3510017,.2797699-.3504868,.7906952-.407814,1.1411743-.1280441,.0073853,.0058861,.0146484,.0119019,.0218201,.0180435,.0549927,.0279999,.0829926,.0830002,.1109924,.1100006,1.0687561,1.2088089,1.7023926,2.7404251,1.8000031,4.3509979-.0976105,1.6105728-.7312469,3.142189-1.8000031,4.3509979-.2797699,.3504868-.7906952,.407814-1.1411743,.1280441-.0073853-.0058861-.0146484-.0119019-.0218201-.0180435-.0549927-.0279999-.0829926-.0830002-.1109924-.1100006-1.0641174-1.2117043-1.697052-2.7416611-1.8000031-4.3509979" style="fill: #ffbcc6;"/>
      <path id="Tracé_6124" data-name="Tracé 6124" d="M280.2280045,52.3702694c-.3766174,.0055237-.6864014-.2953033-.691925-.6719208-.000061-.0040283-.0000916-.0080528-.0000763-.0120811v-4.0229988c0-.3821831,.3098145-.6920013,.6920013-.6920013s.6920013,.3098183,.6920013,.6920013v3.9910011c.0132599,.3797417-.2838287,.6983337-.663559,.7115974-.0094757,.0003319-.0189667,.0004654-.0284424,.0004044" style="fill: #272f60;"/>
      <path id="Tracé_6125" data-name="Tracé 6125" d="M277.7649956,55.7902709c.0976105-1.6105728,.7312469-3.1421928,1.8000031-4.3510017,.2797699-.3504868,.7906952-.407814,1.1411743-.1280441,.0073853,.0058861,.0146484,.0119019,.0218201,.0180435,.0549927,.0279999,.0829926,.0830002,.1109924,.1100006,1.0687561,1.2088089,1.7023926,2.7404251,1.8000031,4.3509979-.0976105,1.6105728-.7312469,3.142189-1.8000031,4.3509979-.2797699,.3504868-.7906952,.407814-1.1411743,.1280441-.0073853-.0058861-.0146484-.0119019-.0218201-.0180435-.0549927-.0279999-.0829926-.0830002-.1109924-.1100006-1.0687561-1.2088089-1.7023926-2.7404251-1.8000031-4.3509979" style="fill: #fff;"/>
      <path id="Tracé_6126" data-name="Tracé 6126" d="M152.7510014,40.4102713c.2723999-.0543671,.5518646,.0521317,.7189941,.2739983,1.2169952,2.0250015,8.4929962,5.0900002,22.7680054,7.8269997,15.7801361,2.9448624,31.8069,4.3653984,47.8589935,4.2420006,16.0808563,.1163445,32.1356812-1.3132324,47.9429932-4.269001,14.2739868-2.7369995,21.4670105-5.7999992,22.6289978-7.7999992,.1390686-.2413483,.4197388-.3632011,.6910095-.2999992,.3616333,.0622864,.6072693,.4020729,.553009,.7649994l-.0830078,.2470016c-2.5180054,3.9949989-17.0690002,7.223999-23.5429993,8.4560013-15.1342468,2.8366661-30.4972229,4.2760544-45.8950043,4.2999992h-2.3000031c-16.1354675,.1149864-32.2449036-1.3145294-48.1080017-4.269001-6.4679871-1.2649994-21.0469818-4.4650002-23.6749878-8.4650002-.1972656-.3130684-.1033783-.7267685,.2096863-.9240303,.0037384-.0023613,.0075073-.0046844,.0113068-.0069695,.0611572-.0529175,.140213-.0804634,.2210083-.0769997Z" style="fill: #272f60;"/>
      <path id="Tracé_6127" data-name="Tracé 6127" d="M213.8960056,93.1802703c.010498-2.2792587,1.8666992-4.118454,4.1459503-4.1079559,2.2792511,.0104904,4.118454,1.8666916,4.1079559,4.1459503-.0104523,2.271431-1.8544464,4.1074219-4.1259003,4.1080017-2.2842407-.0044098-4.1324158-1.859726-4.128006-4.1439743v-.0020218" style="fill: #fff;"/>
      <path id="Tracé_6128" data-name="Tracé 6128" d="M164.4999962,78.4142734c.0077362-1.6949463,1.388031-3.0626984,3.082962-3.0549698,1.6949463,.0077362,3.0627136,1.3880234,3.0549774,3.0829697-.0077057,1.6894684-1.3794556,3.054985-3.0689392,3.0550003-1.6982727-.0033112-3.0723114-1.3827133-3.0690002-3.080986v-.0020142" style="fill: #fff;"/>
      <path id="Tracé_6129" data-name="Tracé 6129" d="M199.0569992,78.413272c.0049744-1.1106339,.9093475-2.0069504,2.0199738-2.0019836,1.1106415,.0049667,2.006958,.9093399,2.0019836,2.0199738-.0049438,1.1071167-.9038391,2.0019913-2.0109558,2.0020065-1.112854-.0022049-2.0132141-.9061356-2.0110016-2.0189896v-.0010071" style="fill: #fff;"/>
      <path id="Tracé_6130" data-name="Tracé 6130" d="M166.9360008,122.9702693c.010498-2.2792587,1.8666992-4.118454,4.1459503-4.1079559,2.2792511,.0104904,4.118454,1.8666916,4.1079559,4.1459503-.0104523,2.271431-1.8544464,4.1074219-4.1259003,4.1080017-2.28479-.0049591-4.1329651-1.8611755-4.128006-4.1459732v-.0000229" style="fill: #fff;"/>
      <path id="Tracé_6131" data-name="Tracé 6131" d="M184.4220028,95.19827c.0049744-1.1106339,.9093475-2.0069504,2.0199738-2.0019836,1.1106415,.0049667,2.006958,.9093399,2.0019836,2.0199738-.0049438,1.1071167-.9038391,2.0019913-2.0109558,2.0020065-1.112854-.0022049-2.0132141-.9061356-2.0110016-2.0189896v-.0010071" style="fill: #fff;"/>
      <path id="Tracé_6132" data-name="Tracé 6132" d="M166.5070038,97.3262731c.0049744-1.1106339,.9093475-2.0069504,2.0199738-2.0019836,1.1106415,.0049667,2.006958,.9093399,2.0019836,2.0199738-.0049438,1.1071167-.9038391,2.0019913-2.0109558,2.0020065-1.112854-.0022049-2.0132141-.9061356-2.0110016-2.0189896v-.0010071" style="fill: #fff;"/>
      <path id="Tracé_6133" data-name="Tracé 6133" d="M282.480999,79.1732694c1.6949463,.0077286,3.0626984,1.3880157,3.0549774,3.082962-.0077362,1.6949463-1.3880157,3.0626984-3.082962,3.0549774-1.6894684-.0077057-3.0549927-1.3794479-3.0550079-3.0689392,.0033112-1.6982727,1.3827057-3.0723114,3.0809784-3.0690079,.0006714,.0000076,.0013428,.0000076,.0020142,.0000076" style="fill: #fff;"/>
      <path id="Tracé_6134" data-name="Tracé 6134" d="M282.4809952,113.7322704c1.1106262,.0049744,2.0069427,.9093475,2.0019684,2.0199814-.0049591,1.1106339-.9093475,2.0069504-2.0199738,2.001976-1.1071167-.0049515-2.0019836-.9038315-2.0019989-2.0109558,.0021973-1.112854,.9061432-2.0132065,2.0189819-2.0110016h.0010223" style="fill: #fff;"/>
      <path id="Tracé_6135" data-name="Tracé 6135" d="M237.9219971,81.6132719c2.2792511,.0104904,4.118454,1.8666992,4.1079559,4.1459503-.0104828,2.2792587-1.8666992,4.118454-4.1459503,4.1079636-2.2714386-.0104599-4.1074219-1.8544617-4.1080017-4.1259155,.0044098-2.2842484,1.8597412-4.1324158,4.1439819-4.128006,.0006714,.0000076,.0013428,.0000076,.0020142,.0000076" style="fill: #fff;"/>
      <path id="Tracé_6136" data-name="Tracé 6136" d="M265.6940002,99.1002733c1.1106262,.0049744,2.0069427,.9093475,2.0019684,2.0199814-.0049591,1.1106339-.9093475,2.0069504-2.0199738,2.001976-1.1071167-.0049515-2.0019836-.9038315-2.0019989-2.0109558,.0021973-1.112854,.9061432-2.0132065,2.0189819-2.0110016h.0010223" style="fill: #fff;"/>
      <path id="Tracé_6137" data-name="Tracé 6137" d="M263.5680046,81.1842672c1.1106262,.0060806,2.0060425,.9113464,1.9999695,2.0219803-.0060883,1.1106262-.9113617,2.0060349-2.0219879,1.9999619-1.1047516-.0060501-1.9977722-.9021683-1.9999847-2.0069427,.0021973-1.112854,.9061432-2.0132065,2.0189819-2.0110016h.0010223" style="fill: #fff;"/>
      <path id="Tracé_6138" data-name="Tracé 6138" d="M233.7759972,99.2412683c1.1106262,.0049744,2.0069427,.9093475,2.0019684,2.0199814-.0049591,1.1106339-.9093475,2.0069504-2.0199738,2.001976-1.1071167-.0049515-2.0019836-.9038315-2.0019989-2.0109558,.0021973-1.112854,.9061432-2.0132065,2.0189819-2.0110016h.0010223" style="fill: #fff;"/>
      <path id="Tracé_6139" data-name="Tracé 6139" d="M202.7920036,113.4042665c-.1185455-.0644302-.2318878-.1379852-.3390045-.2200012-.3083344-.2049408-.5960236-.4393768-.8589935-.6999969-.3901062-.3865585-.7237244-.8262253-.9909973-1.3059998-.3252258-.5735703-.5252991-1.2095261-.5870056-1.8659973-.046463-.3252563-.0246582-.6566315,.0639954-.9729996,.0289764-.1177292,.0791321-.2292099,.147995-.3290024,.0679932-.0841675,.1466522-.1591339,.2339935-.2229996,.7053528-.3792419,1.4998932-.5613022,2.3000031-.5270004,1.0997314,.00177,2.1928406,.1703568,3.2420044,.5,.9289551,.3104858,1.791748,.7917328,2.5440063,1.4189987,.6077728,.5279541,1.1299744,1.1469803,1.5480042,1.8349991,.2851105,.4753113,.5222778,.9777756,.7079926,1.5,.1269989,.3730011,.1790009,.5839996,.1790009,.5839996,.0684662,.6240768,.533371,1.1318665,1.1490021,1.2549973,.5809937,.0429993,1-.788002,.826004-1.625-.0417786-.2536316-.0965271-.5049591-.1640015-.7529984-.178421-.6753159-.4267731-1.3301849-.7409973-1.9540024-.4728699-.9354324-1.0927429-1.7889404-1.8359985-2.5279999-.929718-.89505-2.0224457-1.603508-3.2189941-2.086998-1.3358307-.562294-2.7738342-.8411789-4.2230072-.8190002-.6500702-.0024719-1.2980804,.0734024-1.9299927,.2259979-.699707,.1530457-1.3604279,.4485168-1.9409943,.8679962-.328476,.2413177-.6126709,.5376968-.8399963,.8759995-.1166229,.1641312-.2129822,.3417511-.2870026,.5289993-.0807953,.167366-.1418762,.343544-.1820068,.5250015-.1611023,.6201096-.1951294,1.2664032-.1000061,1.9000015,.2673035,1.7641678,1.1689911,3.3702393,2.5359955,4.5169983,.3862152,.334137,.8057556,.6276779,1.2519989,.8759995l.3560028,.1999969,.128006,.0579987c.3603668,.2156677,.7866821,.2934723,1.1999969,.2190018,.2888947-.0377045,.5383453-.2207413,.6609955-.4850006,.0911102-.3005142,.0426636-.6260452-.1320038-.887001-.1695862-.2671051-.4126282-.4796066-.6999969-.6119995" style="fill: #272f60;"/>
      <path id="Tracé_6140" data-name="Tracé 6140" d="M221.9759922,115.2202703c.1637421-.0778961,.322403-.166069,.4750061-.2639999,.4355621-.2543869,.8484192-.5457993,1.2339935-.8710022,1.3613281-1.1250153,2.3397064-2.6450043,2.8000031-4.3499985,.1420135-.6248779,.1781769-1.2691498,.1069946-1.9059982-.0539551-.3892212-.169754-.7673187-.3430023-1.1200027-.1891022-.3822021-.4533691-.7223206-.7769928-1-.5756989-.4869385-1.2538757-.8376541-1.9839935-1.026001-.6468201-.1629105-1.3101044-.2514877-1.977005-.2639999-2.7922668,.0133209-5.4766998,1.0796661-7.5169983,2.9860001-.7613525,.7429428-1.3912659,1.6095428-1.8630066,2.5630035-.3095856,.6350479-.5444794,1.3038483-.6999969,1.9930038-.0570068,.2419968-.0919952,.4319992-.1100006,.5599976l-.0310059,.1999969c-.1909943,.9520035,.3399963,1.6350021,.8500061,1.6419983,.5899963,0,.9790039-.6309967,1.1230011-1.2720032l.0379944-.1549988c.022995-.0999985,.0590057-.2480011,.1199951-.439003,.1601257-.5287018,.3809357-1.0370865,.6580048-1.5149994,.4063721-.6960754,.9238739-1.3209915,1.5319977-1.8499985,.7546844-.6339264,1.6156311-1.1292343,2.5429993-1.4629974,1.057373-.3615799,2.1638489-.5591965,3.2810059-.5859985,.4447632,.0070648,.8878021,.0569687,1.322998,.1490021,.3346405,.0724792,.6523438,.208252,.9360046,.4000015,.1806946,.1261673,.3023376,.3203659,.3370056,.538002,.0504608,.3348083,.0460663,.6756058-.0130005,1.0090027-.1269073,.6774445-.3777771,1.3256378-.7400055,1.9120026-.2996216,.494133-.6567688,.9509888-1.0639954,1.3610001-.2725067,.276886-.568634,.5295105-.8849945,.7549973l-.2550049,.185997-.0939941,.0559998c-.2984467,.1529922-.5515442,.3815994-.7339935,.663002-.1554565,.2330551-.2095947,.5192642-.1499939,.7929993,.1132355,.3083572,.3922424,.5252762,.7189941,.5589981,.4044647,.0675125,.8196259-.0165176,1.1660004-.2360001" style="fill: #272f60;"/>
      <path id="Tracé_6141" data-name="Tracé 6141" d="M235.7380028,113.1602737l-32.8419952,.3000031-2.9579926,.8570023-4.2129974-.7929993-7.3269958,.0650024c-.693985,0-1.256897,.5620041-1.2579956,1.2559967l.1210022,12.9580002,.6080017,3.8180008-.5379944,3.1999969,.2769928,29.8649979c.0136719,.6946411,.5878601,1.2466736,1.2825012,1.233017,.0001678-.0000153,.0003357-.0000153,.0005035-.0000153l47.3399963-.4250031c.6942139,.0011139,1.2578888-.5607758,1.2590027-1.2549896v-.0000153h0l-.2799988-29.8649979-.6069946-3.685997,.5410004-3.3259964-.1210022-12.9599991c-.0147552-.6947556-.5892181-1.2463913-1.2839966-1.2330017l-.0010376-.0090027Z" style="fill: #fff;"/>
      <path id="Tracé_6142" data-name="Tracé 6142" d="M211.0569935,117.5152713s-.0639954,4.6750031-.1190033,11.0149994c.0119934,3.3270035-.0209961,7.1640015,.0119934,10.9850006,.026001,2.1589966,.0590057,4.4820023,.1499939,6.6270065,.2259979,8.4389954,.4539948,15.3809967,.4539948,15.3809967,0,1.5,.5,2.5500031,1.0169983,2.6000061,.5850067,.0350037,.9859924-1.220993,.9940033-2.5549927,0,0,.0930023-7.0130005,.1269989-15.345993,.0379944-2.1729965,.0119934-4.3320007-.0209961-6.6559982-.0310059-3.8209991-.1269989-7.6299973-.1999969-10.9430008-.1369934-6.3000031-.3390045-11.0780029-.3390045-11.0780029,0-1.5-.5-2.5500031-1.0169983-2.5999985-.6470032-.0169983-1.1100006,1.2509995-1.0559998,2.5699997" style="fill: #272f60;"/>
      <rect id="Rectangle_1037" data-name="Rectangle 1037" x="195.973663" y="113.4871911" width="7.1690001" height="52.3279987" transform="translate(-1.2399508 1.7888211) rotate(-.512)" style="fill: #272f60;"/>
      <rect id="Rectangle_1038" data-name="Rectangle 1038" x="187.2945404" y="127.5760994" width="49.8829992" height="7.013" transform="translate(-1.2102088 1.9799914) rotate(-.533)" style="fill: #272f60;"/>
      <path id="Tracé_6143" data-name="Tracé 6143" d="M240.5069923,127.9802677c-2.1810913-.762146-3.9199982-2.4396896-4.7599945-4.5920029-.6139984-1.3796921-.5883942-2.9599304,.0700073-4.3190002,.7079926-1.2139969,2.3000031-1.9300003,4.3560028-1.9700012,1.9072266-.0185852,3.7853088,.4686203,5.4429932,1.4120026,2.8058167,1.6660538,4.5558167,4.6596832,4.6309967,7.9219971-.0014954,.6627426-.539978,1.1987839-1.202713,1.1972809-.660614-.0014954-1.1957855-.5366592-1.1972809-1.1972809-.0834656-2.4097214-1.3766632-4.6148071-3.4389954-5.8639984-1.2787476-.7224045-2.7243195-1.097496-4.1929932-1.0879974-1.3070068,.0230026-2.1119995,.4110031-2.3309937,.7850037-.2791138,.7411346-.242981,1.5641785,.1000061,2.2779999,.6190491,1.5586395,1.9077606,2.7551498,3.5079956,3.2569962,.6246338,.2079391,.9624329,.8828659,.7545013,1.5074997-.2079468,.6246414-.8828735,.9624405-1.5075073,.7545013-.0800018-.0270004-.1600037-.0550003-.2389984-.0839996" style="fill: #272f60;"/>
      <path id="Tracé_6144" data-name="Tracé 6144" d="M248.6390038,127.5522739c-.472702-.1698151-.7882385-.6177216-.7890015-1.1200027,.002182-3.2822952,1.7717743-6.3090668,4.6309967-7.9209976,1.6578827-.943779,3.5364075-1.4310074,5.4440002-1.4120026,2.0570068,.038002,3.6470032,.7559967,4.3569946,1.9680023,.6392975,1.3474426,.6539154,2.9078064,.0399933,4.2669983-.8892212,2.3099213-2.776413,4.093071-5.1329956,4.8499985-.6246338,.2082138-1.2997894-.129364-1.5079956-.7539978-.2082214-.6246414,.129364-1.2997894,.7539978-1.5080032h0c1.6654816-.5423813,3.0020142-1.7997131,3.6450043-3.4290009,.3363647-.6950607,.3838196-1.4950409,.1320038-2.2249985-.6215363-.5956192-1.4755554-.8843231-2.3309937-.788002-1.4685211-.0092926-2.9139557,.3654251-4.1929932,1.086998-2.116684,1.196022-3.4299469,3.4347992-3.4409943,5.8659973-.0057983,.6627197-.5477295,1.1952591-1.2104492,1.1894684-.1356049-.0011902-.2700195-.0253525-.3975525-.0714645" style="fill: #272f60;"/>
      <path id="Tracé_6145" data-name="Tracé 6145" d="M270.6679955,125.3302738h-6.2319946l-3.5149994,.6620026-3.220993-.6620026h-17.3000031l-4.3200073,.5690002-2.4199982-.5690002h-6.2850037c-.9891357-.0049744-1.7950134,.7928391-1.7999878,1.7819672,0,.0013428-.0000153,.0026932-.0000153,.0040359v37.0089951c.0027466,.9891357,.806839,1.7887573,1.7959747,1.7860107,.0013428,0,.0026855-.0000153,.0040283-.0000153h43.3000031c.9891357,.0049744,1.7950134-.7928314,1.7999878-1.7819672,0-.0013428,.0000153-.0026855,.0000153-.0040283v-37.0090027c-.0027313-.9891357-.8067932-1.7887878-1.795929-1.7860565-.0036926,.0000076-.0073853,.0000305-.0110779,.000061Z" style="fill: #ffbcc6;"/>
      <path id="Tracé_6146" data-name="Tracé 6146" d="M248.0290031,129.1062728s-.1000061,3.5-.2089996,8.2549973c-.0200043,2.5-.0839996,5.3700027-.0870056,8.2350006,.0059967,1.6180038,.0160065,3.359993,.0829926,4.9679947,.1390076,6.3269958,.2920074,11.5319977,.2920074,11.5319977-.0140076,1.1230011,.4450073,1.9160004,.9340057,1.9559937,.5509949,.0299988,.9389954-.9089966,.9589996-1.8999939,0,0,.1490021-5.2570038,.2570038-11.5,.0549927-1.628006,.0500031-3.2460022,.0379944-4.9869995,0-2.8649979-.052002-5.7200012-.0939941-8.1999969-.0720062-4.7190018-.2200012-8.3069992-.2200012-8.3069992,.0140076-1.1230011-.4450073-1.9160004-.9340057-1.9570007-.6109924-.0339966-1.0590057,.9140015-1.0189972,1.9050064Z" style="fill: #272f60;"/>
      <rect id="Rectangle_1039" data-name="Rectangle 1039" x="257.7000122" y="125.3302719" width="6.7350001" height="40.5810013" style="fill: #272f60;"/>
      <rect id="Rectangle_1040" data-name="Rectangle 1040" x="233.6580048" y="125.3302719" width="6.7399998" height="40.5810013" style="fill: #272f60;"/>
      <path id="Tracé_6147" data-name="Tracé 6147" d="M170.2619934,141.4332725c1.4856415,0,2.6900024,1.2043533,2.6900024,2.6900024s-1.204361,2.6900024-2.6900024,2.6899948c-1.4856415,0-2.6900024-1.2043533-2.6900024-2.6899948,0-1.4856491,1.2043457-2.6900024,2.6900024-2.6900024h0" style="fill: #fff;"/>
      <path id="Tracé_6148" data-name="Tracé 6148" d="M165.8419971,165.6502658c2.4405518,.0005493,4.4185486,1.9794464,4.4179993,4.4199982-.0005493,2.4405518-1.9794464,4.4185486-4.4199982,4.4179993-2.4397583-.0005493-4.41745-1.9782257-4.4179993-4.4179993,0-2.4411011,1.9788971-4.4199982,4.4199982-4.4199982" style="fill: #fff;"/>
      <path id="Tracé_6149" data-name="Tracé 6149" d="M172.9519978,194.8592731c1.4856415,0,2.6900024,1.204361,2.6900024,2.6900024s-1.204361,2.6900024-2.6900024,2.6900024-2.6900024-1.204361-2.6900024-2.6900024,1.2043457-2.6900024,2.6900024-2.6900024h0" style="fill: #fff;"/>
      <path id="Tracé_6150" data-name="Tracé 6150" d="M282.8740044,133.3652679c1.4856415,0,2.6900024,1.2043533,2.6900024,2.6900024s-1.204361,2.6900024-2.6900024,2.6899948c-1.4856415,0-2.6900024-1.2043533-2.6900024-2.6899948,0-1.4856491,1.2043457-2.6900024,2.6900024-2.6900024h0" style="fill: #fff;"/>
      <path id="Tracé_6151" data-name="Tracé 6151" d="M115.5040035,195.1782753c-1.7378693,4.315094-2.0685959,9.0688171-.9449997,13.5829926,1.2929993,4.7769928,17.3000031,3.6309967,14.9110031-12.2400055l-13.9660034-1.3429871Z" style="fill: #272f60;"/>
      <path id="Tracé_6152" data-name="Tracé 6152" d="M65.1080017,264.6832649s8.8470001-1.5420074,14.6620026,0c4.3249969,1.1439972,6.7590027,4.9759979,8,8.0110016,.351181,.9068146,.2392731,1.9277802-.3000031,2.7369995-.5356445,.7956848-1.4269333,1.2786713-2.3860016,1.2929993h-17c-1.6192627-.0038605-2.9303551-1.3167419-2.9319992-2.9360046-.0439987-3.5829926-.0439987-9.1049957-.0439987-9.1049957Z" style="fill: #272f60;"/>
      <path id="Tracé_6153" data-name="Tracé 6153" d="M94.1330032,264.6832649s8.8470001-1.5420074,14.6620026,0c4.3249969,1.1439972,6.7590027,4.9759979,8,8.0110016,.351181,.9068146,.2392731,1.9277802-.3000031,2.7369995-.5356445,.7956848-1.4269333,1.2786713-2.3860016,1.2929993h-17c-1.6192627-.0038605-2.9303513-1.3167419-2.9319992-2.9360046-.0439987-3.5829926-.0439987-9.1049957-.0439987-9.1049957Z" style="fill: #272f60;"/>
      <path id="Tracé_6154" data-name="Tracé 6154" d="M120.1760035,184.4812671s-6.163002,64.2809906-7.6760025,79.3610077c-.1531143,1.5234833-1.4358444,2.6829987-2.9670029,2.6820068h-13.6609955c-1.4762421,.0060883-2.6779099-1.1857147-2.6839905-2.6619568,0-.0006866-.0000076-.001358-.0000076-.0020447v-.0220032l-2.137001-52.0920105c0-3.6329956-6.3119965-3.6329956-6.3119965,0l-2.0380096,52.0910034c.0082932,1.4756775-1.1812592,2.6786804-2.6569366,2.6869812-.001358,0-.0027084,.0000153-.0040665,.0000153-.0072861,.0011749-.0147171,.0011749-.0220032,0h-13.609993c-1.5335655-.000351-2.8168335-1.1638031-2.9669991-2.6900024-1.4749985-14.9349976-7.7280006-79.3529968-7.7280006-79.3529968H120.1760035Z" style="fill: #fb657c;"/>
      <path id="Tracé_6155" data-name="Tracé 6155" d="M68.0869999,261.8122741c-.4912415,.0361176-.9187813-.3327637-.9550018-.8240051v-.0070038l-.125-1.7870026c-.0366783-.4907227,.3313904-.9182587,.8221054-.9549408,.0003014-.0000153,.0005989-.0000458,.0008965-.000061h.007c.4907646-.0360413,.9178276,.3325653,.9538765,.8233337,.000042,.0005493,.0000839,.0011139,.0001221,.0016632v.0059967l.125,1.7870026c.0011253,.4807587-.3528481,.8885498-.8289986,.9550171Zm-.4280014-5.4069977c-.4907608,.036087-.9178543-.3325043-.9539452-.8232574-.0000153-.0002441-.0000343-.0005035-.0000534-.0007477v-.0070038l-.125-1.7870026c-.0102272-.2372589,.060276-.4709778,.2000008-.6629944,.1643524-.1734009,.3885078-.2778015,.6269989-.2920074,.4895668-.0372314,.9166222,.3294678,.9538498,.8190308l.0001488,.0019684v.0090027l.125,1.7870026c.0367355,.4903412-.3306999,.9177399-.8209991,.9550018h-.0079994l.0019989,.0010071Zm-.4239998-5.3569946c-.4907646,.0360413-.9178276-.3325653-.9538765-.8233337-.000042-.0005493-.0000839-.0011139-.0001221-.0016632v-.0059967l-.125-1.7870026c-.0361519-.490509,.3315659-.9177399,.8219986-.9550018h.0079994c.4907608-.036087,.9178543,.3325043,.9539452,.8232574,.0000153,.0002441,.0000343,.0005035,.0000534,.0007477v.0070038l.125,1.7870026c.0361366,.4908752-.3321686,.9182587-.8230019,.9550018h-.0059929m-.473999-5.3529968c-.4908638,.0355377-.9177666-.3331909-.9539986-.8240051v-.0070038l-.125-1.7870026c-.0102272-.2372589,.060276-.4709778,.2000008-.6629944,.1642685-.1738129,.3883247-.2788696,.6269989-.2940063,.4912262-.0355225,.9182854,.333786,.9539986,.8249969v.0070038l.125,1.7870026c.0097618,.2368927-.0607071,.4701385-.2000008,.6620026-.1644096,.1737671-.3883171,.2790985-.6270027,.2949829l.0000038-.0009766Zm-.4239998-5.3569946c-.4908638,.0355377-.9177666-.3331909-.9539986-.8240051v-.0070038l-.125-1.7870026c-.0102272-.2372589,.060276-.4709778,.2000008-.6629944,.1641731-.173645,.3884315-.2780914,.6269989-.2920074,.4901619-.0366821,.9172516,.3309479,.9539299,.821106,.0000229,.0003052,.0000458,.0005951,.0000687,.0009003v.0079956l.125,1.7859955c.0576134,.4675598-.2747154,.8932953-.7422791,.9509125l-.000721,.0000916c-.0289993,0-.0579987,0-.0870018,.0059967m-.4239998-5.3569946c-.4908638,.0355377-.9177666-.3331909-.9539986-.8240051v-.0079956l-.125-1.7859955c-.0372696-.4901123,.329834-.9176483,.8199539-.9549255,.0003471-.0000305,.0006981-.0000458,.0010452-.0000763h.0079994c.4901695-.0366058,.9171982,.3310852,.9537964,.8212585,.0000687,.0009155,.0001373,.0018311,.0002022,.0027466v.0070038l.125,1.7859955c.0570068,.4670868-.275425,.8919373-.7425041,.9489441-.000164,.0000153-.0003319,.0000458-.0004959,.000061-.0293312,.0033417-.0583305,.0056763-.0870018,.0070038m-.4239998-5.3569946c-.4908638,.0355377-.9177666-.3331909-.9539986-.8240051v-.0070038l-.125-1.7870026c-.0366783-.4907227,.3313904-.9182587,.8221054-.9549408,.0003014-.0000153,.0005989-.0000458,.0008965-.000061h.007c.4913559-.0354919,.918457,.3340454,.9539566,.8254089,.0000153,.0001984,.0000267,.0003967,.000042,.0005951v.0059967l.125,1.7870026c.0103188,.2369537-.0602074,.4703979-.2000008,.6620026-.1750603,.158844-.3938904,.2612915-.6279984,.2940063m-.4729996-5.3529968c-.4907608,.036087-.9178543-.3325043-.9539452-.8232574-.0000153-.0002441-.0000343-.0005035-.0000534-.0007477v-.0070038l-.125-1.7870026c-.0361671-.4901581,.3309669-.9172058,.8209991-.9550018h.0089989c.489521-.0378265,.9170189,.3283539,.9548416,.8178711,.0000534,.0007172,.0001068,.0014191,.0001602,.0021362v.0099945l.125,1.7859955c.0367203,.4907074-.3312988,.9182587-.8219986,.9550018l-.0090027,.0020142Zm-.4239998-5.3569946c-.4906883,.0361176-.9177742-.3323212-.9539986-.822998v-.0079956l-.125-1.7870026c-.0355721-.4906921,.3324356-.9177246,.8230019-.9550018h.0079994c.4903259-.0361328,.9172592,.3317261,.9539986,.8220062v.0079956l.125,1.7870026c.0570564,.4669342-.2750969,.8917389-.7420006,.9490051-.0288544,.0037231-.0579071,.005722-.0870018,.0059967" style="fill: #272f60;"/>
      <path id="Tracé_6156" data-name="Tracé 6156" d="M97.1140032,262.0972663c-.4924164,.0010986-.8927994-.3965912-.8949966-.8890076v-.0070038l-.0490036-1.7910004c-.0049667-.4920654,.3898926-.894989,.881958-.8999481,.0020142-.0000305,.0040283-.0000458,.0060425-.0000458h.0070038c.4926376-.0016632,.8933411,.3963623,.8949966,.8889923v1.8000183c-.0075912,.2375946-.0953522,.4656219-.2490005,.6470032-.1513748,.1704102-.3724365,.262146-.5999985,.2489929m-.0490036-5.3730011c-.4920807,.0022125-.8927841-.3949127-.894989-.8869934-.0000076-.0006714-.0000076-.0013428-.0000076-.0020142v-.0070038l-.0500031-1.7920074c-.0022125-.4920807,.3948975-.8927917,.8869781-.8950043h.0080261c.4922485-.0016632,.8927917,.395752,.8949966,.8880005v.0070038l.0500031,1.7920074c-.0304565,.4819794-.4132004,.8668518-.8949966,.8999939m-.0999985-5.3739929c-.4922485,.0016632-.8927917-.395752-.8949966-.8880005v-1.8000031c.0075912-.2375946,.0953522-.4656219,.2490005-.6470032,.1629944-.1810913,.4025955-.2735901,.6449966-.2489929,.4920807-.0022125,.8927841,.3949127,.894989,.8869934,.0000076,.0006714,.0000076,.0013428,.0000076,.0020142v.0070038l.0500031,1.7920074c-.0721893,.4799042-.4618912,.8489838-.9449997,.8950043m-.0490036-5.3730011c-.4920807,.0022125-.8927841-.3949127-.894989-.8869934-.0000076-.0006714-.0000076-.0013428-.0000076-.0020142v-1.8000031c.0066757-.2375946,.0941544-.4658203,.2480011-.6470032,.1763916-.1618805,.4076004-.2508545,.6470032-.2489929,.4924164-.0010986,.8927994,.3965912,.8949966,.8890076v1.8000031c-.0300293,.4821625-.413002,.8672791-.8949966,.8999939m-.0500031-5.4230042c-.4926376,.0016632-.8933411-.3963623-.8949966-.8889923v-1.8000183c.0066757-.2375946,.0941544-.4658203,.2480011-.6470032,.1766052-.1615295,.4076691-.2504578,.6470032-.2489929,.4924164-.0010986,.8927994,.3965912,.8949966,.8890076v1.8000031c-.0296021,.4823608-.4128036,.8677063-.8949966,.8999939m-.0999985-5.322998c-.4926376,.0016632-.8933411-.3963623-.8949966-.8889923v-1.8000183c.0068359-.2375641,.0942993-.4657288,.2480011-.6470032,.1762161-.1620331,.4076233-.2507324,.6470032-.2480011,.4920807-.0022125,.8927841,.3949127,.894989,.8869934,.0000076,.0003357,.0000076,.0006714,.0000076,.0010071v1.8000031c-.0304565,.4819794-.4132004,.8668518-.8949966,.8999939m-.0500031-5.3739929c-.4922485,.0016632-.8927917-.395752-.8949966-.8880005v-.0070038l-.0500031-1.7920074c-.0038681-.4931793,.3927917-.8961029,.8859634-.8999786,.000679,0,.001358-.0000153,.002037-.0000153h.0070038c.4920807-.0022125,.8927841,.3949127,.894989,.8869934,.0000076,.0006714,.0000076,.0013428,.0000076,.0020142v.0070038l.0500031,1.7920074c-.0497665,.4721527-.4228516,.8452301-.8949966,.8950043m-.0999985-5.4230042c-.4915237,.0027618-.8922272-.3934631-.8949814-.8849945-.0000076-.0009918-.0000153-.0019989-.0000153-.003006v-.0070038l-.0500031-1.7920074c-.0044174-.4926147,.3913422-.8955536,.8839645-.8999634,.0013428-.0000153,.0026932-.0000305,.0040359-.0000305h.0070038c.4924164-.0010986,.8927994,.3965912,.8949966,.8890076v.0070038l.0500031,1.7920074c.0016632,.4922485-.395752,.892807-.8880005,.8950043h-.0070038m-.0500031-5.3730011c-.4926376,.0016632-.8933411-.3963623-.8949966-.8889923v-1.8000183c.0066757-.2375946,.0941544-.4658203,.2480011-.6470032,.1637115-.1812897,.4039917-.2737579,.6470032-.2489929,.4924164-.0010986,.8927994,.3965912,.8949966,.8890076v1.8000031c.0044174,.4926147-.3913422,.8955536-.8839645,.8999634-.0013428,.0000153-.0026932,.0000305-.0040359,.0000305h-.0070038" style="fill: #272f60;"/>
      <path id="Tracé_6157" data-name="Tracé 6157" d="M119.2959967,193.3802749l-54.2280006-.029007c0,.3000031,.0489998,.6000061,.0489998,.8999939,.362999,4.6759949-3.4169998,4.826004-8.3889999,5.173996s-9.3219986,.6999969-9.6850014-3.9799957c-1.2159996-16.4190063-.3689995-29.0160065,1.3069992-38.8000031,.7509995-4.3800049,4.7459984-34.1999969,44.2640038-33.1559982,30.3379974,.8000031,36.723999,25.1610031,37.5379944,32.715004,1.2870865,12.8087616,1.4309998,25.7067108,.4300079,38.5410004-.3619995,4.6779938-10.2929993,4.0480042-11.7429962,3.6000061l.4569931-4.9649963Z" style="fill: #fb657c;"/>
      <path id="Tracé_6158" data-name="Tracé 6158" d="M71.4080009,130.9412729c-.7999992-.2490005-2.8330002-3.5820007-3.2809982-6.0199966-1.597023-8.3544998-1.8733826-16.9078369-.8190002-25.3479996,1.5157661-9.7605133,9.7636299-17.0603561,19.6359978-17.3790054,.3259964-.0080032-.3270035-.0080032,0,0,10.9290009,.2109985,20.2070007,7.2139969,20.1829987,18.1590042-.03022,7.8842239-.6889725,15.7534866-1.9700012,23.5330048-1.1930008,6.1200027-5.4169998,7.9120026-6.5110016,8.2099991,0,0,.0500031,1.9400024,.0500031,3.0849991,.0085449,.7998276-.5564804,1.4911652-1.3420029,1.6419983-8.1376114,.9914932-16.3665009,.9747009-24.5-.0500031-.8321762-.0932999-1.4565392-.8047485-1.4410019-1.6419983v-4.1790009l-.0049934-.0110016Z" style="fill: #fb657c;"/>
      <path id="Tracé_6159" data-name="Tracé 6159" d="M100.4139977,109.8422662c-.1548996,.4312668-.2386627,.8848495-.2480011,1.3430023-.0222244,.4692307,.028038,.9390793,.1490021,1.3929977-.0312958,.8101501,.60009,1.4922791,1.4102402,1.5235748,.7962494,.0307617,1.4716415-.5793076,1.521759-1.3745728,.1548996-.4312668,.2386627-.8848495,.2480011-1.3430023,.0216522-.4692154-.028595-.9389801-.1490021-1.3929977,.0312958-.8101501-.60009-1.4922791-1.4102402-1.5235748-.7962494-.0307617-1.4716415,.5793076-1.521759,1.3745728" style="fill: #272f60;"/>
      <path id="Tracé_6160" data-name="Tracé 6160" d="M87.1439981,109.5442668c-.1548996,.4312668-.2386627,.8848495-.2480011,1.3430023-.0222397,.4692307,.0280228,.9390869,.1490021,1.3929977-.0312958,.8101501,.60009,1.4922791,1.4102402,1.5235748,.7962494,.0307617,1.4716415-.5793076,1.521759-1.3745728,.1548996-.4312668,.2386627-.8848495,.2480011-1.3430023,.0216522-.4692154-.028595-.9389801-.1490021-1.3929977,.0502548-.8093719-.5651245-1.5062408-1.3744965-1.5565033-.8093796-.0502548-1.5062485,.5651321-1.5565033,1.3745041v.0329971" style="fill: #272f60;"/>
      <path id="Tracé_6161" data-name="Tracé 6161" d="M96.8970022,131.9142696s-.4469986-.0500031-1.2919998-.0500031c-.5459976,0-1.1930008,0-1.939003,.0500031-.5999985,.0500031-1.2419968,.1490021-1.939003,.2490005-.4469986,.0490036-.8450012,.1490021-1.3420029,.2480011-.577713-.0503464-1.086853,.3771667-1.1371994,.9548721-.0482864,.5540848,.3438644,1.0496979,.8942032,1.130127h.0449982c.5,.1490021,.9440002,.3000031,1.4410019,.4000015,.7194366,.1444244,1.4546204,.1945114,2.1869965,.1490021,.7401886-.0625076,1.4726028-.1964645,2.1869965-.4000015,.4874725-.140419,.9551926-.3420258,1.3919983-.5999985,.562027-.1499252,.896347-.7268143,.7470016-1.2890015h0c-.0799026-.556366-.5956039-.9426956-1.1520004-.862999-.0313263,.0073242-.0619888,.0143204-.0919876,.0209961Z" style="fill: #272f60;"/>
      <path id="Tracé_6162" data-name="Tracé 6162" d="M46.5799985,74.8332693c15.2280006,0,14.0149994-3.8479996,32.9239998-3.8479996,9.2649994,0,20.5759964,5.8550034,24.1940002,9.0589981,3.6180038,3.2039948,2.7700043,15.2890015,2.7700043,15.2890015l-38.9520035,7.0439987s-6.4720001,.2549973-5.9650002-8.5100021c0,0-10.0239983-10.8000031-14.3390007-11.3059998l-.632-7.7279968Z" style="fill: #fb657c;"/>
      <path id="Tracé_6163" data-name="Tracé 6163" d="M66.8600006,102.8112699c-2.9000015,3.5739975-2.5089989,11.0139999-.6769981,14.0999985-4.7299995,3.2839966-7.3479996,11.9830017-6.7140007,16.137001,2.0999985-2.288002,3.2000008-2.4810028,3.9760017-2.4100037,1.0460014,.0940018,1.6220016,1.3479996,1.7480011,1.8899994,1.0279999,4.435997,9.5,18.5720062,25.6559982,18.5720062,18.0439987,0,21.5699997-14.2259979,18.0049973-23.4929962-.3620758-.9341354-.4365997-1.9551926-.2139969-2.9319992,1.2229996-5.3730011-.7710037-10.9000015-2.0879974-10.25-.961998,.4729996,.1760025,3.9069977-4.0500031,3.9069977-2.7490005,0-3.7320023-2.1539993-6.3889999-2.1539993-4.3180008,0-3.6800003,2.2600021-8.4079971,2.2600021h-.0999985c-2.3337708-.0673981-4.1853867-1.988327-4.1669998-4.322998v-7.8730087s1.5859985,.5589981,6.1999969-2.5670013c3.3099976,2.2389984,8.1569977,1.7269974,10.4000015,.0469971,1.414299,1.1254654,3.2078781,1.662674,5.0080032,1.5,.3175201,1.2749481,.9482422,2.4504776,1.8349915,3.4200058,0,0,3.4800034-2.2450027,3.3389969-12.3239975,1.6500168-2.3022995,2.5077057-5.0782013,2.4440002-7.9100037,0-4.5770035-4.3939972-7.673996-9.8549957-9.0159988-.4508743-.1204376-.9140091,.1474304-1.0344467,.5983047-.0532379,.1992874-.0317383,.4111633,.0604477,.5956955,1.5449982,3.2200012,2.25,8.3430023-3.5,8.5199966-6.852005,.2170029-20.1600037,1.4360046-31.4750023,13.7050018Z" style="fill: #fff;"/>
      <path id="Tracé_6164" data-name="Tracé 6164" d="M70.6190014,83.2392704s-.3810005,.1080017-1.0159988,.3249969c-.8509521,.2952194-1.682003,.6449432-2.487999,1.0469971-1.114357,.5918732-2.1718254,1.285141-3.1590042,2.0710068-.5844498,.4833298-1.1203232,1.0225525-1.5999985,1.6100006-.8074989,.9168472-1.5496559,1.8892365-2.2210007,2.9100037-.5079994,.7779999-.7999992,1.2710037-.7999992,1.2710037-.28265,.6309357-.1067581,1.3730392,.4290009,1.8099976,.5541954,.3405075,1.2708206,.2484894,1.7210007-.2210007,0,0,.355999-.4079971,.9370003-1.0299988,.7384148-.7928009,1.516758-1.5474472,2.3320007-2.2610016,.5089989-.4000015,.9760017-.8280029,1.487999-1.2819977,.8639984-.7139969,1.7369995-1.4110031,2.5460014-1.9499969,.7680016-.5179977,1.4700012-.9449997,1.9830017-1.2440033l.8279991-.4720001c.5697975-.3775253,.8411179-1.0722275,.6780014-1.7360001-.2355385-.6827393-.9691658-1.0566254-1.6599998-.8460007" style="fill: #fff;"/>
      <path id="Tracé_6165" data-name="Tracé 6165" d="M98.4900026,121.6652671c.3145142,.1043396,.4849014,.4438858,.3805618,.7584-.0239792,.0722885-.0615005,.1393509-.1105652,.1976013-.8520889,.8711166-2.0267105,1.3507385-3.2450027,1.3249969-1.2176971,.0253067-2.3900299-.4619904-3.2310028-1.3430023-.2127609-.2540512-.1792831-.6324692,.0747681-.8452301,.056572-.0473785,.1213989-.0839157,.1912308-.1077728,.922699-.357193,1.7265472-.9663162,2.3199997-1.7580032,.2688904-.3428955,.7648468-.4028854,1.1077423-.1339951,.0004196,.0003281,.0008392,.0006638,.0012589,.0009918,.0497131,.0386124,.0943909,.0832901,.1330032,.1330032,.6074448,.8056107,1.4325256,1.4207764,2.3779984,1.7730026" style="fill: #272f60;"/>
      <path id="Tracé_6166" data-name="Tracé 6166" d="M96.3069963,158.1762725c1.4359436,0,2.5999985,1.1640625,2.5999985,2.6000061,0,1.4359283-1.1640549,2.5999908-2.5999985,2.5999908-1.435936,0-2.5999985-1.1640472-2.5999985-2.5999908s1.1640549-2.6000061,2.5999908-2.6000061h.0000076" style="fill: #272f60;"/>
      <path id="Tracé_6167" data-name="Tracé 6167" d="M96.3069963,168.3692657c1.4359436,0,2.5999985,1.1640625,2.5999985,2.6000061,0,1.4359283-1.1640549,2.5999908-2.5999985,2.5999908-1.435936,0-2.5999985-1.1640472-2.5999985-2.5999908s1.1640549-2.6000061,2.5999908-2.6000061h.0000076" style="fill: #272f60;"/>
      <path id="Tracé_6168" data-name="Tracé 6168" d="M118.7860022,201.752267c-1.9719009,.0445557-3.9417725-.1542664-5.8649979-.5919952-1.9799957-.5705872-3.1225433-2.6382599-2.5519485-4.6182556,.5520782-1.9157562,2.5127869-3.05896,4.4519501-2.5957489,2.8001556,.4817963,5.6610565,.4932861,8.4649963,.0339966,2.3946152-.2430267,4.7058258-1.0127411,6.7679977-2.2539978,1.6410599-1.2222595,3.9622345-.8827667,5.1845016,.7582855l.0035019,.004715,.0090027,.0130005c1.22509,1.6624146,.8769836,4.0022278-.7789993,5.2360077-3.0625076,2.0203247-6.5681229,3.2701721-10.2180023,3.6430054-1.8139877,.242691-3.641861,.3669586-5.4720001,.371994" style="fill: #fff;"/>
      <path id="Tracé_6169" data-name="Tracé 6169" d="M132.2640038,190.9912635c2.0649796,.0069122,3.7333755,1.6865082,3.7264709,3.7514954-.003952,1.1811981-.5658264,2.2910614-1.5154724,2.9934998-3.0618057,2.0209961-6.5672607,3.2709045-10.2170029,3.6430054-1.8136368,.2429962-3.6411667,.3675842-5.4710007,.3730011-1.9722366,.0446625-3.9424515-.1541748-5.8659973-.5919952-1.9862976-.5482635-3.1520538-2.6029358-2.6037903-4.5892334,.5397491-1.9554291,2.5429459-3.1213226,4.5097885-2.6247711,1.311058,.255127,2.645668,.3691101,3.9810028,.3399963,1.4990616-.0045471,2.9962311-.1067505,4.4820023-.3059998,2.3945923-.2431641,4.7057724-1.0128632,6.7679977-2.2539978,.6367416-.4773712,1.4111786-.7352905,2.2070007-.7350006m0-1.9900055c-1.206337-.0019836-2.3814011,.3836365-3.3519974,1.1000061-1.8049927,1.0402374-3.8081284,1.6902313-5.8799973,1.9080048-1.4002914,.1874695-2.8112259,.2843323-4.223999,.2899933-1.1778564,.0221252-2.3549881-.0730133-3.5139999-.2839966-3.0672913-.7582245-6.1684952,1.1136322-6.9267197,4.1809387-.7443008,3.0109406,1.0461884,6.0665894,4.0367203,6.8890686,2.0920639,.4836731,4.2362595,.7047119,6.3830032,.6580048,1.9164047-.0055695,3.8304291-.1355133,5.7300034-.3890076,3.9883118-.4084167,7.8156891-1.7883606,11.1470032-4.0189972,2.5427246-1.8829956,3.0775452-5.4707642,1.1945496-8.0134888-1.078476-1.4563141-2.7823792-2.3165283-4.5945511-2.319519l-.0000153-.0010071Z" style="fill: #272f60;"/>
      <rect id="Rectangle_1041" data-name="Rectangle 1041" x="56.7529984" y="190.1082717" width="61.8549995" height="39.5200005" style="fill: #fb657c;"/>
      <path id="Tracé_6170" data-name="Tracé 6170" d="M64.7129989,196.3222686c1.9131699,4.2879791,2.2696724,9.1092682,1.0079994,13.6320038-1.4319992,4.7769928-19.2000008,3.5330048-16.5499992-12.3390045l15.5410004-1.2929993h.0009995Z" style="fill: #272f60;"/>
      <path id="Tracé_6171" data-name="Tracé 6171" d="M65.7939987,191.8972751s-.0499992-1.0500031-.132-2.8099976c-.0820007-1.7599945-.2000008-4.223999-.237999-7.052002-.0779991-2.9669952-.0279999-6.3820038,.2260017-9.7570038,.0349998-.4779968,.0690002-.9629974,.0999985-1.4539948,.0499992-.4880066,.0999985-.9799957,.1570015-1.470993s.0919991-.9869995,.1580009-1.4700012,.1300011-.9649963,.1930008-1.4349976c.4729614-3.1683655,1.1904373-6.2953644,2.1459999-9.3529968,.4070015-1.1690063,.7360001-2.1159973,.9659996-2.7700043,.1080017-.3309937,.2280006-.572998,.2919998-.746994l.105999-.2590027c.5410004-1.2120056,.5670013-2.2330017,.2200012-2.4519958-.4000015-.2299957-1.1430016,.6790009-1.6450005,1.7910004l-.1199989,.2630005c-.0760002,.1750031-.2050018,.4230042-.3359985,.7570038-.2610016,.6690063-.6380005,1.6360016-1.0999985,2.822998-1.0921745,3.1030273-1.93256,6.2890015-2.5130005,9.5270081-.1790009,.9759979-.3530006,1.951004-.4529991,2.9530029-.0580025,.5-.1160011,1.0049896-.1739998,1.5149994-.0386658,.5113373-.0776672,1.0310059-.1170006,1.5590057-.2233734,3.3084259-.2534256,6.6270752-.0900002,9.9389954,.112999,2.8509979,.3320007,5.3370056,.473999,7.1179962l.2579956,2.8519745c.0730019,1.3430023,.5149994,2.2669983,.9239998,2.2890015,.5089989-.0150146,.8069992-1.1730042,.697998-2.3560028Z" style="fill: #272f60;"/>
      <path id="Tracé_6172" data-name="Tracé 6172" d="M110.9540014,152.8862716s.2870026,1.0110016,.6070023,2.7330017c.1549988,.8619995,.3059998,1.8999939,.4089966,3.0850067,.0540009,.5919952,.0940018,1.2200012,.1259995,1.8829956l.0429993,1.0169983,.0100021,.2779999c-.0147858,.170517,.0119781,.3420868,.0780029,.5l.2699966,.6100006c1.3382492,2.9941406,2.3520279,6.1229706,3.0240021,9.3329926,.4219971,1.8999939,.7809982,3.9620056,1.0940018,5.878006,.5500031,3.7819977,.8119965,7.2749939,.9700012,9.8150024s.2139969,4.125,.2139969,4.125c.0210037,1.3690033,.4179993,2.3300018,.8270035,2.371994,.4570007,.0279999,.7580032-1.125,.7460022-2.3509979,0,0,0-1.6089935-.064003-4.1809998-.064003-2.5720062-.2229996-6.1119995-.6699982-9.9519958-.2328262-2.0502014-.5753174-4.0864563-1.026001-6.1000061-.7164536-3.3444061-1.8174362-6.5946808-3.2809982-9.6860046l-.2269974-.4830017c.0100021,.026001-.0059967,0,0,0v-.0140076l-.0090027-.1300049-.0719986-1.0370026c-.0490036-.6790009-.1139984-1.3339996-.1880035-1.9550018-.1490021-1.2440033-.3430023-2.345993-.5429993-3.2550049s-.3899994-1.6309967-.5350037-2.1210022-.2259979-.7599945-.2259979-.7599945c-.3690033-1.3560028-1.0650024-2.1600037-1.4570007-2.072998-.4950027,.1480255-.4710007,1.3440247-.1200027,2.4690247Z" style="fill: #272f60;"/>
      <rect id="Rectangle_1042" data-name="Rectangle 1042" x="65.0859985" y="183.2212631" width="53.276001" height="7.9710002" style="fill: #272f60;"/>
      <path id="Tracé_6173" data-name="Tracé 6173" d="M51.3679986,201.752267c-1.9719009,.0445404-3.9417725-.1542969-5.8649979-.5919952-1.9799957-.5705872-3.1225433-2.6382599-2.5519485-4.6182556,.5520821-1.9157562,2.5127831-3.05896,4.4519501-2.5957489,2.8001595,.4817963,5.6610603,.4932861,8.4650002,.0339966,2.3941307-.2423706,4.7048302-1.012146,6.7659988-2.2539978,1.6430473-1.2223663,3.9659195-.8813324,5.1882896,.7617035,.0005684,.0007629,.0011406,.0015411,.001709,.0023041l.0079994,.0119934c1.2252579,1.6602325,.8804131,3.9982147-.7719994,5.2340088-3.0625076,2.0203247-6.568119,3.2701721-10.2180023,3.6430054-1.8139839,.2427063-3.6418571,.3669739-5.4720001,.371994" style="fill: #fff;"/>
      <path id="Tracé_6174" data-name="Tracé 6174" d="M64.8440008,190.9912635c2.0649872,.0052643,3.734726,1.6835175,3.7294693,3.7485046-.0030098,1.182251-.5649834,2.2934265-1.5154686,2.9964905-3.0625076,2.0203247-6.5681152,3.2701721-10.2179985,3.6430054-1.8139648,.2430267-3.6418343,.3676147-5.4720001,.3730011-1.9719048,.0445557-3.9417763-.1542664-5.8649979-.5919952-1.9799957-.5705872-3.1225433-2.6382599-2.5519485-4.6182556,.5520821-1.9157562,2.5127831-3.05896,4.4519501-2.5957489,1.3117294,.2551575,2.6470032,.3691406,3.9830017,.3399963,1.4990578-.0046234,2.9962234-.106842,4.4819984-.3059998,2.3938522-.2436676,4.7042732-1.0133514,6.7659988-2.2539978,.6360931-.4771576,1.4098282-.7350769,2.204998-.7350006m0-1.9900055c-1.2063026-.00177-2.3813057,.3838196-3.3520012,1.1000061-1.8049736,1.0392914-3.8076553,1.6889038-5.8790016,1.9069977-1.4002953,.187439-2.8112259,.2843018-4.223999,.2899933-1.1778526,.0220795-2.3549805-.0730591-3.5139999-.2839966-3.0672951-.7582245-6.1684952,1.1136322-6.9267235,4.1809387-.744297,3.0109406,1.046196,6.0665894,4.0367241,6.8890686,2.0918503,.4829254,4.2356186,.703949,6.382,.6580048,1.9164085-.0054169,3.8304405-.1353607,5.7299995-.3890076,3.9890938-.4070282,7.8171921-1.7874603,11.1479988-4.0200043,2.5416145-1.884491,3.0743217-5.4725647,1.189827-8.0141907-1.0780525-1.4539642-2.7798004-2.3129578-4.5898285-2.316803l-.0009956-.0010071Z" style="fill: #272f60;"/>
      <path id="Tracé_6175" data-name="Tracé 6175" d="M101.1589975,181.7772686h-9.7070007c-.2203827-.0186615-.4153366,.1420898-.439003,.3619995v9.9309998c.0231552,.220047,.2186279,.3807831,.439003,.3609924h9.7070007c.2203751,.0197906,.4158478-.1409454,.439003-.3609924v-9.9309998c-.0236664-.2199097-.2186203-.380661-.439003-.3619995m-8.526001,8.9109955v-7.1670074c.0236664-.2199097,.2186203-.380661,.439003-.3619995h6.4660034c.2203827-.0186615,.4153366,.1420898,.439003,.3619995v7.1669922c-.0231552,.220047-.2186279,.3807831-.439003,.3609924h-6.4640045c-.2198257,.0219421-.4158096-.1384735-.4377441-.3583069-.0000916-.000885-.0001755-.0017853-.0002594-.0026855l-.0029984,.0000153Z" style="fill: #fff;"/>
      <path id="Tracé_6176" data-name="Tracé 6176" d="M119.5019984,231.0012752H55.9879985c-2.0608482-.033783-3.7041092-1.7318268-3.6703262-3.7926788,.0330086-2.0132294,1.657093-3.6373138,3.6703262-3.6703186h63.5139999c2.0608521,.033783,3.7041092,1.7318268,3.6703262,3.7926788-.0330048,2.0132294-1.6570892,3.6373138-3.6703262,3.6703186Z" style="fill: #fff;"/>
      <path id="Tracé_6177" data-name="Tracé 6177" d="M119.5050025,223.5372669c2.0608521,.033783,3.7041092,1.7318268,3.6703262,3.7926788-.0330048,2.0132294-1.6570892,3.6373138-3.6703262,3.6703186H55.9889998c-2.0608482-.033783-3.7041092-1.7318268-3.6703262-3.7926788,.0330086-2.0132294,1.657093-3.6373138,3.6703262-3.6703186h63.5180016m0-1.9900055H55.9889998c-3.1598969,0-5.7214966,2.5615997-5.7214966,5.7214966s2.5615997,5.7214966,5.7214966,5.7214966h63.5180016c3.1598969,0,5.7214966-2.5615997,5.7214966-5.7214966s-2.5615997-5.7214966-5.7214966-5.7214966" style="fill: #272f60;"/>
      <path id="Tracé_6178" data-name="Tracé 6178" d="M96.4189968,199.8402664c1.4359436,0,2.5999985,1.1640625,2.5999985,2.6000061,0,1.4359283-1.1640549,2.5999908-2.5999985,2.5999908-1.435936,0-2.5999985-1.1640472-2.5999985-2.5999908s1.1640549-2.6000061,2.5999908-2.6000061h.0000076" style="fill: #272f60;"/>
      <path id="Tracé_6179" data-name="Tracé 6179" d="M96.4189968,210.0322753c1.4359436,0,2.5999985,1.1640625,2.5999985,2.6000061,0,1.4359283-1.1640549,2.5999908-2.5999985,2.5999908-1.435936,0-2.5999985-1.1640472-2.5999985-2.5999908s1.1640549-2.6000061,2.5999908-2.6000061h.0000076" style="fill: #272f60;"/>
      <path id="Tracé_6180" data-name="Tracé 6180" d="M45.4220014,70.4022705c3.614151-.0033112,6.5466843,2.923851,6.5499954,6.538002,.0033112,3.614151-2.923851,6.5466766-6.5379982,6.5499954-3.614151,.0033112-6.5466843-2.923851-6.5499954-6.538002-.0000038-.0016632-.0000038-.003334-.0000038-.0049973-.0016556-3.6126556,2.9253464-6.5427895,6.538002-6.5449982" style="fill: #fff;"/>
      <path id="Tracé_6181" data-name="Tracé 6181" d="M45.4260006,70.4022714c3.614151-.003315,6.5466843,2.9238472,6.5499992,6.5379982s-2.9238472,6.5466843-6.5379944,6.5499954c-3.614151,.0033188-6.5466843-2.9238434-6.5499992-6.5379944-.0000038-.0016632-.0000038-.003334-.0000038-.0049973-.0016594-3.6126556,2.9253426-6.5427933,6.5379982-6.545002m0-1.9900017c-4.7137489-.0049706-8.5390244,3.8122482-8.543993,8.5259933-.0049706,4.7137527,3.8122463,8.5390244,8.5259953,8.5439987,4.7137489,.0049667,8.5390244-3.8122482,8.5439949-8.526001,.0000038-.0029907,.0000038-.0059891,.0000038-.0089874,.0027657-4.7109871-3.8140068-8.532238-8.5249939-8.5350037h-.0010071" style="fill: #272f60;"/>
      <path id="Tracé_6182" data-name="Tracé 6182" d="M90.8490028,152.1012699c-16.6879959,0-25.4749985-14.3830032-26.625-19.3390045-.0839996-.3619995-.4669991-1.0879974-.8689995-1.1240005-.3100014-.0270004-1.1360016-.0999985-3.1539993,2.0940018-.3705292,.4043121-.9986649,.4317017-1.4029808,.0611725-.1674232-.1534348-.277195-.3596115-.3110199-.5841751-.6469994-4.2190018,1.7779999-12.7180023,6.4329987-16.5759964-1.6230011-3.6549988-1.8720016-10.689003,1.1669998-14.4430008l.0419998-.0490036c12.3639984-13.4109955,27.2719955-13.8709946,32.1709976-14.022995,1.5899963-.0500031,2.663002-.5169983,3.1930008-1.3909988,.9000015-1.4820023,.2630005-4-.5550003-5.6999969-.4472275-.9125061-.0700378-2.0147781,.8424606-2.4620056,.3983459-.1952286,.8538132-.239975,1.2825394-.1259918,6.6279984,1.6299973,10.5950012,5.3610001,10.5950012,9.9779968,.056572,2.9265823-.7963028,5.7986221-2.4410019,8.2200012,.0650024,10.0620041-3.4000015,12.5930023-3.8000031,12.8509979-.4675217,.2887878-1.0806351,.1438904-1.3694229-.3236313-.2772522-.4488525-.1559677-1.0360794,.2764206-1.3383713,.0899963-.0680008,3.026001-2.3580017,2.9000015-11.4840012-.0027695-.2127457,.0623856-.4208298,.185997-.5940018,1.5205002-2.1294632,2.3128052-4.6929626,2.2590027-7.3089981,0-3.5999985-3.2890015-6.5709991-8.814003-8,.6149979,1.3710022,1.8659973,4.8079987,.3359985,7.3280029-.9000015,1.4850006-2.5270004,2.2750015-4.8300018,2.3450012-18.9230042,.5810013-27.8069992,10.1620026-30.7490005,13.3509979-2.5699997,3.211998-2.1870003,10.2279968-.5740013,12.9469986,.2644386,.4494781,.1390648,1.0267105-.2879982,1.3259964-3.6240005,2.5179977-6.0320015,8.8330002-6.3460007,13.0619965,.8493118-.7843323,1.9771118-1.1962738,3.132-1.1439972,1.3299484,.2696381,2.3659821,1.3147583,2.624012,2.6470032,.9109993,3.9240036,9.0559998,17.8000031,24.6889954,17.8000031,7.1790009,0,12.5859985-2.3500061,15.6330032-6.8000031,2.9006805-4.5917969,3.4367371-10.2919159,1.4430008-15.3440018-.4337082-1.1186066-.522522-2.3414612-.2549973-3.5110016,.9690018-4.2529984-.2570038-8.2840042-.987999-9.0419998-.5448914,.0711975-1.0443344-.3128052-1.1155319-.8576965-.0551758-.4223175,.1645508-.8329239,.5465317-1.0213013,.5665512-.2701492,1.2397003-.1756744,1.7099991,.2399979,1.6900024,1.3399963,2.8389969,6.4899979,1.7850037,11.1220016-.1795959,.7834473-.1200256,1.6027603,.1709976,2.3519974,2.2639923,5.659462,1.6456833,12.0650711-1.6589966,17.1870041-2.3930054,3.5039978-7.3350067,7.6750031-17.2710037,7.6750031Z" style="fill: #272f60;"/>
      <path id="Tracé_6183" data-name="Tracé 6183" d="M95.3410034,8.8142699c.1470032,1.8339996,.2939987,3.2259998,.2939987,3.2259998,0,.5669203,.4595795,1.0265007,1.0265045,1.0265007,.5669174,0,1.0264969-.4595804,1.0264969-1.0265007,0,0,.2200012-1.4659996,.2939987-3.2259998,.3669968,0,.6589966-.073,.9530029-.073,1.3199997-.073,2.2730026-.2200003,2.2730026-.2200003,.5669174,0,1.0264969-.4595795,1.0264969-1.0264997,0-.5669208-.4595795-1.0265002-1.0264969-1.0265002,0,0-.9530029-.1469998-2.2730026-.2199998-.2939987,0-.5859985-.073-.9530029-.073,0-.3670001-.072998-.6589999-.072998-.9530001-.072998-1.3200002-.2200012-2.273-.2200012-2.273,0-.5669208-.4595795-1.0265007-1.0265045-1.0265007-.5669174,0-1.0264969,.4595799-1.0264969,1.0265007,0,0-.1470032,.9530001-.2200012,2.273,0,.2940001-.072998,.6589999-.072998,.9530001-1.7600021,.1469998-3.2259979,.2940001-3.2259979,.2940001-.5669174,0-1.0264969,.4595795-1.0264969,1.0265002,0,.5669203,.4595795,1.0264997,1.0264969,1.0264997,1.0694351,.1544724,2.1462555,.2526073,3.2259979,.2939997" style="fill: #ffbcc6;"/>
      <path id="Tracé_6184" data-name="Tracé 6184" d="M386.572998,277.1082756H1.609c-.8889999,0-1.609-.4300079-1.609-.9609985s.72-.9609985,1.609-.9609985H386.572998c.8890076,0,1.6090088,.4309998,1.6090088,.9609985s-.7200012,.9609985-1.6090088,.9609985" style="fill: #272f60;"/>
      <path id="Tracé_6185" data-name="Tracé 6185" d="M27.9360008,121.7142707c.1420002-1.7699966,.2830009-3.1149979,.2830009-3.1149979,0-.5475922,.4439087-.9915009,.9915009-.9915009,.5475903,0,.9914989,.4439087,.9914989,.9915009h0s.2119999,1.4150009,.282999,3.1149979c.3540001,0,.6369991,.0709991,.9200001,.0709991,1.2749996,.0709991,2.1949997,.211998,2.1949997,.211998,.5475903,0,.9915009,.4439087,.9915009,.9915009s-.4439106,.9915009-.9915009,.9915009h0s-.9200001,.1409988-2.1949997,.211998c-.282999,0-.566,.0709991-.9200001,.0709991,0,.3539963-.0709991,.637001-.0709991,.9199982-.0709991,1.2750015-.2119999,2.1949997-.2119999,2.1949997,0,.5475922-.4439087,.9915009-.9914989,.9915009-.5475922,0-.9915009-.4439087-.9915009-.9915009h0s-.1410007-.9199982-.2119999-2.1949997c0-.2829971-.0709991-.637001-.0709991-.9199982-1.7000008-.1419983-3.1149998-.2829971-3.1149998-.2829971-.5475903,0-.9915009-.4439087-.9915009-.9915009s.4439106-.9915009,.9915009-.9915009h0c1.0326958-.1485214,2.0724449-.242981,3.1149979-.2829971Z" style="fill: #ffbcc6;"/>
      <path id="Tracé_6186" data-name="Tracé 6186" d="M346.4420013,188.0932743c.1109924-1.3910065,.2229919-2.447998,.2229919-2.447998,0-.4302368,.3487854-.779007,.7790222-.779007,.4302063,0,.7789917,.3487701,.7789917,.779007,0,0,.1669922,1.1130066,.2229919,2.447998,.2780151,0,.5,.0559998,.7229919,.0559998,1,.0549927,1.723999,.1670074,1.723999,.1670074,.4302368,.0005493,.7785339,.3497772,.7779846,.7799988-.0005493,.4294434-.3485413,.7774506-.7779846,.7779999,0,0-.7229919,.1109924-1.723999,.1670074-.2229919,0-.4450073,.0559998-.7229919,.0559998,0,.2779999-.0559998,.5-.0559998,.7230072-.0559998,1-.1669922,1.723999-.1669922,1.723999,0,.4302368-.3487854,.779007-.7789917,.779007-.4302368,0-.7790222-.3487701-.7790222-.779007,0,0-.1119995-.7230072-.1669922-1.723999,0-.2230072-.0559998-.5-.0559998-.7230072-1.3349915-.1119995-2.447998-.2230072-2.447998-.2230072-.4302368-.0005493-.7785339-.3497772-.7779846-.7799988,.0005493-.4294434,.3485413-.7774506,.7779846-.7779999,.811554-.1169586,1.6286621-.191391,2.447998-.2230072" style="fill: #ffbcc6;"/>
      <path id="Tracé_6187" data-name="Tracé 6187" d="M369.3190041,13.8662704c.1319885,1.6440001,.2630005,2.8929996,.2630005,2.8929996,0,.508379,.4121094,.9205017,.9205017,.9205017s.9205017-.4121227,.9205017-.9205017c0,0,.2000122-1.3150005,.2619934-2.8929996,.3299866,0,.5920105-.0649996,.855011-.0649996,1.1839905-.066,2.0379944-.1999998,2.0379944-.1999998,.5083923,0,.9205017-.4121218,.9205017-.9204998s-.4121094-.9204998-.9205017-.9204998c0,0-.8540039-.132-2.0379944-.1999998-.2630005,0-.5249939-.0649996-.855011-.0649996,0-.3299999-.0650024-.592-.0650024-.8549995-.0650024-1.184-.2000122-2.0380001-.2000122-2.0380001,0-.508379-.4121094-.9205017-.9205017-.9205017s-.9205017,.4121227-.9205017,.9205017h0s-.1319885,.8540001-.2000122,2.0380001c0,.2630005-.0650024,.592-.0650024,.8549995-1.5769958,.1300001-2.8930054,.2620001-2.8930054,.2620001-.5083923,0-.9205017,.4121218-.9205017,.9204998s.4121094,.9204998,.9205017,.9204998c.9590149,.1386356,1.9247131,.2264242,2.8930054,.2629995" style="fill: #ffbcc6;"/>
      <path id="Tracé_6188" data-name="Tracé 6188" d="M372.4519882,251.7162696c.1470032,1.8339996,.2940063,3.2259979,.2940063,3.2259979,0,.566925,.4595947,1.0265045,1.0264893,1.0265045,.566925,0,1.0265198-.4595795,1.0265198-1.0265045,0,0,.2200012-1.4660034,.2940063-3.2259979,.3670044,0,.6589966-.072998,.9530029-.072998,1.3200073-.072998,2.2730103-.2200012,2.2730103-.2200012,.566925,0,1.0264893-.4595795,1.0264893-1.0264893,0-.566925-.4595642-1.0265045-1.0264893-1.0265045,0,0-.9530029-.1470032-2.2730103-.2200012-.2940063,0-.5859985-.072998-.9530029-.072998,0-.3670044-.072998-.6589966-.072998-.9530029-.072998-1.3200073-.2200012-2.272995-.2200012-2.272995,0-.566925-.4595947-1.0265045-1.0264893-1.0265045-.566925,0-1.0265198,.4595795-1.0265198,1.0265045,0,0-.1470032,.9530029-.2200012,2.272995,0,.2940063-.072998,.6589966-.072998,.9530029-1.7600098,.1470032-3.2260132,.2940063-3.2260132,.2940063-.566925,0-1.0264893,.4595795-1.0264893,1.0265045,0,.5669098,.4595642,1.0264893,1.0264893,1.0264893,1.0694275,.15448,2.1462708,.2526093,3.2260132,.2940063" style="fill: #ffbcc6;"/>
      <path id="Tracé_6189" data-name="Tracé 6189" d="M55.6780005,46.8382694c.0909996-1.1380005,.1819992-2,.1819992-2,0-.3520813,.2854195-.6375008,.6375008-.6375008s.6375008,.2854195,.6375008,.6375008c0,0,.1360016,.9099998,.1819992,2,.2280006,0,.4099998,.0449982,.5919991,.0449982,.8199997,.0449982,1.4109993,.1360016,1.4109993,.1360016,.3520813,0,.6375008,.2854195,.6375008,.6375008s-.2854195,.6375008-.6375008,.6375008h0s-.5909996,.0909996-1.4109993,.1360016c-.1819992,0-.362999,.0449982-.5919991,.0449982,0,.2280006-.0449982,.4099998-.0449982,.5919991-.0449982,.8199997-.1360016,1.4109993-.1360016,1.4109993,0,.3520813-.2854195,.6375008-.6375008,.6375008s-.6375008-.2854195-.6375008-.6375008h0s-.0909996-.5909996-.1360016-1.4109993c0-.1819992-.0449982-.4090004-.0449982-.5919991-1.0929985-.0909996-2-.1819992-2-.1819992-.3520813,0-.6375008-.2854195-.6375008-.6375008s.2854195-.6375008,.6375008-.6375008c.6630363-.0955162,1.330616-.1562653,2-.1819992" style="fill: #ffbcc6;"/>
      <path id="Tracé_6190" data-name="Tracé 6190" d="M27.9360008,247.7772705c.1420002-1.7700043,.2830009-3.1150055,.2830009-3.1150055,0-.5475922,.4439087-.9915009,.9915009-.9915009,.5475903,0,.9914989,.4439087,.9914989,.9915009,0,0,.2119999,1.4149933,.282999,3.1150055,.3540001,0,.6369991,.0709991,.9200001,.0709991,1.2749996,.0709991,2.1949997,.2120056,2.1949997,.2120056,.5475903,0,.9915009,.4439087,.9915009,.9915009s-.4439106,.9915009-.9915009,.9915009h0s-.9200001,.1410065-2.1949997,.2120056c-.282999,0-.566,.0709991-.9200001,.0709991,0,.3540039-.0709991,.6369934-.0709991,.9199982-.0709991,1.2749939-.2119999,2.1950073-.2119999,2.1950073,0,.5475922-.4439087,.9915009-.9914989,.9915009-.5475922,0-.9915009-.4439087-.9915009-.9915009,0,0-.1410007-.9199982-.2119999-2.1950073,0-.2830048-.0709991-.6369934-.0709991-.9199982-1.7000008-.1419983-3.1149998-.2830048-3.1149998-.2830048-.5475903,0-.9915009-.4439087-.9915009-.9915009s.4439106-.9915009,.9915009-.9915009h0c1.0326939-.1485291,2.0724449-.2429962,3.1149979-.2830048Z" style="fill: #ffbcc6;"/>
      <path id="Tracé_6191" data-name="Tracé 6191" d="M124.8589973,56.0672699c.0910034-1.1380005,.1819992-2,.1819992-2,0-.3520813,.2854156-.6375008,.6374969-.6375008,.3520889,0,.6375046,.2854195,.6375046,.6375008h0s.1360016,.9099998,.1819992,2c.2279968,0,.4100037,.0449982,.5920029,.0449982,.8199997,.0449982,1.4110031,.1360016,1.4110031,.1360016,.3520813,0,.6375046,.2854195,.6375046,.6375008s-.2854233,.6375008-.6375046,.6375008h0s-.5910034,.0909996-1.4110031,.1360016c-.1819992,0-.362999,.0449982-.5920029,.0449982,0,.2280006-.0449982,.4099998-.0449982,.5919991-.0449982,.8190002-.1360016,1.4109993-.1360016,1.4109993,0,.3520813-.2854156,.6375008-.6374969,.6375008-.3520889,0-.6375046-.2854195-.6375046-.6375008,0,0-.0910034-.5919991-.1360016-1.4109993,0-.1819992-.0449982-.4090004-.0449982-.5919991-1.0930023-.0909996-2-.1819992-2-.1819992-.3520813,0-.6374969-.2854195-.6374969-.6375008s.2854156-.6375008,.6374969-.6375008c.6630325-.0955162,1.3306122-.1562653,2-.1819992" style="fill: #ffbcc6;"/>
      <path id="Tracé_6192" data-name="Tracé 6192" d="M11.0979996,15.7072699c.0909996-1.1379995,.1820002-2,.1820002-2,0-.3520813,.2854185-.6374998,.6374998-.6374998s.6374998,.2854185,.6374998,.6374998c0,0,.1359997,.9099998,.1820002,2,.2279997,0,.4099998,.0450001,.592,.0450001,.8190002,.0450001,1.4110003,.1359997,1.4110003,.1359997,.3520813,0,.6374998,.2854185,.6374998,.6374998s-.2854185,.6374998-.6374998,.6374998c0,0-.592,.0909996-1.4110003,.1359997-.1820002,0-.3629999,.0450001-.592,.0450001,0,.2279997-.0450001,.4099998-.0450001,.592-.0450001,.8199997-.1359997,1.4109993-.1359997,1.4109993,0,.3520813-.2854185,.6375008-.6374998,.6375008s-.6374998-.2854195-.6374998-.6375008c0,0-.0909996-.5909996-.1359997-1.4109993,0-.1820002-.0450001-.4090004-.0450001-.592-1.0930004-.0909996-2-.1820002-2-.1820002-.3520813,0-.6374998-.2854185-.6374998-.6374998s.2854185-.6374998,.6374998-.6374998c.6630354-.0955143,1.330615-.1562653,2-.1820002" style="fill: #ffbcc6;"/>
      <path id="Tracé_6193" data-name="Tracé 6193" d="M338.9339867,59.5222703c.0910034-1.1380005,.1820068-2,.1820068-2,0-.3520813,.2854309-.6374969,.6375122-.6374969,.3520508,0,.6374817,.2854156,.6374817,.6374969,0,0,.1359863,.9099998,.1820068,2,.2279968,0,.4100037,.0449982,.5920105,.0449982,.8190002,.0449982,1.4110107,.1360016,1.4110107,.1360016,.3520813,0,.6375122,.2854195,.6375122,.6375008s-.2854309,.6375008-.6375122,.6375008c0,0-.5920105,.0909996-1.4110107,.1360016-.1820068,0-.3630066,.0449982-.5920105,.0449982,0,.2280006-.0450134,.4099998-.0450134,.5919991-.0450134,.8199997-.1359863,1.4109993-.1359863,1.4109993,0,.3520813-.2854309,.6374969-.6375122,.6374969-.3520508,0-.6374817-.2854156-.6374817-.6374969h0s-.0910034-.5909996-.1359863-1.4109993c0-.1819992-.0450134-.4090004-.0450134-.5919991-1.0929871-.0909996-2-.1819992-2-.1819992-.3520813,0-.6375122-.2854195-.6375122-.6375008s.2854309-.6375008,.6375122-.6375008c.6630249-.0955162,1.3306274-.1562653,2-.1819992" style="fill: #ffbcc6;"/>
      <path id="Tracé_6194" data-name="Tracé 6194" d="M216.5079956,176.0792667c.1197815-.2715149,.3934937-.4420929,.6900024-.4299927,.408493-.0045471,.7454987,.3186798,.7579956,.727005,0,.3309937-.2409973,.7929993-.9660034,1.0899963-1.3439941,.5619965-5.1730042,.9900055-9.6569977,.9900055s-8.3119965-.4290009-9.6580048-.9900055c-.7250061-.3000031-.9660034-.7599945-.9660034-1.0899963,.0124969-.4083252,.3495026-.7315521,.7579956-.727005,.2966614-.0126648,.5706787,.1580963,.6900024,.4299927,.1976166,.1002045,.4059448,.1777039,.6210022,.2310028,2.8163147,.5557098,5.6852875,.7995148,8.5549927,.727005,2.8693237,.0706482,5.7377625-.1731415,8.5540009-.727005,.2150574-.053299,.4233856-.1307983,.6210022-.2310028" style="fill: #272f60;"/>
      <path id="Tracé_6195" data-name="Tracé 6195" d="M220.9929943,171.4212657c-1.8999939-.7920074-7.2779999-1.4199982-13.625-1.4199982s-11.727005,.5939941-13.6239929,1.4199982c-.8630066,.3630066-1.1730042,.8919983-1.1730042,1.2879944s.3099976,.9250031,1.1730042,1.2890015c1.8999939,.7920074,7.2779999,1.4199982,13.6239929,1.4199982s11.727005-.6000061,13.625-1.4199982c.8619995-.3630066,1.1719971-.8919983,1.1719971-1.2890015s-.3099976-.9250031-1.1719971-1.2879944m-1.345993,1.4869995c-4.0428009,.792511-8.1607819,1.1359253-12.279007,1.0240021-4.1177216,.0945282-8.2338257-.2487335-12.279007-1.0240021-.2120209-.0627594-.4195099-.1399536-.6210022-.2310028,.1719971-.0659943,.4149933-.1649933,.6210022-.2319946,4.0428009-.7925262,8.1607819-1.1359406,12.279007-1.0240021,4.1177216-.0945435,8.2338257,.2487183,12.279007,1.0240021,.2122803,.0623779,.4198151,.1399078,.6210022,.2319946-.1951141,.1058197-.4041748,.1835938-.6210022,.2310028" style="fill: #272f60;"/>
      <path id="Tracé_6196" data-name="Tracé 6196" d="M282.8740044,210.6172744c1.4856415,0,2.6900024,1.204361,2.6900024,2.6900024s-1.204361,2.6900024-2.6900024,2.6900024-2.6900024-1.204361-2.6900024-2.6900024,1.2043457-2.6900024,2.6900024-2.6900024h0" style="fill: #fff;"/>
      <path id="Tracé_6197" data-name="Tracé 6197" d="M374.6800079,124.0902702c.0910034-1.1380005,.1820068-2,.1820068-2-.0016174-.351799,.2822876-.6382904,.6340942-.6398926s.6382751,.2822876,.6398926,.6340866v.005806s.1359863,.9100037,.1820068,2c.2279968,0,.4100037,.0449982,.5920105,.0449982,.8190002,.0449982,1.4110107,.1360016,1.4110107,.1360016,.3520813,0,.6375122,.2854156,.6375122,.6374969,0,.3520889-.2854309,.6375046-.6375122,.6375046,0,0-.5920105,.0910034-1.4110107,.1360016-.1820068,0-.3640137,.0449982-.5920105,.0449982,0,.2279968-.0450134,.4100037-.0450134,.5920029-.0450134,.8199997-.1359863,1.4110031-.1359863,1.4110031,.0016174,.351799-.2822876,.6382904-.6340942,.6398926s-.6382751-.2822876-.6398926-.6340866v-.005806s-.0910034-.5910034-.1359863-1.4110031c0-.1819992-.0450134-.4089966-.0450134-.5920029-1.0929871-.0910034-2-.1819992-2-.1819992-.3520813,0-.6375122-.2854156-.6375122-.6374969,0-.3520889,.2854309-.6375046,.6375122-.6375046,.6630249-.0955124,1.3306274-.1562653,2-.1819992" style="fill: #ffbcc6;"/>
      <path id="Tracé_6198" data-name="Tracé 6198" d="M257.6320076,176.0792667c.1197815-.2715149,.3934937-.4420929,.6900024-.4299927,.408493-.0045471,.7454987,.3186798,.7579956,.727005,0,.3309937-.2409973,.7929993-.9660034,1.0899963-1.3439941,.5619965-5.1730042,.9900055-9.6569977,.9900055s-8.3119965-.4290009-9.6580048-.9900055c-.7250061-.3000031-.9660034-.7599945-.9660034-1.0899963,.0124969-.4083252,.3495026-.7315521,.7579956-.727005,.2966614-.0126648,.5706787,.1580963,.6900024,.4299927,.1976166,.1002045,.4059448,.1777039,.6210022,.2310028,5.6614838,.9692078,11.4465179,.9692078,17.1080017,0,.2150574-.053299,.4233856-.1307983,.6210022-.2310028" style="fill: #272f60;"/>
      <path id="Tracé_6199" data-name="Tracé 6199" d="M262.1170082,171.4212657c-1.8999939-.7920074-7.2779999-1.4199982-13.625-1.4199982s-11.727005,.5939941-13.6239929,1.4199982c-.8630066,.3630066-1.1730042,.8919983-1.1730042,1.2879944s.3099976,.9250031,1.1730042,1.2890015c1.8999939,.7920074,7.2779999,1.4199982,13.6239929,1.4199982s11.727005-.6000061,13.625-1.4199982c.8619995-.3630066,1.1719971-.8919983,1.1719971-1.2890015s-.3099976-.9250031-1.1719971-1.2879944m-1.345993,1.4869995c-4.0428009,.7924957-8.1607819,1.13591-12.279007,1.0240021-4.1177216,.0945282-8.2338257-.2487335-12.279007-1.0240021-.2120209-.0627747-.4195099-.1399536-.6210022-.2310028,.1719971-.0659943,.4149933-.1649933,.6210022-.2319946,4.0428009-.7925262,8.1607819-1.1359406,12.279007-1.0240021,4.1177216-.0945435,8.2338257,.2487183,12.279007,1.0240021,.2122803,.0623779,.4198151,.1399078,.6210022,.2319946-.1951141,.1058197-.4041748,.1835938-.6210022,.2310028" style="fill: #272f60;"/>
      <path id="Tracé_6200" data-name="Tracé 6200" d="M4.178,84.8882686c.0900002-1.1380005,.1809998-2,.1809998-2,0-.3520813,.2854185-.6374969,.6374998-.6374969,.3520818,0,.6375003,.2854156,.6375003,.6374969,0,0,.1360002,.9100037,.1820002,2,.23,0,.4099998,.0449982,.592,.0449982,.8200002,.0449982,1.4109998,.1360016,1.4109998,.1360016,.3520818,0,.6375008,.2854156,.6375008,.6375046,0,.3520813-.285419,.6374969-.6375008,.6374969h0s-.5910001,.0910034-1.4110003,.1360016c-.1820002,0-.362,.0449982-.592,.0449982,0,.2279968-.0450001,.4100037-.0450001,.5920029-.0450001,.8190002-.1360002,1.4110031-.1360002,1.4110031,0,.3520813-.2854185,.6374969-.6375003,.6374969-.3520813,0-.6374998-.2854156-.6374998-.6374969,0,0-.0919991-.5910034-.1419992-1.4100037,0-.1819992-.0439999-.4089966-.0439999-.5920029-1.0940001-.0910034-2-.1819992-2-.1819992-.3520819,0-.6375008-.2854156-.6375008-.6374969,0-.3520889,.2854187-.6375046,.6375008-.6375046,.6630352-.0955124,1.3306148-.1562653,2-.1819992" style="fill: #ffbcc6;"/>
      <path id="Tracé_6201" data-name="Tracé 6201" d="M4.178,190.9662696c.0900002-1.1380005,.1809998-2,.1809998-2,0-.3520813,.2854185-.6374969,.6374998-.6374969,.3520818,0,.6375003,.2854156,.6375003,.6374969,0,0,.1360002,.9100037,.1820002,2,.23,0,.4099998,.0449982,.592,.0449982,.8200002,.0449982,1.4109998,.1360016,1.4109998,.1360016,.3520799,0,.6374969,.2854156,.6374969,.6374969s-.2854171,.6374969-.6374969,.6374969c0,0-.5910001,.0910034-1.4110003,.1360016-.1820002,0-.362,.0449982-.592,.0449982,0,.2279968-.0450001,.4100037-.0450001,.5919952-.0450001,.8190002-.1360002,1.4109955-.1360002,1.4109955,0,.3520813-.2854185,.6374969-.6375003,.6374969-.3520813,0-.6374998-.2854156-.6374998-.6374969,0,0-.0919991-.5909882-.1419992-1.4099884,0-.1820068-.0439999-.4089966-.0439999-.5919952-1.0940001-.0910034-2-.1820068-2-.1820068-.3520799,0-.6374969-.2854156-.6374969-.6374969s.2854171-.6374969,.6374969-.6374969c.6630335-.0955353,1.3306139-.1562805,2-.1820068" style="fill: #ffbcc6;"/>
      <path id="Tracé_6202" data-name="Tracé 6202" d="M269.2369938,258.9702713h-77.5339966c-9.3496246,0-16.9290009-7.5793762-16.9290009-16.9290009h0v-34.2900085c0-9.3496246,7.5793762-16.9290009,16.9290009-16.9290009h77.5339966c9.3496246-.0000153,16.9290161,7.579361,16.9290161,16.9289856v34.2900238c0,9.3496246-7.5793762,16.9290009-16.9290009,16.9290009h0" style="fill: #272f60;"/>
    </g>
    <g>
      <path d="M262.2411737,186.1693613h-77.5341797c-9.3491211,0-16.9287109,7.5786133-16.9291992,16.9279785v31.4172363l17.3598633-9.8640137,8.640625,15.2514648-14.0800781,7.9899902-2.6030273,1.4836426-1.4052734,.7807617-1.2177734,.6931152c2.8447266,2.1660156,6.3837891,3.4667969,10.2348633,3.4667969h77.5341797v.0009766c9.3496094,0,16.9287109-7.5793457,16.9287109-16.9289551v-34.2900391c0-9.3496094-7.5791016-16.9289551-16.9287109-16.9289551Z" style="fill: #fff;"/>
      <path d="M177.0951776,249.3756601l2.6030273-1.4836426,14.0800781-7.9899902-8.640625-15.2514648-17.3598633,9.8640137v2.8728027c0,5.498291,2.6333008,10.369873,6.6943359,13.4621582l1.2177734-.6931152,1.4052734-.7807617Z" style="fill: #ffbcc6;"/>
    </g>
    <path id="Tracé_138" data-name="Tracé 138" d="M218.0084962,197.2971889l-2.7587754-1.4834908h0v-.0260278l-.9109159-.4684718-.0520515-.0260278-.0780793-.0260278-6.7147481-3.5655802c-1.805899-.934402-4.0274716-.2517314-4.9970234,1.5355423l-.0260278,.0520515-4.2422661,7.9119574-.9369416,1.7437525-2.7327476,5.153182-.9369416,1.7697802-2.4724859,4.6326587-.9369416,1.7697802-2.134147,3.9559767c-.9558608,1.8039173-.268373,4.0411646,1.5355463,4.9970195,1.8039173,.9558628,4.0411606,.268379,4.9970214-1.5355423l2.0040141-3.7737943h0l.9369416-1.7697802h0l.2602617-.4944956,2.4724859-4.6326587,.9369436-1.7697802,2.7327476-5.1271543,.9369436-1.7697802,1.0930983-2.0300419h0l.8328366-1.5875978,.0260278-.0520515,.4164203-.780785,.0780793,.0780793-.0520515-.0780793,2.7847992,1.4834908h0l.5465511,.2862894,3.8778974,2.0820934c1.805899,.934402,4.0274716,.2517314,4.9970234-1.5355423,.9495485-1.7650901,.288418-3.9657381-1.4766681-4.9152826-.0022755-.0012232-.0045471-.0024423-.0068227-.0036615h-.000004Z" style="fill: #272f60;"/>
    <path id="Tracé_139" data-name="Tracé 139" d="M213.76623,199.5614647l-2.7587754-1.4834908h0v-.0260278l-.9109159-.4684718-.0520515-.0260278-.0780793-.0260278-6.7147521-3.591612c-1.805899-.934402-4.0274696-.2517314-4.9970234,1.5355423l-.0260258,.0520515-4.2422642,7.9379812-.9369416,1.7437525-2.7327476,5.1271662-.9369416,1.7697762-2.4724859,4.6326587-.9369416,1.7697802-2.134146,3.9820005c-.9558608,1.8039213-.268373,4.0411646,1.5355453,4.9970195,1.8039193,.9558628,4.0411626,.268379,4.9970234-1.5355423h0l2.0040141-3.7737943h0l.9369416-1.7697802h0l.2602617-.4944956,2.4724859-4.6326587,.9369416-1.7697802,2.7327476-5.1271543,.9369416-1.7697802,1.0931002-2.0300419h0l.8328366-1.5875978,.0260278-.0520515,.4164203-.780785,.0780793,.0780793-.0520515-.0780793,2.7847992,1.4834908h0l.5465511,.2862894,3.8778974,2.0820934c1.805899,.934402,4.0274716,.2517314,4.9970234-1.5355423,.9495485-1.7650901,.288418-3.9657381-1.4766681-4.9152826-.0022755-.0012232-.0045471-.0024423-.0068227-.0036615l-.000004,.000004Z" style="fill: #272f60;"/>
    <circle id="Ellipse_4" data-name="Ellipse 4" cx="192.5288784" cy="228.7628262" r="13.7678432" style="fill: #272f60;"/>
    <path id="Tracé_140" data-name="Tracé 140" d="M200.9093047,228.554618c-1.1881468,1.6463489-.8167052,3.9441542,.8296397,5.132305,.0097058,.0070053,.0194473,.013963,.0292246,.020873l15.4595421,11.0611213c1.6545258,1.1937582,3.9635182,.8202357,5.1572764-.834294s.8202317-3.9635182-.834294-5.1572764c-.0095231-.0068703-.019078-.013693-.0286647-.0204759l-15.4595421-11.0611213c-1.661408-1.1805339-3.9644594-.796694-5.153182,.8588683Z" style="fill: #fd657c;"/>
    <path id="Tracé_141" data-name="Tracé 141" d="M211.7882436,240.89102l2.0300419,1.457467,4.2943177-6.0120464-2.0300419-1.457467-4.2943177,6.0120464Z" style="fill: #272f60;"/>
    <path id="Tracé_142" data-name="Tracé 142" d="M204.4748889,235.6857864l2.0300419,1.457467,4.2943177-6.0120464-2.0300419-1.457467-4.2943177,6.0120464Z" style="fill: #272f60;"/>
    <path id="Tracé_143" data-name="Tracé 143" d="M223.0315473,200.75867c-.9780027,1.7769206-3.189945,2.4566286-4.9970234,1.5355423l-3.8778974-2.0820934-.0260278-.0260278-.4944956-.2602617-2.7847992-1.4834908-.0260278-.0260278-.4164203,.780785-.8588643,1.6136216-1.0930983,2.0300419-.9369436,1.7697802-2.7847992,5.1271582-.9369436,1.7697802-2.4724859,4.6326587-.9369416,1.7697802-1.1972033,2.2903036c-.9558608,1.8039173-3.1931061,2.4914011-4.9970234,1.5355423-1.8039193-.9558588-2.4914051-3.1931061-1.5355443-4.9970234l1.0670725-2.0040141,.9369416-1.7697802,2.4724859-4.6326587,.9369416-1.7697802,2.7327476-5.1271543,.9369436-1.7437525,4.2422661-7.9379812,.0260278-.0520515c.9780027-1.7769206,3.189945-2.4566286,4.9970234-1.5355423l6.7147521,3.591612,.0780793,.0260278,.9369436,.4944956,2.7587754,1.4834908c1.7872737,.9695518,2.4699443,3.1911244,1.5355423,4.9970234l-.000004-.000004Z" style="fill: #fd657c;"/>
    <path id="Tracé_144" data-name="Tracé 144" d="M213.5840476,199.9518572l3.3834018-6.5846213,1.7697802,.9109159-3.3834018,6.5846213-1.7697802-.9109159Z" style="fill: #272f60;"/>
    <path id="Tracé_145" data-name="Tracé 145" d="M210.7732207,198.4423387l-1.2752806,2.4204344-4.5545794-7.1051446,1.0670745-1.9779903c.0780793-.1301308,.2082101-.3123132,.2862894-.4424441l4.5806071,7.2352754-.104111-.1301308Z" style="fill: #272f60;"/>
    <path id="Tracé_146" data-name="Tracé 146" d="M208.4048418,202.8667872l-.9369436,1.7697802-6.6887243-3.2012194,.9369436-1.7437525,6.6887243,3.1751917Z" style="fill: #272f60;"/>
    <path id="Tracé_147" data-name="Tracé 147" d="M204.7351506,209.7376979l-.9369436,1.7697802-6.6887243-3.2012194,.9369416-1.7697802,6.6887263,3.2012194Z" style="fill: #272f60;"/>
    <path id="Tracé_148" data-name="Tracé 148" d="M201.0394355,216.6346324l-.9369416,1.7697802-6.6887263-3.2012194,.9369416-1.7697802,6.6887263,3.2012194Z" style="fill: #272f60;"/>
    <path id="Tracé_149" data-name="Tracé 149" d="M228.8874351,197.2971889l2.7587754-1.4834908h0v-.0260278l.9109159-.4684718,.0520515-.0260278,.0780793-.0260278,6.7147521-3.591612c1.805899-.934402,4.0274716-.2517353,4.9970274,1.5355423l.0260278,.0520515,4.2422622,7.9379812,.9369436,1.7437525,2.7327476,5.1271543,.9369436,1.7697802,2.4724859,4.6326587,.9369436,1.7697802,2.1341489,3.9820045c.9558628,1.8039213,.268371,4.0411646-1.5355503,4.9970195-1.8039133,.9558628-4.0411567,.268379-4.9970195-1.5355423h0l-2.004026-3.7737864h0l-.9369436-1.7697802h0l-.2602617-.4944956-2.4724859-4.6326587-.9369436-1.7697802-2.7327476-5.1271543-.9369436-1.7697802-1.0931022-2.0300419h0l-.8328405-1.5875978-.0260278-.0520515-.4164203-.780785-.0780753,.0780793,.0520555-.0780793-2.7848031,1.4834908h0l-.5465511,.2862894-3.8778974,2.0820934c-1.805899,.934402-4.0274716,.2517314-4.9970234-1.5355423-.9595998-1.7317592-.333639-3.9135396,1.3981242-4.8731394,.0282477-.0156508,.0567059-.0309204,.0853666-.0458047h.0000119Z" style="fill: #272f60;"/>
    <path id="Tracé_150" data-name="Tracé 150" d="M279.1699905,234.5666644l-17.4375324-9.9159715-8.6406909,15.2513359,14.0801584,7.9900367,2.6286445,1.4834947,1.3793837,.780785,3.5655882,2.0300379,4.0080283,2.2642798,.4164203,.2342339v-20.1182325Z" style="fill: #ffbcc6;"/>
    <path id="Tracé_151" data-name="Tracé 151" d="M233.1297012,199.5614647l2.7587754-1.4834908h0v-.0260278l.9109159-.4684718,.0520555-.0260278,.0780753-.0260278,6.7147481-3.591612c1.805899-.934402,4.0274716-.2517353,4.9970274,1.5355423l.0260278,.0520515,4.2422622,7.9379812,.9369436,1.7437525,2.7327476,5.1271543,.9369436,1.7697802,2.4724859,4.6326587,.9369436,1.7697802,2.1341489,3.9820005c.9558628,1.8039213,.268379,4.0411725-1.5355423,4.9970353s-4.0411725,.268379-4.9970353-1.5355423l-2.0040181-3.7737943h0l-.9369436-1.7697802h0l-.2602617-.4944956-2.4724859-4.6326587-.9369436-1.7697802-2.7587674-5.0751027-.9369436-1.7697802-1.0931022-2.0300419h0l-.8328405-1.5875978-.0260278-.0520515-.4164203-.780785-.0780753,.0780793,.0520555-.0780793-2.7848031,1.4834908h0l-.5465511,.2862894-3.8778974,2.0820934c-1.805899,.934402-4.0274716,.2517314-4.9970234-1.5355423-.9584481-1.7810308-.2916109-4.0018132,1.4894159-4.9602613,.0066916-.0036019,.0133911-.0071801,.0201026-.0107383h.0000079Z" style="fill: #272f60;"/>
    <circle id="Ellipse_5" data-name="Ellipse 5" cx="254.34103" cy="228.7628262" r="13.7678432" style="fill: #272f60;"/>
    <path id="Tracé_152" data-name="Tracé 152" d="M245.9866266,228.554618c1.1881508,1.646341,.8167092,3.9441542-.8296397,5.132305-.0097058,.0070053-.0194434,.013963-.0292207,.020873l-15.4595421,11.0611213c-1.6545258,1.1937582-3.9635182,.8202357-5.1572764-.834294s-.8202317-3.9635182,.834294-5.1572764c.0095231-.0068703,.019078-.013693,.0286647-.0204759l15.4595421-11.0611213c1.6619243-1.1782861,3.9632402-.7947322,5.1531781,.8588683Z" style="fill: #fd657c;"/>
    <path id="Tracé_153" data-name="Tracé 153" d="M235.1076916,240.89102l-2.0300419,1.457467-4.2943177-6.0120464,2.0300419-1.457467,4.2943177,6.0120464Z" style="fill: #272f60;"/>
    <path id="Tracé_154" data-name="Tracé 154" d="M242.3950186,235.6857864l-2.0300379,1.457467-4.2943177-6.0120464,2.0300379-1.457467,4.2943177,6.0120464Z" style="fill: #272f60;"/>
    <path id="Tracé_155" data-name="Tracé 155" d="M223.8643839,200.75867c.9780027,1.7769206,3.189945,2.4566286,4.9970234,1.5355423l3.8778974-2.0820934,.0260278-.0260278,.4944956-.2602617,2.7847992-1.4834908,.0260278-.0260278,.4164203,.780785,.8588604,1.6136216,1.0931022,2.0300419,.9369436,1.7697802,2.7327476,5.1271543,.9369436,1.7697802,2.4724859,4.6326587,.9369436,1.7697802,1.1972053,2.2903036c.9558628,1.8039173,3.1931061,2.4914051,4.9970195,1.5355383,1.8039213-.9558588,2.4914051-3.1931021,1.5355423-4.9970195l-1.0670745-2.0040141-.9369436-1.7697802-2.4724859-4.6326587-.9369436-1.7697802-2.7327476-5.1271543-.9369436-1.7437525-4.1902067-7.964005-.0260278-.0520515c-.9780066-1.7769206-3.189945-2.4566326-4.9970274-1.5355423l-6.7147521,3.591612-.0780793,.0260278-.9369436,.4944956-2.7587754,1.4834908c-1.7957921,.975612-2.4788718,3.2100913-1.5355423,5.0230512l.0000079-.000004Z" style="fill: #fd657c;"/>
    <path id="Tracé_156" data-name="Tracé 156" d="M228.1326738,194.2781518l1.7697802-.9109159,3.3834018,6.5846213-1.7697802,.9109159-3.3834018-6.5846213Z" style="fill: #272f60;"/>
    <path id="Tracé_157" data-name="Tracé 157" d="M236.0966828,198.4423387l1.2752806,2.4204344,4.5545794-7.1051446-1.0670745-1.9779903c-.0780753-.1301308-.2082062-.3123132-.2862894-.4424441l-4.5806071,7.2352754,.104111-.1301308Z" style="fill: #272f60;"/>
    <path id="Tracé_158" data-name="Tracé 158" d="M238.4650656,202.8667872l.9369436,1.7697802,6.6887283-3.2012194-.9369436-1.7437525-6.6887283,3.1751917Z" style="fill: #272f60;"/>
    <path id="Tracé_159" data-name="Tracé 159" d="M242.1347569,209.7376979l.9369436,1.7697802,6.6887204-3.2012194-.9369436-1.7697802-6.6887204,3.2012194Z" style="fill: #272f60;"/>
    <path id="Tracé_160" data-name="Tracé 160" d="M245.830468,216.6346324l.9369436,1.7697802,6.6887283-3.2012194-.9369436-1.7697802-6.6887283,3.2012194Z" style="fill: #272f60;"/>
    <path id="Tracé_161" data-name="Tracé 161" d="M279.1699905,236.0761789l-7.9900367,14.0801584,3.5655882,2.0300379,4.0080283,2.2642798,.4164203-.7287295v-17.6457466Z" style="fill: #272f60;"/>
  </g>
</svg>