<?xml version="1.0" encoding="UTF-8"?>
<svg id="Calque_2" data-name="Calque 2" xmlns="http://www.w3.org/2000/svg" width="7" height="6" viewBox="0 0 7 6">
  <g id="ILLUSTRATIONS">
    <g>
      <path d="m6.4868519,1.3400465c-.3475121-.2879273-.7858707-.4437252-1.2373555-.4396991h-1.3984126V.3007021c-.0148969-.1788565-.1709476-.3124499-.3500763-.2998836-.1791897-.0125663-.3352405.1210271-.3501374.2998836v.5996452h-1.4003663c-.4515459-.0040261-.8898434.1517718-1.2373555.4396991C.194514,1.6006451.0068379,1.9881269,0,2.3995213v2.6984644c.0446295.5365696.5127818.9374718,1.05029.8995288h.3251058c.3376826.0080522.6603463-.1393275.8752518-.3998041l.2840783-.3657653c.0711875-.0857682.1775413-.1346914.2890846-.1329834h1.351341c.1122149-.0021961.2193624.0468492.2910994.1329834l.2851162.3657653c.2144172.2598666.5362261.4072463.8732371.3998041h.3251058c.5375082.037943,1.0055994-.3629592,1.05029-.8995288v-2.6984644c-.0068379-.4113944-.194575-.7988762-.5131481-1.0594749Zm-.1800445,3.7579393h-.0050063c-.0007326.0819861-.0373032.159336-.1000654.2119194-.0693559.0574635-.1569055.0886962-.2470804.0879642h-.3250447c-.1122149.0021961-.2193624-.0467272-.2910994-.1329834l-.2840783-.3657653c-.2144172-.2598666-.5362261-.4072463-.8732371-.3996821h-1.351402c-.3377437-.0080522-.6604073.1393275-.8752518.3996821l-.2831015.3657653c-.0717369.0862562-.1788845.1351794-.2910994.1329834h-.3250447c-.1791897.0126883-.3352405-.1210271-.3501374-.2998836v-2.6984644c.0441411-.5368136.5125987-.9379598,1.05029-.8995288h3.5010074c.5376913-.038431,1.0062099.3627152,1.0503511.8995288v2.6984644Z" style="fill: #fff;"/>
      <path d="m2.7267367,2.783343h-.2210719v-.2208256c0-.1220031-.0989665-.2209476-.2210109-.2209476-.1221054,0-.2210719.0989445-.2210719.2209476v.2208256h-.2210719c-.1221054,0-.2210719.0988225-.2210719.2208256s.0989665.2208256.2210719.2208256h.2210719v.2209476c0,.1220031.0989665.2209476.2210719.2209476.1220444,0,.2210109-.0989445.2210109-.2209476v-.2209476h.2210719c.1221054,0,.2210719-.0988225.2210719-.2208256s-.0989665-.2208256-.2210719-.2208256Z" style="fill: #fff;"/>
      <path d="m5.0304391,2.5614194c-.2442109,0-.4421438.197767-.4421438.4417732s.1979329.4417732.4421438.4417732c.2441498,0,.4420828-.197767.4420828-.4417732s-.1979329-.4417732-.4420828-.4417732Z" style="fill: #fff;"/>
    </g>
  </g>
</svg>