<?xml version="1.0" encoding="utf-8"?>
<!-- Generator: Adobe Illustrator 26.2.1, SVG Export Plug-In . SVG Version: 6.00 Build 0)  -->
<svg version="1.1" xmlns="http://www.w3.org/2000/svg" xmlns:xlink="http://www.w3.org/1999/xlink" x="0px" y="0px"
	 viewBox="0 0 304.9521179 219.5332947" style="enable-background:new 0 0 304.9521179 219.5332947;" xml:space="preserve">
<style type="text/css">
	.st0{fill:url(#FOND_00000176008395280210316610000013836961824194385060_);}
	.st1{fill:url(#FOND_00000005945822200065407540000014688774449782961551_);}
	.st2{fill:#FFF5F7;}
	.st3{fill:url(#FOND_00000153689485824304018730000003982117956642012860_);}
	.st4{fill:url(#FOND_00000114040049891654645160000000127059254243666084_);}
	.st5{fill:url(#FOND_00000044144969067552150460000015370535663940308650_);}
	.st6{fill:url(#FOND_00000178194994952889193530000007266419894805557921_);}
	.st7{fill:url(#FOND_00000101093322576105271170000002375162750449812132_);}
	.st8{fill:url(#FOND_00000079477263066365309390000017402553297461706430_);}
	.st9{fill:url(#FOND_00000059289940348703875520000012828264188097889190_);}
	.st10{fill:url(#FOND_00000143599092027252396910000012291180778337574047_);}
	.st11{fill:url(#FOND_00000003095340622429071480000016786063079642101430_);}
	.st12{fill:#272F60;}
	.st13{fill:#FD657C;}
	.st14{fill:url(#FOND_00000150080731507165503890000000123226877320984239_);}
	.st15{fill:#F4AAB9;}
	.st16{clip-path:url(#Rectangle_10_00000115515140157858079610000009287019947241229455_);}
	.st17{fill:#FB657C;}
	.st18{fill:#FFFFFF;}
	.st19{fill:#FFBCC6;}
	.st20{clip-path:url(#SVGID_00000012441178395248365430000000477918179847031964_);}
	.st21{enable-background:new    ;}
	.st22{fill:#FB657C;stroke:#FD657C;stroke-width:3.8352001;stroke-linecap:round;stroke-linejoin:round;stroke-miterlimit:1.4382;}
	.st23{fill:#FFBCC6;stroke:#FFBCC6;stroke-width:3.8352001;stroke-linecap:round;stroke-linejoin:round;stroke-miterlimit:1.4382;}
	.st24{clip-path:url(#SVGID_00000084502086089243680420000006761004871380195253_);fill:#FB657C;}
	.st25{clip-path:url(#SVGID_00000071523756786410098760000017475544212098809494_);fill:#FFBCC6;}
	.st26{clip-path:url(#SVGID_00000012442083692069236590000008596374142227948677_);fill:#FFBCC6;}
	.st27{clip-path:url(#SVGID_00000021110299302025306080000004346345731629969598_);fill:#FFBCC6;}
	.st28{clip-path:url(#SVGID_00000058565314203974158870000010426284216725793679_);fill:#FFBCC6;}
	.st29{clip-path:url(#SVGID_00000113348455183546617290000010679628353915013558_);fill:#FFBCC6;}
	.st30{clip-path:url(#SVGID_00000085940626494507657170000004065649745296414344_);fill:#FFBCC6;}
	.st31{clip-path:url(#SVGID_00000101105371946430079860000014053724285701656749_);fill:#FFBCC6;}
	.st32{clip-path:url(#SVGID_00000101093552107025130980000007696598076361589930_);fill:#272F60;}
	.st33{clip-path:url(#SVGID_00000101093552107025130980000007696598076361589930_);fill:#FB657C;}
	.st34{clip-path:url(#SVGID_00000101093552107025130980000007696598076361589930_);fill:#FFBCC6;}
	.st35{clip-path:url(#SVGID_00000101093552107025130980000007696598076361589930_);fill:#FFFFFF;}
	.st36{fill:none;}
	.st37{clip-path:url(#SVGID_00000047769583853213164670000000567585453218455988_);fill:#FFFFFF;}
	.st38{clip-path:url(#SVGID_00000080193457117358228960000011158832018690882225_);fill:#FFFFFF;}
	.st39{clip-path:url(#SVGID_00000047782744843247066840000011778819992205119412_);fill:#FFFFFF;}
	.st40{clip-path:url(#SVGID_00000100364237566319813190000004207810556695417000_);fill:#FFFFFF;}
	.st41{clip-path:url(#SVGID_00000141414653518518372570000009835476171098136475_);fill:#FFFFFF;}
	.st42{clip-path:url(#SVGID_00000072254322623875107930000016322526724739515534_);fill:#FFFFFF;}
	.st43{clip-path:url(#SVGID_00000048477786755720757430000002229609765473900960_);fill:#FFFFFF;}
	.st44{clip-path:url(#SVGID_00000114761720414319145670000006464617940711422602_);fill:#FFFFFF;}
	.st45{clip-path:url(#SVGID_00000078005063512564924820000005602325753365633173_);fill:#FFFFFF;}
	.st46{clip-path:url(#SVGID_00000084517152699555162050000007135325251992891016_);fill:#FFFFFF;}
	.st47{clip-path:url(#SVGID_00000158723957552238835390000018413524585844413106_);fill:#FFFFFF;}
	.st48{clip-path:url(#SVGID_00000025402561797419591210000012344926798759344319_);fill:#FFFFFF;}
	.st49{clip-path:url(#SVGID_00000016761865916596540500000001221257420555917224_);fill:#FB657C;}
	.st50{clip-path:url(#SVGID_00000179634791284868633380000001434119656029679282_);fill:#FFFFFF;}
	.st51{clip-path:url(#SVGID_00000054229283787065835370000011339819494997940648_);fill:#FFFFFF;}
	.st52{fill:#FF647B;}
	.st53{fill:#FF657C;}
	.st54{clip-path:url(#SVGID_00000067201897408181376850000009990188327110352297_);}
	.st55{clip-path:url(#SVGID_00000010301437744731903950000007259232846420699568_);}
	.st56{clip-path:url(#SVGID_00000044882900832498118650000011619418110595324038_);}
	.st57{clip-path:url(#SVGID_00000006706247392256598950000004405196344520610192_);}
	.st58{fill:none;stroke:#272E5F;stroke-width:3;}
	.st59{clip-path:url(#SVGID_00000150077953186783836710000008979528636699969718_);}
	.st60{fill:#E94B67;}
	.st61{fill:#FFF5F7;stroke:#272E5F;stroke-width:2;}
	.st62{fill:none;stroke:#272E5F;stroke-width:2;stroke-linecap:round;stroke-linejoin:round;stroke-miterlimit:10;}
	.st63{fill:none;stroke:#272E5F;stroke-width:2;}
	.st64{fill:none;stroke:#272E5F;stroke-width:3;stroke-linecap:round;stroke-linejoin:round;stroke-miterlimit:10;}
	.st65{fill:none;stroke:#142664;stroke-width:2;stroke-linecap:round;stroke-linejoin:round;stroke-miterlimit:10;}
	.st66{clip-path:url(#SVGID_00000127022771425379998710000016639014945272041907_);}
	.st67{clip-path:url(#SVGID_00000119080436376794003410000011790096855902654901_);}
	.st68{clip-path:url(#SVGID_00000040554773169527909710000003907463521049776787_);fill:#FD657C;}
	.st69{clip-path:url(#SVGID_00000181059365483460884160000005467504021877308862_);fill:#FD657C;}
	.st70{clip-path:url(#SVGID_00000040570722245550157450000012712984900052443823_);}
	.st71{clip-path:url(#SVGID_00000170990929850251246660000000831995506594981523_);}
	.st72{clip-path:url(#SVGID_00000000181134794786832560000002368438732139603636_);}
	.st73{fill:none;stroke:#142664;stroke-width:3;stroke-linecap:round;stroke-linejoin:round;}
	.st74{clip-path:url(#SVGID_00000047058406687406330300000003633795397182547114_);}
	.st75{clip-path:url(#SVGID_00000063616887245801198950000006241606613807733688_);}
	.st76{clip-path:url(#SVGID_00000046311874098500716280000005796510823147400097_);}
	.st77{clip-path:url(#SVGID_00000079471614543597466520000012646646159978517928_);}
	.st78{clip-path:url(#SVGID_00000039845784165526866850000013962565710172657538_);}
	.st79{clip-path:url(#SVGID_00000079454876057512570930000014815403178439786158_);}
	.st80{clip-path:url(#SVGID_00000070117996260885050310000001286800595101396115_);}
	.st81{clip-path:url(#SVGID_00000063626558494869252910000000816066627290429585_);}
	.st82{clip-path:url(#SVGID_00000080927007085813422780000000820000827344919175_);}
	.st83{clip-path:url(#SVGID_00000158007898432547496600000001770284399942834571_);}
	.st84{clip-path:url(#SVGID_00000024715390256620243920000014381272940045806506_);}
	.st85{clip-path:url(#SVGID_00000108286739423397522170000015481479881896165043_);}
	.st86{clip-path:url(#SVGID_00000147901824420751957860000010478642706356277377_);}
	.st87{clip-path:url(#SVGID_00000104686436664998628240000015844005629451470259_);}
	.st88{clip-path:url(#SVGID_00000062165216121228489360000003310126773467777674_);}
	.st89{clip-path:url(#SVGID_00000049906083562878609510000015829118658612946866_);}
	.st90{clip-path:url(#SVGID_00000114769905290321297870000015749180838107302814_);}
	.st91{clip-path:url(#SVGID_00000045586483141279179230000011633448447156741823_);}
	.st92{clip-path:url(#SVGID_00000063621951327971379940000008076637142237438882_);}
	.st93{clip-path:url(#SVGID_00000101081773979291665300000012753049440690320566_);}
	.st94{clip-path:url(#SVGID_00000115514064750307661640000004083381531685980559_);}
	.st95{clip-path:url(#SVGID_00000133517264486104303720000005909242340003164081_);}
	.st96{clip-path:url(#SVGID_00000012470164863652054740000010216799379767950505_);}
	.st97{clip-path:url(#SVGID_00000079474748557568560970000002955992086097801898_);}
	.st98{clip-path:url(#SVGID_00000177479190207695391090000012762595640926259101_);}
	.st99{clip-path:url(#SVGID_00000126306291145976943420000001214528024795677321_);}
	.st100{clip-path:url(#SVGID_00000067953402959407000080000009416376492180620711_);}
	.st101{clip-path:url(#SVGID_00000005226567233798467230000014850166257023915429_);}
	.st102{clip-path:url(#SVGID_00000044137092786410835260000002505225395549372552_);}
	.st103{clip-path:url(#SVGID_00000108995862072393781570000016346109818809069232_);}
	.st104{clip-path:url(#SVGID_00000002370054706025920230000003841600152602568588_);}
	.st105{clip-path:url(#SVGID_00000021118967830241265520000002528829296397854099_);}
	.st106{clip-path:url(#SVGID_00000124871673359882834600000010356083946502370948_);}
	.st107{clip-path:url(#SVGID_00000128474513481360680220000008989322294809102504_);}
	.st108{clip-path:url(#SVGID_00000052074683484336786940000010267714070050234006_);}
	.st109{clip-path:url(#SVGID_00000023255084779255653140000002909948644985140652_);}
	.st110{clip-path:url(#SVGID_00000026876558744006832650000006449767816829343933_);}
	.st111{clip-path:url(#SVGID_00000057107217889225656560000003837766575405749939_);}
	.st112{clip-path:url(#SVGID_00000150073562873245899580000002275076226869160623_);}
	.st113{clip-path:url(#SVGID_00000005964963248655547120000017513919958192313277_);}
	.st114{clip-path:url(#SVGID_00000023259024008259169770000015847343919565877635_);}
	.st115{clip-path:url(#SVGID_00000157301925480316170790000015426856213447970238_);}
	.st116{clip-path:url(#SVGID_00000132768517509342218930000013018158744298178706_);}
	.st117{fill:#FFFFFF;stroke:#142664;stroke-width:3;stroke-linecap:round;stroke-linejoin:round;}
	.st118{clip-path:url(#SVGID_00000159450714108236679960000011090318732576324505_);}
	.st119{fill-rule:evenodd;clip-rule:evenodd;fill:#FFBCC6;}
	.st120{fill-rule:evenodd;clip-rule:evenodd;fill:#272F60;}
	.st121{fill-rule:evenodd;clip-rule:evenodd;fill:#FFFFFF;}
	.st122{fill-rule:evenodd;clip-rule:evenodd;fill:#FB657C;}
	.st123{clip-path:url(#SVGID_00000089574310560708794300000018092221837988880011_);}
	.st124{clip-path:url(#SVGID_00000127733330860131013720000006124414029159650738_);}
	.st125{clip-path:url(#SVGID_00000061449613763965935250000014248604916908643227_);}
	.st126{clip-path:url(#SVGID_00000049185783387358969120000006135123059813501573_);}
	.st127{clip-path:url(#SVGID_00000082344953202240562460000005862327317448292795_);}
	.st128{clip-path:url(#SVGID_00000081634638084366474900000006067315704672786088_);}
	.st129{clip-path:url(#SVGID_00000169536254276583490000000004171561764616268966_);}
	.st130{clip-path:url(#SVGID_00000100348631533164769550000013686537785680055467_);}
	.st131{clip-path:url(#SVGID_00000160171199059002902100000002169359273185156268_);}
	.st132{clip-path:url(#SVGID_00000031888105338675252830000008252619831908435863_);}
	.st133{clip-path:url(#SVGID_00000091728797567090331750000004645466679243369356_);}
	.st134{clip-path:url(#SVGID_00000101816024026887358120000018181745304150070943_);}
	.st135{clip-path:url(#SVGID_00000066501484023480241540000003370862430090951597_);}
	.st136{clip-path:url(#SVGID_00000142865571560458007990000007881821958966721409_);}
	.st137{clip-path:url(#SVGID_00000042005862831229790680000005884723834074884265_);}
	.st138{clip-path:url(#SVGID_00000008144650128866099680000011568247138840337072_);}
	.st139{clip-path:url(#SVGID_00000009564421466210274170000007449150921172693434_);}
	.st140{clip-path:url(#SVGID_00000046339971453833466670000016779584805410414001_);}
	.st141{clip-path:url(#SVGID_00000103945034341494259670000008617505032167825537_);}
	.st142{clip-path:url(#SVGID_00000101080503057372465620000016004462359520725939_);}
	.st143{clip-path:url(#SVGID_00000060012768826642903510000013461208950902558348_);}
	.st144{clip-path:url(#SVGID_00000000906736948367894560000000512621001385186989_);}
	.st145{clip-path:url(#SVGID_00000123439734356057861900000016391114534817015681_);}
	.st146{clip-path:url(#SVGID_00000045597534743101670020000007472647825656060862_);}
	.st147{clip-path:url(#SVGID_00000043457095915249938190000015895896947745666696_);}
	.st148{clip-path:url(#SVGID_00000023979385157852354060000013543162780811855277_);}
	.st149{clip-path:url(#SVGID_00000132767865178732218140000012652493388158375041_);}
	.st150{clip-path:url(#SVGID_00000006671057033508821210000005081782255664108706_);}
	.st151{clip-path:url(#SVGID_00000032633415389062624430000007875397854682219408_);}
	.st152{clip-path:url(#SVGID_00000078758026058294715190000006947330120478665878_);}
	.st153{clip-path:url(#SVGID_00000181074715203169834310000005720888197178985359_);}
	.st154{clip-path:url(#SVGID_00000034084408565425731620000011202825816871921832_);}
	.st155{clip-path:url(#SVGID_00000124858881858477069100000016451300318470614712_);}
	.st156{clip-path:url(#SVGID_00000136393997998509908990000003275084652087837864_);}
	.st157{clip-path:url(#SVGID_00000053515962166834972110000008047098284276541100_);}
	.st158{clip-path:url(#SVGID_00000174592291059655355210000014277809448805201804_);}
	.st159{clip-path:url(#SVGID_00000169525678086735646770000000542141729401791670_);}
	.st160{clip-path:url(#SVGID_00000013890445512590419870000015033347547627679120_);}
	.st161{clip-path:url(#SVGID_00000042010069845311029380000007242336283729341358_);}
	.st162{clip-path:url(#SVGID_00000031174283248990141050000015345407054771731120_);}
	.st163{clip-path:url(#SVGID_00000045599579332675249440000010509823679253805481_);}
	.st164{clip-path:url(#SVGID_00000003808023372884280840000014868509481888282526_);}
	.st165{clip-path:url(#SVGID_00000016771134957896454830000016193491227226895490_);}
	.st166{clip-path:url(#SVGID_00000016068106286097559360000007406005794802815156_);}
	.st167{clip-path:url(#SVGID_00000111182179609567017640000007384718982033753237_);}
	.st168{clip-path:url(#SVGID_00000069384531496952463130000014057785771453419146_);}
	.st169{clip-path:url(#SVGID_00000174584878633677516190000003656252777365446804_);}
	.st170{clip-path:url(#SVGID_00000102512701041682711370000010560257256285975986_);}
	.st171{clip-path:url(#SVGID_00000043427233747192197670000001429074850423686796_);}
	.st172{clip-path:url(#SVGID_00000046302631904405243180000018296500006642177942_);}
	.st173{clip-path:url(#SVGID_00000075155912581487525820000012015570066399853708_);}
	.st174{clip-path:url(#SVGID_00000155131939306878764030000016221287857820655254_);}
	.st175{clip-path:url(#SVGID_00000116956203933168167590000008749760366730941085_);}
	.st176{clip-path:url(#SVGID_00000166651230950380140620000014996568609779568017_);}
	.st177{clip-path:url(#SVGID_00000175290860748552556470000005423256945254669726_);}
	.st178{clip-path:url(#SVGID_00000120537455146242897130000011502283998179387044_);}
	.st179{clip-path:url(#SVGID_00000083788817648651555440000001779787640534969784_);}
	.st180{clip-path:url(#SVGID_00000087399398520850710700000017977738035105424541_);}
	.st181{clip-path:url(#SVGID_00000177444039145461687960000001771870531894286479_);}
	.st182{clip-path:url(#SVGID_00000088834320060811733160000018352003579575309962_);}
	.st183{clip-path:url(#SVGID_00000176761740129034724570000005330294946753059000_);}
	.st184{clip-path:url(#SVGID_00000106106289698061128910000015235202524358374327_);}
	.st185{clip-path:url(#SVGID_00000026856989857970319880000012180233533576582544_);}
	.st186{clip-path:url(#SVGID_00000165227253995627113430000017400586141858685845_);}
	.st187{clip-path:url(#SVGID_00000088814783126172676250000012727064188323069598_);}
	.st188{clip-path:url(#SVGID_00000037658167914821921860000016481485924874671757_);}
	.st189{clip-path:url(#SVGID_00000131360906164215184190000003120613623051437740_);}
	.st190{clip-path:url(#SVGID_00000039130514190737980230000017310048797341331893_);}
	.st191{clip-path:url(#SVGID_00000098203429979997142010000014333221971286110090_);}
	.st192{clip-path:url(#SVGID_00000107553145582699475740000007955063244267569305_);}
	.st193{clip-path:url(#SVGID_00000108306238804429563310000016581362250398680229_);}
	.st194{clip-path:url(#SVGID_00000020378146969082103810000017767514740320417204_);}
	.st195{clip-path:url(#SVGID_00000005963751596947477500000014455326065424742837_);}
	.st196{clip-path:url(#SVGID_00000042009417838544354200000015738649796799588008_);}
	.st197{clip-path:url(#SVGID_00000148632478418202720830000002315247683329589431_);}
	.st198{clip-path:url(#SVGID_00000005972589184623679430000007786508640425050279_);}
	.st199{clip-path:url(#SVGID_00000086681616768326264930000006551280063430364068_);}
	.st200{clip-path:url(#SVGID_00000031175219786698337470000010810192970113409449_);}
	.st201{clip-path:url(#SVGID_00000049928525454050005020000010071303502177504177_);}
	.st202{clip-path:url(#SVGID_00000054975901398887873540000014472525992855139717_);}
	.st203{clip-path:url(#SVGID_00000142135230727979307640000016633764259412603058_);}
	.st204{clip-path:url(#SVGID_00000037680810849960469380000015463039454909869199_);}
	.st205{clip-path:url(#SVGID_00000059303469661975927130000001146628306276175033_);}
	.st206{clip-path:url(#SVGID_00000000217218786892552120000015031349564715708083_);}
	.st207{clip-path:url(#SVGID_00000178165312714078895840000012825741259280912575_);}
	.st208{clip-path:url(#SVGID_00000172437282071227887990000015828983479964453808_);}
	.st209{clip-path:url(#SVGID_00000040556923037646576920000004816454859898773667_);}
	.st210{clip-path:url(#SVGID_00000127743402800286412020000013458146295482334611_);}
	.st211{clip-path:url(#SVGID_00000145054161344066568550000013067059534419703731_);}
	.st212{clip-path:url(#SVGID_00000020369421914380165400000014451307265286772140_);}
	.st213{clip-path:url(#SVGID_00000181775772243817720430000016188794464437742464_);}
	.st214{clip-path:url(#SVGID_00000033356933028891683030000000273969424419222163_);}
	.st215{clip-path:url(#SVGID_00000000911134550239620500000011142412388914970544_);}
	.st216{clip-path:url(#SVGID_00000066500402480234696350000016907808794244491403_);}
	.st217{clip-path:url(#SVGID_00000099653787821614380620000016931235726828417699_);}
	.st218{clip-path:url(#SVGID_00000098924985589157115480000003565354978966619071_);}
	.st219{clip-path:url(#SVGID_00000111877417159535481830000002883488515699694214_);}
	.st220{clip-path:url(#SVGID_00000048503245095525531900000007223832693363313539_);}
	.st221{clip-path:url(#SVGID_00000006706681392825075800000009465753676909560226_);}
	.st222{clip-path:url(#SVGID_00000109727568302550366350000005202046077808868265_);}
	.st223{clip-path:url(#SVGID_00000108989192879425942180000012253509736411515046_);}
	.st224{clip-path:url(#SVGID_00000110445179056642971920000002404781756450396845_);}
	.st225{clip-path:url(#SVGID_00000083788641672411910630000014737805353781753479_);}
	.st226{clip-path:url(#SVGID_00000059306572584464245620000001094734181625285044_);}
	.st227{clip-path:url(#SVGID_00000062192936562594897540000016804704402118344842_);}
	.st228{clip-path:url(#SVGID_00000073707494266181564210000009806142248824267672_);}
	.st229{clip-path:url(#SVGID_00000036232577517865028500000005388659102509004173_);}
	.st230{clip-path:url(#SVGID_00000163032308459946472350000017566756720582021014_);}
	.st231{clip-path:url(#SVGID_00000025434462504136338010000004723486158490847142_);}
	.st232{clip-path:url(#SVGID_00000142854664846534046700000001535499525776190896_);}
	.st233{clip-path:url(#SVGID_00000104705862839009325790000018165538555783819926_);}
	.st234{clip-path:url(#SVGID_00000004542664760146912210000006111098918608063122_);}
	.st235{clip-path:url(#SVGID_00000018917201873606100580000010855426035656329374_);}
	.st236{clip-path:url(#SVGID_00000098928128915165230340000005829163494575088296_);}
	.st237{clip-path:url(#SVGID_00000154396876697382744250000014405631569628469633_);}
	.st238{clip-path:url(#SVGID_00000131359713711628630780000000436829205861567882_);}
	.st239{clip-path:url(#SVGID_00000098917161882236325250000006132856836209305533_);}
	.st240{clip-path:url(#SVGID_00000095301562862302990940000015001382881861982113_);}
	.st241{clip-path:url(#SVGID_00000106852538650518323340000006162928478704265116_);}
	.st242{clip-path:url(#SVGID_00000112591816527461847510000010169295018923094198_);}
	.st243{clip-path:url(#SVGID_00000123441174258677315760000010356265137749069491_);}
	.st244{clip-path:url(#SVGID_00000049186315581522144930000003975967550729630858_);}
	.st245{clip-path:url(#SVGID_00000111891668490286311830000012964373552192768166_);}
	.st246{clip-path:url(#SVGID_00000114756115125338896900000007293296276711275960_);}
	.st247{clip-path:url(#SVGID_00000098924919831982217250000005392682816700558996_);}
	.st248{clip-path:url(#SVGID_00000018226184186546631600000012549526371012052357_);}
	.st249{clip-path:url(#SVGID_00000082329624516989263760000002454931595228996003_);}
	.st250{clip-path:url(#SVGID_00000064321878316806518680000013117911100814487218_);}
	.st251{clip-path:url(#SVGID_00000028298167729107341910000010799547102430351241_);}
	.st252{clip-path:url(#SVGID_00000033343098349024463090000003349501850782424242_);}
	.st253{fill:#E94966;}
	.st254{fill:#13224F;}
	.st255{fill:url(#);}
	.st256{clip-path:url(#SVGID_00000096056744342465683810000007906625292063816091_);}
	.st257{fill:#FFCE00;}
	.st258{fill-rule:evenodd;clip-rule:evenodd;fill:#FD657C;}
	.st259{clip-path:url(#SVGID_00000093152294181267275210000005720021335426383285_);}
	.st260{fill:url(#SVGID_00000012443892785386225650000012802490578494109861_);}
	.st261{fill:#FFFFFF;stroke:#FFFFFF;stroke-width:10;}
	.st262{fill:none;stroke:#272F60;stroke-width:3;stroke-linecap:round;stroke-linejoin:round;}
	.st263{clip-path:url(#SVGID_00000114046106515898976770000009614344991670674583_);}
	.st264{fill:none;stroke:#FFFFFF;stroke-width:5;}
	.st265{fill:#3580F8;}
	.st266{clip-path:url(#SVGID_00000062158311155343800500000003261998127525220736_);}
	.st267{fill:#FDF2F5;}
	.st268{clip-path:url(#SVGID_00000080169648292376515060000009396247163325921416_);}
	.st269{fill:#44C400;}
	.st270{clip-path:url(#SVGID_00000062182131485605815850000004255899838684765861_);}
	.st271{clip-path:url(#SVGID_00000151509554773067543720000010257756927336072863_);}
	.st272{clip-path:url(#SVGID_00000160893251513489812380000014451391274361533330_);}
	.st273{fill:#F1AAB9;}
	.st274{fill:#E34C6A;}
	.st275{clip-path:url(#SVGID_00000001654447639046678140000007569162871737376658_);}
	.st276{clip-path:url(#SVGID_00000046310692085071041890000001829662323122243757_);}
	.st277{clip-path:url(#SVGID_00000006694236430210555530000013122893396992539010_);}
	.st278{clip-path:url(#SVGID_00000158726900023687775960000012749878199645741211_);}
	.st279{clip-path:url(#SVGID_00000114782297815922633840000005121546230208613801_);}
	.st280{clip-path:url(#SVGID_00000150804807054200132660000012510098197365570200_);}
	.st281{clip-path:url(#SVGID_00000127008184314279377930000014230582305189325962_);}
	.st282{clip-path:url(#SVGID_00000012459738687585288070000016926042358719251333_);}
	.st283{display:none;}
	.st284{display:inline;}
	.st285{display:inline;enable-background:new    ;}
	.st286{clip-path:url(#SVGID_00000013186566115441721550000000040449245087477897_);}
	.st287{clip-path:url(#SVGID_00000041286025968290751550000005498533774840972691_);}
	.st288{clip-path:url(#SVGID_00000011016612689089291690000014582498774276048299_);}
	.st289{clip-path:url(#SVGID_00000151533753052589796760000013768865804621091236_);}
	.st290{fill:none;stroke:#FFFFFF;stroke-miterlimit:10;}
	.st291{clip-path:url(#SVGID_00000156571660300312200410000017805813536411168435_);}
	.st292{clip-path:url(#SVGID_00000119838350154999028810000011247414418667140745_);}
	.st293{clip-path:url(#SVGID_00000108998738467909996660000017406453856307414946_);}
	.st294{clip-path:url(#SVGID_00000006695614992922882000000018048814227878517661_);}
	.st295{clip-path:url(#SVGID_00000013178840881419321490000010320980279112963251_);}
	.st296{clip-path:url(#SVGID_00000152949973057338349890000000265794745377428618_);}
	.st297{clip-path:url(#SVGID_00000049198344797685394310000004404661246796098983_);}
	.st298{clip-path:url(#SVGID_00000053522564175388945960000005344372214461975735_);}
	.st299{clip-path:url(#SVGID_00000085939613187330594540000018336919492225631624_);}
	.st300{clip-path:url(#SVGID_00000084493273469557469420000014417551839102197902_);}
	.st301{clip-path:url(#SVGID_00000057110619849825380440000012149785923329982856_);}
	.st302{clip-path:url(#SVGID_00000075143339304907647160000005937427882812743057_);}
	.st303{clip-path:url(#SVGID_00000149365090807655093290000009189025606239734660_);}
	.st304{clip-path:url(#SVGID_00000070080825905778016500000018096834521152899489_);}
	.st305{clip-path:url(#SVGID_00000081624624060472628890000009726327001651132300_);}
	.st306{clip-path:url(#SVGID_00000006683396062638404600000015902206511731105192_);}
	.st307{fill:none;stroke:#142664;stroke-width:4.0018654;stroke-linecap:round;stroke-linejoin:round;stroke-miterlimit:4.0018654;}
	.st308{clip-path:url(#SVGID_00000020380441951360545740000005373345574198770098_);}
	.st309{clip-path:url(#SVGID_00000134229069812885057910000009889903734823891132_);}
	.st310{clip-path:url(#SVGID_00000013171926122625109640000005144992801188350143_);}
	.st311{clip-path:url(#SVGID_00000157287937836068901380000007002121669931615883_);}
	.st312{clip-path:url(#SVGID_00000088127845234133859570000015131511507333039290_);}
	.st313{clip-path:url(#SVGID_00000062898024383444997530000001915906523142026936_);}
	.st314{clip-path:url(#SVGID_00000060714984308699161280000001886795710401858958_);}
	.st315{clip-path:url(#SVGID_00000064312992165271233800000014993544357805194427_);}
	.st316{clip-path:url(#SVGID_00000176730652811931625920000002787155876294643898_);}
	.st317{clip-path:url(#SVGID_00000158707323256436687800000002932597397593784227_);}
	.st318{clip-path:url(#SVGID_00000016769830172298908230000015772611925301091495_);}
	.st319{clip-path:url(#SVGID_00000148621559420007319260000002184300372184783799_);}
	.st320{clip-path:url(#SVGID_00000129192022574038108210000015850446053532842147_);}
	.st321{clip-path:url(#SVGID_00000016770930730231252180000003410406168095759038_);}
	.st322{clip-path:url(#SVGID_00000178171542662020308200000015920670716380790700_);}
	.st323{clip-path:url(#SVGID_00000140702545677064346780000005468560148210970265_);}
	.st324{clip-path:url(#SVGID_00000127034634668796115300000013171598384624121010_);fill:#FD657C;}
	.st325{clip-path:url(#SVGID_00000127034634668796115300000013171598384624121010_);fill:#272F60;}
</style>
<g id="FONDS">
</g>
<g id="ILLUSTRATIONS">
</g>
<g id="TEXTES_FR" class="st283">
</g>
<g id="TEXTES_GB">
</g>
<g id="Calque_5">
	<g>
		<path id="Tracé_6439" class="st12" d="M1.5179996,211.3271484h302.0299988
			c0.7731934,0.0022888,1.4018555-0.6226807,1.4041138-1.395874c0.0022888-0.7731934-0.6226807-1.401825-1.395874-1.4041138
			c-0.0027466,0-0.0054932,0-0.0082397,0H1.5179996C0.714632,208.5010986,0.0388966,209.1242981,0,209.9271545
			C0.0631514,210.7184448,0.7242002,211.3280945,1.5179996,211.3271484"/>
		<g id="Groupe_1959" transform="translate(25.75 0)">
			<g>
				<g id="Groupe_1958" transform="translate(0 0)">
					<path id="Tracé_6649" class="st12" d="M242.1130066,124.0621414
						c-2.3680573,20.4177628-9.3876953,40.0203323-20.5189972,57.2999954c-0.9703979,0.2580261-1.9626617,0.425415-2.9640045,0.5
						c-1.6877594-0.1650696-3.3275452,0.6209106-4.2559967,2.0399933
						c-16.0720062,17.4430084-23.4629974,30.1909943-47.3629913,34.3589935
						c-15.4814911,1.6565247-31.0934448,1.6954041-46.5830002,0.1159973
						c-39.8014908-4.9006348-73.7444305-31.1569366-88.4889984-68.4499969
						c-0.7710171-1.8544922-2.2346478-3.3353424-4.0799999-4.128006C16.6000004,140.7181396-2.7,117.8011475,0.316,93.3711472
						c3.0079999-24.5110016,26.3029995-40.8830032,38.2839966-42.8310013
						c1.9261818-0.2782173,3.657692-1.3243408,4.7999992-2.9000015
						C66.5381699,13.870244,106.5715485-4.1848874,147.1999969,0.8261455c16.2174988,2.4756536,32.0268097,7.1282916,47,13.8319998
						c20.5630035,10.4000006,26.322998,24.2389984,36.8190002,44.3589973
						c0.6361237,1.7169266,2.1450806,2.9601326,3.9519958,3.2560005c0.3999939,0.1160011,0.8280029,0.2360001,1.2440033,0.4000015
						c6.6740265,19.7346382,8.6933136,40.7454796,5.8999939,61.3899956"/>
					<path id="Tracé_6650" class="st13" d="M236.2129974,62.6641464c-9.7599945-27.507-28.822998-47.2350006-52.826004-50.7999992
						c-0.4000092-0.0760002-0.8600006-0.1520004-1.2680054-0.1920004
						c-40.2829895-5.0999994-78.7999954,36.9910011-85.9999924,93.9730072
						c-7.0059967,55.435997,18.1940002,104.5709915,56.6939926,111.9029922
						c1.108017,0.2079926,2.1679993,0.3800049,3.2680054,0.5079956c24.8000031,3.1000061,48.951004-11.628006,65.4940033-36.6750031
						c11.1367645-17.2776489,18.1593781-36.8809204,20.5270081-57.2999954
						C244.9089508,103.4287491,242.8932495,82.4068527,236.2129974,62.6641464 M207.4129944,158.2811279l-22.8269958-30.2389832
						c-1.3301239-1.7638245-0.9785309-4.271965,0.7852936-5.6020813c0.8422852-0.63517,1.9013672-0.9118881,2.9467163-0.7699203
						l31.7349854,4.4400024c2.1881561,0.3037567,3.7157593,2.3238449,3.4120026,4.512001l-0.0359955,0.2119904
						c-1.8832245,9.3138428-4.9915771,18.3372803-9.2440033,26.8349915
						c-0.9901886,1.9747925-3.3937836,2.7729797-5.368576,1.7827911
						C208.2645264,159.1751862,207.7841797,158.7744598,207.4129944,158.2811279 M163.1949921,190.936142l7.852005-56.2460022
						c0.3049316-2.1740417,2.3145599-3.6892548,4.4886169-3.3843231c1.0563965,0.1481781,2.0089417,0.7147522,2.6433868,1.5723267
						l26.5,35.0509949c1.0742493,1.4468994,1.0579224,3.4309692-0.0399933,4.8600006
						c-10.5359955,13.3800049-23.7109985,21.3999939-37.1309967,22.6829987
						c-2.2008209,0.1915894-4.1402435-1.4372101-4.3318329-3.638031c-0.000061-0.0006561-0.0001068-0.0013123-0.0001678-0.0019684
						c-0.0242767-0.2999878-0.0162201-0.6017151,0.0240021-0.8999939 M149.90802,193.0521393
						c-13-4.8639984-23.4590073-16.3399963-30.0000076-31.6349945c-0.6762161-1.6925812-0.1315842-3.6283417,1.3280029-4.7200012
						l35.5429916-26.822998c1.7656708-1.327652,4.2733307-0.9725647,5.6009827,0.7931213
						c0.6321106,0.840683,0.9076843,1.8965149,0.7670135,2.9388885l-7.9160004,56.2099915
						c-0.2881622,2.1902618-2.2973328,3.7322235-4.4875946,3.444046c-0.0001373-0.0000153-0.0002594-0.0000305-0.000412-0.0000458
						c-0.2908325-0.0375366-0.5765839-0.1072845-0.8519897-0.2079926L149.90802,193.0521393z M131.243988,70.6421432
						l23.6690063,31.4000015c1.3301239,1.7638245,0.9785156,4.271965-0.7853088,5.6020813
						c-0.8422699,0.63517-1.9013672,0.9118881-2.946701,0.7699203l-32.9999924-4.6320038
						c-2.1881485-0.3037643-3.7157516-2.3238525-3.4120026-4.512001l0.0360031-0.211998
						c1.9334335-9.6659393,5.186554-19.0201797,9.6679993-27.8000031c0.9901886-1.9747925,3.3937912-2.7729721,5.3685913-1.7827759
						c0.5518799,0.2767258,1.0322266,0.6774445,1.4034119,1.1707764 M134.1129913,56.2421455
						c1.0320129-1.3120003,2.1119995-2.5880013,3.2360077-3.7879982
						c8.3513184-9.9479561,20.093811-16.4469795,32.9579926-18.2410011
						c0.6000061-0.0600014,1.2360077-0.1240005,1.8760071-0.1520004c2.2300873-0.1115875,4.1284027,1.6058044,4.2399902,3.8359032
						c0,0.0000305,0,0.0000648,0,0.0000954c0.0126801,0.2403526,0.0032959,0.4813576-0.0279846,0.7200012l-7.9320068,56.7339973
						c-0.297226,2.1890564-2.3127441,3.7226868-4.5017853,3.4254684c-1.0632782-0.1443634-2.0239716-0.709877-2.666214-1.5694656
						l-27.1999969-36.0999985c-1.1161041-1.4333344-1.1078339-3.443882,0.019989-4.868L134.1129913,56.2421455z
						 M189.746994,37.1951447c12.1920013,5.2000008,22.522995,16.5999985,28.9830017,32.2269974
						c0.6714783,1.6928329,0.1276703,3.6256561-1.3280029,4.7200012
						c-8.2559967,6.1880035-34.6549988,26.0510025-34.6549988,26.0510025
						c-1.7719116,1.3193359-4.2778625,0.9524536-5.5971832-0.819458c-0.6194153-0.8319016-0.8914948-1.8718796-0.7588196-2.9005432
						l7.8670044-56.1310005c0.2966003-2.186348,2.309433-3.7182884,4.4957886-3.4216805
						c0.3423462,0.0464439,0.6772003,0.1370926,0.9962006,0.26968 M112.6499939,115.3961487
						c0.1901932-2.2333298,2.1546326-3.8897552,4.3880005-3.6999969c0.0600052,0,0.1240005,0.012001,0.1839981,0.0199966
						l32.8349991,4.6119995c2.1890564,0.2972183,3.7226868,2.3127441,3.4254608,4.5017929
						c-0.1443634,1.0632706-0.7098694,2.0239563-1.569458,2.6662064l-30.9109955,23.2999954
						c-1.7530365,1.3442993-4.2639313,1.01297-5.6082382-0.7400818c-0.3676987-0.4794922-0.6219864-1.0360565-0.7437668-1.6279144
						c-1.9476395-9.5432587-2.6201782-19.3027802-2-29.022995 M225.5909882,114.4971542
						c-0.1516418,2.2034607-2.0605011,3.8669891-4.2640076,3.7160034c-0.1000061-0.0080032-0.1999969-0.0159988-0.3000031-0.0319977
						l-31.5709991-4.4199982c-2.1893158-0.2953491-3.7246704-2.3095627-3.429306-4.4988708
						c0.1435699-1.0643005,0.7091064-2.0261612,1.5693054-2.6691284l29.8650208-22.5510178
						c1.7806091-1.3298416,4.302124-0.9644241,5.631958,0.8161774c0.3688354,0.4938507,0.6192932,1.065834,0.7320404,1.6718216
						c1.8127747,9.2031708,2.4072113,18.6047974,1.7680054,27.9629974"/>
					<path id="Tracé_6651" class="st19" d="M163.1199951,133.6101379l-7.8919983,56.2100067
						c-0.2881622,2.1902618-2.2973328,3.7322235-4.4875946,3.4440613c-0.0001373-0.0000153-0.0002747-0.0000458-0.000412-0.000061
						c-0.2908173-0.0375366-0.5765839-0.1072998-0.8519897-0.2079926c-13-4.8639984-23.4590073-16.3399963-30.0000076-31.6350098
						c-0.6762161-1.6925812-0.1315765-3.6283264,1.3280029-4.7200012l35.5439987-26.822998
						c1.7693634-1.3227386,4.276001-0.9606934,5.5987549,0.80867
						C162.984848,131.5243073,163.2581024,132.5736542,163.1199951,133.6101379"/>
					<path id="Tracé_6652" class="st19" d="M151.9150085,123.4941406l-30.9110107,23.3000031
						c-1.7530289,1.3442993-4.2639236,1.0129547-5.6082306-0.7400818c-0.3676987-0.4794922-0.6219864-1.0360718-0.7437668-1.6279144
						c-1.9476547-9.5446167-2.6201859-19.3054657-2-29.0270081c0.1901932-2.2333298,2.1546326-3.8897629,4.3880005-3.6999969
						c0.0600052,0,0.1240005,0.0119934,0.1839981,0.0199966l32.8349915,4.6119995
						c2.1893921,0.2947159,3.7253418,2.3084793,3.4306335,4.4978714c-0.1436157,1.0669556-0.7112732,2.0309753-1.5746155,2.6741333"
						/>
					<path id="Tracé_6653" class="st12" d="M151.1959991,108.410141l-33.0029984-4.6279984
						c-2.1881485-0.3037567-3.7157516-2.3238449-3.4120026-4.512001l0.0360031-0.211998
						c1.9334412-9.6659393,5.1865616-19.0201797,9.6679993-27.8000031c0.9901886-1.9747925,3.3937912-2.7729721,5.368576-1.7827759
						c0.5518951,0.2767258,1.0322418,0.6774445,1.4034271,1.1707764l23.6710052,31.4000015
						c1.3301086,1.7638321,0.9785156,4.271965-0.7853088,5.6020813c-0.8422699,0.63517-1.9013672,0.9118958-2.946701,0.7699203"/>
					<path id="Tracé_6654" class="st12" d="M176.3950043,38.6161461l-7.9320068,56.7349968
						c-0.297226,2.1890564-2.3127441,3.7226868-4.5017853,3.4254684c-1.0632782-0.1443634-2.0239716-0.709877-2.666214-1.5694656
						l-27.1999969-36.0999985c-1.1171112-1.4335136-1.107193-3.4455719,0.0239868-4.868
						c1.0320129-1.3120003,2.1119995-2.5880013,3.2360077-3.788002c8.350647-9.9478951,20.0923767-16.4472466,32.9560089-18.2420006
						c0.5999908-0.0599976,1.2359924-0.1239967,1.8759918-0.1520004c2.2301025-0.1092682,4.1265717,1.6099129,4.2359924,3.8400002
						c0.0126801,0.2403526,0.0032959,0.4813576-0.0279846,0.7200012"/>
					<path id="Tracé_6655" class="st12" d="M225.5909882,114.4911499
						c-0.1516418,2.2034531-2.0605011,3.8669815-4.2639923,3.7159958c-0.0999908-0.0079956-0.1999969-0.0159988-0.3000031-0.0319977
						l-31.5709991-4.4200058c-2.1893005-0.2953491-3.7246704-2.3095627-3.429306-4.4988632
						c0.1435699-1.0643082,0.7091064-2.0261688,1.5693054-2.669136l29.8650055-22.5479965
						c1.7808075-1.3295746,4.3022766-0.9637756,5.6318359,0.8170319c0.3691864,0.4944687,0.6196899,1.0672226,0.7321625,1.6739655
						C225.6369171,95.7327576,226.2306824,105.1336975,225.5909882,114.4911499"/>
					<path id="Tracé_6656" class="st12" d="M217.4060059,74.1551437
						c-8.2559967,6.1880035-34.6549988,26.0510025-34.6549988,26.0510025
						c-1.7709503,1.3206177-4.2771606,0.9555511-5.5977783-0.8153992c-0.6243286-0.8372192-0.8964386-1.8854141-0.7582245-2.9206009
						l7.8639984-56.1259995c0.2966156-2.1863518,2.3094482-3.7182884,4.4957886-3.4216843
						c0.3423462,0.0464439,0.6772003,0.1370926,0.9962158,0.2696838
						c12.1920013,5.2000008,22.5230103,16.5999985,28.9830017,32.2269974
						C219.4140778,71.1164398,218.8694153,73.0588989,217.4060059,74.1551437"/>
					<path id="Tracé_6657" class="st12" d="M223.4329834,130.8331451
						c-1.8832092,9.3138428-4.9915771,18.3372955-9.2440033,26.8350067
						c-0.9901886,1.9747925-3.3937836,2.7729645-5.368576,1.7827759c-0.5518799-0.2767181-1.0322266-0.6774445-1.4034271-1.1707764
						l-22.8299866-30.2380066c-1.3301086-1.7638245-0.9785156-4.271965,0.7853088-5.6020813
						c0.8422699-0.6351624,1.9013672-0.9118881,2.9466858-0.7699203l31.7350159,4.4400024
						c2.1881714,0.3035355,3.7160034,2.3234787,3.4124603,4.5116653c-0.0001526,0.0011139-0.0003204,0.0022278-0.000473,0.0033417
						l-0.0359955,0.2119904"/>
					<path id="Tracé_6658" class="st19" d="M204.6339874,172.7891388
						c-10.5359955,13.3800049-23.7109985,21.4000092-37.1309967,22.6829987
						c-2.2008057,0.1915894-4.1402435-1.4372101-4.3318176-3.638031c-0.000061-0.0006561-0.0001221-0.0013123-0.0001831-0.0019684
						c-0.0242615-0.2999878-0.0162201-0.6017303,0.0240021-0.8999939l7.852005-56.2420044
						c0.3049469-2.1740417,2.3145599-3.6892548,4.4886169-3.3843079c1.0563965,0.1481628,2.0089264,0.7147369,2.6433868,1.5723114
						l26.5,35.0510101c1.074234,1.4468994,1.0579224,3.4309692-0.0400085,4.8600006"/>
				</g>
			</g>
		</g>
	</g>
</g>
</svg>
