<?xml version="1.0" encoding="utf-8"?>
<!-- Generator: Adobe Illustrator 26.2.1, SVG Export Plug-In . SVG Version: 6.00 Build 0)  -->
<svg version="1.1" xmlns="http://www.w3.org/2000/svg" xmlns:xlink="http://www.w3.org/1999/xlink" x="0px" y="0px"
	 viewBox="0 0 254.223999 207.4041748" style="enable-background:new 0 0 254.223999 207.4041748;" xml:space="preserve">
<style type="text/css">
	.st0{fill:url(#FOND_00000036952898904383836840000010303990747625653930_);}
	.st1{fill:url(#FOND_00000080891354830946681750000008613858852770114444_);}
	.st2{fill:#FFF5F7;}
	.st3{fill:url(#FOND_00000068656462963137395840000006362721345089405339_);}
	.st4{fill:url(#FOND_00000142855941396250857750000006280889147714919073_);}
	.st5{fill:url(#FOND_00000140703120876179545750000004614286111033033618_);}
	.st6{fill:url(#FOND_00000080885589969118948900000008649078186178320810_);}
	.st7{fill:url(#FOND_00000103239743217945088720000003796975265654527635_);}
	.st8{fill:url(#FOND_00000097498869701040568110000014657313327133489316_);}
	.st9{fill:url(#FOND_00000115507118126660469300000013645056411969620657_);}
	.st10{fill:url(#FOND_00000077318933891102923170000005191299784030161536_);}
	.st11{fill:url(#FOND_00000119832850607477258070000013552522637959835313_);}
	.st12{fill:#272F60;}
	.st13{fill:#FD657C;}
	.st14{fill:url(#FOND_00000062905838409638120100000002919863105594055058_);}
	.st15{fill:#F4AAB9;}
	.st16{clip-path:url(#Rectangle_10_00000039825801449420496710000012247676957002503816_);}
	.st17{fill:#FB657C;}
	.st18{fill:#FFFFFF;}
	.st19{fill:#FFBCC6;}
	.st20{clip-path:url(#SVGID_00000119088262912918412880000015333084064002370473_);}
	.st21{enable-background:new    ;}
	.st22{fill:#FB657C;stroke:#FD657C;stroke-width:3.8352001;stroke-linecap:round;stroke-linejoin:round;stroke-miterlimit:1.4382;}
	.st23{fill:#FFBCC6;stroke:#FFBCC6;stroke-width:3.8352001;stroke-linecap:round;stroke-linejoin:round;stroke-miterlimit:1.4382;}
	.st24{clip-path:url(#SVGID_00000114065373906064738570000014672499415528957843_);fill:#FB657C;}
	.st25{clip-path:url(#SVGID_00000134223712829193868050000015717613973522639500_);fill:#FFBCC6;}
	.st26{clip-path:url(#SVGID_00000181049376526882957610000014879775046755258041_);fill:#FFBCC6;}
	.st27{clip-path:url(#SVGID_00000090988731372041425840000009300540465498561423_);fill:#FFBCC6;}
	.st28{clip-path:url(#SVGID_00000155852198699403433430000000082560582478106266_);fill:#FFBCC6;}
	.st29{clip-path:url(#SVGID_00000157310055637736073120000006106361781852095408_);fill:#FFBCC6;}
	.st30{clip-path:url(#SVGID_00000072971952453460447750000017050374317055376035_);fill:#FFBCC6;}
	.st31{clip-path:url(#SVGID_00000103263325388564597040000006476903298244113567_);fill:#FFBCC6;}
	.st32{clip-path:url(#SVGID_00000041993242453643228620000009958452024964670848_);fill:#272F60;}
	.st33{clip-path:url(#SVGID_00000041993242453643228620000009958452024964670848_);fill:#FB657C;}
	.st34{clip-path:url(#SVGID_00000041993242453643228620000009958452024964670848_);fill:#FFBCC6;}
	.st35{clip-path:url(#SVGID_00000041993242453643228620000009958452024964670848_);fill:#FFFFFF;}
	.st36{fill:none;}
	.st37{clip-path:url(#SVGID_00000147196501161403063750000009230684103835460522_);fill:#FFFFFF;}
	.st38{clip-path:url(#SVGID_00000026884583050199950580000012164932250376713384_);fill:#FFFFFF;}
	.st39{clip-path:url(#SVGID_00000145029708106438451980000015687840854772408989_);fill:#FFFFFF;}
	.st40{clip-path:url(#SVGID_00000145748331692999865470000011258113525036727741_);fill:#FFFFFF;}
	.st41{clip-path:url(#SVGID_00000133488388189702273670000015709843660210000309_);fill:#FFFFFF;}
	.st42{clip-path:url(#SVGID_00000049942764270308613170000004939409540316809090_);fill:#FFFFFF;}
	.st43{clip-path:url(#SVGID_00000025418489402558861980000017345974166620286080_);fill:#FFFFFF;}
	.st44{clip-path:url(#SVGID_00000008865844748548440230000008978925495853353895_);fill:#FFFFFF;}
	.st45{clip-path:url(#SVGID_00000037691383441803238730000016873631305573417095_);fill:#FFFFFF;}
	.st46{clip-path:url(#SVGID_00000069373630109697294900000010921297502047995566_);fill:#FFFFFF;}
	.st47{clip-path:url(#SVGID_00000111878963524309708120000008378604669011290780_);fill:#FFFFFF;}
	.st48{clip-path:url(#SVGID_00000041266471415521066050000015207893695158193080_);fill:#FFFFFF;}
	.st49{clip-path:url(#SVGID_00000119092580268864728670000009505797120733721513_);fill:#FB657C;}
	.st50{clip-path:url(#SVGID_00000183961742875097261920000011572103879728346803_);fill:#FFFFFF;}
	.st51{clip-path:url(#SVGID_00000003082342107393558740000006558085779504680111_);fill:#FFFFFF;}
	.st52{fill:#FF647B;}
	.st53{fill:#FF657C;}
	.st54{clip-path:url(#SVGID_00000057121078291135527270000015963813653479111074_);}
	.st55{clip-path:url(#SVGID_00000136401251843001211630000003293388981193923768_);}
	.st56{clip-path:url(#SVGID_00000109722552705729786390000000429681925378635910_);}
	.st57{clip-path:url(#SVGID_00000147219335754887645030000013531269649800836235_);}
	.st58{fill:none;stroke:#272E5F;stroke-width:3;}
	.st59{clip-path:url(#SVGID_00000179639111435930007860000017254678431279496868_);}
	.st60{fill:#E94B67;}
	.st61{fill:#FFF5F7;stroke:#272E5F;stroke-width:2;}
	.st62{fill:none;stroke:#272E5F;stroke-width:2;stroke-linecap:round;stroke-linejoin:round;stroke-miterlimit:10;}
	.st63{fill:none;stroke:#272E5F;stroke-width:2;}
	.st64{fill:none;stroke:#272E5F;stroke-width:3;stroke-linecap:round;stroke-linejoin:round;stroke-miterlimit:10;}
	.st65{fill:none;stroke:#142664;stroke-width:2;stroke-linecap:round;stroke-linejoin:round;stroke-miterlimit:10;}
	.st66{clip-path:url(#SVGID_00000148663661951558888960000004694634003300347816_);}
	.st67{clip-path:url(#SVGID_00000082367920299749347280000002099597695515571621_);}
	.st68{clip-path:url(#SVGID_00000047747744251187749040000003982159026040482749_);fill:#FD657C;}
	.st69{clip-path:url(#SVGID_00000101074115484130248530000008007602450148530585_);fill:#FD657C;}
	.st70{clip-path:url(#SVGID_00000161612695152787260450000008757579180652095931_);}
	.st71{clip-path:url(#SVGID_00000079479223483700874310000001845911157257346946_);}
	.st72{clip-path:url(#SVGID_00000038386258026649395160000006159620549947133852_);}
	.st73{fill:none;stroke:#142664;stroke-width:3;stroke-linecap:round;stroke-linejoin:round;}
	.st74{clip-path:url(#SVGID_00000079481331534942979900000001528442036479876782_);}
	.st75{clip-path:url(#SVGID_00000002349728760769951870000014171801457760940184_);}
	.st76{clip-path:url(#SVGID_00000044885478369402569040000007052707446241032604_);}
	.st77{clip-path:url(#SVGID_00000159436325474284703970000000670989319998866844_);}
	.st78{clip-path:url(#SVGID_00000111174690257237464610000000668678037509980594_);}
	.st79{clip-path:url(#SVGID_00000125580252815218482380000002947758869353027975_);}
	.st80{clip-path:url(#SVGID_00000154397911997706770490000012427558064576231339_);}
	.st81{clip-path:url(#SVGID_00000040537968454035652310000008993597164495250073_);}
	.st82{clip-path:url(#SVGID_00000171000453998024551290000015129865088204517263_);}
	.st83{clip-path:url(#SVGID_00000137095663808918006920000013907591970553318302_);}
	.st84{clip-path:url(#SVGID_00000120550982763180777230000002653279444176966068_);}
	.st85{clip-path:url(#SVGID_00000112613195030349795540000015780639074781187753_);}
	.st86{clip-path:url(#SVGID_00000153667844756477953370000001462171889436724131_);}
	.st87{clip-path:url(#SVGID_00000114059242725926885280000008319716110738335632_);}
	.st88{clip-path:url(#SVGID_00000175306595241863001130000016930497978997194114_);}
	.st89{clip-path:url(#SVGID_00000016076758239085132010000007966790491600995226_);}
	.st90{clip-path:url(#SVGID_00000160159900504399459040000017279205026608279975_);}
	.st91{clip-path:url(#SVGID_00000026151343390285201990000006766552811581920181_);}
	.st92{clip-path:url(#SVGID_00000026862515543246979580000009004188552254871223_);}
	.st93{clip-path:url(#SVGID_00000113328419481848674620000006801088341402904736_);}
	.st94{clip-path:url(#SVGID_00000025403600138190108780000009494103469873565116_);}
	.st95{clip-path:url(#SVGID_00000030471971104844040130000008620897986837391242_);}
	.st96{clip-path:url(#SVGID_00000160912195526613513180000008944271575164799118_);}
	.st97{clip-path:url(#SVGID_00000152979551968557402430000003804332335733842082_);}
	.st98{clip-path:url(#SVGID_00000059304126381182872020000007757453280942185653_);}
	.st99{clip-path:url(#SVGID_00000091011163247260284310000008465755361262940590_);}
	.st100{clip-path:url(#SVGID_00000065791490225617924060000000952430737432361358_);}
	.st101{clip-path:url(#SVGID_00000065062295242154530710000010996935279841243066_);}
	.st102{clip-path:url(#SVGID_00000049196606973909042580000004539892076104379577_);}
	.st103{clip-path:url(#SVGID_00000143583481494400452220000014485745952911705994_);}
	.st104{clip-path:url(#SVGID_00000150075304181026567780000004418667660572572818_);}
	.st105{clip-path:url(#SVGID_00000129890489387978284850000005222631596995412870_);}
	.st106{clip-path:url(#SVGID_00000096042226904415215920000006243708328378167950_);}
	.st107{clip-path:url(#SVGID_00000075866867183032648190000012314519725864844461_);}
	.st108{clip-path:url(#SVGID_00000086677761754627077590000014610948649998032557_);}
	.st109{clip-path:url(#SVGID_00000030484348546494142270000014397031709763201456_);}
	.st110{clip-path:url(#SVGID_00000050646065316130418650000005176481927847020728_);}
	.st111{clip-path:url(#SVGID_00000005966738452818255540000017899424739252271017_);}
	.st112{clip-path:url(#SVGID_00000051357475712617328790000001217335428317045401_);}
	.st113{clip-path:url(#SVGID_00000142874677067511277350000008433695721313740453_);}
	.st114{clip-path:url(#SVGID_00000018197738001537267210000001887641168780872886_);}
	.st115{clip-path:url(#SVGID_00000114796605247062377820000009823725120397293994_);}
	.st116{clip-path:url(#SVGID_00000113347939583691267290000016519959116876483466_);}
	.st117{fill:#FFFFFF;stroke:#142664;stroke-width:3;stroke-linecap:round;stroke-linejoin:round;}
	.st118{clip-path:url(#SVGID_00000147203998560101326500000009522344353491487414_);}
	.st119{fill-rule:evenodd;clip-rule:evenodd;fill:#FFBCC6;}
	.st120{fill-rule:evenodd;clip-rule:evenodd;fill:#272F60;}
	.st121{fill-rule:evenodd;clip-rule:evenodd;fill:#FFFFFF;}
	.st122{fill-rule:evenodd;clip-rule:evenodd;fill:#FB657C;}
	.st123{clip-path:url(#SVGID_00000029750528709008100270000017827740529651931324_);}
	.st124{clip-path:url(#SVGID_00000101084283612967255710000014363122431138604460_);}
	.st125{clip-path:url(#SVGID_00000051359613043422098790000000100146342960081321_);}
	.st126{clip-path:url(#SVGID_00000143587881323478945850000008837541544067860893_);}
	.st127{clip-path:url(#SVGID_00000060031785907891942930000003369961223617419689_);}
	.st128{clip-path:url(#SVGID_00000130619541113944294920000001160105046251224494_);}
	.st129{clip-path:url(#SVGID_00000168098067287444555380000004264379664477122492_);}
	.st130{clip-path:url(#SVGID_00000052823272649562859380000018254363011518157468_);}
	.st131{clip-path:url(#SVGID_00000001638935839473414720000014820095800244819601_);}
	.st132{clip-path:url(#SVGID_00000008143957456936070750000010908561202481868464_);}
	.st133{clip-path:url(#SVGID_00000142862007181476348360000017286297878944089779_);}
	.st134{clip-path:url(#SVGID_00000069399208215012639960000007177473877211121065_);}
	.st135{clip-path:url(#SVGID_00000105387310566168443470000009779745659163290249_);}
	.st136{clip-path:url(#SVGID_00000093856169122495201930000007785466500086636466_);}
	.st137{clip-path:url(#SVGID_00000008130804335434199640000018389551797098726563_);}
	.st138{clip-path:url(#SVGID_00000098916000942528296640000015357673103363854983_);}
	.st139{clip-path:url(#SVGID_00000178892288701359262920000010318997722242933180_);}
	.st140{clip-path:url(#SVGID_00000163033965546331321230000017675480368173398442_);}
	.st141{clip-path:url(#SVGID_00000176021805783298116420000017257069427442139305_);}
	.st142{clip-path:url(#SVGID_00000074440544104237538020000013073713569043618977_);}
	.st143{clip-path:url(#SVGID_00000017494097012371761780000002781512883001052057_);}
	.st144{clip-path:url(#SVGID_00000026885928638556064580000011349409667766237582_);}
	.st145{clip-path:url(#SVGID_00000049899946733878020160000000816918868397911198_);}
	.st146{clip-path:url(#SVGID_00000109016668545883788440000016827046569273305993_);}
	.st147{clip-path:url(#SVGID_00000176040548625817691800000003899081426385204107_);}
	.st148{clip-path:url(#SVGID_00000147916452888721317350000002065328279115300749_);}
	.st149{clip-path:url(#SVGID_00000135662735283288322720000009064383817700702112_);}
	.st150{clip-path:url(#SVGID_00000175308111115517910530000008643072352369602966_);}
	.st151{clip-path:url(#SVGID_00000108276536792826159220000007290671877624954769_);}
	.st152{clip-path:url(#SVGID_00000145753722100890825250000000552305624240210581_);}
	.st153{clip-path:url(#SVGID_00000141451435785104248050000006116764705448664223_);}
	.st154{clip-path:url(#SVGID_00000072276482942723709240000007006479170404253829_);}
	.st155{clip-path:url(#SVGID_00000048458847418274848850000017502925304161827238_);}
	.st156{clip-path:url(#SVGID_00000086662831813725343480000005970145589845710482_);}
	.st157{clip-path:url(#SVGID_00000181081310780555051830000013812078541897496230_);}
	.st158{clip-path:url(#SVGID_00000108290135813052583050000007879599539729275043_);}
	.st159{clip-path:url(#SVGID_00000074411136230025846160000013307721082207685778_);}
	.st160{clip-path:url(#SVGID_00000050658052098905919890000018084821089232558242_);}
	.st161{clip-path:url(#SVGID_00000042700807073234013160000017178386401968707728_);}
	.st162{clip-path:url(#SVGID_00000013914338312909664890000005245605345032926898_);}
	.st163{clip-path:url(#SVGID_00000150077804734494551360000002383287381392443542_);}
	.st164{clip-path:url(#SVGID_00000105389334768180698600000012026691736333837489_);}
	.st165{clip-path:url(#SVGID_00000095326398372542369140000005979583451911543484_);}
	.st166{clip-path:url(#SVGID_00000054956437439632517750000001340994150613678991_);}
	.st167{clip-path:url(#SVGID_00000005948462760806832490000003290265221855221642_);}
	.st168{clip-path:url(#SVGID_00000054248119730456942610000005622467324978145698_);}
	.st169{clip-path:url(#SVGID_00000140707863097842743360000004550643231443519158_);}
	.st170{clip-path:url(#SVGID_00000115487266198608957690000001004820957110676392_);}
	.st171{clip-path:url(#SVGID_00000062156450857255773410000015026989871916709519_);}
	.st172{clip-path:url(#SVGID_00000022562437541013065470000001439984894239043465_);}
	.st173{clip-path:url(#SVGID_00000067914286249149635540000016963440116927664307_);}
	.st174{clip-path:url(#SVGID_00000044177730398868609140000003167332340849386674_);}
	.st175{clip-path:url(#SVGID_00000004505078117348470530000017711029412330388131_);}
	.st176{clip-path:url(#SVGID_00000148635707133473380250000013381042919539942286_);}
	.st177{clip-path:url(#SVGID_00000183227995153033238720000016766800482789290413_);}
	.st178{clip-path:url(#SVGID_00000165199289785619760770000012825345401037413807_);}
	.st179{clip-path:url(#SVGID_00000045582969640878758540000005140888025462167945_);}
	.st180{clip-path:url(#SVGID_00000119811719434247255870000013661387393697536416_);}
	.st181{clip-path:url(#SVGID_00000139280408543726814180000005287875099366021267_);}
	.st182{clip-path:url(#SVGID_00000135670523276638396910000015066721859819203749_);}
	.st183{clip-path:url(#SVGID_00000026124397678310501840000018264049245447418264_);}
	.st184{clip-path:url(#SVGID_00000082367069912216309420000010191447154917963427_);}
	.st185{clip-path:url(#SVGID_00000091005335491219820100000003155597917558418615_);}
	.st186{clip-path:url(#SVGID_00000143589530699089769110000010314854585557188236_);}
	.st187{clip-path:url(#SVGID_00000075133531250354021860000000232765880273267901_);}
	.st188{clip-path:url(#SVGID_00000125584582793140711380000010483400411118113426_);}
	.st189{clip-path:url(#SVGID_00000031202480357287086350000015793546775471250601_);}
	.st190{clip-path:url(#SVGID_00000118387858412658793810000017923354273377061005_);}
	.st191{clip-path:url(#SVGID_00000024683342522680505960000002204471922796594858_);}
	.st192{clip-path:url(#SVGID_00000000918347819966348850000015427343748286518703_);}
	.st193{clip-path:url(#SVGID_00000175310036275221872420000016768577194701237124_);}
	.st194{clip-path:url(#SVGID_00000119830349767121776100000008041321730669912238_);}
	.st195{clip-path:url(#SVGID_00000131346150301804301710000001592184272818822313_);}
	.st196{clip-path:url(#SVGID_00000002379815187822156310000000669511563992348062_);}
	.st197{clip-path:url(#SVGID_00000177478323725778848660000001815741566356533671_);}
	.st198{clip-path:url(#SVGID_00000011750504688588003020000002647770587141288886_);}
	.st199{clip-path:url(#SVGID_00000008829301684820452190000001909901625275945656_);}
	.st200{clip-path:url(#SVGID_00000082368030827392230240000016498324521157929369_);}
	.st201{clip-path:url(#SVGID_00000009582299658212495880000008506112718019722400_);}
	.st202{clip-path:url(#SVGID_00000172415052274775390370000010142658433419416961_);}
	.st203{clip-path:url(#SVGID_00000062155305563218547860000012407469917947980720_);}
	.st204{clip-path:url(#SVGID_00000093147689611700305020000013559646853028260246_);}
	.st205{clip-path:url(#SVGID_00000175294637961242713720000013933426436202009216_);}
	.st206{clip-path:url(#SVGID_00000075867430146515589770000012804000069400802729_);}
	.st207{clip-path:url(#SVGID_00000158012107104339869360000016029862905820540064_);}
	.st208{clip-path:url(#SVGID_00000011751363742651990590000016646979431899053971_);}
	.st209{clip-path:url(#SVGID_00000012448439999699425490000004909371563511188648_);}
	.st210{clip-path:url(#SVGID_00000094588309433723368160000002536726951790690182_);}
	.st211{clip-path:url(#SVGID_00000179628528838701442140000008236229407813654461_);}
	.st212{clip-path:url(#SVGID_00000112590200580616378070000000930792106898219397_);}
	.st213{clip-path:url(#SVGID_00000106119342973173024510000003431123703613950611_);}
	.st214{clip-path:url(#SVGID_00000090292184329698863960000009254020597652633787_);}
	.st215{clip-path:url(#SVGID_00000147930957068041087780000004300905858292356771_);}
	.st216{clip-path:url(#SVGID_00000061438290924412201170000017528305820861959831_);}
	.st217{clip-path:url(#SVGID_00000165215877812263708470000002999474902657966488_);}
	.st218{clip-path:url(#SVGID_00000119800087465832836210000015231315228252551839_);}
	.st219{clip-path:url(#SVGID_00000178193852370404904920000002149443983456533677_);}
	.st220{clip-path:url(#SVGID_00000114775206673331860100000009009001898545358753_);}
	.st221{clip-path:url(#SVGID_00000003805238910287558350000015555620977471094968_);}
	.st222{clip-path:url(#SVGID_00000135673094592939419330000008456094614349004456_);}
	.st223{clip-path:url(#SVGID_00000129205847015623379680000004734138744696651953_);}
	.st224{clip-path:url(#SVGID_00000144312400185663539040000009219585835235811209_);}
	.st225{clip-path:url(#SVGID_00000044148214394489053800000002514708061754273414_);}
	.st226{clip-path:url(#SVGID_00000006670029017341706630000011273201628101274789_);}
	.st227{clip-path:url(#SVGID_00000112619552227916310670000011098709052142690720_);}
	.st228{clip-path:url(#SVGID_00000164485608240017659230000018082898050649657737_);}
	.st229{clip-path:url(#SVGID_00000050653440499101430500000000378811532901976711_);}
	.st230{clip-path:url(#SVGID_00000085967959135449965940000016798416318842378175_);}
	.st231{clip-path:url(#SVGID_00000018953711058530319170000006084943882774079406_);}
	.st232{clip-path:url(#SVGID_00000030489315798485360120000000279647061291093420_);}
	.st233{clip-path:url(#SVGID_00000125580482135982926840000009801156892131902109_);}
	.st234{clip-path:url(#SVGID_00000054957156435871232840000011461624531178565257_);}
	.st235{clip-path:url(#SVGID_00000026844335668407593400000009095234825491600575_);}
	.st236{clip-path:url(#SVGID_00000075134160358133936970000016327766757345814670_);}
	.st237{clip-path:url(#SVGID_00000142866356287395931600000015962272996161451413_);}
	.st238{clip-path:url(#SVGID_00000169542582245700775480000008373187459895411123_);}
	.st239{clip-path:url(#SVGID_00000043432987495460636360000001571116634118581388_);}
	.st240{clip-path:url(#SVGID_00000165935997764769206010000003098095531473066629_);}
	.st241{clip-path:url(#SVGID_00000002345783250622062550000007059293207921730205_);}
	.st242{clip-path:url(#SVGID_00000049193477888406265170000009448150011921416078_);}
	.st243{clip-path:url(#SVGID_00000066479675496151005530000001554614953264749989_);}
	.st244{clip-path:url(#SVGID_00000165227063398046966610000003405147820269548731_);}
	.st245{clip-path:url(#SVGID_00000163755590287350658580000009898930702646380425_);}
	.st246{clip-path:url(#SVGID_00000127002777279507512260000014910007852073498779_);}
	.st247{clip-path:url(#SVGID_00000020397460025440246610000012268622480639079314_);}
	.st248{clip-path:url(#SVGID_00000019653189724808488710000005408382476912574081_);}
	.st249{clip-path:url(#SVGID_00000129198574940987355060000016142136514092682373_);}
	.st250{clip-path:url(#SVGID_00000101782059297578574910000016149932757695695798_);}
	.st251{clip-path:url(#SVGID_00000132079022117000213750000013793563599948578965_);}
	.st252{clip-path:url(#SVGID_00000102504787518716311270000016076879028889735336_);}
	.st253{fill:#E94966;}
	.st254{fill:#13224F;}
	.st255{fill:url(#);}
	.st256{clip-path:url(#SVGID_00000158725060944432419280000017477006075369982085_);}
	.st257{fill:#FFCE00;}
	.st258{fill-rule:evenodd;clip-rule:evenodd;fill:#FD657C;}
	.st259{clip-path:url(#SVGID_00000098919609990623699450000004022072942241439164_);}
	.st260{fill:#3580F8;}
	.st261{clip-path:url(#SVGID_00000141440563702333389440000013139095781492875655_);}
	.st262{fill:#FDF2F5;}
	.st263{clip-path:url(#SVGID_00000147200937505785904150000014697820923433987203_);}
	.st264{fill:#44C400;}
	.st265{clip-path:url(#SVGID_00000139253548735748328860000016210400587091420323_);}
	.st266{clip-path:url(#SVGID_00000057864977434413282160000006664600003572924065_);}
	.st267{clip-path:url(#SVGID_00000157275748162574988570000011844439510791332486_);}
	.st268{fill:#F1AAB9;}
	.st269{fill:#E34C6A;}
	.st270{clip-path:url(#SVGID_00000167392054576359067190000001733274242023913126_);}
	.st271{clip-path:url(#SVGID_00000085954574514566491420000005695014397587034285_);}
	.st272{clip-path:url(#SVGID_00000174581430333966992780000015038263553766262434_);}
	.st273{clip-path:url(#SVGID_00000035533194785807900610000016093535831568987023_);}
	.st274{clip-path:url(#SVGID_00000048479764091439176560000006136490195447150754_);}
	.st275{clip-path:url(#SVGID_00000044899706364305104620000002556334452856739740_);}
	.st276{clip-path:url(#SVGID_00000048464353443585190330000011543856953603137193_);}
	.st277{clip-path:url(#SVGID_00000067205091765386290430000010199296105257818526_);}
	.st278{fill:none;stroke:#272F60;stroke-dasharray:2;}
	.st279{fill:#007AFF;}
	.st280{clip-path:url(#SVGID_00000013905866679831050140000009714253442324516237_);}
	.st281{clip-path:url(#SVGID_00000073001429096089822100000014137508541676774063_);}
	.st282{clip-path:url(#SVGID_00000137102398855710414150000001847283205560569784_);}
	.st283{clip-path:url(#SVGID_00000173851489536112362480000017039862737910601382_);}
	.st284{clip-path:url(#SVGID_00000181776290757242746750000003756736383709079433_);}
	.st285{clip-path:url(#SVGID_00000127730984283303126790000011651866949289275023_);}
	.st286{clip-path:url(#SVGID_00000173126103378630686450000012573234239231321757_);}
	.st287{clip-path:url(#SVGID_00000020399377590541842580000014740383837630962306_);}
	.st288{clip-path:url(#SVGID_00000160168270589640015970000003967684364719599527_);}
	.st289{clip-path:url(#SVGID_00000031169327257644799860000017733465050464547994_);}
	.st290{clip-path:url(#SVGID_00000031203104757614299760000001409928847953458103_);}
	.st291{clip-path:url(#SVGID_00000009558013926467254460000004766450499384462228_);}
	.st292{fill:none;stroke:#44C400;stroke-width:3;}
	.st293{fill:url(#SVGID_00000152245155208107706600000004631859166777024428_);}
	.st294{fill:#FFFFFF;stroke:#FFFFFF;stroke-width:10;}
	.st295{fill:none;stroke:#272F60;stroke-width:3;stroke-linecap:round;stroke-linejoin:round;}
	.st296{clip-path:url(#SVGID_00000012456148056943862140000018423946459124492454_);}
	.st297{fill:none;stroke:#FFFFFF;stroke-width:5;}
	.st298{fill:url(#SVGID_00000170994941800394241430000017535925702191929534_);}
	.st299{clip-path:url(#SVGID_00000130627048811925059430000012410906583566190720_);}
	.st300{clip-path:url(#SVGID_00000057120528363694744040000012710001249612617100_);}
	.st301{clip-path:url(#SVGID_00000093145542416983469180000016617525246590440107_);}
	.st302{clip-path:url(#SVGID_00000161590580653590304350000009332872737902645673_);}
	.st303{clip-path:url(#SVGID_00000163074610957435230390000001828497285462671779_);}
	.st304{clip-path:url(#SVGID_00000101794473501566139040000015535226068343496627_);}
	.st305{clip-path:url(#SVGID_00000110471821046933284960000016402650245566982556_);}
	.st306{clip-path:url(#SVGID_00000104677484831688317590000002444650321923338635_);}
	.st307{clip-path:url(#SVGID_00000021820042740416106350000003758011323244738985_);}
	.st308{clip-path:url(#SVGID_00000155104876731923213370000001373672140364282046_);}
	.st309{clip-path:url(#SVGID_00000113313119070024636250000011678357993022782092_);}
	.st310{clip-path:url(#SVGID_00000024708342447363132220000014022006877578058410_);}
	.st311{clip-path:url(#SVGID_00000135676914374302418100000007001475580440420762_);}
	.st312{clip-path:url(#SVGID_00000117641920212499299360000007302653574258672037_);}
	.st313{clip-path:url(#SVGID_00000075841027045219953090000011323200407412038547_);}
	.st314{clip-path:url(#SVGID_00000155854687675227252610000012175806616026659725_);}
	.st315{clip-path:url(#SVGID_00000164500594065807447440000016512596349516598946_);}
	.st316{clip-path:url(#SVGID_00000091002954937008316200000004151904216301172898_);}
	.st317{clip-path:url(#SVGID_00000049212873401285218400000002004484176824507543_);}
	.st318{clip-path:url(#SVGID_00000082335636602218179060000011566247793769777541_);}
	.st319{clip-path:url(#SVGID_00000048488556617047436870000015723497494066323340_);}
	.st320{clip-path:url(#SVGID_00000179606424638526230430000005062022904061780404_);}
	.st321{clip-path:url(#SVGID_00000114051623806815290720000003352213955729989289_);}
	.st322{display:none;}
	.st323{display:inline;}
	.st324{display:inline;enable-background:new    ;}
	.st325{clip-path:url(#SVGID_00000142857670352588224010000017972298934061981327_);}
	.st326{clip-path:url(#SVGID_00000105407041599178093410000017014456711157694365_);}
	.st327{clip-path:url(#SVGID_00000099621662392685782010000017681261974588068256_);}
	.st328{clip-path:url(#SVGID_00000157293465421219076410000003871246314206766467_);}
	.st329{fill:none;stroke:#FFFFFF;stroke-miterlimit:10;}
	.st330{clip-path:url(#SVGID_00000013183660946676422780000016929782674587603105_);}
	.st331{clip-path:url(#SVGID_00000001660156056570076810000007251648130150448541_);}
	.st332{clip-path:url(#SVGID_00000053517967411599769110000014813186154942361989_);}
	.st333{clip-path:url(#SVGID_00000116212800861372863680000013234100550506052771_);}
	.st334{clip-path:url(#SVGID_00000025443479318181081890000016250544486996785849_);}
	.st335{clip-path:url(#SVGID_00000001664568634300332540000000982407952771033227_);}
	.st336{clip-path:url(#SVGID_00000155140950907921586500000000485819025888645273_);}
	.st337{clip-path:url(#SVGID_00000149370895309274486040000000675246705377983892_);}
	.st338{clip-path:url(#SVGID_00000075148368892518487790000013871340413651808937_);}
	.st339{clip-path:url(#SVGID_00000094603894517023295180000006058593542181720493_);}
	.st340{clip-path:url(#SVGID_00000023276573224953459480000012988750483836389764_);}
	.st341{clip-path:url(#SVGID_00000088130942330174019920000017444757847708031625_);}
	.st342{clip-path:url(#SVGID_00000098931344431815594900000000506493704444171430_);}
	.st343{clip-path:url(#SVGID_00000000939443387792671440000016396080588403453115_);}
	.st344{clip-path:url(#SVGID_00000056426571096916323570000002879764432448604607_);}
	.st345{clip-path:url(#SVGID_00000160187739482057722990000004007214200636954021_);}
	.st346{fill:none;stroke:#142664;stroke-width:4.0018654;stroke-linecap:round;stroke-linejoin:round;stroke-miterlimit:4.0018654;}
	.st347{clip-path:url(#SVGID_00000060010414746616645400000008395953499038164114_);}
	.st348{clip-path:url(#SVGID_00000030477484155274385680000014076457141611186865_);}
	.st349{clip-path:url(#SVGID_00000051376595694890202870000007016274392356506004_);}
	.st350{clip-path:url(#SVGID_00000069388580343179199900000005870330150629261241_);}
	.st351{clip-path:url(#SVGID_00000009564275779330893320000010447324595482370999_);}
	.st352{clip-path:url(#SVGID_00000111187644240520278920000006089028200798596543_);}
	.st353{clip-path:url(#SVGID_00000098220593175609991360000016526309527628065943_);}
	.st354{clip-path:url(#SVGID_00000047779045890246527540000015631616134203838595_);}
	.st355{clip-path:url(#SVGID_00000041261580304251614350000006600146905932320404_);}
	.st356{clip-path:url(#SVGID_00000075135993236113513950000010315269157526461119_);}
	.st357{clip-path:url(#SVGID_00000016775318397645786380000010771331754418061965_);}
	.st358{clip-path:url(#SVGID_00000119813914838688737590000009657489120923402911_);}
	.st359{clip-path:url(#SVGID_00000127017747942767149030000002782195498785562555_);}
	.st360{clip-path:url(#SVGID_00000160154009777848320910000016782228805418911624_);}
	.st361{clip-path:url(#SVGID_00000026154897870670801720000012259435086681207440_);}
	.st362{clip-path:url(#SVGID_00000156581368809082425420000013015386114467639228_);}
	.st363{clip-path:url(#SVGID_00000112591100550382719640000009433519118332016012_);fill:#FD657C;}
	.st364{clip-path:url(#SVGID_00000112591100550382719640000009433519118332016012_);fill:#272F60;}
	.st365{clip-path:url(#SVGID_00000017482208735291770610000006794866898119082682_);}
	.st366{clip-path:url(#SVGID_00000076572707181042889940000011078351621704864683_);}
</style>
<g id="FONDS">
</g>
<g id="ILLUSTRATIONS">
	<g id="Groupe_2557" transform="translate(0 -0.002)">
		<g id="Groupe_2554" transform="translate(0 0.002)">
			<g>
				<defs>
					<rect id="SVGID_00000178900063701572377920000002438928605837911737_" y="0.002313" width="254.223999" height="207.3999939"/>
				</defs>
				<clipPath id="SVGID_00000057848915328610509090000008994086295713393553_">
					<use xlink:href="#SVGID_00000178900063701572377920000002438928605837911737_"  style="overflow:visible;"/>
				</clipPath>
				<g id="Groupe_2553" style="clip-path:url(#SVGID_00000057848915328610509090000008994086295713393553_);">
					<path id="Rectangle_1310" class="st18" d="M112.5210037,10.2563124L112.5210037,10.2563124
						c22.6939316,0,41.0909958,18.397068,41.0909958,41.0909996v26.1409988
						c0,22.6955872-18.398407,41.0940018-41.0940018,41.0940018l0,0
						c-22.6940918-0.0005569-41.0909958-18.3979111-41.0909958-41.0920029V51.3503151
						C71.427002,28.654726,89.8254166,10.2563143,112.5210037,10.2563124z"/>
					<path id="Tracé_7472_00000042711153844949752990000014009059237039644309_" class="st18" d="M164.8690186,124.9052658
						c7.8721924,0.0115967,14.2501831,6.3918533,14.2589722,14.2640457v66.6920166H52.9279785
						c-3.7811584,0.0511475-6.8878479-2.9726562-6.9389954-6.7537842c-0.000824-0.0616455-0.000824-0.1234131,0-0.1851807
						v-59.7530518c0.0087891-7.8737793,6.3892517-14.2546463,14.2630005-14.2640457H164.8690186z"/>
					<path id="Tracé_7473_00000006678133864077863630000017131733627933088930_" class="st12" d="M104.1929932,190.4403076
						h-5.0880127c-0.8085327,0.0006104-1.4644775-0.6544189-1.4650269-1.4630127c0-0.0006104,0-0.0013428,0-0.0019531
						c0.0269165-0.7977295,0.6673584-1.4381104,1.4650269-1.4649658h6.5529785
						c0.8085327-0.0006104,1.4644775,0.6544189,1.4650269,1.4630127c0,0.0006104,0,0.0013428,0,0.0019531v16.8079834
						c0.0018311,0.809082-0.6525879,1.4664307-1.4616699,1.4682617c-0.8091431,0.0018311-1.4664917-0.6525879-1.4683228-1.4616699
						c0-0.0021973,0-0.0043945,0-0.0065918V190.4403076z M149.526001,144.3343506h-36.8529663
						c-0.8085327,0.0006104-1.4644775-0.6544189-1.4650269-1.4630127c0-0.0006104,0-0.0013428,0-0.0019531v-9.6369629
						c-0.0005493-0.8085938,0.65448-1.4644775,1.4630127-1.4649658c0.0006714,0,0.0013428,0,0.0020142,0h54.9700317
						c0.8085327-0.0006104,1.4644775,0.6544189,1.4650269,1.4630127c0,0.0006104,0,0.0013428,0,0.0019531v9.6369629
						c0.0005493,0.8085938-0.65448,1.4644775-1.4630127,1.4649658c-0.0006714,0-0.0013428,0-0.0020142,0H152.53302v16.8850098
						h26.5999756c0.809082,0,1.4650269,0.6558838,1.4650269,1.4650879c0,0.809082-0.6559448,1.4649658-1.4650269,1.4649658
						h-28.0700073c-0.8085327,0.0006104-1.4644775-0.6544189-1.4650269-1.4630127c0-0.0006104,0-0.0013428,0-0.0019531v-5.5510254
						h-11.8679199v5.5510254c-0.0037842,0.4071045-0.1705933,0.7957764-0.4630127,1.0789795l-11.7999878,11.8000488
						c2.6439819,3.90979,1.6178589,9.2225342-2.2918701,11.8665771c-3.90979,2.6439209-9.2225952,1.6177979-11.8665771-2.2918701
						c-0.6779175-1.0024414-1.1351318-2.1373291-1.3415527-3.3297119h-9.4829712
						c-0.809082,0-1.4650269-0.6558838-1.4650269-1.4650879c0-0.809082,0.6559448-1.4649658,1.4650269-1.4649658l0,0h10.7940063
						c0.8085327-0.0006104,1.4644775,0.6544189,1.4650269,1.4630127c0,0.0006104,0,0.0013428,0,0.0019531
						c-0.0055542,3.1082764,2.5096436,5.6324463,5.6179199,5.6380615c3.1082153,0.0056152,5.6325073-2.5096436,5.6380615-5.6179199
						c0-0.0067139,0-0.0134277,0-0.0201416c-0.0175781-1.4318848-0.5671997-2.8060303-1.5419922-3.8549805
						c-0.5397339-0.5891113-0.5397339-1.4929199,0-2.0820312l12.3359985-12.3360596v-6.4000244
						c-0.0005493-0.8085938,0.65448-1.4644775,1.4630127-1.4649658c0.0006714,0,0.0013428,0,0.0020142,0h13.2609863
						L149.526001,144.3343506z M102.1119995,146.1083984v-21.1259842c-0.0005493-0.8085938,0.65448-1.4644775,1.4630127-1.4649658
						c0.0006714,0,0.0013428,0,0.0020142,0c0.7976685,0.0268555,1.4381104,0.6672363,1.4650269,1.4649658v22.5899734
						c0.0005493,0.8085938-0.65448,1.4644775-1.4630127,1.4649658c-0.0006714,0-0.0013428,0-0.0020142,0H81.1409912v4.6999512
						c0.0018311,0.809082-0.6525879,1.4664307-1.4616699,1.4682617c-0.8091431,0.0018311-1.4664917-0.6525879-1.4683228-1.4616699
						c0-0.0021973,0-0.0043945,0-0.0065918v-6.1679688c-0.0005493-0.8085938,0.65448-1.4644775,1.4630127-1.4649658
						c0.0006714,0,0.0013428,0,0.0020142,0L102.1119995,146.1083984z M114.1389771,141.3273926h52.039978v-6.6300049h-52.039978
						V141.3273926z"/>
					<path id="Tracé_7474_00000111896011428534046390000012048997990158054786_" class="st19" d="M146.519043,2.8553131
						c-0.3044434-1.6708239-1.770752-2.8776298-3.4689941-2.855h-1.3110352
						c-1.6868896,0.0072113-3.1362305,1.1992427-3.4689941,2.8529999c-0.5400391,3.0840001-1.3879395,7.4789996-1.3879395,7.4789996
						h11.0250244c0,0-0.7709961-4.395-1.3879395-7.4790001"/>
					<path id="Tracé_7475_00000163779319025802784550000000746507604316546231_" class="st13" d="M132.1789551,2.8553131
						c-0.3048096-1.6706014-1.7709961-2.8772151-3.4689941-2.855h-1.3060303
						c-1.6868896,0.0072113-3.1362305,1.1992427-3.4689941,2.8529999c-0.5400391,3.0840001-1.3879395,7.4789996-1.3879395,7.4789996
						h11.0250244c0,0-0.8480225-4.395-1.3879395-7.4790001"/>
					<path id="Tracé_7476_00000101806586421554109030000015984973855023551418_" class="st13" d="M146.2869873,190.2093506
						c0.369873-0.5537109,0.3995361-1.2674561,0.0770264-1.8499756c-0.3132324-0.5975342-0.9451904-0.9584961-1.6190186-0.9250488
						h-3.2380371c-1.2514648,0.0004883-2.4154053,0.6420898-3.0839844,1.6999512
						c-2.9300537,4.5489502-10.717041,16.730957-10.717041,16.730957h8.5579834
						c0.0770264-0.0770264,6.7070312-10.4859619,10.0229492-15.651001"/>
					<path id="Tracé_7477_00000127765496632191297100000006489232143786712239_" class="st13" d="M159.0080566,190.2093506
						c0.3701172-0.5535889,0.3997803-1.2675781,0.0770264-1.8499756c-0.3377686-0.5732422-0.9536133-0.9251709-1.6190186-0.9250488
						h-3.2380371c-1.2514648,0.0004883-2.4154053,0.6420898-3.0839844,1.6999512
						c-2.9300537,4.5489502-10.7159424,16.730957-10.7159424,16.730957h8.5579834
						c0.0770264-0.0770264,6.7070312-10.4859619,10.0229492-15.651001"/>
					<path id="Tracé_7478_00000114068604897022146190000017121031617902702486_" class="st13" d="M171.7290039,190.2093506
						c0.369873-0.5537109,0.3995361-1.2674561,0.0770264-1.8499756c-0.3377686-0.5732422-0.9536133-0.9251709-1.6190186-0.9250488
						h-3.2380371c-1.2513428,0.0007324-2.4152832,0.6422119-3.0839844,1.6999512
						c-2.9300537,4.5489502-10.7159424,16.730957-10.7159424,16.730957h8.5579834
						c0.0770264-0.0770264,6.7080078-10.4859619,10.0229492-15.651001"/>
					<path id="Tracé_7479_00000123440618406387400520000007662945143470585992_" class="st13" d="M189.7709961,123.2083664
						c0.0050659-1.2473145-0.4957275-2.4433594-1.3880005-3.3149414c-0.883606-0.8745117-2.0719604-1.3720703-3.3150024-1.3879395
						H71.3499756c-1.2473145-0.005127-2.4434204,0.4957275-3.3150024,1.3879395
						c-0.8744507,0.8835449-1.3720703,2.0718994-1.3880005,3.3149414v1.6999512h123.0469971v-1.6999512H189.7709961z"/>
					<path id="Tracé_7480_00000126293815824401614010000009671898775055004821_" class="st13" d="M233.5618896,152.8153076
						c-4.3349609-0.0197144-7.8442383-3.5290527-7.8640137-7.8640137v-36.1599808
						c0.0131836-6.6693726-5.3825684-12.086731-12.052002-12.0999756c-0.0161133-0.000061-0.0319824-0.000061-0.0480957,0
						h-16.8098145c-1.6181641-0.0036621-2.927002-1.3184204-2.9233398-2.9365845
						c0.0036621-1.6130371,1.3103027-2.9197388,2.9233398-2.9234009h16.8068848
						c9.9589844,0.0126343,18.0288086,8.0830688,18.0410156,18.0419922v36.1599808
						c-0.010498,1.0542603,0.8356934,1.9174194,1.8898926,1.9279785c0.0124512,0.0001221,0.0246582,0.0001221,0.0371094,0
						c11.4118652,0.0083008,20.65625,9.2662354,20.6479492,20.6780396
						c-0.0083008,11.4001465-9.2478027,20.6396484-20.6479492,20.6479492h-22.9748535
						c-1.6181641,0.0036621-2.9328613-1.3051758-2.9365234-2.9233398c-0.0036621-1.6182861,1.3051758-2.9329834,2.9233398-2.9366455
						c0.0043945,0,0.0087891,0,0.0131836,0h22.9750977c8.1755371,0,14.8029785-6.6275635,14.8029785-14.8029785
						c0-8.1755371-6.6274414-14.8030396-14.8029785-14.8030396"/>
					<path id="Tracé_7481" class="st19" d="M233.2529297,162.0673218c-1.2346191,0.0004883-2.2355957,1.0012207-2.236084,2.2359619
						c0.0070801,6.8482666-5.5385742,12.4057617-12.3869629,12.4129639c-0.0087891,0-0.017334,0-0.026123,0h-7.94104
						c-1.6181641,0.0036621-2.9329834-1.3051758-2.9366455-2.9233398c-0.0036621-1.6182861,1.3051758-2.9329834,2.9234619-2.9366455
						c0.0043945,0,0.0087891,0,0.0131836,0h7.94104c3.6164551,0.0028076,6.550293-2.9266357,6.5529785-6.5429688
						c0-0.003418,0-0.0067139,0-0.0100098c0.0021973-4.5125732,3.659668-8.1702881,8.1721191-8.1729736
						c7.5368652-0.0655518,13.5932617-6.2283936,13.527832-13.7651367
						c-0.0646973-7.4442139-6.0834961-13.4631348-13.527832-13.527832h-11.1000977
						c-7.4069824-0.0054932-13.4100342-6.0090408-13.4150391-13.4160233v-0.230957
						c-0.1271973-2.7607422-2.4023438-4.9337158-5.1660156-4.93396h-7.4780273
						c-1.6181641-0.0036621-2.927002-1.3183594-2.9233398-2.9366455c0.0036621-1.6130371,1.3103027-2.9196777,2.9233398-2.9233398
						h7.4780273c6.1292725,0.0026855,11.0974121,4.9707031,11.1000977,11.0999756v0.230957
						c0.1330566,4.0784912,3.4743652,7.3178711,7.5549316,7.3249512h11.1000977
						c10.7734375-0.0245361,19.5268555,8.6892166,19.5512695,19.462532
						c0.0246582,10.7734375-8.689209,19.5268555-19.4626465,19.5513916
						c-0.0808105,0.0001221-0.1618652-0.0001221-0.2426758-0.0009766"/>
					<path id="Tracé_7482" class="st12" d="M164.8679199,123.4403c-0.809082,0-1.4650879,0.6558838-1.4650879,1.4649658
						c0,0.8092041,0.6560059,1.4650879,1.4650879,1.4650879l0,0c7.022583,0.0072021,12.7137451,5.6983719,12.7209473,12.7209549
						v66.6920166c-0.0004883,0.8085938,0.654541,1.4644775,1.4630127,1.4649658c0.0006104,0,0.0013428,0,0.0019531,0h24.5939941
						c4.6337891-0.0131836,8.3868408-3.7662354,8.4000244-8.4000244v-59.7530518
						c0.0155029-8.6708984-7.0010986-15.712532-15.671875-15.728035c-0.0187988,0-0.0374756,0-0.0561523,0L164.8679199,123.4403z"/>
					<path id="Tracé_7483" class="st12" d="M164.867981,123.4403H60.1679688
						c-8.6708679-0.0155029-15.7125244,7.0011063-15.7279968,15.6720047c-0.0000305,0.0189209-0.0000305,0.0379639,0,0.0570068
						v59.7530518c0.0126343,4.6339111,3.7660522,8.3873291,8.3999939,8.4000244h126.2140503
						c0.8085327,0.0006104,1.4644775-0.6544189,1.4650269-1.4630127c0-0.0006104,0-0.0013428,0-0.0019531v-66.6920166
						c0.0546875-8.6320801-6.8986206-15.6740799-15.5306396-15.7287674
						c-0.0401611-0.0002441-0.0802612-0.0002441-0.1203613-0.0002441 M177.5890503,204.3144531H52.9240112
						c-1.4482727-0.0100098-2.8339233-0.5919189-3.855011-1.6190186c-1.0570068-1.0006104-1.6445618-2.3996582-1.618988-3.8549805
						v-59.7451172c0.0065918-7.0230713,5.6979675-12.7148514,12.7210083-12.7220535h104.7000122
						c7.0230713,0.0072021,12.7144165,5.6989822,12.7210083,12.7220535L177.5890503,204.3144531z"/>
					<path id="Tracé_7484" class="st19" d="M147.9069824,19.816309c0.0165405-0.8792725-0.3480835-1.7227325-1-2.3130035
						c-0.6109619-0.6223755-1.44104-0.9812469-2.3129883-1h-64.223999c-0.8792725-0.0166931-1.7227783,0.3479919-2.3129883,1
						c-0.6222534,0.6110382-0.9811401,1.4410706-1,2.3130035v89.2050171c-0.0166626,0.879303,0.3479614,1.7227783,1,2.3129883
						c0.6110229,0.6222839,1.44104,0.9811401,2.3129883,1H144.59198c0.8792725,0.0166931,1.7227783-0.3479919,2.3129883-1
						c0.6222534-0.6110535,0.9811401-1.4410706,1-2.3129883L147.9069824,19.816309z"/>
					<path id="Tracé_7485" class="st12" d="M148.7550049,117.0413132c1.8175049,0.0132751,3.3016357-1.4493561,3.3149414-3.2668762
						c0.0001221-0.0160522,0.0001221-0.0320892,0-0.0481262V15.1143122
						c0.0133057-1.8175201-1.4493408-3.3016968-3.2668457-3.3150024c-0.0159912-0.0001144-0.0321045-0.0001144-0.0480957,0
						c-0.809082,0-1.4649658-0.6559067-1.4649658-1.4649963c0-0.8090973,0.6558838-1.465004,1.4649658-1.465004h18.2719727
						c3.8729248-0.0033569,7.2470703,2.639183,8.1719971,6.4000015c3.0839844,12.5670023,10.717041,44.0240021,13.18396,54.1999969
						c0.401001,1.6197357,1.503418,2.9762573,3.006958,3.6999969c0.8480225,0.3860016,1.6999512,0.7709961,2.6209717,1.2339935
						c3.1375732,1.436615,5.067749,4.6556396,4.8570557,8.1000061c-0.3850098,7.3249969-1.1560059,21.3569946-1.6999512,29.6069946
						c-0.2375488,4.4620056-3.9317627,7.9542542-8.4000244,7.9409943h-40.0899658
						c-0.8085938,0.0005341-1.4644775-0.6544952-1.4649658-1.463028c0-0.0006561,0-0.0013123,0-0.0019684
						c0.0556641-0.8274536,0.7144775-1.4863129,1.5419922-1.5420074"/>
					<path id="Tracé_7486" class="st12" d="M148.7550049,8.796319H76.2839966
						c-3.4849243,0.0158615-6.3061523,2.8370438-6.3220215,6.3219986v98.6110001
						c0.0158691,3.4849548,2.8370361,6.3061371,6.3220215,6.3220062h72.4710083
						c3.4849854-0.0158691,6.3061523-2.8370514,6.3220215-6.3220062V15.1133127
						C155.0584106,11.630311,152.2380371,8.8121653,148.7550049,8.796319 M152.1470337,113.7303238
						c0.0133057,1.8175201-1.4492798,3.3016968-3.2668457,3.3150024c-0.0160522,0.0001221-0.0321045,0.0001221-0.0481567,0
						H76.3610229c-1.8175049,0.0133057-3.3016968-1.449295-3.3150024-3.2668152
						c-0.0001221-0.0160675-0.0001221-0.0321198,0-0.0481873v-98.617012
						c-0.0133057-1.8175201,1.4492798-3.3016968,3.2668457-3.3150024c0.0160522-0.0001144,0.0321045-0.0001144,0.0481567,0
						h72.473999c1.8175049-0.0133057,3.3016968,1.4493027,3.3150024,3.2668228c0.0001221,0.0160599,0.0001221,0.0321198,0,0.0481796
						L152.1470337,113.7303238z"/>
					<path id="Tracé_7487" class="st12" d="M61.7900085,129.9932861c5.1947632,0,9.4060059,4.2111816,9.4060059,9.4060059
						s-4.2112427,9.4060059-9.4060059,9.4060059c-5.1948242,0-9.4060059-4.2111816-9.4060059-9.4060059
						S56.5951843,129.9932861,61.7900085,129.9932861L61.7900085,129.9932861"/>
					<path id="Tracé_7488" class="st12" d="M81.0089722,132.3623047c2.043457,0,3.7000122,1.6566162,3.7000122,3.7000732
						c-0.000061,2.043335-1.6565552,3.6999512-3.7000122,3.6999512s-3.7000122-1.6566162-3.7000122-3.7000732l0,0
						C77.30896,134.0187988,78.9655151,132.3623047,81.0089722,132.3623047"/>
					<path id="Tracé_7489" class="st12" d="M118.3789062,177.2563477c1.6181641,0,2.9299316,1.3118896,2.9299316,2.9300537
						s-1.3118896,2.9299316-2.9300537,2.9299316s-2.9299316-1.3117676-2.9299316-2.9299316s1.3117676-2.9300537,2.9299316-2.9300537
						H118.3789062"/>
					<path id="Tracé_7490" class="st12" d="M164.637085,137.3182373c0.0061035-0.7178955-0.5709229-1.3049316-1.2888184-1.3110352
						c-0.0074463-0.0001221-0.0147705-0.0001221-0.0222168,0h-1.8499756
						c-0.7178955-0.0061035-1.3049316,0.5709229-1.3110352,1.2888184c-0.0001221,0.0074463-0.0001221,0.0147705,0,0.0222168
						v1.4649658c0.020874,0.71521,0.5958252,1.2901611,1.3110352,1.3110352h1.8499756
						c0.7178955,0.0061035,1.3049316-0.5709229,1.3110352-1.2888184c0.0001221-0.0074463,0.0001221-0.0147705,0-0.0222168
						V137.3182373z"/>
					<path id="Tracé_7491" class="st13" d="M92.3969727,132.3062744c2.043457,0,3.7000122,1.6566162,3.7000122,3.7000732
						c-0.000061,2.043335-1.6565552,3.6999512-3.7000122,3.6999512s-3.7000122-1.6566162-3.7000122-3.7000732l0,0
						C88.6969604,133.9627686,90.3535156,132.3062744,92.3969727,132.3062744"/>
					<path id="Tracé_7492" class="st19" d="M164.7910156,54.2043076h18.7340088
						c0.809082,0.0018311,1.463501,0.6592102,1.4616699,1.4683075c-0.0018311,0.8065033-0.6551514,1.4598694-1.4616699,1.4616852
						h-20.1999512c-0.8085938,0.0005341-1.4644775-0.6544952-1.4649658-1.463028c0-0.0006561,0-0.0013123,0-0.0019684V10.3343134
						c-0.0006104-0.808548,0.6544189-1.464447,1.4630127-1.4649963c0.0006104,0,0.0013428,0,0.0019531,0
						c0.7977295,0.0269241,1.4381104,0.6673203,1.4649658,1.4649963L164.7910156,54.2043076z"/>
					<path id="Tracé_7493" class="st19" d="M178.822998,99.7693405v18.8129883c0,0.809082-0.6558838,1.4650879-1.4650879,1.4650879
						c-0.809082,0-1.4649658-0.6560059-1.4649658-1.4650879V98.3823166
						c-0.0006104-0.8085327,0.6544189-1.4644775,1.4630127-1.4650269c0.0006104,0,0.0013428,0,0.0019531,0h19.1999512
						c0.809082,0.0018311,1.463501,0.6591797,1.4616699,1.4683228c-0.0018311,0.8065186-0.6551514,1.4598389-1.4616699,1.4616699
						h-17.7320557L178.822998,99.7693405z"/>
					<path id="Tracé_7494" class="st13" d="M183.6030273,102.6223068c0.894165,0,1.6190186,0.7248535,1.6190186,1.6190186
						s-0.7248535,1.6190186-1.6190186,1.6190186s-1.6190186-0.7248535-1.6190186-1.6190186
						S182.7088623,102.6223068,183.6030273,102.6223068L183.6030273,102.6223068"/>
					<path id="Tracé_7495" class="st13" d="M188.7679443,102.6223068c0.894165,0,1.6190186,0.7248535,1.6190186,1.6190186
						s-0.7248535,1.6190186-1.6190186,1.6190186s-1.6190186-0.7248535-1.6190186-1.6190186
						S187.8737793,102.6223068,188.7679443,102.6223068L188.7679443,102.6223068"/>
					<path id="Tracé_7496" class="st18" d="M60.9419556,133.0002441c2.4697876,0,4.4719849,2.0021973,4.4719849,4.4720459
						c0.000061,2.4697266-2.0021362,4.4719238-4.4719849,4.4719238c-2.4697876,0-4.4719849-2.0020752-4.4719849-4.4719238
						s2.0021362-4.4720459,4.4719238-4.4720459C60.9419556,133.0002441,60.9419556,133.0002441,60.9419556,133.0002441"/>
					<path id="Tracé_7497" class="st12" d="M82.5289917,153.7403564h7.6329956
						c2.3535156-0.0222168,4.6123047,0.9257812,6.2449951,2.6209717c1.6700439,1.6499023,2.6133423,3.8974609,2.6209717,6.2449951
						v26.7540283c0.0221558,2.3535156-0.9258423,4.6121826-2.6209717,6.2449951
						c-1.6498413,1.6700439-3.8974609,2.6132812-6.2449951,2.6209717h-7.6329956
						c2.3534546,0.0219727,4.6121826-0.9259033,6.2449951-2.6209717c1.6699219-1.6499023,2.6132202-3.8974609,2.6209717-6.2449951
						v-26.7540283c0.0221558-2.3535156-0.9258423-4.6121826-2.6209717-6.2449951
						C87.1241455,154.6912842,84.8765259,153.7480469,82.5289917,153.7403564"/>
					<path id="Tracé_7498" class="st13" d="M91.3950195,162.6072998c0.0221558-2.3535156-0.9258423-4.6121826-2.6209717-6.2449951
						c-1.6498413-1.6700439-3.8974609-2.6132812-6.2449951-2.6209717H62.8690796
						c-2.3535156-0.0222168-4.6123047,0.9257812-6.2449951,2.6209717c-1.6700439,1.6499023-2.6133423,3.8974609-2.6209717,6.2449951
						v26.7540283c-0.0221558,2.3535156,0.9258423,4.6121826,2.6209717,6.2449951
						c1.6498413,1.6700439,3.8974609,2.6132812,6.2449951,2.6209717h19.6599731
						c2.3534546,0.0219727,4.6121826-0.9259033,6.2449951-2.6209717c1.6699219-1.6499023,2.6132202-3.8974609,2.6209717-6.2449951
						V162.6072998z"/>
					<path id="Tracé_7499" class="st13" d="M100.1060181,178.6433105l-7.4000244-7.4000244
						c-0.5749512-0.5749512-1.5070801-0.5749512-2.0819702,0c-0.5749512,0.5749512-0.5749512,1.5070801,0,2.0820312
						l7.4000244,7.4000244c0.5888672,0.5401611,1.493103,0.5401611,2.0819702,0
						c0.5749512-0.5169678,0.6218872-1.4022217,0.1049194-1.9771729
						C100.1778564,178.7114258,100.1428223,178.6763916,100.1060181,178.6433105"/>
					<path id="Tracé_7500" class="st13" d="M100.1060181,187.97229l-7.4000244-7.4000244
						c-0.5749512-0.5749512-1.5070801-0.5749512-2.0819702,0c-0.5749512,0.5749512-0.5749512,1.5070801,0,2.0820312
						l7.4000244,7.4000244c0.5888672,0.5401611,1.493103,0.5401611,2.0819702,0
						c0.5749512-0.5169678,0.6218872-1.4022217,0.1049194-1.9771729
						C100.1778564,188.0404053,100.1428223,188.0053711,100.1060181,187.97229"/>
					<path id="Tracé_7501" class="st12" d="M112.9830322,176.3303223L112.9830322,176.3303223
						c0.2969971-0.6390381,0.0197754-1.3979492-0.6192627-1.6949463s-1.3979492-0.0197754-1.6949463,0.6192627
						c-0.2961426,0.637085-0.0216064,1.3937988,0.6142578,1.692627
						C111.9233398,177.2340088,112.6756592,176.9609375,112.9830322,176.3303223 M115.9130859,173.5543213L115.9130859,173.5543213
						c0.6622314-0.2773438,0.9743652-1.0389404,0.6970215-1.7011719c-0.2773438-0.6623535-1.0389404-0.9743652-1.7012939-0.6970215
						c-0.6622314,0.2772217-0.9742432,1.0389404-0.6968994,1.7011719c0.0003662,0.0009766,0.0008545,0.0020752,0.0012207,0.0030518
						C114.5308838,173.4794922,115.2528076,173.7741699,115.9130859,173.5543213 M119.9991455,173.4002686L119.9991455,173.4002686
						c0.6600342,0.2341309,1.3848877-0.1109619,1.6190186-0.7709961s-0.1109619-1.3848877-0.7709961-1.6190186
						s-1.3848877,0.1109619-1.6190186,0.7709961C119.026001,172.439209,119.3608398,173.1425781,119.9991455,173.4002686"/>
					<path id="Tracé_7502" class="st19" d="M188.3830566,149.9622803c0.1108398,0.1030273,0.2419434,0.1817627,0.3850098,0.230957
						c0.1540527,0.0770264,0.230957,0.1540527,0.3850098,0.1540527c0.0847168,0.010498,0.1695557-0.0178223,0.230957-0.0770264
						c0.2148438-0.0830078,0.4215088-0.1861572,0.6169434-0.3079834c0.5961914,0,1.0794678-0.4832764,1.0794678-1.0795898
						c0-0.5961914-0.4832764-1.0794678-1.0794678-1.0794678c-0.1954346-0.1219482-0.4020996-0.2249756-0.6169434-0.3079834
						c-0.0770264,0-0.1540527-0.0770264-0.230957-0.0770264c-0.1428223,0.0028076-0.2796631,0.0576172-0.3850098,0.1540527
						c-0.1379395,0.0595703-0.2674561,0.1373291-0.3850098,0.230957c-0.5819092-0.0145264-1.0654297,0.4454346-1.0799561,1.0274658
						c-0.0003662,0.0170898-0.0003662,0.0343018,0,0.0515137c0.0112305,0.5915527,0.4884033,1.0683594,1.0799561,1.0789795"/>
					<path id="Tracé_7503" class="st19" d="M194.0878906,149.9622803c0.1108398,0.1030273,0.2419434,0.1816406,0.3850098,0.230957
						c0.1540527,0.0770264,0.230957,0.1540527,0.3850098,0.1540527c0.0847168,0.010498,0.1695557-0.0178223,0.230957-0.0770264
						c0.2148438-0.0831299,0.4213867-0.1861572,0.6169434-0.3079834c0.5961914,0,1.0794678-0.4832764,1.0794678-1.0795898
						c0-0.5961914-0.4832764-1.0794678-1.0794678-1.0794678c-0.1955566-0.1218262-0.4020996-0.2249756-0.6169434-0.3079834
						c-0.0770264,0-0.1540527-0.0770264-0.230957-0.0770264c-0.1428223,0.0029297-0.279541,0.0577393-0.3850098,0.1540527
						c-0.1379395,0.0598145-0.267334,0.1374512-0.3850098,0.230957c-0.5961914,0-1.0794678,0.4832764-1.0794678,1.0794678
						C193.0084229,149.4790039,193.4916992,149.9622803,194.0878906,149.9622803"/>
					<path id="Tracé_7504" class="st19" d="M199.7160645,149.9622803c0.1108398,0.1029053,0.2419434,0.1816406,0.3850098,0.230957
						c0.1540527,0.0770264,0.230957,0.1540527,0.3859863,0.1540527c0.0849609,0.0106201,0.170166-0.0177002,0.2319336-0.0770264
						c0.2148438-0.083252,0.4213867-0.1864014,0.6169434-0.3079834c0.5961914,0,1.0795898-0.4832764,1.0795898-1.0795898
						c0-0.5961914-0.4833984-1.0794678-1.0795898-1.0794678c-0.1955566-0.1217041-0.4020996-0.2248535-0.6169434-0.3079834
						c-0.0769043,0-0.1550293-0.0770264-0.2319336-0.0770264c-0.1430664,0.0028076-0.2802734,0.0576172-0.3859863,0.1540527
						c-0.1379395,0.0598145-0.267334,0.1374512-0.3850098,0.230957c-0.5820312-0.0140381-1.0651855,0.4462891-1.0791016,1.0283203
						c-0.0004883,0.0168457-0.0004883,0.0338135,0,0.0506592c0.0112305,0.5913086,0.487793,1.0678711,1.0791016,1.0789795"/>
					<path id="Tracé_7505" class="st19" d="M191.2349854,146.4923096c0.1109619,0.1029053,0.2420654,0.1815186,0.3850098,0.230957
						c0.1540527,0.0770264,0.230957,0.1540527,0.3850098,0.1540527c0.0847168,0.010498,0.1695557-0.0178223,0.230957-0.0770264
						c0.2148438-0.0831299,0.4213867-0.1862793,0.6169434-0.3079834c0.5961914,0,1.0794678-0.4832764,1.0794678-1.0794678
						c0-0.5963135-0.4832764-1.0795898-1.0794678-1.0795898c-0.1955566-0.1218262-0.4020996-0.2248535-0.6169434-0.3079834
						c-0.0770264,0-0.1540527-0.0770264-0.230957-0.0770264c-0.1428223,0.0029297-0.279541,0.0577393-0.3850098,0.1540527
						c-0.1379395,0.0598145-0.267334,0.1374512-0.3850098,0.230957c-0.5961914,0-1.0794678,0.4832764-1.0794678,1.0795898
						C190.1555176,146.0090332,190.6387939,146.4923096,191.2349854,146.4923096"/>
					<path id="Tracé_7506" class="st19" d="M196.8630371,146.4923096c0.1108398,0.1029053,0.2419434,0.1816406,0.3850098,0.230957
						c0.1540527,0.0770264,0.230957,0.1540527,0.3850098,0.1540527c0.0847168,0.010498,0.1694336-0.0178223,0.230957-0.0770264
						c0.2148438-0.0831299,0.4213867-0.1862793,0.6169434-0.3079834c0.5961914,0,1.0795898-0.4832764,1.0795898-1.0794678
						c0-0.5963135-0.4833984-1.0795898-1.0795898-1.0795898l0,0c-0.1955566-0.1218262-0.4020996-0.2248535-0.6169434-0.3079834
						c-0.0769043,0-0.1540527-0.0770264-0.230957-0.0770264c-0.1428223,0.0026855-0.2797852,0.0574951-0.3850098,0.1540527
						c-0.1379395,0.0598145-0.267334,0.1374512-0.3850098,0.230957c-0.5961914,0-1.0795898,0.4832764-1.0795898,1.0795898
						C195.7834473,146.0090332,196.2668457,146.4923096,196.8630371,146.4923096"/>
					<path id="Tracé_7507" class="st19" d="M191.2349854,153.4313965c0.1108398,0.1032715,0.2419434,0.182251,0.3850098,0.2320557
						c0.1540527,0.0770264,0.230957,0.1540527,0.3850098,0.1540527c0.0847168,0.010498,0.1695557-0.0178223,0.230957-0.0770264
						c0.2148438-0.0834961,0.4213867-0.1868896,0.6169434-0.30896c0.5961914,0,1.0794678-0.4832764,1.0794678-1.0795898
						c0-0.5961914-0.4832764-1.0794678-1.0794678-1.0794678c-0.1955566-0.121582-0.4020996-0.2247314-0.6169434-0.3079834
						c-0.0770264,0-0.1540527-0.0770264-0.230957-0.0770264c-0.1428223,0.0029297-0.279541,0.0577393-0.3850098,0.1540527
						c-0.1379395,0.0598145-0.267334,0.1374512-0.3850098,0.230957c-0.5819092-0.013916-1.0650635,0.4465332-1.0789795,1.0284424
						c-0.0003662,0.0168457-0.0003662,0.0336914,0,0.0505371c0.0112305,0.5911865,0.487793,1.067749,1.0789795,1.0789795"/>
					<path id="Tracé_7508" class="st19" d="M196.8630371,153.4313965c0.1108398,0.1033936,0.2419434,0.182373,0.3850098,0.2320557
						c0.1540527,0.0770264,0.230957,0.1540527,0.3850098,0.1540527c0.0847168,0.010498,0.1694336-0.0178223,0.230957-0.0770264
						c0.2148438-0.0834961,0.4213867-0.1868896,0.6169434-0.30896c0.5961914,0,1.0795898-0.4832764,1.0795898-1.0795898
						c0-0.5961914-0.4833984-1.0794678-1.0795898-1.0794678l0,0c-0.1955566-0.121582-0.4020996-0.2247314-0.6169434-0.3079834
						c-0.0769043,0-0.1540527-0.0770264-0.230957-0.0770264c-0.1428223,0.0028076-0.2797852,0.0576172-0.3850098,0.1540527
						c-0.1379395,0.0598145-0.267334,0.1374512-0.3850098,0.230957c-0.5820312-0.0145264-1.0654297,0.4453125-1.0800781,1.0273438
						c-0.0004883,0.0172119-0.0004883,0.0344238,0,0.0516357c0.0112305,0.5916748,0.4885254,1.0683594,1.0800781,1.0789795"/>
					<path id="Tracé_7509" class="st19" d="M193.3939209,158.9832764h-3.9320068
						c-0.4425049-0.0164795-0.859375-0.2113037-1.1560059-0.5400391l-7.0930176-8.6350098
						c-0.4624023-0.5300293-0.4624023-1.3199463,0-1.8499756l7.0930176-9.0999756
						c0.2747803-0.3570557,0.7058105-0.5584717,1.1560059-0.5400391h11.2559814
						c0.4462891,0,0.8696289,0.1977539,1.1560059,0.5400391l7.0930176,9.0999756
						c0.3852539,0.5565186,0.3852539,1.293457,0,1.8499756l-7.0930176,8.6350098
						c-0.2966309,0.3287354-0.713501,0.5235596-1.1560059,0.5400391h-4.394043v9.0999756
						c-0.0037842,0.4071045-0.1705322,0.7957764-0.4630127,1.0789795l-4.5489502,4.5489502l9.1739502,9.1750488
						c0.3049316,0.2744141,0.4742432,0.6688232,0.4630127,1.0789795v21.973999c0,0.809082-0.6558838,1.4650879-1.4650879,1.4649658
						c-0.809082,0-1.4649658-0.6558838-1.4649658-1.4649658v-21.3570557l-20.0450439-20.0460205
						c-0.5749512-0.5749512-0.5749512-1.5070801,0-2.0820312s1.5070801-0.5749512,2.0820312,0l0,0l9.1750488,9.1750488
						l4.0860596-4.0860596v-8.5579834L193.3939209,158.9832764z M190.2329102,156.0532227h9.868042l5.8599854-7.1700439
						l-5.9370117-7.6330566h-9.7910156l-5.9360352,7.6330566L190.2329102,156.0532227z"/>
					<path id="Tracé_7510" class="st12" d="M1.2130001,206.873291h241.4799957
						c0.6575165,0.0180664,1.2051849-0.5002441,1.2232208-1.157959c0.0180511-0.6574707-0.500351-1.2050781-1.1578827-1.2231445
						c-0.0217743-0.0004883-0.0435638-0.0004883-0.0653381,0H1.2130001C0.5506355,204.4899902,0.0097689,205.0209961,0,205.6833496
						C0.0301805,206.3364258,0.5593769,206.8557129,1.2130001,206.873291"/>
					<path id="Tracé_7511" class="st18" d="M61.7689819,127.2463303c6.5009155,0,11.7709961,5.2700272,11.7709961,11.7710037
						s-5.2700195,11.7709961-11.7709961,11.7709961c-6.5009155,0-11.7709961-5.2700195-11.7709961-11.7709961l0,0
						C49.9979858,132.5163574,55.2680664,127.2463303,61.7689819,127.2463303"/>
					<path id="Rectangle_1311" class="st18" d="M104.2290039,96.295311L104.2290039,96.295311
						c2.4836273,0,4.4970016,2.0133743,4.4970016,4.4970016l0,0c0,2.4836273-2.0133743,4.4970016-4.4970016,4.4970016l0,0
						c-2.4836273,0-4.4970016-2.0133743-4.4970016-4.4970016l0,0
						C99.7320023,98.3086853,101.7453766,96.295311,104.2290039,96.295311z"/>
					<path id="Tracé_7512" class="st12" d="M106.3460693,100.5283737c0.0067139-0.5013428-0.1993408-0.9820557-0.5670166-1.322998
						c-0.3510742-0.3530273-0.8253174-0.5561523-1.322998-0.5670166h-0.4539795
						c-0.5013428-0.0067139-0.9820557,0.1993408-1.322998,0.5670166c-0.3530273,0.3510742-0.5562744,0.8251953-0.5670166,1.322998
						v0.4530029c-0.0065918,0.5013428,0.1994629,0.9820557,0.5670166,1.322998
						c0.3510742,0.3530273,0.8251953,0.5562744,1.322998,0.5670166h0.4539795
						c0.5013428,0.0065918,0.9820557-0.1994629,1.322998-0.5670166c0.3530273-0.3510742,0.5562744-0.8251953,0.5670166-1.322998
						V100.5283737z"/>
					<path id="Tracé_7513" class="st12" d="M110.710022,19.5783176c2.9949951-0.0000153,5.4229736,2.4279327,5.4229736,5.4229736
						c0.0001221,2.9950409-2.4278564,5.4230042-5.4229736,5.4230194c-2.9949951,0.0000153-5.4229736-2.4279327-5.4229736-5.4229736
						v-0.0000153C105.2870483,22.0062962,107.7150269,19.5783329,110.710022,19.5783176"/>
					<path id="Tracé_7514" class="st19" d="M110.7109375,22.9553165c1.1300049,0.0005493,2.0455322,0.9170227,2.0450439,2.0469971
						c-0.0006104,1.1299744-0.9171143,2.0455475-2.0469971,2.0449982c-1.1292725-0.0005493-2.0444336-0.915802-2.0450439-2.0449982
						c-0.0006104-1.1299744,0.9150391-2.0464478,2.0450439-2.0469971
						C110.7095947,22.9553165,110.7103271,22.9553165,110.7109375,22.9553165"/>
					<path id="Tracé_7515" class="st13" d="M86.2409973,160.6052246c-0.0005188-3.9438477-3.1861572-7.1469727-7.1300049-7.1689453
						H36.7590027c-3.9438477,0.0219727-7.1294861,3.2250977-7.1300049,7.1689453v30.9000244
						c0.0010681,3.9437256,3.1864014,7.1463623,7.1300049,7.1689453h42.3519897
						c3.9436035-0.022583,7.1289368-3.2252197,7.1300049-7.1689453V160.6052246z"/>
					<path id="Tracé_7516" class="st12" d="M86.1079712,19.5783176c2.9950562-0.0000153,5.4230347,2.4279327,5.4230347,5.4229736
						s-2.4279175,5.4230042-5.4229736,5.4230194s-5.4230347-2.4279327-5.4230347-5.4229736v-0.0000153
						C80.6849976,22.0062962,83.112915,19.5783329,86.1079712,19.5783176"/>
					<path id="Tracé_7517" class="st19" d="M86.1079712,22.9553165c1.1300049,0.0000153,2.0460205,0.9160461,2.0459595,2.0460205
						c0,1.1299744-0.9160156,2.04599-2.0460205,2.0459747c-1.1295776,0-2.0454102-0.9154205-2.0459595-2.0449982
						c-0.0005493-1.1299744,0.9150391-2.0464478,2.0449829-2.0469971
						C86.1072998,22.9553165,86.107605,22.9553165,86.1079712,22.9553165"/>
					<path id="Tracé_7518" class="st12" d="M136.6339111,19.843317c2.9949951-0.0000153,5.4229736,2.4279327,5.4229736,5.4229736
						c0.0001221,2.9950409-2.4278564,5.4230042-5.4229736,5.4230194c-2.9949951,0.0000153-5.4229736-2.4279327-5.4229736-5.4229736
						v-0.0000153C131.2109375,22.2712955,133.638916,19.8433323,136.6339111,19.843317"/>
					<path id="Tracé_7519" class="st19" d="M136.6350098,23.2193241c1.1300049,0.0000153,2.0460205,0.9160461,2.0460205,2.0460205
						s-0.9161377,2.04599-2.0460205,2.0459747c-1.1296387,0-2.0454102-0.9154205-2.0460205-2.0449982
						C134.5889893,24.136179,135.5048828,23.2198582,136.6350098,23.2193241"/>
					<path id="Tracé_7520" class="st19" d="M68.6480103,132.2723389c2.1185913,0,3.8359985,1.7174072,3.8359985,3.8360596
						c0,2.1185303-1.7174072,3.8359375-3.8359985,3.8359375c-2.1185303,0-3.8359375-1.7174072-3.8359985-3.8359375
						s1.7173462-3.8360596,3.8359375-3.8360596H68.6480103"/>
					<path id="Tracé_7521" class="st13" d="M90.4089966,101.2723312c3.572998-1.7380371,5.9240112-0.8449707,12.6820068-2.0479736
						c1.9650269-0.3499756,2.5319824,0.493042,2.6680298,1.0639648c0.1729736,0.7259521,0.0100098,1.552002-1.315979,2.0620117
						c-1.0706787,0.4172363-2.1685791,0.7611084-3.2860107,1.0290527c-0.5836792,0.1306152-0.9509277,0.7097168-0.8202515,1.293457
						c0.003418,0.0152588,0.0071411,0.0303955,0.0112305,0.0455322c0.1912842,0.6993408,0.2341919,1.4310303,0.1259766,2.1479492
						c-0.6060181,4.7320557-6.7290039,5.5-10.0079956,3.3000488L90.4089966,101.2723312z"/>
					<path id="Tracé_7522" class="st13" d="M21.052002,147.7883301c1.2401047,3.0748291,1.4760208,6.4630127,0.6740036,9.6800537
						c-0.9219971,3.4000244-12.3440018,2.5889893-10.6409988-8.7230225L21.052002,147.7883301z"/>
					<path id="Tracé_7523" class="st12" d="M21.4420013,196.9703369c0,0,6.3139954-1.1000977,10.4640045,0
						c3.0859985,0.815918,4.8240051,3.5458984,5.7109985,5.7089844c0.2506714,0.6459961,0.1712036,1.373291-0.2129974,1.9499512
						c-0.3816986,0.5668945-1.0166016,0.911377-1.6999969,0.9221191H23.5699921
						c-1.1539612-0.0039062-2.0886383-0.9379883-2.0930023-2.092041c-0.0350037-2.5529785-0.0350037-6.4890137-0.0350037-6.4890137"
						/>
					<path id="Tracé_7524" class="st12" d="M42.1570129,196.9703369c0,0,6.3139954-1.1000977,10.4639893,0
						c3.0859985,0.815918,4.8240051,3.5458984,5.7109985,5.7089844c0.2506714,0.6459961,0.1712036,1.373291-0.2130127,1.9499512
						c-0.3816833,0.5668945-1.0166016,0.911377-1.7000122,0.9221191H44.2850037
						c-1.1539612-0.0039062-2.088623-0.9379883-2.0929871-2.092041
						C42.1570129,200.9063721,42.1570129,196.9703369,42.1570129,196.9703369"/>
					<path id="Tracé_7525" class="st19" d="M55.4229889,139.8103027c0,0-0.8159943,46.1999512-0.8159943,56.5560303
						c0.0044556,1.0532227-0.8457336,1.9106445-1.8989258,1.9150391c-0.0053558,0-0.0107117,0-0.0160675,0h-9.2929993
						c-1.0531921,0.0043945-1.9105682-0.8458252-1.9149933-1.8989258c-0.0000153-0.0053711-0.0000153-0.0107422,0-0.0161133
						l-0.8159943-37.125c0-2.5889893-5.9230042-2.5889893-5.9230042,0l-0.7449951,37.125
						c0.0044556,1.0532227-0.8457336,1.9106445-1.8989258,1.9150391c-0.0053558,0-0.0107117,0-0.0160675,0h-9.2950287
						c-1.0531921,0.0043945-1.9105682-0.8458252-1.9149933-1.8989258c-0.0000153-0.0053711-0.0000153-0.0107422,0-0.0161133
						c0-10.3540039-0.8159943-56.5560303-0.8159943-56.5560303H55.4229889z"/>
					<path id="Tracé_7526" class="st12" d="M52.40802,196.0472412L52.40802,196.0472412
						c-0.3512573,0.0010986-0.6369019-0.2827148-0.6380005-0.6340332c0-0.0012207,0-0.0025635,0-0.0039062v-1.2769775
						c0-0.3526611,0.2858887-0.6385498,0.6384888-0.6385498s0.6384888,0.2858887,0.6384888,0.6385498v1.2769775
						c-0.0232544,0.3422852-0.2957153,0.6147461-0.6380005,0.6379395 M52.3729858,192.182251L52.3729858,192.182251
						c-0.3512573,0.0010986-0.6369019-0.2827148-0.6380005-0.6340332c0-0.0012207,0-0.0025635,0-0.0039062v-1.276001
						c0.0049438-0.1693115,0.0673828-0.3319092,0.177002-0.4610596c0.1257324-0.1152344,0.2904663-0.1784668,0.4609985-0.177002
						c0.3512573-0.0015869,0.6373291,0.2817383,0.6389771,0.6330566c0,0.0015869,0,0.0032959,0,0.0048828v1.276001
						c0.0010986,0.3511963-0.2827759,0.6368408-0.6340332,0.6379395c-0.0016479,0-0.0032959,0-0.0049438,0 M52.3380127,188.3531494
						L52.3380127,188.3531494c-0.3512573,0.0010986-0.6369019-0.2827148-0.6380005-0.6340332c0-0.0012207,0-0.0025635,0-0.0039062
						v-1.276001c0-0.3526611,0.2858887-0.6385498,0.6384888-0.6385498s0.6384888,0.2858887,0.6384888,0.6385498v1.276001
						c0.0010986,0.3511963-0.2827759,0.6368408-0.6340332,0.6379395c-0.0013428,0-0.0026245,0-0.0039673,0 M52.2680054,184.5231934
						L52.2680054,184.5231934c-0.3512573,0.0010986-0.6369019-0.2827148-0.6380005-0.6340332c0-0.0012207,0-0.0025635,0-0.0039062
						v-1.2769775c0.0050049-0.1693115,0.0674438-0.3319092,0.177002-0.4610596
						c0.1257324-0.1152344,0.2904663-0.1784668,0.4609985-0.177002c0.3512573-0.0010986,0.6369019,0.2827148,0.6380005,0.6340332
						c0,0.0012207,0,0.0025635,0,0.0039062v1.2769775c-0.0050049,0.1693115-0.0674438,0.3319092-0.177002,0.4610596
						C52.6032104,184.4613037,52.4385376,184.5245361,52.2680054,184.5231934 M52.2319946,180.6942139L52.2319946,180.6942139
						c-0.3512573,0.0010986-0.6369019-0.2827148-0.6380005-0.6340332c0-0.0012207,0-0.0025635,0-0.0039062v-1.2800293
						c0.0049438-0.1693115,0.0673828-0.3319092,0.177002-0.4610596c0.1257324-0.1152344,0.2904663-0.1784668,0.4609985-0.177002
						c0.3512573-0.0010986,0.6369019,0.2827148,0.6380005,0.6340332c0,0.0012207,0,0.0025635,0,0.0039062v1.2769775
						c0.0169678,0.3353271-0.2411499,0.6209717-0.5764771,0.6379395c-0.0205078,0.0010986-0.0410156,0.0010986-0.0615234,0
						 M52.1959839,176.861084L52.1959839,176.861084c-0.3512573,0.0010986-0.6369019-0.2827148-0.6380005-0.6340332
						c0-0.0012207,0-0.0025635,0-0.0039062v-1.276001c0-0.3526611,0.2858887-0.6384277,0.6384888-0.6384277
						s0.6384888,0.2857666,0.6384888,0.6384277v1.276001c0.0169678,0.3353271-0.2410889,0.6209717-0.5764771,0.6379395
						C52.2376709,176.8621826,52.2167969,176.8621826,52.1959839,176.861084 M52.1610107,173.0311279L52.1610107,173.0311279
						c-0.3512573,0.0010986-0.6369019-0.2827148-0.6380005-0.6340332c0-0.0012207,0-0.0025635,0-0.0039062v-1.2769775
						c0-0.3526611,0.2858887-0.6385498,0.6384888-0.6385498s0.6384888,0.2858887,0.6384888,0.6385498l0,0v1.2769775
						c-0.0049438,0.1693115-0.0673828,0.3319092-0.177002,0.4610596c-0.1322632,0.104126-0.2929688,0.1658936-0.4609985,0.177002
						 M52.0910034,169.2022705L52.0910034,169.2022705c-0.3512573,0.0010986-0.6369019-0.2827148-0.6380005-0.6340332
						c0-0.0012207,0-0.0025635,0-0.0039062v-1.276001c0-0.3526611,0.2858887-0.6385498,0.6384888-0.6385498
						s0.6384888,0.2858887,0.6384888,0.6385498v1.276001c0.0010986,0.3511963-0.2827759,0.6368408-0.6340332,0.6379395
						c-0.0013428,0-0.0026245,0-0.0039673,0 M52.0559692,165.373291L52.0559692,165.373291
						c-0.3512573,0.0010986-0.6369019-0.2827148-0.6380005-0.6340332c0-0.0012207,0-0.0025635,0-0.0039062v-1.2769775
						c0-0.3526611,0.2858887-0.6384277,0.6384888-0.6384277s0.6384888,0.2857666,0.6384888,0.6384277v1.2769775
						c0.0169678,0.3353271-0.2410889,0.6209717-0.5764771,0.6379395
						C52.0976562,165.3743896,52.0767822,165.3743896,52.0559692,165.373291 M52.0209961,161.543335L52.0209961,161.543335
						c-0.3512573,0.0010986-0.6369019-0.2827148-0.6380005-0.6340332c0-0.0012207,0-0.0025635,0-0.0039062v-1.276001
						c0-0.3526611,0.2858887-0.6385498,0.6384888-0.6385498s0.6384888,0.2858887,0.6384888,0.6385498v1.276001
						c0.0010986,0.3511963-0.2827759,0.6368408-0.6340332,0.6379395
						C52.024292,161.543335,52.022644,161.543335,52.0209961,161.543335 M52.0209961,157.6433105L52.0209961,157.6433105
						c-0.3512573,0.0010986-0.6369019-0.2827148-0.6380005-0.6340332c0-0.0012207,0-0.0025635,0-0.0039062v-1.276001
						c0-0.3526611,0.2858887-0.6384277,0.6384888-0.6384277s0.6384888,0.2857666,0.6384888,0.6384277v1.276001
						c0.0010986,0.3511963-0.2827759,0.6368408-0.6340332,0.6379395
						C52.024292,157.6433105,52.022644,157.6433105,52.0209961,157.6433105"/>
					<path id="Tracé_7527" class="st12" d="M32.1900024,194.9833984L32.1900024,194.9833984
						c-0.3512573,0.001709-0.6373291-0.2817383-0.6390076-0.6329346c0-0.001709,0-0.0032959,0-0.0050049v-1.2769775
						c0-0.3526611,0.2858582-0.6385498,0.6384888-0.6385498c0.3526611,0,0.6385193,0.2858887,0.6385193,0.6385498v1.2769775
						C32.8051758,194.6878662,32.5324402,194.9605713,32.1900024,194.9833984 M32.1539917,191.1184082L32.1539917,191.1184082
						c-0.3512573,0.0010986-0.6369019-0.2827148-0.6380005-0.6340332c0-0.0012207,0-0.0025635,0-0.0039062v-1.276001
						c0.0050354-0.1693115,0.0674438-0.3319092,0.177002-0.4610596c0.1257935-0.1151123,0.2904968-0.1783447,0.4609985-0.177002
						c0.3512573-0.0010986,0.6369019,0.2827148,0.6380005,0.6340332c0,0.0012207,0,0.0025635,0,0.0039062v1.276001
						c0.0010681,0.3511963-0.2828064,0.6368408-0.6340637,0.6379395c-0.0013123,0-0.0026245,0-0.0039368,0 M32.118988,187.2893066
						L32.118988,187.2893066c-0.3512573,0.0010986-0.6369019-0.2827148-0.6380005-0.6340332c0-0.0012207,0-0.0025635,0-0.0039062
						v-1.276001c0-0.3526611,0.2858582-0.6385498,0.6384888-0.6385498c0.3526611,0,0.6385193,0.2858887,0.6385193,0.6385498
						v1.276001c0.0010681,0.3511963-0.2828064,0.6368408-0.6340637,0.6379395c-0.0013123,0-0.0026245,0-0.0039368,0
						 M32.0489807,183.4603271L32.0489807,183.4603271c-0.3512573,0.0010986-0.6369019-0.2827148-0.6380005-0.6340332
						c0-0.0012207,0-0.0025635,0-0.0039062v-1.276001c0.0050964-0.1693115,0.0675049-0.3317871,0.177002-0.4610596
						c0.1257935-0.1151123,0.2904968-0.1783447,0.4609985-0.177002c0.3512573-0.0010986,0.6369019,0.2827148,0.6380005,0.6340332
						c0,0.0012207,0,0.0025635,0,0.0039062v1.2769775c-0.0049438,0.1693115-0.0673523,0.3319092-0.177002,0.4610596
						c-0.1257935,0.1151123-0.2904968,0.1783447-0.4609985,0.177002 M32.0139771,179.6323242L32.0139771,179.6323242
						c-0.3512573,0.0010986-0.6369019-0.2827148-0.6380005-0.6340332c0-0.0012207,0-0.0025635,0-0.0039062v-1.2769775
						c0.0049438-0.1693115,0.0673523-0.3319092,0.177002-0.4610596c0.1257324-0.1152344,0.2904663-0.1784668,0.4609985-0.177002
						c0.3512573-0.0010986,0.6369019,0.2827148,0.6380005,0.6340332c0,0.0012207,0,0.0025635,0,0.0039062v1.2769775
						c0.0169678,0.3353271-0.2411499,0.6209717-0.5765076,0.6379395c-0.0204773,0.0010986-0.0410156,0.0010986-0.0614929,0
						 M31.9789734,175.8022461L31.9789734,175.8022461c-0.3512573,0.0010986-0.6369019-0.2827148-0.6380005-0.6340332
						c0-0.0012207,0-0.0025635,0-0.0039062v-1.276001c0-0.3526611,0.2858582-0.6385498,0.6384888-0.6385498
						c0.3526611,0,0.6385193,0.2858887,0.6385193,0.6385498v1.276001c0.0169678,0.3353271-0.2411499,0.6209717-0.5765076,0.6379395
						c-0.0204773,0.0010986-0.0410156,0.0010986-0.0614929,0 M31.9439697,171.97229L31.9439697,171.97229
						c-0.3512573,0.0010986-0.6369019-0.2827148-0.6380005-0.6340332c0-0.0012207,0-0.0025635,0-0.0039062v-1.2769775
						c0-0.3526611,0.2858582-0.6385498,0.6385193-0.6385498c0.3526306,0,0.6384888,0.2858887,0.6384888,0.6385498v1.2769775
						c-0.0050354,0.1693115-0.0674438,0.3319092-0.177002,0.4610596c-0.1322937,0.104126-0.2929993,0.1657715-0.4609985,0.177002
						 M31.8739624,168.1434326L31.8739624,168.1434326c-0.3512573,0.0010986-0.6369019-0.2827148-0.6380005-0.6340332
						c0-0.0012207,0-0.0025635,0-0.0039062v-1.276001c0-0.3526611,0.2858582-0.6385498,0.6385193-0.6385498
						c0.3526306,0,0.6384888,0.2858887,0.6384888,0.6385498v1.276001c0.0010681,0.3511963-0.2828064,0.6368408-0.6340637,0.6379395
						C31.8772583,168.1434326,31.8756104,168.1434326,31.8739624,168.1434326 M31.8389587,164.3144531L31.8389587,164.3144531
						c-0.3512573,0.0010986-0.6369019-0.2827148-0.6380005-0.6340332c0-0.0012207,0-0.0025635,0-0.0039062v-1.276001
						c0-0.3526611,0.2858582-0.6385498,0.6384888-0.6385498c0.3526611,0,0.6385193,0.2858887,0.6385193,0.6385498v1.276001
						c0.0169678,0.3353271-0.2411499,0.6209717-0.5765076,0.6379395c-0.0204773,0.0010986-0.0410156,0.0010986-0.0614929,0"/>
					<path id="Tracé_7528" class="st12" d="M41.5610046,146.7163086c0,0,0,0.5880127,0.019989,1.5749512
						c0.0109863,0.493042,0.0320129,1.0860596,0.0669861,1.7580566s0.0859985,1.4169922,0.2000122,2.2370605
						c0.0299988,0.2149658,0.071991,0.4379883,0.1229858,0.6719971c0.0265503,0.1273193,0.0599365,0.2531738,0.1000061,0.3769531
						l0.0469971,0.1269531c0.0159607,0.0500488,0.0377808,0.0980225,0.0650024,0.1429443
						c0.0750122,0.0770264,0.1199951,0.1750488,0.2000122,0.25c0.1171265,0.1065674,0.2428894,0.2032471,0.3760071,0.2889404
						c0.1090088,0.0699463,0.2139893,0.1340332,0.3210144,0.1999512c0.2120056,0.1209717,0.4249878,0.2340088,0.6409912,0.3430176
						c0.4309998,0.2159424,0.8720093,0.4169922,1.3280029,0.5999756c0.4761658,0.2027588,0.9685669,0.3649902,1.4719849,0.4849854
						c0.0920715,0.0214844,0.1856995,0.0358887,0.2799988,0.0429688c0.1336975,0.0118408,0.2684021,0.0045166,0.3999939-0.0219727
						c0.1726685-0.0410156,0.3418884-0.095459,0.506012-0.1629639c0.2810059-0.1149902,0.5480042-0.2370605,0.8080139-0.3659668
						c0.5118408-0.2519531,1.0098877-0.5311279,1.4920044-0.8360596c0.1629944-0.0999756,0.322998-0.1999512,0.4729919-0.3060303
						s0.2890015-0.2070312,0.4060059-0.3000488c0.0620117-0.0529785,0.1199951-0.1080322,0.1700134-0.1550293
						c0.0511169-0.0513916,0.0979614-0.1069336,0.1400146-0.1660156c0.0740051-0.0999756,0.0840149-0.131958,0.0599976-0.0999756
						c0.0818176-0.1466064,0.1488342-0.3011475,0.2000122-0.4610596c0.0452881-0.1330566,0.0830078-0.2686768,0.1130066-0.4060059
						c0.0580139-0.2590332,0.1000061-0.5,0.1239929-0.7370605c0.0549927-0.467041,0.0859985-0.9000244,0.1000061-1.3000488
						c0.0350037-0.8000488,0.0339966-1.4720459,0.0339966-2.0209961c-0.0140076-1.0939941-0.0209961-1.6889648-0.0209961-1.6889648
						c0.0100098-0.75-0.2460022-1.2769775-0.5180054-1.3000488c-0.3059998-0.0200195-0.5220032,0.6049805-0.5329895,1.2700195
						c0,0-0.0159912,0.5999756-0.0450134,1.6999512c-0.0190125,0.5460205-0.0409851,1.2149658-0.1000061,1.9780273
						c-0.0270081,0.381958-0.0679932,0.7860107-0.1289978,1.1999512c-0.0310059,0.2060547-0.0700073,0.4139404-0.1199951,0.6109619
						c-0.0229187,0.0942383-0.0513,0.1870117-0.0849915,0.2779541c-0.0247498,0.0688477-0.0548401,0.1357422-0.0899963,0.1999512
						c0-0.0080566-0.006012,0-0.0100098,0s0.006012-0.006958-0.0190125,0.0119629l-0.0799866,0.0649414
						c-0.0820007,0.05896-0.1799927,0.1309814-0.3059998,0.2110596s-0.2609863,0.1650391-0.3999939,0.2480469
						c-0.4509888,0.2530518-0.9179993,0.5-1.3940125,0.7320557c-0.2369995,0.1120605-0.480011,0.2299805-0.7149963,0.3249512
						c-0.1038818,0.0445557-0.210022,0.0834961-0.3179932,0.1169434c-0.0440063,0.0140381-0.0090027,0.0059814-0.0239868,0.006958
						c-0.0335693-0.0032959-0.0669556-0.0083008-0.1000061-0.0150146c-0.4208984-0.0991211-0.8337402-0.2298584-1.2349854-0.3909912
						c-0.4240112-0.1629639-0.8429871-0.3399658-1.243988-0.526001c-0.2000122-0.0930176-0.3999939-0.1889648-0.5799866-0.2869873
						c-0.1602478-0.0817871-0.3146362-0.1746826-0.4620056-0.2779541c0,0-0.0109863,0-0.0130005-0.0129395
						c-0.0296631-0.0737305-0.0537415-0.1496582-0.071991-0.2270508c-0.0480042-0.1750488-0.0889893-0.3719482-0.1229858-0.5629883
						c-0.1289978-0.7380371-0.2059937-1.467041-0.2709961-2.1199951s-0.1099854-1.2419434-0.144989-1.7320557
						c-0.0629883-0.980957-0.1000061-1.572998-0.1000061-1.572998c-0.0119934-0.7419434-0.2479858-1.2629395-0.5-1.2910156
						c-0.3150024-0.0150146-0.5480042,0.6259766-0.5100098,1.2900391"/>
					<path id="Tracé_7529" class="st12" d="M22.0469971,146.6982422l-0.0240021,1.5639648
						c0,0.4909668,0,1.0830078,0.0180054,1.7540283c0.013092,0.7554932,0.0745544,1.5092773,0.1840057,2.256958l0.0650024,0.3360596
						l0.0939941,0.3570557c0.0399933,0.1259766,0.1000061,0.2619629,0.1499939,0.3929443
						c0.0410004,0.0770264,0.0950012,0.1590576,0.1470032,0.2359619c0.0503998,0.0823975,0.1139069,0.1560059,0.1880035,0.2180176
						c0.0583801,0.0535889,0.1201782,0.1033936,0.1849976,0.1490479c0.0590057,0.0460205,0.1109924,0.0780029,0.1640015,0.1140137
						c0.1080017,0.072998,0.2109985,0.1330566,0.3159943,0.1999512c0.2089996,0.1219482,0.4190063,0.2370605,0.6320038,0.3470459
						c0.427002,0.2189941,0.8650055,0.4239502,1.326004,0.6109619c0.2290039,0.0949707,0.4680023,0.1810303,0.7180023,0.2609863
						c0.1320038,0.0379639,0.253006,0.0770264,0.4049988,0.1070557c0.1792145,0.043457,0.3640137,0.0593262,0.5480042,0.0469971
						c0.1066437-0.0106201,0.2120819-0.0311279,0.3150024-0.0610352c0.0899963-0.0209961,0.1519928-0.0450439,0.2279968-0.0679932
						c0.1490021-0.0450439,0.279007-0.0999756,0.4190063-0.1450195c0.2700043-0.0999756,0.5370026-0.2070312,0.8000031-0.3199463
						c0.5249939-0.2249756,1.0390015-0.4649658,1.5269928-0.7270508c0.1609955-0.0860596,0.3200073-0.1669922,0.4700012-0.2550049
						s0.2890015-0.1729736,0.4069977-0.2509766l0.1699982-0.1269531c0.0527344-0.0437012,0.1025085-0.0906982,0.1490021-0.1409912
						c0.0809937-0.0830078,0.0939941-0.1169434,0.0670013-0.0830078c0.108078-0.1464844,0.1958771-0.3070068,0.2610016-0.4770508
						c0.054657-0.1363525,0.0997772-0.2763672,0.1349945-0.4189453c0.0589142-0.246582,0.103653-0.4963379,0.1340027-0.7480469
						c0.0549927-0.4720459,0.0829926-0.9050293,0.1000061-1.3060303c0.0269928-0.8000488,0.0189972-1.4790039,0.0130005-2.0310059
						c-0.0220032-1.0999756-0.0350037-1.6999512-0.0350037-1.6999512c0.0059967-0.7449951-0.2489929-1.269043-0.5220032-1.3000488
						c-0.3059998-0.0200195-0.5220032,0.5999756-0.5299988,1.2669678c0,0-0.0119934,0.6140137-0.0330048,1.7189941
						c-0.0140076,0.5500488-0.029007,1.223999-0.0789948,1.9890137c-0.022995,0.3830566-0.0619965,0.7860107-0.121994,1.1999512
						c-0.0296936,0.2021484-0.070755,0.4024658-0.1230011,0.5999756c-0.0236359,0.0872803-0.0533905,0.1728516-0.0890045,0.2559814
						c-0.0227203,0.0554199-0.0504913,0.1086426-0.0829926,0.1590576c0-0.006958,0,0-0.0090027,0
						s0.0070038-0.006958-0.0200043,0.0100098l-0.0890045,0.05896c-0.1589966,0.0999756-0.4299927,0.2449951-0.7140045,0.3830566
						c-0.4689941,0.2189941-0.9530029,0.4320068-1.4440002,0.6369629c-0.2460022,0.0999756-0.5,0.1999512-0.7449951,0.3000488
						c-0.125,0.0489502-0.2489929,0.0909424-0.371994,0.1340332s-0.2630005,0.0820312-0.3000031,0.0889893h0.0050049v0.0250244
						c0.0059967,0.0689697,0.0079956,0.1379395,0.0090027,0.2070312v0.0999756v0.052002v0.0389404
						c0-0.1899414,0,0.4439697,0-0.4229736l-0.0359955-0.0050049c-0.033783-0.0013428-0.0673218-0.0063477-0.1000061-0.0150146
						c-0.0780029-0.0109863-0.1829987-0.0439453-0.2779999-0.0670166c-0.1999969-0.0620117-0.4089966-0.1309814-0.6170044-0.2110596
						c-0.4160004-0.157959-0.8300018-0.3389893-1.2259979-0.5279541c-0.3669128-0.1673584-0.7203064-0.362915-1.0570068-0.5849609
						c-0.0240021-0.0119629-0.0310059-0.0400391-0.0529938-0.0649414c-0.0312653-0.0598145-0.0593109-0.1212158-0.0839996-0.18396
						c-0.0571289-0.1711426-0.1032104-0.3458252-0.1380005-0.5229492c-0.1273041-0.6875-0.2121277-1.3820801-0.2539978-2.0799561
						c-0.0460052-0.651001-0.0769958-1.2349854-0.1000061-1.723999c-0.0359955-0.9799805-0.0570068-1.5720215-0.0570068-1.5720215
						c0.0070038-0.7419434-0.2299957-1.2709961-0.4830017-1.3000488c-0.3159943-0.0140381-0.5500031,0.6120605-0.5299988,1.2709961"
						/>
					<path id="Tracé_7530" class="st12" d="M36.4859924,157.4622803c-0.4119873-0.0439453-0.9249878-0.0939941-1.4830017-0.1379395
						c-0.3421631-0.0292969-0.6856079-0.0410156-1.0289917-0.0350342c-0.6000061,0-1.2059937,0.0710449-1.7380066,0.105957
						c-0.9930115,0.1070557-1.7380066,0.2130127-1.7380066,0.2130127c-0.4848938-0.0050049-0.8819885,0.3840332-0.8869934,0.8688965
						c-0.000061,0.0057373-0.000061,0.0113525,0,0.0170898c0.026825,0.4669189,0.4194946,0.828125,0.8869934,0.81604
						c0,0,0.7449951,0.105957,1.7380066,0.2130127c0.5320129,0.0350342,1.1350098,0.105957,1.7380066,0.105957
						c0.2600098,0,0.5159912-0.0159912,0.7609863-0.026001l0.0069885-0.355957c0-0.9289551,0.7650146-1.5229492,1.7430115-1.7850342
						"/>
					<path id="Tracé_7531" class="st12" d="M92.3069992,108.2943039c-0.1260071-1.4610596-0.1679993-3.4289551-0.5-6.1560059
						c-0.3000031-2.4699707-1.3999939-2.9310303-4.1999969-2.9680176
						c-3.5189972-0.0460205-7.6119995-0.2650146-20.9589996-0.8449707
						c-7.2409973-0.3150024-10.5950012-0.8369751-16.8930054-1.3140259
						c-1.154007-0.0869751-4.1849976-0.2299805-9.9179993-0.1760254
						c-27.663002,0.2600098-29.2420044,21.999939-29.4820023,24.3700562
						c-0.9002533,8.6189041-1.0574951,17.299202-0.4700012,25.9449539c0.2480011,3.3330078,3.1920013,3.0489502,6.6330032,2.8370361
						c1.2506638-0.0200195,2.4956589-0.1728516,3.7139969-0.4560547l0.0810013-3.3730469h34.2519989
						c0.7041779,0.0007324,1.2843781-0.5526123,1.3170013-1.2559814c0.1909943-4.1750488,0.6999969-17.9790115-0.0449982-29.6140213
						c-0.0524445-0.8184814,0.5685425-1.5245361,1.3870087-1.5769043c0.0326233-0.0020752,0.0653076-0.0031738,0.0979919-0.0030518
						c13.6309967,0.0169678,28.9150085-0.9239502,31.621994-1.1860352c3.1569977-0.3060303,3.5429993-2.1929932,3.3679962-4.2290039
						"/>
					<path id="Tracé_7532" class="st19" d="M70.914978,106.6062546c0.1469116-2.1364746-0.3677368-4.2663574-1.473999-6.0999756
						c-0.3930054-0.6427002-0.6566162-1.3560791-0.776001-2.0999756c-0.6519775-0.0290527-2.8120117-0.1290283-3.2119751-0.144043
						c0.1456909,1.4396973,0.6209717,2.8265381,1.3889771,4.0529785c0.7110596,1.2597656,1.031311,2.7026367,0.9199829,4.1450195
						c0.0025635,1.4490967-0.4434814,2.8635254-1.2769775,4.0489502c-0.7121582,0.9263916-1.2350464,1.9837646-1.5390015,3.1120605
						c1.2299805,0.019043,2.2739868-0.0150146,3.367981-0.0820312c0.154541-0.3585205,0.3563232-0.6948242,0.5999756-1
						c1.2662354-1.7271729,1.9650269-3.8048096,2-5.9460449"/>
					<path id="Tracé_7533" class="st19" d="M77.8280029,106.9293747c0.1376343-1.9974365-0.3461304-3.9884033-1.3850098-5.6999512
						c-0.4841919-0.7619629-0.7992554-1.6188965-0.9240112-2.5129395c-0.5889893-0.0419922-1.1929932-0.0600586-1.9000244-0.0839844
						c0.1469116,1.3056641,0.5875854,2.5610352,1.2890015,3.6719971c1.5333252,2.8360596,1.3826904,6.2855225-0.3920288,8.9770508
						c-0.5044556,0.6313477-0.9026489,1.3405762-1.1790161,2.0999756c0.7470093-0.006958,1.4000244-0.0269775,2.0859985-0.0830078
						c0.1494141-0.2877197,0.3273315-0.5598145,0.5310059-0.8120117c1.1934814-1.609375,1.8498535-3.5535889,1.8759766-5.5570068"/>
					<path id="Tracé_7534" class="st19" d="M9.9740067,125.4643478c1.730751,1.0721436,3.7344818,1.6212158,5.7699966,1.5810547
						c1.4139175,0.0075684,2.8175354-0.2407227,4.1429977-0.7330322l-0.1330032-3.4620361
						c-1.2103882,0.720459-2.6010742,1.0808105-4.0090027,1.0389404c-1.4681549,0.0556641-2.9163742-0.3538818-4.1380005-1.1700439
						c-0.4159164-0.3001709-0.8611984-0.5574951-1.3290024-0.7679443c-0.1429977,1-0.2450027,2.3220215-0.3000031,3.5129395"/>
					<path id="Tracé_7535" class="st19" d="M9.6110001,132.0603027c0.1700287,0.0864258,0.3314285,0.1889648,0.4820023,0.3060303
						c1.6592941,1.1221924,3.6345901,1.6829834,5.6360016,1.5999756c1.5204315,0.0137939,3.0260849-0.2991943,4.4150009-0.9179688
						l-0.0810013-2.0999756c-1.305809,0.7872314-2.8109207,1.1813965-4.3349991,1.1350098
						c-1.5898972,0.0576172-3.158989-0.3756104-4.4940033-1.2409668c-0.4810486-0.3365479-0.9974518-0.6196289-1.5400009-0.8439941
						c-0.0530014,0.6760254-0.0780029,1.4620361-0.0830002,2.0639648"/>
					<path id="Tracé_7536" class="st18" d="M19.5980072,143.9953613c0,0-0.1060028-3.0849609-0.2480011-7.269043
						c-0.0709991-2.2340088-0.1419983-4.7509766-0.177002-7.269043c-0.0359955-1.4890213-0.0359955-2.9430008-0.0359955-4.3609695
						c0-5.5670166,0.0359955-10.177002,0.0359955-10.177002c-0.0099487-0.3231201,0.2439117-0.5930176,0.5669861-0.6030273
						c0.3230896-0.0098877,0.5930634,0.2438965,0.6030121,0.5670166c0,0,0.177002,4.6099854,0.3190002,10.177002
						c0.0353241,1.4187012,0.0706635,2.8724365,0.1060028,4.3609695c0.0350037,2.5179443,0.0350037,5.0350342,0.0350037,7.269043
						c0,4.18396-0.0350037,7.269043-0.0350037,7.269043c0.005127,0.3206787-0.2465057,0.5870361-0.5670013,0.5999756
						c-0.3012695,0.0289307-0.5689545-0.1917725-0.5979156-0.493042c-0.0023651-0.0245361-0.003067-0.0493164-0.0020905-0.0739746"
						/>
					<path id="Rectangle_1312" class="st12" d="M116.3980026,96.0303116L116.3980026,96.0303116
						c2.4836197,0,4.4970016,2.0133743,4.4970016,4.4970016l0,0c0,2.4836273-2.013382,4.4970016-4.4970016,4.4970016l0,0
						c-2.4836273,0-4.4970016-2.0133743-4.4970016-4.4970016l0,0
						C111.901001,98.0436859,113.9143753,96.0303116,116.3980026,96.0303116z"/>
					<path id="Tracé_7537" class="st12" d="M118.5140381,100.2623215c0.0065918-0.5013428-0.1994629-0.9820557-0.5670166-1.322998
						c-0.3510742-0.3530273-0.8253174-0.5561523-1.322998-0.5670166h-0.4539795
						c-0.5013428-0.0065918-0.9820557,0.1994629-1.322998,0.5670166c-0.3530273,0.3510742-0.5561523,0.8253174-0.5670166,1.322998
						v0.4530029c-0.0065918,0.5013428,0.1994629,0.9820557,0.5670166,1.322998
						c0.3510742,0.3530273,0.8253174,0.5561523,1.322998,0.5670166h0.4539795
						c0.5013428,0.0067139,0.9820557-0.1993408,1.322998-0.5670166c0.3530273-0.3510742,0.5562744-0.8251953,0.5670166-1.322998
						V100.2623215z"/>
					<path id="Tracé_7538" class="st12" d="M142.3209229,94.5522995c-0.001709-0.3540039-0.289917-0.6396484-0.644043-0.6380005
						l0,0h-13.526001c-0.3540039-0.001709-0.642334,0.2839355-0.644043,0.6379395v0.000061V95.1903
						c0.001709,0.3540039,0.289917,0.6396484,0.644043,0.6380005l0,0h13.526001
						c0.3540039,0.001709,0.642334-0.2839355,0.644043-0.6379395V95.1903V94.5522995z"/>
					<path id="Tracé_7539" class="st12" d="M142.322998,99.0183029c-0.001709-0.3540039-0.2900391-0.6396484-0.644043-0.6379395
						h-5.1529541c-0.3540039-0.001709-0.642334,0.2839355-0.644043,0.6379395v0.6379395
						c0.001709,0.3540039,0.2900391,0.6396484,0.644043,0.6379395h5.1529541
						c0.3540039,0.001709,0.642334-0.2839355,0.644043-0.6379395V99.0183029z"/>
					<path id="Tracé_7540" class="st12" d="M142.3209229,103.4843063c-0.001709-0.3540039-0.2900391-0.6396484-0.644043-0.6379395
						h-13.526001c-0.3540039-0.001709-0.642334,0.2839355-0.644043,0.6379395v0.6379395
						c0.001709,0.3540039,0.2900391,0.6396484,0.644043,0.6379395h13.526001
						c0.3540039,0.001709,0.642334-0.2839355,0.644043-0.6379395V103.4843063z"/>
					<path id="Tracé_7541" class="st12" d="M133.9489746,99.0183029c-0.001709-0.3540039-0.2900391-0.6396484-0.644043-0.6379395
						h-5.1529541c-0.3540039-0.001709-0.642334,0.2839355-0.644043,0.6379395v0.6379395
						c0.001709,0.3540039,0.2900391,0.6396484,0.644043,0.6379395h5.1529541
						c0.3540039,0.001709,0.642334-0.2839355,0.644043-0.6379395V99.0183029z"/>
					<path id="Tracé_7542" class="st13" d="M31.3110046,82.7643356c-0.0140076-0.375-0.0140076-0.75-0.0140076-1.1400146
						v-3.8629761c0.002594-0.3223877-0.2411804-0.5934448-0.5620117-0.625
						c-4.8630066-0.4860229-4.32901-8.2000122-1.7850037-8.2000122c2.1919861,0,2.3609924,3.1129761,2.3609924,4.1550293
						c0.0000305,0.0859985,0.0296936,0.1693726,0.0840149,0.2360229c0.0594788,0.0608521,0.1399841,0.0966187,0.2250061,0.0999756
						h1.447998c0.1767883-0.0010986,0.320282-0.1432495,0.322998-0.3200073
						c0.0840149-13.257019,5.1719971-9.5189819,10.9060059-10.9500122
						c9.6690063-2.4000244,10.118988,0.5999756,14.2359924-0.0700073v19.552002
						c0,6.9199829-1.5880127,12.1729736-10.5679932,13.0999756v2.3900146H31.3110046V82.7643356z"/>
					<path id="Tracé_7543" class="st12" d="M29.0769958,73.2173386c0,0,0.0419922-0.2219849,0.0840149-0.5419922
						c0.0140076-0.1669922,0.0419922-0.3469849,0.0419922-0.5419922c0-0.1110229-0.0140076-0.2219849-0.0140076-0.3200073
						c-0.0419922-0.4169922-0.1000061-0.75-0.1000061-0.75c0-0.1864014-0.1510925-0.3375244-0.3374939-0.3375244
						s-0.3374939,0.151123-0.3374939,0.3375244c0,0-0.0559998,0.3330078-0.1000061,0.75
						c-0.0116882,0.1062622-0.0163574,0.2131348-0.0140076,0.3200073c0,0.1950073,0.0280151,0.375,0.0419922,0.5419922
						c0.0149536,0.1824341,0.0430298,0.3635864,0.0840149,0.5419922c0.0032654,0.1842651,0.15271,0.3323975,0.3370056,0.3339844
						c0.1750183-0.0041504,0.3135376-0.1494141,0.3093567-0.3244629c-0.000061-0.0031738-0.0001831-0.0063477-0.0003662-0.0095215"
						/>
					<path id="Tracé_7544" class="st12" d="M47.9509888,94.50634c-1.2154846,0.0488281-2.4329224-0.0023804-3.6400146-0.1530151
						c-0.4666748-0.0553589-0.9446411-0.1246948-1.4339905-0.2080078c-0.3089905-0.0560303-0.6319885-0.125-0.9559937-0.1950073
						c-1.3129272-0.2722168-2.5745239-0.7504883-3.7380066-1.4169922c-0.099823-0.0673218-0.235321-0.0408936-0.3026123,0.0588989
						c-0.0022278,0.0032959-0.0043335,0.0066528-0.0063782,0.0100708c-0.0667725,0.0968628-0.0423889,0.2294922,0.0544434,0.2962646
						c0.0050354,0.003479,0.0102539,0.0067139,0.015564,0.0097656c1.0293579,0.6567993,2.1524963,1.1535034,3.3309937,1.4730225
						c0.506012,0.1389771,1.026001,0.2639771,1.5180054,0.3469849c0.8546753,0.1489868,1.7188416,0.2371826,2.5859985,0.2639771
						c0.8668823,0.0447998,1.7358704,0.026062,2.6000061-0.0560303c0.1195984-0.0145264,0.2098694-0.1155396,0.2109985-0.2360229
						c-0.0173645-0.1169434-0.1209412-0.2014771-0.2390137-0.1950073"/>
					<path id="Tracé_7545" class="st12" d="M31.7050171,97.1183395h15.8659973
						c0.1687317,0.0095215,0.3132629-0.1195068,0.3227844-0.288208c0.009552-0.1687622-0.1194763-0.3132935-0.288208-0.3228149
						c-0.0115356-0.0006714-0.0230713-0.0006714-0.0345764,0H31.7050171
						c-0.1687317-0.0095215-0.3132629,0.1195068-0.3227844,0.288208c-0.009552,0.1687622,0.1194763,0.3132935,0.288208,0.3228149
						C31.6819763,97.1190109,31.693512,97.1190109,31.7050171,97.1183395"/>
					<path id="Tracé_7546" class="st12" d="M55.0450134,79.1073532c0.2829285,0.8214722-0.141449,1.7186279-0.9559937,2.0209961
						c-0.3618164,0.1287842-0.7565918,0.1312866-1.1199951,0.007019c-0.7350159-0.2647705-1.1284485-1.0639648-0.8900146-1.8079834
						c0.3529968-1.8309937-0.026001-4.0999756-1.8380127-3.6680298c-1.4710083,0.5869751-0.5910034,2.8640137-0.9190063,5.7700195
						c-0.3890076,3.4459839-6.5780029,8.7860107-12.7279968,8.7860107c-6.7139893,0-11.7940063-6.4509888-12.3209991-11.0419922
						c-0.6399994-5.572998,0.1360016-10.3270264,4.0649872-14.9899902c1.1497803-1.3730469,2.96521-1.9966431,4.7160034-1.6199951
						c1.3388977-2.600708,3.5530396-4.6452026,6.2520142-5.7730103c4.4918213-1.5322876,9.4065552-1.232605,13.6789856,0.8339844
						c5.269989,2.6389771,8.8999939,8.7000122,5.4450073,12.5c-1.6499939,1.815979-4.4129944,4.3920288-3.3840027,8.9810181"/>
				</g>
			</g>
		</g>
		<g id="Groupe_2556" transform="translate(79.156 27.607)">
			<g>
				<g id="Groupe_2555_00000158007380281400820490000008082721585803514244_" transform="translate(0 0)">
					<path id="Tracé_7547" class="st12" d="M57.8129883,32.0932846c-0.1707764-0.84552-0.0172729-1.7243652,0.4299927-2.4619751
						c0.4593506-0.7232666,1.1491699-1.2703857,1.9580078-1.5529785l1.4680176-0.3809814
						c1.6977539-0.4252319,2.7293091-2.1463013,2.3040161-3.8440552c-0.0013428-0.0053101-0.0026855-0.0106201-0.0040283-0.0159302
						L63.90802,23.5923691c-0.3909912-1.6600342-2.0537109-2.6887817-3.7137451-2.2977295
						c-0.0352173,0.0083008-0.0703125,0.0172119-0.1052246,0.0267334l-28.1279907,7.3109741
						c-3.6744995-4.3134155-9.4905396-6.1481934-14.9749756-4.723999c-8.0665894,2.0899658-12.9425659,10.2894897-10.927002,18.375
						c1.9298096,7.942749,9.9331055,12.8171387,17.8758545,10.8873291c0.1016235-0.0247192,0.203064-0.0504761,0.3041382-0.0773315
						c5.5147705-1.4592896,9.7456055-5.8875122,10.9520264-11.4630127l3.4240112-0.8900146
						c0.8399048-0.1505127,1.3987427-0.9533691,1.24823-1.7932739c-0.0129395-0.0724487-0.0311279-0.1438599-0.0542603-0.2137451
						c-0.2685547-0.8099365,0.1703491-1.6842041,0.9802246-1.9527588c0.0698853-0.0231323,0.1412964-0.0412598,0.2137451-0.0542603
						l0.9780273-0.2540283c0.798645-0.1519165,1.585083,0.3157959,1.8330078,1.0900269
						c0.0609741,0.2449951,0.427002,0.6719971,0.6719971,0.6090088c0.4000244,0.0269775,0.7949829,0.0549927,0.9780273-0.2540283
						c0.8560181-0.7449951,1.9000244-1.7999878,2.7529907-2.5430298c0.7575684-0.7850952,1.8909912-1.0797729,2.9349976-0.7630005
						c1.7999878,0.4450073,4.309021,1.0999756,5.0120239,1.3079834c0.1266479,0.0531006,0.267395,0.0626221,0.4000244,0.0269775
						c0.6012573-0.1268921,1.1223755-0.4987183,1.4379883-1.026001c0.3811035-0.503418,0.4631348-1.1724243,0.2150269-1.7529907
						c-0.1981812-0.3297119-0.3338013-0.6931152-0.4000244-1.0720215 M18.894165,44.6951523
						c-2.8384399,0.7675781-5.7616577-0.9111938-6.5292358-3.7495728c-0.0140381-0.0519409-0.0272827-0.104126-0.0397339-0.1564331
						c-0.743042-2.9237671,1.0244141-5.8963623,3.947998-6.6400146c2.8384399-0.7675781,5.7616577,0.9111938,6.5292358,3.7495728
						c0.0140381,0.0519409,0.0272827,0.104126,0.0397339,0.1564331
						C23.5852051,40.9789047,21.817749,43.9514999,18.894165,44.6951523"/>
				</g>
			</g>
		</g>
	</g>
</g>
<g id="TEXTES_FR" class="st322">
</g>
<g id="TEXTES_GB">
</g>
<g id="Calque_5">
</g>
</svg>
