<?xml version="1.0" encoding="utf-8"?>
<!-- Generator: Adobe Illustrator 26.2.1, SVG Export Plug-In . SVG Version: 6.00 Build 0)  -->
<svg version="1.1" xmlns="http://www.w3.org/2000/svg" xmlns:xlink="http://www.w3.org/1999/xlink" x="0px" y="0px"
	 viewBox="0 0 325.0750122 349.699646" style="enable-background:new 0 0 325.0750122 349.699646;" xml:space="preserve">
<style type="text/css">
	.st0{fill:url(#FOND_00000131343844575956416330000010622611936883136168_);}
	.st1{fill:url(#FOND_00000053518602673386649170000008053173986612190596_);}
	.st2{fill:#FFF5F7;}
	.st3{fill:url(#FOND_00000134962423051148647010000012979933352436492695_);}
	.st4{fill:url(#FOND_00000060029034090430974050000000794147565141296021_);}
	.st5{fill:url(#FOND_00000168819546204827841410000001749762983751284373_);}
	.st6{fill:url(#FOND_00000025408782365360183830000017455091093835763900_);}
	.st7{fill:url(#FOND_00000055667359132203571980000000466949829997159044_);}
	.st8{fill:url(#FOND_00000157299662467772221030000015000744999564864642_);}
	.st9{fill:url(#FOND_00000155843830216081638100000014951981213033936795_);}
	.st10{fill:url(#FOND_00000087380945207435337450000013991536780018853518_);}
	.st11{fill:url(#FOND_00000125583139592756746320000017107835869079608713_);}
	.st12{fill:#272F60;}
	.st13{fill:#FD657C;}
	.st14{fill:url(#FOND_00000018211530360567355140000016835431642041156024_);}
	.st15{fill:#F4AAB9;}
	.st16{clip-path:url(#Rectangle_10_00000008121673526236748160000007682329968576391063_);}
	.st17{fill:#FB657C;}
	.st18{fill:#FFFFFF;}
	.st19{fill:#FFBCC6;}
	.st20{clip-path:url(#SVGID_00000166650872981045558000000009055468285292285832_);}
	.st21{enable-background:new    ;}
	.st22{fill:#FB657C;stroke:#FD657C;stroke-width:3.8352001;stroke-linecap:round;stroke-linejoin:round;stroke-miterlimit:1.4382;}
	.st23{fill:#FFBCC6;stroke:#FFBCC6;stroke-width:3.8352001;stroke-linecap:round;stroke-linejoin:round;stroke-miterlimit:1.4382;}
	.st24{clip-path:url(#SVGID_00000093147400210739569850000010331547623046474661_);fill:#FB657C;}
	.st25{clip-path:url(#SVGID_00000129204733880970577240000016021327238284569249_);fill:#FFBCC6;}
	.st26{clip-path:url(#SVGID_00000033337631355500606610000018272079805754029210_);fill:#FFBCC6;}
	.st27{clip-path:url(#SVGID_00000062194576376442122470000007430071463533252011_);fill:#FFBCC6;}
	.st28{clip-path:url(#SVGID_00000105395375188358890810000008937012588541602710_);fill:#FFBCC6;}
	.st29{clip-path:url(#SVGID_00000164476320759739110320000003938614782671145616_);fill:#FFBCC6;}
	.st30{clip-path:url(#SVGID_00000106146505734119799730000018042773042146777476_);fill:#FFBCC6;}
	.st31{clip-path:url(#SVGID_00000176751137773143875960000004479820030273395893_);fill:#FFBCC6;}
	.st32{clip-path:url(#SVGID_00000062897272131053315590000003646500553700826555_);fill:#272F60;}
	.st33{clip-path:url(#SVGID_00000062897272131053315590000003646500553700826555_);fill:#FB657C;}
	.st34{clip-path:url(#SVGID_00000062897272131053315590000003646500553700826555_);fill:#FFBCC6;}
	.st35{clip-path:url(#SVGID_00000062897272131053315590000003646500553700826555_);fill:#FFFFFF;}
	.st36{fill:none;}
	.st37{clip-path:url(#SVGID_00000009580760152001737440000005170004141767673231_);fill:#FFFFFF;}
	.st38{clip-path:url(#SVGID_00000022525202020393959670000005499378110641018559_);fill:#FFFFFF;}
	.st39{clip-path:url(#SVGID_00000117655239968926756350000004832452374884028057_);fill:#FFFFFF;}
	.st40{clip-path:url(#SVGID_00000043434599262164923920000011743939491093497765_);fill:#FFFFFF;}
	.st41{clip-path:url(#SVGID_00000141440344864516116280000004479701744408754617_);fill:#FFFFFF;}
	.st42{clip-path:url(#SVGID_00000171689000268797170110000006653136028928318633_);fill:#FFFFFF;}
	.st43{clip-path:url(#SVGID_00000003105457901640405980000005165303401225830293_);fill:#FFFFFF;}
	.st44{clip-path:url(#SVGID_00000123399605780070117960000014685452046394332585_);fill:#FFFFFF;}
	.st45{clip-path:url(#SVGID_00000074418310982366932920000006618655466254290589_);fill:#FFFFFF;}
	.st46{clip-path:url(#SVGID_00000026147604893085488130000007425229384973374143_);fill:#FFFFFF;}
	.st47{clip-path:url(#SVGID_00000102524929505081493510000005306486104828950445_);fill:#FFFFFF;}
	.st48{clip-path:url(#SVGID_00000128479531875404206220000005401415149438453172_);fill:#FFFFFF;}
	.st49{clip-path:url(#SVGID_00000154405739872490340980000003126940649578359465_);fill:#FB657C;}
	.st50{clip-path:url(#SVGID_00000031203615840313875010000018030820411952261566_);fill:#FFFFFF;}
	.st51{clip-path:url(#SVGID_00000016043607442907686980000015338441666903863975_);fill:#FFFFFF;}
	.st52{fill:#FF647B;}
	.st53{fill:#FF657C;}
	.st54{clip-path:url(#SVGID_00000117669360694019701730000005505210844475316119_);}
	.st55{clip-path:url(#SVGID_00000106124056026159351810000013122796504891296422_);}
	.st56{clip-path:url(#SVGID_00000160163265412488472890000001112464639119944089_);}
	.st57{clip-path:url(#SVGID_00000114075784139152500500000014724218147329245863_);}
	.st58{fill:none;stroke:#272E5F;stroke-width:3;}
	.st59{clip-path:url(#SVGID_00000117634906041417333070000000530469580218905001_);}
	.st60{fill:#E94B67;}
	.st61{fill:#FFF5F7;stroke:#272E5F;stroke-width:2;}
	.st62{fill:none;stroke:#272E5F;stroke-width:2;stroke-linecap:round;stroke-linejoin:round;stroke-miterlimit:10;}
	.st63{fill:none;stroke:#272E5F;stroke-width:2;}
	.st64{fill:none;stroke:#272E5F;stroke-width:3;stroke-linecap:round;stroke-linejoin:round;stroke-miterlimit:10;}
	.st65{fill:none;stroke:#142664;stroke-width:2;stroke-linecap:round;stroke-linejoin:round;stroke-miterlimit:10;}
	.st66{clip-path:url(#SVGID_00000137834695788963249410000002207080498720483726_);}
	.st67{clip-path:url(#SVGID_00000156581680104295011450000015522272761253732794_);}
	.st68{clip-path:url(#SVGID_00000015343634117858830770000016966514948818283677_);fill:#FD657C;}
	.st69{clip-path:url(#SVGID_00000020390381821698918050000015740385645633223570_);fill:#FD657C;}
	.st70{clip-path:url(#SVGID_00000086660591134512619620000006132525670745727393_);}
	.st71{clip-path:url(#SVGID_00000105424744300973842690000016561675237284645046_);}
	.st72{clip-path:url(#SVGID_00000082347726411217571280000007478690406998136991_);}
	.st73{fill:none;stroke:#142664;stroke-width:3;stroke-linecap:round;stroke-linejoin:round;}
	.st74{clip-path:url(#SVGID_00000090975141104061176750000004402936586824088986_);}
	.st75{clip-path:url(#SVGID_00000121987026356604080300000017672643421371155616_);}
	.st76{clip-path:url(#SVGID_00000104707754184832657730000001480918556162425022_);}
	.st77{clip-path:url(#SVGID_00000161603442221289864970000005163540716013711264_);}
	.st78{clip-path:url(#SVGID_00000013171511643742537510000002768052595768359302_);}
	.st79{clip-path:url(#SVGID_00000078016907438191862040000014935911041107369358_);}
	.st80{clip-path:url(#SVGID_00000070810698725173685510000005489709629126564743_);}
	.st81{clip-path:url(#SVGID_00000118397193483800318420000007646229434709733298_);}
	.st82{clip-path:url(#SVGID_00000057855225964745800930000014500333397649696940_);}
	.st83{clip-path:url(#SVGID_00000039814643286170386290000011654185784172591239_);}
	.st84{clip-path:url(#SVGID_00000006704006273245110590000013794399405574612628_);}
	.st85{clip-path:url(#SVGID_00000109024654461823065450000005699586406201727899_);}
	.st86{clip-path:url(#SVGID_00000002357177578221781770000014977369859766311042_);}
	.st87{clip-path:url(#SVGID_00000029764799609434003590000000829412126127730058_);}
	.st88{clip-path:url(#SVGID_00000075882025828473448390000012342777026293552530_);}
	.st89{clip-path:url(#SVGID_00000040575954795954962550000001694941916009187743_);}
	.st90{clip-path:url(#SVGID_00000054986995710210691560000013697203374803602828_);}
	.st91{clip-path:url(#SVGID_00000132051687811433106680000008948963834726056071_);}
	.st92{clip-path:url(#SVGID_00000063598335793420800930000011320841986527991941_);}
	.st93{clip-path:url(#SVGID_00000084516014666774714390000008108996722760190344_);}
	.st94{clip-path:url(#SVGID_00000165233131623687744150000004564059057011407745_);}
	.st95{clip-path:url(#SVGID_00000156558214317008890000000012181961124788792451_);}
	.st96{clip-path:url(#SVGID_00000111877252047361857700000008695085688539325338_);}
	.st97{clip-path:url(#SVGID_00000062873613703363480550000003826694330975081146_);}
	.st98{clip-path:url(#SVGID_00000133514967685588912360000018188095790886619785_);}
	.st99{clip-path:url(#SVGID_00000005957245466856805200000013022271875517816968_);}
	.st100{clip-path:url(#SVGID_00000139259150361132911180000008574034294388277393_);}
	.st101{clip-path:url(#SVGID_00000175307707618382184270000015275448896510207108_);}
	.st102{clip-path:url(#SVGID_00000106111307157611233790000004471582520285558172_);}
	.st103{clip-path:url(#SVGID_00000029764160474041263060000004925906082613727370_);}
	.st104{clip-path:url(#SVGID_00000117638730881400836300000013755095647154262958_);}
	.st105{clip-path:url(#SVGID_00000170264618841245898590000013981322648309524650_);}
	.st106{clip-path:url(#SVGID_00000181810179633943914310000005031439970610522295_);}
	.st107{clip-path:url(#SVGID_00000101814667106440925730000012349046674859469447_);}
	.st108{clip-path:url(#SVGID_00000078726874978425771130000005590355170867672451_);}
	.st109{clip-path:url(#SVGID_00000015354229807532556660000008400491044367626379_);}
	.st110{clip-path:url(#SVGID_00000092429702855977705490000014985392377335057332_);}
	.st111{clip-path:url(#SVGID_00000041269159416261247780000015949689133834974624_);}
	.st112{clip-path:url(#SVGID_00000142856551509700753560000013782148821780027839_);}
	.st113{clip-path:url(#SVGID_00000047060651757299367280000010186164049791210144_);}
	.st114{clip-path:url(#SVGID_00000127740476273989883040000016666047223583806879_);}
	.st115{clip-path:url(#SVGID_00000168106487768496534700000006204236038657759632_);}
	.st116{clip-path:url(#SVGID_00000051360717027161156460000016779766774281792414_);}
	.st117{fill:#FFFFFF;stroke:#142664;stroke-width:3;stroke-linecap:round;stroke-linejoin:round;}
	.st118{clip-path:url(#SVGID_00000077304411328347534980000016209347058134083233_);}
	.st119{fill-rule:evenodd;clip-rule:evenodd;fill:#FFBCC6;}
	.st120{fill-rule:evenodd;clip-rule:evenodd;fill:#272F60;}
	.st121{fill-rule:evenodd;clip-rule:evenodd;fill:#FFFFFF;}
	.st122{fill-rule:evenodd;clip-rule:evenodd;fill:#FB657C;}
	.st123{clip-path:url(#SVGID_00000127022231273261384730000017879859198818808247_);}
	.st124{clip-path:url(#SVGID_00000093860645341873052600000004028337794824389764_);}
	.st125{clip-path:url(#SVGID_00000054978332926224720460000011269866024358266262_);}
	.st126{clip-path:url(#SVGID_00000044140763395572805270000014082041361990107558_);}
	.st127{clip-path:url(#SVGID_00000138553190971341865390000012628726045488648125_);}
	.st128{clip-path:url(#SVGID_00000163794952641602961660000012700171553766243518_);}
	.st129{clip-path:url(#SVGID_00000072994255366005910920000005791634154189440150_);}
	.st130{clip-path:url(#SVGID_00000161629538459706079400000000329717105288239774_);}
	.st131{clip-path:url(#SVGID_00000142172001279913076470000003712775591210042293_);}
	.st132{clip-path:url(#SVGID_00000119817857712721935760000000308851544849590914_);}
	.st133{clip-path:url(#SVGID_00000018220304945887265660000016662762606419688840_);}
	.st134{clip-path:url(#SVGID_00000183238281249266013730000002990078204696909754_);}
	.st135{clip-path:url(#SVGID_00000028286059933595985960000000522069196036713895_);}
	.st136{clip-path:url(#SVGID_00000036242673800160419670000006111574880993882035_);}
	.st137{clip-path:url(#SVGID_00000163753793802494061010000000045695942969869497_);}
	.st138{clip-path:url(#SVGID_00000093171785725448239290000012799853202323569050_);}
	.st139{clip-path:url(#SVGID_00000048482899092121409830000007793447532686082709_);}
	.st140{clip-path:url(#SVGID_00000061433060144172909080000003455090831086606006_);}
	.st141{clip-path:url(#SVGID_00000129179147784905697060000014723833631678544768_);}
	.st142{clip-path:url(#SVGID_00000170251935298499113020000012154820607264168612_);}
	.st143{clip-path:url(#SVGID_00000072257711117933875340000000363076568533460141_);}
	.st144{clip-path:url(#SVGID_00000173125401900702996110000011442495465023059891_);}
	.st145{clip-path:url(#SVGID_00000074401552434015404870000004072179235243784087_);}
	.st146{clip-path:url(#SVGID_00000031177082545148340590000002044821221947174035_);}
	.st147{clip-path:url(#SVGID_00000103230553195923847030000017132548782022086078_);}
	.st148{clip-path:url(#SVGID_00000141441269445741971680000001476402123085641617_);}
	.st149{clip-path:url(#SVGID_00000127751188348267467370000010563549862669405353_);}
	.st150{clip-path:url(#SVGID_00000127729650616842961150000006975666931175692193_);}
	.st151{clip-path:url(#SVGID_00000069357842667836769380000007790543005621072555_);}
	.st152{clip-path:url(#SVGID_00000005985789218072965630000004739449117252162434_);}
	.st153{clip-path:url(#SVGID_00000099625578634406582670000012434638389180998292_);}
	.st154{clip-path:url(#SVGID_00000090279677514399967440000011160574844840785074_);}
	.st155{clip-path:url(#SVGID_00000097490022403630126590000010006129403807387324_);}
	.st156{clip-path:url(#SVGID_00000082334249569902715820000006794784044323034794_);}
	.st157{clip-path:url(#SVGID_00000130649222658073956870000016274699921273827770_);}
	.st158{clip-path:url(#SVGID_00000132796069242848053220000017639209117274840457_);}
	.st159{clip-path:url(#SVGID_00000064334405221496381610000004072997299655372728_);}
	.st160{clip-path:url(#SVGID_00000077317530653008352110000010848609077941989536_);}
	.st161{clip-path:url(#SVGID_00000047033237660572203940000012359328803915360906_);}
	.st162{clip-path:url(#SVGID_00000001624350934562119330000002976195525520990397_);}
	.st163{clip-path:url(#SVGID_00000115514289001888995070000016545451875183543961_);}
	.st164{clip-path:url(#SVGID_00000047752911528474521050000007122784984546049923_);}
	.st165{clip-path:url(#SVGID_00000152986513740480049040000014293311014949169558_);}
	.st166{clip-path:url(#SVGID_00000146481217776993554760000005640339993136199318_);}
	.st167{clip-path:url(#SVGID_00000176034685688621444880000016322951273573313711_);}
	.st168{clip-path:url(#SVGID_00000022552589599434307550000013632503669456955534_);}
	.st169{clip-path:url(#SVGID_00000061470240688500645760000013697179565539919504_);}
	.st170{clip-path:url(#SVGID_00000129201653575237678910000009509479638559698331_);}
	.st171{clip-path:url(#SVGID_00000065053909316910130580000006800909958589544326_);}
	.st172{clip-path:url(#SVGID_00000145057535461338071610000008404984350953284279_);}
	.st173{clip-path:url(#SVGID_00000012458350013152301670000008370224092051657875_);}
	.st174{clip-path:url(#SVGID_00000153663130890751768610000000214527164715100571_);}
	.st175{clip-path:url(#SVGID_00000086669899385153945460000002576586491409130158_);}
	.st176{clip-path:url(#SVGID_00000123440843717066750880000012276324327232652962_);}
	.st177{clip-path:url(#SVGID_00000013162742588981620980000016601434642769672629_);}
	.st178{clip-path:url(#SVGID_00000116923952022001224730000010906835770461452427_);}
	.st179{clip-path:url(#SVGID_00000170275868364612276600000013856635703670708870_);}
	.st180{clip-path:url(#SVGID_00000092414078587903166740000002423458581637266084_);}
	.st181{clip-path:url(#SVGID_00000060731367971076975440000012850767257561438120_);}
	.st182{clip-path:url(#SVGID_00000007403978382910008270000011856139959345931428_);}
	.st183{clip-path:url(#SVGID_00000154408453550061724980000009418103244676422062_);}
	.st184{clip-path:url(#SVGID_00000044880783371080202450000009901677888084979111_);}
	.st185{clip-path:url(#SVGID_00000005986376790205722330000014658795944616551583_);}
	.st186{clip-path:url(#SVGID_00000026121194058294258280000008130164849365896889_);}
	.st187{clip-path:url(#SVGID_00000181807029351628235070000008117313900156482235_);}
	.st188{clip-path:url(#SVGID_00000103259713201959333910000016340410024922213261_);}
	.st189{clip-path:url(#SVGID_00000057845562249546653990000018142175119564040326_);}
	.st190{clip-path:url(#SVGID_00000096031243209973592810000016991593465379459772_);}
	.st191{clip-path:url(#SVGID_00000144307475609415978670000008138166380046183571_);}
	.st192{clip-path:url(#SVGID_00000034781627384576085790000004383969190890076094_);}
	.st193{clip-path:url(#SVGID_00000014632151913623800870000014779394516486494646_);}
	.st194{clip-path:url(#SVGID_00000132077610782405357270000010907791966869669271_);}
	.st195{clip-path:url(#SVGID_00000177447665205872367150000003752671198819278737_);}
	.st196{clip-path:url(#SVGID_00000098943311120364873850000007830420016382094782_);}
	.st197{clip-path:url(#SVGID_00000059310704691181694870000010844850006790206608_);}
	.st198{clip-path:url(#SVGID_00000111156751233830821060000014925812256544509830_);}
	.st199{clip-path:url(#SVGID_00000016760893858281409820000010305173873526783402_);}
	.st200{clip-path:url(#SVGID_00000040548558628556686180000005402604462022180251_);}
	.st201{clip-path:url(#SVGID_00000090264443535001494530000002692429496935235203_);}
	.st202{clip-path:url(#SVGID_00000152962419378603267420000014300837269099935628_);}
	.st203{clip-path:url(#SVGID_00000175299737281136589610000001782449961504372639_);}
	.st204{clip-path:url(#SVGID_00000153681334619851717920000002791111128408942778_);}
	.st205{clip-path:url(#SVGID_00000067213209461057918610000013765091491616312244_);}
	.st206{clip-path:url(#SVGID_00000137089962135804201500000001774102844470139038_);}
	.st207{clip-path:url(#SVGID_00000127046115597158279270000014593457645529599106_);}
	.st208{clip-path:url(#SVGID_00000113332284093569090420000007375004138562113950_);}
	.st209{clip-path:url(#SVGID_00000039826058613748286800000016989433058653632419_);}
	.st210{clip-path:url(#SVGID_00000178197112392062701470000009951506297557788818_);}
	.st211{clip-path:url(#SVGID_00000167394755614518956970000014594424630522126990_);}
	.st212{clip-path:url(#SVGID_00000130607646147646396960000017512722067977342354_);}
	.st213{clip-path:url(#SVGID_00000145737144697754830790000007269981691133684375_);}
	.st214{clip-path:url(#SVGID_00000153675325143103642260000006308629179032779929_);}
	.st215{clip-path:url(#SVGID_00000083078500878077784400000012493847653920904880_);}
	.st216{clip-path:url(#SVGID_00000180328282298041331530000012193584784642781613_);}
	.st217{clip-path:url(#SVGID_00000000904905559207976410000013243190143286817690_);}
	.st218{clip-path:url(#SVGID_00000018216068873675483920000018228045811202926994_);}
	.st219{clip-path:url(#SVGID_00000165194787802484234010000005195972857771811487_);}
	.st220{clip-path:url(#SVGID_00000110471187508976965050000013681358919828457616_);}
	.st221{clip-path:url(#SVGID_00000182500415491920854860000001508830186180448166_);}
	.st222{clip-path:url(#SVGID_00000121987505081049848650000014795707400927585425_);}
	.st223{clip-path:url(#SVGID_00000067218772106959898220000013568065915851299737_);}
	.st224{clip-path:url(#SVGID_00000055666556293241515070000007559083081538914445_);}
	.st225{clip-path:url(#SVGID_00000135667926757617272330000013380381426676492988_);}
	.st226{clip-path:url(#SVGID_00000138544309293042868420000017324049692296905880_);}
	.st227{clip-path:url(#SVGID_00000148655671853678400480000011879566908766393764_);}
	.st228{clip-path:url(#SVGID_00000003104489842670191380000005286732074656054406_);}
	.st229{clip-path:url(#SVGID_00000155865073836515761450000008803428097530552751_);}
	.st230{clip-path:url(#SVGID_00000155860304910086574030000012681745198878296211_);}
	.st231{clip-path:url(#SVGID_00000036252602781161819110000014784444278838234547_);}
	.st232{clip-path:url(#SVGID_00000089559555768839549310000015344786731407003554_);}
	.st233{clip-path:url(#SVGID_00000167356161954465945150000003973907031011052208_);}
	.st234{clip-path:url(#SVGID_00000172426066982477596020000008205463085975687829_);}
	.st235{clip-path:url(#SVGID_00000178897480120430998860000003304669769629519250_);}
	.st236{clip-path:url(#SVGID_00000081648396526245763760000004126316789179661447_);}
	.st237{clip-path:url(#SVGID_00000037674846358877946260000000710870900816122001_);}
	.st238{clip-path:url(#SVGID_00000045606732722729253800000017085792842257379228_);}
	.st239{clip-path:url(#SVGID_00000137840758099688150960000017400905157085051813_);}
	.st240{clip-path:url(#SVGID_00000034796895054206994480000006204256347820904891_);}
	.st241{clip-path:url(#SVGID_00000029045305439814813680000018222836360081737623_);}
	.st242{clip-path:url(#SVGID_00000038405978502759734970000010296405271869046202_);}
	.st243{clip-path:url(#SVGID_00000041269295840683399930000017987235545118041761_);}
	.st244{clip-path:url(#SVGID_00000101790712749839092780000018084884867873912471_);}
	.st245{clip-path:url(#SVGID_00000054977251056907057460000008564406268219900045_);}
	.st246{clip-path:url(#SVGID_00000084510888341340254700000016749277900079358616_);}
	.st247{clip-path:url(#SVGID_00000124141904583277377000000007985176667442858668_);}
	.st248{clip-path:url(#SVGID_00000096771842171510020440000013428988688973742491_);}
	.st249{clip-path:url(#SVGID_00000155850342782747445030000018083071653142699155_);}
	.st250{clip-path:url(#SVGID_00000117661089729995883470000005950468317473748631_);}
	.st251{clip-path:url(#SVGID_00000083066420300438433260000009598410940922749107_);}
	.st252{clip-path:url(#SVGID_00000176741232503784318970000000375088390979970957_);}
	.st253{fill:#E94966;}
	.st254{fill:#13224F;}
	.st255{fill:url(#);}
	.st256{clip-path:url(#SVGID_00000102538712353970405640000001506901216888344241_);}
	.st257{fill:#FFCE00;}
	.st258{fill-rule:evenodd;clip-rule:evenodd;fill:#FD657C;}
	.st259{clip-path:url(#SVGID_00000046311844393478392890000008281139702914064301_);}
	.st260{fill:url(#SVGID_00000143579217084206060580000003644215107062619298_);}
	.st261{fill:#FFFFFF;stroke:#FFFFFF;stroke-width:10;}
	.st262{fill:none;stroke:#272F60;stroke-width:3;stroke-linecap:round;stroke-linejoin:round;}
	.st263{clip-path:url(#SVGID_00000085232920758539545220000007698778262205019819_);}
	.st264{fill:none;stroke:#FFFFFF;stroke-width:5;}
	.st265{fill:#3580F8;}
	.st266{clip-path:url(#SVGID_00000017503216841928591430000012454808248991715979_);}
	.st267{fill:#FDF2F5;}
	.st268{clip-path:url(#SVGID_00000014616016550756077380000005828303078160965530_);}
	.st269{fill:#44C400;}
	.st270{clip-path:url(#SVGID_00000049212309562449804070000012634332963449396411_);}
	.st271{clip-path:url(#SVGID_00000124151353065018865780000015251308885119026066_);}
	.st272{clip-path:url(#SVGID_00000153704101612931343870000017934322696862953132_);}
	.st273{fill:#F1AAB9;}
	.st274{fill:#E34C6A;}
	.st275{clip-path:url(#SVGID_00000173133966616575312790000008854952670902567068_);}
	.st276{clip-path:url(#SVGID_00000096038837192896108250000010802942754603271317_);}
	.st277{clip-path:url(#SVGID_00000142137631328400753230000005934477802395563430_);}
	.st278{clip-path:url(#SVGID_00000045600944433023262690000002071353129691816119_);}
	.st279{clip-path:url(#SVGID_00000151527184523222233860000013886978466984807313_);}
	.st280{clip-path:url(#SVGID_00000138530908752646734560000010734751853845853584_);}
	.st281{clip-path:url(#SVGID_00000016042612349329751140000004196020409766934953_);}
	.st282{clip-path:url(#SVGID_00000149340495201250733180000009232820821296802982_);}
	.st283{display:none;}
	.st284{display:inline;}
	.st285{display:inline;enable-background:new    ;}
	.st286{clip-path:url(#SVGID_00000068657754716018560350000012760990083782201762_);}
	.st287{clip-path:url(#SVGID_00000090972810552581587400000004746500580754290868_);}
	.st288{clip-path:url(#SVGID_00000147912444700164413770000013198226345461273016_);}
	.st289{clip-path:url(#SVGID_00000182497031410657014880000015042179233895805333_);}
	.st290{fill:none;stroke:#FFFFFF;stroke-miterlimit:10;}
	.st291{clip-path:url(#SVGID_00000150067472716766970810000003748609754635756455_);}
	.st292{clip-path:url(#SVGID_00000057838247811596566670000013012593363159282316_);}
	.st293{clip-path:url(#SVGID_00000075159320980278899190000003807734459779773329_);}
	.st294{clip-path:url(#SVGID_00000113325355000029850410000014784966859208396449_);}
	.st295{clip-path:url(#SVGID_00000090987313128015381660000015345426569263723672_);}
	.st296{clip-path:url(#SVGID_00000103256860221811502860000002681266909285122739_);}
	.st297{clip-path:url(#SVGID_00000145750859732116548680000010170457264020373169_);}
	.st298{clip-path:url(#SVGID_00000011021605629429985730000007616535369002486199_);}
	.st299{clip-path:url(#SVGID_00000020366662474879375650000018176568034159139242_);}
	.st300{clip-path:url(#SVGID_00000065061767069515771990000011861331035188206741_);}
	.st301{clip-path:url(#SVGID_00000061438481114041557400000006810036818835086003_);}
	.st302{clip-path:url(#SVGID_00000170236346791781758890000012153861006313405344_);}
	.st303{clip-path:url(#SVGID_00000098187964964265887620000003235253943544715188_);}
	.st304{clip-path:url(#SVGID_00000105422113095602969840000007011178557433523333_);}
	.st305{clip-path:url(#SVGID_00000055703020352977362910000011730080205786730928_);}
	.st306{clip-path:url(#SVGID_00000094609194775112727270000000885161490196101781_);}
	.st307{fill:none;stroke:#142664;stroke-width:4.0018654;stroke-linecap:round;stroke-linejoin:round;stroke-miterlimit:4.0018654;}
	.st308{clip-path:url(#SVGID_00000096740777539909253920000001797912586221140390_);}
	.st309{clip-path:url(#SVGID_00000111182527499224794710000003155635056221532302_);}
	.st310{clip-path:url(#SVGID_00000052095356190543572120000013645852958135169685_);}
	.st311{clip-path:url(#SVGID_00000094584735363934682110000001443338028553728664_);}
	.st312{clip-path:url(#SVGID_00000114039844489540060240000008432769585791151749_);}
	.st313{clip-path:url(#SVGID_00000048479118616035405990000003218939120609430657_);}
	.st314{clip-path:url(#SVGID_00000077301817759155900690000012618423128759329952_);}
	.st315{clip-path:url(#SVGID_00000062160862558889417640000015475937037741379476_);}
	.st316{clip-path:url(#SVGID_00000007395695283749314050000005282153441226682283_);}
	.st317{clip-path:url(#SVGID_00000011749222515774935370000009157598909081467520_);}
	.st318{clip-path:url(#SVGID_00000088110741170974558160000009227090210108650635_);}
	.st319{clip-path:url(#SVGID_00000174601663473939912650000008356511760677028782_);}
	.st320{clip-path:url(#SVGID_00000072256108340233846900000002611247379891100555_);}
	.st321{clip-path:url(#SVGID_00000170274888627969239200000001099691548318083718_);}
	.st322{clip-path:url(#SVGID_00000067225017713425783340000002111440986346813828_);}
	.st323{clip-path:url(#SVGID_00000071521435332502026910000004635007340259802015_);}
	.st324{clip-path:url(#SVGID_00000105397172250848153660000014212481290656137662_);fill:#FD657C;}
	.st325{clip-path:url(#SVGID_00000105397172250848153660000014212481290656137662_);fill:#272F60;}
</style>
<g id="FONDS">
</g>
<g id="ILLUSTRATIONS">
</g>
<g id="TEXTES_FR" class="st283">
</g>
<g id="TEXTES_GB">
</g>
<g id="Calque_5">
	<g>
		<g id="Groupe_1960">
			<path id="Tracé_6662" class="st19" d="M54.8678131,309.9440918c13.8449936-3.6300049,17.7490005-11.03302,16.8460007-18.9140015
				S65.33181,276.821106,51.0258179,276.4221191c-16.760006-0.467041-44.7470055,18.0489502-50.7060051,22.131958
				c-0.3369685,0.2332153-0.4210859,0.6954346-0.1878813,1.0324097c0.0834021,0.1204834,0.2006243,0.213623,0.3368813,0.2675781
				c6.7280002,2.6290283,38.1790009,14.3339844,54.4000015,10.0900269"/>
			<path id="Tracé_6663" class="st12" d="M320.1138,255.8031006L67.6348114,284.7390747
				c0,0-2.9409943,0.3369751-2.1600037,7.1469727s3.720993,6.4730225,3.720993,6.4730225l252.4790039-28.9370117
				c0,0,4.0849915-0.4680176,3.2999878-7.2780151S320.1138,255.8031006,320.1138,255.8031006"/>
			<path id="Tracé_6664" class="st12" d="M125.9008179,278.1931152c-0.2630005-2.2410278-2.0249939-3.8759766-3.9389954-3.6569824
				l-54.1759949,6.2089844c0,0-3.9470024,0.4530029-2.7319946,11.0469971
				c1.2150116,10.5939941,5.1609955,10.1420288,5.1609955,10.1420288l54.2149963-6.2130127
				c1.9230042-0.2210083,3.2709961-2.2290039,3.0059967-4.4819946L125.9008179,278.1931152z"/>
			<path id="Tracé_6665" class="st12" d="M158.3227997,111.8500977c-0.1547241,0.6590881-0.2016602,1.3388977-0.1390076,2.0130005
				c0.0473633,0.6921387,0.2001343,1.3729706,0.4530029,2.0189972c0.0522461,1.1973267,1.0651855,2.1255951,2.2625122,2.0733643
				s2.1256104-1.0652008,2.0733643-2.2625122c-0.0005188-0.0119629-0.0011292-0.0239105-0.0018616-0.0358582
				c0-0.0160065,0-0.0330048,0-0.048996c0.1546631-0.6591034,0.2015991-1.3388977,0.1390076-2.0130005
				c-0.0473633-0.6921387-0.2001343-1.3729706-0.4530029-2.0189972c-0.0522461-1.1973267-1.0651855-2.1255951-2.2625122-2.0733643
				s-2.1256104,1.0652008-2.0733643,2.2625122c0.0005188,0.0119629,0.0011292,0.0239105,0.0018616,0.0358582
				C158.3227997,111.8181,158.3227997,111.8341064,158.3227997,111.8500977"/>
			<path id="Tracé_6666" class="st12" d="M248.8048096,268.5250854c0.2369995,2.2000122,0.4400024,4.552002,0.5610046,7.0230103
				c0.6879883,13.992981-0.0249939,49.2000122-0.1119995,54.5640259c-0.0289917,2.2000122-18.5,0.4000244-18.7470093-1.7940063
				l-6.7179871-49.8380127l-0.9400024-6.9790039L248.8048096,268.5250854z"/>
			<path id="Tracé_6667" class="st12" d="M209.1158142,273.0761108c0.2369995,2.2000122,0.4389954,4.552002,0.5599976,7.0230103
				c0.6879883,13.9940186-0.0249939,49.2000122-0.1119995,54.5629883c-0.0289917,2.2000122-18.5,0.4000244-18.7470093-1.7940063
				l-6.7170105-49.8369751l-0.9410095-6.9790039L209.1158142,273.0761108z"/>
			<path id="Tracé_6668" class="st12" d="M265.0908203,339.9020691c-0.6520386,1.2585449-1.8793335,2.1177979-3.2849731,2.2999878
				l-14.3390198,1.6430054c-3.4729919,0.4000244-4.9599915-5.3499756-8.4490051-4.9500122
				c-0.5169983,0.059021-0.2999878,0.960022-0.2829895,2.6220093c0.006012,0.3099976,0,0.6220093-0.0270081,0.9279785
				c0.000946,0.022583-0.0014038,0.045166-0.0069885,0.0670166c-0.2019653,1.3070068-1.2019348,2.3469238-2.5,2.5999756
				c-0.820343,0.1115112-1.6554871-0.0137329-2.4070129-0.3610229c-0.9083557-0.5206909-1.513855-1.4434814-1.6300049-2.4840088
				c-0.677002-5.2639771-1.7219849-14.3759766-1.7219849-14.3759766s12.730011-3.7520142,21.5270081-2.46698
				c6.5409851,0.9520264,10.7610168,6.1640015,13.1000061,10.4089966
				C265.7385254,337.1048279,265.7467651,338.6231384,265.0908203,339.9020691z"/>
			<path id="Tracé_6669" class="st12" d="M225.4038239,344.4501038c-0.6517944,1.2587891-1.8792114,2.118103-3.2850037,2.2999878
				l-14.3389893,1.6430054c-3.4729919,0.4000244-4.9590149-5.3499756-8.447998-4.9500122
				c-0.5180054,0.059021-0.2999878,0.960022-0.2829895,2.6220093c0.0050049,0.3099976,0,0.6220093-0.0270081,0.9279785
				c0.0009766,0.022583-0.0013733,0.045166-0.0069885,0.0670166c-0.2019653,1.3070068-1.2019348,2.3469238-2.5,2.5999756
				c-0.820343,0.1115112-1.6554871-0.0137329-2.4070129-0.3610229c-0.9082947-0.5202637-1.513855-1.442688-1.6300049-2.4829712
				c-0.677002-5.2639771-1.7219849-14.3759766-1.7219849-14.3759766s12.730011-3.7520142,21.5270081-2.46698
				c6.5409851,0.9520264,10.7609863,6.1640015,13.1000061,10.4089966
				C226.0518646,341.6537781,226.0597076,343.1716003,225.4038239,344.4501038z"/>
			<path id="Tracé_6670" class="st17" d="M254.3437805,180.9680786c-0.3132935,0.011261-0.6060791-0.1556396-0.7559814-0.4309998
				c-2.4639893-4.723999-0.0570068-11.2149963,1.6170044-14.5069885c1.6480103-3.2399902,4.875-9.5100098,7.7709961-9.0239868
				c2.1209717,0.355011,2.1469727,3.4259949,1.0430298,6.8569946c-0.1496582,0.4385376,0.0844727,0.9153748,0.5230103,1.0650635
				c0.277832,0.0948181,0.585022,0.0375366,0.8099976-0.151062c4.8610229-4.1369934,14.9650269-13.5620117,19.7999878-10.3940125
				c3.4420166,2.2520142,3.0999756,12.447998,1.2399902,17.118988c-1.9069824,4.8049927-10.7369995,8.6789856-15.809021,10.7999878
				c-0.0999756,0.0419922-6.0999756,2.3999939-6.2069702,2.4070129L254.3437805,180.9680786z"/>
			<path id="Tracé_6671" class="st19" d="M151.9768066,147.7120819c0,0,30.822998-6.7130127,50.7999878,16.6809998
				c9,10.5350037,9.2430115,29.2940063,15.8999939,26.8420105c6.3999939-2.3540039,33.1659851-10.6279907,34.6619873-4.9590149
				c0.993988,3.7690125,15.2359924,8.5320129,13.1270142,11.1879883
				c-6.0079956,7.5690002-17.0939941,11.6170044-25.5279846,22.2409973
				c-5.9890137,7.5429993-12.2789917,10.9500122-20.6170044,9.019989
				c-5.4179993-1.2569885-11.1749878-7.8479919-13.5410156-10.928009
				c-8.8049927-11.4590149-10.9779968-14.3320007-16.3160095-20.1640015
				C182.6638184,189.1031036,142.1628113,163.8860931,151.9768066,147.7120819z"/>
			<path id="Tracé_6672" class="st17" d="M109.0208054,258.9041138c0.2899017-0.1196899,0.6225586-0.0650635,0.8589935,0.1409912
				c3.9519958,3.5700073,3.9570007,10.4949951,3.5339966,14.1630249
				c-0.4170074,3.6119995-1.2599945,10.6129761-4.1430054,11.1669922c-2.1109924,0.4060059-3.1999969-2.4639893-3.3639984-6.0650024
				c-0.0120392-0.4626465-0.3968506-0.8279419-0.8595123-0.815918c-0.2940674,0.0076294-0.5625916,0.1689453-0.707489,0.4249268
				c-3.1170044,5.5720215-7.2100067,16.8590088-12.2279968,16.9249878c-6.0419922,0.0809937-7.4859924-14.9520264-5-19.8729858
				c4.1390076-8.1829834,9.1690063-7.4639893,13.1840057-11.2219849c0.0789948-0.0739746-2.0870056-4.8170166-1.9869995-4.8560181
				L109.0208054,258.9041138z"/>
			<path id="Tracé_6673" class="st19" d="M99.4528046,268.1531067c7.1069946-0.5,26.5639954-40.3460236,28.1080017-52.8110199
				c0.4230042-3.3999939,1.6999969,7.1000061,2.4750061,13.8559875c0.6660004,5.7460022,1.326004,11.3070068,1.8999939,16.1390076
				c0.1929932,1.6199951,0.378006,3.1669922,0.5429993,4.605011c0.2570038,2.1830139,1.5679932,4.8439941,4.6080017,4.6650085
				c32.8000031-1.9169922,55.1150055-4.1860046,66.0999908-6.4370117c2.1740112-0.4490051,3.6459961-2.821991,3.4670105-5.2869873
				c-0.1710205-2.0291443-0.1874084-4.0683594-0.0490112-6.1000061c0.1902161-2.2363586,0.1748047-4.4854431-0.04599-6.7189941
				c-0.2640076-3.1440125-0.5650024-6.348999-0.8779907-9.5310059c-0.2479858-2.5539856-0.5100098-5.0899963-0.7799988-7.5750122
				c-1.7369995-16.1940002-3.6279907-30.0480042-3.6279907-30.0480042c-3.5-18.0480042-6.3529968-28.0119934-20.1199951-32.6109924
				c-7.2828979-2.5137634-14.9689636-3.6544189-22.6679993-3.3640137c-0.0468445-0.0046692-0.0941315-0.0016174-0.1399994,0.0090027
				l-0.3890076,0.0220032c-3.5098724,0.1726379-7.0008698,0.6196594-10.4409943,1.3370056
				c-36.0679932,7.3739929-44.1000061,40.0119934-46.1809998,46.0159912
				c-1.1109924,3.2109985-3.4850006,9.2380066-4.6260071,12.5750122
				c-4.5200043,13.2179871-19.5769958,30.3139954-17.3000031,51.5670319
				C80.2728119,266.5531006,81.7628174,269.4071045,99.4528046,268.1531067z"/>
			<path id="Tracé_6674" class="st12" d="M141.8308105,197.5800781l0.0589905,0.1300049
				c0.0549927,0.1261597,0.1184692,0.2484436,0.1900024,0.3659973c0.2445374,0.4532471,0.5223083,0.8877563,0.8309937,1.2999878
				c1.0761414,1.42099,2.4888916,2.5519714,4.1109924,3.2909851c2.2530823,0.9964905,4.7471008,1.3171692,7.1789856,0.9230042
				c1.4555664-0.2374268,2.8523254-0.7509766,4.1149902-1.5130005c1.140564-0.6600952,2.1737976-1.4903259,3.0639954-2.4620056
				c0.7159424-0.7919617,1.3334351-1.6676636,1.8389893-2.6080017c0.3279724-0.6315308,0.6148987-1.2835693,0.8590088-1.9519958
				c0.1470032-0.4779968,0.2269897-0.743988,0.2269897-0.743988c0.3337402-0.6655273,0.0652161-1.4756165-0.6000061-1.8099976
				l-0.0669861-0.0320129c-0.7003174-0.0651855-1.3445129,0.3871765-1.5209961,1.0679932l-0.243988,0.6119995
				c-0.249054,0.5324707-0.5288391,1.0500183-0.8380127,1.5499878c-1.0061646,1.5808716-2.4187927,2.8622437-4.0899963,3.7099915
				c-1.0233154,0.4935913-2.1058655,0.8535461-3.2210083,1.0710144c-1.8433533,0.331604-3.7417297,0.1662598-5.5-0.4790039
				c-1.2506409-0.4684143-2.375-1.2216492-3.2839966-2.2000122l-0.4389954-0.5159912l-0.2999878-0.4159851
				c-0.0666504-0.084259-0.1261902-0.1738892-0.178009-0.2680054l-0.0559998-0.1000061
				c-0.0769043-0.1659241-0.184845-0.3156433-0.3179932-0.4410095c-0.1108704-0.1242676-0.2429199-0.2278748-0.3900146-0.3059998
				c-0.2770081-0.1559448-0.6024475-0.2023315-0.9119873-0.1300049c-0.3519287,0.1089783-0.6188354,0.3976135-0.7000122,0.7569885
				c-0.0519714,0.1955261-0.0658875,0.399231-0.0409851,0.6000061
				C141.646759,197.1918945,141.7228394,197.3943787,141.8308105,197.5800781z"/>
			<path id="Tracé_6675" class="st12" d="M173.0688171,193.5480957l0.0580139,0.1300049
				c0.0548096,0.1262512,0.1182861,0.2485352,0.1900024,0.3659973c0.2442017,0.4534302,0.5219727,0.8880005,0.8309937,1.2999878
				c1.0757446,1.42099,2.4881592,2.5519714,4.1099854,3.2909851c2.253418,0.996582,4.7477722,1.3172302,7.1799927,0.9230042
				c1.4554443-0.2372742,2.8521729-0.7504578,4.1149902-1.5119934c1.140686-0.6599426,2.1739197-1.4901733,3.0639954-2.4620056
				c0.7160034-0.7921753,1.3338013-1.6678162,1.8399963-2.6080017c0.3279114-0.6314392,0.614502-1.2834778,0.8580017-1.9519958
				l0.2269897-0.743988c0.3337402-0.6655273,0.0652161-1.4756165-0.6000061-1.8099976l-0.0669861-0.0320129
				c-0.700531-0.06604-1.3452454,0.3866577-1.5209961,1.0679932l-0.243988,0.6119995
				c-0.2489319,0.5328674-0.5287476,1.0507507-0.8380127,1.5509949c-1.0065613,1.5805664-2.4190674,2.8618469-4.0899963,3.7099915
				c-1.0233154,0.4935913-2.1058655,0.8535461-3.2210083,1.0710144c-1.8433533,0.3315125-3.7417297,0.1661682-5.5-0.4790039
				c-1.2492065-0.4689636-2.3721313-1.222168-3.2799988-2.2000122l-0.4389954-0.5159912l-0.2999878-0.4159851
				c-0.0667725-0.0841675-0.1263123-0.1738281-0.178009-0.2680054l-0.0570068-0.1000061
				c-0.1612549-0.3104858-0.4066162-0.5693359-0.7080078-0.7470093c-0.2773132-0.1551514-0.6025391-0.2011414-0.9119873-0.1289978
				c-0.3513489,0.1098938-0.6179199,0.3981323-0.7000122,0.7569885c-0.0511475,0.1956787-0.0647278,0.3992615-0.0400085,0.6000061
				C172.8871155,193.1617126,172.9621582,193.3631592,173.0688171,193.5480957z"/>
			<path id="Tracé_6676" class="st12" d="M206.0718079,219.2991028c0,0-0.3410034-4.8630066-1.0419922-11.4450073
				c-0.4089966-3.4500122-0.8999939-7.4299927-1.5419922-11.3779907c-0.3699951-2.2279968-0.8150024-4.6220093-1.3299866-6.8120117
				c-0.9330139-4.3250122-1.9729919-8.2330017-2.8340149-11.0409851l-0.5870056-1.8940125l-0.4909973-1.4240112
				l-0.4200134-1.2090149c-0.5140076-1.5-1.4219971-2.3519897-2-2.1889954
				c-0.6419983,0.2059937-0.6560059,1.5809937-0.2200012,2.8670044c0,0,0.1229858,0.4299927,0.3519897,1.2070007
				c0.1140137,0.3869934,0.2520142,0.8590088,0.4129944,1.4089966l0.4920044,1.8779907
				c0.7179871,2.7799988,1.5740051,6.6380005,2.3349915,10.8699951c0.3840027,2.2120056,0.7650146,4.4070129,1.1749878,6.7720032
				c0.6409912,3.8999939,1.2630005,7.7929993,1.743988,11.1929932c0.8890076,6.4689941,1.5679932,11.3859863,1.5679932,11.3859863
				c0.1350098,1.5490112,0.8049927,2.5870056,1.4049988,2.5859985c0.7489929-0.0409851,1.1669922-1.4110107,0.9809875-2.776001"/>
			<path id="Tracé_6677" class="st19" d="M132.5538177,249.9350891c3.1279907,27.2939758,6.9339905,33.2489929,36,34.6819763
				c9.052002,0.4420166-0.7120056,20.9689941,4.8299866,31.6500244c1.2070007,2.3270264,4.3999939,2.0170288,5.993988,1.8339844
				l80.7639923-9.257019c1.2054749-0.135498,2.073761-1.2212524,1.9410095-2.427002
				c-0.5549927-5.0930176-1.8819885-42.4379883-20.989975-54.1270142
				c-9.8819885-6.0429993-25.9509888-6.5910034-32.1629944-15.7770081
				c-1.2817078-1.9338684-2.0690918-4.1528015-2.2929993-6.4620056l-43.730011,11.7359924L132.5538177,249.9350891z"/>
			<path id="Tracé_6678" class="st17" d="M147.172821,144.2120972
				c-9.0480042-5.8339996-15.1900024-17.7890015-16.9299927-27.7359924
				c-2.5000076-14.3000031-1.2130127-23.1430054,1.3710022-28.6820068
				c4.1966553-9.1239319,12.7455139-15.4871674,22.6900024-16.8890076c0.4779968-0.0650024-0.4809875,0.0440063,0,0
				c11.0100098-1.0460052,21.2070007,2.0079956,26.7909851,9.753006c5.8999939,8.1779938,7.5710144,17.6349945,7.7879944,28.0540009
				c0.3110046,14.8430023-1.446991,26.1679993-13.5079956,33.9710083c0,0,0.4869995,3.6000061,0.6799927,5.2839966
				c0.1464233,1.1723175-0.5666809,2.2815552-1.6940002,2.6349945c-5.7900085,1.473999-18.0130005,2.6360016-24,2.677002
				c-1.2365112,0.0017242-2.2719727-0.9363251-2.3919983-2.1670074l-0.7909851-6.8999939H147.172821z"/>
			<path id="Tracé_6679" class="st17" d="M154.3878174,70.8900909l-0.0880127,0.0099945
				C153.9917908,70.9250793,154.2618103,70.8940887,154.3878174,70.8900909"/>
			<path id="Tracé_6680" class="st12" d="M180.6907959,108.9920883c-0.1546936,0.6591034-0.2016296,1.3388977-0.1390076,2.0130005
				c0.0473633,0.6921387,0.2001343,1.3729706,0.4530029,2.0189972c0.0908203,1.1950073,1.1331787,2.0901489,2.328186,1.9993439
				c1.1736755-0.0891876,2.0622559-1.0977936,2.0028076-2.2733459c0.1547241-0.6590881,0.2016602-1.3388977,0.1390076-2.0130005
				c-0.0473633-0.6921387-0.2001038-1.3729858-0.4530029-2.0189972c-0.0908203-1.1950073-1.1331787-2.0901489-2.328186-1.9993439
				C181.519928,106.80793,180.6313477,107.8165359,180.6907959,108.9920883"/>
			<path id="Tracé_6681" class="st12" d="M158.2388,111.1210938c-0.1547241,0.6590881-0.2016602,1.3388977-0.1390076,2.0130005
				c0.0473633,0.6921387,0.2001343,1.3729706,0.4530029,2.0189972c0.0522461,1.1973267,1.0651855,2.1255951,2.2625122,2.0733643
				s2.1256104-1.0652008,2.0733643-2.2625122c-0.0005188-0.0119629-0.0011292-0.0239105-0.0018616-0.0358582
				c0-0.0160065,0-0.0330048,0-0.048996c0.1546631-0.6591034,0.2016296-1.3388977,0.1390076-2.0130005
				c-0.0473938-0.6921234-0.2001343-1.3729706-0.4530029-2.0189972c-0.0522461-1.1973267-1.0651855-2.1255951-2.2625122-2.0733643
				s-2.1256104,1.0652008-2.0733643,2.2625122c0.0005188,0.0119629,0.0011292,0.0239105,0.0018616,0.0358582
				C158.2388,111.0890961,158.2388,111.1051025,158.2388,111.1210938"/>
			<path id="Tracé_6682" class="st12" d="M212.5157928,137.4350891c1.5,13.0549927-6.0620117,24.6410065-16.8840027,25.8809967
				c-8.6400146,0.9900055-17.8630066-3.0429993-19.6640015-15.9819946c-0.2149963-1.8170013-0.6000061-4.651001-0.6000061-4.651001
				c12.0580139-7.8000031,13.8210144-19.1300049,13.5090027-33.9720001
				c-0.2000122-9.3130035-1.5499878-17.8500061-6.053009-25.3999939c-0.0090027-0.0140076-0.0100098-0.029007-0.0190125-0.0429993
				c-5.4241943,2.882309-11.2422791,4.9523926-17.2680054,6.1439972h-0.0150146
				c-2.0490112,0.3159943-4.1539917,0.6459961-6.2000122,0.9620056c-0.0140076,0-0.0140076,0-0.0209961,0.0090027
				c-2.7047424,0.1892395-5.3667297,0.7765656-7.8999939,1.7429962
				c-6.3088074,2.5378418-10.3760071,8.7291565-10.2000122,15.5270081v0.2149963
				c0.3008118,6.0916138,1.510498,12.1040497,3.5889893,17.8379974c4.9200134,12.345993,5.1000061,22.2079926,4.4679871,27.3110046
				c-0.0986938,0.9682465-0.2779846,1.9265747-0.5360107,2.8650055c-0.0390015,0.1750031-0.1730042,0.5599976-0.1889954,0.6060028
				l-0.0249939-0.0189972c-2.0859985,6.3119965-7.2739868,13.423996-14.3110046,14.727005
				c-12.1840057,2.2539978-25.1410065-4.5619965-27.7429962-14.0350037
				c-2.5279999-9.2230072-1.5679932-18.5809937,4.4799957-25.1629944l-0.022995-0.0110016
				c0.0800018-0.0749969,0.1439972-0.1580048,0.2250061-0.2250061c0.473999-0.5050049,0.9680023-0.9700012,1.4839935-1.4360046
				c7.7649994-7.7839966,9.5220032-14.0590057,3.8150024-24.8930054l0.0209961-0.0099945
				c-0.4982758-0.8516541-0.9405518-1.734848-1.3240051-2.6439972
				c-4.8849945-11.8540039,2.7570038-26.3339996,10.9450073-32.4889984
				c5.9053497-4.9776611,12.3203583-9.317112,19.138092-12.9460182c4.42099-2.2630005,11.4379883-5.0749969,19.243988-4.840004
				c6.2319946,0.1869965,21.5369873-2.5660019,27.6799927,14.0519981
				c4.0050049,10.8330078,5.868988,31.1529999,6.2000122,35.9819946c0.651001,9.4160004,4.7999878,17.1369934,7.9760132,20.5679932
				c0.7271423,0.7526245,1.3891907,1.5655365,1.9790039,2.4299927
				C210.6053619,129.1210785,212.050827,133.1948853,212.5157928,137.4350891z"/>
			<path id="Tracé_6683" class="st12" d="M172.1858215,143.1580811c0,0-0.6650085,0-1.9049988,0.1440125
				c-0.7999878,0.0920105-1.7520142,0.2000122-2.8380127,0.3999939c-0.8680115,0.1740112-1.7999878,0.4289856-2.7999878,0.6910095
				c-0.6480103,0.1480103-1.2149963,0.3609924-1.928009,0.5910034c-0.8561096,0.0284424-1.5270996,0.7455139-1.4986572,1.6016541
				c0.0270386,0.8131104,0.6777039,1.4671326,1.4906616,1.4983521h0.0679932
				c0.7550049,0.1359863,1.4370117,0.2799988,2.1830139,0.3420105c1.0805664,0.0898743,2.1682434,0.0397949,3.2359924-0.1489868
				c1.0762329-0.2152405,2.1291504-0.5340576,3.1440125-0.9519958c0.6920776-0.2861633,1.3449707-0.6591492,1.9429932-1.1099854
				c0.7997437-0.3147583,1.1931763-1.2180176,0.8789978-2.0180054v-0.006012
				c-0.2080688-0.8018799-1.0267639-1.2832642-1.8286438-1.0751953c-0.0028076,0.0007324-0.0055847,0.0014648-0.0083618,0.0021973
				c-0.0440063,0.0119934-0.0870056,0.0249939-0.1300049,0.0409851"/>
			<path id="Tracé_6684" class="st12" d="M130.1088257,229.1911011c0.6659851,5.7460022,1.3259888,11.3070068,1.8999939,16.1380005
				l76.9190063-8.8150024c-1.2817383-1.9338379-2.0691223-4.152771-2.2929993-6.4620056
				c-0.2640076-3.1430054-0.5650024-6.348999-0.8779907-9.5310059L130.1088257,229.1911011z"/>
			<path id="Tracé_6685" class="st12" d="M167.5838165,127.8370819c1.0137329,0.8066406,2.165863,1.4219971,3.3999939,1.8160095
				c1.2481689,0.3986511,2.5554199,0.5802917,3.8649902,0.5369873c0.8188171-0.1053772,1.6195068-0.3217163,2.3800049-0.6430054
				c1.7041626-0.6854553,3.1839905-1.8315125,4.2740173-3.309967c0.7499695-0.8109436,0.700531-2.0762939-0.1104126-2.8262634
				c-0.7497864-0.6934204-1.9015503-0.7105408-2.6716003-0.0397339c-1.046936,0.7249451-2.2667236,1.160614-3.5360107,1.2630005
				l-2.0580139,0.2359924c-1.1268311-0.0049438-2.2502441-0.1242065-3.3529968-0.3559875
				c-0.9187622-0.5749817-2.1296692-0.2965393-2.7049866,0.6220093l-0.0379944,0.0629883
				c-0.6051636,0.7434082-0.4932556,1.8366089,0.25,2.4419861c0.0927124,0.0769958,0.1932678,0.144043,0.2999878,0.2000122"/>
			<path id="Tracé_6686" class="st18" d="M182.2038116,220.611084l-16.1359863,1.8530273
				c-0.402771,0.0458984-0.6920776,0.4096069-0.6461792,0.8123779c0.000061,0.0005493,0.0001221,0.0010681,0.0001831,0.0016174
				l2.2999878,20.052002c0.0465088,0.4026794,0.4102173,0.6916809,0.8129883,0.6459961l16.1409912-1.8500061
				c0.4026794-0.0465088,0.6916809-0.4102173,0.6459961-0.8129883l-2.2999878-20.053009
				c-0.0459595-0.402771-0.409729-0.6920166-0.8124695-0.6460571c-0.0001831,0.0000305-0.0003357,0.0000305-0.0005188,0.000061
				 M170.0948029,240.2321167l-1.6589966-14.4729919c-0.0467834-0.4026794,0.2416992-0.7670288,0.6443787-0.8138123
				c0.0005493-0.000061,0.0010681-0.0001221,0.0016174-0.0001831l10.7470093-1.2319946
				c0.402771-0.0456848,0.7664795,0.2433167,0.8129883,0.6459961l1.6589966,14.4729919
				c0.0462952,0.4031372-0.2428894,0.7675171-0.6459961,0.8139954l-10.7470093,1.2319946
				c-0.4027405,0.0462341-0.7666931-0.2427673-0.8129272-0.6454773
				C170.0948334,240.2324524,170.0948334,240.2322998,170.0948029,240.2321167"/>
			<path id="Tracé_6687" class="st19" d="M101.9708099,204.9260864
				c-9.9570007,8.9830017-27.3359985,23.4769897-28.121994,43.7130127
				c-0.9149933,23.5169983,17.2769928,19.256012,30.4669952,19.6000061s19.7550049-0.223999,24.5740051-6.7879944
				s1.5529938-21.4089966-0.1260071-41.9299927C127.0268097,198.2850952,101.9708099,204.9260864,101.9708099,204.9260864z"/>
			<path id="Tracé_6688" class="st19" d="M228.6178131,228.7851105
				c8.2850037-2.8240051,29.1209869-2.7109985,43.3529816-17.8800049
				c16.1000061-17.1579895-2.1000061-25.7900085-12.3940125-34.053009
				c-10.2939911-8.2630005-15.8599701-11.7940063-23.6669769-9.4859924s-12.0799866,16.6239929-24.6409912,33.8200073
				s17.348999,27.6000061,17.348999,27.6000061"/>
			<path id="Tracé_6689" class="st19" d="M148.1968079,51.3100929c26.625-5.935997,49.7399902-3.8730011,51.6289978,4.6080017
				s-18.1619873,20.1679878-44.7869873,26.0999947s-49.7400055,3.871994-51.6300049-4.6080017
				s18.1629944-20.1679955,44.7869873-26.0999947"/>
			<path id="Tracé_6690" class="st19" d="M126.7327957,66.5290909c5.137001,1.0599976,25.9530106,4.112999,49.5329971-9.6799965
				c0.6928711-0.4113579,0.922699-1.3055382,0.5140076-2c-0.0386658-0.0656853-0.082489-0.1282158-0.131012-0.1870003
				c-1.5339966-1.8610001-4.5830078-5.5659981-8.4110107-10.2329979
				c-10.6539612-12.9850025-28.782959-35.9290009-35.0419617-43.8730011
				c-0.5042114-0.6355974-1.4282227-0.7421031-2.0638123-0.2378871c-0.3047485,0.2417532-0.5011597,0.5945077-0.5461731,0.9808872
				c-1.0700073,9.5170002-3.9379959,36.0540009-4.6070023,52.8110008
				c-0.2059937,5.0950012-0.3460083,9.0470009-0.4119873,10.9309959
				C125.5410843,65.7548981,126.0335464,66.3833618,126.7327957,66.5290909z"/>
			<path id="Tracé_6691" class="st12" d="M126.7327957,66.530098c5.137001,1.0599976,25.9530106,4.112999,49.5329971-9.6800003
				c0.6928711-0.4113541,0.922699-1.305542,0.5140076-2c-0.0383606-0.0656509-0.0818176-0.1281815-0.1300049-0.1869965
				c-1.5339966-1.8610001-4.5820007-5.5650024-8.4089966-10.2320023c-3.1579895,3.4089966-9,7.0670013-19.7279968,9.1999969
				c-11.7720032,2.3420029-15.9840088,1.5630035-22.5340042,0.4820023
				c-0.2059937,5.0999985-0.3460083,9.0469971-0.4119873,10.9309998
				C125.5420609,65.7571716,126.0343094,66.3845062,126.7327957,66.530098z"/>
			<path id="Tracé_6692" class="st18" d="M159.2908173,48.6440964l-15.6690063,4.2919998
				c-0.3919983,0.1070023-0.6430054,0.435997-0.5620117,0.7300034l4.0549927,14.8160019
				c0.1460571,0.3248825,0.5218811,0.4773331,0.8529968,0.3460007l15.6700134-4.2919998
				c0.3527222-0.0531464,0.6004333-0.3754807,0.5610046-0.7300034l-4.0490112-14.8160019
				c-0.1465454-0.3277206-0.5264893-0.4803162-0.8590088-0.3450012 M149.1687775,65.7100983l-2.9259949-10.6940002
				c-0.0415955-0.3551254,0.2071228-0.6788025,0.5610046-0.7300034l10.4339905-2.8570023
				c0.3311157-0.1318893,0.7073364,0.0207214,0.8529968,0.3460007l2.9259949,10.6940002
				c0.0410767,0.3549728-0.207428,0.6783142-0.5610046,0.7300034l-10.4299927,2.8570023
				c-0.332489,0.1337433-0.7112122-0.0195999-0.8569641-0.3470001L149.1687775,65.7100983z"/>
			<path id="Tracé_6693" class="st12" d="M135.7268219,189.5420837c0,0-0.1849976,0.3250122-0.4790039,0.9379883
				s-0.7139893,1.5119934-1.1659851,2.6539917c-0.92099,2.2829895-1.9570007,5.5069885-3.1579895,9.1719971
				c-0.6069946,1.9320068-1.2900085,3.9949951-2.0090027,6.1279907c-0.3670044,1.0620117-0.7409973,2.1419983-1.117012,3.230011
				l-0.6440125,1.8450012l-0.1400146,0.4119873l0.0870056,0.427002l0.1260071,0.6279907l0.1659851,0.848999
				c0.5050049,2.5599976,0.9939957,5.3349915,1.4690018,7.8890076c0.8659973,5.0400085,1.4419861,9.6600037,1.7130127,13.0119934
				c0.1549988,1.677002,0.1919861,3.0339966,0.2479858,3.9750061l0.0239868,1.4559937
				c-0.0244141,0.7489319,0.0656128,1.4972229,0.2669983,2.2189941c0.1849976,0.5610046,0.4580078,0.92099,0.756012,0.9779968
				c0.6520081,0.1149902,1.2650146-1.42099,1.2999878-3.0889893c0,0,0.0109863-0.5450134,0.0379944-1.526001
				c-0.0130005-0.9760132,0-2.3909912-0.0880127-4.1149902c-0.1430054-3.45401-0.5580139-8.1659851-1.2739868-13.2369995
				c-0.3389893-2.651001-0.7900085-5.2640076-1.3450012-8.0700073l-0.1700134-0.8680115l-0.0440063-0.2170105l-0.0220032-0.1059875
				c0.1526794-0.45401,0.3053589-0.9066772,0.4580078-1.3580017c0.375-1.1000061,0.7210083-2.2000122,1.0700073-3.2709961
				c0.6809998-2.1560059,1.3150024-4.2460022,1.8859863-6.1900024c1.0939941-3.6929932,1.9930115-6.9320068,2.7770081-9.1520081
				c0.3948364-1.1856079,0.8582764-2.347229,1.3880005-3.4790039c0.7999878-1.54599,1.0289917-2.8710022,0.5570068-3.2730103
				C137.8028107,186.9510803,136.4398041,187.9971008,135.7268219,189.5420837z"/>
			<path id="Tracé_6694" class="st12" d="M280.0968323,189.7900848c-1.0249634,0.1071167-1.9847412-0.5188293-2.2999878-1.5
				l-24.0319824-69.572998c-0.3962402-1.1493073,0.2141724-2.4022217,1.3634644-2.7984924
				c1.149353-0.3962708,2.4022827,0.2141876,2.7985229,1.3634949l0,0l23.9649658,69.5780029
				c0.3859863,1.1515808-0.2209473,2.4002075-1.3649902,2.8080139
				C280.3777771,189.6840973,280.2417908,189.7740936,280.0968323,189.7900848z"/>
			<path id="Tracé_6695" class="st18" d="M248.4738159,94.2770844l5.8299866,7.3600006
				c0.4036865,0.4883423,1.0671997,0.6762238,1.6669922,0.4720001l8.7919922-3.2869873
				c0.7424927-0.2895508,1.5791016,0.0776215,1.8686523,0.8200989c0.173584,0.4450226,0.1156616,0.9470825-0.1546631,1.3408966
				l-5.2470093,7.9660034c-0.3491211,0.5145416-0.3302002,1.1946564,0.0469971,1.6889954l5.8300171,7.3600006
				c0.4869385,0.6578674,0.3483887,1.5859375-0.3094482,2.0728912c-0.361145,0.2673035-0.8240356,0.3563385-1.2585449,0.2421112
				l-9.0200195-2.5749969c-0.6171265-0.1598511-1.267395,0.0926056-1.6149902,0.6269989l-5.1900024,7.8130035
				c-0.4231567,0.6707458-1.309967,0.87146-1.9807129,0.448288c-0.4054565-0.2557983-0.6565247-0.697052-0.669281-1.1762848
				l-0.3429871-9.3889923c0.0096741-0.6363831-0.4183655-1.1963501-1.0350037-1.3540039l-9.0209961-2.576004
				c-0.7786255-0.2239532-1.228302-1.0366974-1.004364-1.8153381c0.129303-0.4495392,0.4652405-0.8104858,0.9043579-0.9716644
				l8.7890015-3.2899933c0.6012573-0.2094727,0.9854431-0.7982941,0.9349976-1.4329987l-0.3429871-9.3880005
				c-0.0469971-0.7800751,0.5473022-1.450531,1.3273621-1.4975281c0.4661865-0.0280762,0.9161682,0.1756744,1.2026367,0.5445251"/>
			<path id="Tracé_6696" class="st12" d="M248.8568115,128.3350983c-0.3729248,0.040451-0.7501526,0.0085297-1.1109924-0.0939941
				c-1.2191162-0.3477859-2.0810547-1.4337692-2.1430054-2.7000046l-0.3429871-9.3880005l-9.0209961-2.5749969
				c-1.21875-0.3483124-2.0804749-1.4339905-2.1430054-2.6999969c-0.0975647-1.2688599,0.6701355-2.4447784,1.8710022-2.8659973
				l8.7890015-3.2899933l-0.3429871-9.3880005c-0.0979004-1.2689514,0.6698914-2.4450684,1.8710022-2.8659973
				c1.1987-0.4297791,2.5380249-0.0509644,3.3340149,0.9429932l5.8299866,7.3600006l8.7880249-3.2899933
				c1.5393066-0.5585327,3.2399902,0.2365417,3.7985229,1.7758789c0.3146973,0.8673706,0.2077026,1.8318329-0.2895508,2.6091156
				l-5.190979,7.8130035l5.8300171,7.3600006c0.9916382,1.289917,0.7498779,3.1394806-0.5400391,4.1311188
				c-0.7375488,0.5670013-1.699585,0.7523193-2.5949707,0.4998779l-9.0209961-2.5749969l-5.1910095,7.8130035
				C250.5740967,127.6992569,249.7670288,128.2275391,248.8568115,128.3350983z M247.3318176,95.2180862l0.4150085,9.3800049
				c0.0454407,1.2549438-0.7038269,2.4026794-1.8710022,2.8659973l-8.7890015,3.2899933l9.0209961,2.5749969
				c1.2075806,0.3648987,2.0617676,1.4411011,2.1430054,2.6999969l0.3429871,9.3880005l5.1910095-7.8130035
				c0.704834-1.0595245,2.0165405-1.5379333,3.2379761-1.1809998l9.0209961,2.5749969l-5.9099731-7.423996
				c-0.7980347-0.9993744-0.8387451-2.4060822-0.0999756-3.4499969l5.1900024-7.8130035l-8.7880249,3.2899933
				c-1.1986694,0.4297638-2.5379639,0.0509491-3.3339844-0.9429932L247.3318176,95.2180862z"/>
			<path id="Tracé_6697" class="st19" d="M273.665802,97.2090912c0,0,0.8599854-0.1719971,2-0.4499969
				c0.5620117-0.2120056,1.2780151-0.3670044,1.9849854-0.6000061c0.3856201-0.1345215,0.7589722-0.3018036,1.1160278-0.5
				c1.3889771-0.6750031,2.5609741-1.3249969,2.5609741-1.3249969c0.2810059-0.1060028,0.2869873-0.6999969,0.0759888-1.2610016
				c-0.2199707-0.6369934-0.6240234-0.9600067-0.8400269-0.9340057c0,0-1.2860107,0.2949982-2.7810059,0.6869965
				c-0.411499,0.0849609-0.8150024,0.2050629-1.2059937,0.3589935c-0.6350098,0.2200012-1.3250122,0.5939941-1.8870239,0.8049927
				c-1.0440063,0.4880066-1.8709717,0.951004-1.8709717,0.951004c-0.2810059,0.1060028-0.2869873,0.6999969-0.0759888,1.2610016
				c0.2999878,0.6999969,0.7119751,1.1000061,0.9210205,1"/>
			<path id="Tracé_6698" class="st19" d="M243.5568237,140.9470825c0,0,0.5-0.7200012,1.1199951-1.7489929
				c0.2999878-0.5499878,0.6710205-1.1820068,0.9660034-1.7999878c0.1809082-0.3733826,0.3327026-0.7602234,0.4539795-1.1570129
				c0.4849854-1.5289917,0.8579712-2.75,0.8579712-2.75c0.1199951-0.2349854-0.2919922-0.6300049-0.8410034-0.9349976
				c-0.6209717-0.2999878-1.1270142-0.2390137-1.2550049-0.0769958c0,0-0.6799927,1.1090088-1.4790039,2.4530029
				c-0.2229919,0.3403625-0.40271,0.7072144-0.5350037,1.0920105c-0.2999878,0.6229858-0.5100098,1.3110046-0.7319946,1.9249878
				c-0.2347717,0.6473999-0.4281921,1.3090515-0.57901,1.9809875c-0.1199951,0.2349854,0.2919922,0.6300049,0.8399963,0.9349976
				c0.4760132,0.3139954,1.1440125,0.3840027,1.1830139,0.0849915"/>
			<path id="Tracé_6699" class="st19" d="M273.7818298,122.5321045c0,0,0.7180176,0.5070038,1.7420044,1.1259918
				c0.5479736,0.3049927,1.177002,0.6749878,1.7999878,0.9719849c0.371582,0.1819153,0.7567139,0.3347168,1.1519775,0.4570007
				c1.5230103,0.4880066,2.7390137,0.8649902,2.7390137,0.8649902c0.2340088,0.1210022,0.6259766-0.2929993,0.9299927-0.8429871
				c0.2999878-0.6229858,0.2369995-1.1319885,0.0759888-1.2600098c0,0-1.0999756-0.6839905-2.4439697-1.4880066
				c-0.3388672-0.2239685-0.7043457-0.4046936-1.0880127-0.5379944c-0.6209717-0.3000031-1.3060303-0.5130005-1.9180298-0.7369995
				c-0.6445923-0.236496-1.3035889-0.4315491-1.9730225-0.5839996c-0.2340088-0.1210022-0.6259766,0.2929993-0.9299927,0.8430023
				c-0.3120117,0.477005-0.3179932,1.0670013-0.0839844,1.1880035"/>
			<path id="Tracé_6700" class="st19" d="M221.194809,117.2900848c0,0,0.8599854-0.1719971,2-0.4499969
				c0.5620117-0.2120056,1.2780151-0.3670044,1.9849854-0.6000061c0.3848572-0.1307068,0.7578735-0.2939606,1.1150208-0.4879913
				c1.3890076-0.6750031,2.5610046-1.3249969,2.5610046-1.3249969c0.2810059-0.1060028,0.2869873-0.6999969,0.0750122-1.2610016
				c-0.2200012-0.6369934-0.6239929-0.9600067-0.8399963-0.9340057c0,0-1.2860107,0.2949982-2.7810059,0.6869965
				c-0.4111938,0.0850067-0.8143311,0.2051239-1.2049866,0.3589935c-0.6340027,0.2200012-1.3250122,0.5939941-1.8869934,0.8049927
				c-1.0440063,0.4880066-1.8710022,0.951004-1.8710022,0.951004c-0.2810059,0.1060028-0.2869873,0.6999969-0.0750122,1.2610016
				c0.2999878,0.6999969,0.7120056,1.1000061,0.92099,1"/>
			<path id="Tracé_6701" class="st19" d="M245.7167969,86.8600922c0,0-0.1719971-0.8639984-0.4500122-2.0110016
				c-0.2120056-0.5650024-0.3670044-1.2839966-0.6000061-1.9940033c-0.1343384-0.3875885-0.3016052-0.7629547-0.5-1.121994
				c-0.6730042-1.3999939-1.3210144-2.5740051-1.3210144-2.5740051c-0.1059875-0.2819977-0.6929932-0.2890015-1.2550049-0.0769958
				c-0.6350098,0.2200012-0.9549866,0.625-0.9299927,0.8430023c0,0,0.2950134,1.2920074,0.6870117,2.7940063
				c0.0853271,0.4130554,0.2054443,0.818161,0.3590088,1.2109985c0.2200012,0.6380005,0.5929871,1.3320007,0.7999878,1.8999939
				c0.4869995,1.048996,0.9490051,1.8800049,0.9490051,1.8800049c0.1059875,0.2819977,0.6929932,0.2890015,1.256012,0.0769958
				c0.7000122-0.3000031,1.0910034-0.7140045,0.9940186-0.923996"/>
		</g>
	</g>
</g>
</svg>
