<?xml version="1.0" encoding="UTF-8"?>
<svg id="Calque_2" data-name="Calque 2" xmlns="http://www.w3.org/2000/svg" viewBox="0 0 64.999796792 55.000002165">
  <defs>
    <style>
      .cls-1 {
        fill: #fb657c;
      }

      .cls-2 {
        fill: #272f60;
      }
    </style>
  </defs>
  <g id="Calque_5" data-name="Calque 5">
    <g id="Groupe_2897" data-name="Groupe 2897">
      <path id="Tracé_8322" data-name="Tracé 8322" class="cls-2" d="M16.945142222,50.495798236h31.086122816c1.207168686,0,2.185773261,.978874151,2.185773261,2.186370617h0v.13146246c.000559214,1.206940958-.97713905,2.185807393-2.183748522,2.186370617H16.945142222c-1.2066114,.000555508-2.185215976-.977408228-2.185775189-2.18434147v-.133491606c-.000001928-1.207496465,.978602647-2.186370617,2.185771333-2.186370617h.000003857"/>
      <path id="Tracé_8323" data-name="Tracé 8323" class="cls-1" d="M32.168726809,25.598303976h.620750273c5.709767887,0,10.338452408,4.629937479,10.338452408,10.341259583h0v14.562304757H21.847463471v-14.575451774c0-5.700871614,4.619918365-10.322495765,10.319242455-10.32305513l.002020882-.005057435Z"/>
      <path id="Tracé_8324" data-name="Tracé 8324" class="cls-2" d="M30.236713125,51.626397379v-16.130784839c0-1.207496465,.978604575-2.186366759,2.185773261-2.186366759h.13143063c1.207168686,0,2.185773261,.978870294,2.185773261,2.186366759v16.130784839c.000559214,1.206940958-.97713905,2.185807393-2.183748522,2.186370617h-.133455369c-1.207168686,0-2.185773261-.978874151-2.185773261-2.186370617h0"/>
      <path id="Tracé_8325" data-name="Tracé 8325" class="cls-1" d="M15.806760308,38.338296314H3.669745729c-1.11671588,0-2.021993086,.905523978-2.021993086,2.022542113s.905277206,2.022542113,2.021993086,2.022542113H15.806760308c1.116716845,0,2.021993086-.905523978,2.021993086-2.022542113s-.905276241-2.022542113-2.021993086-2.022542113"/>
      <path id="Tracé_8326" data-name="Tracé 8326" class="cls-1" d="M15.90381557,13.359902857l5.481624151,9.0630111c1.348669018,2.224797096,4.844695249,.194163472,3.494005349-2.042767997l-5.486680214-9.062000385c-1.348669018-2.224796131-4.844695249-.193152756-3.492992979,2.042767997"/>
      <path id="Tracé_8327" data-name="Tracé 8327" class="cls-1" d="M17.832796485,28.792909645L2.984290221,19.363816987c-2.202961367-1.399598-4.235064409,2.102433005-2.041201894,3.493941423l14.847495642,9.429090729c2.204984178,1.399598,4.237087461-2.10142036,2.042212516-3.494954068"/>
      <path id="Tracé_8328" data-name="Tracé 8328" class="cls-1" d="M34.524350605,19.618658111l-.025276456-17.596115998c0-1.11701916-.90527817-2.022542113-2.021993086-2.022542113s-2.021993086,.905522953-2.021993086,2.022542113l.026286897,17.596115998c0,1.117020064,.90527817,2.022542113,2.021993086,2.022542113s2.021993086-.905522049,2.021993086-2.022542113"/>
      <path id="Tracé_8329" data-name="Tracé 8329" class="cls-1" d="M49.194916296,42.304500364h12.137018435c1.116714916,0,2.021993086-.905523978,2.021993086-2.022542113s-.90527817-2.022542113-2.021993086-2.022542113h-12.137018435c-1.116714916,0-2.021993086,.905523978-2.021993086,2.022542113s.90527817,2.022542113,2.021993086,2.022542113"/>
      <path id="Tracé_8330" data-name="Tracé 8330" class="cls-1" d="M45.602851873,11.237244451l-5.476568088,9.064023745c-1.348669018,2.233897394,2.146346772,4.271607955,3.494005349,2.042767997l5.476568088-9.0630111c1.348669018-2.234909073-2.146346772-4.2726206-3.494005349-2.042767997v-.001012644Z"/>
      <path id="Tracé_8331" data-name="Tracé 8331" class="cls-1" d="M49.210088341,32.205948496l14.846481766-9.432124805c2.192850206-1.391508418,.164794473-4.895562783-2.041199182-3.493941423l-14.846489479,9.43111216c-2.191839765,1.393529849-.164794473,4.895562783,2.042209623,3.494954068"/>
    </g>
  </g>
</svg>