<?xml version="1.0" encoding="UTF-8"?>
<svg id="ILLUSTRATIONS" xmlns="http://www.w3.org/2000/svg" width="30" height="30" viewBox="0 0 30 30">
  <circle id="Ellipse_418" data-name="Ellipse 418" cx="15" cy="15" r="15" style="fill: #272f60;"/>
  <g>
    <path d="m21.6943359,14c-.5527344,0-1,.4477539-1,1v6.6938477c0,.371582-.3027344.6743164-.6738281.6743164h-10.0410156c-.3710938,0-.6738281-.3027344-.6738281-.6743164v-6.6938477c0-.5522461-.4472656-1-1-1s-1,.4477539-1,1v6.6938477c0,1.4746094,1.1992188,2.6743164,2.6738281,2.6743164h10.0410156c1.4746094,0,2.6738281-1.199707,2.6738281-2.6743164v-6.6938477c0-.5522461-.4472656-1-1-1Z" style="fill: #fff;"/>
    <path d="m12.359375,10.6860352l1.6396484-1.6398926v8.4641113c0,.5522461.4472656,1,1,1s1-.4477539,1-1v-8.4645996l1.640625,1.6403809c.1953125.1953125.4511719.2929688.7070312.2929688s.5117188-.0976562.7070312-.2929688c.390625-.390625.390625-1.0239258,0-1.4140625l-3.3466797-3.3463135c-.1811523-.1815186-.4311523-.2938232-.7080078-.2938232s-.5268555.1123047-.7080078.2938232l-3.3457031,3.3463135c-.390625.390625-.390625,1.0239258,0,1.4140625.390625.390625,1.0234375.390625,1.4140625,0Z" style="fill: #fff;"/>
  </g>
</svg>