<?xml version="1.0" encoding="utf-8"?>
<!-- Generator: Adobe Illustrator 26.2.1, SVG Export Plug-In . SVG Version: 6.00 Build 0)  -->
<svg version="1.1" id="Calque_1" xmlns="http://www.w3.org/2000/svg" xmlns:xlink="http://www.w3.org/1999/xlink" x="0px" y="0px"
	 viewBox="0 0 263.1 338.1" style="enable-background:new 0 0 263.1 338.1;" xml:space="preserve">
<style type="text/css">
	.st0{fill:#F4AAB9;}
	.st1{fill:#E94966;}
	.st2{fill:#13224F;}
</style>
<g id="ILLUSTRATIONS">
	<path class="st0" d="M148.9,123.8c-8.3-6.7-20.6-5.4-27.3,2.9L0,276.8v61.3c1.6-1.8,3.2-3.6,4.8-5.5l147.1-181.7
		C158.5,142.6,157.2,130.5,148.9,123.8z"/>
	<path id="Tracé_1616_00000046341938369435479470000005057188758024452508_" class="st1" d="M146.2,90c-4.5,5.6-12.6,6.5-18.2,2
		l-0.1-0.1c-5.6-4.5-6.5-12.6-2-18.2l55.8-68.9c4.5-5.6,12.7-6.5,18.3-1.9c5.6,4.5,6.5,12.7,1.9,18.3L146.2,90z"/>
	
		<rect id="Rectangle_136_00000015349364945976990930000013664664792513557425_" x="154" y="40.9" transform="matrix(0.6293 -0.7771 0.7771 0.6293 16.7327 143.1301)" class="st2" width="8.9" height="26.3"/>
	
		<rect id="Rectangle_137_00000126299342309254318930000002391793736260532875_" x="173" y="17.4" transform="matrix(0.6293 -0.7771 0.7771 0.6293 42.0464 149.2074)" class="st2" width="8.9" height="26.3"/>
	<g id="Groupe_376_00000112620480226950908490000005639857474320181903_">
		<g>
			<g id="Groupe_375_00000103236912764420027340000009322057474780958104_">
				<path id="Tracé_1617_00000020383917926239992450000010793235018973461688_" class="st1" d="M204.5,137.2
					c-4.5,5.6-12.6,6.5-18.2,2c0,0,0,0,0,0l-0.1-0.1c-5.6-4.5-6.5-12.6-2-18.2L239.9,52c4.5-5.6,12.7-6.5,18.3-1.9
					c5.6,4.5,6.5,12.7,1.9,18.3L204.5,137.2z"/>
			</g>
		</g>
	</g>
	
		<rect id="Rectangle_139_00000060023373384114691750000015732306559281104799_" x="212.3" y="88.1" transform="matrix(0.6293 -0.7771 0.7771 0.6293 1.66 205.9124)" class="st2" width="8.9" height="26.3"/>
	
		<rect id="Rectangle_140_00000139999829231855478790000001114247224790277567_" x="231.3" y="64.6" transform="matrix(0.6293 -0.7771 0.7771 0.6293 26.9737 211.9897)" class="st2" width="8.9" height="26.3"/>
	<g id="Groupe_378_00000160903312307426200110000010181248224974667411_">
		<g>
			<g id="Groupe_377_00000096782295379127400500000014560624702640773054_">
				<path id="Tracé_1618_00000052787231796419004290000016853897746852386230_" class="st2" d="M178.7,88.5
					c21,17,24.2,47.8,7.2,68.8c-17,21-47.8,24.2-68.8,7.2c-21-17-24.2-47.8-7.2-68.8C126.9,74.7,157.7,71.5,178.7,88.5"/>
				<path id="Tracé_1619_00000019677737932894196220000006541233703680023701_" class="st1" d="M111.4,84.9L117,78
					c4.5-5.6,3.7-13.8-1.9-18.3s-13.8-3.7-18.3,1.9l-13.8,17c-2.2,2.8-3.2,6.2-2.8,9.7c0.3,3.5,2,6.7,4.8,8.9l17,13.8
					c5.7,4.6,14.1,3.6,18.7-2.1c4.5-5.7,3.6-13.9-1.9-18.5l-7.1-5.7L111.4,84.9z"/>
				<path id="Tracé_1620_00000159471924700141177750000000782161105640325516_" class="st1" d="M168.4,108
					c-4.5,5.6-12.6,6.5-18.2,2l-0.1-0.1c-5.6-4.5-6.5-12.6-2-18.2l17.1-21.1c4.5-5.6,12.7-6.5,18.3-1.9c5.6,4.5,6.5,12.7,1.9,18.3
					L168.4,108z"/>
			</g>
		</g>
	</g>
	
		<rect id="Rectangle_142_00000065785942091789977900000003766462046287793816_" x="166.9" y="70.3" transform="matrix(0.6293 -0.7771 0.7771 0.6293 -1.3461 164.0457)" class="st2" width="8.8" height="26.3"/>
	<g id="Groupe_380_00000023999995767019620850000004575889630361870977_">
		<g>
			<g id="Groupe_379_00000107550331705841169650000008598678145956347302_">
				<path id="Tracé_1621_00000119798838003453824690000000611026209956635822_" class="st1" d="M187.8,123.7
					c-4.5,5.6-12.6,6.5-18.2,2l-0.1-0.1c-5.6-4.5-6.5-12.6-2-18.2l17.1-21.1c4.5-5.6,12.7-6.5,18.3-1.9s6.5,12.7,1.9,18.3
					L187.8,123.7z"/>
			</g>
		</g>
	</g>
	
		<rect id="Rectangle_144_00000114031800273524570200000005767312017309904310_" x="186.4" y="86.1" transform="matrix(0.6293 -0.7771 0.7771 0.6293 -6.3866 185.0409)" class="st2" width="8.8" height="26.3"/>
	<g>
		<g id="Groupe_381_00000119093749881003276350000011296126463956891277_">
			<path id="Tracé_1622_00000051379268410431055470000001909038480759060653_" class="st2" d="M111.4,84.9l6.5,5.3l-36,3.8
				c-1.1-1.7-1.8-3.7-2-5.7c-0.1-0.9-0.1-1.9,0.1-2.8l33.9-3.6L111.4,84.9z"/>
			<path id="Tracé_1623_00000062907892606375019410000000461990598709629313_" class="st2" d="M29.8,301.3L0,277.2l12.2-15.1
				L42,286.2L29.8,301.3z M66.3,256.2l-29.8-24.1L48.7,217l29.8,24.1L66.3,256.2z M102.7,211.3l-29.8-24.1l12.2-15.1l29.8,24.1
				L102.7,211.3z M102.7,211.3L102.7,211.3 M139.2,166.3l-29.8-24.1l12.2-15.1l29.8,24.1L139.2,166.3z"/>
		</g>
	</g>
</g>
<g id="TEXTES_FR">
</g>
<g id="TEXTES_GB">
</g>
</svg>
