<?xml version="1.0" encoding="utf-8"?>
<!-- Generator: Adobe Illustrator 26.2.1, SVG Export Plug-In . SVG Version: 6.00 Build 0)  -->
<svg version="1.1" xmlns="http://www.w3.org/2000/svg" xmlns:xlink="http://www.w3.org/1999/xlink" x="0px" y="0px"
	 viewBox="0 0 137.8638611 155.8509979" style="enable-background:new 0 0 137.8638611 155.8509979;" xml:space="preserve">
<style type="text/css">
	.st0{fill:url(#FOND_00000072251100333727802630000000915948306498796954_);}
	.st1{fill:url(#FOND_00000160869005386199401150000015208228224469074599_);}
	.st2{fill:#FFF5F7;}
	.st3{fill:url(#FOND_00000012440560416079023970000008476088673701744274_);}
	.st4{fill:url(#FOND_00000094615364649538748960000006014534278535555209_);}
	.st5{fill:url(#FOND_00000049936346039185291090000011785709058694502282_);}
	.st6{fill:url(#FOND_00000101805003398102082770000013017632871133410188_);}
	.st7{fill:url(#FOND_00000144314278724908186710000008553790869324318123_);}
	.st8{fill:url(#FOND_00000074427418011811138080000014031767199243428753_);}
	.st9{fill:url(#FOND_00000049222167637280776920000015678757152122610051_);}
	.st10{fill:url(#FOND_00000057827164937718057400000014835262052511510149_);}
	.st11{fill:url(#FOND_00000018936007594735198430000010702515505535509947_);}
	.st12{fill:#272F60;}
	.st13{fill:#FD657C;}
	.st14{fill:url(#FOND_00000129198036088868307880000015694542589425355448_);}
	.st15{fill:#F4AAB9;}
	.st16{clip-path:url(#Rectangle_10_00000067939701317654633410000007100015666697722023_);}
	.st17{fill:#FB657C;}
	.st18{fill:#FFFFFF;}
	.st19{fill:#FFBCC6;}
	.st20{clip-path:url(#SVGID_00000104670247404682900600000006571295405273025207_);}
	.st21{enable-background:new    ;}
	.st22{fill:#FB657C;stroke:#FD657C;stroke-width:3.8352001;stroke-linecap:round;stroke-linejoin:round;stroke-miterlimit:1.4382;}
	.st23{fill:#FFBCC6;stroke:#FFBCC6;stroke-width:3.8352001;stroke-linecap:round;stroke-linejoin:round;stroke-miterlimit:1.4382;}
	.st24{clip-path:url(#SVGID_00000011753971577774620190000005551438663653366201_);fill:#FB657C;}
	.st25{clip-path:url(#SVGID_00000114795783925716276580000003252787823160922031_);fill:#FFBCC6;}
	.st26{clip-path:url(#SVGID_00000150793841027246494150000006178332528378453642_);fill:#FFBCC6;}
	.st27{clip-path:url(#SVGID_00000022534615697564540930000017072718318280400290_);fill:#FFBCC6;}
	.st28{clip-path:url(#SVGID_00000163793382046885143420000003006841474768759185_);fill:#FFBCC6;}
	.st29{clip-path:url(#SVGID_00000084512755970037505060000006859061262159724452_);fill:#FFBCC6;}
	.st30{clip-path:url(#SVGID_00000111159783177744448050000004269287830524035768_);fill:#FFBCC6;}
	.st31{clip-path:url(#SVGID_00000030454278025495140330000002964619525835492524_);fill:#FFBCC6;}
	.st32{clip-path:url(#SVGID_00000180355964353024785450000015390553090938723247_);fill:#272F60;}
	.st33{clip-path:url(#SVGID_00000180355964353024785450000015390553090938723247_);fill:#FB657C;}
	.st34{clip-path:url(#SVGID_00000180355964353024785450000015390553090938723247_);fill:#FFBCC6;}
	.st35{clip-path:url(#SVGID_00000180355964353024785450000015390553090938723247_);fill:#FFFFFF;}
	.st36{fill:none;}
	.st37{clip-path:url(#SVGID_00000054259477531646258220000008151449742177660038_);fill:#FFFFFF;}
	.st38{clip-path:url(#SVGID_00000065779735703692765050000002241223143569853884_);fill:#FFFFFF;}
	.st39{clip-path:url(#SVGID_00000075146667986554429540000013295113393184069287_);fill:#FFFFFF;}
	.st40{clip-path:url(#SVGID_00000005230035729896001060000015305338543664668043_);fill:#FFFFFF;}
	.st41{clip-path:url(#SVGID_00000106840787245533735370000005273854487048660892_);fill:#FFFFFF;}
	.st42{clip-path:url(#SVGID_00000080894986956709428680000004712119767906022273_);fill:#FFFFFF;}
	.st43{clip-path:url(#SVGID_00000155110105358643599700000008997552249738749586_);fill:#FFFFFF;}
	.st44{clip-path:url(#SVGID_00000178177000621836115400000004121390940427473793_);fill:#FFFFFF;}
	.st45{clip-path:url(#SVGID_00000053546179687135447340000003293740114580474511_);fill:#FFFFFF;}
	.st46{clip-path:url(#SVGID_00000065767370295562197070000001354426396702771887_);fill:#FFFFFF;}
	.st47{clip-path:url(#SVGID_00000118359309648382591800000014493764475390459294_);fill:#FFFFFF;}
	.st48{clip-path:url(#SVGID_00000052818771264758469720000017586508287365856951_);fill:#FFFFFF;}
	.st49{clip-path:url(#SVGID_00000011019500447027494160000016724803229917149615_);fill:#FB657C;}
	.st50{clip-path:url(#SVGID_00000062884203288601294700000005548734256816919229_);fill:#FFFFFF;}
	.st51{clip-path:url(#SVGID_00000052790918036650508440000010569624424474915735_);fill:#FFFFFF;}
	.st52{fill:#FF647B;}
	.st53{fill:#FF657C;}
	.st54{clip-path:url(#SVGID_00000132077252814528917950000016231826838958719630_);}
	.st55{clip-path:url(#SVGID_00000052787503344127694620000014053340103485954490_);}
	.st56{clip-path:url(#SVGID_00000170247446298015460330000009104571897914734783_);}
	.st57{clip-path:url(#SVGID_00000075148257056341528100000017188449385534414240_);}
	.st58{fill:none;stroke:#272E5F;stroke-width:3;}
	.st59{clip-path:url(#SVGID_00000171700447705297711520000007259581575988489863_);}
	.st60{fill:#E94B67;}
	.st61{fill:#FFF5F7;stroke:#272E5F;stroke-width:2;}
	.st62{fill:none;stroke:#272E5F;stroke-width:2;stroke-linecap:round;stroke-linejoin:round;stroke-miterlimit:10;}
	.st63{fill:none;stroke:#272E5F;stroke-width:2;}
	.st64{fill:none;stroke:#272E5F;stroke-width:3;stroke-linecap:round;stroke-linejoin:round;stroke-miterlimit:10;}
	.st65{fill:none;stroke:#142664;stroke-width:2;stroke-linecap:round;stroke-linejoin:round;stroke-miterlimit:10;}
	.st66{clip-path:url(#SVGID_00000068643833984320058860000008890445614740059525_);}
	.st67{clip-path:url(#SVGID_00000003793127050880775180000001888331120078519742_);}
	.st68{clip-path:url(#SVGID_00000037667299183549976760000016575377259314484356_);fill:#FD657C;}
	.st69{clip-path:url(#SVGID_00000103960251155164215570000000188455769442557825_);fill:#FD657C;}
	.st70{clip-path:url(#SVGID_00000044881827420324475840000014910806831614785693_);}
	.st71{clip-path:url(#SVGID_00000044860408935076304120000014784959695894272150_);}
	.st72{clip-path:url(#SVGID_00000103246870740624878690000010016699471438054833_);}
	.st73{fill:none;stroke:#142664;stroke-width:3;stroke-linecap:round;stroke-linejoin:round;}
	.st74{clip-path:url(#SVGID_00000062900363394062437100000008703669146841219772_);}
	.st75{clip-path:url(#SVGID_00000126301767947691604990000009413533605373169574_);}
	.st76{clip-path:url(#SVGID_00000023992416534102472320000000843233996305264313_);}
	.st77{clip-path:url(#SVGID_00000096054423147913242990000007610752232550810016_);}
	.st78{clip-path:url(#SVGID_00000078755942208885523470000011573123792361255814_);}
	.st79{clip-path:url(#SVGID_00000022528779193204092280000001921713261039976621_);}
	.st80{clip-path:url(#SVGID_00000011730600440786094160000010957017958638986628_);}
	.st81{clip-path:url(#SVGID_00000156585576832549054840000017747756049710117523_);}
	.st82{clip-path:url(#SVGID_00000005982843323646692180000016321977214447760528_);}
	.st83{clip-path:url(#SVGID_00000040569431252152899570000004397904431705273226_);}
	.st84{clip-path:url(#SVGID_00000013886868000351457170000006063160214322903206_);}
	.st85{clip-path:url(#SVGID_00000118387114541649689330000004100754116890632834_);}
	.st86{clip-path:url(#SVGID_00000147916311296301829170000012117457799341950876_);}
	.st87{clip-path:url(#SVGID_00000124879037181186379720000006763956523271993275_);}
	.st88{clip-path:url(#SVGID_00000144311347455436983880000007405995658180164502_);}
	.st89{clip-path:url(#SVGID_00000129912670765213474880000017609880628115017092_);}
	.st90{clip-path:url(#SVGID_00000090271004778082053440000002755056417596966578_);}
	.st91{clip-path:url(#SVGID_00000035525306104569136220000004348734407838708374_);}
	.st92{clip-path:url(#SVGID_00000026145007141618019710000009544013012791494590_);}
	.st93{clip-path:url(#SVGID_00000139252341749937288570000003596932941979724416_);}
	.st94{clip-path:url(#SVGID_00000128445149781719366220000004545627705494000268_);}
	.st95{clip-path:url(#SVGID_00000008149054135396336880000015801657253060364723_);}
	.st96{clip-path:url(#SVGID_00000111879190087418505920000006983488726655777969_);}
	.st97{clip-path:url(#SVGID_00000018195606098831064590000013970584535777379751_);}
	.st98{clip-path:url(#SVGID_00000085955927349396741830000017847416307840165541_);}
	.st99{clip-path:url(#SVGID_00000160873131363985254360000017537356353453999789_);}
	.st100{clip-path:url(#SVGID_00000042016757658192485390000006378510510971631525_);}
	.st101{clip-path:url(#SVGID_00000023962162285194731060000012994814360564943510_);}
	.st102{clip-path:url(#SVGID_00000151515454263530968490000010788158414684956302_);}
	.st103{clip-path:url(#SVGID_00000080207102368890681530000007389593299336328383_);}
	.st104{clip-path:url(#SVGID_00000093877726830956647770000000494014329262930839_);}
	.st105{clip-path:url(#SVGID_00000109731135761244685970000018222178473682342318_);}
	.st106{clip-path:url(#SVGID_00000134929262413455752240000004274462486000485010_);}
	.st107{clip-path:url(#SVGID_00000011748849092736582820000012115451640962215306_);}
	.st108{clip-path:url(#SVGID_00000022520874422522527480000012842886832874219153_);}
	.st109{clip-path:url(#SVGID_00000001631324312731131450000008619597234628909718_);}
	.st110{clip-path:url(#SVGID_00000047062024577953803230000006071841703773969793_);}
	.st111{clip-path:url(#SVGID_00000143596836507049745750000006087397993259085232_);}
	.st112{clip-path:url(#SVGID_00000078730694390980642920000007639931022410243752_);}
	.st113{clip-path:url(#SVGID_00000018958900921475869380000011220897130205705394_);}
	.st114{clip-path:url(#SVGID_00000075843976379195440780000012676306449763022248_);}
	.st115{clip-path:url(#SVGID_00000175312336305966600870000005279718995772270990_);}
	.st116{clip-path:url(#SVGID_00000182522725562249261340000003578986337452870279_);}
	.st117{fill:#FFFFFF;stroke:#142664;stroke-width:3;stroke-linecap:round;stroke-linejoin:round;}
	.st118{clip-path:url(#SVGID_00000004524270442004332160000008274816704766823098_);}
	.st119{fill-rule:evenodd;clip-rule:evenodd;fill:#FFBCC6;}
	.st120{fill-rule:evenodd;clip-rule:evenodd;fill:#272F60;}
	.st121{fill-rule:evenodd;clip-rule:evenodd;fill:#FFFFFF;}
	.st122{fill-rule:evenodd;clip-rule:evenodd;fill:#FB657C;}
	.st123{clip-path:url(#SVGID_00000121265404423923681380000001910933393256743082_);}
	.st124{clip-path:url(#SVGID_00000024694935122650611210000009644637122097626300_);}
	.st125{clip-path:url(#SVGID_00000005963722352028969270000008838489677262332584_);}
	.st126{clip-path:url(#SVGID_00000034047383871601896050000002221129686530347194_);}
	.st127{clip-path:url(#SVGID_00000066515341155600467570000002990713150557146529_);}
	.st128{clip-path:url(#SVGID_00000003083555412235396630000015587043145012359849_);}
	.st129{clip-path:url(#SVGID_00000079454152809739968430000006954084251310765749_);}
	.st130{clip-path:url(#SVGID_00000130620180779366893340000008353957280060399769_);}
	.st131{clip-path:url(#SVGID_00000101090285158432848560000009117793926550498482_);}
	.st132{clip-path:url(#SVGID_00000036948216051922907210000017955209461382713261_);}
	.st133{clip-path:url(#SVGID_00000107557498813195713700000017743735890489805748_);}
	.st134{clip-path:url(#SVGID_00000027577958137879134940000009512090418146427278_);}
	.st135{clip-path:url(#SVGID_00000137110153895214068400000010222790288120921240_);}
	.st136{clip-path:url(#SVGID_00000042700507228352099920000016226921085663293341_);}
	.st137{clip-path:url(#SVGID_00000123416219202118292490000017838546035242967725_);}
	.st138{clip-path:url(#SVGID_00000106841689999758410340000017017793264767183773_);}
	.st139{clip-path:url(#SVGID_00000182511245192448769000000000284986473978143928_);}
	.st140{clip-path:url(#SVGID_00000140736410540916944790000003052676722865144708_);}
	.st141{clip-path:url(#SVGID_00000071547345380767877150000001740964828534151831_);}
	.st142{clip-path:url(#SVGID_00000178185318882627537320000000956730920863797931_);}
	.st143{clip-path:url(#SVGID_00000093870199705324785550000002214574786897009341_);}
	.st144{clip-path:url(#SVGID_00000105394938175860407160000006435842584721192625_);}
	.st145{clip-path:url(#SVGID_00000111190408562436732860000000873964725699561399_);}
	.st146{clip-path:url(#SVGID_00000039125639979178342430000017665880773868064174_);}
	.st147{clip-path:url(#SVGID_00000099653730203717477750000013823391940275327127_);}
	.st148{clip-path:url(#SVGID_00000112609428113484803140000017687329677370159491_);}
	.st149{clip-path:url(#SVGID_00000110447045625231474840000002864109840645059745_);}
	.st150{clip-path:url(#SVGID_00000091705683935332309860000013669638552170237576_);}
	.st151{clip-path:url(#SVGID_00000028283800317247430820000001823104218363627648_);}
	.st152{clip-path:url(#SVGID_00000080194666758174164900000008728099456197876620_);}
	.st153{clip-path:url(#SVGID_00000049935322333537674930000000012877700445879972_);}
	.st154{clip-path:url(#SVGID_00000082351975296973975620000007228381827457108657_);}
	.st155{clip-path:url(#SVGID_00000013908924003733278210000016057698899414182555_);}
	.st156{clip-path:url(#SVGID_00000082363934707671508380000012300041216133171133_);}
	.st157{clip-path:url(#SVGID_00000146458282233330296170000007018681712176652477_);}
	.st158{clip-path:url(#SVGID_00000070818493896364205080000002495024373559414158_);}
	.st159{clip-path:url(#SVGID_00000081639381506448854500000010914740397156061092_);}
	.st160{clip-path:url(#SVGID_00000153676178246465098440000014002145259037829778_);}
	.st161{clip-path:url(#SVGID_00000105419277350067731250000011830669120213596048_);}
	.st162{clip-path:url(#SVGID_00000176041908849234685760000012420436568902357901_);}
	.st163{clip-path:url(#SVGID_00000021077142930837448400000012866698814856344195_);}
	.st164{clip-path:url(#SVGID_00000126314947556929621560000014076198948258873008_);}
	.st165{clip-path:url(#SVGID_00000165947626791613218760000014353004314823806399_);}
	.st166{clip-path:url(#SVGID_00000137842084802096469660000006189365068647591809_);}
	.st167{clip-path:url(#SVGID_00000167367626594410248530000007693280265322693300_);}
	.st168{clip-path:url(#SVGID_00000067223664221457669990000004688500990757577660_);}
	.st169{clip-path:url(#SVGID_00000168832494130168549890000011705193214053426105_);}
	.st170{clip-path:url(#SVGID_00000016785069401593730150000005321439646347196818_);}
	.st171{clip-path:url(#SVGID_00000044861227477709274170000018271644665872937895_);}
	.st172{clip-path:url(#SVGID_00000170965434905602435660000005942814231094109319_);}
	.st173{clip-path:url(#SVGID_00000025441168546854662420000009754299790057043348_);}
	.st174{clip-path:url(#SVGID_00000106106724973762043130000009499087025216471210_);}
	.st175{clip-path:url(#SVGID_00000083772677404424755970000002259927731674326181_);}
	.st176{clip-path:url(#SVGID_00000176723236843943471180000006449505907316052887_);}
	.st177{clip-path:url(#SVGID_00000031197665220200704350000016228173149152754340_);}
	.st178{clip-path:url(#SVGID_00000084527129008563327300000005924938648692317863_);}
	.st179{clip-path:url(#SVGID_00000030450547573006996980000009196112356106622635_);}
	.st180{clip-path:url(#SVGID_00000174574740852387924170000005585776031255246976_);}
	.st181{clip-path:url(#SVGID_00000018200691397490991790000008877837421490862226_);}
	.st182{clip-path:url(#SVGID_00000130629157931089311670000013198066965650396856_);}
	.st183{clip-path:url(#SVGID_00000070098899818465957100000008590250129419954364_);}
	.st184{clip-path:url(#SVGID_00000121254137884490203600000008780150820015895456_);}
	.st185{clip-path:url(#SVGID_00000167381588434115470540000002318998620047755703_);}
	.st186{clip-path:url(#SVGID_00000121970010754912954840000016002532602712223890_);}
	.st187{clip-path:url(#SVGID_00000002347398408464981810000016594000509954866351_);}
	.st188{clip-path:url(#SVGID_00000047757410087256395940000010895470096384053682_);}
	.st189{clip-path:url(#SVGID_00000049933562009870067970000007903199074208543661_);}
	.st190{clip-path:url(#SVGID_00000087399293528965018960000005163173851147767690_);}
	.st191{clip-path:url(#SVGID_00000168117899116557460640000004612060872128371879_);}
	.st192{clip-path:url(#SVGID_00000152945838380782013970000012799510677782779541_);}
	.st193{clip-path:url(#SVGID_00000121257826915897331480000008549461447451257523_);}
	.st194{clip-path:url(#SVGID_00000160897224849645726980000009729592586967823515_);}
	.st195{clip-path:url(#SVGID_00000057845405976702169630000005257131262420695950_);}
	.st196{clip-path:url(#SVGID_00000133494460398496798190000001701208221795340711_);}
	.st197{clip-path:url(#SVGID_00000109019395852668908630000008996273774685874093_);}
	.st198{clip-path:url(#SVGID_00000007391676074807846700000002219936724719341738_);}
	.st199{clip-path:url(#SVGID_00000079456155726661891270000000448698080663805613_);}
	.st200{clip-path:url(#SVGID_00000167382070531132520270000006747284048095826103_);}
	.st201{clip-path:url(#SVGID_00000085930236920558346690000004499477580803828139_);}
	.st202{clip-path:url(#SVGID_00000163052839231989061420000004614110549023222714_);}
	.st203{clip-path:url(#SVGID_00000078018343139864707690000000683098557670126244_);}
	.st204{clip-path:url(#SVGID_00000069389881600372117760000011807623621917673131_);}
	.st205{clip-path:url(#SVGID_00000168799502027449450490000012034609741071238784_);}
	.st206{clip-path:url(#SVGID_00000177485433090366846300000009930268898333901995_);}
	.st207{clip-path:url(#SVGID_00000123441576950310845300000015960863223085636776_);}
	.st208{clip-path:url(#SVGID_00000114062747816993718260000014119006112572010424_);}
	.st209{clip-path:url(#SVGID_00000050661384131134395060000016524211823795519423_);}
	.st210{clip-path:url(#SVGID_00000029763934866015324620000014488613012937315997_);}
	.st211{clip-path:url(#SVGID_00000111150708753997277350000000545072849105131689_);}
	.st212{clip-path:url(#SVGID_00000066517069370627452220000005735265669853904266_);}
	.st213{clip-path:url(#SVGID_00000124134194718658039780000007532197754704737926_);}
	.st214{clip-path:url(#SVGID_00000072251909330597824470000007881707547728838054_);}
	.st215{clip-path:url(#SVGID_00000160879979392662664550000014435832652155831997_);}
	.st216{clip-path:url(#SVGID_00000048470246689592647610000009837812141742246579_);}
	.st217{clip-path:url(#SVGID_00000039825142278200046250000008981244860050608270_);}
	.st218{clip-path:url(#SVGID_00000160190771716044277170000008129469950584163977_);}
	.st219{clip-path:url(#SVGID_00000153662937502259763970000010527716254825520782_);}
	.st220{clip-path:url(#SVGID_00000109733564521832027520000009027747704432033447_);}
	.st221{clip-path:url(#SVGID_00000116202418735613945050000010159691171684413356_);}
	.st222{clip-path:url(#SVGID_00000103240228176416930410000012533263195040740285_);}
	.st223{clip-path:url(#SVGID_00000020381851113580613690000001269630754765854111_);}
	.st224{clip-path:url(#SVGID_00000075140266050329138520000006350555936417958016_);}
	.st225{clip-path:url(#SVGID_00000147921649314595579860000017275485096569267383_);}
	.st226{clip-path:url(#SVGID_00000130623040042932840770000007331165293942413229_);}
	.st227{clip-path:url(#SVGID_00000176003442020227780670000009183913385558080699_);}
	.st228{clip-path:url(#SVGID_00000148660475061455204870000013981096275520145823_);}
	.st229{clip-path:url(#SVGID_00000160872523435796456030000001636531403080977304_);}
	.st230{clip-path:url(#SVGID_00000020393316245683169850000017148925021021648520_);}
	.st231{clip-path:url(#SVGID_00000087396338104128662930000012429023014758653854_);}
	.st232{clip-path:url(#SVGID_00000036933866582418265340000002063267482207897743_);}
	.st233{clip-path:url(#SVGID_00000051342271893697437580000005513436847688863678_);}
	.st234{clip-path:url(#SVGID_00000032627880583757923510000012915194145898927493_);}
	.st235{clip-path:url(#SVGID_00000121237607599901397090000012587189856583198361_);}
	.st236{clip-path:url(#SVGID_00000013873691770384204050000013709962183637448367_);}
	.st237{clip-path:url(#SVGID_00000085971990688992536360000001630921638248559782_);}
	.st238{clip-path:url(#SVGID_00000129175701597005235820000013191604337390992042_);}
	.st239{clip-path:url(#SVGID_00000018236827224810420200000004063036178460639121_);}
	.st240{clip-path:url(#SVGID_00000075156393107851358050000017810482011846216325_);}
	.st241{clip-path:url(#SVGID_00000034080536225790958120000007617177028288023465_);}
	.st242{clip-path:url(#SVGID_00000178912094061104596360000012270085309980476558_);}
	.st243{clip-path:url(#SVGID_00000034777158933664925930000014168021372888198817_);}
	.st244{clip-path:url(#SVGID_00000128443953135311988150000007403146551063560074_);}
	.st245{clip-path:url(#SVGID_00000160157036184561135860000017423003993523544751_);}
	.st246{clip-path:url(#SVGID_00000174579959270813843150000002528398166966312323_);}
	.st247{clip-path:url(#SVGID_00000070092171774246548870000011341135910949247139_);}
	.st248{clip-path:url(#SVGID_00000064335140651375054970000010285410722657609662_);}
	.st249{clip-path:url(#SVGID_00000119113743204202545260000015674907409191276940_);}
	.st250{clip-path:url(#SVGID_00000065034232368936506840000000925395061890389645_);}
	.st251{clip-path:url(#SVGID_00000139285687424771334000000013953070045493046151_);}
	.st252{clip-path:url(#SVGID_00000122707645966727837940000003443796656517858707_);}
	.st253{fill:#E94966;}
	.st254{fill:#13224F;}
	.st255{fill:url(#);}
	.st256{clip-path:url(#SVGID_00000073714020702102732810000003549260991233233823_);}
	.st257{fill:#FFCE00;}
	.st258{fill-rule:evenodd;clip-rule:evenodd;fill:#FD657C;}
	.st259{clip-path:url(#SVGID_00000073680778627249395100000006592911277902819972_);}
	.st260{fill:url(#SVGID_00000022534009023278274410000001131124399166572464_);}
	.st261{fill:#FFFFFF;stroke:#FFFFFF;stroke-width:10;}
	.st262{fill:none;stroke:#272F60;stroke-width:3;stroke-linecap:round;stroke-linejoin:round;}
	.st263{clip-path:url(#SVGID_00000010275857578624880000000015809058242661221558_);}
	.st264{fill:none;stroke:#FFFFFF;stroke-width:5;}
	.st265{fill:#3580F8;}
	.st266{clip-path:url(#SVGID_00000085243488515873304200000011798780889988099484_);}
	.st267{fill:#FDF2F5;}
	.st268{clip-path:url(#SVGID_00000012456472457133091970000004685065874032392868_);}
	.st269{fill:#44C400;}
	.st270{clip-path:url(#SVGID_00000055699668164566711080000002652841517420130227_);}
	.st271{clip-path:url(#SVGID_00000039852243247810780230000018139001433758107521_);}
	.st272{clip-path:url(#SVGID_00000158725427023463153850000003417469504002208185_);}
	.st273{fill:#F1AAB9;}
	.st274{fill:#E34C6A;}
	.st275{clip-path:url(#SVGID_00000106106342432830349730000013872575632508989370_);}
	.st276{clip-path:url(#SVGID_00000008148387132072693470000008146790477277266320_);}
	.st277{clip-path:url(#SVGID_00000133519574156733237930000004584089768384064653_);}
	.st278{clip-path:url(#SVGID_00000059281516542782174630000014045018343541481880_);}
	.st279{clip-path:url(#SVGID_00000038371982702214211850000006135474973062298031_);}
	.st280{clip-path:url(#SVGID_00000010989620577166575020000005017523512581009053_);}
	.st281{clip-path:url(#SVGID_00000021100473922715345150000004125398940198249896_);}
	.st282{clip-path:url(#SVGID_00000003083683295509870200000015957084440055434415_);}
	.st283{display:none;}
	.st284{display:inline;}
	.st285{display:inline;enable-background:new    ;}
	.st286{clip-path:url(#SVGID_00000042734786012033801710000005492353827283030972_);}
	.st287{clip-path:url(#SVGID_00000080917716232417403210000011759947017469898650_);}
	.st288{clip-path:url(#SVGID_00000086682135275364022540000008196033477826589600_);}
	.st289{clip-path:url(#SVGID_00000034081176876415501150000008218425589694779569_);}
	.st290{fill:none;stroke:#FFFFFF;stroke-miterlimit:10;}
	.st291{clip-path:url(#SVGID_00000168819168979091836610000001541827588972976574_);}
	.st292{clip-path:url(#SVGID_00000134239561636211503680000018109636483334898827_);}
	.st293{clip-path:url(#SVGID_00000105399612216293390150000015712100928931642546_);}
	.st294{clip-path:url(#SVGID_00000093141405301406995950000012060617281877368983_);}
	.st295{clip-path:url(#SVGID_00000107588289471025664860000000802503350058793104_);}
	.st296{clip-path:url(#SVGID_00000064311860232944787060000001889288244431296388_);}
	.st297{clip-path:url(#SVGID_00000067224950608037888670000004886598172468244386_);}
	.st298{clip-path:url(#SVGID_00000065753852034270124270000001095943908047639168_);}
	.st299{clip-path:url(#SVGID_00000137852057428920562980000018038780871700326289_);}
	.st300{clip-path:url(#SVGID_00000180352155969279076830000015046130636633365130_);}
	.st301{clip-path:url(#SVGID_00000176762010475882197640000000373043220681234816_);}
	.st302{clip-path:url(#SVGID_00000148648801318970926620000011288389186326776764_);}
	.st303{clip-path:url(#SVGID_00000095317274384385396850000004245235738002879405_);}
	.st304{clip-path:url(#SVGID_00000014616011139499102880000006066046325256678035_);}
	.st305{clip-path:url(#SVGID_00000054226769595160531610000004968614623016310957_);}
	.st306{clip-path:url(#SVGID_00000114772375307985893840000005535250154695880109_);}
	.st307{fill:none;stroke:#142664;stroke-width:4.0018654;stroke-linecap:round;stroke-linejoin:round;stroke-miterlimit:4.0018654;}
	.st308{clip-path:url(#SVGID_00000147900992027447066260000002876634320656179848_);}
	.st309{clip-path:url(#SVGID_00000067949965154985254250000002465879959766105516_);}
	.st310{clip-path:url(#SVGID_00000135682206596989932410000001756096766811589006_);}
	.st311{clip-path:url(#SVGID_00000084494824612362992210000002242981343082452885_);}
	.st312{clip-path:url(#SVGID_00000065774760321716198860000017509960253822084785_);}
	.st313{clip-path:url(#SVGID_00000122711299385023896210000006826284293343454105_);}
	.st314{clip-path:url(#SVGID_00000049911403879904045830000017877868653239076021_);}
	.st315{clip-path:url(#SVGID_00000115495820481193926410000014912740886490894758_);}
	.st316{clip-path:url(#SVGID_00000083797604302056770390000016176257296432185223_);}
	.st317{clip-path:url(#SVGID_00000128451460306342730660000009830830315045453499_);}
	.st318{clip-path:url(#SVGID_00000059280436900242687080000015462231644553489045_);}
	.st319{clip-path:url(#SVGID_00000023974813244634069790000008409837747091829389_);}
	.st320{clip-path:url(#SVGID_00000048501196113960198730000011599341027341200265_);}
	.st321{clip-path:url(#SVGID_00000085227800000574986050000013367282545506751648_);}
	.st322{clip-path:url(#SVGID_00000180329965502685652820000014820136509387733896_);}
	.st323{clip-path:url(#SVGID_00000029746257732908389850000013537306852063901089_);}
	.st324{clip-path:url(#SVGID_00000033330589817804977710000001620907997241532046_);fill:#FD657C;}
	.st325{clip-path:url(#SVGID_00000033330589817804977710000001620907997241532046_);fill:#272F60;}
</style>
<g id="FONDS">
</g>
<g id="ILLUSTRATIONS">
</g>
<g id="TEXTES_FR" class="st283">
</g>
<g id="TEXTES_GB">
</g>
<g id="Calque_5">
	<g id="Groupe_2566" transform="translate(-0.246 -0.646)">
		<g id="Groupe_2334" transform="translate(-0.064 0.469)">
			<g>
				<g id="Groupe_2333" transform="translate(0 0)">
					<path id="Tracé_7248" class="st12" d="M43.7398796,10.5789995c-0.3345032,0.471055-0.3732452,1.0909567-0.1000061,1.5999994
						c0.2714691,0.5111103,0.8022614,0.8312778,1.3809967,0.8330002h19.6499901
						c0.5072021-0.0000095,0.9837646-0.2427521,1.2819977-0.6529999c0.298233-0.4106541,0.378067-0.9407215,0.2140045-1.4209995
						c-0.9075012-2.6300802-3.3837547-4.394701-6.1659966-4.3940001c-0.8374481,0.0005589-1.5746307-0.5520201-1.8090057-1.3559999
						c-0.5375366-2.0451734-2.3893585-3.4685867-4.5039825-3.4619997c-2.5928802-0.0062013-4.7063599,2.0782785-4.7359924,4.6709995
						v0.0290003c0.1383514,1.1754322-0.7023773,2.2404623-1.8778076,2.3788099
						c-0.1464539,0.0172386-0.2943115,0.0193129-0.4411926,0.0061903c-1.1731873,0.1452456-2.2273254,0.7877836-2.8939972,1.7639999
						"/>
				</g>
			</g>
		</g>
		<g id="Groupe_2336" transform="translate(82.022 79.183)">
			<g>
				<defs>
					<rect id="SVGID_00000028283844971007297510000015855072303986413220_" x="0.5418744" y="1.3149997" width="2" height="10"/>
				</defs>
				<clipPath id="SVGID_00000070805242260454980080000008175061799153601679_">
					<use xlink:href="#SVGID_00000028283844971007297510000015855072303986413220_"  style="overflow:visible;"/>
				</clipPath>
				
					<g id="Groupe_2335" transform="translate(0 0)" style="clip-path:url(#SVGID_00000070805242260454980080000008175061799153601679_);">
					<path id="Tracé_7249" class="st12" d="M3.1988792,1.07802v7.8519897
						C3.1691246,9.1704273,2.9529076,9.3431263,2.7118797,9.3190174H0.5918847
						C0.3502159,9.3432178,0.1331444,9.1708546,0.1018944,8.9300098V1.07802
						c0.03125-0.2408447,0.2483215-0.413208,0.4899903-0.3890076h2.1199951
						C2.952755,0.6654528,3.1686363,0.8378772,3.1988792,1.07802"/>
				</g>
			</g>
		</g>
		<g id="Groupe_2338" transform="translate(-0.064 0.469)">
			<g>
				<g id="Groupe_2337" transform="translate(0 0)">
					<path id="Tracé_7250" class="st19" d="M103.9938889,104.1869965h-1.4179993V90.6760101
						c-0.0015564-1.2351379,0.4842834-2.42099,1.3519897-3.2999878l3.7999878-3.8590088
						c1.2431335-1.2693176,1.2431335-3.2996826,0-4.5690002l-2.8999939-2.9500122l1-1.019989l2.8999939,2.9500122
						c1.7886963,1.8488464,1.7886963,4.7831421,0,6.6319885l-3.7999878,3.8590088
						c-0.6044617,0.6063843-0.9420471,1.428833-0.9379883,2.2850037L103.9938889,104.1869965z"/>
					<path id="Tracé_7251" class="st12" d="M104.9318771,99.0860138c-0.0022583-0.1986389-0.0802307-0.388916-0.2179871-0.5320129
						c-0.1390381-0.1394958-0.3270569-0.2191772-0.5239868-0.2219849h-1.7890015
						c-0.1965942,0.0030823-0.3842163,0.0827026-0.5230103,0.2219849c-0.1377563,0.1430969-0.2157288,0.333374-0.2179871,0.5320129
						v5.1000061h3.2940063v-5.1000061H104.9318771z"/>
					<path id="Tracé_7252" class="st12" d="M108.0248642,108.1519928h-1.4169922V85.2379913
						c0.003479-0.8295593-0.3173218-1.627655-0.8940125-2.223999l-4.0539856-4.1380005l1-1.0239868l4.0549927,4.1369934
						c0.8526001,0.8660583,1.3302917,2.0326843,1.3299866,3.2479858v22.9150085H108.0248642z"/>
					<path id="Tracé_7253" class="st12" d="M108.9408493,103.0540009
						c-0.0022583-0.1992188-0.0802002-0.3901062-0.2179871-0.5339966c-0.1387329-0.1393738-0.3263855-0.2190247-0.5230103-0.2219849
						h-1.7869873c-0.1966248,0.0029602-0.3842773,0.0826111-0.5230103,0.2219849
						c-0.1377869,0.1438904-0.2157288,0.3347778-0.2179871,0.5339966v5.1159973h3.2919922L108.9408493,103.0540009z"/>
					<path id="Tracé_7254" class="st12" d="M105.0658493,99.0829926c-0.0022888-0.1990967-0.0806274-0.389801-0.2189941-0.5329895
						c-0.1398315-0.1395569-0.3284912-0.2191467-0.526001-0.2219849h-1.7999878
						c-0.1975403,0.0027161-0.3862305,0.0823669-0.526001,0.2219849c-0.1383667,0.1431885-0.2167053,0.3338928-0.2189941,0.5329895
						v5.1000061h3.3089905v-5.1000061H105.0658493z"/>
					<path id="Tracé_7255" class="st12" d="M108.9008713,102.9000092c-0.0022888-0.1990967-0.0806274-0.389801-0.2189941-0.5329895
						c-0.1398926-0.1394653-0.3284912-0.2190552-0.526001-0.2219849h-1.7999878
						c-0.1975098,0.0029297-0.3861084,0.0825195-0.526001,0.2219849c-0.1382751,0.1432495-0.2166138,0.3338928-0.2189941,0.5329895
						v5.105011h3.3089905L108.9008713,102.9000092z"/>
					<path id="Tracé_7256" class="st13" d="M97.9218674,96.8419952c-0.2496338-0.2513428-0.5877686-0.394928-0.9419861-0.3999939
						c-0.3562927-0.005188-0.6982727,0.1400452-0.9419861,0.3999939l-1.9500122,1.9750061
						c-0.2489014,0.2556458-0.3899841,0.597229-0.3940125,0.95401v25.1919861
						c-0.0059509,0.3587646,0.1366577,0.70401,0.3940125,0.95401c0.2495728,0.2514343,0.5877686,0.3950195,0.9419861,0.3999939
						h8.3049927c0.3562927,0.005188,0.6982727-0.1400452,0.9419861-0.3999939
						c1.1000061-1.1099854,4.2290039-4.3059998,5.3469849-5.4159851c0.2489014-0.2556458,0.3899841-0.597229,0.3940125-0.95401
						v-9.8999939c0.0059509-0.3587646-0.1366577-0.70401-0.3940125-0.95401"/>
					<path id="Tracé_7257" class="st18" d="M99.4338608,102.279007c-0.0068665-0.1929321,0.10672-0.3699036,0.2850037-0.4440002
						c0.1812134-0.0774231,0.39151-0.0330505,0.526001,0.1109924l2.2569885,2.2860107
						c0.084198,0.0905151,0.1313171,0.2093811,0.1319885,0.3330078v19.5100098
						c0.0033875,0.1243896-0.0443115,0.2447205-0.1319885,0.3330078c-0.0886536,0.0847473-0.2063904,0.1323242-0.32901,0.1329956
						h-2.2569885c-0.2669373-0.0038147-0.4814758-0.2210388-0.4819946-0.4880066V102.279007z"/>
					<path id="Tracé_7258" class="st12" d="M107.4758835,112.2449799h3.2430115
						c0.502594,0,0.9100037-0.4074097,0.9100037-0.9100037s-0.4074097-0.9100037-0.9100037-0.9100037h-3.2430115
						c-0.502594,0-0.9100037,0.4074097-0.9100037,0.9100037S106.9732895,112.2449799,107.4758835,112.2449799"/>
					<path id="Tracé_7259" class="st12" d="M107.4758835,115.5739899h3.2430115
						c0.502594,0,0.9100037-0.4074097,0.9100037-0.9100342c0-0.5025635-0.4074097-0.9099731-0.9100037-0.9099731h-3.2430115
						c-0.502594,0-0.9100037,0.4074097-0.9100037,0.9099731
						C106.5658798,115.1665802,106.9732895,115.5739899,107.4758835,115.5739899"/>
					<path id="Tracé_7260" class="st12" d="M107.4758835,118.9069672h3.2430115
						c0.502594,0,0.9100037-0.4074097,0.9100037-0.9100342c0-0.5025635-0.4074097-0.9099731-0.9100037-0.9099731h-3.2430115
						c-0.502594,0-0.9100037,0.4074097-0.9100037,0.9099731
						C106.5658798,118.4995575,106.9732895,118.9069672,107.4758835,118.9069672"/>
					<path id="Tracé_7261" class="st12" d="M101.6918869,109.8249969c0.006134-0.140686-0.1029358-0.2597351-0.2436218-0.2658691
						c-0.0064697-0.0003052-0.0129089-0.0003357-0.0193787-0.0001221h-0.8330078
						c-0.1407471-0.0045471-0.2585449,0.1058655-0.2631226,0.2466125c-0.0001831,0.0064697-0.0001526,0.0129395,0.0001221,0.0193787
						v13.3840027c-0.006134,0.140686,0.1029358,0.2597351,0.2436218,0.2658691
						c0.0064697,0.0003052,0.0129089,0.0003357,0.0193787,0.0001221h0.8330078
						c0.1407471,0.0045471,0.2585449-0.1058655,0.2631226-0.2466125c0.0001831-0.0064697,0.0001526-0.0129395-0.0001221-0.0193787
						V109.8249969z"/>
					<path id="Tracé_7262" class="st12" d="M77.9098434,142.4430084l-0.7820129-0.7750244l3.6659851-3.6309814
						c0.3412476-0.3313599,0.5344849-0.786377,0.5360107-1.2620239v-5.934021h1.1000061v5.934021
						c0.0103455,0.7606812-0.2974243,1.4910889-0.848999,2.0150146L77.9098434,142.4430084z"/>
					<path id="Tracé_7263" class="st12" d="M90.7628708,142.4430084l-0.7820129-0.7750244l3.6659851-3.6309814
						c0.341156-0.3314209,0.5343933-0.786377,0.5360107-1.2620239v-8.4580078h1.1000061v8.4620361
						c0.0100708,0.7608032-0.2980652,1.491272-0.8500061,2.0150146L90.7628708,142.4430084z"/>
					<rect id="Rectangle_1258" x="76.0108719" y="131.4830017" class="st13" width="3.04" height="19.7719994"/>
					<rect id="Rectangle_1259" x="88.8638687" y="131.4830017" class="st13" width="3.04" height="19.7719994"/>
					<path id="Tracé_7264" class="st12" d="M74.6028671,131.4829865c-0.0154419,1.6170044,1.2828674,2.9403687,2.8999023,2.9558716
						c1.6170044,0.0154419,2.9403687-1.2828979,2.9558411-2.8999023c0.0154419-1.6170044-1.2828979-2.9404297-2.8999023-2.9558716
						c-0.0092773-0.000061-0.0185547-0.0001221-0.027832-0.0001221
						C75.9237595,128.5807037,74.6160507,129.8759308,74.6028671,131.4829865"/>
					<path id="Tracé_7265" class="st12" d="M87.4548569,131.4829865c-0.0154419,1.6170044,1.2828674,2.9403687,2.8999023,2.9558716
						c1.6170044,0.0154419,2.9403687-1.2828979,2.9558411-2.8999023c0.0154419-1.6170044-1.2828979-2.9404297-2.8999023-2.9558716
						c-0.0092773-0.000061-0.0185547-0.0001221-0.027832-0.0001221
						C88.7757492,128.5807037,87.4680405,129.8759308,87.4548569,131.4829865"/>
					<path id="Tracé_7266" class="st12" d="M74.6028671,141.3800201c-0.0154419,1.6170044,1.2828674,2.9403687,2.8999023,2.9558716
						c1.6170044,0.0154419,2.9403687-1.2828979,2.9558411-2.8999023c0.0154419-1.6170044-1.2828979-2.9404297-2.8999023-2.9558716
						c-0.0092773-0.000061-0.0185547-0.0001221-0.027832-0.0001221
						C75.9237595,138.4777374,74.6160507,139.7729645,74.6028671,141.3800201"/>
					<path id="Tracé_7267" class="st12" d="M87.4548569,141.3800201c-0.0154419,1.6170044,1.2828674,2.9403687,2.8999023,2.9558716
						c1.6170044,0.0154419,2.9403687-1.2828979,2.9558411-2.8999023c0.0154419-1.6170044-1.2828979-2.9404297-2.8999023-2.9558716
						c-0.0092773-0.000061-0.0185547-0.0001221-0.027832-0.0001221
						C88.7757492,138.4777374,87.4680405,139.7729645,87.4548569,141.3800201"/>
					<path id="Tracé_7268" class="st12" d="M74.6028671,151.2770233c-0.0154419,1.6170044,1.2828674,2.9403687,2.8999023,2.9558716
						c1.6170044,0.0154419,2.9403687-1.2828979,2.9558411-2.8999023c0.0154419-1.6170044-1.2828979-2.9404297-2.8999023-2.9558716
						c-0.0092773-0.000061-0.0185547-0.0001221-0.027832-0.0001221
						C75.9237595,148.3747406,74.6160507,149.6699677,74.6028671,151.2770233"/>
					<path id="Tracé_7269" class="st12" d="M87.4548569,151.2770233c-0.0154419,1.6170044,1.2828674,2.9403687,2.8999023,2.9558716
						c1.6170044,0.0154419,2.9403687-1.2828979,2.9558411-2.8999023c0.0154419-1.6170044-1.2828979-2.9404297-2.8999023-2.9558716
						c-0.0092773-0.000061-0.0185547-0.0001221-0.027832-0.0001221
						C88.7757492,148.3747406,87.4680405,149.6699677,87.4548569,151.2770233"/>
					<rect id="Rectangle_1260" x="53.3668747" y="93.5110016" class="st13" width="17.4580002" height="3.0109999"/>
					<path id="Tracé_7270" class="st13" d="M41.0288811,81.5110016l12.3390045,12.2219849l-2.1459961,2.1260071
						L38.882885,83.6369781L41.0288811,81.5110016z"/>
					<path id="Tracé_7271" class="st12" d="M70.8248672,92.1160126c1.6015625,0.0154724,2.8873291,1.3263245,2.8718567,2.927887
						c-0.0154724,1.601532-1.3263245,2.8872986-2.927887,2.8718567c-1.5905762-0.0153809-2.8719177-1.3091125-2.8719788-2.8997498
						C67.9051285,93.4068756,69.2157364,92.1088104,70.8248672,92.1160126"/>
					<path id="Tracé_7272" class="st12" d="M52.5618858,92.1160126c1.6015472,0.0154724,2.8873291,1.3262939,2.8718719,2.9278564
						s-1.3263092,2.8873291-2.9278564,2.8718872c-1.5905762-0.0153809-2.871933-1.309082-2.8720093-2.8997498
						c0.0077209-1.6093445,1.3186035-2.9077148,2.9279327-2.8999939
						C52.5618553,92.1160126,52.5618706,92.1160126,52.5618858,92.1160126"/>
					<path id="Tracé_7273" class="st12" d="M37.9438744,80.5359955c-1.1321869,1.117981-1.1437073,2.9420776-0.0257416,4.0742798
						c0.0085297,0.0086365,0.0171051,0.0172119,0.0257416,0.0257263c1.1472626,1.1287231,2.9877319,1.1287231,4.1349945,0
						c1.1321869-1.1171875,1.1443481-2.9406738,0.0271606-4.0728455c-0.0089874-0.0091248-0.0180511-0.018158-0.0271606-0.0271606
						C40.9318352,79.4067535,39.0909081,79.4067535,37.9438744,80.5359955"/>
					<path id="Tracé_7274" class="st19" d="M32.2888756,70.1300049c-0.4647522-0.4608459-1.1595459-0.6000977-1.7660065-0.3540039
						c-0.6038055,0.2460938-1.0005646,0.8309937-1.0059967,1.4830017v8.5239868
						c0.0054321,0.2640076,0.1091919,0.5164795,0.2910004,0.7080078l3.8889923,3.8529968
						c0.1925812,0.1841125,0.4485474,0.2872314,0.7149963,0.2879944h3.1289978
						c0.265625-0.0048828,0.5201569-0.1073914,0.7149963-0.2879944l4.1799927-4.1400146v-3.9190063l-3.7550049-3.7200012
						l-1.9669952,1.947998c0.0220032,0-2.3919983-2.368988-4.4259949-4.3840027"/>
					<path id="Tracé_7275" class="st12" d="M38.2338676,76.3740082c-0.0988464-0.0075989-0.1927185-0.0464783-0.2680054-0.1109924
						l-1.4530029-1.4389954c-0.1337585-0.1433105-0.1337585-0.3656921,0-0.5090027
						c0.1457214-0.1325073,0.3682861-0.1325073,0.5140076,0l1.4530029,1.4389954
						c0.1342468,0.1431274,0.1342468,0.3658752,0,0.5090027C38.4215813,76.3388214,38.3292656,76.3804474,38.2338676,76.3740082"/>
					<path id="Tracé_7276" class="st12" d="M36.2448769,78.3439941c-0.0988464-0.0075989-0.1927185-0.0464783-0.2680054-0.1109924
						l-6.1470032-6.0889893c-0.1337585-0.1433105-0.1337585-0.3656921,0-0.5090027
						c0.1457214-0.1325073,0.3682861-0.1325073,0.5140076,0l6.1470032,6.0889893
						c0.1337585,0.1433105,0.1337585,0.3656921,0,0.5090027C36.4325905,78.3088074,36.3402748,78.3504333,36.2448769,78.3439941"/>
					<path id="Tracé_7277" class="st12" d="M34.1658669,80.8010101c-0.0988464-0.0075989-0.1927185-0.0464783-0.2680054-0.1109924
						l-3.8890076-3.8529968c-0.1342468-0.1431274-0.1342468-0.3658752,0-0.5090027
						c0.1455383-0.1329651,0.3684692-0.1329651,0.5140076,0l3.8890076,3.8529968
						c0.1342468,0.1431274,0.1342468,0.3658752,0,0.5090027C34.3535805,80.7658234,34.2612648,80.8074493,34.1658669,80.8010101"/>
					<path id="Tracé_7278" class="st19" d="M92.0598831,87.1559906L92.0598831,87.1559906
						c0.8526917-0.0081787,1.6643982,0.3652039,2.2130127,1.0180054l2.1679993,2.1480103
						c0.2522278,0.2531433,0.3957214,0.594696,0.3999939,0.9519958v24.8869934
						c0.006134,0.3594055-0.1390076,0.704834-0.3999939,0.9519958c-0.2593079,0.2484131-0.6020203,0.3910522-0.9609985,0.3999939
						H72.2108841c-0.361908,0.0056152-0.7099304-0.1392517-0.9609985-0.3999939
						c-0.2524109-0.2530212-0.3959351-0.594635-0.3999939-0.9519958V91.2740021
						c-0.006134-0.3594055,0.1390076-0.704834,0.3999939-0.9519958l2.7940063-2.7680054
						c0.257019-0.2518921,0.6011658-0.3951416,0.9609985-0.3999939L92.0598831,87.1559906z"/>
					<path id="Tracé_7279" class="st19" d="M92.0148544,131.5270233H74.982872
						c-0.3619385,0.0057373-0.710022-0.1391602-0.9609985-0.4000244l-2.7940063-2.7680054
						c-0.2523193-0.2530518-0.3958435-0.5946655-0.3999939-0.9520264v-3.8519897
						c-0.0011597-0.7450562,0.6018677-1.3499146,1.3468933-1.3510742c0.0057068,0,0.0114136,0,0.0171204,0.000061h23.2690125
						c0.7444153-0.0088501,1.355072,0.5874634,1.3639221,1.3319092c0.000061,0.0063477,0.0000916,0.0127563,0.0000916,0.019104
						v3.8519897c0.006012,0.359375-0.1390991,0.7047729-0.3999939,0.9520264l-2.5480042,2.5460205
						c-0.5108032,0.4459839-1.1787109,0.6692505-1.855011,0.6199951"/>
					<rect id="Rectangle_1261" x="72.6348724" y="117.4899979" class="st12" width="22.3980007" height="4.7160001"/>
					<path id="Tracé_7280" class="st12" d="M91.679863,91.4959869c-0.0017395-0.1584473-0.0660706-0.3098145-0.1789856-0.42099
						c-0.1133423-0.1118774-0.2657166-0.175354-0.4249878-0.177002H73.9988632
						c-0.1592712,0.0016479-0.3116455,0.0651245-0.4249878,0.177002c-0.112915,0.1111755-0.1772461,0.2625427-0.1789856,0.42099
						v7.4620056c0.0019836,0.1581116,0.0663147,0.3090515,0.1789856,0.4200134
						c0.1132812,0.111969,0.2657166,0.1754456,0.4249878,0.177002h17.0780029
						c0.1592712-0.0015564,0.3117065-0.065033,0.4249878-0.177002c0.1126709-0.1109619,0.177002-0.2619019,0.1789856-0.4200134
						L91.679863,91.4959869z"/>
					<path id="Tracé_7281" class="st12" d="M96.3738785,113.0399933h-3.0400085
						c-0.098877-0.0075378-0.192749-0.0464172-0.2680054-0.1109924l-3.5320129-3.5H74.6018753l-3.0620117,3.0329895
						c-0.1457214,0.1325073-0.3682861,0.1325073-0.5140076,0c-0.1337585-0.1433105-0.1337585-0.3656921,0-0.5090027
						l3.1740112-3.1440125c0.0706482-0.0717468,0.1673279-0.1117859,0.2680054-0.1109924H89.689888
						c0.0988464,0.0075989,0.1927185,0.0464783,0.2680054,0.1109924l3.5320129,3.5h2.8840027
						c0.1938171-0.0038757,0.3540649,0.150116,0.3579407,0.3439026c0.000061,0.0033875,0.0000916,0.0067444,0.000061,0.0101013
						c0.0033875,0.2020874-0.1560059,0.3694763-0.3580017,0.3760071"/>
					<path id="Tracé_7282" class="st12" d="M76.6818619,102.2120209h-5.3869934
						c-0.1955261,0-0.3540039-0.1584778-0.3540039-0.3540039s0.1584778-0.3540039,0.3540039-0.3540039h5.2309875
						l2.2349854-2.2139893c0.1457214-0.1325073,0.3682861-0.1325073,0.5140076,0
						c0.1342468,0.1431274,0.1342468,0.3658752,0,0.5090027l-2.3250122,2.2999878
						c-0.069519,0.0733643-0.1669617,0.1137085-0.2680054,0.1109924"/>
					<path id="Tracé_7283" class="st12" d="M96.3758774,107.128006h-4.0230103
						c-0.1938171,0.0038757-0.3540649-0.150116-0.3579407-0.3439026c-0.000061-0.0033875-0.0000916-0.0067444-0.000061-0.0101013
						v-3.0549927c-0.0011292-0.194397,0.1555481-0.3529053,0.3499451-0.3540344
						c0.0026855-0.0000305,0.0053711-0.0000305,0.0080566,0.0000305h4.0230103c0.1958008,0,0.3544922,0.1587219,0.3544922,0.3544922
						c0,0.1958008-0.1586914,0.3545227-0.3544922,0.3545227h-3.6659851v2.3469849h3.6659851
						c0.1958008,0,0.3544922,0.1587219,0.3544922,0.3544922c0,0.1958008-0.1586914,0.3545227-0.3544922,0.3545227"/>
					<path id="Tracé_7284" class="st12" d="M85.0858994,91.253006c-0.098877-0.0075378-0.192749-0.0464172-0.2680054-0.1109924
						c-0.1342468-0.1431274-0.1342468-0.3658752,0-0.5090027l3.3309937-3.2999878
						c0.1455383-0.1329651,0.3684692-0.1329651,0.5140076,0c0.1337585,0.1433105,0.1337585,0.3656921,0,0.5090027
						l-3.3309937,3.2999878C85.2868881,91.2310028,85.1978989,91.253006,85.0858994,91.253006"/>
					<path id="Tracé_7285" class="st12" d="M87.6788559,91.253006c-0.098877-0.0074768-0.1927795-0.0463562-0.2680054-0.1109924
						c-0.1342468-0.1431274-0.1342468-0.3658752,0-0.5090027l3.3299866-3.2999878
						c0.1455383-0.1329651,0.3684692-0.1329651,0.5140076,0c0.1342468,0.1431274,0.1342468,0.3658752,0,0.5090027
						l-3.3299866,3.2999878C87.8665695,91.2178192,87.7742538,91.2594452,87.6788559,91.253006"/>
					<path id="Tracé_7286" class="st12" d="M90.3168564,101.1719818c0.4036865,0.0038757,0.7278442,0.334259,0.7239685,0.7379761
						c-0.0038757,0.4036865-0.3342896,0.7278137-0.7379761,0.7239685c-0.4009705-0.0038452-0.723999-0.3299866-0.723999-0.730957
						c0.0016479-0.405365,0.3316345-0.7326355,0.7369995-0.7309875
						C90.316185,101.1719818,90.3165207,101.1719818,90.3168564,101.1719818"/>
					<path id="Tracé_7287" class="st12" d="M75.2048721,126.7670135h-3.9119873
						c-0.1957703,0-0.3544922-0.1586914-0.3544922-0.3544922s0.1587219-0.3544922,0.3544922-0.3544922h3.7550049
						l1.4750061-1.4609985h-5.230011c-0.1957703,0-0.3544922-0.1586914-0.3544922-0.3544922
						s0.1587219-0.3544922,0.3544922-0.3544922h6.125c0.1971436-0.0025635,0.3590393,0.1552124,0.3615723,0.352356
						c0.0013428,0.1016235-0.0407104,0.1989136-0.1155701,0.2676392l-2.2130127,2.1920166
						c-0.0740356,0.0449829-0.1593933,0.0678711-0.2460022,0.065979"/>
					<path id="Tracé_7288" class="st12" d="M96.3748703,126.766983H90.160881
						c-0.098877-0.0075684-0.192749-0.0464478-0.2680054-0.1110229l-2.2130127-2.1920166
						c-0.1044922-0.1049194-0.1391602-0.2606812-0.0889893-0.4000244c0.0577087-0.1337891,0.1893005-0.2205811,0.3349915-0.2210083
						h8.427002c0.1955261,0,0.3540039,0.1585083,0.3540039,0.3540039s-0.1584778,0.3540039-0.3540039,0.3540039h-7.5329895
						l1.4750061,1.4660645h6.0580139c0.1938171-0.0038452,0.3540649,0.1500854,0.3579407,0.3439331
						c0.000061,0.0033569,0.0000916,0.0067139,0.000061,0.0100708c0.0348206,0.1828613-0.0851746,0.3592529-0.2680054,0.394104
						c-0.0220642,0.0042114-0.0445251,0.0061646-0.0669861,0.0059204"/>
					<rect id="Rectangle_1262" x="96.8658676" y="93.5110016" class="st13" width="17.4580002" height="3.0109999"/>
					<path id="Tracé_7289" class="st13" d="M126.6618576,81.5110016l-12.3380127,12.2219849l2.1459961,2.1260071
						l12.3389969-12.2220154L126.6618576,81.5110016z"/>
					<path id="Tracé_7290" class="st12" d="M94.0948715,94.1179962c0.5219421-1.5223694,2.1724548-2.3404846,3.7000122-1.8340149
						c1.5202942,0.4932556,2.3528748,2.1255798,1.8596191,3.645874c-0.002533,0.0077209-0.0050659,0.0154419-0.0076294,0.0231323
						c-0.5215149,1.5227356-2.1721497,2.3413696-3.7000122,1.8349915c-1.5223999-0.497467-2.353302-2.1348877-1.855835-3.6572876
						c0.0012817-0.0039062,0.0025635-0.0078125,0.0038452-0.0117188"/>
					<path id="Tracé_7291" class="st12" d="M115.127861,92.1160126c1.6015625,0.0154724,2.8873291,1.3263245,2.8718567,2.927887
						c-0.0154724,1.601532-1.3263245,2.8872986-2.927887,2.8718567c-1.5905762-0.0153809-2.8719177-1.3091125-2.8719788-2.8997498
						c0.0077209-1.6093445,1.3186035-2.9077148,2.927948-2.8999939
						C115.1278,92.1160126,115.1278305,92.1160126,115.127861,92.1160126"/>
					<path id="Tracé_7292" class="st12" d="M129.7468567,80.5359955c1.1322021,1.1171875,1.1443481,2.9406738,0.0271606,4.0728455
						c-0.0089722,0.0091248-0.0180664,0.018158-0.0271606,0.0271606c-1.1472778,1.1287231-2.9877396,1.1287231-4.1350174,0
						c-1.1322021-1.1171875-1.1443481-2.9406738-0.0271606-4.0728455c0.0089722-0.0091248,0.0180664-0.018158,0.0271606-0.0271606
						C126.758873,79.406723,128.599823,79.406723,129.7468567,80.5359955"/>
					<path id="Tracé_7293" class="st19" d="M135.401886,70.1300049c0.4647217-0.4608154,1.1595459-0.6000977,1.7659912-0.3540039
						c0.6039429,0.24646,1.0006714,0.8316956,1.0059814,1.4840088v8.5239868
						c-0.0054321,0.2640076-0.1091919,0.5164795-0.2910156,0.7080078l-3.8900146,3.8529968
						c-0.1925659,0.1842346-0.4485474,0.287323-0.7150269,0.2879944h-3.1290283
						c-0.265625-0.0049744-0.5201416-0.1074829-0.7150269-0.2879944l-4.1800003-4.1400146v-3.9190063l3.7550125-3.7200012
						l1.96698,1.947998l4.4260254-4.3840027"/>
					<path id="Tracé_7294" class="st12" d="M129.4558716,76.3740082c-0.098877-0.0075989-0.192688-0.0464783-0.2680054-0.1109924
						c-0.133728-0.1433105-0.133728-0.3656921,0-0.5090027l1.4530029-1.4389954
						c0.1456909-0.1324768,0.3682861-0.1324768,0.5139771,0c0.133728,0.1433105,0.133728,0.3656921,0,0.5090027
						l-1.4530029,1.4389954C129.6465454,76.342453,129.552063,76.3850861,129.4558716,76.3740082"/>
					<path id="Tracé_7295" class="st12" d="M131.4468689,78.3439941c-0.098877-0.0075378-0.192749-0.0464172-0.2680054-0.1109924
						c-0.1342163-0.1431274-0.1342163-0.3658752,0-0.5090027l6.1469727-6.0889893
						c0.1456909-0.1324768,0.3682861-0.1324768,0.5139771,0c0.1342163,0.1431274,0.1342163,0.3658752,0,0.5090027l-6.125,6.1109924
						c-0.0733643,0.0651245-0.1702271,0.09729-0.2680054,0.0889893"/>
					<path id="Tracé_7296" class="st12" d="M133.5238953,80.8019867c-0.098877-0.0075378-0.192749-0.0464172-0.2680054-0.1109924
						c-0.1342163-0.1431274-0.1342163-0.3658752,0-0.5090027l3.8889771-3.8529968
						c0.1455078-0.1329651,0.3684692-0.1329651,0.5139771,0c0.133728,0.1433105,0.133728,0.3656921,0,0.5090027
						l-3.8889771,3.8529968C133.7115784,80.7667694,133.6192932,80.8084259,133.5238953,80.8019867"/>
					<path id="Tracé_7297" class="st18" d="M74.7808762,114.6110077c-0.2910156,0.0049744-0.5309753-0.2268982-0.5359497-0.5178833
						c-0.000061-0.0043945-0.0000916-0.0087585-0.000061-0.0131226v-1.3280029c0-0.2962952,0.2402039-0.536499,0.536499-0.536499
						s0.536499,0.2402039,0.536499,0.536499v1.3280029c0.0178833,0.2755737-0.1910095,0.5134583-0.4665833,0.5313416
						c-0.0231018,0.0014954-0.0463257,0.0013733-0.0694275-0.0003357"/>
					<path id="Tracé_7298" class="st18" d="M77.3068466,114.6110077c-0.2910156,0.0049744-0.5309753-0.2268982-0.5359497-0.5178833
						c-0.000061-0.0043945-0.0000916-0.0087585-0.000061-0.0131226v-1.3280029c0-0.2962952,0.2402039-0.536499,0.536499-0.536499
						s0.536499,0.2402039,0.536499,0.536499v1.3280029c0.0178833,0.2755737-0.1910095,0.5134583-0.4665833,0.5313416
						c-0.0231018,0.0014954-0.0463257,0.0013733-0.0694275-0.0003357"/>
					<rect id="Rectangle_1263" x="72.6348724" y="119.4379959" class="st13" width="22.3980007" height="0.731"/>
					<path id="Tracé_7299" class="st19" d="M75.8088913,141.3799896c-0.0055237,0.5804443,0.4605408,1.0554199,1.0409546,1.0609131
						c0.5804443,0.0055542,1.0554504-0.4605103,1.0609436-1.0409546c0.0055237-0.5804443-0.4605408-1.0554199-1.0409546-1.0609131
						c-0.0033264-0.000061-0.0066223-0.000061-0.0099487-0.000061c-0.5765686-0.0038452-1.0471191,0.4603882-1.0509644,1.0369873
						C75.8088913,141.3773041,75.8088913,141.3786469,75.8088913,141.3799896"/>
					<path id="Tracé_7300" class="st19" d="M88.4608688,141.3799896c-0.0055237,0.5804443,0.4605408,1.0554199,1.0409546,1.0609131
						c0.5804443,0.0055542,1.0554504-0.4605103,1.0609436-1.0409546c0.0055237-0.5804443-0.4605408-1.0554199-1.0409546-1.0609131
						c-0.0036621-0.000061-0.0072937-0.000061-0.0109558-0.000061c-0.5765686-0.0032959-1.0466614,0.4614258-1.0499878,1.0379639
						C88.4608688,141.3779755,88.4608688,141.378952,88.4608688,141.3799896"/>
					<path id="Tracé_7301" class="st19" d="M80.3918533,151.2779999c0.1958923-0.0076294,0.3847656,0.0736084,0.5140076,0.2210083
						c0.1359863,0.135376,0.2156677,0.3171997,0.2229919,0.5089722v2.125
						c-0.0028992,0.192749-0.0832825,0.3761597-0.2229919,0.5089722c-0.1377869,0.1351929-0.321106,0.2139893-0.5140076,0.2210083
						h-8.3150024c-0.4108887,0.0010986-0.744873-0.3311157-0.7459717-0.7420044
						c-0.0005188-0.1940918,0.0748291-0.3806763,0.2099609-0.5200195l2.1459961-2.125
						c0.1377258-0.1352539,0.3210754-0.2141113,0.5140076-0.2210083c1.1000061,0.0219727,4.6489868,0.0219727,6.1919861,0.0219727"
						/>
					<path id="Tracé_7302" class="st19" d="M93.2448654,151.2779999c0.1958923-0.0076294,0.3847656,0.0736084,0.5140076,0.2210083
						c0.1359253,0.135437,0.2155762,0.3172607,0.2229919,0.5089722v2.125
						c-0.0030212,0.192688-0.083374,0.3760986-0.2229919,0.5089722c-0.1378479,0.1351318-0.3211365,0.2139282-0.5140076,0.2210083
						H84.929863c-0.4108887,0.0010986-0.744873-0.3311157-0.7459717-0.7420044
						c-0.0005188-0.1940918,0.0748291-0.3806763,0.2099609-0.5200195l2.1459961-2.125
						c0.1376648-0.135376,0.3210754-0.2141724,0.5140076-0.2210083c1.1000061,0.0219727,4.6489868,0.0219727,6.1919861,0.0219727"/>
					<path id="Tracé_7303" class="st12" d="M74.4238815,152.6949921c-0.0988464-0.0076294-0.1927185-0.0465088-0.2680054-0.1110229
						l-0.7820129-0.7750244c-0.133728-0.1433105-0.133728-0.3656616,0-0.5089722
						c0.1455383-0.1329956,0.3684692-0.1329956,0.5140076,0l0.7820129,0.7750244c0.133728,0.1433105,0.133728,0.3656616,0,0.5089722
						C74.6053085,152.651413,74.5171432,152.6912079,74.4238815,152.6949921"/>
					<path id="Tracé_7304" class="st12" d="M87.3878708,152.6949921c-0.0988464-0.0076294-0.1927185-0.0465088-0.2680054-0.1110229
						l-0.7820129-0.7750244c-0.1342163-0.1431274-0.1342163-0.3658447,0-0.5089722
						c0.1455383-0.1329956,0.3684692-0.1329956,0.5140076,0l0.7820129,0.7750244c0.133728,0.1433105,0.133728,0.3656616,0,0.5089722
						C87.5692978,152.651413,87.4811325,152.6912079,87.3878708,152.6949921"/>
					<path id="Tracé_7305" class="st12" d="M73.261879,153.845993c-0.0988464-0.0076294-0.1927185-0.0465088-0.2680054-0.1110229
						l-0.7820129-0.7750244c-0.1342163-0.1431274-0.1342163-0.3658447,0-0.5089722
						c0.1455383-0.1329956,0.3684692-0.1329956,0.5140076,0l0.7820129,0.7750244c0.133728,0.1433105,0.133728,0.3656616,0,0.5089722
						C73.4460831,153.8061981,73.3561783,153.8467865,73.261879,153.845993"/>
					<path id="Tracé_7306" class="st12" d="M86.2258835,153.845993c-0.0988464-0.0076904-0.192688-0.0465698-0.2680054-0.1110229
						l-0.7820129-0.7750244c-0.1342163-0.1431274-0.1342163-0.3658447,0-0.5089722
						c0.1455383-0.1329956,0.3684692-0.1329956,0.5140076,0l0.7820129,0.7750244
						c0.1342163,0.1431274,0.1342163,0.3658447,0,0.5089722C86.4073105,153.8024139,86.3191452,153.8422089,86.2258835,153.845993"
						/>
				</g>
			</g>
		</g>
		<g id="Groupe_2340" transform="translate(75.275 93.801)">
			<g>
				<defs>
					<rect id="SVGID_00000044868057734038851800000010575716540745308298_" x="0.2888737" y="0.6969995" width="14" height="4"/>
				</defs>
				<clipPath id="SVGID_00000040533183468130751610000002239317905263287203_">
					<use xlink:href="#SVGID_00000044868057734038851800000010575716540745308298_"  style="overflow:visible;"/>
				</clipPath>
				
					<g id="Groupe_2339" transform="translate(0 0)" style="clip-path:url(#SVGID_00000040533183468130751610000002239317905263287203_);">
					<path id="Tracé_7307" class="st18" d="M7.5088763,3.5529954C6.5865741,3.5567186,5.7286944,3.0806139,5.2438617,2.2960069
						C5.1508136,2.13994,5.2019,1.9379747,5.3579669,1.8449266c0.0058594-0.003479,0.0118103-0.0068054,0.0178833-0.0099182
						c0.1691589-0.0935669,0.381958-0.0381775,0.4840088,0.1260071c0.3527222,0.5700684,0.9797363,0.9120789,1.6499939,0.8999939
						C8.1767225,2.8596361,8.7976332,2.520952,9.1598463,1.9610155c0.0922241-0.1667175,0.3021545-0.2271118,0.4689026-0.1348877
						c0.0050964,0.0028381,0.0101318,0.0057983,0.0151062,0.0088806C9.801753,1.9053819,9.8726759,2.0904405,9.8023024,2.2483385
						C9.7948866,2.2649705,9.7860365,2.2809007,9.7758436,2.2960069C9.2948256,3.0845811,8.4345045,3.5620592,7.5108294,3.5529954"
						/>
					<path id="Tracé_7308" class="st18" d="M2.3178666,2.7120225H0.5578569
						C0.3702043,2.7186754,0.2126726,2.5719163,0.2060503,2.3842638C0.2059587,2.3818529,0.2058977,2.379442,0.2058672,2.3770311
						V0.3450181c0.0206604-0.1932983,0.1941223-0.333252,0.3874207-0.3125916
						c0.1647949,0.0176086,0.2949829,0.1477966,0.3125916,0.3125916v1.7000122h1.4079894
						c0.1850281-0.0142517,0.3465576,0.124176,0.3608093,0.3092041C2.6889603,2.539232,2.5505326,2.7007921,2.3655045,2.7150438
						c-0.0171814,0.0013123-0.0344543,0.0013123-0.0516357,0"/>
					<path id="Tracé_7309" class="st18" d="M14.4588881,2.7120225h-1.7600098
						c-0.1876526,0.0066528-0.3451843-0.1401062-0.3518066-0.3277588c-0.0000916-0.0024109-0.0001526-0.0048218-0.0001831-0.0072327
						V0.3450181c0.0206604-0.1932983,0.1941223-0.333252,0.3874207-0.3125916
						c0.1647949,0.0176086,0.2949829,0.1477966,0.3125916,0.3125916v1.7000122h1.4079895
						c0.1870728-0.0071716,0.344574,0.1386414,0.3517456,0.3257446c0.0001221,0.0030823,0.0002136,0.0061646,0.0002441,0.0092468
						c0.0049438,0.180542-0.1373901,0.3309021-0.3179321,0.3358459c-0.0113525,0.0003052-0.0227356,0.0000305-0.0340576-0.0008545"
						/>
				</g>
			</g>
		</g>
		<g id="Groupe_2342" transform="translate(67.404 154.522)">
			<g>
				<defs>
					<rect id="SVGID_00000076598322770377316490000006064913167506515120_" x="0.1598746" y="0.9750002" width="29" height="1"/>
				</defs>
				<clipPath id="SVGID_00000037670736856877746480000000648894782592661426_">
					<use xlink:href="#SVGID_00000076598322770377316490000006064913167506515120_"  style="overflow:visible;"/>
				</clipPath>
				
					<g id="Groupe_2341" transform="translate(0 0)" style="clip-path:url(#SVGID_00000037670736856877746480000000648894782592661426_);">
					<path id="Tracé_7310" class="st12" d="M28.7488976,1.4760002H1.3489039c-0.1833496,0-0.3320007-0.1486206-0.3320007-0.3319702
						c0-0.1834106,0.1486511-0.3320312,0.3320007-0.3320312h27.3999939c0.1833496,0,0.3320007,0.1486206,0.3320007,0.3320312
						C29.0808983,1.3273796,28.9322472,1.4760002,28.7488976,1.4760002L28.7488976,1.4760002"/>
				</g>
			</g>
		</g>
		<g id="Groupe_2344" transform="translate(-0.064 0.469)">
			<g>
				<g id="Groupe_2343" transform="translate(0 0)">
					<path id="Tracé_7311" class="st19" d="M118.3188705,61.3829994c-1.1530151-1.1520081-1.6849976-1.9500122-3.5460205-1.9500122
						s0.8200073,3.7890015,0.8200073,3.7890015S119.4718857,62.534977,118.3188705,61.3829994"/>
					<path id="Tracé_7312" class="st13" d="M57.8808708,77.9150009L23.4588737,28.1660004L49.7238731,5.2519989
						l66.0950012,54.5579987L57.8808708,77.9150009z"/>
					<path id="Tracé_7313" class="st19" d="M58.3228722,79.0000153c1.5740051,1.572998,1.9060059,2.1719971,4.2779846,2.1719971
						c2.3719749,0,1.1530151-2.5480042,1.1530151-2.5480042s-7-1.2000122-5.4299927,0.3770142"/>
					<path id="Tracé_7314" class="st12" d="M115.9068832,62.0669899c0.6025696-0.60495,0.6006165-1.5838013-0.0043335-2.1863708
						c-0.2874451-0.2863159-0.6759338-0.4481812-1.081665-0.4506226H76.3438644
						c-0.406189-0.0009155-0.7963562,0.1582336-1.0859985,0.4429932L58.346859,76.7809753
						c-0.6025696,0.60495-0.6006165,1.5838013,0.0043335,2.1863708c0.2874451,0.2863159,0.6759338,0.4481812,1.081665,0.4506226
						h38.477993c0.406189,0.0009155,0.7963562-0.1582336,1.0859985-0.4429932L115.9068832,62.0669899"/>
					<path id="Tracé_7315" class="st19" d="M61.4928551,81.0399933c-0.2713623-0.2654114-0.3509216-0.6707153-0.2000122-1.0190125
						c0.1459961-0.3482666,0.4863892-0.5751953,0.8640137-0.5759888h35.7510033
						c0.406189,0.0010376,0.7964172-0.1581421,1.0859985-0.4429932l17.6210022-17.6170006
						c0.4771729-0.4774475,1.2510376-0.4776917,1.7284851-0.0004883c0.477478,0.4771729,0.4776917,1.2510376,0.0005188,1.7284851
						l-17.6210022,17.6170006c-0.2896423,0.2847595-0.6798096,0.4439087-1.0859985,0.4429932H61.8258629
						c-0.1242676,0.0033264-0.2443848-0.0447998-0.3320007-0.1329956"/>
					<path id="Tracé_7316" class="st18" d="M85.4758682,59.4329872h1.2860107l-5.9179993,5.9169884h9.2869873l5.9179993-5.9169884
						h1.2850037l-5.9179993,5.9169884h9.2870178l5.9179993-5.9169884h1.2819824l-5.9179993,5.9169884h10.6610107
						l-0.9089966,0.9089966h-10.6570129l-5.7850037,5.7839966h10.6610107l-0.9089966,0.9079895H94.3858719l-6.5159912,6.4930115
						h-1.2860107l6.5159912-6.5150146h-9.2869873l-6.493988,6.5150146h-1.2860107l6.5159912-6.5150146h-9.3089905
						l-6.493988,6.5150146H65.459877l6.5159912-6.5150146h-9.7729759l0.9089966-0.9079895h9.7749901l5.7850037-5.7839966h-9.7749939
						l0.9089966-0.9089966h9.7749939L85.4758682,59.4329872z M79.9348831,66.2579956l-5.7850037,5.7839966h9.2869873
						l5.7850037-5.7839966H79.9348831z M90.5068741,66.2579956l-5.7850037,5.7839966h9.2869873l5.7850037-5.7839966H90.5068741z"/>
					<path id="Tracé_7317" class="st13" d="M37.5338707,0.177c9.8030548,0.0016559,17.7486572,7.9499435,17.7470016,17.7529984
						S47.3309288,35.6786537,37.527874,35.6769981C27.7259941,35.6753426,19.7808723,27.7288837,19.7808723,17.927
						C19.7819786,8.1232328,27.7301064,0.1764496,37.5338707,0.177"/>
					<path id="Tracé_7318" class="st18" d="M53.2478676,10.3710003c0.5557251,1.175869,0.9793091,2.4097443,1.2630005,3.6790009
						c2.0503998,9.4545937-3.951889,18.7812328-13.4064941,20.831625c-1.1737213,0.2545471-2.3705292,0.3877029-3.5715027,0.397377
						c-1.578537,0.0056-3.1509857-0.1961212-4.677002-0.5999985c-1.5298767-0.408432-2.9929199-1.035202-4.3440018-1.8610001
						c-0.1590576-0.0980301-0.3674698-0.0485611-0.4654999,0.1104965s-0.0485611,0.3674698,0.1104965,0.4654999
						c1.4027328,0.865715,2.9165802,1.53685,4.5,1.9950027c1.585556,0.454277,3.2266541,0.6854935,4.8760071,0.6869965
						c9.9468842,0.0787201,18.0742493-7.9210148,18.1529694-17.8679066
						c0.0007477-0.0936966,0.0007477-0.1874008,0.0000305-0.2810974c-0.0198517-2.7221107-0.6564636-5.4043121-1.8619995-7.8450012
						c-0.0822449-0.162056-0.2776489-0.230423-0.4429932-0.1549988c-0.1577148,0.0866966-0.2168732,0.2837715-0.1329956,0.4430008"
						/>
					<path id="Tracé_7319" class="st13" d="M47.1748772,70.8899994c-0.1266022-0.0037994-0.2430878-0.0700836-0.3110046-0.177002
						L27.2708702,39.4449959c-0.1041031-0.1656799-0.054184-0.3843994,0.1115036-0.4884949
						c0.1656799-0.1041107,0.3843918-0.054184,0.4884949,0.111496l19.5929947,31.2680016
						c0.1047821,0.1624298,0.0580597,0.3790588-0.1043854,0.4838409c-0.002182,0.0014191-0.0043945,0.0028076-0.0066071,0.0041656
						c-0.0481567,0.0442047-0.1116638,0.0678864-0.177002,0.0659943"/>
					<path id="Tracé_7320" class="st13" d="M29.4208717,48.6450081c-0.1357269,0.0074615-0.260849-0.0732574-0.3099976-0.1999969
						l-7.9570007-15.2460022c-0.0861664-0.1804047-0.0097656-0.3964996,0.170639-0.482666
						c0.1725388-0.0824127,0.3794022-0.0164185,0.4723587,0.1506653l7.9349976,15.2680054
						c0.0908127,0.1776581,0.0216827,0.3953094-0.1549988,0.4880066c-0.0491562,0.0196533-0.1023178,0.0272064-0.1549988,0.0220032"
						/>
					<path id="Tracé_7321" class="st13" d="M112.2938766,52.4970055c-0.0834961,0.0044556-0.1647034-0.0281067-0.2219849-0.0890045
						L79.3788986,26.5250034c-0.1590576-0.1223297-0.1888428-0.350441-0.0664978-0.509491
						c0.1223145-0.1590576,0.3504333-0.1888351,0.509491-0.0665054l32.6929932,25.885004
						c0.1511536,0.1270294,0.1798401,0.3486633,0.0660095,0.5099945c-0.0608215,0.1000366-0.17099,0.1593475-0.2879944,0.1549988"/>
					<path id="Tracé_7322" class="st13" d="M71.5108719,20.1880016c-0.0834656,0.0043182-0.1646118-0.0282211-0.2219849-0.0889969
						l-5.5849915-4.4319992c-0.1590576-0.1223297-0.1888428-0.350441-0.0664978-0.509491
						c0.1223145-0.1590576,0.3504333-0.1888351,0.509491-0.0665054l5.5859985,4.4319992
						c0.1603394,0.1310959,0.1840515,0.3673401,0.052948,0.5276794c-0.0678101,0.0829468-0.1678772,0.1329269-0.2749329,0.1373215"
						/>
					<path id="Tracé_7323" class="st13" d="M94.8948593,33.3950005c-0.0786438-0.001236-0.155426-0.0240707-0.2219849-0.0660019
						L75.2348557,19.2390003c-0.1656799-0.1162567-0.2057495-0.3448105-0.0895081-0.5104904
						c0.116272-0.1656876,0.3448181-0.2057648,0.510498-0.0895081l19.4609985,14.0940037
						c0.1598206,0.1198349,0.1984253,0.3435287,0.0880127,0.5100021c-0.0794983,0.0896835-0.1905518,0.1452103-0.3099976,0.1549988"
						/>
					<path id="Tracé_7324" class="st18" d="M62.7558708,65.7269897c-0.1115112,0.0030975-0.2180481-0.0461121-0.2879944-0.1329956
						L49.8118706,49.239994c-0.1223297-0.1590576-0.0925598-0.3871765,0.0664978-0.5095062
						c0.1590729-0.1223145,0.3871765-0.0925446,0.5095062,0.0665131L63.0438805,65.151001
						c0.1230774,0.1554413,0.0968323,0.3812408-0.0586243,0.504303c-0.0024261,0.0019379-0.0048828,0.00383-0.00737,0.0056915
						c-0.0651855,0.0448761-0.1428833,0.0679779-0.2220001,0.0659943"/>
					<path id="Tracé_7325" class="st18" d="M53.6018791,48.1980019c-0.0992126-0.0034027-0.1938019-0.0428619-0.2660065-0.1109924
						l-2.6380005-2.8999939c-0.1325989-0.14888-0.1194153-0.3770752,0.02948-0.5096741
						c0.1457977-0.1298676,0.3684387-0.1202698,0.5025177,0.0216675l2.6380005,2.8999939
						c0.1349945,0.1414185,0.129776,0.365509-0.0116425,0.5005035c-0.0033875,0.0032196-0.0068512,0.0063934-0.0103607,0.009491
						c-0.074585,0.045639-0.157547,0.0758972-0.2440033,0.0890045"/>
					<path id="Tracé_7326" class="st18" d="M70.8468857,49.6390114c-0.0991821-0.0034943-0.1937256-0.0429382-0.2659912-0.1109924
						l-1.0859985-1.1300049c-0.1408386-0.1408386-0.1408386-0.3691711,0-0.5100098
						c0.1408386-0.1408234,0.3691711-0.1408234,0.5100098,0.0000153l1.0859985,1.1300049
						c0.1333923,0.1438293,0.1333923,0.3661652,0,0.5099945c-0.0574341,0.0757599-0.1491394,0.1174774-0.243988,0.1109924"/>
					<path id="Tracé_7327" class="st18" d="M39.8608818,46.0040016c-0.1169891,0.0043488-0.2271881-0.0549622-0.2879944-0.1549988
						l-0.753006-1.0639954c-0.1162567-0.1656799-0.0761871-0.3942413,0.0895081-0.510498
						c0.1656799-0.116272,0.3942413-0.0761871,0.510498,0.0894928l0.753006,1.0639954
						c0.1081238,0.1671448,0.0693359,0.3893585-0.0890045,0.5099945c-0.0678101,0.0390625-0.1438599,0.061676-0.2220001,0.0659943"
						/>
					<path id="Tracé_7328" class="st13" d="M32.1478844,52.8289986c-0.1431732-0.0069885-0.2708435-0.0923462-0.3320007-0.2220001
						l-0.5319977-1.1999969c-0.0795288-0.1775665-0.000061-0.3859711,0.1775055-0.4654999s0.3859711-0.000061,0.4654999,0.1775055
						l0.5319977,1.1999969c0.0825806,0.1692505,0.0123138,0.3734131-0.1569366,0.4559937
						c-0.0065918,0.0032196-0.0132751,0.0062256-0.0200653,0.0090027c-0.0220032,0.0440063-0.0670013,0.0440063-0.1329956,0.0440063
						"/>
					<path id="Tracé_7329" class="st13" d="M48.1058769,67.4110107c-0.1194458-0.0097961-0.2304993-0.0653076-0.3099976-0.1549988
						l-2.0390015-3.1000061c-0.1162567-0.1656761-0.0761719-0.3942528,0.0895081-0.5104942s0.3942413-0.0761719,0.510498,0.0895081
						l0,0l2.0610046,3.0799828c0.1081238,0.1671448,0.0693512,0.3893738-0.0890045,0.5100098
						c-0.061615,0.0542297-0.1399841,0.0856628-0.2220001,0.0889893"/>
					<path id="Tracé_7330" class="st18" d="M68.7398605,27.0380039c-0.0834961,0.0044556-0.1647034-0.0280991-0.2219849-0.0889969
						l-1.0190125-0.8199997c-0.1590576-0.1223297-0.1888428-0.350441-0.0664978-0.509491
						c0.1223145-0.1590576,0.3504333-0.1888351,0.509491-0.0665054l1.019989,0.8199997
						c0.1511536,0.1270294,0.1798401,0.348671,0.0660095,0.5100021c-0.0608215,0.1000443-0.17099,0.1593475-0.2879944,0.1549988"/>
					<path id="Tracé_7331" class="st13" d="M98.2208786,32.4859962c-0.0786438-0.001236-0.155426-0.0240631-0.2219849-0.0659943
						l-1.0419922-0.7760029c-0.1516113-0.132019-0.1674805-0.3619385-0.0354614-0.5135498
						c0.1207886-0.1387177,0.3261108-0.1655121,0.4784546-0.0624542l1.0419922,0.776001
						c0.1583862,0.1174164,0.1915894,0.3410053,0.0741882,0.4993916c-0.002655,0.0035858-0.0054016,0.0071259-0.0081787,0.0106049
						c-0.0760803,0.0786743-0.178772,0.1261139-0.2879944,0.1329956"/>
					<path id="Tracé_7332" class="st18" d="M62.2908592,69.6710052c-0.1170044,0.0043335-0.2271729-0.0549622-0.2879944-0.1549988
						l-0.7539978-1.0639954c-0.1162415-0.1656799-0.0761719-0.3942566,0.0895081-0.510498s0.3942566-0.0761719,0.510498,0.0895081
						l0.7539978,1.0639954c0.1076355,0.1672363,0.0689087,0.3890991-0.0889893,0.5100098
						c-0.0678101,0.0390625-0.1438293,0.061676-0.2219849,0.0660095"/>
					<path id="Tracé_7333" class="st18" d="M40.7698784,43.1020088c-0.1169891,0.0043488-0.2271881-0.0549622-0.2879944-0.1549988
						l-3.6999969-5.2519989c-0.1162567-0.1656799-0.0761871-0.3942413,0.0895081-0.510498
						c0.1656799-0.116272,0.3942413-0.0761871,0.510498,0.0894928l3.6999969,5.2519989
						c0.1076202,0.1672516,0.0688934,0.3890839-0.0890045,0.5099945c-0.0678101,0.0390625-0.1438599,0.061676-0.2220001,0.0659943"
						/>
					<path id="Tracé_7334" class="st18" d="M85.2308884,49.6160011c-0.0900269,0.0045776-0.1780701-0.0275421-0.243988-0.0890045
						L72.2868881,38.5580025c-0.1512146-0.1307983-0.1677551-0.3594055-0.0369568-0.5106049
						c0.1282349-0.1482697,0.3512268-0.167511,0.5029602-0.043396l12.7000122,10.9689941
						c0.1525879,0.1240082,0.1757507,0.3482208,0.0517578,0.5007935c-0.002533,0.0031128-0.005127,0.0061798-0.0077515,0.009201
						c-0.0574646,0.0898743-0.1596069,0.1409607-0.2659912,0.1329956"/>
					<path id="Tracé_7335" class="st18" d="M78.3388901,38.6479988c-0.0834656,0.0043182-0.1646118-0.0282211-0.2219849-0.0889969
						l-20.616024-17.2180042c-0.1586914-0.1215897-0.1887817-0.3488159-0.0671997-0.507515
						c0.1216125-0.1587067,0.3488159-0.1887817,0.5075378-0.0671921c0.0085144,0.0065308,0.0167542,0.013443,0.0246582,0.0207062
						l20.6130028,17.2180042c0.1525879,0.1240005,0.1757507,0.3482132,0.0517578,0.5007935
						c-0.002533,0.0031128-0.005127,0.0061798-0.0077515,0.0092087c-0.0728149,0.0831375-0.1774902,0.1314774-0.2879944,0.1330032"
						/>
					<path id="Tracé_7336" class="st18" d="M63.554882,41.9269981c-0.0982666-0.0075378-0.1915131-0.0464478-0.2660065-0.1109924
						l-8.9759979-9.0189972c-0.1408386-0.1408386-0.1408386-0.3691559,0-0.5099945s0.3691559-0.1408386,0.5099945,0
						l8.977005,9.0189972c0.1333923,0.1438293,0.1333923,0.3661652,0,0.5099945
						c-0.0574341,0.0757599-0.1491547,0.1174927-0.2440033,0.1109924"/>
					<path id="Tracé_7337" class="st18" d="M41.788868,0.687c-0.6072311-0.1528715-1.2225189-0.2717229-1.8429947-0.356
						c-0.2420731,0.4349273-0.5485382,0.8307378-0.9089966,1.1740001c-0.6109085,0.6570294-1.4070969,1.1128435-2.2829971,1.3070002
						C35.4949455,3.0517786,34.346241,3.6893988,33.4768715,4.631c-0.9256668,0.8828506-1.559906,2.0271354-1.8180008,3.2799997
						c-0.2045975,0.8717618-0.6591797,1.6648564-1.3079987,2.2820001C29.7399254,10.8499794,28.9437523,11.3057842,28.0678749,11.5
						c-1.2597809,0.2385645-2.4096069,0.8755236-3.2799988,1.8170004c-0.925766,0.8827724-1.5600281,2.027091-1.8180008,3.2800016
						c-0.1994553,0.8737774-0.6548462,1.6682701-1.3079987,2.2819996c-0.5101547,0.5224113-1.1306076,0.9242039-1.8160019,1.1759987
						c0.0690689,0.6037483,0.1725693,1.2030563,0.3099976,1.7950001c1.055336-0.3201809,2.0099106-0.9078789,2.7709961-1.7059994
						c0.9254532-0.8828659,1.5593643-2.0271893,1.8170013-3.2800007c0.1995163-0.8737574,0.654892-1.6682329,1.3079987-2.2820005
						c0.6108246-0.6571293,1.4070511-1.1129627,2.2829971-1.3070002c1.2598038-0.2384968,2.4096451-0.8754673,3.2799988-1.8170004
						c0.9258194-0.8827324,1.5600891-2.0270681,1.8180008-3.2799997c0.1995697-0.8737335,0.6549454-1.6681938,1.3079987-2.2819996
						c0.6109467-0.6569796,1.4071198-1.1127839,2.2829971-1.3070002c1.2598038-0.2384968,2.4096451-0.8754668,3.2799988-1.8169999
						c0.6336288-0.5842519,1.139267-1.293506,1.4850006-2.0829999"/>
					<path id="Tracé_7338" class="st18" d="M47.9728737,3.5680001c-0.5110245,0.6866195-0.8535614,1.4837062-1,2.3270004
						C46.7682762,6.7667618,46.313694,7.5598564,45.664875,8.177c-0.6107712,0.6573963-1.4069748,1.1135674-2.2829971,1.3080006
						C42.1217155,9.7232971,40.9714928,10.360281,40.1008797,11.302c-0.925766,0.8827724-1.5600281,2.0270901-1.8180008,3.2800007
						c-0.1994553,0.8737774-0.6548462,1.6682701-1.3079987,2.2819996c-0.6108704,0.6570797-1.407074,1.1129017-2.2829971,1.3069992
						c-1.2597809,0.2385635-2.4096069,0.8755226-3.2799988,1.8169994c-0.9257202,0.8828106-1.559967,2.027113-1.8180008,3.2800007
						c-0.2045975,0.8717613-0.6591797,1.664856-1.3079987,2.2820015c-0.6109085,0.6570282-1.4070969,1.1128426-2.2829971,1.3069992
						c-1.1134338,0.2088928-2.1439285,0.7317734-2.9700012,1.507c0.3550034,0.487999,0.7310028,0.9529991,1.1299973,1.4179993
						c0.5698471-0.5709763,1.2936554-0.9636307,2.0830002-1.1300011c1.2598038-0.2384987,2.4096451-0.8754692,3.2799988-1.8170013
						c0.9258728-0.8826942,1.5601501-2.0270462,1.8180008-3.2799988c0.2045975-0.8717613,0.6591797-1.664856,1.3079987-2.2820015
						c0.6109085-0.6570282,1.4070969-1.1128426,2.2829971-1.3069992c1.2597809-0.2385635,2.4096069-0.8755226,3.2799988-1.8169994
						c0.9258194-0.8827324,1.5600891-2.0270691,1.8180008-3.2800007c0.2045975-0.8717613,0.6591797-1.664856,1.3079987-2.2819996
						c0.6107864-0.6571789,1.4070282-1.1130219,2.2829971-1.3069992c1.2598343-0.23843,2.4096909-0.8754101,3.2799988-1.8169994
						c0.9258728-0.8826942,1.5601425-2.0270462,1.8180008-3.2800007c0.0999451-0.5194092,0.3118591-1.0108051,0.6210022-1.4400005
						c-0.4162598-0.4376984-0.876709-0.8311288-1.3740005-1.1739995"/>
					<path id="Tracé_7339" class="st18" d="M54.0008812,11.2570019c-0.1859894,0.4005928-0.312973,0.8260078-0.3769989,1.2630005
						c-0.1994629,0.8737793-0.6548462,1.6682701-1.3079987,2.2820015c-0.6109467,0.6569786-1.4071198,1.1127853-2.2830048,1.3069992
						c-1.2597809,0.2385635-2.4096069,0.8755226-3.2799988,1.8170013c-0.925766,0.8827744-1.5600281,2.027092-1.8179932,3.2799988
						c-0.204422,0.8721199-0.6590118,1.6655846-1.3079987,2.2830009c-0.6109161,0.657032-1.4071045,1.1128426-2.2830048,1.3069992
						c-1.2597656,0.2386322-2.4095612,0.8755798-3.2799988,1.8170013c-0.9257202,0.8828125-1.559967,2.0271149-1.8179932,3.2799988
						c-0.1994019,0.8738022-0.6548004,1.6683044-1.3079987,2.2819996c-0.6107941,0.6571808-1.4070282,1.1130219-2.2830048,1.3069992
						c-0.7619019,0.1361618-1.4868317,0.4304886-2.128006,0.8639984c0.8544922,0.3646927,1.7366028,0.6609573,2.6380005,0.8860016
						c1.1552124-0.2898026,2.2066345-0.8962097,3.0359955-1.7509995c0.9258118-0.8827362,1.5600891-2.027071,1.8179932-3.2800007
						c0.2045898-0.8717651,0.6591797-1.664856,1.3079987-2.2819977c0.6108704-0.6570816,1.407074-1.1129074,2.2830048-1.3069992
						c1.2597809-0.2385635,2.4096069-0.8755264,3.2799988-1.8170013c0.9253998-0.8829041,1.5593109-2.0272102,1.8170013-3.2799988
						c0.2045898-0.8717613,0.6591797-1.664856,1.3079987-2.2820015c0.6109161-0.657032,1.4071045-1.1128426,2.2830048-1.3069992
						c1.2597809-0.2385635,2.4096069-0.8755226,3.2799988-1.8170013c0.5285339-0.5302353,0.9766235-1.1349754,1.3300018-1.7949982
						c-0.1953125-1.0482941-0.4999847-2.0732269-0.9089966-3.0579987"/>
					<path id="Tracé_7340" class="st12" d="M30.468874,21.4489994c0.4481068,0.6396294,0.4991188,1.4766922,0.132,2.1660004
						c-0.3603706,0.6892815-1.0722084,1.1229248-1.8500004,1.1269989H2.4228742
						c-1.172487-0.0055923-2.1184421-0.9606133-2.1128495-2.1331024c0.0010919-0.2289162,0.0392005-0.4561501,0.1128497-0.6728973
						c1.1985762-3.5449715,4.5198994-5.9344597,8.2619991-5.9440002c1.1257362-0.0038567,2.1130543-0.7521935,2.4210005-1.8349991
						c0.705267-2.7564888,3.1887178-4.6847229,6.0339994-4.6850014c3.4908924,0.008709,6.3225098,2.8291702,6.3449993,6.3199997
						v0.0439987c-0.1933594,1.5821228,0.9324551,3.0214348,2.514576,3.2147942
						c0.1962376,0.023983,0.3944206,0.0277367,0.5914249,0.0112076c1.576376,0.198555,2.9901371,1.0683937,3.8780003,2.3860016"/>
				</g>
			</g>
		</g>
	</g>
</g>
</svg>
