<?xml version="1.0" encoding="utf-8"?>
<!-- Generator: Adobe Illustrator 26.2.1, SVG Export Plug-In . SVG Version: 6.00 Build 0)  -->
<svg version="1.1" xmlns="http://www.w3.org/2000/svg" xmlns:xlink="http://www.w3.org/1999/xlink" x="0px" y="0px"
	 viewBox="0 0 297.0009155 292.3532715" style="enable-background:new 0 0 297.0009155 292.3532715;" xml:space="preserve">
<style type="text/css">
	.st0{fill:url(#FOND_00000110429571190023397670000000473157073514518183_);}
	.st1{fill:url(#FOND_00000159434860817440897820000011299541747632701887_);}
	.st2{fill:#FFF5F7;}
	.st3{fill:url(#FOND_00000139977389627118787200000013150651838770806667_);}
	.st4{fill:url(#FOND_00000052080157346129072340000011299114676224236218_);}
	.st5{fill:url(#FOND_00000129186164915737961840000004335496214536812950_);}
	.st6{fill:url(#FOND_00000021841739807213581500000000506119736584517793_);}
	.st7{fill:url(#FOND_00000029014810384531250410000013625410793140771722_);}
	.st8{fill:url(#FOND_00000071538467322901731860000000094682174831473537_);}
	.st9{fill:url(#FOND_00000040560917422805943310000011866125922028181163_);}
	.st10{fill:url(#FOND_00000057839473743482085490000018314964077108987021_);}
	.st11{fill:url(#FOND_00000165227471227713342890000011726693592711944107_);}
	.st12{fill:#272F60;}
	.st13{fill:#FD657C;}
	.st14{fill:url(#FOND_00000154415802153544852200000016157309382058278287_);}
	.st15{fill:#F4AAB9;}
	.st16{clip-path:url(#Rectangle_10_00000156559139041554178530000017777639384213721482_);}
	.st17{fill:#FB657C;}
	.st18{fill:#FFFFFF;}
	.st19{fill:#FFBCC6;}
	.st20{clip-path:url(#SVGID_00000065038671064374964870000002391982036789022342_);}
	.st21{enable-background:new    ;}
	.st22{fill:#FB657C;stroke:#FD657C;stroke-width:3.8352001;stroke-linecap:round;stroke-linejoin:round;stroke-miterlimit:1.4382;}
	.st23{fill:#FFBCC6;stroke:#FFBCC6;stroke-width:3.8352001;stroke-linecap:round;stroke-linejoin:round;stroke-miterlimit:1.4382;}
	.st24{clip-path:url(#SVGID_00000132810241607643095060000010095566364609279416_);fill:#FB657C;}
	.st25{clip-path:url(#SVGID_00000028315541373193851880000015736258390665607343_);fill:#FFBCC6;}
	.st26{clip-path:url(#SVGID_00000143576864791747924240000006530989532875553716_);fill:#FFBCC6;}
	.st27{clip-path:url(#SVGID_00000129885027254326281790000005001911497682393522_);fill:#FFBCC6;}
	.st28{clip-path:url(#SVGID_00000101087134308197430130000015727005842398686111_);fill:#FFBCC6;}
	.st29{clip-path:url(#SVGID_00000083072785525246629340000001582947360281165748_);fill:#FFBCC6;}
	.st30{clip-path:url(#SVGID_00000170980332933748642000000016583244402814539934_);fill:#FFBCC6;}
	.st31{clip-path:url(#SVGID_00000006670011441523268990000016121982776390583462_);fill:#FFBCC6;}
	.st32{clip-path:url(#SVGID_00000000923992914504725420000014212573572101461670_);fill:#272F60;}
	.st33{clip-path:url(#SVGID_00000000923992914504725420000014212573572101461670_);fill:#FB657C;}
	.st34{clip-path:url(#SVGID_00000000923992914504725420000014212573572101461670_);fill:#FFBCC6;}
	.st35{clip-path:url(#SVGID_00000000923992914504725420000014212573572101461670_);fill:#FFFFFF;}
	.st36{fill:none;}
	.st37{clip-path:url(#SVGID_00000060715637514648742090000004114649937473023929_);fill:#FFFFFF;}
	.st38{clip-path:url(#SVGID_00000165913340747168657410000013477004832529818527_);fill:#FFFFFF;}
	.st39{clip-path:url(#SVGID_00000026859960356353701750000005196031314982133673_);fill:#FFFFFF;}
	.st40{clip-path:url(#SVGID_00000161610613825814886030000011333190118360479383_);fill:#FFFFFF;}
	.st41{clip-path:url(#SVGID_00000116914641985647915700000010048595499830987419_);fill:#FFFFFF;}
	.st42{clip-path:url(#SVGID_00000183219757985977851360000006907465617480200851_);fill:#FFFFFF;}
	.st43{clip-path:url(#SVGID_00000075862197772063296400000016095437994217769612_);fill:#FFFFFF;}
	.st44{clip-path:url(#SVGID_00000123422171548849052470000017322344531991790522_);fill:#FFFFFF;}
	.st45{clip-path:url(#SVGID_00000055665015805003224820000009058186841600352897_);fill:#FFFFFF;}
	.st46{clip-path:url(#SVGID_00000081647065300948574280000002448125090331657900_);fill:#FFFFFF;}
	.st47{clip-path:url(#SVGID_00000150099649130557041880000017623911755287073680_);fill:#FFFFFF;}
	.st48{clip-path:url(#SVGID_00000042003322200923428370000016491521952242752159_);fill:#FFFFFF;}
	.st49{clip-path:url(#SVGID_00000139273685804805313670000007387308707516198826_);fill:#FB657C;}
	.st50{clip-path:url(#SVGID_00000078005058402382774500000004733574797518721927_);fill:#FFFFFF;}
	.st51{clip-path:url(#SVGID_00000122697316543170290320000010823648250639738263_);fill:#FFFFFF;}
	.st52{fill:#FF647B;}
	.st53{fill:#FF657C;}
	.st54{clip-path:url(#SVGID_00000057125537989089941070000004134519831931283615_);}
	.st55{clip-path:url(#SVGID_00000098930434349099576670000011561035417564431775_);}
	.st56{clip-path:url(#SVGID_00000183953171045146793860000003784309814734622139_);}
	.st57{clip-path:url(#SVGID_00000062891619347074457850000006021074778445892501_);}
	.st58{fill:none;stroke:#272E5F;stroke-width:3;}
	.st59{clip-path:url(#SVGID_00000143611143849269729490000018164259950793211321_);}
	.st60{fill:#E94B67;}
	.st61{fill:#FFF5F7;stroke:#272E5F;stroke-width:2;}
	.st62{fill:none;stroke:#272E5F;stroke-width:2;stroke-linecap:round;stroke-linejoin:round;stroke-miterlimit:10;}
	.st63{fill:none;stroke:#272E5F;stroke-width:2;}
	.st64{fill:none;stroke:#272E5F;stroke-width:3;stroke-linecap:round;stroke-linejoin:round;stroke-miterlimit:10;}
	.st65{fill:none;stroke:#142664;stroke-width:2;stroke-linecap:round;stroke-linejoin:round;stroke-miterlimit:10;}
	.st66{clip-path:url(#SVGID_00000053545756357821142610000012934811449870080160_);}
	.st67{clip-path:url(#SVGID_00000089558563957166938080000015164923223282930355_);}
	.st68{clip-path:url(#SVGID_00000181046328481250478700000001981443612452949672_);fill:#FD657C;}
	.st69{clip-path:url(#SVGID_00000076586464318778657710000014040300544399134102_);fill:#FD657C;}
	.st70{clip-path:url(#SVGID_00000023259269267203445900000002486063205215274384_);}
	.st71{clip-path:url(#SVGID_00000018207418800473353080000012448305775310666374_);}
	.st72{clip-path:url(#SVGID_00000039834159861974772880000017346310444329403024_);}
	.st73{fill:none;stroke:#142664;stroke-width:3;stroke-linecap:round;stroke-linejoin:round;}
	.st74{clip-path:url(#SVGID_00000171717654435641824320000011203214533068132524_);}
	.st75{clip-path:url(#SVGID_00000082350416839640335020000015150391038618219671_);}
	.st76{clip-path:url(#SVGID_00000074426614301671749630000015600292503226889390_);}
	.st77{clip-path:url(#SVGID_00000183248280225338969040000014131387789843492996_);}
	.st78{clip-path:url(#SVGID_00000093173716888180205970000016103442819076440720_);}
	.st79{clip-path:url(#SVGID_00000023983539212555732320000015462173215669548466_);}
	.st80{clip-path:url(#SVGID_00000182522529982784545150000009469474407251995292_);}
	.st81{clip-path:url(#SVGID_00000112618871838396080720000013792565115795267205_);}
	.st82{clip-path:url(#SVGID_00000165956540313531556300000017482579529583400080_);}
	.st83{clip-path:url(#SVGID_00000034772837191025379170000009846573997886641854_);}
	.st84{clip-path:url(#SVGID_00000016051054314249805700000008705628473316911000_);}
	.st85{clip-path:url(#SVGID_00000139287980123510069640000016744659040421629328_);}
	.st86{clip-path:url(#SVGID_00000074443703894575341080000004500819640104515741_);}
	.st87{clip-path:url(#SVGID_00000040571734000161540680000008343514711986410127_);}
	.st88{clip-path:url(#SVGID_00000172424965899418428710000002939113782380378032_);}
	.st89{clip-path:url(#SVGID_00000168821524532820390210000017578014920647648921_);}
	.st90{clip-path:url(#SVGID_00000023251646277755251740000014932956144505353365_);}
	.st91{clip-path:url(#SVGID_00000004529011958269554050000004818962643539933835_);}
	.st92{clip-path:url(#SVGID_00000036948108365188966440000008861593074388411522_);}
	.st93{clip-path:url(#SVGID_00000037670791694799690250000009124144371463994771_);}
	.st94{clip-path:url(#SVGID_00000023972435165931147470000002729783376365084607_);}
	.st95{clip-path:url(#SVGID_00000114780298592165938580000002053562771412655530_);}
	.st96{clip-path:url(#SVGID_00000116207531389482418940000006451290095274966425_);}
	.st97{clip-path:url(#SVGID_00000079457061173463727050000001868975282660908967_);}
	.st98{clip-path:url(#SVGID_00000125574912355034690430000000903469917787529365_);}
	.st99{clip-path:url(#SVGID_00000043452759093685184170000004154695771021701266_);}
	.st100{clip-path:url(#SVGID_00000159444870687161275230000014234165805827560091_);}
	.st101{clip-path:url(#SVGID_00000152256161676974570670000000977141752836742801_);}
	.st102{clip-path:url(#SVGID_00000061444945467937312930000007193605368083141309_);}
	.st103{clip-path:url(#SVGID_00000147206737070626730400000009169761942279155887_);}
	.st104{clip-path:url(#SVGID_00000113318001023397959750000005273021272828148108_);}
	.st105{clip-path:url(#SVGID_00000056395753467915966720000015385030012348583836_);}
	.st106{clip-path:url(#SVGID_00000092416009899308451650000013586162687118605471_);}
	.st107{clip-path:url(#SVGID_00000000188883018104518310000016875044542846824343_);}
	.st108{clip-path:url(#SVGID_00000110428763395235392190000008716133866355947702_);}
	.st109{clip-path:url(#SVGID_00000099640075422210743470000001635136989561612729_);}
	.st110{clip-path:url(#SVGID_00000087405708933873702040000007460069550010541203_);}
	.st111{clip-path:url(#SVGID_00000065791629561748117480000013428335535978571437_);}
	.st112{clip-path:url(#SVGID_00000106852507001753472310000015721377089500405152_);}
	.st113{clip-path:url(#SVGID_00000182487301701176029640000008105033202055021987_);}
	.st114{clip-path:url(#SVGID_00000157997881263881459610000010555775203022806719_);}
	.st115{clip-path:url(#SVGID_00000026134157784110456020000013555826406776345499_);}
	.st116{clip-path:url(#SVGID_00000127722124370878825670000005904821904115060100_);}
	.st117{fill:#FFFFFF;stroke:#142664;stroke-width:3;stroke-linecap:round;stroke-linejoin:round;}
	.st118{clip-path:url(#SVGID_00000055679039052409771400000005895261294741976705_);}
	.st119{fill-rule:evenodd;clip-rule:evenodd;fill:#FFBCC6;}
	.st120{fill-rule:evenodd;clip-rule:evenodd;fill:#272F60;}
	.st121{fill-rule:evenodd;clip-rule:evenodd;fill:#FFFFFF;}
	.st122{fill-rule:evenodd;clip-rule:evenodd;fill:#FB657C;}
	.st123{clip-path:url(#SVGID_00000044862995128598986650000017869281011700305538_);}
	.st124{clip-path:url(#SVGID_00000134935252322556150440000003595387907988675217_);}
	.st125{clip-path:url(#SVGID_00000021841080990351147250000013168993926796298368_);}
	.st126{clip-path:url(#SVGID_00000124857095497030798440000014613864390861695912_);}
	.st127{clip-path:url(#SVGID_00000052820191832590758840000011416699516661412777_);}
	.st128{clip-path:url(#SVGID_00000050664307317402886350000005855160220018713984_);}
	.st129{clip-path:url(#SVGID_00000165194628975274842330000018265441193695785891_);}
	.st130{clip-path:url(#SVGID_00000026861370290596521400000008512196184197320865_);}
	.st131{clip-path:url(#SVGID_00000026142766028157866620000000017949795069621417_);}
	.st132{clip-path:url(#SVGID_00000096743330956932133090000001666856689804270519_);}
	.st133{clip-path:url(#SVGID_00000047025368483343971230000003114161443724164277_);}
	.st134{clip-path:url(#SVGID_00000052782585865894255400000011062725995182436008_);}
	.st135{clip-path:url(#SVGID_00000183211892166747051010000015477829606264824251_);}
	.st136{clip-path:url(#SVGID_00000160148238446516612940000007576198106092753594_);}
	.st137{clip-path:url(#SVGID_00000045578134417072548050000011622505688866956962_);}
	.st138{clip-path:url(#SVGID_00000170272512099855168610000004471882352087410082_);}
	.st139{clip-path:url(#SVGID_00000120536445653766864580000002950422883436454049_);}
	.st140{clip-path:url(#SVGID_00000049212313001720019450000000299434957139936703_);}
	.st141{clip-path:url(#SVGID_00000178191388310303313750000011879444811696331197_);}
	.st142{clip-path:url(#SVGID_00000078736330160342705190000001905187736691345305_);}
	.st143{clip-path:url(#SVGID_00000119832787781641723560000003923442880920036741_);}
	.st144{clip-path:url(#SVGID_00000136403239291349801690000002505065122159613581_);}
	.st145{clip-path:url(#SVGID_00000093140433078199030200000017591805241325624764_);}
	.st146{clip-path:url(#SVGID_00000091694175331936996760000013708411317754206349_);}
	.st147{clip-path:url(#SVGID_00000118396485341817231960000017695643689234153396_);}
	.st148{clip-path:url(#SVGID_00000170248148822611549370000002183351708277648274_);}
	.st149{clip-path:url(#SVGID_00000183243461066749223780000014551135364428636854_);}
	.st150{clip-path:url(#SVGID_00000138549036004098124320000007877998132483976861_);}
	.st151{clip-path:url(#SVGID_00000124850362596600109560000014714271602953905545_);}
	.st152{clip-path:url(#SVGID_00000064322098168694565470000013586112968624382374_);}
	.st153{clip-path:url(#SVGID_00000154395527793593829090000010836577638514268584_);}
	.st154{clip-path:url(#SVGID_00000035524846816356804310000010160184398823164318_);}
	.st155{clip-path:url(#SVGID_00000143586440875198824760000009999361991495837074_);}
	.st156{clip-path:url(#SVGID_00000097467649811669401500000014928432797988525983_);}
	.st157{clip-path:url(#SVGID_00000008111525962991640750000016086399170139457152_);}
	.st158{clip-path:url(#SVGID_00000173120345658200448320000012726474885579218611_);}
	.st159{clip-path:url(#SVGID_00000013886238340783569930000006421393087725196448_);}
	.st160{clip-path:url(#SVGID_00000150102266195767757920000000829022926488446110_);}
	.st161{clip-path:url(#SVGID_00000127037725698853660190000014783091125541562271_);}
	.st162{clip-path:url(#SVGID_00000103241313342059683530000001140764283277603208_);}
	.st163{clip-path:url(#SVGID_00000061435002379052689970000000823337056783001728_);}
	.st164{clip-path:url(#SVGID_00000162341074748869474570000013694199492858402692_);}
	.st165{clip-path:url(#SVGID_00000101095511382031993010000012272763760108313508_);}
	.st166{clip-path:url(#SVGID_00000149376840046394486550000006487877360320725928_);}
	.st167{clip-path:url(#SVGID_00000037673092039377180830000010937208869077282206_);}
	.st168{clip-path:url(#SVGID_00000141422436521527320330000009458334367236555657_);}
	.st169{clip-path:url(#SVGID_00000020380721064446245120000005996868497394442386_);}
	.st170{clip-path:url(#SVGID_00000076601228599593897060000010349889241464888448_);}
	.st171{clip-path:url(#SVGID_00000068659922971449299690000010843687356438131614_);}
	.st172{clip-path:url(#SVGID_00000054966338506876968880000000070037194781232776_);}
	.st173{clip-path:url(#SVGID_00000149359895805254704510000009804710745388946351_);}
	.st174{clip-path:url(#SVGID_00000072986374280414146540000008908855045483218569_);}
	.st175{clip-path:url(#SVGID_00000067953451666604083490000016573423915435152800_);}
	.st176{clip-path:url(#SVGID_00000173856456361196754070000006594104754268680858_);}
	.st177{clip-path:url(#SVGID_00000079464402266458503330000013459625503574266507_);}
	.st178{clip-path:url(#SVGID_00000031928677890159945550000013552192069804357269_);}
	.st179{clip-path:url(#SVGID_00000119103376717674167250000007133462519160289966_);}
	.st180{clip-path:url(#SVGID_00000129896183112997843740000003274552998222079925_);}
	.st181{clip-path:url(#SVGID_00000162352245976968288140000008381175345560882330_);}
	.st182{clip-path:url(#SVGID_00000152235871963609367020000016331087461421287563_);}
	.st183{clip-path:url(#SVGID_00000112625130376191538310000001037460606663152823_);}
	.st184{clip-path:url(#SVGID_00000066498704076236674280000016265432027492414371_);}
	.st185{clip-path:url(#SVGID_00000060731931972547496740000017279671574731864763_);}
	.st186{clip-path:url(#SVGID_00000048476154428767732940000014904388839543418538_);}
	.st187{clip-path:url(#SVGID_00000096021841837558126610000011357040686897486750_);}
	.st188{clip-path:url(#SVGID_00000090988055505795670240000006743572642062473117_);}
	.st189{clip-path:url(#SVGID_00000135662334115543356480000006701664106514221244_);}
	.st190{clip-path:url(#SVGID_00000181073745739388349440000002411331603505059984_);}
	.st191{clip-path:url(#SVGID_00000076563267294515874450000013867642552746204849_);}
	.st192{clip-path:url(#SVGID_00000158024941600807778140000005408181346160882827_);}
	.st193{clip-path:url(#SVGID_00000062887980970762502850000011615336707599956627_);}
	.st194{clip-path:url(#SVGID_00000081632882075873141180000008142729475832403636_);}
	.st195{clip-path:url(#SVGID_00000155130421867123374960000007169318114890276799_);}
	.st196{clip-path:url(#SVGID_00000049928184011727112510000014878091825443505806_);}
	.st197{clip-path:url(#SVGID_00000110468112849512624890000000275929273553917627_);}
	.st198{clip-path:url(#SVGID_00000114038403762567599890000010569442302637036434_);}
	.st199{clip-path:url(#SVGID_00000128458478149726488290000014727767437686264742_);}
	.st200{clip-path:url(#SVGID_00000016037451321898675790000005706376736901267859_);}
	.st201{clip-path:url(#SVGID_00000076578207687221602390000007082428317680095397_);}
	.st202{clip-path:url(#SVGID_00000181780254247846921140000001398513798398591137_);}
	.st203{clip-path:url(#SVGID_00000115475547644497248540000003857615382521610112_);}
	.st204{clip-path:url(#SVGID_00000057857571833999356460000005755382560432303038_);}
	.st205{clip-path:url(#SVGID_00000032618807895430248470000014436831722849358742_);}
	.st206{clip-path:url(#SVGID_00000168110423066844996800000009467919438415550083_);}
	.st207{clip-path:url(#SVGID_00000160164163315923903910000017194953792296482459_);}
	.st208{clip-path:url(#SVGID_00000145038802517798387910000013834043965527895712_);}
	.st209{clip-path:url(#SVGID_00000021095374643230529830000008635310763475117708_);}
	.st210{clip-path:url(#SVGID_00000059303437996530778730000010668835617584459906_);}
	.st211{clip-path:url(#SVGID_00000102521696578066382090000009334377743063225244_);}
	.st212{clip-path:url(#SVGID_00000062159273214190207240000012608204510090171532_);}
	.st213{clip-path:url(#SVGID_00000036216384398198665670000002986187003402973091_);}
	.st214{clip-path:url(#SVGID_00000036971218840704923290000016928467744942543245_);}
	.st215{clip-path:url(#SVGID_00000062908016783735600860000012856144850734252716_);}
	.st216{clip-path:url(#SVGID_00000163757645513154277560000000605620547125588408_);}
	.st217{clip-path:url(#SVGID_00000181057234673244018260000017939410547970374543_);}
	.st218{clip-path:url(#SVGID_00000012459404667249456480000013523915046469151905_);}
	.st219{clip-path:url(#SVGID_00000113333523987068782060000016752282933250857118_);}
	.st220{clip-path:url(#SVGID_00000160880905488837226990000010771693781733240735_);}
	.st221{clip-path:url(#SVGID_00000062892882641851961440000002738398194006984617_);}
	.st222{clip-path:url(#SVGID_00000031911908418247463770000015991217414266673058_);}
	.st223{clip-path:url(#SVGID_00000012456019113058394710000008569317316779865505_);}
	.st224{clip-path:url(#SVGID_00000049210442191813628430000007304946600599012011_);}
	.st225{clip-path:url(#SVGID_00000016068092195405605430000010589817640186958781_);}
	.st226{clip-path:url(#SVGID_00000075848973686622874660000016076219069920766903_);}
	.st227{clip-path:url(#SVGID_00000008122247962438514850000014974082321322076847_);}
	.st228{clip-path:url(#SVGID_00000145769665461667388740000002796946172230960257_);}
	.st229{clip-path:url(#SVGID_00000072994564262398380360000013267340618430874248_);}
	.st230{clip-path:url(#SVGID_00000166650305881412638980000009045072811372592523_);}
	.st231{clip-path:url(#SVGID_00000141440805733065389120000006919591590703867576_);}
	.st232{clip-path:url(#SVGID_00000149348397985681514720000017317240411355889047_);}
	.st233{clip-path:url(#SVGID_00000153704203879777916450000001771951380586476161_);}
	.st234{clip-path:url(#SVGID_00000136382371765791447440000000968614973475279501_);}
	.st235{clip-path:url(#SVGID_00000006688684593097699260000000333035470421116585_);}
	.st236{clip-path:url(#SVGID_00000142881707377209415480000012055865508495844243_);}
	.st237{clip-path:url(#SVGID_00000046298415009427447730000005572177989832530597_);}
	.st238{clip-path:url(#SVGID_00000150803192926447027140000011469193691568229783_);}
	.st239{clip-path:url(#SVGID_00000155125461740898384570000006535967297835464832_);}
	.st240{clip-path:url(#SVGID_00000044873002825367679310000005968339056206313395_);}
	.st241{clip-path:url(#SVGID_00000003814166273568330660000014193055379511367080_);}
	.st242{clip-path:url(#SVGID_00000070840014961412629440000015714563828975430800_);}
	.st243{clip-path:url(#SVGID_00000062909087300396900800000005837710601768007355_);}
	.st244{clip-path:url(#SVGID_00000101097328983847935340000005246593808916406146_);}
	.st245{clip-path:url(#SVGID_00000168798245405915379960000011984796869779376816_);}
	.st246{clip-path:url(#SVGID_00000016072879450539996970000008199294406338717064_);}
	.st247{clip-path:url(#SVGID_00000103957752331625811560000010294472375988343692_);}
	.st248{clip-path:url(#SVGID_00000076594071601416202760000017150494454561891497_);}
	.st249{clip-path:url(#SVGID_00000046320135931873067450000015643727147340107455_);}
	.st250{clip-path:url(#SVGID_00000137826843330778386670000012941724335192459935_);}
	.st251{clip-path:url(#SVGID_00000063610084761350266180000014544839936192779949_);}
	.st252{clip-path:url(#SVGID_00000180368336275537066560000014650846442195357592_);}
	.st253{fill:#E94966;}
	.st254{fill:#13224F;}
	.st255{fill:url(#);}
	.st256{clip-path:url(#SVGID_00000022538786834719468230000015161214668125393843_);}
	.st257{fill:#FFCE00;}
	.st258{fill-rule:evenodd;clip-rule:evenodd;fill:#FD657C;}
	.st259{clip-path:url(#SVGID_00000139983376762126174250000014163034902860371628_);}
	.st260{fill:url(#SVGID_00000129205932703085291620000003741222894696036793_);}
	.st261{fill:#FFFFFF;stroke:#FFFFFF;stroke-width:10;}
	.st262{fill:none;stroke:#272F60;stroke-width:3;stroke-linecap:round;stroke-linejoin:round;}
	.st263{clip-path:url(#SVGID_00000005267041469065660440000009412547065485735070_);}
	.st264{fill:none;stroke:#FFFFFF;stroke-width:5;}
	.st265{fill:#3580F8;}
	.st266{clip-path:url(#SVGID_00000122706798035831015130000012848281995922097547_);}
	.st267{fill:#FDF2F5;}
	.st268{clip-path:url(#SVGID_00000016060542402231911980000000955301135925459130_);}
	.st269{fill:#44C400;}
	.st270{clip-path:url(#SVGID_00000181776618717869671580000015146625684414544811_);}
	.st271{clip-path:url(#SVGID_00000052068505338671387650000016375144172103349933_);}
	.st272{clip-path:url(#SVGID_00000154427636454905450090000002514643159379403926_);}
	.st273{fill:#F1AAB9;}
	.st274{fill:#E34C6A;}
	.st275{clip-path:url(#SVGID_00000178907139609096475710000004773428663308380089_);}
	.st276{clip-path:url(#SVGID_00000008130216264425141080000013089729596531982014_);}
	.st277{clip-path:url(#SVGID_00000005242944704555147190000004098203473712978877_);}
	.st278{clip-path:url(#SVGID_00000105414137481930508300000005276824805597910400_);}
	.st279{clip-path:url(#SVGID_00000174562136274791782820000013627352418037334711_);}
	.st280{clip-path:url(#SVGID_00000160164139804157533000000017385957903072413365_);}
	.st281{clip-path:url(#SVGID_00000136391744682106923570000017306861334070437260_);}
	.st282{clip-path:url(#SVGID_00000112618691895048015550000014750161680664819135_);}
	.st283{display:none;}
	.st284{display:inline;}
	.st285{display:inline;enable-background:new    ;}
	.st286{clip-path:url(#SVGID_00000078031288680139058430000014403758329820611515_);}
	.st287{clip-path:url(#SVGID_00000106119666019239672490000013986033791789137852_);}
	.st288{clip-path:url(#SVGID_00000026873500375768830650000018237639210649520573_);}
	.st289{clip-path:url(#SVGID_00000053540750731448552750000011301574554535853745_);}
	.st290{fill:none;stroke:#FFFFFF;stroke-miterlimit:10;}
	.st291{clip-path:url(#SVGID_00000170987172355721772180000015070080001959740309_);}
	.st292{clip-path:url(#SVGID_00000056414218289348121470000008433289774734663052_);}
	.st293{clip-path:url(#SVGID_00000040546741892747865330000015446652061816092567_);}
	.st294{clip-path:url(#SVGID_00000136398384871923049030000008901215490270158214_);}
	.st295{clip-path:url(#SVGID_00000013885263548730792690000017601999168409108128_);}
	.st296{clip-path:url(#SVGID_00000024000120735646159790000010993536936144085891_);}
	.st297{clip-path:url(#SVGID_00000010298463647877623770000015248109424207181232_);}
	.st298{clip-path:url(#SVGID_00000077293948100961301360000016514989298922639497_);}
	.st299{clip-path:url(#SVGID_00000131363909223770384460000016808714087903484604_);}
	.st300{clip-path:url(#SVGID_00000003093474216912608800000003670805858144027054_);}
	.st301{clip-path:url(#SVGID_00000178885176257949158690000014817117601333723268_);}
	.st302{clip-path:url(#SVGID_00000134224391041549854630000014365522351199729301_);}
	.st303{clip-path:url(#SVGID_00000022542439650344108040000010648174706232036255_);}
	.st304{clip-path:url(#SVGID_00000030470811841524905740000003182918588170585763_);}
	.st305{clip-path:url(#SVGID_00000102525412862643657460000012571160175228057245_);}
	.st306{clip-path:url(#SVGID_00000005970745591541342950000000536399657107013009_);}
	.st307{fill:none;stroke:#142664;stroke-width:4.0018654;stroke-linecap:round;stroke-linejoin:round;stroke-miterlimit:4.0018654;}
	.st308{clip-path:url(#SVGID_00000023970606594635906470000008641372884129638282_);}
	.st309{clip-path:url(#SVGID_00000115510881314171166400000015553710196658373281_);}
	.st310{clip-path:url(#SVGID_00000109719809234198503590000000845804886482791344_);}
	.st311{clip-path:url(#SVGID_00000155109367807045412140000017643252247561086385_);}
	.st312{clip-path:url(#SVGID_00000123419049721486446460000015489532022620959648_);}
	.st313{clip-path:url(#SVGID_00000147205255943738804660000006989948874731939970_);}
	.st314{clip-path:url(#SVGID_00000109025299554599725540000010415348751058556324_);}
	.st315{clip-path:url(#SVGID_00000107572639749729970730000010454340924466123922_);}
	.st316{clip-path:url(#SVGID_00000152233467709513309240000002958612752046223752_);}
	.st317{clip-path:url(#SVGID_00000183954759262342502300000009124896912361379738_);}
	.st318{clip-path:url(#SVGID_00000062186028525009816730000002595269080730408337_);}
	.st319{clip-path:url(#SVGID_00000170247596754653361730000009626538562632192955_);}
	.st320{clip-path:url(#SVGID_00000179605155974083857320000005050104080983181201_);}
	.st321{clip-path:url(#SVGID_00000029726684682460221460000003607417657919338149_);}
	.st322{clip-path:url(#SVGID_00000038415502273901737100000016532365474973542053_);}
	.st323{clip-path:url(#SVGID_00000041976518256970367630000016046628702103528088_);}
	.st324{clip-path:url(#SVGID_00000097501584627129532730000002014611925123100049_);fill:#FD657C;}
	.st325{clip-path:url(#SVGID_00000097501584627129532730000002014611925123100049_);fill:#272F60;}
</style>
<g id="FONDS">
</g>
<g id="ILLUSTRATIONS">
	<g>
		
			<circle id="Ellipse_419_00000075160334354560864270000017767250112320000942_" class="st18" cx="132.5" cy="139.4312439" r="132.5"/>
		<g id="Groupe_1824_00000129202646051261422290000013695854951856625059_" transform="translate(3.082 33.079) rotate(-7)">
			<g>
				<defs>
					
						<rect id="SVGID_00000182491853042010157010000005597569264780112560_" x="0.0000291" y="0.0002147" transform="matrix(0.9925461 -0.1218693 0.1218693 0.9925461 -11.2434778 17.2891769)" width="271.4320068" height="201.1179962"/>
				</defs>
				<clipPath id="SVGID_00000007429779875714894350000013749113401666905263_">
					<use xlink:href="#SVGID_00000182491853042010157010000005597569264780112560_"  style="overflow:visible;"/>
				</clipPath>
				
					<g id="Groupe_1823_00000144338432015446142260000016272558955111270328_" style="clip-path:url(#SVGID_00000007429779875714894350000013749113401666905263_);">
					<path id="Tracé_5728_00000028292092569801184610000013905189616012404110_" class="st13" d="M67.6040344,162.502243
						c-20.3006096-2.6054382-34.6453743-21.174469-32.0399323-41.4750748
						c2.1466217-16.7256317,15.3142776-29.8932953,32.0399094-32.0399323v-0.3710022
						c0.2743912-29.2554474,24.2130661-52.7492371,53.4685135-52.4748421
						c10.9632874,0.1028252,21.624588,3.6047592,30.5134888,10.0228081
						c20.5774078-12.0751114,47.0475006-5.1826439,59.1226044,15.3947601
						c2.97789,5.0746536,4.8877411,10.704155,5.6124268,16.5432281c1.4905243-0.2070007,2.9958954-0.2876205,4.5-0.2410049
						c17.568573-0.0494156,31.8701019,14.1157532,31.9890137,31.6839981
						c0.0261688,4.5319595-0.9555054,9.0130615-2.8739929,13.1190033
						c10.2782898,6.0704651,13.6894226,19.323761,7.6189575,29.6020508
						c-3.9344788,6.6617279-11.1296234,10.7123871-18.8659363,10.6209564L67.6040344,162.502243z"/>
					<path id="Tracé_5729_00000018940926036108977800000010581780456567311506_" class="st12" d="M214.1950226,69.0621796
						c1.0297699,2.9265518,1.7422028,5.9552612,2.1250153,9.0339966c0.9941711-0.1412735,1.9960327-0.221756,3-0.2409973
						c0.0200653,2.4840469-0.1470642,4.9660721-0.5,7.4250031c-0.3736572,2.491066-1.0019379,4.9372177-1.875,7.3000107
						c-1.6289825,4.7138748-3.9913483,9.1412888-7,13.1190033c-0.5884247,0.7731934-1.6613464,0.9856339-2.5,0.4950027
						c-0.7797241-0.5732193-0.9961853-1.6451187-0.5-2.4759979c2.4992065-3.8565369,4.3956757-8.0716629,5.6239929-12.5
						c0.6620178-2.1811981,1.1222839-4.418602,1.375-6.6839981c0.3993073-2.2473984,0.6083832-4.5244751,0.625-6.8070068
						c0.1282654-2.3170929,0.0025024-4.6412659-0.3750153-6.9309998c0.1870575-0.5621796,0.1870575-1.1698151,0-1.7319946"/>
					<path id="Tracé_5730_00000127046468358229703080000005629362842852210315_" class="st12" d="M255.1860657,127.2301788
						c-1.305191-1.2481995-2.7281647-2.3670883-4.2490082-3.3410034c-1.7544861-1.0750732-3.646286-1.9079514-5.6239929-2.4759979
						c-1.9790802-0.6395874-4.0441895-0.9734344-6.1239929-0.9899979c-2.2821503-0.094017-4.563736,0.1991348-6.7480011,0.8670044
						c-2.2188263,0.6156845-4.3271942,1.5760574-6.2480011,2.8460007c-0.796402,0.5741577-1.9052734,0.4091568-2.5-0.3720016
						c-0.5783081-0.7877426-0.4106293-1.8948288,0.375-2.4759979c2.1445312-1.6292038,4.499115-2.9615555,7-3.9609985
						c2.5821838-0.8740311,5.2761536-1.3741074,8-1.4850082c2.5358124-0.0534744,5.0649261,0.280365,7.5,0.9899979
						c1.6209564,0.4554443,3.1752014,1.1214523,4.6230011,1.9810028c-0.3697052,1.3258667-0.8722382,2.6110382-1.5,3.8359985
						c2.0977631,1.1773987,3.9618988,2.7293854,5.5000153,4.5790024"/>
					<path id="Tracé_5731_00000008858717051723502710000001201789854890761407_" class="st12" d="M67.6020126,85.6472321
						c0.9965668-0.1018829,1.9984589-0.1422882,3-0.1210022c3.8823166-0.0186462,7.7497711,0.4807587,11.5,1.4850006
						c3.7226715,1.0731583,7.2624054,2.7010956,10.5000076,4.8289948
						c6.4906311,4.1881332,11.6850891,10.10289,15.0000076,17.0800018c0.4310608,0.8575134,0.0979004,1.9023132-0.75,2.3519974
						c-0.8624496,0.4270935-1.9082794,0.1002197-2.3740005-0.7419968
						c-3.2540588-6.1232452-8.1448059-11.2224045-14.1270065-14.7290039
						c-2.9798279-1.7603226-6.172348-3.1327667-9.5000076-4.083992c-3.2928543-0.9337082-6.6937103-1.4326096-10.1159973-1.4840012
						c-3.5817032-0.0925369-7.1584015,0.3239594-10.6230049,1.2370071c-1.7490005,0.4950027-3.5,1.1139984-5.1240005,1.7320023
						c3.9241219-2.1130447,8.1989861-3.4967804,12.6170006-4.0840073v-3.465004L67.6020126,85.6472321z"/>
					<path id="Tracé_5732_00000110434497677165606610000013379645604787547271_" class="st12" d="M120.0930328,126.8602295
						c4.9826813-2.4507065,11.012085-0.675621,13.8720093,4.0839996c1.3241119,2.2339478,1.7693481,4.8807678,1.2489929,7.4250031
						c-0.5914459,2.6550446-2.209137,4.9683533-4.5,6.4349976c-0.8132629,0.4431763-1.113266,1.461731-0.6700897,2.2749939
						c0.0003662,0.0006714,0.0007324,0.0013428,0.0010986,0.0019989l0.0429993,0.0749969
						c0.4665375,0.8217621,1.51091,1.109726,2.3326721,0.6431885c0.0001068-0.000061,0.0002289-0.0001221,0.0003357-0.0001831
						l0.0410004-0.0240021c3.3306732-1.7051544,5.8153381-4.7028046,6.8729858-8.2920074
						c2.2544556-7.2862549-1.8246155-15.0205078-9.1108704-17.2749634
						c-0.0000458-0.0000076-0.0000916-0.0000229-0.0001373-0.0000381c-0.3739929-0.1160049-0.7526703-0.216011-1.1360016-0.3000031
						c-3.6676254-0.9130554-7.5490875-0.2873383-10.7439957,1.7320099
						c-0.8132629,0.4431839-1.1132736,1.4617386-0.6700897,2.2750015c0.0003662,0.0006714,0.0007248,0.0013351,0.001091,0.0019989
						l0.0429993,0.0749969c0.2703934,0.8412704,1.1715775,1.3040543,2.0128403,1.0336609
						c0.0017242-0.0005493,0.0034409-0.0011063,0.0051575-0.0016632c0.1252136-0.0396042,0.2448502-0.0950546,0.3560028-0.1650009"
						/>
					<path id="Tracé_5733_00000047017662655970839050000008551972969534626745_" class="st12" d="M154.9590149,44.4321976
						c1.1424255,1.0984612,2.2272186,2.2553444,3.25,3.4659958c2.29776,2.7148972,4.3084717,5.660244,6,8.7889977
						c1.0235596,1.8683357,1.9008484,3.8131523,2.6239929,5.8170013c1.6347961,4.6751442,2.6435699,9.5461159,3.0000153,14.4860039
						c0.0553131,1.0047379-0.7143402,1.86409-1.7190857,1.9194107c-0.938446,0.0516663-1.762207-0.6189804-1.9019165-1.5484085
						c-0.7097321-4.5493317-1.9686127-8.9957962-3.7490082-13.2420044c-0.75-1.8569946-1.625-3.5889969-2.5-5.3219948
						c-0.1210022-0.3709984-0.375-0.6189995-0.5-0.9900017c-0.7397156,2.1245232-1.7926636,4.1266174-3.1239929,5.9399986
						c-3.6336365,5.1375237-9.1664886,8.6133842-15.371994,9.6570091c0.3777008,1.4950333,0.504425,3.0424347,0.375,4.5790024
						c-0.1999054,2.2075806-0.8372955,4.3532867-1.875,6.3119965c-1.3126984,2.0828171-3.06073,3.856781-5.1239929,5.2000046
						c-2.1083679,1.218605-4.4506226,1.9775391-6.8730087,2.2269974c-0.9559784,0.1459198-1.8492432-0.5107574-1.995163-1.4667358
						c-0.1459274-0.9559784,0.5107574-1.8492432,1.4667358-1.995163c0.0094604-0.0014496,0.0189362-0.0028152,0.0284271-0.0041046
						c1.7839432-0.3986816,3.4518509-1.2035522,4.8740005-2.3519974c1.4460449-1.0443573,2.6416016-2.3973846,3.5-3.9609985
						c1.5427399-2.4276505,2.2046814-5.3115921,1.875-8.1690063c-2.3711853,0.0450211-4.734314-0.2891922-7-0.9899902
						c-6.2154694-1.8048706-11.4704437-5.9842758-14.6280136-11.6339951
						c-0.4902267-0.7704735-0.2632675-1.7924538,0.5070038-2.2830009c0.0390015-0.0250015,0.0780029-0.0470009,0.1179962-0.0690002
						c0.7919998-0.4938698,1.8343964-0.2521896,2.3282623,0.5398064c0.0002441,0.0003967,0.0004959,0.0007935,0.0007401,0.0011902
						c0.0159988,0.0250015,0.0309982,0.0519981,0.0459976,0.0779991c4.388855,6.9692726,12.4679337,10.7031975,20.620018,9.529995
						c2.6318512-0.3533554,5.1750641-1.192955,7.5-2.4760056c2.4217072-1.2798309,4.5497284-3.0509109,6.2479858-5.2000008
						c1.7090912-2.1685753,2.9821777-4.6475182,3.7489929-7.3000031c0-0.1209984,0.1210022-0.2470016,0.1210022-0.3720016
						c-0.75-1.1139984-1.5-2.2270012-2.125-3.2179985c-1.7489929-2.3520012-3.25-4.0839996-4.3730011-5.3219986
						c0.5,0.2410011,0.875,0.618,1.375,0.8670006c1.1079865-0.4391479,2.192749-0.9347992,3.25-1.4850006"/>
					<path id="Tracé_5734_00000052098656969110557780000009990190820172555654_" class="st12" d="M198.9550171,48.5161858
						c1.2904358,0.8840523,2.5019531,1.8780899,3.6210175,2.9710007c-1.0176086,0.3699417-1.9835052,0.8690224-2.8739929,1.4850006
						c-2.0219269,1.2401505-3.7662659,2.884079-5.1239929,4.8290024c-1.3349762,1.7121315-2.2741394,3.6987152-2.75,5.8170013
						c-0.5607758,2.0985985-0.6890411,4.2893028-0.3769989,6.4389992c0.2154236,0.9642639-0.3916168,1.9206009-1.3558807,2.1360321
						c-0.9642639,0.2154236-1.9206085-0.3916245-2.1360321-1.3558884c-0.0028381-0.0126877-0.0055237-0.0253983-0.0080872-0.0381393
						c-0.7497406-2.6155396-0.8781433-5.3700562-0.375-8.0439987c0.8939667-5.8377457,4.5788574-10.8726273,9.8729858-13.4900093
						L198.9550171,48.5161858z"/>
					<path id="Tracé_5735_00000043453635094038318190000000002434003570659470_" class="st12" d="M68.353035,162.4992523
						c0.2645111-3.485199,1.1978455-6.8868256,2.7490005-10.0189972c1.3417282-2.8079224,3.1599731-5.3620453,5.3740005-7.548996
						c1.2883453-1.3550415,2.7611465-2.5218506,4.375-3.4660034c-1.2277908-1.2849274-2.3171082-2.695343-3.2500076-4.2080078
						c-0.8672791-1.4763336-1.5395432-3.0588379-2-4.7079926c-0.329155-1.2142792-0.5384903-2.4578857-0.625-3.7130127
						c-0.231781-2.9255142,0.1078644-5.8681946,1-8.6639938c0.2287521-0.9183655,1.1585693-1.4775085,2.0770035-1.2490005
						l0.0469971,0.012001c0.9100952,0.2088623,1.4786377,1.11586,1.2699966,2.026001
						c-0.0059967,0.0270004-0.0130005,0.052002-0.0210037,0.0780029c-0.3967972,2.4209747-0.3558121,4.8935089,0.1210022,7.2999954
						c0.1314316,1.0165558,0.383194,2.0138702,0.75,2.9710083c0.4603577,1.6688385,1.0885696,3.2867584,1.875,4.8289948
						c0.6346207,1.1989441,1.344368,2.3565826,2.1250076,3.4660034c4.1899185-1.9199371,8.7649384-2.8515778,13.3720016-2.7229919
						c0.9571075,0,1.7330017,0.7758942,1.7330017,1.7330017s-0.7758942,1.7330017-1.7330017,1.7330017
						c-4.6819687,0.1449127-9.22892,1.6030426-13.1220016,4.2079926c-1.6247711,1.1304474-3.1700668,2.3710175-4.625,3.7130127
						c-2.3649292,2.2555542-4.2742386,4.9446716-5.6240005,7.9210052c-0.9088287,1.9763947-1.5801773,4.0535583-2,6.1880035
						L68.353035,162.4992523z"/>
					<path id="Tracé_5736_00000021800440348138717420000012085587304559044229_" class="st12" d="M217.4450684,162.8741913
						c1.0987701-4.7570801,0.661499-9.7400055-1.2489929-14.2330017c-1.0525208-2.5145569-2.485611-4.8522339-4.2490082-6.9309998
						c-7.4911194-8.6369324-19.8677979-11.1292877-30.1179962-6.0649872
						c-0.6017761,4.6835632-2.8079376,9.0138855-6.2429962,12.2539978c-4.0335693,3.8470306-9.4273529,5.938736-15,5.8170013
						c-0.9571075,0-1.7330017-0.7758942-1.7330017-1.7330017s0.7758942-1.7330017,1.7330017-1.7330017
						c9.2261047-0.3105621,16.5618286-7.848877,16.6210022-17.0800018
						c0.1081848-4.4068909-1.6105804-8.6623993-4.7489929-11.7580109c-3.1170349-3.2470169-7.3740997-5.1553726-11.8720093-5.321991
						c-0.9571075,0-1.7330017-0.7758942-1.7330017-1.7330017s0.7758942-1.7330017,1.7330017-1.7330017
						c5.5474091-0.1086197,10.9220276,1.9315796,15.0000153,5.6939926
						c3.6646118,3.5429001,5.9275513,8.2893066,6.3729553,13.3670273c3.6756134-1.7549133,7.6767578-2.7242126,11.7480011-2.8460083
						c5.0213165-0.0770874,9.9755096,1.1601715,14.3710022,3.5889893c2.8132324,1.6506042,5.3450623,3.7395325,7.5,6.1880035
						c2.119751,2.4877014,3.7707825,5.3391571,4.8730164,8.4160004c1.7873993,5.0906372,2.0908661,10.5844879,0.875,15.8410034
						L217.4450684,162.8741913z"/>
					<path id="Tracé_5737_00000023982409259975700240000001820291834875504519_" class="st19" d="M127.5890503,163.1192322
						c-0.1740494,16.0659027-13.0591125,29.0982971-29.1220016,29.4550171c-0.3688736-0.0098572-0.7272491,0.1234436-1,0.371994
						l-7.8730011,7.8000031c-0.3999939,0.3862305-0.9972839,0.4845886-1.5,0.246994
						c-0.5287781-0.2485657-0.8687439-0.7777405-0.875-1.3619995l-0.0000076-19.5579987
						c-0.0093994-0.3663635,0.1252365-0.7218018,0.375-0.9900055c0.2731781-0.2477417,0.6313477-0.3806152,1-0.3710022
						c2.8740005-0.0000153,8.8720093,0.1209869,9.2480087,0.1209869c8.7461243-0.1266327,15.7936859-7.208374,15.8779907-15.9550018
						h13.8720093L127.5890503,163.1192322z"/>
					<path id="Tracé_5738_00000173129329506882668140000013487021415008136360_" class="st19" d="M198.1990509,162.8782043
						l18.3700104,18.1930084c0.2727509,0.2485504,0.6311188,0.3818512,1,0.371994h11.2480011
						c0.5860291,0.0036316,1.1191254,0.3397827,1.375,0.8670044c0.2391663,0.4980469,0.1390533,1.0927124-0.25,1.4850006
						l-14,13.8619995c-0.5745544,0.4956055-1.4254456,0.4956055-2,0l-35.2490082-34.7779999L198.1990509,162.8782043z"/>
					<path id="Tracé_5739_00000124155164910400586030000000762726222429115031_" class="st12" d="M35.1100159,126.8612518
						c3.6570091-0.8667679,7.4659958-0.8667679,11.1230049-0.0000076c1.3000793,0.2761459,2.1301422,1.5539322,1.8540001,2.8539963
						c-0.2761421,1.3000793-1.5539207,2.1301575-2.8540001,1.8540039c-3.1772499-0.7266235-6.4861069-0.6437531-9.6230011,0.2409973
						C35.3600197,130.0782471,35.2350159,128.4692383,35.1100159,126.8612518 M37.6100121,112.3752441
						c3.4276505-0.2883987,6.8789978-0.0799103,10.2470055,0.6190033c1.3000793,0.2761459,2.1301422,1.5539246,1.8540001,2.8539963
						c-0.2761421,1.3000793-1.5539207,2.1301498-2.8540001,1.8540039c-3.5336189-0.7383957-7.1678658-0.863884-10.7439995-0.3710022
						c0.3852119-1.6822968,0.8864098-3.3359146,1.4999962-4.9489975"/>
					<path id="Tracé_5740_00000181078670066007084440000011357518715969421725_" class="st19" d="M250.812027,51.9801674
						c-1.9552917,0.0000954-3.7642975-1.0356865-4.7539978-2.7219963c-1.1006775-1.9738464-0.9033203-4.416481,0.5-6.1880035
						c1.0128021-1.1047096,1.3042145-2.6915169,0.75-4.0839996l-0.1210022-0.1209984c-2-4.2080002-4-8.7869987-5.3739929-11.7579994
						c-0.5102386-0.9710121-0.3605194-2.1572304,0.375-2.9710007c0.6536713-0.9066601,1.7800293-1.3432503,2.8739929-1.1140022
						c5.1239929,0.7419987,12.621994,1.7319965,15.9999847,2.2279949c1.0332031,0.1389732,1.9263,0.7905254,2.3740234,1.7320004
						c1.2489929,2.7229996,4.8739929,10.5200005,6.3739929,13.9860001c0.3742981,0.782547,0.3742981,1.6924515,0,2.4749985
						c-0.75,2.2280045-2.3739929,6.6840057-0.875,10.6430054c1.6530762,3.9168282,2.5032043,8.1256142,2.5,12.3769989
						c-0.1018982,17.9199066-14.6959534,32.3725662-32.6159973,32.3000107
						c-2.5963593,0.1403656-4.8149261-1.8506165-4.9552917-4.4469833c-0.1403656-2.5963593,1.8506165-4.8149185,4.4469757-4.9552841
						c0.0274353-0.0014877,0.0548706-0.0027313,0.0823212-0.0037308c0.1410065-0.0059967,0.2839966-0.0059967,0.4259949,0
						c12.6349335,0.0526047,22.9250488-10.1381683,22.9949951-22.7730103c0.0211792-2.7933655-0.4878235-5.5653839-1.5-8.1690025
						c-1.4576416-3.9613914-5.2805481-6.5508919-9.5000153-6.4350014"/>
					<path id="Tracé_5741_00000130648935711505041790000015069392565334944434_" class="st19" d="M0.240022,159.9042664
						c0.2499996-1.4850006,0.4999992-2.845993,0.6249989-3.9609985c0.08405-0.8506775,0.5416453-1.6200562,1.2489995-2.1000061
						c1.7489998-1.4850006,5.4999995-4.5789948,6.1239986-8.7870026c0.5395432-4.2416534,1.9434795-8.3275452,4.1249962-12.0050049
						c9.0984297-15.4538345,28.9444466-20.6988297,44.4900055-11.7580109
						c2.2526932,1.265892,3.052742,4.1182175,1.7870026,6.3710022l-0.0369987,0.0650024
						c-1.3236465,2.2640381-4.2252846,3.0372162-6.5,1.7319946c-10.9986839-6.3148193-25.0301895-2.6203613-31.4930038,8.2920227
						c-1.4271545,2.3907318-2.3618145,5.0427399-2.7489986,7.8000031c-0.625,4.3309937,1.5000019,7.8000031,5.0000038,10.147995
						c1.6770382,0.9803009,2.7199039,2.765686,2.7500019,4.7079926c-0.0022507,2.2523346-1.3947372,4.269455-3.4999981,5.0700073
						c-1.0476494,0.3416595-1.9070568,1.1018829-2.3740005,2.1000061c-1,1.9799957-2,2.845993-3.8740015,2.352005l-0.75-0.2409973
						c-1.4279242-0.5440216-2.8872156-1.0018463-4.3700008-1.3710022l-7.5000019-2.352005
						c-3.124001-1.2339935-3.5000014-2.7180023-3.1240022-4.9470062c-0.0000001-0.2409973,0.1209998-0.6179962,0.1209997-0.8670044
						L0.240021,159.912262"/>
					<path id="Tracé_5742_00000106847387082903406540000007276686158345502351_" class="st12" d="M113.2180481,167.3312378
						c0.3994675-1.4521942,0.6095428-2.9499359,0.6249924-4.4559937h13.8720093v0.2409973
						c-0.0010376,1.4517212-0.126503,2.9006958-0.375,4.3309937L113.2180481,167.3312378z"/>
					<path id="Tracé_5743_00000178898906143166257880000005655577152497974197_" class="st12" d="M248.8130341,86.8831711
						c1.9608612,2.4952621,3.715332,5.146019,5.2460175,7.9260025c-1.4007721,0.7452469-2.8640137,1.3666153-4.3730011,1.8570099
						c-1.5739288-2.9483109-3.504425-5.6918945-5.7480164-8.1689987c1.7001495-0.2726822,3.3456421-0.8158951,4.8739929-1.6090088"
						/>
					<path id="Tracé_5744_00000007396590902507280060000005037015175880090269_" class="st12" d="M202.6980743,167.3302002
						h-19.5000153l-4.5-4.4519958h19.5L202.6980743,167.3302002z"/>
					<path id="Tracé_5745_00000098198376114127627400000009511700615025505210_" class="st19" d="M136.6829987,11.6651974
						l-74.677002,26.7510319l3.6270065,25.5349998c0.4141006,2.9830055,3.1679916,5.0655098,6.151001,4.6514168
						c0.0009995-0.0001373,0.0019989-0.0002823,0.0029984-0.0004196l0.1170044-0.0169983
						c26.6246948-4.379364,52.2316055-13.5619659,75.5720062-27.1000252
						c2.5857697-1.5097084,3.4705353-4.8219872,1.9819946-7.420002L136.6829987,11.6651974z"/>
					<path id="Tracé_5746_00000109004449231800084910000005809894516558678700_" class="st12" d="M74.1440048,62.5222244
						c0,0,0.5059967-0.0709991,1.4319992-0.2459984l3.9589996-0.7220001
						c3.362999-0.6760025,8.0930023-1.6310043,13.461998-3.0500069c5.625-1.5159988,12.072998-3.4490051,18.3560028-5.7770042
						c1.7779999-0.6480026,3.6070023-1.3650055,5.4179993-2.1170044c1.822998-0.7190018,3.5999985-1.5369987,5.3150024-2.3120003
						c6.7560043-3.0110054,12.7260056-6.1410065,16.9870071-8.522007c2.1399994-1.1720047,3.8399963-2.189003,5.0219879-2.8810043
						s1.822998-1.0699997,1.8730011-1.1130028c1.1610413-0.6904106,1.9641113-1.8519478,2.1999969-3.1819992
						c0.1329956-0.9790001-0.1809998-1.5669994-0.5249939-1.6669998c-0.4120026-0.1000004-0.8150024,0.3360004-1.3130035,0.8379993
						c-0.5411377,0.5828228-1.1509094,1.0979099-1.8159943,1.5340023l-0.0879974,0.0519981
						c-0.0509949,0.0300026-0.1459961,0.0860023-0.3150024,0.1749992l-1.3849945,0.7510033
						c-1.1999969,0.6419983-2.9140015,1.5999985-5.0690002,2.6809998
						c-4.2839966,2.2140007-10.2440033,5.1000061-16.8720016,7.8650055
						c-3.473999,1.3940048-6.9079971,2.8190041-10.6640015,4.2150078c-6.1709976,2.2910004-12.4120026,4.352005-17.8949966,5.932003
						c-5.2050095,1.529007-9.8600082,2.6290054-13.1880112,3.435009l-3.9350052,0.8779984l-1.4280014,0.3110008
						c-2.5509949,0.4259987-4.2319946,1.4350052-4.1999969,2.1830025c0.0999985,0.9230003,2.4000015,1.2069969,4.6619949,0.7419968"
						/>
					<path id="Tracé_5747_00000142897455525711061350000006530833729675915147_" class="st12" d="M58.117012,87.3272324
						c-0.7269325,0.2593994-1.5383377,0.026474-2.0169983-0.5790024L46.590004,74.8022308
						c-0.2650452-0.3313904-0.4064713-0.7447052-0.4000015-1.1689987l0.4999924-29.5220032
						c0.0212631-0.9963226,0.84618-1.7867622,1.8425026-1.7655029c0.9963188,0.0212631,1.7867622,0.84618,1.7654991,1.8425026l0,0
						L49.814003,73.0542297l9.1000061,11.4339981c0.6242218,0.7811127,0.5009499,1.9196091-0.276001,2.5490036
						c-0.1553574,0.1250229-0.3304062,0.2233658-0.5180016,0.2910004"/>
					<path id="Tracé_5748_00000092415143151280993250000008423877773286336424_" class="st12" d="M47.2039909,40.5652313
						c1.9752502-0.7221069,4.1618843,0.2937584,4.8839912,2.2690048c0.7221107,1.9752426-0.2937584,4.1618805-2.2690048,4.8839874
						c-1.9752388,0.7221107-4.1618729-0.2937508-4.8839836-2.2689896l-0.0079994-0.0239983
						C44.2166862,43.4545441,45.2351646,41.2807007,47.2039909,40.5652313L47.2039909,40.5652313"/>
					<path id="Tracé_5749_00000027599095829481052820000003858288935916014230_" class="st12" d="M46.1119995,68.4202347
						c2.8933372-1.0594254,6.0976791,0.4272537,7.1571083,3.3205948c1.0594215,2.8933334-0.4272575,6.0976791-3.3205948,7.1571045
						s-6.097683-0.4272614-7.1571083-3.3205948c-0.0001335-0.0003662-0.0002708-0.0007324-0.0004044-0.0011063l-0.012001-0.0359955
						c-1.046978-2.8831787,0.441555-6.0691986,3.3247337-7.1161804c0.0007553-0.0002747,0.0015106-0.0005493,0.0022659-0.000824
						h0.0060005"/>
					<path id="Tracé_5750_00000059307503270664134820000003745326345387599549_" class="st12" d="M56.2370071,82.074234
						c1.9520302-0.7132263,4.1126518,0.2910156,4.8258781,2.2430496c0.7132301,1.9520264-0.2910156,4.112648-2.2430458,4.8258743
						c-1.9519768,0.7132111-4.1125488-0.2909698-4.8258286-2.2429199l-0.007-0.0210037
						c-0.7072906-1.9430237,0.2944756-4.0915298,2.2375031-4.7988129c0.000164-0.000061,0.0003281-0.0001221,0.0004921-0.0001831
						l0.0159988-0.0059967"/>
					<path id="Tracé_5751_00000160893411326698804300000010219052130122902702_" class="st12" d="M165.4880066,0.0081858
						L95.2019958,9.6082106c-1.1739349,0.1599293-2.2980499,0.5772038-3.2919998,1.222002L32.0479927,49.607235
						c-0.4195518,0.275692-0.5361729,0.8393021-0.260479,1.2588539c0.1912842,0.2910995,0.532093,0.4472923,0.8774796,0.4021454
						l70.2860107-9.6000214c1.1736526-0.1610489,2.2975311-0.5782356,3.2919998-1.2220001l59.8619919-38.7770271
						c0.4204254-0.2733542,0.5396423-0.8357705,0.2662964-1.2561921c-0.1914062-0.2943699-0.5353699-0.4520058-0.8833008-0.404808"
						/>
				</g>
			</g>
		</g>
		<path id="Icon_awesome-check_00000138557941810813436340000017258065411355261838_" class="st269" d="M176.6439972,290.6872253
			l-36.9779968-36.9779816c-2.2213898-2.2216492-2.2213898-5.8233643,0-8.0449982l8.0449982-8.0449982
			c2.2216339-2.2213898,5.8233643-2.2213898,8.0449982,0l24.9109955,24.9120026l53.3540039-53.3570099
			c2.2216492-2.2213898,5.8233643-2.2213898,8.0450134,0l8.0449829,8.0449982c2.2213898,2.2216492,2.2213898,5.8233643,0,8.0449982
			l-65.4219971,65.4229889C182.4673615,292.9086304,178.8656464,292.9086304,176.6439972,290.6872253z"/>
	</g>
</g>
<g id="TEXTES_FR" class="st283">
</g>
<g id="TEXTES_GB">
</g>
<g id="Calque_5">
</g>
</svg>
