<?xml version="1.0" encoding="utf-8"?>
<!-- Generator: Adobe Illustrator 26.2.1, SVG Export Plug-In . SVG Version: 6.00 Build 0)  -->
<svg version="1.1" id="Calque_1" xmlns="http://www.w3.org/2000/svg" xmlns:xlink="http://www.w3.org/1999/xlink" x="0px" y="0px"
	 viewBox="0 0 226.9 227" style="enable-background:new 0 0 226.9 227;" xml:space="preserve">
<style type="text/css">
	.st0{fill:#272F60;}
	.st1{fill:#FFBCC6;}
	.st2{fill:#FFF5F7;}
	.st3{fill:#FD657C;}
	.st4{fill:#FFFFFF;}
</style>
<g id="ILLUSTRATIONS">
	<g>
		<path id="Tracé_1612_00000061432388209056204090000015275345431567876026_" class="st0" d="M113.5,0c49.2,0,92.8,31.7,107.9,78.4
			c15.2,46.8-1.4,98-41.2,126.9s-93.6,28.9-133.4,0S-9.6,125.2,5.6,78.4l21.9,7.1c-12.1,37.3,1.2,78.1,32.9,101.2
			c31.7,23,74.7,23,106.4,0s45-63.9,32.9-101.2S152.8,23,113.6,23L113.5,0L113.5,0z"/>
		<path id="Tracé_1613_00000171690417061359024520000003978765173098094254_" class="st1" d="M5.6,78.4C20.8,31.6,64.4,0,113.5,0
			v23c-39.2,0-74,25.2-86.1,62.5L5.6,78.4z"/>
	</g>
	<g>
		<path id="Tracé_1071_00000070838439562866961740000005901819004687708855_" class="st2" d="M178,113.3
			c0,35.6-28.9,64.5-64.5,64.5c-1.3,0-2.6,0-3.9-0.1C74,175.6,46.9,145,49.1,109.5S81.8,46.8,117.3,49
			C151.5,50.9,178,79.1,178,113.3z"/>
		<path id="Tracé_1072_00000138558767889203069390000001817462106085217982_" class="st1" d="M109.7,126.1v51.6
			c-5.9-0.3-11.6-1.5-17.2-3.4v-48.2c0-4.7,3.8-8.6,8.6-8.6S109.7,121.3,109.7,126.1L109.7,126.1z"/>
		<path id="Tracé_1073_00000112590848901811624170000002936533659798925200_" class="st0" d="M113.5,47
			c-36.7,0-66.4,29.7-66.4,66.4s29.7,66.4,66.4,66.4s66.4-29.7,66.4-66.4C179.9,76.7,150.2,47,113.5,47z M113.5,175.8
			c-34.5,0-62.5-28-62.5-62.5s28-62.5,62.5-62.5s62.5,28,62.5,62.5l0,0C176,147.8,148.1,175.8,113.5,175.8z"/>
		<path id="Tracé_1074_00000182506177868838115980000005358081866746957749_" class="st0" d="M92.5,155.4v7h17.2v-7H92.5z"/>
		<path id="Tracé_1075_00000072998021781735373440000008977531154383439793_" class="st0" d="M92.5,169.4v7h17.2v-7H92.5z"/>
		<path id="Tracé_1076_00000112599971167387727270000015558271865580759702_" class="st0" d="M158.2,104.5v-7.1
			c0-1.1-0.4-2.2-1.2-3l-5.9-5.9c-0.8-0.8-1.9-1.2-3-1.2H73.5c-2.4,0-4.3,1.9-4.3,4.3l0,0V129c0,2.4,1.9,4.3,4.3,4.3H82
			c1.1,0,2.2,0.4,3,1.2l14.6,14.6c0.8,0.8,1.9,1.2,3,1.2H150c2.4,0,4.3-1.9,4.3-4.3v-6.8L158.2,104.5z"/>
		<path id="Tracé_1077_00000047031907010492059600000000227410051587494556_" class="st3" d="M104.8,104.5v23.9l12.9,12.9h-7.4
			c-0.6,0-1.2-0.2-1.6-0.7L97.1,129c-0.4-0.4-0.7-1-0.7-1.6v-20.7c0-1.3,1-2.3,2.3-2.3l0,0C101.2,104.5,104.8,104.5,104.8,104.5z"/>
		<path id="Tracé_1078_00000030462354503487680180000010750345673785776279_" class="st1" d="M162.6,104.5c1.4,0,2.5,1.1,2.5,2.5
			c0,0,0,0,0,0.1v20.3c0,0.7-0.3,1.3-0.7,1.8L153,140.6c-0.5,0.5-1.1,0.7-1.8,0.7h-34.7c-0.5,0-1-0.2-1.4-0.6l-11.4-11.4
			c-0.6-0.6-1-1.5-1-2.3v-20.6c0-1,0.8-1.9,1.9-1.9l0,0H162.6z"/>
		<path id="Tracé_1079_00000003087493815864527290000015460195050726442113_" class="st4" d="M109.7,127.3
			c-0.3-0.3-0.5-0.8-0.5-1.2v-14.5c0-1,0.8-1.7,1.7-1.7l0,0h46.8c1,0,1.7,0.8,1.7,1.7l0,0v14.5c0,0.5-0.2,0.9-0.5,1.2l-8.1,8.1
			c-0.3,0.3-0.8,0.5-1.2,0.5h-30.5c-0.5,0-0.9-0.2-1.2-0.5C116.2,133.8,111.3,128.9,109.7,127.3z"/>
		<path id="Tracé_1080_00000075147789469107034850000000513010818463454379_" class="st0" d="M123.3,122.6h-1.5v-3.8h1.5
			c0.6,0,1.1-0.5,1.1-1s-0.5-1-1.1-1h-7.5c-0.6,0-1,0.5-1,1s0.5,1,1,1h1.5v3.8h-1.5c-0.6,0-1,0.5-1,1.1s0.5,1,1,1h7.5
			c0.6,0,1-0.5,1-1l0,0c0-0.6-0.4-1-0.9-1.1C123.4,122.6,123.3,122.6,123.3,122.6z"/>
		<path id="Tracé_1081_00000124159317498616520600000002493902802473368963_" class="st0" d="M152.7,122.6h-1.5v-3.8h1.5
			c0.6,0,1-0.5,1-1s-0.5-1-1-1h-7.5c-0.6,0-1.1,0.5-1.1,1s0.5,1,1.1,1h1.5v3.8h-1.5c-0.6,0-1.1,0.5-1.1,1.1s0.5,1,1.1,1h7.5
			c0.6,0,1-0.5,1-1l0,0c0-0.6-0.4-1-0.9-1.1C152.8,122.6,152.8,122.6,152.7,122.6z"/>
		<path id="Tracé_1082_00000029044874669268336140000014180211789375923857_" class="st0" d="M140.3,127.9h-1.5v-3.4h1.5
			c0.6,0,1.1-0.5,1.1-1.1s-0.5-1-1.1-1h-2.6c-8.1,0-9.9,6.3-9.9,6.4c-0.1,0.3,0,0.7,0.2,0.9c0.2,0.3,0.5,0.4,0.9,0.4h11.4
			c0.6,0,1-0.5,1-1l0,0C141.4,128.5,140.9,127.9,140.3,127.9L140.3,127.9L140.3,127.9z M136.6,124.5v3.4h-6.1
			C131.9,125.8,134.2,124.6,136.6,124.5z"/>
		<circle id="Ellipse_86_00000142152068305775230030000013892126651045093546_" class="st3" cx="83.1" cy="122.4" r="3"/>
		<circle id="Ellipse_87_00000058572318269308760630000002159212262124637333_" class="st3" cx="83.1" cy="107.8" r="3"/>
	</g>
</g>
<g id="TEXTES_FR">
</g>
<g id="TEXTES_GB">
</g>
</svg>
