<?xml version="1.0" encoding="utf-8"?>
<!-- Generator: Adobe Illustrator 26.2.1, SVG Export Plug-In . SVG Version: 6.00 Build 0)  -->
<svg version="1.1" xmlns="http://www.w3.org/2000/svg" xmlns:xlink="http://www.w3.org/1999/xlink" x="0px" y="0px"
	 viewBox="0 0 119.5246429 71.5798035" style="enable-background:new 0 0 119.5246429 71.5798035;" xml:space="preserve">
<style type="text/css">
	.st0{fill:url(#FOND_00000143577996814850101230000007896920332500373643_);}
	.st1{fill:url(#FOND_00000068648132340449302520000003632739710950355109_);}
	.st2{fill:#FFF5F7;}
	.st3{fill:url(#FOND_00000134940567814941349770000012844718022432039086_);}
	.st4{fill:url(#FOND_00000088852531320944181060000017089636583650439565_);}
	.st5{fill:url(#FOND_00000116925974151314267890000015748088950175360155_);}
	.st6{fill:url(#FOND_00000157288096275837896150000006654576702447631488_);}
	.st7{fill:url(#FOND_00000031920019820864980210000001321043362868413111_);}
	.st8{fill:url(#FOND_00000088854527937023760660000016211503734342984626_);}
	.st9{fill:url(#FOND_00000129927770334051598740000001646999242399657641_);}
	.st10{fill:url(#FOND_00000147186411865277889720000003790525393585087901_);}
	.st11{fill:#272F60;}
	.st12{fill:#FD657C;}
	.st13{fill:url(#FOND_00000002383396352820020630000012804536376472518067_);}
	.st14{fill:url(#FOND_00000114752463844065811960000006124138148336457107_);}
	.st15{fill:#F4AAB9;}
	.st16{clip-path:url(#Rectangle_10_00000116214565845172525510000002042305056426138280_);}
	.st17{fill:#FB657C;}
	.st18{fill:#FFFFFF;}
	.st19{fill:#FFBCC6;}
	.st20{clip-path:url(#SVGID_00000163773768645905938160000003679569039219249031_);}
	.st21{enable-background:new    ;}
	.st22{fill:#FB657C;stroke:#FD657C;stroke-width:3.8352001;stroke-linecap:round;stroke-linejoin:round;stroke-miterlimit:1.4382;}
	.st23{fill:#FFBCC6;stroke:#FFBCC6;stroke-width:3.8352001;stroke-linecap:round;stroke-linejoin:round;stroke-miterlimit:1.4382;}
	.st24{clip-path:url(#SVGID_00000013164823875766470700000011112322741530331288_);fill:#FB657C;}
	.st25{clip-path:url(#SVGID_00000005226782519052404830000017695945377767442337_);fill:#FFBCC6;}
	.st26{clip-path:url(#SVGID_00000013912425503116241320000004581048352786559369_);fill:#FFBCC6;}
	.st27{clip-path:url(#SVGID_00000147928309402313108430000017802865675804911290_);fill:#FFBCC6;}
	.st28{clip-path:url(#SVGID_00000155112403672458476250000005687106523700642216_);fill:#FFBCC6;}
	.st29{clip-path:url(#SVGID_00000107573846733031457150000010093821051644523698_);fill:#FFBCC6;}
	.st30{clip-path:url(#SVGID_00000117667807225250234100000011494138968343505338_);fill:#FFBCC6;}
	.st31{clip-path:url(#SVGID_00000178203707062376621990000004280094138733796530_);fill:#FFBCC6;}
	.st32{clip-path:url(#SVGID_00000052809401116007067460000001874013010789885573_);fill:#FFBCC6;}
	.st33{clip-path:url(#SVGID_00000103958956341187032720000008538530269590901633_);fill:#FFBCC6;}
	.st34{clip-path:url(#SVGID_00000174578919111287856960000007959573649951146678_);fill:#FFBCC6;}
	.st35{clip-path:url(#SVGID_00000151531190319719158650000003691194948179106212_);fill:#FFBCC6;}
	.st36{clip-path:url(#SVGID_00000042737134639069361550000016745376834840689050_);fill:#FFBCC6;}
	.st37{clip-path:url(#SVGID_00000150789274653549511230000010913881839264640938_);fill:#FFBCC6;}
	.st38{clip-path:url(#SVGID_00000181069897919587882100000012264693957460409478_);fill:#FFBCC6;}
	.st39{clip-path:url(#SVGID_00000158750691213783591990000009010564751826867122_);fill:#272F60;}
	.st40{clip-path:url(#SVGID_00000158750691213783591990000009010564751826867122_);fill:#FB657C;}
	.st41{clip-path:url(#SVGID_00000158750691213783591990000009010564751826867122_);fill:#FFBCC6;}
	.st42{clip-path:url(#SVGID_00000158750691213783591990000009010564751826867122_);fill:#FFFFFF;}
	.st43{fill:none;}
	.st44{clip-path:url(#SVGID_00000160165100688014758340000009675479865768846216_);fill:#FFFFFF;}
	.st45{clip-path:url(#SVGID_00000133514931605581778860000015430813217944798139_);fill:#FFFFFF;}
	.st46{clip-path:url(#SVGID_00000067194309650672979470000005979776662349728156_);fill:#FFFFFF;}
	.st47{clip-path:url(#SVGID_00000128455920571558364240000006702361140911885199_);fill:#FFFFFF;}
	.st48{clip-path:url(#SVGID_00000179609502397346509200000006298736844648205725_);fill:#FFFFFF;}
	.st49{clip-path:url(#SVGID_00000023258932557589544810000011357624151466417835_);fill:#FFFFFF;}
	.st50{clip-path:url(#SVGID_00000067931941945437497940000000664694069895182740_);fill:#FFFFFF;}
	.st51{clip-path:url(#SVGID_00000066503177652428048540000005004363966639412901_);fill:#FFFFFF;}
	.st52{clip-path:url(#SVGID_00000049218630229840329290000006475764194083695502_);fill:#FFFFFF;}
	.st53{clip-path:url(#SVGID_00000014600970936742698270000001392671930835429542_);fill:#FFFFFF;}
	.st54{clip-path:url(#SVGID_00000063596615285325204440000007959151438241883321_);fill:#FFFFFF;}
	.st55{clip-path:url(#SVGID_00000005981901493722858640000018442797658250323623_);fill:#FFFFFF;}
	.st56{clip-path:url(#SVGID_00000030480173975528806420000015134343514884502686_);fill:#FB657C;}
	.st57{clip-path:url(#SVGID_00000080896515698116182680000006410438856784242105_);fill:#FFFFFF;}
	.st58{clip-path:url(#SVGID_00000158720323877831020100000005963273644871593098_);fill:#FFFFFF;}
	.st59{fill:#FF647B;}
	.st60{fill:#FF657C;}
	.st61{fill:#272E5F;}
	.st62{fill:none;stroke:#272E5F;stroke-width:3;}
	.st63{clip-path:url(#SVGID_00000090256697148941466500000003450563391459805621_);}
	.st64{fill:#606060;}
	.st65{fill:#E94B67;}
	.st66{fill:#132350;}
	.st67{fill:#050605;}
	.st68{fill:#FFF5F7;stroke:#272E5F;stroke-width:2;}
	.st69{fill:none;stroke:#272E5F;stroke-width:2;stroke-linecap:round;stroke-linejoin:round;stroke-miterlimit:10;}
	.st70{fill:none;stroke:#272E5F;stroke-width:2;}
	.st71{fill:none;stroke:#272E5F;stroke-width:3;stroke-linecap:round;stroke-linejoin:round;stroke-miterlimit:10;}
	.st72{fill:none;stroke:#142664;stroke-width:2;stroke-linecap:round;stroke-linejoin:round;stroke-miterlimit:10;}
	.st73{clip-path:url(#SVGID_00000142146653702638162990000010924110888339473809_);}
	.st74{clip-path:url(#SVGID_00000038370821268381135590000014714770080438268048_);}
	.st75{clip-path:url(#SVGID_00000109023211095632942790000010162373543676305044_);fill:#FD657C;}
	.st76{clip-path:url(#SVGID_00000154425800189513963320000007490883963706241176_);fill:#FD657C;}
	.st77{clip-path:url(#SVGID_00000021830797858803991200000017703836770066895786_);}
	.st78{clip-path:url(#SVGID_00000161631665168785856260000013336324721970713516_);}
	.st79{clip-path:url(#SVGID_00000058578365536248783710000013960592720028166335_);}
	.st80{fill:none;stroke:#142664;stroke-width:3;stroke-linecap:round;stroke-linejoin:round;}
	.st81{clip-path:url(#SVGID_00000029731590296975903240000009217638108424749959_);}
	.st82{clip-path:url(#SVGID_00000026880711914364436850000005065678647892898946_);}
	.st83{clip-path:url(#SVGID_00000108309611623955504630000018110979959615448732_);}
	.st84{clip-path:url(#SVGID_00000131335250022946832820000010750244877998711466_);}
	.st85{clip-path:url(#SVGID_00000133498605794754472310000013502590802131495066_);}
	.st86{clip-path:url(#SVGID_00000074415722087234498270000014029098568989656232_);}
	.st87{clip-path:url(#SVGID_00000091004775926786513160000016278566460358807980_);}
	.st88{clip-path:url(#SVGID_00000031166768503577961910000007701341978106225846_);}
	.st89{clip-path:url(#SVGID_00000009557054779720933960000005804197386103751359_);}
	.st90{clip-path:url(#SVGID_00000083788720309114442710000004253227625855478657_);}
	.st91{clip-path:url(#SVGID_00000176032145807528049860000008077704965166449550_);}
	.st92{clip-path:url(#SVGID_00000143598813607685478200000016210362061834192809_);}
	.st93{clip-path:url(#SVGID_00000038393820541097516060000005413347418758831769_);}
	.st94{clip-path:url(#SVGID_00000129191924170730869350000012414247506018296756_);}
	.st95{clip-path:url(#SVGID_00000043415318710475695330000011720220144119462536_);}
	.st96{clip-path:url(#SVGID_00000155849112060114416200000010390561884080083079_);}
	.st97{clip-path:url(#SVGID_00000080170979009206975990000009242338337997960636_);}
	.st98{clip-path:url(#SVGID_00000012470366139955107240000014330520131396841350_);}
	.st99{clip-path:url(#SVGID_00000171000470664636210660000018183948191783669426_);}
	.st100{clip-path:url(#SVGID_00000047739382087817913030000013516284332752522154_);}
	.st101{clip-path:url(#SVGID_00000173857838427526647260000017583960112995136153_);}
	.st102{clip-path:url(#SVGID_00000160899380535455669290000009153383995815171713_);}
	.st103{clip-path:url(#SVGID_00000009570097447969043950000017435644657569351096_);}
	.st104{clip-path:url(#SVGID_00000097461851074544952670000009054564245980422807_);}
	.st105{clip-path:url(#SVGID_00000163764800907634864040000014791729387264103054_);}
	.st106{clip-path:url(#SVGID_00000132773115609689044090000010928412827854999440_);}
	.st107{clip-path:url(#SVGID_00000097463195507952602550000013558936116926320822_);}
	.st108{clip-path:url(#SVGID_00000178885705595463829380000005716494526647908778_);}
	.st109{clip-path:url(#SVGID_00000001648353207680655700000000250626665114812057_);}
	.st110{clip-path:url(#SVGID_00000124881058668438113890000015658204395780258972_);}
	.st111{clip-path:url(#SVGID_00000069392816500010886850000013577454153864990628_);}
	.st112{clip-path:url(#SVGID_00000032630183861873006830000000353877144036856228_);}
	.st113{clip-path:url(#SVGID_00000141453686228067931100000016685161820499039150_);}
	.st114{clip-path:url(#SVGID_00000076589333322306728210000009899471636389434034_);}
	.st115{clip-path:url(#SVGID_00000091713027196966995290000016541513900071104405_);}
	.st116{clip-path:url(#SVGID_00000020400865390227025620000009068984312141607042_);}
	.st117{clip-path:url(#SVGID_00000147938937132380257630000002009960553169005226_);}
	.st118{clip-path:url(#SVGID_00000161606227386123120230000014864580783342619552_);}
	.st119{clip-path:url(#SVGID_00000096769891917536320160000008872245415265677708_);}
	.st120{clip-path:url(#SVGID_00000036964852283792407170000000232403789195263889_);}
	.st121{clip-path:url(#SVGID_00000152256509254846635730000002568448170347548842_);}
	.st122{clip-path:url(#SVGID_00000088103066577531839110000003342622585641232316_);}
	.st123{clip-path:url(#SVGID_00000034052681635212433920000003557523831431950514_);}
	.st124{fill:#FFFFFF;stroke:#142664;stroke-width:3;stroke-linecap:round;stroke-linejoin:round;}
	.st125{clip-path:url(#SVGID_00000072999393604679046510000009888741043733635975_);}
	.st126{fill-rule:evenodd;clip-rule:evenodd;fill:#FFBCC6;}
	.st127{fill-rule:evenodd;clip-rule:evenodd;fill:#272F60;}
	.st128{fill-rule:evenodd;clip-rule:evenodd;fill:#FFFFFF;}
	.st129{fill-rule:evenodd;clip-rule:evenodd;fill:#FB657C;}
	.st130{clip-path:url(#SVGID_00000060737551734112738910000016302180878663861672_);}
	.st131{clip-path:url(#SVGID_00000069365433662354199690000005684472313988003507_);}
	.st132{clip-path:url(#SVGID_00000010280572373939831810000003137481723159692174_);}
	.st133{clip-path:url(#SVGID_00000146488530460768326560000000470744949348635552_);}
	.st134{clip-path:url(#SVGID_00000181045588432207568000000014970455627189802673_);}
	.st135{clip-path:url(#SVGID_00000025401095857381352400000017891737916376594567_);}
	.st136{clip-path:url(#SVGID_00000067208277332721114800000011601869807555289522_);}
	.st137{clip-path:url(#SVGID_00000098205656434367363690000001654126436377716669_);}
	.st138{clip-path:url(#SVGID_00000008149795895267142530000001066954420348582309_);}
	.st139{clip-path:url(#SVGID_00000043447467650669208250000006945482881268469681_);}
	.st140{clip-path:url(#SVGID_00000019663859721857150060000010397867287366234000_);}
	.st141{clip-path:url(#SVGID_00000070799688485960550550000011193356359477238717_);}
	.st142{clip-path:url(#SVGID_00000151540139946840434470000011187846494969744550_);}
	.st143{clip-path:url(#SVGID_00000013914872425006096010000006447998284971523253_);}
	.st144{clip-path:url(#SVGID_00000160192266405589701140000008090122833294136969_);}
	.st145{clip-path:url(#SVGID_00000179620905963000757170000008335484814085135017_);}
	.st146{clip-path:url(#SVGID_00000000903440807989381610000015460207003206710190_);}
	.st147{clip-path:url(#SVGID_00000019641534488140072800000005425323305613155997_);}
	.st148{clip-path:url(#SVGID_00000139264329901873116630000006539119912079271041_);}
	.st149{clip-path:url(#SVGID_00000041983820572611739700000000160735226709049502_);}
	.st150{clip-path:url(#SVGID_00000065765397348506385830000004129840504541486724_);}
	.st151{clip-path:url(#SVGID_00000145045649948635724290000017866599627887588019_);}
	.st152{clip-path:url(#SVGID_00000159429024439636393510000011348663361661571517_);}
	.st153{clip-path:url(#SVGID_00000145038354876972888010000014738047574786115713_);}
	.st154{clip-path:url(#SVGID_00000101819033329614750510000015492794277887026834_);}
	.st155{clip-path:url(#SVGID_00000065058747417423746190000003925920650977269911_);}
	.st156{clip-path:url(#SVGID_00000070112804714771988220000010375361993457739689_);}
	.st157{clip-path:url(#SVGID_00000157995651587556887200000005824161370039664553_);}
	.st158{clip-path:url(#SVGID_00000119797853848985723190000009557666222030985124_);}
	.st159{clip-path:url(#SVGID_00000033366445645941897190000009874145177216873144_);}
	.st160{clip-path:url(#SVGID_00000111904378907963608930000015036194796746142090_);}
	.st161{clip-path:url(#SVGID_00000179622958618549577330000005913905025114788794_);}
	.st162{clip-path:url(#SVGID_00000181084618685981242720000001499796388817859993_);}
	.st163{clip-path:url(#SVGID_00000178203329062059429910000014205536418762231743_);}
	.st164{clip-path:url(#SVGID_00000005237682173464992160000001377407047164047275_);}
	.st165{clip-path:url(#SVGID_00000025444059020581170780000007539312351274181540_);}
	.st166{clip-path:url(#SVGID_00000005975034851769757320000008799941014739923133_);}
	.st167{clip-path:url(#SVGID_00000072261607217228480050000015987557581022970004_);}
	.st168{clip-path:url(#SVGID_00000003075806365589284390000007632341102926813573_);}
	.st169{clip-path:url(#SVGID_00000020389425146618385290000015707938310570376893_);}
	.st170{clip-path:url(#SVGID_00000013877878456103738500000016157397161904717489_);}
	.st171{clip-path:url(#SVGID_00000098914960915199582560000011791431000216697247_);}
	.st172{clip-path:url(#SVGID_00000138550984564073527770000005860067292057738374_);}
	.st173{clip-path:url(#SVGID_00000086687002782027040360000008520782987525988261_);}
	.st174{clip-path:url(#SVGID_00000017487935635744076230000013723007783699492278_);}
	.st175{clip-path:url(#SVGID_00000176748851626077749550000010372627119923486370_);}
	.st176{clip-path:url(#SVGID_00000061447902439549980330000015487571159276744854_);}
	.st177{clip-path:url(#SVGID_00000009578133752664933740000000432526912703351222_);}
	.st178{clip-path:url(#SVGID_00000165936484788961966570000016457524710242856860_);}
	.st179{clip-path:url(#SVGID_00000161610727698883741640000000385637594264079022_);}
	.st180{clip-path:url(#SVGID_00000073720797902294969010000010972233788290154137_);}
	.st181{clip-path:url(#SVGID_00000120539411086502444660000009463835262512076725_);}
	.st182{clip-path:url(#SVGID_00000170957859817359149910000005176104052918094770_);}
	.st183{clip-path:url(#SVGID_00000151504593408365589590000012258622993985591704_);}
	.st184{clip-path:url(#SVGID_00000028321496717384916560000004635149216475859343_);}
	.st185{clip-path:url(#SVGID_00000083767683168208582010000008628076482036025266_);}
	.st186{clip-path:url(#SVGID_00000176024589930996470750000001023702084472116158_);}
	.st187{clip-path:url(#SVGID_00000140713097750602096790000015334611280833828523_);}
	.st188{clip-path:url(#SVGID_00000127014564294991759980000000158409562032319625_);}
	.st189{clip-path:url(#SVGID_00000060029669630707387720000010907295473696682119_);}
	.st190{clip-path:url(#SVGID_00000154398277011183232280000014791663704880973956_);}
	.st191{clip-path:url(#SVGID_00000144319931218471591120000000131401332490684569_);}
	.st192{clip-path:url(#SVGID_00000108302514808245604100000015531431392450855854_);}
	.st193{clip-path:url(#SVGID_00000055697505045298635090000015386145836444807575_);}
	.st194{clip-path:url(#SVGID_00000120556471629097219590000005762758067810800532_);}
	.st195{clip-path:url(#SVGID_00000134212716545633204410000007970547194164631965_);}
	.st196{clip-path:url(#SVGID_00000150796096210661122240000011500060509700280979_);}
	.st197{clip-path:url(#SVGID_00000054965738236851250860000016368075595313747340_);}
	.st198{clip-path:url(#SVGID_00000081632900115734349280000014204113751722419862_);}
	.st199{clip-path:url(#SVGID_00000105423879102532432720000016158543952848218278_);}
	.st200{clip-path:url(#SVGID_00000136389553849720648580000003559537717173342876_);}
	.st201{clip-path:url(#SVGID_00000149361637734195146970000006506518255804208545_);}
	.st202{clip-path:url(#SVGID_00000179645369121568608660000012243983869675755912_);}
	.st203{clip-path:url(#SVGID_00000057839379561418365650000001560286022957776293_);}
	.st204{clip-path:url(#SVGID_00000156580447356437419860000010018687586877587865_);}
	.st205{clip-path:url(#SVGID_00000021838103553833070780000013559052440892373430_);}
	.st206{clip-path:url(#SVGID_00000021832318790609449760000002221282075208492216_);}
	.st207{clip-path:url(#SVGID_00000176759732316095776370000015926758784811668106_);}
	.st208{clip-path:url(#SVGID_00000005226902575476639410000009986746144312906383_);}
	.st209{clip-path:url(#SVGID_00000018195919882060239010000000723057897833999752_);}
	.st210{clip-path:url(#SVGID_00000137814994025802818250000014768525535595532704_);}
	.st211{clip-path:url(#SVGID_00000044149798498517162710000003377245996370710914_);}
	.st212{clip-path:url(#SVGID_00000031174380571221632350000015580322442916550808_);}
	.st213{clip-path:url(#SVGID_00000044885842799274510260000006503882553024019082_);}
	.st214{clip-path:url(#SVGID_00000044862570603703083890000007371578793256470695_);}
	.st215{clip-path:url(#SVGID_00000042015578255718640880000018093936178652635522_);}
	.st216{clip-path:url(#SVGID_00000180351456359183250200000014342180455292672655_);}
	.st217{clip-path:url(#SVGID_00000023991697259333892960000004500046643265233561_);}
	.st218{clip-path:url(#SVGID_00000105412760646888592070000013683605476932284579_);}
	.st219{clip-path:url(#SVGID_00000119089415411157705340000018376685481906717595_);}
	.st220{clip-path:url(#SVGID_00000115488534945096729020000002756176458175506048_);}
	.st221{clip-path:url(#SVGID_00000055679526891309270360000013710637177896356234_);}
	.st222{clip-path:url(#SVGID_00000071525130455014629990000008622844922208568251_);}
	.st223{clip-path:url(#SVGID_00000119837136480563140130000014174858235917279384_);}
	.st224{clip-path:url(#SVGID_00000067929555751041440220000000475425376697489806_);}
	.st225{clip-path:url(#SVGID_00000041284275443199088590000006482112958935763347_);}
	.st226{clip-path:url(#SVGID_00000003102215924838579390000007488949217788328883_);}
	.st227{clip-path:url(#SVGID_00000158007961204289504260000007066422335009953449_);}
	.st228{clip-path:url(#SVGID_00000031923906783045738370000013806124131406321312_);}
	.st229{clip-path:url(#SVGID_00000032633450763346613560000001654791458773963919_);}
	.st230{clip-path:url(#SVGID_00000143575015311821162310000012754693776699875513_);}
	.st231{clip-path:url(#SVGID_00000053506066284465838300000012420465932799933881_);}
	.st232{clip-path:url(#SVGID_00000150804014700838616650000014660315690214350740_);}
	.st233{clip-path:url(#SVGID_00000135649950448139779690000006666919454136450722_);}
	.st234{clip-path:url(#SVGID_00000061470448837916527970000011659724535754614954_);}
	.st235{clip-path:url(#SVGID_00000012474511457761413720000007655519050260701079_);}
	.st236{clip-path:url(#SVGID_00000033364222861603187040000018149022324056961412_);}
	.st237{clip-path:url(#SVGID_00000029744829139086296140000009119180934460654765_);}
	.st238{clip-path:url(#SVGID_00000017481026435236897010000014994665680646989206_);}
	.st239{clip-path:url(#SVGID_00000084494544227216824110000016927619099180712607_);}
	.st240{clip-path:url(#SVGID_00000116926096274952685190000000226370859818178459_);}
	.st241{clip-path:url(#SVGID_00000112613304987550397330000004329539910885802673_);}
	.st242{clip-path:url(#SVGID_00000111182218897641855270000005339447176775160969_);}
	.st243{clip-path:url(#SVGID_00000106115674837902029370000010800257667285007235_);}
	.st244{clip-path:url(#SVGID_00000088132789261780765340000013342184308400863933_);}
	.st245{clip-path:url(#SVGID_00000111895165991752348820000007993390958530657176_);}
	.st246{clip-path:url(#SVGID_00000119094186204864450740000017655484306856865968_);}
	.st247{clip-path:url(#SVGID_00000130633776843270508110000013072584054562551453_);}
	.st248{clip-path:url(#SVGID_00000154414263648231164060000015826897754018415776_);}
	.st249{clip-path:url(#SVGID_00000016757458939419476860000008004937665390459042_);}
	.st250{clip-path:url(#SVGID_00000010281056259880674390000015012186172601429906_);}
	.st251{clip-path:url(#SVGID_00000055664533935829322100000000149715275917469096_);}
	.st252{clip-path:url(#SVGID_00000111189778300175946910000003106063414612004501_);}
	.st253{clip-path:url(#SVGID_00000008838925947430959930000008065063060348507288_);}
	.st254{clip-path:url(#SVGID_00000039093658150140090390000006449020620552162721_);}
	.st255{clip-path:url(#SVGID_00000000905871376177784590000009504477029821520299_);}
	.st256{clip-path:url(#SVGID_00000034787879898262966970000005108385491821905555_);}
	.st257{clip-path:url(#SVGID_00000078757785414082533870000004005575697378773946_);}
	.st258{clip-path:url(#SVGID_00000072969085778254095560000016190866203041369496_);}
	.st259{clip-path:url(#SVGID_00000103257896443275131050000006160442383982167685_);}
	.st260{fill:#E94966;}
	.st261{fill:#13224F;}
</style>
<g id="FONDS">
</g>
<g id="ILLUSTRATIONS">
	<g id="Groupe_1211" transform="translate(0 43.718) rotate(-17)">
		<g>
			<g id="Groupe_1210">
				<path id="Tracé_4296" class="st12" d="M12.9983196-6.3951802c0,0,3.3439999-0.1939993,7.8999901-0.290998
					c2.4320068-0.0999994,5.1669903-0.1939988,7.899992-0.1939979c1.6000061,0,3.1889935,0.0000005,4.7109985,0.1000009
					c6.0779991,0.1940007,11.0929985,0.3880019,11.0929985,0.3880019c0.6079979,0.0000005,1.0629997,0.5819998,1.0629997,1.3590002
					s-0.4559937,1.3589995-1.0630035,1.3589995c0,0-5.0149956,0.2909992-11.0929985,0.3889973
					c-1.5200024-0.0000002-3.1159954,0.0999997-4.7109947,0.0999994c-2.7350006-0.0000007-5.4699993-0.1000016-7.899992-0.1940019
					c-4.5589962-0.1000013-7.8999987-0.291002-7.8999987-0.291002c-0.6080017,0-1.0630026-0.5819998-1.0630026-1.3589997
					s0.4550018-1.3589997,1.0630035-1.3589997"/>
				<path id="Tracé_4297" class="st12" d="M-6.7046795,24.3178062c0,0,3.3440006-0.1940002,7.8999987-0.2909985
					c2.4319985-0.0999985,5.1669979-0.1940002,7.8999987-0.1939983c1.5999985,0,3.189002,0,4.7109966,0.0999985
					c6.078001,0.1940022,11.0929985,0.3880024,11.0929985,0.3880024c0.6080017,0.0000019,1.0630035,0.5820007,1.0630035,1.3590012
					s-0.4560013,1.3590012-1.0630035,1.3590012c0,0-5.0149975,0.2909985-11.0929985,0.388998
					c-1.5199966-0.0000019-3.1159964,0.0999966-4.7109976,0.0999966c-2.7349992,0-5.4699993-0.1000004-7.8999987-0.1940022
					c-4.5589962-0.0999985-7.8999987-0.2910023-7.8999987-0.2910023c-0.6080012,0-1.0629992-0.5820007-1.0629988-1.3589993
					c0-0.7770004,0.4550018-1.3590012,1.0629997-1.3590012"/>
				<path id="Tracé_4298" class="st61" d="M124.3412781-6.7851562l0.2999878,0.1680002
					c0.4217224,0.2372594,0.7642822,0.593389,0.9849854,1.0239997c0.5676193,0.9386897,0.5916061,2.1088171,0.0629807,3.0699987
					l-18.7749634,33.1829872c-0.5514221,0.9485073-1.566864,1.5309296-2.6640015,1.5279961
					c-8.408989,0.0670013-44.5099754,0.2619934-58.2499771,0.3469887c-0.5700378-0.0133362-1.1278076-0.1683273-1.6230011-0.4510002
					l-3.3189964-1.8779984l1.8410034-0.9000015c0.0205994-0.4936466,0.1576691-0.9754276,0.3999939-1.4059963L62.0753059-5.28617
					c0.5512848-0.9486585,1.566803-1.5311341,2.6639977-1.5279989l53.5859833-0.2629881l2.9339905-1.4519987L124.3412781-6.7851562z
					"/>
				<path id="Tracé_4299" class="st19" d="M103.5362854,28.7488289c-0.5512695,0.9486561-1.566803,1.5311337-2.6640015,1.527998
					c-8.4089966,0.0669994-44.5099831,0.2619915-58.2499809,0.3469868c-1.7120819,0.0027695-3.1022491-1.3828964-3.105011-3.0949764
					c-0.0008392-0.5179062,0.1280975-1.0277672,0.3750153-1.4830208L58.6623116-7.1381702
					c0.5516815-0.948122,1.5670624-1.5301342,2.6640015-1.5269985c8.4089928-0.0669985,44.5099983-0.2619905,58.2499809-0.3479872
					c1.7120667-0.0030794,3.102478,1.3823385,3.1055603,3.094418c0.000946,0.5184803-0.1281738,1.0289135-0.3755493,1.4845805
					L103.5362854,28.7488289"/>
				<path id="Tracé_4300" class="st18" d="M114.2832947-3.5281596c-0.0114746-0.9432321,0.7438354-1.7171831,1.6870728-1.7286682
					c0.0243225-0.0002956,0.048645-0.0000725,0.072937,0.0006695c0.9891357,0.0118804,1.7881165,0.8108521,1.7999878,1.8
					c-0.0106812,0.4225883-0.158844,0.8301752-0.4219971,1.1609998c0.6407471,0.5339775,0.8131104,1.4472253,0.4110107,2.1779988
					c-0.4945068,0.8317733-1.558136,1.1237442-2.4079895,0.6609985c0.8319092,0.4898071,1.129303,1.5486963,0.6740112,2.3999989
					c-0.2832642,0.4915979-0.7871399,0.8154788-1.3519897,0.868999c0.2432251,0.5122452,0.2253723,1.1101851-0.0480042,1.6069999
					c-0.4945068,0.8317733-1.558136,1.123744-2.4079895,0.6609983c-0.3660583-0.2074966-0.6506653-0.5333462-0.8070068-0.9239998
					c-0.120636,0.9517021-0.9899597,1.6254115-1.9416504,1.5047693c-0.8783569-0.1113415-1.5323792-0.8655071-1.5183411-1.7507701
					c0.0114746,0.9432311-0.7438354,1.7171831-1.6870728,1.7286692c-0.0243225,0.0002956-0.048645,0.0000725-0.072937-0.0006695
					c-0.9538269,0.0060477-1.7398987-0.7468052-1.7749939-1.7000008c0.0114746,0.9432316-0.7438354,1.7171836-1.6870728,1.7286692
					c-0.0243225,0.0002956-0.048645,0.0000725-0.072937-0.0006695c-0.8263245,0.00667-1.54599-0.5624142-1.730011-1.368
					c-0.3261414,0.4451866-0.8282776,0.7283096-1.3779907,0.777c-0.983551,0.0191669-1.8003235-0.754837-1.8340073-1.7380004
					c-0.023468-0.9813097,0.7527161-1.7959931,1.7340012-1.8199987c0.2453003,0.0019264,0.4893188,0.0355396,0.7260132,0.1000004
					c-0.7859497-0.5010777-1.0320969-1.5356613-0.5559921-2.3369992c0.4945068-0.8317734,1.5581284-1.1237442,2.4079819-0.6609986
					c-0.8577271-0.4584999-1.1813278-1.5255029-0.7228317-2.3832181c0.4584961-0.857717,1.5254822-1.1813462,2.3832016-0.7228472
					c0.0245361,0.013113,0.0487366,0.0268059,0.0726318,0.0410662l0.0589905,0.033l-0.026001-0.0919998
					c-0.0109253-0.943239,0.7448425-1.7167475,1.6880798-1.7276804c0.0239868-0.0002775,0.0479736-0.0000505,0.0719299,0.0006809
					c0.9534302-0.0055003,1.7388916,0.7471976,1.7739868,1.6999998c-0.0114746-0.9432321,0.7438354-1.7171836,1.6870728-1.7286682
					c0.0243225-0.0002956,0.048645-0.0000725,0.072937,0.0006695c0.9536133-0.0055227,1.7393799,0.747035,1.7749939,1.6999996
					c-0.0109253-0.943239,0.7448425-1.7167475,1.6880798-1.72768c0.0239868-0.0002775,0.0479736-0.0000505,0.0719299,0.0006809
					c0.9041443,0.0854254,1.5935364,0.8468542,1.5889893,1.7549996"/>
				<path id="Tracé_4301" class="st12" d="M112.4412842,3.5978379c-0.0701599,0.172287-0.2568359,0.2662523-0.4370117,0.2199991
					c-1.3999939-0.0140002-7.8349915,0.1579993-10.1210022,0.1869981c-0.1654663-0.0157032-0.3164062-0.1011772-0.4150085-0.2350006
					c-0.0869446-0.1482487-0.1006165-0.3283386-0.0369873-0.4880009l2.9670105-5.2459979
					c0.0701904-0.1722106,0.2570496-0.2658461,0.4370117-0.2189997c1.3999939,0.0140004,7.8349915-0.157999,10.1210022-0.1879973
					c0.1654358,0.0158272,0.3163452,0.1012745,0.4150085,0.2350006c0.0870972,0.1482029,0.100769,0.3283633,0.0369873,0.4880008
					L112.4412842,3.5978379z"/>
				<path id="Tracé_4302" class="st61" d="M53.9542999,15.5638208l4.1749878-0.0500021
					c0.8079529,0.0063324,1.4680786-0.6435165,1.4744263-1.4514837c0.0001221-0.0161743-0.0000305-0.0323486-0.0004272-0.0485153
					c-0.0020447-0.8179321-0.666748-1.4793396-1.4846802-1.4772949c-0.0087891,0.0000229-0.0175476,0.0001221-0.0263062,0.0002975
					l-4.174984,0.0500021c-0.8222961-0.0085144-1.4958191,0.6511908-1.5043335,1.4734945
					c-0.0085144,0.8223114,0.6511803,1.4958267,1.4734764,1.5043411
					C53.9090729,15.5648966,53.9316864,15.5646143,53.9542999,15.5638208"/>
				<path id="Tracé_4303" class="st61" d="M61.8782959,15.5318213l8.3169785-0.0409985
					c0.8085327,0.0057678,1.4686279-0.6449966,1.4743958-1.4535217c0.0001221-0.0154953-0.0000305-0.0309906-0.0003967-0.0464783
					c-0.0020447-0.8179312-0.6667404-1.4793463-1.4846725-1.4773169c-0.0090942,0.0000229-0.018219,0.0001297-0.0273132,0.0003204
					l-8.3169861,0.0409985c-0.8085327-0.0057688-1.4686279,0.6449957-1.4743958,1.4535208
					c-0.0001221,0.0154953,0.0000305,0.0309906,0.0003967,0.0464783
					C60.4010315,14.8692608,61.0632629,15.51618,61.8782959,15.5318213"/>
				<path id="Tracé_4304" class="st61" d="M51.3572998,20.1598148L63.60429,20.0858212
					c0.8085365,0.0057678,1.4686317-0.6449966,1.4743996-1.4535217c0.0001221-0.0154953-0.0000305-0.0309906-0.0003967-0.0464783
					c-0.0014648-0.8173828-0.6652832-1.4787979-1.4826698-1.4773178c-0.0094604,0.0000153-0.0188904,0.0001221-0.0283203,0.0003204
					l-12.2469864,0.0739956c-0.8223114-0.0085144-1.4958191,0.6511993-1.5043335,1.4735088
					c-0.0085144,0.8223038,0.6511955,1.4958191,1.4735069,1.5043259c0.0226135,0.0002365,0.0452271-0.0000458,0.0678253-0.0008392"
					/>
				<path id="Tracé_4305" class="st61" d="M67.0462875,20.0888195l0.6080017,0.0319977
					c0.8085327,0.0057678,1.4686279-0.6449966,1.4743958-1.4535198c0.0001221-0.0154953-0.0000305-0.0309906-0.0003967-0.0464783
					c-0.0020447-0.8179321-0.666748-1.4793472-1.4846725-1.4773178c-0.0090942,0.0000229-0.018219,0.0001297-0.0273132,0.0003204
					l-0.6080017-0.0319977c-0.8085327-0.0057697-1.4686279,0.6449947-1.4743958,1.4535198
					c-0.0001221,0.0154953,0.0000305,0.0309906,0.0003967,0.0464783
					C65.5600586,19.4302349,66.2275085,20.082243,67.0462875,20.0888195"/>
				<path id="Tracé_4306" class="st61" d="M48.8233032,24.6398163l11.4539909-0.0559978
					c0.8085327,0.0057697,1.4686279-0.6449947,1.4743958-1.4535198c0.0001221-0.0154953-0.0000305-0.0309906-0.0003967-0.0464783
					c-0.0020447-0.8179321-0.666748-1.4793396-1.4846802-1.4772949c-0.0087891,0.0000229-0.0175476,0.0001221-0.0263062,0.0002975
					l-11.4549942,0.0559978c-0.8085175-0.0057678-1.4686432,0.6449947-1.474411,1.4535198
					c-0.0001068,0.0154953,0.0000305,0.0309906,0.000412,0.0464783
					C47.3370552,23.9812317,48.0045166,24.6332397,48.8233032,24.6398163"/>
				<path id="Tracé_4307" class="st61" d="M95.2042923,0.462835c0.6542358-0.5573403,1.4720764-0.8865922,2.3299866-0.9379989
					c0.6611938,0.0254461,1.2890015,0.297249,1.7600098,0.7619992c2.0731125,1.8462255,5.189476,1.8833356,7.3059921,0.0870014
					c0.6113281-0.5475403,0.6630554-1.4870007,0.1155396-2.0983422c-0.529541-0.5912265-1.4302063-0.6619664-2.0455322-0.1606582
					c-0.9830933,0.8681425-2.4588928,0.8681422-3.4419785-0.0000008c-1.0166321-0.9190444-2.329895-1.4418544-3.7000122-1.4729997
					c-1.5363159,0.0034595-3.0247803,0.5348005-4.2160034,1.5049976c-0.6628418,0.4969078-0.7973633,1.4370797-0.3004761,2.0999329
					c0.4969177,0.6628512,1.4371033,0.7973748,2.0999451,0.3004669c0.034668-0.0260009,0.0682068-0.0534934,0.1005249-0.0823993"/>
				<path id="Tracé_4308" class="st61" d="M92.970314,4.4108348c0.6542358-0.5573421,1.4720764-0.8865919,2.3299866-0.9379988
					c0.6612244,0.0254481,1.2890015,0.2972491,1.7600098,0.762001c2.0731125,1.8462257,5.189476,1.8833356,7.3059921,0.0870037
					c0.6113281-0.5475538,0.6630249-1.4870143,0.1154785-2.098346c-0.5295105-0.5911942-1.4301453-0.6619302-2.0454712-0.1606526
					c-0.9830933,0.8681445-2.4588928,0.8681443-3.4419785-0.0000007c-1.0166321-0.9190444-2.329895-1.4418526-3.7000122-1.4729998
					c-1.5363159,0.0034596-3.0247803,0.5348006-4.2160034,1.5049996c-0.6479187,0.5158801-0.7619019,1.4562562-0.256012,2.1119988
					c0.5621948,0.6034923,1.4865723,0.6919365,2.1530151,0.2060013"/>
				<path id="Tracé_4309" class="st61" d="M90.7362747,8.3608322c0.6542358-0.5573425,1.4720764-0.8865924,2.3299866-0.9379992
					c0.6612244,0.0254483,1.2890015,0.2972493,1.7600098,0.7620015c2.0731125,1.8462257,5.189476,1.8833351,7.3059921,0.0870028
					c0.6113281-0.5475531,0.6630249-1.4870138,0.1154785-2.0983458c-0.5295105-0.5911937-1.4301453-0.6619301-2.0454712-0.1606522
					c-0.9830933,0.8681445-2.4588928,0.868144-3.4419785-0.000001c-1.0166321-0.9190445-2.329895-1.4418526-3.7000122-1.473
					c-1.5363159,0.0034599-3.0247803,0.534801-4.2160034,1.5049996c-0.6479187,0.5158806-0.7619019,1.4562564-0.256012,2.1119986
					c0.5467834,0.6331787,1.4950256,0.7239494,2.1520081,0.2060022"/>
				<path id="Tracé_4310" class="st12" d="M7.8373218,11.5738144c0,0,2.3659968,0.1940002,5.7459998,0.2910013
					c1.689003,0.0999985,3.7170019,0.1940012,5.7450018,0.1940012c1.1829967,0,2.3659954,0.000001,3.3830013-0.0999975
					c4.3919964-0.1939993,7.941-0.3879986,7.941-0.3879986c1.3529968,0,2.3659973-0.5819998,2.3659973-1.3590002
					s-1.0169983-1.3590012-2.3690033-1.3590012c0,0-3.5490017-0.2910013-7.941-0.3890018
					c-1.1829967,0-2.199995-0.0999985-3.3830013-0.0999985c-2.0299988-0.000001-4.0589972,0.0999975-5.7450008,0.1939983
					C10.1983137,8.657815,7.8343163,8.8488169,7.8343163,8.8488169c-1.3529963-0.000001-2.3659964,0.5819998-2.3659968,1.3590002
					c0,0.7769995,1.0169978,1.3590002,2.3690023,1.3590012"/>
			</g>
		</g>
	</g>
</g>
<g id="TEXTES_FR">
</g>
<g id="TEXTES_GB">
</g>
</svg>
