<?xml version="1.0" encoding="utf-8"?>
<!-- Generator: Adobe Illustrator 26.2.1, SVG Export Plug-In . SVG Version: 6.00 Build 0)  -->
<svg version="1.1" id="Calque_1" xmlns="http://www.w3.org/2000/svg" xmlns:xlink="http://www.w3.org/1999/xlink" x="0px" y="0px"
	 viewBox="0 0 291.1 163.2" style="enable-background:new 0 0 291.1 163.2;" xml:space="preserve">
<style type="text/css">
	.st0{fill:#FFBCC6;}
	.st1{fill:#FF647B;}
	.st2{fill:#272F60;}
</style>
<g id="TEXTES_FR">
</g>
<g>
	<g id="ILLUSTRATIONS">
		<g>
			<path class="st0" d="M205.1,84.8c-0.6-2.5-1.8-4.9-3.4-6.9c-3.3-4-7.3-7.3-11.7-9.9c-4.1-2.4-8.4-4.3-12.9-5.6
				c-8.2-2.4-16.8-3.7-25.3-3.9c-8.1-0.3-16.3,0.1-24.4,1c-2,0.2-4,0.5-6,0.8c-1,0.2-2,0.3-3.1,0.5l-3,0.6L45.9,75.9l-2,0.3l-1,0.2
				c-0.3,0-0.6,0-1,0c-0.6,0-1.3,0-1.9,0.1c-5.3-0.2-10.5-1.9-14.9-4.9c-4.7-3.2-8.5-7.4-11.2-12.5c-0.4-0.6-0.7-1.3-1-1.9
				c-0.3-0.7-0.6-1.3-0.9-2l-0.7-2.1c-0.3-0.7-0.5-1.4-0.6-2.1l-0.5-2.1l-0.1-0.5L0,0v80.2c3.5,4.2,7.6,7.9,12.1,10.9
				c8.1,5.5,17.7,8.6,27.6,8.9l3.7-0.1c0.6,0,1.2,0,1.9-0.1l1.8-0.3c1.2-0.2,2.5-0.4,3.6-0.6l69.2-14.4l2.5-0.5l2.5-0.4
				c1.7-0.3,3.4-0.5,5.2-0.7c6.9-0.8,13.9-1.1,20.8-0.9c6.5,0.1,13,1.1,19.3,2.9c5.8,1.8,10.6,4.5,13.3,7.9c1.6,1.8,3.7,3.2,6,3.9
				c2.8,1.3,5.9,1.7,9,1.2c3.4-0.7,6-3.4,6.7-6.7C205.7,89.1,205.7,86.9,205.1,84.8z"/>
			<path id="Tracé_989_00000129905045898909372290000009562645182125468595_" class="st1" d="M204.5,93.5c2.1-3.3,6.5-4.2,9.8-2.1
				l0.1,0.1l61.5,40.3c3.3,2.2,4.2,6.6,2.1,9.8c-2.2,3.3-6.6,4.2-9.9,2.1l-61.5-40.3C203.3,101.2,202.4,96.8,204.5,93.5"/>
			<g id="Groupe_242_00000065056663348713347550000016159283223908123834_" transform="translate(263.76 268.192)">
				<path id="Tracé_991_00000084520217599049324990000005885494489337017275_" class="st2" d="M7.9-139.1l4,2.6l-7.8,11.9l-4-2.6
					L7.9-139.1z"/>
			</g>
			<g id="Groupe_243_00000131337227970383350030000002747185671164911538_" transform="translate(248.091 257.918)">
				<path id="Tracé_992_00000126298346592737246010000002953847650770683548_" class="st2" d="M7.9-139.1l4,2.6l-7.8,11.9l-4-2.6
					L7.9-139.1z"/>
			</g>
			<g>
				<g id="Groupe_245_00000033367320259505830350000007923114757938486688_" transform="translate(0 0)">
					<g id="Groupe_244_00000051345873127490181120000000541047534953716412_" transform="translate(191.253 247.742)">
						<path id="Tracé_993_00000055688613240567949180000006489539922320590765_" class="st1" d="M1.3-135.9
							c2.1-3.3,6.5-4.2,9.8-2.1l0.1,0.1l61.5,40.3c3.3,2.2,4.2,6.6,2.1,9.9c-2.2,3.3-6.6,4.2-9.9,2L3.3-126
							C0-128.2-0.9-132.6,1.3-135.9"/>
					</g>
				</g>
			</g>
			<g id="Groupe_246_00000008865586539559045660000006944262573305018280_" transform="translate(236.091 276.219)">
				<path id="Tracé_995_00000145762907791837245460000003158566341064562618_" class="st2" d="M7.9-139.1l4,2.6l-7.8,11.9l-4-2.6
					L7.9-139.1z"/>
			</g>
			<g>
				<g id="Groupe_249_00000142152274139093816750000017716184771494025380_" transform="translate(0 0)">
					<g id="Groupe_247_00000143593954230312489150000008956343333329611941_" transform="translate(179.478 204.933)">
						<path id="Tracé_996_00000057127954864899056100000009144291146309675449_" class="st2" d="M65.6-112.8
							c3.7,17.9-7.8,35.4-25.7,39.1C22.1-69.9,4.5-81.4,0.8-99.3c-3.7-17.9,7.8-35.4,25.7-39.1C44.4-142.1,61.9-130.7,65.6-112.8"/>
					</g>
					<g id="Groupe_248_00000101786872732457719080000004533648307484388239_" transform="translate(238.127 226.089)">
						<path id="Tracé_997_00000124851078821362498160000009382467396410952592_" class="st1" d="M1.3-135.9
							c2.1-3.3,6.5-4.2,9.8-2.1c0,0,0,0,0,0l0.1,0.1l38.7,25.3c3.3,2.2,4.2,6.6,2,9.8c-2.2,3.3-6.6,4.2-9.8,2L3.3-126
							C0.1-128.2-0.9-132.5,1.3-135.9C1.2-135.8,1.2-135.8,1.3-135.9L1.3-135.9"/>
					</g>
				</g>
			</g>
			<g id="Groupe_250_00000127030344053776602060000002371129489800977064_" transform="translate(275.794 249.842)">
				<path id="Tracé_999_00000052804760866666141530000015432715247324878518_" class="st2" d="M7.9-139.1l4,2.6l-7.8,11.9l-4-2.6
					L7.9-139.1z"/>
			</g>
			<g id="Groupe_251_00000104675625756485143470000001984095617415454140_" transform="translate(260.121 239.569)">
				<path id="Tracé_1000_00000105420648999618165630000016919503251781958587_" class="st2" d="M7.9-139.1l4,2.6l-7.8,11.9l-4-2.6
					L7.9-139.1z"/>
			</g>
			<g id="Groupe_252_00000109709707389551695770000007403839418970697365_" transform="translate(209.932 222.421)">
				<path id="Tracé_1001_00000150785825336656068940000002480736919121691822_" class="st1" d="M52.2-125.8L20.4-77.3L0.1-90.6
					l31.8-48.5L52.2-125.8z"/>
			</g>
			<g id="Groupe_253_00000157289592953673349120000016239602030517808529_" transform="translate(218.064 227.753)">
				<path id="Tracé_1002_00000073679968229038621710000013465370152225154745_" class="st2" d="M31.9-139.1l4,2.6L4.1-88l-4-2.6
					L31.9-139.1z"/>
			</g>
			<g id="Groupe_254_00000163763097670188953440000010564822021617855127_" transform="translate(218.064 227.753)">
				<path id="Tracé_1003_00000042013156726735006490000008989310845432274350_" class="st2" d="M31.9-139.1l4,2.6L4.1-88l-4-2.6
					L31.9-139.1z"/>
			</g>
			<g>
				<g id="Groupe_256_00000004528222328670057640000010129592699641851290_" transform="translate(0 0)">
					<g id="Groupe_255_00000051378031730949588890000012914111249653180601_" transform="translate(213.761 196.636)">
						<path id="Tracé_1004_00000067924740700451772820000017698458655766078592_" class="st1" d="M0.5-117
							c-1.5-4.7,1.1-9.7,5.8-11.2l0,0l32.9-10.5c4.7-1.5,9.7,1.1,11.2,5.8c1.5,4.7-1.1,9.7-5.8,11.2l-32.9,10.5
							C7-109.8,2-112.4,0.5-117L0.5-117"/>
					</g>
				</g>
			</g>
			<g id="Groupe_257_00000181801194808014430650000014965360109359107760_" transform="translate(245.192 197.778)">
				<path id="Tracé_1006_00000008122979931667349520000016728917382388602012_" class="st2" d="M0.1-137.3l5.7-1.8l5.4,17l-5.7,1.8
					L0.1-137.3z"/>
			</g>
			<g id="Groupe_258_00000178907787072152451840000016361426418089669257_" transform="translate(224.631 204.25)">
				<path id="Tracé_1007_00000147908839020811081220000013009274093443327628_" class="st2" d="M0.1-137.3l5.7-1.8l5.4,17l-5.7,1.8
					L0.1-137.3z"/>
			</g>
			<g id="Groupe_371_00000163779005435996607220000010594027052756179888_" transform="translate(251.957 286.192)">
				<path id="Tracé_991-2_00000141421741346302391310000001327554944769420972_" class="st2" d="M7.7-138.9l4,2.6l-7.7,12l-4-2.6
					L7.7-138.9z"/>
			</g>
			<g>
				<path class="st2" d="M11.8,54.2L0,58.6v17.9l16.9-12.8l0,0C14.8,60.8,13,57.6,11.8,54.2z"/>
				<path class="st2" d="M33.6,75.4l-6.3,22.7c6,1.7,12.2,2.2,18.4,1.6l-2.5-23.4C39.9,76.6,36.7,76.3,33.6,75.4z"/>
				<polygon class="st2" points="0,29.5 5.9,28.3 3,14.5 0,15.1 				"/>
				
					<rect x="72.1" y="69.2" transform="matrix(0.979 -0.2036 0.2036 0.979 -14.8346 17.8052)" class="st2" width="14.1" height="23.5"/>
				<path class="st2" d="M157.1,58.8l-1.9,23.4c4.1,0.3,8.1,0.9,12,1.9l5.6-22.8C167.7,60,162.4,59.2,157.1,58.8z"/>
				<path class="st2" d="M118.8,60.8l-1.2,0.2l-6.2,1.3l4.8,23l6.6-1.4c2-0.4,4.3-0.7,6.4-0.9l-2.8-23.4
					C123.9,59.9,121.4,60.3,118.8,60.8z"/>
			</g>
		</g>
	</g>
	<g id="TEXTES_GB">
	</g>
</g>
</svg>
