<?xml version="1.0" encoding="utf-8"?>
<!-- Generator: Adobe Illustrator 26.2.1, SVG Export Plug-In . SVG Version: 6.00 Build 0)  -->
<svg version="1.1" id="Calque_1" xmlns="http://www.w3.org/2000/svg" xmlns:xlink="http://www.w3.org/1999/xlink" x="0px" y="0px"
	 viewBox="0 0 278.4 398.3" style="enable-background:new 0 0 278.4 398.3;" xml:space="preserve">
<style type="text/css">
	.st0{fill:#FB657C;}
	.st1{fill:#272F60;}
	.st2{fill:#FFBCC6;}
	.st3{fill:#FFFFFF;}
</style>
<g id="TEXTES_FR">
</g>
<g>
	<g id="ILLUSTRATIONS">
		<path class="st0" d="M127.8,175.4c-4.1,0.1-7.4,3.5-7.4,7.6v65.8v0.8l0,1.1c0.6,12.2,10.1,22.1,22.3,23.1c0.7,0,1.5,0.1,2.2,0.1
			h102.9c4.1,0.2,7.5-3,7.6-7c0.2-4-3-7.5-7.1-7.6c-0.2,0-0.4,0-0.6,0H145c-0.4,0-0.6,0-0.9,0c-4.9-0.4-8.7-4.3-8.9-9.2l0-0.4v-0.7
			v-65.8C135.3,179,132,175.6,127.8,175.4L127.8,175.4z"/>
		<path class="st1" d="M135.2,197.3v7.6h-14.7v-7.6L135.2,197.3z M135.2,220.3v7.7h-14.7v-7.7H135.2z M135.2,243.3v6.2
			c0,0.1,0,0.2,0,0.3l0,0.5l-14.7,1.2l-0.1-1.4l0-0.7v-6.2H135.2z M139.5,257.7c1.2,0.8,2.6,1.3,4,1.5l-2,14.5
			c-3.6-0.5-7.1-1.8-10.2-3.9L139.5,257.7z M157.9,259.3h7.7V274h-7.7V259.3z M181.1,259.3h7.7V274h-7.7V259.3z M204.2,259.3h7.7
			V274h-7.7V259.3z M227.3,259.3h7.7V274h-7.7V259.3z"/>
		<path class="st2" d="M84.4,20.4h54.1c2.4,0,4.3,1.9,4.3,4.3v23c0,2.4-1.9,4.3-4.3,4.3H84.4c-2.4,0-4.3-1.9-4.3-4.3v-23
			C80.1,22.3,82,20.4,84.4,20.4z"/>
		<path class="st3" d="M108.1,27h6.8v18.3h-6.8V27z"/>
		<path class="st3" d="M102.3,39.5v-6.7h18.4v6.7H102.3z"/>
		<path class="st0" d="M77.2,176.2c-4.1,0-7.4-3.3-7.4-7.3l0,0v-68.3c0-4,3.3-7.3,7.4-7.3c4.1,0,7.4,3.3,7.4,7.3v68.3
			c0,4-3.2,7.3-7.2,7.3C77.3,176.2,77.2,176.2,77.2,176.2L77.2,176.2z"/>
		<path class="st1" d="M69.9,168.8v7.4h14.7v-7.4H69.9z M69.9,146.8v7.3h14.7v-7.3H69.9z M69.9,126v6h14.7v-6H69.9z"/>
		<path class="st1" d="M64.8,257.5h22.1v9H64.8V257.5z"/>
		<path class="st2" d="M25,206.7v-45.9h101.1c12.7,0,23,10.3,23,23s-10.3,22.9-23,22.9h-12l-10.3,10.3V243l-14.5,14.5H61.7L47.2,243
			v-26.1L37,206.8L25,206.7L25,206.7z"/>
		<path class="st3" d="M142.9,197h-6.1c-3.2,0-5.8-2.6-5.8-5.8v-12.8c0-1-0.4-2-1.1-2.7l-11.5-11.5l2.1-2l11.5,11.5
			c1.3,1.3,2,3,2.1,4.9v12.8c0,1.5,1.3,2.8,2.8,2.8h6.1c0.8,0,1.5,0.7,1.5,1.5C144.4,196.3,143.7,197,142.9,197L142.9,197z"/>
		<path class="st1" d="M64.5,224.6H44.2c-0.8,0-1.4-0.6-1.5-1.4c0,0,0,0,0,0c0-0.8,0.7-1.4,1.5-1.4h20.3c0.8,0,1.5,0.7,1.5,1.5
			C65.9,223.9,65.3,224.6,64.5,224.6z"/>
		<path class="st1" d="M105.8,224.6h-8.2c-0.8,0-1.4-0.6-1.5-1.4c0,0,0,0,0,0c0-0.8,0.7-1.4,1.5-1.4h8.2c0.8,0,1.4,0.6,1.5,1.4
			c0,0,0,0,0,0C107.2,223.9,106.5,224.6,105.8,224.6z"/>
		<path class="st1" d="M64.5,233.4H44.2c-0.8,0-1.5-0.6-1.5-1.4s0.6-1.5,1.5-1.5c0,0,0,0,0,0h20.3c0.8,0,1.5,0.7,1.5,1.5
			C65.9,232.7,65.3,233.4,64.5,233.4z"/>
		<path class="st1" d="M105.8,233.4h-8.2c-0.8,0-1.5-0.7-1.5-1.5c0-0.8,0.7-1.4,1.5-1.4h8.2c0.8,0,1.4,0.6,1.5,1.4c0,0,0,0,0,0
			C107.2,232.7,106.5,233.3,105.8,233.4z"/>
		<path class="st1" d="M64.5,242.1H44.2c-0.8,0-1.4-0.6-1.5-1.4c0,0,0,0,0,0c0-0.8,0.7-1.4,1.5-1.4h20.3c0.8,0,1.5,0.6,1.5,1.4
			C65.9,241.5,65.3,242.1,64.5,242.1C64.5,242.1,64.5,242.1,64.5,242.1L64.5,242.1z"/>
		<path class="st1" d="M105.8,242.1h-8.2c-0.8,0-1.4-0.6-1.5-1.4c0,0,0,0,0,0c0-0.8,0.7-1.4,1.5-1.4h8.2c0.8,0,1.4,0.6,1.5,1.4
			c0,0,0,0,0,0C107.2,241.5,106.5,242.1,105.8,242.1z"/>
		<ellipse class="st2" cx="25" cy="183.8" rx="23" ry="22.9"/>
		<ellipse class="st1" cx="24" cy="183.8" rx="13.3" ry="13.2"/>
		<path class="st1" d="M175.2,65.5v9.8l-5.4,48.2v9.4c0,3.3-2.7,6-6,6H98.2c-1.6,0-3.1-0.6-4.2-1.7l-8.3-8.3l-12-11.9
			c-0.8-0.8-1.8-1.3-2.8-1.5c-0.4-0.1-0.9-0.2-1.4-0.2H57.8c-3.3,0-6-2.7-6-6V57.5c0-3.3,2.7-6,6-6h103.4c1.6,0,3.1,0.6,4.2,1.7
			l8.1,8.1C174.6,62.5,175.2,64,175.2,65.5L175.2,65.5z"/>
		<path class="st2" d="M71.1,92.6c-5.4,0-9.8-4.4-9.8-9.8s4.4-9.8,9.8-9.8s9.8,4.4,9.8,9.8l0,0C80.9,88.2,76.5,92.6,71.1,92.6z
			 M71.1,76c-3.8,0-6.8,3.1-6.8,6.8c0,3.8,3.1,6.8,6.8,6.8s6.8-3.1,6.8-6.8C77.9,79.1,74.8,76,71.1,76z"/>
		<ellipse class="st2" cx="71.1" cy="82.8" rx="2.6" ry="2.6"/>
		<path class="st2" d="M88.2,84.4h-8.7c-0.8,0-1.5-0.6-1.5-1.4s0.7-1.4,1.5-1.4h8.7c0.8,0,1.5,0.6,1.5,1.4S89,84.4,88.2,84.4
			L88.2,84.4z"/>
		<path class="st2" d="M59.7,98h-5.8c-0.8,0-1.4-0.6-1.5-1.4c0,0,0,0,0,0c0-0.8,0.7-1.4,1.5-1.4h5.2l6.3-6.3
			c0.6-0.5,1.5-0.5,2.1,0.1c0.5,0.5,0.5,1.4,0,1.9l-6.8,6.7C60.4,97.8,60.1,98,59.7,98L59.7,98z"/>
		<path class="st0" d="M99.2,72.9V106l17.9,17.8h-10.3c-0.8,0-1.6-0.3-2.2-0.9l-16.1-16c-0.6-0.6-0.9-1.4-0.9-2.2V76
			c0-1.7,1.4-3.1,3.1-3.2c0,0,0,0,0,0C94.2,72.9,99.2,72.9,99.2,72.9L99.2,72.9z"/>
		<path class="st2" d="M179.3,72.9c1.9,0,3.5,1.5,3.5,3.4c0,0,0,0.1,0,0.1v28c0,0.9-0.4,1.8-1,2.5L166,122.7c-0.7,0.7-1.5,1-2.5,1
			h-48.1c-0.7,0-1.4-0.3-1.9-0.8l-15.7-15.7c-0.9-0.9-1.4-2-1.4-3.2V75.6c0-1.4,1.2-2.6,2.6-2.6c0,0,0,0,0,0H179.3z"/>
		<path class="st3" d="M106,104.5c-0.4-0.5-0.7-1.1-0.7-1.7v-20c0-1.3,1.1-2.4,2.4-2.4l0,0h64.9c1.3,0,2.4,1.1,2.4,2.4v0v20
			c0,0.6-0.3,1.2-0.7,1.7L163,115.7c-0.5,0.4-1.1,0.7-1.7,0.7H119c-0.6,0-1.3-0.2-1.7-0.7C114.9,113.5,108.2,106.7,106,104.5z"/>
		<path class="st1" d="M123.5,116.4h3v7.3h-3V116.4z"/>
		<path class="st1" d="M131.5,116.4h3v7.3h-3V116.4z"/>
		<path class="st0" d="M142.5,51.6h-11.3c0,0,7.9,7.9,11.6,11.6c1.2,1.2,2.9,1.9,4.6,2h4.7c0.7,0,1.2-0.4,1.5-1
			c0.2-0.6,0.1-1.3-0.3-1.8L142.5,51.6z"/>
		<path class="st0" d="M120.3,51.6H109c0,0,7.9,7.9,11.6,11.6c1.2,1.2,2.9,1.9,4.6,2h4.7c0.7,0,1.3-0.4,1.5-1
			c0.2-0.6,0.1-1.3-0.3-1.8C127.1,58.4,120.3,51.6,120.3,51.6L120.3,51.6z"/>
		<path class="st2" d="M43.8,266.5h62.8c2.4,0,4.3,1.6,4.3,3.7v124.4c0,2-1.9,3.7-4.3,3.7H43.8c-2.4,0-4.3-1.6-4.3-3.7V270.2
			C39.5,268.2,41.4,266.5,43.8,266.5z"/>
		<path class="st3" d="M76.2,398.3c-0.9,0-1.7-0.7-1.7-1.6V279.1c0-0.9,0.8-1.6,1.7-1.6s1.7,0.7,1.7,1.6v117.6
			C77.9,397.6,77.1,398.3,76.2,398.3C76.2,398.3,76.2,398.3,76.2,398.3z"/>
		<ellipse class="st3" cx="63.9" cy="289.8" rx="3.3" ry="3.3"/>
		<ellipse class="st3" cx="63.9" cy="351.4" rx="3.3" ry="3.3"/>
		<ellipse class="st3" cx="63.3" cy="373.4" rx="3.3" ry="3.3"/>
		<path class="st3" d="M93.9,360.2c-0.9,0-1.7-0.8-1.7-1.7v-36.5H77.9c-0.9,0-1.7-0.8-1.7-1.7s0.8-1.7,1.7-1.7h16
			c0.9,0,1.7,0.8,1.7,1.7v38.2C95.6,359.4,94.8,360.2,93.9,360.2z"/>
		<path class="st3" d="M63.7,197H41.2c-0.8,0-1.5-0.6-1.5-1.4c0-0.8,0.6-1.5,1.5-1.5c0,0,0,0,0,0h22.5c1.6,0,2.8-1.3,2.8-2.8v-12.8
			c0-1-0.4-2-1.1-2.7l-11.5-11.5l2.1-2l11.5,11.5c1.3,1.3,2,3,2.1,4.9v12.8C69.4,194.5,66.8,197,63.7,197L63.7,197z"/>
		<path class="st3" d="M52.8,183.8h28.4c1.9,0,3.4,1.5,3.4,3.4v14.1c0,1.9-1.5,3.4-3.4,3.4H52.8c-1.9,0-3.4-1.5-3.4-3.4v-14.1
			C49.3,185.3,50.9,183.8,52.8,183.8z"/>
		<path class="st0" d="M78.6,189.5H55.3c-0.5,0-0.9-0.4-0.9-0.9s0.4-0.9,0.9-0.9h23.3c0.5,0,0.9,0.4,0.9,0.9S79.1,189.5,78.6,189.5z
			"/>
		<path class="st0" d="M78.6,195.1H67.3c-0.5,0-0.9-0.4-0.9-0.9c0-0.5,0.4-0.9,0.9-0.9h11.3c0.5,0,0.9,0.4,0.9,0.9
			C79.4,194.7,79.1,195.1,78.6,195.1z"/>
		<path class="st0" d="M78.6,200.6H67.3c-0.5,0-0.9-0.4-0.9-0.9s0.4-0.9,0.9-0.9h11.3c0.5,0,0.9,0.4,0.9,0.9S79.1,200.6,78.6,200.6z
			"/>
		<path class="st0" d="M58.8,194.8c1.9,0,3.4,1.5,3.4,3.4v1.1c0,0.9-0.8,1.7-1.7,1.7h-3.3c-0.9,0-1.7-0.8-1.7-1.7v-1.1
			C55.4,196.3,56.9,194.8,58.8,194.8z"/>
		<ellipse class="st0" cx="58.8" cy="193.5" rx="2.3" ry="2.3"/>
		<ellipse class="st3" cx="116.3" cy="195" rx="3.3" ry="3.3"/>
		<ellipse class="st3" cx="99.9" cy="195" rx="3.3" ry="3.3"/>
		<path class="st1" d="M222,268.9l-41.3-67.2c-1.1-1.8-3.2-2.4-4.7-1.5l-6.1,3.7c-1.5,0.9-1.9,3.1-0.8,4.9l41.3,67.2
			c0.3,0.5,0.7,1,1.1,1.4c2.5-3.8,6.6-6.4,11.2-6.9C222.5,269.9,222.3,269.3,222,268.9L222,268.9z"/>
		<path class="st0" d="M222.7,270.4c-4.6,0.3-8.9,2.8-11.2,6.9c0.3,0.3,0.6,0.6,1,0.8l11,8.4c0.6,0.4,1.3,0.3,1.8-0.2
			c0.2-0.3,0.3-0.6,0.2-1l-2.5-13.6C222.9,271.2,222.8,270.8,222.7,270.4L222.7,270.4z"/>
		<path class="st0" d="M137,300.4h53.5l38.1-77.3h-58.8c-2.1,0-4,1.2-4.9,3l-32.7,66.5c-1.3,2.7-0.2,5.9,2.5,7.3
			C135.4,300.2,136.2,300.4,137,300.4z"/>
		<path class="st1" d="M185.6,300.4h54.7c2.1,0,4-1.2,4.9-3l32.7-66.5c1.3-2.7,0.2-5.9-2.5-7.3c-0.7-0.4-1.6-0.6-2.4-0.6h-49.4
			L185.6,300.4z"/>
		<path class="st3" d="M264,239.6h-34c-0.9,0-1.7-0.8-1.7-1.7s0.8-1.7,1.7-1.7h34c0.9,0,1.7,0.8,1.7,1.7S265,239.6,264,239.6z"/>
		<path class="st3" d="M257,251.5h-34c-0.9,0-1.7-0.8-1.7-1.7c0-0.9,0.8-1.7,1.7-1.7h34c0.9,0,1.7,0.8,1.7,1.7
			C258.7,250.7,257.9,251.5,257,251.5z"/>
		<path class="st3" d="M251.5,263.3h-34c-0.9,0-1.7-0.8-1.7-1.7s0.8-1.7,1.7-1.7h34c0.9,0,1.7,0.8,1.7,1.7S252.5,263.3,251.5,263.3
			L251.5,263.3z"/>
		<path class="st0" d="M151.3,270.2c0-4.1-3.4-7.4-7.5-7.3H49.5c-0.2,0-0.4,0-0.6,0l-0.5,0c-2.7-0.1-5.4-1-7.7-2.5
			c-2.4-1.6-4.5-3.7-6-6.2c-1.6-2.6-2.7-5.5-3.3-8.5l-0.3-2.3l-0.1-2.3v-53.8c0-4-3.3-7.3-7.4-7.3c-4.1,0-7.4,3.3-7.4,7.3
			c0,0,0,0,0,0V241l0.2,3.6c0.2,1.2,0.3,2.4,0.5,3.6c0.9,4.9,2.7,9.5,5.3,13.7c2.7,4.3,6.3,8,10.6,10.8c4.4,2.9,9.5,4.5,14.8,4.8
			l1,0.1c0.3,0,0.7,0,0.9,0h94.4C147.9,277.5,151.3,274.3,151.3,270.2L151.3,270.2z"/>
		<path class="st1" d="M130,277.5h-7.5v-14.7h7.5V277.5z M107.4,277.5h-7.6v-14.7h7.6V277.5z M84.8,277.5h-7.5v-14.7h7.5L84.8,277.5
			z M62.3,277.5h-7.5v-14.7h7.5V277.5z M37.2,275l-1.1-0.5l-1.1-0.6c-0.7-0.4-1.5-0.8-2.1-1.2l-2-1.4c-0.7-0.5-1.3-1-1.9-1.5
			l9.6-11.1c0.3,0.3,0.7,0.6,1,0.9l1.1,0.8c0.4,0.3,0.8,0.4,1.1,0.6l0.6,0.3l0.6,0.2L37.2,275L37.2,275z M18.5,254.4
			c-0.5-1.4-0.9-2.9-1.3-4.4c-0.2-0.7-0.4-1.5-0.5-2.2l-0.3-2.3l14.6-1.6l0.2,1.4c0.1,0.5,0.2,0.9,0.3,1.4c0.2,0.9,0.5,1.9,0.8,2.8
			L18.5,254.4z M16.2,229.7v-7.5h14.7v7.5H16.2z M16.2,207.2v-7.5h14.7v7.5H16.2z"/>
		<path class="st2" d="M150.9,259.8c-2.3-1.9-2.7-5.3-0.8-7.6c0,0,0,0,0,0l13.3-16.3c1.9-2.3,5.3-2.7,7.6-0.9
			c2.4,1.9,2.7,5.3,0.9,7.6c0,0-0.1,0.1-0.1,0.1L158.5,259C156.6,261.3,153.2,261.7,150.9,259.8L150.9,259.8z"/>
		<path class="st1" d="M160.3,239.7l2.3-2.8l8.4,6.8l-2.3,2.8L160.3,239.7z"/>
		<path class="st1" d="M152,249.9l2.3-2.8l8.4,6.8l-2.3,2.8L152,249.9z"/>
		<path class="st2" d="M150.1,269.3c0-2.4,1.9-4.3,4.3-4.3c0,0,0,0,0.1,0h45c2.4,0,4.3,1.9,4.3,4.3c0,2.4-1.9,4.3-4.3,4.3h-45
			C152.1,273.6,150.1,271.7,150.1,269.3L150.1,269.3z"/>
		<path class="st1" d="M196.3,265h2.9v8.7h-2.9V265z"/>
		<path class="st1" d="M184.9,265h2.9v8.7h-2.9V265z"/>
		<path class="st2" d="M150.1,282.6c0-2.4,1.9-4.3,4.3-4.3c0,0,0,0,0.1,0h45c2.4,0,4.4,1.9,4.4,4.3c0,2.4-1.9,4.4-4.3,4.4
			c0,0-0.1,0-0.1,0h-45C152.1,287,150.1,285,150.1,282.6L150.1,282.6z"/>
		<path class="st1" d="M196.3,278.3h2.9v8.7h-2.9V278.3z"/>
		<path class="st1" d="M184.9,278.3h2.9v8.7h-2.9V278.3z"/>
		<ellipse class="st1" cx="156.1" cy="269.3" rx="20.2" ry="20.2"/>
		<path class="st2" d="M166.8,255.9c0-2.4,1.9-4.3,4.3-4.3c0,0,0,0,0.1,0h28.2c2.4,0,4.3,1.9,4.3,4.3c0,2.4-1.9,4.3-4.3,4.3h-28.2
			C168.8,260.3,166.8,258.4,166.8,255.9C166.8,256,166.8,256,166.8,255.9z"/>
		<path class="st1" d="M196.3,251.6h2.9v8.7h-2.9V251.6z"/>
		<path class="st1" d="M184.9,251.6h2.9v8.7h-2.9V251.6z"/>
		<path class="st2" d="M180.6,251.6V287h-14.8v-35.4H180.6z"/>
		<path class="st1" d="M171.7,251.6h2.9V287h-2.9V251.6z"/>
		<path class="st1" d="M171.7,251.6h2.9V287h-2.9V251.6z"/>
		<path class="st1" d="M127.3,96.4h-2.1v-5.2h2.1c0.8,0,1.5-0.6,1.5-1.4c0-0.8-0.7-1.4-1.5-1.4l0,0h-10.4c-0.8,0-1.5,0.6-1.5,1.4
			c0,0.8,0.7,1.4,1.5,1.4h2.1v5.2h-2.1c-0.8,0-1.5,0.6-1.5,1.4s0.7,1.4,1.5,1.4h10.4c0.8,0,1.4-0.6,1.5-1.4c0,0,0,0,0,0
			c0-0.8-0.6-1.4-1.3-1.4C127.4,96.4,127.4,96.4,127.3,96.4L127.3,96.4z"/>
		<path class="st1" d="M168.1,96.4h-2.1v-5.2h2.1c0.8,0,1.5-0.6,1.5-1.4c0-0.8-0.7-1.4-1.5-1.4h-10.4c-0.8,0-1.5,0.6-1.5,1.4
			c0,0.8,0.7,1.4,1.5,1.4h2.1v5.2h-2.1c-0.8,0-1.5,0.6-1.5,1.4s0.7,1.4,1.5,1.4h10.4c0.8,0,1.4-0.6,1.5-1.4c0,0,0,0,0,0
			c0-0.8-0.6-1.4-1.3-1.4C168.2,96.4,168.2,96.4,168.1,96.4L168.1,96.4z"/>
		<path class="st1" d="M151.6,108.7h-18.7c-0.9,0-1.7-0.8-1.7-1.7s0.8-1.7,1.7-1.7h18.7c0.9,0,1.7,0.8,1.7,1.7
			S152.6,108.7,151.6,108.7z"/>
		<path class="st2" d="M185.2,7.7c0.3-3.3,0.5-5.8,0.5-5.8c0-1.1,0.8-1.9,1.9-1.9c1.1,0,1.9,0.8,1.9,1.9c0,0,0.4,2.6,0.5,5.8
			c0.7,0,1.2,0.1,1.7,0.1c2.4,0.1,4.1,0.4,4.1,0.4c1.1,0,1.9,0.8,1.9,1.9c0,1.1-0.8,1.9-1.9,1.9c0,0-1.7,0.3-4.1,0.4
			c-0.5,0-1.1,0.1-1.7,0.1c0,0.7-0.1,1.2-0.1,1.7c-0.1,2.4-0.4,4.1-0.4,4.1c0,1.1-0.8,1.9-1.9,1.9c-1.1,0-1.9-0.8-1.9-1.9
			c0,0-0.3-1.7-0.4-4.1c0-0.5-0.1-1.2-0.1-1.7c-3.2-0.3-5.8-0.5-5.8-0.5c-1.1,0-1.9-0.8-1.9-1.9c0-1.1,0.8-1.9,1.9-1.9
			C179.4,8.2,181.9,7.8,185.2,7.7L185.2,7.7z"/>
		<path class="st2" d="M188.9,349.8c0.3-3.3,0.5-5.8,0.5-5.8c0-1.1,0.8-1.9,1.9-1.9s1.9,0.8,1.9,1.9c0,0,0.4,2.6,0.5,5.8
			c0.7,0,1.2,0.1,1.7,0.1c2.4,0.1,4.1,0.4,4.1,0.4c1.1,0,1.9,0.8,1.9,1.9c0,1.1-0.8,1.9-1.9,1.9c0,0-1.7,0.3-4.1,0.4
			c-0.5,0-1.1,0.1-1.7,0.1c0,0.7-0.1,1.2-0.1,1.7c-0.1,2.4-0.4,4.1-0.4,4.1c0,1.1-0.8,1.9-1.9,1.9s-1.9-0.8-1.9-1.9
			c0,0-0.3-1.7-0.4-4.1c0-0.5-0.1-1.2-0.1-1.7c-3.2-0.3-5.8-0.5-5.8-0.5c-1.1,0-1.9-0.8-1.9-1.9c0-1.1,0.8-1.9,1.9-1.9
			C183.1,350.3,185.6,349.9,188.9,349.8L188.9,349.8z"/>
		<path class="st2" d="M11,375.4c0.2-2.1,0.3-3.6,0.3-3.6c0-0.7,0.5-1.2,1.2-1.2s1.2,0.5,1.2,1.2c0,0,0.2,1.7,0.3,3.6
			c0.4,0,0.7,0.1,1.1,0.1c1.5,0.1,2.6,0.2,2.6,0.2c0.7,0,1.2,0.5,1.2,1.2s-0.5,1.2-1.2,1.2c0,0-1.1,0.2-2.6,0.2
			c-0.3,0-0.7,0.1-1.1,0.1c0,0.4-0.1,0.7-0.1,1.1c-0.1,1.5-0.2,2.6-0.2,2.6c0,0.7-0.5,1.2-1.2,1.2c-0.7,0-1.2-0.5-1.2-1.2
			c0,0-0.2-1.1-0.2-2.6c0-0.3-0.1-0.7-0.1-1.1c-2-0.2-3.6-0.3-3.6-0.3c-0.7,0-1.2-0.5-1.2-1.2s0.5-1.2,1.2-1.2
			C7.3,375.7,8.9,375.5,11,375.4z"/>
		<path class="st2" d="M23.5,132.4c0.2-2.1,0.3-3.6,0.3-3.6c0-0.7,0.5-1.2,1.2-1.2c0.7,0,1.2,0.5,1.2,1.2c0,0,0.2,1.7,0.3,3.6
			c0.4,0,0.7,0.1,1.1,0.1c1.5,0.1,2.6,0.2,2.6,0.2c0.7,0,1.2,0.5,1.2,1.2c0,0.7-0.5,1.2-1.2,1.2c0,0-1.1,0.2-2.6,0.2
			c-0.3,0-0.7,0.1-1.1,0.1c0,0.4-0.1,0.7-0.1,1.1c-0.1,1.5-0.2,2.6-0.2,2.6c0,0.7-0.5,1.2-1.2,1.2c-0.7,0-1.2-0.5-1.2-1.2
			c0,0-0.2-1.1-0.2-2.6c0-0.3-0.1-0.7-0.1-1.1c-2-0.2-3.6-0.3-3.6-0.3c-0.7,0-1.2-0.5-1.2-1.2c0-0.7,0.5-1.2,1.2-1.2
			C19.9,132.8,21.5,132.5,23.5,132.4z"/>
		<path class="st2" d="M4.8,43.9c0.2-2.1,0.3-3.6,0.3-3.6c0-0.7,0.5-1.2,1.2-1.2s1.2,0.5,1.2,1.2c0,0,0.2,1.7,0.3,3.6
			c0.4,0,0.7,0.1,1.1,0.1c1.5,0.1,2.6,0.2,2.6,0.2c0.7,0,1.2,0.5,1.2,1.2s-0.5,1.2-1.2,1.2c0,0-1.1,0.2-2.6,0.2
			c-0.3,0-0.7,0.1-1.1,0.1c0,0.4-0.1,0.7-0.1,1.1c-0.1,1.5-0.2,2.6-0.2,2.6c0,0.7-0.5,1.2-1.2,1.2c-0.7,0-1.2-0.5-1.2-1.2
			c0,0-0.2-1.1-0.2-2.6c0-0.3-0.1-0.7-0.1-1.1c-2-0.2-3.6-0.3-3.6-0.3C0.5,46.5,0,46,0,45.3s0.5-1.2,1.2-1.2
			C1.2,44.2,2.7,43.9,4.8,43.9z"/>
		<path class="st2" d="M261.4,17.5c0.2-2.1,0.3-3.6,0.3-3.6c0-0.7,0.5-1.2,1.2-1.2c0.7,0,1.2,0.5,1.2,1.2c0,0,0.2,1.7,0.3,3.6
			c0.4,0,0.7,0.1,1.1,0.1c1.5,0.1,2.6,0.2,2.6,0.2c0.7,0,1.2,0.5,1.2,1.2c0,0.7-0.5,1.2-1.2,1.2c0,0-1.1,0.2-2.6,0.2
			c-0.3,0-0.7,0.1-1.1,0.1c0,0.4-0.1,0.7-0.1,1.1c-0.1,1.5-0.2,2.6-0.2,2.6c0,0.7-0.5,1.2-1.2,1.2c-0.7,0-1.2-0.5-1.2-1.2
			c0,0-0.2-1.1-0.2-2.6c0-0.3-0.1-0.7-0.1-1.1c-2-0.2-3.6-0.3-3.6-0.3c-0.7,0-1.2-0.5-1.2-1.2c0-0.7,0.5-1.2,1.2-1.2
			C257.8,17.8,259.3,17.6,261.4,17.5z"/>
		<path class="st2" d="M196.9,171c0.2-2.1,0.3-3.6,0.3-3.6c0-0.7,0.5-1.2,1.2-1.2c0.7,0,1.2,0.5,1.2,1.2c0,0,0.2,1.7,0.3,3.6
			c0.4,0,0.7,0.1,1.1,0.1c1.5,0.1,2.6,0.2,2.6,0.2c0.7,0,1.2,0.5,1.2,1.2s-0.5,1.2-1.2,1.2c0,0-1.1,0.2-2.6,0.2
			c-0.3,0-0.7,0.1-1.1,0.1c0,0.4-0.1,0.7-0.1,1.1c-0.1,1.5-0.2,2.6-0.2,2.6c0,0.7-0.5,1.2-1.2,1.2c-0.7,0-1.2-0.5-1.2-1.2
			c0,0-0.2-1.1-0.2-2.6c0-0.3-0.1-0.7-0.1-1.1c-2-0.2-3.6-0.3-3.6-0.3c-0.7,0-1.2-0.5-1.2-1.2s0.5-1.2,1.2-1.2
			C193.3,171.3,194.9,171.1,196.9,171z"/>
	</g>
	<g id="TEXTES_GB">
	</g>
</g>
</svg>
