<?xml version="1.0" encoding="utf-8"?>
<!-- Generator: Adobe Illustrator 26.2.1, SVG Export Plug-In . SVG Version: 6.00 Build 0)  -->
<svg version="1.1" id="Calque_1" xmlns="http://www.w3.org/2000/svg" xmlns:xlink="http://www.w3.org/1999/xlink" x="0px" y="0px"
	 viewBox="0 0 372 333.4" style="enable-background:new 0 0 372 333.4;" xml:space="preserve">
<style type="text/css">
	.st0{fill:#FB657C;}
	.st1{fill:#FFBCC6;}
	.st2{fill:#FFFFFF;}
	.st3{fill:#272F60;}
</style>
<g id="ILLUSTRATIONS">
	<path class="st0" d="M214.4,333.4h41.8c0.5,0,0.9-0.1,1.4-0.3c0,0,0.1,0,0.1-0.1l13-8.8c1.7-1.2,2.8-3.2,2.8-5.3v-56.1
		c0-1.9-1.5-3.4-3.4-3.4h-39.8c-1.2,0-2.3,0.3-3.3,1l-13,8.5c-0.1,0-0.2,0.1-0.2,0.1c-1.1,0.1-2,1-2,2.1v59.6
		C211.9,332.3,213,333.4,214.4,333.4z"/>
	<path class="st1" d="M246.3,333.4h8.4c1,0,1.9-0.9,1.9-1.9V271c0-1.1-0.9-1.9-1.9-1.9h-8.4c-1,0-1.9,0.9-1.9,1.9v60.5
		C244.4,332.6,245.2,333.4,246.3,333.4z"/>
	<path class="st0" d="M230,333.4h8.4c1,0,1.9-0.9,1.9-1.9V271c0-1.1-0.9-1.9-1.9-1.9H230c-1,0-1.9,0.9-1.9,1.9v60.5
		C228.1,332.6,229,333.4,230,333.4z"/>
	<path class="st0" d="M213.8,333.4h8.4c1,0,1.9-0.9,1.9-1.9V271c0-1.1-0.9-1.9-1.9-1.9h-8.4c-1,0-1.9,0.9-1.9,1.9v60.5
		C211.9,332.6,212.7,333.4,213.8,333.4z"/>
	<path class="st1" d="M269.9,86.9c0,7.9-6.4,14.3-14.4,14.3H178c-7.6,0-14.1-6.1-14.1-13.9l0,0c0-7.5-6.1-13.9-14.1-13.9
		c-10.5,0-24.9,0-35.7,0c-4,0-7.6-1.4-10.1-4.3c-2.9-2.8-4.3-6.4-4.3-10v-8.9c0-3.9,1.4-7.5,4.3-10c2.9-2.8,6.5-4.3,10.1-4.3
		s7.6,0,11.2,0c4,0,7.6-1.4,10.1-4.3c2.5-2.8,4.3-6.4,4.3-10c0-2.5,0-5,0-7.5c0-3.9,1.4-7.5,4.3-10C147,1.4,150.6,0,154.2,0h101
		c7.9,0,14.4,6.3,14.4,14.2L269.9,86.9z"/>
	<path class="st1" d="M232.5,213.1c-10,0-17.4-8.1-17.4-17.4c0-38,0-126.4,0-169.4c0-6.9,2.5-13.1,7.5-17.4c5-5,11.2-7.5,17.4-7.5
		c13.7,0,30.5,0,44.2,0s24.9,11.2,24.9,24.9v11.2c0,6.9,2.5,13.1,7.5,17.4c5,5,11.2,7.5,17.4,7.5c4.4,0,8.7,0,13.1,0
		c6.9,0,13.1,2.5,17.4,7.5c5,5,7.5,11.2,7.5,17.4c0,34.9,0,97.2,0,131.4c0,6.9-2.5,13.1-7.5,17.4c-5,5-11.2,7.5-17.4,7.5
		c-7.5,0-14.9,0-22.4,0c-13.7,0-24.9,11.2-24.9,24.9c0,0.6,0,1.2,0,1.9c0,13.7-11.2,24.9-24.9,24.9l0,0c-13.7,0-24.9-11.2-24.9-24.9
		c0-13.1,0-28.6,0-39.9C250.5,220.6,242.4,213.1,232.5,213.1L232.5,213.1L232.5,213.1z"/>
	<path class="st2" d="M190.9,52.5c1.2,1,2.8,1.2,4.2,0.7c1.4-0.6,2.4-1.9,2.5-3.4c0.1-0.9,0.2-1.8,0.2-2.7c0.1-1.3,0.8-2.4,1.8-3.1
		c1-0.7,2.4-0.8,3.6-0.4c2.2,0.8,4.8,1.8,6.7,2.5c1.7,0.6,3.6,0,4.7-1.4c2.7-3.7,7.9-10.8,11.2-15.4c0.7-1,1.9-1.6,3.1-1.7
		c1.2,0,2.4,0.5,3.2,1.4c1.8,2.1,3.9,4.6,5.4,6.3c1,1.2,2.6,1.7,4.1,1.3c2.2-0.5,5.5-1.3,7.9-1.9c1.7-0.4,3.6,0.3,4.5,1.9
		c1.7,2.8,4.2,7.2,5.7,9.7c0.8,1.3,2.1,2,3.5,2c3.7,0,11.1-0.1,15.6-0.1c2.2,0,4,1.7,4.1,3.9c0.3,5.9,1,17,1.2,21.4
		c0.1,1.2,0.6,2.2,1.5,3c3.4,2.7,12.1,9.6,16.8,13.3c1.7,1.4,2.1,3.8,0.8,5.6c-2.6,3.7-6.9,9.7-9.1,12.7c-0.8,1.2-1,2.7-0.4,4.1
		c1.2,2.7,3.3,7.3,4.6,10.2c0.7,1.6,0.3,3.6-1,4.7c-1.8,1.6-4.3,3.8-6.1,5.4c-1.2,1-1.6,2.6-1.3,4.1c0.6,2.1,1.4,5.3,2.1,8
		c0.3,1.2,0,2.5-0.7,3.5c-0.7,1-1.9,1.6-3.2,1.6c-5.6,0.1-14.4,0.2-19,0.3c-1.8,0-3.4,1.3-3.9,3c-0.5,2-1.2,4.6-1.8,6.9
		c-0.3,1.2-1.2,2.2-2.4,2.7c-1.2,0.5-2.5,0.4-3.6-0.2c-0.7-0.4-1.5-0.9-2.3-1.4c-1.3-0.8-3-0.7-4.2,0.1c-1.3,0.8-2,2.3-1.9,3.8
		c0.1,0.7,0.1,1.3,0.2,1.9c0.1,1-0.2,2.1-0.8,2.9c-2.2,2.7-7.2,9.2-9.7,12.3c-0.8,1.1-1.1,2.5-0.7,3.8c0.7,2.2,1.7,5.4,2.4,7.6
		c0.4,1.2,0.2,2.6-0.6,3.7c-0.7,1-1.7,2.3-2.7,3.7c-0.4,0.5-1.1,0.7-1.7,0.5c-0.6-0.2-0.9-0.9-0.8-1.5c0.1-0.3,0.1-0.7,0.2-0.9
		c0.2-1,0-2.1-0.5-2.9c-1.6-2.7-5.4-8.7-7.3-11.8c-0.7-1.2-0.8-2.6-0.2-3.8c1.4-3.1,4.1-9.1,5.3-11.8c0.4-0.8,0.5-1.8,0.3-2.7
		c-0.3-1-0.6-2.3-0.9-3.6c-0.3-1-1-1.9-2-2.2s-2.1-0.1-2.9,0.5l0,0c-0.7,0.5-1.7,0.5-2.2-0.2c-2.8-3.1-10.5-11.8-13.1-14.7
		c-0.6-0.6-1.3-1.1-2.1-1.3c-2-0.5-6.2-1.4-9-2.1c-1.7-0.4-3-1.9-3.1-3.6c-0.4-4.2-1.1-11.9-1.4-15.2c-0.1-1-0.6-2-1.4-2.7
		c-2.6-2.2-8.4-7.2-11.6-9.9c-1.3-1.1-1.8-3-1.2-4.6c1.1-2.7,2.7-6.6,3.4-8.5c0.3-0.8,0.4-1.7,0.2-2.4c-0.9-3.8-3.5-15.1-4.5-19.2
		c-0.2-0.8,0.3-1.7,1.1-1.9l0,0c1-0.3,1.8-1.1,2.1-2.1c0.3-1,0-2.1-0.6-2.9c-0.9-1-1.8-2.1-2.4-2.8c-0.6-0.7-1.4-1.2-2.3-1.3
		c-2.8-0.5-9.3-1.8-12.7-2.4c-1.3-0.3-2.5-1.2-3-2.4c-1.4-3.3-4.2-9.8-5.5-12.7c-0.4-0.9-1.1-1.7-2.1-2.1c-0.3-0.1-0.6-0.2-0.9-0.4
		c-0.6-0.2-0.9-0.9-0.8-1.5c0.1-0.6,0.7-1.1,1.3-1.1c1.7,0,3.3-0.1,4.6-0.1c1.3,0,2.5,0.6,3.3,1.6c1.4,1.7,3.4,4.5,4.8,6.3
		c0.8,1.1,2.1,1.7,3.5,1.6c3.9-0.2,12.1-0.7,15.6-0.9c1.1-0.1,2.1,0.3,2.8,1C189.8,51.6,190.4,52,190.9,52.5L190.9,52.5z"/>
	<path class="st2" d="M184.9,43.3c-0.2,0.1-0.5,0.2-0.8,0.2c-0.5,0.1-1,0.3-1.6,0.4c-2.3,0.6-4.9,1-4.9,1c-0.5,0.2-1-0.1-1.1-0.5
		c-0.2-0.5,0.1-1,0.5-1.1c0,0,2.3-1.3,4.4-2.4c0.5-0.3,1-0.5,1.5-0.7c0.9-0.4,1.6-0.6,1.6-0.6c0.6-0.2,1.1-0.1,1.6,0.3
		c0,0,1,0.8,2.1,1.9c1.4,1.3,3,3,3,3c0.4,0.3,0.5,0.8,0.2,1.2s-0.8,0.5-1.2,0.2c0,0-2-1-3.8-2C185.9,43.9,185.3,43.6,184.9,43.3
		L184.9,43.3z"/>
	<path class="st2" d="M267.1,166c0.2-0.6,0.6-1.3,0.9-2.1c1-2.2,2.2-4.6,2.2-4.6c0.2-0.5,0.7-0.7,1.1-0.6c0.5,0.2,0.7,0.7,0.6,1.1
		c0,0-0.4,2.7-0.9,5c-0.4,1.8-0.9,3.2-0.9,3.2c-0.2,0.6-0.7,1.1-1.3,1.2c0,0-0.6,0.1-1.5,0.3c-0.7,0.1-1.4,0.2-2.3,0.3
		c-2.6,0.3-5.7,0.4-5.7,0.4c-0.5,0.1-1-0.2-1.1-0.7s0.2-1,0.7-1.1c0,0,2.8-1,5.4-1.8c0.8-0.2,1.6-0.5,2.2-0.6
		C266.8,166.1,267,166,267.1,166L267.1,166z"/>
	<path class="st2" d="M309.2,95.3c-0.2-0.6-0.4-1.2-0.6-2c-0.7-2.4-1.4-5.1-1.4-5.1c-0.2-0.6,0-1.2,0.6-1.5c0.6-0.2,1.2,0,1.5,0.6
		c0,0,1.5,2.4,2.7,4.5c0.9,1.6,1.7,3.1,1.7,3.1c0.3,0.7,0.2,1.5-0.3,2.2c0,0-0.6,0.9-1.5,2.1c-0.5,0.6-1.1,1.3-1.7,1.9
		c-2.5,2.7-5.5,5.6-5.5,5.6c-0.4,0.5-1.1,0.6-1.5,0.2c-0.5-0.4-0.6-1.1-0.2-1.5c0,0,2-3.7,4-6.7c0.5-0.8,1-1.5,1.4-2.1
		C308.6,96,308.9,95.6,309.2,95.3L309.2,95.3z"/>
	<path class="st2" d="M264,32.9c1.3,0.1,3,0.2,4.7,0.3c3.5,0.3,6.9,0.7,6.9,0.7c0.4,0,0.8,0.3,0.8,0.7c0,0.4-0.3,0.8-0.7,0.8
		c0,0-3.3,0.8-6.8,1.5c-3.4,0.7-6.8,1.3-6.8,1.3c-1.2,0.1-2.2-0.6-2.7-1.6c0,0-1.4-2.3-2.5-4.8c-0.6-1.3-1.1-2.7-1.4-3.6
		c-1.1-0.2-2.4-0.5-3.8-0.8c-4.1-0.9-8.6-2.2-8.6-2.2c-0.4,0-0.8-0.4-0.7-0.8c0-0.4,0.4-0.8,0.8-0.7c0,0,4.6-0.5,8.8-0.7
		c3.1-0.2,5.8-0.2,5.8-0.2c1.1,0.1,2,0.8,2.4,1.7c0,0,1.3,2.4,2.4,4.8C263.2,30.6,263.7,31.9,264,32.9L264,32.9z"/>
	<path class="st2" d="M222.8,167.6l0.4-3.6c0-0.4,0.2-0.7,0.6-0.8c0.4,0,0.7,0.2,0.8,0.6l1.6,4.7c0.1,0.6-0.2,1.3-0.7,1.6
		c0,0-0.9,1.1-2.3,2.5c-0.5,0.5-1,1-1.6,1.5c-0.6,0.5-1.2,0.9-1.7,1.4c-1,0.6-1.8,1.1-2.3,1.4c-0.1,0.5-0.3,1-0.4,1.6
		c-0.6,2.1-1.4,4.4-1.4,4.4c0,0.4-0.4,0.6-0.7,0.6c-0.4,0-0.6-0.4-0.6-0.7c0,0-0.4-2.4-0.7-4.6c-0.2-1.6-0.3-3-0.3-3
		c0.1-0.6,0.4-1.2,0.9-1.6c0,0,1-1.1,2.4-2.3c0.5-0.5,1.1-0.9,1.8-1.3c0.6-0.4,1.3-0.8,1.9-1.2C221.4,168.3,222.3,167.9,222.8,167.6
		L222.8,167.6z"/>
	<path class="st2" d="M250.6,195.1c0,0,0.3-0.3,0.5-1.4c0.1-0.2,0.1-0.3,0.1-0.5c0-0.1,0-0.2,0-0.3c0-0.1-0.1-0.1-0.2-0.2
		c-0.2-0.1-0.2-0.2-0.4-0.3c-1-0.5-1.3-0.6-1.3-0.6c-0.1-0.2-0.4-0.3-0.6-0.2c-0.2,0.1-0.3,0.4-0.2,0.6c0,0-0.2,0.3-0.4,1.4
		c-0.1,0.2-0.1,0.3-0.1,0.5c0,0.1,0,0.2,0,0.3c0,0.1,0.1,0.2,0.2,0.2c0.1,0.1,0.3,0.2,0.4,0.3c1,0.6,1.4,0.5,1.4,0.5
		c0.1,0.2,0.4,0.3,0.6,0.2C250.6,195.6,250.7,195.3,250.6,195.1z"/>
	<path class="st2" d="M209.8,199.7c0,0,0.1-0.6,0.2-1.5c0-0.5,0.1-0.9,0-1.5c0-0.3-0.1-0.6-0.2-0.9c-0.2-1.1-0.5-2-0.5-2
		c-0.1-0.7-0.7-1.3-1.4-1.2c-0.7,0.1-1.3,0.7-1.2,1.4c0,0-0.2,0.9-0.2,2.1c0,0.3,0,0.6,0,0.9c0.1,0.5,0.2,1,0.3,1.4
		c0.2,0.8,0.4,1.4,0.4,1.4c0.1,0.7,0.7,1.3,1.4,1.2C209.3,201.1,209.8,200.4,209.8,199.7L209.8,199.7z"/>
	<path class="st2" d="M158.7,69.9c0,0-0.3-0.6-0.8-1.3c-0.2-0.4-0.6-0.8-0.9-1.2c-0.2-0.2-0.5-0.4-0.7-0.6c-0.9-0.7-1.7-1.2-1.7-1.2
		c-0.5-0.5-1.3-0.6-1.9,0c-0.5,0.5-0.6,1.3,0,1.9c0,0,0.5,0.8,1.2,1.7c0.2,0.2,0.3,0.5,0.5,0.7c0.3,0.4,0.7,0.7,1.1,1
		c0.7,0.5,1.2,0.9,1.2,0.9c0.5,0.5,1.3,0.6,1.9,0C159.2,71.2,159.2,70.4,158.7,69.9L158.7,69.9z"/>
	<path class="st2" d="M175,85.7c0,0-0.1-0.3-0.3-0.7c-0.1-0.2-0.2-0.4-0.4-0.6c-0.1-0.1-0.2-0.2-0.3-0.3c-0.6-0.3-1-0.5-1-0.5
		c-0.5-0.5-1.3-0.6-1.9,0c-0.5,0.5-0.6,1.3,0,1.9c0,0,0.1,0.4,0.4,1c0.1,0.1,0.1,0.3,0.2,0.4c0.2,0.2,0.4,0.3,0.6,0.4
		c0.4,0.2,0.7,0.3,0.7,0.3c0.5,0.5,1.3,0.6,1.9,0C175.4,87.1,175.4,86.2,175,85.7L175,85.7z"/>
	<path class="st2" d="M182.8,31.4c0,0-0.3-0.7-1.1-1.6c-0.3-0.3-0.5-0.6-0.9-0.8c-0.4-0.2-0.8-0.2-1.2-0.3c-1.2-0.2-2-0.1-2-0.1
		c-0.5-0.3-1.2-0.1-1.5,0.4s-0.1,1.2,0.4,1.5c0,0,0.3,0.7,1.1,1.6c0.3,0.3,0.5,0.6,0.9,0.8s0.8,0.3,1.1,0.4c1.2,0.2,1.9,0.1,1.9,0.1
		c0.5,0.3,1.2,0.1,1.5-0.4C183.5,32.4,183.3,31.7,182.8,31.4z"/>
	<path class="st2" d="M239.8,15.7c0,0-0.6-0.1-1.5-0.2c-0.5,0-1,0-1.5,0c-0.3,0-0.6,0.1-0.9,0.2c-1.1,0.3-2,0.6-2,0.6
		c-0.7,0.1-1.3,0.7-1.2,1.4s0.7,1.3,1.4,1.2c0,0,0.9,0.2,2.1,0.2c0.3,0,0.6,0.1,0.9,0c0.5-0.1,1-0.2,1.4-0.3
		c0.8-0.2,1.4-0.4,1.4-0.4c0.7-0.1,1.3-0.7,1.2-1.4C241.1,16.1,240.5,15.6,239.8,15.7L239.8,15.7z"/>
	<path class="st2" d="M304.6,120c0,0,0.5-0.3,1.2-0.9c0.4-0.3,0.7-0.6,1.1-1c0.2-0.2,0.4-0.4,0.5-0.7c0.7-0.9,1.1-1.8,1.1-1.8
		c0.5-0.5,0.4-1.4-0.1-1.8c-0.5-0.5-1.4-0.4-1.8,0.1c0,0-0.8,0.5-1.6,1.3c-0.2,0.2-0.4,0.4-0.6,0.6c-0.3,0.4-0.6,0.8-0.9,1.2
		c-0.5,0.7-0.7,1.3-0.7,1.3c-0.5,0.5-0.4,1.4,0.1,1.8C303.3,120.6,304.1,120.5,304.6,120z"/>
	<path class="st2" d="M220.2,188c0,0,0.1-0.3,0.2-0.7c0-0.2,0.1-0.5,0.1-0.7c0-0.1,0-0.3-0.1-0.5c-0.1-0.6-0.4-1-0.4-1
		c0-0.5-0.5-0.9-1.1-0.9c-0.5,0-0.9,0.5-0.9,1.1c0,0-0.1,0.5-0.2,1.1c0,0.2,0,0.3,0,0.5c0,0.2,0.1,0.5,0.2,0.7
		c0.1,0.4,0.3,0.7,0.3,0.7c0,0.5,0.5,0.9,1.1,0.9C219.9,189,220.3,188.5,220.2,188L220.2,188z"/>
	<path class="st2" d="M169.1,76c0,0,0.1,0.3,0.4,0.6c0.1,0.2,0.3,0.4,0.5,0.5c0.1,0.1,0.2,0.2,0.4,0.3c0.5,0.3,1,0.4,1,0.4
		c0.4,0.3,1.1,0.3,1.4-0.1c0.3-0.4,0.3-1.1-0.1-1.4c0,0-0.2-0.4-0.6-0.9c-0.1-0.1-0.2-0.3-0.3-0.3c-0.2-0.2-0.4-0.3-0.6-0.4
		c-0.4-0.2-0.7-0.3-0.7-0.3c-0.4-0.3-1.1-0.3-1.4,0.1C168.6,75,168.7,75.6,169.1,76z"/>
	<path class="st2" d="M144.2,64.7c0,0,0.1,0.3,0.4,0.6c0.1,0.2,0.3,0.4,0.5,0.5c0.1,0.1,0.2,0.2,0.4,0.3c0.5,0.3,1,0.4,1,0.4
		c0.4,0.3,1.1,0.3,1.4-0.1c0.3-0.4,0.3-1.1-0.1-1.4c0,0-0.2-0.4-0.6-0.9c-0.1-0.1-0.2-0.3-0.3-0.3c-0.2-0.2-0.4-0.3-0.6-0.4
		c-0.4-0.2-0.7-0.3-0.7-0.3c-0.4-0.3-1.1-0.3-1.4,0.1C143.7,63.7,143.8,64.3,144.2,64.7L144.2,64.7z"/>
	<path class="st2" d="M277.5,162.1c0,0,0.3-0.1,0.6-0.4c0.2-0.1,0.4-0.3,0.5-0.5c0.1-0.1,0.2-0.2,0.2-0.4c0.3-0.5,0.4-1,0.4-1
		c0.3-0.4,0.3-1-0.2-1.4c-0.4-0.3-1-0.3-1.4,0.2c0,0-0.4,0.2-0.9,0.6c-0.1,0.1-0.2,0.2-0.3,0.3c-0.1,0.2-0.3,0.4-0.4,0.6
		c-0.2,0.4-0.3,0.7-0.3,0.7c-0.3,0.4-0.3,1,0.2,1.4C276.6,162.6,277.2,162.5,277.5,162.1L277.5,162.1z"/>
	<path class="st2" d="M302.7,130c0,0,0.3,0,0.8-0.1c0.2-0.1,0.5-0.1,0.7-0.2c0.1-0.1,0.3-0.1,0.4-0.2c0.5-0.4,0.8-0.7,0.8-0.7
		c0.5-0.2,0.7-0.8,0.5-1.3c-0.2-0.5-0.8-0.7-1.3-0.5c0,0-0.5,0-1.1,0.2c-0.1,0-0.3,0-0.4,0.1c-0.2,0.1-0.5,0.3-0.6,0.4
		c-0.4,0.3-0.6,0.5-0.6,0.5c-0.5,0.2-0.7,0.8-0.5,1.3C301.7,130.1,302.3,130.3,302.7,130L302.7,130z"/>
	<path class="st2" d="M212,161.1c0,0,0.1-0.3,0.1-0.8c0-0.2,0.1-0.5,0-0.8c0-0.1-0.1-0.3-0.1-0.4c-0.2-0.6-0.4-1-0.4-1
		c-0.1-0.6-0.6-0.9-1.1-0.9c-0.6,0.1-0.9,0.6-0.9,1.1c0,0-0.1,0.5-0.2,1c0,0.2,0,0.3,0,0.5c0,0.3,0.1,0.5,0.2,0.7
		c0.2,0.4,0.3,0.7,0.3,0.7c0.1,0.6,0.6,0.9,1.1,0.9C211.7,162.1,212.1,161.6,212,161.1L212,161.1z"/>
	<path class="st3" d="M226.7,333.4h41.8c0.5,0,0.9-0.1,1.4-0.3c0,0,0.1,0,0.1-0.1l13-8.8c1.7-1.2,2.8-3.2,2.8-5.3v-56.1
		c0-1.9-1.5-3.4-3.4-3.4h-39.8c-1.2,0-2.3,0.3-3.3,1l-13,8.5c-0.1,0-0.2,0.1-0.2,0.1c-1.1,0.1-2,1-2,2.1v59.6
		C224.1,332.3,225.3,333.4,226.7,333.4z"/>
	<path class="st1" d="M258.5,333.4h8.4c1,0,1.9-0.9,1.9-1.9V271c0-1.1-0.9-1.9-1.9-1.9h-8.4c-1,0-1.9,0.9-1.9,1.9v60.5
		C256.6,332.6,257.5,333.4,258.5,333.4z"/>
	<path class="st2" d="M242.3,333.4h8.4c1,0,1.9-0.9,1.9-1.9V271c0-1.1-0.9-1.9-1.9-1.9h-8.4c-1,0-1.9,0.9-1.9,1.9v60.5
		C240.4,332.6,241.2,333.4,242.3,333.4z"/>
	<path class="st0" d="M226,333.4h8.4c1,0,1.9-0.9,1.9-1.9V271c0-1.1-0.9-1.9-1.9-1.9H226c-1,0-1.9,0.9-1.9,1.9v60.5
		C224.1,332.6,225,333.4,226,333.4z"/>
	<path class="st1" d="M108.5,286.8L42,289.1c-2.6,0-4.7,2.1-4.7,4.8l-11.7,6.2c0,2.6,2.1,4.8,4.7,4.8h65.4c1.3,0,2.4-0.6,3.3-1.4
		c1.1-0.9,4.6-3.6,7.9-6.5C109.1,295.2,108.8,295.1,108.5,286.8z"/>
	<path class="st3" d="M26.5,295.7c-1,0.6-1.5,1.2-0.9,3c0.5,1.6,2.6,2.3,4.3,2.3h62.7c2.1,0,2.7-3.1,4.5-3.9c1-0.5,7.9-5.5,10.4-7.6
		c1.4-1.2,1.9-5.5-3.5-5.6H44.2C42.2,284,30.1,293.5,26.5,295.7z"/>
	<path class="st0" d="M97.2,297.2H25.4v3.1c0,2.6,0.1,4.6,2.7,4.6h67.7c1.3,0,2.5-0.5,3.3-1.4C97.8,303.9,97.2,301.4,97.2,297.2z"/>
	<path class="st0" d="M124.1,275.6l-66.4,2.3c-2.6,0-4.7,2.1-4.7,4.8l-11.7,6.2c0,2.6,2.1,4.8,4.7,4.8h65.4c1.3,0,2.4-0.6,3.3-1.4
		c1.1-0.9,4.6-3.6,7.9-6.5C124.7,284,124.4,283.9,124.1,275.6z"/>
	<path class="st3" d="M42.1,284.5c-1,0.6-1.5,1.2-0.9,3c0.5,1.6,2.6,2.3,4.3,2.3h62.7c2.1,0,2.7-3.1,4.5-3.9c1-0.5,7.9-5.5,10.4-7.6
		c1.4-1.2,1.9-5.5-3.5-5.6H59.8C57.8,272.8,45.7,282.3,42.1,284.5z"/>
	<path class="st2" d="M112.8,285.9H41v3.1c0,2.6,0.1,4.6,2.7,4.6h67.7c1.3,0,2.5-0.5,3.3-1.4C113.4,292.7,112.8,290.2,112.8,285.9z"
		/>
	<path class="st1" d="M96.2,264l-66.4,2.3c-2.6,0-4.7,2.1-4.7,4.8l-11.7,6.2c0,2.6,2.1,4.8,4.7,4.8h65.4c1.3,0,2.4-0.6,3.3-1.4
		c1.1-0.9,4.6-3.6,7.9-6.5C96.9,272.4,96.6,272.3,96.2,264z"/>
	<path class="st3" d="M14.3,273c-1,0.6-1.5,1.2-0.9,3c0.5,1.6,2.6,2.3,4.3,2.3h62.7c2.1,0,2.7-3.1,4.5-3.9c1-0.5,7.9-5.5,10.4-7.6
		c1.4-1.2,1.9-5.5-3.5-5.6H32C30,261.2,17.9,270.7,14.3,273z"/>
	<path class="st0" d="M85,274.4H13.2v3.1c0,2.6,0.1,4.6,2.7,4.6h67.7c1.3,0,2.5-0.5,3.3-1.4C85.5,281.1,85,278.6,85,274.4z"/>
	<path class="st1" d="M109.4,251.7L43,254c-2.6,0-4.7,2.1-4.7,4.8L26.5,265c0,2.6,2.1,4.8,4.7,4.8h65.4c1.3,0,2.4-0.6,3.3-1.4
		c1.1-0.9,4.6-3.6,7.9-6.5C110.1,260,109.7,259.9,109.4,251.7z"/>
	<path class="st3" d="M27.5,260.6c-1,0.6-1.5,1.2-0.9,3c0.5,1.6,2.6,2.3,4.3,2.3h62.7c2.1,0,2.7-3.1,4.5-3.9c1-0.5,7.9-5.5,10.4-7.6
		c1.4-1.2,1.9-5.5-3.5-5.6H45.2C43.1,248.8,31,258.4,27.5,260.6z"/>
	<path class="st2" d="M98.1,262H26.3v3.1c0,2.6,0.1,4.6,2.7,4.6h67.7c1.3,0,2.5-0.5,3.3-1.4C98.7,268.8,98.1,266.3,98.1,262z"/>
	<path class="st0" d="M96.5,239.7L30,242c-2.6,0-4.7,2.1-4.7,4.8l-11.7,6.2c0,2.6,2.1,4.8,4.7,4.8h65.4c1.3,0,2.4-0.6,3.3-1.4
		c1.1-0.9,4.6-3.6,7.9-6.5C97.1,248,96.8,247.9,96.5,239.7z"/>
	<path class="st3" d="M14.5,248.6c-1,0.6-1.5,1.2-0.9,3c0.5,1.6,2.6,2.3,4.3,2.3h62.7c2.1,0,2.7-3.1,4.5-3.9c1-0.5,7.9-5.5,10.4-7.6
		c1.4-1.2,1.9-5.5-3.5-5.6H32.2C30.2,236.8,18.1,246.4,14.5,248.6z"/>
	<path class="st1" d="M85.2,250H13.4v3.1c0,2.6,0.1,4.6,2.7,4.6h67.7c1.3,0,2.5-0.5,3.3-1.4C85.7,256.8,85.2,254.3,85.2,250z"/>
	<path class="st3" d="M274.5,222.9c-2.4,0-4.8-0.2-7.4-0.6c-14.7-2.4-23.9-12.8-28.5-19.7c-1.7-2.5-0.8-6,1.9-7.4l17-8.7
		c1.7-0.9,3.8-0.4,4.9,1.2c1.9,2.6,4.6,4.6,6,3.7c1.2-0.8,1.2-1.9,0.4-3.6c-1-2.2-3.2-6.5-7.3-11.5c-4.2-5.1-9.3-9.5-15.2-13.1
		l14.5-24c8.5,5.2,16.1,11.6,22.3,19.1c4.7,5.7,8.6,11.9,11.3,18c4.1,9.4,11.1,25,1.6,37.2C291.3,219.7,283.8,222.9,274.5,222.9z"/>
	<path class="st0" d="M149.8,174.1c0.3,0.1,0.6,0.1,0.8-0.1c3.9-3.5,4-10.2,3.6-13.9c-0.4-3.5-1.3-9-4.1-9.5c-2.1-0.4-3,0.9-3.2,4.5
		c0,0.8-1.1,1.1-1.5,0.4c-3-5.5-8.9-17.7-14.5-16.5c-3.9,0.9-7.2,10.3-7.1,15.2c0.1,5.1,6.8,11.7,10.7,15.5c0.1,0.1,4.7,4.3,4.8,4.4
		L149.8,174.1z"/>
	<path class="st3" d="M237.7,134c0,0-30.7-3.1-47.5,21.9c-7.6,11.3-7.7,22-14.6,22.3c-4.1,0.2-9.4-4.3-16.2-12
		c-1.5-1.7-5.3-6.8-9.3-4.3c-3.4,2.1-8.6,6-11.8,9c-3.5,3.4-1.7,6.2,0,9.2c1.7,3,14.7,27.9,38.1,27.7c20.9-0.2,26.9-15.6,33-23.9
		C215.8,174.7,249,148.6,237.7,134z"/>
	<path class="st1" d="M200.5,182.1c-2.4-0.1-5.2-1.5-7.7-3.7c-2.5-2.1-4.3-4.8-4.9-7.1c-0.4-1.9-1.6-4.1-2.8-6
		c-1.3,2.9-2.3,5.5-3.4,7.6c0.9,3.6,3.4,7.4,6.9,10.3c3.6,3.1,7.8,4.9,11.5,5.2c1.5,0.1,3.2,0.7,4.9,1.6c0,0,0,0,0,0
		c0.3-0.4,0.6-0.9,0.8-1.3c0.6-0.9,1.2-1.9,1.8-2.7c0,0,0-0.1,0.1-0.1c0.3-0.4,0.5-0.8,0.8-1.2C205.9,183.2,203.1,182.3,200.5,182.1
		z"/>
	<path class="st1" d="M198.3,198.8C198.3,198.8,198.3,198.8,198.3,198.8c-1.8-0.9-3.7-1.5-5.5-1.7c-2.6-0.3-5.7-1.9-8.4-4.3
		s-4.5-5.4-5-8c-0.4-2.2-1.5-4.5-3.1-6.7c-0.3,0.1-0.7,0.1-1,0.1c0,0,0,0,0,0c-0.1,0-0.1,0-0.2,0c-1.4,0-2.9-0.5-4.6-1.5
		c0.2,0.4,0.5,0.7,0.8,1.1c2.4,2.7,3.8,5,4.3,7.6c0.6,3.4,2.9,7.2,6.1,10.2c3.3,3,7.2,5,10.6,5.3c0.9,0.1,1.8,0.3,2.7,0.7l0,0l0,0
		c0.5-0.4,1-0.8,1.5-1.3c0.1-0.1,0.1-0.1,0.2-0.2c0,0,0,0,0,0C197.4,199.7,197.9,199.3,198.3,198.8z"/>
	<path class="st3" d="M218.5,315.5c0,0-12.8-2.2-21.2,0c-6.3,1.7-9.8,7.2-11.6,11.6c-0.5,1.3-0.4,2.7,0.4,4c0.8,1.2,2.1,1.9,3.4,1.9
		c6.9,0,18.4,0,24.6,0c2.3,0,4.2-1.9,4.2-4.3C218.5,323.5,218.5,315.5,218.5,315.5L218.5,315.5z"/>
	<path class="st3" d="M180.6,315.5c0,0-12.8-2.2-21.2,0c-6.3,1.7-9.8,7.2-11.6,11.6c-0.5,1.3-0.4,2.7,0.4,4c0.8,1.2,2.1,1.9,3.4,1.9
		c6.9,0,18.4,0,24.6,0c2.3,0,4.2-1.9,4.2-4.3C180.6,323.5,180.6,315.5,180.6,315.5L180.6,315.5z"/>
	<path class="st1" d="M216.2,265.2c0,0-7.5,0-23.3,1.6c-5.2,0.5-7,3.2-8.8,6.6c-0.7,1.2-2,5.2-2.3,10.2c-0.6,10.4-0.3,24.6-0.2,31.1
		c0,1.9-1.5,3.4-3.3,3.4l-20.1-0.2c-1.8,0-3.2-1.4-3.2-3.2c-0.2-5.5-0.6-17.9,1-41c2.9-40.5,55.6-37.3,55.6-37.3h35.4L216.2,265.2z"
		/>
	<path class="st1" d="M230.9,235v3.3c-14.4,3.4-34.6,12-36.2,35.3c-1.6,23.3-1.2,35.6-1,41.1c0.1,1.8,1.5,3.2,3.2,3.2l20.1,0.2
		c1.9,0,3.4-1.5,3.3-3.4c-0.1-6.4-0.4-20.7,0.2-31.1c0.3-5,1.6-9,2.3-10.2c1.8-3.3,3.6-6,8.6-6.5c1.6-0.1,3.3-0.3,4.9-0.4
		c0.8-0.1,1.8-0.1,3-0.2c14.9-0.9,26.6-13.3,26.6-28.3v-9.9C266,227.9,249.7,230.7,230.9,235z"/>
	<path class="st3" d="M219,240.7c0,0-0.2,0.1-0.7,0.2c-0.2,0.1-0.5,0.1-0.8,0.2c-0.3,0.1-0.6,0.2-1,0.4c-1.5,0.6-3.7,1.4-6.1,2.7
		c-2.5,1.3-5.2,3.1-7.6,5.4c-0.3,0.3-0.7,0.7-1,1c-0.3,0.4-0.6,0.7-1,1.1c-0.6,0.8-1.2,1.5-1.7,2.3c-2,3.1-3.1,6.2-3.7,8.5
		c-0.1,0.6-0.3,1.1-0.4,1.5c-0.1,0.5-0.2,0.9-0.2,1.2c-0.1,0.6-0.2,1-0.2,1c-0.2,1.2,0.1,2.2,0.7,2.3c0.6,0.1,1.3-0.8,1.5-1.8
		c0,0,0.1-0.3,0.2-0.9c0.1-0.3,0.2-0.7,0.3-1.1c0.1-0.4,0.3-0.9,0.5-1.4c0.7-2.1,1.9-4.9,3.7-7.5c0.5-0.7,1-1.3,1.6-2
		c0.3-0.3,0.6-0.6,0.9-1c0.3-0.3,0.6-0.7,0.9-1c2.1-2.1,4.5-3.8,6.8-5.1c2.1-1.3,4.1-2.2,5.6-2.8c0.4-0.2,0.7-0.3,1-0.4
		c0.3-0.1,0.5-0.2,0.7-0.3c0.4-0.2,0.6-0.2,0.6-0.2c1.1-0.4,1.8-1.2,1.6-1.8C221.2,240.5,220.1,240.3,219,240.7z"/>
	<path class="st3" d="M229.4,227c0,0,0.5,3,2.3,6.4c1,1.8,2.2,3.6,4,5.2c0.9,0.8,2,1.5,3.2,2.2c2.4,1.2,5.3,1.9,9.1,1.6
		c0.6-0.1,1.3,0.4,1.3,1.1c0.1,0.6-0.4,1.3-1.1,1.3c-4.3,0.6-7.8,0-10.7-1.2c-1.5-0.7-2.9-1.5-4-2.6c-2.1-1.9-3.6-4.1-4.5-6.3
		c-1.7-3.9-2-7.4-2-7.4c-0.1-0.6,0.4-1.3,1-1.3C228.7,225.8,229.2,226.3,229.4,227z"/>
	<path class="st3" d="M255.3,242.6l-0.1,1.2c-0.1,0.4-0.2,0.8-0.2,1.2c-0.1,0.7,0.3,1.3,1,1.5c0.7,0.2,1.4-0.3,1.5-1
		c0.1-0.4,0.2-0.9,0.2-1.3l0.1-1.3c0.1-0.7-0.4-1.4-1.2-1.4C256,241.4,255.4,241.9,255.3,242.6z"/>
	<path class="st3" d="M253.5,249.5c-0.4,0.7-0.7,1.4-1.2,2c-0.2,0.3-0.2,0.6-0.2,0.9c0,0.3,0.2,0.6,0.4,0.9c0.3,0.2,0.6,0.4,1,0.3
		c0.3,0,0.7-0.2,0.9-0.5c0.6-0.7,1-1.6,1.5-2.4c0.3-0.7,0-1.5-0.7-1.7C254.5,248.7,253.8,249,253.5,249.5z"/>
	<path class="st3" d="M249,254.6c-0.3,0.2-0.7,0.4-1,0.6l-0.5,0.3l-0.5,0.2c-0.3,0.1-0.5,0.4-0.6,0.7c-0.1,0.3-0.2,0.6,0,1
		c0.1,0.3,0.4,0.6,0.7,0.7c0.3,0.1,0.7,0.1,1,0l0.6-0.3l0.6-0.3c0.4-0.2,0.8-0.4,1.2-0.7c0.7-0.4,0.8-1.2,0.4-1.8
		C250.3,254.5,249.5,254.3,249,254.6z"/>
	<path class="st3" d="M242.2,257.1c-0.8,0.2-1.6,0.3-2.4,0.5c-0.7,0.1-1.2,0.8-1,1.5c0.1,0.7,0.8,1.2,1.5,1.1
		c0.9-0.2,1.7-0.3,2.6-0.5c0.7-0.2,1.1-0.8,1-1.6C243.6,257.4,242.9,256.9,242.2,257.1z"/>
	<path class="st3" d="M234.8,258.3c-0.8,0.1-1.7,0.3-2.5,0.4c-0.7,0.1-1.2,0.8-1,1.5c0.2,0.7,0.8,1.1,1.5,1c0.8-0.2,1.6-0.3,2.5-0.4
		c0.7-0.1,1.2-0.8,1.1-1.5C236.1,258.7,235.5,258.2,234.8,258.3z"/>
	<path class="st3" d="M227.1,260c-0.4,0.1-0.8,0.3-1.3,0.4c-0.4,0.2-0.8,0.3-1.2,0.5c-0.7,0.3-1,1.1-0.6,1.7s1.1,0.9,1.7,0.6
		c0.3-0.2,0.7-0.3,1.1-0.5c0.4-0.2,0.7-0.3,1.1-0.4c0.6-0.2,1-0.9,0.8-1.6C228.5,260.2,227.8,259.8,227.1,260z"/>
	<path class="st3" d="M220,263.9c-0.3,0.3-0.7,0.6-1,1l-0.9,1.1c-0.3,0.3-0.3,0.7-0.3,1c0.1,0.3,0.2,0.6,0.5,0.8
		c0.3,0.2,0.6,0.3,1,0.2c0.3,0,0.6-0.2,0.8-0.4l0.8-0.9l0.9-0.8c0.2-0.2,0.4-0.5,0.4-0.8c0-0.3-0.1-0.7-0.3-0.9
		c-0.2-0.3-0.5-0.5-0.9-0.5C220.6,263.6,220.3,263.7,220,263.9z"/>
	<path class="st3" d="M215.4,270.7c-0.2,0.5-0.3,0.9-0.4,1.3c-0.1,0.4-0.2,0.9-0.3,1.3c-0.1,0.7,0.3,1.4,1,1.5
		c0.7,0.1,1.4-0.3,1.5-1c0.1-0.4,0.2-0.8,0.3-1.2c0.1-0.4,0.2-0.8,0.3-1.1c0.1-0.3,0.1-0.6-0.1-0.9c-0.1-0.3-0.3-0.6-0.7-0.7
		c-0.3-0.2-0.7-0.2-1-0.1C215.8,270,215.5,270.3,215.4,270.7z"/>
	<path class="st3" d="M213.9,278.5c-0.1,0.9-0.2,1.7-0.3,2.6c-0.1,0.7,0.5,1.3,1.2,1.4c0.7,0.1,1.3-0.5,1.4-1.2
		c0.1-0.8,0.2-1.7,0.3-2.5c0.1-0.7-0.4-1.3-1.1-1.4C214.6,277.3,214,277.8,213.9,278.5z"/>
	<path class="st3" d="M213.2,286.2l-0.1,2.6c0,0.7,0.5,1.3,1.2,1.3c0.7,0,1.3-0.5,1.3-1.2l0.1-2.5c0-0.7-0.5-1.3-1.2-1.4
		C213.9,285,213.3,285.5,213.2,286.2z"/>
	<path class="st3" d="M212.9,293.9l-0.1,2.6c0,0.7,0.6,1.3,1.3,1.3c0.7,0,1.3-0.5,1.3-1.3l0.1-2.5c0-0.7-0.5-1.3-1.3-1.3
		C213.5,292.7,212.9,293.2,212.9,293.9z"/>
	<path class="st3" d="M212.8,301.6l0,2.6c0,0.7,0.6,1.3,1.3,1.3c0.7,0,1.3-0.6,1.3-1.3l0-2.5c0-0.7-0.6-1.3-1.3-1.3
		C213.4,300.3,212.8,300.9,212.8,301.6z"/>
	<path class="st3" d="M212.8,309.3l0.1,2.6c0,0.7,0.6,1.3,1.3,1.2c0.7,0,1.3-0.6,1.3-1.3l-0.1-2.5c0-0.7-0.6-1.3-1.3-1.2
		C213.4,308,212.8,308.6,212.8,309.3z"/>
	<path class="st3" d="M190,259.9c-0.9,0.2-1.8,0.5-2.6,0.9c-0.7,0.3-1,1.1-0.7,1.7c0.3,0.7,1.1,0.9,1.7,0.7c0.7-0.3,1.5-0.6,2.3-0.8
		c0.6-0.2,1.1-0.8,1-1.5C191.4,260.1,190.7,259.7,190,259.9z"/>
	<path class="st3" d="M182.5,263.5c-0.4,0.3-0.7,0.6-1.1,0.9c-0.4,0.3-0.7,0.6-1.1,1c-0.6,0.6-0.5,1.5,0.1,1.9
		c0.6,0.4,1.3,0.4,1.8-0.1c0.5-0.5,1.2-1.1,1.8-1.6c0.5-0.4,0.7-1.2,0.3-1.8C184,263.2,183.1,263,182.5,263.5z"/>
	<path class="st3" d="M177.3,270c-0.4,0.8-0.7,1.7-1,2.6c-0.3,0.7,0.2,1.5,0.8,1.7c0.7,0.2,1.4-0.2,1.6-0.8c0.3-0.8,0.6-1.6,0.9-2.3
		c0.3-0.6,0-1.4-0.6-1.7C178.4,269,177.6,269.3,177.3,270z"/>
	<path class="st3" d="M175,277.8c-0.2,0.9-0.3,1.8-0.4,2.6c-0.1,0.7,0.4,1.4,1.1,1.5c0.7,0.1,1.3-0.4,1.5-1.1
		c0.1-0.8,0.3-1.7,0.4-2.5c0.1-0.7-0.3-1.4-1-1.5C175.8,276.6,175.1,277.1,175,277.8z"/>
	<path class="st3" d="M174,285.8c-0.1,0.9-0.1,1.8-0.2,2.6c0,0.7,0.5,1.3,1.2,1.4c0.7,0,1.3-0.5,1.3-1.2c0-0.9,0.1-1.7,0.2-2.6
		c0-0.7-0.5-1.3-1.2-1.4C174.7,284.5,174.1,285,174,285.8z"/>
	<path class="st3" d="M173.7,293.7l0,2.6c0,0.7,0.6,1.3,1.3,1.3c0.7,0,1.3-0.6,1.3-1.3l0-2.6c0-0.7-0.6-1.3-1.3-1.3
		C174.3,292.4,173.7,292.9,173.7,293.7z"/>
	<path class="st3" d="M173.8,301.6l0.1,2.6c0,0.7,0.6,1.3,1.3,1.3c0.7,0,1.3-0.6,1.2-1.3l-0.1-2.6c0-0.7-0.6-1.3-1.3-1.3
		C174.3,300.2,173.8,300.8,173.8,301.6z"/>
	<path class="st3" d="M174.1,309.4l0.1,2.6c0,0.7,0.6,1.3,1.3,1.3c0.7,0,1.3-0.6,1.3-1.3l-0.1-2.6c0-0.7-0.6-1.3-1.3-1.3
		S174,308.7,174.1,309.4z"/>
	<path class="st3" d="M300.8,199.2c0,7.6-6.2,13.8-13.7,13.8c-5.5,0-10.2-3.2-12.4-7.8c0,0,0,0,0,0c-0.3-1-0.6-2-1-3
		c-0.5-1.3-1-2.6-1.7-4c-1.4-3-2.8-5.9-4.1-8.6c0.2,13.8,0.1,30.8,0.1,41.9c0,2.2-1,4.9-4,5.1c-32.1,1.8-54.1,2.1-65,1.1
		c-2.2-0.2-3.8-2.3-4-4.8c-2.2-30.5-1.4-59-1.4-59c1.4-18,3.1-28,15.9-34c10.8-5.1,21.1-6.7,32.5-5.7c35.9,3.1,50.2,38.6,50.7,39.7
		c3.5,6.8,6.2,13.8,7.8,22.7h0C300.7,197.3,300.8,198.2,300.8,199.2z"/>
	<path class="st2" d="M194.6,201.1c0,0,0-3.9,0.2-9.2c0.1-2.8,0.3-6,0.6-9.1c0.1-1.8,0.3-3.7,0.5-5.5c0.4-3.5,0.9-6.6,1.3-8.9
		c0.4-2.3,0.7-3.7,0.7-3.7c0.3-1.2,0.1-2.2-0.3-2.3c-0.5-0.2-1.1,0.8-1.3,1.9c0,0-0.4,1.4-0.9,3.7c-0.5,2.3-1.2,5.5-1.7,9
		c-0.3,1.8-0.5,3.6-0.6,5.6c-0.3,3.2-0.4,6.4-0.4,9.2c-0.1,5.3,0.2,9.3,0.2,9.3c0,1.3,0.4,2.1,0.9,2.2
		C194.3,203.3,194.7,202.2,194.6,201.1z"/>
	<path class="st1" d="M293.3,174.1c-1-0.1-2.5,0-3.6,0c-4.7,0.1-9.1,1.4-12.1,3.7c-1.9,1.5-4.9,2.3-8.2,2.3c-2.9,0-5.6-0.6-7.5-1.6
		c0,0,0,0,0,0c-0.9-0.7-1.9-1.2-3.1-1.7l6.3,9.8c0.9,0.2,1.7,0.3,2.6,0.4c5,0.3,10.8-1.9,13.8-4.2c1.9-1.4,4.9-2.3,8.2-2.3
		c2.4,0,5,0.3,6.8,1C295.6,178.9,294.6,176.5,293.3,174.1z"/>
	<path class="st2" d="M268.9,191c0,0-1-2.2-2.4-5.2c-0.8-1.5-1.7-3.3-2.7-5.1c-0.6-1-1.2-2-1.9-2.9c-1.3-1.8-2.6-3.4-3.5-4.5
		c-1-1.1-1.6-1.8-1.6-1.8c-0.5-0.6-1.2-0.8-1.5-0.5c-0.4,0.3-0.2,1,0.2,1.6c0,0,0.6,0.7,1.4,1.8c0.9,1.1,2,2.7,3.1,4.5
		c0.6,0.9,1.1,1.9,1.8,2.9c1,1.7,1.9,3.4,2.8,4.9c1.6,2.8,2.7,5,2.7,5c0.3,0.7,0.9,1,1.3,0.8C269.1,192.4,269.2,191.6,268.9,191z"/>
	<path class="st2" d="M138.1,138.9l59.6,52.7c1.7,1.9-23.2-11.1-25.1-9.4l28.5,31.4c-1.9,1.7-4.7,1.6-6.4-0.3L152.4,167
		c-0.8-0.9-1.2-2.1-1.2-3.2c0-1.2-18.9-24.5-18.9-24.5c-0.4-0.4-0.3-1.1,0.2-1.4C134.3,137,136.6,137.3,138.1,138.9z"/>
	<path class="st1" d="M236.6,181.3l-32.8,30.1c-1.8,1.6-4.5,1.5-6.2-0.3l-40.6-44.4c-1.6-1.8-1.5-4.5,0.3-6.2l32.8-30.1
		c1.8-1.6,4.5-1.5,6.2,0.3l40.6,44.4C238.5,176.9,238.4,179.7,236.6,181.3z"/>
	<path class="st0" d="M156.9,161l46.5,50.9l-2.2,2c-1.8,1.7-4.6,1.5-6.2-0.3L152.4,167c-0.8-0.9-1.2-2.1-1.2-3.2
		C151.7,165,153.9,163.8,156.9,161z"/>
	<path class="st3" d="M219.5,195.1c-0.4,0-0.8-0.2-1.1-0.5c-0.5-0.6-0.5-1.5,0.1-2l4.4-4.1l-7.3-7.9c-0.5-0.6-0.5-1.5,0.1-2
		c0.6-0.5,1.5-0.5,2,0.1l8.3,9c0.5,0.6,0.5,1.5-0.1,2l-5.5,5.1C220.2,194.9,219.9,195.1,219.5,195.1z"/>
	<g>
		<path class="st3" d="M182.4,155.4c-1,0-1.8,0.8-1.8,1.8c0,1,0.8,1.8,1.8,1.8s1.8-0.8,1.8-1.8C184.2,156.2,183.4,155.4,182.4,155.4
			z"/>
		<ellipse class="st3" cx="197.4" cy="182.6" rx="1.8" ry="1.8"/>
		<path class="st3" d="M204,188.3c-0.5-0.6-1.4-0.6-2-0.1c-0.6,0.5-0.6,1.5-0.1,2l3.7,4l-3.3,3l-12.6-13.8c-0.5-0.6-1.4-0.6-2-0.1
			c-0.6,0.5-0.6,1.5-0.1,2l13.6,14.8c0.3,0.3,0.7,0.5,1.1,0.5c0.3,0,0.7-0.1,1-0.4l4.4-4l3.5,3.8c0.3,0.3,0.7,0.5,1.1,0.5
			c0.3,0,0.7-0.1,1-0.4c0.6-0.5,0.6-1.5,0.1-2L204,188.3z"/>
		<path class="st3" d="M220.4,192.4l-15.6-17l11.6-10.7c0.3-0.3,0.4-0.6,0.5-1c0-0.4-0.1-0.8-0.4-1l-6.5-7.1c-0.5-0.6-1.4-0.6-2-0.1
			c-0.6,0.5-0.6,1.5-0.1,2l5.6,6.1l-10.5,9.7l-11.1-12.1l2-1.9c0.3-0.3,0.4-0.6,0.5-1c0-0.4-0.1-0.8-0.4-1l-3.6-3.9l4.3-4
			c0.3-0.3,0.4-0.6,0.5-1c0-0.4-0.1-0.8-0.4-1l-3.5-3.8l5.4-5c0.6-0.5,0.6-1.5,0.1-2c-0.5-0.6-1.4-0.6-2-0.1l-6.5,6
			c-0.3,0.3-0.4,0.6-0.5,1c0,0.4,0.1,0.8,0.4,1l3.5,3.8l-3.3,3l-7.1-7.7c-0.5-0.6-1.4-0.6-2-0.1c-0.6,0.5-0.6,1.5-0.1,2l1.5,1.6
			l-9.1,8.4c-0.3,0.3-0.4,0.6-0.5,1c0,0.4,0.1,0.8,0.4,1l6.8,7.4l-7.5,6.9c-0.6,0.5-0.6,1.5-0.1,2c0.3,0.3,0.7,0.5,1.1,0.5
			c0.3,0,0.7-0.1,1-0.4l7.5-6.9l1,1.1c0.3,0.3,0.7,0.5,1.1,0.5c0.3,0,0.7-0.1,1-0.4c0.6-0.5,0.6-1.5,0.1-2l-2-2.2c0,0,0,0,0,0
			s0,0,0,0l-6.8-7.4l8.1-7.5l4.6,5c0,0,0,0,0,0c0,0,0,0,0,0l3.6,3.9l-2,1.9c-0.3,0.3-0.4,0.6-0.5,1c0,0.4,0.1,0.8,0.4,1l29.7,32.3
			c0.3,0.3,0.7,0.5,1.1,0.5c0.3,0,0.7-0.1,1-0.4C220.9,193.9,220.9,193,220.4,192.4z"/>
	</g>
	<path class="st0" d="M252.3,189.6c0.3-0.1,0.5-0.4,0.5-0.7c0.2-5.2-4.6-10-7.4-12.2c-2.8-2.2-8.2-6.4-10.6-4.8
		c-1.7,1.2-0.5,3.9,1.9,6.5c0.6,0.6,0,1.6-0.8,1.4c-6-1.7-16.7-6.6-20.2-3.1c-4.2,4.2,5.2,15.5,10.4,17.2c8.5,2.8,11.5-1.3,16.9-1.5
		c0.1,0,1.9,4.8,2,4.7L252.3,189.6z"/>
	<path class="st3" d="M267.6,193.1l-13.9,24.2c-7.4-5.9-12-12.6-13.1-14c-2-2.7-4.2-5.3-1.1-9.1c2.8-3.4,7.6-7.9,10.7-10.3
		c3.7-2.9,8.1,1.7,9.8,3.2C262.8,189.5,265.3,191.5,267.6,193.1z"/>
	<path class="st2" d="M266.6,220.4c0,0-0.9-0.4-2.3-1.1c-1.5-0.7-3.5-1.7-5.7-3c-2.4-1.4-5-3.1-7.4-5c-1.4-1.1-2.8-2.3-4.2-3.5
		c-2.6-2.3-4.8-4.6-6.2-6.3c-0.4-0.4-0.7-0.9-1-1.2c-0.2-0.3-0.4-0.6-0.6-0.9c-0.3-0.5-0.3-0.7-0.3-0.7c-0.1-0.5-0.3-0.8-0.4-1.1
		c-0.2-0.3-0.3-0.6-0.6-0.7c-0.3-0.1-0.7,0-1,0.5c-0.3,0.5-0.4,1.3-0.2,1.9c0,0,0.1,0.5,0.4,1.2c0.2,0.4,0.4,0.8,0.7,1.2
		c0.3,0.5,0.6,0.9,1,1.3c1.4,1.9,3.6,4.4,6.2,6.9c1.3,1.3,2.7,2.5,4.3,3.7c2.6,2.1,5.4,3.7,7.9,5.1c2.4,1.3,4.5,2.2,6.1,2.9
		c1.6,0.6,2.5,1,2.5,1c1.2,0.5,2.2,0.3,2.5-0.2C268.4,221.6,267.6,220.7,266.6,220.4z"/>
	<path class="st3" d="M229.2,67.5c-3.8,1.8-8.2,1-11.2-1.8c-3.1-3-7.3-4.9-12-4.9c-9.5,0-16.8,7.8-16.8,17.3s7.3,18.6,16.8,18.6
		c2.9,0,5.6-0.7,8-2c-0.2,1.1-0.2,2.2-0.2,3.3c0,14.6,11.8,26.4,26.2,26.4c14.5,0,26.2-11.8,26.2-26.4c0-10.5-2.8-24.7-14.5-25.7
		c-1.2-0.1-2.3-0.6-3.2-1.5c-3.1-3.1-7.4-5.1-12.2-5.1C233.9,65.8,231.4,66.4,229.2,67.5L229.2,67.5z"/>
	<path class="st2" d="M219.8,67c0.3,0.3,0.6,0.7,1,1c0.4,0.4,0.8,0.9,1.2,1.4c0.8,1.1,1.6,2.3,2.2,3.7c0.1,0.3,0.5,0.5,0.8,0.3
		c0.3-0.1,0.5-0.5,0.3-0.8c-0.5-1.6-1.3-3-2.1-4.2c-0.1-0.1-0.2-0.2-0.2-0.3C221.9,68,220.8,67.6,219.8,67L219.8,67z M215.9,63.9
		c0,0.1,0.1,0.1,0.2,0.2c0,0,0,0,0.1,0.1C216.1,64.1,216,64,215.9,63.9L215.9,63.9z"/>
	<path class="st2" d="M207.1,90.7c0,0-0.8,0.3-2.1,0.4c-0.6,0.1-1.4,0.1-2.1,0c-0.4-0.1-0.8-0.2-1.3-0.3c-0.9-0.3-1.8-0.9-2.5-1.7
		c-0.2-0.2-0.3-0.6,0-0.8c0.2-0.2,0.6-0.3,0.8,0c0.8,0.7,1.7,1,2.5,1.1c0.2,0,0.5,0.1,0.6,0.1c0.3,0.1,0.7,0.1,1,0.2
		c1.4,0.1,2.6,0,2.6,0c0.3-0.1,0.6,0.1,0.7,0.4C207.5,90.3,207.4,90.7,207.1,90.7L207.1,90.7z"/>
	<path class="st0" d="M203.1,89.5V115c0,14.4,11.6,26.1,26,26.1c14.3,0,26-11.7,26-26.1c0,0,0-1.6,0-2.9c0-0.9,0.6-1.6,1.5-1.7
		c8.8-1.3,7.8-13.7,3-13.7c-4,0-4.5,5.4-4.5,7.5c0,0.5-0.4,0.9-0.9,0.9c-0.6,0-1.6,0-2.2,0c-0.5,0-0.9-0.4-0.9-0.9
		c-0.2-24.6-9.9-12.7-20.8-15.4C211.8,84.2,210.9,90.7,203.1,89.5L203.1,89.5z"/>
	<path class="st3" d="M233.9,103.1c0.3,0.6,0.9,1,1.5,1.3c0.5,0.3,1.2,0.5,1.8,0.4c0.7,0,1.3-0.1,1.9-0.4c0.6-0.3,1.1-0.8,1.5-1.3
		c0.2-0.5,0.8-0.7,1.2-0.4c0.5,0.2,0.6,0.8,0.4,1.2c-0.4,1-1.1,1.8-1.9,2.4c-0.8,0.6-1.9,0.9-3,1c-1.1,0-2.2-0.4-3-1
		c-0.8-0.6-1.5-1.5-1.9-2.5c-0.2-0.5,0-1,0.4-1.2C233.1,102.5,233.7,102.6,233.9,103.1L233.9,103.1z"/>
	<path class="st3" d="M208.8,103.1c0.3,0.6,0.9,1,1.5,1.3c0.5,0.3,1.2,0.5,1.8,0.4c0.7,0,1.3-0.1,1.9-0.4c0.6-0.3,1.1-0.8,1.5-1.3
		c0.2-0.5,0.8-0.7,1.2-0.4c0.5,0.2,0.6,0.8,0.4,1.2c-0.4,1-1.1,1.8-1.9,2.4c-0.8,0.6-1.9,0.9-3,1c-1.1,0-2.2-0.4-3-1
		c-0.8-0.6-1.5-1.5-1.9-2.5c-0.2-0.5,0-1,0.4-1.2C208,102.5,208.6,102.6,208.8,103.1L208.8,103.1z"/>
	<path class="st3" d="M233.6,126.2c-0.8-1.4-1.9-2.6-3.3-3.4c-1.3-0.8-2.8-1.2-4.5-1.2c-1.6,0-3.2,0.4-4.5,1.2
		c-1.4,0.8-2.6,2-3.3,3.4c-0.2,0.5-0.8,0.7-1.2,0.4c-0.5-0.2-0.6-0.8-0.4-1.2c0.8-1.8,2.1-3.4,3.7-4.5c1.6-1.1,3.5-1.7,5.6-1.7
		c2.1,0,4,0.7,5.6,1.7c1.6,1.1,2.9,2.6,3.7,4.5c0.2,0.5,0,1-0.4,1.2C234.3,126.8,233.8,126.7,233.6,126.2L233.6,126.2z"/>
	<path class="st3" d="M225.9,108.4c0-0.1,0-0.2,0-0.3c0-0.5,0.1-1,0.1-1.5c0-0.3,0-0.6,0-0.9c-0.1-1.2-0.3-2.2-0.3-2.2
		c0-0.5-0.4-0.9-0.9-0.9c-0.5,0-0.9,0.4-0.9,0.9c0,0-0.2,1-0.3,2.2c0,0.3,0,0.6,0,0.9c0,0.5,0.1,1.1,0.1,1.5c0,0.3,0.1,0.6,0.1,0.8
		c-0.3,0.2-0.6,0.4-0.8,0.6c-0.8,0.7-1,1.7-1,2.6c0,0.9,0.3,1.8,1.1,2.5c0.7,0.7,1.8,1.2,3.3,1.2c0.5,0,1-0.3,1-0.8
		c0-0.5-0.3-1-0.8-1c-0.8-0.2-1.3-0.4-1.7-0.8s-0.5-0.8-0.5-1.2c0-0.4,0-0.9,0.4-1.2c0.4-0.3,0.9-0.6,1.7-0.7c0.5,0,0.9-0.5,0.8-1
		c0-0.5-0.5-0.9-1-0.8C226.3,108.4,226.1,108.4,225.9,108.4L225.9,108.4z"/>
	<path class="st3" d="M259.1,104.6c0,0-0.1-0.4-0.2-1c0-0.3-0.1-0.7-0.1-1c0-0.2,0-0.4,0-0.6c0.1-0.8,0.3-1.4,0.3-1.4
		c0-0.5,0.4-0.9,0.9-0.9c0.5,0,0.9,0.4,0.9,0.9c0,0,0.2,0.6,0.3,1.4c0,0.2,0,0.4,0,0.6c0,0.3-0.1,0.7-0.1,1c-0.1,0.6-0.2,1-0.2,1
		c0,0.5-0.4,0.9-0.9,0.9C259.5,105.6,259.1,105.1,259.1,104.6z"/>
	<path class="st3" d="M224,133.2l3.6-2.5c0.3-0.2,0.3-0.5,0.2-0.8c-0.2-0.3-0.5-0.3-0.8-0.2l-3.9,2.3c-0.2,0.1-0.3,0.3-0.4,0.4
		s-0.2,0.4-0.2,0.6c0,0.2,0,0.4,0,0.6c0,0.2,0.2,0.4,0.3,0.5c0.3,0.3,0.7,0.8,1.1,1.3c0.4,0.5,0.8,1,1.1,1.3
		c0.1,0.2,0.3,0.3,0.5,0.3c0.2,0.1,0.4,0.2,0.6,0.2c0.2,0,0.4,0,0.6-0.1c0.2-0.1,0.3-0.2,0.5-0.3l1.2-1.2c0.2-0.2,0.3-0.3,0.3-0.5
		c0.1-0.2,0.1-0.4,0.1-0.6c0-0.2-0.1-0.4-0.2-0.6c-0.1-0.2-0.2-0.3-0.4-0.4l-1.3-0.8c-0.3-0.2-0.6-0.1-0.8,0.2
		c-0.2,0.3-0.1,0.7,0.2,0.8l1.2,0.9l0,0v0l-1.2,1c-0.3-0.3-0.6-0.8-1.1-1.3C224.7,133.9,224.3,133.5,224,133.2z"/>
	<path class="st2" d="M219.4,79.5c0,0-1.1-1.6-3-3.5c-1-1-2.2-2-3.7-2.8c-0.8-0.5-1.6-0.9-2.4-1.3c-1.8-0.8-3.9-1.4-6.3-1.5
		c-0.3,0-0.6-0.3-0.6-0.6c0-0.3,0.3-0.6,0.6-0.6c2.6,0,4.9,0.5,6.9,1.3c1,0.4,1.9,0.8,2.7,1.4c1.6,1,2.9,2.1,3.9,3.2
		c2.1,2.1,3,4,3,4c0.2,0.3,0.1,0.7-0.2,0.8C220,79.9,219.6,79.8,219.4,79.5L219.4,79.5z"/>
	<path class="st2" d="M208.9,76.2c0,0-0.8-0.5-2-1.1c-0.6-0.3-1.4-0.5-2.2-0.8c-0.4-0.1-0.9-0.2-1.3-0.3c-1-0.2-2.1-0.3-3.2-0.2
		c-0.3,0-0.6-0.2-0.7-0.5c0-0.3,0.2-0.7,0.5-0.7c1.3-0.3,2.5-0.3,3.7-0.2c0.5,0.1,1.1,0.2,1.6,0.3c0.9,0.3,1.8,0.7,2.4,1
		c1.4,0.8,2.1,1.5,2.1,1.5c0.3,0.2,0.3,0.6,0.1,0.8C209.5,76.4,209.1,76.5,208.9,76.2L208.9,76.2z"/>
	<path class="st2" d="M318.2,169.6h33.6c0.6,0,1.1-0.5,1.1-1.1v-5c0-0.6-0.5-1.1-1.1-1.1h-33.6c-0.6,0-1.1,0.5-1.1,1.1v5
		C317.1,169.1,317.7,169.6,318.2,169.6z M350.7,167.4h-31.4v-2.9h31.4V167.4z"/>
	<path class="st2" d="M318.2,219.1h33.6c0.6,0,1.1-0.5,1.1-1.1v-5c0-0.6-0.5-1.1-1.1-1.1h-33.6c-0.6,0-1.1,0.5-1.1,1.1v5
		C317.1,218.6,317.7,219.1,318.2,219.1z M350.7,216.9h-31.4v-2.9h31.4V216.9z"/>
	<path class="st2" d="M320.8,214.1h28.4c0.6,0,1.1-0.5,1.1-1.1v-5.2c0-5.4-2.9-10.4-7.6-13.2c-1.5-0.8-2.4-2.2-2.4-3.6
		c-0.1-1.6,0.9-3.1,2.4-4.1c4.7-2.7,7.6-7.8,7.6-13.2v-5.2c0-0.6-0.5-1.1-1.1-1.1h-28.5c-0.6,0-1.1,0.5-1.1,1.1v5.2
		c0,5.5,3,10.5,7.8,13.2c1.5,1,2.3,2.5,2.3,3.9c0,1.4-0.8,2.7-2.2,3.6c-4.9,2.7-7.9,7.8-7.9,13.3v5.2
		C319.7,213.6,320.2,214.1,320.8,214.1z M348.1,211.9h-26.2v-4.1c0-4.7,2.6-9.1,6.8-11.4c0,0,0.1,0,0.1-0.1c2-1.3,3.2-3.2,3.2-5.4
		c0-2.2-1.2-4.4-3.3-5.8c0,0-0.1,0-0.1-0.1c-4.1-2.3-6.7-6.7-6.7-11.3v-4.1h26.2v4.1c0,4.6-2.5,8.9-6.5,11.3c0,0,0,0-0.1,0
		c-2.2,1.4-3.5,3.6-3.5,6c0.1,2.2,1.3,4.2,3.5,5.5c4,2.3,6.5,6.7,6.5,11.3V211.9L348.1,211.9z"/>
	<path class="st3" d="M344.9,207.8c0-0.4-0.1-0.7-0.4-1c-0.2-0.2-0.6-0.4-1-0.4c-3.6,0-13.2,0-16.9,0c-0.4,0-0.7,0.1-1,0.4
		c-0.2,0.2-0.4,0.6-0.4,1l0,0c0,0.8,0.7,1.6,1.6,1.6c3.7,0,12.8,0,16.5,0C344.2,209.4,344.9,208.7,344.9,207.8L344.9,207.8
		L344.9,207.8z"/>
	<path class="st3" d="M335.1,197.9c0.6,0,1.1-0.5,1.1-1.1v-1.1c0-0.6-0.5-1.1-1.1-1.1c-0.6,0-1.1,0.5-1.1,1.1v1.1
		C334,197.4,334.4,197.9,335.1,197.9z"/>
	<path class="st3" d="M341.5,181.2c2-1.5,3.3-3.6,3.3-5.9c0,0,0-0.7,0-1.4c0-0.8-0.7-1.6-1.6-1.6c-3.7,0-12.8,0-16.5,0
		c-0.9,0-1.6,0.7-1.6,1.6c0,0.7,0,1.4,0,1.4c0,2.4,1.3,4.5,3.3,5.9c0,0,0.1,0.1,0.1,0.1l0,0c0.1,0.1,0.1,0.1,0.2,0.1
		c2.7,1.9,4.9,3.9,4.9,5.7l0,0v2.4c0,0.7,0.6,1.4,1.4,1.4s1.4-0.6,1.4-1.4V187c0-1.8,2.1-3.8,4.9-5.6c0.1-0.1,0.1-0.1,0.2-0.1l0,0
		C341.5,181.2,341.5,181.2,341.5,181.2L341.5,181.2z"/>
	<path class="st1" d="M65.4,217.7l54.2-7.5c0.9-0.1,1.7,0.5,1.9,1.4l0.2,1.7c0.1,0.9-0.5,1.8-1.4,1.9l-54.2,7.5
		c-0.9,0.1-1.7-0.5-1.9-1.4l-0.2-1.7C63.9,218.7,64.5,217.9,65.4,217.7z"/>
	<path class="st1" d="M63.2,222.7L9,215.2c-0.9-0.1-1.5-1-1.4-1.9l0.2-1.7c0.1-0.9,1-1.6,1.9-1.4l54.2,7.5c0.9,0.1,1.5,1,1.4,1.9
		l-0.2,1.7C65,222.2,64.1,222.8,63.2,222.7z"/>
	<path class="st0" d="M66,215.2c0,0,0.1-5.8,0.3-13.7c0-4.1,0.1-8.9,0.1-13.6c0-2.7,0-5.6-0.1-8.2c-0.2-10.5-0.4-19.1-0.4-19.1
		c0-1.9-0.6-3.2-1.3-3.2c-0.8-0.1-1.3,1.5-1.3,3.2c0,0-0.2,8.7-0.4,19c-0.1,2.7-0.1,5.4-0.1,8.3c0,4.7,0.1,9.5,0.1,13.6
		c0.1,7.8,0.3,13.7,0.3,13.7c0,1.9,0.6,3.2,1.3,3.2C65.4,218.4,66.1,216.9,66,215.2z"/>
	<path class="st0" d="M43.7,213.8c0,0,0.1-4.1,0.3-9.8c0-2.9,0.1-6.4,0.1-9.7c0-1.9,0-4-0.1-5.9c-0.2-7.5-0.4-13.6-0.4-13.6
		c0-1.3-0.6-2.3-1.3-2.3c-0.8,0-1.3,1.1-1.3,2.3c0,0-0.2,6.2-0.4,13.6c-0.1,1.9-0.1,3.8-0.1,5.9c0,3.4,0.1,6.8,0.1,9.7
		c0.1,5.6,0.3,9.8,0.3,9.8c0,1.3,0.6,2.3,1.3,2.3C43.1,216.1,43.8,215,43.7,213.8z"/>
	<path class="st0" d="M88.5,214.2c0,0,0.1-4.1,0.3-9.8c0-2.9,0.1-6.3,0.1-9.7c0-1.9,0-4-0.1-5.9c-0.2-7.5-0.4-13.6-0.4-13.6
		c0-1.3-0.6-2.3-1.3-2.3c-0.8,0-1.3,1.1-1.3,2.3c0,0-0.2,6.2-0.4,13.6c-0.1,1.9-0.1,3.8-0.1,5.9c0,3.4,0.1,6.8,0.1,9.7
		c0.1,5.6,0.3,9.8,0.3,9.8c0,1.3,0.6,2.3,1.3,2.3C87.9,216.5,88.6,215.4,88.5,214.2z"/>
	<path class="st3" d="M63.5,218.3l52.9-14.4c0.9-0.2,1.8,0.3,2,1.2l0.4,1.6c0.2,0.9-0.3,1.8-1.2,2l-52.9,14.4
		c-0.9,0.2-1.8-0.3-2-1.2l-0.4-1.6C62.1,219.5,62.6,218.5,63.5,218.3z"/>
	<path class="st3" d="M64.5,223.2l-52.9-14.4c-0.9-0.2-1.4-1.2-1.2-2l0.4-1.6c0.2-0.9,1.1-1.4,2-1.2l52.9,14.4
		c0.9,0.2,1.4,1.2,1.2,2l-0.4,1.6C66.3,222.9,65.4,223.4,64.5,223.2z"/>
	<path class="st3" d="M5.1,216.4h119.1c1.8,0,3.3,1.5,3.3,3.3v2.6c0,0.9-0.7,1.7-1.6,1.7H3.5c-0.9,0-1.6-0.7-1.6-1.7v-2.6
		C1.8,217.8,3.3,216.4,5.1,216.4z"/>
	<path class="st0" d="M71.8,216.4c0.9,0,1.6,0.8,1.6,1.7c0,0.1,0,0.2,0,0.4c-1.1,4.9-6,8-10.8,6.8c-3.4-0.8-6-3.4-6.8-6.8
		c-0.2-0.9,0.4-1.8,1.2-2c0.1,0,0.2,0,0.4,0H71.8z"/>
	<path class="st1" d="M50.2,179.3h4.3c0.5,0,0.8,0.4,0.8,0.8v2.7c0,0.5-0.4,0.8-0.8,0.8h-4.3c-0.5,0-0.8-0.4-0.8-0.8v-2.7
		C49.4,179.6,49.8,179.3,50.2,179.3z"/>
	<path class="st3" d="M96.5,193.3h2.2c0.2,0,0.4,0.2,0.4,0.4v4.3c0,0.2-0.2,0.4-0.4,0.4h-2.2c-0.2,0-0.4-0.2-0.4-0.4v-4.3
		C96.1,193.5,96.3,193.3,96.5,193.3z"/>
	<path class="st3" d="M72.8,181.6h3.3c0.6,0,1.1,0.5,1.1,1.1v3.8c0,0.6-0.5,1.1-1.1,1.1h-3.3c-0.6,0-1.1-0.5-1.1-1.1v-3.8
		C71.7,182,72.2,181.6,72.8,181.6z"/>
	<path class="st1" d="M80.1,200.5v8.4c0,0.2-0.2,0.3-0.3,0.3h-2.3c-0.2,0-0.3-0.2-0.3-0.3c0,0,0,0,0,0v-8.4c0-0.2,0.2-0.3,0.3-0.3
		h2.3C79.9,200.1,80.1,200.3,80.1,200.5z"/>
	<path class="st1" d="M34.4,193.8v1.9c0,0.3-0.2,0.5-0.5,0.5c0,0,0,0,0,0h-1.2c-0.3,0-0.5-0.2-0.5-0.5c0,0,0,0,0,0v-1.9
		c0-0.3,0.2-0.5,0.5-0.5h1.2C34.1,193.3,34.4,193.5,34.4,193.8z"/>
	<path class="st3" d="M49.5,194.9h4.3c0.4,0,0.7,0.3,0.7,0.7v8.4c0,0.4-0.3,0.7-0.7,0.7h-4.3c-0.4,0-0.7-0.3-0.7-0.7v-8.4
		C48.7,195.2,49.1,194.9,49.5,194.9z"/>
	<path class="st3" d="M53.7,160.1h3.6c0.2,0,0.4,0.2,0.4,0.4v3.7c0,0.2-0.2,0.4-0.4,0.4h-3.6c-0.2,0-0.4-0.2-0.4-0.4v-3.7
		C53.2,160.3,53.4,160.1,53.7,160.1z"/>
	<path class="st1" d="M81.6,171.9c0-0.5-0.4-0.9-0.9-0.9h-1.2c-0.5,0-0.9,0.4-0.9,0.9v1.2c0,0.5,0.4,0.9,0.9,0.9h1.2
		c0.5,0,0.9-0.4,0.9-0.9V171.9z"/>
	<path class="st0" d="M109,303.6c4.8,0.7,8.8,1.6,11.8,2.6c2.1,0.6,3.8,1.4,4.8,2c0.2,0.2,0.4,0.3,0.5,0.5c0.1,0.1,0.2,0.1,0.2,0.2
		s-0.1,0.1-0.1,0.1c-0.1,0.1-0.2,0.2-0.4,0.4c-0.6,0.5-1.3,0.8-2.3,1.2c-4,1.6-11,2.9-20,4c-10.7,1.2-24.2,1.9-38.8,1.8
		c-14.7,0.1-28.2-0.6-38.8-1.8c-9-1-16-2.3-20-4c-1-0.4-1.8-0.8-2.3-1.2c-0.2-0.1-0.3-0.2-0.4-0.4c0-0.1-0.1-0.1-0.1-0.2
		c0-0.1,0.1-0.1,0.2-0.2c0.2-0.2,0.5-0.4,0.7-0.6c0.8-0.6,2-1,3.4-1.6c2.5-0.8,5.9-1.7,9.9-2.4c0.7-0.1,1.3-0.8,1.2-1.7
		s-0.8-1.3-1.7-1.2c-5.2,0.8-9.4,1.8-12.1,2.9c-1.7,0.6-2.9,1.4-3.6,2.2S0,308,0,308.8c0,1.3,1,2.9,3.4,4.1c3,1.6,8.5,2.9,15.6,4.1
		c11.5,1.8,27.8,3,45.8,3.1c18-0.1,34.2-1.2,45.8-3c7.2-1.1,12.5-2.6,15.6-4.1c2.4-1.3,3.4-2.8,3.4-4.1c0-0.9-0.5-1.8-1.4-2.8
		c-0.9-0.7-2.3-1.6-4.4-2.3c-3.3-1.2-8.3-2.2-14.4-3c-0.7-0.1-1.5,0.5-1.7,1.2C107.6,302.8,108.2,303.5,109,303.6L109,303.6z"/>
	<path class="st0" d="M107.8,323.7c0.1-0.7,0.7-1.3,1.4-1.3c0.8,0,1.5,0.6,1.5,1.5c0,1-0.7,2.2-2.6,3.2c-2.1,1.1-5.9,2.1-11.1,3
		c-5.3,0.9-11.9,1.6-19.4,2c-4.1,0.2-8.5,0.3-12.9,0.4c-4.5,0-8.8-0.1-12.9-0.4c-7.4-0.4-14.1-1.1-19.4-2c-5.1-0.8-8.9-1.9-11.1-3
		c-1.9-0.9-2.6-2.2-2.6-3.2c0-0.8,0.7-1.5,1.5-1.5c0.7,0,1.4,0.6,1.4,1.3l0.2,0.2c0.4,0.3,0.9,0.6,1.6,0.8c2.8,1.1,7.7,1.9,14,2.7
		c7.5,0.8,17,1.3,27.3,1.2c10.3,0.1,19.8-0.4,27.3-1.2c6.3-0.6,11.2-1.6,14-2.6c0.7-0.3,1.2-0.6,1.6-0.8
		C107.6,323.9,107.7,323.8,107.8,323.7C107.7,323.7,107.7,323.7,107.8,323.7L107.8,323.7L107.8,323.7c0,0.1,0,0.1,0,0.2V323.7
		L107.8,323.7L107.8,323.7L107.8,323.7z"/>
	<ellipse class="st1" cx="119.3" cy="63.3" rx="4" ry="4"/>
	<g>
		<ellipse class="st1" cx="21.1" cy="71.5" rx="8.2" ry="8.2"/>
		<ellipse class="st1" cx="121.2" cy="100.7" rx="6.1" ry="6.1"/>
		<ellipse class="st1" cx="54.7" cy="100.7" rx="4" ry="4"/>
		<ellipse class="st1" cx="114.2" cy="12.4" rx="8.2" ry="8.2"/>
		<path class="st1" d="M83.7,63.5c-2.2,0-4,1.8-4,4c0,2.2,1.8,4,4,4c2.2,0,4-1.8,4-4C87.7,65.3,86,63.5,83.7,63.5z"/>
		<path class="st1" d="M83.5,8.2c2.2,0,4-1.8,4-4c0-2.2-1.8-4-4-4c-2.2,0-4,1.8-4,4C79.5,6.4,81.3,8.2,83.5,8.2z"/>
		<ellipse class="st1" cx="58.7" cy="41.4" rx="6.1" ry="6.1"/>
		<path class="st1" d="M33.7,13.7c-2.2,0-4,1.8-4,4c0,2.2,1.8,4,4,4s4-1.8,4-4C37.7,15.5,35.9,13.7,33.7,13.7z"/>
	</g>
	<path class="st1" d="M99.8,99.2l-55.6,37.3c-2.2,1.4-3,4.3-1.7,6.4l-6.9,11.3c1.3,2.1,4.2,2.7,6.5,1.3l55.9-34.9
		c1.1-0.7,1.7-1.8,2.1-2.9c0.5-1.3,2.1-5.3,3.5-9.5C104.6,105.7,104.3,105.8,99.8,99.2z"/>
	<path class="st3" d="M34.3,150.2c-0.6,1.1-0.6,1.7,0.8,2.9c1.2,1,3.3,0.5,4.8-0.5l53.6-33.4c1.8-1.1,0.8-3.9,1.9-5.6
		c0.6-0.9,3.9-8.7,5-11.7c0.6-1.7-1.1-5.5-5.8-2.7l-51.1,31.9C41.7,132.3,36.2,146.4,34.3,150.2z"/>
	<path class="st0" d="M95.4,113.6l-61.4,38.3l1.6,2.5c1.3,2.1,2.4,3.7,4.6,2.3l57.9-36.1c1.1-0.7,1.8-1.7,2.1-2.9
		C99.3,118.8,97.6,117.1,95.4,113.6z"/>
	<path class="st0" d="M269.2,97.3c0.7-0.9,1.4-1.4,2-1.5c1.2-0.3,2.4,0.4,3.7,0.9c1.1,0.5,2.3,0.8,3.8-0.7c0.8-0.8,1.5-1.2,2.2-1.4
		c0.8-0.2,1.5-0.1,2.2,0.2c0.5,0.2,1.1,0.6,1.6,0.9c0.5,0.3,1,0.6,1.6,0.6c0.6,0,1.3-0.4,2.2-1.3c0.2-0.3,0.6-0.3,0.9,0
		c0.3,0.2,0.3,0.6,0,0.9c-1.2,1.5-2.3,1.9-3.2,1.9c-1.1,0-2.1-0.7-3.1-1.2c-0.4-0.2-0.9-0.4-1.3-0.4c-0.5,0-1.1,0.3-1.8,1.1
		c-1.3,1.3-2.4,1.6-3.4,1.6c-1.1,0-2.1-0.6-3.1-1.1c-0.6-0.3-1.1-0.6-1.7-0.5c-0.5,0.1-0.9,0.3-1.4,1c-0.2,0.3-0.6,0.3-0.8,0.1
		C269,98,269,97.6,269.2,97.3L269.2,97.3z"/>
	<path class="st0" d="M267.7,82.7c0.3-0.8,0.7-1.2,1.1-1.5c0.7-0.5,1.4-0.5,2.2-0.4c0.9,0.1,1.9,0.4,2.7-1.2
		c0.4-0.7,0.8-1.2,1.2-1.4c0.8-0.5,1.6-0.5,2.4-0.3c0.3,0.1,0.7,0.2,1,0.2c0.2,0,0.5,0.1,0.7,0c0.4-0.2,0.7-0.5,1.1-1.2
		c0.1-0.3,0.5-0.4,0.8-0.3c0.3,0.1,0.4,0.5,0.3,0.8c-0.6,1.3-1.2,1.8-1.8,2.1c-0.6,0.3-1.3,0.1-2,0c-0.4-0.1-0.9-0.2-1.3,0
		c-0.3,0.2-0.6,0.5-0.9,1c-0.7,1.2-1.4,1.7-2.1,1.9c-0.8,0.2-1.7,0.1-2.4-0.1c-0.4-0.1-0.8-0.1-1.1,0c-0.3,0.1-0.5,0.4-0.7,0.9
		c-0.1,0.3-0.5,0.5-0.8,0.3C267.7,83.3,267.6,83,267.7,82.7L267.7,82.7z"/>
	<path class="st0" d="M272.3,112.2c0.3,0.4,0.6,0.6,0.9,0.7c0.4,0.1,0.7-0.1,1.1-0.2c0.7-0.3,1.5-0.7,2.3-0.6c0.7,0,1.6,0.4,2.5,1.3
		c0.4,0.5,0.8,0.7,1.1,0.8c0.5,0.1,0.9-0.1,1.3-0.3c0.6-0.3,1.2-0.6,1.9-0.5c0.7,0.1,1.4,0.4,2.3,1.6c0.2,0.3,0.2,0.6-0.1,0.9
		s-0.6,0.2-0.8-0.1c-0.5-0.6-1-0.9-1.4-0.9c-0.2,0-0.5,0.1-0.7,0.1c-0.3,0.1-0.6,0.3-0.9,0.5c-0.7,0.4-1.5,0.6-2.4,0.3
		c-0.5-0.2-1-0.5-1.5-1.1c-1.2-1.3-2.1-0.8-2.9-0.5c-0.8,0.3-1.5,0.5-2.2,0.2c-0.5-0.2-1-0.5-1.4-1.2c-0.2-0.3-0.2-0.7,0.1-0.9
		C271.7,111.9,272.1,111.9,272.3,112.2L272.3,112.2z"/>
	<path class="st0" d="M265.2,64.9c0-0.5,0.1-0.8,0.2-1c0.2-0.4,0.6-0.7,1-0.8c0.3-0.1,0.6-0.3,0.7-0.9c0.1-0.8,0.4-1.3,0.7-1.5
		c0.2-0.2,0.5-0.3,0.7-0.3c0.1,0,0.3-0.1,0.4-0.1c0.1,0,0.1,0,0.2-0.1c0.1-0.1,0.2-0.3,0.2-0.6c0-0.4,0.3-0.6,0.6-0.6
		s0.6,0.3,0.6,0.7c0,0.8-0.2,1.2-0.4,1.5c-0.2,0.3-0.4,0.4-0.7,0.5c-0.2,0.1-0.4,0.1-0.6,0.3c0,0,0,0.1-0.1,0.1
		c0,0.1-0.1,0.2-0.1,0.4c-0.1,0.7-0.3,1.2-0.6,1.5c-0.3,0.3-0.6,0.5-1,0.6c-0.3,0.1-0.7,0-0.7,0.6c0,0.4-0.3,0.6-0.6,0.6
		C265.5,65.6,265.2,65.3,265.2,64.9z"/>
	<path class="st0" d="M274.3,130.4c0.2,0.5,0.5,0.4,0.8,0.4c0.3,0,0.7,0.1,1.1,0.3c0.4,0.2,0.7,0.6,1,1.3c0,0.1,0.1,0.3,0.2,0.4
		c0,0.1,0,0.1,0.1,0.1c0.2,0.1,0.4,0.1,0.7,0.1c0.3,0.1,0.6,0.1,0.8,0.3c0.3,0.2,0.6,0.6,0.8,1.3c0.1,0.3-0.1,0.7-0.4,0.8
		c-0.3,0.1-0.7-0.1-0.8-0.4c-0.1-0.3-0.3-0.4-0.4-0.5c-0.1-0.1-0.1,0-0.2,0c-0.1,0-0.3,0-0.4,0c-0.3,0-0.5-0.1-0.8-0.2
		c-0.4-0.2-0.8-0.5-1.1-1.3c-0.2-0.6-0.6-0.7-0.9-0.7c-0.4-0.1-0.9-0.2-1.2-0.6c-0.2-0.2-0.3-0.5-0.4-1c-0.1-0.3,0.1-0.7,0.4-0.7
		C273.9,129.9,274.2,130.1,274.3,130.4L274.3,130.4z"/>
</g>
<g id="TEXTES_FR">
</g>
<g id="TEXTES_GB">
</g>
</svg>
