<?xml version="1.0" encoding="utf-8"?>
<!-- Generator: Adobe Illustrator 26.2.1, SVG Export Plug-In . SVG Version: 6.00 Build 0)  -->
<svg version="1.1" id="Calque_1" xmlns="http://www.w3.org/2000/svg" xmlns:xlink="http://www.w3.org/1999/xlink" x="0px" y="0px"
	 viewBox="0 0 428 223.7" style="enable-background:new 0 0 428 223.7;" xml:space="preserve">
<style type="text/css">
	.st0{fill:#FFBCC6;}
	.st1{fill:#272F60;}
	.st2{fill:#FD657C;}
</style>
<g id="ILLUSTRATIONS">
	<polygon class="st0" points="428,14.2 404.3,20.8 380.4,27.6 359.1,33.5 350.7,35.8 335.2,40.2 251.2,63.8 276.7,154.7 
		384.8,124.4 406.1,118.5 428,112.5 	"/>
	<g id="icono_00000119821431858780371390000006694636857203142328_" transform="translate(0 268)">
		<g>
			<g id="Groupe_92_00000013878399945436128320000001293841010136223120_">
				<path id="Tracé_94_00000134252260895159946370000001210517688914860439_" class="st1" d="M400.4-246.1l-23.8,6.8l-21.3,5.9
					l25.5,90.9l21.3-5.9L426-155L400.4-246.1z"/>
				<circle id="Ellipse_2_00000083777711177442056370000000271616657992352919_" class="st1" cx="251.4" cy="-152.9" r="82.4"/>
				<path id="Tracé_95_00000102530443752307373170000003282176288769253813_" class="st2" d="M287.9-111.2
					c-3.2,9.3-13,14.6-22.5,12c1.3,3.8,1.3,7.9,0,11.7c-3.2,9.7-13.7,15-23.4,11.7c0,0,0,0-0.1,0c0,0-3.3-0.7-8.8-1.9
					c0.6,10.3-7.3,19.2-17.6,19.8c-2.3,0.1-4.6-0.2-6.9-0.9c0,0-19-3.6-40.2-9s-35.4-9.7-45-13c-0.4-0.1-0.7-0.3-1.1-0.4
					c-0.8-0.3-1.7-0.5-2.5-0.8c-0.4-0.2-0.8-0.3-1.2-0.4c-1.4-0.5-2.8-1.1-4.1-1.8c-27.1-13-31-41-44.9-45.6l-26.3-8.9l31.1-88.8
					l13.5,4.7c18.4,6.2,25.3,0.9,35.5-7.7l20.9-18.7c2.1-2.2,4.6-3.9,7.4-5.1l39.1-12.4c9.6-3.8,20.4,0.8,24.2,10.4
					c3.8,9.6-0.8,20.4-10.4,24.2l-31.3,15l-5.6,6.7c13.9,4.9,35.6,12.6,55.2,20.6c24.6,9.9,45.7,19.6,45.7,19.6
					c9.7,3.2,15,13.7,11.7,23.5c-1.4,4.3-4.4,8-8.4,10.2c2.9,1.2,4.4,1.9,4.4,1.9C286-131.3,291.1-120.8,287.9-111.2z"/>
				<g id="Groupe_91_00000028296384203946672050000006356745026866760891_">
					<path id="Tracé_96_00000030446012130172658220000014729825939127968958_" class="st1" d="M274.2-135.7c0,0-11.7-4.3-24.6-8.8
						c-6.7-2.5-14.6-5.2-22.3-7.8c-4.5-1.5-9.1-3-13.5-4.4c-17.2-5.5-31.6-10-31.6-10c-1-0.3-2.1,0.2-2.5,1.2
						c-0.3,1,0.2,2.1,1.2,2.5c0,0,14,5.2,31.2,11.1c4.3,1.5,8.8,3.2,13.3,4.7c7.8,2.6,15.5,5.1,22.6,7.3c12.9,4.2,21.1,6.7,21.1,6.7
						c1.1,0.4,5.6,0.4,7.4-1.2C278.9-136.5,275.2-135.4,274.2-135.7z"/>
					<path id="Tracé_97_00000002353254981578232650000003987950935217382588_" class="st1" d="M267.7-98.7c0,0-12.8-4.7-26.6-9.3
						c-7.3-2.6-15.5-5.5-23.8-8.2c-4.8-1.6-9.6-3.3-14.4-4.7c-18.3-5.9-33.7-10.7-33.7-10.7c-1-0.3-2.1,0.2-2.5,1.2
						c-0.3,1,0.2,2.1,1.2,2.5c0,0,15.1,5.5,33.3,11.8c4.7,1.5,9.5,3.3,14.3,4.9c8.4,2.7,16.6,5.3,23.9,7.7
						c13.8,4.4,26.3,8.4,26.3,8.4c0.8,0.4-0.3,2.5,1.2,1.8C268.1-93.9,268.8-98.3,267.7-98.7L267.7-98.7z"/>
					<path id="Tracé_98_00000163040487265068029330000001277659796698893493_" class="st1" d="M234.8-77c0,0-7.8-2.9-18.7-6.6
						c-5.6-2.1-12.1-4.4-18.7-6.6c-3.7-1.2-7.6-2.5-11.4-3.7c-14.4-4.5-16.2-4.8-16.2-4.8c-1-0.3-2.1,0.2-2.5,1.2
						c-0.3,1,0.2,2.1,1.2,2.5c0,0,1.5,0.8,15.8,5.8c3.7,1.2,7.4,2.6,11.3,4c6.5,2.2,13.1,4.2,18.9,6c10.9,3.4,19,5.8,19,5.8
						c0.9,0.4,2-0.1,2.4-1c0-0.1,0.1-0.1,0.1-0.2C236.3-75.6,235.8-76.6,234.8-77L234.8-77z"/>
					<path id="Tracé_99_00000155860696035717813460000003982751360596427159_" class="st1" d="M66-131.1c-0.7-1-1.4-2.1-2.1-3
						c-5-7.3-8.8-13.5-8.8-13.5c-0.6-0.9-0.4-2.2,0.5-2.8c0.9-0.6,2.2-0.4,2.8,0.5c0,0,4.4,5.8,9.8,12.8c1.2,1.8,2.8,3.7,4.1,5.6
						c1.7,2.3,3.3,4.8,5,7c-2.3-2.5-4.7-4.5-7.4-5.4L66-131.1z"/>
					<path id="Tracé_100_00000117661462401934285280000009791947036613485995_" class="st1" d="M268.3-161.3
						c4.6,1.5,7.1,6.4,5.6,11s-6.4,7.1-11,5.6c-0.1,0-0.1,0-0.2-0.1c-4.5-1.5-5.4-6-3.9-10.6C260.3-159.7,263.6-162.8,268.3-161.3z"
						/>
					<path id="Tracé_101_00000155116462563156788820000007983591916285637524_" class="st1" d="M191.3-263.7c4.8-1,9.5,2.2,10.5,7
						c1,4.8-2.2,9.5-7,10.5c-4.8,1-7.7-2.5-8.7-7.3C185.2-258.4,186.6-262.5,191.3-263.7z"/>
					<path id="Tracé_102_00000009577529686381800240000018030018081063770507_" class="st1" d="M274.8-124.7
						c4.6,1.5,7.1,6.4,5.6,11c-1.5,4.6-6.4,7.1-11,5.6c-0.1,0-0.1,0-0.2-0.1c-4.5-1.5-5.4-6-3.9-10.6S270.1-126.3,274.8-124.7z"/>
					<path id="Tracé_103_00000118384286000536392480000007205780208881484709_" class="st1" d="M251-97.4c4.3,1.5,6.6,6.1,5.2,10.4
						c-1.4,4.3-6.1,6.6-10.4,5.2c-4.3-1.4-5.1-5.6-3.6-9.9C243.7-95.9,246.8-98.8,251-97.4z"/>
					<path id="Tracé_104_00000103959460928015830870000010259982277159997835_" class="st1" d="M217.2-76.6
						c3.8,1.3,5.8,5.4,4.5,9.2c-1.3,3.7-5.4,5.7-9.2,4.5c-3.7-1.2-4.4-4.9-3.2-8.8C210.5-75.4,213.2-78,217.2-76.6z"/>
					<path id="Tracé_105_00000083799242903695473260000017636687919749407677_" class="st1" d="M229.2-176.9
						c-0.6,1.2-1.1,2.4-1.6,3.7c-0.6,1.2-1.1,2.4-1.5,3.7c-0.3,0.8-0.5,1.5-0.7,2.3c-0.7,3-1.2,5.5-1.2,5.5c-0.4,1,0.2,2.1,1.2,2.5
						c1,0.4,2.1-0.2,2.5-1.2c0,0,0,0,0,0c0.9-1.7,1.6-3.4,2.3-5.2c0.3-0.8,0.7-1.5,1-2.3c0.4-1.2,0.7-2.6,1-3.9
						c0.5-2.2,0.8-3.9,0.8-3.9c0.4-0.9-0.1-2-1-2.4c-0.1,0-0.1-0.1-0.2-0.1C230.7-178.5,229.6-177.9,229.2-176.9L229.2-176.9z"/>
					<path id="Tracé_106_00000078767641199858469850000007260110733484489900_" class="st1" d="M223.1-141.8c0,0-0.8,1.8-1.8,4.1
						c-0.7,1.4-1.2,2.8-1.6,4.3c-0.3,1-0.5,1.7-0.7,2.6c-0.8,3.3-1.5,6.2-1.5,6.2c-0.4,1,0.2,2.1,1.2,2.5c1,0.4,2.1-0.2,2.5-1.2
						c0,0,0,0,0,0c1-1.9,1.8-3.8,2.5-5.8c0.3-0.8,0.7-1.7,1-2.6c0.5-1.4,0.8-3,1.2-4.4c0.7-2.5,1.1-4.4,1.1-4.4c0.4-0.9-0.1-2-1-2.4
						c-0.1,0-0.1-0.1-0.2-0.1c-0.9-0.5-2.1-0.1-2.6,0.8C223.2-142,223.1-141.9,223.1-141.8z"/>
					<path id="Tracé_107_00000137126202476852496400000002376466553337080482_" class="st1" d="M211.7-107.6
						c-0.5,0.9-1,1.8-1.4,2.8c-0.4,0.8-0.8,1.8-1.2,2.8c-0.2,0.6-0.3,1.2-0.4,1.8c-0.5,2.3-0.8,4.1-0.8,4.1c-0.4,1,0.2,2.1,1.2,2.5
						c1,0.4,2.1-0.2,2.5-1.2c0,0,0,0,0,0c0.7-1.2,1.3-2.4,1.8-3.7c0.2-0.6,0.4-1.2,0.7-1.7c0.3-1,0.5-1.9,0.7-2.9c0.2-1,0.4-2,0.5-3
						c0.4-0.9-0.1-2-1-2.4c-0.1,0-0.1-0.1-0.2-0.1C213.3-109.2,212.1-108.5,211.7-107.6L211.7-107.6z"/>
					<path id="Tracé_108_00000116196252030118777000000015830815148128828317_" class="st1" d="M159-236.2c-0.3-1-0.6-2-1-2.9
						c-0.3-0.8-0.7-1.8-1.1-2.7c-0.3-0.6-0.6-1.1-1-1.6c-0.7-1.2-1.4-2.3-2.3-3.4c-0.5-0.9-1.6-1.3-2.6-0.9
						c-0.9,0.5-1.3,1.6-0.9,2.6c0,0,0,0.1,0,0.1c0,0,0.6,1.8,1.2,3.8c0.3,0.5,0.4,1.1,0.7,1.6c0.4,0.9,0.9,1.7,1.5,2.5
						c1,1.5,1.8,2.5,1.8,2.5c0.4,0.9,1.4,1.3,2.3,1c0.1,0,0.2-0.1,0.3-0.2C159-234,159.3-235.3,159-236.2z"/>
				</g>
				<path id="Tracé_109_00000108305854656944932030000003144929658164237458_" class="st0" d="M231.2-210.7
					c-1.4-10.2-10.6-17.3-20.8-16.1l-71.4,9.3c-10,1.2-17.2,10.6-16.1,20.8c1.2,10,10.6,17.2,20.8,16.1l71.4-9.3
					c10.1-1.2,17.4-10.4,16.1-20.6C231.2-210.5,231.2-210.6,231.2-210.7z"/>
				<path id="Tracé_110_00000102516715965355954360000009379069068550473877_" class="st1" d="M82.4-70.1
					c7.2,3.9,16.2,1.1,20.1-6.1c0,0,0,0,0,0l25.7-48.7c3.9-7.2,1.2-16.2-6-20.1c-7.2-3.9-16.2-1.2-20.1,6c0,0,0,0,0,0.1L76.3-90.2
					C72.4-82.9,75.2-73.9,82.4-70.1C82.4-70.1,82.4-70.1,82.4-70.1z"/>
				<path id="Tracé_111_00000113310784111482660890000001452159088618090124_" class="st1" d="M114.4-52.8
					c7.2,3.9,16.2,1.1,20.1-6.1c0,0,0,0,0,0l23.6-44c3.9-7.2,1.2-16.2-6-20.1s-16.2-1.2-20.1,6c0,0,0,0,0,0.1l-23.6,44
					c-3.9,7.1-1.3,16.1,5.8,20C114.2-52.9,114.3-52.8,114.4-52.8z"/>
				<path id="Tracé_112_00000049215354098728818970000007666566951519331731_" class="st1" d="M152.2-46.1
					c7.2,3.9,16.2,1.1,20.1-6.1c0,0,0,0,0,0L187.8-81c3.9-7.2,1.2-16.2-6-20.1s-16.2-1.2-20.1,6c0,0,0,0,0,0.1l-15.5,28.8
					c-3.9,7.1-1.3,16.1,5.8,20C152-46.2,152.1-46.1,152.2-46.1z"/>
				<path id="Tracé_114_00000173154267478945641480000005892452231524211113_" class="st1" d="M231.7-74l1.7-0.3l-0.5,1.8
					C232.6-73.3,232.4-73.7,231.7-74z"/>
			</g>
		</g>
	</g>
	<polygon class="st2" points="0,13.3 0,113.3 46,130.2 77.4,41.6 	"/>
</g>
<g id="TEXTES_FR">
</g>
<g id="TEXTES_GB">
</g>
</svg>
