<?xml version="1.0" encoding="utf-8"?>
<!-- Generator: Adobe Illustrator 26.2.1, SVG Export Plug-In . SVG Version: 6.00 Build 0)  -->
<svg version="1.1" id="Calque_1" xmlns="http://www.w3.org/2000/svg" xmlns:xlink="http://www.w3.org/1999/xlink" x="0px" y="0px"
	 viewBox="0 0 343.5 397.9" style="enable-background:new 0 0 343.5 397.9;" xml:space="preserve">
<style type="text/css">
	.st0{fill:#FFBCC6;}
	.st1{fill:#272F60;}
	.st2{fill:#FB657C;}
	.st3{fill:#FFF5F7;}
	.st4{clip-path:url(#SVGID_00000137842138995748664410000017236837943985211796_);}
	.st5{clip-path:url(#SVGID_00000036973890143834167370000013123596848448797598_);}
	.st6{clip-path:url(#SVGID_00000101792801463199183200000008145847632366073238_);}
	.st7{clip-path:url(#SVGID_00000030489352293241343860000014692738662030238891_);}
	.st8{clip-path:url(#SVGID_00000009588494696343827840000005954642259924951221_);}
	.st9{clip-path:url(#SVGID_00000183231254219413175360000018255751970050674875_);}
	.st10{clip-path:url(#SVGID_00000056398793430423251100000012896214548102520992_);}
	.st11{clip-path:url(#SVGID_00000096039413076995803790000012274741451885031045_);}
	.st12{clip-path:url(#SVGID_00000090275038337616353750000009442723796736083894_);}
	.st13{clip-path:url(#SVGID_00000075842739053121993840000009621531831881571505_);}
	.st14{clip-path:url(#SVGID_00000121968055621075063300000008361569978427782319_);}
	.st15{clip-path:url(#SVGID_00000078007253223103359340000006936352148483190680_);}
	.st16{clip-path:url(#SVGID_00000150787749271517625210000009190688734579703188_);}
	.st17{clip-path:url(#SVGID_00000109739130673517311170000004483592136871286161_);}
	.st18{clip-path:url(#SVGID_00000098213060486604584820000010639949314131863223_);}
	.st19{clip-path:url(#SVGID_00000010990958061616585420000004756041324330846649_);}
	.st20{clip-path:url(#SVGID_00000132781102430708694090000013879029881988983982_);}
	.st21{fill:#FFFFFF;}
	.st22{clip-path:url(#SVGID_00000179629210367300142080000010142681353281188748_);}
	.st23{clip-path:url(#SVGID_00000170274325915158280080000016997146158474831493_);}
	.st24{clip-path:url(#SVGID_00000044878832254877844510000009631334780639830183_);}
	.st25{clip-path:url(#SVGID_00000005959424027194186290000012702474982145337990_);}
	.st26{clip-path:url(#SVGID_00000078746910034535272080000014715757313528013729_);}
	.st27{clip-path:url(#SVGID_00000062898694846648955090000011901133418826438312_);}
	.st28{clip-path:url(#SVGID_00000137853181336957014810000003069054735665255844_);}
	.st29{clip-path:url(#SVGID_00000096763757613168866650000010154189908903559044_);}
	.st30{clip-path:url(#SVGID_00000070839475680426538180000004047094581241216661_);}
	.st31{clip-path:url(#SVGID_00000105422088439438354200000016536198956454877571_);}
	.st32{clip-path:url(#SVGID_00000154417495277713770270000004640038215309501852_);}
	.st33{clip-path:url(#SVGID_00000059991881790957167030000007632771346707436977_);}
	.st34{clip-path:url(#SVGID_00000111188694498131785770000015947630110854164659_);}
	.st35{clip-path:url(#SVGID_00000177455872986113165910000007900175239421237145_);}
	.st36{clip-path:url(#SVGID_00000127735470057660092220000018242126362429716141_);}
	.st37{clip-path:url(#SVGID_00000165220710970869659980000000649987516591549588_);}
	.st38{clip-path:url(#SVGID_00000023979719686737088470000009135746866885325451_);}
	.st39{clip-path:url(#SVGID_00000164487191910999790730000005069404145167275435_);}
	.st40{clip-path:url(#SVGID_00000086649654616493838210000011114833209342944932_);}
	.st41{clip-path:url(#SVGID_00000103987429333431071360000001245420498369226374_);}
	.st42{clip-path:url(#SVGID_00000146457849231210262600000007876050321196093826_);}
	.st43{clip-path:url(#SVGID_00000116939458826556149280000003141281591956225184_);}
	.st44{clip-path:url(#SVGID_00000110460418173262368990000003480060507035955888_);}
	.st45{clip-path:url(#SVGID_00000124131969370201498690000017398642557473718456_);}
	.st46{clip-path:url(#SVGID_00000029020820766496536600000000396769557643037836_);}
</style>
<g id="TEXTES_FR">
</g>
<g>
	<g id="ILLUSTRATIONS">
		<path id="Tracé_2095_00000091733862686921296830000008673610048883399344_" class="st0" d="M136.8,123.9c1.5,0.6,3.1-0.1,3.8-1.6
			c0,0,0,0,0,0l3.5-8.3l0.1-0.3c0.7-1.9,0.9-3.9,0.7-5.9c-0.3-2-1.1-4-2.3-5.6c-2.5-3.5-6.4-5.6-10.7-5.9c-2.1-0.1-4.1,0.2-6.1,1.1
			c-0.5,0.2-0.9,0.4-1.4,0.7c-0.2,0.1-0.4,0.3-0.6,0.4c-0.2,0.1-0.4,0.3-0.6,0.4l-0.6,0.5l-0.3,0.2l-0.3,0.3l-0.5,0.5
			c-0.2,0.2-0.3,0.4-0.5,0.6c-0.6,0.8-1.1,1.6-1.5,2.5l-0.1,0.2l-13.5,32c-0.6,1.4,0,3.1,1.4,3.8c1.4,0.6,3.1,0,3.8-1.4
			c0,0,0-0.1,0-0.1l13.5-32c0,0,0-0.1,0-0.1c0.2-0.5,0.5-1,0.9-1.4c0.1-0.1,0.2-0.2,0.3-0.3l0.3-0.3l0.1-0.2l0.2-0.1l0.3-0.3
			c0.1-0.1,0.2-0.2,0.4-0.2c0.1-0.1,0.2-0.2,0.4-0.2c0.3-0.1,0.5-0.3,0.8-0.4c1.1-0.5,2.3-0.7,3.5-0.6c2.4,0.1,4.7,1.4,6.1,3.4
			c0.7,1,1.1,2.1,1.3,3.2c0.2,1.1,0,2.3-0.4,3.3l-0.1,0.2l-3.5,8.3C134.6,121.6,135.3,123.3,136.8,123.9L136.8,123.9z"/>
		<path id="Tracé_2096_00000009550598652869181390000001012662543310789799_" class="st1" d="M137.3,115.2l1.1-2.7l5.3,2.2
			l-1.1,2.7L137.3,115.2z M139.2,108.2c-0.1-0.7-0.3-1.4-0.7-2.1l5.1-2.1c0.6,1.1,1,2.4,1.2,3.6L139.2,108.2z M135.5,102.9
			c-0.6-0.4-1.3-0.7-2.1-0.9l1.3-5.2c1.3,0.3,2.5,0.8,3.6,1.5L135.5,102.9z M129,102.1c-0.7,0.2-1.3,0.5-1.9,1l-3.5-4.4
			c1-0.7,2.2-1.3,3.4-1.7L129,102.1z M124.4,106.6l-1.1,2.7l-5.3-2.2l1.1-2.7L124.4,106.6z M121,114.7l-1.1,2.7l-5.3-2.2l1.1-2.7
			L121,114.7z M117.6,122.7l-1.1,2.7l-5.3-2.2l1.1-2.7L117.6,122.7z M114.2,130.8l-1.1,2.7l-5.3-2.2l1.1-2.7L114.2,130.8z"/>
		<path id="Tracé_2097_00000061429574082647495200000012810674628789275026_" class="st2" d="M107.5,139.3c0.7,0.2,1,1,0.8,1.6l0,0
			l-4.9,11.8c-0.3,0.7-1.1,0.9-1.8,0.6c-0.6-0.3-0.9-1-0.7-1.6l0,0l5-11.8C106.1,139.3,106.9,139,107.5,139.3z"/>
		<path id="Tracé_2098_00000161600081935940682040000003848702458549606291_" class="st1" d="M103.8,151.6l-2.4-1l-0.3,0.8l2.4,1
			L103.8,151.6z"/>
		<path id="Tracé_2099_00000016050266436928527120000012964658274874639495_" class="st1" d="M104.8,149.2l-2.4-1l-0.3,0.8l2.4,1
			L104.8,149.2z"/>
		<path id="Tracé_2100_00000126281823339904902190000002361815657064568985_" class="st2" d="M103.8,137.7c0.7,0.2,1,1,0.8,1.6l0,0
			l-5,11.8c-0.4,0.6-1.2,0.9-1.8,0.5c-0.5-0.3-0.8-0.9-0.6-1.5l5-11.8C102.4,137.7,103.1,137.4,103.8,137.7z"/>
		<path id="Tracé_2101_00000054224371260114279000000010497440542130426029_" class="st1" d="M100,150l-2.4-1l-0.3,0.8l2.4,1
			L100,150z"/>
		<path id="Tracé_2102_00000086686097132236967680000005240624234788415630_" class="st1" d="M101.1,147.6l-2.4-1l-0.3,0.8l2.4,1
			L101.1,147.6z"/>
		<path id="Tracé_2103_00000046307893540091889190000009457131185574848926_" class="st2" d="M109.5,145.2c0.7,0.2,1,1,0.7,1.6l0,0
			l-3.1,7.4c-0.3,0.7-1.1,0.9-1.8,0.6c-0.6-0.3-0.9-1-0.7-1.6l3.1-7.4C108.1,145.2,108.8,144.9,109.5,145.2L109.5,145.2L109.5,145.2
			z"/>
		<path id="Tracé_2104_00000122710065009633273910000000873853858757008042_" class="st1" d="M107.6,153.2l-2.4-1l-0.3,0.8l2.4,1
			L107.6,153.2z"/>
		<path id="Tracé_2105_00000159436971537344805960000006449588447717698971_" class="st1" d="M108.6,150.7l-2.4-1l-0.3,0.8l2.4,1
			L108.6,150.7z"/>
		<path id="Tracé_2106_00000049923734800346549670000012947267525771332239_" class="st2" d="M108.5,139.6c0.6-0.3,1.4-0.1,1.8,0.4
			l0,0l4.6,7c0.3,0.6,0.2,1.3-0.4,1.6c0,0-0.1,0-0.1,0.1c-0.6,0.3-1.3,0.1-1.7-0.4l-4.6-7c-0.4-0.5-0.2-1.3,0.3-1.6
			C108.4,139.6,108.5,139.6,108.5,139.6L108.5,139.6L108.5,139.6z"/>
		<path id="Tracé_2107_00000109031748028345748160000004433209808664500100_" class="st1" d="M114.7,146.7l-0.5-0.7l-2.2,1.2
			l0.5,0.7L114.7,146.7z"/>
		<path id="Tracé_2108_00000165918757432363858180000011083733231712249517_" class="st1" d="M113.2,144.4l-0.5-0.7l-2.2,1.2
			l0.5,0.7L113.2,144.4z"/>
		
			<ellipse id="Ellipse_204_00000157997062733354841380000000297518490540238752_" transform="matrix(0.3881 -0.9216 0.9216 0.3881 -65.4051 184.8795)" class="st1" cx="106.5" cy="141.7" rx="5.7" ry="6.2"/>
		<path id="Tracé_2109_00000026164905633412842780000010675598438546969751_" class="st2" d="M110.4,146.3l-10-4.2l-1.6,3.9l10,4.2
			L110.4,146.3z"/>
		<path id="Tracé_2110_00000004517175389394795160000009119087277885510535_" class="st1" d="M99.5,144.5l10,4.2l0.3-0.8l-10-4.2
			L99.5,144.5z"/>
		<path id="Tracé_2111_00000059303999590433675650000006037929324904760965_" class="st2" d="M144.6,95.9c-0.7-1-2.1-1.2-3.1-0.4
			c-2.9,2.2-8.7,6.5-11.6,8.7c-1,0.7-1.2,2.1-0.5,3c3.4,4.6,12.6,16.7,16,21.3c0.7,1,2.1,1.2,3.1,0.4c2.9-2.2,8.7-6.5,11.6-8.7
			c1-0.7,1.2-2.1,0.5-3C157.2,112.7,148,100.5,144.6,95.9z"/>
		<path id="Tracé_2112_00000087386723376821641030000016518776121253240491_" class="st1" d="M144.4,99l-11.8,8.9l13.3,17.6
			l11.8-8.9L144.4,99z"/>
		<path id="Tracé_2113_00000172440113977067086230000009041143760453617027_" class="st1" d="M136.7,103.1l1.3-0.9
			c0.3-0.2,0.4-0.7,0.2-1s-0.7-0.4-1-0.2c0,0,0,0,0,0l-1.3,0.9c-0.3,0.2-0.4,0.7-0.2,1C135.8,103.3,136.3,103.4,136.7,103.1
			C136.6,103.1,136.6,103.1,136.7,103.1z"/>
		
			<ellipse id="Ellipse_205_00000048467374942548083240000012989434313906692270_" transform="matrix(0.9282 -0.372 0.372 0.9282 -27.2721 59.0509)" class="st1" cx="139.4" cy="100.2" rx="0.8" ry="0.8"/>
		
			<ellipse id="Ellipse_206_00000078012314626358533700000014677673764705846974_" class="st1" cx="157.1" cy="112.8" rx="2.8" ry="2.7"/>
		<path id="Tracé_2114_00000013161213092823568120000014639402722067451807_" class="st3" d="M162.1,99.7c0.4-0.2,0.8-0.2,1.2,0
			c2.8,1.6,15,8.7,19.6,11.3c0.4,0.2,0.6,0.6,0.6,1c0,0.4-0.2,0.8-0.6,1l-27.7,16c-0.4,0.2-0.8,0.2-1.2,0c-2.8-1.6-15-8.7-19.6-11.3
			c-0.4-0.2-0.6-0.6-0.6-1c0-0.4,0.2-0.8,0.6-1L162.1,99.7z"/>
		<path id="Tracé_2115_00000117645199725523498740000001454741886974356897_" class="st1" d="M183.2,113.4l-27.7,16.2
			c-0.6,0.3-1.3,0.3-1.8,0c-1.5-0.9-5.6-3.2-9.9-5.6c-3.8-2.2-7.7-4.4-9.8-5.6c-0.6-0.3-0.9-0.9-0.9-1.6c0-0.7,0.4-1.3,0.9-1.6
			l27.7-16.2c0.6-0.3,1.3-0.3,1.8,0c1.5,0.9,5.5,3.2,9.9,5.6c3.8,2.2,7.7,4.4,9.8,5.6c0.6,0.3,0.9,0.9,0.9,1.6
			C184.1,112.5,183.7,113.1,183.2,113.4z M134.7,116.4c-0.1,0.1-0.2,0.2-0.2,0.4c0,0.2,0.1,0.3,0.2,0.4c2.2,1.2,6,3.4,9.8,5.6
			c4.3,2.5,8.4,4.8,9.9,5.6c0.2,0.1,0.3,0.1,0.5,0l27.7-16.2c0.1-0.1,0.2-0.2,0.2-0.4c0-0.2-0.1-0.3-0.2-0.4c-2.2-1.2-6-3.5-9.8-5.6
			c-4.3-2.5-8.4-4.8-9.9-5.6c-0.2-0.1-0.3-0.1-0.5,0L134.7,116.4z"/>
		<path id="Tracé_2116_00000107590977849894767590000005602866555923662993_" class="st3" d="M188.8,110c-0.4-0.2-0.8-0.2-1.2,0
			l-27.9,16.3c-0.4,0.2-0.6,0.6-0.6,1c0,0.4,0.2,0.8,0.6,1c0.3,0.2,0.7,0.4,0.9,0.5c0.4,0.2,0.8,0.2,1.2,0l27.9-16.3
			c0.4-0.2,0.6-0.6,0.6-1c0-0.4-0.2-0.8-0.6-1C189.4,110.4,189,110.2,188.8,110z"/>
		<path id="Tracé_2117_00000152984611285739285180000018293616790339793319_" class="st1" d="M190,113.1l-27.9,16.3
			c-0.5,0.3-1.2,0.3-1.7,0c-0.3-0.2-0.6-0.3-0.9-0.5c-0.5-0.3-0.9-0.9-0.9-1.5c0-0.6,0.3-1.2,0.9-1.5l27.9-16.3
			c0.5-0.3,1.2-0.3,1.7,0l0,0c0.2,0.1,0.4,0.2,0.6,0.4c0.1,0.1,0.2,0.1,0.3,0.2c0.5,0.3,0.9,0.9,0.9,1.5
			C190.8,112.2,190.5,112.7,190,113.1L190,113.1z M160,126.9c-0.2,0.1-0.3,0.3-0.3,0.5c0,0.2,0.1,0.4,0.3,0.5c0.4,0.2,0.7,0.4,1,0.6
			c0.2,0.1,0.4,0.1,0.6,0l27.9-16.3c0.2-0.1,0.3-0.3,0.3-0.5c0-0.2-0.1-0.4-0.3-0.5c-0.1-0.1-0.2-0.1-0.3-0.2
			c-0.2-0.1-0.5-0.3-0.7-0.4c-0.2-0.1-0.4-0.1-0.6,0L160,126.9z"/>
		<path id="Tracé_2118_00000017488629935592631150000006182387955832788619_" class="st3" d="M203.1,101.7c-0.4-0.2-0.8-0.2-1.2,0
			l-14.1,8.2c-0.4,0.2-0.6,0.6-0.6,1c0,0.4,0.2,0.8,0.6,1c0.3,0.2,0.7,0.4,0.9,0.5c0.4,0.2,0.8,0.2,1.2,0l14.1-8.2
			c0.4-0.2,0.6-0.6,0.6-1c0-0.4-0.2-0.8-0.6-1C203.7,102,203.4,101.8,203.1,101.7z"/>
		<path id="Tracé_2119_00000093855767520471077570000006842790211988387772_" class="st1" d="M163.7,125.3l-2.3,1.3
			c-0.3,0.2-0.3,0.5-0.2,0.7c0.2,0.3,0.5,0.3,0.7,0.2l2.3-1.3c0.3-0.2,0.3-0.5,0.2-0.7C164.3,125.3,164,125.2,163.7,125.3
			L163.7,125.3z"/>
		<path id="Tracé_2120_00000133527020811014891270000001482209862595608967_" class="st1" d="M204.4,101.7l-0.9-0.5
			c-0.5-0.3-1.2-0.3-1.7,0l-14.5,8.5c-0.1-0.5-0.4-0.9-0.8-1.2c-4.6-2.6-16.9-9.6-19.7-11.2c-0.5-0.3-1.2-0.3-1.7,0l-9.8,5.7
			c-0.3,0.2-0.3,0.5-0.2,0.7c0.2,0.3,0.5,0.4,0.7,0.2c0,0,0,0,0,0l0,0l6.9-4l20.9,11.9l-28.6,16.7c-0.3,0.2-0.3,0.5-0.2,0.7
			c0.2,0.3,0.5,0.3,0.7,0.2l31.4-18.3c0.1,0.5,0.4,0.9,0.8,1.2c0.3,0.2,0.7,0.4,0.9,0.5c0.5,0.3,1.2,0.3,1.7,0l14.1-8.2
			c0.5-0.3,0.9-0.9,0.9-1.5C205.2,102.6,204.9,102,204.4,101.7L204.4,101.7z M204.1,103.2c0,0.2-0.1,0.4-0.3,0.5l-14.1,8.2
			c-0.2,0.1-0.4,0.1-0.6,0c-0.3-0.2-0.6-0.3-0.9-0.5c-0.2-0.1-0.3-0.3-0.3-0.5c0-0.2,0.1-0.4,0.3-0.5l14.1-8.2
			c0.2-0.1,0.4-0.1,0.6,0l0.9,0.5C204,102.8,204.1,103,204.1,103.2L204.1,103.2z"/>
		<path id="Tracé_2121_00000155144488248556342610000008954307863987723194_" class="st1" d="M198.3,105.1l-0.7,0.4
			c-0.3,0.2-0.4,0.5-0.2,0.7c0,0,0,0,0,0l0,0c0.1,0.3,0.4,0.4,0.7,0.2c0,0,0,0,0.1,0l0.7-0.4c0.3-0.2,0.3-0.5,0.2-0.7
			C198.9,105,198.6,105,198.3,105.1L198.3,105.1z"/>
		
			<ellipse id="Ellipse_207_00000024698030212057200200000013709257820955226541_" class="st1" cx="191.7" cy="109.6" rx="0.7" ry="0.7"/>
		
			<rect id="Rectangle_252_00000030454540335548185790000008174515360410475966_" x="154.1" y="109.8" transform="matrix(0.4121 -0.9112 0.9112 0.4121 -10.4787 209.8196)" class="st2" width="6.5" height="6.5"/>
		<g id="Groupe_565_00000154422540434427483850000002353606162018893229_" transform="translate(150.242 191.153)">
			<g>
				<g>
					<defs>
						<rect id="SVGID_1_" x="-31.1" y="-77.6" width="79.3" height="83.7"/>
					</defs>
					<clipPath id="SVGID_00000111910341276139152160000008802072435220004242_">
						<use xlink:href="#SVGID_1_"  style="overflow:visible;"/>
					</clipPath>
					
						<g id="Groupe_548_00000147915483885308656440000006592948101617796252_" style="clip-path:url(#SVGID_00000111910341276139152160000008802072435220004242_);">
						<path id="Tracé_2122_00000135662396633750405430000011916024217807909804_" class="st1" d="M38.1,6.1H-6.2
							c-0.9,0-1.8-0.4-2.4-1l-6.6-6.6c-0.6-0.7-1-1.5-1-2.5v-57.2c0-0.9,0.4-1.8,1-2.5l6.6-6.6c0.6-0.6,1.5-1,2.4-1h44.3
							c0.9,0,1.8,0.4,2.4,1l6.6,6.6c0.6,0.7,1,1.5,1,2.5V-4c0,0.9-0.4,1.8-1,2.5L40.6,5C39.9,5.7,39,6.1,38.1,6.1z"/>
					</g>
				</g>
			</g>
			<g>
				<g>
					<defs>
						<rect id="SVGID_00000162354518127689469590000015769165951241872307_" x="-31.1" y="-77.6" width="79.3" height="83.7"/>
					</defs>
					<clipPath id="SVGID_00000009571189565641800430000015410551857370531214_">
						<use xlink:href="#SVGID_00000162354518127689469590000015769165951241872307_"  style="overflow:visible;"/>
					</clipPath>
					
						<g id="Groupe_549_00000127725817048089058750000003081121406861682058_" style="clip-path:url(#SVGID_00000009571189565641800430000015410551857370531214_);">
						<path id="Tracé_2123_00000101805284729356716740000009746495529619167390_" class="st0" d="M18.9,6.1h-40
							c-0.9,0-1.8-0.4-2.4-1l-6.6-6.6c-0.6-0.7-1-1.5-1-2.5v-57.2c0-0.9,0.4-1.8,1-2.5l6.6-6.6c0.6-0.6,1.5-1,2.4-1h40
							c0.9,0,1.8,0.4,2.4,1l6.6,6.6c0.6,0.7,1,1.5,1,2.5V-4c0,0.9-0.4,1.8-1,2.5L21.4,5C20.7,5.7,19.9,6.1,18.9,6.1z"/>
					</g>
				</g>
			</g>
			<g>
				<g>
					<defs>
						<rect id="SVGID_00000140735579951772625290000005556657893160248739_" x="-31.1" y="-77.6" width="79.3" height="83.7"/>
					</defs>
					<clipPath id="SVGID_00000173119919350697712460000016122560923902962864_">
						<use xlink:href="#SVGID_00000140735579951772625290000005556657893160248739_"  style="overflow:visible;"/>
					</clipPath>
					
						<g id="Groupe_550_00000183928655020476572330000003892911883734843581_" style="clip-path:url(#SVGID_00000173119919350697712460000016122560923902962864_);">
						<path id="Tracé_2124_00000173139115841411489160000017671163366181832112_" class="st1" d="M30-61H1c-0.5,0-0.9-0.4-0.8-0.9
							c0-0.5,0.4-0.8,0.8-0.8h29c0.5,0,0.9,0.4,0.8,0.9C30.8-61.3,30.4-61,30-61z"/>
					</g>
				</g>
			</g>
			<g>
				<g>
					<defs>
						<rect id="SVGID_00000173137487648570221780000016081353281959595138_" x="-31.1" y="-77.6" width="79.3" height="83.7"/>
					</defs>
					<clipPath id="SVGID_00000006674192889874334450000005259573874964311217_">
						<use xlink:href="#SVGID_00000173137487648570221780000016081353281959595138_"  style="overflow:visible;"/>
					</clipPath>
					
						<g id="Groupe_551_00000018223245280961419690000015991797015380873365_" style="clip-path:url(#SVGID_00000006674192889874334450000005259573874964311217_);">
						<path id="Tracé_2125_00000179635593258722545950000014815425813652912831_" class="st1" d="M-11.4-61H-28
							c-0.5,0-0.9-0.4-0.8-0.9c0-0.5,0.4-0.8,0.8-0.8h16.7c0.5,0,0.9,0.4,0.8,0.9C-10.6-61.3-10.9-61-11.4-61L-11.4-61z"/>
					</g>
				</g>
			</g>
			<g>
				<g>
					<defs>
						<rect id="SVGID_00000080899766084838596420000009541446838063118522_" x="-31.1" y="-77.6" width="79.3" height="83.7"/>
					</defs>
					<clipPath id="SVGID_00000101792446458627869480000006802808732417332666_">
						<use xlink:href="#SVGID_00000080899766084838596420000009541446838063118522_"  style="overflow:visible;"/>
					</clipPath>
					
						<g id="Groupe_552_00000017512387416294460710000007698702648807575209_" style="clip-path:url(#SVGID_00000101792446458627869480000006802808732417332666_);">
						<path id="Tracé_2126_00000142137104620834322600000002360800863424273812_" class="st1" d="M30-1.4H-27
							c-0.5,0-0.9-0.4-0.8-0.9c0-0.5,0.4-0.8,0.8-0.8H30c0.5,0,0.9,0.4,0.8,0.9C30.8-1.8,30.4-1.4,30-1.4z"/>
					</g>
				</g>
			</g>
			<g>
				<g>
					<defs>
						<rect id="SVGID_00000071538346932928591470000017868146877407711645_" x="-31.1" y="-77.6" width="79.3" height="83.7"/>
					</defs>
					<clipPath id="SVGID_00000176043456904525618470000009104129550361572002_">
						<use xlink:href="#SVGID_00000071538346932928591470000017868146877407711645_"  style="overflow:visible;"/>
					</clipPath>
					
						<g id="Groupe_553_00000154423819200569234120000004399601266379389065_" style="clip-path:url(#SVGID_00000176043456904525618470000009104129550361572002_);">
						<path id="Tracé_2127_00000181061190946342252280000001178846648776882330_" class="st3" d="M-7.7-36.5l3.5-6.1
							c0.6-1,1.9-1.4,3-0.8c0.3,0.2,0.6,0.5,0.8,0.8l3,5.2l3.9,6.8c0.6,1.1,0.2,2.4-0.8,3c-0.3,0.2-0.7,0.3-1.1,0.3H-9.2
							c-1.2,0-2.2-1-2.2-2.2c0-0.4,0.1-0.8,0.3-1.1L-7.7-36.5z"/>
					</g>
				</g>
			</g>
			<g>
				<g>
					<defs>
						<rect id="SVGID_00000032628850271204883570000012054018339347676066_" x="-31.1" y="-77.6" width="79.3" height="83.7"/>
					</defs>
					<clipPath id="SVGID_00000031894253706655534070000005009584493587494296_">
						<use xlink:href="#SVGID_00000032628850271204883570000012054018339347676066_"  style="overflow:visible;"/>
					</clipPath>
					
						<g id="Groupe_554_00000015312714154014743670000018201639600063689144_" style="clip-path:url(#SVGID_00000031894253706655534070000005009584493587494296_);">
						<path id="Tracé_2128_00000079458554886021036150000005175125539171315863_" class="st1" d="M-2-26h-7.1
							c-1.9,0-3.5-1.6-3.5-3.5c0-0.6,0.2-1.2,0.5-1.7c0.3-0.6,1.1-0.9,1.7-0.6c0.6,0.3,0.9,1.1,0.6,1.7c0,0.1-0.1,0.1-0.1,0.2
							c-0.2,0.4-0.1,1,0.3,1.2c0.1,0.1,0.3,0.1,0.4,0.1H-2c0.7,0,1.3,0.6,1.3,1.3S-1.3-26-2-26L-2-26z"/>
					</g>
				</g>
			</g>
			<g>
				<g>
					<defs>
						<rect id="SVGID_00000170986997338896989160000003346012159110491835_" x="-31.1" y="-77.6" width="79.3" height="83.7"/>
					</defs>
					<clipPath id="SVGID_00000169544117077133049020000016310383777971983777_">
						<use xlink:href="#SVGID_00000170986997338896989160000003346012159110491835_"  style="overflow:visible;"/>
					</clipPath>
					
						<g id="Groupe_555_00000142856986290557167220000013674974866071882650_" style="clip-path:url(#SVGID_00000169544117077133049020000016310383777971983777_);">
						<path id="Tracé_2129_00000116955789673053766680000011954203569737831102_" class="st1" d="M4.7-26c-0.7,0-1.3-0.6-1.3-1.3
							s0.6-1.3,1.3-1.3c0.5,0,0.9-0.4,0.9-0.9c0-0.2,0-0.3-0.1-0.4l-3.9-6.8c-0.4-0.6-0.3-1.4,0.3-1.8s1.4-0.3,1.8,0.3
							c0,0.1,0.1,0.1,0.1,0.2l3.9,6.8c1,1.7,0.4,3.8-1.3,4.8C5.9-26.2,5.3-26,4.7-26L4.7-26z"/>
					</g>
				</g>
			</g>
			<g>
				<g>
					<defs>
						<rect id="SVGID_00000114763201254744126850000007889409025411740039_" x="-31.1" y="-77.6" width="79.3" height="83.7"/>
					</defs>
					<clipPath id="SVGID_00000143615271476820115220000005582057343985463226_">
						<use xlink:href="#SVGID_00000114763201254744126850000007889409025411740039_"  style="overflow:visible;"/>
					</clipPath>
					
						<g id="Groupe_556_00000102535832101534522080000017370707658168267708_" style="clip-path:url(#SVGID_00000143615271476820115220000005582057343985463226_);">
						<path id="Tracé_2130_00000026163287532794669830000016908620311228998333_" class="st1" d="M-7.7-35.2
							c-0.7,0-1.3-0.6-1.3-1.3c0-0.2,0.1-0.4,0.2-0.6l3.5-6.1c1-1.7,3.1-2.2,4.7-1.3c0.5,0.3,1,0.8,1.3,1.3c0.4,0.6,0.2,1.4-0.3,1.8
							c-0.6,0.4-1.4,0.2-1.8-0.3c0-0.1-0.1-0.1-0.1-0.2c-0.2-0.4-0.8-0.6-1.2-0.3C-2.8-42.3-2.9-42.1-3-42l-3.5,6.1
							C-6.8-35.5-7.2-35.2-7.7-35.2z"/>
					</g>
				</g>
			</g>
			<g>
				<g>
					<defs>
						<rect id="SVGID_00000136403712307551847880000002641683983502016935_" x="-31.1" y="-77.6" width="79.3" height="83.7"/>
					</defs>
					<clipPath id="SVGID_00000176042011399387943740000018003988885269647760_">
						<use xlink:href="#SVGID_00000136403712307551847880000002641683983502016935_"  style="overflow:visible;"/>
					</clipPath>
					
						<g id="Groupe_557_00000029756103932824049600000001749917243632193208_" style="clip-path:url(#SVGID_00000176042011399387943740000018003988885269647760_);">
						<path id="Tracé_2131_00000027596676533135932710000015472526729225098130_" class="st1" d="M38.2-77.6h-58.8
							c-0.5,0-0.9,0.4-0.9,0.9c0,0,0,0,0,0v4.5c0,0.5,0.4,0.9,0.9,0.9c0,0,0,0,0,0h58.8c0.5,0,0.9-0.4,0.9-0.9c0,0,0,0,0,0v-4.5
							C39.1-77.2,38.7-77.6,38.2-77.6C38.2-77.6,38.2-77.6,38.2-77.6z"/>
					</g>
				</g>
			</g>
			<g>
				<g>
					<defs>
						<rect id="SVGID_00000121248156478558632330000004397209476595125142_" x="-31.1" y="-77.6" width="79.3" height="83.7"/>
					</defs>
					<clipPath id="SVGID_00000044858156609989162150000003280962256370311599_">
						<use xlink:href="#SVGID_00000121248156478558632330000004397209476595125142_"  style="overflow:visible;"/>
					</clipPath>
					
						<g id="Groupe_558_00000151517740965654330190000014498263125708127139_" style="clip-path:url(#SVGID_00000044858156609989162150000003280962256370311599_);">
						<path id="Tracé_2132_00000080185837091917034310000010600494685222964373_" class="st1" d="M44-71.4c0,1.9-1.6,3.5-3.5,3.5
							c-1.9,0-3.5-1.6-3.5-3.5c0-1.9,1.6-3.5,3.5-3.5C42.4-74.9,44-73.3,44-71.4C44-71.4,44-71.4,44-71.4z"/>
					</g>
				</g>
			</g>
			<g>
				<g>
					<defs>
						<rect id="SVGID_00000157993841995056289030000004861474377609984674_" x="-31.1" y="-77.6" width="79.3" height="83.7"/>
					</defs>
					<clipPath id="SVGID_00000029738238522878717440000002529093133282128562_">
						<use xlink:href="#SVGID_00000157993841995056289030000004861474377609984674_"  style="overflow:visible;"/>
					</clipPath>
					
						<g id="Groupe_559_00000087377827389316560960000000151669918561909648_" style="clip-path:url(#SVGID_00000029738238522878717440000002529093133282128562_);">
						<path id="Tracé_2133_00000072281638691647990110000007193790578031643796_" class="st3" d="M40.5-67c-2.4,0-4.4-2-4.4-4.4
							c0-2.4,2-4.4,4.4-4.4c2.4,0,4.4,2,4.4,4.4c0,1-0.3,2-0.9,2.7C43.1-67.6,41.8-67,40.5-67z M40.5-74c-1.5,0-2.7,1.2-2.7,2.7
							c0,1.5,1.2,2.7,2.7,2.7c1.5,0,2.7-1.2,2.7-2.7c0,0,0,0,0,0C43.1-72.8,41.9-74,40.5-74L40.5-74z"/>
					</g>
				</g>
			</g>
			<g>
				<g>
					<defs>
						<rect id="SVGID_00000140702613126248729400000005979070839393933186_" x="-31.1" y="-77.6" width="79.3" height="83.7"/>
					</defs>
					<clipPath id="SVGID_00000088092351486472997710000015753731527739006871_">
						<use xlink:href="#SVGID_00000140702613126248729400000005979070839393933186_"  style="overflow:visible;"/>
					</clipPath>
					
						<g id="Groupe_560_00000065768437052982230580000007632540377989168063_" style="clip-path:url(#SVGID_00000088092351486472997710000015753731527739006871_);">
						<path id="Tracé_2134_00000047740755292235705260000003119800151970420889_" class="st3" d="M38.2-48.4c-0.2,0-0.3,0-0.4-0.1
							l-9.2-5.6c-0.4-0.3-0.5-0.8-0.2-1.2c0.3-0.4,0.7-0.5,1.1-0.3l9.2,5.6c0.4,0.3,0.5,0.8,0.3,1.2C38.7-48.6,38.5-48.4,38.2-48.4
							L38.2-48.4z"/>
					</g>
				</g>
			</g>
			<g>
				<g>
					<defs>
						<rect id="SVGID_00000124119953115483000960000002798086719962603909_" x="-31.1" y="-77.6" width="79.3" height="83.7"/>
					</defs>
					<clipPath id="SVGID_00000098197668003248998830000004896710650517611917_">
						<use xlink:href="#SVGID_00000124119953115483000960000002798086719962603909_"  style="overflow:visible;"/>
					</clipPath>
					
						<g id="Groupe_561_00000157268281203871228080000002769649172871689347_" style="clip-path:url(#SVGID_00000098197668003248998830000004896710650517611917_);">
						<path id="Tracé_2135_00000048497285029534943320000000797603935915553961_" class="st3" d="M38.2-42.8c-0.2,0-0.3,0-0.4-0.1
							l-9.2-5.6c-0.4-0.3-0.5-0.8-0.2-1.2c0.3-0.4,0.7-0.5,1.1-0.3l9.2,5.6c0.4,0.3,0.5,0.8,0.3,1.2C38.7-43,38.5-42.8,38.2-42.8
							L38.2-42.8z"/>
					</g>
				</g>
			</g>
			<g>
				<g>
					<defs>
						<rect id="SVGID_00000016791799400833706670000008135988013340125350_" x="-31.1" y="-77.6" width="79.3" height="83.7"/>
					</defs>
					<clipPath id="SVGID_00000179621320304878298870000008696287052493925311_">
						<use xlink:href="#SVGID_00000016791799400833706670000008135988013340125350_"  style="overflow:visible;"/>
					</clipPath>
					
						<g id="Groupe_562_00000028304084367616765240000004604083658998085256_" style="clip-path:url(#SVGID_00000179621320304878298870000008696287052493925311_);">
						<path id="Tracé_2136_00000066504617370212382450000011867463954365475738_" class="st3" d="M47-2.3c-0.2,0-0.3,0-0.4-0.1
							l-6-3.7c-0.4-0.3-0.5-0.8-0.2-1.2c0.3-0.4,0.7-0.5,1.1-0.3l6,3.7c0.4,0.3,0.5,0.8,0.3,1.2C47.5-2.5,47.3-2.3,47-2.3L47-2.3z"
							/>
					</g>
				</g>
			</g>
			<g>
				<g>
					<defs>
						<rect id="SVGID_00000153707527427993429350000002327871704974764981_" x="-31.1" y="-77.6" width="79.3" height="83.7"/>
					</defs>
					<clipPath id="SVGID_00000048467722033952616070000003740489778285425321_">
						<use xlink:href="#SVGID_00000153707527427993429350000002327871704974764981_"  style="overflow:visible;"/>
					</clipPath>
					
						<g id="Groupe_563_00000085948612566902742800000015116438388915557265_" style="clip-path:url(#SVGID_00000048467722033952616070000003740489778285425321_);">
						<path id="Tracé_2137_00000096748205245631565750000008772070302653946277_" class="st3" d="M38.2-12.1
							c-0.5,0-0.9-0.4-0.9-0.9c0,0,0,0,0,0v-24.5l-8.7-5.4c-0.4-0.3-0.5-0.8-0.2-1.2c0.3-0.4,0.7-0.5,1.1-0.3l9.2,5.6
							c0.3,0.2,0.4,0.4,0.4,0.7v25C39-12.5,38.6-12.1,38.2-12.1z"/>
					</g>
				</g>
			</g>
			<g>
				<g>
					<defs>
						<rect id="SVGID_00000125562565323048810660000012940743648533157275_" x="-31.1" y="-77.6" width="79.3" height="83.7"/>
					</defs>
					<clipPath id="SVGID_00000106844485730204828310000013523860146180192141_">
						<use xlink:href="#SVGID_00000125562565323048810660000012940743648533157275_"  style="overflow:visible;"/>
					</clipPath>
					
						<g id="Groupe_564_00000046310441514810341120000010541705353290546864_" style="clip-path:url(#SVGID_00000106844485730204828310000013523860146180192141_);">
						<path id="Tracé_2138_00000056402610318978004890000015261114889457708958_" class="st3" d="M38.2-4.8c-2.3,0-4.2-1.8-4.2-4.1
							s1.8-4.2,4.1-4.2c2.3,0,4.2,1.8,4.2,4.1c0,0,0,0,0,0C42.3-6.7,40.5-4.8,38.2-4.8z M38.2-11.4c-1.3,0-2.4,1.1-2.4,2.4
							s1.1,2.4,2.4,2.4c1.3,0,2.4-1.1,2.4-2.4c0,0,0,0,0,0C40.6-10.3,39.5-11.4,38.2-11.4L38.2-11.4z"/>
					</g>
				</g>
			</g>
		</g>
		<path id="Tracé_2139_00000181774547715530448080000018127945786456867500_" class="st1" d="M311.1,199.3H30.7
			c-0.6,0-1.1-0.5-1.1-1.1c0-0.6,0.5-1.1,1.1-1.1h280.4c0.6,0,1.1,0.5,1.1,1.1C312.2,198.8,311.7,199.3,311.1,199.3L311.1,199.3
			L311.1,199.3z"/>
		<g id="Groupe_589_00000125598541311131513190000017633166016858632127_" transform="translate(54.295 130.382)">
			<g>
				<g id="Groupe_566_00000060013793512738105000000009478367926691136445_">
					<path id="Tracé_2140_00000093880128133786409150000010767252839255821719_" class="st1" d="M-10.2,55.9c0,0,0,5.2,0,8.5
						c0,1.5,1.2,2.8,2.8,2.8h16c0.9,0,1.7-0.5,2.2-1.2c0.5-0.8,0.6-1.7,0.3-2.6c-1.2-2.8-3.5-6.4-7.5-7.5
						C-1.9,54.4-10.2,55.9-10.2,55.9L-10.2,55.9z"/>
				</g>
			</g>
			<g>
				<g id="Groupe_567_00000115499203009964296870000002977493871722646149_">
					<path id="Tracé_2141_00000018221017005742321110000009522546025300535700_" class="st1" d="M17.3,55.9c0,0,0,5.2,0,8.5
						c0,1.5,1.2,2.8,2.8,2.8h16c0.9,0,1.7-0.5,2.2-1.2c0.5-0.8,0.6-1.7,0.3-2.6c-1.2-2.8-3.5-6.4-7.5-7.5
						C25.6,54.4,17.3,55.9,17.3,55.9L17.3,55.9z"/>
				</g>
			</g>
			<g>
				<g id="Groupe_568_00000055681713159384586940000013280606440377424027_">
					<path id="Tracé_2142_00000007416796701784450160000007813636868400126863_" class="st0" d="M33.9-19.7h-46.6
						c0,0,1.1,60.8,1.1,74.5c0,1.4,1.1,2.5,2.5,2.5c0,0,0,0,0,0H3.2c1.4,0,2.5-1.1,2.5-2.5c0,0,0,0,0,0l1-48.9c0-3.4,7.8-3.4,7.8,0
						l1.1,48.9c0,1.4,1.1,2.5,2.5,2.5c0,0,0,0,0,0h12.2c1.4,0,2.5-1.1,2.5-2.5c0,0,0,0,0,0C32.8,41.1,33.9-19.7,33.9-19.7L33.9-19.7
						z"/>
				</g>
			</g>
			<g>
				<g id="Groupe_570_00000162348986856096639310000003293384818010091436_">
					<g>
						<g>
							<g id="Groupe_569_00000070079623159675559660000001508187285668076436_" transform="translate(18.449 57.886)">
								<path id="Tracé_2143_00000158710668628770386500000003331338433702382224_" class="st1" d="M-8.6-51.8
									c-0.6,0-1.1-0.5-1.2-1.1c0-0.6,0.5-1.2,1.1-1.2c0,0,0,0,0,0c0,0,1-0.1,2.3-0.3c0.7,0,1.5-0.1,2.3-0.1c0.5,0,0.9,0,1.4,0
									c1.8,0.1,3.2,0.3,3.2,0.3c0.6,0,1.2,0.5,1.2,1.2c0,0.6-0.5,1.2-1.2,1.2c0,0-1.4,0.2-3.2,0.3c-0.4,0-0.9,0-1.4,0
									c-0.8,0-1.6-0.1-2.3-0.1C-7.6-51.6-8.6-51.8-8.6-51.8L-8.6-51.8z"/>
							</g>
						</g>
					</g>
				</g>
			</g>
			<g>
				<g id="Groupe_571_00000005966995862578955810000012918196995893245583_">
					<path id="Tracé_2145_00000089540171887982660150000000870446597152612751_" class="st1" d="M-0.4-11.5c0.4,0,0.8,0.4,0.7,0.8
						c0,1.7-0.3,3.3-0.8,4.9C-1-4.2-1.9-2.8-3.1-1.5c-0.7,0.8-1.5,1.4-2.4,1.9C-7.6,1.5-9.9,2-12.3,1.9c-0.4,0-0.8-0.4-0.8-0.8
						c0-0.4,0.4-0.8,0.8-0.8c0,0,0,0,0,0c2,0,4-0.6,5.8-1.6c0.7-0.5,1.3-1,1.9-1.6c1-1,1.8-2.3,2.3-3.6c0.6-1.4,0.9-2.8,1.1-4.2
						C-1.2-11.2-0.9-11.6-0.4-11.5z"/>
				</g>
			</g>
			<g>
				<g id="Groupe_572_00000156560255058187394200000014953825108437383818_">
					<path id="Tracé_2146_00000119103424745665797200000016501815987275068821_" class="st1" d="M26.8-10.8c0-0.4,0.3-0.7,0.7-0.7
						c0.4,0,0.8,0.3,0.8,0.7c0,0,0,0,0,0c0.2,1.7,0.4,3.3,0.8,4.9c0.2,0.6,0.4,1.3,0.6,1.9c0.1,0.4,0.3,0.8,0.4,1.2
						c0.7,1.6,1.6,2.9,3.3,3c0.4,0,0.8,0.4,0.8,0.8c0,0.4-0.4,0.8-0.8,0.8c0,0,0,0,0,0c-2.4,0.1-4.1-1.5-5.2-3.7
						c-0.2-0.4-0.4-0.9-0.6-1.4c-0.2-0.7-0.4-1.4-0.6-2.1C26.9-7.2,26.8-9,26.8-10.8L26.8-10.8z"/>
				</g>
			</g>
			<g>
				<g id="Groupe_573_00000052096169448778529450000004391471483308262062_">
					<path id="Tracé_2147_00000172409332232355847950000012650740495732390842_" class="st1" d="M-28.4-25.5
						c0,4.9,0.1,10.3,0.6,16.1c0.3,4.4,4.3,4.1,8.7,3.7s7.9-0.5,7.6-4.9c0,0,0-0.1,0-0.2c0-0.2,0-0.4,0-0.6h0l44.2-0.2
						c1.3,0,2.3-1,2.3-2.3c0.3-11.6-0.6-31.3-0.9-38C34-53,34.9-54,36.1-54.1c0,0,0.1,0,0.1,0c6.7,0.1,13.2-0.1,18.9-0.3v-19.5
						c-1.5-0.1-3-0.2-4.8-0.2c-2.4-0.1-4.5-0.2-6.4-0.3c-8.3-0.5-10.6-0.7-22.1-1.7c0,0-6-0.5-9.3-0.4C-24.7-76.1-26.6-49.7-27.2-45
						C-28-38.6-28.4-32-28.4-25.5z"/>
				</g>
			</g>
			<g>
				<g id="Groupe_574_00000097468289859144986840000016517082623114888631_">
					<path id="Tracé_2148_00000070098517832332826600000015402368138606464646_" class="st2" d="M80.1-71.1c-1.7,0.9-3,2.4-3.4,4.2
						c-1.2,4,3.7,12.2,9.6,10c0.9-0.3,1.7-0.8,2.4-1.5c0.6-0.5,1.5-0.5,2,0.1c0,0,0,0,0,0c1,1.1,2.1,2.2,3.2,3.2
						c1.4,1.2,2.5,0.9,3.2,0.3c0.6-0.5,1.2-1.7-0.4-3.8c-5.5-7.1-6.7-12.3-11.6-13.2C83.5-72.2,81.7-72,80.1-71.1z"/>
				</g>
			</g>
			<g>
				<g id="Groupe_575_00000066514690441844610960000011902847198160333744_">
					<path id="Tracé_2149_00000126301493417562849730000007882256530693244316_" class="st21" d="M34.6-49c-0.4,0-0.7-0.2-0.7-0.4
						c0,0-0.1-0.8-0.2-1.9c0-0.6-0.1-1.2-0.1-1.8c0-0.4,0-0.7,0-1.1c0-1.4-0.1-2.5-0.1-2.5c0-0.2,0.2-0.5,0.7-0.6
						c0.4-0.1,0.8,0,0.8,0.3c0.2,0.9,0.4,1.8,0.5,2.7c0.1,0.4,0.1,0.8,0.1,1.2c0,0.7,0,1.3,0,1.9c-0.1,1.1-0.1,1.9-0.1,1.9
						C35.4-49.3,35-49,34.6-49z"/>
				</g>
			</g>
			<g>
				<g id="Groupe_576_00000098196573533070193460000003899488242157878684_">
					<path id="Tracé_2150_00000050644671180495689570000006062132331746274705_" class="st1" d="M-13.1,22.2v-37H35v37
						c0,1.5-1.3,2.8-2.8,2.8h0h-42.5C-11.8,25-13.1,23.7-13.1,22.2C-13.1,22.2-13.1,22.2-13.1,22.2z"/>
				</g>
			</g>
			<g>
				<g id="Groupe_577_00000045608870150672613160000008871264839437647278_">
					<path id="Tracé_2151_00000159453913721276274670000005260589654379091388_" class="st2" d="M-12.2-8.6l-13.7,1.2
						C-28.2,7.5-12.5,8.7-11.3,4.2C-10.2-0.1-10.5-4.5-12.2-8.6z"/>
				</g>
			</g>
			<g>
				<g id="Groupe_578_00000159446282071295266580000009618857618775548576_">
					<path id="Tracé_2152_00000008129451131273379460000016729613660947648701_" class="st0" d="M-12.4-26.5
						c0,0.2,0.6,11.8,0.8,15.1c0,0.3,0,0.5,0,0.6s0,0.2,0,0.2c0.3,4.4-3.1,4.5-7.6,4.9s-8.4,0.7-8.7-3.7c-0.4-5.8-0.6-11.2-0.6-16.1
						L-12.4-26.5z"/>
				</g>
			</g>
			<g>
				<g id="Groupe_579_00000094602175765680178870000014332280554390353074_">
					<path id="Tracé_2153_00000068670641386750213910000005095933380021995939_" class="st1" d="M-12-24.5h-16.6
						c-1.4,0-2.5-1.1-2.5-2.5v-4.8c0-1.4,1.1-2.5,2.5-2.5H-12V-24.5L-12-24.5z"/>
				</g>
			</g>
			<g>
				<g id="Groupe_580_00000116937876026455945880000001057710494908141975_">
					<path id="Tracé_2154_00000147180098881216190410000009274841273342777013_" class="st0" d="M74.7-73.2
						c3.7,0.1,5.1,0.7,5.5,3.9c0.4,3.6,0.4,6.1,0.5,8.1c0,0.3,0,0.7,0,1c0,2.3-0.8,4.2-4.5,4.6c-2.3,0.2-10,0.4-20.1,0.8v-18.5
						C68.2-72.8,71.9-73.3,74.7-73.2z"/>
				</g>
			</g>
			<g>
				<g id="Groupe_581_00000093164206235511016330000016037679631325649312_">
					<path id="Tracé_2155_00000021089198421479595000000009332079862400716968_" class="st1" d="M49.3-55.1v-18.3
						c0-1.4,1.1-2.5,2.5-2.5h4.8c1.4,0,2.5,1.1,2.5,2.5v18.3c0,1.4-1.1,2.5-2.5,2.5h-4.8C50.4-52.6,49.3-53.7,49.3-55.1z"/>
				</g>
			</g>
			<g>
				<g id="Groupe_582_00000021079289273162381800000017344744420787367814_">
					<path id="Tracé_2156_00000116232047095655800900000012813803031495015317_" class="st0" d="M4.3-76.6c-2.1,0.4-4.2,0.4-5,2.6
						c-0.4,1,0.2,4.2,4.1,9.2c3.4,4.4,5.6,6.2,8.6,9.8c1.8,2.2,3.4,4.5,4.9,6.8c1-3.3,2.2-7.8,4.3-14.6c1.9-6.1,3.2-7.6,2.2-11
						C21.8-78.9,10.6-77.8,4.3-76.6z"/>
				</g>
			</g>
			<g>
				<g id="Groupe_583_00000122701024920929864280000017621530464522961058_">
					<path id="Tracé_2157_00000107551833011448657970000014244971120064282293_" class="st21" d="M-0.6-75c-0.4-0.1-1,0.7-1,2
						c0,0,0,0.3,0,0.7c0,0.7,0.1,1.3,0.2,2c0.2,1,0.5,1.9,1,2.8c0.6,1.1,1.2,2.1,2,3c1.6,2.1,3.6,4.4,5.7,6.6l3.5,3.9
						c1.1,1.2,2.1,2.4,3,3.5c0.8,1,1.4,2,2.1,3.1c0.4,0.7,0.8,1.5,1.1,2.3c0.2,0.6,0.3,0.9,0.3,0.9c0.4,1,0.9,1.8,1.3,1.7
						c0.4-0.1,0.5-1.1,0.1-2.2c0,0-0.1-0.3-0.3-0.9c-0.3-0.8-0.7-1.7-1.1-2.5c-0.6-1.2-1.3-2.3-2.1-3.4c-0.9-1.2-1.9-2.5-3-3.8
						c-1.1-1.3-2.3-2.7-3.5-4c-2-2.2-4.1-4.4-5.7-6.4c-0.7-0.9-1.3-1.8-1.9-2.7c-0.4-0.7-0.7-1.5-0.9-2.3C0.1-71,0-71.4,0-71.7
						c0-0.3,0-0.5-0.1-0.7c0-0.4,0-0.6,0-0.6C0-74-0.2-74.9-0.6-75z"/>
				</g>
			</g>
			<g>
				<g id="Groupe_584_00000041995817322187441720000010979910749348855740_">
					<path id="Tracé_2158_00000024697142354353583400000006843672593713835956_" class="st21" d="M19.6,22L19.6,22l0-1.7
						c0-0.5-0.4-0.8-0.8-0.8c0,0,0,0,0,0l0,0c-0.5,0-0.8,0.4-0.8,0.8c0,0,0,0,0,0l0,1.7c0,0.5,0.4,0.8,0.8,0.8c0,0,0,0,0,0l0,0
						C19.3,22.8,19.6,22.5,19.6,22z M19.6,17l0-1.7c0-0.5-0.4-0.8-0.8-0.8c0,0,0,0,0,0l0,0c-0.2,0-0.5,0.1-0.6,0.2
						c-0.1,0.2-0.2,0.4-0.2,0.6V17c0,0.5,0.4,0.8,0.8,0.8c0,0,0,0,0,0l0,0C19.2,17.8,19.5,17.4,19.6,17L19.6,17z M19.5,11.9v-1.7
						c0-0.5-0.4-0.8-0.8-0.8c0,0,0,0,0,0l0,0c-0.2,0-0.4,0.1-0.6,0.2c-0.1,0.2-0.2,0.4-0.2,0.6v1.7c0,0.5,0.4,0.8,0.8,0.8
						c0,0,0,0,0,0l0,0C19.1,12.8,19.5,12.4,19.5,11.9L19.5,11.9z M19.5,6.9V5.2c0-0.5-0.4-0.8-0.8-0.8c0,0,0,0,0,0l0,0
						c-0.2,0-0.4,0.1-0.6,0.2c-0.1,0.2-0.2,0.4-0.2,0.6v1.7c0,0.5,0.4,0.8,0.8,0.8c0,0,0,0,0,0l0,0C19.1,7.7,19.4,7.3,19.5,6.9
						L19.5,6.9z M19.4,1.9V0.2c0-0.5-0.4-0.8-0.8-0.8c0,0,0,0,0,0l0,0c-0.2,0-0.4,0.1-0.6,0.2c-0.1,0.2-0.2,0.4-0.2,0.6v1.7
						c0,0.5,0.4,0.8,0.8,0.8c0,0,0,0,0,0l0,0C19,2.7,19.3,2.3,19.4,1.9L19.4,1.9z M19.3-3.2L19.3-3.2l0-1.7c0-0.5-0.4-0.8-0.8-0.8
						c0,0,0,0,0,0l0,0c-0.5,0-0.8,0.4-0.8,0.8c0,0,0,0,0,0l0,1.7c0,0.5,0.4,0.8,0.8,0.8c0,0,0,0,0,0l0,0C18.9-2.4,19.3-2.7,19.3-3.2
						L19.3-3.2z M19.2-8.3L19.2-8.3l0-1.7c0-0.5-0.4-0.8-0.8-0.8c0,0,0,0,0,0l0,0c-0.5,0-0.8,0.4-0.8,0.8c0,0,0,0,0,0l0,1.7
						c0,0.5,0.4,0.8,0.8,0.8c0,0,0,0,0,0l0,0C18.8-7.4,19.2-7.8,19.2-8.3C19.2-8.3,19.2-8.3,19.2-8.3L19.2-8.3z M19.2-13.3V-15
						c0-0.5-0.4-0.8-0.8-0.8c0,0,0,0,0,0l0,0c-0.2,0-0.5,0.1-0.6,0.2c-0.1,0.2-0.2,0.4-0.2,0.6v1.7c0,0.5,0.4,0.8,0.8,0.8
						c0,0,0,0,0,0l0,0C18.8-12.5,19.2-12.9,19.2-13.3C19.2-13.3,19.2-13.3,19.2-13.3L19.2-13.3z"/>
				</g>
			</g>
			<g>
				<g id="Groupe_585_00000073693302880227520550000000769794593029146303_">
					<path id="Tracé_2159_00000098215267903592700970000000590480038434930111_" class="st21" d="M17.9-47.9L17.9-47.9l0.4-1.6
						c0.1-0.4-0.1-0.9-0.6-1c0,0,0,0,0,0l0,0c-0.4-0.1-0.9,0.1-1,0.6c0,0,0,0,0,0l-0.4,1.6c-0.1,0.4,0.1,0.9,0.6,1c0,0,0,0,0,0l0,0
						C17.2-47.2,17.7-47.5,17.9-47.9z M19.3-52.8l0.4-1.6c0.1-0.4-0.1-0.9-0.6-1c0,0,0,0,0,0l0,0c-0.2-0.1-0.5-0.1-0.6,0
						c-0.2,0.1-0.3,0.3-0.4,0.5l-0.5,1.6c-0.1,0.4,0.1,0.9,0.6,1c0,0,0,0,0,0l0,0C18.6-52.1,19.1-52.3,19.3-52.8L19.3-52.8z
						 M20.6-57.6l0.5-1.6c0.1-0.4-0.1-0.9-0.6-1c0,0,0,0,0,0l0,0c-0.2-0.1-0.4,0-0.6,0c-0.2,0.1-0.3,0.3-0.4,0.5L19-58.1
						c-0.1,0.4,0.1,0.9,0.6,1c0,0,0,0,0,0l0,0C20-56.9,20.5-57.2,20.6-57.6L20.6-57.6z M22.1-62.5l0.5-1.6c0.1-0.4-0.1-0.9-0.6-1
						c0,0,0,0,0,0l0,0c-0.2-0.1-0.4,0-0.6,0c-0.2,0.1-0.3,0.3-0.4,0.5L20.5-63c-0.1,0.4,0.1,0.9,0.6,1c0,0,0,0,0,0l0,0
						C21.5-61.8,21.9-62.1,22.1-62.5L22.1-62.5z M23.4-67.3l0.5-1.6c0.1-0.4-0.1-0.9-0.6-1c0,0,0,0,0,0l0,0c-0.2-0.1-0.4,0-0.6,0
						c-0.2,0.1-0.3,0.3-0.4,0.5l-0.5,1.6c-0.1,0.4,0.1,0.9,0.6,1c0,0,0,0,0,0l0,0C22.8-66.6,23.3-66.9,23.4-67.3L23.4-67.3z
						 M24.6-72.3L24.6-72.3l-0.3-1.7c-0.1-0.5-0.5-0.8-1-0.7c0,0,0,0,0,0l0,0c-0.5,0.1-0.8,0.5-0.7,1c0,0,0,0,0,0l0.3,1.7
						c0.1,0.5,0.5,0.8,1,0.7c0,0,0,0,0,0l0,0C24.3-71.4,24.6-71.8,24.6-72.3L24.6-72.3z"/>
				</g>
			</g>
			<g>
				<g id="Groupe_586_00000122710112915272141050000006735712529633499310_">
					<path id="Tracé_2160_00000005962868971951354710000017446734785327082373_" class="st21" d="M19.1-18.4v-1.7
						c0-0.5-0.4-0.8-0.8-0.8c0,0,0,0,0,0l0,0c-0.2,0-0.4,0.1-0.6,0.2c-0.1,0.2-0.2,0.4-0.2,0.6v1.7c0,0.5,0.4,0.8,0.8,0.8
						c0,0,0,0,0,0l0,0C18.7-17.6,19.1-17.9,19.1-18.4z M19-23.4v-1.7c0-0.5-0.4-0.8-0.8-0.8c0,0,0,0,0,0l0,0c-0.2,0-0.4,0.1-0.6,0.2
						c-0.1,0.2-0.2,0.4-0.2,0.6v1.7c0,0.5,0.4,0.8,0.8,0.8c0,0,0,0,0,0l0,0C18.7-22.6,19-22.9,19-23.4L19-23.4z M19-28.4L19-28.4
						l0-1.7c0-0.5-0.4-0.8-0.8-0.8c0,0,0,0,0,0l0,0c-0.5,0-0.8,0.4-0.8,0.8c0,0,0,0,0,0l0,1.7c0,0.5,0.4,0.8,0.8,0.8c0,0,0,0,0,0
						l0,0C18.6-27.6,18.9-28,19-28.4L19-28.4z M18.9-33.5L18.9-33.5l0-1.7c0-0.5-0.4-0.8-0.8-0.8c0,0,0,0,0,0l0,0
						c-0.5,0-0.8,0.4-0.8,0.8c0,0,0,0,0,0l0,1.7c0,0.5,0.4,0.8,0.8,0.8c0,0,0,0,0,0l0,0C18.5-32.7,18.9-33.1,18.9-33.5
						C18.9-33.5,18.9-33.5,18.9-33.5L18.9-33.5z M18.9-38.6v-1.7c0-0.5-0.4-0.8-0.8-0.8c0,0,0,0,0,0l0,0c-0.2,0-0.5,0.1-0.6,0.2
						c-0.1,0.2-0.2,0.4-0.2,0.6v1.7c0,0.5,0.4,0.8,0.8,0.8c0,0,0,0,0,0l0,0C18.5-37.7,18.9-38.1,18.9-38.6
						C18.9-38.6,18.9-38.6,18.9-38.6L18.9-38.6z"/>
				</g>
			</g>
			<g>
				<g id="Groupe_587_00000137133250268698048740000009024914050017641906_">
					<path id="Tracé_2161_00000016754545751802117890000001080737281845143485_" class="st21" d="M-1.3-74.4
						c0.3-0.4,0.4-0.7,0.3-0.9c-0.1-0.1-0.5-0.1-0.9,0c-0.3,0.1-0.5,0.3-0.8,0.4C-3-74.6-3.3-74.3-3.5-74c-0.8,0.8-1.4,1.7-2,2.6
						c-0.6,1-1.2,2.1-1.8,3.1c-0.3,0.6-0.6,1.2-0.9,1.9l-0.5,1L-9-64.8c-0.1,0.2-0.2,0.5-0.2,0.7c-0.4,1.6,0,3.3,1.2,4.5l1,1l4,4.1
						c1.6,1.7,3.2,3.2,4.7,4.7l11,10.8c1,0.9,2.1,1.6,2.3,1.3c0.2-0.3-0.3-1.3-1.3-2.4L2.9-51.2c-1.5-1.6-3.1-3.2-4.6-4.8l-4-4l-1-1
						c-0.2-0.2-0.4-0.5-0.6-0.8c-0.3-0.6-0.3-1.3-0.1-1.9c0-0.1,0.1-0.3,0.2-0.4l0.2-0.5l0.4-1c0.3-0.7,0.6-1.3,0.9-1.9
						c0.6-1.2,1.1-2.2,1.6-3c0.4-0.6,0.8-1.2,1.2-1.8c0.2-0.2,0.3-0.4,0.4-0.5l0.1-0.2C-2-73.5-1.6-73.9-1.3-74.4z"/>
				</g>
			</g>
			<g>
				<g id="Groupe_588_00000180333650046692802970000008275790904626815133_">
					<path id="Tracé_2162_00000043450800400661664860000007991057456332586126_" class="st21" d="M-9.8-52.7c0.1-0.4,0.5-0.7,1-0.7
						c0.4,0.2,0.6,0.6,0.5,1c-1.2,5.1-2,10.3-2.3,15.6c-0.1,1.2-0.1,2.5-0.2,3.8c-0.1,1.8-0.2,3.7-0.2,5.7
						c-0.1,4.3-0.1,9.1,0.2,14.2c0,0.4-0.3,0.8-0.7,0.8c-0.4,0-0.8-0.3-0.8-0.7c-0.4-5-0.7-9.7-0.7-14c0-2.1,0-4.1,0.1-6
						c0.2-3.3,0.5-6.7,1-9.9C-11.4-46.2-10.7-49.5-9.8-52.7L-9.8-52.7z"/>
				</g>
			</g>
		</g>
		<g id="Groupe_591_00000050654248987061717030000016564883468670337684_" transform="translate(79.878 88.886)">
			<g>
				<g id="Groupe_590_00000081648165769226475250000011492548558744791969_">
					<path id="Tracé_2163_00000086660350757737062280000012452418653862684839_" class="st2" d="M-31.1-63.1
						c0,3.9-0.3,11.4,0.9,17.8c1,4.9,2.3,6.9,5.9,7.6c0,0,0,1.6,0,2.5c0,0.6,0.4,1.2,1.1,1.3c2.8,0.4,5.6,0.5,8.3,0.6
						c2.8,0,5.6-0.2,8.3-0.6c0.6-0.1,1.1-0.7,1.1-1.3c0-0.9,0-2.5,0-2.5c3.2-0.7,5-2.8,6-7.7c1.2-6.4,0.8-13.9,0.8-17.7
						c0-8.8-7.4-14.4-16.2-14.5C-23.7-77.4-31.1-71.8-31.1-63.1z"/>
				</g>
			</g>
		</g>
		<g id="Groupe_593_00000136387314109828202700000004618592807425518724_" transform="translate(87.568 107.606)">
			<g>
				<g id="Groupe_592_00000130611658515049085430000015169937860582904489_">
					<path id="Tracé_2164_00000153701681562199081060000008122420629232477829_" class="st1" d="M-26.1-64.4c0,0.7,0.6,1.2,1.2,1.2
						c0,0,0,0,0,0c1,0.2,2.1,0.3,3.2,0.3c1,0,2-0.1,3-0.2c0.7,0,1.2-0.5,1.2-1.2c0,0,0,0,0,0c0-0.8-1.9-3-4.5-3
						C-24-67.4-26.1-65.2-26.1-64.4z"/>
				</g>
			</g>
		</g>
		<path id="Tracé_2165_00000137125290484751921510000006452965471984060802_" class="st1" d="M58,30.5c-0.5-0.7-1.4-0.8-2.1-0.3
			c-0.6,0.5-0.8,1.3-0.4,2c0.1,0.4,0.3,0.9,0.6,1.2c0.2,0.4,0.6,0.7,0.9,1c0.5,0.7,1.4,0.8,2.1,0.4c0.7-0.5,0.8-1.4,0.4-2.1l0,0
			c-0.1-0.4-0.3-0.9-0.6-1.2C58.7,31.1,58.4,30.8,58,30.5L58,30.5z"/>
		<g id="Groupe_595_00000027579972053718441000000005621764321097523586_" transform="translate(79.566 185.293)">
			<g>
				<g>
					<defs>
						<rect id="SVGID_00000088854739147139249520000003721262009137581187_" x="-31.1" y="-77.6" width="18.1" height="35.3"/>
					</defs>
					<clipPath id="SVGID_00000051357454748726131920000007721764263137940654_">
						<use xlink:href="#SVGID_00000088854739147139249520000003721262009137581187_"  style="overflow:visible;"/>
					</clipPath>
					
						<g id="Groupe_594_00000047030441613496313920000006582464446217884032_" style="clip-path:url(#SVGID_00000051357454748726131920000007721764263137940654_);">
						<path id="Tracé_2166_00000163049716015098110120000009936040913701944200_" class="st1" d="M-31.1-46.9
							c0,1.2,0.5,2.4,1.3,3.3c0.9,0.9,2,1.3,3.2,1.3h9c2.5,0,4.6-2.1,4.6-4.6c0,0,0,0,0,0V-73c0-1.2-0.5-2.4-1.3-3.3
							c-0.9-0.9-2-1.3-3.2-1.3h-9c-2.5,0-4.6,2.1-4.6,4.6c0,0,0,0,0,0L-31.1-46.9z"/>
					</g>
				</g>
			</g>
		</g>
		<g id="Groupe_600_00000002378557433201696150000018039908700977407165_" transform="translate(53.749 203.475)">
			<g>
				<g>
					<defs>
						
							<rect id="SVGID_00000022562980983739987970000008013597685839014833_" x="-25.1" y="-72.6" transform="matrix(0.9664 -0.2571 0.2571 0.9664 15.6949 -5.1113)" width="26.8" height="20"/>
					</defs>
					<clipPath id="SVGID_00000009571921110164195360000007475335717004172421_">
						<use xlink:href="#SVGID_00000022562980983739987970000008013597685839014833_"  style="overflow:visible;"/>
					</clipPath>
					
						<g id="Groupe_596_00000014630326916537677760000009255969145761412747_" transform="translate(1.954 0.97)" style="clip-path:url(#SVGID_00000009571921110164195360000007475335717004172421_);">
						<path id="Tracé_2167_00000162354019190796589960000007881172701722549159_" class="st2" d="M-5-71.9c-4.5,0-16.6,0-21.1-0.1
							c-1,0-1.7,0.8-1.7,1.7c0,2.9,0,8.6,0,11.4c0,1,0.8,1.7,1.7,1.7C-21.7-57.1-9.6-57-5-57c1,0,1.7-0.8,1.7-1.7
							c0-2.9,0-8.6,0-11.4C-3.3-71.1-4.1-71.9-5-71.9z"/>
					</g>
				</g>
			</g>
			<g>
				<g>
					<defs>
						
							<rect id="SVGID_00000034788906821568124870000006569330227525728938_" x="-25.1" y="-72.6" transform="matrix(0.9664 -0.2571 0.2571 0.9664 15.6949 -5.1113)" width="26.8" height="20"/>
					</defs>
					<clipPath id="SVGID_00000098935037002630938970000002931367830571379111_">
						<use xlink:href="#SVGID_00000034788906821568124870000006569330227525728938_"  style="overflow:visible;"/>
					</clipPath>
					
						<g id="Groupe_597_00000075862987485249288360000017068048675203144064_" transform="translate(1.954 0.97)" style="clip-path:url(#SVGID_00000098935037002630938970000002931367830571379111_);">
						<path id="Tracé_2168_00000080897967653750882250000016164206571155020972_" class="st1" d="M-24.4-70.4l0,11.7l17.5,0l0-11.7
							L-24.4-70.4z"/>
					</g>
				</g>
			</g>
			<g>
				<g>
					<defs>
						
							<rect id="SVGID_00000136399448598317604110000004962725757412507521_" x="-25.1" y="-72.6" transform="matrix(0.9664 -0.2571 0.2571 0.9664 15.6949 -5.1113)" width="26.8" height="20"/>
					</defs>
					<clipPath id="SVGID_00000099658159636702178590000013979422863574564009_">
						<use xlink:href="#SVGID_00000136399448598317604110000004962725757412507521_"  style="overflow:visible;"/>
					</clipPath>
					
						<g id="Groupe_598_00000032641247231491671150000017128019448339654273_" transform="translate(1.954 0.97)" style="clip-path:url(#SVGID_00000099658159636702178590000013979422863574564009_);">
						<path id="Tracé_2169_00000031207440255290576490000010215911775122012313_" class="st1" d="M-5.2-62.9c0.3,0,0.6-0.3,0.6-0.6
							l0-1.2c0-0.3-0.3-0.6-0.6-0.6c-0.3,0-0.6,0.3-0.6,0.6l0,1.2C-5.8-63.2-5.6-62.9-5.2-62.9C-5.3-62.9-5.2-62.9-5.2-62.9z"/>
					</g>
				</g>
			</g>
			<g>
				<g>
					<defs>
						
							<rect id="SVGID_00000080167607578094397730000015174972726859105461_" x="-20.6" y="-71.3" transform="matrix(0.7109 -0.7033 0.7033 0.7109 41.061 -22.7882)" width="26.8" height="19.9"/>
					</defs>
					<clipPath id="SVGID_00000078728132219755854540000004833727469006140317_">
						<use xlink:href="#SVGID_00000080167607578094397730000015174972726859105461_"  style="overflow:visible;"/>
					</clipPath>
					
						<g id="Groupe_599_00000173853010201151913840000004879369064789244558_" transform="matrix(0.966, -0.257, 0.257, 0.966, 0, 7.975)" style="clip-path:url(#SVGID_00000078728132219755854540000004833727469006140317_);">
						
							<ellipse id="Ellipse_208_00000035527837804191632340000008886130354000001426_" transform="matrix(-1 5.036902e-06 -5.036902e-06 -1 31.4218 -144.0845)" class="st1" cx="15.7" cy="-72" rx="0.6" ry="0.6"/>
					</g>
				</g>
			</g>
		</g>
		<g id="Groupe_604_00000134232396548970369630000011010934389373459384_" transform="translate(61.159 203.701)">
			<g>
				<g>
					<defs>
						<rect id="SVGID_00000080926081729124170380000016827871664196548762_" x="-31.1" y="-77.6" width="13.4" height="12.2"/>
					</defs>
					<clipPath id="SVGID_00000169526912401916258480000002373206254931488922_">
						<use xlink:href="#SVGID_00000080926081729124170380000016827871664196548762_"  style="overflow:visible;"/>
					</clipPath>
					
						<g id="Groupe_603_00000146461767348408373650000005301059618515236009_" style="clip-path:url(#SVGID_00000169526912401916258480000002373206254931488922_);">
						<g>
							<g>
								<defs>
									<rect id="SVGID_00000058569564109772252660000010513882569764381336_" x="-31.1" y="-81.3" width="13.4" height="13.4"/>
								</defs>
								<clipPath id="SVGID_00000183228328191901326490000002862006185110162311_">
									<use xlink:href="#SVGID_00000058569564109772252660000010513882569764381336_"  style="overflow:visible;"/>
								</clipPath>
								
									<g id="Groupe_601_00000018921589618911574510000015189776371509159600_" transform="translate(0 -1.872)" style="clip-path:url(#SVGID_00000183228328191901326490000002862006185110162311_);">
									
										<circle id="Ellipse_209_00000085944101649992065300000015980984452937717125_" class="st2" cx="-24.4" cy="-70.9" r="5.3"/>
								</g>
							</g>
						</g>
						<g>
							<g>
								<defs>
									<rect id="SVGID_00000176760387234328582930000005778914287191834779_" x="-31.1" y="-81.3" width="13.4" height="13.4"/>
								</defs>
								<clipPath id="SVGID_00000150063198485156839910000015505385844163286171_">
									<use xlink:href="#SVGID_00000176760387234328582930000005778914287191834779_"  style="overflow:visible;"/>
								</clipPath>
								
									<g id="Groupe_602_00000036945631689070802360000007375867882425491851_" transform="translate(0 -1.872)" style="clip-path:url(#SVGID_00000150063198485156839910000015505385844163286171_);">
									<path id="Tracé_2170_00000011027879482362922290000002692330886311777979_" class="st2" d="M-17.7-70.9
										c0-3.7-3-6.7-6.7-6.7s-6.7,3-6.7,6.7s3,6.7,6.7,6.7C-20.7-64.2-17.7-67.2-17.7-70.9z M-28.4-70.9c0-2.2,1.8-4,4-4
										c2.2,0,4,1.8,4,4c0,2.2-1.8,4-4,4l0,0C-26.6-66.9-28.4-68.7-28.4-70.9C-28.4-70.9-28.4-70.9-28.4-70.9z"/>
								</g>
							</g>
						</g>
					</g>
				</g>
			</g>
		</g>
		<path id="Tracé_2171_00000130622583943819228260000014838935004316057259_" class="st1" d="M76.9,32.2c0.4-0.7,0.2-1.6-0.4-2
			c-0.7-0.4-1.5-0.3-2,0.4c-0.4,0.3-0.7,0.6-0.9,1c-0.3,0.4-0.5,0.8-0.6,1.2c-0.4,0.7-0.2,1.6,0.4,2c0.7,0.4,1.5,0.3,2-0.4
			c0.4-0.3,0.7-0.6,0.9-1C76.6,33.1,76.8,32.7,76.9,32.2z"/>
		<path id="Tracé_2172_00000052067967008097246250000016654315114683282102_" class="st1" d="M61.1,51.8c1.2,0.5,2.5,0.9,3.8,0.9
			c1.4,0,2.8-0.3,4.1-0.9c0.5-0.1,0.7-0.6,0.6-1c-0.1-0.4-0.4-0.7-0.8-0.7c-0.1,0-0.2,0-0.3,0c-1.2,0.2-2.4,0.3-3.6,0.3
			c-1.2,0-2.4-0.1-3.6-0.4c-0.1,0-0.1,0-0.2,0c-0.5,0-0.9,0.4-0.9,0.9l0,0C60.4,51.4,60.7,51.7,61.1,51.8z"/>
		<path id="Tracé_2173_00000024689365677571929240000002132898607648371348_" class="st2" d="M247.6,124.6
			c-2.2,14.9,12.8,16,14,11.5c1.1-4.2,0.7-8.7-0.9-12.8L247.6,124.6z"/>
		<path id="Tracé_2174_00000125571347255608166750000013674874458523536008_" class="st1" d="M304.1,188.2c0,0,0,5.2,0,8.6
			c0,1.5-1.2,2.8-2.7,2.8h-15.9c-0.9,0-1.7-0.5-2.2-1.2c-0.5-0.8-0.6-1.7-0.3-2.6c1.2-2.9,3.4-6.5,7.5-7.5
			C295.9,186.8,304.1,188.2,304.1,188.2L304.1,188.2z"/>
		<path id="Tracé_2175_00000152224853275212523120000000147260776016649128_" class="st1" d="M276.9,188.2c0,0,0,5.2,0,8.6
			c0,1.5-1.2,2.8-2.7,2.8h-15.9c-0.9,0-1.7-0.5-2.2-1.2c-0.5-0.8-0.6-1.7-0.3-2.6c1.2-2.9,3.4-6.5,7.5-7.5
			C268.7,186.8,277,188.2,276.9,188.2L276.9,188.2z"/>
		<path id="Tracé_2176_00000152947333064542877650000017131520654994695583_" class="st0" d="M306,112.9c0,0-1.1,60.9-1.1,74.6
			c0,1.4-1.1,2.5-2.5,2.5c0,0,0,0,0,0c-3.7,0-7.1,0.8-10.8,0.8c-2,0.1-3.7-1.4-3.9-3.3l-1-48.9c0-3.4-7.8-3.4-7.8,0l-1.1,48.9
			c0,1.4-1.1,2.5-2.5,2.5c0,0,0,0,0,0c-3.7,0-8.5,0.9-12.2,0.8c-1.5,0-2.5-1.9-2.5-3.3c0-13.6-1.1-74.6-1.1-74.6H306z"/>
		<path id="Tracé_2177_00000052100085641651472810000007357397932626120366_" class="st2" d="M303.9,131.2c0.1-2.5,0.6-4.9,1.5-7.2
			h0.1l13.6,1.2c2.3,14.9-13.3,16.1-14.5,11.6C304.1,135,303.8,133.1,303.9,131.2z"/>
		<path id="Tracé_2178_00000092448998868711765020000014088376354516347299_" class="st1" d="M259.8,125.7
			c-1.7,0.4-3.4,0.6-5.1,0.6c-4.5,0.3-8.4,0.7-8.7-3.7c-0.9-11.4-0.7-22.8,0.6-34.1c1-8.7,3-17.4,5.8-25.7c0.4-1.1,1.3-1.9,2.4-2.1
			c3-0.6,8.9-2.1,12-2.8c0.4-0.1,0.8-0.4,1-0.7c0.9-1.1,1.8-2.5,2.5-3.4c0.3-0.4,0.8-0.6,1.3-0.7c6.7-0.8,13.4-0.9,20.1-0.3
			c0.5,0.1,0.9,0.3,1.2,0.6c0.9,1,1.8,2,2.6,3c0.3,0.4,0.7,0.6,1.1,0.7c3.5,0.6,9.4,2,12.4,2.5c1,0.2,1.9,0.8,2.3,1.7
			c2.4,4.7,4.6,9.6,6.3,14.6c3.2,10.3,5,25,3.5,47.3c-0.3,4.4-4.2,4.1-8.7,3.7s-7.9-0.5-7.5-4.9c0-0.3,0-0.6,0-0.8h-45.2
			L259.8,125.7z"/>
		<path id="Tracé_2179_00000008127927828800729560000007273799251712144827_" class="st1" d="M273.2,137.6c0,0.6,0.5,1.2,1.1,1.2
			c0,0,0,0,0,0c0,0,1.4,0.2,3.2,0.3c0.4,0,0.9,0,1.3,0l0-0.7c0-1.2,0.9-1.9,2.1-2.3c-0.7,0-1.4-0.1-2.1-0.1c-0.5,0-0.9,0-1.4,0
			c-1.8,0.1-3.2,0.3-3.2,0.3C273.7,136.4,273.2,136.9,273.2,137.6C273.2,137.6,273.2,137.6,273.2,137.6z"/>
		<path id="Tracé_2180_00000119811336195943139760000016358305615119225501_" class="st21" d="M303.1,79.9c-0.1-0.4-0.5-0.7-1-0.7
			c-0.4,0.2-0.6,0.6-0.5,1c1.2,5.1,2,10.3,2.3,15.6c0.1,1.2,0.1,2.5,0.2,3.8c0.1,1.8,0.2,3.7,0.2,5.7c0.1,4.3,0.1,9.1-0.2,14.3
			c-0.1,0.4,0.3,0.8,0.7,0.9s0.8-0.3,0.9-0.7c0,0,0,0,0,0c0.4-5,0.7-9.7,0.7-14c0-2.1,0-4.1-0.1-6c-0.2-3.3-0.5-6.7-1-10
			C304.7,86.4,304,83.1,303.1,79.9L303.1,79.9z"/>
		<path id="Tracé_2181_00000027579276136471952890000008404568694709258168_" class="st21" d="M258.7,118.4c0,0.4,0.3,0.7,0.7,0.8
			c0,0,0.1,0,0.1,0c0.4,0,0.8-0.4,0.7-0.8c0,0,0-4.1,0-9.6c0-2.9,0-6.3,0-9.6c0-2-0.1-3.9-0.1-5.7c-0.2-7.3-0.4-13.4-0.4-13.4
			c0-0.4-0.4-0.8-0.8-0.8c-0.4,0-0.8,0.4-0.8,0.8c0,0,0,0,0,0c0,0,0,6.1,0,13.4c0,1.9,0,3.8,0,5.7c0,3.3,0.1,6.6,0.2,9.6
			C258.6,114.3,258.7,118.4,258.7,118.4L258.7,118.4z"/>
		<path id="Tracé_2182_00000005249480165355846810000015098119290229447093_" class="st1" d="M291.5,188.5v-51.7
			c0-0.4,0.3-0.7,0.7-0.7c0.4,0,0.7,0.3,0.7,0.7c0,0,0,0,0,0v51.7c0,0.4-0.3,0.7-0.7,0.7S291.5,188.9,291.5,188.5
			C291.5,188.5,291.5,188.5,291.5,188.5L291.5,188.5z"/>
		<path id="Tracé_2183_00000095313953927198505530000004850159654527948221_" class="st1" d="M263.8,188.5v-54.1
			c0-0.4,0.3-0.7,0.7-0.7c0.4,0,0.7,0.3,0.7,0.7c0,0,0,0,0,0v54.1c0,0.4-0.3,0.7-0.7,0.7S263.8,188.9,263.8,188.5
			C263.8,188.5,263.8,188.5,263.8,188.5z"/>
		<path id="Tracé_2184_00000016760799602711653440000004050388555189803152_" class="st1" d="M305.5,120.8v3.2h-0.1
			c-1,2.3-1.5,4.7-1.5,7.2h-20.7c-0.7,0-1.3-0.5-1.5-1.1l-0.9-6c0-0.1-0.1-0.2-0.2-0.2c-0.1,0-0.1,0.1-0.2,0.2l-0.8,6
			c-0.2,0.7-0.8,1.1-1.5,1.1h-17.1c-0.9,0-1.6-0.7-1.6-1.6v0v-8.8H305.5z"/>
		<path id="Tracé_2185_00000054984650797528979690000018030044381427774397_" class="st21" d="M278.1,83.9
			c-3.7-7.9-9.8-20.5-8.3-27c0.5-2.1,2.8-2.7,10.6-2.7s13.2,0.2,13.2,2.4c0,6.8-6.5,20.1-10.1,28.1c-0.9,2-1.7,3.7-2.1,4.9
			c-0.1,0.2-0.3,0.3-0.5,0.2c-0.1,0-0.2-0.1-0.2-0.2C280.1,88.2,279.2,86.3,278.1,83.9L278.1,83.9z"/>
		<path id="Tracé_2186_00000149342224744372428770000016908451640485856670_" class="st1" d="M277.9,82.8l0.1-4l0,0l0.1-5.1l0,0
			l0.1-3.5v-0.3l4.8,0l0,2.8l0.1,4.1l0.1,5.2l0.1,4.1l0,2c-0.4,0.9-0.8,1.7-1.1,2.4c-0.4,1-0.8,1.8-1,2.4c-0.1,0.2-0.3,0.3-0.5,0.2
			c0,0,0,0-0.1,0c-0.1,0-0.1-0.1-0.1-0.2c-0.4-1.1-1.2-2.8-2.1-4.8c-0.1-0.3-0.3-0.6-0.4-0.9L277.9,82.8z"/>
		
			<ellipse id="Ellipse_210_00000000935501392230520710000008540850843633623463_" class="st0" cx="318.3" cy="121.5" rx="1.2" ry="1.2"/>
		
			<ellipse id="Ellipse_211_00000044878617976998685060000010915275114778400405_" class="st0" cx="318.6" cy="116.6" rx="1.2" ry="1.2"/>
		<path id="Tracé_2187_00000018929973771317759320000008891077984796231049_" class="st1" d="M271.2,61c-0.6-0.5-1.3-0.7-1.6-0.4
			c-0.2,0.3,0,1,0.7,1.6c0,0,0.1,0.1,0.4,0.3c0.4,0.3,0.8,0.6,1.2,0.8c1.4,0.9,3.1,1.4,4.8,1.5l0.4,0c0.4,0,0.9-0.2,1.2-0.6
			c0.2-0.2,0.4-0.4,0.6-0.6c0.3-0.4,0.7-0.8,1-1.2s0.6-0.8,1-1.1l0.1-0.1h0l0,0l0,0c0,0,0,0,0,0.1c0.1,0.1,0.2,0.2,0.3,0.4
			c0.2,0.3,0.3,0.5,0.5,0.8c0.3,0.5,0.6,1.1,1,1.7l0.3,0.4l0.1,0.2c0.1,0.1,0.2,0.2,0.3,0.3c0.2,0.2,0.4,0.4,0.7,0.4l0.8,0
			c0.1,0,0.2,0,0.3,0l0.2,0c0.2,0,0.3,0,0.5-0.1c0.3,0,0.6-0.1,0.9-0.2c1-0.2,1.9-0.5,2.9-0.9c0.6-0.3,1.3-0.6,1.9-0.9
			c0.2-0.1,0.4-0.2,0.5-0.3L292,63c0.2-0.1,0.3-0.3,0.5-0.4c0.1-0.1,0.2-0.3,0.3-0.5c0.1-0.3,0.1-0.6,0-0.7
			c-0.3-0.2-0.9-0.1-1.6,0.3l-0.1,0.1c-0.1,0.1-0.2,0.1-0.4,0.2c-0.5,0.3-1.1,0.5-1.7,0.7c-0.9,0.3-1.7,0.5-2.6,0.7
			c-0.3,0-0.5,0.1-0.8,0.1c-0.1,0-0.3,0-0.4,0l-0.2,0l-0.1,0h0l-0.1,0c0,0,0,0,0,0c0,0,0,0,0-0.1l-0.1-0.2l-0.2-0.4
			c-0.3-0.5-0.6-1.1-0.9-1.7c-0.2-0.3-0.4-0.6-0.5-0.9c-0.1-0.1-0.2-0.3-0.3-0.5c-0.2-0.2-0.4-0.5-0.7-0.7c-0.4-0.3-0.9-0.4-1.4-0.2
			c-0.2,0.1-0.5,0.2-0.6,0.4c-0.1,0.1-0.2,0.2-0.3,0.3l-0.2,0.2c-0.4,0.4-0.7,0.9-1,1.3c-0.3,0.4-0.6,0.8-0.9,1.2
			c-0.1,0.2-0.3,0.3-0.4,0.5c0,0,0,0-0.1,0h-0.2c-1.4-0.1-2.8-0.5-4.1-1.1c-0.4-0.2-0.7-0.4-1.1-0.6C271.3,61.1,271.2,61,271.2,61
			L271.2,61z"/>
		<path id="Tracé_2188_00000058585736306227158420000015451734695935481485_" class="st0" d="M278.2,70.1l4.8,3l0.1,4.1l-4.9-3.1v0
			L278.2,70.1z"/>
		<path id="Tracé_2189_00000018224408010712250280000014717605614573119926_" class="st0" d="M278,77.8l5.1,3.2l0.1,4.1l-5.2-3.3
			L278,77.8z"/>
		<path id="Tracé_2190_00000020382143008959289520000016274306597368551828_" class="st0" d="M282.4,88c-0.4,1-0.8,1.8-1,2.4
			c-0.1,0.2-0.3,0.3-0.5,0.2c0,0,0,0-0.1,0c-0.1,0-0.1-0.1-0.1-0.2c-0.4-1.1-1.2-2.8-2.1-4.8L282.4,88z"/>
		<path id="Tracé_2191_00000026127296937081599810000007881400357828533635_" class="st1" d="M277.1,66.4l0.5,3.3
			c0,0.2,0.2,0.4,0.5,0.4h5.1c0.2,0,0.4-0.2,0.5-0.4l0.5-3.3c0-0.3-0.1-0.5-0.4-0.5c0,0,0,0-0.1,0h-6.1
			C277.3,65.9,277,66.1,277.1,66.4C277,66.4,277,66.4,277.1,66.4z"/>
		<path id="Tracé_2192_00000016067639915233790460000000156611471973388214_" class="st0" d="M283.5,99c0-0.4-0.1-0.7-0.3-0.7
			c-0.4-0.1-0.8-0.1-1.2-0.2c-0.4,0-0.8-0.1-1.2-0.1c-0.2,0-0.5,0-0.7,0c-0.9,0.1-1.7,0.2-1.7,0.2c-0.1,0-0.3,0.3-0.3,0.7
			c0,0.4,0.1,0.7,0.3,0.7c0,0,0.8,0.1,1.7,0.2c0.2,0,0.5,0.1,0.7,0.1c0.4,0,0.8-0.1,1.2-0.1c0.7-0.1,1.2-0.2,1.2-0.2
			C283.3,99.9,283.5,99.5,283.5,99z"/>
		<path id="Tracé_2193_00000000224427088413528580000008965249566165031076_" class="st0" d="M283.5,111.9c0-0.4-0.1-0.7-0.3-0.7
			c-0.4-0.1-0.8-0.1-1.2-0.2c-0.4,0-0.8-0.1-1.2-0.1c-0.2,0-0.5,0-0.7,0c-0.9,0.1-1.7,0.2-1.7,0.2c-0.1,0-0.3,0.3-0.3,0.7
			c0,0.4,0.1,0.7,0.3,0.7c0,0,0.8,0.1,1.7,0.2c0.2,0,0.5,0.1,0.7,0.1c0.4,0,0.8-0.1,1.2-0.1c0.7-0.1,1.2-0.2,1.2-0.2
			C283.3,112.8,283.5,112.4,283.5,111.9z"/>
		<path id="Tracé_2194_00000066494122785782605500000007798021642052970135_" class="st2" d="M292.2,53.1c0,0,0,2.4,0,3.7
			c0,0.7-0.5,1.4-1.3,1.4c-6.2,0.9-12.5,0.9-18.7-0.1c-0.7-0.1-1.2-0.7-1.2-1.5c0-1,0.1-2.7,0.1-2.7c-1-0.3-6-1.9-7.1-7.3
			c-1.1-6.9-1.7-13.8-1.6-20.8c0-9.7,8.3-15.8,18-15.9c0.3,0-0.3,0,0,0c8.7,0.3,16,6.8,17.3,15.4c0.9,6.9,0.7,13.9-0.6,20.7
			C296.7,49.1,294.9,51.7,292.2,53.1L292.2,53.1z"/>
		<path id="Tracé_2195_00000108284549343676653480000007558436869367634858_" class="st1" d="M272.5,53.9c-0.5-0.1-1,0.2-1.1,0.7
			c0,0,0,0.1,0,0.1c-0.1,0.5,0.2,1,0.6,1.1c0,0,0,0,0,0c0.4,0.2,0.8,0.4,1.2,0.5c0.6,0.2,1.3,0.3,1.9,0.4c0.6,0,1.3,0,1.9-0.1
			c0.4-0.1,0.8-0.2,1.3-0.3c0.5,0,0.9-0.5,0.9-1c0-0.5-0.5-0.9-1-0.9c0,0,0,0,0,0c-0.4-0.1-0.8-0.2-1.2-0.2
			c-0.6-0.1-1.2-0.2-1.7-0.2c-0.7,0-1.2-0.1-1.7-0.1C272.9,53.8,272.5,53.9,272.5,53.9L272.5,53.9z"/>
		<path id="Tracé_2196_00000096048841055509196940000010457076066749552531_" class="st1" d="M254.7,15.9c-0.2,5.4,2.9,11.5,7.2,13
			c0.1,0,0.1,0,0.2,0.1c0.2,0.1,0.5-0.1,0.5-0.3c0,0,0-0.1,0-0.1c0-0.9,0-1.8,0.1-2.6l0-0.4c0-0.2,0.2-0.4,0.4-0.4
			c1.4,0,2.9-0.4,4.1-1.1c2.1-0.9,4.4-1.2,6.6-0.9c1.6,0.1,3.2,0.4,4.8,0.8c2,0.3,4,0.1,5.8-0.6c0.2-0.1,0.3,0,0.4,0.1
			c2,2.8,2.1,7.3,1.2,11.3c-0.7,3.3,4.1,3.4,3.5,0.3c-0.4-1.8-0.1-3.9,1.2-4.3c0.3-0.1,0.6-0.1,1-0.1c0.5,0.1,1,0.4,1.3,0.8
			c0.8,1.5-0.3,4.8-0.2,7.6c0,0.3,0.1,0.6,0.1,0.9c0,0.1,0.1,0.3,0.1,0.4c0.4,1,1.1,1.9,2,2.6c0.7,0.5,1.6,0.4,2.2-0.2
			c0.1-0.1,0.1-0.2,0.2-0.3c1.3-2.9,2-6,2.2-9.1l0,0c0,0,0.9-10.6-1.2-16.5c-0.5-1.4-1.7-3.6-3.7-4.1c-0.8-0.2-1.5-0.7-2-1.4
			c-2.2-3.5-6.2-5.5-11.8-5.5c-0.4,0-0.8,0-1.1,0c-1,0.1-2-0.3-2.6-1.1c-4.3-4.6-11.5-4.9-16.2-0.6c-1,0.9-1.8,2-2.5,3.3
			c-0.2,0.3-0.4,0.6-0.6,0.9C255.9,10.4,254.8,13.1,254.7,15.9L254.7,15.9z"/>
		<path id="Tracé_2197_00000176732459409181997250000002981889313804423563_" class="st1" d="M264.3,32c-0.6,0.5-0.7,1.3-0.3,1.9
			c0.1,0.4,0.3,0.8,0.6,1.2c0.2,0.4,0.6,0.7,0.9,0.9c0.4,0.6,1.3,0.8,1.9,0.4c0.6-0.4,0.8-1.3,0.4-1.9c0,0-0.1-0.1-0.1-0.1
			c-0.1-0.4-0.4-0.8-0.6-1.2c-0.2-0.4-0.6-0.7-0.9-0.9C265.8,31.7,264.9,31.5,264.3,32z"/>
		<path id="Tracé_2198_00000060012220537738951790000016094389812976059014_" class="st1" d="M281.4,31.5c-0.7-0.3-1.5-0.1-1.9,0.6
			c-0.3,0.3-0.6,0.7-0.8,1.1c-0.2,0.4-0.4,0.8-0.4,1.2c-0.4,0.7-0.1,1.5,0.5,1.9c0.7,0.4,1.5,0.1,1.9-0.5c0,0,0,0,0-0.1
			c0.3-0.3,0.6-0.7,0.8-1.1c0.2-0.4,0.4-0.8,0.4-1.2C282.3,32.7,282.1,31.8,281.4,31.5z"/>
		<path id="Tracé_2199_00000119813980279302758110000000901057004548890285_" class="st1" d="M269,45.9c0,0.6,0.5,1.1,1,1.1
			c0.8,0.1,1.6,0.1,2.5,0.1c0.8-0.1,1.6-0.2,2.3-0.4c0.6-0.1,1-0.6,0.9-1.2c0,0,0,0,0,0c-0.5-1.6-2-2.6-3.7-2.7
			C270.5,43.1,269.3,44.3,269,45.9z"/>
		<path id="Tracé_2200_00000103984182097617425010000010151093762065357470_" class="st1" d="M207.9,99.2c0.4-1.1-0.2-2.4-1.3-2.8
			c-3.4-1.2-14.5-5.1-17.9-6.3c-1.1-0.4-2.4,0.2-2.8,1.3c-1.9,5.4-7,19.8-8.9,25.1c-0.4,1.1,0.2,2.4,1.3,2.8
			c3.4,1.2,14.5,5.1,17.9,6.3c1.1,0.4,2.4-0.2,2.8-1.3C200.9,119,205.9,104.6,207.9,99.2z"/>
		<path id="Tracé_2201_00000060729883982906527790000001998263278334698373_" class="st0" d="M204.3,100.4L187,94.6l-7.2,20.9
			l17.3,6L204.3,100.4z"/>
		
			<ellipse id="Ellipse_212_00000021094823160959910550000002867803872949073575_" transform="matrix(0.568 -0.823 0.823 0.568 6.2831 203.6161)" class="st0" cx="197.1" cy="95.8" rx="0.8" ry="0.8"/>
		<path id="Tracé_2202_00000049902870575962930580000011482993732344150160_" class="st2" d="M211.7,101.3
			c-0.3-1.2-1.5-1.8-2.7-1.5c-3.5,0.9-10.5,2.8-14,3.7c-1.2,0.3-1.9,1.5-1.6,2.7c1.5,5.5,5.5,20.2,6.9,25.7c0.3,1.2,1.5,1.8,2.7,1.5
			c3.5-0.9,10.5-2.8,14-3.7c1.2-0.3,1.9-1.5,1.6-2.7C217.2,121.5,213.2,106.8,211.7,101.3z"/>
		<path id="Tracé_2203_00000030469606661281804780000013325882380249125028_" class="st1" d="M210.4,104l-14.3,3.8l5.7,21.3
			l14.3-3.8L210.4,104z"/>
		<path id="Tracé_2204_00000034047340266146971930000012244924073738127791_" class="st1" d="M201.7,105l1.5-0.4
			c0.4-0.1,0.6-0.5,0.5-0.9s-0.5-0.6-0.9-0.5l-1.5,0.4c-0.4,0.1-0.6,0.5-0.5,0.9C200.9,104.8,201.2,105.1,201.7,105
			C201.6,105,201.7,105,201.7,105z"/>
		
			<ellipse id="Ellipse_213_00000065791995818720107040000013399948096258050968_" class="st1" cx="205.3" cy="103.3" rx="0.8" ry="0.8"/>
		<path id="Tracé_2205_00000046308487766638612650000015929535906711307701_" class="st1" d="M219.4,116.1c5.2,1.8,10.9-1,12.7-6.2
			l3-8.7c0.2-0.5-0.1-1.1-0.6-1.2l0,0l-4.7-1.6c-0.5-0.2-1.1,0.1-1.2,0.6c0,0,0,0,0,0l0,0l-2.4,6.9c-0.2,0.5,0.1,1.1,0.6,1.2l0,0
			l3.8,1.3l-0.3,0.8c-1.4,4.2-6,6.4-10.2,5c-4.2-1.4-6.4-5.9-5.1-10.1c0-0.1,0-0.1,0.1-0.1l0.3-0.8l3.8,1.3c0.5,0.2,1.1-0.1,1.2-0.6
			c0,0,0,0,0,0l0,0l2.4-6.9c0.2-0.5-0.1-1.1-0.6-1.2l0,0l-4.7-1.6c-0.5-0.2-1.1,0.1-1.2,0.6c0,0,0,0,0,0l0,0l-3,8.7
			C211.5,108.6,214.2,114.3,219.4,116.1L219.4,116.1z"/>
		<g id="Groupe_622_00000171713746765331347040000015227551096978902406_" transform="translate(194.23 191.153)">
			<g>
				<g>
					<defs>
						<rect id="SVGID_00000137091155482112091480000007710381331984501634_" x="-31.1" y="-77.6" width="79.3" height="83.7"/>
					</defs>
					<clipPath id="SVGID_00000056400071697924063820000016765032879044539810_">
						<use xlink:href="#SVGID_00000137091155482112091480000007710381331984501634_"  style="overflow:visible;"/>
					</clipPath>
					
						<g id="Groupe_605_00000140004880409914660160000012416961842828811194_" style="clip-path:url(#SVGID_00000056400071697924063820000016765032879044539810_);">
						<path id="Tracé_2206_00000178889548271532253470000006037392922915135372_" class="st1" d="M38.1,6.1H-6.2
							c-0.9,0-1.8-0.4-2.4-1l-6.6-6.6c-0.6-0.7-1-1.5-1-2.5v-57.2c0-0.9,0.4-1.8,1-2.5l6.6-6.6c0.6-0.6,1.5-1,2.4-1h44.3
							c0.9,0,1.8,0.4,2.4,1l6.6,6.6c0.6,0.7,1,1.5,1,2.5V-4c0,0.9-0.4,1.8-1,2.5L40.6,5C39.9,5.7,39,6.1,38.1,6.1z"/>
					</g>
				</g>
			</g>
			<g>
				<g>
					<defs>
						<rect id="SVGID_00000008150847244405317580000014495775677891209404_" x="-31.1" y="-77.6" width="79.3" height="83.7"/>
					</defs>
					<clipPath id="SVGID_00000048464093065493627950000000610161586093565867_">
						<use xlink:href="#SVGID_00000008150847244405317580000014495775677891209404_"  style="overflow:visible;"/>
					</clipPath>
					
						<g id="Groupe_606_00000008861783212005256730000000968772049598752646_" style="clip-path:url(#SVGID_00000048464093065493627950000000610161586093565867_);">
						<path id="Tracé_2207_00000177486668864266637770000009186362564438788522_" class="st2" d="M18.9,6.1h-40
							c-0.9,0-1.8-0.4-2.4-1l-6.6-6.6c-0.6-0.7-1-1.5-1-2.5v-57.2c0-0.9,0.4-1.8,1-2.5l6.6-6.6c0.6-0.6,1.5-1,2.4-1h40
							c0.9,0,1.8,0.4,2.4,1l6.6,6.6c0.6,0.7,1,1.5,1,2.5V-4c0,0.9-0.4,1.8-1,2.5L21.4,5C20.7,5.7,19.9,6.1,18.9,6.1z"/>
					</g>
				</g>
			</g>
			<g>
				<g>
					<defs>
						<rect id="SVGID_00000145769675995202031250000014980125665447595164_" x="-31.1" y="-77.6" width="79.3" height="83.7"/>
					</defs>
					<clipPath id="SVGID_00000124879918583421960020000004181274805820143016_">
						<use xlink:href="#SVGID_00000145769675995202031250000014980125665447595164_"  style="overflow:visible;"/>
					</clipPath>
					
						<g id="Groupe_607_00000148631366520490464280000013175655890836163746_" style="clip-path:url(#SVGID_00000124879918583421960020000004181274805820143016_);">
						<path id="Tracé_2208_00000178890569020563210780000008219336356360460434_" class="st1" d="M30-61H1c-0.5,0-0.9-0.4-0.8-0.9
							c0-0.5,0.4-0.8,0.8-0.8h29c0.5,0,0.9,0.4,0.8,0.9C30.8-61.3,30.4-61,30-61z"/>
					</g>
				</g>
			</g>
			<g>
				<g>
					<defs>
						<rect id="SVGID_00000077297511958184218800000016847956703561581502_" x="-31.1" y="-77.6" width="79.3" height="83.7"/>
					</defs>
					<clipPath id="SVGID_00000026163083256088499830000011121017867087112107_">
						<use xlink:href="#SVGID_00000077297511958184218800000016847956703561581502_"  style="overflow:visible;"/>
					</clipPath>
					
						<g id="Groupe_608_00000152986442752808872660000011043486596234026642_" style="clip-path:url(#SVGID_00000026163083256088499830000011121017867087112107_);">
						<path id="Tracé_2209_00000138561738752818068550000009214002875853318056_" class="st1" d="M-11.4-61H-28
							c-0.5,0-0.9-0.4-0.8-0.9c0-0.5,0.4-0.8,0.8-0.8h16.7c0.5,0,0.9,0.4,0.8,0.9C-10.6-61.3-10.9-61-11.4-61z"/>
					</g>
				</g>
			</g>
			<g>
				<g>
					<defs>
						<rect id="SVGID_00000167360157610468133000000012326128046970612122_" x="-31.1" y="-77.6" width="79.3" height="83.7"/>
					</defs>
					<clipPath id="SVGID_00000014603566074492021830000002289286827143928473_">
						<use xlink:href="#SVGID_00000167360157610468133000000012326128046970612122_"  style="overflow:visible;"/>
					</clipPath>
					
						<g id="Groupe_609_00000144308984309421375960000013681307240286447532_" style="clip-path:url(#SVGID_00000014603566074492021830000002289286827143928473_);">
						<path id="Tracé_2210_00000183971906890595647020000002668530047890503324_" class="st1" d="M30-1.4H-27
							c-0.5,0-0.9-0.4-0.8-0.9c0-0.5,0.4-0.8,0.8-0.8H30c0.5,0,0.9,0.4,0.8,0.9C30.8-1.8,30.4-1.4,30-1.4z"/>
					</g>
				</g>
			</g>
			<g>
				<g>
					<defs>
						<rect id="SVGID_00000103985582801556327390000012684992933456191923_" x="-31.1" y="-77.6" width="79.3" height="83.7"/>
					</defs>
					<clipPath id="SVGID_00000087400248142492449940000012426561456025054133_">
						<use xlink:href="#SVGID_00000103985582801556327390000012684992933456191923_"  style="overflow:visible;"/>
					</clipPath>
					
						<g id="Groupe_610_00000049194966786870195170000005009740350619616131_" style="clip-path:url(#SVGID_00000087400248142492449940000012426561456025054133_);">
						<path id="Tracé_2211_00000066496101237686268200000001171488162148782252_" class="st0" d="M-7.7-36.5l3.5-6.1
							c0.6-1,1.9-1.4,3-0.8c0.3,0.2,0.6,0.5,0.8,0.8l3,5.2l3.9,6.8c0.6,1.1,0.2,2.4-0.8,3c-0.3,0.2-0.7,0.3-1.1,0.3H-9.2
							c-1.2,0-2.2-1-2.2-2.2c0-0.4,0.1-0.8,0.3-1.1L-7.7-36.5z"/>
					</g>
				</g>
			</g>
			<g>
				<g>
					<defs>
						<rect id="SVGID_00000132078622025969304600000016958194299737966782_" x="-31.1" y="-77.6" width="79.3" height="83.7"/>
					</defs>
					<clipPath id="SVGID_00000097496867799701166220000002131436555247615128_">
						<use xlink:href="#SVGID_00000132078622025969304600000016958194299737966782_"  style="overflow:visible;"/>
					</clipPath>
					
						<g id="Groupe_611_00000154387938542556987420000004343389599745192330_" style="clip-path:url(#SVGID_00000097496867799701166220000002131436555247615128_);">
						<path id="Tracé_2212_00000068635449564550351800000007185753992313311880_" class="st1" d="M-2-26h-7.1
							c-1.9,0-3.5-1.6-3.5-3.5c0-0.6,0.2-1.2,0.5-1.7c0.3-0.6,1.1-0.9,1.7-0.6c0.6,0.3,0.9,1.1,0.6,1.7c0,0.1-0.1,0.1-0.1,0.2
							c-0.2,0.4-0.1,1,0.3,1.2c0.1,0.1,0.3,0.1,0.4,0.1H-2c0.7,0,1.3,0.6,1.3,1.3S-1.3-26-2-26L-2-26z"/>
					</g>
				</g>
			</g>
			<g>
				<g>
					<defs>
						<rect id="SVGID_00000064346392171300657160000017887038559742834592_" x="-31.1" y="-77.6" width="79.3" height="83.7"/>
					</defs>
					<clipPath id="SVGID_00000062914368372515084280000017114638700153484962_">
						<use xlink:href="#SVGID_00000064346392171300657160000017887038559742834592_"  style="overflow:visible;"/>
					</clipPath>
					
						<g id="Groupe_612_00000158018799212910192350000006241835412607902103_" style="clip-path:url(#SVGID_00000062914368372515084280000017114638700153484962_);">
						<path id="Tracé_2213_00000124142785600927521050000014300617043775807616_" class="st1" d="M4.7-26c-0.7,0-1.3-0.6-1.3-1.3
							s0.6-1.3,1.3-1.3c0.5,0,0.9-0.4,0.9-0.9c0-0.2,0-0.3-0.1-0.4l-3.9-6.8c-0.4-0.6-0.3-1.4,0.3-1.8s1.4-0.3,1.8,0.3
							c0,0.1,0.1,0.1,0.1,0.2l3.9,6.8c1,1.7,0.4,3.8-1.3,4.8C5.9-26.2,5.3-26,4.7-26L4.7-26z"/>
					</g>
				</g>
			</g>
			<g>
				<g>
					<defs>
						<rect id="SVGID_00000157986498530887802300000017370936412815497638_" x="-31.1" y="-77.6" width="79.3" height="83.7"/>
					</defs>
					<clipPath id="SVGID_00000063630216990002465340000012062227304847962499_">
						<use xlink:href="#SVGID_00000157986498530887802300000017370936412815497638_"  style="overflow:visible;"/>
					</clipPath>
					
						<g id="Groupe_613_00000147219246345080713060000017864121679320279170_" style="clip-path:url(#SVGID_00000063630216990002465340000012062227304847962499_);">
						<path id="Tracé_2214_00000083793826471152394720000016459207596314881966_" class="st1" d="M-7.7-35.2
							c-0.7,0-1.3-0.6-1.3-1.3c0-0.2,0.1-0.4,0.2-0.6l3.5-6.1c1-1.7,3.1-2.2,4.7-1.3c0.5,0.3,1,0.8,1.3,1.3c0.4,0.6,0.2,1.4-0.3,1.8
							c-0.6,0.4-1.4,0.2-1.8-0.3c0-0.1-0.1-0.1-0.1-0.2c-0.2-0.4-0.8-0.6-1.2-0.3C-2.8-42.3-2.9-42.1-3-42l-3.5,6.1
							C-6.8-35.5-7.2-35.2-7.7-35.2z"/>
					</g>
				</g>
			</g>
			<g>
				<g>
					<defs>
						<rect id="SVGID_00000162330857390039317370000017363683231020527009_" x="-31.1" y="-77.6" width="79.3" height="83.7"/>
					</defs>
					<clipPath id="SVGID_00000142167177715223718210000006612564499956634559_">
						<use xlink:href="#SVGID_00000162330857390039317370000017363683231020527009_"  style="overflow:visible;"/>
					</clipPath>
					
						<g id="Groupe_614_00000036219483317611990230000008305220313653990032_" style="clip-path:url(#SVGID_00000142167177715223718210000006612564499956634559_);">
						<path id="Tracé_2215_00000183927021701649316700000018340966852686270086_" class="st1" d="M38.2-77.6h-58.8
							c-0.5,0-0.9,0.4-0.9,0.9c0,0,0,0,0,0v4.5c0,0.5,0.4,0.9,0.9,0.9c0,0,0,0,0,0h58.8c0.5,0,0.9-0.4,0.9-0.9c0,0,0,0,0,0v-4.5
							C39.1-77.2,38.7-77.6,38.2-77.6C38.2-77.6,38.2-77.6,38.2-77.6z"/>
					</g>
				</g>
			</g>
			<g>
				<g>
					<defs>
						<rect id="SVGID_00000006682641707619844210000007151005720700954799_" x="-31.1" y="-77.6" width="79.3" height="83.7"/>
					</defs>
					<clipPath id="SVGID_00000072248722908070461770000009886971811882947465_">
						<use xlink:href="#SVGID_00000006682641707619844210000007151005720700954799_"  style="overflow:visible;"/>
					</clipPath>
					
						<g id="Groupe_615_00000088121694266023077860000007928944865126593937_" style="clip-path:url(#SVGID_00000072248722908070461770000009886971811882947465_);">
						<path id="Tracé_2216_00000181768706781701356710000004120427696376220607_" class="st1" d="M44-71.4c0,1.9-1.6,3.5-3.5,3.5
							c-1.9,0-3.5-1.6-3.5-3.5c0-1.9,1.6-3.5,3.5-3.5C42.4-74.9,44-73.3,44-71.4C44-71.4,44-71.4,44-71.4z"/>
					</g>
				</g>
			</g>
			<g>
				<g>
					<defs>
						<rect id="SVGID_00000113329993763838238490000002295894013515729053_" x="-31.1" y="-77.6" width="79.3" height="83.7"/>
					</defs>
					<clipPath id="SVGID_00000057850498905816329940000017671508702885746857_">
						<use xlink:href="#SVGID_00000113329993763838238490000002295894013515729053_"  style="overflow:visible;"/>
					</clipPath>
					
						<g id="Groupe_616_00000161620981603036629120000009621857771262940087_" style="clip-path:url(#SVGID_00000057850498905816329940000017671508702885746857_);">
						<path id="Tracé_2217_00000145774282157582739470000007831658613864864410_" class="st3" d="M40.5-67c-2.4,0-4.4-2-4.4-4.4
							c0-2.4,2-4.4,4.4-4.4c2.4,0,4.4,2,4.4,4.4c0,1-0.3,2-0.9,2.7C43.1-67.6,41.8-67,40.5-67z M40.5-74c-1.5,0-2.7,1.2-2.7,2.7
							c0,1.5,1.2,2.7,2.7,2.7c1.5,0,2.7-1.2,2.7-2.7c0,0,0,0,0,0C43.1-72.8,41.9-74,40.5-74L40.5-74z"/>
					</g>
				</g>
			</g>
			<g>
				<g>
					<defs>
						<rect id="SVGID_00000131368926040730628940000009210021051341791667_" x="-31.1" y="-77.6" width="79.3" height="83.7"/>
					</defs>
					<clipPath id="SVGID_00000179647841109204543110000002844825177072157113_">
						<use xlink:href="#SVGID_00000131368926040730628940000009210021051341791667_"  style="overflow:visible;"/>
					</clipPath>
					
						<g id="Groupe_617_00000107549603613501403780000007694232727006840988_" style="clip-path:url(#SVGID_00000179647841109204543110000002844825177072157113_);">
						<path id="Tracé_2218_00000112610144815836121870000003737770127787897473_" class="st3" d="M38.2-48.4c-0.2,0-0.3,0-0.5-0.1
							l-9.2-5.6c-0.4-0.3-0.5-0.8-0.2-1.2c0.3-0.4,0.7-0.5,1.1-0.3l9.2,5.6c0.4,0.3,0.5,0.8,0.3,1.2C38.7-48.6,38.5-48.4,38.2-48.4
							L38.2-48.4z"/>
					</g>
				</g>
			</g>
			<g>
				<g>
					<defs>
						<rect id="SVGID_00000058554682295625875170000001104097571645301395_" x="-31.1" y="-77.6" width="79.3" height="83.7"/>
					</defs>
					<clipPath id="SVGID_00000020399179937229862000000013743263544619689090_">
						<use xlink:href="#SVGID_00000058554682295625875170000001104097571645301395_"  style="overflow:visible;"/>
					</clipPath>
					
						<g id="Groupe_618_00000117641206435805394830000007444787492883105433_" style="clip-path:url(#SVGID_00000020399179937229862000000013743263544619689090_);">
						<path id="Tracé_2219_00000137098724580307324820000009247197381956050104_" class="st3" d="M38.2-42.8c-0.2,0-0.3,0-0.5-0.1
							l-9.2-5.6c-0.4-0.3-0.5-0.8-0.2-1.2c0.3-0.4,0.7-0.5,1.1-0.3l9.2,5.6c0.4,0.3,0.5,0.8,0.3,1.2C38.7-43,38.5-42.8,38.2-42.8
							L38.2-42.8z"/>
					</g>
				</g>
			</g>
			<g>
				<g>
					<defs>
						<rect id="SVGID_00000057148158018781936410000015954992242254068894_" x="-31.1" y="-77.6" width="79.3" height="83.7"/>
					</defs>
					<clipPath id="SVGID_00000132810092241865410680000009763588627205769868_">
						<use xlink:href="#SVGID_00000057148158018781936410000015954992242254068894_"  style="overflow:visible;"/>
					</clipPath>
					
						<g id="Groupe_619_00000173162457062945021010000013897837501146916740_" style="clip-path:url(#SVGID_00000132810092241865410680000009763588627205769868_);">
						<path id="Tracé_2220_00000044876343368583426350000003408435335009700244_" class="st3" d="M47-2.3c-0.2,0-0.3,0-0.5-0.1
							l-6-3.7c-0.4-0.3-0.5-0.8-0.2-1.2c0.3-0.4,0.7-0.5,1.1-0.3l6,3.7c0.4,0.3,0.5,0.8,0.3,1.2C47.5-2.5,47.3-2.3,47-2.3L47-2.3z"
							/>
					</g>
				</g>
			</g>
			<g>
				<g>
					<defs>
						<rect id="SVGID_00000123401855028407303520000011005260320530754733_" x="-31.1" y="-77.6" width="79.3" height="83.7"/>
					</defs>
					<clipPath id="SVGID_00000114073358511400977810000015170703959441910912_">
						<use xlink:href="#SVGID_00000123401855028407303520000011005260320530754733_"  style="overflow:visible;"/>
					</clipPath>
					
						<g id="Groupe_620_00000030478405031988159660000012060317815776716933_" style="clip-path:url(#SVGID_00000114073358511400977810000015170703959441910912_);">
						<path id="Tracé_2221_00000094619724219904770450000013166973549954592425_" class="st3" d="M38.2-12.1
							c-0.5,0-0.9-0.4-0.9-0.9c0,0,0,0,0,0v-24.5l-8.7-5.4c-0.4-0.3-0.5-0.8-0.2-1.2c0.3-0.4,0.7-0.5,1.1-0.3l9.2,5.6
							c0.3,0.2,0.4,0.4,0.4,0.7v25C39-12.5,38.6-12.1,38.2-12.1z"/>
					</g>
				</g>
			</g>
			<g>
				<g>
					<defs>
						<rect id="SVGID_00000031186746301475068260000004748916279735270044_" x="-31.1" y="-77.6" width="79.3" height="83.7"/>
					</defs>
					<clipPath id="SVGID_00000041973562059794977130000006541450723972554160_">
						<use xlink:href="#SVGID_00000031186746301475068260000004748916279735270044_"  style="overflow:visible;"/>
					</clipPath>
					
						<g id="Groupe_621_00000126315566325485471230000004043607358479328420_" style="clip-path:url(#SVGID_00000041973562059794977130000006541450723972554160_);">
						<path id="Tracé_2222_00000096036247013673865740000012049541590679827850_" class="st3" d="M38.2-4.8c-2.3,0-4.2-1.8-4.2-4.1
							s1.8-4.2,4.1-4.2c2.3,0,4.2,1.8,4.2,4.1c0,0,0,0,0,0C42.3-6.7,40.5-4.8,38.2-4.8z M38.2-11.4c-1.3,0-2.4,1.1-2.4,2.4
							c0,1.3,1.1,2.4,2.4,2.4s2.4-1.1,2.4-2.4c0,0,0,0,0,0C40.6-10.3,39.5-11.4,38.2-11.4L38.2-11.4z"/>
					</g>
				</g>
			</g>
		</g>
		<path id="Tracé_2223_00000180344374884466273420000016794968665502884519_" class="st1" d="M343.5,396.3
			c-1.3-5.7-9.3-11-22.5-15.7c-0.4-1.9-0.9-3.7-1.5-5.5c-1-3.4-2.7-6.6-5-9.3c-4-4.7-9.6-7.6-16.4-8.9V354c0.7-0.2,2.5-3.1,2.8-5.2
			c0.1-0.8,0.3-1.6,0.4-2.3c0.6-0.7,1.1-1.6,1.4-2.5c1.7-4.8,2.5-10,2.2-15.1c-0.5-6.3-4.1-11.4-7.6-14.9c-1-1-2.2-1.9-3.5-2.6
			c-0.8-0.5-1.4-1.3-1.7-2.2c-0.8-2.9-0.9-3.4-0.9-3.4c0-0.2-0.1-0.7-0.5-0.9c-0.7-0.4-2,0.8-2.3,1c-0.4,0.3-0.7,0.7-0.9,1.1
			c-0.1,0.2-0.3,0.2-0.5,0.1c-0.1,0-0.1-0.1-0.1-0.2c-0.9-3.6-0.8-7.8-1.4-9c-1.8-4.2-8.3,1-11.4,10.1c-0.1,0.2-0.3,0.3-0.4,0.2
			c-0.1,0-0.2-0.1-0.2-0.2c-0.3-0.9-0.5-1.9-0.6-2.8c0-0.4-0.2-0.8-0.5-1.1c-0.8-0.5-2.4,0.8-2.6,1c-3.8,3.8-5.7,9.8-5.3,16
			c0,0,0,0.1,0,0.1s0,0.1,0,0.1s0,0,0,0.1c0.1,1.3,0.7,2.6,1.6,3.5c0.4,0.4,0.8,0.8,1.2,1.3c0,0.4-0.1,0.9-0.1,1.3
			c0,6.8,0.6,13.6,1.7,20.4c1,5.3,4.7,6.9,5.6,7.1c0,0,0,1.7,0,2.7c-6,1.6-11.3,5.2-14.9,10.3c-18.9-2.3-40.1-3.9-62.7-4.5
			c-4.1-4.7-9.7-7.5-16.5-8.7c0-1,0-2.6,0-2.6c3.9-0.8,5.3-2.9,6.4-8.2c0.3-1.8,0.6-3.5,0.7-5.3c1,0.5,2.2-0.1,3.1-2.3
			c0.8-1.8,1.4-3.7,1.9-5.6c4.4-1.6,8.2-4.8,9.4-10.1c1.6-6.9-3.4-13.9-10.3-15.5c-2.6-0.4-5.2-0.2-7.7,0.8
			c-0.4-0.4-0.8-0.8-1.3-1.1c-1.1-0.7-2.4-1.1-3.7-1.3c-8.2-1.2-14.9,0-19.9,3.3c-3.6-1.6-7.4-2.3-10.4-1.5
			c-6.9,1.8-11.6,9-9.8,15.8c1.2,4.4,4.5,8,8.8,9.5l0,0c-0.2,6.5,1.8,12.9,5.7,18.1c0.3,0.6,1.1,0.8,1.7,0.5
			c0.2-0.1,0.4-0.3,0.5-0.5c1,1.8,2.7,3,4.7,3.4c0,0,0,1.7,0,2.7c0,0,0,0.1,0,0.1c-0.3,0.1-0.6,0.1-0.9,0.2
			c-5.8,1.1-11.1,4-15.1,8.4c-21.4,0.7-41.4,2.2-59.4,4.4c-3.7-4.8-9.1-7.9-15.5-9.4c0-0.9,0-2.1,0-2.1c0.9-0.3,4.6-1.8,5.6-7.1
			c1-6.3,1.6-12.7,1.7-19.2c4.7-3.7,4.5-12.4,4.5-13.2c-0.3-4.7-4-8.4-8.3-8.4c-0.2,0-0.4,0-0.6,0c-0.9,0-1.7,0.2-2.5,0.6
			c-1.4,0.6-3.1,0.3-4.3-0.6c-1.5-1.2-3.4-1.8-5.3-1.7c-2.6,0.2-5,1.6-6.3,3.9c-0.5,0.9-1.5,1.5-2.5,1.6c-1.6,0.1-3.1,0.7-4.5,1.6
			c-0.3-0.3-0.6-0.7-0.9-1c-20.7-24.6-43.3,14.4-11.1,20h0c1,0.2,1.7,1.3,1.5,2.3c-0.2,2.5-0.2,5.1,0,7.6c1,7.7,3.6,12.4,9.4,13.2
			v2.7c-9.2,1.8-16.7,8.4-19.9,17.2c-0.5,1.3-0.9,2.6-1.3,4.1C10.1,384.7,1.4,390.3,0,396.3c-0.2,0.9,0.6,1.6,1.7,1.6h340.1
			C342.9,397.9,343.7,397.2,343.5,396.3z"/>
		<path id="Tracé_2224_00000103967897048727399190000000954439973966512027_" class="st0" d="M74.2,359.6H40.1c-1,0-2,0.1-3.1,0.3
			c-7.6,1.5-13.2,8.2-13.1,16v21.8H30v-7.6c0-1.7,1.4-3,3-3c0,0,0,0,0,0h48.3c1.7,0,3,1.4,3,3c0,0,0,0,0,0v7.6h6.1v-21.8
			C90.5,366.9,83.2,359.6,74.2,359.6C74.2,359.6,74.2,359.6,74.2,359.6z"/>
		<path id="Tracé_2225_00000013914480238739849410000008171357791529489335_" class="st0" d="M187.8,359.6h-34.2
			c-1,0-2,0.1-3.1,0.3c-7.6,1.5-13.2,8.2-13.1,16v21.8h6.1v-7.6c0-1.7,1.4-3,3-3c0,0,0,0,0,0h48.3c1.7,0,3,1.4,3,3c0,0,0,0,0,0v7.6
			h6.1v-21.8C204.1,366.9,196.8,359.6,187.8,359.6L187.8,359.6z"/>
		<path id="Tracé_2226_00000054948877635200093320000009834756363843365297_" class="st0" d="M305.8,359.6h-34.2
			c-1,0-2,0.1-3.1,0.3c-7.6,1.5-13.2,8.2-13.1,16v21.8h6.1v-7.6c0-1.7,1.4-3,3-3c0,0,0,0,0,0h48.3c1.7,0,3,1.4,3,3c0,0,0,0,0,0v7.6
			h6.1v-21.8C322,366.9,314.7,359.6,305.8,359.6C305.8,359.6,305.8,359.6,305.8,359.6z"/>
		<path id="Tracé_2227_00000152948738049577241850000010777965476211162812_" class="st2" d="M170.3,267.5c-1.1,0-2.2,0-3.2-0.1
			c-1.1,0-2.1-0.5-2.6-1.4c-0.6-1-0.8-2.1-0.6-3.2c0,0,1.1-3.1,2.3-6.6c1.7-4.7,3.7-10,3.7-10c0.3-1,1.1-1.6,2-1.2
			c0.9,0.3,1.4,1.3,1.1,2.3c0,0-0.8,5.6-1.6,10.7c-0.1,0.8-0.3,1.4-0.4,2.1c1.1,0,2.2,0,3.2,0.1c1.1,0,2,0.6,2.6,1.4
			c0.6,1,0.8,2.1,0.6,3.2c0,0-0.9,3.1-2.1,6.6c-1.5,4.7-3.4,9.8-3.4,9.8c-0.3,1-1.1,1.6-2,1.2c-0.9-0.3-1.4-1.3-1.1-2.3
			c0,0,0.6-5.6,1.3-10.4C170.2,268.9,170.3,268.2,170.3,267.5L170.3,267.5z"/>
		<path id="Tracé_2228_00000090296331985294579840000015992576760748041882_" class="st2" d="M191.1,275.7
			c-0.8-0.2-1.6-0.5-2.4-0.8c-0.8-0.2-1.4-0.8-1.6-1.6c-0.2-0.8-0.1-1.7,0.3-2.5c0,0,1.5-2,3.2-4.2c2.3-3,5-6.3,5-6.3
			c0.3-0.6,1-0.8,1.6-0.5c0,0,0.1,0,0.1,0.1c0.6,0.4,0.7,1.3,0.3,1.9c0,0-1.9,3.8-3.6,7.3c-0.3,0.5-0.5,0.9-0.8,1.4
			c0.8,0.2,1.6,0.5,2.4,0.8c0.8,0.2,1.4,0.9,1.6,1.6c0.2,0.8,0.1,1.7-0.3,2.5c0,0-1.4,2-3.1,4.3c-2.2,3-4.7,6.2-4.7,6.2
			c-0.3,0.6-1,0.8-1.6,0.5c0,0-0.1,0-0.1-0.1c-0.6-0.4-0.7-1.3-0.3-1.9c0,0,1.8-3.9,3.3-7.2C190.7,276.7,190.9,276.2,191.1,275.7
			L191.1,275.7z"/>
		<path id="Tracé_2229_00000034081661379749888390000005803951115762642575_" class="st2" d="M150.7,276.1
			c-0.7,0.6-1.4,1.1-2.1,1.6c-0.7,0.6-1.6,0.7-2.4,0.4c-0.9-0.4-1.6-1-2.1-1.8c0,0-1-2.6-2-5.5c-1.4-3.9-2.9-8.4-2.9-8.4
			c-0.3-0.8-0.1-1.6,0.6-1.8c0.8-0.2,1.6,0.2,1.9,0.9c0,0,2.4,4.1,4.6,7.8c0.3,0.6,0.5,1,0.8,1.6c0.7-0.6,1.4-1.1,2.1-1.6
			c0.7-0.5,1.6-0.7,2.4-0.4c0.9,0.4,1.6,1,2.1,1.8c0,0,1.1,2.5,2.1,5.4c1.5,3.8,3,8.1,3,8.1c0.3,0.8,0.1,1.6-0.6,1.8
			c-0.8,0.2-1.6-0.2-1.9-0.9c0,0-2.5-4-4.7-7.5C151.4,277.1,151.1,276.6,150.7,276.1L150.7,276.1z"/>
		<path id="Tracé_2230_00000087382683321082644700000017717077433280043454_" class="st2" d="M284.9,269.2c-1.1,0-2.2,0-3.2-0.1
			c-1.1,0-2.1-0.5-2.6-1.4c-0.6-1-0.8-2.1-0.6-3.2c0,0,1.1-3.1,2.3-6.6c1.7-4.7,3.7-10,3.7-10c0.3-1,1.1-1.6,2-1.2
			c0.9,0.3,1.4,1.3,1.1,2.3c0,0-0.8,5.6-1.6,10.7c-0.1,0.8-0.3,1.4-0.4,2.1c1.1,0,2.2,0,3.2,0.1c1.1,0,2,0.6,2.6,1.4
			c0.6,1,0.8,2.1,0.6,3.2c0,0-0.9,3.1-2.1,6.6c-1.5,4.7-3.4,9.8-3.4,9.8c-0.3,1-1.1,1.6-2,1.2c-0.9-0.3-1.4-1.3-1.1-2.3
			c0,0,0.6-5.6,1.3-10.4C284.8,270.6,284.9,269.9,284.9,269.2L284.9,269.2z"/>
		<path id="Tracé_2231_00000099625087599653635630000006045193733814024340_" class="st2" d="M304.2,276c-0.8-0.2-1.6-0.5-2.4-0.8
			c-0.8-0.2-1.4-0.8-1.6-1.6c-0.2-0.8-0.1-1.7,0.3-2.5c0,0,1.5-2,3.2-4.2c2.3-3,5-6.3,5-6.3c0.3-0.6,1-0.8,1.6-0.5
			c0,0,0.1,0,0.1,0.1c0.6,0.4,0.7,1.3,0.3,1.9c0,0-1.9,3.8-3.6,7.3c-0.3,0.5-0.5,0.9-0.8,1.4c0.8,0.2,1.6,0.5,2.4,0.8
			c0.8,0.2,1.4,0.9,1.6,1.6c0.2,0.8,0.1,1.7-0.3,2.5c0,0-1.4,2-3.1,4.3c-2.2,3-4.7,6.2-4.7,6.2c-0.3,0.6-1,0.8-1.6,0.5
			c0,0-0.1,0-0.1-0.1c-0.6-0.4-0.7-1.3-0.3-1.9c0,0,1.8-3.9,3.3-7.2C303.8,277,304.1,276.5,304.2,276L304.2,276z"/>
		<path id="Tracé_2232_00000140004636257105913350000016030251019328070327_" class="st2" d="M264.2,278c-0.7,0.6-1.4,1.1-2.1,1.6
			c-0.7,0.6-1.6,0.7-2.4,0.4c-0.9-0.4-1.6-1-2.1-1.8c0,0-1-2.6-2-5.5c-1.4-3.9-2.9-8.4-2.9-8.4c-0.3-0.8-0.1-1.6,0.6-1.8
			c0.8-0.2,1.6,0.2,1.9,0.9c0,0,2.4,4.1,4.6,7.8c0.3,0.6,0.5,1,0.8,1.6c0.7-0.6,1.4-1.1,2.1-1.6c0.7-0.5,1.6-0.7,2.4-0.4
			c0.9,0.4,1.6,1,2.1,1.8c0,0,1.1,2.5,2.1,5.4c1.5,3.8,3,8.1,3,8.1c0.3,0.8,0.1,1.6-0.6,1.8c-0.8,0.2-1.6-0.2-1.9-0.9
			c0,0-2.5-4-4.7-7.5C264.8,279,264.5,278.5,264.2,278L264.2,278z"/>
		<path id="Tracé_2233_00000080905190204127447370000002691928370666165396_" class="st2" d="M51.6,275c-1.1,0-2.2,0-3.2-0.1
			c-1.1,0-2.1-0.5-2.6-1.4c-0.6-1-0.8-2.1-0.6-3.2c0,0,1.1-3.1,2.3-6.6c1.7-4.7,3.7-10,3.7-10c0.3-1,1.1-1.6,2-1.2
			c0.9,0.3,1.4,1.3,1.1,2.3c0,0-0.8,5.6-1.6,10.7c-0.1,0.8-0.3,1.4-0.4,2.1c1.1,0,2.2,0,3.2,0.1c1.1,0,2,0.6,2.6,1.4
			c0.6,1,0.8,2.1,0.6,3.2c0,0-0.9,3.1-2.1,6.6c-1.5,4.7-3.4,9.8-3.4,9.8c-0.3,1-1.1,1.6-2,1.2c-0.9-0.3-1.4-1.3-1.1-2.3
			c0,0,0.6-5.6,1.3-10.4C51.5,276.5,51.6,275.8,51.6,275L51.6,275z"/>
		<path id="Tracé_2234_00000095314139096111472670000013705524350581579706_" class="st2" d="M74.2,281.4c-0.8-0.2-1.6-0.5-2.4-0.8
			c-0.8-0.2-1.4-0.8-1.6-1.6c-0.2-0.8-0.1-1.7,0.3-2.5c0,0,1.5-2,3.2-4.2c2.3-3,5-6.3,5-6.3c0.3-0.6,1-0.8,1.6-0.5
			c0,0,0.1,0,0.1,0.1c0.6,0.4,0.7,1.3,0.3,1.9c0,0-1.9,3.8-3.6,7.3c-0.3,0.5-0.5,0.9-0.8,1.4c0.8,0.2,1.6,0.5,2.4,0.8
			c0.8,0.2,1.4,0.9,1.6,1.6c0.2,0.8,0.1,1.7-0.3,2.5c0,0-1.4,2-3.1,4.3c-2.2,3-4.7,6.2-4.7,6.2c-0.3,0.6-1,0.8-1.6,0.5
			c0,0-0.1,0-0.1-0.1c-0.6-0.4-0.7-1.3-0.3-1.9c0,0,1.8-3.9,3.3-7.2C73.8,282.4,74,281.9,74.2,281.4L74.2,281.4z"/>
		<path id="Tracé_2235_00000182524480454002561600000000223435527088231855_" class="st2" d="M32,283.3c-0.7,0.6-1.4,1.1-2.1,1.6
			c-0.7,0.6-1.6,0.7-2.4,0.4c-0.9-0.4-1.6-1-2.1-1.8c0,0-1-2.6-2-5.5c-1.4-3.9-2.9-8.4-2.9-8.4c-0.3-0.8-0.1-1.6,0.6-1.8
			c0.8-0.2,1.6,0.2,1.9,0.9c0,0,2.4,4.1,4.6,7.8c0.3,0.6,0.5,1,0.8,1.6c0.7-0.6,1.4-1.1,2.1-1.6c0.7-0.5,1.6-0.7,2.4-0.4
			c0.9,0.4,1.6,1,2.1,1.8c0,0,1.1,2.5,2.1,5.4c1.5,3.8,3,8.1,3,8.1c0.3,0.8,0.1,1.6-0.6,1.8c-0.8,0.2-1.6-0.2-1.9-0.9
			c0,0-2.5-4-4.7-7.5C32.7,284.3,32.4,283.8,32,283.3L32,283.3z"/>
		<path id="Tracé_2236_00000076583570442037312690000015298028213183141792_" class="st1" d="M83.3,21.8c-0.1-3.5-1.6-6.8-4-9.3
			c-2.8-2.7-8.5-5-12.6-5.3C63.1,6.7,59.4,7,55.9,8c-2.7-6.5-10.1-9.7-16.7-7c-4.7,1.9-7.9,6.5-8,11.6c0,6.6,5,12.2,11.5,13.1
			c-1.1,8.9,2.4,22.5,10.9,28.3c1.9-2.3-3.2-8.6-3.8-15.1c-0.3-3.2-0.1-5.2,1.4-5.5c1.3-0.3,1.6,1.8,1.6,1.8
			c0.3,1.2,0.8,2.3,1.4,3.3c0.3,0.9,0.5,1,0.3,2c-0.1,0.9-0.4,1.8-0.5,2.6C54,43.5,54,44.2,54,44.8c0,1,0.2,2,0.7,2.1
			c0.4,0,0.7-0.7,0.8-1.4c0.1-0.8,0.2-1.5,0.4-2.3c0.2-0.6,0.6-1.4,0.9-2.5c0.3-1.3,0.3-2.6-0.1-3.8c-0.2-0.9-0.4-1.8-0.5-2.7
			c-0.2-0.9-0.2-1.8,0-2.7c0.4-2.1,1.4-2.6,3.7-4.5c2.5-2.1,3.2-6,8.1-6.7c2.1-0.1,4.3-0.1,6.4,0.1c3.1,0.3,3.8,1.9,4.7,4.8
			c0.8,3.3,1.1,6.7,0.9,10.1c0,0.1,0,0.2,0,0.2c1-0.1,2.2-4.2,2.9-8c0.2-1.2,0.4-2.4,0.4-3.6C83.4,23.3,83.4,22.5,83.3,21.8
			L83.3,21.8z"/>
	</g>
	<g id="TEXTES_GB">
	</g>
</g>
</svg>
