<?xml version="1.0" encoding="utf-8"?>
<!-- Generator: Adobe Illustrator 26.2.1, SVG Export Plug-In . SVG Version: 6.00 Build 0)  -->
<svg version="1.1" xmlns="http://www.w3.org/2000/svg" xmlns:xlink="http://www.w3.org/1999/xlink" x="0px" y="0px"
	 viewBox="0 0 129.6429138 74.752121" style="enable-background:new 0 0 129.6429138 74.752121;" xml:space="preserve">
<style type="text/css">
	.st0{fill:url(#FOND_00000121999953749374820590000001383077767128580236_);}
	.st1{fill:url(#FOND_00000072982031056757146690000005759719900676474784_);}
	.st2{fill:#FFF5F7;}
	.st3{fill:url(#FOND_00000150817830705798103700000014442334041061441441_);}
	.st4{fill:url(#FOND_00000072963094558576017880000005625766026509635765_);}
	.st5{fill:url(#FOND_00000027569990560301932860000017380849720046146999_);}
	.st6{fill:url(#FOND_00000150800851183549687230000003834436464989928581_);}
	.st7{fill:url(#FOND_00000039114277173890821720000015328313916618344593_);}
	.st8{fill:url(#FOND_00000016755982810570119800000008837884003408640146_);}
	.st9{fill:url(#FOND_00000140728638132660261620000002048375044889840771_);}
	.st10{fill:url(#FOND_00000000931715420721835540000007713441455022415771_);}
	.st11{fill:url(#FOND_00000061463899146723729550000017244876124485712549_);}
	.st12{fill:#272F60;}
	.st13{fill:#FD657C;}
	.st14{fill:url(#FOND_00000070798556742077263310000000611400523308286088_);}
	.st15{fill:#F4AAB9;}
	.st16{clip-path:url(#Rectangle_10_00000116924951194234632810000006225054716952743358_);}
	.st17{fill:#FB657C;}
	.st18{fill:#FFFFFF;}
	.st19{fill:#FFBCC6;}
	.st20{clip-path:url(#SVGID_00000072998991277381968990000000270272843166172310_);}
	.st21{enable-background:new    ;}
	.st22{fill:#FB657C;stroke:#FD657C;stroke-width:3.8352001;stroke-linecap:round;stroke-linejoin:round;stroke-miterlimit:1.4382;}
	.st23{fill:#FFBCC6;stroke:#FFBCC6;stroke-width:3.8352001;stroke-linecap:round;stroke-linejoin:round;stroke-miterlimit:1.4382;}
	.st24{clip-path:url(#SVGID_00000176764067530181538130000001337956555292366998_);fill:#FB657C;}
	.st25{clip-path:url(#SVGID_00000023276199837574123010000011971626757708449192_);fill:#FFBCC6;}
	.st26{clip-path:url(#SVGID_00000082367632172322980190000009930977799444838056_);fill:#FFBCC6;}
	.st27{clip-path:url(#SVGID_00000120527034408643838790000015938309443340426405_);fill:#FFBCC6;}
	.st28{clip-path:url(#SVGID_00000168819665579574651360000009663372963999524279_);fill:#FFBCC6;}
	.st29{clip-path:url(#SVGID_00000155850831022053878320000003130058907409272713_);fill:#FFBCC6;}
	.st30{clip-path:url(#SVGID_00000088819939942121431440000016064252211827835524_);fill:#FFBCC6;}
	.st31{clip-path:url(#SVGID_00000058551658196782452590000007672829819604898730_);fill:#FFBCC6;}
	.st32{clip-path:url(#SVGID_00000075131629799348664600000006655250748882443411_);fill:#272F60;}
	.st33{clip-path:url(#SVGID_00000075131629799348664600000006655250748882443411_);fill:#FB657C;}
	.st34{clip-path:url(#SVGID_00000075131629799348664600000006655250748882443411_);fill:#FFBCC6;}
	.st35{clip-path:url(#SVGID_00000075131629799348664600000006655250748882443411_);fill:#FFFFFF;}
	.st36{fill:none;}
	.st37{clip-path:url(#SVGID_00000083786836377217828720000009957579575790382763_);fill:#FFFFFF;}
	.st38{clip-path:url(#SVGID_00000025421764328524573970000017073506679616036283_);fill:#FFFFFF;}
	.st39{clip-path:url(#SVGID_00000134238937398358429550000001171428441159155086_);fill:#FFFFFF;}
	.st40{clip-path:url(#SVGID_00000029739487812925978450000007838644645735189918_);fill:#FFFFFF;}
	.st41{clip-path:url(#SVGID_00000106147027218061201930000011279778702377925506_);fill:#FFFFFF;}
	.st42{clip-path:url(#SVGID_00000104683992238928402740000013939498300005258665_);fill:#FFFFFF;}
	.st43{clip-path:url(#SVGID_00000135659709420764488590000008714846477583221123_);fill:#FFFFFF;}
	.st44{clip-path:url(#SVGID_00000183222297513883547500000011849298745503024537_);fill:#FFFFFF;}
	.st45{clip-path:url(#SVGID_00000073692766771351206230000014952819325075944332_);fill:#FFFFFF;}
	.st46{clip-path:url(#SVGID_00000069374458756386173510000005717407508675539350_);fill:#FFFFFF;}
	.st47{clip-path:url(#SVGID_00000069369147042869113530000011479334256442766487_);fill:#FFFFFF;}
	.st48{clip-path:url(#SVGID_00000034777282052607865690000009953406242878703765_);fill:#FFFFFF;}
	.st49{clip-path:url(#SVGID_00000067958181733019320460000015732267880459385273_);fill:#FB657C;}
	.st50{clip-path:url(#SVGID_00000051366812477737396220000016159877120258643857_);fill:#FFFFFF;}
	.st51{clip-path:url(#SVGID_00000125590166348506799160000011252662433305948308_);fill:#FFFFFF;}
	.st52{fill:#FF647B;}
	.st53{fill:#FF657C;}
	.st54{clip-path:url(#SVGID_00000048471475837450182050000009296469510295226806_);}
	.st55{clip-path:url(#SVGID_00000061443013009122947350000004556987152193723032_);}
	.st56{clip-path:url(#SVGID_00000010283281408269250190000009187546603859366319_);}
	.st57{clip-path:url(#SVGID_00000138565586606010315430000008106126201252740246_);}
	.st58{fill:none;stroke:#272E5F;stroke-width:3;}
	.st59{clip-path:url(#SVGID_00000051359294943522497270000011967324911181169543_);}
	.st60{fill:#E94B67;}
	.st61{fill:#FFF5F7;stroke:#272E5F;stroke-width:2;}
	.st62{fill:none;stroke:#272E5F;stroke-width:2;stroke-linecap:round;stroke-linejoin:round;stroke-miterlimit:10;}
	.st63{fill:none;stroke:#272E5F;stroke-width:2;}
	.st64{fill:none;stroke:#272E5F;stroke-width:3;stroke-linecap:round;stroke-linejoin:round;stroke-miterlimit:10;}
	.st65{fill:none;stroke:#142664;stroke-width:2;stroke-linecap:round;stroke-linejoin:round;stroke-miterlimit:10;}
	.st66{clip-path:url(#SVGID_00000140711705757287007600000015563710603657032076_);}
	.st67{clip-path:url(#SVGID_00000048471373617447456430000006816878510099591306_);}
	.st68{clip-path:url(#SVGID_00000104701076678375325740000007560569853526606992_);fill:#FD657C;}
	.st69{clip-path:url(#SVGID_00000150096818493705577820000017241600976348077463_);fill:#FD657C;}
	.st70{clip-path:url(#SVGID_00000119086751675052561300000014217033636268500112_);}
	.st71{clip-path:url(#SVGID_00000142889894118252784580000006845369600253697440_);}
	.st72{clip-path:url(#SVGID_00000023267291604392870540000016986759093949266562_);}
	.st73{fill:none;stroke:#142664;stroke-width:3;stroke-linecap:round;stroke-linejoin:round;}
	.st74{clip-path:url(#SVGID_00000145757988112569291090000015574229613586874277_);}
	.st75{clip-path:url(#SVGID_00000046316955341768074730000006950611043297621654_);}
	.st76{clip-path:url(#SVGID_00000054224921763058011790000015205013227225221548_);}
	.st77{clip-path:url(#SVGID_00000102502205287995616330000007940377060725018006_);}
	.st78{clip-path:url(#SVGID_00000052074473104901169730000003305517886463754397_);}
	.st79{clip-path:url(#SVGID_00000152257014254518388430000006401840829237666494_);}
	.st80{clip-path:url(#SVGID_00000176016406762603555930000002568445972152320946_);}
	.st81{clip-path:url(#SVGID_00000042711592625659557410000017171125686745874837_);}
	.st82{clip-path:url(#SVGID_00000038406312303096078240000015901166417739662214_);}
	.st83{clip-path:url(#SVGID_00000005249330591235802120000015424881062547034808_);}
	.st84{clip-path:url(#SVGID_00000183232240932922486660000012981524527408481154_);}
	.st85{clip-path:url(#SVGID_00000169552287047778973490000016364910065598033559_);}
	.st86{clip-path:url(#SVGID_00000008863593742352081720000012467363947925249682_);}
	.st87{clip-path:url(#SVGID_00000176755696505455137040000008449520687687446157_);}
	.st88{clip-path:url(#SVGID_00000065048184558029979490000006902959263204302517_);}
	.st89{clip-path:url(#SVGID_00000125578186641673196520000002746500711034798219_);}
	.st90{clip-path:url(#SVGID_00000174562504053060689980000013699285206402457235_);}
	.st91{clip-path:url(#SVGID_00000006702777974065280860000000826337541257242799_);}
	.st92{clip-path:url(#SVGID_00000068663900359429846620000005409150867736815504_);}
	.st93{clip-path:url(#SVGID_00000023271280712172995410000014978931118711740564_);}
	.st94{clip-path:url(#SVGID_00000176009592106513146550000002383872964456006824_);}
	.st95{clip-path:url(#SVGID_00000033346540773234928490000015328663543160116105_);}
	.st96{clip-path:url(#SVGID_00000176013781113332153660000005659302663723225768_);}
	.st97{clip-path:url(#SVGID_00000031186552154201661900000002599278286789643422_);}
	.st98{clip-path:url(#SVGID_00000170280468030954515890000007807652704201878170_);}
	.st99{clip-path:url(#SVGID_00000036242761468184892160000011231785078375857310_);}
	.st100{clip-path:url(#SVGID_00000064354275924509126230000018381593304332189330_);}
	.st101{clip-path:url(#SVGID_00000120525301838610929900000016032088147647049126_);}
	.st102{clip-path:url(#SVGID_00000038379010831847773150000007506204195887055239_);}
	.st103{clip-path:url(#SVGID_00000098204006174507022480000015466842282193715383_);}
	.st104{clip-path:url(#SVGID_00000170984072889303470990000011850817216275397558_);}
	.st105{clip-path:url(#SVGID_00000088109785892385305130000012377017510218748560_);}
	.st106{clip-path:url(#SVGID_00000149345994089611496890000010046447758026039707_);}
	.st107{clip-path:url(#SVGID_00000108282582991102496550000008028091394595402427_);}
	.st108{clip-path:url(#SVGID_00000021115316823428901330000016812949327653366672_);}
	.st109{clip-path:url(#SVGID_00000054251120038610488130000000368672507855741605_);}
	.st110{clip-path:url(#SVGID_00000061445023349737767430000005631406050051924903_);}
	.st111{clip-path:url(#SVGID_00000155864063415066038710000004830922869344584585_);}
	.st112{clip-path:url(#SVGID_00000183210429483277795230000015608508179823231918_);}
	.st113{clip-path:url(#SVGID_00000039853474170931987070000014096502026565125303_);}
	.st114{clip-path:url(#SVGID_00000181787629417361851610000007232960219199074997_);}
	.st115{clip-path:url(#SVGID_00000111165177783633935390000000437221893133871236_);}
	.st116{clip-path:url(#SVGID_00000062903899864108162650000008628615774048557976_);}
	.st117{fill:#FFFFFF;stroke:#142664;stroke-width:3;stroke-linecap:round;stroke-linejoin:round;}
	.st118{clip-path:url(#SVGID_00000170251887488769251190000008844400726275911070_);}
	.st119{fill-rule:evenodd;clip-rule:evenodd;fill:#FFBCC6;}
	.st120{fill-rule:evenodd;clip-rule:evenodd;fill:#272F60;}
	.st121{fill-rule:evenodd;clip-rule:evenodd;fill:#FFFFFF;}
	.st122{fill-rule:evenodd;clip-rule:evenodd;fill:#FB657C;}
	.st123{clip-path:url(#SVGID_00000069382394411972945880000005473553787586492554_);}
	.st124{clip-path:url(#SVGID_00000004525307053800046400000012334574545037404045_);}
	.st125{clip-path:url(#SVGID_00000137837308160972064460000014608733584029399427_);}
	.st126{clip-path:url(#SVGID_00000173160634537749926660000003444981997264141733_);}
	.st127{clip-path:url(#SVGID_00000113345174838013519660000001994535352307767172_);}
	.st128{clip-path:url(#SVGID_00000017477169931389503110000013666651014332403628_);}
	.st129{clip-path:url(#SVGID_00000092454340629559252260000008671113142951087039_);}
	.st130{clip-path:url(#SVGID_00000013185501091395460520000012512267454063036074_);}
	.st131{clip-path:url(#SVGID_00000148622900841392769850000000761449408790170027_);}
	.st132{clip-path:url(#SVGID_00000114073198596804578030000007327756225161679541_);}
	.st133{clip-path:url(#SVGID_00000157302487493320850380000017009067964290842791_);}
	.st134{clip-path:url(#SVGID_00000000209216071537715150000003922191449146017192_);}
	.st135{clip-path:url(#SVGID_00000181044864832216594150000014559355733135018939_);}
	.st136{clip-path:url(#SVGID_00000152241000288258213320000013070240733457641644_);}
	.st137{clip-path:url(#SVGID_00000067210581997375971010000016856309594485303711_);}
	.st138{clip-path:url(#SVGID_00000090294824643137629330000004455551995466307713_);}
	.st139{clip-path:url(#SVGID_00000072997684130695672060000016217883199915151806_);}
	.st140{clip-path:url(#SVGID_00000061440119684430467080000009229928815793881274_);}
	.st141{clip-path:url(#SVGID_00000149378198690115765350000016367432071701453460_);}
	.st142{clip-path:url(#SVGID_00000162321159679507401010000015926490700717620111_);}
	.st143{clip-path:url(#SVGID_00000172431702752758986300000018321039436801715105_);}
	.st144{clip-path:url(#SVGID_00000060750402675041996970000001468991319620742061_);}
	.st145{clip-path:url(#SVGID_00000051350959511491091760000016178605292357546917_);}
	.st146{clip-path:url(#SVGID_00000098906552977311948110000018416401414127356845_);}
	.st147{clip-path:url(#SVGID_00000127037051663721069960000014749237805211817376_);}
	.st148{clip-path:url(#SVGID_00000072244909149398264460000002811046585150677383_);}
	.st149{clip-path:url(#SVGID_00000017517651783482969870000000692344381829947794_);}
	.st150{clip-path:url(#SVGID_00000008149490403104510250000004097069768782267820_);}
	.st151{clip-path:url(#SVGID_00000026125633949974221490000016482860499650890409_);}
	.st152{clip-path:url(#SVGID_00000127758867850230497290000001875057569958231206_);}
	.st153{clip-path:url(#SVGID_00000031171613482078169320000009269813519854850738_);}
	.st154{clip-path:url(#SVGID_00000008108768666581874330000000442423394438172811_);}
	.st155{clip-path:url(#SVGID_00000183961262374173639030000016379920649010262668_);}
	.st156{clip-path:url(#SVGID_00000152225639448930471320000001569486698969162157_);}
	.st157{clip-path:url(#SVGID_00000135664349293309620380000002563242303171407544_);}
	.st158{clip-path:url(#SVGID_00000102529424703908591950000002012303642377478026_);}
	.st159{clip-path:url(#SVGID_00000031175364372289463220000004126750255348586909_);}
	.st160{clip-path:url(#SVGID_00000010992939208795910150000001713915970397031047_);}
	.st161{clip-path:url(#SVGID_00000030451890590638812970000017052277798282935218_);}
	.st162{clip-path:url(#SVGID_00000023268497134789383140000016336225252147696046_);}
	.st163{clip-path:url(#SVGID_00000129181072218959511060000014203422517719545767_);}
	.st164{clip-path:url(#SVGID_00000117665236650222013860000003189810276774944147_);}
	.st165{clip-path:url(#SVGID_00000089531718686517206180000010002926337376588457_);}
	.st166{clip-path:url(#SVGID_00000128468986582734044400000016311400726101463692_);}
	.st167{clip-path:url(#SVGID_00000018954812011703212410000011186920097190662550_);}
	.st168{clip-path:url(#SVGID_00000161627573248263912730000013257813177494089351_);}
	.st169{clip-path:url(#SVGID_00000092455474064547885870000014780034031615357347_);}
	.st170{clip-path:url(#SVGID_00000062878795034822851460000014525634224824907966_);}
	.st171{clip-path:url(#SVGID_00000160908619484667387060000010264389354193429895_);}
	.st172{clip-path:url(#SVGID_00000176040183156422748070000002066990179319218565_);}
	.st173{clip-path:url(#SVGID_00000160904248941084186070000002361512923786842303_);}
	.st174{clip-path:url(#SVGID_00000026871779053574067940000005186010110449027204_);}
	.st175{clip-path:url(#SVGID_00000034789627661377082930000001952048822023189678_);}
	.st176{clip-path:url(#SVGID_00000096020064991134230250000008243091449809253051_);}
	.st177{clip-path:url(#SVGID_00000122712606177463652210000016663541524570426003_);}
	.st178{clip-path:url(#SVGID_00000147920328591128153660000014459406199029841597_);}
	.st179{clip-path:url(#SVGID_00000120534630548526060710000007004661142160216466_);}
	.st180{clip-path:url(#SVGID_00000080168501280720816040000015377599213703949193_);}
	.st181{clip-path:url(#SVGID_00000033357488553751463930000008789253341971743623_);}
	.st182{clip-path:url(#SVGID_00000061439700795404745610000007010879200470355898_);}
	.st183{clip-path:url(#SVGID_00000055678748332952537070000006985334684176335029_);}
	.st184{clip-path:url(#SVGID_00000037678353404729509790000000523591959598941357_);}
	.st185{clip-path:url(#SVGID_00000075868452069679447130000007688183434370325647_);}
	.st186{clip-path:url(#SVGID_00000056399775632045840970000010959347708691118214_);}
	.st187{clip-path:url(#SVGID_00000026136122891407566260000003585378566634211728_);}
	.st188{clip-path:url(#SVGID_00000083781647301995207530000004711918301338770610_);}
	.st189{clip-path:url(#SVGID_00000174571732760387816680000002029359808649288625_);}
	.st190{clip-path:url(#SVGID_00000037686795024276916330000010919829616518773154_);}
	.st191{clip-path:url(#SVGID_00000010271111606971566250000008669192369413270416_);}
	.st192{clip-path:url(#SVGID_00000100384188001821657500000013957482170047270826_);}
	.st193{clip-path:url(#SVGID_00000060001954806572743560000013480598355866955928_);}
	.st194{clip-path:url(#SVGID_00000042731533880960548340000007072595648688106883_);}
	.st195{clip-path:url(#SVGID_00000140702970811511604980000010057675044140511145_);}
	.st196{clip-path:url(#SVGID_00000021108039021927040540000018207021881633899428_);}
	.st197{clip-path:url(#SVGID_00000103953950961370905730000010780522982670601659_);}
	.st198{clip-path:url(#SVGID_00000106124080769170174810000012787934093448730036_);}
	.st199{clip-path:url(#SVGID_00000167367074599799469940000002420910541363777458_);}
	.st200{clip-path:url(#SVGID_00000104704689715457527950000015749785999561460626_);}
	.st201{clip-path:url(#SVGID_00000116940062431124956990000002970867906239491733_);}
	.st202{clip-path:url(#SVGID_00000177469009139764866730000012202788633057377207_);}
	.st203{clip-path:url(#SVGID_00000153666419405324720980000002774702530549165746_);}
	.st204{clip-path:url(#SVGID_00000056418176448946104330000016504933896265017768_);}
	.st205{clip-path:url(#SVGID_00000011018746274913900220000001414109554910837395_);}
	.st206{clip-path:url(#SVGID_00000049912786057765186500000008854481097845097113_);}
	.st207{clip-path:url(#SVGID_00000091718120014887477640000017288844214580006804_);}
	.st208{clip-path:url(#SVGID_00000146488712316587193790000004916518802147254187_);}
	.st209{clip-path:url(#SVGID_00000056392126164355181790000013582612873268168882_);}
	.st210{clip-path:url(#SVGID_00000062907419691895995190000014303856720991896969_);}
	.st211{clip-path:url(#SVGID_00000080919365526783382680000007611197160365266570_);}
	.st212{clip-path:url(#SVGID_00000073680504071972604400000009293512856428718253_);}
	.st213{clip-path:url(#SVGID_00000129886116191132493770000002944705556931264419_);}
	.st214{clip-path:url(#SVGID_00000054970591597904708150000003030129777008176034_);}
	.st215{clip-path:url(#SVGID_00000081646470281130199810000006085695955004035755_);}
	.st216{clip-path:url(#SVGID_00000161626487336576450650000011880698778965368466_);}
	.st217{clip-path:url(#SVGID_00000074405322406236493710000013360298340952170429_);}
	.st218{clip-path:url(#SVGID_00000091000077298761951350000015265465548635064194_);}
	.st219{clip-path:url(#SVGID_00000117667792050155726210000000461257698941403319_);}
	.st220{clip-path:url(#SVGID_00000069370701444787269870000016014090845205434001_);}
	.st221{clip-path:url(#SVGID_00000183235540182976253830000011909308449452644784_);}
	.st222{clip-path:url(#SVGID_00000067947136010773490080000011736032509019665325_);}
	.st223{clip-path:url(#SVGID_00000105401080966490820570000007446708510001172126_);}
	.st224{clip-path:url(#SVGID_00000062180167692490210960000007490067823930896298_);}
	.st225{clip-path:url(#SVGID_00000034796431353593320220000014852714326386482094_);}
	.st226{clip-path:url(#SVGID_00000116201482410656676150000013372901570214422692_);}
	.st227{clip-path:url(#SVGID_00000103258722011921350800000013925706445763884203_);}
	.st228{clip-path:url(#SVGID_00000122697586894859013470000002536137466491479170_);}
	.st229{clip-path:url(#SVGID_00000091015218621776943730000012939168427941214854_);}
	.st230{clip-path:url(#SVGID_00000095307265503630164830000001541237215762971782_);}
	.st231{clip-path:url(#SVGID_00000155856107138359509330000003003428105625126317_);}
	.st232{clip-path:url(#SVGID_00000087391274009929118900000000428408198438410891_);}
	.st233{clip-path:url(#SVGID_00000042726986339533842350000004028920535027207867_);}
	.st234{clip-path:url(#SVGID_00000059989144230179191710000017659013543408892060_);}
	.st235{clip-path:url(#SVGID_00000062193527700859705740000001673679841964646016_);}
	.st236{clip-path:url(#SVGID_00000039107370889315412600000008586041853146837152_);}
	.st237{clip-path:url(#SVGID_00000052086203965416887760000002759395956662701965_);}
	.st238{clip-path:url(#SVGID_00000125582634731549957730000015648838579371142810_);}
	.st239{clip-path:url(#SVGID_00000023246311748308829580000008994139984488377497_);}
	.st240{clip-path:url(#SVGID_00000168803504886976792620000004855871372840774841_);}
	.st241{clip-path:url(#SVGID_00000132069771916270983770000017801333123145808797_);}
	.st242{clip-path:url(#SVGID_00000067212249540521643960000013490483376684783252_);}
	.st243{clip-path:url(#SVGID_00000079478972654022129790000011162742522925795263_);}
	.st244{clip-path:url(#SVGID_00000119811672643206926300000002767801706278189996_);}
	.st245{clip-path:url(#SVGID_00000082328964742639116120000010700381032770682551_);}
	.st246{clip-path:url(#SVGID_00000105397281899547435980000016507246375897696136_);}
	.st247{clip-path:url(#SVGID_00000033328232799290595610000006286152928569379494_);}
	.st248{clip-path:url(#SVGID_00000029737721811789490500000011300755299869973419_);}
	.st249{clip-path:url(#SVGID_00000107553334861722904570000004358033974059452577_);}
	.st250{clip-path:url(#SVGID_00000129890358361493945200000011063792047355320975_);}
	.st251{clip-path:url(#SVGID_00000080184121739235632050000010848605073980703413_);}
	.st252{clip-path:url(#SVGID_00000160903166271874068300000017792853861789004190_);}
	.st253{fill:#E94966;}
	.st254{fill:#13224F;}
	.st255{fill:url(#);}
	.st256{clip-path:url(#SVGID_00000124135216211292901880000012528051789152762292_);}
	.st257{fill:#FFCE00;}
	.st258{fill-rule:evenodd;clip-rule:evenodd;fill:#FD657C;}
	.st259{clip-path:url(#SVGID_00000157995982098391580720000012696444401322091946_);}
	.st260{fill:url(#SVGID_00000106839032528803247280000004187421040353599617_);}
	.st261{fill:#FFFFFF;stroke:#FFFFFF;stroke-width:10;}
	.st262{fill:none;stroke:#272F60;stroke-width:3;stroke-linecap:round;stroke-linejoin:round;}
	.st263{clip-path:url(#SVGID_00000058550906947055429150000011493032151070208387_);}
	.st264{fill:none;stroke:#FFFFFF;stroke-width:5;}
	.st265{fill:#3580F8;}
	.st266{clip-path:url(#SVGID_00000132060939253194592810000016117719568661748616_);}
	.st267{fill:#FDF2F5;}
	.st268{clip-path:url(#SVGID_00000137834331883460238530000016113369883152383127_);}
	.st269{fill:#44C400;}
	.st270{clip-path:url(#SVGID_00000020381166790542473170000017513753719671322771_);}
	.st271{clip-path:url(#SVGID_00000139278437767120103190000008901686734136406150_);}
	.st272{clip-path:url(#SVGID_00000130646620744454584570000018308034923566604477_);}
	.st273{fill:#F1AAB9;}
	.st274{fill:#E34C6A;}
	.st275{clip-path:url(#SVGID_00000088821714459271156740000006264541098599126669_);}
	.st276{clip-path:url(#SVGID_00000178898133830772025170000007596089995894238655_);}
	.st277{clip-path:url(#SVGID_00000100364978061278317730000013237489013953869487_);}
	.st278{clip-path:url(#SVGID_00000127022933900301139930000016809809671680917900_);}
	.st279{clip-path:url(#SVGID_00000056429246604064687130000010121243651725148593_);}
	.st280{clip-path:url(#SVGID_00000000927408875461313580000015788870879385340563_);}
	.st281{clip-path:url(#SVGID_00000069386649627298963130000015052234794620564922_);}
	.st282{clip-path:url(#SVGID_00000178170858593253805460000011636233796788360609_);}
	.st283{display:none;}
	.st284{display:inline;}
	.st285{display:inline;enable-background:new    ;}
	.st286{clip-path:url(#SVGID_00000095329678388508869920000017643723799879714473_);}
	.st287{clip-path:url(#SVGID_00000138538192546412353860000002019504752312730015_);}
	.st288{clip-path:url(#SVGID_00000027583792756180962840000000629505006674870203_);}
	.st289{clip-path:url(#SVGID_00000084503005292948025860000016950767529230406068_);}
	.st290{fill:none;stroke:#FFFFFF;stroke-miterlimit:10;}
	.st291{clip-path:url(#SVGID_00000174581454903451500770000014430550205240929941_);}
	.st292{clip-path:url(#SVGID_00000067931120781257638770000012139888124805038209_);}
	.st293{clip-path:url(#SVGID_00000037687582814635254330000004161848758813479608_);}
	.st294{clip-path:url(#SVGID_00000091709066454936930880000009041327238398083761_);}
	.st295{clip-path:url(#SVGID_00000162354675280906223060000017120615713126984859_);}
	.st296{clip-path:url(#SVGID_00000041266011903147883570000004868264358781969297_);}
	.st297{clip-path:url(#SVGID_00000020375885580705981810000000853390391345476256_);}
	.st298{clip-path:url(#SVGID_00000063608926169181226460000006404933647817623461_);}
	.st299{clip-path:url(#SVGID_00000063609254386917820270000001190296170570312599_);}
	.st300{clip-path:url(#SVGID_00000029767783701236867210000014587065988588076683_);}
	.st301{clip-path:url(#SVGID_00000183237705006422592810000009758192697636639125_);}
	.st302{clip-path:url(#SVGID_00000109743243888608340840000016875035224759369860_);}
	.st303{clip-path:url(#SVGID_00000031925534811843791000000010997242228358636948_);}
	.st304{clip-path:url(#SVGID_00000013881344765293944980000011837453092509011594_);}
	.st305{clip-path:url(#SVGID_00000182509701906794102450000004119985721675911820_);}
	.st306{clip-path:url(#SVGID_00000163037885939740539700000000975023961642921871_);}
	.st307{fill:none;stroke:#142664;stroke-width:4.0018654;stroke-linecap:round;stroke-linejoin:round;stroke-miterlimit:4.0018654;}
	.st308{clip-path:url(#SVGID_00000157298598126914162330000016936021864275658402_);}
	.st309{clip-path:url(#SVGID_00000029757735927898107270000005362316624830162304_);}
	.st310{clip-path:url(#SVGID_00000028307218602293500870000010155198253545274511_);}
	.st311{clip-path:url(#SVGID_00000145053554836623688120000009646966939931710088_);}
	.st312{clip-path:url(#SVGID_00000145039861797805236890000013440128604546871725_);}
	.st313{clip-path:url(#SVGID_00000139983760045575781530000005658221212992664711_);}
	.st314{clip-path:url(#SVGID_00000123441261238178105970000013542802058286351018_);}
	.st315{clip-path:url(#SVGID_00000129175861642752192900000002788840645889147049_);}
	.st316{clip-path:url(#SVGID_00000119831158278966470440000003385361151160712895_);}
	.st317{clip-path:url(#SVGID_00000024716549532057042040000013446131799941903005_);}
	.st318{clip-path:url(#SVGID_00000056404457437612371570000016605608814286776766_);}
	.st319{clip-path:url(#SVGID_00000066490249163877356350000003727430538322508160_);}
	.st320{clip-path:url(#SVGID_00000140001023058161021770000012819808326562471842_);}
	.st321{clip-path:url(#SVGID_00000054967293761475686710000008865069965916694932_);}
	.st322{clip-path:url(#SVGID_00000013877827327282934070000017968712903044026774_);}
	.st323{clip-path:url(#SVGID_00000059291994034361793350000012922553556249832835_);}
	.st324{clip-path:url(#SVGID_00000005979259795473218670000012911816999421433257_);fill:#FD657C;}
	.st325{clip-path:url(#SVGID_00000005979259795473218670000012911816999421433257_);fill:#272F60;}
</style>
<g id="FONDS">
</g>
<g id="ILLUSTRATIONS">
	<g id="Groupe_2276" transform="translate(-2354.25 6626)">
		<path id="Tracé_7042_00000181074859941377311740000008112136829534290098_" class="st13" d="M2383.4399414-6562.824707
			c0.2744141-0.8491211-0.1743164-1.7626953-1.0141602-2.0649414c-3.5478516-1.1728516-12.3950195-4.0830078-15.9890137-5.2558594
			c-0.8435059-0.2705078-1.7473145,0.190918-2.0229492,1.0332031c-0.8288574,2.6279297-2.4880371,7.8369141-3.3178711,10.4648438
			c-0.2744141,0.8491211,0.1740723,1.7626953,1.013916,2.0649414c3.5480957,1.1728516,12.3950195,4.0830078,15.9890137,5.2558594
			c0.8447266,0.2734375,1.7509766-0.1879883,2.0270996-1.0317383c0.8288574-2.6279297,2.4880371-7.8842773,3.3178711-10.465332"/>
		<path id="Tracé_7043_00000156585809992424248690000017878061928758994326_" class="st13" d="M2373.9018555-6559.1616211
			c-0.5742188-0.0092773-1.1450195-0.0883789-1.7001953-0.2353516c-1.7026367-0.4702148-3.1462402-1.6020508-4.0087891-3.1435547
			c-0.8762207-1.5551758-1.107666-3.3916016-0.6450195-5.1152344c0.4609375-1.6420898,1.1999512-3.6601562,2.8999023-4.6459961
			c1.3359375-0.7509766,3.0410156-0.7998047,5.2070312-0.09375c5.5749512,1.7358398,5.5290527,4.9736328,4.6540527,8.2119141
			c-0.4482422,1.7158203-1.5583496,3.184082-3.0871582,4.0830078c-0.9936523,0.6230469-2.1450195,0.9487305-3.3178711,0.9389648
			 M2372.84375-6571.081543c-0.5456543-0.0092773-1.0847168,0.1196289-1.5668945,0.375
			c-0.9221191,0.515625-1.5209961,1.5996094-2.0739746,3.5668945c-0.6965332,2.6118164,0.8476562,5.2958984,3.4558105,6.0068359
			c2.5546875,0.6850586,5.1809082-0.8305664,5.8659668-3.3852539c0.012207-0.0444336,0.0234375-0.0893555,0.0341797-0.1347656
			c0.690918-2.5810547,0.875-4.6928711-3.4560547-6.0537109c-0.7336426-0.2207031-1.4924316-0.3466797-2.2580566-0.375"/>
		<path id="Tracé_7044_00000095319197380496858860000009440958048632546949_" class="st18" d="M2363.9038086-6556.0195312
			l4.2849121-13.5620117l1.7001953,0.5629883l-4.2851562,13.5620117L2363.9038086-6556.0195312z"/>
		<path id="Tracé_7045_00000061470435386454827430000017404043279785958583_" class="st18" d="M2374.59375-6552.5004883
			l4.2851562-13.5620117l1.6999512,0.5629883l-4.2849121,13.5620117L2374.59375-6552.5004883z"/>
		<path id="Tracé_7046_00000128467458665082485010000016932848039063227053_" class="st13" d="M2396.8078613-6569.8276367
			c-7.6428223-0.9716797-13.0505371-7.9555664-12.0783691-15.5986328
			c0.8024902-6.3081055,5.7697754-11.2758789,12.0783691-12.078125v-0.144043
			c0.1030273-11.0136719,9.1147461-19.8583984,20.128418-19.7553711c4.1279297,0.0385742,8.1418457,1.3569336,11.4885254,3.7734375
			c7.7470703-4.5458984,17.7124023-1.9511719,22.2585449,5.7958984c1.1203613,1.909668,1.8393555,4.027832,2.1123047,6.2250977
			c0.5610352-0.0786133,1.1276855-0.1098633,1.6940918-0.0932617c6.6147461-0.019043,11.9997559,5.3134766,12.0449219,11.9282227
			c0.0100098,1.7060547-0.3596191,3.3930664-1.0820312,4.9389648c3.8696289,2.2851562,5.1542969,7.2744141,2.8691406,11.144043
			c-1.4812012,2.5083008-4.1901855,4.0336914-7.1030273,3.9990234L2396.8078613-6569.8276367z"/>
		<path id="Tracé_7047_00000020390751478843083190000009244153180836519345_" class="st12" d="M2452.0009766-6605.0053711
			c0.3874512,1.1015625,0.6557617,2.2412109,0.8000488,3.3999023c0.3740234-0.0541992,0.7509766-0.0849609,1.1289062-0.0927734
			c0.0080566,0.9365234-0.0546875,1.8725586-0.1879883,2.7998047c-0.140625,0.9379883-0.3771973,1.859375-0.7060547,2.7490234
			c-0.6132812,1.7744141-1.5024414,3.4414062-2.6350098,4.9389648c-0.2214355,0.2910156-0.6254883,0.3710938-0.940918,0.1860352
			c-0.2929688-0.2163086-0.3742676-0.6191406-0.1879883-0.9321289c0.9406738-1.4521484,1.654541-3.0385742,2.1169434-4.7060547
			c0.2487793-0.8208008,0.421875-1.6630859,0.5168457-2.5161133c0.1503906-0.8461914,0.2290039-1.703125,0.2351074-2.5629883
			c0.0480957-0.8720703,0.0009766-1.7470703-0.1411133-2.6088867c0.0705566-0.2114258,0.0705566-0.4404297,0-0.6518555"/>
		<path id="Tracé_7048_00000022537899818721815610000000360658389373691834_" class="st12" d="M2467.4289551-6583.1035156
			c-0.4914551-0.4697266-1.0273438-0.8911133-1.6000977-1.2578125c-0.6604004-0.4047852-1.3725586-0.7182617-2.1169434-0.9321289
			c-0.7451172-0.2407227-1.5227051-0.3666992-2.3059082-0.3730469c-0.859375-0.0356445-1.7185059,0.074707-2.5410156,0.3261719
			c-0.8352051,0.2319336-1.6289062,0.59375-2.3520508,1.0717773c-0.3000488,0.215332-0.7167969,0.1533203-0.9411621-0.1401367
			c-0.2175293-0.2963867-0.154541-0.7128906,0.1411133-0.9316406c0.8071289-0.6132812,1.6936035-1.1152344,2.6350098-1.4912109
			c0.9719238-0.3291016,1.9858398-0.5170898,3.0109863-0.559082c0.9543457-0.0195312,1.90625,0.105957,2.822998,0.3730469
			c0.6103516,0.1713867,1.1958008,0.4223633,1.7409668,0.7460938c-0.1391602,0.4990234-0.3286133,0.9829102-0.5649414,1.4438477
			c0.7895508,0.4433594,1.4912109,1.027832,2.0698242,1.7241211"/>
		<path id="Tracé_7049_00000001660957687193756450000000345017959525447852_" class="st12" d="M2396.8078613-6598.7617188
			c0.375-0.0390625,0.7519531-0.0546875,1.1289062-0.046875c1.4611816-0.0068359,2.916748,0.1811523,4.328125,0.559082
			c1.401123,0.4033203,2.7333984,1.0161133,3.9519043,1.8168945c2.4431152,1.5766602,4.3984375,3.8032227,5.6459961,6.4296875
			c0.1618652,0.3227539,0.0366211,0.7158203-0.2819824,0.8852539c-0.324707,0.1611328-0.7189941,0.0375977-0.8937988-0.2802734
			c-1.2246094-2.3046875-3.0649414-4.2241211-5.3161621-5.5449219c-1.121582-0.6625977-2.3232422-1.1791992-3.5759277-1.5380859
			c-1.2404785-0.3515625-2.5217285-0.5395508-3.8110352-0.5585938c-1.3486328-0.0351562-2.6953125,0.1220703-4,0.4658203
			c-0.6589355,0.1860352-1.3168945,0.4189453-1.9289551,0.6518555c1.4780273-0.7958984,3.0881348-1.3168945,4.7519531-1.5380859
			v-1.2998047L2396.8078613-6598.7617188z"/>
		<path id="Tracé_7050_00000052789364126448084260000009373708945438457266_" class="st12" d="M2416.5678711-6583.246582
			c1.8759766-0.9228516,4.1464844-0.2543945,5.2229004,1.5380859c0.4997559,0.8422852,0.6677246,1.840332,0.4711914,2.7998047
			c-0.2229004,0.9995117-0.8317871,1.8706055-1.6940918,2.4228516c-0.3061523,0.1679688-0.418457,0.5517578-0.2507324,0.8579102
			c0.005127,0.0092773,0.0102539,0.0185547,0.0158691,0.0273438c0.1762695,0.3095703,0.5700684,0.4174805,0.8796387,0.2412109
			c0.0046387-0.0024414,0.0095215-0.0053711,0.0141602-0.0083008c1.2543945-0.6416016,2.1899414-1.7705078,2.5881348-3.1220703
			c0.8481445-2.7436523-0.6884766-5.6557617-3.4321289-6.5039062c-0.1403809-0.043457-0.2824707-0.0805664-0.4257812-0.1118164
			c-1.3811035-0.3447266-2.8430176-0.1088867-4.0461426,0.6518555c-0.3061523,0.1674805-0.418457,0.5517578-0.2507324,0.8579102
			c0.005127,0.0092773,0.0102539,0.0180664,0.0158691,0.0268555c0.0996094,0.3164062,0.4365234,0.4916992,0.7526855,0.3920898
			c0.0495605-0.015625,0.097168-0.0380859,0.1411133-0.065918"/>
		<path id="Tracé_7051_00000127033106498437155790000009040856066078764713_" class="st12" d="M2429.6928711-6614.277832
			c0.4296875,0.4121094,0.8378906,0.8461914,1.2231445,1.300293c0.8647461,1.0214844,1.6213379,2.1303711,2.2578125,3.3076172
			c0.385498,0.7036133,0.7158203,1.4355469,0.9880371,2.1904297c0.6162109,1.7607422,0.9963379,3.5952148,1.1311035,5.4555664
			c0.0256348,0.378418-0.2600098,0.7055664-0.6381836,0.730957c-0.3596191,0.0244141-0.6767578-0.2333984-0.7258301-0.5908203
			c-0.2670898-1.7128906-0.7409668-3.387207-1.4111328-4.9858398c-0.2819824-0.7001953-0.6120605-1.3510742-0.940918-2
			c-0.0471191-0.1401367-0.1411133-0.2329102-0.1879883-0.3730469c-0.2785645,0.7998047-0.6748047,1.5541992-1.1760254,2.2368164
			c-1.3686523,1.9331055-3.451416,3.2412109-5.7871094,3.6342773c0.1420898,0.5629883,0.1899414,1.1455078,0.1411133,1.7241211
			c-0.0754395,0.8305664-0.3154297,1.6381836-0.7060547,2.3759766c-0.4943848,0.7836914-1.1523438,1.4511719-1.9289551,1.956543
			c-0.7939453,0.4594727-1.6757812,0.7451172-2.5881348,0.8393555c-0.3544922,0.081543-0.708252-0.1401367-0.7897949-0.4946289
			s0.1398926-0.7084961,0.4943848-0.7900391c0.0354004-0.0078125,0.0712891-0.0131836,0.1074219-0.015625
			c1.3271484-0.3364258,2.4628906-1.1928711,3.1520996-2.3759766c0.5808105-0.9135742,0.8300781-1.9990234,0.7060547-3.074707
			c-0.8925781,0.0166016-1.7822266-0.109375-2.6350098-0.3730469c-2.3374023-0.6816406-4.3129883-2.2548828-5.5-4.3798828
			c-0.1845703-0.2905273-0.0986328-0.6757812,0.1916504-0.8603516c0.0141602-0.0087891,0.0285645-0.0170898,0.0432129-0.0249023
			c0.2971191-0.1860352,0.689209-0.0961914,0.8752441,0.2011719c0.0065918,0.0102539,0.0129395,0.0209961,0.0187988,0.0317383
			c1.6520996,2.6240234,4.6938477,4.0297852,7.7629395,3.5878906c0.9907227-0.1328125,1.947998-0.4487305,2.822998-0.9316406
			c0.9116211-0.4819336,1.7126465-1.1484375,2.3520508-1.9570312c0.6435547-0.8168945,1.1230469-1.7504883,1.4118652-2.7490234
			c0-0.046875,0.0471191-0.0932617,0.0471191-0.1401367c-0.2819824-0.4189453-0.5649414-0.8388672-0.8000488-1.2109375
			c-0.6589355-0.8847656-1.2229004-1.5380859-1.6469727-2c0.1879883,0.0927734,0.3291016,0.2329102,0.5180664,0.3261719
			c0.4169922-0.1655273,0.8251953-0.3520508,1.2229004-0.559082"/>
		<path id="Tracé_7052_00000156571778325238852380000002301642028939347614_" class="st12" d="M2446.2558594-6612.7407227
			c0.486084,0.3325195,0.942627,0.706543,1.3640137,1.1181641c-0.3830566,0.1391602-0.7468262,0.3271484-1.0820312,0.559082
			c-0.7612305,0.4663086-1.4179688,1.0849609-1.9289551,1.8168945c-0.5021973,0.6445312-0.8557129,1.3925781-1.0349121,2.1899414
			c-0.2106934,0.7895508-0.2587891,1.6142578-0.1411133,2.4228516c0.0773926,0.3637695-0.1547852,0.7211914-0.5185547,0.7988281
			c-0.3635254,0.0771484-0.7211914-0.1552734-0.7983398-0.5185547c-0.2822266-0.9848633-0.3305664-2.0224609-0.1411133-3.0292969
			c0.3366699-2.1977539,1.723877-4.0932617,3.717041-5.0791016l0.5649414-0.2797852"/>
		<path id="Tracé_7053_00000122694099395980462420000000415945979662787969_" class="st12" d="M2397.0898438-6569.8266602
			c0.0991211-1.3129883,0.4506836-2.5942383,1.0349121-3.7739258c0.505127-1.0571289,1.1896973-2.019043,2.0231934-2.8422852
			c0.4853516-0.5083008,1.0397949-0.9458008,1.6469727-1.2998047c-0.4621582-0.4838867-0.8720703-1.0146484-1.2231445-1.5839844
			c-0.326416-0.5551758-0.5795898-1.1508789-0.7529297-1.7709961c-0.1240234-0.4580078-0.2028809-0.9267578-0.2351074-1.3999023
			c-0.0874023-1.1015625,0.0402832-2.2094727,0.3759766-3.262207c0.0864258-0.3461914,0.4370117-0.5566406,0.7832031-0.4702148
			c0.0056152,0.0009766,0.0112305,0.0029297,0.0168457,0.0043945c0.3432617,0.0791016,0.5571289,0.421875,0.4777832,0.7651367
			c-0.0019531,0.0087891-0.0043945,0.0180664-0.0068359,0.0268555c-0.1489258,0.9116211-0.1330566,1.8427734,0.0471191,2.7490234
			c0.0493164,0.3823242,0.144043,0.7578125,0.2819824,1.1176758c0.1733398,0.6279297,0.4099121,1.2368164,0.7060547,1.8173828
			c0.2390137,0.449707,0.5061035,0.8837891,0.7998047,1.2998047c1.5773926-0.7226562,3.2998047-1.0732422,5.0341797-1.0249023
			c0.3588867-0.0283203,0.6728516,0.2397461,0.7009277,0.5986328c0.0283203,0.3588867-0.2397461,0.6728516-0.598877,0.7011719
			c-0.0339355,0.0029297-0.0681152,0.0029297-0.1020508,0c-1.7626953,0.0546875-3.4743652,0.6035156-4.9401855,1.5839844
			c-0.6115723,0.4262695-1.1933594,0.894043-1.7409668,1.3999023c-0.8901367,0.8491211-1.6088867,1.8618164-2.1169434,2.9819336
			c-0.342041,0.7446289-0.5949707,1.5263672-0.7529297,2.3300781L2397.0898438-6569.8266602z"/>
		<path id="Tracé_7054_00000153674540943781132790000006138998923347586945_" class="st12" d="M2453.2199707-6569.6865234
			c0.4128418-1.7910156,0.2480469-3.6665039-0.4709473-5.3579102c-0.3964844-0.9467773-0.9360352-1.8266602-1.6000977-2.6088867
			c-0.673584-0.7749023-1.4677734-1.4355469-2.3520508-1.9570312c-2.7475586-1.6210938-6.1281738-1.7436523-8.9858398-0.3261719
			c-0.2275391,1.7636719-1.059082,3.3935547-2.3530273,4.6132812c-1.5183105,1.4477539-3.5483398,2.2353516-5.6459961,2.1899414
			c-0.3591309,0.0283203-0.6728516-0.2402344-0.7011719-0.5991211s0.2399902-0.6728516,0.598877-0.7011719
			c0.0339355-0.0024414,0.0681152-0.0024414,0.1022949,0c3.473877-0.1157227,6.2363281-2.9541016,6.2580566-6.4296875
			c0.0407715-1.6591797-0.6064453-3.2617188-1.7880859-4.4272461c-1.1740723-1.2211914-2.7768555-1.9379883-4.4699707-2
			c-0.3588867,0.0283203-0.6728516-0.2397461-0.7009277-0.5986328c-0.0283203-0.3588867,0.2397461-0.6728516,0.598877-0.7011719
			c0.0339355-0.0029297,0.0681152-0.0029297,0.1020508,0c2.0878906-0.0400391,4.1105957,0.7275391,5.6459961,2.1430664
			c1.3798828,1.3334961,2.2321777,3.1201172,2.4001465,5.0317383c1.3835449-0.6611328,2.8901367-1.0258789,4.4228516-1.0717773
			c1.890625-0.0292969,3.7561035,0.4365234,5.4111328,1.3510742c1.0588379,0.621582,2.0119629,1.4077148,2.822998,2.3300781
			c0.7980957,0.9360352,1.4196777,2.0097656,1.8349609,3.1679688c0.6728516,1.9165039,0.7868652,3.9848633,0.3288574,5.9638672
			L2453.2199707-6569.6865234z"/>
		<path id="Tracé_7055_00000130628121337580553630000011485154793760095117_" class="st19" d="M2419.3908691-6569.5913086
			c-0.065918,6.0473633-4.9155273,10.953125-10.9619141,11.0888672c-0.1391602-0.0039062-0.2744141,0.0463867-0.3771973,0.1401367
			l-2.9638672,2.9345703c-0.1501465,0.1464844-0.3757324,0.1835938-0.5649414,0.0932617
			c-0.1992188-0.09375-0.3269043-0.2929688-0.3291016-0.5131836v-7.3618164
			c-0.0036621-0.1381836,0.046875-0.2719727,0.1411133-0.3730469c0.1025391-0.09375,0.2370605-0.1435547,0.3759766-0.1401367
			c1.0817871,0,3.3398438,0.046875,3.4819336,0.046875c3.2932129-0.0488281,5.9455566-2.7172852,5.9748535-6.0107422h5.222168
			L2419.3908691-6569.5913086z"/>
		<path id="Tracé_7056_00000130608696551576369690000005370973786652463504_" class="st19" d="M2445.973877-6569.6914062
			l6.9160156,6.8486328c0.1025391,0.09375,0.2373047,0.144043,0.3759766,0.1401367h4.2338867
			c0.2207031,0.0009766,0.4216309,0.1274414,0.5180664,0.3261719c0.0898438,0.1875,0.0522461,0.4111328-0.0939941,0.559082
			l-5.269043,5.2177734c-0.2165527,0.1865234-0.5366211,0.1865234-0.7531738,0l-13.2678223-13.0917969H2445.973877z"/>
		<path id="Tracé_7057_00000016767347101316068030000017506922060064338845_" class="st12" d="M2384.574707-6583.246582
			c1.376709-0.3261719,2.8105469-0.3261719,4.1870117,0c0.4892578,0.1040039,0.8015137,0.5844727,0.6975098,1.0732422
			c-0.1037598,0.4892578-0.5842285,0.8017578-1.0734863,0.6977539c-1.1962891-0.2729492-2.4421387-0.2407227-3.6228027,0.0927734
			c-0.0939941-0.6518555-0.1411133-1.2578125-0.1879883-1.8637695 M2385.5158691-6588.6987305
			c1.2905273-0.1083984,2.5898438-0.0297852,3.8579102,0.2329102c0.4890137,0.1040039,0.8012695,0.5844727,0.6975098,1.0737305
			c-0.1037598,0.4887695-0.5844727,0.8012695-1.0734863,0.6972656c-1.3305664-0.2783203-2.6992188-0.3256836-4.0458984-0.1396484
			c0.1450195-0.6337891,0.3337402-1.2568359,0.5649414-1.8642578"/>
		<path id="Tracé_7058_00000087413422778030720530000016724757773293058199_" class="st19" d="M2465.7817383-6611.4355469
			c-0.7353516-0.0009766-1.4155273-0.390625-1.7878418-1.0249023c-0.4152832-0.7431641-0.3410645-1.6630859,0.1879883-2.3300781
			c0.3808594-0.4160156,0.4904785-1.0136719,0.2819824-1.5380859l-0.0471191-0.046875
			c-0.7529297-1.5839844-1.5058594-3.3081055-2.0229492-4.4262695c-0.1921387-0.3652344-0.1357422-0.8115234,0.1411133-1.1176758
			c0.2460938-0.3413086,0.670166-0.5058594,1.0820312-0.4189453c1.9289551,0.2797852,4.7519531,0.6518555,6.0219727,0.8388672
			c0.3891602,0.0522461,0.7255859,0.2973633,0.894043,0.6518555c0.4699707,1.0249023,1.8349609,3.9609375,2.3999023,5.2651367
			c0.1413574,0.2944336,0.1413574,0.637207,0,0.9321289c-0.5588379,1.2602539-0.6748047,2.6723633-0.3288574,4.0068359
			c0.6223145,1.4746094,0.9423828,3.0585938,0.940918,4.6591797c-0.0378418,6.7470703-5.532959,12.1884766-12.2800293,12.1606445
			c-0.9777832,0.0234375-1.7893066-0.7504883-1.8125-1.7280273c-0.0231934-0.9780273,0.7504883-1.7895508,1.7285156-1.8129883
			c0.027832-0.0004883,0.0559082-0.0004883,0.0839844,0c4.7563477,0.0195312,8.630127-3.8164062,8.6569824-8.5727539
			c0.0080566-1.0517578-0.1838379-2.0952148-0.5649414-3.0751953c-0.5478516-1.4916992-1.9873047-2.4667969-3.5759277-2.4228516"/>
		<path id="Tracé_7059_00000023983007622964188540000009827397283660982961_" class="st19" d="M2371.4487305-6570.8056641
			c0.0939941-0.5585938,0.1879883-1.0717773,0.2351074-1.4907227c0.0314941-0.3208008,0.2036133-0.6108398,0.4699707-0.7919922
			c1.1323242-0.7983398,1.947998-1.9692383,2.3049316-3.3081055c0.203125-1.597168,0.7316895-3.1352539,1.5529785-4.5200195
			c3.425293-5.8183594,10.8972168-7.793457,16.75-4.4267578c0.8481445,0.4760742,1.1496582,1.5493164,0.673584,2.3974609
			c-0.0048828,0.0083008-0.0097656,0.0170898-0.0146484,0.0253906c-0.4990234,0.8505859-1.5895996,1.1416016-2.4458008,0.6518555
			c-4.1411133-2.3774414-9.4238281-0.9863281-11.8571777,3.1220703c-0.5371094,0.8994141-0.888916,1.8974609-1.0349121,2.9350586
			c-0.2028809,1.5371094,0.5397949,3.0449219,1.8820801,3.8208008c0.6306152,0.3691406,1.0229492,1.0405273,1.0349121,1.7709961
			c0.0002441,0.8486328-0.5239258,1.6088867-1.3168945,1.9101562c-0.3947754,0.1289062-0.7185059,0.4155273-0.894043,0.7919922
			c-0.3759766,0.7460938-0.7529297,1.0722656-1.4589844,0.8852539l-0.2819824-0.0932617
			c-0.5383301-0.2036133-1.0881348-0.3745117-1.6469727-0.5117188l-2.822998-0.8852539
			c-1.1760254-0.4658203-1.3171387-1.0249023-1.1760254-1.8637695c0-0.0932617,0.046875-0.2333984,0.046875-0.3261719V-6570.8056641
			z"/>
		<path id="Tracé_7060_00000033342865120617232240000008119645903226579893_" class="st12" d="M2413.980957-6568.0107422
			c0.1503906-0.5463867,0.229248-1.1098633,0.2348633-1.6767578h5.2270508v0.0927734
			c-0.0002441,0.546875-0.0473633,1.0927734-0.1411133,1.6313477L2413.980957-6568.0107422z"/>
		<path id="Tracé_7061_00000026842039597436760730000012478054556963088768_" class="st12" d="M2465.0288086-6598.2954102
			c0.7385254,0.9384766,1.3994141,1.9360352,1.9760742,2.9819336c-0.5275879,0.2807617-1.0786133,0.5151367-1.6469727,0.699707
			c-0.5927734-1.109375-1.3195801-2.1420898-2.1640625-3.074707c0.6401367-0.1025391,1.2597656-0.3071289,1.8349609-0.605957"/>
		<path id="Tracé_7062_00000134959487965108960020000005288243644030124974_" class="st12" d="M2447.6677246-6568.0097656
			h-7.3398438l-1.6940918-1.6767578h7.3400879L2447.6677246-6568.0097656z"/>
		<path id="Tracé_7063_00000125604815407589090310000008751948176280031107_" class="st19" d="M2397.0439453-6607.6137695
			l1.138916-10.8647461c0.244873-2.1342773,2.0751953-3.730957,4.2229004-3.684082
			c1.2810059,0,2.7001953,0.046875,3.7490234,0.046875c0.6171875,0.0048828,1.2124023-0.2290039,1.6611328-0.652832
			c0.6169434-0.5600586,1.3759766-1.3520508,2.1350098-2.0517578c1.5571289-1.4985352,3.9946289-1.5791016,5.6469727-0.1860352
			l8.3999023,7.0410156l6.4060059-2.425293c0.4692383-0.1850586,0.9997559,0.0444336,1.1860352,0.5131836
			c0.1821289,0.456543-0.0402832,0.9741211-0.4968262,1.15625c-0.0083008,0.003418-0.0166016,0.0063477-0.0251465,0.0097656
			l-39.572998,15.1547852c-0.4692383,0.1850586-0.9995117-0.0444336-1.1860352-0.5126953
			c-0.1821289-0.456543,0.0402832-0.9746094,0.4968262-1.1567383c0.0083008-0.003418,0.0168457-0.0063477,0.0251465-0.0092773
			L2397.0439453-6607.6137695z M2418.685791-6619.9716797l-4.3178711-3.6367188
			c-0.9262695-0.7905273-2.3005371-0.75-3.1791992,0.0927734c-0.7587891,0.7001953-1.5187988,1.4921875-2.1350098,2.0522461
			c-0.8120117,0.7543945-1.8813477,1.1713867-2.9899902,1.1660156c-1.0439453,0-2.4680176-0.0473633-3.7490234-0.0473633
			c-1.2197266-0.0317383-2.2561035,0.8857422-2.3728027,2.1000977l-0.5690918,5.6889648L2418.685791-6619.9716797z"/>
		<path id="Tracé_7064_00000111909703340841893740000007069209502430098084_" class="st12" d="M2390.1379395-6559.0356445
			c0.0888672-1.1108398,0.1779785-1.9550781,0.1779785-1.9550781c0-0.3432617,0.2783203-0.621582,0.6218262-0.621582
			s0.6220703,0.2783203,0.6220703,0.621582c0,0,0.1330566,0.8881836,0.1779785,1.9550781
			c0.2219238,0,0.4001465,0.0439453,0.578125,0.0439453c0.7998047,0.0444336,1.3769531,0.1333008,1.3769531,0.1333008
			c0.3435059,0,0.6220703,0.2783203,0.6220703,0.6220703c0,0.3432617-0.2785645,0.6220703-0.6220703,0.6220703
			c0,0-0.578125,0.0888672-1.3769531,0.1328125c-0.1779785,0-0.3549805,0.0439453-0.578125,0.0439453
			c0,0.222168-0.0439453,0.3999023-0.0439453,0.578125c-0.0439453,0.7998047-0.1330566,1.3769531-0.1330566,1.3769531
			c0,0.3432617-0.2785645,0.6220703-0.6220703,0.6220703s-0.6218262-0.2788086-0.6218262-0.6220703
			c0,0-0.0891113-0.578125-0.1330566-1.3769531c0-0.1782227-0.0439453-0.3999023-0.0439453-0.578125
			c-1.0661621-0.0888672-1.9550781-0.1777344-1.9550781-0.1777344c-0.3435059,0-0.6220703-0.2788086-0.6220703-0.6220703
			c0-0.34375,0.2785645-0.6220703,0.6220703-0.6220703c0.6481934-0.09375,1.3005371-0.152832,1.9550781-0.1782227"/>
		<path id="Tracé_7065_00000081608328700585449160000008400364509154308281_" class="st12" d="M2355.7487793-6568.2143555
			c0.0881348-0.4853516,0.1320801-0.8833008,0.1320801-0.8833008c-0.0012207-0.3413086,0.2744141-0.6186523,0.6157227-0.6201172
			c0.3413086-0.0009766,0.6191406,0.2744141,0.6203613,0.6157227c0,0.0014648,0,0.0029297,0,0.0043945
			c0.0654297,0.2910156,0.109375,0.5859375,0.1318359,0.8833008h0.0439453
			c0.2824707,0.0244141,0.5627441,0.0683594,0.8391113,0.1318359c0.3413086,0.0009766,0.6169434,0.2788086,0.6157227,0.6201172
			c-0.0009766,0.3398438-0.276123,0.6147461-0.6157227,0.6157227c-0.2763672,0.0634766-0.5566406,0.1074219-0.8391113,0.1323242
			h-0.0439453v0.0439453c-0.0244141,0.2822266-0.0686035,0.5625-0.1318359,0.8388672
			c-0.0012207,0.3413086-0.2790527,0.6171875-0.6203613,0.6157227c-0.3395996-0.0009766-0.614502-0.2763672-0.6157227-0.6157227
			c-0.0634766-0.2763672-0.1074219-0.5566406-0.1320801-0.8388672v-0.0439453
			c-0.4848633-0.0883789-0.8828125-0.1323242-0.8828125-0.1323242c-0.3413086-0.0009766-0.6171875-0.2788086-0.6159668-0.6201172
			c0.0012207-0.3393555,0.276123-0.6147461,0.6159668-0.6157227
			C2355.1640625-6568.09375,2355.4602051-6568.1381836,2355.7487793-6568.2143555"/>
		<path id="Tracé_7066_00000145038206154633430910000001105925539846181310_" class="st12" d="M2374.8947754-6600.4506836
			c0.0891113-1.1108398,0.1779785-1.9550781,0.1779785-1.9550781c-0.0014648-0.3432617,0.2758789-0.6230469,0.6193848-0.6245117
			s0.6230469,0.2758789,0.6247559,0.6191406c0,0.0019531,0,0.0039062,0,0.0053711c0,0,0.1328125,0.8881836,0.1779785,1.9550781
			c0.2219238,0,0.3999023,0.0439453,0.5778809,0.0439453c0.8000488,0.0439453,1.3769531,0.1333008,1.3769531,0.1333008
			c0.34375,0,0.6220703,0.2783203,0.6220703,0.6220703c0,0.3432617-0.2783203,0.621582-0.6220703,0.621582
			c0,0-0.5778809,0.0893555-1.3769531,0.1333008c-0.1779785,0-0.3549805,0.0439453-0.5778809,0.0439453
			c0,0.222168-0.0441895,0.3999023-0.0441895,0.578125c-0.0439453,0.7998047-0.1328125,1.3769531-0.1328125,1.3769531
			c0.0014648,0.3432617-0.2758789,0.6230469-0.6193848,0.6245117s-0.623291-0.2758789-0.6247559-0.6191406
			c0-0.0019531,0-0.003418,0-0.0053711c0,0-0.0888672-0.578125-0.1328125-1.3769531
			c0-0.1782227-0.0441895-0.3999023-0.0441895-0.578125c-1.065918-0.0888672-1.954834-0.1782227-1.954834-0.1782227
			c-0.3435059,0-0.6220703-0.2783203-0.6220703-0.621582c0-0.34375,0.2785645-0.6220703,0.6220703-0.6220703
			c0.6479492-0.09375,1.3005371-0.152832,1.954834-0.1782227"/>
		<path id="Tracé_7067_00000110432081473305084770000014603337872764767375_" class="st12" d="M2388.8657227-6618.378418
			c0.0251465-0.0771484,0.0554199-0.1523438,0.0900879-0.2250977c0-0.3481445,0.2819824-0.6298828,0.6298828-0.6298828
			c0.3481445,0,0.630127,0.2817383,0.630127,0.6298828l0,0c0.034668,0.0727539,0.0646973,0.1479492,0.0900879,0.2250977
			c0.0766602,0.0249023,0.1518555,0.0551758,0.2248535,0.0898438c0.3479004-0.0004883,0.6303711,0.2807617,0.6311035,0.6289062
			c0.0004883,0.3481445-0.2810059,0.6303711-0.6289062,0.6308594c-0.0007324,0-0.0014648,0-0.0021973,0
			c-0.072998,0.0351562-0.1481934,0.0649414-0.2248535,0.090332c-0.0253906,0.0766602-0.0554199,0.1518555-0.0900879,0.2246094
			c0,0.3481445-0.2819824,0.6303711-0.630127,0.6303711c-0.3479004,0-0.6298828-0.2822266-0.6298828-0.6303711
			c-0.034668-0.0727539-0.0649414-0.1479492-0.0900879-0.2246094c-0.0769043-0.0253906-0.1518555-0.0551758-0.2248535-0.090332
			c-0.3481445,0.0009766-0.6306152-0.2807617-0.6311035-0.6289062c-0.0004883-0.3476562,0.2810059-0.6303711,0.6289062-0.6308594
			c0.0007324,0,0.0014648,0,0.0021973,0C2388.7138672-6618.3232422,2388.7888184-6618.3535156,2388.8657227-6618.378418"/>
		<path id="Tracé_7068_00000079472566253156381250000015520857690878771371_" class="st12" d="M2443.0817871-6621.7841797
			c0.0881348-0.4853516,0.1320801-0.8833008,0.1320801-0.8833008c0.0026855-0.3413086,0.2814941-0.6157227,0.6228027-0.612793
			c0.3374023,0.0024414,0.6103516,0.2753906,0.6130371,0.612793c0.0654297,0.2910156,0.1096191,0.5859375,0.1320801,0.8833008
			h0.0439453c0.2822266,0.0244141,0.5627441,0.0683594,0.8388672,0.1318359c0.3413086,0,0.6181641,0.2768555,0.6181641,0.6181641
			s-0.2768555,0.6176758-0.6181641,0.6176758c-0.276123,0.0634766-0.5566406,0.1074219-0.8388672,0.1323242h-0.0439453v0.0439453
			c-0.0246582,0.2822266-0.0686035,0.5625-0.1320801,0.8388672c-0.0026855,0.3413086-0.2814941,0.6157227-0.6228027,0.6132812
			c-0.3374023-0.0029297-0.6103516-0.2758789-0.6130371-0.6132812c-0.0634766-0.2763672-0.107666-0.5566406-0.1320801-0.8388672
			v-0.0439453c-0.4848633-0.0883789-0.8830566-0.1323242-0.8830566-0.1323242c-0.3413086,0-0.6179199-0.2763672-0.6179199-0.6176758
			s0.2766113-0.6181641,0.6179199-0.6181641C2442.4970703-6621.6635742,2442.7932129-6621.7080078,2443.0817871-6621.7841797"/>
		<path id="Tracé_7069_00000044173918452043967190000005413144324690477233_" class="st12" d="M2481.5998535-6600.371582
			c0.0251465-0.0771484,0.0551758-0.1523438,0.0898438-0.2250977c0-0.3481445,0.2822266-0.6298828,0.630127-0.6298828
			s0.6298828,0.2817383,0.6298828,0.6298828l0,0c-0.0039062,0.1699219,0.1308594,0.3110352,0.3007812,0.3149414
			c0.0048828,0,0.0095215,0,0.0141602,0c0.3479004,0.0009766,0.6291504,0.2836914,0.6281738,0.6318359
			c-0.0009766,0.3466797-0.2817383,0.6269531-0.6281738,0.6279297c-0.1699219-0.0039062-0.3110352,0.1308594-0.3149414,0.3012695
			c0,0.0043945,0,0.0092773,0,0.0141602c0,0.3476562-0.2819824,0.6298828-0.6298828,0.6298828
			s-0.630127-0.2822266-0.630127-0.6298828c-0.034668-0.0732422-0.0646973-0.1484375-0.0898438-0.2250977
			c-0.0769043-0.0253906-0.1520996-0.0551758-0.2250977-0.090332c-0.3479004-0.0009766-0.6291504-0.2836914-0.6281738-0.6318359
			c0.0012207-0.3461914,0.2817383-0.6269531,0.6281738-0.6279297
			C2481.4477539-6600.3164062,2481.5229492-6600.3466797,2481.5998535-6600.371582"/>
		<path id="Tracé_7070_00000008149177997049130810000004130562694419019916_" class="st12" d="M2479.3198242-6580.3681641
			c0.0878906-0.4853516,0.1318359-0.8833008,0.1318359-0.8833008c0.0026855-0.3413086,0.2814941-0.6157227,0.6228027-0.612793
			c0.3376465,0.0024414,0.6105957,0.2753906,0.6132812,0.612793c0.0654297,0.2910156,0.109375,0.5859375,0.1318359,0.8833008
			h0.0439453c0.2822266,0.0244141,0.5620117,0.0683594,0.8381348,0.1318359
			c0.3413086-0.0014648,0.6188965,0.2744141,0.6201172,0.6157227s-0.2746582,0.6191406-0.6159668,0.6201172
			c-0.0012207,0-0.0026855,0-0.0041504,0c-0.276123,0.0634766-0.5559082,0.1074219-0.8381348,0.1323242h-0.0439453v0.0439453
			c-0.0244141,0.2822266-0.0686035,0.5625-0.1318359,0.8388672c-0.0026855,0.3413086-0.2814941,0.6157227-0.6228027,0.6132812
			c-0.3376465-0.0029297-0.6105957-0.2758789-0.6132812-0.6132812c-0.0632324-0.2763672-0.1074219-0.5566406-0.1318359-0.8388672
			v-0.0439453c-0.4851074-0.0883789-0.8830566-0.1323242-0.8830566-0.1323242
			c-0.3413086,0.0014648-0.6191406-0.2744141-0.6201172-0.6157227c-0.0012207-0.3413086,0.2744141-0.6191406,0.6157227-0.6201172
			c0.0014648,0,0.0029297,0,0.0043945,0C2478.7351074-6580.2475586,2479.03125-6580.2919922,2479.3198242-6580.3681641"/>
		<path id="Tracé_7071_00000095307698103896884760000011083554219685669029_" class="st12" d="M2466.744873-6559.40625
			c0.0251465-0.0771484,0.0551758-0.1523438,0.0898438-0.2250977c0-0.3481445,0.2822266-0.6298828,0.630127-0.6298828
			s0.6298828,0.2817383,0.6298828,0.6298828c-0.0043945,0.1694336,0.1293945,0.3105469,0.2988281,0.3149414
			c0.0053711,0,0.0107422,0,0.0161133,0c0.3479004,0,0.630127,0.2822266,0.630127,0.6298828
			c0,0.3481445-0.2822266,0.6303711-0.630127,0.6303711c-0.1699219-0.0039062-0.3110352,0.1308594-0.3149414,0.3007812
			c0,0.0043945,0,0.0092773,0,0.0141602c0,0.3476562-0.2819824,0.6298828-0.6298828,0.6298828
			s-0.630127-0.2822266-0.630127-0.6298828c-0.034668-0.0732422-0.0646973-0.1484375-0.0898438-0.2250977
			c-0.0769043-0.0253906-0.1520996-0.0551758-0.2250977-0.0898438c-0.3479004,0-0.6298828-0.2822266-0.6298828-0.6303711
			c0-0.3476562,0.2819824-0.6298828,0.6298828-0.6298828
			C2466.5927734-6559.3510742,2466.6679688-6559.3813477,2466.744873-6559.40625"/>
	</g>
</g>
<g id="TEXTES_FR" class="st283">
</g>
<g id="TEXTES_GB">
</g>
<g id="Calque_5">
</g>
</svg>
