<?xml version="1.0" encoding="utf-8"?>
<!-- Generator: Adobe Illustrator 26.2.1, SVG Export Plug-In . SVG Version: 6.00 Build 0)  -->
<svg version="1.1" xmlns="http://www.w3.org/2000/svg" xmlns:xlink="http://www.w3.org/1999/xlink" x="0px" y="0px"
	 viewBox="0 0 277.9561462 294.4220276" style="enable-background:new 0 0 277.9561462 294.4220276;" xml:space="preserve">
<style type="text/css">
	.st0{fill:url(#FOND_00000083778277290516282270000004326011380819481022_);}
	.st1{fill:url(#FOND_00000055690826911187081720000005568184470969526966_);}
	.st2{fill:#FFF5F7;}
	.st3{fill:url(#FOND_00000072268423453871141400000010247785220650922676_);}
	.st4{fill:url(#FOND_00000161621962632407865860000016904716743868493726_);}
	.st5{fill:url(#FOND_00000104668430449074195240000010750365205175774604_);}
	.st6{fill:url(#FOND_00000009590781347736189430000000638915504730773122_);}
	.st7{fill:url(#FOND_00000088813020430376384880000000588246206527577023_);}
	.st8{fill:url(#FOND_00000052077993954302935270000014496459894029892742_);}
	.st9{fill:url(#FOND_00000039118301449384061870000015997429200034932123_);}
	.st10{fill:url(#FOND_00000025428019197261240620000008846703927199028911_);}
	.st11{fill:url(#FOND_00000012474544713244534230000015883000994231606939_);}
	.st12{fill:#272F60;}
	.st13{fill:#FD657C;}
	.st14{fill:url(#FOND_00000121237673272667366230000015458023552794477188_);}
	.st15{fill:#F4AAB9;}
	.st16{clip-path:url(#Rectangle_10_00000165935597466977319010000000041550633234647202_);}
	.st17{fill:#FB657C;}
	.st18{fill:#FFFFFF;}
	.st19{fill:#FFBCC6;}
	.st20{clip-path:url(#SVGID_00000064345015464785456490000001905696556772964239_);}
	.st21{enable-background:new    ;}
	.st22{fill:#FB657C;stroke:#FD657C;stroke-width:3.8352001;stroke-linecap:round;stroke-linejoin:round;stroke-miterlimit:1.4382;}
	.st23{fill:#FFBCC6;stroke:#FFBCC6;stroke-width:3.8352001;stroke-linecap:round;stroke-linejoin:round;stroke-miterlimit:1.4382;}
	.st24{clip-path:url(#SVGID_00000175306566565678312220000004601762115475096709_);fill:#FB657C;}
	.st25{clip-path:url(#SVGID_00000050638182488727174420000009626217881242756502_);fill:#FFBCC6;}
	.st26{clip-path:url(#SVGID_00000052786363097619844190000011573420048780749953_);fill:#FFBCC6;}
	.st27{clip-path:url(#SVGID_00000003791090408398365860000015840217658952921244_);fill:#FFBCC6;}
	.st28{clip-path:url(#SVGID_00000052806290786027600710000017943908186896611262_);fill:#FFBCC6;}
	.st29{clip-path:url(#SVGID_00000183246723969749366700000007386371490856242092_);fill:#FFBCC6;}
	.st30{clip-path:url(#SVGID_00000132088981246945856140000013989742686200862389_);fill:#FFBCC6;}
	.st31{clip-path:url(#SVGID_00000101795664023317284150000012020377825744885425_);fill:#FFBCC6;}
	.st32{clip-path:url(#SVGID_00000057128968273405837230000010011546768088837051_);fill:#272F60;}
	.st33{clip-path:url(#SVGID_00000057128968273405837230000010011546768088837051_);fill:#FB657C;}
	.st34{clip-path:url(#SVGID_00000057128968273405837230000010011546768088837051_);fill:#FFBCC6;}
	.st35{clip-path:url(#SVGID_00000057128968273405837230000010011546768088837051_);fill:#FFFFFF;}
	.st36{fill:none;}
	.st37{clip-path:url(#SVGID_00000041999955205648535930000016077626603374101693_);fill:#FFFFFF;}
	.st38{clip-path:url(#SVGID_00000025402655035762216960000014299564173431896704_);fill:#FFFFFF;}
	.st39{clip-path:url(#SVGID_00000042009173444040411520000006123755292110042757_);fill:#FFFFFF;}
	.st40{clip-path:url(#SVGID_00000000915405081635258270000017868828505575501755_);fill:#FFFFFF;}
	.st41{clip-path:url(#SVGID_00000018228760808295671280000001379259504490584459_);fill:#FFFFFF;}
	.st42{clip-path:url(#SVGID_00000116217892043115637970000013543397394451724971_);fill:#FFFFFF;}
	.st43{clip-path:url(#SVGID_00000022535737162586081820000008643752914379602569_);fill:#FFFFFF;}
	.st44{clip-path:url(#SVGID_00000117638720868492376310000002998275316333946300_);fill:#FFFFFF;}
	.st45{clip-path:url(#SVGID_00000134230942528944650560000011046144474805995676_);fill:#FFFFFF;}
	.st46{clip-path:url(#SVGID_00000058564379954809584610000014860574984366537142_);fill:#FFFFFF;}
	.st47{clip-path:url(#SVGID_00000085236614202794388790000008054196164231164571_);fill:#FFFFFF;}
	.st48{clip-path:url(#SVGID_00000139982114473501581670000010653213048177073587_);fill:#FFFFFF;}
	.st49{clip-path:url(#SVGID_00000126307530511939796830000017025247543634315188_);fill:#FB657C;}
	.st50{clip-path:url(#SVGID_00000051346525603972763370000018000913554706230204_);fill:#FFFFFF;}
	.st51{clip-path:url(#SVGID_00000126321012633146290310000000045109853950568585_);fill:#FFFFFF;}
	.st52{fill:#FF647B;}
	.st53{fill:#FF657C;}
	.st54{clip-path:url(#SVGID_00000064321723853190439910000014628429559635032237_);}
	.st55{clip-path:url(#SVGID_00000142172096973721221350000002021502563065114497_);}
	.st56{clip-path:url(#SVGID_00000109715894515620953100000000033466525089300157_);}
	.st57{clip-path:url(#SVGID_00000120520739274098411080000015714935111767914375_);}
	.st58{fill:none;stroke:#272E5F;stroke-width:3;}
	.st59{clip-path:url(#SVGID_00000083806788727574050180000001448405815546709681_);}
	.st60{fill:#E94B67;}
	.st61{fill:#FFF5F7;stroke:#272E5F;stroke-width:2;}
	.st62{fill:none;stroke:#272E5F;stroke-width:2;stroke-linecap:round;stroke-linejoin:round;stroke-miterlimit:10;}
	.st63{fill:none;stroke:#272E5F;stroke-width:2;}
	.st64{fill:none;stroke:#272E5F;stroke-width:3;stroke-linecap:round;stroke-linejoin:round;stroke-miterlimit:10;}
	.st65{fill:none;stroke:#142664;stroke-width:2;stroke-linecap:round;stroke-linejoin:round;stroke-miterlimit:10;}
	.st66{clip-path:url(#SVGID_00000024700289048464661220000010961250330067119528_);}
	.st67{clip-path:url(#SVGID_00000085972568818380050920000008879211865783319219_);}
	.st68{clip-path:url(#SVGID_00000166640062055074680700000007112309755800906164_);fill:#FD657C;}
	.st69{clip-path:url(#SVGID_00000110466771448517940400000006225999023089537672_);fill:#FD657C;}
	.st70{clip-path:url(#SVGID_00000031908284447454737590000007957582175319283605_);}
	.st71{clip-path:url(#SVGID_00000048484612096661442950000005924202660754979229_);}
	.st72{clip-path:url(#SVGID_00000171698120512218995500000003252881288006985908_);}
	.st73{fill:none;stroke:#142664;stroke-width:3;stroke-linecap:round;stroke-linejoin:round;}
	.st74{clip-path:url(#SVGID_00000067225010605833460980000009236761351202886534_);}
	.st75{clip-path:url(#SVGID_00000076588324373019636840000003915755014627423629_);}
	.st76{clip-path:url(#SVGID_00000013902907781296785240000008761094442790251448_);}
	.st77{clip-path:url(#SVGID_00000127765801837822580660000006945791154011703940_);}
	.st78{clip-path:url(#SVGID_00000090999198911043879660000004340433313318723503_);}
	.st79{clip-path:url(#SVGID_00000048460977554653113200000009284947883486748304_);}
	.st80{clip-path:url(#SVGID_00000064315147557063573930000016863958494857914545_);}
	.st81{clip-path:url(#SVGID_00000049910006432791623450000002532750659036012218_);}
	.st82{clip-path:url(#SVGID_00000060003915800449178600000005246745591027037616_);}
	.st83{clip-path:url(#SVGID_00000165203168321350141140000012151935170953697963_);}
	.st84{clip-path:url(#SVGID_00000129185901796390423720000003053592730304440245_);}
	.st85{clip-path:url(#SVGID_00000100369583108600922280000015470577485715473814_);}
	.st86{clip-path:url(#SVGID_00000031203864360865380430000011185226576180587414_);}
	.st87{clip-path:url(#SVGID_00000009563873235604404450000016502358661260326557_);}
	.st88{clip-path:url(#SVGID_00000005982848523073087540000001121127329071974045_);}
	.st89{clip-path:url(#SVGID_00000098216810862453083310000007491167636248595355_);}
	.st90{clip-path:url(#SVGID_00000111892520768291851150000002876278672245400511_);}
	.st91{clip-path:url(#SVGID_00000039834184007023676520000008199588059373537679_);}
	.st92{clip-path:url(#SVGID_00000175290267982400397130000004333161519994011776_);}
	.st93{clip-path:url(#SVGID_00000178911325190712846560000008041091161277662093_);}
	.st94{clip-path:url(#SVGID_00000147918738806357791400000007085794220768194490_);}
	.st95{clip-path:url(#SVGID_00000006675030439206718810000007597771418887024806_);}
	.st96{clip-path:url(#SVGID_00000029734900132483233350000010475567592770112412_);}
	.st97{clip-path:url(#SVGID_00000050649090685467639600000003287939027767530150_);}
	.st98{clip-path:url(#SVGID_00000101097866083110424500000014800440469776203186_);}
	.st99{clip-path:url(#SVGID_00000031889999019754886740000005032185056591914652_);}
	.st100{clip-path:url(#SVGID_00000021079087330896895590000006307742939202595973_);}
	.st101{clip-path:url(#SVGID_00000127749583500884598090000010171354211022215353_);}
	.st102{clip-path:url(#SVGID_00000053523284464846917510000006887731852167735721_);}
	.st103{clip-path:url(#SVGID_00000180359123583612606670000002543418314289164419_);}
	.st104{clip-path:url(#SVGID_00000065761490499342826990000014795718461277097112_);}
	.st105{clip-path:url(#SVGID_00000178888360249667881140000012065406534655733943_);}
	.st106{clip-path:url(#SVGID_00000011738845474104935810000000430632131751296916_);}
	.st107{clip-path:url(#SVGID_00000054255667985406262000000016679964593917936769_);}
	.st108{clip-path:url(#SVGID_00000143585740933769376200000006787024542425457807_);}
	.st109{clip-path:url(#SVGID_00000072238454923464492110000015214785164628201628_);}
	.st110{clip-path:url(#SVGID_00000140718763583471851750000017302767579016095373_);}
	.st111{clip-path:url(#SVGID_00000101822134466301554950000009823049403436385469_);}
	.st112{clip-path:url(#SVGID_00000070809129008742343840000010573797980027908791_);}
	.st113{clip-path:url(#SVGID_00000029034758752043432540000007922953744843669128_);}
	.st114{clip-path:url(#SVGID_00000068651204671397916610000000329450012941239690_);}
	.st115{clip-path:url(#SVGID_00000104669391433168864030000005503094594313044884_);}
	.st116{clip-path:url(#SVGID_00000063602866295403658190000012494984323679685802_);}
	.st117{fill:#FFFFFF;stroke:#142664;stroke-width:3;stroke-linecap:round;stroke-linejoin:round;}
	.st118{clip-path:url(#SVGID_00000163034383533069092460000017463990333804610207_);}
	.st119{fill-rule:evenodd;clip-rule:evenodd;fill:#FFBCC6;}
	.st120{fill-rule:evenodd;clip-rule:evenodd;fill:#272F60;}
	.st121{fill-rule:evenodd;clip-rule:evenodd;fill:#FFFFFF;}
	.st122{fill-rule:evenodd;clip-rule:evenodd;fill:#FB657C;}
	.st123{clip-path:url(#SVGID_00000135680538660830342560000008972556168089575304_);}
	.st124{clip-path:url(#SVGID_00000034086323999676056510000014273984885604928917_);}
	.st125{clip-path:url(#SVGID_00000032623978317363839970000003070143437097007498_);}
	.st126{clip-path:url(#SVGID_00000176730918880837216250000015724434859668722306_);}
	.st127{clip-path:url(#SVGID_00000076602967328059325810000000927660559226068877_);}
	.st128{clip-path:url(#SVGID_00000077301054387992432970000001393525184001958810_);}
	.st129{clip-path:url(#SVGID_00000082326177042988006820000007823601598537218695_);}
	.st130{clip-path:url(#SVGID_00000058582872335271282830000001852109140878841486_);}
	.st131{clip-path:url(#SVGID_00000042733230895958571470000009460356828360652416_);}
	.st132{clip-path:url(#SVGID_00000083802291517630340830000005372182075618433941_);}
	.st133{clip-path:url(#SVGID_00000145039440172647729780000008715825206781580467_);}
	.st134{clip-path:url(#SVGID_00000085930207791822985640000009864102718699386788_);}
	.st135{clip-path:url(#SVGID_00000022555948062158882190000006471997913583928243_);}
	.st136{clip-path:url(#SVGID_00000155130905530328006030000005110814149341049729_);}
	.st137{clip-path:url(#SVGID_00000152953779920917775110000013231096682534536589_);}
	.st138{clip-path:url(#SVGID_00000064313938189860774270000015741397429608063635_);}
	.st139{clip-path:url(#SVGID_00000101100922452348313680000015940124697680188605_);}
	.st140{clip-path:url(#SVGID_00000180348140519722970630000002764117911473505183_);}
	.st141{clip-path:url(#SVGID_00000035514099269902294630000013235553346173065862_);}
	.st142{clip-path:url(#SVGID_00000002370464638386559420000001527315547579517077_);}
	.st143{clip-path:url(#SVGID_00000093153337811107613160000014519774639762442937_);}
	.st144{clip-path:url(#SVGID_00000096772742885400943020000005836179262142850220_);}
	.st145{clip-path:url(#SVGID_00000077284860475265088740000015125347331924357815_);}
	.st146{clip-path:url(#SVGID_00000024718023262188859650000003161496341588855727_);}
	.st147{clip-path:url(#SVGID_00000049185359831385270500000015479147806410182543_);}
	.st148{clip-path:url(#SVGID_00000088125669509911209230000003352319332776941702_);}
	.st149{clip-path:url(#SVGID_00000044867693780241597850000004382836245372511641_);}
	.st150{clip-path:url(#SVGID_00000001636483624713343790000012153277277998268078_);}
	.st151{clip-path:url(#SVGID_00000039853576845892310150000003487878499465567908_);}
	.st152{clip-path:url(#SVGID_00000036960961636213467980000016645347857699592885_);}
	.st153{clip-path:url(#SVGID_00000080891519472759903200000017854267726008045751_);}
	.st154{clip-path:url(#SVGID_00000160166552186531609650000002216920406792488605_);}
	.st155{clip-path:url(#SVGID_00000000945114951722087040000010703660983691636623_);}
	.st156{clip-path:url(#SVGID_00000036968871864532945740000008265669647819023539_);}
	.st157{clip-path:url(#SVGID_00000176034055554297721760000003042774176496210601_);}
	.st158{clip-path:url(#SVGID_00000122707885341123893230000009842831490817351864_);}
	.st159{clip-path:url(#SVGID_00000119092785935860451690000002483099899830224815_);}
	.st160{clip-path:url(#SVGID_00000031916689282364101960000000217843011892648371_);}
	.st161{clip-path:url(#SVGID_00000080171981604251900680000010674267397793923509_);}
	.st162{clip-path:url(#SVGID_00000102534192596681511010000006460439235074811018_);}
	.st163{clip-path:url(#SVGID_00000109712241263515357090000013495776047401702302_);}
	.st164{clip-path:url(#SVGID_00000104670443463079901910000006466403479076813473_);}
	.st165{clip-path:url(#SVGID_00000076574428849973680450000012636902363810376856_);}
	.st166{clip-path:url(#SVGID_00000177465307197984077440000008433408047779773851_);}
	.st167{clip-path:url(#SVGID_00000052085209018141645960000001363428700178941107_);}
	.st168{clip-path:url(#SVGID_00000029019376236527182990000005176142338000809643_);}
	.st169{clip-path:url(#SVGID_00000143612679108993423920000002203002892585520012_);}
	.st170{clip-path:url(#SVGID_00000122686985996973933020000006889213638724586402_);}
	.st171{clip-path:url(#SVGID_00000025440460580335922040000011026453441624368514_);}
	.st172{clip-path:url(#SVGID_00000021817391125295296760000005408724543695056063_);}
	.st173{clip-path:url(#SVGID_00000180342645284545787030000006266656668577871273_);}
	.st174{clip-path:url(#SVGID_00000060030524936149498310000017280049275431741101_);}
	.st175{clip-path:url(#SVGID_00000079466437063639309380000015487266769222535298_);}
	.st176{clip-path:url(#SVGID_00000028285180997578712830000007774649441975268028_);}
	.st177{clip-path:url(#SVGID_00000149356759178269710210000006205044052063389605_);}
	.st178{clip-path:url(#SVGID_00000093890676464619233160000006740511156358062513_);}
	.st179{clip-path:url(#SVGID_00000053538031899936396260000007101818085125136260_);}
	.st180{clip-path:url(#SVGID_00000157276243338490032460000009167859316788253095_);}
	.st181{clip-path:url(#SVGID_00000106119044548675829980000018147489848071081610_);}
	.st182{clip-path:url(#SVGID_00000089541478919492173370000011702608225616295103_);}
	.st183{clip-path:url(#SVGID_00000093860711401689733310000003890445567716403113_);}
	.st184{clip-path:url(#SVGID_00000026127214467157709680000011556214126255456933_);}
	.st185{clip-path:url(#SVGID_00000068656635324640839730000006798115279961843338_);}
	.st186{clip-path:url(#SVGID_00000066508859927964226320000006404687122144813718_);}
	.st187{clip-path:url(#SVGID_00000044165508726289893920000008791470001647716509_);}
	.st188{clip-path:url(#SVGID_00000157997557743240257680000006156283513671062453_);}
	.st189{clip-path:url(#SVGID_00000159449393568473278240000007240251809662146991_);}
	.st190{clip-path:url(#SVGID_00000145026394566312129720000003910259411459610500_);}
	.st191{clip-path:url(#SVGID_00000000929344347431381570000001876677693794203551_);}
	.st192{clip-path:url(#SVGID_00000168824751431041972800000004703787977327843519_);}
	.st193{clip-path:url(#SVGID_00000027598044306255887700000008180048691894569861_);}
	.st194{clip-path:url(#SVGID_00000183966805696440651780000014141112039271290543_);}
	.st195{clip-path:url(#SVGID_00000036237685915954846780000002404036492626720130_);}
	.st196{clip-path:url(#SVGID_00000099626645802557048550000001806331234223186856_);}
	.st197{clip-path:url(#SVGID_00000176002108600588588130000016875941725052813213_);}
	.st198{clip-path:url(#SVGID_00000075127475474993808400000018294117673775537340_);}
	.st199{clip-path:url(#SVGID_00000003095475639444624340000009498709274377554090_);}
	.st200{clip-path:url(#SVGID_00000019669756310351417950000010772726772350701475_);}
	.st201{clip-path:url(#SVGID_00000120523215817913564430000010043887835528789681_);}
	.st202{clip-path:url(#SVGID_00000124136627718151273350000000735292892536937389_);}
	.st203{clip-path:url(#SVGID_00000129201382150932038810000016793654881333343890_);}
	.st204{clip-path:url(#SVGID_00000099620677581047375540000004364113151760356541_);}
	.st205{clip-path:url(#SVGID_00000033352478076600530980000009273378990776213439_);}
	.st206{clip-path:url(#SVGID_00000054948754353741120710000016973186533853469829_);}
	.st207{clip-path:url(#SVGID_00000063629562492348849320000005266678712219322752_);}
	.st208{clip-path:url(#SVGID_00000173874410868453814680000010746786728996991932_);}
	.st209{clip-path:url(#SVGID_00000084531489638863780060000008220917919646301358_);}
	.st210{clip-path:url(#SVGID_00000158750829101421054840000003762599864781314965_);}
	.st211{clip-path:url(#SVGID_00000053523501212209285560000011142637925606259877_);}
	.st212{clip-path:url(#SVGID_00000007391507476029837460000001711187630042677652_);}
	.st213{clip-path:url(#SVGID_00000183948851827763388620000003617905383461897121_);}
	.st214{clip-path:url(#SVGID_00000123440747660915931240000006373855264056653190_);}
	.st215{clip-path:url(#SVGID_00000180368503975959022750000016055682921603494578_);}
	.st216{clip-path:url(#SVGID_00000182525724696735359280000002490927831818935455_);}
	.st217{clip-path:url(#SVGID_00000134232012428103978730000013474467972886306953_);}
	.st218{clip-path:url(#SVGID_00000007422982119260841920000011373584748048821396_);}
	.st219{clip-path:url(#SVGID_00000024722796881812967310000004612719721829991299_);}
	.st220{clip-path:url(#SVGID_00000150082338760311208930000005909434718525575099_);}
	.st221{clip-path:url(#SVGID_00000085224112454072273180000011588919963864271496_);}
	.st222{clip-path:url(#SVGID_00000100367330688803917190000014716450543785985462_);}
	.st223{clip-path:url(#SVGID_00000057870561904541043300000003658983626689217694_);}
	.st224{clip-path:url(#SVGID_00000059288892865945115520000016898608058369442200_);}
	.st225{clip-path:url(#SVGID_00000088851477282343259320000006600365388271263653_);}
	.st226{clip-path:url(#SVGID_00000124876086147952183610000013134082094945465018_);}
	.st227{clip-path:url(#SVGID_00000005965956152276253930000015422922482682328212_);}
	.st228{clip-path:url(#SVGID_00000072969573162009060770000015021805638709246351_);}
	.st229{clip-path:url(#SVGID_00000026122172279633444710000000087651750632040582_);}
	.st230{clip-path:url(#SVGID_00000046326919642780469120000016558297826994945456_);}
	.st231{clip-path:url(#SVGID_00000154424822542822567280000002623506624965174708_);}
	.st232{clip-path:url(#SVGID_00000105418004278841192830000005142714713492389030_);}
	.st233{clip-path:url(#SVGID_00000170274635452710644040000010744108355250702998_);}
	.st234{clip-path:url(#SVGID_00000026847323024040890410000010701793523677704100_);}
	.st235{clip-path:url(#SVGID_00000024687346232224173540000006406531628706284461_);}
	.st236{clip-path:url(#SVGID_00000145755095289687545930000004838597736806273437_);}
	.st237{clip-path:url(#SVGID_00000040571367964851466380000009802718546334104248_);}
	.st238{clip-path:url(#SVGID_00000055696667176651602300000007799165270767167105_);}
	.st239{clip-path:url(#SVGID_00000103256839909658921740000003762831370402697090_);}
	.st240{clip-path:url(#SVGID_00000054256540893718671870000000618286624795897237_);}
	.st241{clip-path:url(#SVGID_00000143599236534899066590000008097285241830249874_);}
	.st242{clip-path:url(#SVGID_00000003083730613942811640000005500044722819743421_);}
	.st243{clip-path:url(#SVGID_00000018232265107103018090000003984989238733327285_);}
	.st244{clip-path:url(#SVGID_00000108308912277108900420000005895647993449306017_);}
	.st245{clip-path:url(#SVGID_00000029730044940028450690000001930180633978062481_);}
	.st246{clip-path:url(#SVGID_00000060017839648312616600000013912881733764323473_);}
	.st247{clip-path:url(#SVGID_00000135669496344645302390000016985491532388199577_);}
	.st248{clip-path:url(#SVGID_00000078734092302356358980000012957488893348781467_);}
	.st249{clip-path:url(#SVGID_00000093143446684075139520000005023270980057222016_);}
	.st250{clip-path:url(#SVGID_00000078027510506604875970000003181155905812208570_);}
	.st251{clip-path:url(#SVGID_00000078748147218294392130000012813759997665902227_);}
	.st252{clip-path:url(#SVGID_00000049189635986158638080000001867228293841729205_);}
	.st253{fill:#E94966;}
	.st254{fill:#13224F;}
	.st255{fill:url(#);}
	.st256{clip-path:url(#SVGID_00000086672423724030885230000011880026433731538344_);}
	.st257{fill:#FFCE00;}
	.st258{fill-rule:evenodd;clip-rule:evenodd;fill:#FD657C;}
	.st259{clip-path:url(#SVGID_00000101091414384086347740000011638201813059288207_);}
	.st260{fill:url(#SVGID_00000154424177444630248820000014106183838917275300_);}
	.st261{fill:#FFFFFF;stroke:#FFFFFF;stroke-width:10;}
	.st262{fill:none;stroke:#272F60;stroke-width:3;stroke-linecap:round;stroke-linejoin:round;}
	.st263{clip-path:url(#SVGID_00000123421408722602487140000012383170233821751427_);}
	.st264{fill:none;stroke:#FFFFFF;stroke-width:5;}
	.st265{fill:#3580F8;}
	.st266{clip-path:url(#SVGID_00000046307521917616860320000006199284262929235852_);}
	.st267{fill:#FDF2F5;}
	.st268{clip-path:url(#SVGID_00000034076184782715024160000014566394469077488289_);}
	.st269{fill:#44C400;}
	.st270{clip-path:url(#SVGID_00000180343041535304695090000008423278776612605848_);}
	.st271{clip-path:url(#SVGID_00000072989781420987020880000007471396599829330318_);}
	.st272{clip-path:url(#SVGID_00000080168794729753835310000010730544214233064589_);}
	.st273{fill:#F1AAB9;}
	.st274{fill:#E34C6A;}
	.st275{clip-path:url(#SVGID_00000038400562924869772170000018200750041996941495_);}
	.st276{clip-path:url(#SVGID_00000171714713269012011460000003993419979432911535_);}
	.st277{clip-path:url(#SVGID_00000104708087724946243420000009754819820265239980_);}
	.st278{clip-path:url(#SVGID_00000111190359559766745530000013654959346489920901_);}
	.st279{clip-path:url(#SVGID_00000108295581736630453990000015844149371397743010_);}
	.st280{clip-path:url(#SVGID_00000005234403915890581450000014748340250302277513_);}
	.st281{clip-path:url(#SVGID_00000038391853361876434220000003714348142654987417_);}
	.st282{clip-path:url(#SVGID_00000144297962749658797370000016688350232693724068_);}
	.st283{display:none;}
	.st284{display:inline;}
	.st285{display:inline;enable-background:new    ;}
	.st286{clip-path:url(#SVGID_00000173838946657792805160000000191378998839348904_);}
	.st287{clip-path:url(#SVGID_00000160885934989747481700000005554288731807461814_);}
	.st288{clip-path:url(#SVGID_00000098180861106233326770000003161157534370978464_);}
	.st289{clip-path:url(#SVGID_00000181798806129632630660000014380599888769584057_);}
	.st290{fill:none;stroke:#FFFFFF;stroke-miterlimit:10;}
	.st291{clip-path:url(#SVGID_00000085966693279738258620000009350480869554684343_);}
	.st292{clip-path:url(#SVGID_00000111873488320160941780000000238494828688572344_);}
	.st293{clip-path:url(#SVGID_00000072261286660939223570000001636904192551813549_);}
	.st294{clip-path:url(#SVGID_00000179622579209763594130000004838650175315034531_);}
	.st295{clip-path:url(#SVGID_00000163074695377782852110000012035575345147406231_);}
	.st296{clip-path:url(#SVGID_00000078744951697550733930000004522147212276611984_);}
	.st297{clip-path:url(#SVGID_00000166640422955350148130000015677510014311170447_);}
	.st298{clip-path:url(#SVGID_00000124867860637527824480000001991187755657420944_);}
	.st299{clip-path:url(#SVGID_00000059287904725224317200000005527756310815337901_);}
	.st300{clip-path:url(#SVGID_00000075864466147251545370000007661996471457087372_);}
	.st301{clip-path:url(#SVGID_00000119815032992102374880000008419847819680316317_);}
	.st302{clip-path:url(#SVGID_00000148648696819068386720000007397030499658383019_);}
	.st303{clip-path:url(#SVGID_00000071520922366051003490000000177496259916670642_);}
	.st304{clip-path:url(#SVGID_00000138560876015406180540000006320312134743509658_);}
	.st305{clip-path:url(#SVGID_00000011001668155529375350000018268981172728330896_);}
	.st306{clip-path:url(#SVGID_00000010298722147873717950000009660614699049452160_);}
	.st307{fill:none;stroke:#142664;stroke-width:4.0018654;stroke-linecap:round;stroke-linejoin:round;stroke-miterlimit:4.0018654;}
	.st308{clip-path:url(#SVGID_00000152252658732899288270000008800216345761946767_);}
	.st309{clip-path:url(#SVGID_00000121253034491973417220000000561589160049743012_);}
	.st310{clip-path:url(#SVGID_00000129184436823082529100000000024936702843568063_);}
	.st311{clip-path:url(#SVGID_00000077322214728632293560000005545521689820721084_);}
	.st312{clip-path:url(#SVGID_00000072971789341143604310000005499032398673240228_);}
	.st313{clip-path:url(#SVGID_00000148656245929101733650000008744258742506148790_);}
	.st314{clip-path:url(#SVGID_00000003824288537014147400000014514034174646950789_);}
	.st315{clip-path:url(#SVGID_00000095299249229362945770000017605795326159129261_);}
	.st316{clip-path:url(#SVGID_00000078729551119558344340000012595819842691377542_);}
	.st317{clip-path:url(#SVGID_00000103243425679827922180000015816943099188694414_);}
	.st318{clip-path:url(#SVGID_00000043444898957224947150000008650654893053237182_);}
	.st319{clip-path:url(#SVGID_00000047021624026636254690000001285008492615013794_);}
	.st320{clip-path:url(#SVGID_00000168835161794891794970000006682499999159251380_);}
	.st321{clip-path:url(#SVGID_00000067198817151198044010000005773971209504189353_);}
	.st322{clip-path:url(#SVGID_00000112624951815258646760000015280030670738199230_);}
	.st323{clip-path:url(#SVGID_00000010284651951429466220000010440778007918860718_);}
	.st324{clip-path:url(#SVGID_00000103957296850843908280000009439467486946157196_);fill:#FD657C;}
	.st325{clip-path:url(#SVGID_00000103957296850843908280000009439467486946157196_);fill:#272F60;}
</style>
<g id="FONDS">
</g>
<g id="ILLUSTRATIONS">
	<g>
		
			<circle id="Ellipse_419_00000153686473529862751070000009813722463833170618_" class="st18" cx="139.4781647" cy="141.5" r="132.5"/>
		<g id="Groupe_1826_00000074405787325527284080000017899799368307950774_">
			<g>
				<defs>
					
						<rect id="SVGID_00000135682595107368255340000015940219889274631041_" x="0.0001657" width="277.9559937" height="182.1320038"/>
				</defs>
				<clipPath id="SVGID_00000083777905439374813670000016154387874955468991_">
					<use xlink:href="#SVGID_00000135682595107368255340000015940219889274631041_"  style="overflow:visible;"/>
				</clipPath>
				
					<g id="Groupe_1825_00000133513313894260263620000011600945129676198021_" style="clip-path:url(#SVGID_00000083777905439374813670000016154387874955468991_);">
					<path id="Tracé_5752_00000182520533187105950810000018085832064177401275_" class="st12" d="M52.1381683,97.3990021
						c0.0043983,1.5118179,1.2291756,2.736145,2.7410011,2.7399979h8.5639992
						c1.5118256-0.0038528,2.7366028-1.2281799,2.7409973-2.7399979v-2.4640045
						c-0.006012-1.1296768-0.920311-2.0439911-2.0499954-2.0500031s-2.0439873-0.920311-2.0499992-2.0499954v-7.8899994
						c-0.0077133-1.5145493-1.2394333-2.7373199-2.7540016-2.7340012h-4.3830032
						c-1.5118256,0.0038528-2.7366028,1.2281799-2.7410011,2.7399979
						c-0.0680008,3.7670059-0.0680008,10.6850052-0.0680008,14.4530106"/>
					<path id="Tracé_5753_00000039841708446792444360000000702573862672973239_" class="st12" d="M120.1721649,146.7190094
						c-0.0043945-1.5118256-1.2291718-2.7361603-2.7409973-2.7400055h-5.3440094
						c-1.5118256,0.0038452-2.7366028,1.2281799-2.7409973,2.7400055v3.151001
						c-0.0092316,0.3835449,0.1393433,0.7540741,0.4110031,1.0249939c0.2779465,0.2608337,0.6438522,0.407547,1.0250015,0.4109955
						c0.3835526-0.0103302,0.7543793,0.1380005,1.0250015,0.4100037c0.2608261,0.2779541,0.407547,0.6438446,0.4110031,1.0249939
						v2.7400055c0.0043945,1.5118256,1.2291718,2.7361603,2.7409973,2.7400055h2.3300018
						c1.5118256-0.0038452,2.7366028-1.2281799,2.7409973-2.7400055c0.137001-2.3919983,0.137001-6.1640015,0.137001-8.7720032"/>
					<path id="Tracé_5754_00000016037787254190356720000012504720382832969893_" class="st12" d="M193.2731628,119.526001
						c-0.0043945-1.5118256-1.2291718-2.7361526-2.7409973-2.7399979h-13.8379974
						c-1.5118256,0.0038452-2.7366028,1.2281723-2.7409973,2.7399979v7.7409973
						c0.0043945,1.5118256,1.2291718,2.7361603,2.7409973,2.7400055h2.0500031
						c1.5118256,0.0038452,2.7366028,1.2281647,2.7409973,2.7399902V155.625
						c-0.0205536,0.7286682,0.2799988,1.4295654,0.8220062,1.9170074c0.503418,0.5192566,1.1938171,0.8152924,1.9170074,0.8220062
						h6.3000031c0.7288971,0.0202942,1.4300079-0.2801819,1.9179993-0.8220062
						c0.5192566-0.503418,0.8152924-1.1938171,0.8220062-1.9170074L193.2731628,119.526001z"/>
					<path id="Tracé_5755_00000129884019784833693980000015546671657767430303_" class="st19" d="M277.9561462,57.6739998
						c0.0005493,1.5502625-1.2557373,2.8074455-2.8059998,2.8079987h-14.5279846
						c-1.5505981-0.0000038-2.8078918-1.2564163-2.8089905-2.8069992l0,0v-3.0159988
						c0.0005493-1.5502625-1.2557373-2.8074455-2.8059845-2.8079987h-3.0859985
						c-1.5344543,0.0166626-2.7919769-1.2135544-2.8090057-2.7480011v-1.3619995
						c0.016098-1.5344429-1.2145538-2.7915154-2.7489929-2.8079987h-24.4540253
						c-1.5480194,0.0071106-2.8013458,1.2599754-2.8090057,2.8079987V70.961998
						c0.016098,1.5344467-1.2145538,2.7915115-2.7489929,2.8079987h-2.9380035
						c-1.5344543,0.0166626-2.7919769-1.2135544-2.8090057-2.7480011v-3.5539932
						c-0.0076599-1.5480194-1.2609863-2.8008881-2.8090057-2.8079987h-12.8079834
						c-1.5489349,0.0022125-2.8066864-1.2510719-2.8099976-2.7999992v-2.2690048
						c-0.0005493-1.5505867-1.2574158-2.8074455-2.8079987-2.8079987h-12.3999939
						c-1.5480194,0.0071106-2.8013458,1.2599754-2.8090057,2.8079987v15.5480003
						c0.0005493,1.5502625-1.2557373,2.8074493-2.8059998,2.8079987h-9.9329987
						c-1.5483246,0.0011139-2.8051453-1.2516861-2.8090057-2.8000031V52.8120003
						c-0.0054779-1.5507469-1.2612457-2.8065109-2.8119965-2.8120003h-6.371994
						c-1.5335999-0.0172081-2.7907715,1.2120667-2.8079834,2.7456665c0,0.0004463-0.0000153,0.0008888-0.0000153,0.0013351
						v6.5680008c-0.0076599,1.5480232-1.2609863,2.8008881-2.8090057,2.8079987h-7.0570068
						c-1.5344543,0.0166626-2.7919769-1.2135544-2.8090057-2.7480011V43.2210007
						c0.0005493-1.5502625-1.2557373-2.8074455-2.8059998-2.8079987h-11.7219925
						c-1.548317-0.0011063-2.8051376,1.2516899-2.8089981,2.7999992v33.4330025
						c0.0005493,1.5502625-1.2557373,2.8074493-2.8059998,2.8079987H91.1901703
						c-1.5480194-0.0071106-2.8013306-1.2599792-2.8089981-2.8079987v-4.5880051
						c0.016098-1.5344467-1.2145615-2.7915192-2.7490005-2.8079987H67.8271713
						c-1.548317,0.0011063-2.8051376-1.2516937-2.8089981-2.8000031v-1.7169952
						c0.0005493-1.5502625-1.2557411-2.8074455-2.8060036-2.8079987H50.0121689
						c-1.5502625,0.0027657-2.8092346-1.2517319-2.8120003-2.8019905c0-0.001339-0.0000038-0.0026741-0.0000038-0.0040131V52.743
						c-0.0005531-1.5505867-1.257412-2.8074455-2.8079987-2.8079987h-5.7500038
						c-1.5480194,0.0071144-2.8013344,1.2599792-2.8089981,2.8079987v18.2869987
						c-0.0076637,1.5480194-1.2609787,2.8008881-2.8089981,2.8079987h-4.0429993
						c-1.5482483,0.0065689-2.801878,1.2597504-2.809,2.8079987v21.9199982
						c0.0172081,1.5335999-1.2120686,2.7907791-2.7456665,2.8079834c-0.0004444,0.0000076-0.0008888,0.0000076-0.0013332,0.0000153
						H11.0251675c-1.548316,0.0011063-2.8051414-1.2516937-2.809-2.8000031v-7.9499969
						c-0.0076647-1.5480194-1.2609782-2.8008881-2.8090005-2.8079987H2.8071673
						c-0.7464316,0.0059052-1.4631034-0.2923126-1.9850016-0.8259964C0.2887923,86.466156-0.0080384,85.747551,0.0001657,85V0
						h277.2720032L277.9561462,57.6739998z"/>
					<path id="Tracé_5756_00000168796668481653165370000001611061212451525509_" class="st12" d="M181.489151,56.8519974
						c7.4724121-23.8331146,32.8505554-37.0960846,56.68367-29.6236687
						c15.4035339,4.8294792,27.0649414,17.5032387,30.5983582,33.2546692h-8.1500244
						c-1.5483093,0.0011101-2.8051453-1.2516861-2.8089905-2.7999992v-3.0239983
						c0.0005493-1.5502625-1.2557373-2.8074455-2.806015-2.8079987h-3.0870056
						c-1.5344543,0.0166626-2.7919769-1.2135544-2.8090057-2.7480011v-1.3610001
						c0.016098-1.5344429-1.2145538-2.7915154-2.7489929-2.8079987h-24.4499817
						c-1.5480194,0.0071106-2.8013458,1.2599754-2.8090057,2.8079987V70.961998
						c0.016098,1.5344467-1.2145538,2.7915115-2.7489929,2.8079987h-2.9380035
						c-1.5344543,0.0166626-2.7919769-1.2135544-2.8090057-2.7480011v-3.5509949
						c-0.0043945-1.551918-1.2610931-2.8090591-2.8130035-2.8139954h-12.8069916
						c-1.5483093,0.0011063-2.8051453-1.2516899-2.8090057-2.8000031v-2.2650032
						c0.0005493-1.5502625-1.2557373-2.8074455-2.8059998-2.8079987l0,0L181.489151,56.8519974z"/>
					<path id="Tracé_5757_00000093178961417545727930000013921935743205259678_" class="st13" d="M193.0001678,63.6329994
						l39.1869965-46.6409988c1.0867615-1.2463741,2.782486-1.7750092,4.3849945-1.3669996
						c1.5986633,0.4152384,2.8055267,1.7289324,3.0839996,3.3569994l4.5910034,25.9599972h-22.1999969
						c-1.5480804,0.0065727-2.8014221,1.2599144-2.8079987,2.8079987V70.961998
						c0.016098,1.5344467-1.2145538,2.7915115-2.7489929,2.8079987h-2.9380035
						c-1.5344543,0.0166626-2.7919769-1.2135544-2.8090057-2.7480011v-3.5519943
						c-0.0076599-1.5480194-1.2609863-2.8008881-2.8090057-2.8079987h-12.8109894
						c-0.7465973,0.0078506-1.4641418-0.2889862-1.9869995-0.8219986c-0.0679932-0.0680008-0.0679932-0.137001-0.1369934-0.2050018"
						/>
					<path id="Tracé_5758_00000011714615556847744810000011664725746679882908_" class="st2" d="M40.901165,16.7119999
						c0.0211411-0.7491102-0.277813-1.4717588-0.8219986-1.9869995c-0.5228539-0.5330114-1.2403946-0.8298502-1.9869995-0.8220005
						h-8.4300022c-0.7491093-0.0211401-1.4717598,0.277812-1.9869995,0.8220005
						c-0.5326195,0.523119-0.8293858,1.2404861-0.8220005,1.9869995v5.8859997
						c-0.0199432,0.7507706,0.2808228,1.4744968,0.8269997,1.9899998c0.5407295,0.5059013,1.2468967,0.7980366,1.9869995,0.8220005
						h8.4300041c0.7477303,0.0199928,1.4686966-0.2788658,1.9829979-0.8220005
						c0.5060577-0.5406303,0.798214-1.2468586,0.8219986-1.9869995L40.901165,16.7119999z"/>
					<path id="Tracé_5759_00000069382428147204020170000002613898045081012611_" class="st2" d="M54.5171661,13.835h84.4450073
						c2.6388092,0,4.7779999,2.139184,4.7779999,4.7780008l0,0v2.0900002
						c0.0005493,2.6377125-2.1372833,4.7764473-4.7749939,4.7770004c-0.0006714,0-0.0013275,0-0.0019989,0h-84.445015
						c-2.6388168,0-4.7779999-2.139183-4.7779999-4.7779999l0,0v-2.0900002
						c-0.0005531-2.6377115,2.1372871-4.7764492,4.7749977-4.7770014C54.515831,13.835,54.5164986,13.835,54.5171661,13.835"/>
					<path id="Tracé_5760_00000171696613316776173190000018423015590585706925_" class="st2" d="M157.4241638,13.835h22.371994
						c2.6388092,0,4.7779999,2.139184,4.7779999,4.7780008l0,0v2.0900002
						c0.0005493,2.6377125-2.1372833,4.7764473-4.7749939,4.7770004c-0.0003357,0-0.0006714,0-0.0010071,0h-22.3730011
						c-2.6384277-0.0005569-4.7769928-2.1395779-4.7769928-4.7780018v-2.0900002
						c-0.0005493-2.6377115,2.1372833-4.7764492,4.7749939-4.7770004c0.0006714,0,0.0013275,0,0.0019989,0"/>
					<path id="Tracé_5761_00000062152071756925520440000001326575278324268435_" class="st12" d="M39.7391663,42.4669991
						c0.5080261,0.0059776,0.9955215,0.2014046,1.3670006,0.5480003c0.3575859,0.364399,0.5548592,0.8565025,0.5480003,1.3670006
						v1.0999985c-0.0059776,0.5080261-0.2014046,0.9955215-0.5480003,1.3670006
						c-0.364399,0.3575859-0.8565025,0.5548592-1.3670006,0.5480003H28.7071648
						c-0.5080261-0.0059776-0.9955196-0.2014046-1.3670006-0.5480003c-0.3575859-0.364399-0.5548592-0.8565025-0.5480003-1.3670006
						V44.382c0.0059776-0.5080261,0.2014046-0.9955215,0.5480003-1.3670006
						c0.364399-0.3575859,0.8565025-0.5548592,1.3670006-0.5480003H39.7391663z M82.0731659,45.5509987
						c-0.0059738,0.5080261-0.2014008,0.9955215-0.5479965,1.3670006c-0.3643951,0.3575859-0.8564987,0.5548592-1.3669968,0.5480003
						H48.0281677c-0.5080261-0.0059776-0.9955215-0.2014046-1.3670006-0.5480003
						c-0.3603401-0.3631287-0.5602226-0.8554535-0.5550003-1.3670006v-1.0999985
						c0.0053978-0.5081406,0.2009048-0.9958382,0.5480003-1.3670006c0.364399-0.3575859,0.8565025-0.5548592,1.3670006-0.5480003
						h32.1399956c0.5080261,0.0059776,0.9955139,0.2014046,1.3669968,0.5480003
						c0.3575821,0.364399,0.5548553,0.8565025,0.5479965,1.3670006L82.0731659,45.5509987z M116.8731689,47.4679985H88.3141632
						c-0.5080261-0.0059776-0.9955139-0.2014046-1.3669968-0.5480003c-0.3575821-0.364399-0.5548553-0.8565025-0.5479965-1.3670006
						v-1.0999985c0.0059738-0.5080261,0.2014008-0.9955215,0.5479965-1.3670006
						c0.3643951-0.3575859,0.8564987-0.5548592,1.3669968-0.5480003h28.5699997L116.8731689,47.4679985z M148.0461731,45.5509987
						c-0.0059814,0.5080261-0.2014008,0.9955215-0.5480042,1.3670006c-0.3643951,0.3575859-0.8565063,0.5548592-1.3670044,0.5480003
						h-7.125c-0.5080261-0.0059776-0.9955292-0.2014046-1.3670044-0.5480003
						c-0.3575897-0.364399-0.5548553-0.8565025-0.5480042-1.3670006v-1.0999985
						c0.0059814-0.5080261,0.2014008-0.9955215,0.5480042-1.3670006c0.3643951-0.3575859,0.8565063-0.5548592,1.3670044-0.5480003
						h7.125c0.5080261,0.0059776,0.9955292,0.2014046,1.3670044,0.5480003
						c0.3575897,0.364399,0.5548553,0.8565025,0.5480042,1.3670006V45.5509987z M152.4311676,44.3869972
						c0.0059814-0.5080261,0.2014008-0.9955215,0.5480042-1.3670006c0.3643951-0.3575859,0.8565063-0.5548592,1.3670044-0.5480003
						h10.8269806c0.5080261,0.0059776,0.9955292,0.2014046,1.3670044,0.5480003
						c0.3575897,0.364399,0.5548553,0.8565025,0.5480042,1.3670006v1.0999985
						c-0.0059814,0.5080261-0.2014008,0.9955215-0.5480042,1.3670006c-0.3643951,0.3575859-0.8565063,0.5548592-1.3670044,0.5480003
						h-10.8179932c-0.5080261-0.0059776-0.9955292-0.2014046-1.3670044-0.5480003
						c-0.3575897-0.364399-0.5548553-0.8565025-0.5480042-1.3670006L152.4311676,44.3869972z"/>
					<path id="Tracé_5762_00000052817167930444474260000016100037303240646819_" class="st12" d="M58.4411659,33.0839996
						c1.0576248-0.0016556,1.9163399,0.8543739,1.9179993,1.9119949v0.0000076v1.0999985
						c0.0016594,1.0566826-0.8533173,1.9147911-1.9099998,1.9169998H28.7091656
						c-1.0566845,0.0022125-1.9152412-0.8523178-1.9179993-1.9090004v-1.1000023
						c-0.0005531-1.0573959,0.8556042-1.9153442,1.9130001-1.916996h29.7369995V33.0839996z M73.7871628,36.1669998
						c-0.0059738,0.5080261-0.2014008,0.9955215-0.5479965,1.3670006c-0.3643951,0.3575859-0.8564987,0.5548592-1.3669968,0.5480003
						H66.731163c-0.5080261-0.0059776-0.9955215-0.2014046-1.3669968-0.5480003
						c-0.3575897-0.364399-0.554863-0.8565025-0.5480042-1.3670006v-1.1000023
						c0.0059814-0.5080223,0.2014084-0.9955177,0.5480042-1.3670006c0.3643951-0.3575821,0.8564987-0.5548592,1.3669968-0.5479965
						h5.1419983c0.5080261,0.0059776,0.9955139,0.2014008,1.3669968,0.5479965
						c0.3575821,0.3644028,0.5548553,0.8565063,0.5479965,1.3670006L73.7871628,36.1669998z M129.7611694,36.1669998
						c-0.0054016,0.5081406-0.2009125,0.9958382-0.5480042,1.3670006c-0.3643951,0.3575859-0.8564911,0.5548592-1.3669968,0.5480003
						H80.0911636c-0.5080261-0.0059776-0.9955139-0.2014046-1.3669968-0.5480003
						c-0.3575821-0.364399-0.5548553-0.8565025-0.5479965-1.3670006v-1.1000023
						c0.0059738-0.5080223,0.2014008-0.9955177,0.5479965-1.3670006c0.3643951-0.3575821,0.8564987-0.5548592,1.3669968-0.5479965
						h47.7529984c0.5080261,0.0059776,0.9955139,0.2014008,1.3670044,0.5479965
						c0.3575745,0.3644028,0.5548553,0.8565063,0.5479889,1.3670006L129.7611694,36.1669998z M134.0731659,35.0019989
						c0.0059814-0.5080261,0.2014008-0.9955215,0.5480042-1.3670006c0.3643951-0.3575897,0.8565063-0.5548592,1.3670044-0.5480003
						h29.1179962c0.5080261,0.0059776,0.9955292,0.2014008,1.3670044,0.5480003
						c0.3575897,0.364399,0.5548553,0.8565025,0.5480042,1.3670006v1.0999985
						c-0.0054016,0.5081406-0.2009125,0.9958382-0.5480042,1.3670006c-0.3643951,0.3575859-0.8565063,0.5548592-1.3670044,0.5480003
						h-29.1080017c-0.5080261-0.0059776-0.9955292-0.2014046-1.3670044-0.5480003
						c-0.3575897-0.364399-0.5548553-0.8565025-0.5480042-1.3670006L134.0731659,35.0019989z"/>
					<path id="Tracé_5763_00000020364614178686763440000006976357540172282532_" class="st12" d="M36.3801651,51.8509979v5
						h-7.6730003c-0.5080261-0.0059776-0.9955196-0.2014046-1.3670006-0.5480003
						c-0.3575859-0.364399-0.5548592-0.8565025-0.5480003-1.3670006v-1.0999985
						c0.0053978-0.5081406,0.2009048-0.9958382,0.5480003-1.3670006c0.364399-0.3575859,0.8565025-0.5548592,1.3670006-0.5480003
						c2.809-0.0680008,7.6730003-0.0680008,7.6730003-0.0680008 M84.6091614,54.9339981
						c0.0011063,1.0576248-0.8553696,1.9158936-1.9129944,1.9169998c-0.0000076,0-0.0000076,0-0.0000076,0H67.2801666
						c-1.0551376,0.0049896-1.9152908-0.8448792-1.9229965-1.9000015v-1.1169968
						c0.0005493-1.0576248,0.8583679-1.9145508,1.9159927-1.9140015h15.4209976
						c1.0570755-0.0005531,1.9144516,0.8559265,1.9150009,1.9129982c0,0.0003357,0,0.0006676,0,0.0010033V54.9339981z
						 M95.9821625,54.9339981c0.0005569,1.0558395-0.8531647,1.9131393-1.9089966,1.9169998H90.91716
						c-1.0566864,0.0022125-1.9152451-0.8523178-1.9179993-1.9090004v-1.1079979
						c-0.0011063-1.0576248,0.8553696-1.9158936,1.9129944-1.9169998c0.0000076,0,0.0000076,0,0.0000076,0h3.1529999
						c1.0570755-0.0016594,1.9153442,0.8539238,1.9169998,1.9109955c0,0.0020027,0,0.0040016,0,0.0060043V54.9339981z
						 M116.882164,51.8509979v5h-14.5930023c-0.5080261-0.0059776-0.9955139-0.2014046-1.3669968-0.5480003
						c-0.3584518-0.364727-0.5561295-0.857666-0.5490036-1.3689995v-1.0999985
						c0.0059738-0.5080261,0.2014008-0.9955215,0.5479965-1.3670006c0.3643951-0.3575859,0.8564987-0.5548592,1.3669968-0.5480003
						c4.3850021-0.0680008,14.5940018-0.0680008,14.5940018-0.0680008 M134.216156,51.8509979h6.5090027
						c1.0574036-0.0005569,1.9153442,0.8555984,1.9170074,1.9129982v1.0999985
						c0.0016632,1.0566864-0.8533173,1.9147949-1.9100037,1.9169998h-6.5160065V51.8509979z M51.3161583,53.7629967
						c0.0059776-0.5080261,0.2014046-0.9955215,0.5480003-1.3670006c0.364399-0.3575859,0.8565025-0.5548592,1.3670006-0.5480003
						h5.7579994c0.5080261,0.0059776,0.9955215,0.2014046,1.3670006,0.5480003
						c0.3575859,0.364399,0.5548592,0.8565025,0.5480003,1.3670006v1.0999985
						c-0.0059776,0.5080261-0.2014046,0.9955215-0.5480003,1.3670006c-0.364399,0.3575859-0.8565025,0.5548592-1.3670006,0.5480003
						h-5.7549934c-0.5080261-0.0059776-0.9955215-0.2014046-1.3670006-0.5480003
						c-0.3575859-0.364399-0.5548592-0.8565025-0.5480003-1.3670006L51.3161583,53.7629967z"/>
					<path id="Tracé_5764_00000118375303185009703000000000604900103391663511_" class="st19" d="M31.7211647,152.8819885
						c-1.0572338,0.0016632-1.9157906-0.8537598-1.9179993-1.9109955v-18.6399994
						c-0.0194626-0.7284393,0.2808952-1.4289093,0.8220005-1.9169922c0.5038548-0.5192261,1.1945286-0.8152161,1.9180012-0.8220062
						h4.8639984c1.5118256,0.0038452,2.7366028,1.2281799,2.7410011,2.7400055v1.2330017
						c-0.0205727,0.7289429,0.2799492,1.4301758,0.8219986,1.9179993c0.5038567,0.5192108,1.1945305,0.8152161,1.9179993,0.821991
						h1.4389992c0.7286606-0.0201416,1.4295845,0.279892,1.9179993,0.8209991
						c0.5192146,0.5038605,0.8152199,1.1945343,0.8219986,1.9179993v14.4530029
						c0.0205727,0.7289429-0.2799492,1.4301758-0.8219986,1.9179993c-0.5038528,0.5192261-1.1945267,0.8152313-1.9179993,0.8220062
						h-2.4659958c-1.5118294,0.0038452-2.7366066,1.2281799-2.7410011,2.7400055v0.2050018
						c-0.0289268,1.5135345-1.2793388,2.7170563-2.7928734,2.6881256c-1.4727974-0.0281525-2.6599808-1.215332-2.6881256-2.6881256
						v-4.3860016c0.0469398-1.0114136-0.7346153-1.8695068-1.7460022-1.9170074c-0.0580006,0-0.1149998,0-0.1720009,0"/>
					<path id="Tracé_5765_00000025433252524484613420000014254515669770467220_" class="st13" d="M180.12117,106.4420013
						c-0.7179718,0-1.3000031-0.5820236-1.3000031-1.2999954v-0.0000076V90.0709991
						c0.0128937-0.9025574,0.7414398-1.6311035,1.6439972-1.6439972h2.2599945
						c1.016983,0.0113449,1.8386536,0.8330078,1.8500061,1.8499985c0.0113525,1.0164337,0.8325653,1.8376465,1.848999,1.848999
						h0.0679932c0.5080261,0.0059738,0.9955292,0.2014008,1.3670044,0.5479965
						c0.3580627,0.36409,0.5554199,0.8563919,0.5480042,1.3669968v6.439003
						c0.0205536,0.7286606-0.2799988,1.4295654-0.8220062,1.9169998c-0.5038605,0.5192184-1.1945343,0.8152161-1.9179993,0.8219986
						h-0.3419952c-0.7476349,0.0174255-1.3495789,0.6193619-1.3670044,1.3669968v0.5479965
						c-0.0174255,0.7476349-0.6193695,1.3495712-1.3670044,1.3669968c-0.6840057-0.0680008-1.6439972-0.0680008-2.4660034-0.0680008
						"/>
					<path id="Tracé_5766_00000013893761991053943240000006447456303057362585_" class="st13" d="M21.9241657,117.6760025
						c0.0205517-0.7286606-0.279995-1.4295654-0.8220005-1.9169998c-0.5038548-0.5192184-1.1945286-0.8152161-1.9179993-0.8219986
						h-3.5629997c-0.7289505-0.0205765-1.4301739,0.2799454-1.9180002,0.8219986
						c-0.4929743,0.5210953-0.7843657,1.2006531-0.8219995,1.9169998v3.5649948
						c-0.0205507,0.7286606,0.279995,1.4295654,0.8220005,1.9169998c0.5038557,0.5192184,1.1945295,0.8152161,1.9180002,0.8219986
						h3.5619993c0.7289505,0.0205765,1.4301739-0.279953,1.9179993-0.8219986
						c0.5192528-0.503418,0.8152885-1.1938095,0.8220005-1.9169998L21.9241657,117.6760025z"/>
					<path id="Tracé_5767_00000175323926087917617350000007025652852277849997_" class="st19" d="M59.196167,91.0940018
						c0.0205498-0.7286606-0.279995-1.4295654-0.8219986-1.9169998c-0.5038567-0.5192184-1.1945305-0.8152161-1.9179993-0.8219986
						h-9.5930023c-0.7289505-0.0205765-1.430172,0.279953-1.9179993,0.8219986
						c-0.5192528,0.503418-0.8152847,1.1938095-0.8219986,1.9169998v13.8409958
						c-0.0205727,0.7289505,0.2799492,1.4301758,0.8219986,1.9179993c0.5035057,0.5195999,1.1944885,0.8153763,1.9179993,0.8209991
						h9.5919991c0.7286606,0.0201492,1.4295845-0.2798843,1.9179993-0.8209991
						c0.5192146-0.5038528,0.8152199-1.1945267,0.8219986-1.9179993L59.196167,91.0940018z"/>
					<path id="Tracé_5768_00000096750017105208846590000015272306836996715686_" class="st13" d="M193.5061646,129.7310028
						h2.4799957c2.5128937,0,4.5500031,2.0370941,4.5500031,4.5500031l0,0v14.3269958
						c0,2.5123291-2.0366516,4.5489807-4.548996,4.5489807h-2.4799957c-2.5128937,0-4.5500031-2.0370789-4.5500031-4.5500031l0,0
						v-14.3269806c0-2.5123444,2.0366516-4.5490112,4.548996-4.5490112"/>
					<path id="Tracé_5769_00000058570722747709683670000012608432182429995950_" class="st13" d="M248.6741638,75.961998h0.3350067
						c1.0062561-0.0005493,1.8224487,0.8147354,1.822998,1.8209991c0,0.0006714,0,0.0013351,0,0.0019989v14.1660004
						c0.0005493,1.0062637-0.814743,1.8224487-1.8209991,1.822998c-0.0006714,0-0.0013275,0-0.0019989,0h-0.3350067
						c-1.0062561,0.0005493-1.8224487-0.8147354-1.822998-1.8209991c0-0.0006714,0-0.0013351,0-0.0019989V77.7799988
						c-0.0005493-1.0062637,0.814743-1.8224487,1.8209991-1.822998c0.0006714,0,0.0013275,0,0.0019989,0"/>
					<path id="Tracé_5770_00000016798236277978177160000011913770950906218910_" class="st19" d="M157.6891632,124.1829987
						h4.0330048c1.0062561-0.0005493,1.8224487,0.8147354,1.822998,1.8209991c0,0.0006714,0,0.0013351,0,0.0019989v9.1000061
						c0.0005493,1.0062561-0.814743,1.8224487-1.8209991,1.822998c-0.0006714,0-0.0013275,0-0.0019989,0h-4.0330048
						c-1.0062561,0.0005493-1.8224487-0.814743-1.822998-1.8209991c0-0.0006714,0-0.0013428,0-0.0019989l0,0v-9.1000061
						c-0.0005493-1.0062637,0.814743-1.8224487,1.8209991-1.822998
						C157.6878357,124.1829987,157.6884918,124.1829987,157.6891632,124.1829987"/>
					<path id="Tracé_5771_00000088113932213538330240000010716120304267966875_" class="st13" d="M130.3801727,75.3450012
						c-1.5118256,0.0038452-2.7366104,1.2281723-2.7410049,2.7399979v18.2190018
						c0.0043945,1.5119858,1.2290115,2.7366028,2.7410049,2.7409973h3.9720001
						c1.5119781-0.0043945,2.7366028-1.2290115,2.7409973-2.7409973v-4.3829956
						c0.0182648-0.4210815-0.1588745-0.8270187-0.480011-1.0999985c-0.2914429-0.2952728-0.6853027-0.4671402-1.0999908-0.4800034
						c-0.4207001,0.0184631-0.8264465-0.1578598-1.1000061-0.4779968c-0.2950134-0.2916336-0.4668274-0.685379-0.4799957-1.0999985
						v-10.678009c-0.0043945-1.5118256-1.2291718-2.7361526-2.7409973-2.7399979H130.3801727z"/>
					<path id="Tracé_5772_00000121975796327873772770000016078533654121713542_" class="st12" d="M239.795166,76.3030014
						c1.5118256-0.0038452,2.7366028-1.2281723,2.7409973-2.7399979V57.9440002
						c0.0205536-0.7286568-0.2799988-1.4295654-0.8220062-1.9169998c-0.5038605-0.5192146-1.1945343-0.8152199-1.9179993-0.8219986
						h-5.2070007c-0.7289429-0.0205727-1.4301758,0.2799492-1.9179993,0.8219986
						c-0.5192566,0.503418-0.8152924,1.1938057-0.8220062,1.9169998v5.2789993
						c-0.0072021,0.9764175,0.7784882,1.7737961,1.7549133,1.7809982c0.0000305,0,0.000061,0,0.0000916,0h0.026001
						c1.016983,0.0113525,1.8386536,0.8330078,1.8500061,1.8499985v6.7120056
						c0.0043945,1.5118256,1.2291718,2.7361526,2.7409973,2.7399979L239.795166,76.3030014z"/>
					<path id="Tracé_5773_00000065076329628964919490000008930157166180663195_" class="st19" d="M224.7901611,99.7290039
						c-1.5118256,0.0038452-2.7366028,1.2281723-2.7409973,2.7399979v20.7539978
						c0.0043945,1.5118256,1.2291718,2.7361526,2.7409973,2.7399979h7.8099976
						c1.5118256-0.0038452,2.7366028-1.2281723,2.7409973-2.7399979v-13.0819931
						c-0.0097961-1.2444763-1.0165253-2.2507553-2.2610016-2.2600021c-1.2442474-0.0097809-2.2506714-1.0157547-2.2610016-2.2600021
						v-3.2190018c0.0205536-0.7286606-0.2799988-1.4295654-0.8220062-1.9169998
						c-0.5038605-0.5192184-1.1945343-0.8152161-1.9179993-0.8219986c-0.9589996,0.0680008-2.1920013,0.0680008-3.2890015,0.0680008
						"/>
					<path id="Tracé_5774_00000065775834457086685140000014374805161221271196_" class="st12" d="M20.6241646,159.7330017
						c-1.5118294,0.0038452-2.7366066,1.2281799-2.7409992,2.7400055v19.6589966h12.1259995v-13.6269989
						c0.0192509-0.7291107-0.2818851-1.4300537-0.8239994-1.9179993c-0.5038548-0.5192261-1.1945286-0.8152313-1.9179993-0.8220062
						c-1.5118294-0.0038452-2.7366066-1.2281799-2.7409992-2.7400055v-0.4799957
						c-0.0043926-1.5118256-1.2291698-2.7361603-2.7409992-2.7400055c-0.385479-0.0545349-0.7747917-0.0772858-1.1639996-0.0679932"
						/>
					<path id="Tracé_5775_00000051348094917018054110000008413694889879480227_" class="st19" d="M101.1241684,106.9219971
						c0.0205536-0.7286606-0.2799911-1.4295654-0.8219986-1.9169998c-0.503418-0.519249-1.1938095-0.8152847-1.9169998-0.8219986
						h-7.9480057c-1.5116653,0.0038452-2.7361526,1.2283325-2.7399979,2.7399979v26.5040054
						c0.0038452,1.5116577,1.2283325,2.736145,2.7399979,2.7399902h5.4820023
						c1.5118256-0.0038452,2.7366028-1.2281647,2.7409973-2.7399902v-2.3919983
						c-0.0499344-0.962738-0.8192673-1.7320709-1.7819977-1.7819977c-0.9619751-0.0503845-1.7306213-0.8190308-1.7809982-1.7810059
						v-10.8880005c-0.0205536-0.7286606,0.2799911-1.4295654,0.8219986-1.9169998
						c0.503418-0.519249,1.1938095-0.8152847,1.9169998-0.8219986h0.4800034
						c0.7291946,0.0203247,1.4306183-0.2801285,1.9189987-0.8219986c0.519249-0.503418,0.8152847-1.1938095,0.8219986-1.9169998
						c0.0680008-1.3000031,0.0680008-2.8779984,0.0680008-4.1780014"/>
					<path id="Tracé_5776_00000008851017177704610000000004784806322630286520_" class="st2" d="M239.725174,182.0559998
						v-17.4649963c0.0027466-1.4740143,1.196991-2.6682587,2.6710052-2.6710052s2.6682587-1.196991,2.6710052-2.6710052v-6.7779999
						c-0.0205536-0.7286682,0.2799988-1.4295654,0.8220062-1.9170074c0.5038605-0.5192261,1.1945343-0.8152313,1.9179993-0.8220062
						h1.7089996c0.7289581-0.0205688,1.4301758,0.279953,1.9179993,0.8220062
						c0.5192566,0.503418,0.8152924,1.1938171,0.8220062,1.9170074v2.1200104
						c-0.0205536,0.7286682,0.2799988,1.4295654,0.8220062,1.9170074c0.5214996,0.4929657,1.2013702,0.7843475,1.9179993,0.8220062
						h1.4389801c0.7289734-0.0205688,1.4301758,0.279953,1.9179993,0.8220062
						c0.5192566,0.503418,0.8153076,1.1938171,0.8220215,1.9170074v21.9219666H239.725174V182.0559998z"/>
					<path id="Tracé_5777_00000092450060949328440360000014234341750225233841_" class="st13" d="M90.91716,126.3810043
						c-0.0043945-1.5118256-1.2291718-2.7361603-2.7409973-2.7399979h-2.9459991
						c-1.5118256,0.0038376-2.7366028,1.2281723-2.7409973,2.7399979v16.7129898
						c0.0178986,1.6568604,1.3581238,2.9948578,3.0149994,3.0100098h2.4649963
						c1.6586456-0.0146484,2.999794-1.3553619,3.0149994-3.0140076c-0.0680008-4.3829956-0.0680008-12.4669952-0.0680008-16.7129974
						"/>
					<path id="Tracé_5778_00000054966470269329451090000007052095284914826136_" class="st13" d="M267.5021667,121.9219971
						h1.6579895c2.5129089,0,4.5500183,2.0371017,4.5500183,4.5499954v0.0000076v1.6549988
						c0,2.5123444-2.0366516,4.548996-4.5490112,4.548996h-1.6589966c-2.5128784,0-4.5499878-2.0370941-4.5499878-4.5499878
						v-0.0000153v-1.6539993c0-2.5128937,2.0370789-4.5500031,4.5499878-4.5500031l0,0"/>
					<path id="Tracé_5779_00000121240689123565750320000000237499579391667373_" class="st12" d="M255.594162,104.25h1.423996
						c0.8179321-0.0000076,1.4809875,0.6630554,1.4809875,1.4809952c0,0.0013351,0,0.0026703,0,0.0040054v1.4199982
						c0,0.8179321-0.6630554,1.4810028-1.4809875,1.4810028l0,0h-1.423996c-0.8179321,0-1.4810028-0.663063-1.4810028-1.4809952
						v-0.0000076v-1.4199982c0-0.8179321,0.6630707-1.4810028,1.4810028-1.4810028l0,0"/>
					<path id="Tracé_5780_00000172410127497105320150000005725884276496262806_" class="st12" d="M161.1841583,92.538002h1.4260101
						c0.8179321,0,1.4810028,0.663063,1.4810028,1.4809952v0.0000076v1.4240036
						c0,0.8179321-0.6630707,1.4810028-1.4810028,1.4810028l0,0h-1.423996c-0.8179321,0-1.4810028-0.663063-1.4810028-1.4809952
						v-0.0000076v-1.4240112c0-0.8179321,0.6630707-1.4810028,1.4810028-1.4810028l0,0"/>
					<path id="Tracé_5781_00000045581709306058083650000004297331531693350284_" class="st12" d="M103.5571671,156.3759918
						L103.5571671,156.3759918c0.8135147,0,1.4729996,0.6594849,1.4729996,1.4730072
						c0,0.8135071-0.6594849,1.4729919-1.4729996,1.4729919s-1.4729919-0.6594849-1.4729996-1.4729919
						c-0.0000076-0.8135223,0.6594772-1.4730072,1.4729919-1.4730072H103.5571671"/>
					<path id="Tracé_5782_00000151540973538864848850000000905961108448825004_" class="st12" d="M261.4781494,147.1279907
						L261.4781494,147.1279907c0.8135376,0,1.4729919,0.6594849,1.4729919,1.4730225
						c0,0.8135223-0.6594849,1.4729919-1.4729919,1.4729919s-1.4729919-0.6594849-1.4729919-1.4729919
						C260.0051575,147.7874756,260.6646423,147.1279907,261.4781494,147.1279907L261.4781494,147.1279907"/>
					<path id="Tracé_5783_00000083786097676539071100000004651530815007241145_" class="st13" d="M202.2151642,162.0610046
						L202.2151642,162.0610046c0.8135223,0,1.4729919,0.6594849,1.4729919,1.4730072s-0.6594849,1.4729919-1.4730072,1.4729919
						c-0.8135071,0-1.4729919-0.6594849-1.4729919-1.4729919c0-0.8135223,0.6594849-1.4730072,1.4729919-1.4730072H202.2151642"/>
					<path id="Tracé_5784_00000086667111057129807150000010428236555257021597_" class="st273" d="M206.3931732,138.3610077
						L206.3931732,138.3610077c0.8135223,0,1.4729919,0.6594849,1.4729919,1.4729919
						c0,0.8135223-0.6594849,1.4730072-1.4730072,1.4729919c-0.8135071,0-1.4729919-0.6594849-1.4729919-1.4729919
						S205.5796509,138.3610077,206.3931732,138.3610077L206.3931732,138.3610077"/>
					<path id="Tracé_5785_00000062911099324078429780000015681087717103859339_" class="st12" d="M233.2501678,81.7839966
						L233.2501678,81.7839966c0.8135223,0.0000076,1.4729919,0.6594925,1.4729919,1.4730072
						s-0.6594849,1.4729996-1.4730072,1.4729919c-0.8135071,0-1.4729919-0.6594849-1.4729919-1.4729996
						S232.4366455,81.7839966,233.2501678,81.7839966L233.2501678,81.7839966"/>
					<path id="Tracé_5786_00000137130686479775024150000015167579547626971792_" class="st12" d="M79.1661682,93.0849991
						L79.1661682,93.0849991c0.8135147,0.0011063,1.4720993,0.6614914,1.470993,1.4750061s-0.6614914,1.4720993-1.4750061,1.470993
						c-0.8127289-0.0011063-1.470993-0.6602707-1.470993-1.4729996c0-0.8135147,0.6594849-1.4729996,1.4729996-1.4729996"/>
					<path id="Tracé_5787_00000023251231392884559890000016189370073233238452_" class="st13" d="M46.0061684,119.0429993
						L46.0061684,119.0429993c0.8135147,0,1.4729996,0.6594849,1.4729996,1.4729996s-0.6594849,1.4729996-1.4729996,1.4729996
						s-1.4729996-0.6594849-1.4729996-1.4729996l0,0C44.5331688,119.7024841,45.1926537,119.0429993,46.0061684,119.0429993"/>
					<path id="Tracé_5788_00000124141767445477024280000003787719727769627535_" class="st13" d="M62.8601646,143.0879974
						L62.8601646,143.0879974c0.8135147,0,1.4730034,0.6594849,1.4730034,1.4730072
						c0,0.8135071-0.6594887,1.4729919-1.4730034,1.4729919s-1.4729996-0.6594849-1.4729996-1.4729919l0,0
						C61.3871651,143.7474823,62.0466499,143.0879974,62.8601646,143.0879974"/>
					<path id="Tracé_5789_00000180359916452034278500000001979259816291681975_" class="st13" d="M109.382164,163.7730103
						L109.382164,163.7730103c0.8135147,0,1.4729996,0.6594849,1.4729996,1.4730072
						c0,0.8135071-0.6594849,1.4729919-1.4729996,1.4729919s-1.4729919-0.6594849-1.4729996-1.4729919
						c-0.0000076-0.8135223,0.6594772-1.4730072,1.4729919-1.4730072H109.382164"/>
					<path id="Tracé_5790_00000097486356728850950970000009047026285935720845_" class="st13" d="M255.9931641,64.3170013
						L255.9931641,64.3170013c0.8135071,0,1.4729919,0.6594925,1.4729919,1.4730072s-0.6594849,1.4729919-1.4730072,1.4729919
						c-0.8135071-0.0000076-1.4729919-0.6594849-1.4729919-1.4729996S255.1796417,64.3170013,255.9931641,64.3170013
						L255.9931641,64.3170013"/>
					<path id="Tracé_5791_00000047062610695432762450000015814008878921402759_" class="st13" d="M152.8861694,118.9780045
						L152.8861694,118.9780045c0.8135223,0,1.4729919,0.6594925,1.4729919,1.4730072s-0.6594849,1.4729919-1.4730072,1.4729919
						c-0.8135071,0-1.4729919-0.6594849-1.4729919-1.4730072
						C151.4131622,119.6374817,152.0726471,118.9780045,152.8861694,118.9780045L152.8861694,118.9780045"/>
					<path id="Tracé_5792_00000117644376650046168860000004989685897944328068_" class="st274" d="M129.318161,55.5499992
						L129.318161,55.5499992c0.8135223,0,1.4730072,0.6594849,1.4730072,1.4729996s-0.6594849,1.4729996-1.4730072,1.4729996
						c-0.8135071,0-1.4729996-0.6594849-1.4729996-1.4729996l0,0
						C127.8451614,56.2094841,128.5046539,55.5499992,129.318161,55.5499992"/>
					<path id="Tracé_5793_00000114779519499320161220000008940623018199741848_" class="st13" d="M58.064167,74.522995
						L58.064167,74.522995c0.8135147,0,1.4729996,0.6594925,1.4729996,1.4730072
						c0,0.8135071-0.6594849,1.4729919-1.4729996,1.4729919s-1.4729996-0.6594849-1.4729996-1.4729919l0,0
						C56.5911674,75.1824875,57.2506523,74.522995,58.064167,74.522995"/>
					<path id="Tracé_5794_00000039112982416382628960000006094636905508556425_" class="st273" d="M24.6981659,147.470993
						L24.6981659,147.470993c0.8135147,0,1.4729996,0.6594849,1.4730015,1.4730072
						c0,0.8135071-0.6594849,1.4729919-1.4729996,1.4729919s-1.4729977-0.6594849-1.4730015-1.4729919
						c-0.0000038-0.8135223,0.6594772-1.4730072,1.4729939-1.4730072
						C24.6981602,147.470993,24.698164,147.470993,24.6981659,147.470993"/>
					<path id="Tracé_5795_00000103262470121731162620000005167449601296657553_" class="st273" d="M145.3491669,158.5709991
						L145.3491669,158.5709991c0.8135223,0,1.4730072,0.6594849,1.4730072,1.4730072
						c0,0.8135071-0.6594849,1.4729919-1.4730072,1.4729919c-0.8135071,0-1.4729919-0.6594849-1.4729919-1.4729919
						C143.8761597,159.230484,144.5356445,158.5709991,145.3491669,158.5709991L145.3491669,158.5709991"/>
					<path id="Tracé_5796_00000142135033709757508670000012405273004601227195_" class="st273" d="M166.9311676,99.7289963
						L166.9311676,99.7289963c0.8135223,0.0000076,1.4729919,0.6594925,1.4729919,1.4730072
						s-0.6594849,1.4729996-1.4730072,1.4729919c-0.8135071,0-1.4729919-0.6594849-1.4729919-1.4729996
						S166.1176453,99.7289963,166.9311676,99.7289963L166.9311676,99.7289963"/>
					<path id="Tracé_5797_00000180352169591483836240000002146079684491343237_" class="st13" d="M195.5771637,81.7839966h1.423996
						c0.8179321,0,1.4810028,0.663063,1.4810028,1.4809952v0.0000076v1.4259949
						c0,0.8179321-0.6630707,1.4810028-1.4810028,1.4810028l0,0h-1.423996c-0.8179321,0-1.4810028-0.663063-1.4810028-1.4809952
						v-0.0000076v-1.4259949C194.0961609,82.4470673,194.7592316,81.7839966,195.5771637,81.7839966L195.5771637,81.7839966"/>
					<path id="Tracé_5798_00000033358898737230696040000006155941203400937893_" class="st13" d="M138.5751648,143.0200043
						h1.4240112c0.8179321,0,1.4810028,0.6630554,1.4810028,1.4809875l0,0v1.4240112
						c0,0.8179321-0.6630707,1.4810028-1.4810028,1.4810028l0,0h-1.4240112c-0.8179321,0-1.4810028-0.6630707-1.4810028-1.4810028
						l0,0v-1.4240112C137.094162,143.683075,137.7572327,143.0200043,138.5751648,143.0200043L138.5751648,143.0200043"/>
					<path id="Tracé_5799_00000035493663067683789990000008684092058636277140_" class="st13" d="M238.7401581,137.2689972
						h1.423996c0.8179321,0,1.4810028,0.6630707,1.4810028,1.4810028l0,0v1.4190063
						c0,0.8179321-0.6630707,1.4810028-1.4810028,1.4810028l0,0h-1.423996c-0.8179321,0-1.4810028-0.6630707-1.4810028-1.4810028
						l0,0v-1.4240112c0-0.8179321,0.6630707-1.4810028,1.4810028-1.4810028l0,0"/>
					<path id="Tracé_5800_00000058583177439445865890000006063053181695079323_" class="st12" d="M38.9571686,111.0320053
						h1.4209976c0.8179321,0,1.480999,0.6630707,1.480999,1.4810028l0,0v1.4240036
						c0,0.8179321-0.663063,1.4810028-1.4809952,1.4810028c-0.0000038,0-0.0000038,0-0.0000038,0h-1.4209976
						c-0.8179321,0-1.480999-0.6630707-1.480999-1.4810028l0,0v-1.4240112c0-0.8179321,0.663063-1.4810028,1.4809952-1.4810028
						c0.0000038,0,0.0000038,0,0.0000038,0"/>
					<path id="Rectangle_1017_00000043426307308726775820000017651600709918126263_" class="st12" d="M148.0541687,66.7149963
						h1.7859955c0.7179718,0,1.3000031,0.5820312,1.3000031,1.3000031v1.7859955
						c0,0.7179718-0.5820312,1.3000031-1.3000031,1.3000031h-1.7859955c-0.7179718,0-1.3000031-0.5820312-1.3000031-1.3000031
						v-1.7859955C146.7541656,67.2970276,147.3361969,66.7149963,148.0541687,66.7149963z"/>
					<path id="Tracé_5801_00000022558391988905578740000018325163843429423528_" class="st19" d="M82.120163,84.2490005h1.4240036
						c0.8179321,0,1.4810028,0.663063,1.4810028,1.4809952v0.0000076v1.4240036c0,0.8179321-0.663063,1.4810028-1.4809952,1.4810028
						h-0.0000076H82.120163c-0.8179321,0-1.4810028-0.663063-1.4810028-1.4809952V87.154007v-1.4240036
						c0-0.8179321,0.663063-1.4810028,1.4809952-1.4810028H82.120163"/>
					<path id="Tracé_5802_00000011713169377368949460000009568181768388460191_" class="st273" d="M209.2091675,144.2519989
						h1.427002c0.8162842-0.0005646,1.4784546,0.6607208,1.4790039,1.4769897c0,0.0006714,0,0.0013275,0,0.0019989v1.4259949
						c0.0005493,0.8162842-0.6607208,1.4784546-1.4769897,1.4790039c-0.0006714,0-0.0013428,0-0.0020142,0h-1.427002
						c-0.8162842,0.0005493-1.4784546-0.6607208-1.4790039-1.4769897c0-0.0006714,0-0.0013428,0-0.0020142v-1.4259949
						c-0.0005493-0.8162689,0.6607208-1.4784393,1.477005-1.4789886
						C209.20784,144.2519989,209.2084961,144.2519989,209.2091675,144.2519989"/>
					<path id="Tracé_5803_00000042733933487383433590000005079672582026093220_" class="st12" d="M124.7331696,102.538002h1.423996
						c0.8162766-0.0005493,1.478447,0.6607285,1.4789963,1.477005c0,0.0006638,0,0.0013275,0,0.0019913v4.7829971
						c0.0005493,0.8162766-0.6607285,1.478447-1.477005,1.4789963c-0.0006638,0-0.0013275,0-0.0019913,0h-1.427002
						c-0.8162766,0.0005493-1.478447-0.6607285-1.4789963-1.477005c0-0.0006638,0-0.0013275,0-0.0019913v-4.7829971
						c-0.0005493-0.8162766,0.6607285-1.478447,1.477005-1.4789963c0.0006638,0,0.0013275,0,0.0019913,0"/>
					<path id="Tracé_5804_00000125599788029165883870000016473104509118537601_" class="st273" d="M188.1771545,69.3170013
						h1.423996c0.8179321,0,1.4810028,0.663063,1.4810028,1.4809952l0,0v4.7840042
						c0,0.8179321-0.6630707,1.4810028-1.4810028,1.4810028l0,0h-1.423996c-0.8179321,0-1.4810028-0.663063-1.4810028-1.4809952
						v-0.0000076v-4.7839966C186.6961517,69.980072,187.3592224,69.3170013,188.1771545,69.3170013L188.1771545,69.3170013"/>
					<path id="Rectangle_1018_00000154397829171489431530000006831635312701189253_" class="st12" d="M124.2801666,61.0289993
						h1.7860031c0.7179718,0,1.3000031,0.5820312,1.3000031,1.2999992v5.1459999
						c0,0.7179718-0.5820312,1.3000031-1.3000031,1.3000031h-1.7860031c-0.7179642,0-1.2999954-0.5820312-1.2999954-1.3000031
						v-5.1459999C122.9801712,61.6110306,123.5622025,61.0289993,124.2801666,61.0289993z"/>
					<path id="Tracé_5805_00000159454597766515358960000003293295607691333000_" class="st12" d="M9.9771662,129.4570007h1.4239998
						c0.817934,0,1.4809999,0.6630554,1.4809999,1.4810028l0,0v4.7839966
						c0.0000019,0.8179321-0.663063,1.4810028-1.4809971,1.4810028c0,0-0.0000019,0-0.0000029,0H9.9771662
						c-0.817934,0-1.4809999-0.6630707-1.4809999-1.4810028l0,0v-4.7839966
						c-0.0000019-0.8179321,0.663063-1.4810028,1.4809971-1.4810028
						C9.9771633,129.4570007,9.9771652,129.4570007,9.9771662,129.4570007"/>
					<path id="Tracé_5806_00000029040537683782424950000000828884562490081169_" class="st13" d="M50.9041672,74.4550018
						v-5.8880005c-0.0111008-0.4874115-0.4035873-0.8798981-0.8909988-0.8909988h-2.5999985
						c-0.4874115,0.0111008-0.8798981,0.4035873-0.8909988,0.8909988v1.7089996
						c-0.0059242,0.4514999-0.3704987,0.8160706-0.8219986,0.8219986h-1.708004
						c-0.4874115,0.0111008-0.8798981,0.4035873-0.8909988,0.8909988v2.5999985
						c0.0116272,0.4870224,0.403965,0.8789215,0.8909988,0.8899994h5.9599991L50.9041672,74.4550018z"/>
					<path id="Tracé_5807_00000147201830278712093320000007695747650631403397_" class="st19" d="M176.8311615,149.2519989
						v-5.9559937c-0.0110931-0.4874268-0.403595-0.8799133-0.8910065-0.8910065h-2.6000061
						c-0.4874115,0.0110931-0.8799133,0.4035797-0.8910065,0.8910065v1.7089996
						c-0.0059204,0.4514923-0.3704987,0.8160706-0.8220062,0.821991h-1.7089996
						c-0.4870453,0.0110779-0.8793793,0.4029694-0.8910065,0.8899994v2.6000061
						c0.0110931,0.4874115,0.403595,0.8799133,0.8910065,0.8910065h5.9600067L176.8311615,149.2519989z"/>
					<path id="Tracé_5808_00000060729843748274241310000007240709045987357886_" class="st12" d="M63.7851677,135.072998h5.9599953
						c0.4874115-0.0110931,0.8798981-0.4035797,0.8909988-0.8909912v-2.6000061
						c-0.0111008-0.4874115-0.4035873-0.8798981-0.8909988-0.8909912h-1.7080002
						c-0.4514999-0.0059357-0.8160706-0.3704987-0.8219986-0.8220062v-1.7120056
						c-0.0116272-0.4870224-0.4039612-0.8789215-0.8909988-0.8899994h-2.6069984
						c-0.4870338,0.0110779-0.8793716,0.402977-0.8909988,0.8899994v5.9589996L63.7851677,135.072998z"/>
					<path id="Tracé_5809_00000027579256787246094090000005024452069548305559_" class="st13" d="M226.9141693,169.0479889
						c0.0205536-0.7286682-0.2799988-1.4295654-0.8220062-1.9170074c-0.5038605-0.5192261-1.1945343-0.8152313-1.9179993-0.8220062
						h-2.6710052c-0.7289581-0.0205688-1.4301758,0.279953-1.9179993,0.8220062
						c-0.5192566,0.503418-0.8152924,1.1938171-0.8220062,1.9170074v13.0140076h8.1529999L226.9141693,169.0479889z"/>
					<path id="Tracé_5810_00000182489716751332336450000002150556251386660753_" class="st19" d="M132.5721588,158.3590088
						c-1.5118256,0.0038452-2.7366028,1.2281799-2.7409973,2.7400055v21.0279999h11.4420013v-13.2880096
						c0.0022125-1.0566864-0.8523102-1.9152374-1.9089966-1.9179993h-0.0090027
						c-1.0576172,0.0010986-1.9158936-0.8553772-1.9169922-1.9129944v-3.8410034
						c-0.0043945-1.5118256-1.2291718-2.7361603-2.7409973-2.7400055c-0.6829987-0.0679932-1.4380035-0.0679932-2.1230011-0.0679932
						"/>
					<path id="Tracé_5811_00000171701105800577989720000010529847224244306363_" class="st273" d="M69.9251633,132.8820038
						h1.4240036c0.8179321,0,1.4810028,0.6630554,1.4810028,1.4809875v0.0000153v1.423996
						c0,0.8179321-0.663063,1.4810028-1.4809952,1.4810028h-0.0000076h-1.4240036
						c-0.8179321,0-1.4809952-0.6630707-1.4809952-1.4810028l0,0v-1.4240112c0-0.8179321,0.663063-1.4810028,1.4809952-1.4810028
						l0,0"/>
				</g>
			</g>
		</g>
		<path id="Icon_awesome-check_00000056424307672813373380000008492870080844036014_" class="st269" d="M183.6221619,292.7559814
			l-36.9779968-36.9779816c-2.2213898-2.2216492-2.2213898-5.8233643,0-8.0449982l8.0449982-8.0449982
			c2.2216339-2.2213898,5.8233643-2.2213898,8.0449982,0l24.9109955,24.9120026l53.3540039-53.3570099
			c2.2216492-2.2213745,5.8233643-2.2213745,8.0449982,0l8.0450134,8.0449982c2.2213745,2.2216492,2.2213745,5.8233643,0,8.0450134
			L191.66716,292.7559814C189.4455261,294.9773865,185.843811,294.9773865,183.6221619,292.7559814z"/>
	</g>
</g>
<g id="TEXTES_FR" class="st283">
</g>
<g id="TEXTES_GB">
</g>
<g id="Calque_5">
</g>
</svg>
