<?xml version="1.0" encoding="utf-8"?>
<!-- Generator: Adobe Illustrator 26.2.1, SVG Export Plug-In . SVG Version: 6.00 Build 0)  -->
<svg version="1.1" id="Calque_1" xmlns="http://www.w3.org/2000/svg" xmlns:xlink="http://www.w3.org/1999/xlink" x="0px" y="0px"
	 viewBox="0 0 346.1 318" style="enable-background:new 0 0 346.1 318;" xml:space="preserve">
<style type="text/css">
	.st0{fill:#FFBCC6;}
	.st1{fill:#272F60;}
	.st2{fill:#FB657C;}
	.st3{fill:#FFFFFF;}
	.st4{fill:#FFFFFF;stroke:#142664;stroke-width:3;stroke-linecap:round;stroke-linejoin:round;}
</style>
<g id="TEXTES_FR">
</g>
<g>
	<g id="ILLUSTRATIONS">
		<g id="ICONO-2_00000132806882066310691810000012087272060043348637_" transform="translate(0 2.69)">
			<path id="Tracé_2729_00000039129949831989431050000010647006206163027328_" class="st0" d="M167.8,94.3c0.1-0.6-0.2-1.2-0.8-1.3
				c0,0,0,0,0,0c-0.6-0.1-1.1,0.2-1.2,0.8c0,0,0,0,0,0.1c0,0-1.4,6.2,11.8,6.7c0.6,0,1.1-0.4,1.1-1c0,0,0,0,0,0c0-0.6-0.4-1.1-1-1.1
				c0,0,0,0,0,0c-4.4-0.2-6.9-0.9-8.3-1.9C167.8,95.5,167.7,94.5,167.8,94.3L167.8,94.3L167.8,94.3z"/>
			<path id="Tracé_2730_00000062914903338019470820000003745434585659314107_" class="st1" d="M183.5,99.8c0,1.5-1.7,2.6-3.7,2.6
				s-3.6-1.3-3.6-2.8s1.7-2.6,3.7-2.6S183.6,98.4,183.5,99.8z"/>
			<path id="Tracé_2731_00000088132649835108067940000006764461924089296262_" class="st0" d="M187.3,122.3
				c-0.8-4.8-5.3-8-10.1-7.2s-8,5.3-7.2,10.1c3,18,8.1,26.7,15.6,30.8c7,3.9,17.5,3.9,34.1,1.1c4.8-0.8,8-5.4,7.2-10.2
				c-0.8-4.8-5.3-8-10.1-7.2c-5.3,1-10.6,1.7-16,1.9c-2.8,0.1-5.1,0-6.8-1c-1.4-0.8-2.2-2.2-3.1-4.1
				C189.3,132.9,188.3,128.3,187.3,122.3L187.3,122.3z"/>
			<path id="Tracé_2732_00000145742456719467558750000017221349981105836461_" class="st0" d="M194.8,165.5
				c0.1,0.4,0.1,0.9-0.2,1.3c-0.2,0.4-0.6,0.7-1.1,0.7l-50,8.4c-0.8,0.2-1.6-0.4-1.8-1.2c-1.7-8.2-10.1-47.3-10.1-47.3l51.1-8.5
				C182.7,118.8,192.8,157,194.8,165.5z"/>
			<path id="Tracé_2733_00000116939912011261175430000008760705402572077501_" class="st0" d="M193.9,212.6c1,6,6.6,2.6,13.1,2.4
				c2.4,0,4.4-2,4.4-4.4c0-0.3,0-0.6-0.1-0.9c-3-17.9-6.5-34.1-13.6-39.2c-10.1-7.2-62.2-7.4-62.2-7.4l1.1,6.6
				c1.6,10,10.8,17.1,20.9,16c0.8-0.1,1.5-0.2,2.1-0.2c7.8-0.7,16.6-1.2,19.3-1.2c2.8-0.1,5.1,0,6.8,1c1.4,0.8,2.2,2.2,3.1,4.1
				C190.4,193,192.9,206.6,193.9,212.6L193.9,212.6z"/>
			<path id="Tracé_2734_00000040540497581881462690000013652960483240083848_" class="st0" d="M224.8,207.5
				c0.8,4.9,4.6,3.6,9.4,2.8c4.7-0.8,8.7-0.9,7.9-5.7c-3-17.9-6.5-34.1-13.6-39.2c-10.1-7.2-35.6-3.9-52.3-1.1
				c-4.8,0.8-8,5.4-7.2,10.2c0.8,4.8,5.3,8,10.1,7.2c6.5-1.1,26.2-2.4,30.5-2.5c2.8-0.1,5,0,6.8,1c1.4,0.8,2.2,2.2,3.1,4.1
				C221.2,187.8,223.7,201.4,224.8,207.5L224.8,207.5z"/>
			<path id="Tracé_2735_00000069358819726195592890000003652029127833274014_" class="st2" d="M226.7,218.7l24.9-4.2
				c0.6-0.1,1.1-0.6,1.3-1.3c0.2-0.6,0-1.3-0.6-1.7c-4-3.3-10.6-8.9-10.6-8.9l-17.3,2.9L226.7,218.7z"/>
			<path id="Tracé_2736_00000012442340379447446300000015137699001046604160_" class="st1" d="M244,211.3c0.8-0.1,1.3-0.8,1.2-1.6
				c0,0,0-0.1,0-0.1c-0.1-0.8-0.9-1.3-1.7-1.2c0,0,0,0,0,0c0,0-0.5-0.1-1.2-0.2c-0.4,0-0.7,0-1.1,0c-0.2,0-0.4,0.2-0.6,0.2
				c-0.5,0.2-1,0.4-1.5,0.7c-0.8,0.1-1.3,0.9-1.2,1.7c0.1,0.8,0.9,1.3,1.7,1.2c0.5,0.1,1.1,0.2,1.6,0.2c0.2,0,0.4,0,0.7,0
				c0.4-0.1,0.7-0.2,1.1-0.4C243.6,211.5,244,211.3,244,211.3L244,211.3z"/>
			<path id="Tracé_2737_00000161615386120485526520000003527535625054281609_" class="st1" d="M240,206.6c0.8-0.2,1.3-0.9,1.2-1.7
				c-0.1-0.8-0.9-1.3-1.7-1.2c0,0,0,0,0,0c0,0-0.5-0.1-1.2-0.2c-0.4,0-0.7,0-1.1,0c-0.2,0-0.4,0.2-0.6,0.2c-0.5,0.2-1,0.4-1.5,0.7
				c-0.8,0.1-1.3,0.9-1.2,1.7c0.1,0.8,0.9,1.3,1.7,1.2c0.5,0.1,1.1,0.2,1.6,0.2c0.2,0,0.4,0,0.7,0c0.4-0.1,0.7-0.2,1.1-0.4
				C239.5,206.9,240,206.7,240,206.6L240,206.6z"/>
			<path id="Tracé_2738_00000065762005901348415890000004791707218155616670_" class="st2" d="M193.7,210.8l2.2,13.1l24.9-4.2
				c0.6-0.1,1.1-0.6,1.3-1.3c0.2-0.6,0-1.3-0.6-1.7c-4-3.3-10.6-8.9-10.6-8.9L193.7,210.8L193.7,210.8z"/>
			<path id="Tracé_2739_00000157271607763298943240000014268492110442066055_" class="st1" d="M213.2,216.4
				c0.8-0.1,1.3-0.8,1.2-1.6c0,0,0-0.1,0-0.1c-0.1-0.8-0.9-1.3-1.7-1.2c0,0,0,0,0,0c0,0-0.5-0.1-1.2-0.2c-0.4,0-0.7,0-1.1,0
				c-0.2,0-0.4,0.2-0.6,0.2c-0.5,0.2-1,0.4-1.5,0.7c-0.8,0.1-1.3,0.9-1.2,1.7c0.1,0.8,0.9,1.3,1.7,1.2c0.5,0.1,1.1,0.2,1.6,0.2
				c0.2,0,0.4,0,0.7,0c0.4-0.1,0.7-0.2,1.1-0.4C212.7,216.7,213.2,216.4,213.2,216.4L213.2,216.4z"/>
			<path id="Tracé_2740_00000020368747455697366620000006843439404988770467_" class="st1" d="M209.1,211.8
				c0.8-0.2,1.3-0.9,1.2-1.7c-0.1-0.8-0.9-1.3-1.7-1.2c0,0,0,0,0,0c0,0-0.5-0.1-1.2-0.2c-0.4,0-0.7,0-1.1,0c-0.2,0-0.4,0.2-0.6,0.2
				c-0.5,0.2-1,0.4-1.5,0.7c-0.8,0.1-1.3,0.9-1.2,1.7c0.1,0.8,0.9,1.3,1.7,1.2c0.5,0.1,1.1,0.2,1.6,0.2c0.2,0,0.4,0,0.7,0
				c0.4-0.1,0.7-0.2,1.1-0.4C208.7,212.1,209.1,211.8,209.1,211.8L209.1,211.8z"/>
			<path id="Tracé_2741_00000000221520570171609950000012193054323530313616_" class="st0" d="M122.5,129.4
				c8.7,9.1,22.4,7.6,35,5.4c12.3-2.1,23.2-4.7,28.6-15.7c-5.5-10.7-21.5-11.6-33.7-9.6C140.8,111.5,124.2,119.2,122.5,129.4
				L122.5,129.4z"/>
			<path id="Tracé_2742_00000181086541225192904550000017407080764975198387_" class="st0" d="M142.2,117
				c12.4-1.9,27.6-4.6,27.6-4.6"/>
			<path id="Tracé_2743_00000171714807542267446220000010369147123587525257_" class="st1" d="M170.3,115.3c1.7-0.3,2.7-2,2.4-3.6
				c-0.3-1.6-1.9-2.7-3.5-2.4c0,0-2.2-0.1-5.6,0.1c-2.4,0.2-5.3,0.4-8.4,0.9c-2.6,0.4-5.4,1.2-8.2,1.9c-1.8,0.5-3.5,1.2-5.3,1.7
				c-1.6,0.3-2.8,1.8-2.5,3.5c0.3,1.6,1.8,2.7,3.4,2.5c1.9,0,3.8,0.1,5.7,0c2.9-0.2,5.7-0.4,8.4-0.8c2.8-0.5,5.5-1.1,8.2-1.9
				C166.7,116.6,168.5,116,170.3,115.3L170.3,115.3z"/>
			<path id="Tracé_2744_00000170991816903593716970000016554940855714177958_" class="st2" d="M140.5,117.1
				c16.5,0.7,26.4-4.4,26.4-4.4l-0.7-3.9c0.9-0.4,1.8-0.8,2.7-1.3c2.1-1.3,2.3-4.6,2.5-6.3c1.6-14.5-3.7-29.7-3.7-29.7
				c-21.3-5.8-33.2,3.7-33.2,3.7s-3.2,18.2,1.4,32.4c0.8,2.3,3,4.5,3.9,4.6L140.5,117.1z"/>
			<path id="Tracé_2745_00000142882767567610429170000009512738204650930604_" class="st1" d="M166,108.9c-0.3-0.6-1-0.9-1.6-0.6
				c0,0,0,0,0,0c-0.4,0-0.9,0-1.3,0.1c-0.6,0.1-1.2,0.2-1.8,0.3c-0.5,0.2-1.2,0.4-1.8,0.6c-0.4,0.2-0.8,0.3-1.2,0.5
				c-0.7,0.1-1.1,0.7-1.1,1.3c0.1,0.6,0.6,1.1,1.3,1.1c0.5,0.1,1,0.2,1.4,0.2c0.7,0,1.5,0,2.2-0.2c0.7-0.2,1.4-0.5,2-0.8
				c0.4-0.3,0.9-0.5,1.3-0.9C166.1,110.3,166.4,109.6,166,108.9C166,108.9,166,108.9,166,108.9z"/>
			<path id="Tracé_2746_00000008122242042316783520000006395851886538645919_" class="st1" d="M166.5,84c-0.9,0.2-1.5,1-1.5,1.9
				c-0.1,0.5-0.1,1.1,0,1.6c0.1,0.6,0.3,1.1,0.5,1.6c0.1,0.9,1,1.6,1.9,1.5c0.9-0.1,1.6-1,1.5-1.9c0,0,0,0,0-0.1
				c0.1-0.5,0.1-1.1,0-1.6c-0.1-0.6-0.3-1.1-0.5-1.6c0-0.9-0.8-1.5-1.7-1.5C166.6,84,166.6,84,166.5,84z"/>
			<path id="Tracé_2747_00000107554997682064862740000017311524454029050529_" class="st1" d="M151.4,86.3c-0.9,0.2-1.5,1-1.5,1.9
				c-0.1,0.5-0.1,1.1,0,1.6c0.1,0.6,0.3,1.1,0.5,1.6c0.1,0.9,1,1.6,1.9,1.5c0.9-0.1,1.6-1,1.5-1.9c0,0,0,0,0-0.1
				c0.1-0.5,0.1-1.1,0-1.6c-0.1-0.6-0.3-1.1-0.5-1.6c0-0.9-0.8-1.5-1.7-1.5C151.6,86.3,151.5,86.3,151.4,86.3z"/>
			<path id="Tracé_2748_00000012451506937895372850000004578966096022213565_" class="st1" d="M164.5,99.8c0.8-0.1,1.3-0.9,1.2-1.7
				c-0.1-0.8-0.9-1.3-1.7-1.2c0,0-0.6-0.1-1.4-0.1c-0.5,0-0.9,0-1.4,0c-0.3,0-0.5,0.2-0.8,0.2c-0.6,0.2-1.2,0.5-1.8,0.8
				c-0.8,0.1-1.3,0.9-1.2,1.7c0.1,0.8,0.9,1.3,1.7,1.2c0.7,0.1,1.3,0.1,2,0.1c0.3,0,0.6,0,0.8,0c0.5-0.1,0.9-0.2,1.3-0.4
				C164,100,164.5,99.8,164.5,99.8L164.5,99.8z"/>
			<path id="Tracé_2749_00000143587206182193282230000007405233290090313359_" class="st0" d="M139.4,130.2
				c-0.8-4.8-5.3-8-10.1-7.2s-8,5.3-7.2,10.1c3,18,6.5,30.6,14,34.7c7,3.8,19.1,0,35.7-2.8c4.8-0.8,8-5.4,7.2-10.2
				c-0.8-4.8-5.3-8-10.1-7.2c-5.3,1-10.6,1.7-16,1.9c-2.8,0.1-5.1,0-6.8-1c-1.4-0.8-2.2-2.2-3.1-4.1
				C141.5,140.9,140.4,136.3,139.4,130.2L139.4,130.2z"/>
			<path id="Tracé_2750_00000044896644686621149990000007444685098887478203_" class="st1" d="M141.6,133.6c-0.2-0.8-1-1.3-1.9-1.2
				c-0.8,0.2-1.2,1-1,1.8c0.4,1.5,0.9,4.9,1.5,7.6c0.2,1.2,0.5,2.3,0.9,3.4c0.5,1.1,1.1,2.2,1.7,3.2c0.5,0.8,1.3,1.4,2.1,1.9
				c1,0.5,2.1,0.9,3.3,1.1c1.5,0.2,3,0.2,4.5,0.1c1.5-0.1,3-0.2,4.7-0.4c2.1-0.3,4.5-0.7,6.9-1.2c0.8-0.1,1.3-0.8,1.2-1.6
				s-0.8-1.3-1.6-1.2l0,0c-2.5,0.3-4.8,0.5-6.8,0.7c-1.5,0.2-3,0.2-4.5,0.2c-1.3,0.1-2.6,0-3.9-0.2c-0.7-0.1-1.4-0.3-2-0.6
				c-0.5-0.3-0.9-0.7-1.2-1.2c-0.4-0.6-0.8-1.3-1.1-2c-0.4-0.9-0.7-1.9-0.9-2.9C143,138.3,142.1,135.1,141.6,133.6L141.6,133.6z"/>
			<path id="Tracé_2751_00000054986966827830269520000015510181257040430466_" class="st2" d="M184.4,165.1
				c5.6-11.8-6.5-20.9-13.6-16.5C161.5,154.4,178.8,177,184.4,165.1z"/>
			<path id="Tracé_2752_00000076573281186718118670000008239430345083103654_" class="st2" d="M231.7,157.2
				c5.6-11.8-6.5-20.9-13.6-16.5C208.8,146.5,226.1,169,231.7,157.2z"/>
			<path id="Tracé_2753_00000096763597251604330970000007650644224629907126_" class="st1" d="M181.6,123.5c-0.2-0.8-1-1.2-1.7-1
				c0,0-0.1,0-0.1,0c-0.8,0.2-1.2,1-1,1.8c0,0,0.4,2.7,1.2,6.1c0.4,1.8,0.8,3.9,1.4,6c0.3,1.3,0.6,2.4,1,3.6
				c1.3,4.5,2.5,8.3,2.5,8.3c0.2,0.8,1,1.2,1.8,1c0.8-0.2,1.2-1,1-1.8l0,0c0,0-0.7-3.8-1.7-8.5c-0.2-1.2-0.5-2.5-0.8-3.6
				c-0.5-2.1-1.2-4.1-1.6-5.9C182.4,126,181.6,123.5,181.6,123.5L181.6,123.5z"/>
			<path id="Tracé_2754_00000090292530234928586780000008024985593886396587_" class="st1" d="M200.6,176.2c0.3,0.7,1,1.1,1.8,1
				c0.7-0.3,1.1-1.1,0.9-1.8c-0.4-1.8-1.2-3.5-2.2-5c-0.7-1.1-1.6-2-2.7-2.8c-0.8-0.6-1.6-1.1-2.6-1.4c-2-0.7-4.1-1-6.2-0.9
				c-0.8,0-1.4,0.6-1.5,1.4c0,0.8,0.6,1.4,1.4,1.5c1,0.1,2,0.4,2.9,0.6c1.4,0.4,2.6,1.1,3.8,1.9c1,0.6,1.8,1.4,2.5,2.3
				C199.5,174,200.1,175.1,200.6,176.2L200.6,176.2z"/>
			<path id="Tracé_2755_00000004539201493499928040000013866639881240596912_" class="st1" d="M170.1,163.4c0.5,0.6,1.3,0.8,2,0.5
				c0.6-0.5,0.8-1.3,0.3-2c0,0,0,0,0,0c-1.3-2-2.1-4.2-2.4-6.6c-0.1-0.8-0.1-1.6,0.1-2.5c0.2-1.1,0.7-2,1.6-2.6
				c0.6-0.4,1.2-0.7,1.9-0.9c0.7-0.2,1.5-0.3,2.2-0.3c0.8,0.1,1.5-0.5,1.6-1.3c0.1-0.8-0.5-1.5-1.3-1.6l0,0c-1.1-0.2-2.1-0.2-3.2,0
				c-1.1,0.2-2.1,0.5-3.1,1.1c-1.5,0.8-2.7,2.1-3.2,3.6c-0.4,1-0.6,2-0.5,3.1c0.1,1.8,0.6,3.5,1.3,5.1
				C168.1,160.6,169,162.1,170.1,163.4L170.1,163.4z"/>
			<path id="Tracé_2756_00000111179408362647694400000000124601089821265311_" class="st1" d="M217.4,155.5c0.5,0.6,1.3,0.8,2,0.5
				c0.6-0.5,0.8-1.3,0.3-2c0,0,0,0,0,0c-1.3-2-2.1-4.2-2.4-6.6c-0.1-0.8-0.1-1.6,0.1-2.5c0.2-1.1,0.7-2,1.6-2.6
				c0.6-0.4,1.2-0.7,1.9-0.9c0.7-0.2,1.5-0.3,2.2-0.3c0.8,0.1,1.5-0.5,1.6-1.3c0.1-0.8-0.5-1.5-1.3-1.6l0,0c-1.1-0.2-2.1-0.2-3.2,0
				c-1.1,0.2-2.1,0.5-3.1,1.1c-1.5,0.8-2.7,2.1-3.2,3.6c-0.4,1-0.6,2-0.5,3.1c0.1,1.8,0.6,3.5,1.3,5.1
				C215.4,152.7,216.3,154.2,217.4,155.5L217.4,155.5z"/>
			<path id="Tracé_2757_00000157988612236370851190000010921452105882615963_" class="st1" d="M172.1,77.8c-0.4,1.4-0.9,2.7-1.7,4
				c-1.1-5.1-2-8.3-2-8.3c-11.9,7.5-13.6-0.5-20.4,1.6s-6.3,9.9-3.7,16.4c1.3,3.5-4,4.4-3.9,0.9c0-2.6-1-5.2-3.3-4.4
				c-3.1,1.1-0.1,5.5,0.4,9.5c0.4,3.5-2.7,5.9-2.7,5.9c-10.9-7.8-15.5-28.6,3.2-39.3c2.5-1.5,5.2-2.6,8-3.3c2.4-0.7,3.3-3.5,3.6-5
				c0.1-0.2,0.2-0.4,0.5-0.5c0.2-0.1,0.5-0.1,0.7,0c1.6,0.7,3,1.7,4.2,2.9c0.2,0.2,0.5,0.3,0.8,0.2c0.3-0.1,0.6-0.3,0.7-0.6
				c0.4-1.5,0.5-3.1,0.3-4.7c0-0.3,0.1-0.6,0.3-0.8c0.2-0.2,0.5-0.3,0.8-0.1C170.2,57.3,174.5,70.1,172.1,77.8L172.1,77.8z"/>
			<path id="Tracé_2758_00000149342399897687799820000009374568937613021355_" class="st3" d="M207.3,141.6c0.7-1,1.7-1.6,2.9-1.8
				l41.1-6.9c1.2-0.2,2.3,0.1,3.3,0.8l16.6,11.9l-75.8,12.7L207.3,141.6z"/>
			<path id="Tracé_2759_00000005957288596722715450000005199839397832070299_" class="st1" d="M266.8,142.3c-0.5,0.8-1.5,1-2.3,0.5
				c0,0-0.1,0-0.1-0.1l-10.7-7.6c-0.6-0.4-1.3-0.6-2-0.5l-41.1,6.9c-0.7,0.1-1.3,0.5-1.8,1.1l-7.3,10.2c-0.6,0.8-1.6,0.9-2.4,0.4
				c-0.7-0.5-0.9-1.6-0.4-2.4l7.3-10.2c0.9-1.4,2.4-2.3,4-2.5l41.1-6.9c1.6-0.3,3.3,0.1,4.6,1.1l10.7,7.6
				C267.1,140.5,267.3,141.5,266.8,142.3L266.8,142.3z"/>
			<path id="Tracé_2760_00000008126311450995075020000012623085217191667886_" class="st0" d="M100.4,110.4l-46.3,7.7l13.9-19.5
				c0.7-1,1.7-1.6,2.9-1.8l26.5-4.4L100.4,110.4z"/>
			
				<ellipse id="Ellipse_265_00000016034700888146509340000016138384920532355456_" transform="matrix(0.9864 -0.1646 0.1646 0.9864 -33.2935 46.9626)" class="st2" cx="266.7" cy="224.3" rx="15.3" ry="15.3"/>
			<path id="Tracé_2761_00000060032870214713224980000000551577129079670973_" class="st1" d="M326.5,225.4
				c0.2,1.2-0.6,2.3-1.8,2.6l-47.8,8c-1.2,0.2-2.4-0.6-2.6-1.8c-0.2-1.2,0.6-2.4,1.8-2.6c0,0,0.1,0,0.1,0l31.4-5.2l-0.1-0.1
				c-0.5-0.3-0.9-0.9-1-1.5l-2.3-13.5c-0.1-0.6,0.1-1.2,0.4-1.7c0.3-0.5,0.9-0.9,1.5-1l14.8-2.5c0.6-0.1,1.2,0.1,1.7,0.4
				c0.5,0.3,0.9,0.9,1,1.5L326.5,225.4L326.5,225.4z"/>
			<path id="Tracé_2762_00000019669807539446501810000003221617638869464751_" class="st3" d="M276.5,232.1
				c-5,0.8-9.7-2.6-10.6-7.6c-0.8-5,2.5-9.6,7.4-10.5l0.1,0l33.8-5.6c1.2-0.2,2.3,0.6,2.6,1.8l2.3,13.7c0.2,1.2-0.6,2.3-1.8,2.6
				L276.5,232.1z"/>
			<path id="Tracé_2763_00000175294127105055522820000017149420197719355060_" class="st1" d="M323.6,217.1
				c-0.5,0.7-0.6,1.7-0.1,2.5c0.5,0.8,1.4,1.2,2.3,1l13.5-2.3c0.6-0.1,1.1-0.5,1.5-1l4.8-6.7c0.6-0.7,0.6-1.7,0.1-2.5
				c-0.5-0.8-1.4-1.2-2.3-1l-13.5,2.3c-0.6,0.1-1.1,0.5-1.5,1C327.4,211.7,325.4,214.6,323.6,217.1z"/>
			<path id="Tracé_2764_00000003797893215092982820000017308652311481800837_" class="st2" d="M319.3,211c3.1-0.5,8.7-1.4,12.9-2
				c0.9-0.1,1.8,0.3,2.3,1c0.4,0.8,0.4,1.7-0.1,2.5l-4.8,6.7c-0.3,0.5-0.9,0.9-1.5,1l-7.1,1.2c-0.6,0.1-1.2-0.1-1.7-0.4
				c-0.5-0.3-0.9-0.9-1-1.5l-1-5.8c-0.1-0.6,0.1-1.2,0.4-1.7C318.2,211.5,318.7,211.1,319.3,211L319.3,211z"/>
			<path id="Tracé_2765_00000096037458390195237560000001104270530507484063_" class="st2" d="M289.3,211.3l6.1-1l-6.6,9.2
				c-0.7,1-2,1.3-3.1,0.6c-1-0.7-1.3-2-0.6-3.1c0,0,0.1-0.1,0.1-0.1L289.3,211.3L289.3,211.3z"/>
			<path id="Tracé_2766_00000105391079393823903420000001367486279898419357_" class="st2" d="M295.6,215.2c-0.7,1-0.6,2.4,0.4,3.1
				c1,0.7,2.4,0.6,3.1-0.4c0,0,0.1-0.1,0.1-0.1l6.6-9.2l-6.2,1L295.6,215.2z"/>
			<path id="Tracé_2767_00000127762036456485716340000008950382553461949572_" class="st0" d="M41.3,266.7
				c-4.7,0.8-9.4-0.4-13.1-3.3c-3.8-2.7-6.4-6.8-7.1-11.4l-5.7-34.4l0-0.1c-0.5-2.4-2.8-3.9-5.2-3.5c-4.7,0.8-9.2-2.4-10-7.1
				c-0.8-4.7,2.4-9.2,7.1-10l37.4-6.2c1.4-0.2,2.7,0.7,2.9,2.1s-0.7,2.7-2.1,2.9l-37.4,6.2c-2,0.3-3.3,2.2-3,4.2
				c0.3,2,2.2,3.3,4.2,3c5.2-0.9,10.2,2.6,11.1,7.9l0,0.2l5.7,34.3c1.1,6.8,7.5,11.4,14.2,10.3c3.3-0.5,6.2-2.3,8.1-5l13.3-18.6
				c0.8-1.2,2.4-1.4,3.6-0.6c1.2,0.8,1.4,2.4,0.6,3.6l0,0l-13.3,18.6C50,263.4,45.9,266,41.3,266.7L41.3,266.7z"/>
			<path id="Tracé_2768_00000108270476166951950700000010795056966061397404_" class="st1" d="M29.1,263.7
				c-9.5,1.6-18.6-4.8-20.2-14.3c-0.8-4.6,0.3-9.3,3-13.1l12.1-17c2-2.8,2.7-6.4,2.1-9.8l-3.6-21.5c-0.9-5.5,2.8-10.8,8.3-11.7
				c0,0,0,0,0.1,0l15.7-2.6c1.4-0.2,2.7,0.7,2.9,2.1s-0.7,2.7-2.1,2.9l-15.7,2.6c-2.7,0.5-4.6,3.1-4.2,5.8l3.6,21.5
				c0.9,4.7-0.1,9.7-3,13.6l-12.1,17c-4,5.6-2.8,13.3,2.8,17.3c5.6,4,13.3,2.8,17.3-2.8c0-0.1,0.1-0.1,0.1-0.2L49.6,235
				c0.8-1.2,2.4-1.4,3.6-0.6c1.2,0.8,1.4,2.4,0.6,3.6l0,0l-13.3,18.6C37.8,260.3,33.7,262.9,29.1,263.7L29.1,263.7z"/>
			<path id="Tracé_2769_00000075124778376769037930000008908143641934017194_" class="st0" d="M258.7,182
				c7.8,47-23.9,91.4-70.9,99.3s-91.4-23.9-99.3-70.9l0,0L258.7,182z"/>
			<path id="Tracé_2770_00000091717395135488096260000005130608348492331701_" class="st3" d="M129.4,273.5l11.3-1.9
				c1.5-0.3,2.5-1.7,2.2-3.1l-3.9-23.2l-13.9,2.3L129.4,273.5z"/>
			<path id="Tracé_2771_00000103957373588919464250000016033642374228922520_" class="st2" d="M120.1,248.8l-43.5-31l-17.2,24
				l43.5,31L120.1,248.8z"/>
			<path id="Tracé_2772_00000114051769904071279080000016442805336167397297_" class="st2" d="M93.9,113.4l-19.1,26.7l3.7,22.2
				l-32.8,5.5l-5.1-30.5c-1.6-9,4.5-17.6,13.5-19.1c0.1,0,0.1,0,0.2,0l39.2-6.6L93.9,113.4z"/>
			<path id="Tracé_2773_00000040575259404353579310000003653946343662602147_" class="st1" d="M37,205.7c-0.5,0.6-0.7,1.4-0.5,2.2
				l4.4,26.6c0.1,0.8,0.6,1.5,1.2,1.9l22.1,15.7c1.3,1,3.1,0.7,4.1-0.6c0,0,0.1-0.1,0.1-0.1l11.3-15.8c1.4-2,4.1-2.5,6.1-1.1
				s2.5,4.1,1.1,6.1c0,0,0,0.1-0.1,0.1l-11.5,16.1c-0.8,1.1-0.6,2.7,0.5,3.6s2.7,0.6,3.6-0.5c0,0,0-0.1,0.1-0.1l11.5-16.1
				c1.4-1.9,4.1-2.4,6.1-0.9c1.9,1.4,2.4,4.1,1,6l-11.5,16.1c-0.8,1.1-0.6,2.7,0.5,3.6s2.7,0.6,3.6-0.5c0,0,0-0.1,0.1-0.1l11.5-16.1
				c1.4-1.9,4.1-2.4,6.1-0.9c1.9,1.4,2.4,4.1,1,6L98,272.6c-1,1.3-0.7,3.1,0.6,4.1c0,0,0.1,0.1,0.1,0.1l1,0.7
				c0.6,0.5,1.5,0.7,2.2,0.5l28.1-4.7c1.6-0.3,2.8-1.8,2.5-3.5l-3.3-19.9c0-0.3,0-0.7,0-1l156.8-26.2c0.5-0.1,0.9-0.4,1.2-0.9
				c0.1-0.1,18.2-25.5,21.4-30.1c0.5-0.6,0.7-1.4,0.5-2.2l-4.4-26.6c-0.1-0.8-0.6-1.5-1.2-1.9l-23.4-16.7c-0.6-0.5-1.5-0.7-2.2-0.5
				l-170.6,28.5c-1.6,0.2-3.2-0.9-3.5-2.5l-5.4-32.5c-0.1-0.8,0.1-1.6,0.5-2.2l17.6-24.6c0.5-0.6,0.7-1.4,0.5-2.2l-3.8-23
				c-0.1-0.8,0.1-1.6,0.5-2.2l4.8-6.7c0.7-1,0.7-2.3,0.1-3.3c-0.6-1-1.8-1.5-3-1.3l-21,3.5c-0.8,0.1-1.5,0.6-1.9,1.2L84.4,88
				c-0.5,0.6-0.7,1.4-0.5,2.2l3.8,23c0.1,0.8-0.1,1.6-0.5,2.2l-17.6,24.6c-0.5,0.6-0.7,1.4-0.5,2.2l3,18c0.3,1.6-0.8,3.2-2.5,3.5
				l-30.4,5.1c-1.6,0.3-2.8,1.8-2.5,3.5l4.6,27.4L37,205.7L37,205.7z"/>
			<path id="Tracé_2774_00000113338690996604172570000016516991465254064783_" class="st2" d="M278.3,167.9c-0.4,0.1-0.9,0-1.3-0.3
				l-16.4-11.7c-0.8-0.5-1-1.6-0.4-2.4c0.5-0.8,1.6-1,2.4-0.4c0,0,0,0,0,0l15.8,11.3l18.9-3.2c0.9-0.2,1.8,0.5,2,1.4
				c0.2,0.9-0.5,1.8-1.4,2c0,0,0,0,0,0L278.3,167.9L278.3,167.9z"/>
			<path id="Tracé_2775_00000051372907354592129000000003974195423249386154_" class="st2" d="M201,199.8c-0.9,0.2-1.8-0.4-2-1.3
				c-0.1-0.9,0.5-1.8,1.4-2l13.4-2.2l11.3-15.8c0.3-0.4,0.7-0.6,1.1-0.7l22.9-3.8c0.4-0.1,0.9,0,1.3,0.3l15.8,11.3l11.4-1.9
				c0.9-0.2,1.8,0.5,2,1.4c0.2,0.9-0.5,1.8-1.4,2c0,0,0,0,0,0l-12.1,2c-0.4,0.1-0.9,0-1.3-0.3l-15.8-11.3l-21.5,3.6l-11.3,15.7
				c-0.3,0.4-0.7,0.6-1.1,0.7L201,199.8L201,199.8z"/>
			<path id="Tracé_2776_00000091721929993055762520000017175653870734637739_" class="st2" d="M234.2,179.9c-0.4,0-0.9-0.1-1.3-0.3
				l-21.6-15.4c-0.8-0.6-0.9-1.6-0.4-2.4c0.5-0.7,1.6-0.9,2.4-0.4l21.6,15.4c0.8,0.5,1,1.5,0.5,2.3c0,0,0,0.1-0.1,0.1
				C235,179.6,234.6,179.9,234.2,179.9L234.2,179.9z"/>
			<path id="Tracé_2777_00000176019101286164796920000002304171660077087367_" class="st2" d="M178.3,217.8c-0.4,0.1-0.9,0-1.3-0.3
				l-12.7-9c-0.8-0.6-0.9-1.6-0.4-2.4c0.5-0.7,1.6-0.9,2.4-0.4l11.3,8l6.1-8.6c0.5-0.8,1.6-1,2.4-0.4c0.8,0.5,1,1.6,0.4,2.4
				c0,0,0,0,0,0l-7.1,10C179.2,217.5,178.8,217.7,178.3,217.8L178.3,217.8z"/>
			<path id="Tracé_2778_00000045588542960984277700000016204467641491722393_" class="st2" d="M151.2,210.8l-33.7-24L91,191.2
				c-0.9,0.1-1.8-0.5-2-1.4l-5.9-35.4l-12,2c-0.9,0.2-1.8-0.5-2-1.4s0.5-1.8,1.4-2c0,0,0,0,0,0l13.6-2.3c0.9-0.1,1.8,0.5,2,1.4
				l5.9,35.4l25.5-4.3c0.4-0.1,0.9,0,1.3,0.3l33.7,24l12.6-2.1c0.9-0.2,1.8,0.5,2,1.4s-0.5,1.8-1.4,2c0,0,0,0,0,0l-13.1,2.2
				C152.1,211.1,151.6,211,151.2,210.8z"/>
			<path id="Tracé_2779_00000057113638161947231920000013295807361989989284_" class="st2" d="M44.6,190.7c-0.9,0.2-1.8-0.5-2-1.4
				s0.5-1.8,1.4-2c0,0,0,0,0,0l22.6-3.8l7.4-10.3c0.3-0.4,0.7-0.6,1.1-0.7l12.5-2.1c0.9-0.2,1.8,0.5,2,1.4s-0.5,1.8-1.4,2
				c0,0,0,0,0,0l-11.8,2L69,186.1c-0.3,0.4-0.7,0.6-1.1,0.7L44.6,190.7z"/>
			<path id="Tracé_2780_00000027578721376437699140000016574245235210145451_" class="st2" d="M145.5,234.5l-28.7-20.5
				c-0.8-0.5-1-1.5-0.5-2.3c0,0,0-0.1,0.1-0.1l13.2-18.5c0.5-0.8,1.6-1,2.4-0.4c0.8,0.5,1,1.6,0.4,2.4c0,0,0,0,0,0l-12.2,17.1
				l27.3,19.4c0.8,0.5,1,1.5,0.5,2.3c0,0,0,0.1-0.1,0.1c-0.3,0.4-0.7,0.6-1.1,0.7C146.3,234.8,145.9,234.7,145.5,234.5z"/>
			<path id="Tracé_2781_00000097466517090106302910000014758788573174066834_" class="st2" d="M96.8,244.9c-0.4,0-0.9-0.1-1.3-0.3
				c-0.8-0.5-1-1.5-0.5-2.3c0,0,0-0.1,0.1-0.1l11-15.3l-12.7-9l-10.6,1.8c-0.9,0.2-1.8-0.5-2-1.4s0.5-1.8,1.4-2c0,0,0,0,0,0
				l11.3-1.9c0.4-0.1,0.9,0,1.3,0.3l14.6,10.4c0.8,0.5,1,1.6,0.4,2.4c0,0,0,0,0,0l-12,16.7C97.6,244.6,97.2,244.8,96.8,244.9
				L96.8,244.9z"/>
			<path id="Tracé_2782_00000129884801933916103030000015824311060055160194_" class="st0" d="M63.7,238.4c-0.5,0.1-1-0.1-1.3-0.4
				l-13.1-9.4c-0.4-0.3-0.6-0.7-0.7-1.1l-3.2-19.1c-0.1-0.9,0.5-1.8,1.4-2l32.9-5.5c0.9-0.1,1.8,0.5,2,1.4l3.5,21
				c0.1,0.9-0.5,1.8-1.4,2l-11.4,1.9l-7.5,10.5C64.6,238,64.2,238.3,63.7,238.4L63.7,238.4z M81.4,222.3l-2.9-17.6L49,209.6
				l2.8,16.8l11.2,8l6.9-9.6c0.3-0.4,0.7-0.6,1.1-0.7L81.4,222.3L81.4,222.3z"/>
			
				<ellipse id="Ellipse_266_00000147222635368540820520000002529816741662652300_" transform="matrix(0.9864 -0.1646 0.1646 0.9864 -37.6969 29.5782)" class="st2" cx="159.6" cy="242.2" rx="15.3" ry="15.3"/>
			<path id="Tracé_2783_00000106853653264760063470000015664870869184611970_" class="st1" d="M219.3,243.2
				c0.2,1.2-0.6,2.3-1.8,2.6l-47.8,8c-1.2,0.2-2.4-0.6-2.6-1.8c-0.2-1.2,0.6-2.4,1.8-2.6c0,0,0.1,0,0.1,0l31.4-5.2l-0.1-0.1
				c-0.5-0.3-0.9-0.9-1-1.5L197,229c-0.1-0.6,0.1-1.2,0.4-1.7c0.3-0.5,0.9-0.9,1.5-1l14.8-2.5c0.6-0.1,1.2,0.1,1.7,0.4
				c0.5,0.3,0.9,0.9,1,1.5L219.3,243.2L219.3,243.2z"/>
			<path id="Tracé_2784_00000121270822599518548480000004257950980822762919_" class="st3" d="M203.1,244.4l-33.8,5.6
				c-5,0.8-9.7-2.6-10.6-7.6c-0.8-5,2.5-9.6,7.4-10.5l0.1,0l33.8-5.6c1.2-0.2,2.3,0.6,2.6,1.8l2.3,13.6c0.2,1.2-0.6,2.3-1.8,2.6
				L203.1,244.4z"/>
			<path id="Tracé_2785_00000062166319453810842310000006837924214069510322_" class="st1" d="M221.2,228c-0.9,1.4-3,4.3-4.8,6.7
				c-0.5,0.7-0.6,1.7-0.1,2.5c0.5,0.8,1.4,1.2,2.3,1l13.5-2.3c0.6-0.1,1.1-0.5,1.5-1l4.8-6.7c0.5-0.7,0.6-1.7,0.1-2.5
				c-0.5-0.8-1.4-1.2-2.3-1l-13.5,2.3C222.1,227.2,221.6,227.5,221.2,228z"/>
			<path id="Tracé_2786_00000032611750223001848260000017960784478232778159_" class="st2" d="M212.1,228.9c3.1-0.5,8.7-1.4,12.9-2
				c0.9-0.1,1.8,0.3,2.3,1c0.4,0.8,0.4,1.7-0.1,2.5l-4.8,6.7c-0.3,0.5-0.9,0.9-1.5,1l-7.1,1.2c-0.6,0.1-1.2-0.1-1.7-0.4
				c-0.5-0.3-0.9-0.9-1-1.5l-1-5.8c-0.1-0.6,0.1-1.2,0.4-1.7C211,229.4,211.5,229,212.1,228.9L212.1,228.9z"/>
			
				<ellipse id="Ellipse_267_00000123419691306790553040000006201762954768950459_" transform="matrix(0.9864 -0.1646 0.1646 0.9864 -37.3569 30.9205)" class="st0" cx="167.9" cy="240.8" rx="3.7" ry="3.7"/>
			<path id="Tracé_2787_00000134968915555219469240000010573437870096812181_" class="st2" d="M182.1,229.2l6.1-1l-6.6,9.2
				c-0.7,1-2,1.3-3.1,0.6c-1-0.7-1.3-2-0.6-3.1c0,0,0.1-0.1,0.1-0.1L182.1,229.2L182.1,229.2z"/>
			<path id="Tracé_2788_00000041258442866940382490000015701640120481659564_" class="st2" d="M192.7,227.5l6.1-1l-6.6,9.2
				c-0.7,1-2.1,1.1-3.1,0.4c-0.9-0.7-1.1-2-0.5-3L192.7,227.5L192.7,227.5z"/>
			<path id="Tracé_2789_00000127003599557103784550000017048421715944797607_" class="st3" d="M276,187.8l13.5,9.6l9.6-13.5
				l-13.5-9.6L276,187.8z"/>
			<path id="Tracé_2790_00000085252222861798970640000017061964027048403894_" class="st0" d="M289.8,199c-0.4,0.1-0.9,0-1.3-0.3
				l-13.5-9.6c-0.8-0.5-1-1.5-0.5-2.3c0,0,0-0.1,0.1-0.1l9.6-13.5c0.3-0.4,0.7-0.6,1.1-0.7c0.4-0.1,0.9,0,1.3,0.3l13.5,9.6
				c0.8,0.5,1,1.6,0.4,2.4c0,0,0,0,0,0l-9.6,13.5C290.6,198.7,290.2,198.9,289.8,199L289.8,199z M286,176.7l-7.6,10.7l10.7,7.6
				l7.6-10.7L286,176.7z"/>
			<path id="Tracé_2791_00000106860746862979224510000015352730915259373749_" class="st3" d="M180.4,203.7l13.5,9.6l9.6-13.5
				l-13.5-9.6L180.4,203.7z"/>
			<path id="Tracé_2792_00000181064721801756795070000001799328858414931131_" class="st0" d="M192.9,214.7l-13.5-9.6
				c-0.8-0.5-1-1.6-0.4-2.4c0,0,0,0,0,0l9.6-13.5c0.5-0.8,1.5-1,2.3-0.5c0,0,0.1,0,0.1,0.1l13.5,9.6c0.8,0.5,1,1.6,0.4,2.4
				c0,0,0,0,0,0l-9.6,13.5c-0.3,0.4-0.7,0.6-1.1,0.7C193.7,215.1,193.2,215,192.9,214.7z M190.4,192.7l-7.6,10.7l10.7,7.6l7.6-10.7
				L190.4,192.7z"/>
			
				<ellipse id="Ellipse_268_00000074418740732317923750000009782421154712860578_" transform="matrix(0.9864 -0.1646 0.1646 0.9864 -29.8169 48.1986)" class="st0" cx="275.9" cy="204" rx="4.4" ry="4.4"/>
			
				<ellipse id="Ellipse_269_00000020369057115155977080000006494798509990076548_" transform="matrix(0.9864 -0.1646 0.1646 0.9864 -32.6023 37.202)" class="st0" cx="208.1" cy="215.3" rx="4.4" ry="4.4"/>
			<path id="Tracé_2793_00000031889741659981865890000003539192911555616177_" class="st1" d="M72.9,213.7c0.3,1.7-0.8,3.2-2.5,3.5
				c-1.7,0.3-3.2-0.8-3.5-2.5l0,0L72.9,213.7z"/>
			<path id="Tracé_2794_00000116218622436399245400000017423995261035512224_" class="st0" d="M75.4,213.3c0.4,3-1.7,5.9-4.7,6.3
				c-2,0.3-4.1-0.5-5.3-2.2l-4.2,0.7c-1.3,0.2-2.6-0.7-2.8-2c-0.2-1.3,0.7-2.6,2-2.8l0,0l12.1-2C73.9,211.1,75.2,211.9,75.4,213.3z"
				/>
			<path id="Tracé_2795_00000153695028238163847790000014898589216917654959_" class="st1" d="M98.3,77c0.2,1.3,1.5,2.2,2.8,2
				l37.3-6.2c1.3-0.2,2.2-1.5,2-2.8s-1.5-2.2-2.8-2l-37.3,6.2C99,74.5,98.1,75.7,98.3,77z"/>
			<path id="Tracé_2796_00000075151650921425008000000017442515089714070421_" class="st2" d="M79,130.1c-0.1-0.9,0.5-1.8,1.4-2
				l8.1-1.3l11-15.3L96.7,95c-0.1-0.9,0.5-1.8,1.4-2l12.5-2.1c0.9-0.2,1.8,0.5,2,1.4s-0.5,1.8-1.4,2c0,0,0,0,0,0l-10.8,1.8l2.6,15.5
				c0.1,0.4,0,0.9-0.3,1.3l-11.8,16.5c-0.3,0.4-0.7,0.6-1.1,0.7l-8.7,1.4C80.2,131.7,79.3,131.1,79,130.1z"/>
			
				<ellipse id="Ellipse_270_00000061447277047084844990000013841139625456416678_" transform="matrix(0.9864 -0.1646 0.1646 0.9864 -27.8984 12.3999)" class="st0" cx="60.9" cy="174.5" rx="3.7" ry="3.7"/>
			
				<ellipse id="Ellipse_271_00000064350798572832179110000006301562943776919436_" transform="matrix(0.9864 -0.1646 0.1646 0.9864 -12.1438 17.3736)" class="st0" cx="98.7" cy="82" rx="3.7" ry="3.7"/>
			
				<ellipse id="Ellipse_272_00000124849312782528627410000005318071662367602848_" transform="matrix(0.9864 -0.1646 0.1646 0.9864 -41.8199 23.5498)" class="st2" cx="121.2" cy="264.1" rx="3.7" ry="3.7"/>
			
				<ellipse id="Ellipse_273_00000134226285690104322110000002067612578260517250_" transform="matrix(0.9864 -0.1646 0.1646 0.9864 -28.4104 10.3784)" class="st2" cx="48.4" cy="176.6" rx="3.7" ry="3.7"/>
			<path id="Tracé_2797_00000020366759044835956040000011744040518878379153_" class="st2" d="M149.7,186.4c-0.4,0.1-0.9,0-1.3-0.3
				l-12.8-9c-0.8-0.5-1-1.6-0.4-2.4s1.6-1,2.4-0.4c0,0,0,0,0,0l12.3,8.8l20-3.3l-9.6-6.9c-0.8-0.5-1-1.6-0.4-2.4s1.6-1,2.4-0.4
				c0,0,0,0,0,0l12.9,9.2c0.6,0.4,0.9,1.1,0.7,1.7c-0.2,0.7-0.8,1.1-1.4,1.3L149.7,186.4L149.7,186.4z"/>
			<path id="Tracé_2798_00000156555801890175150980000006736647360621916861_" class="st3" d="M132,176.2c-0.2-0.9,0.5-1.8,1.4-2
				c0,0,0,0,0,0l2.9-0.5c0.9-0.2,1.8,0.5,2,1.4s-0.5,1.8-1.4,2c0,0,0,0,0,0l-2.9,0.5C133,177.8,132.2,177.2,132,176.2
				C132,176.3,132,176.2,132,176.2z M141.6,174.6c-0.2-0.9,0.5-1.8,1.4-2c0,0,0,0,0,0l3.4-0.6c0.9-0.2,1.8,0.5,2,1.4s-0.5,1.8-1.4,2
				c0,0,0,0,0,0l-3.4,0.6C142.6,176.2,141.7,175.6,141.6,174.6L141.6,174.6z M151.6,173c-0.2-0.9,0.5-1.8,1.4-2c0,0,0,0,0,0l3.4-0.6
				c0.9-0.2,1.8,0.5,2,1.4s-0.5,1.8-1.4,2c0,0,0,0,0,0l-3.4,0.6C152.7,174.5,151.8,173.9,151.6,173L151.6,173z M161.7,171.3
				c-0.2-0.9,0.5-1.8,1.4-2c0,0,0,0,0,0l3.4-0.6c0.9-0.2,1.8,0.5,2,1.4s-0.5,1.8-1.4,2c0,0,0,0,0,0l-3.4,0.6
				C162.7,172.8,161.9,172.2,161.7,171.3L161.7,171.3z M171.7,169.6c-0.2-0.9,0.5-1.8,1.4-2c0,0,0,0,0,0l3.4-0.6
				c0.9-0.2,1.8,0.5,2,1.4s-0.5,1.8-1.4,2c0,0,0,0,0,0l-3.4,0.6C172.8,171.2,171.9,170.6,171.7,169.6
				C171.7,169.6,171.7,169.6,171.7,169.6L171.7,169.6z M181.8,167.9c-0.2-0.9,0.5-1.8,1.4-2c0,0,0,0,0,0l3.4-0.6
				c0.9-0.2,1.8,0.5,2,1.4s-0.5,1.8-1.4,2c0,0,0,0,0,0l-3.4,0.6C182.8,169.5,182,168.9,181.8,167.9
				C181.8,167.9,181.8,167.9,181.8,167.9L181.8,167.9z M191.8,166.3c-0.2-0.9,0.5-1.8,1.4-2c0,0,0,0,0,0l3.4-0.6
				c0.9-0.2,1.8,0.5,2,1.4c0.2,0.9-0.5,1.8-1.4,2l-3.4,0.6C192.8,167.8,192,167.2,191.8,166.3L191.8,166.3z M201.8,164.6
				c-0.2-0.9,0.5-1.8,1.4-2c0,0,0,0,0,0l3.4-0.6c0.9-0.2,1.8,0.5,2,1.4c0.2,0.9-0.5,1.8-1.4,2c0,0,0,0,0,0l-3.4,0.6
				C202.9,166.1,202,165.5,201.8,164.6L201.8,164.6z M211.9,162.9c-0.2-0.9,0.5-1.8,1.4-2c0,0,0,0,0,0l3.4-0.6
				c0.9-0.2,1.8,0.5,2,1.4c0.2,0.9-0.5,1.8-1.4,2c0,0,0,0,0,0l-3.4,0.6C212.9,164.4,212.1,163.8,211.9,162.9L211.9,162.9z
				 M221.9,161.2c-0.2-0.9,0.5-1.8,1.4-2c0,0,0,0,0,0l3.4-0.6c0.9-0.2,1.8,0.5,2,1.4c0.2,0.9-0.5,1.8-1.4,2c0,0,0,0,0,0l-3.4,0.6
				C223,162.8,222.1,162.1,221.9,161.2L221.9,161.2z M232,159.5c-0.2-0.9,0.5-1.8,1.4-2c0,0,0,0,0,0l3.4-0.6c0.9-0.2,1.8,0.5,2,1.4
				c0.2,0.9-0.5,1.8-1.4,2c0,0,0,0,0,0l-3.4,0.6C233,161.1,232.2,160.5,232,159.5L232,159.5z M242.1,157.9c-0.2-0.9,0.5-1.8,1.4-2
				c0,0,0,0,0,0l3.4-0.6c0.9-0.2,1.8,0.5,2,1.4c0.2,0.9-0.5,1.8-1.4,2c0,0,0,0,0,0l-3.4,0.6C243.1,159.4,242.2,158.8,242.1,157.9
				C242.1,157.9,242.1,157.9,242.1,157.9L242.1,157.9z M254.1,157.6c-0.9,0.1-1.8-0.5-2.1-1.4c-0.2-0.9,0.5-1.8,1.4-2c0,0,0,0,0,0
				l3.4-0.6c0.9-0.2,1.8,0.5,2,1.4c0.2,0.9-0.5,1.8-1.4,2c0,0,0,0,0,0L254.1,157.6L254.1,157.6z M262.1,154.5
				c-0.2-0.9,0.5-1.8,1.4-2c0,0,0,0,0,0l3.4-0.6c0.9-0.2,1.8,0.5,2,1.4c0.2,0.9-0.5,1.8-1.4,2c0,0,0,0,0,0l-3.4,0.6
				C263.1,156,262.3,155.4,262.1,154.5L262.1,154.5z M272.1,152.8c-0.2-0.9,0.5-1.8,1.4-2c0,0,0,0,0,0l3.4-0.6
				c0.9-0.2,1.8,0.5,2,1.4c0.2,0.9-0.5,1.8-1.4,2c0,0,0,0,0,0l-3.4,0.6C273.2,154.4,272.3,153.8,272.1,152.8L272.1,152.8z"/>
			<path id="Tracé_2799_00000070839387246039041130000001671395648237275041_" class="st2" d="M250.6,217.5l-5-30.2
				c-0.1-0.9,0.5-1.8,1.4-2c0.9-0.1,1.8,0.5,2,1.4l5,30.2c0.1,0.9-0.5,1.8-1.4,2C251.6,219,250.8,218.4,250.6,217.5z"/>
			<path id="Tracé_2800_00000018943720208998178050000001390889906051074713_" class="st2" d="M236.5,219.8l-5-30.2
				c-0.1-0.9,0.5-1.8,1.4-2c0.9-0.1,1.8,0.5,2,1.4l5,30.2c0.1,0.9-0.5,1.8-1.4,2C237.6,221.4,236.7,220.8,236.5,219.8z"/>
			<path id="Tracé_2801_00000126321522294216750870000007621576080103315866_" class="st0" d="M40.4,267c-4.3,0.4-8.6-0.7-12.2-3.2
				c-1.9-1.4-3.5-3.1-4.7-5.1c-0.7-1.2-0.4-2.8,0.8-3.5c1.2-0.7,2.8-0.4,3.5,0.8l0,0c0.9,1.4,2,2.7,3.4,3.6c2.5,1.8,5.6,2.6,8.7,2.2
				c1.3-0.2,2.6,0.7,2.8,2c0,0.1,0,0.1,0,0.2c0.2,1.3-0.8,2.6-2.1,2.8C40.5,266.9,40.4,266.9,40.4,267z"/>
			<path id="Tracé_2802_00000097499411108688630720000016914280783956708751_" class="st1" d="M53.9,118.2c-0.1-0.9,0.5-1.8,1.4-2
				l31.8-5.3c0.9-0.2,1.8,0.5,2,1.4s-0.5,1.8-1.4,2c0,0,0,0,0,0l-31.8,5.3C55,119.7,54.1,119.1,53.9,118.2z"/>
			<path id="Tracé_2803_00000018944093053250058680000000952373003328170430_" class="st1" d="M40.3,145.8c-0.1-0.9,0.5-1.8,1.4-2
				l12.7-2.1c0.9-0.2,1.8,0.5,2,1.4s-0.5,1.8-1.4,2c0,0,0,0,0,0l-12.7,2.1C41.4,147.4,40.5,146.7,40.3,145.8z"/>
			<path id="Tracé_2804_00000158725946948688585910000018397809722521511829_" class="st1" d="M41.7,154.1c-0.1-0.9,0.5-1.8,1.4-2
				l12.7-2.1c0.9-0.2,1.8,0.5,2,1.4s-0.5,1.8-1.4,2c0,0,0,0,0,0l-12.7,2.1C42.7,155.6,41.9,155,41.7,154.1z"/>
			<path id="Tracé_2805_00000029033520435691321450000008479077524682973322_" class="st1" d="M43,162.2c-0.1-0.9,0.5-1.8,1.4-2
				l12.7-2.1c0.9-0.2,1.8,0.5,2,1.4s-0.5,1.8-1.4,2c0,0,0,0,0,0L45,163.6C44.1,163.8,43.2,163.2,43,162.2z"/>
			
				<ellipse id="Ellipse_274_00000168081621138787670430000012538942971022731669_" transform="matrix(0.9864 -0.1646 0.1646 0.9864 -20.2174 12.4508)" class="st1" cx="65" cy="128.2" rx="2.6" ry="2.6"/>
			<path id="Tracé_2806_00000091737903631826862350000012439848744968434352_" class="st1" d="M225.4,145.5c1.4-0.2,2.7,0.7,2.9,2
				c0,0,0,0,0,0l0.7,4.5l-5,0.8l-0.7-4.5C223,147.1,223.9,145.8,225.4,145.5C225.3,145.5,225.3,145.5,225.4,145.5z"/>
			<path id="Tracé_2807_00000168827387785727290640000014338810929156786102_" class="st1" d="M214.3,147.4c1.4-0.2,2.7,0.7,2.9,2
				c0,0,0,0,0,0l0.7,4.5l-5,0.8l-0.7-4.5C212,148.9,212.9,147.6,214.3,147.4C214.3,147.4,214.3,147.4,214.3,147.4z"/>
			<path id="Tracé_2808_00000173858627302098028380000000548018216334000300_" class="st3" d="M155.3,82.7c0.2,0,0.5,0,0.7,0.1
				c0.2,0.1,0.3,0.3,0.4,0.5l1,5.9c0,0.2,0,0.5-0.2,0.6l-2.9,3.8c-0.1,0.2-0.4,0.3-0.6,0.4l-5,0.8c-0.2,0-0.5,0-0.7-0.1l-4.4-2.9
				c-0.2-0.1-0.4-0.2-0.7-0.1l-16.7,2.8c-0.2,0-0.5,0-0.7-0.1c-0.2-0.1-0.3-0.3-0.4-0.5l-0.9-5.1c0-0.2,0-0.5,0.2-0.6
				c0.1-0.2,0.4-0.3,0.6-0.4C129.6,86.9,150.6,83.4,155.3,82.7z"/>
			<path id="Tracé_2809_00000062885823041368873620000013666587499396336004_" class="st0" d="M153.8,85.3c0.3-0.1,0.7,0.1,0.7,0.5
				c0,0,0,0,0,0l0.4,2.5c0,0.2,0,0.3-0.1,0.5l-1.9,2.5c-0.2,0.1-0.2,0.2-0.4,0.2l-3.7,0.6c-0.2,0-0.3,0-0.5-0.1l-2.7-1.8
				c-0.1-0.2-0.2-0.2-0.3-0.4l-0.4-2.5c0-0.2-0.1-0.3,0.1-0.5s0.2-0.2,0.4-0.2C147.2,86.3,152.1,85.5,153.8,85.3z"/>
			<path id="Tracé_2810_00000062902019485375525380000016681818047756425655_" class="st2" d="M146.7,293.3c0.6-0.1,1-0.7,0.9-1.3
				c0-0.1-0.1-0.2-0.1-0.3c-0.3-0.6-1-1-1.7-0.8c-4.3,1.2-8.5,2.9-12.5,4.9c-1.3,0.7-2.6,1.6-3.6,2.7c-0.6,0.7-0.9,1.7-0.8,2.7
				c0.2,1.2,1.4,2.4,3.7,3.2c3,0.9,8.1,1.5,14.7,1.4c10.8-0.1,25.5-1.5,41.8-4.2c16.3-2.8,30.8-6.3,40.9-9.7
				c6.3-2.2,11-4.2,13.5-6.1c2-1.5,2.7-3.1,2.5-4.2c-0.2-0.8-0.7-1.6-1.4-2.1c-1.1-0.7-2.3-1.2-3.6-1.4c-3.7-0.7-7.5-0.9-11.3-0.8
				c-0.7,0-1.3,0.5-1.3,1.3c0,0,0,0,0,0.1c0,0.7,0.6,1.3,1.3,1.3c3.1,0,6.2,0.2,9.2,0.7c1.1,0.2,2.3,0.5,3.3,0.9
				c0.3,0.2,0.6,0.3,0.8,0.5c0.1,0.1,0.2,0.1,0.2,0.1s-0.1,0.1-0.1,0.2c0,0.2-0.1,0.3-0.3,0.4c-0.6,0.6-1.2,1-1.9,1.4
				c-3.4,2.1-9.5,4.3-17.4,6.6c-11.4,3.2-23.1,5.7-34.8,7.5c-11.7,2.1-23.5,3.5-35.3,4.2c-8.3,0.5-14.8,0.3-18.6-0.5
				c-0.8-0.1-1.6-0.4-2.3-0.7l-0.4-0.3c0,0-0.1,0-0.1-0.1c0,0,0,0,0,0c0-0.1,0.1-0.1,0.1-0.2c0.1-0.2,0.2-0.3,0.4-0.5
				c1.2-1,2.6-1.9,4.1-2.5C139.7,295.8,143.2,294.4,146.7,293.3L146.7,293.3z"/>
			<path id="Tracé_2811_00000098916929895201682810000005555824533784587433_" class="st2" d="M150.8,311.3l0-0.2l0,0
				c0.1,0.1,0.2,0.1,0.2,0.2c0.5,0.2,1,0.4,1.6,0.5c4.3,0.5,8.7,0.6,13.1,0.2c8.3-0.5,16.6-1.6,24.8-3c8.3-1.3,16.4-3,24.5-5.2
				c5.6-1.6,9.9-3.1,12.3-4.5c0.5-0.3,0.9-0.6,1.3-1l0.1-0.2c-0.1-0.7,0.4-1.3,1.1-1.4c0.7-0.1,1.4,0.3,1.6,1.1c0,0,0,0,0,0
				c0.2,0.9-0.3,2.2-1.9,3.3c-3,1.9-6.2,3.4-9.5,4.4c-5.6,1.9-11.4,3.5-17.2,4.7c-3.6,0.9-7.6,1.6-11.6,2.3c-4,0.6-8,1.2-11.7,1.6
				c-5.9,0.7-11.9,1.1-17.8,1.1c-4.8-0.1-8.3-0.4-10.4-1.1c-1.8-0.6-2.7-1.6-2.8-2.5c-0.1-0.7,0.4-1.4,1.1-1.5c0,0,0,0,0,0
				c0.7-0.1,1.3,0.3,1.5,0.9L150.8,311.3z"/>
			<path id="Tracé_2812_00000177462874034767479430000018126137034200853916_" class="st3" d="M199.2,120.8
				c-0.4,1.2-0.2,2.5,0.6,3.4c0.8,0.9,2,1.4,3.3,1.2l70.4-11.7c1.2-0.2,2.2-1,2.7-2.2c2.6-6.5,11.4-28.5,15.5-39
				c0.4-1.2,0.2-2.5-0.6-3.4c-0.8-0.9-2-1.4-3.3-1.2l-70.4,11.7c-1.2,0.2-2.2,1-2.7,2.2C212.1,88.3,203.3,110.3,199.2,120.8z"/>
			<path id="Tracé_2813_00000039819440132287214070000006348278499589281947_" class="st2" d="M198.6,125.1
				c-1.1-1.3-1.5-3.2-0.8-4.9l15.5-39c0.7-1.6,2.1-2.7,3.8-3l70.4-11.7c1.8-0.3,3.5,0.3,4.7,1.7c1.1,1.3,1.5,3.2,0.8,4.9l-15.5,39
				c-0.7,1.6-2.1,2.7-3.8,3l-70.4,11.7C201.5,127.1,199.7,126.5,198.6,125.1z M217.6,81c-0.7,0.1-1.3,0.6-1.5,1.3l-15.5,39
				c-0.2,0.7-0.1,1.4,0.3,2c0.5,0.5,1.2,0.8,2,0.7l70.4-11.7c0.7-0.1,1.3-0.6,1.5-1.3l15.5-39c0.2-0.7,0.1-1.4-0.3-2
				c-0.5-0.5-1.2-0.8-2-0.7L217.6,81z"/>
			<path id="Tracé_2814_00000024000447309586352530000016746969917504261780_" class="st2" d="M220,87c-1.9,4.9-7.1,18.1-10.2,25.8
				c-0.4,1.2-0.2,2.5,0.6,3.4c0.8,0.9,2,1.4,3.3,1.2l54.4-9.1c1.2-0.2,2.2-1,2.7-2.2c1.9-4.9,7.1-18.1,10.2-25.8
				c0.4-1.2,0.2-2.5-0.6-3.4c-0.8-0.9-2-1.4-3.3-1.2l-54.4,9.1C221.5,85.1,220.5,85.9,220,87L220,87z"/>
			<path id="Tracé_2815_00000051380954459902987960000015769261797727557046_" class="st3" d="M227.8,94.4
				c-0.2-1.2,0.6-2.2,1.7-2.4c0,0,0,0,0,0l6.7-1.1c1.2-0.2,2.2,0.6,2.4,1.7s-0.6,2.2-1.7,2.4l-6.7,1.1
				C229.2,96.3,228.1,95.6,227.8,94.4z"/>
			<path id="Tracé_2816_00000030480047056114992260000005012176944425505198_" class="st3" d="M245.6,91.5
				c-0.2-1.2,0.6-2.2,1.7-2.4c0,0,0,0,0,0l18.5-3.1c1.2-0.2,2.2,0.6,2.4,1.7s-0.6,2.2-1.7,2.4l-18.5,3.1
				C246.9,93.4,245.8,92.6,245.6,91.5z"/>
			<path id="Tracé_2817_00000158749261115713932350000004510305443826731933_" class="st3" d="M223.2,106.3
				c-0.2-1.2,0.6-2.2,1.7-2.4c0,0,0,0,0,0l28.3-4.7c1.2-0.2,2.2,0.6,2.4,1.7s-0.6,2.2-1.7,2.4l0,0l-28.3,4.7
				C224.6,108.2,223.5,107.4,223.2,106.3z"/>
			<path id="Tracé_2818_00000024701229004991973480000011635047793733911964_" class="st1" d="M260.3,77.8c-0.5,1.4-0.2,3,0.7,4.2
				c0.9,1.2,2.4,1.7,3.9,1.5l32.9-5.5c1.5-0.3,2.7-1.3,3.2-2.7c1.6-4.1,4.9-13,7.3-19.3c0.5-1.4,0.2-3-0.7-4.2
				c-0.9-1.2-2.4-1.7-3.9-1.5l-32.9,5.5c-1.5,0.3-2.7,1.3-3.2,2.7C266,62.6,262.7,71.6,260.3,77.8z"/>
			<path id="Tracé_2819_00000017510053985104010580000015491808643560881284_" class="st0" d="M290.8,65.9
				c-1.5,4.1-5.6,7.8-9.2,8.4c-3.5,0.6-5.4-2.2-3.9-6.3s5.6-7.8,9.2-8.4S292.3,61.8,290.8,65.9z"/>
			<path id="Tracé_2820_00000065777386940769588180000015195887201904432030_" class="st4" d="M253.7,2.6c-4.2-4.7-11.3-5.1-16-1
				c-4.7,4-5.2,11.1-1.1,15.8c0,0,0.1,0.1,0.1,0.1c4.2,4.7,11.3,5.1,16,1c4.7-4,5.2-11.1,1.1-15.8C253.8,2.7,253.7,2.7,253.7,2.6z"
				/>
			<path id="Tracé_2821_00000018222163702122562880000014927381537853088949_" class="st1" d="M233.8,9.4c-0.2,2.9,0.8,5.8,2.8,8
				c1.9,2.3,4.7,3.6,7.7,3.8c1-0.3,1.9-0.9,2.7-1.6l0.1-0.1c3.5-3.1,3.8-8.4,0.8-11.9c0,0,0,0-0.1-0.1c-3.2-3.5-8.5-3.8-12.1-0.7
				C234.9,7.7,234.3,8.5,233.8,9.4L233.8,9.4z"/>
			<path id="Tracé_2822_00000050648641215842372090000016507374042890368407_" class="st1" d="M254.3,8.8L254.3,8.8
				c-0.5-0.6-1.4-0.6-2-0.1c-0.6,0.5-0.7,1.4-0.1,2c0,0,0,0,0,0c0.5,0.6,1.4,0.6,2,0.1C254.7,10.3,254.8,9.4,254.3,8.8
				C254.3,8.8,254.3,8.8,254.3,8.8z"/>
			<path id="Tracé_2823_00000129911415900628341780000004185103466372538792_" class="st2" d="M235.2,13.7c0.5,1.3,1.2,2.4,2.1,3.5
				c0.9,1.1,2,1.9,3.3,2.6c0.4-0.1,0.7-0.4,1-0.6c1.7-1.5,1.9-4.1,0.4-5.9c-1.5-1.8-4.2-2-6-0.4C235.6,13.1,235.4,13.4,235.2,13.7
				L235.2,13.7z"/>
			<path id="Tracé_2824_00000050652916474766622320000018071123113810469309_" class="st1" d="M253.5,2.8
				C253.5,2.8,253.5,2.8,253.5,2.8c0.5,0.5,0.4,1.3-0.1,1.7c0,0,0,0,0,0l-7.4,6.5c-0.5,0.4-1.2,0.3-1.6-0.1c-0.5-0.5-0.5-1.2,0-1.7
				c0,0,0,0,0,0l7.4-6.5c0.2-0.2,0.5-0.3,0.9-0.3C253,2.4,253.3,2.5,253.5,2.8z"/>
			<path id="Tracé_2825_00000033343472417928676400000017854772733742579103_" class="st2" d="M229.7,14.1c0.6-0.1,1.1-0.6,1.1-1.2
				c0,0,0,0,0-0.1c0-0.6-0.5-1-1.1-1c0,0,0,0,0,0l-2.7-0.2c-0.8,0-1.8,0-2.7,0c-0.6,0-1.1,0.1-1.6,0.1c-2,0.2-3.7,0.5-3.7,0.5
				c-0.6,0-1.1,0.5-1,1.1c0,0.6,0.5,1.1,1.1,1c0,0,1.7,0.2,3.8,0.2c0.5,0,1.1,0.1,1.6,0c0.9,0,1.8-0.1,2.7-0.2
				C228.6,14.3,229.7,14.1,229.7,14.1L229.7,14.1z"/>
			<path id="Tracé_2826_00000134219727232722999420000007699406562857044406_" class="st2" d="M242.1,24.2c0.1-0.6-0.2-1.1-0.7-1.3
				c0,0-0.1,0-0.2,0c-0.6-0.1-1.2,0.2-1.4,0.8c0,0-0.4,1-0.9,2.5c-0.3,0.7-0.5,1.6-0.8,2.5c-0.1,0.5-0.2,1.1-0.3,1.6
				c-0.3,2.1-0.6,3.7-0.6,3.7c0,0,0,0,0,0.1c-0.1,0.6,0.2,1.2,0.8,1.3c0,0,0,0,0,0c0.6,0.1,1.2-0.2,1.4-0.8c0,0,0.7-1.6,1.3-3.5
				c0.2-0.5,0.3-1,0.5-1.6c0.2-0.9,0.4-1.8,0.5-2.6C242,25.4,242.1,24.3,242.1,24.2L242.1,24.2z"/>
			<path id="Tracé_2827_00000114054533612494021700000016341810791791661231_" class="st2" d="M229.5,9.3c0.6,0.1,1.1-0.3,1.2-0.8
				l0,0c0.1-0.6-0.3-1.1-0.9-1.2c0,0,0,0,0,0c-0.3-0.2-0.5-0.3-0.8-0.4c-0.3-0.1-0.5-0.2-0.8-0.3l-0.5,0c-0.4,0-0.8,0.1-1.2,0.1
				c-0.6-0.1-1.1,0.3-1.2,0.9c-0.1,0.6,0.3,1.1,0.9,1.2c0,0,0,0,0,0c0.4,0.2,0.8,0.3,1.2,0.5c0.1,0.1,0.3,0.1,0.5,0.2
				c0.3,0,0.6,0,0.8,0C228.9,9.4,229.2,9.4,229.5,9.3L229.5,9.3z"/>
			<path id="Tracé_2828_00000060029357557897433230000011640215154381941391_" class="st2" d="M246.9,25.2c0-0.6-0.4-1.1-1-1.2h0
				c-0.6,0-1.1,0.4-1.2,1c0,0,0,0,0,0c0,0-0.2,0.3-0.3,0.8c-0.1,0.3-0.2,0.5-0.2,0.8c0,0.1,0,0.3,0,0.5c0.1,0.4,0.1,0.8,0.3,1.2v0
				c0,0.6,0.4,1.1,1.1,1.2c0.6,0,1.1-0.4,1.2-1.1c0.2-0.4,0.3-0.8,0.4-1.2c0.1-0.1,0.1-0.3,0.1-0.5c0-0.3,0-0.6-0.1-0.8
				C247,25.5,246.9,25.2,246.9,25.2L246.9,25.2z"/>
			<path id="Tracé_2829_00000088102757539082775310000005726448815759073961_" class="st2" d="M233.8,21.4c0.4-0.4,0.4-1.1,0-1.6
				c-0.4-0.4-1-0.4-1.5-0.1c0,0-1.2,0.8-2.7,2c-0.8,0.6-1.7,1.3-2.6,2.1c-0.5,0.4-1,0.9-1.4,1.4c-1.8,1.7-3.2,3.3-3.2,3.3
				c-0.4,0.4-0.4,1.1,0,1.5c0.4,0.4,1,0.5,1.5,0.2c0,0,1.7-1.2,3.7-2.8c0.5-0.4,1.1-0.8,1.5-1.3c0.9-0.8,1.7-1.6,2.4-2.3
				C232.9,22.4,233.8,21.4,233.8,21.4L233.8,21.4z"/>
			<path id="Tracé_2830_00000016050225228684233670000007891604970787269780_" class="st2" d="M49.7,84.8c0.4-0.4,0.4-1.1,0-1.5
				c0,0,0,0,0,0c0,0-3.3-3.2-7.7-7.4c-2.4-2.3-5-4.8-7.8-7.4c-1.6-1.5-3.3-2.9-4.8-4.3c-6.1-5.5-11.2-10-11.2-10
				c-0.4-0.4-1.1-0.4-1.5,0c-0.4,0.4-0.4,1.1,0,1.5c0,0,0,0,0,0c0,0,4.9,4.7,10.8,10.4c1.5,1.5,3.1,3,4.7,4.4c2.8,2.5,5.5,5,8,7.2
				c4.5,4.1,8,7.1,8,7.1C48.7,85.3,49.3,85.2,49.7,84.8z"/>
			<path id="Tracé_2831_00000181792704088150587360000017537702094797735045_" class="st2" d="M38.1,91.5c0.6,0,1.2-0.4,1.3-1
				c0.1-0.6-0.4-1.1-1-1.2c0,0-1.7-0.4-4.1-0.8c-1.2-0.2-2.7-0.5-4.1-0.7c-0.9-0.1-1.7-0.2-2.5-0.2c-3.2-0.3-5.8-0.4-5.8-0.4
				c-0.6-0.1-1.1,0.4-1.2,1c-0.1,0.6,0.4,1.1,1,1.2c0,0,2.6,0.6,5.7,1c0.8,0.2,1.6,0.3,2.4,0.4c1.4,0.2,2.9,0.3,4.1,0.4
				C36.4,91.4,38.1,91.5,38.1,91.5L38.1,91.5z"/>
			<path id="Tracé_2832_00000070094699168916850700000004530845423013616524_" class="st2" d="M59.8,74.1c0.2,0.6,0.8,0.9,1.4,0.7
				c0.5-0.2,0.8-0.7,0.7-1.3c0,0,0-0.1,0-0.1c0,0-0.4-1.5-1.1-3.5c-0.4-1.1-0.7-2.2-1.2-3.4c-0.2-0.7-0.6-1.4-0.8-2
				c-1.1-2.5-2.1-4.6-2.1-4.6c-0.2-0.5-0.8-0.9-1.3-0.7c0,0-0.1,0-0.1,0c-0.5,0.2-0.8,0.7-0.7,1.3c0,0,0,0.1,0,0.1
				c0,0,0.6,2.2,1.5,4.8c0.2,0.6,0.4,1.3,0.7,2c0.5,1.2,1,2.3,1.4,3.3C59.1,72.7,59.8,74.1,59.8,74.1L59.8,74.1z"/>
			<path id="Tracé_2833_00000096041874695108317500000010030884795261366169_" class="st2" d="M70.2,73.2c-0.1,0.6,0.3,1.2,0.9,1.3
				c0.6,0.1,1.2-0.3,1.3-0.9c0,0,0.6-3,1.3-7.1c0.4-2.1,0.8-4.6,1.2-7.1c0.2-1.4,0.4-2.8,0.6-4.2c0.7-5.5,1.2-10,1.2-10
				c0.1-0.6-0.3-1.2-0.9-1.3c-0.6-0.1-1.2,0.3-1.3,0.9c0,0-0.9,4.5-1.9,9.9c-0.2,1.4-0.5,2.8-0.7,4.2c-0.4,2.4-0.7,4.9-0.9,7.1
				C70.5,70.2,70.2,73.2,70.2,73.2L70.2,73.2z"/>
			<path id="Tracé_2834_00000036962640904308155640000008216740470251423142_" class="st2" d="M42.9,101.5
				c-0.2-0.6-0.7-0.9-1.3-0.8c0,0-3,0.5-7,1.4c-2.1,0.4-4.6,0.9-7,1.5c-1.4,0.3-2.8,0.7-4.2,1c-5.3,1.4-9.7,2.6-9.7,2.6
				c-0.6,0.2-0.9,0.7-0.8,1.3c0.1,0.6,0.7,1,1.3,0.8c0,0,0,0,0,0c0,0,4.4-0.9,9.8-2c1.3-0.3,2.7-0.6,4.2-0.9
				c2.4-0.6,4.9-1.2,6.9-1.8c4-1.1,6.9-1.9,6.9-1.9c0.6-0.1,0.9-0.6,0.8-1.2C43,101.6,43,101.5,42.9,101.5z"/>
		</g>
	</g>
	<g id="TEXTES_GB">
	</g>
</g>
</svg>
