<?xml version="1.0" encoding="utf-8"?>
<!-- Generator: Adobe Illustrator 26.2.1, SVG Export Plug-In . SVG Version: 6.00 Build 0)  -->
<svg version="1.1" id="Calque_1" xmlns="http://www.w3.org/2000/svg" xmlns:xlink="http://www.w3.org/1999/xlink" x="0px" y="0px"
	 viewBox="0 0 205.5 248.5" style="enable-background:new 0 0 205.5 248.5;" xml:space="preserve">
<style type="text/css">
	.st0{clip-path:url(#SVGID_00000072277766263392543500000011617843422449440191_);}
	.st1{fill:#FFBCC6;}
	.st2{fill:#FB657C;}
	.st3{fill:#272F60;}
	.st4{fill:#FFFFFF;}
	.st5{fill:#FFF5F7;}
</style>
<g id="TEXTES_FR">
</g>
<g>
	<g id="ILLUSTRATIONS">
		<g id="ICONO_00000070108196046343422350000008966603590513151140_" transform="translate(118.262 483.999)">
			<g id="Groupe_1229_00000171686743779613466820000008994006477444125841_" transform="translate(19.648 130.362)">
				<g>
					<g>
						<defs>
							<rect id="SVGID_1_" x="-118.3" y="-484" width="39" height="117.5"/>
						</defs>
						<clipPath id="SVGID_00000026883293999347120500000016310362697389244309_">
							<use xlink:href="#SVGID_1_"  style="overflow:visible;"/>
						</clipPath>
						
							<g id="Groupe_1228_00000021827226857247726930000007747977002001192321_" style="clip-path:url(#SVGID_00000026883293999347120500000016310362697389244309_);">
							<path id="Tracé_4460_00000138535423387040218500000014332458985901910695_" class="st1" d="M-52.9-366.5h-32.2
								c-14,0-25.3-11.3-25.3-25.2v-56.8c0-2.6,2.1-4.7,4.7-4.7c2.6,0,4.7,2.1,4.7,4.7v56.8c0,8.8,7.1,15.8,15.9,15.9h32.2
								c2.6,0,4.7,2.1,4.7,4.7C-48.2-368.5-50.3-366.5-52.9-366.5"/>
							<path id="Tracé_4461_00000181790613509463539580000008221036762732998576_" class="st2" d="M-100-459.3
								c0,1.8,1.5,3.2,3.2,3.1c1.7,0,3.1-1.4,3.1-3.1v-21.5c0-1.8-1.5-3.2-3.2-3.1c-1.7,0-3.1,1.4-3.1,3.1V-459.3z"/>
							
								<rect id="Rectangle_696_00000072241729911227439540000014663164653132502917_" x="-100" y="-469.1" class="st3" width="6.4" height="2.2"/>
							
								<rect id="Rectangle_697_00000155853167626695697070000008341101753137298874_" x="-100" y="-476.4" class="st3" width="6.4" height="2.2"/>
							<path id="Tracé_4462_00000167359286820411396390000001389660970409090695_" class="st2" d="M-118.3-459.3
								c0,1.8,1.5,3.2,3.2,3.1c1.7,0,3.1-1.4,3.1-3.1v-21.5c0-1.8-1.5-3.2-3.2-3.1c-1.7,0-3.1,1.4-3.1,3.1V-459.3z"/>
							
								<rect id="Rectangle_698_00000107572367213479020330000012959616033058257807_" x="-118.3" y="-469.1" class="st3" width="6.4" height="2.2"/>
							
								<rect id="Rectangle_699_00000151502489175142797910000014073749180817491095_" x="-118.3" y="-476.4" class="st3" width="6.4" height="2.2"/>
							<path id="Tracé_4463_00000085251085853020094780000006747267003754127748_" class="st3" d="M-105.9-464.6
								c6.6,0,11.9,5.4,11.9,11.9c0,6.6-5.4,11.9-11.9,11.9c-6.6,0-11.9-5.3-11.9-11.9C-117.8-459.2-112.5-464.6-105.9-464.6"/>
							<path id="Tracé_4464_00000110428959710930480340000003315720605769635005_" class="st2" d="M-92.6-454.9v-2.2
								c0-1.8,1.5-3.2,3.2-3.1c1.7,0,3.1,1.4,3.1,3.1v5.3c0,0.9-0.4,1.7-1,2.3c-0.6,0.6-1.4,1-2.3,1h-5.3c-1.8,0-3.2-1.5-3.2-3.2
								c0-1.8,1.4-3.2,3.2-3.2L-92.6-454.9L-92.6-454.9z"/>
							<path id="Tracé_4465_00000174587904244724210150000015922088321272117395_" class="st2" d="M-106.9-459.3
								c0,1.8,1.5,3.2,3.2,3.1c1.7,0,3.1-1.4,3.1-3.1v-6.6c0-1.8-1.5-3.2-3.2-3.1c-1.7,0-3.1,1.4-3.1,3.1V-459.3"/>
							
								<rect id="Rectangle_700_00000123409225497766938550000001391428090336445077_" x="-106.9" y="-465.5" class="st3" width="6.4" height="2.2"/>
							<path id="Tracé_4466_00000139986669621856769980000004622829369207570825_" class="st2" d="M-113-459.3
								c0,1.8,1.5,3.2,3.2,3.1c1.7,0,3.1-1.4,3.1-3.1v-6.6c0-1.8-1.5-3.2-3.2-3.1c-1.7,0-3.1,1.4-3.1,3.1V-459.3"/>
							
								<rect id="Rectangle_701_00000106108802926533765810000018061465844916465804_" x="-113" y="-465.5" class="st3" width="6.4" height="2.2"/>
							<path id="Tracé_4467_00000018227660402935602620000000967512481725451665_" class="st3" d="M-92.6-454.9h-2l6.2,6.2
								c0.5-0.2,0.9-0.4,1.3-0.8c0.2-0.2,0.3-0.3,0.4-0.5l-5.9-5.9L-92.6-454.9z"/>
							<path id="Tracé_4468_00000022535613523242196460000009470042801900109474_" class="st3" d="M-56.7-366.5h-4.7v-9.3h4.7
								C-56.7-366.5-56.7-366.5-56.7-366.5z M-70.8-366.5h-4.7v-9.3h4.7V-366.5z M-84.9-366.5h-0.1c-1.9,0-3.7-0.2-5.6-0.6l2-9.1
								c1.1,0.2,2.3,0.4,3.5,0.4h0.1L-84.9-366.5z M-100.9-372.1L-100.9-372.1c-1.5-1.2-2.9-2.6-4.1-4.1v-0.1l7.4-5.7
								c0.7,0.9,1.6,1.8,2.5,2.6v0.1L-100.9-372.1z M-109.8-386.5L-109.8-386.5c-0.4-1.7-0.5-3.5-0.5-5.2v-0.4h9.3v0.4
								c0,1.1,0.1,2.2,0.4,3.3L-109.8-386.5z M-101-401.5h-9.3v-4.7h9.3C-100.9-401.5-101-401.5-101-401.5z M-101-415.6h-9.3v-4.7
								h9.3C-100.9-415.6-101-415.6-101-415.6z M-101-429.7h-9.3v-4.7h9.3C-100.9-429.8-101-429.7-101-429.7z M-101-443.8h-9.3v-4.7
								h9.3C-100.9-443.8-101-443.8-101-443.8z"/>
						</g>
					</g>
				</g>
			</g>
			<g id="Groupe_1231_00000154393657940052075780000000273723379249834626_" transform="translate(0 0.001)">
				<g>
					<g id="Groupe_1230_00000109742005267601681090000017335464877513718661_" transform="translate(0 0)">
						<path id="Tracé_4469_00000153693266342435530960000016653571968846583945_" class="st3" d="M-33.2-295.8c0,0,7.2-1.2,11.9,0
							c3.5,0.9,5.5,4,6.5,6.5c0.3,0.7,0.2,1.6-0.2,2.2c-0.4,0.6-1.2,1-1.9,1h-13.7c-1.3,0-2.4-1.1-2.4-2.4
							C-33.2-291.3-33.2-295.8-33.2-295.8z"/>
						<path id="Tracé_4470_00000127730072366126137250000003196374405875412915_" class="st3" d="M-9.8-295.8c0,0,7.2-1.2,11.9,0
							c3.5,0.9,5.5,4,6.5,6.5c0.3,0.7,0.2,1.6-0.2,2.2c-0.4,0.6-1.2,1-1.9,1H-7.3c-1.3,0-2.4-1.1-2.4-2.4
							C-9.8-291.3-9.8-295.8-9.8-295.8z"/>
						<path id="Tracé_4471_00000001654238835204173860000016082546516646478748_" class="st1" d="M5.3-361.3c0,0-0.9,52.3-0.9,64
							c0,1.2-1,2.2-2.2,2.2l0,0H-8.3c-1.2,0-2.2-1-2.2-2.1v0v0l-0.9-42c0-2.9-6.7-2.9-6.7,0l-0.8,42c0,1.2-1,2.2-2.2,2.2l0,0h-10.6
							c-1.2,0-2.2-1-2.2-2.1v0c0,0,0,0,0,0c0-11.7-0.9-64-0.9-64H5.3z"/>
						<path id="Tracé_4472_00000067937665176424044980000003365769404512174009_" class="st3" d="M-24.9-353.6
							c-0.1,1.3-0.4,2.5-0.9,3.7c-0.5,1.1-1.1,2.2-2,3.1c-0.5,0.5-1,1-1.6,1.4c-1.5,0.9-3.2,1.4-5,1.4c-0.4,0-0.7,0.3-0.7,0.7
							s0.3,0.7,0.7,0.7c2,0.1,4.1-0.3,5.9-1.2c0.8-0.4,1.5-1,2.1-1.6c1-1.1,1.7-2.3,2.2-3.7c0.5-1.4,0.7-2.8,0.7-4.2
							c0-0.4-0.3-0.7-0.7-0.7C-24.6-354.3-24.9-354-24.9-353.6"/>
						<path id="Tracé_4473_00000064323845638687272260000000781724806362314174_" class="st3" d="M-0.8-353.6
							c-0.1,1.5,0.1,3.1,0.3,4.6c0.1,0.6,0.3,1.2,0.5,1.8c0.1,0.4,0.3,0.8,0.5,1.2c0.9,1.9,2.4,3.3,4.5,3.2c0.4,0,0.7-0.3,0.7-0.7
							s-0.3-0.7-0.7-0.7c-1.4-0.1-2.3-1.2-2.9-2.6c-0.1-0.3-0.3-0.7-0.4-1c-0.2-0.5-0.3-1.1-0.5-1.6c-0.3-1.4-0.6-2.8-0.7-4.3
							c0-0.4-0.3-0.6-0.6-0.6h0C-0.5-354.3-0.8-354-0.8-353.6"/>
						<path id="Tracé_4474_00000088123783470433106570000001759954246723582634_" class="st3" d="M-30.3-297.7
							c-0.4,0-0.7-0.3-0.7-0.7c0,0,0,0,0,0v-1.4c0-0.4,0.3-0.7,0.7-0.7h0h0c0.4,0,0.7,0.3,0.7,0.7c0,0,0,0,0,0v1.4
							C-29.6-298-29.9-297.7-30.3-297.7 M-30.3-302c-0.4,0-0.7-0.3-0.7-0.7c0,0,0,0,0,0v-1.4c0-0.2,0.1-0.4,0.2-0.5
							c0.1-0.1,0.3-0.2,0.5-0.2c0.4,0,0.7,0.3,0.7,0.7c0,0,0,0,0,0v1.4C-29.6-302.3-29.9-302-30.3-302L-30.3-302L-30.3-302
							 M-30.4-306.4c-0.4,0-0.7-0.3-0.7-0.7c0,0,0,0,0,0v-1.4c0-0.4,0.3-0.7,0.7-0.7h0h0c0.4,0,0.7,0.3,0.7,0.7c0,0,0,0,0,0v1.4
							C-29.7-306.7-30-306.4-30.4-306.4L-30.4-306.4L-30.4-306.4 M-30.5-310.7c-0.4,0-0.7-0.3-0.7-0.7c0,0,0,0,0,0c0,0,0,0,0,0v-1.4
							c0-0.2,0.1-0.4,0.2-0.5c0.1-0.1,0.3-0.2,0.5-0.2c0.4,0,0.7,0.3,0.7,0.7c0,0,0,0,0,0v1.4c0,0.2-0.1,0.4-0.2,0.5
							C-30.1-310.8-30.3-310.7-30.5-310.7 M-30.5-315c-0.4,0-0.7-0.3-0.7-0.7c0,0,0,0,0,0v-1.4c0-0.2,0.1-0.4,0.2-0.5
							c0.1-0.1,0.3-0.2,0.5-0.2c0.4,0,0.7,0.3,0.7,0.7c0,0,0,0,0,0v1.4C-29.8-315.4-30-315-30.5-315C-30.5-315-30.5-315-30.5-315
							 M-30.5-319.4c-0.4,0-0.7-0.3-0.7-0.7c0,0,0,0,0,0v-1.4c0-0.4,0.3-0.7,0.7-0.7h0h0c0.4,0,0.7,0.3,0.7,0.7c0,0,0,0,0,0
							c0,0,0,0,0,0v1.4C-29.8-319.7-30.1-319.4-30.5-319.4C-30.5-319.4-30.5-319.4-30.5-319.4 M-30.6-323.7c-0.4,0-0.7-0.3-0.7-0.7
							c0,0,0,0,0,0v-1.4c0-0.4,0.3-0.7,0.7-0.7h0h0c0.4,0,0.7,0.3,0.7,0.7c0,0,0,0,0,0v1.4c0,0.2-0.1,0.4-0.2,0.5
							C-30.2-323.8-30.4-323.7-30.6-323.7 M-30.7-328c-0.4,0-0.7-0.3-0.7-0.7c0,0,0,0,0,0v-1.4c0-0.4,0.3-0.7,0.7-0.7h0h0
							c0.4,0,0.7,0.3,0.7,0.7c0,0,0,0,0,0v1.4C-29.9-328.4-30.3-328-30.7-328C-30.7-328-30.7-328-30.7-328L-30.7-328 M-30.7-332.4
							c-0.4,0-0.7-0.3-0.7-0.7c0,0,0,0,0,0v-1.4c0-0.4,0.3-0.7,0.7-0.7h0h0c0.4,0,0.7,0.3,0.7,0.7c0,0,0,0,0,0v1.4
							C-30-332.7-30.2-332.4-30.7-332.4C-30.7-332.4-30.7-332.4-30.7-332.4 M-30.7-336.7c-0.4,0-0.7-0.3-0.7-0.7c0,0,0,0,0,0v-1.4
							c0-0.4,0.3-0.7,0.7-0.7h0h0c0.4,0,0.7,0.3,0.7,0.7c0,0,0,0,0,0v1.4C-30-337-30.3-336.7-30.7-336.7L-30.7-336.7L-30.7-336.7"/>
						<path id="Tracé_4475_00000144317123224727208140000009231030920474494593_" class="st3" d="M-7.3-298.7
							c-0.4,0-0.7-0.3-0.7-0.7c0,0,0,0,0,0v0l0-1.4c0-0.4,0.3-0.7,0.7-0.7c0,0,0,0,0,0h0c0.4,0,0.7,0.3,0.7,0.7c0,0,0,0,0,0v1.4
							c0,0.2-0.1,0.4-0.2,0.5C-7-298.8-7.2-298.7-7.3-298.7 M-7.4-303c-0.4,0-0.7-0.3-0.7-0.7c0,0,0,0,0,0v0l0-1.4
							c0-0.4,0.3-0.7,0.7-0.7c0,0,0,0,0,0h0c0.4,0,0.7,0.3,0.7,0.7c0,0,0,0,0,0v0l0,1.4C-6.7-303.4-7-303.1-7.4-303 M-7.5-307.4
							c-0.4,0-0.7-0.3-0.7-0.7c0,0,0,0,0,0v-1.4c0-0.2,0.1-0.4,0.2-0.5c0.1-0.1,0.3-0.2,0.5-0.2c0.4,0,0.7,0.3,0.7,0.7c0,0,0,0,0,0
							v0l0,1.4C-6.8-307.7-7.1-307.4-7.5-307.4 M-7.5-311.7c-0.4,0-0.7-0.3-0.7-0.7c0,0,0,0,0,0v-1.4c0-0.2,0.1-0.4,0.2-0.5
							c0.1-0.1,0.3-0.2,0.5-0.2c0.4,0,0.7,0.3,0.7,0.7c0,0,0,0,0,0v1.4C-6.8-312-7.1-311.7-7.5-311.7 M-7.5-316.1
							c-0.4,0-0.7-0.3-0.7-0.7c0,0,0,0,0,0v-1.4c0-0.2,0.1-0.4,0.2-0.5c0.1-0.1,0.3-0.2,0.5-0.2c0.4,0,0.7,0.3,0.7,0.7v1.4
							C-6.8-316.4-7.2-316.1-7.5-316.1 M-7.6-320.4c-0.4,0-0.7-0.3-0.7-0.7c0,0,0,0,0,0v-1.5c0-0.2,0.1-0.4,0.2-0.5
							c0.1-0.1,0.3-0.2,0.5-0.2c0.4,0,0.7,0.3,0.7,0.7c0,0,0,0,0,0v1.4C-6.9-320.7-7.2-320.4-7.6-320.4 M-7.7-324.7
							c-0.4,0-0.7-0.3-0.7-0.7c0,0,0,0,0,0v0l0-1.4c0-0.4,0.3-0.7,0.7-0.7c0,0,0,0,0,0h0c0.4,0,0.7,0.3,0.7,0.7c0,0,0,0,0,0v0l0,1.4
							C-7-325-7.3-324.7-7.7-324.7 M-7.7-329.1c-0.4,0-0.7-0.3-0.7-0.7c0,0,0,0,0,0v0l0-1.4c0-0.4,0.3-0.7,0.7-0.7c0,0,0,0,0,0h0
							c0.4,0,0.7,0.3,0.7,0.7c0,0,0,0,0,0v0l0,1.4C-7-329.4-7.3-329.1-7.7-329.1C-7.7-329.1-7.7-329.1-7.7-329.1L-7.7-329.1
							 M-7.8-333.4c-0.4,0-0.7-0.3-0.7-0.7c0,0,0,0,0,0v-1.4c0-0.2,0.1-0.4,0.2-0.5c0.1-0.1,0.3-0.2,0.5-0.2c0.4,0,0.7,0.3,0.7,0.7
							c0,0,0,0,0,0v1.4C-7.1-333.7-7.4-333.4-7.8-333.4C-7.8-333.4-7.8-333.4-7.8-333.4L-7.8-333.4"/>
						<path id="Tracé_4476_00000055709350371387212140000000913279007849867448_" class="st3" d="M-7.5-341.1c0,0-1.2-0.2-2.8-0.3
							c-0.4,0-0.8,0-1.2,0c-0.6,0-1.3,0.1-1.8,0.1c1,0.3,1.8,1,1.8,2l0,0.6c0.4,0,0.8,0,1.2,0c1.5-0.1,2.8-0.3,2.8-0.3
							c0.6,0,1-0.4,1-1C-6.5-340.6-6.9-341.1-7.5-341.1L-7.5-341.1z"/>
						<path id="Tracé_4477_00000078756671522995929030000009424052416445234084_" class="st2" d="M28.7-423.3
							c-0.2,0-0.3-0.1-0.4-0.3c-1.2-2.6,0.2-6.1,1.2-7.9c1-1.7,2.9-5.1,4.4-4.8c1.2,0.2,1.1,1.9,0.4,3.8c-0.1,0.2,0,0.5,0.3,0.6
							c0.2,0.1,0.3,0,0.4-0.1c2.7-2.2,8.5-7.1,11.1-5.3c1.8,1.3,1.4,6.9,0.3,9.4c-1.1,2.6-6.1,4.5-8.9,5.6
							C37.5-422.2,28.7-423.3,28.7-423.3z"/>
						<path id="Tracé_4478_00000160166352130280307290000004343405504369028229_" class="st2" d="M-55.3-422.2
							c0.2,0,0.3-0.1,0.4-0.2c1.4-2.6,0-6.1-0.9-7.9c-0.9-1.8-2.3-5.2-4.2-4.9c-1.2,0.2-1.2,1.9-0.6,3.7c0.1,0.2,0,0.5-0.3,0.6
							c-0.2,0.1-0.3,0-0.4-0.1c-2.7-2.3-8.3-8.2-11.2-5.4c-0.6,0.6-2.1,5.6-0.3,8c0.8,1,1.7,1.9,2.8,2.7c1.9,1.7,4.2,2.8,6.6,3.3
							L-55.3-422.2z"/>
						<path id="Tracé_4479_00000020393449275845638500000013985367413945321647_" class="st3" d="M-30.2-402.9
							c-6.7-0.2-13.2-5.2-17.8-11.3c-3.4-4.5-3.7-7.2-4.9-10.4c-0.6-1.7-1.3-2.3-3.2-1.7s-6,2-7.8,2.7c-2,0.8-2.3,2.2-1.8,5.1
							c1.6,9.3,8.3,26.9,31.6,35.8c12.4,4.7,25.3,4.4,43.3-0.6c22.5-9.5,28.2-32.3,28.9-34.9c0.6-2.6,1-3.7-0.6-4.8
							c-2.4-1.4-5-2.6-7.6-3.6c-1.9-0.8-2.6-0.7-3.4,1.4c-0.9,2.3-1.7,4.5-6.8,11.8c-4.9,6.9-12.1,10.1-17.6,11.6
							c0,0-4.6-3.1-16.8-2.6S-26.5-402.7-30.2-402.9z"/>
						<path id="Tracé_4480_00000057145999333836340340000010899353307582260628_" class="st3" d="M-14.6-406.4
							c11.5,0,20.8,9.3,20.9,20.8v30.1c0,1.1-0.9,2-2,2h-37.8c-1.1,0-2-0.9-2-2c0,0,0,0,0,0c0,0,1.2-19.3,1.2-30.1
							C-34.3-397-26.1-406.4-14.6-406.4"/>
						<path id="Tracé_4481_00000158020137360848475970000000519376391739711405_" class="st2" d="M-21.8-408.1
							c-4.5-3.8-7-10.7-7.2-16.2c-0.3-7.9,1-12.6,2.8-15.4c2.9-4.6,8-7.5,13.5-7.5c0.3,0-0.3,0,0,0c6,0.2,11.4,2.6,13.8,7.2
							c2.6,4.9,2.8,10.1,2.2,15.7c-0.9,8.1-2.7,14.1-9.8,17.4c0,0,0,2,0,2.9c0,0.6-0.5,1.2-1.1,1.3c-4.4,0.3-8.8,0.2-13.2-0.3
							c-0.7-0.1-1.2-0.7-1.1-1.3C-21.8-405.5-21.8-408.1-21.8-408.1L-21.8-408.1z"/>
						<path id="Tracé_4482_00000069384310892881689240000008039995111132074137_" class="st3" d="M-1.1-424.8
							c-0.1,0.3-0.2,0.7-0.2,1.1c0,0.4,0,0.8,0.1,1.1c0,0.7,0.4,1.2,1.1,1.3c0.7,0,1.2-0.4,1.3-1.1l0,0c0.1-0.3,0.2-0.7,0.2-1.1
							c0-0.4,0-0.8-0.1-1.1c0-0.7-0.5-1.2-1.1-1.2C-0.5-425.9-1-425.4-1.1-424.8L-1.1-424.8z"/>
						<path id="Tracé_4483_00000061471011807137243020000010581572356013308558_" class="st3" d="M-13.4-425.2
							c-0.1,0.3-0.2,0.7-0.2,1.1c0,0.4,0,0.8,0.1,1.1c0,0.7,0.4,1.2,1.1,1.3c0.7,0,1.2-0.4,1.3-1.1l0,0c0.1-0.3,0.2-0.7,0.2-1.1
							c0-0.4,0-0.8-0.1-1.1c0-0.7-0.5-1.2-1.1-1.2C-12.8-426.4-13.3-425.9-13.4-425.2L-13.4-425.2z"/>
						<path id="Tracé_4484_00000163777908658010327450000001619521355298613144_" class="st3" d="M-6.4-413.3
							c1.7,0.2,3.6-1.5,3.6-2.1c0-0.6-0.4-1.1-1-1.1c0,0,0,0,0,0h0c0,0-0.8-0.2-1.8-0.4c-0.3-0.1-0.5-0.1-0.8-0.1
							c-0.4,0-0.9,0-1.3,0c-0.8,0.1-1.3,0.2-1.3,0.2c-0.6,0-1.1,0.4-1.1,1c0,0,0,0,0,0C-10.1-415.2-8.6-413.5-6.4-413.3z"/>
						<path id="Tracé_4485_00000064355198111964373010000015474089425123844017_" class="st3" d="M6.6-438c-0.1-3.4-1.5-6.6-3.9-9
							c-2.7-2.6-8.1-4.8-12.1-5.1c-3.5-0.4-7-0.1-10.3,0.8c-2.6-6.3-9.7-9.3-16-6.7c-4.5,1.9-7.5,6.2-7.6,11.1
							c0,6.4,4.8,11.7,11.1,12.5c-1.1,8.6,2.4,21.6,10.5,27.1c1.8-2.2-3.1-8.3-3.7-14.5c-0.3-3.1-0.1-5,1.3-5.3
							c1.2-0.3,1.5,1.7,1.5,1.7c0.3,1.1,0.8,2.2,1.3,3.2c0.3,0.9,0.5,1,0.3,1.9c-0.1,0.8-0.3,1.7-0.5,2.5c-0.1,0.6-0.1,1.2-0.1,1.9
							c0,0.9,0.2,1.9,0.7,2c0.4,0,0.6-0.6,0.7-1.3c0.1-0.7,0.2-1.5,0.4-2.2c0.2-0.6,0.6-1.4,0.9-2.4c0.3-1.2,0.3-2.5-0.1-3.6
							c-0.2-0.9-0.3-1.7-0.5-2.5c-0.2-0.9-0.1-1.8,0-2.6c0.4-2,1.4-2.5,3.5-4.3c2.4-2,3.1-5.7,7.8-6.5c2.1-0.1,4.1-0.1,6.2,0.1
							c3,0.3,3.6,1.9,4.5,4.6c0.8,3.2,1,6.5,0.8,9.7c0,0.1,0,0.2,0,0.2c0.9-0.1,2.1-4,2.8-7.7c0.2-1.1,0.3-2.3,0.4-3.4
							C6.7-436.6,6.7-437.3,6.6-438z"/>
						<path id="Tracé_4486_00000110436017529170598400000016716879192935298996_" class="st3" d="M-7.7-406.9c0,0-0.4,0-1-0.1
							c-0.4,0-1,0-1.6,0c-0.5,0-1,0.1-1.6,0.2c-0.4,0-0.7,0.1-1.1,0.2c-0.5-0.1-0.9,0.2-1,0.7c-0.1,0.5,0.2,0.9,0.7,1c0,0,0,0,0.1,0
							c0.4,0.1,0.8,0.3,1.2,0.3c0.6,0.1,1.2,0.2,1.8,0.2c0.6,0,1.2-0.1,1.8-0.3c0.4-0.1,0.8-0.3,1.1-0.5c0.5-0.1,0.7-0.6,0.6-1
							c0,0,0,0,0,0l0,0C-6.8-406.6-7.2-407-7.7-406.9L-7.7-406.9C-7.7-406.9-7.7-406.9-7.7-406.9L-7.7-406.9z"/>
						<path id="Tracé_4487_00000121255136633942760250000012577179459399215806_" class="st4" d="M7.6-382.9c0,0,0.1-0.8,0.3-1.8
							c0-0.6,0.1-1.2,0.1-1.9c0-0.4,0-0.8-0.1-1.1c-0.1-0.6-0.2-1.2-0.3-1.8c-0.1-0.5-0.2-0.8-0.2-0.8c-0.1-0.3-0.4-0.4-0.7-0.3
							c-0.4,0.1-0.6,0.3-0.5,0.5c0,0,0,0.3,0.1,0.7s0.1,1,0.1,1.7c0,0.3,0,0.7,0,1.1c0,0.6,0,1.2,0.1,1.8c0,1,0,1.8,0,1.8
							c0,0.2,0.3,0.4,0.6,0.5C7.3-382.5,7.6-382.7,7.6-382.9z"/>
						<path id="Tracé_4488_00000140701688484695649840000014672669224709944708_" class="st2" d="M1.1-357.6h-2.1
							c-0.4,0-0.8-0.4-0.8-0.8c0-0.4,0.4-0.8,0.8-0.8c0,0,0,0,0,0h1.3v-2.7l-2.7-1.9c-0.2-0.1-0.3-0.4-0.3-0.7v-2.8
							c0-0.4,0.4-0.8,0.8-0.8c0.4,0,0.8,0.4,0.8,0.8v2.4l2.7,1.9c0.2,0.1,0.3,0.4,0.3,0.7v4C1.9-357.9,1.5-357.6,1.1-357.6
							L1.1-357.6"/>
						<path id="Tracé_4489_00000160172846496447807740000002298836338122326183_" class="st2" d="M1.1-368c-0.4,0-0.8-0.4-0.8-0.8
							v0v-6.4c0-0.4,0.4-0.8,0.8-0.8c0.4,0,0.8,0.4,0.8,0.8v6.4C1.9-368.3,1.5-368,1.1-368L1.1-368"/>
						<path id="Tracé_4490_00000029031739008537592740000003439660553880478362_" class="st2" d="M1.1-378.6c0.4,0,0.7,0.3,0.7,0.7
							c0,0.4-0.3,0.7-0.7,0.7c-0.4,0-0.7-0.3-0.7-0.7C0.4-378.3,0.7-378.6,1.1-378.6C1.1-378.6,1.1-378.6,1.1-378.6"/>
						<path id="Tracé_4491_00000087370160960045095580000012887310746547732122_" class="st2" d="M1.1-366.4c0.4,0,0.7,0.3,0.7,0.7
							s-0.3,0.7-0.7,0.7c-0.4,0-0.7-0.3-0.7-0.7C0.4-366,0.7-366.4,1.1-366.4"/>
						<path id="Tracé_4492_00000024003052236900274740000013411568409945625772_" class="st2" d="M-3.9-359.1
							c0.4,0,0.7,0.3,0.7,0.7s-0.3,0.7-0.7,0.7c-0.4,0-0.7-0.3-0.7-0.7C-4.6-358.8-4.3-359.1-3.9-359.1"/>
						<path id="Tracé_4493_00000024709817986737117230000016542655568530400702_" class="st1" d="M-26.4-370.9
							c-0.2,0-0.3-0.1-0.5-0.1l-3-2.1c-0.2-0.1-0.3-0.4-0.3-0.7v-4c0-0.4,0.4-0.8,0.8-0.8h2.1c0.4,0,0.8,0.4,0.8,0.8
							s-0.4,0.8-0.8,0.8h-1.3v2.7l2.7,1.9c0.4,0.3,0.5,0.7,0.2,1.1C-25.9-371.1-26.2-370.9-26.4-370.9"/>
						<path id="Tracé_4494_00000043440101090786492720000003237834454919414960_" class="st1" d="M-29.4-360.2
							c-0.4,0-0.8-0.4-0.8-0.8l0,0v-6.4c0-0.4,0.4-0.8,0.8-0.8c0.4,0,0.8,0.4,0.8,0.8v6.4C-28.6-360.6-29-360.2-29.4-360.2
							C-29.4-360.2-29.4-360.2-29.4-360.2L-29.4-360.2z"/>
						<path id="Tracé_4495_00000161634190534072831560000004132204941551286959_" class="st1" d="M-29.5-359c0.4,0,0.7,0.3,0.7,0.7
							c0,0.4-0.3,0.7-0.7,0.7c-0.4,0-0.7-0.3-0.7-0.7C-30.2-358.6-29.9-359-29.5-359"/>
						<path id="Tracé_4496_00000021113189785779517990000014335101016624890294_" class="st1" d="M-29.4-371.2
							c0.4,0,0.7,0.3,0.7,0.7c0,0.4-0.3,0.7-0.7,0.7c-0.4,0-0.7-0.3-0.7-0.7C-30.2-370.9-29.8-371.2-29.4-371.2"/>
						<path id="Tracé_4497_00000052089447492002094870000004947686820931275959_" class="st1" d="M-24.5-378.5
							c0.4,0,0.7,0.3,0.7,0.7c0,0.4-0.3,0.7-0.7,0.7c-0.4,0-0.7-0.3-0.7-0.7C-25.2-378.1-24.9-378.5-24.5-378.5
							C-24.5-378.5-24.5-378.5-24.5-378.5"/>
						<path id="Tracé_4498_00000091011995447137401260000013529863241944894129_" class="st3" d="M-49.1-288.5h64.9v42.1h-68.9
							v-38.1C-53.1-286.7-51.3-288.5-49.1-288.5C-49.1-288.5-49.1-288.5-49.1-288.5z"/>
						<path id="Tracé_4499_00000183237182887302865700000013053487361949530248_" class="st3" d="M-79.5-235.5h-34.8
							c-2.2,0-4-1.8-4-4c0,0,0,0,0,0v-22c0-2.2,1.8-4,4-4c0,0,0,0,0,0h34.8V-235.5z"/>
						<path id="Tracé_4500_00000018955657194199962920000016970656725841880194_" class="st1" d="M79.6-258.3H28.7
							c-1.1,0-2-0.9-2-2v-24.2c0-2.2-1.8-4-4-4c0,0,0,0,0,0h-61c-2.2,0-4,1.8-4,4c0,0,0,0,0,0v17c0,1.1-0.9,2-2,2h-60.1
							c-1.8,0-3.2,1.5-3.2,3.2c0,0,0,0,0,0v23.5c0,1.8,1.4,3.2,3.2,3.2H79.6c1.8,0,3.2-1.5,3.2-3.2c0,0,0,0,0,0v-16.3
							C82.8-256.9,81.4-258.3,79.6-258.3L79.6-258.3z"/>
						<path id="Tracé_4501_00000085208858645620624730000002407397108237958843_" class="st5" d="M-72.9-389.6
							c0.1-1.4,0.2-2.4,0.2-2.4c0-0.4,0.3-0.8,0.8-0.8c0.4,0,0.8,0.3,0.8,0.8c0,0,0.2,1.1,0.2,2.4c0.3,0,0.5,0.1,0.7,0.1
							c1,0.1,1.7,0.2,1.7,0.2c0.4,0,0.8,0.3,0.8,0.8c0,0.4-0.3,0.8-0.8,0.8c0,0,0,0,0,0c0,0-0.7,0.1-1.7,0.2c-0.2,0-0.4,0.1-0.7,0.1
							c0,0.3-0.1,0.5-0.1,0.7c-0.1,1-0.2,1.7-0.2,1.7c0,0.4-0.3,0.8-0.8,0.8c-0.4,0-0.8-0.3-0.8-0.8c0,0-0.1-0.7-0.2-1.7
							c0-0.2-0.1-0.5-0.1-0.7c-1.3-0.1-2.4-0.2-2.4-0.2c-0.4,0-0.8-0.3-0.8-0.8c0-0.4,0.3-0.8,0.8-0.8
							C-74.5-389.5-73.7-389.6-72.9-389.6z"/>
						<path id="Tracé_4502_00000084506202101790792900000010087594223176239544_" class="st5" d="M-41-480.8
							c0.1-1.4,0.2-2.4,0.2-2.4c0-0.4,0.3-0.8,0.8-0.8c0.4,0,0.8,0.3,0.8,0.8c0,0,0.2,1.1,0.2,2.4c0.3,0,0.5,0.1,0.7,0.1
							c1,0.1,1.7,0.2,1.7,0.2c0.4,0,0.8,0.3,0.8,0.8s-0.3,0.8-0.8,0.8c0,0,0,0,0,0c0,0-0.7,0.1-1.7,0.2c-0.2,0-0.4,0.1-0.7,0.1
							c0,0.3-0.1,0.5-0.1,0.7c-0.1,1-0.2,1.7-0.2,1.7c0,0.4-0.3,0.8-0.8,0.8c-0.4,0-0.8-0.3-0.8-0.8c0,0,0,0,0,0
							c0,0-0.1-0.7-0.2-1.7c0-0.2-0.1-0.5-0.1-0.7c-1.3-0.1-2.4-0.2-2.4-0.2c-0.4,0-0.8-0.3-0.8-0.8c0-0.4,0.3-0.8,0.8-0.8
							C-42.6-480.7-41.8-480.8-41-480.8"/>
						<path id="Tracé_4503_00000171717264447629732560000018112672486603984316_" class="st5" d="M82-429c0.1-1.4,0.2-2.4,0.2-2.4
							c0-0.4,0.3-0.8,0.8-0.8s0.8,0.3,0.8,0.8c0,0,0.2,1.1,0.2,2.4c0.3,0,0.5,0.1,0.7,0.1c1,0.1,1.7,0.2,1.7,0.2
							c0.4,0,0.8,0.3,0.8,0.8c0,0.4-0.3,0.8-0.8,0.8c0,0-0.7,0.1-1.7,0.2c-0.2,0-0.4,0.1-0.7,0.1c0,0.3-0.1,0.5-0.1,0.7
							c-0.1,1-0.2,1.7-0.2,1.7c0,0.4-0.3,0.8-0.8,0.8s-0.8-0.3-0.8-0.8c0,0-0.1-0.7-0.2-1.7c0-0.2-0.1-0.5-0.1-0.7
							c-1.3-0.1-2.4-0.2-2.4-0.2c-0.4,0-0.8-0.3-0.8-0.8c0-0.4,0.3-0.8,0.8-0.8C80.4-428.9,81.2-429,82-429"/>
						<path id="Tracé_4504_00000054980238834246890610000000552870356422896533_" class="st5" d="M24.3-357.4
							c0.1-1.4,0.2-2.4,0.2-2.4c0-0.4,0.3-0.8,0.8-0.8s0.8,0.3,0.8,0.8c0,0,0.2,1.1,0.2,2.4c0.3,0,0.5,0.1,0.7,0.1
							c1,0.1,1.7,0.2,1.7,0.2c0.4,0,0.8,0.3,0.8,0.8c0,0.4-0.3,0.8-0.8,0.8l0,0c0,0-0.7,0.1-1.7,0.2c-0.2,0-0.4,0.1-0.7,0.1
							c0,0.3-0.1,0.5-0.1,0.7c-0.1,1-0.2,1.7-0.2,1.7c0,0.4-0.3,0.8-0.8,0.8s-0.8-0.3-0.8-0.8c0,0-0.1-0.7-0.2-1.7
							c0-0.2-0.1-0.5-0.1-0.7c-1.3-0.1-2.4-0.2-2.4-0.2c-0.4,0-0.8-0.3-0.8-0.8c0-0.4,0.3-0.8,0.8-0.8
							C22.7-357.3,23.5-357.3,24.3-357.4"/>
						<path id="Tracé_4505_00000075853249509569738340000011297972855367671486_" class="st5" d="M48.1-340.8
							c0.1-1,0.2-1.7,0.2-1.7c0-0.3,0.2-0.5,0.6-0.5c0.3,0,0.5,0.2,0.5,0.5c0,0,0.1,0.8,0.2,1.7c0.2,0,0.4,0,0.5,0
							c0.7,0,1.2,0.1,1.2,0.1c0.3,0,0.6,0.2,0.6,0.5c0,0.3-0.2,0.6-0.5,0.6c0,0,0,0,0,0c0,0-0.5,0.1-1.2,0.1c-0.2,0-0.3,0-0.5,0
							c0,0.2,0,0.4,0,0.5c0,0.7-0.1,1.2-0.1,1.2c0,0.3-0.2,0.5-0.6,0.5c-0.3,0-0.5-0.2-0.5-0.5c0,0-0.1-0.5-0.1-1.2
							c0-0.2,0-0.4,0-0.5c-0.9-0.1-1.7-0.2-1.7-0.2c-0.3,0-0.6-0.2-0.6-0.5c0-0.3,0.2-0.6,0.5-0.6c0,0,0,0,0,0
							C46.9-340.7,47.5-340.7,48.1-340.8"/>
						<path id="Tracé_4506_00000114054106974754619190000011906890656547495576_" class="st5" d="M23.4-310.1
							c0.1-1,0.2-1.7,0.2-1.7c0-0.3,0.2-0.6,0.5-0.6c0.3,0,0.6,0.2,0.6,0.5c0,0,0,0,0,0c0,0,0.1,0.8,0.2,1.7c0.2,0,0.4,0,0.5,0
							c0.7,0,1.2,0.1,1.2,0.1c0.3,0,0.6,0.2,0.6,0.5c0,0.3-0.2,0.6-0.5,0.6c0,0,0,0,0,0c0,0-0.5,0.1-1.2,0.1c-0.2,0-0.3,0-0.5,0
							c0,0.2,0,0.4,0,0.5c0,0.7-0.1,1.2-0.1,1.2c0,0.3-0.2,0.6-0.5,0.6c-0.3,0-0.6-0.2-0.6-0.5c0,0,0,0,0,0c0,0-0.1-0.5-0.1-1.2
							c0-0.2,0-0.4,0-0.5c-0.9-0.1-1.7-0.2-1.7-0.2c-0.3,0-0.5-0.2-0.5-0.6c0-0.3,0.2-0.5,0.5-0.5C22.2-310,22.8-310.1,23.4-310.1"
							/>
						<path id="Tracé_4507_00000072980705642146161210000000130613528696104881_" class="st5" d="M-57-334.8c0.1-1,0.2-1.7,0.2-1.7
							c0-0.3,0.2-0.6,0.5-0.6c0.3,0,0.6,0.2,0.6,0.5c0,0,0,0,0,0c0,0,0.1,0.8,0.2,1.7c0.2,0,0.4,0,0.5,0c0.7,0,1.2,0.1,1.2,0.1
							c0.3,0,0.5,0.2,0.5,0.6c0,0.3-0.2,0.5-0.5,0.5c0,0-0.5,0.1-1.2,0.1c-0.2,0-0.3,0-0.5,0c0,0.2,0,0.4,0,0.5
							c0,0.7-0.1,1.2-0.1,1.2c0,0.3-0.2,0.6-0.5,0.6c-0.3,0-0.6-0.2-0.6-0.5c0,0,0,0,0,0c0,0-0.1-0.5-0.1-1.2c0-0.2,0-0.4,0-0.5
							c-0.9-0.1-1.7-0.2-1.7-0.2c-0.3,0-0.5-0.2-0.5-0.6c0-0.3,0.2-0.5,0.5-0.5C-58.2-334.7-57.6-334.8-57-334.8"/>
						<path id="Tracé_4508_00000161599922840292416950000018306105822117899684_" class="st5" d="M-93.5-370.5
							c0.1-1,0.2-1.7,0.2-1.7c0-0.3,0.2-0.6,0.6-0.6s0.6,0.2,0.6,0.6c0,0,0.1,0.8,0.2,1.7c0.2,0,0.4,0,0.5,0c0.7,0,1.2,0.1,1.2,0.1
							c0.3,0,0.5,0.2,0.5,0.6c0,0.3-0.2,0.5-0.5,0.5c0,0-0.5,0.1-1.2,0.1c-0.2,0-0.3,0-0.5,0c0,0.2,0,0.4,0,0.5
							c0,0.7-0.1,1.2-0.1,1.2c0,0.3-0.2,0.6-0.6,0.6s-0.6-0.2-0.6-0.6c0,0-0.1-0.5-0.1-1.2c0-0.2,0-0.4,0-0.5
							c-0.9-0.1-1.7-0.2-1.7-0.2c-0.3,0-0.5-0.2-0.5-0.6c0-0.3,0.2-0.5,0.5-0.5C-94.6-370.5-94.1-370.5-93.5-370.5"/>
						<path id="Tracé_4509_00000072988346445010121740000012832072667189894027_" class="st5" d="M-98.1-421.6
							c0.1-1,0.2-1.7,0.2-1.7c0-0.3,0.2-0.5,0.6-0.5s0.6,0.2,0.6,0.5c0,0,0.1,0.8,0.2,1.7c0.2,0,0.4,0,0.5,0c0.7,0,1.2,0.1,1.2,0.1
							c0.3,0,0.5,0.2,0.5,0.6c0,0.3-0.2,0.5-0.5,0.5c0,0-0.5,0.1-1.2,0.1c-0.2,0-0.3,0-0.5,0c0,0.2,0,0.4,0,0.5
							c0,0.7-0.1,1.2-0.1,1.2c0,0.3-0.2,0.5-0.6,0.5s-0.6-0.2-0.6-0.5c0,0-0.1-0.5-0.1-1.2c0-0.2,0-0.4,0-0.5
							c-0.9-0.1-1.7-0.2-1.7-0.2c-0.3,0-0.5-0.2-0.5-0.6c0-0.3,0.2-0.5,0.5-0.5C-99.2-421.5-98.6-421.6-98.1-421.6"/>
						<path id="Tracé_4510_00000124868834461760883760000003967641563136236733_" class="st5" d="M-108.4-450.7
							c0.1-1,0.2-1.7,0.2-1.7c0-0.3,0.2-0.5,0.6-0.5c0.3,0,0.5,0.2,0.5,0.5c0,0,0.1,0.8,0.2,1.7c0.2,0,0.4,0,0.5,0
							c0.7,0,1.2,0.1,1.2,0.1c0.3,0,0.6,0.2,0.6,0.5c0,0.3-0.2,0.6-0.6,0.6c0,0-0.5,0.1-1.2,0.1c-0.2,0-0.3,0-0.5,0
							c0,0.2,0,0.4,0,0.5c0,0.7-0.1,1.2-0.1,1.2c0,0.3-0.2,0.6-0.5,0.6c-0.3,0-0.6-0.2-0.6-0.5c0,0,0,0,0,0c0,0-0.1-0.5-0.1-1.2
							c0-0.2,0-0.4,0-0.5c-0.9-0.1-1.7-0.2-1.7-0.2c-0.3,0-0.6-0.2-0.6-0.6c0-0.3,0.2-0.5,0.6-0.5l0,0
							C-109.6-450.6-109-450.6-108.4-450.7"/>
						<path id="Tracé_4511_00000167377417571776959800000009687087295280079243_" class="st5" d="M-63.8-461c0.1-1,0.2-1.7,0.2-1.7
							c0-0.3,0.2-0.6,0.6-0.6c0.3,0,0.5,0.2,0.5,0.6c0,0,0.1,0.8,0.2,1.7c0.2,0,0.4,0,0.5,0c0.7,0,1.2,0.1,1.2,0.1
							c0.3,0,0.5,0.2,0.5,0.6c0,0.3-0.2,0.5-0.5,0.5c0,0-0.5,0.1-1.2,0.1c-0.2,0-0.3,0-0.5,0c0,0.2,0,0.4,0,0.5
							c0,0.7-0.1,1.2-0.1,1.2c0,0.3-0.2,0.5-0.5,0.5c-0.3,0-0.6-0.2-0.6-0.5c0,0-0.1-0.5-0.1-1.2c0-0.2,0-0.4,0-0.5
							c-0.9-0.1-1.7-0.2-1.7-0.2c-0.3,0-0.6-0.2-0.6-0.5c0-0.3,0.2-0.6,0.6-0.6l0,0C-65-460.9-64.4-461-63.8-461"/>
						<path id="Tracé_4512_00000043419074586291972500000000113436277308282300_" class="st5" d="M-8.1-469.4
							c0.1-1,0.2-1.7,0.2-1.7c0-0.3,0.2-0.6,0.5-0.6s0.6,0.2,0.6,0.5c0,0,0,0,0,0c0,0,0.1,0.8,0.2,1.7c0.2,0,0.4,0,0.5,0
							c0.7,0,1.2,0.1,1.2,0.1c0.3,0,0.5,0.2,0.5,0.6c0,0.3-0.2,0.5-0.5,0.5c0,0-0.5,0.1-1.2,0.1c-0.2,0-0.3,0-0.5,0
							c0,0.2,0,0.4,0,0.5c0,0.7-0.1,1.2-0.1,1.2c0,0.3-0.2,0.6-0.5,0.6c-0.3,0-0.6-0.2-0.6-0.5c0,0,0,0,0,0c0,0-0.1-0.5-0.1-1.2
							c0-0.2,0-0.4,0-0.5c-0.9-0.1-1.7-0.2-1.7-0.2c-0.3,0-0.6-0.2-0.6-0.5c0-0.3,0.2-0.6,0.5-0.6c0,0,0,0,0,0
							C-9.2-469.3-8.6-469.4-8.1-469.4"/>
						<path id="Tracé_4513_00000008856774263704768970000004783222557467798193_" class="st5" d="M60-456.6c0.1-1,0.2-1.7,0.2-1.7
							c0-0.3,0.2-0.6,0.5-0.6c0.3,0,0.6,0.2,0.6,0.5c0,0,0,0,0,0c0,0,0.1,0.8,0.2,1.7c0.2,0,0.4,0,0.5,0c0.7,0,1.2,0.1,1.2,0.1
							c0.3,0,0.6,0.2,0.6,0.6c0,0.3-0.2,0.5-0.6,0.5c0,0-0.5,0.1-1.2,0.1c-0.2,0-0.3,0-0.5,0c0,0.2,0,0.4,0,0.5
							c0,0.7-0.1,1.2-0.1,1.2c0,0.3-0.2,0.6-0.5,0.6c-0.3,0-0.6-0.2-0.6-0.5c0,0,0,0,0,0c0,0-0.1-0.5-0.1-1.2c0-0.2,0-0.4,0-0.5
							c-0.9-0.1-1.7-0.2-1.7-0.2c-0.3,0-0.6-0.2-0.6-0.5c0-0.3,0.2-0.6,0.6-0.6C58.9-456.6,59.4-456.6,60-456.6"/>
						<path id="Tracé_4514_00000016067174811881809700000001513258834144009865_" class="st5" d="M29-479.3c0.1-1,0.2-1.7,0.2-1.7
							c0-0.3,0.2-0.5,0.6-0.5c0.3,0,0.5,0.2,0.5,0.5c0,0,0.1,0.8,0.2,1.7c0.2,0,0.4,0,0.5,0c0.7,0,1.2,0.1,1.2,0.1
							c0.3,0,0.6,0.2,0.6,0.6c0,0.3-0.2,0.5-0.6,0.5c0,0-0.5,0.1-1.2,0.1c-0.2,0-0.3,0-0.5,0c0,0.2,0,0.4,0,0.5
							c0,0.7-0.1,1.2-0.1,1.2c0,0.3-0.2,0.5-0.6,0.5c-0.3,0-0.5-0.2-0.5-0.5c0,0-0.1-0.5-0.1-1.2c0-0.2,0-0.4,0-0.5
							c-0.9-0.1-1.7-0.2-1.7-0.2c-0.3,0-0.6-0.2-0.6-0.5c0-0.3,0.2-0.6,0.6-0.6C27.8-479.3,28.4-479.3,29-479.3"/>
						<path id="Tracé_4515_00000170987455129047370730000003448160973184784530_" class="st1" d="M36.9-454.5l-2.8,6.6
							c-0.1,0.3-0.5,0.5-0.8,0.4l-7-1.6c-0.4-0.1-0.9,0.5-0.6,0.8l4.5,5.4c0.2,0.3,0.5,0.4,0.8,0.5c1,0.3,3.8,0.9,5.2,1.2
							c0.5,0.1,1.1-0.2,1.3-0.7c0.6-1.4,1.7-4,2.1-5c0.1-0.3,0.1-0.7,0.1-1l-1.8-6.8C37.8-454.9,37.1-454.9,36.9-454.5"/>
						<path id="Tracé_4516_00000012448517418172140320000012966109613179552170_" class="st3" d="M49.7-413.7
							c-0.2,0-0.5-0.1-0.6-0.3l-11.1-14.6c-0.1-0.1-0.1-0.2-0.1-0.3l-2.1-12.3c-0.1-0.4,0.2-0.8,0.6-0.9c0.4-0.1,0.8,0.2,0.9,0.6v0
							l2,12.1l11,14.4c0.3,0.3,0.2,0.8-0.1,1.1C50-413.7,49.8-413.7,49.7-413.7"/>
						<path id="Tracé_4517_00000080918158557029672680000012563332510558247808_" class="st1" d="M44.9-450.9l-6.5,3
							c-0.3,0.1-0.7,0-0.9-0.3l-4.1-5.9c-0.2-0.3-1-0.2-1,0.2l-0.3,7c0,0.3,0.1,0.7,0.3,1c0.6,0.9,2.2,3.2,3,4.4
							c0.3,0.4,0.9,0.6,1.4,0.4c1.3-0.6,3.9-1.8,4.9-2.3c0.3-0.1,0.6-0.4,0.7-0.7l3.3-6.2C45.9-450.6,45.3-451.1,44.9-450.9"/>
						<path id="Tracé_4518_00000085951433279362501120000011234445895134888348_" class="st3" d="M41.7-453.2l-5.2,4.9
							c-0.3,0.2-0.7,0.3-1,0.1l-5.7-4.2c-0.3-0.2-1,0.1-0.9,0.5l1.9,6.7c0.1,0.3,0.3,0.6,0.6,0.8c0.8,0.7,3.1,2.3,4.3,3.2
							c0.4,0.3,1,0.3,1.4-0.1c1.1-1,3.1-3,3.9-3.7c0.2-0.2,0.4-0.5,0.4-0.9l1.1-6.9C42.7-453.2,42-453.5,41.7-453.2z"/>
						<path id="Tracé_4519_00000183211065803181587170000016960045276015268751_" class="st5" d="M69.2-403.3
							c0.1-1,0.2-1.7,0.2-1.7c0-0.3,0.2-0.6,0.5-0.6c0.3,0,0.6,0.2,0.6,0.5c0,0,0,0,0,0c0,0,0.1,0.8,0.2,1.7c0.2,0,0.4,0,0.5,0
							c0.7,0,1.2,0.1,1.2,0.1c0.3,0,0.5,0.2,0.5,0.6c0,0.3-0.2,0.5-0.5,0.5c0,0-0.5,0.1-1.2,0.1c-0.2,0-0.3,0-0.5,0
							c0,0.2,0,0.4,0,0.5c0,0.7-0.1,1.2-0.1,1.2c0,0.3-0.2,0.6-0.5,0.6c-0.3,0-0.6-0.2-0.6-0.5c0,0,0,0,0,0c0,0-0.1-0.5-0.1-1.2
							c0-0.2,0-0.4,0-0.5c-0.9-0.1-1.7-0.2-1.7-0.2c-0.3,0-0.6-0.2-0.6-0.5c0-0.3,0.2-0.6,0.5-0.6c0,0,0,0,0,0
							C68-403.2,68.6-403.3,69.2-403.3"/>
						<path id="Tracé_4520_00000045578717616132416920000014398273395867320242_" class="st5" d="M36.5-383.8
							c0.1-1,0.2-1.7,0.2-1.7c0-0.3,0.2-0.5,0.6-0.5c0.3,0,0.5,0.2,0.5,0.5c0,0,0.1,0.8,0.2,1.7c0.2,0,0.4,0,0.5,0
							c0.7,0,1.2,0.1,1.2,0.1c0.3,0,0.5,0.2,0.5,0.6c0,0.3-0.2,0.5-0.5,0.5c0,0-0.5,0.1-1.2,0.1c-0.2,0-0.3,0-0.5,0
							c0,0.2,0,0.4,0,0.5c0,0.7-0.1,1.2-0.1,1.2c0,0.3-0.2,0.6-0.5,0.6c-0.3,0-0.6-0.2-0.6-0.5c0,0,0,0,0,0c0,0-0.1-0.5-0.1-1.2
							c0-0.2,0-0.4,0-0.5c-0.9-0.1-1.7-0.2-1.7-0.2c-0.3,0-0.5-0.2-0.5-0.6c0-0.3,0.2-0.5,0.5-0.5C35.4-383.7,36-383.7,36.5-383.8"
							/>
						<path id="Tracé_4521_00000012439181825946792940000004569597365052356508_" class="st1" d="M-12.5-388.1
							C-8.9-388-6-385-6-381.4c-0.1,3.6-3.1,6.5-6.7,6.5c-3.6-0.1-6.5-3-6.5-6.6C-19.2-385.2-16.2-388.1-12.5-388.1"/>
						<path id="Tracé_4522_00000098210167469433569170000010916622450707531931_" class="st3" d="M-12.5-386.2
							c2.6,0.1,4.6,2.2,4.6,4.8c-0.1,2.6-2.2,4.6-4.8,4.6c-2.5-0.1-4.6-2.1-4.6-4.7C-17.2-384.1-15.1-386.2-12.5-386.2"/>
						<path id="Tracé_4523_00000026161795718441198130000015465263943529331601_" class="st1" d="M-12.3-386.7
							c-0.4,0-0.8-0.3-0.8-0.8v-2.9c0-0.4,0.4-0.8,0.8-0.8c0.4,0,0.8,0.4,0.8,0.8v2.9C-11.5-387-11.8-386.7-12.3-386.7"/>
						<path id="Tracé_4524_00000018954208202833950300000006393582880410005648_" class="st4" d="M-11.7-378.9h-1
							c-0.1,0-0.2-0.1-0.2-0.2v-3.9c0-0.1-0.1-0.2-0.2-0.2h-0.7c-0.1,0-0.2-0.1-0.2-0.2v-0.8c0-0.1,0.1-0.2,0.2-0.2h2
							c0.1,0,0.2,0.1,0.2,0.2v5.1C-11.5-378.9-11.6-378.9-11.7-378.9"/>
						<path id="Tracé_4525_00000118376265343215217660000016336573703321136770_" class="st2" d="M-12.3-389.9
							c-8.6,0-15.1-12.6-15.3-13.1c-0.2-0.4,0-0.9,0.3-1c0,0,0,0,0,0c0.4-0.2,0.9,0,1.1,0.4c0.1,0.1,6.3,12.2,13.9,12.2
							c7.3,0,9.7-11.9,9.7-12c0.1-0.4,0.5-0.7,0.9-0.6c0.4,0.1,0.7,0.5,0.6,0.9c0,0,0,0,0,0C-1.1-402.7-3.6-389.9-12.3-389.9"/>
						<path id="Tracé_4526_00000046338610279723121770000011440575355946183575_" class="st4" d="M-27.6-246.7
							c-0.1,1.2,0.8,2.3,2.1,2.3c1.2,0.1,2.3-0.8,2.3-2.1c0-0.1,0-0.2,0-0.3V-262h-4.4V-246.7z"/>
						<path id="Tracé_4527_00000178185192745195310490000013444273202053112198_" class="st3" d="M-25.4-279.5
							c-1.2,0-2.2,1-2.2,2.2v15.3h4.4v-15.3C-23.2-278.6-24.2-279.5-25.4-279.5"/>
						<path id="Tracé_4528_00000054966273563637120630000006237994164097749152_" class="st3" d="M-19-261.9l2.3,15.6
							c0.3,1.2,1.4,1.9,2.6,1.7c1.1-0.2,1.8-1.2,1.7-2.3l-2.2-14.9l0-0.1L-19-261.9L-19-261.9z"/>
						<path id="Tracé_4529_00000077284468926768925140000012751295813145905835_" class="st4" d="M-12.7-278.7
							c-0.7-1-2.1-1.2-3.1-0.4c-0.5,0.3-0.8,0.9-0.9,1.4L-19-262h4.4l2.2-15C-12.2-277.6-12.4-278.2-12.7-278.7"/>
						<path id="Tracé_4530_00000106134877286464448510000010706850047362353579_" class="st4" d="M-4.7-261.9L-7.1-247
							c-0.2,1.2,0.6,2.3,1.8,2.5c0.1,0,0.2,0,0.3,0c1.1,0,2-0.8,2.2-1.8l2.5-15.6l0-0.1L-4.7-261.9L-4.7-261.9z"/>
						<path id="Tracé_4531_00000140736505147045143650000014840760573059628166_" class="st3" d="M-5.2-279.5L-5.2-279.5
							c-1.2,0.2-2,1.3-1.8,2.5l2.4,15h4.4l-2.5-15.7C-2.9-278.8-4-279.6-5.2-279.5"/>
						<path id="Tracé_4532_00000156569374595329108770000003768030938190348449_" class="st3" d="M3-246.7c0,1.2,1,2.2,2.2,2.2
							c1.2,0,2.2-1,2.2-2.2c0,0,0,0,0,0V-262H3V-246.7z"/>
						<path id="Tracé_4533_00000139974781341965396890000009851898044552429214_" class="st4" d="M5.2-279.6c-1.2,0-2.2,1-2.2,2.2
							v15.3h4.4v-15.3C7.4-278.6,6.4-279.5,5.2-279.6"/>
					</g>
				</g>
			</g>
		</g>
	</g>
	<g id="TEXTES_GB">
	</g>
</g>
</svg>
