<?xml version="1.0" encoding="utf-8"?>
<!-- Generator: Adobe Illustrator 26.2.1, SVG Export Plug-In . SVG Version: 6.00 Build 0)  -->
<svg version="1.1" xmlns="http://www.w3.org/2000/svg" xmlns:xlink="http://www.w3.org/1999/xlink" x="0px" y="0px"
	 viewBox="0 0 92.0536423 56.5019989" style="enable-background:new 0 0 92.0536423 56.5019989;" xml:space="preserve">
<style type="text/css">
	.st0{fill:url(#FOND_00000144314786197413785090000015086594283704937363_);}
	.st1{fill:url(#FOND_00000067929123558686448850000016270174305083897224_);}
	.st2{fill:#FFF5F7;}
	.st3{fill:url(#FOND_00000034065354896446885200000010497000985972283524_);}
	.st4{fill:url(#FOND_00000183939868926443730760000001117966011599667094_);}
	.st5{fill:url(#FOND_00000146495679641488371290000003678127190829863054_);}
	.st6{fill:url(#FOND_00000142156438204892524980000006047385836041095601_);}
	.st7{fill:url(#FOND_00000139258913367292777270000001916060269649205403_);}
	.st8{fill:url(#FOND_00000144303673461353513960000011147346175682233270_);}
	.st9{fill:url(#FOND_00000021082236121264587920000016627331556174758300_);}
	.st10{fill:url(#FOND_00000129889357124368550700000011027744178002701478_);}
	.st11{fill:#272F60;}
	.st12{fill:#FD657C;}
	.st13{fill:url(#FOND_00000059306484116268367470000005975935739369314742_);}
	.st14{fill:url(#FOND_00000045607368564062954320000016115766214333812353_);}
	.st15{fill:#F4AAB9;}
	.st16{clip-path:url(#Rectangle_10_00000017507062569645702370000009686660337215000237_);}
	.st17{fill:#FB657C;}
	.st18{fill:#FFFFFF;}
	.st19{fill:#FFBCC6;}
	.st20{clip-path:url(#SVGID_00000156573436385721256530000015806149331279711133_);}
	.st21{enable-background:new    ;}
	.st22{fill:#FB657C;stroke:#FD657C;stroke-width:3.8352001;stroke-linecap:round;stroke-linejoin:round;stroke-miterlimit:1.4382;}
	.st23{fill:#FFBCC6;stroke:#FFBCC6;stroke-width:3.8352001;stroke-linecap:round;stroke-linejoin:round;stroke-miterlimit:1.4382;}
	.st24{clip-path:url(#SVGID_00000008117588454802914510000016489719317850130091_);fill:#FB657C;}
	.st25{clip-path:url(#SVGID_00000094597154502148688540000015749581804418062252_);fill:#FFBCC6;}
	.st26{clip-path:url(#SVGID_00000043456814761648164200000008466687972293644965_);fill:#FFBCC6;}
	.st27{clip-path:url(#SVGID_00000038411979619356708160000007373644284051477650_);fill:#FFBCC6;}
	.st28{clip-path:url(#SVGID_00000008836433737564935060000015940906169624607903_);fill:#FFBCC6;}
	.st29{clip-path:url(#SVGID_00000143584662532995948200000001411699347578054304_);fill:#FFBCC6;}
	.st30{clip-path:url(#SVGID_00000160911971083302289800000014077038208944403388_);fill:#FFBCC6;}
	.st31{clip-path:url(#SVGID_00000099657383493609057650000003750496005758301109_);fill:#FFBCC6;}
	.st32{clip-path:url(#SVGID_00000108267036762855879560000012795125667093287852_);fill:#FFBCC6;}
	.st33{clip-path:url(#SVGID_00000064329958449308269640000005565977009436443281_);fill:#FFBCC6;}
	.st34{clip-path:url(#SVGID_00000084513231210013801760000007749640091508290750_);fill:#FFBCC6;}
	.st35{clip-path:url(#SVGID_00000007420774710079724600000013421917025928774036_);fill:#FFBCC6;}
	.st36{clip-path:url(#SVGID_00000135685674419052697110000003827872934119305627_);fill:#FFBCC6;}
	.st37{clip-path:url(#SVGID_00000097484256354889028910000003360049973393564853_);fill:#FFBCC6;}
	.st38{clip-path:url(#SVGID_00000050630490418711762750000008990127147651180221_);fill:#FFBCC6;}
	.st39{clip-path:url(#SVGID_00000104687203697333568030000006688688225549802634_);fill:#272F60;}
	.st40{clip-path:url(#SVGID_00000104687203697333568030000006688688225549802634_);fill:#FB657C;}
	.st41{clip-path:url(#SVGID_00000104687203697333568030000006688688225549802634_);fill:#FFBCC6;}
	.st42{clip-path:url(#SVGID_00000104687203697333568030000006688688225549802634_);fill:#FFFFFF;}
	.st43{fill:none;}
	.st44{clip-path:url(#SVGID_00000137099256947730240400000016949947550269444754_);fill:#FFFFFF;}
	.st45{clip-path:url(#SVGID_00000075876828303140960130000004977567634961702313_);fill:#FFFFFF;}
	.st46{clip-path:url(#SVGID_00000022534098680197068890000013149532553353854119_);fill:#FFFFFF;}
	.st47{clip-path:url(#SVGID_00000062153113343033276980000010580101767154077589_);fill:#FFFFFF;}
	.st48{clip-path:url(#SVGID_00000052817788546719074700000003498789641624057233_);fill:#FFFFFF;}
	.st49{clip-path:url(#SVGID_00000098943771381574686870000000614184463162526599_);fill:#FFFFFF;}
	.st50{clip-path:url(#SVGID_00000009573768267648020790000010722649178652895378_);fill:#FFFFFF;}
	.st51{clip-path:url(#SVGID_00000042018010896237969870000015847690483213424062_);fill:#FFFFFF;}
	.st52{clip-path:url(#SVGID_00000130615863945110664400000012501806278095700668_);fill:#FFFFFF;}
	.st53{clip-path:url(#SVGID_00000163040037244323298200000003036927648078681481_);fill:#FFFFFF;}
	.st54{clip-path:url(#SVGID_00000090290710082897502130000009767971642396904363_);fill:#FFFFFF;}
	.st55{clip-path:url(#SVGID_00000123424591642183646130000012922940683991758754_);fill:#FFFFFF;}
	.st56{clip-path:url(#SVGID_00000132067992103162012590000006407167301147631268_);fill:#FB657C;}
	.st57{clip-path:url(#SVGID_00000119839037469412805460000007287360782067977373_);fill:#FFFFFF;}
	.st58{clip-path:url(#SVGID_00000111900564517041977870000005144006981149391802_);fill:#FFFFFF;}
	.st59{fill:#FF647B;}
	.st60{fill:#FF657C;}
	.st61{fill:#272E5F;}
	.st62{fill:none;stroke:#272E5F;stroke-width:3;}
	.st63{clip-path:url(#SVGID_00000087371413110283275830000003556691595977485734_);}
	.st64{fill:#606060;}
	.st65{fill:#E94B67;}
	.st66{fill:#132350;}
	.st67{fill:#050605;}
	.st68{fill:#FFF5F7;stroke:#272E5F;stroke-width:2;}
	.st69{fill:none;stroke:#272E5F;stroke-width:2;stroke-linecap:round;stroke-linejoin:round;stroke-miterlimit:10;}
	.st70{fill:none;stroke:#272E5F;stroke-width:2;}
	.st71{fill:none;stroke:#272E5F;stroke-width:3;stroke-linecap:round;stroke-linejoin:round;stroke-miterlimit:10;}
	.st72{fill:none;stroke:#142664;stroke-width:2;stroke-linecap:round;stroke-linejoin:round;stroke-miterlimit:10;}
	.st73{clip-path:url(#SVGID_00000154410331135525307570000001068739979156073644_);}
	.st74{clip-path:url(#SVGID_00000039816618323994532970000016465714559996239273_);}
	.st75{clip-path:url(#SVGID_00000157301900209558420890000009979129699886099135_);fill:#FD657C;}
	.st76{clip-path:url(#SVGID_00000156547598160279820680000000654771543069354918_);fill:#FD657C;}
	.st77{clip-path:url(#SVGID_00000026861347294049067280000009980459319804415654_);}
	.st78{clip-path:url(#SVGID_00000072973146990714519190000003890949346741660573_);}
	.st79{clip-path:url(#SVGID_00000021096758454475868890000010890565505614223516_);}
	.st80{fill:none;stroke:#142664;stroke-width:3;stroke-linecap:round;stroke-linejoin:round;}
	.st81{clip-path:url(#SVGID_00000071522114472124504920000006766765573954877882_);}
	.st82{clip-path:url(#SVGID_00000067228828410490877150000011816371743095146914_);}
	.st83{clip-path:url(#SVGID_00000043437920538279846420000000342909329649766804_);}
	.st84{clip-path:url(#SVGID_00000168839760201646924510000002786356504171625858_);}
	.st85{clip-path:url(#SVGID_00000080200950942801934510000014644182818713914033_);}
	.st86{clip-path:url(#SVGID_00000119088097167439753240000008829352460924213947_);}
	.st87{clip-path:url(#SVGID_00000017515317030684875630000007751806690753821844_);}
	.st88{clip-path:url(#SVGID_00000033357870366953449160000007251255168436017578_);}
	.st89{clip-path:url(#SVGID_00000014611106357924846720000005155322616106490253_);}
	.st90{clip-path:url(#SVGID_00000173877795833992589800000000081447361068418436_);}
	.st91{clip-path:url(#SVGID_00000134209146240041389670000006189809605571550891_);}
	.st92{clip-path:url(#SVGID_00000060724964015136825000000003085012358031258255_);}
	.st93{clip-path:url(#SVGID_00000127761803144981231330000007142961606229930662_);}
	.st94{clip-path:url(#SVGID_00000138557394538438448930000001192571309360937121_);}
	.st95{clip-path:url(#SVGID_00000166661879660176366500000008091680892485681284_);}
	.st96{clip-path:url(#SVGID_00000026842732117845357300000007405296892770999728_);}
	.st97{clip-path:url(#SVGID_00000070820542185757599170000004084764314096124073_);}
	.st98{clip-path:url(#SVGID_00000094595576352049126350000008462965901768203679_);}
	.st99{clip-path:url(#SVGID_00000068648860324638519960000003661540170987854227_);}
	.st100{clip-path:url(#SVGID_00000057828347051371909730000007657535870219518366_);}
	.st101{clip-path:url(#SVGID_00000132804380794725174060000009697667420200220570_);}
	.st102{clip-path:url(#SVGID_00000149347186798094941470000012480624388193511100_);}
	.st103{clip-path:url(#SVGID_00000056421573574865796340000009717672719019493259_);}
	.st104{clip-path:url(#SVGID_00000099656309899574321790000002116647755673496755_);}
	.st105{clip-path:url(#SVGID_00000101798358965246762010000010662428275813672322_);}
	.st106{clip-path:url(#SVGID_00000046315161227859915020000009663578785834432902_);}
	.st107{clip-path:url(#SVGID_00000074418579988071929620000013197401830752197019_);}
	.st108{clip-path:url(#SVGID_00000158728070297011096870000001747552755333077649_);}
	.st109{clip-path:url(#SVGID_00000056428490596733623960000004558506191342071219_);}
	.st110{clip-path:url(#SVGID_00000045614994691054968290000006274758021733877921_);}
	.st111{clip-path:url(#SVGID_00000084511754855588829090000014486472145622381736_);}
	.st112{clip-path:url(#SVGID_00000175288327057397436640000001074494840037169308_);}
	.st113{clip-path:url(#SVGID_00000137845271553759752740000001887873097650577799_);}
	.st114{clip-path:url(#SVGID_00000183961240690334051130000003770060034395514534_);}
	.st115{clip-path:url(#SVGID_00000016038604068761477130000015932096485770880428_);}
	.st116{clip-path:url(#SVGID_00000038382034232047872680000001163043938690259363_);}
	.st117{clip-path:url(#SVGID_00000069379919202836509860000001412641766642234252_);}
	.st118{clip-path:url(#SVGID_00000038387329622634447910000013335132369549407404_);}
	.st119{clip-path:url(#SVGID_00000002370785812120533790000003832202816863357575_);}
	.st120{clip-path:url(#SVGID_00000119834399913146490450000005840159043605541011_);}
	.st121{clip-path:url(#SVGID_00000027604512978644265990000006307831474624123303_);}
	.st122{clip-path:url(#SVGID_00000124146071920151536940000002246998871761489598_);}
	.st123{clip-path:url(#SVGID_00000145020638486819665990000008212986936693087393_);}
	.st124{fill:#FFFFFF;stroke:#142664;stroke-width:3;stroke-linecap:round;stroke-linejoin:round;}
	.st125{clip-path:url(#SVGID_00000142158082775431890120000016981616002446993084_);}
	.st126{fill-rule:evenodd;clip-rule:evenodd;fill:#FFBCC6;}
	.st127{fill-rule:evenodd;clip-rule:evenodd;fill:#272F60;}
	.st128{fill-rule:evenodd;clip-rule:evenodd;fill:#FFFFFF;}
	.st129{fill-rule:evenodd;clip-rule:evenodd;fill:#FB657C;}
	.st130{clip-path:url(#SVGID_00000103248936625991763840000005552108361854246547_);}
	.st131{clip-path:url(#SVGID_00000018213972141002706360000001000206452756485554_);}
	.st132{clip-path:url(#SVGID_00000101103891062454420140000008024249931602096011_);}
	.st133{clip-path:url(#SVGID_00000108276233324151272730000001711717989032743103_);}
	.st134{clip-path:url(#SVGID_00000024707236957926798180000011715501184897688228_);}
	.st135{clip-path:url(#SVGID_00000142893517935979761760000011876854554271413143_);}
	.st136{clip-path:url(#SVGID_00000131365684518850276620000016238182739613370271_);}
	.st137{clip-path:url(#SVGID_00000026127660739769304620000000006036954273537921_);}
	.st138{clip-path:url(#SVGID_00000172436106088480895660000008000262825728706984_);}
	.st139{clip-path:url(#SVGID_00000168097743759187075280000009615768687824610731_);}
	.st140{clip-path:url(#SVGID_00000018927573228514122330000000895934504024198824_);}
	.st141{clip-path:url(#SVGID_00000158719611850151144990000014373690974669596288_);}
	.st142{clip-path:url(#SVGID_00000090256309668597659720000014453377891927773111_);}
	.st143{clip-path:url(#SVGID_00000160189131225707298290000004610243591367826874_);}
	.st144{clip-path:url(#SVGID_00000129171209064519933720000014974286054550955702_);}
	.st145{clip-path:url(#SVGID_00000132793849710622271990000006350656639449194393_);}
	.st146{clip-path:url(#SVGID_00000181045107675395146270000014089296629468717472_);}
	.st147{clip-path:url(#SVGID_00000169547447912718631610000016537681775925924263_);}
	.st148{clip-path:url(#SVGID_00000016065774241458226530000012140381620662410397_);}
	.st149{clip-path:url(#SVGID_00000176045207066923273310000009346888565076462233_);}
	.st150{clip-path:url(#SVGID_00000082359347902724281640000005419827008858983867_);}
	.st151{clip-path:url(#SVGID_00000183962107556933655900000016644401015436213183_);}
	.st152{clip-path:url(#SVGID_00000140731127721191923140000002303787418381776539_);}
	.st153{clip-path:url(#SVGID_00000098184756668346253560000005106630881857541817_);}
	.st154{clip-path:url(#SVGID_00000112615480032396837960000006155399083511750034_);}
	.st155{clip-path:url(#SVGID_00000040565073669896856460000016353531141232272303_);}
	.st156{clip-path:url(#SVGID_00000158013956378948086130000004210701845115763081_);}
	.st157{clip-path:url(#SVGID_00000115485150395043890520000011853769238928187549_);}
	.st158{clip-path:url(#SVGID_00000091697362538623068900000013859179544179046841_);}
	.st159{clip-path:url(#SVGID_00000049907512274791921360000013832168064079568317_);}
	.st160{clip-path:url(#SVGID_00000010303948948978013160000002466885484075415476_);}
	.st161{clip-path:url(#SVGID_00000173118668585040648540000001582573313580502696_);}
	.st162{clip-path:url(#SVGID_00000109730098355400474900000014607399037899522701_);}
	.st163{clip-path:url(#SVGID_00000029729139416857967700000011504821869535333561_);}
	.st164{clip-path:url(#SVGID_00000148628285233714149310000014214009939860997039_);}
	.st165{clip-path:url(#SVGID_00000170251173375676390630000015014850742607033750_);}
	.st166{clip-path:url(#SVGID_00000090297056159576238590000002457975441767110574_);}
	.st167{clip-path:url(#SVGID_00000111903309758192621320000008099400576421826949_);}
	.st168{clip-path:url(#SVGID_00000156557491548534309450000002819236861462219186_);}
	.st169{clip-path:url(#SVGID_00000069384437098142620740000014379145394893670529_);}
	.st170{clip-path:url(#SVGID_00000080887748919011615150000014245857248336846738_);}
	.st171{clip-path:url(#SVGID_00000109000315121604614740000012346663907975905182_);}
	.st172{clip-path:url(#SVGID_00000094617763206752595300000008290261389550898350_);}
	.st173{clip-path:url(#SVGID_00000017503899403606221120000001141864139202943131_);}
	.st174{clip-path:url(#SVGID_00000129898579481582165630000011229911760609119139_);}
	.st175{clip-path:url(#SVGID_00000025442572619187275530000000370208788482816151_);}
	.st176{clip-path:url(#SVGID_00000052072426156127509740000013126392183106887606_);}
	.st177{clip-path:url(#SVGID_00000173147782155772640390000011831571792150997431_);}
	.st178{clip-path:url(#SVGID_00000072240677201911595030000014906037733205662888_);}
	.st179{clip-path:url(#SVGID_00000098181239688401329630000016323584984108731784_);}
	.st180{clip-path:url(#SVGID_00000086651921149522376960000017766924871729076648_);}
	.st181{clip-path:url(#SVGID_00000158008419811994016310000014199372625341964957_);}
	.st182{clip-path:url(#SVGID_00000082355740861463863110000005330568971667933880_);}
	.st183{clip-path:url(#SVGID_00000183237256382051787190000004825986777184427929_);}
	.st184{clip-path:url(#SVGID_00000093164418655032084900000015629830494752889747_);}
	.st185{clip-path:url(#SVGID_00000086675505924512021310000014653264556125129910_);}
	.st186{clip-path:url(#SVGID_00000151531943273632643790000009241396724100806797_);}
	.st187{clip-path:url(#SVGID_00000139981074789328987900000012924158515985118119_);}
	.st188{clip-path:url(#SVGID_00000162316931903547695190000005299206574294342806_);}
	.st189{clip-path:url(#SVGID_00000029759152331999927410000005374329239346847657_);}
	.st190{clip-path:url(#SVGID_00000121979530031733241260000000525873737069583038_);}
	.st191{clip-path:url(#SVGID_00000100365341152267448280000015296469807228691338_);}
	.st192{clip-path:url(#SVGID_00000017476392618118931710000012036110620611474341_);}
	.st193{clip-path:url(#SVGID_00000085240559850821872430000003547332105072661672_);}
	.st194{clip-path:url(#SVGID_00000181067160620632565250000002998348677148634008_);}
	.st195{clip-path:url(#SVGID_00000072278697395445466290000012289590325108136362_);}
	.st196{clip-path:url(#SVGID_00000178200426431648421020000007776982001294080443_);}
	.st197{clip-path:url(#SVGID_00000158728724003132586920000007735438846210683324_);}
	.st198{clip-path:url(#SVGID_00000065767390734134563690000008530209688559299209_);}
	.st199{clip-path:url(#SVGID_00000150785709096857087940000002763367680606672293_);}
	.st200{clip-path:url(#SVGID_00000067204170121418262830000006046325835785059249_);}
	.st201{clip-path:url(#SVGID_00000032650923696604653050000013980462871620898975_);}
	.st202{clip-path:url(#SVGID_00000128465160686433991530000006040586997343883950_);}
	.st203{clip-path:url(#SVGID_00000084523787744751044290000016514101921831001015_);}
	.st204{clip-path:url(#SVGID_00000172399091949628073090000009463326290444423325_);}
	.st205{clip-path:url(#SVGID_00000070798428403175369060000016855652627510874551_);}
	.st206{clip-path:url(#SVGID_00000057132496800537930630000005732282404495414446_);}
	.st207{clip-path:url(#SVGID_00000024690187437824670150000012015013447252188085_);}
	.st208{clip-path:url(#SVGID_00000031906827641757737390000002909265867189778822_);}
	.st209{clip-path:url(#SVGID_00000039114810690931592530000011079756763909858222_);}
	.st210{clip-path:url(#SVGID_00000139289172229423126240000004731779952378280846_);}
	.st211{clip-path:url(#SVGID_00000088830188763748900700000002719731763595258273_);}
	.st212{clip-path:url(#SVGID_00000117669225716867090500000007832126750941168296_);}
	.st213{clip-path:url(#SVGID_00000157288364266708837700000015952064950090833835_);}
	.st214{clip-path:url(#SVGID_00000088843683813900642020000000491876340578823815_);}
	.st215{clip-path:url(#SVGID_00000101785522524018186930000005199042144383568532_);}
	.st216{clip-path:url(#SVGID_00000106127485074422908250000014738811324699887769_);}
	.st217{clip-path:url(#SVGID_00000023282138287160565270000008107490727239013055_);}
	.st218{clip-path:url(#SVGID_00000038396909596341604790000007504608490751495296_);}
	.st219{clip-path:url(#SVGID_00000110449779134501079390000006528082065018172337_);}
	.st220{clip-path:url(#SVGID_00000059295697276206453160000012009071966214287023_);}
	.st221{clip-path:url(#SVGID_00000146483868238791738740000005577476577413164728_);}
	.st222{clip-path:url(#SVGID_00000059270766869828806400000014602340057307161274_);}
	.st223{clip-path:url(#SVGID_00000162336890082340671630000006920719259183286709_);}
	.st224{clip-path:url(#SVGID_00000026126310928044333920000005567110199341689004_);}
	.st225{clip-path:url(#SVGID_00000057870306083867396820000006354555470358584480_);}
	.st226{clip-path:url(#SVGID_00000104700102429336748290000014777737702344425918_);}
	.st227{clip-path:url(#SVGID_00000177456445472278138690000001466636270691122608_);}
	.st228{clip-path:url(#SVGID_00000143603323443624508560000002656506985169659564_);}
	.st229{clip-path:url(#SVGID_00000085954491661048230850000004124982755358335665_);}
	.st230{clip-path:url(#SVGID_00000121257140384602121080000005691969641950697895_);}
	.st231{clip-path:url(#SVGID_00000020367916637535583370000003148771519658998971_);}
	.st232{clip-path:url(#SVGID_00000122691454349869008500000006054361695954587014_);}
	.st233{clip-path:url(#SVGID_00000014605921475570433100000011397891170007824544_);}
	.st234{clip-path:url(#SVGID_00000166642581598259533100000009256976899738269831_);}
	.st235{clip-path:url(#SVGID_00000049922803103037828270000004475674473435553468_);}
	.st236{clip-path:url(#SVGID_00000018930226151948811090000004301688260236230841_);}
	.st237{clip-path:url(#SVGID_00000010990561769027232610000001365037514426200964_);}
	.st238{clip-path:url(#SVGID_00000168077095538576452440000017225376144771066046_);}
	.st239{clip-path:url(#SVGID_00000002353921255783775980000016263109529737738397_);}
	.st240{clip-path:url(#SVGID_00000076573396720482410400000007648469662608286341_);}
	.st241{clip-path:url(#SVGID_00000174592458253891687780000003158384591217349766_);}
	.st242{clip-path:url(#SVGID_00000145042871547313593640000010686773364469341369_);}
	.st243{clip-path:url(#SVGID_00000170975421676124954080000004063785425870455425_);}
	.st244{clip-path:url(#SVGID_00000019647671901537939140000005680411868938722198_);}
	.st245{clip-path:url(#SVGID_00000001635628836745705650000000219045084746332315_);}
	.st246{clip-path:url(#SVGID_00000023283530913855396160000010281539137406649762_);}
	.st247{clip-path:url(#SVGID_00000059276452487297056970000016476779292115777677_);}
	.st248{clip-path:url(#SVGID_00000095323108314745305250000018370167965199173546_);}
	.st249{clip-path:url(#SVGID_00000144325136856016864770000011637609870563845038_);}
	.st250{clip-path:url(#SVGID_00000055672584639294750700000016642048003196895365_);}
	.st251{clip-path:url(#SVGID_00000097501752785932298670000013349862681660482958_);}
	.st252{clip-path:url(#SVGID_00000168808171108230531960000003167023948565299381_);}
	.st253{clip-path:url(#SVGID_00000145777992595921476730000003354036383296063926_);}
	.st254{clip-path:url(#SVGID_00000165928209925124554860000008977290502596097928_);}
	.st255{clip-path:url(#SVGID_00000102523907011309174880000017595500931746128538_);}
	.st256{clip-path:url(#SVGID_00000002343275359426198560000011892426575324181146_);}
	.st257{clip-path:url(#SVGID_00000075143103134536085740000006808351843746806943_);}
	.st258{clip-path:url(#SVGID_00000150060840214162641560000005728511710891294081_);}
	.st259{clip-path:url(#SVGID_00000018219073053726160110000005606472882891754427_);}
	.st260{fill:#E94966;}
	.st261{fill:#13224F;}
</style>
<g id="FONDS">
</g>
<g id="ILLUSTRATIONS">
	<g id="Groupe_1030" transform="translate(0 268.578)">
		<g>
			<g id="Groupe_453" transform="translate(0 -268.578)">
				<g id="Groupe_452" transform="translate(12.52 0)">
					<path id="Tracé_1673" class="st19" d="M65.7576294,49.4219971H1.6666276
						c-1.0122681-0.105835-1.7532654-1.0029449-1.6659851-2.0169983V0H67.423645v47.4049988
						c0.0872955,1.0140533-0.653717,1.9111786-1.6660004,2.0169983"/>
				</g>
			</g>
		</g>
		<g>
			<g id="Groupe_458" transform="translate(0 -268.578)">
				<g id="Groupe_454" transform="translate(0 29.306)">
					<path id="Tracé_1675" class="st11" d="M12.2966433,4.3910003C6.7366424-2.1969988,0.6816457,8.2400007,9.3106432,9.7550011
						h0.0050011c0.2791977,0.0656157,0.4561272,0.3407402,0.4000015,0.6219997c-0.0449715,0.6805906-0.0449715,1.363409,0,2.0439997
						c0.262001,2.0609999,0.9669991,3.3099995,2.5089989,3.5249996v0.7160006
						c-1.3718719,0.2763557-2.63237,0.9495468-3.625,1.9359989c-0.7585177,0.7533855-1.3399005,1.6661072-1.7019992,2.6720009
						c-0.1240005,0.3433342-0.2373352,0.710001-0.3400002,1.1000004C2.7166455,23.6620007,0.3706449,25.1569996,0.0076459,26.757
						c-0.0519981,0.2280006,0.1679993,0.4380016,0.4539986,0.4380016h91.1289978
						c0.2869949,0,0.5069962-0.210001,0.4550018-0.4380016c-0.3460007-1.5249996-2.4960022-2.9559994-6.0220032-4.2049999
						c-0.1062927-0.5016022-0.2421951-0.9964676-0.4069977-1.4820004c-0.2743149-0.9116116-0.7297363-1.7585087-1.3390045-2.4899998
						c-1.1383514-1.2838383-2.6906586-2.1281071-4.387001-2.3859997v-0.7629995
						c0.3907166-0.3778353,0.6559982-0.8665209,0.7600021-1.3999996c0.0400009-0.2090006,0.0749969-0.4169998,0.1070023-0.625
						c0.1689377-0.1920004,0.2959747-0.4171276,0.3729935-0.6610003c0.4677658-1.2955475,0.6648254-2.6732712,0.5790024-4.0480003
						c-0.1748428-1.5325503-0.9026566-2.9487119-2.0469971-3.9830003c-0.2812881-0.2683945-0.5950623-0.5005302-0.9340057-0.691
						c-0.2223206-0.1270692-0.3862839-0.33588-0.4570007-0.5820005c-0.2249985-0.7800007-0.2449951-0.9220009-0.2449951-0.9220009
						c-0.0080032-0.0550003-0.0270004-0.2000008-0.1270065-0.2530003c-0.1949997-0.1000004-0.5479965,0.2189999-0.5999985,0.2709999
						C77.20327,2.6261957,77.1182938,2.726959,77.0466385,2.8369977c-0.0261307,0.0422821-0.0815887,0.0553761-0.1238708,0.0292454
						c-0.0201187-0.0124283-0.0345306-0.0322742-0.0401306-0.0552444c-0.2419968-0.9629993-0.2190018-2.0869999-0.3689957-2.4239998
						c-0.4940033-1.1170006-2.2250061,0.2630005-3.0510025,2.7089996c-0.0166779,0.0468235-0.068161,0.0712605-0.1149826,0.0545807
						c-0.028244-0.0100613-0.0496216-0.0335255-0.0570145-0.0625801c-0.0785446-0.2462864-0.1318207-0.4999256-0.1590042-0.757
						c0.0042267-0.1127148-0.0441818-0.2209892-0.1309967-0.2929993c-0.215004-0.1270008-0.6360016,0.2140007-0.7000046,0.2749996
						c-1.0584717,1.1584721-1.5740814,2.712569-1.4179993,4.2740002c0,0.0120001,0,0.024333,0,0.0369997
						c0,0.0080004,0,0.0170002,0,0.026s0,0.0109997,0,0.0170002c0.0304565,0.3524017,0.1775436,0.6845875,0.4179993,0.9440002
						c0.1000061,0.1090002,0.2110062,0.2270002,0.3250046,0.3570004C71.6166382,8.085,71.609642,8.2030001,71.6106415,8.3250008
						c0.0067368,1.8295546,0.1592178,3.6556644,0.4559937,5.4609995c0.1046829,0.868269,0.6877518,1.6043472,1.5090027,1.9050007
						c0,0-0.0110016,0.4450006-0.0110016,0.7109995c-1.6108246,0.4226933-3.0232697,1.395092-3.9929962,2.7490005
						c-5.0559998-0.6060009-10.7409973-1.0270004-16.810997-1.2080002
						c-1.1571274-1.2717762-2.7210045-2.1009178-4.4230003-2.3450003c0-0.2680006-0.0119972-0.691-0.0119972-0.691
						c1.0359993-0.1999998,1.4319992-0.7810001,1.7089996-2.1999998c0.086853-0.46978,0.1492691-0.9437504,0.1870003-1.4200001
						c0.2789993,0.1289997,0.5859985-0.0360003,0.8289986-0.6000004c0.2083817-0.48382,0.3792191-0.9829607,0.5110016-1.493
						c1.26371-0.3893518,2.2243347-1.4223781,2.5209999-2.7110009c0.3481979-1.9028492-0.8734741-3.739557-2.7630005-4.1539993
						c-0.6912079-0.1187325-1.4016151-0.0496597-2.0569992,0.2000008c-0.1061401-0.110815-0.2257347-0.2079048-0.3560028-0.2889996
						c-0.300705-0.1820164-0.6362762-0.2988701-0.9849968-0.3430004c-1.8290138-0.3760147-3.7324753-0.0622158-5.3440018,0.8810005
						c-0.8639717-0.430685-1.8438911-0.5709743-2.7939987-0.3999996c-1.8743057,0.4794254-3.0324898,2.356838-2.6200027,4.2469997
						c0.3096352,1.1900549,1.1985855,2.1436839,2.3640022,2.5360007l0,0
						c-0.0480576,1.7387381,0.4877892,3.4434519,1.5219994,4.8419981c0.0846329,0.1632795,0.2856102,0.2270327,0.4488869,0.1423979
						c0.0582771-0.0302086,0.1063271-0.0769653,0.1381111-0.1343975c0.2681732,0.4728622,0.7322044,0.8024826,1.2670021,0.8999996
						c0,0-0.012001,0.4499998-0.012001,0.7160006c0,0.0129995,0,0.0249996,0,0.0369997l-0.25,0.0500002
						c-1.5589371,0.2821283-2.9796143,1.0751457-4.038002,2.2539997C32.8756409,18.1560001,27.503643,18.559,22.6886425,19.1340008
						c-1.0458221-1.2977486-2.5143204-2.1868458-4.1489983-2.512001c0-0.2539997-0.0110016-0.552-0.0110016-0.552
						c0.8212509-0.3006535,1.4043198-1.0367308,1.5089989-1.9049988c0.2812614-1.6986771,0.4327011-3.4163151,0.4529991-5.1380005
						c1.2630005-0.9860001,1.2150002-3.3360009,1.2150002-3.5410008c-0.0423279-1.2128487-1.0041313-2.1924474-2.2159996-2.2569997
						c-0.0499992,0-0.0999985,0-0.151001,0.0049992c-0.2307739,0.0030899-0.4583359,0.0545292-0.6679993,0.1509991
						C18.2856808,3.5343626,17.85116,3.4774568,17.5176411,3.233999c-0.4060669-0.3174076-0.9120865-0.4794617-1.4269981-0.4570007
						c-0.6977854,0.0588131-1.3273706,0.4421177-1.7000017,1.0349998c-0.1448288,0.237642-0.3914452,0.3949163-0.6679993,0.4260004"
						/>
				</g>
				<g id="Groupe_455" transform="translate(37.301 47.607)">
					<path id="Tracé_1676" class="st59" d="M16.4506416,1.1630006c-0.6952162-0.742918-1.6675253-1.1640701-2.6850004-1.1630001
						H3.6856394C1.6479349,0.003313-0.0015707,1.6572978,0.0006418,3.6950004v5.1999998h1.3949966V6.9270005
						C1.3917704,6.5442867,1.698884,6.2308989,2.0815973,6.2270293C2.0829477,6.227016,2.0842905,6.227006,2.0856409,6.2270002
						h13.2819977c0.3819542,0.0011015,0.6910009,0.3110456,0.6910009,0.6930003v1.9710002h1.394001V3.6910007
						c0.0017662-0.9406438-0.3559647-1.8464122-1-2.5320003"/>
				</g>
				<g id="Groupe_456" transform="translate(5.602 47.838)">
					<path id="Tracé_1677" class="st59" d="M11.4616413,0.0000003h-7.775002
						c-0.2329178-0.0003966-0.465332,0.0217059-0.6940002,0.066C1.2549568,0.4028511,0.0004364,1.9249712,0.001638,3.6950002
						v4.9649997h1.394001V6.9220004C1.3950859,6.5398202,1.7044579,6.2295537,2.086637,6.2290006h10.9770012
						c0.3821793,0.0005531,0.6915512,0.3108196,0.6909981,0.6929998v1.7379994h1.394001V3.6950002
						c0.0027618-2.0379291-1.647068-3.6922357-3.6849937-3.6949978C11.4629765,0.0000015,11.4623089,0.0000008,11.4616413,0.0000003
						"/>
				</g>
				<g id="Groupe_457" transform="translate(72.229 47.841)">
					<path id="Tracé_1678" class="st59" d="M12.0486431,0.0469996c-0.1940804-0.031451-0.3903885-0.0471689-0.5870018-0.047
						h-7.775002c-2.0380898,0.0027613-3.6882095,1.6569077-3.685997,3.6950002v4.9650002h1.394001V6.9249992
						c-0.0044174-0.3821554,0.301796-0.6955357,0.6839522-0.699954C2.0809455,6.225018,2.0832915,6.2250028,2.0856414,6.2249994
						h10.9780006c0.3819542,0.0011015,0.6910019,0.3110456,0.6910019,0.6929998v1.7420006h1.3919983V3.6949997
						c0.0018501-1.8119565-1.3114853-3.3574591-3.0999985-3.648"/>
				</g>
			</g>
		</g>
	</g>
	<g class="st21">
		<path class="st18" d="M24.6282787,11.6179733v8.1191406h-0.4433594v-8.1191406h-3.1660156v-0.4199219h6.7636719v0.4199219
			H24.6282787z"/>
		<path class="st18" d="M34.2513237,19.737114v-4.2216797h-5.2177715v4.2216797h-0.4433594v-8.5390625h0.4433594v3.8974609
			h5.2177715v-3.8974609h0.4550781v8.5390625H34.2513237z"/>
		<path class="st18" d="M37.4212456,11.6179733v3.5253906h4.4140625v0.4199219h-4.4140625v3.7539062h4.7861328v0.4199219h-5.2294922
			v-8.5390625h5.0732422v0.4199219H37.4212456z"/>
		<path class="st18" d="M49.4573784,11.6179733v3.5253906h4.4130859v0.4199219h-4.4130859v3.7539062h4.7851562v0.4199219H49.014019
			v-8.5390625h5.0722656v0.4199219H49.4573784z"/>
		<path class="st18" d="M61.5267143,19.737114l-2.4589844-3.9101562l-2.6503906-4.1855469H56.404644v4.4736328v3.6220703h-0.4433594
			v-8.5390625h0.6953125l2.4589844,3.9091797l2.6503906,4.1865234h0.0117188v-4.4736328v-3.6220703h0.4560547v8.5390625H61.5267143z
			"/>
		<path class="st18" d="M66.9036713,11.1980515c2.7949219,0,4.3417969,1.546875,4.3417969,4.2695312
			s-1.546875,4.2695312-4.3417969,4.2695312h-2.3984375v-8.5390625H66.9036713z M64.9485931,19.3171921h1.9550781
			c2.5068359,0,3.8740234-1.3789062,3.8740234-3.8496094s-1.3671875-3.8496094-3.8740234-3.8496094h-1.9550781V19.3171921z"/>
	</g>
</g>
<g id="TEXTES_FR">
</g>
<g id="TEXTES_GB">
</g>
</svg>
