<?xml version="1.0" encoding="utf-8"?>
<!-- Generator: Adobe Illustrator 26.2.1, SVG Export Plug-In . SVG Version: 6.00 Build 0)  -->
<svg version="1.1" id="Calque_1" xmlns="http://www.w3.org/2000/svg" xmlns:xlink="http://www.w3.org/1999/xlink" x="0px" y="0px"
	 viewBox="0 0 292.2 256.9" style="enable-background:new 0 0 292.2 256.9;" xml:space="preserve">
<style type="text/css">
	.st0{fill:#FFFFFF;}
	.st1{fill:#272F60;}
</style>
<g id="ILLUSTRATIONS">
	<g id="ICONO_00000005979151052062582600000010881628461549210776_" transform="matrix(0.966, 0.259, -0.259, 0.966, 68.587, 0)">
		<g>
			<g id="Groupe_1066_00000049192361666706807670000002864103765112957066_">
				<path id="Tracé_3405_00000110465755002355781100000004338019887473350791_" class="st0" d="M129.5,42.1c3.9,2,8.5,2.2,12.6,0.4
					c4-1.8,7-5.4,7.9-9.7c0.7-3.5,1.7-6.8,2.6-10.2c11.3-38.6,31.7-61.4,31.7-61.4c7.4-9.7,21.3-11.5,31-4.1
					c9.7,7.4,11.5,21.3,4.1,31c0,0-11.3,18.7-18.2,47.4c-3.6,14.2-5.2,28.9-4.8,43.5c0.5,11.3,2.6,25.8,29.3,39.1
					c2.8,1.4,4,4.8,2.6,7.6c-8.4,17.1-35.2,71.5-43.7,88.7c-1.4,2.8-4.9,4-7.8,2.5c0,0-0.1,0-0.1-0.1c-7.6-4.1-21.6-11.7-29.4-16
					c-3.2-1.7-7.1-1.5-10.1,0.7c-6.5,4.8-20.2,11.7-38.8,4.9c-26.7-9.8-93.3-41.5-102.8-47.2c-5.5-3.3-9.4-7.5-10.9-12.1
					c-7.1-5-11.7-8.8-11.7-8.8c-10.4-5.5-14.3-18.4-8.7-28.8c3.8-7,11.1-11.4,19.1-11.2c-9.4-7.1-11.2-20.4-4.1-29.7
					C-17.1,64-11.8,61-6,60.4c-9.9-6.3-12.7-19.5-6.4-29.3c5.3-8.2,15.5-11.8,24.8-8.6c-5-10.6-0.3-23.3,10.3-28.2
					c6.1-2.8,13.1-2.6,19.1,0.6c0,0,7.4,2.3,17.1,6.2C64.5,3.1,70,5.6,75.4,8.4c10.5,6,20.5,12.8,30,20.4c1.3,0.7,2.4,1.5,3.5,2.4
					C108.8,30.9,119.4,36.7,129.5,42.1"/>
				<path id="Tracé_3406_00000183947618987570131170000005324325535190991237_" class="st1" d="M98.1,38c4.4,2.5,6,8,3.5,12.4
					c-2.5,4.4-8,6-12.4,3.5c-4.4-2.5-2.9-6.3-0.4-10.8C91.1,38.9,93.6,35.5,98.1,38"/>
				<path id="Tracé_3407_00000083057713965397900520000002837656011479773076_" class="st1" d="M202.9-23.1c2.5-4.4,7.5-6.2,11-4.1
					c3.5,2.1,4.4,7.3,1.9,11.6s-5.7,3.2-9.3,1.1C203-16.6,200.5-18.8,202.9-23.1"/>
				<path id="Tracé_3408_00000126302272980658059180000013210764439683581321_" class="st1" d="M80.8,72.3c4.4,2.5,6,8,3.5,12.4
					c-2.5,4.4-8,6-12.4,3.5c-4.4-2.5-2.9-6.3-0.4-10.8C73.8,73.1,76.4,69.8,80.8,72.3"/>
				<path id="Tracé_3409_00000151535851741915447520000010822369991017146011_" class="st1" d="M61,105.6c4.4,2.5,6,8,3.5,12.4
					c-2.5,4.4-8,6-12.4,3.5l0,0c-4.4-2.5-2.9-6.3-0.4-10.8C54.1,106.3,56.7,103.1,61,105.6"/>
				<path id="Tracé_3410_00000108998964629965735260000015021069755180913837_" class="st1" d="M45.4,143.8c4.4,2.5,6,8,3.5,12.4
					s-8,6-12.4,3.5c-4.4-2.5-2.9-6.3-0.4-10.8C38.4,144.6,41,141.4,45.4,143.8"/>
				<path id="Tracé_3411_00000028323385646365162630000014755820019398751377_" class="st1" d="M93.3,69.6
					c-2.5-1.3-10.2-5.5-20-10.9c-6.3-3.5-13.6-7.5-20.7-11.5c-4.1-2.4-8.4-4.8-12.3-7c-15.8-9-28.7-16.7-28.7-16.7
					c-0.7-0.4-0.9-1.3-0.5-2c0.4-0.7,1.3-0.9,2-0.5c0,0,13.3,7.2,29.1,16c4,2.2,8.3,4.6,12.4,6.9c7.2,4,14.3,8.2,20.5,11.8
					c9.2,5.4,16.6,9.6,19.3,11.3h0.3c3.6,0.1,7.2-0.8,10.4-2.6c5.9-3.4,9.7-9.7,9.9-16.6c0.1-3.2-0.6-6.3-2-9.1
					c-0.4-0.7-0.1-1.6,0.6-2c0.7-0.4,1.6-0.1,2,0.6c1.7,3.2,2.5,6.8,2.4,10.5c0,3.6-0.9,7.2-2.6,10.4c-2,3.8-4.9,6.9-8.6,9
					c-2.8,1.6-5.8,2.7-9,3c1.5,2.9,2.4,6,2.6,9.2c0.6,9.1-4.1,17.6-12.1,21.9c-3,1.6-6.2,2.5-9.5,2.7c1.4,2.8,2.2,5.8,2.4,8.9
					c0.3,4.4-0.6,8.7-2.7,12.5c-2.1,3.9-5.3,7.2-9.1,9.3c-2.6,1.5-5.4,2.4-8.4,2.8c2.2,3,3.6,6.4,4.3,9.9c0.9,5,0,10.2-2.5,14.7
					c-3.3,6.1-7.8,9.7-13.7,11.1c-4.8,1-10.4,0.5-17.2-1.6c-5.5-1.6-10.9-3.5-16.2-5.6c-7.2-2.9-12.1-5.5-15.5-7.1
					c-0.7-0.3-1.1-1.2-0.7-2c0.3-0.7,1.2-1.1,2-0.7c0,0,0,0,0,0c3.3,1.6,8.3,4,15.4,6.8c5.2,2,10.6,3.8,16,5.3
					c6.1,1.9,11.3,2.4,15.5,1.3c4.9-1.1,8.5-4.2,11.2-9.3c4.1-7.8,2.5-17.4-4-23.4c-0.2-0.2-0.4-0.4-0.5-0.6
					c-2.5-1.2-9.1-4.5-17.3-8.5c-5.6-2.8-12-5.9-18.5-9.1c-3.7-1.9-7.5-3.8-11-5.7c-13.9-7.3-25.5-13.5-25.5-13.5
					c-0.7-0.4-1-1.2-0.7-2c0.4-0.7,1.2-1,2-0.7c0,0,0,0,0.1,0c0,0,11.8,5.7,25.8,12.6c3.6,1.8,7.4,3.6,11,5.5
					c6.3,3.2,12.7,6.5,18.3,9.4c8.1,4.2,14.6,7.7,17.1,9c0.2,0,0.3-0.1,0.5,0c3.7,0.2,7.4-0.7,10.6-2.5c3.2-1.8,5.9-4.5,7.6-7.8
					c1.7-3.2,2.5-6.8,2.3-10.4c-0.2-3.6-1.4-7-3.5-9.9c-0.1-0.1-0.1-0.2-0.2-0.4c-2.7-1.3-10.1-5-19.4-9.5
					c-6.2-3.1-13.4-6.6-20.4-10.3c-4.1-2.1-8.2-4.2-12.1-6.3c-15.5-8.1-28.2-15-28.2-15c-0.7-0.4-1-1.2-0.7-2c0.4-0.7,1.2-1,2-0.7
					c0,0,0,0,0.1,0c0,0,13.1,6.4,28.6,14.2c3.9,2,8.1,4,12.2,6.2C42.2,83,49.2,86.7,55.3,90c9.1,4.9,16.4,8.7,19.1,10.2
					c0.2,0,0.4-0.1,0.6,0c3.8,0.4,7.7-0.3,11.1-2.2c3.4-1.8,6.2-4.6,8-8c1.7-3.2,2.5-6.8,2.3-10.4C96.4,76,95.4,72.5,93.3,69.6"/>
				<path id="Tracé_3412_00000028297103607924689080000003552876049800773304_" class="st1" d="M32,67.7c0,0,0.9-1.6,2.2-3.8
					c0.6-1.1,1.3-2.5,2-3.8c0.4-0.8,0.7-1.7,1-2.4c1.2-3.1,2.2-5.7,2.2-5.7c0.3-0.7,0-1.6-0.7-2c-0.7-0.3-1.6,0-2,0.7l0,0
					c0,0-1.3,2.4-2.9,5.4c-0.4,0.8-0.8,1.6-1.1,2.4c-0.6,1.3-1.1,2.8-1.7,4c-0.9,2.4-1.6,4.1-1.6,4.1c-0.3,0.7,0,1.6,0.7,2
					C30.9,68.7,31.6,68.3,32,67.7"/>
				<path id="Tracé_3413_00000182518451954128526940000000755248032638547108_" class="st1" d="M-4.9,139.3c0,0,0.9-1.6,2.2-3.8
					c0.6-1.1,1.3-2.5,2-3.8c0.4-0.8,0.7-1.7,1-2.4c1.2-3.1,2.2-5.7,2.2-5.7c0.3-0.7,0-1.6-0.7-2c-0.7-0.3-1.6,0-2,0.7l0,0
					c0,0-1.3,2.4-2.9,5.4c-0.4,0.8-0.8,1.6-1.1,2.4c-0.6,1.3-1.1,2.8-1.7,4c-0.9,2.4-1.6,4.1-1.6,4.1c-0.3,0.7,0,1.6,0.7,2
					C-6,140.4-5.3,140-4.9,139.3"/>
				<path id="Tracé_3414_00000060709644345325896820000003540171688264280742_" class="st1" d="M53,28.4c0,0,0.9-1.6,2.2-3.8
					c0.6-1.1,1.3-2.5,2-3.8c0.4-0.8,0.7-1.7,1-2.4c1.2-3.1,2.2-5.7,2.2-5.7c0.3-0.7,0-1.6-0.7-2c-0.7-0.3-1.6,0-2,0.7
					c0,0-1.3,2.4-2.9,5.4c-0.4,0.8-0.8,1.6-1.1,2.4c-0.6,1.3-1.1,2.8-1.7,4c-0.9,2.4-1.6,4.1-1.6,4.1c-0.3,0.7,0,1.6,0.7,2
					C51.8,29.5,52.6,29.1,53,28.4"/>
				<path id="Tracé_3415_00000144321419001997096560000001979658001922757771_" class="st1" d="M42.9,67.5c0,0,0.6-0.9,1.3-2.2
					c0.4-0.7,0.8-1.5,1.2-2.3c0.2-0.5,0.4-1,0.5-1.5c0.6-1.9,1.1-3.4,1.1-3.4c0.3-0.7,0-1.6-0.7-2c-0.7-0.3-1.6,0-2,0.7
					c-0.7,1-1.3,2-1.9,3.1c-0.2,0.4-0.5,0.9-0.7,1.3c-0.4,0.8-0.6,1.7-0.9,2.4c-0.3,0.8-0.5,1.6-0.7,2.5c-0.3,0.7,0,1.6,0.7,2
					C41.7,68.5,42.5,68.2,42.9,67.5"/>
				<path id="Tracé_3416_00000000221948785037339410000011887060159016243591_" class="st1" d="M10.6,97.3c0,0,0.6-0.9,1.3-2.2
					c0.4-0.7,0.8-1.5,1.2-2.3c0.2-0.5,0.4-0.9,0.6-1.5C14.5,89.5,15,88,15,88c0.3-0.7,0-1.6-0.7-2c-0.7-0.3-1.6,0-2,0.7l0,0
					c-0.7,1-1.3,2-1.9,3.1c-0.2,0.4-0.5,0.9-0.7,1.3c-0.4,0.8-0.6,1.7-0.9,2.4c-0.3,0.8-0.5,1.6-0.7,2.5c-0.3,0.7,0,1.6,0.7,2
					C9.5,98.3,10.3,98,10.6,97.3"/>
				<path id="Tracé_3417_00000131359002371849578660000013414431836087359146_" class="st1" d="M22.7,61.1c0.3-0.4,0.7-0.7,0.9-1.1
					c0.3-0.4,0.5-0.7,0.7-1.1c0.1-0.3,0.2-0.5,0.3-0.8c0.2-0.6,0.3-1.2,0.4-1.9c0.3-0.7,0-1.6-0.7-2c-0.7-0.3-1.6,0-2,0.7l0,0
					c-0.5,0.5-0.9,1-1.2,1.6c-0.2,0.2-0.3,0.5-0.4,0.7c-0.2,0.4-0.3,0.9-0.4,1.3c-0.1,0.4-0.2,0.9-0.2,1.3c-0.3,0.7,0,1.6,0.7,2
					C21.5,62.2,22.3,61.8,22.7,61.1"/>
				<path id="Tracé_3418_00000066502492092629772540000011317788809602183564_" class="st1" d="M-9.9,126.1
					c0.3-0.4,0.7-0.7,0.9-1.1c0.3-0.4,0.5-0.7,0.7-1.1c0.1-0.2,0.2-0.5,0.3-0.7c0.2-0.6,0.3-1.3,0.4-2c0.3-0.7,0-1.6-0.7-2
					c-0.7-0.3-1.6,0-2,0.7c-0.5,0.5-0.9,1-1.2,1.6c-0.2,0.2-0.3,0.5-0.4,0.7c-0.2,0.4-0.3,0.9-0.4,1.3c-0.1,0.4-0.2,0.9-0.2,1.3
					c-0.3,0.7,0,1.6,0.7,2c0.7,0.3,1.5,0.1,1.8-0.6C-9.9,126.2-9.9,126.2-9.9,126.1"/>
				<path id="Tracé_3419_00000036940219613927945440000003066326511882136739_" class="st1" d="M139.4,200.4
					c0.1-0.1,0.2-0.3,0.3-0.4c0.9-1.1,2-2.4,2.9-3.5c0.6-0.8,1.2-1.6,2-2.4c2.7-3.2,5.1-6.7,7.2-10.5c0.3-0.7,1.2-1.1,2-0.7
					c0.7,0.3,1.1,1.2,0.7,2l0,0c-1.6,3.6-3.5,7-5.8,10.3c-0.9,1.3-2,2.7-3,4c-0.3,0.3-0.5,0.6-0.8,0.9
					C143,199.6,141.1,199.7,139.4,200.4"/>
				<path id="Tracé_3420_00000029759479346194135840000000736916955183437453_" class="st1" d="M203.7,26c-0.1,0-0.2-0.1-0.3-0.1
					c-0.8-0.3-1.6-0.7-2.4-1c-1.3-0.6-2.7-1.5-3.8-2.1c-2.2-1.2-3.7-2.2-3.7-2.2c-0.7-0.3-1.1-1.2-0.7-2c0.3-0.7,1.2-1.1,2-0.7
					c0,0,1.8,0.6,4,1.6c1.3,0.5,2.7,1.1,3.9,1.8c0.7,0.3,1.4,0.7,2.1,1.1C204.4,23.5,204.1,24.8,203.7,26"/>
				<path id="Tracé_3421_00000138569766684337222040000008129001132371465371_" class="st1" d="M207.1,15.5
					c-0.4-0.2-0.8-0.3-1.1-0.5c-0.9-0.5-1.9-1-2.7-1.6c-1.6-0.9-2.7-1.7-2.7-1.7c-0.7-0.3-1.1-1.2-0.7-2c0.3-0.7,1.2-1.1,2-0.7
					c0,0,1.2,0.4,3,1c1,0.3,2,0.8,2.9,1.2c0.3,0.1,0.5,0.3,0.8,0.4C207.9,13,207.4,14.2,207.1,15.5"/>
				<path id="Tracé_3422_00000014616380340376055470000007828430630325040568_" class="st1" d="M22.1,94.8c0.3-0.4,0.7-0.7,0.9-1.1
					c0.3-0.4,0.5-0.7,0.7-1.1c0.1-0.3,0.2-0.5,0.3-0.8c0.2-0.6,0.3-1.2,0.4-1.9c0.3-0.7,0-1.6-0.7-2c-0.7-0.3-1.6,0-2,0.7l0,0
					c-0.5,0.5-0.9,1-1.2,1.6c-0.2,0.2-0.3,0.5-0.4,0.7c-0.2,0.4-0.3,0.9-0.4,1.3c-0.1,0.4-0.2,0.9-0.2,1.3c-0.3,0.7,0,1.6,0.7,2
					C21,95.9,21.8,95.5,22.1,94.8C22.1,94.8,22.1,94.8,22.1,94.8"/>
				<path id="Tracé_3423_00000044173279381373020140000010661555852997211289_" class="st1" d="M42.6,22.9c0,0,0.6-0.9,1.3-2.2
					c0.4-0.7,0.8-1.5,1.2-2.3c0.2-0.5,0.4-0.9,0.6-1.5c0.6-1.9,1.1-3.4,1.1-3.4c0.3-0.7,0-1.6-0.7-2c-0.7-0.3-1.6,0-2,0.7
					c-0.7,1-1.3,2-1.9,3.1c-0.2,0.4-0.5,0.9-0.7,1.3c-0.4,0.8-0.6,1.7-0.9,2.4c-0.3,0.8-0.5,1.6-0.7,2.5c-0.3,0.7,0,1.6,0.7,2
					C41.4,23.9,42.3,23.6,42.6,22.9"/>
			</g>
		</g>
	</g>
</g>
<g id="TEXTES_FR">
</g>
<g id="TEXTES_GB">
</g>
</svg>
