<?xml version="1.0" encoding="utf-8"?>
<!-- Generator: Adobe Illustrator 27.1.1, SVG Export Plug-In . SVG Version: 6.00 Build 0)  -->
<svg version="1.1" id="ILLUSTRATIONS" xmlns="http://www.w3.org/2000/svg" xmlns:xlink="http://www.w3.org/1999/xlink" x="0px"
	 y="0px" viewBox="0 0 36 28" style="enable-background:new 0 0 36 28;" xml:space="preserve">
<style type="text/css">
	.st0{fill:#FFBCC6;}
</style>
<g>
	<path class="st0" d="M32.2,13.7l2.9-1.6c0.1-0.1,0.2-0.2,0.3-0.3c0.5-0.6,0.3-1.5-0.3-2L18.5,0.4c-0.1-0.1-0.2-0.1-0.4-0.1
		c-0.1,0-0.1,0-0.1,0c-0.1,0-0.3,0-0.4,0.1L0.9,9.8C0.8,9.9,0.7,10,0.6,10.1c-0.5,0.6-0.3,1.5,0.3,2l16.6,9.3
		c0.2,0.1,0.3,0.2,0.5,0.2c0.2,0,0.3,0,0.4-0.1l6.4-3.6l0.4-0.3l0,0.5l0,4.4l0,0.2l-0.1,0.1L25,22.9c-1.1,0.8-2.3,1.4-3.6,1.8
		c-1.1,0.3-2.2,0.5-3.3,0.5c-2.6,0-5.1-0.9-7.2-2.4l-0.1-0.1v-0.1v-0.8c0-0.3-0.1-0.5-0.2-0.7c-0.1-0.2-0.3-0.3-0.4-0.4
		c-0.1-0.1-0.3-0.1-0.4-0.1c-0.4,0-0.8,0.2-1,0.6c-0.1,0.2-0.1,0.4-0.1,0.6l0,1.6c0.1,0.4,0.3,0.8,0.6,1.1c1.3,1,2.8,1.8,4.4,2.5
		c1.4,0.5,2.9,0.7,4.4,0.7c3.1,0,6.1-1,8.5-2.9c0.6-0.3,0.9-0.8,1-1.4l0-6.8v-0.2l0.2-0.1l1.9-1l0.4-0.3v0.5v4.8
		c0,0.2,0,0.4,0.1,0.6c0.2,0.4,0.5,0.6,0.8,0.6c0.6,0,1.2-0.5,1.2-1.2l0-6.3v-0.2L32.2,13.7z M31.7,11.2l-0.8,0.5l-0.1,0.1l-0.1,0
		l-12.5-2l-0.1,0l0,0c-0.6,0-0.9,0.4-1,0.7c-0.2,0.5-0.1,1.2,0.2,1.5c0.2,0.1,0.4,0.3,0.6,0.3l8.5,1.4l0.8,0.1l-0.8,0.4l-8.4,4.7
		L18,18.9l-0.1-0.1L4.3,11.2l-0.5-0.3l0.5-0.3L17.9,3L18,3L18.2,3l13.6,7.6l0.5,0.3L31.7,11.2z"/>
</g>
</svg>
