<?xml version="1.0" encoding="utf-8"?>
<!-- Generator: Adobe Illustrator 26.2.1, SVG Export Plug-In . SVG Version: 6.00 Build 0)  -->
<svg version="1.1" xmlns="http://www.w3.org/2000/svg" xmlns:xlink="http://www.w3.org/1999/xlink" x="0px" y="0px"
	 viewBox="0 0 327.4418945 335.1522522" style="enable-background:new 0 0 327.4418945 335.1522522;" xml:space="preserve">
<style type="text/css">
	.st0{fill:url(#FOND_00000047046438742642674340000006266908591274226600_);}
	.st1{fill:url(#FOND_00000013888636190761898640000001699991854788991384_);}
	.st2{fill:#FFF5F7;}
	.st3{fill:url(#FOND_00000123408080614130632540000016530852197976975294_);}
	.st4{fill:url(#FOND_00000055678342806391518520000002726584383516104107_);}
	.st5{fill:url(#FOND_00000106122900937051705960000011119609396038915228_);}
	.st6{fill:url(#FOND_00000088101255993285033140000012712296879023736452_);}
	.st7{fill:url(#FOND_00000039133546294642463100000005363434606419551361_);}
	.st8{fill:url(#FOND_00000116926967282000544950000003533444950190520207_);}
	.st9{fill:url(#FOND_00000120545402439358581690000009741123835567076003_);}
	.st10{fill:url(#FOND_00000037680799778995454440000008086705469490684046_);}
	.st11{fill:url(#FOND_00000052793994177306329520000005179208779382726577_);}
	.st12{fill:#272F60;}
	.st13{fill:#FD657C;}
	.st14{fill:url(#FOND_00000093153675692058901920000002485174814697750202_);}
	.st15{fill:#F4AAB9;}
	.st16{clip-path:url(#Rectangle_10_00000070803737265377020910000005900739520092836009_);}
	.st17{fill:#FB657C;}
	.st18{fill:#FFFFFF;}
	.st19{fill:#FFBCC6;}
	.st20{clip-path:url(#SVGID_00000178892702980652310080000003600673764745583524_);}
	.st21{enable-background:new    ;}
	.st22{fill:#FB657C;stroke:#FD657C;stroke-width:3.8352001;stroke-linecap:round;stroke-linejoin:round;stroke-miterlimit:1.4382;}
	.st23{fill:#FFBCC6;stroke:#FFBCC6;stroke-width:3.8352001;stroke-linecap:round;stroke-linejoin:round;stroke-miterlimit:1.4382;}
	.st24{clip-path:url(#SVGID_00000024714963284628105400000009522093434507774132_);fill:#FB657C;}
	.st25{clip-path:url(#SVGID_00000048493846825121744260000004230972793827834521_);fill:#FFBCC6;}
	.st26{clip-path:url(#SVGID_00000084490441494035177640000017113850101301075607_);fill:#FFBCC6;}
	.st27{clip-path:url(#SVGID_00000063601184351988862580000000146542081305736578_);fill:#FFBCC6;}
	.st28{clip-path:url(#SVGID_00000123424427976805797430000000416777758767873422_);fill:#FFBCC6;}
	.st29{clip-path:url(#SVGID_00000145035284972014724570000008000104442338767250_);fill:#FFBCC6;}
	.st30{clip-path:url(#SVGID_00000178901033674308956270000013215147522707046840_);fill:#FFBCC6;}
	.st31{clip-path:url(#SVGID_00000039133406174013295080000008190799674132287369_);fill:#FFBCC6;}
	.st32{clip-path:url(#SVGID_00000090988014720716540170000009322128992593227942_);fill:#272F60;}
	.st33{clip-path:url(#SVGID_00000090988014720716540170000009322128992593227942_);fill:#FB657C;}
	.st34{clip-path:url(#SVGID_00000090988014720716540170000009322128992593227942_);fill:#FFBCC6;}
	.st35{clip-path:url(#SVGID_00000090988014720716540170000009322128992593227942_);fill:#FFFFFF;}
	.st36{fill:none;}
	.st37{clip-path:url(#SVGID_00000107582861738682388560000011987650475542406528_);fill:#FFFFFF;}
	.st38{clip-path:url(#SVGID_00000183220851298721175070000003638922903360574631_);fill:#FFFFFF;}
	.st39{clip-path:url(#SVGID_00000026146613691569201800000015445792703183599006_);fill:#FFFFFF;}
	.st40{clip-path:url(#SVGID_00000086679334799153360790000006580224588278776460_);fill:#FFFFFF;}
	.st41{clip-path:url(#SVGID_00000112629668969751737300000007435216784891099285_);fill:#FFFFFF;}
	.st42{clip-path:url(#SVGID_00000085225011921763784170000008321711761612636350_);fill:#FFFFFF;}
	.st43{clip-path:url(#SVGID_00000139976518689841832300000006741105227691485333_);fill:#FFFFFF;}
	.st44{clip-path:url(#SVGID_00000092424946447946214830000004984184344689964704_);fill:#FFFFFF;}
	.st45{clip-path:url(#SVGID_00000041263048476263181790000003332038042923616132_);fill:#FFFFFF;}
	.st46{clip-path:url(#SVGID_00000034768321379556129810000017172676532368440480_);fill:#FFFFFF;}
	.st47{clip-path:url(#SVGID_00000030463170745656308310000011243871056821449377_);fill:#FFFFFF;}
	.st48{clip-path:url(#SVGID_00000016795471990676433310000001826933354598615948_);fill:#FFFFFF;}
	.st49{clip-path:url(#SVGID_00000032627037752731384810000000611502590390618528_);fill:#FB657C;}
	.st50{clip-path:url(#SVGID_00000073692685989385448170000010864766295886280339_);fill:#FFFFFF;}
	.st51{clip-path:url(#SVGID_00000015344201236114535570000011104629263025886110_);fill:#FFFFFF;}
	.st52{fill:#FF647B;}
	.st53{fill:#FF657C;}
	.st54{clip-path:url(#SVGID_00000094616870534527054140000017176132391418329482_);}
	.st55{clip-path:url(#SVGID_00000136409782601258435010000008482225161418479506_);}
	.st56{clip-path:url(#SVGID_00000051342554769833117120000005050841783926901142_);}
	.st57{clip-path:url(#SVGID_00000083786546929355756370000006328044523490740137_);}
	.st58{fill:none;stroke:#272E5F;stroke-width:3;}
	.st59{clip-path:url(#SVGID_00000012462513249793149200000016585050525657546407_);}
	.st60{fill:#E94B67;}
	.st61{fill:#FFF5F7;stroke:#272E5F;stroke-width:2;}
	.st62{fill:none;stroke:#272E5F;stroke-width:2;stroke-linecap:round;stroke-linejoin:round;stroke-miterlimit:10;}
	.st63{fill:none;stroke:#272E5F;stroke-width:2;}
	.st64{fill:none;stroke:#272E5F;stroke-width:3;stroke-linecap:round;stroke-linejoin:round;stroke-miterlimit:10;}
	.st65{fill:none;stroke:#142664;stroke-width:2;stroke-linecap:round;stroke-linejoin:round;stroke-miterlimit:10;}
	.st66{clip-path:url(#SVGID_00000160878631045889781820000015463257142581097119_);}
	.st67{clip-path:url(#SVGID_00000165916566858380440440000008182727533111041446_);}
	.st68{clip-path:url(#SVGID_00000108271800496210346000000013616641814885462948_);fill:#FD657C;}
	.st69{clip-path:url(#SVGID_00000002353401178484322050000017300348075801144757_);fill:#FD657C;}
	.st70{clip-path:url(#SVGID_00000089561562328560603480000005617166075441939346_);}
	.st71{clip-path:url(#SVGID_00000029737836829337417110000001499196548178935464_);}
	.st72{clip-path:url(#SVGID_00000082341191910198880490000002800764730411439780_);}
	.st73{fill:none;stroke:#142664;stroke-width:3;stroke-linecap:round;stroke-linejoin:round;}
	.st74{clip-path:url(#SVGID_00000078741491712129518860000000693156993616646036_);}
	.st75{clip-path:url(#SVGID_00000068649637172977957600000016151316859645942701_);}
	.st76{clip-path:url(#SVGID_00000165199487266847689060000004126365256008577161_);}
	.st77{clip-path:url(#SVGID_00000002345189948277997640000001091242026151928732_);}
	.st78{clip-path:url(#SVGID_00000144339663072931187360000003924562153823782588_);}
	.st79{clip-path:url(#SVGID_00000155845887109140772240000009806634333589917318_);}
	.st80{clip-path:url(#SVGID_00000073720793247246068950000008535532736535788970_);}
	.st81{clip-path:url(#SVGID_00000011717127779404383670000008639450106045062307_);}
	.st82{clip-path:url(#SVGID_00000152954868502786589490000003659789085114417796_);}
	.st83{clip-path:url(#SVGID_00000058561891081547424030000018343285525698760862_);}
	.st84{clip-path:url(#SVGID_00000072960555858936508190000017191638932350667960_);}
	.st85{clip-path:url(#SVGID_00000036233492882606229030000003762672267022364822_);}
	.st86{clip-path:url(#SVGID_00000058550117279763415830000013081843545482957480_);}
	.st87{clip-path:url(#SVGID_00000098906728873286881010000013142536467233258924_);}
	.st88{clip-path:url(#SVGID_00000057838421910813704720000010303212366349508755_);}
	.st89{clip-path:url(#SVGID_00000065035417128047147140000004394604376431886749_);}
	.st90{clip-path:url(#SVGID_00000181797732722313074890000017837823247070987149_);}
	.st91{clip-path:url(#SVGID_00000120526442511688103770000000728294370161497741_);}
	.st92{clip-path:url(#SVGID_00000143604708360040382850000012168652217824279225_);}
	.st93{clip-path:url(#SVGID_00000067958031900596861300000016021454893287020969_);}
	.st94{clip-path:url(#SVGID_00000097461071372664818460000010050647484870566575_);}
	.st95{clip-path:url(#SVGID_00000095306227843178982920000010228823864730523806_);}
	.st96{clip-path:url(#SVGID_00000071527981281985388980000002282670178005174148_);}
	.st97{clip-path:url(#SVGID_00000142857287054110717840000011523993081673610935_);}
	.st98{clip-path:url(#SVGID_00000108994760869064570280000012481488533922366356_);}
	.st99{clip-path:url(#SVGID_00000044879543499167429310000016678590814784457858_);}
	.st100{clip-path:url(#SVGID_00000096020097343887064030000016817452656547116683_);}
	.st101{clip-path:url(#SVGID_00000150060105725017842610000005732091893308453555_);}
	.st102{clip-path:url(#SVGID_00000173130387135211785820000003942850020037772953_);}
	.st103{clip-path:url(#SVGID_00000085950703339392714870000000776863872626182583_);}
	.st104{clip-path:url(#SVGID_00000107577611516452776320000008498264470344161935_);}
	.st105{clip-path:url(#SVGID_00000075158605639856999340000000204600060505409968_);}
	.st106{clip-path:url(#SVGID_00000061453702146965676080000011516448206700881581_);}
	.st107{clip-path:url(#SVGID_00000169541509129448872000000000553606045803362947_);}
	.st108{clip-path:url(#SVGID_00000054949271390006248170000002794072080230566576_);}
	.st109{clip-path:url(#SVGID_00000152973263060598648630000003014583483469179777_);}
	.st110{clip-path:url(#SVGID_00000171713472667126412350000005419704440772022710_);}
	.st111{clip-path:url(#SVGID_00000132778919485118553620000016881884631408487079_);}
	.st112{clip-path:url(#SVGID_00000091716186807541479810000017916189744543247788_);}
	.st113{clip-path:url(#SVGID_00000173155180596055421220000014982942095628144795_);}
	.st114{clip-path:url(#SVGID_00000039834659527211285160000015276159295435768993_);}
	.st115{clip-path:url(#SVGID_00000000203525293414810130000016067433111613071494_);}
	.st116{clip-path:url(#SVGID_00000030450752990703473290000011662325989495090563_);}
	.st117{fill:#FFFFFF;stroke:#142664;stroke-width:3;stroke-linecap:round;stroke-linejoin:round;}
	.st118{clip-path:url(#SVGID_00000088826985010979155680000008168152882317683886_);}
	.st119{fill-rule:evenodd;clip-rule:evenodd;fill:#FFBCC6;}
	.st120{fill-rule:evenodd;clip-rule:evenodd;fill:#272F60;}
	.st121{fill-rule:evenodd;clip-rule:evenodd;fill:#FFFFFF;}
	.st122{fill-rule:evenodd;clip-rule:evenodd;fill:#FB657C;}
	.st123{clip-path:url(#SVGID_00000144300648830801955690000012201812774066744969_);}
	.st124{clip-path:url(#SVGID_00000024684424506065704440000002751052586552591258_);}
	.st125{clip-path:url(#SVGID_00000160152535239419594910000014614510679377881751_);}
	.st126{clip-path:url(#SVGID_00000035496754168554971120000001556089185082301862_);}
	.st127{clip-path:url(#SVGID_00000100370917718137422690000010707848796475877274_);}
	.st128{clip-path:url(#SVGID_00000140725882704011861950000002604668913052050075_);}
	.st129{clip-path:url(#SVGID_00000108305840921512338070000012263062497485365161_);}
	.st130{clip-path:url(#SVGID_00000110462094098687086910000000142328566282909315_);}
	.st131{clip-path:url(#SVGID_00000082353354965617527610000000378910039942193308_);}
	.st132{clip-path:url(#SVGID_00000132807019740198223320000003458883362466702268_);}
	.st133{clip-path:url(#SVGID_00000035488977793921782800000000978460456486212275_);}
	.st134{clip-path:url(#SVGID_00000152958594937668185800000018316238627199303074_);}
	.st135{clip-path:url(#SVGID_00000157307018472327315750000000440276822891441056_);}
	.st136{clip-path:url(#SVGID_00000018931322149891709520000016987720259742506684_);}
	.st137{clip-path:url(#SVGID_00000085931561535703111170000000469106717215830174_);}
	.st138{clip-path:url(#SVGID_00000080899855147181563190000014995187686837359521_);}
	.st139{clip-path:url(#SVGID_00000094586218765567060480000015796494958709390742_);}
	.st140{clip-path:url(#SVGID_00000031918637951570304010000013810723568411557760_);}
	.st141{clip-path:url(#SVGID_00000171686192431420198150000018196058674694546580_);}
	.st142{clip-path:url(#SVGID_00000005227888978092215260000006275638199512192672_);}
	.st143{clip-path:url(#SVGID_00000049180372016228443870000005966707431243198608_);}
	.st144{clip-path:url(#SVGID_00000160165435226770793620000009880939261398672814_);}
	.st145{clip-path:url(#SVGID_00000025427019380956926930000005325968524858549397_);}
	.st146{clip-path:url(#SVGID_00000142146731954052169850000016507747284849473978_);}
	.st147{clip-path:url(#SVGID_00000100368549251842652360000017984848975615403954_);}
	.st148{clip-path:url(#SVGID_00000044163151024148072180000000627742688898675596_);}
	.st149{clip-path:url(#SVGID_00000104702536721726144750000015266523603229855132_);}
	.st150{clip-path:url(#SVGID_00000167383026618724737050000017156794138080305058_);}
	.st151{clip-path:url(#SVGID_00000093874809216255899770000012293528789079884198_);}
	.st152{clip-path:url(#SVGID_00000043417925493953301480000011615895093702523048_);}
	.st153{clip-path:url(#SVGID_00000023240893010893161370000011844698798986972816_);}
	.st154{clip-path:url(#SVGID_00000069372368866841844280000001889041827708894364_);}
	.st155{clip-path:url(#SVGID_00000086676314672730527940000018166353038698721432_);}
	.st156{clip-path:url(#SVGID_00000057124609870561662500000007587772861421305787_);}
	.st157{clip-path:url(#SVGID_00000105424948305872686590000014134393322313003407_);}
	.st158{clip-path:url(#SVGID_00000049901382060000471720000006462326669219813298_);}
	.st159{clip-path:url(#SVGID_00000014602477080653300680000001260282573184506512_);}
	.st160{clip-path:url(#SVGID_00000183228169301167027010000008607461315421557130_);}
	.st161{clip-path:url(#SVGID_00000002346291607323807480000009452880055998148273_);}
	.st162{clip-path:url(#SVGID_00000054981593589713897760000010583646921549136285_);}
	.st163{clip-path:url(#SVGID_00000121262811168473963510000008112052871432063922_);}
	.st164{clip-path:url(#SVGID_00000044141625453649949710000008216588859440841100_);}
	.st165{clip-path:url(#SVGID_00000039115804653585822480000017780305668535079569_);}
	.st166{clip-path:url(#SVGID_00000123414875813254583510000002833429264966059197_);}
	.st167{clip-path:url(#SVGID_00000178179426122923841140000009135244055149902473_);}
	.st168{clip-path:url(#SVGID_00000041297919283507941360000004481954547737657988_);}
	.st169{clip-path:url(#SVGID_00000145768813102177377380000004762049274484325050_);}
	.st170{clip-path:url(#SVGID_00000168100125662038273310000005558237146948691610_);}
	.st171{clip-path:url(#SVGID_00000074401260285701667680000012018704958260236454_);}
	.st172{clip-path:url(#SVGID_00000142171928570067413020000002677739663015434134_);}
	.st173{clip-path:url(#SVGID_00000072277703373563599180000009769649141156441244_);}
	.st174{clip-path:url(#SVGID_00000093883089783425505390000001537267261301256610_);}
	.st175{clip-path:url(#SVGID_00000104693917330375718930000018030320598428405408_);}
	.st176{clip-path:url(#SVGID_00000160903030516967274970000007165443749916216723_);}
	.st177{clip-path:url(#SVGID_00000057856498678677003300000000169486308905682324_);}
	.st178{clip-path:url(#SVGID_00000039126524850211007170000008787405726780509058_);}
	.st179{clip-path:url(#SVGID_00000130634819583207317240000011240306960730808725_);}
	.st180{clip-path:url(#SVGID_00000145754950503461180910000015941571090619583647_);}
	.st181{clip-path:url(#SVGID_00000018950716197116794780000013552400886562894007_);}
	.st182{clip-path:url(#SVGID_00000054955286760327392540000012190595256661521315_);}
	.st183{clip-path:url(#SVGID_00000114794629915772764250000017683585453515857051_);}
	.st184{clip-path:url(#SVGID_00000110446659173136716030000007047060435008013186_);}
	.st185{clip-path:url(#SVGID_00000171694990323173282320000001415985006424048002_);}
	.st186{clip-path:url(#SVGID_00000047770493378881261730000003567327228007064463_);}
	.st187{clip-path:url(#SVGID_00000039133983071263703570000016487086861480789651_);}
	.st188{clip-path:url(#SVGID_00000095332602234825136370000015846280120829143226_);}
	.st189{clip-path:url(#SVGID_00000132784798253834310320000001264315929169667469_);}
	.st190{clip-path:url(#SVGID_00000084528053798107949000000003428368242328528547_);}
	.st191{clip-path:url(#SVGID_00000084508265233667817020000005507452371895275950_);}
	.st192{clip-path:url(#SVGID_00000124868013712077057010000011566842163026212002_);}
	.st193{clip-path:url(#SVGID_00000178926509222114297660000017305096458322594435_);}
	.st194{clip-path:url(#SVGID_00000006688743845844806190000000480576197222294152_);}
	.st195{clip-path:url(#SVGID_00000119115360222701500610000009026144356574149018_);}
	.st196{clip-path:url(#SVGID_00000183928322625190632270000008321212842362806185_);}
	.st197{clip-path:url(#SVGID_00000076581641125383307430000006383262019598391971_);}
	.st198{clip-path:url(#SVGID_00000009592436198663020810000004487477225290305466_);}
	.st199{clip-path:url(#SVGID_00000152950028662968327700000008841517045983474082_);}
	.st200{clip-path:url(#SVGID_00000061470886569979022810000006383595390816020113_);}
	.st201{clip-path:url(#SVGID_00000100373393613132032920000000234170779461930381_);}
	.st202{clip-path:url(#SVGID_00000122695147456308051280000015098143973337307276_);}
	.st203{clip-path:url(#SVGID_00000114765456504621795730000003499057044081705103_);}
	.st204{clip-path:url(#SVGID_00000153683825499470080960000008879883473833672611_);}
	.st205{clip-path:url(#SVGID_00000002360812571498054880000015653321978063051199_);}
	.st206{clip-path:url(#SVGID_00000155836907237706006400000014375968830565769097_);}
	.st207{clip-path:url(#SVGID_00000183227914447119329970000014198405721479132572_);}
	.st208{clip-path:url(#SVGID_00000078726718168068661060000010171086474890679465_);}
	.st209{clip-path:url(#SVGID_00000083800838999196349980000011628488405426067619_);}
	.st210{clip-path:url(#SVGID_00000044168633426229713060000001413033975686385537_);}
	.st211{clip-path:url(#SVGID_00000112626129516575615030000008526003865267169920_);}
	.st212{clip-path:url(#SVGID_00000046329030843443678810000009658277387139650223_);}
	.st213{clip-path:url(#SVGID_00000112614447586827447090000011965417398652344504_);}
	.st214{clip-path:url(#SVGID_00000126316176477825269120000012761294385529148856_);}
	.st215{clip-path:url(#SVGID_00000170990252859937529020000003301307955786996612_);}
	.st216{clip-path:url(#SVGID_00000108285119128332087450000015170969884610627501_);}
	.st217{clip-path:url(#SVGID_00000151528205737899676370000011670762417365372838_);}
	.st218{clip-path:url(#SVGID_00000123417291037740301610000001971731706519147398_);}
	.st219{clip-path:url(#SVGID_00000053514778083974751000000000201629513995756973_);}
	.st220{clip-path:url(#SVGID_00000118384830027116110500000012615100775777705114_);}
	.st221{clip-path:url(#SVGID_00000038410151530226174810000002718799324322543774_);}
	.st222{clip-path:url(#SVGID_00000174588329096433681910000017810772594725574047_);}
	.st223{clip-path:url(#SVGID_00000106835907592880826760000016126705359071711626_);}
	.st224{clip-path:url(#SVGID_00000111169266169273380140000000027979278188251531_);}
	.st225{clip-path:url(#SVGID_00000077282363109191345620000008511760748554413244_);}
	.st226{clip-path:url(#SVGID_00000021801014517599038730000014193998464208312251_);}
	.st227{clip-path:url(#SVGID_00000085217745802304917740000002710913467435812753_);}
	.st228{clip-path:url(#SVGID_00000072272376257181778720000006640473825898603675_);}
	.st229{clip-path:url(#SVGID_00000058579223187526453220000006223910929159804095_);}
	.st230{clip-path:url(#SVGID_00000017484353138472916910000001911164483467815833_);}
	.st231{clip-path:url(#SVGID_00000163033323273991277460000002216374583911051962_);}
	.st232{clip-path:url(#SVGID_00000034791683362802773120000017269362316777849493_);}
	.st233{clip-path:url(#SVGID_00000095337302189890838600000006299703115926389634_);}
	.st234{clip-path:url(#SVGID_00000157293120851813090850000003434382258013295502_);}
	.st235{clip-path:url(#SVGID_00000162327053548595205750000012212665442877673912_);}
	.st236{clip-path:url(#SVGID_00000104702621081236480770000005126381675588300974_);}
	.st237{clip-path:url(#SVGID_00000019649787967141084410000016573886312124363181_);}
	.st238{clip-path:url(#SVGID_00000054988586682250865490000015909702381107710367_);}
	.st239{clip-path:url(#SVGID_00000129205078790044009390000003783531236906972560_);}
	.st240{clip-path:url(#SVGID_00000116202078793969266840000007886756417667180698_);}
	.st241{clip-path:url(#SVGID_00000166677175392820170980000014512587003955591305_);}
	.st242{clip-path:url(#SVGID_00000033364090092854004350000013014913842876949145_);}
	.st243{clip-path:url(#SVGID_00000132785093872237763800000009452188554384053433_);}
	.st244{clip-path:url(#SVGID_00000181066331607851683290000001644950211543853967_);}
	.st245{clip-path:url(#SVGID_00000142897832116315701240000004382217671823768510_);}
	.st246{clip-path:url(#SVGID_00000163031931988628207540000002612625298045460609_);}
	.st247{clip-path:url(#SVGID_00000096046345035874344460000000765068117726201997_);}
	.st248{clip-path:url(#SVGID_00000103983576483622926970000006599788505386067600_);}
	.st249{clip-path:url(#SVGID_00000096764596647845152880000000122148587313214136_);}
	.st250{clip-path:url(#SVGID_00000121274367328975494820000007291005746426473603_);}
	.st251{clip-path:url(#SVGID_00000164479546903795687350000015635538017361792189_);}
	.st252{clip-path:url(#SVGID_00000047056450303496290350000004855014166837081789_);}
	.st253{fill:#E94966;}
	.st254{fill:#13224F;}
	.st255{fill:url(#);}
	.st256{clip-path:url(#SVGID_00000153706018640762215300000015777615817279915441_);}
	.st257{fill:#FFCE00;}
	.st258{fill-rule:evenodd;clip-rule:evenodd;fill:#FD657C;}
	.st259{clip-path:url(#SVGID_00000060744915858458744470000018195513557691203469_);}
	.st260{fill:url(#SVGID_00000018944372525760458330000017575306482020664494_);}
	.st261{fill:#FFFFFF;stroke:#FFFFFF;stroke-width:10;}
	.st262{fill:none;stroke:#272F60;stroke-width:3;stroke-linecap:round;stroke-linejoin:round;}
	.st263{clip-path:url(#SVGID_00000160875673943339701320000007887011588113953456_);}
	.st264{fill:none;stroke:#FFFFFF;stroke-width:5;}
	.st265{fill:#3580F8;}
	.st266{clip-path:url(#SVGID_00000081648299218722866520000001155011592453755044_);}
	.st267{fill:#FDF2F5;}
	.st268{clip-path:url(#SVGID_00000087385608563296231010000004220409788442181530_);}
	.st269{fill:#44C400;}
	.st270{clip-path:url(#SVGID_00000152244143644437279950000007633050379049495984_);}
	.st271{clip-path:url(#SVGID_00000170965375889941250940000009279760312374527415_);}
	.st272{clip-path:url(#SVGID_00000029024929783456240430000018245318957327837825_);}
	.st273{fill:#F1AAB9;}
	.st274{fill:#E34C6A;}
	.st275{clip-path:url(#SVGID_00000086674248651184717100000017935260955007361723_);}
	.st276{clip-path:url(#SVGID_00000104679585878967356490000017135869715354135474_);}
	.st277{clip-path:url(#SVGID_00000132768070482752849380000009155323837904669056_);}
	.st278{clip-path:url(#SVGID_00000142145467890007831370000008848261167740538541_);}
	.st279{clip-path:url(#SVGID_00000107581048906189781970000017819076631656614556_);}
	.st280{clip-path:url(#SVGID_00000004528339079219674660000002832545491773848213_);}
	.st281{clip-path:url(#SVGID_00000139274146426907677150000013497567573645817000_);}
	.st282{clip-path:url(#SVGID_00000071550527560777273230000007881247610318718603_);}
	.st283{display:none;}
	.st284{display:inline;}
	.st285{display:inline;enable-background:new    ;}
	.st286{clip-path:url(#SVGID_00000065057065830955351030000009816413063111548040_);}
	.st287{clip-path:url(#SVGID_00000148649417697860698550000015485690684492119445_);}
	.st288{clip-path:url(#SVGID_00000183927843751303091680000007094540795093672616_);}
	.st289{clip-path:url(#SVGID_00000077312778230966808050000005229046960684111798_);}
	.st290{fill:none;stroke:#FFFFFF;stroke-miterlimit:10;}
	.st291{clip-path:url(#SVGID_00000067237179152579725430000014076559496833951617_);}
	.st292{clip-path:url(#SVGID_00000006696722995616156940000002704733202170652606_);}
	.st293{clip-path:url(#SVGID_00000125580621861037653560000006074095057902172560_);}
	.st294{clip-path:url(#SVGID_00000144304584449928478860000012319140332859109815_);}
	.st295{clip-path:url(#SVGID_00000076595632897375271050000007216935552358377135_);}
	.st296{clip-path:url(#SVGID_00000134212844149914437580000010699075938992640169_);}
	.st297{clip-path:url(#SVGID_00000037691851955179504540000007563261124609679016_);}
	.st298{clip-path:url(#SVGID_00000163791248204255682670000018076695153085648787_);}
	.st299{clip-path:url(#SVGID_00000092419644743707032420000007785963593004816016_);}
	.st300{clip-path:url(#SVGID_00000117672467277047242530000003538037309711974328_);}
	.st301{clip-path:url(#SVGID_00000164510062502167076030000012329633645751149445_);}
	.st302{clip-path:url(#SVGID_00000094583653651970726390000018387140335614287271_);}
	.st303{clip-path:url(#SVGID_00000006705269707052267060000010583234494005235846_);}
	.st304{clip-path:url(#SVGID_00000114069824681368719660000007943081938860969919_);}
	.st305{clip-path:url(#SVGID_00000124158921500819318850000007713215266917155506_);}
	.st306{clip-path:url(#SVGID_00000116237301604047238120000011643357943674258088_);}
	.st307{fill:none;stroke:#142664;stroke-width:4.0018654;stroke-linecap:round;stroke-linejoin:round;stroke-miterlimit:4.0018654;}
	.st308{clip-path:url(#SVGID_00000107555829446213940900000000648905341458577559_);}
	.st309{clip-path:url(#SVGID_00000123443048390379360970000005048838153320753546_);}
	.st310{clip-path:url(#SVGID_00000067924238500392879650000003499843339445692067_);}
	.st311{clip-path:url(#SVGID_00000057857631548365401270000017694684371521644172_);}
	.st312{clip-path:url(#SVGID_00000085237049352287744580000007407886997215160706_);}
	.st313{clip-path:url(#SVGID_00000119110160904986718380000009744306455788405912_);}
	.st314{clip-path:url(#SVGID_00000155850695690067077830000010567211853400209332_);}
	.st315{clip-path:url(#SVGID_00000181089441127643098140000009402569693344317574_);}
	.st316{clip-path:url(#SVGID_00000126321184830872018820000000095306005297368481_);}
	.st317{clip-path:url(#SVGID_00000053518976231162780200000005615963613690171021_);}
	.st318{clip-path:url(#SVGID_00000035501852109097195980000002563063869300580246_);}
	.st319{clip-path:url(#SVGID_00000027564295621537617710000010508987784771796905_);}
	.st320{clip-path:url(#SVGID_00000148658225542448622690000013443072648961954456_);}
	.st321{clip-path:url(#SVGID_00000103258664720166639420000003324184541753075593_);}
	.st322{clip-path:url(#SVGID_00000029739780590337154200000007252642313059135925_);}
	.st323{clip-path:url(#SVGID_00000042002302364039454720000014158670037629012147_);}
	.st324{clip-path:url(#SVGID_00000056394173819448446580000007716309664328161983_);fill:#FD657C;}
	.st325{clip-path:url(#SVGID_00000056394173819448446580000007716309664328161983_);fill:#272F60;}
</style>
<g id="FONDS">
</g>
<g id="ILLUSTRATIONS">
</g>
<g id="TEXTES_FR" class="st283">
</g>
<g id="TEXTES_GB">
</g>
<g id="Calque_5">
	<g>
		<g id="Groupe_1940">
			<g id="Groupe_1937">
				<g>
					<g id="Groupe_de_masques_9">
						<path id="Tracé_6389" class="st18" d="M318.2969055,0.8922414H195.1649017
							c-6.2518616-0.000011-11.3200073,5.0681167-11.3200226,11.3199797c0,0.0083399,0.0000153,0.0166807,0.0000305,0.0250206
							v202.576004c-0.0138092,6.2518463,5.0431213,11.3311615,11.2949677,11.3449707
							c0.0083466,0.0000153,0.0166931,0.0000305,0.0250397,0.0000305h123.1319885V0.8922414z"/>
						<path id="Tracé_6390" class="st19" d="M305.0498962,34.5802422H187.7498932v178.0529938
							c-0.0066223,2.2643585,1.8236237,4.1053619,4.0879822,4.1119843c0.0040131,0.0000153,0.0080109,0.0000153,0.0120239,0.0000153
							h109.0970001c2.2643738,0.0000153,4.1000061-1.8356018,4.1000366-4.0999756
							c0-0.0040131-0.0000305-0.0080109-0.0000305-0.0120239L305.0498962,34.5802422z"/>
						<path id="Tracé_6391" class="st12" d="M310.0869141,227.0502472H195.1639099
							c-3.2406464-0.0030823-6.3491364-1.2849274-8.6499939-3.5670013
							c-2.2980652-2.2977448-3.5798798-5.4203339-3.5590057-8.6699982V12.2372417
							c0.0019531-3.2451954,1.2803192-6.3593955,3.5590057-8.6700001c2.2883759-2.3007984,5.4049988-3.5860054,8.6499939-3.5670004
							h114.8779907c0.4898682-0.0011165,0.8879089,0.3951007,0.8890076,0.884976c0.0000305,0.0023413,0,0.0046827,0,0.007024
							c0.0033264,0.4893131-0.3906555,0.8886682-0.8799744,0.8919849c-0.0030212,0.0000204-0.006012,0.0000254-0.0090332,0.0000151
							H195.1639099c-2.7688446-0.0112226-5.4248047,1.0965955-7.3650055,3.0719998
							c-1.9641571,1.9536896-3.0671234,4.6106529-3.0639954,7.3809996v202.576004
							c0.0114899,5.7590637,4.6699829,10.4287109,10.4290009,10.4539948h114.8779907
							c0.4926147-0.0041809,0.8953552,0.3917694,0.8995361,0.8843994c0.0040588,0.4794312-0.371582,0.8763275-0.8505249,0.8986053"
							/>
						<path id="Tracé_6392" class="st12" d="M327.4418945,10.1072416
							c-0.0531311-5.1050439-4.2346802-9.2004213-9.3397217-9.1472816
							c-5.0300598,0.0523593-9.0949097,4.1172247-9.1472778,9.1472816v206.7870026
							c0.0531311,5.1050415,4.2346802,9.2004242,9.3397217,9.1472778c5.0300598-0.0523529,9.0949097-4.117218,9.1472778-9.1472778
							V10.1072416z"/>
						<path id="Tracé_6393" class="st12" d="M206.237915,10.3552408h-22.0510101
							c-0.4926453,0-0.8919983-0.3993626-0.8919983-0.8920002s0.399353-0.8920002,0.8919983-0.8920002h21.3999939
							c0.5926361-1.8831472,1.6266785-3.5974174,3.0160065-5c2.289032-2.3045766,5.4088745-3.591507,8.6569977-3.5709991
							c0.4898682-0.0016643,0.8883514,0.3941076,0.8900146,0.8839814c0,0.0026729,0,0.0053458-0.0000153,0.0080186
							c0.0027618,0.4893164-0.3916626,0.8882285-0.8809814,0.8909948c-0.003006,0.000017-0.006012,0.0000187-0.0090179,0.0000051
							c-2.7688293-0.0111088-5.4247284,1.096692-7.3650055,3.072c-1.330368,1.3490119-2.2843475,3.0228515-2.7669983,4.855
							c-0.1352844,0.3778057-0.4888306,0.6336365-0.8899994,0.6440001"/>
						<path id="Tracé_6394" class="st12" d="M308.954895,10.3552408h-22.144989
							c-0.2696533-0.0114231-0.5215454-0.1377277-0.6919861-0.3470001c-0.1699219-0.2076015-0.2254028-0.4861345-0.1480103-0.743
							c1.3741455-5.4280739,6.2637024-9.2262173,11.8630066-9.2149992c0.4926453,0.0000795,0.8919373,0.399506,0.8918457,0.892144
							c-0.000061,0.4925255-0.3993225,0.8917765-0.8918457,0.891856c-2.7686157-0.0111402-5.4244385,1.0962551-7.3649902,3.0710001
							c-1.0692444,1.0661745-1.8954163,2.3508306-2.4219971,3.7660003h20.9580078
							c0.4893188-0.0022249,0.8877869,0.392643,0.8900146,0.8819618c0.0000305,0.0030127,0.0000305,0.0060253,0,0.009038
							c-0.0813293,0.455884-0.4759216,0.7891254-0.9389954,0.7930002"/>
						<path id="Tracé_6395" class="st12" d="M246.7709045,4.7092414c2.900589-0.0066242,5.2573547,2.3393998,5.2639771,5.2399917
							s-2.3394012,5.2573566-5.2399902,5.2639809s-5.2573547-2.3394003-5.2639771-5.2399921
							c-0.0000153-0.0043268-0.0000153-0.0086536-0.0000153-0.0129805
							C241.5281372,7.063343,243.8740082,4.7125502,246.7709045,4.7092414"/>
						<path id="Tracé_6396" class="st19" d="M246.7709045,7.9792414c1.0946198-0.0027585,1.9842224,0.8823738,1.9869843,1.9769983
							s-0.88237,1.98423-1.9769897,1.986989c-1.094635,0.002759-1.9842377-0.8823738-1.9869995-1.9769983
							c0-0.0016632,0-0.0033255,0-0.0049887c-0.0016632-1.0929699,0.8830261-1.9803414,1.9759979-1.9819984
							c0.0003357-0.0000005,0.0006714-0.000001,0.0010071-0.0000014"/>
						<path id="Tracé_6397" class="st12" d="M305.0498962,25.9602413c0.0066223-2.2643585-1.8236389-4.1053543-4.0879822-4.1119823
							c-0.0039978-0.0000114-0.0080261-0.0000172-0.0120239-0.0000172H191.8539124
							c-2.2643738-0.0000134-4.1000061,1.8356094-4.1000214,4.0999756c0,0.0040092,0,0.0080166,0.0000153,0.0120239v8.619997
							h117.3000183L305.0498962,25.9602413z"/>
						<path id="Tracé_6398" class="st18" d="M297.980896,29.5272427h-9.7380066
							c-0.738678-0.0202084-1.321106-0.6354103-1.3009033-1.3740902c0.0194397-0.710268,0.5906372-1.281477,1.3009033-1.300909
							h9.7380066c0.7350769-0.0022125,1.3327942,0.5919018,1.3349915,1.3269882c0.0000305,0.0033379,0,0.0066738,0,0.0100117
							C299.3020935,28.9212456,298.7128601,29.5118027,297.980896,29.5272427"/>
						<path id="Tracé_6399" class="st18" d="M278.5049133,30.6672421
							c-0.3494263,0.0009098-0.6715088-0.1888885-0.8399963-0.4950008
							c-0.1578369-0.3162289-0.1392517-0.6918869,0.0490112-0.9909992c0.5929871-0.9419994,1.3840027-2.0809994,1.928009-2.9729996
							c0.170929-0.2732105,0.46875-0.4411259,0.7909851-0.4459991c0.3282166-0.0189362,0.6373291,0.1553516,0.7909851,0.4459991
							c0.5429993,0.8920002,1.3340149,2.0310001,1.928009,2.9729996c0.1872864,0.2994156,0.2058411,0.6745644,0.0490112,0.9909992
							c-0.1684875,0.3061123-0.4905701,0.4959106-0.8399963,0.4950008H278.5049133z"/>
						<path id="Tracé_6400" class="st18" d="M193.335907,26.5002422c0.930603-0.0022087,1.6867828,0.7503986,1.6889954,1.6809959
							s-0.7503967,1.6867847-1.6809998,1.6889954c-0.9305878,0.0022087-1.6867828-0.7503986-1.6889954-1.6809959
							c0-0.0016651,0-0.0033302,0-0.0049953C191.6543579,27.2551365,192.4067993,26.5013466,193.335907,26.5002422"/>
						<path id="Tracé_6401" class="st18" d="M199.1199036,26.5002422c0.930603-0.0016537,1.6863403,0.7514057,1.6879883,1.6820049
							c0.0016479,0.9305973-0.7514038,1.6863365-1.6820068,1.6879902c-0.9305878,0.0016518-1.6863403-0.7514076-1.6879883-1.6820049
							c0-0.0013294,0-0.0026608,0-0.0039902C197.4373474,27.2547474,198.1903992,26.5007954,199.1199036,26.5002422
							L199.1199036,26.5002422"/>
						<path id="Tracé_6402" class="st18" d="M204.9029083,26.5002422c0.930603-0.0022087,1.6867828,0.7503986,1.6889954,1.6809959
							s-0.7503967,1.6867847-1.6809998,1.6889954c-0.9305878,0.0022087-1.6867828-0.7503986-1.6889954-1.6809959
							c0-0.0016651,0-0.0033302,0-0.0049953C203.2213593,27.2551365,203.9738007,26.5013466,204.9029083,26.5002422"/>
						<path id="Tracé_6403" class="st19" d="M322.053894,182.0662384c0.930603-0.0022125,1.6867981,0.7503967,1.6889954,1.6809998
							c0.0021973,0.9305878-0.7503967,1.6867828-1.6809998,1.6889954c-0.930603,0.0021973-1.6867676-0.7503967-1.6889954-1.6809998
							c0-0.0016632,0-0.0033264,0-0.0049896C320.372345,182.8211365,321.1247864,182.067337,322.053894,182.0662384"/>
						<path id="Tracé_6404" class="st18" d="M271.6869202,26.5412426c0.930603-0.0022087,1.6867981,0.7503986,1.6889954,1.6809959
							s-0.7503967,1.6867847-1.6809998,1.6889954c-0.930603,0.0022087-1.6867676-0.7503986-1.6889954-1.6809959
							c0-0.0016651,0-0.0033302,0-0.0049953C270.0053711,27.2961369,270.7578125,26.542347,271.6869202,26.5412426"/>
						<path id="Tracé_6405" class="st18" d="M215.8759155,27.2482414c-0.009079-0.3283215-0.1313171-0.6434269-0.345993-0.8920002
							c-0.2353821-0.2345753-0.5579529-0.3603382-0.8899994-0.3470001h-1.977005
							c-0.3278198,0.0094986-0.6422577,0.1320953-0.8899994,0.3470001c-0.2339935,0.2365131-0.3592987,0.5595589-0.345993,0.8920002
							v1.9820004c0.009552,0.3279266,0.1317444,0.642561,0.345993,0.8910007
							c0.2351227,0.234993,0.5578766,0.3608303,0.8899994,0.3470001h1.977005
							c0.3279266-0.0090046,0.6425323-0.1316643,0.8899994-0.3470001c0.2343597-0.2358685,0.3597565-0.5587807,0.345993-0.8910007
							V27.2482414z"/>
						<path id="Tracé_6406" class="st18" d="M316.8139038,63.7112389c-1.8666992-0.0103798-3.371521-1.5320473-3.361145-3.3987427
							c0.0000305-0.0064163,0.0000916-0.0128365,0.0001526-0.0192566V28.4872417
							c-0.0040283-1.8673782,1.4938049-3.3910885,3.3609924-3.4190006h3.4110107v38.6429977H316.8139038z"/>
						<path id="Tracé_6407" class="st18" d="M316.8139038,75.0562439h3.4110107v12.6829987h-3.4110107
							c-1.8666992-0.010376-3.3715515-1.5320358-3.3611755-3.3987274c0.000061-0.0067596,0.0000916-0.0135117,0.0001831-0.0202713
							v-5.8949966C313.4696655,76.5746918,314.9634094,75.0774002,316.8139038,75.0562439"/>
						<path id="Tracé_6408" class="st19" d="M323.5869141,28.4872417c0.0320129-1.8835716-1.4689636-3.4364662-3.3525391-3.4684868
							c-1.8835449-0.0320225-3.4364624,1.468956-3.4684753,3.3525257c-0.0006714,0.0386505-0.0006714,0.0773106,0,0.1159611
							v31.8059978c-0.0320129,1.8835716,1.4689636,3.4364662,3.3525391,3.4684868
							c1.8835449,0.0320206,3.4364624-1.468956,3.4684753-3.3525276c0.0006714-0.0386505,0.0006714-0.0773087,0-0.1159592
							V28.4872417z"/>
						<path id="Tracé_6409" class="st19" d="M323.5869141,78.4742432c0.0320129-1.8835678-1.4689636-3.4364624-3.3525391-3.4684906
							c-1.8835449-0.0320206-3.4364624,1.468956-3.4684753,3.3525314c-0.0006714,0.0386505-0.0006714,0.0773087,0,0.1159592
							v5.9000015c-0.0320129,1.8835678,1.4689636,3.4364624,3.3525391,3.4684906
							c1.8835449,0.0320206,3.4364624-1.468956,3.4684753-3.3525314c0.0006714-0.0386505,0.0006714-0.0773087,0-0.1159592
							V78.4742432z"/>
						<path id="Tracé_6410" class="st19" d="M313.9468994,182.3632507c-0.117157,0.0080261-0.2347107-0.008667-0.3450012-0.048996
							c-0.3283997-0.1259308-0.5451355-0.4412994-0.5450134-0.7929993v-37.6520081
							c-0.0027771-0.4898682,0.3921204-0.8892212,0.8819885-0.891983c0.0026855-0.0000153,0.0053406-0.0000305,0.0080261-0.0000153
							h8.7000122c0.4898682-0.0016785,0.8883362,0.3940887,0.8900146,0.8839722c0.0000305,0.0026703,0,0.0053558,0,0.0080261
							v28.9309998c-0.0069885,0.2364502-0.0940857,0.4635162-0.2470093,0.6439972l-8.7000122,8.7189941
							c-0.1974792,0.1112213-0.4162903,0.1793823-0.6419983,0.1999969 M314.7879028,144.7112427v34.6300049l6.9200134-6.9360046
							v-27.6940002H314.7879028z"/>
						<path id="Tracé_6411" class="st12" d="M196.1039124,222.7402496
							c-0.2226562-0.0020599-0.4421387-0.0529327-0.6430054-0.1490021
							c-0.6255798-0.3824158-1.1508179-0.9086761-1.5319977-1.5350037c-0.3428345-0.6414948-0.100708-1.4394531,0.5407867-1.7822876
							c0.0010681-0.0005646,0.0021515-0.0011444,0.0032196-0.001709c0.6300812-0.3362274,1.413147-0.1183472,1.779007,0.4949951
							c0.1235657,0.203125,0.2931213,0.3744049,0.4949951,0.5c0.6270294,0.3573151,0.8477478,1.1539612,0.4940033,1.7830048
							c-0.1883698,0.4534454-0.6475983,0.7337341-1.1369934,0.6940002"/>
						<path id="Tracé_6412" class="st12" d="M201.9369049,222.7402496
							c-0.2226562-0.0020599-0.4421387-0.0529327-0.6430054-0.1490021
							c-0.6255798-0.3824158-1.1508179-0.9086761-1.5319977-1.5350037c-0.3428345-0.6414948-0.100708-1.4394531,0.5407867-1.7822876
							c0.0010681-0.0005646,0.0021515-0.0011444,0.0032196-0.001709c0.6300812-0.3362274,1.413147-0.1183472,1.779007,0.4949951
							c0.1235657,0.203125,0.2931213,0.3744049,0.4949951,0.5c0.6270294,0.3573151,0.8477478,1.1539612,0.4940033,1.7830048
							c-0.1883698,0.4534454-0.6475983,0.7337341-1.1369934,0.6940002"/>
						<path id="Tracé_6413" class="st12" d="M207.7699127,222.7402496
							c-0.2226562-0.0020599-0.4421387-0.0529327-0.6430054-0.1490021
							c-0.6255798-0.3824158-1.1508179-0.9086761-1.5319977-1.5350037c-0.3428345-0.6414948-0.100708-1.4394531,0.5407867-1.7822876
							c0.0010681-0.0005646,0.0021515-0.0011444,0.0032196-0.001709c0.6300812-0.3362274,1.413147-0.1183472,1.779007,0.4949951
							c0.1235657,0.203125,0.2931213,0.3744049,0.4949951,0.5c0.6270294,0.3573151,0.8477478,1.1539612,0.4940033,1.7830048
							c-0.1883698,0.4534454-0.6475983,0.7337341-1.1369934,0.6940002"/>
						<rect id="Rectangle_1050" x="316.8139038" y="43.4982414" class="st12" width="6.7719998" height="1.784"/>
						<path id="Tracé_6414" class="st19" d="M75.6759186,240.07724c0,0,2.310997,62.7810059,2.9729996,80.1230164
							c0.0466766,1.1583252-0.3692169,2.2876282-1.1559982,3.1390076c-0.8331909,0.8335876-1.9594879,1.308075-3.1380005,1.321991
							H64.2809143c-2.2422523-0.0062256-4.107193-1.726532-4.2939987-3.9609985
							c-0.8260002-12.7210083-3.4679985-51.54599-3.4679985-51.54599v-0.9909973
							c-0.3300018-4.1300049-12.0559998-3.9649963-12.3859978,0v0.8259888c0,0-2.6460037,38.9899902-3.6340027,51.7109985
							c-0.1257019,2.2641602-2.0259933,4.0197144-4.2929993,3.9660034H26.1319141
							c-1.1785145-0.013916-2.3048077-0.4884033-3.1380005-1.321991c-0.7872639-0.8510742-1.2032337-1.9806213-1.1560001-3.1390076
							c0.6599998-17.3469849,3.2999992-80.1279907,3.2999992-80.1279907L75.6759186,240.07724z"/>
						<path id="Tracé_6415" class="st12" d="M42.4809151,270.1462402c-0.4585571,0.2607117-0.9631157,0.430481-1.4860001,0.5
							c-0.4832726,0.1361389-0.9856377,0.1918945-1.4869995,0.1650085c-0.3300018,0-0.4949989-0.1650085-0.8250008-0.1650085
							c-0.6396523-0.2642212-1.2488632-0.5968018-1.8170013-0.9920044c-1.3229942-0.1366882-2.2846832-1.3200073-2.147995-2.6430054
							c0.136692-1.3229675,1.3199997-2.284668,2.6429939-2.1479797l0,0c0.6409836-0.2356567,1.305481-0.4016113,1.9819984-0.4949951
							c0.3300018,0,0.5-0.1659851,0.8260002,0c0.4720497,0.0631714,0.9236717,0.2324219,1.3209991,0.4949951
							c0.4600105,0.1785889,0.9022789,0.3999023,1.3209991,0.6610107c1.3218307,0.1358643,2.2832451,1.3175659,2.1473732,2.6394043
							c-0.0001259,0.0011902-0.000248,0.0024109-0.0003738,0.0036011c-0.0792961,1.1858826-1.1049156,2.0829163-2.2907829,2.0036316
							c-0.0623436-0.0041809-0.1244736-0.0110474-0.1862183-0.0206299"/>
						<path id="Tracé_6416" class="st17" d="M36.369915,132.8552399h34.6810036c0,0,2.3119965-0.6609955,2.3119965,12.8869934
							s-6.1100006,26.7639923-10.9000015,26.7639923h-2.8069992v0.6609955
							c0.0793037,1.5631714-1.1236038,2.8946533-2.6867676,2.9739532c-0.0953484,0.004837-0.1908836,0.0048523-0.286232,0.0000458
							H39.5079155c-1.5631905,0.0787811-2.8942719-1.1245728-2.9730492-2.6877747
							c-0.0048027-0.0953369-0.0047874-0.1908722,0.0000496-0.2862244
							c-0.1650009-9.9129944-0.1650009-40.3119965-0.1650009-40.3119965"/>
						<path id="Tracé_6417" class="st12" d="M39.1779175,162.5932465
							c-16.6800022,2.8090057-25.4330025-43.2859955-5.2849998-41.3000031
							c26.5890007-29.572998,60.4440041-1.6520004,36.8279991,15.0339966
							c-0.3788071,0.2815857-0.8541718,0.4006958-1.3209991,0.3309937c-5.284996,0-4.6240005,8.7559967-4.9540024,12.5559998
							c-0.3310013,3.4689941-4.7900009,2.8079987-4.7900009-0.5c0.1650009-7.9299927-7.4309998-6.2779999-6.605999-1.3209991
							c0.8260002,4.7910004,0.3310013,15.8600006-13.8719978,15.1999969"/>
						<path id="Tracé_6418" class="st12" d="M63.9499168,130.7072449
							c0.8858299,6.6282501,0.9965706,13.3371277,0.329998,19.9909973
							c-0.4131813,4.4957123-1.5266228,8.8992157-3.2999992,13.0509949c-0.300518,0.8731537-1.2519646,1.3373718-2.1251144,1.03685
							c-0.8731537-0.3005219-1.3373642-1.2519684-1.03685-2.1251221c0.0078316-0.0227509,0.0161552-0.0453339,0.0249634-0.0677338
							c1.2259254-3.898468,1.7818108-7.9766235,1.644001-12.0609894c-0.063343-6.1715088-0.783062-12.3187561-2.1469994-18.3379974
							c-0.3541031-1.8238831,0.8267441-3.5926971,2.6469994-3.9649963c1.6836357-0.4699097,3.4294243,0.5140076,3.8993301,2.1976471
							c0.025795,0.0924225,0.0473747,0.1859741,0.0646706,0.2803497"/>
						<path id="Tracé_6419" class="st12" d="M73.3639145,172.5002441
							c-6.5250015-3.0859985-12.5509987-3.1289978-25.7630005-3.1289978c-12.882,0-17.5060024,2.147995-23.2860012,5.1210022
							c-7.1916504,2.9316254-10.6450787,11.1381683-7.7134476,18.3298187
							c1.6584587,4.0684052,5.1231022,7.1278687,9.365448,8.2701874l-0.5,44.6069946h50.3700027l1.3199997-47.9120026
							c2.7576828-2.6249542,4.3110886-6.2707825,4.2939987-10.0780029
							c-0.1650009-5.7819977,2.3130035-9.746994-2.6419983-12.0599976c0,0-4.0270004-2.477005-5.4489975-3.1490021"/>
						<path id="Tracé_6420" class="st12" d="M21.6719131,331.4402466
							c-0.0302086,1.2472534,0.9563942,2.2828369,2.2036381,2.3130493c0.0371151,0.000885,0.0742474,0.000885,0.1113625-0.000061
							h18.0000019c0.8037148,0.0342712,1.5092354-0.530304,1.6520004-1.321991
							c-0.4278221-2.5507202-1.7090988-4.8805847-3.6339989-6.6080017
							c-0.7810936-0.6868896-1.7687569-1.0939941-2.8069992-1.1570129H24.6449146
							c-0.7886066,0.0239868-1.5456562,0.3152466-2.1469994,0.8259888c-0.5372524,0.5856628-0.832428,1.3532715-0.8260002,2.1480103
							L21.6719131,331.4402466z"/>
						<path id="Tracé_6421" class="st12" d="M59.4869156,331.4402466
							c-0.0301704,1.2472534,0.9564667,2.2828064,2.2037125,2.3129578c0.0360909,0.000885,0.072197,0.000885,0.1082878,0.0000305
							H79.798912c0.8037186,0.0342712,1.5092392-0.530304,1.6520004-1.321991
							c-0.4278259-2.5507202-1.7091064-4.8805847-3.6340027-6.6080017
							c-0.7810898-0.6868896-1.7687531-1.0939941-2.8069992-1.1570129H62.4639168
							c-0.7886086,0.0239868-1.5456581,0.3152466-2.1469994,0.8259888c-0.5372505,0.5856628-0.832428,1.3532715-0.8260002,2.1480103
							v3.7999878"/>
						<path id="Tracé_6422" class="st17" d="M121.0869141,162.9232483
							c-0.0856171,0.0941772-0.2032928,0.1530151-0.3300018,0.1649933c-0.1772079-0.0120239-0.3184357-0.152832-0.3310013-0.3300018
							c-0.4561844-1.6416626-2.1568298-2.6026917-3.7985001-2.1464996c-1.6416626,0.4561768-2.602684,2.1568298-2.1464996,3.7984924
							c0.5928955,1.9366302,0.9803619,3.9302673,1.1559982,5.947998v0.6600037
							c0.0022278,0.089447-0.0684814,0.1637573-0.1579208,0.1659851c-0.0023575,0.0000458-0.0047226,0.000061-0.0070801,0.0000153
							h-0.1650009c-1.1559982-1.4869995-3.3000031-0.5-3.9639969,0.9909973c-0.6600037,1.3220062-0.5,7.1000061,2.1470032,9.746994
							c0,0,10.2389984,14.8690033,14.038002,2.973999c0.1650009-0.3300018,0.1650009-0.4949951,0.3300018-0.826004
							c1.8996201-4.2245941,3.0177078-8.7585754,3.2999954-13.3820038c0.1455078-1.6709595-1.0911255-3.1435089-2.7621002-3.2890015
							c-0.0701447-0.0061188-0.1405029-0.0097809-0.210907-0.0110016h-0.659996c-0.3310013,0-0.5,0-0.6610031-0.1649933
							c-0.203743-0.1595459-0.3249207-0.4022675-0.3300018-0.6609955c0.01931-0.5555725-0.0361862-1.1112213-0.1650009-1.6519928
							c-0.2022018-1.6767273-1.611351-2.9466705-3.3000031-2.973999c-0.7452164,0.1237335-1.4358826,0.4690704-1.9820023,0.9909973"
							/>
						<path id="Tracé_6423" class="st12" d="M78.812912,175.6452484
							c11.5599976,6.9389954,29.4000015,21.6430054,33.0299988,5.947998
							c2.3119965-9.7480011,15.689003-5.947998,15.5240021,3.1389923c-0.5,28.5809937-33.6910019,32.2160034-54,15.8600006
							c0,0-17.1749992-16.5209961,5.4499969-24.9470062"/>
						<path id="Tracé_6424" class="st12" d="M44.9579163,187.8702393
							c-9.2480011,9.7480011-27.4150028,23.9559937-12.882,30.8999939
							c9.0839996,4.2949982,2.4780006,16.5209961-6.4400024,14.5379944
							c-27.9099998-6.6080017-25.4330006-48.076004-0.6609993-59.1459961c0.1650009,0,16.5149994-10.0780029,19.9830017,13.7129974"
							/>
						<path id="Tracé_6425" class="st19" d="M74.3539124,207.7002411c-1.065506-0.3301697-2.1129456-0.7160339-3.1380005-1.1560059
							c-0.9510117-0.429657-1.8396988-0.985672-2.6419983-1.6529999c-0.520401-0.4182892-0.9669342-0.9209442-1.3209991-1.4869995
							c-0.9027863-1.2400665-1.6774139-2.5685425-2.3119965-3.9649963
							c-0.8378448-1.0974426-0.6273956-2.6663055,0.4700546-3.5041504c1.0974426-0.8378448,2.6663055-0.6273956,3.5041428,0.4700623
							c0.0553589,0.0724945,0.1066971,0.1479797,0.153801,0.2260895c0.5,0.4949951,0.9909973,0.826004,1.4869995,1.3209991
							c0.8015137,0.5657043,1.5732193,1.1725159,2.3119965,1.8179932c0.5075302,0.5918427,1.0594635,1.144104,1.651001,1.6519928
							c0.6034088,0.4952698,1.1567307,1.048584,1.6520004,1.6519928c1.2183685,0.5574493,1.7541504,1.9970398,1.196701,3.2154083
							c-0.0130234,0.0284576-0.0265884,0.0566559-0.0407028,0.0845947
							c-0.4105148,1.1658478-1.6884155,1.7781677-2.8542633,1.3676453c-0.0400009-0.0140839-0.0795975-0.0292969-0.1187363-0.045639
							"/>
						<path id="Tracé_6426" class="st19" d="M21.0119133,229.0082397c-0.1650009-0.9909973-0.4950008-2.973999-0.9909992-5.6170044
							c-0.3288994-1.9690704-0.5492344-3.9547272-0.6599998-5.947998v-3.6349945
							c0.1860046-2.8233948,0.5164356-5.6354065,0.9899998-8.4250031c0.0115509-1.2989197,1.0738983-2.3425446,2.3728199-2.3309937
							c0.090332,0.0008087,0.1805401,0.0068054,0.2701797,0.0179901c1.2989178,0.0121002,2.3420868,1.0748901,2.3299828,2.3738098
							c-0.0008392,0.0900116-0.0068436,0.1798859-0.0179825,0.2691956c0.1650009,2.973999,0.3299999,5.6170044,0.4950008,8.1000061
							c0.1372471,1.1512909,0.1923866,2.3108826,0.1650009,3.4700012v5.7819977
							c0.0575581,2.0391541,0.0024738,4.0799255-0.1650009,6.1130066c-0.0326653,1.3544159-1.1225986,2.4447937-2.4769993,2.4779968
							c-1.2913132-0.2365112-2.2493439-1.3317108-2.3120003-2.6430054"/>
						<path id="Tracé_6427" class="st12" d="M25.1399136,110.3862457c-8.1185856,0-14.6999989,6.5814133-14.6999989,14.6999969
							s6.5814133,14.6999969,14.6999989,14.6999969s14.7000027-6.5814056,14.7000027-14.6999969l0,0
							C39.8399162,116.967659,33.2584991,110.3862457,25.1399136,110.3862457"/>
						<path id="Tracé_6428" class="st17" d="M12.7539139,105.9252472l6.9359989,9.086998
							c0.6387177,0.638443,0.6389427,1.6737823,0.0005016,2.3125s-1.6737843,0.6389465-2.3125019,0.0005035l0,0
							l-9.2480001-6.6090012c-1.2833052-1.2497253-1.3560066-3.2880173-0.1649995-4.6259995
							c1.1681228-1.3642654,3.2210269-1.523262,4.5852895-0.3551407c0.0705891,0.0604401,0.1385546,0.1238785,0.2037096,0.1901398"
							/>
						<path id="Tracé_6429" class="st17" d="M3.8359141,119.3072433l10.8999996,3.3000031
							c0.8668108,0.1380692,1.457572,0.9526901,1.3195009,1.8195038c-0.138072,0.866806-0.9526901,1.4575653-1.8195009,1.3194962
							l0,0H2.8449142c-1.8232647-0.2725754-3.080348-1.9715881-2.8077743-3.7948532
							c0.0002568-0.0017166,0.0005149-0.0034332,0.0007744-0.0051498c0.2349914-1.7204056,1.8201563-2.9245758,3.540565-2.6895828
							c0.0870914,0.0118942,0.173646,0.0274353,0.2594349,0.0465851"/>
						<path id="Tracé_6430" class="st12" d="M63.9449158,55.2822418c0.1119995,0,0.2229996,0,0.2229996-0.1100006
							c1.3979492-2.1470947,3.7970886-3.4298592,6.3590012-3.4000015c4.0906219-0.0371742,7.4370651,3.2483902,7.4749985,7.3390007
							v0.2190018c-0.3349991,8.2140007-14.1689987,15.8820076-14.1689987,15.8820076s-12.605999-7.1120071-14.0569992-14.673008
							c-0.096405-0.4678192-0.1336937-0.9458923-0.1110001-1.4230003c0.0379333-4.0906105,3.3843803-7.3761749,7.4749985-7.3390007
							c2.5619125-0.0298538,4.9610519,1.2529068,6.3590012,3.4000015c0.1110001,0.1100006,0.1110001,0.1100006,0.2229996,0.1100006
							L63.9449158,55.2822418z"/>
						<path id="Tracé_6431" class="st12" d="M52.0119171,83.816246c0.0730019,0,0.1459999,0,0.1459999-0.0719986
							c1.4907532-2.2777405,4.5457191-2.9157181,6.8234558-1.4249649c1.3589592,0.8894272,2.192543,2.3912201,2.2285423,4.0149612
							v0.1429977c-0.2190018,5.4000015-9.2709999,10.4300003-9.2709999,10.4300003s-8.2490005-4.6750031-9.2000008-9.6380005
							c-0.0633736-0.3073807-0.0879021-0.6215057-0.0730019-0.9349976c0.0603371-2.7215424,2.3154984-4.8788757,5.0370407-4.8185349
							c1.623745,0.0359955,3.1255341,0.8695831,4.0149574,2.2285385c0.0730019,0.0719986,0.0730019,0.0719986,0.1459999,0.0719986
							H52.0119171z"/>
						<path id="Tracé_6432" class="st12" d="M38.5249138,23.1202431c0.0550003,0,0.1100006,0,0.1100006-0.0559998
							c0.6766586-1.0809116,1.865799-1.7332153,3.1409988-1.7229996c2.0474892,0.0093689,3.6998558,1.6765099,3.6909981,3.7240009
							v0.1119995c-0.1650009,4.1679993-7,8.0589962-7,8.0589962s-6.2259979-3.6129971-6.9420013-7.447998
							c-0.0478039-0.2378483-0.0662746-0.4806576-0.0550003-0.7229996c-0.0167217-2.0433846,1.6262169-3.7134323,3.6696014-3.730154
							c1.2827873-0.0104961,2.4794731,0.6442127,3.1623993,1.730154c0.0550003,0.0559998,0.0550003,0.0559998,0.1100006,0.0559998
							L38.5249138,23.1202431z"/>
						<path id="Tracé_6433" class="st17" d="M214.786911,106.3252411c-0.0044556-0.7361832,0.5887299-1.336586,1.3249207-1.3410339
							c0.0066986-0.0000381,0.013382-0.0000305,0.0200806,0.0000305c7.6799927,0,45.2119904,0.0439987,52.8490143,0.086998
							c0.7623291,0.006485,1.379303,0.6217117,1.3880005,1.3840027v3.8059998
							c0.0044556,0.7356262-0.5882874,1.3355865-1.3239136,1.3400345c-0.007019,0.0000458-0.0140686,0.0000305-0.0210876-0.0000381
							h-52.8440247c-0.735611,0.0071945-1.3377686-0.5833054-1.3449554-1.3189087
							c-0.0000763-0.0070267-0.0000916-0.014061-0.0000458-0.0210876c-0.0429993-1.1679993-0.0429993-2.8119965-0.0429993-3.935997"
							/>
						<path id="Tracé_6434" class="st12" d="M214.786911,73.7592468c-0.0044556-0.7361832,0.5887299-1.336586,1.3249207-1.3410339
							c0.0066986-0.0000381,0.013382-0.0000305,0.0200806,0.0000305h27.2050018
							c0.735611-0.0071945,1.3377686,0.5832977,1.3449707,1.3189011c0.0000763,0.00737,0.0000763,0.0147324,0.0000305,0.0221024
							v3.8919983c0.0061188,0.7345123-0.5843506,1.3349152-1.3188629,1.3410416
							c-0.0087128,0.0000763-0.0174255,0.000061-0.0261383-0.0000381h-27.2000122
							c-0.735611,0.0071945-1.3377686-0.5832977-1.3449707-1.3189011c-0.0000763-0.00737-0.0000763-0.0147324-0.0000305-0.0221024
							L214.786911,73.7592468z"/>
						<path id="Tracé_6435" class="st17" d="M214.786911,95.4692459c-0.0100555-0.3580399,0.1320038-0.7035828,0.3910065-0.9509964
							c0.2666626-0.2602081,0.6275787-0.4009628,1-0.3899994c1.779007,0,4.8999939,0.0439987,6.6820068,0.0439987
							c0.7510681,0.0076218,1.3537598,0.6226578,1.3461304,1.3737259c-0.0000305,0.0034256-0.0000763,0.0068512-0.0001373,0.0102768
							v3.8439941c-0.0086975,0.7626801-0.626297,1.378067-1.3890076,1.3840027h-6.6800079
							c-0.7361603,0.0066452-1.3383331-0.5847549-1.3449707-1.3209229c-0.000061-0.006691-0.0000763-0.0133896-0.0000305-0.0200806
							L214.786911,95.4692459z"/>
						<path id="Tracé_6436" class="st12" d="M227.8949127,95.4692459c-0.0044556-0.7361832,0.5887299-1.336586,1.3249207-1.3410339
							c0.0066986-0.0000381,0.013382-0.0000305,0.0200806,0.0000305c5.3370056,0,24.6889954,0.0439987,30.0259857,0.086998
							c0.7623291,0.006485,1.379303,0.6217117,1.3880005,1.3840027v3.8010025
							c0.0055542,0.73452-0.5853577,1.3344727-1.3198853,1.3400421c-0.0083618,0.000061-0.0167542,0.0000458-0.025116-0.0000458
							H229.286911c-0.735611,0.0071945-1.3377686-0.5833054-1.3449554-1.3189087
							c-0.0000763-0.0070267-0.0000916-0.014061-0.0000458-0.0210876c-0.0429993-1.1679993-0.0429993-2.7679977-0.0429993-3.935997"
							/>
						<path id="Tracé_6437" class="st17" d="M248.7659149,73.7592468c-0.0044556-0.7361832,0.5887299-1.336586,1.3249207-1.3410339
							c0.0066986-0.0000381,0.013382-0.0000305,0.0200806,0.0000305c3.9049988,0,15.0129852,0.0439987,18.917984,0.086998
							c0.7623291,0.006485,1.379303,0.6217117,1.3880005,1.3840027v3.8059998
							c-0.0092163,0.7619019-0.6260681,1.3765259-1.3880005,1.3830032h-18.9179993
							c-0.735611,0.0071945-1.3377686-0.5833054-1.3449554-1.3189087c-0.0000763-0.0070267-0.0000916-0.014061-0.0000458-0.0210876
							L248.7659149,73.7592468z"/>
						<path id="Tracé_6438" class="st17" d="M214.786911,84.6142426c-0.0044556-0.7361832,0.5887299-1.336586,1.3249207-1.3410339
							c0.0066986-0.0000381,0.013382-0.0000305,0.0200806,0.0000305c7.6799927,0,45.2119904,0.0439987,52.8490143,0.086998
							c0.7623291,0.006485,1.379303,0.6217117,1.3880005,1.3840027v3.8060074
							c0.0044556,0.7356262-0.5882874,1.3355865-1.3239136,1.3400345c-0.007019,0.0000458-0.0140686,0.0000305-0.0210876-0.0000381
							h-52.8440247c-0.735611,0.0071945-1.3377686-0.5833054-1.3449554-1.3189087
							c-0.0000763-0.0070267-0.0000916-0.014061-0.0000458-0.0210876c-0.0429993-1.1679993-0.0429993-2.7679977-0.0429993-3.935997"
							/>
						<path id="Tracé_6440" class="st17" d="M225.5269012,255.9772491c0.0894623-0.2732391,0.1963501-0.540451,0.3200073-0.8000031
							c0.0015411-1.2365723,1.0052032-2.2377625,2.2417755-2.2362213c1.2343903,0.0015259,2.2346954,1.0018311,2.2362213,2.2362213
							c0.1236572,0.259552,0.230545,0.5267639,0.3200073,0.8000031c0.2733002,0.0892792,0.5405273,0.1961823,0.8000031,0.3199921
							c1.2365723-0.0015259,2.2402344,0.9996643,2.2417755,2.2362366c0.0015259,1.2365417-0.9996643,2.2402344-2.2362213,2.2417603
							c-0.0018463,0-0.0037079,0-0.0055542,0c-0.2594757,0.1238098-0.5267029,0.2307129-0.8000031,0.3200073
							c-0.0892944,0.2732849-0.1961823,0.5404968-0.3200073,0.7999878
							c-0.0015411,1.2365723-1.0052032,2.2377625-2.2417755,2.2362366
							c-1.2343903-0.0015564-2.2346954-1.0018311-2.2362213-2.2362366c-0.1238251-0.259491-0.2307129-0.5267029-0.3200073-0.7999878
							c-0.2732391-0.0894775-0.540451-0.1963501-0.8000031-0.3200073c-1.2365723,0.0015259-2.2402344-0.9996643-2.2417755-2.2362366
							c-0.0015259-1.2365417,0.9996643-2.2402344,2.2362213-2.2417603c0.0018463,0,0.0037079,0,0.0055542,0
							c0.259552-0.1236572,0.5267639-0.2305603,0.8000031-0.3200073"/>
						<path id="Tracé_6441" class="st17" d="M185.838913,291.5062561c0.0643005-0.1963806,0.1411133-0.3884583,0.2299957-0.5750122
							c0-0.8886414,0.7203674-1.6090088,1.6090088-1.6090088c0.8886261,0,1.6089935,0.7203674,1.6089935,1.6090088
							c0.0888672,0.186554,0.1656952,0.3786316,0.2299957,0.5750122c0.1963806,0.0643005,0.388443,0.1411438,0.5749969,0.230011
							c0.8886261,0.0025024,1.6069641,0.7249146,1.6044617,1.6135254c-0.0025024,0.8851013-0.7193756,1.6019592-1.6044617,1.6044617
							c-0.186554,0.0888672-0.3786163,0.1657104-0.5749969,0.230011c-0.0643005,0.1963806-0.1411285,0.3884583-0.2299957,0.5750122
							c0,0.8886414-0.7203674,1.6090088-1.6089935,1.6090088c-0.8886414,0-1.6090088-0.7203674-1.6090088-1.6090088
							c-0.0888824-0.186554-0.1656952-0.3786316-0.2299957-0.5750122c-0.1963806-0.0643005-0.388443-0.1411438-0.5749969-0.230011
							c-0.8886261-0.0025024-1.6069641-0.7249146-1.6044617-1.6135254c0.0025024-0.8851013,0.7193756-1.6019592,1.6044617-1.6044617
							C185.45047,291.6473999,185.6425323,291.5705566,185.838913,291.5062561"/>
						<path id="Tracé_6442" class="st17" d="M119.065918,122.5062408c0,0-1.8759995-0.2160034-4.413002-0.3239975
							c-1.3239975-0.1090012-2.8690033-0.2170029-4.4140015-0.2170029
							c-0.8840408-0.0179443-1.7683563,0.0181274-2.6480026,0.1080017
							c-3.4199982,0.2170029-6.1790009,0.4329987-6.1790009,0.4329987c-0.8364334-0.0214996-1.531929,0.6391296-1.5534286,1.4755707
							c-0.0215073,0.8364334,0.6391296,1.531929,1.475563,1.5534286c0.0259552,0.0006638,0.051918,0.0006638,0.0778656,0
							c0,0,2.7590027,0.3239975,6.1790009,0.4319992c0.8830032,0,1.7649994,0.1080017,2.6480026,0.1080017
							c1.5449982,0,3.0899963-0.1080017,4.4140015-0.2160034c2.5370026-0.1080017,4.413002-0.3239975,4.413002-0.3239975
							c0.8364334,0.0214996,1.531929-0.6391296,1.5534286-1.4755707c0.0215073-0.8364334-0.6391296-1.531929-1.475563-1.5534286
							C119.1178284,122.5055771,119.0918655,122.5055771,119.065918,122.5062408"/>
						<path id="Tracé_6443" class="st17" d="M128.5549011,139.6002502c0,0-1.0999908,1.5140076-2.5379944,3.5690002
							c-0.7720032,1.0820007-1.5439987,2.3800049-2.3170013,3.6779938c-0.4468079,0.7335358-0.8517914,1.491745-1.2129974,2.2709961
							c-1.5449982,2.9210052-2.6490021,5.5160065-2.6490021,5.5160065
							c-0.4292831,0.6681671-0.2356262,1.5578308,0.4325409,1.9871063c0.0386963,0.0248566,0.0785599,0.0478516,0.1194611,0.0688934
							c0.7037354,0.437088,1.6285553,0.220932,2.0656433-0.4828033c0.0118866-0.0191345,0.0233459-0.0385437,0.0343552-0.058197
							c0,0,1.6549988-2.2720032,3.5299988-4.9759979c0.4420013-0.7570038,0.9929962-1.4060059,1.4349976-2.1629944
							c0.7719955-1.3000031,1.4339981-2.6000061,2.0999985-3.7859955c1.1000061-2.2709961,1.8760071-3.8930054,1.8760071-3.8930054
							c0.4290771-0.6676483,0.2356873-1.5567169-0.4319611-1.9857941c-0.0388794-0.0249786-0.0789337-0.0480804-0.1200409-0.0691986
							c-0.6091309-0.5671539-1.5627136-0.5331116-2.1298676,0.0760193c-0.070755,0.0759888-0.1334686,0.1591034-0.1871338,0.2479858
							"/>
						<path id="Tracé_6444" class="st17" d="M118.2939148,133.6472473c0,0-0.8830032,0.3240051-2.0999985,0.7570038
							c-0.7021332,0.2354889-1.3699493,0.5630035-1.9860001,0.973999c-0.4070206,0.1879883-0.7790146,0.4440002-1.0999985,0.7570038
							c-0.8598099,0.5829926-1.6714172,1.2341003-2.427002,1.9470062c-0.710083,0.379715-0.9778976,1.2631683-0.5981827,1.9732513
							c0.0148392,0.0277405,0.0305786,0.0550079,0.0471802,0.0817413c0.4210815,0.7268677,1.3516769,0.9747467,2.0785446,0.5536652
							c0.0071869-0.0041656,0.0143356-0.0083771,0.0214539-0.0126648c0,0,1.3239975-0.4329987,2.8669968-1.0820007
							c0.4430008-0.2160034,0.7740021-0.3249969,1.2149963-0.5410004c0.6610031-0.4329987,1.3239975-0.8650055,1.7649994-1.1900024
							c0.9919968-0.7570038,1.7659988-1.4060059,1.7659988-1.4060059c0.7403259-0.4925079,0.9412231-1.4918976,0.4487228-2.2322235
							c-0.4345474-0.6532135-1.2766571-0.8981018-1.993721-0.5797729"/>
						<path id="Tracé_6445" class="st17" d="M139.2569122,143.6002502
							c-0.1641846,0.7117157-0.274826,1.4347382-0.3309937,2.1629944c-0.1334686,0.713623-0.2073975,1.4371185-0.220993,2.1629944
							c-0.0184631,0.4362946,0.0188293,0.8731537,0.1109924,1.3000031c0.2200012,1.7310028,0.4409943,3.029007,0.4409943,3.029007
							c0.0216522,0.8530121,0.7307129,1.526947,1.5837097,1.5052948c0.8225555-0.0208893,1.4844055-0.6827545,1.5052948-1.5052948
							c0.2315369-0.995575,0.3793793-2.0087738,0.4420013-3.029007c0-0.4320068,0.1100006-0.8650055,0.1100006-1.3000031
							c-0.0130768-0.7259064-0.0870056-1.4494324-0.220993-2.1629944c-0.0561676-0.7282562-0.1668091-1.4512787-0.3309937-2.1629944
							c-0.0216522-0.8530121-0.7307129-1.526947-1.5837097-1.5052948c-0.8225555,0.0208893-1.4844055,0.6827545-1.5052948,1.5052948
							"/>
						<path id="Tracé_6446" class="st17" d="M130.8719025,108.7702408
							c0.7058716-0.3627777,0.9839935-1.2290878,0.6212158-1.9349518c-0.0211334-0.0411072-0.04422-0.0811691-0.0692139-0.1200485
							c0,0-0.772995-1.6220016-1.8760071-3.8939972c-0.6620026-1.1900024-1.3240051-2.487999-2.0999908-3.7860031
							c-0.4420013-0.7570038-0.9929962-1.4059982-1.4349976-2.163002c-1.875-2.6999969-3.5309982-4.9749985-3.5309982-4.9749985
							c-0.404953-0.7227097-1.3190994-0.9803009-2.0418091-0.5753555c-0.0196533,0.0110168-0.0390549,0.0224686-0.0581894,0.0343552
							c-0.705864,0.3627777-0.9839935,1.2290878-0.6212158,1.9349518c0.0211258,0.0411072,0.0442276,0.0811691,0.0692139,0.1200485
							c0,0,1.0999985,2.5999985,2.6480026,5.5159988c0.3615494,0.7795944,0.766861,1.5381393,1.2139969,2.2720032
							c0.7730026,1.3000031,1.5449982,2.5999985,2.3170013,3.677002c1.4349976,2.0550003,2.5379944,3.5699997,2.5379944,3.5699997
							c0.430191,0.7124863,1.3565216,0.94133,2.0690155,0.5111313c0.0888977-0.0536652,0.1719971-0.1163788,0.2479858-0.1871338"/>
						<path id="Tracé_6447" class="st17" d="M118.2939148,114.3942413
							c0.8126984,0.3607788,1.7639847-0.0055771,2.1247635-0.8182755c0.3183289-0.7170639,0.0734482-1.5591736-0.5797653-1.993721
							c0,0-0.7740021-0.6490021-1.7659988-1.4059982c-0.4410019-0.3249969-1.0999985-0.7570038-1.7649994-1.1900024
							c-0.4410019-0.2160034-0.7720032-0.3249969-1.2149963-0.5410004
							c-1.5429993-0.6490021-2.8669968-1.0820007-2.8669968-1.0820007c-0.7198715-0.43293-1.6543961-0.200325-2.0873337,0.5195465
							c-0.0042801,0.0071182-0.0084991,0.014267-0.0126648,0.0214539c-0.4248657,0.684021-0.2147751,1.5829544,0.4692459,2.0078201
							c0.026741,0.0166016,0.0540009,0.032341,0.0817566,0.0471802c0.7555847,0.7129135,1.5671921,1.364006,2.427002,1.9469986
							c0.3209839,0.3130035,0.6929779,0.5690079,1.0999985,0.7570038c0.6160583,0.4109879,1.2838745,0.7385025,1.9860001,0.973999
							c1.2129974,0.4329987,2.0999985,0.7570038,2.0999985,0.7570038"/>
						<path id="Tracé_6448" class="st17" d="M140.8019104,105.9572449c0.8246307,0.028244,1.5160217-0.6173477,1.5442657-1.4419785
							c0.000824-0.0240021,0.0010681-0.0480118,0.0007324-0.0720215c0.1634674-0.7118607,0.2741089-1.4348297,0.3309937-2.163002
							c0.1331482-0.7139969,0.2067261-1.4378204,0.2200012-2.1640015c0-0.4319992-0.1100006-0.8649979-0.1100006-1.3000031
							c-0.0620728-1.0198898-0.2095947-2.0327759-0.4409943-3.0279999c-0.001297-0.8532791-0.6940765-1.5439453-1.547348-1.5426483
							c-0.8514404,0.001297-1.5413513,0.6912079-1.5426483,1.5426483c0,0-0.2200012,1.3000031-0.4409943,3.0279999
							c-0.0912628,0.4269714-0.1282196,0.8637619-0.1100006,1.3000031c0.0132751,0.726181,0.086853,1.4500046,0.2200012,2.1640015
							c0.0569,0.7281723,0.1675262,1.4511414,0.3309937,2.163002c-0.0115356,0.8250351,0.6479492,1.5031967,1.4729767,1.5147324
							C140.7539062,105.958313,140.7779083,105.9580688,140.8019104,105.9572449"/>
						<path id="Tracé_6449" class="st17" d="M165.3209076,250.7002411L165.3209076,250.7002411
							c0.1519928-1.8999939,0.3000031-3.3419952,0.3000031-3.3419952c0-0.5870819,0.4759216-1.0630035,1.0630035-1.0630035
							s1.0630035,0.4759216,1.0630035,1.0630035l0,0c0,0,0.2279968,1.5189972,0.3000031,3.3419952
							c0.3800049,0,0.6840057,0.076004,0.9880066,0.076004c1.3670044,0.076004,2.3540039,0.2279968,2.3540039,0.2279968
							c0.5873566,0,1.0634918,0.4761505,1.0634918,1.0634918c0,0.5873566-0.4761353,1.0635071-1.0634918,1.0635071
							c0,0-0.9869995,0.151001-2.3540039,0.227005c-0.3000031,0-0.6080017,0.076004-0.9880066,0.076004
							c0,0.3800049-0.076004,0.6840057-0.076004,0.9880066c-0.076004,1.3670044-0.2279968,2.3539886-0.2279968,2.3539886
							c0,0.5870667-0.4759216,1.0629883-1.0630035,1.0629883s-1.0630035-0.4759216-1.0630035-1.0629883
							c0,0-0.1519928-0.9869995-0.2279968-2.3540039c0-0.3000031-0.076004-0.6840057-0.076004-0.9880066
							c-1.822998-0.1519928-3.3419952-0.3000031-3.3419952-0.3000031c-0.5873566,0-1.0635071-0.4761505-1.0635071-1.0634918
							c0-0.5873566,0.4761505-1.0635071,1.0635071-1.0635071c1.1079865-0.158432,2.2235107-0.2585602,3.3419952-0.3000031"/>
						<path id="Tracé_6450" class="st17" d="M147.0959015,311.5372314L147.0959015,311.5372314
							c0.1750031-2.1870117,0.3500061-3.8479919,0.3500061-3.8479919c-0.0192719-0.6762695,0.5133209-1.2401428,1.1895905-1.2593994
							c0.6762848-0.0192871,1.2401428,0.5133057,1.2594147,1.1895752c0.0006561,0.0232849,0.0006561,0.0465698,0,0.0698242
							c0,0,0.2619934,1.7489929,0.3500061,3.8479919c0.4369965,0,0.7870026,0.0870056,1.1369934,0.0870056
							c1.5740051,0.0880127,2.7109985,0.2630005,2.7109985,0.2630005c0.6762695,0.0192871,1.2088776,0.5831299,1.1895905,1.2593994
							c-0.0184937,0.6492004-0.5404205,1.1711121-1.1895905,1.1896057c0,0-1.1369934,0.1749878-2.7109985,0.2619934
							c-0.3500061,0-0.6999969,0.0880127-1.1369934,0.0880127c0,0.4370117-0.0879974,0.7869873-0.0879974,1.1369934
							c-0.0870056,1.5740051-0.2619934,2.7109985-0.2619934,2.7109985
							c-0.0192719,0.6762695-0.5831299,1.2088623-1.2594147,1.1896057
							c-0.6491699-0.0185242-1.1710815-0.5404358-1.1895905-1.1896057c0,0-0.1750031-1.1369934-0.2630005-2.7109985
							c0-0.3500061-0.0870056-0.7879944-0.0870056-1.1369934c-2.1000061-0.1749878-3.8480072-0.3500061-3.8480072-0.3500061
							c-0.6762695,0.0192871-1.2401276-0.5133362-1.2594147-1.1896057
							c-0.0192719-0.6762695,0.5133209-1.2401123,1.1896057-1.2593994c0.0232544-0.0006714,0.0465393-0.0006714,0.069809,0
							c1.2756195-0.1842651,2.5600739-0.3010864,3.8480072-0.3500061"/>
						<path id="Tracé_6451" class="st17" d="M257.960907,244.330246L257.960907,244.330246
							c0.1000061-1.2660065,0.2000122-2.2279968,0.2000122-2.2279968c0-0.3912964,0.3171997-0.7084961,0.7084961-0.7084961
							s0.7084961,0.3171997,0.7084961,0.7084961c0,0,0.1520081,1.0130005,0.2000122,2.2279968
							c0.2529907,0,0.4559937,0.0509949,0.6579895,0.0509949c0.9119873,0.0500031,1.5700073,0.1519928,1.5700073,0.1519928
							c0.3912964,0,0.7084961,0.317215,0.7084961,0.7084961c0,0.3912964-0.3171997,0.7085114-0.7084961,0.7085114
							c0,0-0.6579895,0.1000061-1.5700073,0.1519928c-0.2000122,0-0.3999939,0.0509949-0.6579895,0.0509949
							c0,0.253006-0.0509949,0.4559937-0.0509949,0.6580048c-0.0499878,0.9120026-0.1520081,1.5700073-0.1520081,1.5700073
							c0,0.3912964-0.3171997,0.7084961-0.7084961,0.7084961s-0.7084961-0.3171997-0.7084961-0.7084961
							c0,0-0.1000061-0.6580048-0.1520081-1.5700073c0-0.1999969-0.0509949-0.4559937-0.0509949-0.6580048
							c-1.2149963-0.1000061-2.2279968-0.1999969-2.2279968-0.1999969c-0.3912964,0-0.7084961-0.317215-0.7084961-0.7085114
							c0-0.3912811,0.3171997-0.7084961,0.7084961-0.7084961c0.738678-0.1055298,1.4823608-0.172287,2.2279968-0.1999969"/>
						<path id="Tracé_6452" class="st17" d="M227.9059143,295.7902527L227.9059143,295.7902527
							c0.0780029-0.9779968,0.1569977-1.7219849,0.1569977-1.7219849c0-0.303772,0.2462463-0.5500183,0.5500031-0.5500183
							s0.5500031,0.2462463,0.5500031,0.5500183c0,0,0.1170044,0.7829895,0.1569977,1.7219849
							c0.1950073,0,0.352005,0.0390015,0.5079956,0.0390015c0.7050018,0.0390015,1.2129974,0.1180115,1.2129974,0.1180115
							c0.3037567,0,0.5500031,0.2462463,0.5500031,0.5499878c0,0.303772-0.2462463,0.5500183-0.5500031,0.5500183
							c0,0-0.5079956,0.0780029-1.2129974,0.1170044c-0.1560059,0-0.3130035,0.0400085-0.5079956,0.0400085
							c0,0.2000122-0.0399933,0.3519897-0.0399933,0.5079956c-0.0390015,0.7000122-0.1170044,1.2130127-0.1170044,1.2130127
							c0,0.303772-0.2462463,0.5499878-0.5500031,0.5499878s-0.5500031-0.2462158-0.5500031-0.5499878
							c0,0-0.0789948-0.5079956-0.1179962-1.2130127c0-0.1560059-0.0390015-0.3519897-0.0390015-0.5079956
							c-0.9389954-0.07901-1.7220001-0.1570129-1.7220001-0.1570129c-0.3037567,0-0.5500031-0.2462463-0.5500031-0.5500183
							c0-0.3037415,0.2462463-0.5499878,0.5500031-0.5499878l0,0
							C226.7547455,295.8646545,227.3295441,295.8122253,227.9059143,295.7902527"/>
						<path id="Tracé_6453" class="st17" d="M115.551918,317.4272461c0.1709976-0.9429932,0.2570038-1.7149963,0.2570038-1.7149963
							c0-0.6627502,0.537262-1.2000122,1.1999969-1.2000122c0.6627426,0,1.2000046,0.537262,1.2000046,1.2000122
							c0.1277542,0.5645752,0.2136612,1.1377869,0.2570038,1.7149963h0.0859985
							c0.5482712,0.0480042,1.0925674,0.1338806,1.6289978,0.2569885c0.6627426-0.0014954,1.20121,0.5345459,1.202713,1.1972656
							c0.001503,0.6627502-0.5345383,1.2012329-1.1972809,1.2027283c-0.0018082,0-0.003624,0-0.0054321,0
							c-0.5363159,0.1236877-1.0806503,0.2095642-1.6289978,0.2569885h-0.0859985v0.0859985
							c-0.0474167,0.5483398-0.1333008,1.0926819-0.2570038,1.6289978c0,0.6627502-0.537262,1.2000122-1.2000046,1.2000122
							c-0.662735,0-1.1999969-0.537262-1.1999969-1.2000122c-0.1231155-0.536438-0.208992-1.080719-0.2570038-1.6289978v-0.0859985
							c-0.9430008-0.17099-1.7149963-0.2569885-1.7149963-0.2569885c-0.6627426-0.0014954-1.1987839-0.539978-1.1972809-1.2027283
							c0.0014954-0.660614,0.5366592-1.1957703,1.1972809-1.1972656
							C114.4163361,317.6622925,114.9915237,317.5761108,115.551918,317.4272461"/>
						<path id="Tracé_6454" class="st17" d="M213.0669098,237.5702515c0.0419312-0.1280823,0.0920258-0.2533264,0.1499939-0.375
							c0-0.579895,0.470108-1.0500031,1.0500031-1.0500031s1.0500031,0.470108,1.0500031,1.0500031
							c-0.0066986,0.2832489,0.2174835,0.5182953,0.5007172,0.5249939c0.0080872,0.0001984,0.0161896,0.0001984,0.0242767,0
							c0.579895,0,1.0500031,0.470108,1.0500031,1.0500031s-0.470108,1.0500031-1.0500031,1.0500031l0,0
							c-0.2832489-0.0066986-0.5182953,0.2174835-0.5249939,0.5007172c-0.0001984,0.0080872-0.0001984,0.0161896,0,0.0242767
							c0,0.579895-0.470108,1.0500031-1.0500031,1.0500031s-1.0500031-0.470108-1.0500031-1.0500031
							c0.0066986-0.2832489-0.2174835-0.5182953-0.5007172-0.5249939c-0.0080872-0.0001984-0.0161896-0.0001984-0.0242767,0
							c-0.579895,0-1.0500031-0.470108-1.0500031-1.0500031s0.470108-1.0500031,1.0500031-1.0500031
							C212.8135834,237.6622772,212.9388275,237.6121826,213.0669098,237.5702515"/>
						<path id="Tracé_6455" class="st17" d="M133.2649078,43.7452393l-5.5249939,21.7000046
							c-0.2744064,1.0908432-1.2932129,1.8265762-2.4150009,1.7440033l-22.2169952-1.6610031
							c-1.3089981-0.0999985-2.4110031,1.8789978-1.5,2.6999969l16.2509995,14.5820007
							c0.7853317,0.7065887,1.774292,1.1462784,2.8249969,1.2559967c3.3300018,0.3450012,12.1439972,1.0059967,16.7399902,1.3440018
							c1.6724243,0.1234589,3.191391-0.9735718,3.6000061-2.5999985c1.1549988-4.4909973,3.3589935-13.1159973,4.1000061-16.4000015
							c0.2322845-1.0350876,0.1336517-2.1169891-0.2819977-3.0930023l-8.5550079-20.1429977
							c-0.4790039-1.1269989-2.6929932-0.7080002-3.0189972,0.5709991"/>
						<path id="Tracé_6456" class="st12" d="M159.2279053,175.1432495
							c-1.2913055,0.2990723-2.5805511-0.5052948-2.8796234-1.7966003
							c-0.0007935-0.0034637-0.0015869-0.0069427-0.0023804-0.0104065l-21.8740082-93.7900009
							c-0.3686829-1.2731781,0.364563-2.6041641,1.6377411-2.972847s2.6041565,0.3645554,2.9728394,1.6377335
							c0.0234528,0.0809708,0.0426178,0.1631241,0.0574188,0.2461166l21.8739929,93.7900085
							c0.3081512,1.2931366-0.4903412,2.5912476-1.7834778,2.8993988c-0.0008392,0.0001984-0.0016785,0.0003967-0.0025177,0.0005951
							"/>
						<path id="Tracé_6457" class="st17" d="M159.7089081,51.1072388l-18.6860046,12.1389999
							c-0.9442444,0.6124878-2.1922302,0.4567528-2.9570007-0.3689995l-15.2649841-16.3769989
							c-0.9000015-0.9659996-3.0449982-0.2680016-2.9250031,0.9510002l2.1709976,21.7780075
							c0.1038132,1.057045,0.5372391,2.054718,1.2389984,2.8519974c2.2229996,2.5250015,8.2789993,9.0240021,11.4409866,12.4079971
							c1.1391754,1.2320938,2.9997864,1.4655151,4.4080048,0.5530014c3.8760071-2.5,11.3079987-7.322998,14.0610046-9.2249985
							c0.8694611-0.6014709,1.5259094-1.4630661,1.875-2.4609985l7.253006-20.6000023
							c0.3999939-1.1570015-1.5130005-2.3610001-2.6150055-1.6469994"/>
						<path id="Tracé_6458" class="st12" d="M148.0329132,45.2872391l-13.5630035,17.7390022
							c-0.6825104,0.8936424-1.9091797,1.1663322-2.9060059,0.6459999l-19.8069916-10.3209991
							c-1.1679993-0.6069984-2.9540024,0.7719994-2.4329987,1.8790016l9.2679977,19.8230019
							c0.4475098,0.9597168,1.1857224,1.7542572,2.1100006,2.2710037
							c2.9319992,1.6350021,10.7879868,5.7320023,14.8879929,7.8610001
							c1.4858856,0.7781067,3.3162689,0.3722458,4.3339996-0.9609985
							c2.8159943-3.6660004,8.2129974-10.7139969,10.1730042-13.4379959
							c0.619278-0.8585663,0.9523773-1.8903961,0.9519958-2.9489975l-0.0130005-21.8790016
							c0-1.2249985-2.1999969-1.7169991-3-0.6710014"/>
						<path id="Tracé_6459" class="st17" d="M214.786911,121.4252472c-0.0044556,0.7361832,0.5887299,1.336586,1.3249207,1.3410339
							c0.0066986,0.0000381,0.013382,0.0000305,0.0200806-0.0000305c7.6799927,0,45.2119904-0.0439987,52.8490143-0.086998
							c0.7623291-0.006485,1.379303-0.6217117,1.3880005-1.3840027v-3.8059998
							c0.0044556-0.7356262-0.5882874-1.3355865-1.3239136-1.3400345c-0.007019-0.0000458-0.0140686-0.0000305-0.0210876,0.0000381
							h-52.8440247c-0.735611-0.0071945-1.3377686,0.5833054-1.3449554,1.3189087
							c-0.0000763,0.0070267-0.0000916,0.014061-0.0000458,0.0210876c-0.0429993,1.1679993-0.0429993,2.8119965-0.0429993,3.935997"
							/>
						<path id="Tracé_6460" class="st12" d="M214.786911,153.9912415
							c-0.0044556,0.7361755,0.5887299,1.3365784,1.3249207,1.3410339c0.0066986,0.0000458,0.013382,0.0000305,0.0200806-0.0000305
							h27.2050018c0.735611,0.0072021,1.3377686-0.5832977,1.3449707-1.3189087
							c0.0000763-0.0073547,0.0000763-0.0147247,0.0000305-0.0220947v-3.8909912
							c0.0061188-0.7345123-0.5843506-1.3349152-1.3188629-1.3410492c-0.0087128-0.000061-0.0174255-0.0000458-0.0261383,0.0000458
							h-27.2000122c-0.7355804-0.0099487-1.3399506,0.5782776-1.3498993,1.313858
							c-0.0001221,0.0090485-0.0001526,0.0180969-0.0000916,0.0271454V153.9912415z"/>
						<path id="Tracé_6461" class="st17" d="M214.786911,132.2802429c-0.0100708,0.3580475,0.1320038,0.7035828,0.3910065,0.951004
							c0.2666626,0.2602081,0.6275787,0.4009552,1,0.3899994c1.779007,0,4.8999939-0.0440063,6.6820068-0.0440063
							c0.7510681-0.0076141,1.3537598-0.6226501,1.3461304-1.3737183c-0.0000305-0.0034332-0.0000763-0.0068512-0.0001373-0.0102844
							v-3.848999c-0.0086975-0.7626801-0.626297-1.378067-1.3890076-1.3840027h-6.6800079
							c-0.7361298-0.0093918-1.3404999,0.5797424-1.3498993,1.3158875
							c-0.0001068,0.0080414-0.0001373,0.0160828-0.0000916,0.0241241V132.2802429z"/>
						<path id="Tracé_6462" class="st12" d="M227.8949127,132.2802429
							c-0.0044556,0.7361755,0.5887299,1.3365784,1.3249207,1.3410339c0.0066986,0.0000458,0.013382,0.0000305,0.0200806-0.0000305
							c5.3370056,0,24.6889954-0.0440063,30.0259857-0.0870056c0.7623291-0.006485,1.379303-0.6217041,1.3880005-1.3840027
							v-3.8059998c0.0055542-0.73452-0.5853577-1.3344727-1.3198853-1.3400421
							c-0.0083618-0.000061-0.0167542-0.0000458-0.025116,0.0000458H229.286911
							c-0.735611-0.0071945-1.3377686,0.5833054-1.3449554,1.3189087c-0.0000763,0.0070343-0.0000916,0.0140533-0.0000458,0.0210876
							c-0.0429993,1.1679993-0.0429993,2.7680054-0.0429993,3.9360046"/>
						<path id="Tracé_6463" class="st17" d="M248.7659149,153.9912415
							c-0.0044556,0.7361755,0.5887299,1.3365784,1.3249207,1.3410339c0.0066986,0.0000458,0.013382,0.0000305,0.0200806-0.0000305
							c3.9049988,0,15.0129852-0.0440063,18.917984-0.0870056c0.7623291-0.006485,1.379303-0.6217041,1.3880005-1.3840027
							v-3.8059998c-0.0086975-0.7622986-0.6256714-1.3775177-1.3880005-1.3840027h-18.9179993
							c-0.7361603-0.0066376-1.3383331,0.5847473-1.3449707,1.3209229c-0.000061,0.0066986-0.0000763,0.013382-0.0000305,0.0200806
							L248.7659149,153.9912415z"/>
						<path id="Tracé_6464" class="st17" d="M214.786911,143.1362457
							c-0.0044556,0.7361755,0.5887299,1.3365784,1.3249207,1.3410339c0.0066986,0.0000458,0.013382,0.0000305,0.0200806-0.0000305
							c7.6799927,0,45.2119904-0.0440063,52.8490143-0.0870056c0.7623291-0.006485,1.379303-0.6217041,1.3880005-1.3840027
							v-3.8059998c0.0044556-0.7356262-0.5882874-1.3355865-1.3239136-1.3400421
							c-0.007019-0.0000305-0.0140686-0.0000305-0.0210876,0.0000458h-52.8440247
							c-0.735611-0.0071869-1.3377686,0.5832977-1.3449554,1.3189087c-0.0000763,0.0070343-0.0000916,0.0140533-0.0000458,0.0210876
							c-0.0429993,1.1679993-0.0429993,2.7680054-0.0429993,3.9360046"/>
					</g>
				</g>
			</g>
			<g id="Groupe_1939">
				<g>
					<defs>
						<path id="SVGID_00000092437207543774811810000016800345619883617155_" d="M79.8869171,114.6662445
							c0,47.5296173,38.5303726,86.0599976,86.0599976,86.0599976c0.0003204,0,0.0006561,0,0.0009918,0
							c47.5289917,0,33.2489929,36.1410065,37.2910004-11.2169952c0.3939972-4.6199951,54.1620026-26.7929993,30.4409943-21.5379944
							c-17.0240021,3.7709961-50.9450073-139.3639984-67.7319946-139.3639984
							C118.4182892,28.6067009,79.8874741,67.1366196,79.8869171,114.6662445"/>
					</defs>
					<clipPath id="SVGID_00000168108773851376512890000002969263493048232860_">
						<use xlink:href="#SVGID_00000092437207543774811810000016800345619883617155_"  style="overflow:visible;"/>
					</clipPath>
					<g id="Groupe_1938" style="clip-path:url(#SVGID_00000168108773851376512890000002969263493048232860_);">
						<path id="Tracé_6465" class="st17" d="M232.9559021,206.5002441c0-7.2835236,5.8994751-13.1906128,13.1829987-13.1999969
							h37.8610077c14.4394836-0.0115967,26.1355896-11.7265015,26.1239929-26.1659851c0-0.0006714,0-0.0013428,0-0.0020142
							v-61.3570023c-0.0170288-22.1560059-17.9550476-40.1226501-40.1109924-40.1750031v12.2350006
							c15.4145508,0.0209656,27.8979797,12.5254517,27.8930054,27.9400024v61.4350052l0,0
							c0.0038757,7.6855621-6.220459,13.9206238-13.9060059,13.9300079h-37.8610077
							c-14.0397186,0.0132446-25.4110413,11.4042816-25.3999939,25.4440002L232.9559021,206.5002441z"/>
						<path id="Tracé_6466" class="st12" d="M298.1469116,156.1002502h11.6560059v5.8000031h-11.6560059V156.1002502z
							 M298.1469116,126.9522476v-5.8779984h11.6560059v5.8000031L298.1469116,126.9522476z M298.1469116,109.479248v-3.6999969
							c0.0133057-0.5917969-0.0134277-1.183815-0.0799866-1.7720032l11.6549988-0.7249985
							c0.0688782,0.8314514,0.0958862,1.6658325,0.0809937,2.5v3.6999969L298.1469116,109.479248z M298.1469116,138.627243
							h11.6560059v5.8000031h-11.6560059V138.627243z M295.5749207,175.2632446
							c0.8207703-1.1201172,1.4459534-2.3711395,1.848999-3.6999969l11.0119934,3.6999969
							c-0.7818604,2.3851776-1.9200745,4.6383362-3.3760071,6.6829987L295.5749207,175.2632446z M285.2049255,181.3022461
							c1.3861694-0.0824432,2.7467957-0.4094849,4.0190125-0.9660034l4.2609863,10.8699951
							c-2.3360596,0.9388733-4.803833,1.5090179-7.3150024,1.6900024L285.2049255,181.3022461z M268.243927,181.3822479h5.7879944
							v11.6750031h-5.7879944V181.3822479z M250.8009338,181.3822479h5.7859802v11.6750031h-5.7879944L250.8009338,181.3822479z
							 M230.7009277,186.6962433c1.9993744-1.5568848,4.2215729-2.8041687,6.5919952-3.6999969l4.1000061,10.8699951
							c-1.2862854,0.4619751-2.4829254,1.1430206-3.5370026,2.0130005L230.7009277,186.6962433z M221.0589142,206.5002441
							c0.0015564-2.5379791,0.3807068-5.061615,1.125-7.4880066l11.0930023,3.4620056
							c-0.4216309,1.3005829-0.6385651,2.6587982-0.6430054,4.026001H221.0589142z"/>
						<path id="Tracé_6467" class="st17" d="M270.0129089,77.8352432
							c-15.4145355,0.0209656-27.897995,12.5254517-27.8930054,27.9400024v35.0250015
							c0.1110382,22.1529694-17.7574615,40.2015076-39.9104309,40.312561
							c-22.1529694,0.1110382-40.2015228-17.7574768-40.312561-39.9104462c-0.0006714-0.1340332-0.0006714-0.2680817,0-0.4021149
							v-15.7810059h12.2180023v15.7810059c-0.0920563,15.4051514,12.3216705,27.9681244,27.7268219,28.0601807
							s27.9681244-12.3216705,28.0601807-27.7268219c0.0006714-0.1111145,0.0006714-0.2222443,0-0.3333588v-35.0250015
							c0.0164642-22.1562347,17.9548035-40.1231995,40.1109924-40.1750031V77.8352432z"/>
						<path id="Tracé_6468" class="st12" d="M287.1349182,83.3102417
							c-1.2868347-0.9799118-2.6589966-1.8423691-4.1000061-2.5770035l5.3859863-10.3059998
							c2.0247192,1.0334167,3.9372253,2.2733383,5.7070007,3.6999969L287.1349182,83.3102417z"/>
						<path id="Tracé_6469" class="st12" d="M273.9519043,77.7552414
							c-1.3066101-0.1632767-2.6222229-0.2441025-3.9389954-0.2419968h-0.8840027l-0.3999939-11.6750031h1.2860107
							c1.8557129,0.0128326,3.7086487,0.1464462,5.5469971,0.4000015L273.9519043,77.7552414z"/>
						<path id="Tracé_6470" class="st12" d="M259.7239075,79.4452438
							c-1.5230408,0.5616837-2.9789734,1.2908249-4.3410034,2.1740036l-6.029007-9.9840012
							c1.9441833-1.1950531,3.9885406-2.2189026,6.1100006-3.0599976L259.7239075,79.4452438z"/>
						<path id="Tracé_6471" class="st12" d="M248.1479034,87.9802475c-1.0470734,1.2444077-1.9629211,2.5935593-2.7330017,4.026001
							l-10.1279907-5.7170029c1.1174622-1.9886551,2.4084778-3.8746567,3.8580017-5.6360016L248.1479034,87.9802475z"/>
						<path id="Tracé_6472" class="st12" d="M295.6169128,94.0432434
							c-0.6390686-1.4957123-1.4305725-2.9215775-2.3619995-4.2549973l9.6499939-6.4930038
							c1.2713928,1.8941879,2.3730164,3.8969727,3.2919922,5.9850006L295.6169128,94.0432434z"/>
						<path id="Tracé_6473" class="st12" d="M242.1999054,101.0242462
							c-0.2561798,1.5709152-0.3899078,3.1593628-0.3999939,4.7509995v0.0800018h-11.5770111v-0.0800018
							c-0.0157013-2.2401428,0.17276-4.4770584,0.5630035-6.6829987L242.1999054,101.0242462z"/>
						<rect id="Rectangle_1052" x="230.2229004" y="117.4502411" class="st12" width="11.5749998" height="5.7969999"/>
						<path id="Tracé_6474" class="st12" d="M241.7979126,135.0002441v5.878006h-11.6560059v-5.8000031L241.7979126,135.0002441z"
							/>
						<path id="Tracé_6475" class="st12" d="M239.4669037,154.1662445
							c-0.7574768,2.1437683-1.6986389,4.2181396-2.8130035,6.1999969l-10.1289978-5.8000031
							c0.7984161-1.3864441,1.4710999-2.8415833,2.0099945-4.3480072L239.4669037,154.1662445z"/>
						<path id="Tracé_6476" class="st12" d="M228.0529022,170.9142456
							c-1.7195435,1.4757996-3.5466003,2.8215332-5.4660034,4.026001l-6.029007-9.9839935
							c1.381897-0.8394623,2.6986237-1.7817993,3.9389954-2.8190002L228.0529022,170.9142456z"/>
						<path id="Tracé_6477" class="st12" d="M209.8869019,179.8522491
							c-2.2275085,0.4350128-4.4844971,0.7024231-6.7519989,0.8000031l-0.3220062-11.6750031
							c1.6193695-0.0688019,3.2314453-0.257309,4.822998-0.5639954L209.8869019,179.8522491z"/>
						<path id="Tracé_6478" class="st12" d="M189.7099152,178.6442413
							c-2.1571503-0.7188568-4.2540283-1.6072998-6.2709961-2.6569977l5.4669952-10.3059998
							c1.4221191,0.7328033,2.9000854,1.3517456,4.4199982,1.8509979L189.7099152,178.6442413z"/>
						<path id="Tracé_6479" class="st12" d="M172.7489014,167.6942444
							c-1.5254822-1.6937103-2.9226837-3.498703-4.1799927-5.3999939l9.8070068-6.2799988
							c0.8552704,1.3625641,1.8521423,2.6309357,2.973999,3.7839966L172.7489014,167.6942444z"/>
						<path id="Tracé_6480" class="st12" d="M163.2629089,149.8182373
							c-0.4897919-2.2274628-0.8123627-4.4884338-0.9649963-6.7640076l11.6560059-0.6439972
							c0.0774689,1.6042633,0.3197479,3.1963196,0.7230072,4.7510071L163.2629089,149.8182373z"/>
						<rect id="Rectangle_1053" x="162.2179108" y="125.2612457" class="st12" width="11.6560001" height="5.7969999"/>
						<path id="Tracé_6481" class="st12" d="M144.4539032,124.214241
							c0.0127106,8.8365402,7.1864319,15.9896774,16.0229797,15.9769821
							c8.8365479-0.0127106,15.9896851-7.1864471,15.9769897-16.0229874
							c-0.0126953-8.8275604-7.1724091-15.9769897-15.9999695-15.9769974c-8.8415222,0.0049667-16.0049744,7.1764679-16,16.0179901
							C144.4539032,124.2108994,144.4539032,124.2125702,144.4539032,124.214241"/>
						<path id="Tracé_6482" class="st19" d="M161.9769135,105.0502472
							c1.6897125,1.6869507,1.6919556,4.4242859,0.0050049,6.1139984s-4.4242859,1.6919556-6.1139984,0.0050049
							l-10.1289978-10.1450043c-1.6669617-1.7100143-1.6320648-4.4475937,0.0779419-6.114563
							c1.6775055-1.6352692,4.3521576-1.6372375,6.0320587-0.0044403L161.9769135,105.0502472"/>
						<path id="Tracé_6483" class="st12" d="M149.5179138,104.728241l-2.0099945-2.0130005l6.1100006-6.1190033
							l2.0090027,2.0130005L149.5179138,104.728241z"/>
						<path id="Tracé_6484" class="st19" d="M151.6079102,138.5462494
							c2.3568726-0.0360107,4.2383118-1.9758301,4.2022858-4.3327179c-0.0352325-2.3061066-1.8961792-4.1670532-4.2022858-4.2022858
							h-28.9379959c-2.3568726,0.0360107-4.2383041,1.9758301-4.2022934,4.3327179
							c0.0352402,2.3061066,1.8961868,4.1670532,4.2022934,4.2022858H151.6079102z"/>
						<rect id="Rectangle_1054" x="138.5049133" y="129.9302368" class="st12" width="2.8940001" height="8.6149998"/>
						<rect id="Rectangle_1055" x="128.536911" y="129.9302368" class="st12" width="2.8940001" height="8.6149998"/>
						<path id="Tracé_6485" class="st19" d="M151.6079102,128.5622406
							c2.3568726-0.0360107,4.2383118-1.9758377,4.2022858-4.3327103c-0.0352325-2.3061066-1.8961792-4.1670532-4.2022858-4.2022934
							h-28.9379959c-2.3568726,0.0360107-4.2383041,1.9758377-4.2022934,4.3327103
							c0.0352402,2.3061066,1.8961868,4.1670609,4.2022934,4.2022934H151.6079102z"/>
						<rect id="Rectangle_1056" x="138.5049133" y="119.9462433" class="st12" width="2.8940001" height="8.6149998"/>
						<rect id="Rectangle_1057" x="128.536911" y="119.9462433" class="st12" width="2.8940001" height="8.6149998"/>
						<path id="Tracé_6486" class="st19" d="M151.6079102,118.5772476
							c2.3568726-0.0361481,4.2381897-1.9760818,4.2020416-4.3329544c-0.0353699-2.3059158-1.8961334-4.1666718-4.2020416-4.2020416
							h-28.9379959c-2.3568726,0.0360107-4.2383041,1.9758377-4.2022934,4.3327103
							c0.0352402,2.3061066,1.8961868,4.1670532,4.2022934,4.2022934L151.6079102,118.5772476z"/>
						<rect id="Rectangle_1058" x="138.5049133" y="109.9622421" class="st12" width="2.8940001" height="8.6149998"/>
						<rect id="Rectangle_1059" x="128.536911" y="109.9622421" class="st12" width="2.8940001" height="8.6149998"/>
						<path id="Tracé_6487" class="st12" d="M122.9109192,128.0002441
							c-0.319313,0.0210114-0.6259918,0.1327209-0.8840027,0.3220062c-0.2221985,0.2399597-0.3382797,0.5593719-0.3219986,0.8860016
							c0.0210342,0.3196106,0.1327362,0.6266022,0.3219986,0.8849945c0.2387009,0.223053,0.5577316,0.3396149,0.8840027,0.322998
							h36.2529907v-2.4160004H122.9109192z"/>
						<path id="Tracé_6488" class="st12" d="M122.9109192,118.0142441
							c-0.319313,0.0210037-0.6259918,0.1327133-0.8840027,0.3219986c-0.2221985,0.2399597-0.3382797,0.5593643-0.3219986,0.8860016
							c0.0210342,0.3196106,0.1327362,0.6266022,0.3219986,0.8850021c0.2387009,0.2230453,0.5577316,0.3396149,0.8840027,0.322998
							h36.2529907v-2.4160004H122.9109192z"/>
					</g>
				</g>
			</g>
		</g>
		<path id="Tracé_6661" class="st12" d="M14.4489136,335.1522522h302.0299988
			c0.7731934,0.0022888,1.4018555-0.6226807,1.4041138-1.395874c0.0022888-0.7731934-0.6226807-1.401825-1.395874-1.4041138
			c-0.0027466,0-0.0054932,0-0.0082397,0H14.4489136c-0.8033676-0.026062-1.4791031,0.5971375-1.5179996,1.3999939
			C12.9940653,334.5435486,13.6551142,335.1531982,14.4489136,335.1522522"/>
		<g id="Groupe_2135" transform="translate(0 0)">
			<g>
				<defs>
					<path id="SVGID_00000102540609783102458550000002817686142989094822_" d="M79.8869171,114.6662445
						c0,47.5296173,38.5303726,86.0599976,86.0599976,86.0599976c0.0003204,0,0.0006561,0,0.0009918,0
						c47.5289917,0,33.2489929,36.1410065,37.2910004-11.2169952c0.3939972-4.6199951,54.1620026-26.7929993,30.4409943-21.5379944
						c-17.0240021,3.7709961-50.9450073-139.3639984-67.7319946-139.3639984
						C118.4182892,28.6067009,79.8874741,67.1366196,79.8869171,114.6662445"/>
				</defs>
				<clipPath id="SVGID_00000170269588492121099440000004284614875549213107_">
					<use xlink:href="#SVGID_00000102540609783102458550000002817686142989094822_"  style="overflow:visible;"/>
				</clipPath>
				<g id="Groupe_1938-2" style="clip-path:url(#SVGID_00000170269588492121099440000004284614875549213107_);">
					<path id="Tracé_6465-2" class="st17" d="M232.9559021,206.5002441c0-7.2835236,5.8994751-13.1906128,13.1829987-13.1999969
						h37.8610077c14.4394836-0.0115967,26.1355896-11.7265015,26.1239929-26.1659851c0-0.0006714,0-0.0013428,0-0.0020142
						v-61.3570023c-0.0170288-22.1560059-17.9550476-40.1226501-40.1109924-40.1750031v12.2350006
						c15.4145508,0.0209656,27.8979797,12.5254517,27.8930054,27.9400024v61.4350052l0,0
						c0.0038757,7.6855621-6.220459,13.9206238-13.9060059,13.9300079h-37.8610077
						c-14.0397186,0.0132446-25.4110413,11.4042816-25.3999939,25.4440002L232.9559021,206.5002441z"/>
					<path id="Tracé_6466-2" class="st12" d="M298.1469116,156.1002502h11.6560059v5.8000031h-11.6560059V156.1002502z
						 M298.1469116,126.9522476v-5.8779984h11.6560059v5.8000031L298.1469116,126.9522476z M298.1469116,109.479248v-3.6999969
						c0.0133057-0.5917969-0.0134277-1.183815-0.0799866-1.7720032l11.6549988-0.7249985
						c0.0688782,0.8314514,0.0958862,1.6658325,0.0809937,2.5v3.6999969L298.1469116,109.479248z M298.1469116,138.627243
						h11.6560059v5.8000031h-11.6560059V138.627243z M295.5749207,175.2632446
						c0.8207703-1.1201172,1.4459534-2.3711395,1.848999-3.6999969l11.0119934,3.6999969
						c-0.7818604,2.3851776-1.9200745,4.6383362-3.3760071,6.6829987L295.5749207,175.2632446z M285.2049255,181.3022461
						c1.3861694-0.0824432,2.7467957-0.4094849,4.0190125-0.9660034l4.2609863,10.8699951
						c-2.3360596,0.9388733-4.803833,1.5090179-7.3150024,1.6900024L285.2049255,181.3022461z M268.243927,181.3822479h5.7879944
						v11.6750031h-5.7879944V181.3822479z M250.8009338,181.3822479h5.7859802v11.6750031h-5.7879944L250.8009338,181.3822479z
						 M230.7009277,186.6962433c1.9993744-1.5568848,4.2215729-2.8041687,6.5919952-3.6999969l4.1000061,10.8699951
						c-1.2862854,0.4619751-2.4829254,1.1430206-3.5370026,2.0130005L230.7009277,186.6962433z M221.0589142,206.5002441
						c0.0015564-2.5379791,0.3807068-5.061615,1.125-7.4880066l11.0930023,3.4620056
						c-0.4216309,1.3005829-0.6385651,2.6587982-0.6430054,4.026001H221.0589142z"/>
					<path id="Tracé_6467-2" class="st17" d="M270.0129089,77.8352432
						c-15.4145355,0.0209656-27.897995,12.5254517-27.8930054,27.9400024v35.0250015
						c0.1110382,22.1529694-17.7574615,40.2015076-39.9104309,40.312561
						c-22.1529694,0.1110382-40.2015228-17.7574768-40.312561-39.9104462c-0.0006714-0.1340332-0.0006714-0.2680817,0-0.4021149
						v-15.7810059h12.2180023v15.7810059c-0.0920563,15.4051514,12.3216705,27.9681244,27.7268219,28.0601807
						s27.9681244-12.3216705,28.0601807-27.7268219c0.0006714-0.1111145,0.0006714-0.2222443,0-0.3333588v-35.0250015
						c0.0164642-22.1562347,17.9548035-40.1231995,40.1109924-40.1750031V77.8352432z"/>
					<path id="Tracé_6468-2" class="st12" d="M287.1349182,83.3102417
						c-1.2868347-0.9799118-2.6589966-1.8423691-4.1000061-2.5770035l5.3859863-10.3059998
						c2.0247192,1.0334167,3.9372253,2.2733383,5.7070007,3.6999969L287.1349182,83.3102417z"/>
					<path id="Tracé_6469-2" class="st12" d="M273.9519043,77.7552414
						c-1.3066101-0.1632767-2.6222229-0.2441025-3.9389954-0.2419968h-0.8840027l-0.3999939-11.6750031h1.2860107
						c1.8557129,0.0128326,3.7086487,0.1464462,5.5469971,0.4000015L273.9519043,77.7552414z"/>
					<path id="Tracé_6470-2" class="st12" d="M259.7239075,79.4452438
						c-1.5230408,0.5616837-2.9789734,1.2908249-4.3410034,2.1740036l-6.029007-9.9840012
						c1.9441833-1.1950531,3.9885406-2.2189026,6.1100006-3.0599976L259.7239075,79.4452438z"/>
					<path id="Tracé_6471-2" class="st12" d="M248.1479034,87.9802475
						c-1.0470734,1.2444077-1.9629211,2.5935593-2.7330017,4.026001l-10.1279907-5.7170029
						c1.1174622-1.9886551,2.4084778-3.8746567,3.8580017-5.6360016L248.1479034,87.9802475z"/>
					<path id="Tracé_6472-2" class="st12" d="M295.6169128,94.0432434
						c-0.6390686-1.4957123-1.4305725-2.9215775-2.3619995-4.2549973l9.6499939-6.4930038
						c1.2713928,1.8941879,2.3730164,3.8969727,3.2919922,5.9850006L295.6169128,94.0432434z"/>
					<path id="Tracé_6473-2" class="st12" d="M242.1999054,101.0242462
						c-0.2561798,1.5709152-0.3899078,3.1593628-0.3999939,4.7509995v0.0800018h-11.5770111v-0.0800018
						c-0.0157013-2.2401428,0.17276-4.4770584,0.5630035-6.6829987L242.1999054,101.0242462z"/>
					<rect id="Rectangle_1052-2" x="230.2229004" y="117.4502411" class="st12" width="11.5749998" height="5.7969999"/>
					<path id="Tracé_6474-2" class="st12" d="M241.7979126,135.0002441v5.878006h-11.6560059v-5.8000031L241.7979126,135.0002441z"
						/>
					<path id="Tracé_6475-2" class="st12" d="M239.4669037,154.1662445
						c-0.7574768,2.1437683-1.6986389,4.2181396-2.8130035,6.1999969l-10.1289978-5.8000031
						c0.7984161-1.3864441,1.4710999-2.8415833,2.0099945-4.3480072L239.4669037,154.1662445z"/>
					<path id="Tracé_6476-2" class="st12" d="M228.0529022,170.9142456
						c-1.7195435,1.4757996-3.5466003,2.8215332-5.4660034,4.026001l-6.029007-9.9839935
						c1.381897-0.8394623,2.6986237-1.7817993,3.9389954-2.8190002L228.0529022,170.9142456z"/>
					<path id="Tracé_6477-2" class="st12" d="M209.8869019,179.8522491
						c-2.2275085,0.4350128-4.4844971,0.7024231-6.7519989,0.8000031l-0.3220062-11.6750031
						c1.6193695-0.0688019,3.2314453-0.257309,4.822998-0.5639954L209.8869019,179.8522491z"/>
					<path id="Tracé_6478-2" class="st12" d="M189.7099152,178.6442413
						c-2.1571503-0.7188568-4.2540283-1.6072998-6.2709961-2.6569977l5.4669952-10.3059998
						c1.4221191,0.7328033,2.9000854,1.3517456,4.4199982,1.8509979L189.7099152,178.6442413z"/>
					<path id="Tracé_6479-2" class="st12" d="M172.7489014,167.6942444
						c-1.5254822-1.6937103-2.9226837-3.498703-4.1799927-5.3999939l9.8070068-6.2799988
						c0.8552704,1.3625641,1.8521423,2.6309357,2.973999,3.7839966L172.7489014,167.6942444z"/>
					<path id="Tracé_6480-2" class="st12" d="M163.2629089,149.8182373
						c-0.4897919-2.2274628-0.8123627-4.4884338-0.9649963-6.7640076l11.6560059-0.6439972
						c0.0774689,1.6042633,0.3197479,3.1963196,0.7230072,4.7510071L163.2629089,149.8182373z"/>
					<rect id="Rectangle_1053-2" x="162.2179108" y="125.2612457" class="st12" width="11.6560001" height="5.7969999"/>
					<path id="Tracé_6481-2" class="st12" d="M144.4539032,124.214241
						c0.0127106,8.8365402,7.1864319,15.9896774,16.0229797,15.9769821
						c8.8365479-0.0127106,15.9896851-7.1864471,15.9769897-16.0229874
						c-0.0126953-8.8275604-7.1724091-15.9769897-15.9999695-15.9769974c-8.8415222,0.0049667-16.0049744,7.1764679-16,16.0179901
						C144.4539032,124.2108994,144.4539032,124.2125702,144.4539032,124.214241"/>
					<path id="Tracé_6482-2" class="st19" d="M161.9769135,105.0502472
						c1.6897125,1.6869507,1.6919556,4.4242859,0.0050049,6.1139984s-4.4242859,1.6919556-6.1139984,0.0050049
						l-10.1289978-10.1450043c-1.6669617-1.7100143-1.6320648-4.4475937,0.0779419-6.114563
						c1.6775055-1.6352692,4.3521576-1.6372375,6.0320587-0.0044403L161.9769135,105.0502472"/>
					<path id="Tracé_6483-2" class="st12" d="M149.5179138,104.728241l-2.0099945-2.0130005l6.1100006-6.1190033
						l2.0090027,2.0130005L149.5179138,104.728241z"/>
					<path id="Tracé_6484-2" class="st19" d="M151.6079102,138.5462494
						c2.3568726-0.0360107,4.2383118-1.9758301,4.2022858-4.3327179c-0.0352325-2.3061066-1.8961792-4.1670532-4.2022858-4.2022858
						h-28.9379959c-2.3568726,0.0360107-4.2383041,1.9758301-4.2022934,4.3327179
						c0.0352402,2.3061066,1.8961868,4.1670532,4.2022934,4.2022858H151.6079102z"/>
					<rect id="Rectangle_1054-2" x="138.5049133" y="129.9302368" class="st12" width="2.8940001" height="8.6149998"/>
					<rect id="Rectangle_1055-2" x="128.536911" y="129.9302368" class="st12" width="2.8940001" height="8.6149998"/>
					<path id="Tracé_6485-2" class="st19" d="M151.6079102,128.5622406
						c2.3568726-0.0360107,4.2383118-1.9758377,4.2022858-4.3327103c-0.0352325-2.3061066-1.8961792-4.1670532-4.2022858-4.2022934
						h-28.9379959c-2.3568726,0.0360107-4.2383041,1.9758377-4.2022934,4.3327103
						c0.0352402,2.3061066,1.8961868,4.1670609,4.2022934,4.2022934H151.6079102z"/>
					<rect id="Rectangle_1056-2" x="138.5049133" y="119.9462433" class="st12" width="2.8940001" height="8.6149998"/>
					<rect id="Rectangle_1057-2" x="128.536911" y="119.9462433" class="st12" width="2.8940001" height="8.6149998"/>
					<path id="Tracé_6486-2" class="st19" d="M151.6079102,118.5772476
						c2.3568726-0.0361481,4.2381897-1.9760818,4.2020416-4.3329544c-0.0353699-2.3059158-1.8961334-4.1666718-4.2020416-4.2020416
						h-28.9379959c-2.3568726,0.0360107-4.2383041,1.9758377-4.2022934,4.3327103
						c0.0352402,2.3061066,1.8961868,4.1670532,4.2022934,4.2022934L151.6079102,118.5772476z"/>
					<rect id="Rectangle_1058-2" x="138.5049133" y="109.9622421" class="st12" width="2.8940001" height="8.6149998"/>
					<rect id="Rectangle_1059-2" x="128.536911" y="109.9622421" class="st12" width="2.8940001" height="8.6149998"/>
					<path id="Tracé_6487-2" class="st12" d="M122.9109192,128.0002441
						c-0.319313,0.0210114-0.6259918,0.1327209-0.8840027,0.3220062c-0.2221985,0.2399597-0.3382797,0.5593719-0.3219986,0.8860016
						c0.0210342,0.3196106,0.1327362,0.6266022,0.3219986,0.8849945c0.2387009,0.223053,0.5577316,0.3396149,0.8840027,0.322998
						h36.2529907v-2.4160004H122.9109192z"/>
					<path id="Tracé_6488-2" class="st12" d="M122.9109192,118.0142441
						c-0.319313,0.0210037-0.6259918,0.1327133-0.8840027,0.3219986c-0.2221985,0.2399597-0.3382797,0.5593643-0.3219986,0.8860016
						c0.0210342,0.3196106,0.1327362,0.6266022,0.3219986,0.8850021c0.2387009,0.2230453,0.5577316,0.3396149,0.8840027,0.322998
						h36.2529907v-2.4160004H122.9109192z"/>
				</g>
			</g>
		</g>
	</g>
</g>
</svg>
