<?xml version="1.0" encoding="UTF-8"?>
<svg id="Calque_2" data-name="Calque 2" xmlns="http://www.w3.org/2000/svg" width="300.0039444" height="299.9702112" viewBox="0 0 300.0039444 299.9702112">
  <g id="ILLUSTRATIONS">
    <g id="Groupe_2890" data-name="Groupe 2890">
      <g id="Groupe_2870" data-name="Groupe 2870">
        <path id="Tracé_8303" data-name="Tracé 8303" d="m150.4514694,278.0727617c-.5539856,0-1.1140137-.0150146-1.6600037-.0450134-1.1946411-.0345459-2.1351013-1.0310059-2.1005554-2.225647.0001831-.0054626.0003357-.0108948.0005493-.0163574.102417-1.1990967,1.1520386-2.0916138,2.3519897-2,1.6473083.0882263,3.2992249.0212402,4.9339905-.2000122,1.1898193-.1855774,2.3096313.6142883,2.519989,1.7999878.1490784,1.1741333-.6819153,2.2467651-1.8560181,2.3958435-.0116577.0014954-.0233154.0028687-.0349731.0041504-1.3781128.1871338-2.7672424.2813416-4.1579895.2820129l.0030212.0050354Zm-11.0849915-2.1940002c-.2957153.0000916-.5886841-.0566101-.8630066-.1669922-1.7542419-.7078857-3.4532776-1.5455627-5.0830078-2.506012-.9959717-.5578918-1.3511047-1.8175354-.7932129-2.8135071.0206299-.0368042.0423889-.072998.0652161-.10849.6773682-1.0061646,2.0213623-1.3103638,3.0660095-.6940002h0c1.4339905.8465576,2.9291382,1.5849304,4.4729919,2.2090149,1.0811462.402771,1.6310425,1.6057129,1.2282715,2.6868591-.0116577.0313416-.0241089.0623779-.037262.0931396-.3688049.8015137-1.1748047,1.3108826-2.0570068,1.2999878h.0010071Zm24.2850037-.9349976c-1.2015076.0290833-2.1994629-.9205627-2.230011-2.1220093.0068359-.8162842.4828186-1.5557556,1.2229919-1.8999939,1.5021362-.7293091,2.95224-1.5612793,4.3399963-2.4899902,1.0063171-.6723633,2.3615417-.4498596,3.1000061.5090027.6790466.9142151.4884338,2.2058105-.4257812,2.8848572-.0352783.0261841-.0713501.051239-.1082153.0751343l-.0169983.0109863c-1.5607605,1.0448608-3.1919861,1.9804382-4.8819885,2.7999878-.3117981.1510315-.6535645.2299805-1,.2309875v.0010376Zm-36.8129883-7.2390137c-.5723877.0029297-1.124939-.2094727-1.5480042-.5950012-1.3380127-1.2380066-2.6170044-2.5303345-3.8370056-3.8770142-.7573547-.8460083-.6855164-2.145813.1605225-2.9031982.03479-.0311584.0706482-.0610962.1074829-.0898132.9333496-.7406006,2.2772827-.6478271,3.1000061.2139893,1.1650085,1.2829895,2.3609924,2.4949951,3.5650024,3.6000061.8434143.7586365.9121399,2.0573425.1535034,2.9007263-.0307007.0341492-.062561.0672607-.0954895.0992737-.4293213.4196167-1.0066833.6531372-1.6069946.6499939l.0009766.0010376Zm48.868988-1.5780029c-1.2014771.0279541-2.1985168-.9225464-2.2279968-2.1239929.0021973-.5511475.2238464-1.0787048.6159973-1.4660034,1.1999817-1.1999817,2.3436584-2.445343,3.4309998-3.7359924.7979126-.9161682,2.1699524-1.0557556,3.1359863-.3190002.9116516.679718,1.0997009,1.9697571.4199829,2.8814087-.0274658.0368347-.0561218.0727234-.085968.107605h0c-1.166687,1.3800049-2.3913269,2.7133484-3.6740112,4-.4295959.4243469-1.0101624.660675-1.6140137.6570129l-.0009766-.0010376Zm-58.5190125-9.6860046c-.7378235.0057678-1.4319458-.3493042-1.8590088-.9509888-1.0159912-1.4666748-1.988678-2.9559937-2.9179993-4.4679871-.6038208-.9700928-.3069153-2.2460327.663208-2.8498535.0349426-.021759.0705872-.0424805.106781-.0621338,1.0521545-.6021118,2.3912354-.2803955,3.0549927.7340088l.019989.0329895c.8873291,1.4466858,1.8163452,2.8690186,2.7869873,4.2669983.651123.9349976.42099,2.2207642-.5140076,2.8718872-.0362244.0252075-.0732422.0492554-.1109924.072113-.3683777.2317505-.7947998.3544922-1.230011.3540039l.000061-.0010376Zm67.7900085-1.868988c-1.2014771.026825-2.1976318-.9245605-2.2260132-2.1260071.0010071-.4012451.1195374-.793396.3410034-1.1279907.9333191-1.4213257,1.8283386-2.8653259,2.6849976-4.3320007.6245117-1.0382996,1.9506226-1.4089661,3.0230103-.8450012,1.0272217.5068359,1.4490662,1.7503967.9422302,2.7776184-.017395.0353088-.0358276.0700989-.0552368.1043701l-.0169983.0289917c-.8926392,1.5333252-1.8259888,3.0416565-2.7999878,4.5249939-.4231567.6270142-1.1325989.999939-1.8890076.9930115l-.0039978.0020142Zm-75.2619934-10.8370056c-.8458862.0090332-1.6246338-.4594727-2.0130005-1.2109985-.7859802-1.5740051-1.5393372-3.162323-2.2600098-4.7650146-.4730835-1.0504456-.0050354-2.2855225,1.0454407-2.758606.0325012-.0146179.0653687-.0284424.0985718-.0413818,1.1127625-.4775085,2.4044189.0020447,2.9360046,1.0899963l.0150146.0329895c.697998,1.5513306,1.4276428,3.0889893,2.1889954,4.6130066.5062866,1.0317688.0803223,2.2786255-.9514771,2.7849426-.0330811.0162354-.0666199.0315857-.1005249.046051-.3011475.137146-.6281128.2084045-.9590149.2090149Zm82.4519958-2.0169983c-1.2014771.0273743-2.1980591-.923584-2.2269897-2.125.0003662-.3042297.0686951-.6045532.2000122-.8789978.7333374-1.5379944,1.4363403-3.0883484,2.1090088-4.651001.5052795-1.0993042,1.7845154-1.6084595,2.9070129-1.1570129,1.0852051.3948669,1.6448364,1.5947266,1.2499695,2.6799622-.011261.0309448-.0232544.0616455-.0359802.092041-.6940002,1.6113281-1.4193115,3.2113342-2.1759949,4.7999878-.3817749.7698364-1.1707458,1.2529602-2.0299988,1.2430115l.0029602-.0029907Zm-88.2870178-11.4570007c-.9253235.012146-1.7615356-.5497437-2.1000061-1.4110107-.6113281-1.6366577-1.196991-3.281311-1.7569885-4.9339905-.3572388-1.1063232.25-2.2927551,1.3562927-2.6499939.0263977-.0085449.0529785-.0165405.0797119-.0240173,1.1509094-.3706665,2.3891296.2336426,2.8049927,1.368988h0c.5453491,1.6119995,1.116333,3.2160034,1.7130127,4.8120117.3920593,1.0915222-.1749573,2.2941895-1.2664795,2.6862793-.0273132.0097961-.0548096.019043-.0825195.02771-.2399292.0815735-.4915771.1234741-.7449951.1240234h-.0030212Zm93.8999939-2.1000061c-1.2010803.0279541-2.1979675-.921936-2.2279968-2.1229858.0001526-.2345276.040741-.4672546.1199951-.6879883.5639954-1.571991,1.118988-3.2000122,1.6489868-4.8340149.3842468-1.1456604,1.6060486-1.7819519,2.7650146-1.4400024,1.1303711.2855835,1.8151855,1.4334106,1.5296326,2.5637512-.006134.0242004-.0126648.0482788-.0196228.0722351-.006012.0190125-.0119934.0390015-.0180054.0570068-.5380249,1.6593323-1.1010132,3.3106689-1.6889954,4.95401-.3300781.8746948-1.1721497,1.4494019-2.1069946,1.4379883h-.0020142Zm-98.4389954-11.822998c-.9876099.013916-1.8648987-.6283264-2.1499939-1.5740051-.4700012-1.6746521-.918335-3.3546448-1.3450012-5.0400085-.27771-1.1368713.4187622-2.2835999,1.5556335-2.5613098.0213623-.005249.0428162-.0101318.0643616-.014679,1.1690979-.2975464,2.3635559.385498,2.7000122,1.5440063l.0090027.0360107c.4173279,1.6499939.8563232,3.2950134,1.3169861,4.9349976.2956543,1.1317749-.3821411,2.2889099-1.513916,2.5845642-.0209351.0054626-.0419617.0106201-.0630798.0154419-.1882629.047821-.3817444.071991-.5759888.071991l.0019836.0029907Zm102.7999878-2.1520081c-1.2029419.0273743-2.2006226-.9250488-2.2290039-2.1279907-.000061-.1769409.0231323-.3530884.0690002-.5239868.4420166-1.6446838.8626709-3.2946777,1.2619934-4.9500122.3024902-1.1684265,1.4793091-1.8844299,2.6560059-1.6159973,1.1547852.209259,1.9212952,1.3150635,1.7120056,2.4698792-.0036926.0204163-.0076904.040802-.0119934.0611267l-.0090027.0369873c-.4089966,1.7000122-.8420105,3.3999939-1.2879944,5.052002-.2759094.9587402-1.1594543,1.6141357-2.1570129,1.6000061l-.0039978-.0020142Zm-106.2339783-12.0529785c-1.0423279.0174561-1.9538269-.6990356-2.1830139-1.7160034-.3450012-1.6789856-.678009-3.3999939-.9890137-5.1069946-.1959534-1.1621704.5873108-2.2631531,1.7494812-2.4591064.0168152-.0028381.0336304-.0054626.0505066-.0079041,1.1846008-.2258911,2.3331299.5343323,2.5880127,1.7130127v.0280151c.304657,1.6746826.6283264,3.346344.9710083,5.0150146.2134094,1.1590881-.5532227,2.2717285-1.7123108,2.4851379-.0172119.0031433-.0344238.0061035-.0516968.0088501-.1401978.0258179-.2824402.0388489-.4249878.0390015l.0020142.0009766Zm109.5250244-2.1830139c-1.2018738.0296326-2.2004395-.920166-2.2309875-2.1220093-.0000305-.1312561.0126953-.262207.0379944-.3909912.3259888-1.6713257.6333313-3.3463135.9219971-5.0249939.2197266-1.1850281,1.3466492-1.9768677,2.5360107-1.7820129,1.1742249.1391907,2.0132751,1.2039185,1.8740845,2.3781433-.0015564.0133057-.0032654.0265808-.0050964.039856,0,.0159912-.006012.0329895-.0090027.0499878-.293335,1.7080078-.6060181,3.4129944-.9379883,5.1149902-.2213135,1.0264282-1.137146,1.7533875-2.1870117,1.7359924v.0010376Zm-112.006012-12.1999969c-1.0898132.016983-2.0277405-.766571-2.2049866-1.8419952-.2406616-1.7140045-.4633179-3.4306793-.6679993-5.1499939-.1222229-1.1799927.7352905-2.2356415,1.9152832-2.3578644.0108948-.0011139.0217896-.0021667.0327148-.0031281,1.1941528-.160965,2.2966919.6656036,2.4769897,1.8569946v.0249939c.2000122,1.6900024.4230042,3.3939972.6579895,5.0639954.1403198,1.1763153-.6994934,2.2436676-1.8757935,2.3839874-.0120544.0014496-.0241089.0027771-.0361938.0040131h0c-.0994873.012619-.199707.0189667-.2999878.0189972h.0019836Zm114.3500061-2.2059937c-.0932617-.0002441-.1864014-.0059204-.2789917-.0169983-1.1805725-.110611-2.0479736-1.1573486-1.9373474-2.3379211.0010376-.0110321.0021667-.0220642.0033569-.0330811.2213135-1.6886597.4253235-3.3789978.6119995-5.0709991.1529846-1.1948242,1.2384033-2.0444336,2.4349976-1.9060059,1.1868286.0812531,2.0830994,1.1092529,2.0018616,2.2960968-.0005798.0083008-.0011902.0166016-.0018616.0249023v.029007c-.1889954,1.7149963-.3999939,3.4490051-.6239929,5.154007-.1669617,1.0851135-1.1102905,1.879776-2.2080078,1.8600006l-.0020142.0009918Zm-115.9609985-12.2940063c-1.1361694.0223083-2.1002808-.8288422-2.2189941-1.9589996-.1419983-1.7233429-.2663574-3.4480133-.3729858-5.173996-.0334473-1.1957855.908783-2.192276,2.1045837-2.2257385.0034485-.0000916.0069275-.0001831.0104065-.0002594,1.18396-.0813751,2.2178345.7938538,2.3330078,1.9750061.1059875,1.6999969.2290039,3.4089966.3670044,5.0939941.0699463,1.1903229-.8382874,2.2119904-2.028595,2.2819519-.0064697.0003815-.0129395.0007324-.0194092.0010529h0c-.0570068,0-.1149902.0070038-.1740112.0070038l-.0010071-.0000153Zm117.4400024-2.2200012c-.053009,0-.1000061,0-.1579895-.0050049-1.191925-.0493011-2.1181946-1.0554962-2.0688782-2.2474213.0002441-.0065308.0005493-.0130463.000885-.019577h0c.1229858-1.6829987.2319946-3.3999939.3240051-5.1000061.0947266-1.1992493,1.1390686-2.0975647,2.3389893-2.0119934,1.1947937.0287018,2.1401062,1.0205536,2.1113892,2.2153625-.0001221.0048676-.0002441.0097504-.0003967.0146332-.0926514,1.7260132-.2023621,3.4513397-.32901,5.1759949-.1105652,1.1369781-1.0778809,1.9971313-2.2200012,1.973999l.0010071.0040131Zm-118.2230225-12.3439941c-1.1802368.0269775-2.1676941-.8899994-2.2279968-2.0690002-.04599-1.7273407-.0756531-3.4546814-.0889893-5.1820068.0541382-1.230957,1.0959167-2.1849518,2.3268738-2.1308136,1.1424561.0502472,2.0619507.9562073,2.1291199,2.0978088.0140076,1.6999969.0450134,3.4219971.0889893,5.1069946.0032959,1.1995544-.9664307,2.1746826-2.1659851,2.1779938h-.0620422l.0000305-.0009766Zm118.8830261-2.223999h-.0409851c-1.2000732.0082855-2.179657-.95784-2.1879578-2.1579285-.0000305-.001358-.0000305-.0027161-.0000305-.0040741h0c.0320129-1.6860046.0480042-3.3999939.0480042-5.1069946v-.1799927c.0521851-1.230484,1.0920105-2.1856842,2.3225098-2.1334991,1.1573486.0490875,2.0843811.9761505,2.1334839,2.1334991v.1799927c0,1.7279968-.0169983,3.4720001-.0490112,5.1840057-.0513916,1.1847687-1.0404053,2.1111298-2.2260132,2.0849915Zm-118.8830261-12.352005h-.0570068c-1.1995544-.0005493-2.1715393-.9734344-2.17099-2.1730042v-.0039978h0c.0440063-1.7250061.1080017-3.4689941.1860046-5.1820068.1322327-1.19664,1.2017517-2.0647278,2.3999939-1.947998,1.1359863.0612793,2.0311584.9905396,2.0499878,2.128006-.0773315,1.7006683-.1383362,3.4006653-.1830139,5.1000061-.0550537,1.1817474-1.0422058,2.104126-2.2249756,2.0789948Zm118.7680054-2.3999939c-1.1726379.0251923-2.1553955-.8811646-2.2250061-2.052002-.0599976-1.6999969-.1369934-3.4199982-.2290039-5.1000061-.0504456-1.1929779.8757629-2.2009583,2.0687256-2.2514038.0050964-.0002136.0101929-.000412.0152893-.0005951,1.1994324-.0982513,2.2539673.7884827,2.3630066,1.9869995v.0460052c.0929871,1.7079926.17099,3.451004.2319946,5.1799927.013855,1.1978302-.9459534,2.1800842-2.1437683,2.193924-.0024109.0000305-.0048218.000061-.0072327.0000763h-.0769958l.0029907-.0029907Zm-117.9849854-12.1600037c-.0584106.0009918-.1168518-.0013428-.1749878-.0070038-1.1904297-.0576324-2.1087646-1.069397-2.0511169-2.2598267.0003357-.0070648.0007324-.0141296.0011292-.0211792h0c.1400146-1.720993.2999878-3.4589996.4719849-5.1670074.1387024-1.195694,1.2125854-2.0579224,2.4100037-1.9349976,1.1888428.066803,2.0984497,1.0847168,2.0316467,2.2735596-.0004883.0088196-.0010376.0176392-.0016479.0264435v.0469971c-.1713257,1.6940002-.3263245,3.389328-.4649963,5.0859985-.119751,1.1305389-1.0853882,1.9810181-2.2220154,1.957016Zm117.0740051-2.3999939c-1.1292114.022171-2.0897217-.8187714-2.2170105-1.9409943-.1530151-1.6889954-.3250122-3.3999939-.5130005-5.0809937-.0939026-1.1859131.7913208-2.2234039,1.9772339-2.3173218.0075989-.0005951.0151672-.0011597.0227661-.0016785,1.1821289-.1355591,2.2578125.6933594,2.428009,1.8710022.1900024,1.7089996.3649902,3.4470062.5209961,5.1629944.0814819,1.1879425-.8154907,2.2169952-2.0034485,2.2984619-.0081787.0005646-.0163574.0010681-.0245667.0015411h0c-.0650024.0050049-.1300049.0079956-.1940002.0079956l.0030212-.0010071Zm-115.4810181-12.1000061c-1.2029114.0268402-2.200531-.9251556-2.230011-2.128006.0001831-.0926514.0065308-.1851807.0190125-.2769928.2399902-1.7146759.4983215-3.4269867.7749939-5.1369934.2402039-1.1812439,1.3794861-1.9546814,2.5660095-1.7420044,1.1654663.1565399,1.9860229,1.2245483,1.8370056,2.3910065-.2680054,1.6620026-.5249939,3.3610077-.7619934,5.0500031-.1767883,1.0758362-1.1148682,1.8599091-2.2050171,1.8429871Zm113.7390137-2.3820038c-1.0818481.0159912-2.0147095-.757019-2.2000122-1.822998-.2520142-1.6833191-.5230103-3.3640137-.8129883-5.0420074-.1660767-1.170166.6478882-2.2534027,1.8180542-2.4194794.0139771-.0019836.0279236-.0038147.0419312-.0055237,1.1742554-.1962738,2.2940063.569519,2.5369873,1.7350006.2953491,1.7073364.5713196,3.4173431.8280029,5.1300049.1496277,1.1734924-.6804199,2.2460938-1.8539124,2.3957062-.0120239.0015259-.0240479.0029602-.0361023.0042877-.1053772.0146332-.2116089.0219879-.3179932.0220032l-.0039673.003006Zm-111.2680054-12.0090027c-1.2025757.0279541-2.200531-.9234619-2.230011-2.1260071-.0001526-.1360474.0135803-.2717438.0409851-.4049988.3479919-1.6999969.7163391-3.3956757,1.105011-5.0870056.306427-1.1672363,1.4851685-1.8795166,2.6610107-1.6080017,1.1536255.2156219,1.914032,1.3256073,1.6984253,2.4792328-.0023499.012619-.0048218.0252075-.0074158.0377655-.3813171,1.6600037-.7430115,3.3240051-1.0849915,4.9920044-.2288818,1.0177307-1.1409912,1.7348175-2.1839905,1.7169952l.0009766.0000153Zm108.6459961-2.3580017c-1.0349121.0181885-1.9425659-.6875153-2.1799927-1.6950073-.3606262-1.6666565-.741333-3.3263245-1.1419983-4.9790039-.2682495-1.1402588.4386292-2.2821045,1.5788879-2.5503693.0206299-.0048523.0413513-.0093994.0621033-.0136261,1.1718445-.2903748,2.3626099.401947,2.6900024,1.5639954l.0100098.0440063c.3999939,1.6690063.7999878,3.3769989,1.1640015,5.076004.2276001,1.1530151-.522583,2.2722168-1.6755981,2.4998169-.0184326.0036469-.0368958.0070343-.0553894.0101776-.1488647.0293427-.3002625.0440826-.4519958.0440063h-.0000305Zm-105.2170105-11.8509979c-1.2029724.0273895-2.2006226-.9250641-2.2290039-2.128006.0004272-.1842041.0256653-.3675232.0750122-.5449982.4666748-1.6760101.9593506-3.3456726,1.4779968-5.0090027.387146-1.1448975,1.6105652-1.7784729,2.7690125-1.4340057,1.1287842.289566,1.809082,1.4393616,1.5195007,2.5681305-.0061035.0237427-.0126038.0473633-.0195007.0708618-.5046387,1.6266632-.9866638,3.2599945-1.4460144,4.8999939-.2837524.9476166-1.1618958,1.5918579-2.151001,1.5780029l.0039978-.0009766Zm101.6199951-2.3200073c-.9790039.0139465-1.8509216-.6167908-2.1440125-1.5509949-.480011-1.6333313-.9833679-3.2599945-1.5100098-4.8800049-.3435059-1.112381.2797852-2.2926178,1.3921509-2.6361389.0251465-.0077515.050415-.0150452.0758362-.0218658,1.1545105-.3579712,2.3855896.2602081,2.7879944,1.3999939.5386658,1.6573486,1.0536804,3.3213501,1.5450134,4.9920044.3117065,1.124588-.34729,2.2889099-1.4718628,2.6006165-.0235901.0065308-.0473022.0126648-.0711365.0183868-.1957092.0523376-.3974304.0788879-.6000061.0789948l-.0039673-.0009918Zm-97.1000061-11.6060028c-1.2010803.0279541-2.197998-.9219513-2.2279968-2.1230011.000061-.2434692.0437622-.4849396.1289978-.7129974.6106567-1.6380005,1.2493286-3.2663269,1.9159851-4.8849945.4815674-1.1101074,1.7512512-1.6449432,2.8819885-1.2140045,1.0945435.3734436,1.6790771,1.5634766,1.3056335,2.6580048-.0101929.0299072-.0210876.0595703-.0326233.0889893l-.0079956.0209961c-.6359863,1.5420074-1.2640076,3.1430054-1.8649902,4.7539978-.3377075.8625946-1.1747131,1.4255371-2.1009827,1.4130249l.0019836-.0000153Zm92.3859863-2.2599945c-.9134827.0106964-1.7408447-.5375671-2.0870056-1.3829956-.6193237-1.584671-1.2666626-3.1593323-1.9419861-4.723999-.455719-1.059906.0340881-2.288559,1.0940247-2.7442627.0310059-.0133362.0623474-.0259171.0939636-.037735,1.1188965-.4612579,2.4028931.0368423,2.9179993,1.1320038l.0140076.0310059c.6946716,1.6086578,1.3613281,3.2283173,2,4.8589935.4074707,1.0858612-.1424866,2.2964478-1.228363,2.7039185-.0263367.0098877-.0529175.0192566-.0796509.0280762-.2509155.0898438-.5154419.1358337-.7819519.1360016l-.0010376-.0010071Zm-86.5719604-11.2139893c-1.2014771.0273819-2.1980591-.9235687-2.2269897-2.125.0001221-.3162231.0737305-.6280899.2149963-.9110031.7860107-1.5773315,1.6073303-3.1380005,2.4639893-4.6819992.6107178-1.0468445,1.9327393-1.4344177,3.0119934-.8830032,1.0343933.4933014,1.4730225,1.7317276.9797363,2.7661133-.0169373.0354691-.0348511.0704422-.0537415.1048889h0c-.8070068,1.4530029-1.6069946,2.9729996-2.3760071,4.5159988-.3876953.7530136-1.1670837,1.2228241-2.0139771,1.2140045Zm80.5140076-2.1620026c-.8314209.0085678-1.5993347-.4437027-1.9949951-1.1750031-.7999878-1.5289993-1.6340027-3.0319977-2.4719849-4.4629974-.5855713-.9825211-.2637634-2.2537079.71875-2.8392792.0357971-.0213318.0722351-.0415878.1092529-.0607224,1.0623474-.5838394,2.3956909-.237793,3.0400085.7890015l.0209961.0360031c.8720093,1.4869995,1.7380066,3.0479965,2.5690002,4.6360016.5257263,1.0207672.1244202,2.2744522-.8963318,2.8001862-.0340881.0175552-.0686646.0341644-.1036682.0498123-.3109741.1474533-.6508179.2239609-.9949951.223999l.0039673.0029984Zm-73.0650024-10.5569992c-1.2014771.026825-2.1976318-.9245682-2.2260132-2.1259995.0014038-.4177933.130127-.8252258.368988-1.1679993,1.0159912-1.4700012,2.0826721-2.9076767,3.2000122-4.3130035.7650146-.9420242,2.1302795-1.1276169,3.118988-.4240036.9357605.6461029,1.1705933,1.9284668.5245056,2.8642426-.0256348.0371246-.0524902.0733948-.0805054.108757l-.0119934.0149994c-1.0559998,1.3333359-2.0660095,2.6963348-3.0299988,4.0889969-.4285889.6028214-1.1253662.9573822-1.8649902.9490128l.0010071.0049973Zm65.3000183-1.987999c-.7173462.0071182-1.3954468-.3269196-1.8269958-.9000015-1-1.3639984-2.0516663-2.6933289-3.1549988-3.987999-.7213745-.878334-.5941467-2.1751633.2841797-2.8965454.0353394-.0290222.0716248-.0568542.1088257-.0834579.947937-.7003021,2.2718201-.570755,3.0660095.3000031,1.1646729,1.3706665,2.2786865,2.7786636,3.3420105,4.223999.6765137.9160919.4822998,2.2071533-.4338074,2.8836594-.0355835.0262833-.071991.0514069-.1091919.0753403-.3787537.2523804-.8238525.3867111-1.2789917.3860016l.0029602-.0009995Zm-55.6760254-9.3030014c-1.2014771.0273819-2.1980591-.9235687-2.2269897-2.125.0029297-.5787659.2472229-1.1300583.6740112-1.5210037,1.3475037-1.2526703,2.7604675-2.4329987,4.2330017-3.5360031.9752808-.7233963,2.3448792-.5640182,3.1279907.3639984.7247314.8763046.6018372,2.1741867-.2744751,2.8989029-.0349121.0288773-.0707703.0565872-.1075134.0830994-1.3475342,1.0087738-2.6403809,2.0886383-3.8729858,3.2350006-.4234924.3888168-.9781494.6034546-1.5530396.6010056Zm45.6210022-1.6340027c-.5391846.0020905-1.0617065-.1867294-1.4750061-.5329971-1.2828064-1.0843201-2.6273804-2.0933456-4.0270081-3.0220032-.9614868-.61026-1.2462158-1.8844147-.6359863-2.8459167.0238037-.0374908.0488281-.0742035.0749817-.1100845.7307739-.9676056,2.0871887-1.2017059,3.1000061-.5350037,1.5431824,1.0239029,3.0256653,2.1364365,4.4400024,3.3320007.8781128.7190399,1.0070801,2.0137863.2880249,2.8918991-.0303955.0371323-.0621033.0731888-.0950317.1081009-.4329529.4605331-1.0379333.7202682-1.6700134.7170029l.0000305-.0029984Zm-33.1210022-6.5889969c-1.2016907.0301971-2.2004395-.9193115-2.2309875-2.1210022.0093689-.8679199.5458984-1.642807,1.355011-1.9570007,1.7757568-.7257309,3.6104736-1.2978287,5.4840088-1.7099991,1.1763916-.2699966,2.3543091.4441071,2.6589966,1.6119995.2459412,1.1469803-.4845276,2.2761612-1.6315002,2.5220947-.0111389.0023956-.0223083.0046921-.0335083.0069046-1.6167603.3571091-3.1999207.8522644-4.7320251,1.4800034-.2765808.1110764-.5719604.167778-.8699951.1669998Zm20.1289978-.8529968c-.2399292-.000145-.4783936-.0372467-.7070007-.1100006-1.5714417-.5031586-3.1849365-.863945-4.8210144-1.0780029-1.1804504-.1121292-2.0464783-1.1599655-1.9343567-2.3404083.0010376-.0108719.0021667-.0217361.0033569-.0325928.1889343-1.1900864,1.2967834-2.0091858,2.4899902-1.8410034l.0400085.0049973c1.9125671.2495422,3.7988281.6705704,5.6359863,1.2580032,1.1144409.3211823,1.7575073,1.4849777,1.4363098,2.5994186-.0084534.0293884-.0175781.0585861-.0273132.0875778-.3267822.8849487-1.1767273,1.4671021-2.1199646,1.4520111h.0039978Z" style="fill: #272f60;"/>
      </g>
      <g id="Groupe_2871" data-name="Groupe 2871">
        <path id="Tracé_8304" data-name="Tracé 8304" d="m59.6784973,255.3207667c-22.6329956,0-38.6380005-6.4070129-45.887001-18.6520081-9.1180038-15.3940125-3.1200027-37.8569946,16.8899994-63.2510071,19.564003-24.8299866,50.3129959-49.7449951,86.5819931-70.1560059s73.776001-33.9089966,105.6190186-38.0090027c32.5660095-4.1929932,55.5230103,1.9730072,64.6409912,17.3679962s3.1199951,37.8570099-16.8900146,63.2509918c-19.5660095,24.8299866-50.3139954,49.7449951-86.5820007,70.1560059s-73.7789917,33.9100037-105.6220093,38.0100098c-6.2166748.8259888-12.4797211,1.2545471-18.7509766,1.28302ZM241.6044922,68.6697504c-6.0506592.0290222-12.0933228.4445343-18.0910034,1.2440033-31.230011,4.0220032-68.1069946,17.3119965-103.8430023,37.4219971-35.7360077,20.1100159-65.9830017,44.5950012-85.1699982,68.947998-9.2320023,11.7179871-15.3720016,22.7309875-18.2429962,32.7330017-2.8779984,10.0239868-2.3000031,18.5390015,1.6999969,25.3070068s11.2870026,11.5109863,21.6320038,14.0950012c10.3220062,2.5769958,23.1759949,2.8999939,38.1999969.9670105,31.2310028-4.0220032,68.1100006-17.3120117,103.8439941-37.4219971l1.2049866,2.0339966-1.2049866-2.0339966c35.7340088-20.1090088,65.9810181-44.6000061,85.1699829-68.9490051,9.2330017-11.7179871,15.3699951-22.7309875,18.2420044-32.7319946,2.8789978-10.0240021,2.2999878-18.5390015-1.7000122-25.3079987s-11.2879944-11.5110016-21.6329956-14.0950012c-6.5881653-1.5497131-13.3404846-2.2918549-20.1079712-2.210022Z" style="fill: #ffbcc6;"/>
      </g>
      <g id="Groupe_2872" data-name="Groupe 2872">
        <path id="Tracé_8305" data-name="Tracé 8305" d="m239.6004944,255.6807596c22.5629883,0,38.5169983-6.3770142,45.7449951-18.5669861,9.0899963-15.3240051,3.1099854-37.6829834-16.8370056-62.9620056-19.5-24.7160034-50.1570129-49.5169983-86.3139954-69.8349915s-73.5469971-33.7539978-105.2910004-37.8349915c-32.4649963-4.173996-55.3509979,1.9640045-64.4410019,17.2890015s-3.1100006,37.6830139,16.836998,62.9620056c19.5050049,24.7160034,50.1580048,49.5169983,86.3130035,69.8349915s73.5500183,33.7539978,105.2940063,37.8349915c6.197876.8226318,12.4418335,1.2494812,18.6940002,1.2779846ZM58.2394867,69.8827555c6.0318756.0287781,12.0557709.4422913,18.0350037,1.2380066,31.1329956,4,67.9000092,17.2330017,103.5200043,37.25s65.7779846,44.3909912,84.9060059,68.6319885c9.2000122,11.6650085,15.3250122,22.6270142,18.1860046,32.5830078,2.868988,9.9779968,2.2999878,18.45401-1.7000122,25.1910095s-11.2520142,11.4589844-21.5670166,14.0289917c-10.2900085,2.5650024-23.1000061,2.8890076-38.0849915.9620056-31.1340027-4-67.8999939-17.2330017-103.5209961-37.2510071l-1.1999969,2.0249939,1.1999969-2.0249939c-35.6210022-20.0110168-65.7740021-44.3900146-84.9039993-68.631012-9.1999969-11.6650085-15.322998-22.6270142-18.185997-32.5830078-2.8700027-9.9779968-2.3000031-18.4539948,1.6999969-25.1920013s11.2519989-11.4579926,21.5660019-14.0299988c6.5695572-1.5424805,13.3022842-2.2805481,20.0499954-2.1979828Z" style="fill: #fd657c;"/>
      </g>
      <g id="Groupe_2873" data-name="Groupe 2873">
        <circle id="Ellipse_439" data-name="Ellipse 439" cx="150.7924881" cy="158.1507532" r="81" style="fill: #fff;"/>
      </g>
      <g id="Groupe_2875" data-name="Groupe 2875">
        <g id="Groupe_2874" data-name="Groupe 2874">
          <path id="Tracé_8306" data-name="Tracé 8306" d="m229.0024924,176.9637401c.0230103-11.6900024-7.2999878-21.5090027-8.7109985-23.3999939-5.4559937-7.3150024-17.2219849-18.177002-27.1099854-15.3999939-3.4330139.9639893-6.5549927,4.2349854-12.7999878,10.7779846-7.3859863,7.7390137-7.8659973,10.6520081-11.2999878,11.1610107-6.7999878,1.006012-9.8359985-9.651001-17.0390015-9.4710083-7.2999878.1830139-16.0540161,11.4230042-14.3569946,20.1289978,2.4169922,12.4060059,24.618988,12.2999878,25.8129883,23.0090027,1.1000061,9.8999939-17.1549988,16.2189941-15.4140015,29.1099854.1000061.7730103.6820068,5.04599,3.571991,7.5119934,13.7000122,11.6940002,77.2850037-19.0469971,77.3509827-53.428009l-.0050049.0000305Zm-148.1000061-50.3519897c4.625-2.7000122,12.1199951-2.0809937,15.6870117,1.8670044,5.0889893,5.6319885-1.9460144,13.4840088,2.6459961,25.5329895,3.1289978,8.2089844,7.2420044,6.7850037,8.4330139,13.0580139,1.9460144,10.2550049-4.8630066,8.9549866-6.3930054,25.0079956-.6619873,6.9410095,5.8829956,14.9330139-.026001,17.1870117-1.2340088.4710083-7.4599915-5.7669983-11.4429932-15.2269897-9.1000061-21.6149902-14.4580078-30.9450073-15.1390076-41.1000061-.5740051-8.54599-1.4660034-21.8359985,6.2359924-26.322998l-.0010071-.0030212Z" style="fill: #ffbcc6;"/>
          <path id="Tracé_8307" data-name="Tracé 8307" d="m144.7885032,134.754771c-.0166931,3.6860962,1.4437256,7.2252808,4.0549927,9.8269958.6530151.625,5.151001,4.7999878,9.730011,3.6229858,3.7279968-.9590149,3.8259888-4.5209961,10.5320129-12.9370117,3.0549927-3.8330078,4.6390076-5.7829895,7.4169922-7.4150085.8779907-.5159912,8.3460083-4.7869873,12.9849854-1.7900085,3.1369934,2.026001,1.6809998,5.2460022,4.855011,8.1000061.8739929.7850037,3.3340149,2.651001,14.4309998,1.9349976,11.571991-.7460022,14.5639954-3.1400146,16.5880127-1.0849915,3.0429993,3.0910034-2.0690002,10.1860046,2.2739868,17.0769958.3099976.4899902,1.5360107,2.946991,2.3349915,2.7399902,1.4490051-.375.4460144-9.1759949-.1340027-12.8049927-3.2619934-20.3999939-18.2160034-34.0620117-20.0660095-35.7080078-6.2000122-5.5140076-16.2460022-14.4490051-27.0759888-12.1260071-1.3569946.2909851-8.1919861,1.9309998-9.7650146,6.6879883-1.980011,5.9859924,6.0589905,11.8099976,3.8330078,15.3829956-1.3680115,2.2000122-4.7650146.571991-13.1730042,2.3150024-4.2999878.8909912-8.4150085,1.7430115-12.2460022,4.8450012-1.7070007,1.3819885-6.3999939,5.1820068-6.5750122,11.3380127l.0000305-.0049438Zm-56.9599915-17.6799927c3.3450317.2598877,6.4060974,1.9790039,8.368988,4.7000122,2.348999,3.3789978,1.3420105,6.7099915,2.4670105,6.946991,1.2780151.2690125,2.5580139-4.0279846,6.1000061-9.2909851,2.7340088-4.0580139,6.7070007-9.9559937,11.368988-9.868988,3.2359924.0599976,3.5400085,2.9440002,7.4580078,4.053009,5.4760132,1.5490112,12.2669983-1.993988,15.9419861-6.7659912,4.2399902-5.5090027,5.8649902-14.6570129,1.6700134-19.0650024-4.3789978-4.6000061-13.1529846-2-20.678009.2409973-12.618988,3.75-20.4559937,10.9750061-27.5069885,17.4760132-5.7000122,5.2539978-10.4089966,10.7999878-9.5369873,11.9190063.4239807.5389099,1.7459717-.4890747,4.3469849-.3450928v.0000305Z" style="fill: #ffbcc6;"/>
        </g>
        <path id="Tracé_8308" data-name="Tracé 8308" d="m232.968483,152.6597635c-1.1465149-13.4561768-5.5722046-26.4265747-12.8900146-37.7770081-.4666748-.7333374-.9500427-1.4580078-1.4500122-2.1740112-7.2279053-10.4954834-16.8184509-19.1478577-28-25.2610016-1.3266907-.7333374-2.6746521-1.4243317-4.0440063-2.072998-.6513367-.3093414-1.3056641-.6133423-1.9630127-.9120026-.1359863-.0559998-.269989-.1179962-.4049988-.173996-.151001-.0690002-.2999878-.1300049-.4440002-.1999969-.4590149-.1999969-.9119873-.3899994-1.3739929-.5789948-.2130127-.0879974-.4320068-.1779938-.6470032-.2599945-.8500061-.3440094-1.7059937-.6733551-2.5679932-.9880066-.3559875-.125-.7000122-.2550049-1.0629883-.375-.8580017-.2980194-1.7203369-.5836639-2.5870056-.8569946-1.0506592-.3280029-2.107666-.633667-3.17099-.9170074-10.4581604-2.8063202-21.3708191-3.4994965-32.1000061-2.0390015-.8659973.1210022-1.7279968.25-2.5820007.3899994-13.4864197,2.2706757-26.1992188,7.8505707-37,16.2400055-.6759949.526001-1.3426819,1.0626831-2,1.6100006-9.8508148,8.1584167-17.6446533,18.5193787-22.7519989,30.2460022-.2359924.5390015-.4680023,1.0870056-.6920013,1.631012-.1999969.4849854-.3910065.9660034-.5850067,1.45401-5.0397644,12.890625-6.7143707,26.8522034-4.8659973,40.5690002.1999969,1.4710083.4299927,2.9379883.7120056,4.3880005,1.8808441,9.9308777,5.5675354,19.4324341,10.8770294,28.032959,6.8663177,11.1462097,16.3095398,20.4800415,27.5350037,27.2160034h.006012c2.9598999,1.7704773,6.0275269,3.3542175,9.1849976,4.7420044.6000061.2680054,1.2000122.5220032,1.8120117.7730103.4140015.1700134.8240051.3330078,1.2409973.5,3.2999268,1.2975159,6.6799011,2.3814087,10.118988,3.2449951,1.4613342.3653564,2.9259949.6893311,4.3940125.9719849,3.1853638.6144104,6.4048767,1.0361633,9.6409912,1.2630005-.1480103.0079956,3.9729919.2149963,7.5119934.1860046h.0140076c15.1188965-.3419495,29.8533325-4.8305969,42.5950012-12.9760132,1.2553406-.7999878,2.488678-1.6333313,3.7000122-2.5,10.9067993-7.820282,19.7140808-18.2124634,25.6400146-30.2539978.8299866-1.6753235,1.5999756-3.3783569,2.3099976-5.1090088,4.9670715-12.0254822,6.9865723-25.0643616,5.8900146-38.0289917l-.000061-.0039673Zm-2.7619934-1.9110107c-3.8651123,1.0279541-7.8346558,1.6127014-11.8320007,1.7430115-.3953552-12.3390503-3.1801147-24.484314-8.2000122-35.7630005,2.5041504-.0067444,4.9970093-.3361206,7.4169922-.980011,6.893158,10.5151672,11.2146606,22.5050964,12.6150208,35Zm-75.1139832-52.5549927c4.8178101,2.9290466,9.8478394,5.493866,15.0480042,7.6730042-.4580078.8280029-.9259949,1.6950073-1.4129944,2.5939941-4.4140015,8.1719971-9.0750122,17.4819946-13.776001,27.493988-9.1687622-4.032196-18.0011292-8.7896118-26.4129944-14.2269897,5.7777405-6.6055908,12.1568298-12.6599426,19.0549927-18.0849915,2.5626831-2.0093384,5.0623169-3.8256683,7.4989929-5.4490204v.0000153Zm17.4129944,8.6820068c.4890137.2080078.980011.4100037,1.4769897.6140137,5.1940002,2.1380005,9.9969788,3.9026794,14.4089966,5.2940063.0239868.2449951.0409851.4869995.0620117.7380066.8666992,11.4953003.430603,23.0517273-1.2999878,34.4490051-8.3482971-2.4542236-16.5533447-5.3717651-24.5769958-8.7390137-1.7686768-.7279968-3.5299988-1.4736633-5.2839966-2.2369995,4.3460083-9.2520142,8.6560059-17.9100037,12.7640076-25.6059875.8066406-1.5093384,1.6220093-3.0136719,2.4460144-4.5130005l.0029602-.0000305Zm18.2619934,3.946991c-.6546326-7.4694214-2.2523499-14.8259277-4.7550049-21.8939972,8.2849426,6.914032,15.0847778,15.4333954,19.9899902,25.0449982-5.1705933-.5402832-10.274292-1.5958557-15.2349854-3.151001Zm-7.3420105-21.4570007c2.4551697,6.6412354,4.0292358,13.5756226,4.6820068,20.6260071-4.0666504-1.3080139-8.4506836-2.9303284-13.1520081-4.8670044-.3999939-.1629944-.7999878-.32901-1.1919861-.5,2.8595886-5.3070526,6.0885315-10.406601,9.6629944-15.2610016l-.0010071.0019989Zm7.6000061,24.2120056c5.3012695,1.6416321,10.7715149,2.6772461,16.3059998,3.0870056,5.202179,11.2711487,8.0869141,23.4725647,8.4830017,35.8800049-8.8580322-.1573486-17.6581726-1.4635925-26.1799927-3.8859863,1.800354-11.6023254,2.2667236-23.3726196,1.3899841-35.0810242h.0010071Zm-8.8779907-26.6840057c-2.3259888,2.7299957-5.7109985,7.7279968-10.756012,16.727005-4.7920532-2.0109558-9.444397-4.3398132-13.9259949-6.970993,10.6340027-6.7510223,19.5339966-9.7700195,24.6799927-9.7550201l.0020142-.0009918Zm-28.2730103,51.3769989c-4.8460083,10.4159851-9.7130127,21.5350037-14.3840027,32.8880005-.4053345.9819946-.807312,1.9646606-1.2059937,2.947998-11.5450134-4.9240112-22.82901-10.2810059-32.7999878-16.7000122.5033569-1.1333618,1.0230103-2.2566833,1.5589905-3.3699951,5.2965698-10.9157715,11.9516602-21.1182861,19.8070068-30.3649902,8.5990601,5.585968,17.636261,10.4665833,27.0230103,14.5939941l.0009766.0050049Zm-12.0180054,33.8639832c4.644989-11.2869873,9.5090027-22.3999939,14.3559875-32.8170166,1.7906799.778656,3.5906677,1.5396423,5.3999939,2.2829895,8.2095947,3.4409485,16.6038513,6.4235229,25.144043,8.9340515-1.8468018,11.2782288-4.8089905,22.3451843-8.8429871,33.0379944-.5886841,1.5673218-1.2039795,3.1240234-1.8460083,4.6700134-10.4251404-3.1872864-20.676178-6.918396-30.7110291-11.178009-1.5733337-.6473389-3.1443176-1.3006592-4.7130127-1.9599915.3999939-.9920044.8049927-1.982666,1.2149963-2.9719849l-.0019836.0019531Zm38.4550171,12.3479919c4.0502625-10.7702026,7.038147-21.9104919,8.92099-33.2619934,5.4566345,1.4937439,11.0117188,2.6011658,16.6239929,3.3140259,3.3276672.4152222,6.6775513.6272888,10.0310059.6350098.1109924,9.8922119-.9136963,19.7644653-3.0539856,29.4230042-.697113,3.2003479-1.671814,6.3338623-2.9129944,9.3649902-10.6255188-.3490601-21.1653748-2.0288086-31.3729858-5,.6100159-1.4833374,1.1966858-2.9756775,1.7600098-4.4769897l.0039673.0019531Zm-25.1860046-89.3000031c-3.1843872-2.0397491-6.1134949-4.4528656-8.7250061-7.1880035,9.6983643-2.4474182,19.7156067-3.3877563,29.7000122-2.7879944-5.7999878,1.4929962-13.1099854,4.8630066-20.9750061,9.9750061v.0009918Zm-2.3129883,1.5379944c-9.7422791,6.7413177-18.6100769,14.6659088-26.3999939,23.5919952-6.1498718-4.1216736-11.8394775-8.8916626-16.9710083-14.2279968,10.1195374-7.9978333,21.7322693-13.8975372,34.1589966-17.3540039,2.7098999,3.0524597,5.806366,5.7384491,9.2109985,7.9900055h.0010071Zm-28.071991,25.5389862c-7.9432068,9.3356628-14.664032,19.645752-20,30.6809998-.4859924,1.014679-.9609985,2.0343323-1.4249878,3.0589905-7.4026794-4.8189087-14.0453796-10.7147522-19.7089996-17.4930115,1.4590912-3.3814697,3.2040863-6.6322937,5.2160034-9.7170105,5.1423492-7.9090271,11.4232941-15.0161743,18.6399994-21.0920105,5.2205505,5.4591064,11.0128174,10.341156,17.2770081,14.5620117l.0009766.0000305Zm-30.6210175,30.0750427c2.6000061,2.1000061,5.3360138,4.0780029,8.173996,5.9719849-5.4210052,12.6690063-7.6369934,23.4679871-8,32.4630127-5.6427002-3.9594727-11.0641632-8.2252197-16.2400055-12.7780151-1.4506226-12.46875.0835571-25.1037292,4.4759979-36.8630066,3.4941406,4.0992126,7.3754425,7.8519287,11.5900116,11.2060242Zm10.3499908,7.3940125c10.1700134,6.5169983,21.5159912,11.9060059,32.8399963,16.7470093-5.4219971,13.2919922-9.5,23.7269897-12.4750061,31.9110107-9.7705383-4.5042419-19.1486511-9.8149414-28.0370026-15.8770142.1370239-8.9260254,2.1780243-19.8180237,7.6720123-32.78302v.0020142Zm35.2000122,17.743988c1.5740051.6620178,3.1450195,1.3156738,4.7130127,1.9609985,10.0281677,4.2511902,20.2660522,7.9896851,30.6739807,11.2009888-4.5010986,10.6574707-10.6008606,20.5663147-18.0889893,29.3850098-8.7264099-2.4066772-17.2954712-5.3513184-25.6579895-8.8169861-1.3840027-.5700073-2.7606812-1.1576843-4.1300049-1.7630005,3-8.2690125,7.1119995-18.7799988,12.4890137-31.9649963l.0009766-.0020142Zm37.875,13.8739929c10.1789551,2.9822388,20.6818848,4.719574,31.2789917,5.1740112-5.0629883,11.0950012-13.3410034,21.1069946-22.3120117,28.9400024-9.0084839-.847229-17.9344482-2.4159546-26.6919861-4.6910095,7.3175049-8.8865967,13.2896118-18.8001404,17.7250061-29.4230042Zm38.5079956-77.8649902c-2.3309326.5080566-4.7155151.727356-7.1000061.6530151-4.0873108-8.3263855-9.5324402-15.9141235-16.1119995-22.4519958,9.1364746,5.6139679,17.0331116,13.0308533,23.2080078,21.7979736l.0039978.0010071Zm-44.4570007-30.9230042c-8.7874451-.1182709-17.553833.8899384-26.0849915,3-.3240051.0809937-.6480103.1620026-.973999.25-1.2837524-1.6296387-2.3796692-3.3988037-3.2669983-5.2740021,10.1425476-1.2962646,20.4403687-.6095428,30.3209839,2.0220032l.0050049.0019989Zm-32.973999-1.6459961c.8638306,1.9895172,1.9490051,3.8753967,3.2349854,5.621994-12.4465027,3.5534973-24.0688171,9.5298157-34.1999817,17.5860138-2.0276794-2.2860107-3.8967285-4.7079926-5.5939941-7.2489929,10.6453247-8.3155365,23.2197266-13.8055573,36.5549927-15.960022l.0039978.0010071Zm-61.0140076,48.2569885c4.8800201-11.9035645,12.5926971-22.4355469,22.4679871-30.6809998,1.7099915,2.5387878,3.5846863,4.9626465,5.6119995,7.256012-7.3524323,6.2509155-13.7532196,13.5414124-19,21.6409912-1.8378143,2.8166809-3.4610596,5.7677002-4.8560028,8.8280029-1.5917053-2.143158-3.0466003-4.384613-4.3560028-6.7109985l.132019-.3330078Zm-1.2940063,3.3619995c1.328598,2.1924438,2.7851257,4.3047485,4.3619995,6.3259888-4.6227417,11.6216431-6.4763489,24.1599121-5.4140015,36.6220093-.8119965-.7473145-1.6176605-1.5009766-2.4170074-2.2609863-2.4289093-13.6307068-1.234024-27.6603699,3.4650269-40.6839905l.0039825-.0030212Zm-2.5460052,45.1340027c.6150055.5710144,1.2420044,1.1340027,1.8710022,1.6900024.3581848,3.1007996.8751984,6.1811829,1.548996,9.2290039-1.3970184-3.5548401-2.5411987-7.2039185-3.4239807-10.9200134l.0039825.0010071Zm9.8999939,23.8200073c-.9233398-2.4306641-1.7436676-4.8973389-2.4609985-7.3999939-1.1504364-4.002594-2.0370178-8.0763245-2.654007-12.1950073,1.7653351,1.5073242,3.5599976,2.9793091,5.3840027,4.4159851,3.3500061,2.6393433,6.7833405,5.1683655,10.3000031,7.5870056h.0059967c-.0283813,6.5961609,1.1398621,13.1427917,3.447998,19.321991,1.2224731,3.1972656,2.8039246,6.2454529,4.7139893,9.0859985-7.4304047-5.7736206-13.7739716-12.8235474-18.7339935-20.8200073l-.0029907.0040283Zm26.7589874,26.2950134c-4.5954285-4.2944641-8.137085-9.5920715-10.348999-15.480011-1.9978027-5.3323059-3.0947723-10.9597473-3.2460022-16.6520081,8.6307068,5.7575684,17.7029419,10.8240051,27.1319885,15.1520081-3.730011,10.4949951-5.4859924,16.980011-5.8540039,21-2.6303406-1.1990662-5.1934509-2.5403748-7.678009-4.0180054h-.0050049l.0000305-.0019836Zm10.4599915,5.2250061l-.3129883-.1289978c.3366699-3.4875183,1.0669861-6.9257507,2.177002-10.2489929.8900146-3,2.0669861-6.5710144,3.5629883-10.7780151,1.3333435.5913391,2.6726685,1.1633301,4.0180054,1.7160034,8.0656738,3.3408813,16.3217468,6.2022095,24.7250366,8.5689697-8.1480103,8.8080139-15.6000061,13.2669983-19.7179871,15.2730103-4.9472046-1.0080261-9.7875671-2.4833069-14.4559937-4.4060059l.0039368.0040283Zm18.5839844,5.131012c6.9464722-4.0270081,13.1855774-9.165863,18.4689941-15.2120056,8.4801025,2.2603149,17.1186218,3.8778992,25.8420105,4.8389893-3.9095764,3.1956177-8.0767517,6.0623779-12.4589539,8.5709839-.0481567.025116-.0983276.0461731-.1499939.0629883-.0079956,0-.0100098.0090027-.0159912.0069885-10.3373108,2.7054443-21.1148987,3.2928467-31.6849976,1.7269897l-.0010681.0050659Zm41.6390076-5.0390015c2.1839905-1.5773315,4.302002-3.2396851,6.3540039-4.9869995,1.1289978.1000061,2.2510071.1789856,3.3729858.2399902-3.131073,1.79953-6.3805237,3.3848267-9.7259521,4.7449646l-.0010376.0020447Zm13.6000061-7.1220093c-1.5150146-.0490112-3.0379944-.1300049-4.5669861-.2330017,8.8070068-8.0390015,16.6799927-18.0450134,21.4779968-29.1660156,3.3762207.0255432,6.7515564-.1203308,10.1130066-.4370117-6.2839966,12.1077881-15.5918884,22.3850708-27.0199585,29.8340149l-.0040588.0020142Zm17.9700012-31.9869995c1.1104431-2.8794861,1.9960938-5.8406677,2.6489868-8.8569946,2.1803589-9.8506165,3.2251587-19.9185791,3.1140137-30.0069885,4.0576477-.1204834,8.0887756-.6981201,12.0169983-1.7219849.9623413,12.3893433-1.0079041,24.8311462-5.7510071,36.3170166-.508667,1.2393494-1.0499878,2.4646606-1.6239929,3.6759949-3.4547729.3890076-6.9283752.5873108-10.4049988.5939941v-.0010376Z" style="fill: #272f60;"/>
      </g>
      <g id="Groupe_2876" data-name="Groupe 2876">
        <path id="Tracé_8309" data-name="Tracé 8309" d="m22.7984924,4.8117563c.1669998-2.0890007.3339996-3.6759987.3339996-3.6759987.0189209-.6458969.5578537-1.1541634,1.2037506-1.1352463.6193085.0181427,1.1171036.5159378,1.1352463,1.1352463,0,0,.25,1.6710014.3339996,3.6759987.4179993,0,.7519989.0839996,1.0859985.0839996,1.5.0830002,2.5899963.25,2.5899963.25.6459045-.0188828,1.1848145.4894142,1.2036896,1.1353111s-.4894104,1.1848068-1.1353149,1.2036896c-.0227814.0006676-.0455933.0006676-.0683746,0,0,0-1.0859985.1669998-2.5899963.25-.3339996,0-.6679993.0839996-1.0859985.0839996,0,.4179993-.0839996.7519989-.0839996,1.0859985-.0830002,1.5-.25,2.5900002-.25,2.5900002-.0189209.6458969-.5578537,1.1541634-1.2037506,1.1352463-.6193085-.0181427-1.1171036-.5159378-1.1352463-1.1352463,0,0-.1669998-1.0859985-.25-2.5900002,0-.3339996-.0839996-.7519989-.0839996-1.0859985-2.0049973-.1669998-3.6760025-.3339996-3.6760025-.3339996-.6458969-.0188828-1.1541901-.5577927-1.1353149-1.2036896.0181122-.6193581.5159531-1.1172066,1.1353149-1.1353111,1.2186584-.1754684,2.4456787-.2869568,3.6760025-.3339996Z" style="fill: #ffbcc6;"/>
      </g>
      <g id="Groupe_2877" data-name="Groupe 2877">
        <path id="Tracé_8310" data-name="Tracé 8310" d="m66.544487,43.8627588c.1089935-1.3679962.2189941-2.4080048.2189941-2.4080048,0-.4233246.3431702-.76651.7664948-.76651.4233398,0,.76651.3431854.76651.76651,0,0,.1640015,1.0950012.2189941,2.4080048.2740021,0,.4929962.0549927.7120056.0549927.9850006.0549927,1.6999969.1640015,1.6999969.1640015.4233246,0,.7664948.3431702.7664948.7664948,0,.4233398-.3431702.76651-.7664948.76651,0,0-.7120056.1089935-1.6999969.1640015-.2189941,0-.4380035.0549927-.7120056.0549927,0,.2740021-.0549927.4929962-.0549927.7120056-.0549927.9850006-.1640015,1.6999969-.1640015,1.6999969,0,.4233246-.3431702.7664948-.76651.7664948-.4233246,0-.7664948-.3431702-.7664948-.7664948,0,0-.1089935-.7120056-.1640015-1.6999969,0-.2189941-.0549927-.4929962-.0549927-.7120056-1.3139954-.1089935-2.4080048-.2189941-2.4080048-.2189941-.4233246,0-.76651-.3431702-.76651-.76651,0-.4233246.3431854-.7664948.76651-.7664948h0c.7982788-.1150513,1.602066-.1881561,2.4080048-.2189941Z" style="fill: #ffbcc6;"/>
      </g>
      <g id="Groupe_2878" data-name="Groupe 2878">
        <path id="Tracé_8311" data-name="Tracé 8311" d="m268.1444778,8.8327563c.1090088-1.368.2189941-2.4080009.2189941-2.4080009,0-.4233322.3432007-.76651.7665405-.76651.4232788,0,.7664795.3431778.7664795.76651,0,0,.1640015,1.0950012.2189941,2.4080009.2739868,0,.492981.0550003.7119751.0550003.9849854.0550003,1.7000122.1640015,1.7000122.1640015.4233398,0,.7664795.343174.7664795.7664986,0,.4233284-.3431396.7665024-.7664795.7665024,0,0-.7119751.1090012-1.7000122.1640015-.2189941,0-.4379883.0550003-.7119751.0550003,0,.2739983-.0549927.493-.0549927.7120018-.0549927.9850006-.1640015,1.7000008-.1640015,1.7000008,0,.4233322-.3432007.76651-.7664795.76651-.4233398,0-.7665405-.3431778-.7665405-.76651,0,0-.1090088-.7120018-.1640015-1.7000008,0-.2190018-.0549927-.493-.0549927-.7120018-1.3140259-.1090012-2.40802-.2190018-2.40802-.2190018-.4233398,0-.7664795-.343174-.7664795-.7665024,0-.4233246.3431396-.7664986.7664795-.7664986.7982788-.1150589,1.6020508-.1881599,2.40802-.2190018Z" style="fill: #ffbcc6;"/>
      </g>
      <g id="Groupe_2879" data-name="Groupe 2879">
        <path id="Tracé_8312" data-name="Tracé 8312" d="m228.3394852,37.7327616c.1090088-1.3679962.2189941-2.4079971.2189941-2.4079971,0-.4233322.3432007-.76651.7665405-.76651.4232788,0,.7664795.3431778.7664795.76651,0,0,.1640015,1.0950012.2189941,2.4079971.2739868,0,.492981.0550003.7119751.0550003.9849854.0550003,1.7000122.1640015,1.7000122.1640015.4233398,0,.7664795.3431702.7664795.7665024,0,.4233246-.3431396.7664948-.7664795.7664948h0s-.7119751.1090012-1.7000122.1640015c-.2189941,0-.4379883.0550003-.7119751.0550003,0,.2740021-.0549927.4929962-.0549927.711998-.0549927.9850006-.1640015,1.6999969-.1640015,1.6999969,0,.4233322-.3432007.76651-.7664795.76651-.4233398,0-.7665405-.3431778-.7665405-.76651,0,0-.1090088-.711998-.1640015-1.6999969,0-.2190018-.0549927-.4929962-.0549927-.711998-1.3140259-.1090012-2.40802-.2190018-2.40802-.2190018-.4233398,0-.7664795-.3431702-.7664795-.7664948,0-.4233322.3431396-.7665024.7664795-.7665024.7982788-.1150589,1.6020508-.1881561,2.40802-.2190018Z" style="fill: #ffbcc6;"/>
      </g>
      <g id="Groupe_2880" data-name="Groupe 2880">
        <path id="Tracé_8313" data-name="Tracé 8313" d="m241.8224869,99.525738c.1090088-1.3680115.2189941-2.4079895.2189941-2.4079895,0-.4233398.3432007-.76651.7665405-.76651.4232788,0,.7664795.3431702.7664795.76651,0,0,.1640015,1.0950012.2189941,2.4079895.2739868,0,.492981.0549927.7119751.0549927.9849854.0549927,1.7000122.1640015,1.7000122.1640015.4233398,0,.7664795.3431702.7664795.7664795,0,.4233398-.3431396.76651-.7664795.76651h0s-.7119751.1090088-1.7000122.1640015c-.2189941,0-.4379883.0549927-.7119751.0549927,0,.2739868-.0549927.4930115-.0549927.7120056-.0549927.9849854-.1640015,1.7000122-.1640015,1.7000122,0,.4233398-.3432007.76651-.7664795.76651-.4233398,0-.7665405-.3431702-.7665405-.76651,0,0-.1090088-.7120056-.1640015-1.7000122,0-.2189941-.0549927-.4930115-.0549927-.7120056-1.3140259-.1090088-2.40802-.2189941-2.40802-.2189941-.4233398,0-.7664795-.3431702-.7664795-.76651,0-.4233093.3431396-.7664795.7664795-.7664795.7982788-.1150513,1.6020508-.1881714,2.40802-.2189941Z" style="fill: #ffbcc6;"/>
      </g>
      <g id="Groupe_2881" data-name="Groupe 2881">
        <path id="Tracé_8314" data-name="Tracé 8314" d="m294.8544693,159.2927363c.1090088-1.3680115.2189941-2.4079895.2189941-2.4079895,0-.4233398.3432007-.76651.7665405-.76651.4232788,0,.7664795.3431702.7664795.76651,0,0,.1640015,1.0950012.2189941,2.4079895.2739868,0,.492981.0549927.7119751.0549927.9849854.0549927,1.7000122.1640015,1.7000122.1640015.4233398,0,.7664795.3431702.7664795.7664795,0,.4233398-.3431396.76651-.7664795.76651,0,0-.7119751.1090088-1.7000122.1640015-.2189941,0-.4379883.0549927-.7119751.0549927,0,.2739868-.0549927.4930115-.0549927.7120056-.0549927.9849854-.1640015,1.7000122-.1640015,1.7000122,0,.4233398-.3432007.76651-.7664795.76651-.4233398,0-.7665405-.3431702-.7665405-.76651,0,0-.1090088-.7120056-.1640015-1.7000122,0-.2189941-.0549927-.4930115-.0549927-.7120056-1.3140259-.1090088-2.40802-.2189941-2.40802-.2189941-.4233398,0-.7664795-.3431702-.7664795-.76651,0-.4233093.3431396-.7664795.7664795-.7664795.7982788-.1150513,1.6020508-.1881714,2.40802-.2189941Z" style="fill: #ffbcc6;"/>
      </g>
      <g id="Groupe_2882" data-name="Groupe 2882">
        <path id="Tracé_8315" data-name="Tracé 8315" d="m216.6124954,265.4027674c.1669922-2.0889893.3339844-3.6760254.3339844-3.6760254.0189819-.645874.5579834-1.1541138,1.2038574-1.1351318.6192017.0182495,1.1169434.5159302,1.1351318,1.1351318,0,0,.25,1.6710205.3339844,3.6760254.4180298,0,.7520142.0839844,1.0859985.0839844,1.5.0830078,2.5900269.25,2.5900269.25.645874.0189819,1.1541138.5579834,1.1351318,1.2038574-.0182495.6192017-.5159302,1.1169434-1.1351318,1.1351318,0,0-1.0859985.1669922-2.5900269.25-.3339844,0-.6680298.0839844-1.0859985.0839844,0,.4180298-.0839844.7520142-.0839844,1.0859985-.0830078,1.5-.25,2.5900269-.25,2.5900269-.0189819.645874-.5579834,1.1541138-1.2038574,1.1351318-.6192017-.0182495-1.1169434-.5159302-1.1351318-1.1351318,0,0-.1669922-1.0859985-.25-2.5900269,0-.3339844-.0839844-.7520142-.0839844-1.0859985-2.0050049-.1669922-3.6760254-.3339844-3.6760254-.3339844-.645874-.0189819-1.1541138-.5579834-1.1351318-1.2038574.0182495-.6192017.5159302-1.1169434,1.1351318-1.1351318,1.218689-.175415,2.4456787-.2869263,3.6760254-.3339844Z" style="fill: #ffbcc6;"/>
      </g>
      <g id="Groupe_2883" data-name="Groupe 2883">
        <path id="Tracé_8316" data-name="Tracé 8316" d="m82.2744827,268.1107447c.1090088-1.367981.2189941-2.40802.2189941-2.40802,0-.4233398.3431702-.7664795.7664795-.7664795.4233398,0,.76651.3431396.76651.7664795,0,0,.1640015,1.0949707.2189941,2.40802.2739868,0,.4930115.0549927.7120056.0549927.9849854.0549927,1.7000122.1640015,1.7000122.1640015.4233398,0,.76651.3432007.76651.7665405,0,.4232788-.3431702.7664795-.76651.7664795h0s-.7120056.1090088-1.7000122.1640015c-.2189941,0-.4379883.0549927-.7120056.0549927,0,.2739868-.0549927.492981-.0549927.7119751-.0549927.9849854-.1640015,1.7000122-.1640015,1.7000122,0,.4233398-.3431702.7664795-.76651.7664795-.4233093,0-.7664795-.3431396-.7664795-.7664795,0,0-.1090088-.7119751-.1640015-1.7000122,0-.2189941-.0549927-.492981-.0549927-.7119751-1.3139954-.1090088-2.4080048-.2189941-2.4080048-.2189941-.4233246,0-.76651-.3432007-.76651-.7664795,0-.4233398.3431854-.7665405.76651-.7665405.7982941-.1150513,1.602066-.1881104,2.4080048-.2189941Z" style="fill: #ffbcc6;"/>
      </g>
      <g id="Groupe_2884" data-name="Groupe 2884">
        <path id="Tracé_8317" data-name="Tracé 8317" d="m34.7014923,294.8207361c.1089935-1.367981.2189941-2.40802.2189941-2.40802,0-.4233398.3431702-.7664795.7664948-.7664795.4233398,0,.76651.3431396.76651.7664795,0,0,.1640015,1.0949707.2189941,2.40802.2740021,0,.4929962.0549927.7120056.0549927.9850006.0549927,1.6999969.1640015,1.6999969.1640015.4233246,0,.76651.3432007.76651.7665405,0,.4232788-.3431854.7664795-.76651.7664795,0,0-.7120056.1090088-1.6999969.1640015-.2189941,0-.4380035.0549927-.7120056.0549927,0,.2739868-.0549927.492981-.0549927.7119751-.0549927.9849854-.1640015,1.7000122-.1640015,1.7000122,0,.4233398-.3431702.7664795-.76651.7664795-.4233246,0-.7664948-.3431396-.7664948-.7664795,0,0-.1089935-.7119751-.1640015-1.7000122,0-.2189941-.0549927-.492981-.0549927-.7119751-1.3139954-.1090088-2.4080048-.2189941-2.4080048-.2189941-.4233246,0-.76651-.3432007-.76651-.7664795,0-.4233398.3431854-.7665405.76651-.7665405.7982941-.1150513,1.602066-.1881104,2.4080048-.2189941Z" style="fill: #ffbcc6;"/>
      </g>
      <g id="Groupe_2885" data-name="Groupe 2885">
        <path id="Tracé_8318" data-name="Tracé 8318" d="m3.1744919,159.2927363c.1090012-1.3680115.2190018-2.4079895.2190018-2.4079895,0-.4233398.3431702-.76651.7665024-.76651.4233246,0,.7664948.3431702.7664948.76651,0,0,.1640015,1.0950012.2190018,2.4079895.2740021,0,.4929962.0549927.711998.0549927.9850006.0549927,1.6999969.1640015,1.6999969.1640015.4233246,0,.7664948.3431702.7664948.7664795,0,.4233398-.3431702.76651-.7664948.76651h0s-.711998.1090088-1.6999969.1640015c-.2190018,0-.4380035.0549927-.711998.0549927,0,.2739868-.0550003.4930115-.0550003.7120056-.0550003.9849854-.1640015,1.7000122-.1640015,1.7000122,0,.4233398-.3431702.76651-.7664948.76651-.4233322,0-.7665024-.3431702-.7665024-.76651,0,0-.1090012-.7120056-.1640015-1.7000122,0-.2189941-.0550003-.4930115-.0550003-.7120056-1.314003-.1090088-2.4079971-.2189941-2.4079971-.2189941-.4233246,0-.7664948-.3431702-.7664948-.76651,0-.4233093.3431702-.7664795.7664948-.7664795.7982864-.1150513,1.6020508-.1881714,2.4079971-.2189941Z" style="fill: #ffbcc6;"/>
      </g>
      <g id="Groupe_2886" data-name="Groupe 2886">
        <path id="Tracé_8319" data-name="Tracé 8319" d="m46.9614944,190.8597376c.1089935-1.3680115.2189941-2.4079895.2189941-2.4079895,0-.4233398.3431702-.76651.7664948-.76651.4233398,0,.76651.3431702.76651.76651,0,0,.1640015,1.0950012.2189941,2.4079895.2740021,0,.4929962.0549927.7120056.0549927.9850006.0549927,1.6999969.1640015,1.6999969.1640015.4233246,0,.7664948.3431702.7664948.7664795,0,.4233398-.3431702.76651-.7664948.76651,0,0-.7120056.1090088-1.6999969.1640015-.2189941,0-.4380035.0549927-.7120056.0549927,0,.2739868-.0549927.4930115-.0549927.7120056-.0549927.9849854-.1640015,1.7000122-.1640015,1.7000122,0,.4233398-.3431702.76651-.76651.76651-.4233246,0-.7664948-.3431702-.7664948-.76651,0,0-.1089935-.7120056-.1640015-1.7000122,0-.2189941-.0549927-.4930115-.0549927-.7120056-1.3139954-.1090088-2.4080048-.2189941-2.4080048-.2189941-.4233246,0-.7664948-.3431702-.7664948-.76651,0-.4233093.3431702-.7664795.7664948-.7664795.7982788-.1150513,1.602066-.1881714,2.4080048-.2189941Z" style="fill: #ffbcc6;"/>
      </g>
      <g id="Groupe_2887" data-name="Groupe 2887">
        <path id="Tracé_8320" data-name="Tracé 8320" d="m277.7774734,294.8207361c.1090088-1.367981.2189941-2.40802.2189941-2.40802,0-.4233398.3432007-.7664795.7665405-.7664795.4232788,0,.7664795.3431396.7664795.7664795,0,0,.1640015,1.0949707.2189941,2.40802.2739868,0,.492981.0549927.7119751.0549927.9849854.0549927,1.7000122.1640015,1.7000122.1640015.4233398,0,.7664795.3432007.7664795.7665405,0,.4232788-.3431396.7664795-.7664795.7664795,0,0-.7119751.1090088-1.7000122.1640015-.2189941,0-.4379883.0549927-.7119751.0549927,0,.2739868-.0549927.492981-.0549927.7119751-.0549927.9849854-.1640015,1.7000122-.1640015,1.7000122,0,.4233398-.3432007.7664795-.7665405.7664795-.4232788,0-.7664795-.3431396-.7664795-.7664795,0,0-.1090088-.7119751-.1640015-1.7000122,0-.2189941-.0549927-.492981-.0549927-.7119751-1.3140259-.1090088-2.40802-.2189941-2.40802-.2189941-.4233398,0-.7664795-.3432007-.7664795-.7664795,0-.4233398.3431396-.7665405.7664795-.7665405.7982788-.1150513,1.6020508-.1881104,2.40802-.2189941Z" style="fill: #ffbcc6;"/>
      </g>
      <g id="Groupe_2889" data-name="Groupe 2889">
        <g id="Groupe_2888" data-name="Groupe 2888">
          <ellipse id="Ellipse_440" data-name="Ellipse 440" cx="149.9994812" cy="158.6297533" rx="44.6409988" ry="44.5349998" style="fill: #272f60;"/>
        </g>
        <path id="Tracé_8321" data-name="Tracé 8321" d="m128.0534897,131.4957545c1.1133118-1.0832214,2.8866882-1.0832214,4,0l16,16.0310059c.5151672.5254211,1.2108459.8353577,1.9460144.8670044.7446899.0116577,1.456665-.305542,1.9460144-.8670044l15.8930054-15.9230042c1.1054688-1.1343994,2.9212341-1.1578369,4.0556335-.0523682.0176697.0172119.0351257.0346985.0523682.0523682,1.5140076,1.625,3.4599915,3.7909851,4.9729919,5.4159851.9963989,1.1256714.9491577,2.8311768-.1080017,3.8999939l-15.6760254,15.7060242c-.5422058.5048218-.8546753,1.2092285-.8649902,1.9500122-.0119629.7454834.3043213,1.4585266.8649902,1.9500122l16,16.0320129c1.0810547,1.1173096,1.0810547,2.890686,0,4.0079956l-5.1900024,5.2000122c-1.1133118,1.0832214-2.8866882,1.0832214-4,0l-16-16.0310059c-.5024109-.5435181-1.2059326-.8569641-1.9460144-.8670044-.7446899-.0116577-1.456665.305542-1.9460144.8670044l-16,16.0310059c-1.1133118,1.0832214-2.8866882,1.0832214-4,0l-5.1900024-5.2000122c-1.0810547-1.1173096-1.0810547-2.890686,0-4.0079956l16-16.0320129c.5422058-.5048218.8546753-1.2092285.8649902-1.9500122.0118408-.7454529-.3044434-1.4584656-.8649902-1.9500122l-16-16.0310059c-1.0810547-1.1173096-1.0810547-2.890686,0-4.0079956,1.5140076-1.4079895,3.6759949-3.4670105,5.1900024-5.0910034h.0000305Z" style="fill: #fd657c;"/>
      </g>
    </g>
  </g>
</svg>