<?xml version="1.0" encoding="utf-8"?>
<!-- Generator: Adobe Illustrator 26.2.1, SVG Export Plug-In . SVG Version: 6.00 Build 0)  -->
<svg version="1.1" id="Calque_1" xmlns="http://www.w3.org/2000/svg" xmlns:xlink="http://www.w3.org/1999/xlink" x="0px" y="0px"
	 viewBox="0 0 371.1 474.2" style="enable-background:new 0 0 371.1 474.2;" xml:space="preserve">
<style type="text/css">
	.st0{fill:#272F60;}
	.st1{fill:#FFFFFF;}
	.st2{clip-path:url(#SVGID_00000089538295831599070230000011012562368738071692_);}
	.st3{fill:#FFBCC6;}
	.st4{clip-path:url(#SVGID_00000148633408354955788660000011851223108707697543_);}
	.st5{fill:#FB657C;}
	.st6{clip-path:url(#SVGID_00000119093983483889092760000004687968960114256063_);}
	.st7{clip-path:url(#SVGID_00000035528593313611521030000011949894143329229187_);}
	.st8{fill:#FFF5F7;}
	.st9{clip-path:url(#SVGID_00000011713082204435213410000011845794960676535698_);}
	.st10{clip-path:url(#SVGID_00000137842085345761927110000012517675319108923812_);}
	.st11{clip-path:url(#SVGID_00000041986465731048370320000002982129665266328740_);}
	.st12{clip-path:url(#SVGID_00000017507634386337184630000005998744680782051511_);}
	.st13{clip-path:url(#SVGID_00000183211610334074040540000017351376203837772975_);}
	.st14{clip-path:url(#SVGID_00000014611823413380436630000000292710312978999200_);}
</style>
<g id="TEXTES_FR">
</g>
<g>
	<g id="ILLUSTRATIONS">
		<g id="ICONO_00000006698309718954847350000010935558435940742033_">
			<path id="Tracé_3062" class="st0" d="M172.6,106.5c0.6,0.6,0.9,1.4,0.9,2.3c0,0.9-0.4,1.7-1.1,2.2c-6.2,5.4-9.7,13.2-9.7,21.4
				c0,0.6,0,1.3,0.1,1.9c0.1,0.9-0.3,1.8-0.9,2.4l-7.6,7.6c-0.6,0.6-1.4,0.9-2.2,0.9H133c-1.7,0-3.1-1.4-3.1-3.1v-20.2
				c0-0.8-0.3-1.6-0.9-2.2l-27.8-27.8c-1.2-1.2-1.2-3.2,0-4.4l24.1-24.1c1.2-1.2,3.2-1.2,4.4,0C137.5,71.5,164.3,98.2,172.6,106.5
				L172.6,106.5z"/>
			<path id="Tracé_3081" class="st1" d="M371.1,136c0,1-0.8,1.8-1.8,1.8h-10.5c-1.1,0-2.1-0.9-2.1-2.1l0,0c0-1.1,0.9-2.1,2.1-2.1
				h12.3V136L371.1,136z"/>
			<g id="ICONO-2">
				<g id="Groupe_847" transform="translate(158.684 287.58)">
					<g id="Groupe_846" transform="translate(0 0)">
						<g id="Groupe_845" transform="translate(0 0)">
							<g>
								<g>
									<defs>
										<rect id="SVGID_1_" x="-21" y="-127.8" width="120.4" height="314.4"/>
									</defs>
									<clipPath id="SVGID_00000041280614781030569310000009718325293177067435_">
										<use xlink:href="#SVGID_1_"  style="overflow:visible;"/>
									</clipPath>
									<g id="Groupe_844" style="clip-path:url(#SVGID_00000041280614781030569310000009718325293177067435_);">
										<g id="Groupe_843" transform="translate(-0.2 -0.3)">
											<rect id="Rectangle_541" x="-21" y="-127.8" class="st3" width="120.8" height="308.9"/>
											<path id="Tracé_3010" class="st0" d="M53.8,169.7c0.2-0.4,0.3-0.7,0.5-1.1c0.2-0.8,0.3-1.7,0.3-1.7
												c0-0.8-0.7-1.5-1.5-1.5c-0.8,0-1.5,0.7-1.5,1.5c0,0.6,0.2,1.2,0.3,1.7c0.1,0.4,0.3,0.8,0.5,1.1c0,0.4,0.3,0.7,0.7,0.7
												C53.4,170.4,53.8,170.1,53.8,169.7L53.8,169.7z"/>
											<path id="Tracé_3011" class="st0" d="M13.1,176.9c0.2-0.4,0.3-0.7,0.5-1.1c0.2-0.8,0.3-1.7,0.3-1.7
												c0-0.8-0.7-1.5-1.5-1.5c-0.8,0-1.5,0.7-1.5,1.5c0,0.6,0.2,1.2,0.3,1.7c0.1,0.4,0.3,0.8,0.5,1.1c0,0.4,0.3,0.7,0.7,0.7
												C12.8,177.6,13.1,177.3,13.1,176.9L13.1,176.9z"/>
											<path id="Tracé_3012" class="st0" d="M32.3,168.2c0.3-0.3,0.6-0.7,0.7-1.1c0.2-0.6,0.4-1.1,0.5-1.7c0-1.2-1-2.3-2.2-2.3
												c0,0,0,0,0,0c-1.2,0-2.3,1-2.3,2.2c0,0,0,0,0,0c0.1,0.6,0.2,1.2,0.5,1.7c0.2,0.4,0.4,0.8,0.7,1.1c0,0.6,0.5,1.1,1,1.1
												c0,0,0,0,0,0C31.9,169.3,32.3,168.8,32.3,168.2C32.3,168.2,32.3,168.2,32.3,168.2z"/>
											<ellipse id="Ellipse_285" class="st0" cx="2.9" cy="150.9" rx="1.5" ry="1.5"/>
											<ellipse id="Ellipse_286" class="st0" cx="-7" cy="167.4" rx="2.1" ry="2.1"/>
											<ellipse id="Ellipse_287" class="st0" cx="80.3" cy="156.4" rx="2.1" ry="2.1"/>
											<ellipse id="Ellipse_288" class="st0" cx="37.1" cy="162.3" rx="1.5" ry="1.5"/>
											<ellipse id="Ellipse_289" class="st0" cx="68.1" cy="172.3" rx="1.5" ry="1.5"/>
											<ellipse id="Ellipse_290" class="st0" cx="89.6" cy="168.6" rx="1.5" ry="1.5"/>
											<path id="Tracé_3013" class="st0" d="M75.8,165.7c0.3-0.6,0.5-1.3,0.7-1.9c0.2-1,0.4-1.9,0.5-2.9c0-1.2-1-2.3-2.2-2.3
												c0,0,0,0,0,0c-1.2,0-2.3,1-2.3,2.2c0,0,0,0,0,0c0.1,1,0.2,2,0.5,2.9c0.2,0.7,0.4,1.3,0.7,1.9c0,0.6,0.5,1.1,1,1.1
												c0,0,0,0,0,0C75.4,166.8,75.8,166.3,75.8,165.7C75.8,165.8,75.8,165.7,75.8,165.7z"/>
											<path id="Tracé_3014" class="st0" d="M7,176.9c0.3-0.6,0.5-1.3,0.7-1.9c0.2-1,0.4-1.9,0.5-2.9c0-1.2-1-2.3-2.2-2.3
												c0,0,0,0,0,0c-1.2,0-2.3,1-2.3,2.2c0,0,0,0,0,0c0.1,1,0.2,2,0.5,2.9c0.2,0.7,0.4,1.3,0.7,1.9c0,0.6,0.5,1.1,1,1.1
												c0,0,0,0,0,0C6.5,177.9,7,177.5,7,176.9C7,176.9,7,176.9,7,176.9z"/>
											<path id="Tracé_3015" class="st0" d="M49.6,176.3c0.2-0.6,0.3-1.3,0.5-1.9c0.2-1,0.3-1.9,0.3-2.9c0-0.8-0.7-1.5-1.5-1.5
												c-0.8,0-1.5,0.7-1.5,1.5c0,1,0.2,2,0.3,2.9c0.1,0.7,0.3,1.3,0.5,1.9c0,0.4,0.3,0.7,0.7,0.7
												C49.2,177,49.6,176.7,49.6,176.3L49.6,176.3z"/>
											<path id="Tracé_3016" class="st0" d="M8.7,165.3c0.2-0.6,0.3-1.3,0.5-1.9c0.2-1,0.3-1.9,0.3-2.9c0-0.8-0.7-1.5-1.5-1.5
												c-0.8,0-1.5,0.6-1.5,1.5c0,0,0,0,0,0.1c0,1,0.2,2,0.3,2.9c0.1,0.7,0.3,1.3,0.5,1.9c0,0.4,0.3,0.7,0.7,0.7
												C8.4,166,8.7,165.7,8.7,165.3L8.7,165.3z"/>
											<ellipse id="Ellipse_291" class="st0" cx="39.4" cy="181.2" rx="60.4" ry="6.1"/>
										</g>
									</g>
								</g>
							</g>
						</g>
					</g>
				</g>
				<g id="Groupe_852" transform="translate(173.17 328.771)">
					<g id="Groupe_851" transform="translate(0 0)">
						<g id="Groupe_850" transform="translate(0 0)">
							<g>
								<g>
									<defs>
										<rect id="SVGID_00000047767108132167291270000007440117902088553387_" x="-21" y="-127.8" width="86.8" height="158"/>
									</defs>
									<clipPath id="SVGID_00000010311376069888877620000013388077976611419557_">
										<use xlink:href="#SVGID_00000047767108132167291270000007440117902088553387_"  style="overflow:visible;"/>
									</clipPath>
									<g id="Groupe_849" style="clip-path:url(#SVGID_00000010311376069888877620000013388077976611419557_);">
										<g id="Groupe_848" transform="translate(0 -0.112)">
											<path id="Tracé_3017" class="st1" d="M4.1-66.1c0,0,0.3-5.9,0.5-12.6c0.3-8.7,0.3-18.9,0.3-18.9c0-0.8-0.7-1.5-1.5-1.5
												c-0.8,0-1.5,0.7-1.5,1.5c0,0,0.1,10.1,0.3,18.9C2.3-72,2.6-66.1,2.6-66.1c0,0.4,0.3,0.7,0.7,0.7
												C3.7-65.3,4.1-65.6,4.1-66.1L4.1-66.1z"/>
											<path id="Tracé_3018" class="st1" d="M23-55.8c0,0,0.3-5.9,0.5-12.6c0.3-8.7,0.3-18.9,0.3-18.9c0-0.8-0.7-1.5-1.5-1.5
												c-0.8,0-1.5,0.7-1.5,1.5c0,0,0.1,10.1,0.3,18.9c0.2,6.7,0.5,12.6,0.5,12.6c0,0.4,0.3,0.7,0.7,0.7
												C22.7-55.1,23-55.4,23-55.8z"/>
											<path id="Tracé_3019" class="st1" d="M51.4-75.7c0,0,0.3-7.4,0.5-15.8c0.3-11,0.3-23.7,0.3-23.7c0-0.8-0.7-1.5-1.5-1.5
												c-0.8,0-1.5,0.6-1.5,1.5c0,0,0,0,0,0.1c0,0,0.1,12.7,0.3,23.7c0.2,8.4,0.5,15.8,0.5,15.8c0,0.4,0.3,0.7,0.7,0.7
												C51.1-75,51.4-75.3,51.4-75.7C51.4-75.7,51.4-75.7,51.4-75.7z"/>
											<path id="Tracé_3020" class="st1" d="M44.5,7.6c0,0,0.3-7.4,0.5-15.8c0.3-11,0.3-23.7,0.3-23.7c0-0.8-0.7-1.5-1.5-1.5
												c-0.8,0-1.5,0.6-1.5,1.5c0,0,0,0,0,0.1c0,0,0.1,12.7,0.3,23.7C42.8,0.2,43,7.6,43,7.6c0,0.4,0.3,0.7,0.7,0.7
												C44.2,8.3,44.5,8,44.5,7.6C44.5,7.6,44.5,7.6,44.5,7.6z"/>
											<path id="Tracé_3021" class="st1" d="M-18.7,0.8c0,0,0.3-1.3,0.5-2.8c0.3-1.9,0.3-4.2,0.3-4.2c0-0.8-0.7-1.5-1.5-1.5
												c-0.8,0-1.5,0.6-1.5,1.5c0,0,0,0,0,0.1c0,0,0.1,2.3,0.3,4.2c0.2,1.5,0.5,2.8,0.5,2.8c0,0.4,0.3,0.7,0.7,0.7
												C-19.1,1.5-18.8,1.2-18.7,0.8L-18.7,0.8z"/>
											<path id="Tracé_3022" class="st1" d="M-12.7-44.8c0,0,0.3-1.3,0.5-2.8c0.3-1.9,0.3-4.2,0.3-4.2c0-0.8-0.7-1.5-1.5-1.5
												c-0.8,0-1.5,0.6-1.5,1.5c0,0,0,0,0,0.1c0,0,0.1,2.3,0.3,4.2c0.2,1.5,0.5,2.8,0.5,2.8c0,0.4,0.3,0.7,0.7,0.7
												C-13-44.1-12.7-44.4-12.7-44.8L-12.7-44.8z"/>
											<path id="Tracé_3023" class="st1" d="M39.5-93.8c0,0,0.3-1.3,0.5-2.8c0.3-1.9,0.3-4.2,0.3-4.2c0-0.8-0.7-1.5-1.5-1.5
												c-0.8,0-1.5,0.7-1.5,1.5c0,0,0.1,2.3,0.3,4.2c0.2,1.5,0.5,2.8,0.5,2.8c0,0.4,0.3,0.7,0.7,0.7
												C39.2-93,39.5-93.4,39.5-93.8z"/>
											<path id="Tracé_3024" class="st1" d="M29.7-34.8c0,0,0.3-1.3,0.5-2.8c0.3-1.9,0.3-4.2,0.3-4.2c0-0.8-0.7-1.5-1.5-1.5
												c-0.8,0-1.5,0.7-1.5,1.5c0,0,0.1,2.3,0.3,4.2c0.2,1.5,0.5,2.8,0.5,2.8c0,0.4,0.3,0.7,0.7,0.7
												C29.4-34,29.7-34.4,29.7-34.8z"/>
											<path id="Tracé_3025" class="st1" d="M18.9-119.2c0,0,0.3-1.3,0.5-2.8c0.3-1.9,0.3-4.2,0.3-4.2c0-0.8-0.7-1.5-1.5-1.5
												c-0.8,0-1.5,0.6-1.5,1.5c0,0,0,0,0,0.1c0,0,0.1,2.3,0.3,4.2c0.2,1.5,0.5,2.8,0.5,2.8c0,0.4,0.3,0.7,0.7,0.7
												C18.6-118.5,18.9-118.8,18.9-119.2z"/>
											<path id="Tracé_3026" class="st1" d="M55.3-60.1c0,0,0.3-2.3,0.5-4.8c0.3-3.3,0.3-7.2,0.3-7.2c0-0.8-0.7-1.5-1.5-1.5
												c-0.8,0-1.5,0.7-1.5,1.5c0,0,0.1,3.9,0.3,7.2c0.2,2.6,0.5,4.8,0.5,4.8c0,0.4,0.3,0.7,0.7,0.7
												C55-59.4,55.3-59.7,55.3-60.1L55.3-60.1z"/>
											<path id="Tracé_3027" class="st1" d="M11.6-103.8c0,0,0.3-2.7,0.5-5.9c0.3-4.1,0.3-8.8,0.3-8.8c0-0.8-0.7-1.5-1.5-1.5
												c-0.8,0-1.5,0.7-1.5,1.5c0,0,0.1,4.7,0.3,8.8c0.2,3.1,0.5,5.9,0.5,5.9c0,0.4,0.3,0.7,0.7,0.7
												C11.3-103,11.6-103.4,11.6-103.8L11.6-103.8z"/>
											<path id="Tracé_3028" class="st1" d="M0.6-25.9c0.2-0.4,0.4-0.7,0.5-1.1c0.2-0.8,0.3-1.7,0.3-1.7c0-0.8-0.7-1.5-1.5-1.5
												c-0.8,0-1.5,0.6-1.5,1.5c0,0,0,0,0,0.1c0,0.6,0.2,1.2,0.3,1.7c0.1,0.4,0.3,0.8,0.5,1.1c0,0.4,0.3,0.7,0.7,0.7
												C0.3-25.2,0.6-25.5,0.6-25.9L0.6-25.9z"/>
											<path id="Tracé_3029" class="st1" d="M-5.5-85.6c0.2-0.4,0.4-0.7,0.5-1.1c0.2-0.8,0.3-1.7,0.3-1.7
												c0-0.8-0.7-1.5-1.5-1.5c-0.8,0-1.5,0.6-1.5,1.5c0,0,0,0,0,0.1c0,0.6,0.2,1.2,0.3,1.7c0.1,0.4,0.3,0.8,0.5,1.1
												c0,0.4,0.3,0.7,0.7,0.7C-5.8-84.9-5.5-85.2-5.5-85.6L-5.5-85.6z"/>
											<path id="Tracé_3030" class="st1" d="M64.9-78.3c0.2-0.4,0.4-0.7,0.5-1.1c0.2-0.8,0.3-1.7,0.3-1.7
												c0-0.8-0.7-1.5-1.5-1.5c-0.8,0-1.5,0.7-1.5,1.5c0,0.6,0.2,1.2,0.3,1.7c0.1,0.4,0.3,0.8,0.5,1.1c0,0.4,0.3,0.7,0.7,0.7
												C64.6-77.6,64.9-77.9,64.9-78.3z"/>
											<path id="Tracé_3031" class="st1" d="M41.8-62.1c0.2-0.4,0.4-0.7,0.5-1.1c0.2-0.8,0.3-1.7,0.3-1.7
												c0-0.8-0.7-1.5-1.5-1.5c-0.8,0-1.5,0.7-1.5,1.5c0,0.6,0.2,1.2,0.3,1.7c0.1,0.4,0.3,0.8,0.5,1.1c0,0.4,0.3,0.7,0.7,0.7
												C41.5-61.4,41.8-61.7,41.8-62.1L41.8-62.1z"/>
											<path id="Tracé_3032" class="st1" d="M31.3-20.8c0.2-0.4,0.4-0.7,0.5-1.1c0.2-0.8,0.3-1.7,0.3-1.7
												c0-0.8-0.7-1.5-1.5-1.5c-0.8,0-1.5,0.7-1.5,1.5c0,0.6,0.2,1.2,0.3,1.7c0.1,0.4,0.3,0.8,0.5,1.1c0,0.4,0.3,0.7,0.7,0.7
												C30.9-20.1,31.3-20.4,31.3-20.8z"/>
											<path id="Tracé_3033" class="st1" d="M55.7,13.4c0.2-0.4,0.4-0.7,0.5-1.1c0.2-0.8,0.3-1.7,0.3-1.7C56.5,9.7,55.8,9,55,9
												c-0.8,0-1.5,0.6-1.5,1.5c0,0,0,0,0,0.1c0,0.6,0.2,1.2,0.3,1.7c0.1,0.4,0.3,0.8,0.5,1.1c0,0.4,0.3,0.7,0.7,0.7
												C55.4,14.1,55.7,13.8,55.7,13.4z"/>
											<path id="Tracé_3034" class="st1" d="M23,20.5c0.2-0.4,0.4-0.7,0.5-1.1c0.2-0.8,0.3-1.7,0.3-1.7c0-0.8-0.7-1.5-1.5-1.5
												c-0.8,0-1.5,0.6-1.5,1.5c0,0,0,0,0,0.1c0,0.6,0.2,1.2,0.3,1.7c0.1,0.4,0.3,0.8,0.5,1.1c0,0.4,0.3,0.7,0.7,0.7
												C22.7,21.2,23,20.9,23,20.5z"/>
											<path id="Tracé_3035" class="st1" d="M-6.5-22c0,0,0.3-2.9,0.5-6.3c0.3-4.3,0.3-9.4,0.3-9.4c0-0.8-0.7-1.5-1.5-1.5
												c-0.8,0-1.5,0.6-1.5,1.5c0,0,0,0,0,0.1c0,0,0.1,5.1,0.3,9.4C-8.3-24.9-8-22-8-22c0,0.4,0.3,0.7,0.7,0.7
												C-6.9-21.2-6.6-21.5-6.5-22C-6.5-22-6.5-22-6.5-22L-6.5-22z"/>
											<path id="Tracé_3036" class="st1" d="M18.4,2.6c0,0,0.3-2.9,0.5-6.3c0.3-4.3,0.3-9.4,0.3-9.4c0-0.8-0.7-1.5-1.5-1.5
												c-0.8,0-1.5,0.6-1.5,1.5c0,0,0,0,0,0.1c0,0,0.1,5.1,0.3,9.4c0.2,3.3,0.5,6.3,0.5,6.3c0,0.4,0.3,0.7,0.7,0.7
												C18,3.3,18.4,3,18.4,2.6C18.4,2.6,18.4,2.6,18.4,2.6z"/>
											<path id="Tracé_3037" class="st1" d="M60.7-5c0,0,0.3-2.5,0.5-5.3c0.3-3.7,0.3-7.9,0.3-7.9c0-0.8-0.7-1.5-1.5-1.5
												c-0.8,0-1.5,0.7-1.5,1.5c0,0,0.1,4.3,0.3,7.9C59-7.5,59.3-5,59.3-5c0,0.4,0.3,0.7,0.7,0.7C60.4-4.3,60.7-4.6,60.7-5z"/>
											<path id="Tracé_3038" class="st1" d="M50.7-29.3c0,0,0.3-2.5,0.5-5.3c0.3-3.7,0.3-7.9,0.3-7.9c0-0.8-0.7-1.5-1.5-1.5
												c-0.8,0-1.5,0.7-1.5,1.5c0,0,0.1,4.3,0.3,7.9c0.2,2.8,0.5,5.3,0.5,5.3c0,0.4,0.3,0.7,0.7,0.7
												C50.4-28.6,50.7-28.9,50.7-29.3L50.7-29.3z"/>
										</g>
									</g>
								</g>
							</g>
						</g>
					</g>
				</g>
				<rect id="Rectangle_544" x="121.8" y="2.5" class="st0" width="62.5" height="11.8"/>
				<path id="Tracé_3039" class="st0" d="M216.3,0c2.8,0,5.3,1.6,6.4,4.1c3,6.7,8.6,19.4,8.6,19.4H205c-0.4,0-0.9-0.2-1.2-0.5
					c-2.3-2.3-12.6-12.5-18.7-18.6c-0.8-0.8-1-1.9-0.6-2.9c0.4-1,1.4-1.6,2.5-1.6L216.3,0z"/>
				<path id="Tracé_3040" class="st5" d="M176.4,1.9c-0.2-0.4-0.2-0.9,0.1-1.3c0.2-0.4,0.7-0.6,1.1-0.6h18.2c2.8,0,5.3,1.6,6.4,4.1
					c3,6.7,8.6,19.4,8.6,19.4H100L88.1,11.7c-0.5-0.5-1.2-0.7-1.9-0.7H64.5c-1.3,0-2.5-0.5-3.3-1.4L56,4.5c-0.8-0.8-1-1.9-0.6-2.9
					c0.4-1,1.4-1.6,2.5-1.6h62c0.5,0,1,0.3,1.3,0.8c0.8,1.8,2.7,6.1,3.5,7.9c0.2,0.5,0.7,0.8,1.3,0.8h9.4c0.4,0,0.9-0.2,1.1-0.6
					c0.3-0.4,0.3-0.9,0.1-1.3c-0.7-1.7-1.8-4-2.5-5.6c-0.2-0.4-0.2-0.9,0.1-1.3c0.2-0.4,0.7-0.6,1.1-0.6h5.9c0.5,0,1,0.3,1.3,0.8
					c0.8,1.8,2.7,6.1,3.5,7.9c0.2,0.5,0.7,0.8,1.3,0.8h9.4c0.4,0,0.9-0.2,1.1-0.6c0.3-0.4,0.3-0.9,0.1-1.3c-0.7-1.7-1.8-4-2.5-5.6
					c-0.2-0.4-0.2-0.9,0.1-1.3c0.2-0.4,0.7-0.6,1.1-0.6h5.9c0.5,0,1,0.3,1.3,0.8c0.8,1.8,2.7,6.1,3.5,7.9c0.2,0.5,0.7,0.8,1.3,0.8
					h9.4c0.4,0,0.9-0.2,1.1-0.6c0.3-0.4,0.3-0.9,0.1-1.3C178.2,5.9,177.2,3.6,176.4,1.9L176.4,1.9z"/>
				<path id="Tracé_3041" class="st0" d="M257.2,157.9h17.1c0,0,9.3,9.2,15.3,15.2c1.2,1.1,1.2,3,0.1,4.1c-0.6,0.6-1.3,0.9-2.1,0.9
					h-9.3c-0.4,0-0.9-0.2-1.2-0.5C274,174.7,257.2,157.9,257.2,157.9L257.2,157.9z"/>
				<path id="Tracé_3042" class="st5" d="M210.8,157.9H267c0,0,9.3,9.2,15.3,15.2c1.2,1.1,1.2,3,0.1,4.1c-0.6,0.6-1.3,0.9-2.1,0.9
					h-47.8c-0.8,0-1.5-0.3-2.1-0.9C226.5,173.5,210.8,157.9,210.8,157.9L210.8,157.9z"/>
				<path id="Tracé_3043" class="st0" d="M198.3,157.9h-14.1c0,0-11.9,11.8-17.5,17.4c-0.5,0.5-0.6,1.2-0.4,1.8
					c0.3,0.6,0.9,1,1.5,1.1h8.1c1.2,0,2.4-0.5,3.2-1.3C183.8,172.4,198.3,157.9,198.3,157.9L198.3,157.9z"/>
				<path id="Tracé_3044" class="st0" d="M117,82.8l-30.1,30.1c-8.1,8.1-8.2,21.3-0.1,29.4c0,0,0.1,0.1,0.1,0.1l2.6,2.6
					c8.1,8.1,21.2,8.2,29.4,0.1c0,0,0.1-0.1,0.1-0.1l30.1-30.1L117,82.8L117,82.8z"/>
				<path id="Tracé_3045" class="st0" d="M38,34.2v38.2h34.6l22-22V34.2H38z"/>
				<g id="Groupe_853" transform="translate(23.289 170.083)">
					<path id="Tracé_3046" class="st3" d="M-6.6-52.5C-14.6-52.6-21-59-21-67c0-3.8,1.5-7.5,4.2-10.2l9.9-9.9l0.1-0.1
						c1.1-1.1,1.7-2.7,1.7-4.3V-118c0-5.4,4.4-9.8,9.8-9.8h5.4c1,0,1.8,0.8,1.8,1.8c0,1-0.8,1.8-1.8,1.8H4.7c-3.4,0-6.1,2.7-6.1,6.1
						c0,0,0,0,0,0v26.5c0,2.6-1,5.1-2.9,6.9c0,0-0.1,0.1-0.1,0.1l-9.8,9.8c-2,2-3.2,4.8-3.1,7.6c0,2.9,1.1,5.6,3.1,7.6
						c2,2,4.8,3.2,7.6,3.1c2.9,0,5.6-1.1,7.6-3.1l14.7-14.7c0.7-0.7,1.8-0.7,2.5,0c0.7,0.7,0.7,1.8,0,2.5l0,0L3.5-57
						C0.9-54.1-2.8-52.5-6.6-52.5z"/>
				</g>
				<g id="Groupe_854" transform="translate(21 186.635)">
					<path id="Tracé_3047" class="st0" d="M1.2-86.9c-2.3,0-4.5-0.9-6.2-2.5l-11.4-11.4c-6.2-6.2-6.1-16.2,0-22.4
						c3-3,7-4.6,11.2-4.6h18c1,0,1.8,0.8,1.8,1.8c0,1-0.8,1.8-1.8,1.8h-18c-6.7,0-12.2,5.4-12.2,12.2c0,3.2,1.3,6.4,3.6,8.6
						l11.4,11.4c2,2,5.3,2,7.3,0l6.3-6.3c0.7-0.7,1.8-0.7,2.5,0c0.7,0.7,0.7,1.8,0,2.5l0,0l-6.3,6.3C5.8-87.8,3.5-86.9,1.2-86.9z"/>
				</g>
				<path id="Tracé_3048" class="st0" d="M325.8,52.8c2,0,3.7,1.1,4.5,2.9c3.7,8.3,13.9,31.4,16.2,36.6c0.3,0.7,0.8,1.3,1.3,1.8
					c3.5,2.9,16.5,13.9,21.3,18c1.1,0.9,1.8,2.3,1.8,3.8v19.9c0,1.3-0.5,2.6-1.5,3.5l-17.1,17.2c-0.9,0.9-2.2,1.5-3.5,1.5H205.5
					L121,18.4h155.8l15.5,34.4L325.8,52.8L325.8,52.8z"/>
				<path id="Tracé_3049" class="st5" d="M88.4,123c-1.3,1.3-3.3,1.3-4.6,0l-3.3-3.3c-0.6-0.6-1.4-0.9-2.3-0.9h-21
					c-0.9,0-1.7-0.3-2.3-0.9L27.4,90.2c-0.6-0.6-0.9-1.4-0.9-2.3V74.2c0-1.8,1.4-3.2,3.2-3.2h40.1c0.9,0,1.7-0.3,2.3-0.9l20.1-20.1
					c0.6-0.6,0.9-1.4,0.9-2.3v-9.4c0-1.8-1.4-3.2-3.2-3.2H22.6c-0.9,0-1.7-0.3-2.3-0.9L10.3,24c-0.9-0.9-1.2-2.3-0.7-3.5
					c0.5-1.2,1.7-2,3-2h125.8c1.3,0,2.4,0.8,2.9,1.9c2.7,6,11.1,24.6,13.9,30.6c0.5,1.2,1.7,1.9,2.9,1.9h33.3c1.3,0,2.4,0.7,2.9,1.9
					c3.3,7.3,14.8,33.5,16.9,38c0.2,0.5,0.5,0.9,0.9,1.1c3.1,2.6,17.9,15.1,22.2,18.8c0.7,0.6,1.1,1.5,1.1,2.5v21.4
					c0,0.9-0.3,1.7-0.9,2.3l-18.2,18.2c-0.6,0.6-1.4,0.9-2.3,0.9H120c-0.9,0-1.7-0.3-2.3-0.9l-8.9-8.9c-1.3-1.3-1.3-3.3,0-4.6
					l10.4-10.4c2.1-2.2,2.1-5.7,0-7.9c-2.2-2.2-5.7-2.2-7.9,0L101,135.8c-1.3,1.3-3.3,1.3-4.6,0l-0.1-0.1c-1.3-1.3-1.3-3.3,0-4.6
					l10.4-10.4c2.1-2.2,2.1-5.7,0-7.9c-2.2-2.2-5.7-2.2-7.9,0C98.9,112.6,92.1,119.3,88.4,123L88.4,123z"/>
				<path id="Tracé_3050" class="st0" d="M176.2,52.8h-20.1l-15.5-34.4h20.1L176.2,52.8z"/>
				<path id="Tracé_3051" class="st0" d="M139.7,35.2c0.6,1.2,0,2.6-1.1,3.1c-1.2,0.6-2.6,0-3.1-1.1c-0.6-1.2,0-2.6,1.1-3.1
					C137.8,33.5,139.2,34,139.7,35.2C139.7,35.2,139.7,35.2,139.7,35.2z"/>
				<path id="Tracé_3052" class="st0" d="M88.6,111.9c0.6,1.2,0,2.6-1.1,3.1s-2.6,0-3.1-1.1c-0.6-1.2,0-2.6,1.1-3.1
					c1.1-0.6,2.5-0.1,3.1,1C88.5,111.8,88.5,111.9,88.6,111.9z"/>
				<path id="Tracé_3053" class="st1" d="M326.3,99.4c0.6,1.2,0,2.6-1.1,3.1c-1.2,0.6-2.6,0-3.1-1.1c-0.6-1.2,0-2.6,1.1-3.1
					C324.3,97.8,325.7,98.3,326.3,99.4z"/>
				<path id="Tracé_3054" class="st3" d="M219.1,8c1,2.2,0.1,4.8-2.1,5.8c-2.2,1-4.8,0.1-5.8-2.1s-0.1-4.8,2.1-5.8c0,0,0,0,0,0
					C215.5,4.9,218.1,5.8,219.1,8z"/>
				<path id="Tracé_3055" class="st5" d="M334.9,99.4c0.6,1.2,0,2.6-1.1,3.1c-1.2,0.6-2.6,0-3.1-1.1c-0.6-1.2,0-2.6,1.1-3.1
					C332.9,97.8,334.3,98.3,334.9,99.4z"/>
				<path id="Tracé_3056" class="st0" d="M135.9,26.8c0.6,1.2,0,2.6-1.1,3.1c-1.2,0.6-2.6,0-3.1-1.1c-0.6-1.2,0-2.6,1.1-3.1
					C133.9,25.1,135.3,25.6,135.9,26.8z"/>
				<g id="Groupe_855" transform="translate(204.049 198.23)">
					<path id="Tracé_3057" class="st0" d="M-19.8-78.5c-0.7,0-1.2-0.5-1.2-1.2v-10.1c0-0.3,0.1-0.6,0.3-0.9l16.8-16.8l-8.7-8.7
						c-0.5-0.5-0.5-1.3,0-1.7l9.5-9.5c0.5-0.5,1.3-0.5,1.7,0c0.5,0.5,0.5,1.2,0,1.7l-8.7,8.7l8.7,8.7c0.5,0.5,0.5,1.3,0,1.7
						l-17.3,17.3v9.6C-18.6-79-19.1-78.5-19.8-78.5z"/>
				</g>
				<g id="Groupe_856" transform="translate(154.656 165.127)">
					<path id="Tracé_3058" class="st0" d="M30.7-86.6H4.2c-0.3,0-0.6-0.1-0.9-0.3l-24-24c-0.5-0.5-0.5-1.3,0-1.7l14.7-14.8
						c0.5-0.5,1.3-0.4,1.7,0.1c0.4,0.5,0.4,1.2,0,1.7l-13.9,13.9L4.7-89h25.6l12.8-12.8c0.5-0.5,1.3-0.5,1.7,0
						c0.5,0.5,0.5,1.2,0,1.7L31.6-87C31.4-86.8,31.1-86.6,30.7-86.6z"/>
				</g>
				<g id="Groupe_857" transform="translate(195.441 243.564)">
					<path id="Tracé_3059" class="st0" d="M-4.4-94.5c-9.2,0-16.6-7.4-16.6-16.6c0-9.2,7.4-16.6,16.6-16.6
						c9.2,0,16.6,7.4,16.6,16.6c0,0,0,0,0,0C12.2-102,4.8-94.6-4.4-94.5z M-4.4-125.4c-7.9,0-14.2,6.4-14.2,14.2
						c0,7.9,6.4,14.2,14.2,14.2c7.9,0,14.2-6.4,14.2-14.2c0,0,0,0,0,0C9.8-119.1,3.4-125.4-4.4-125.4L-4.4-125.4z"/>
				</g>
				<g id="Groupe_858" transform="translate(199.963 251.24)">
					<path id="Tracé_3060" class="st0" d="M-19.8-106.7c-0.3,0-0.6-0.1-0.9-0.3c-0.5-0.5-0.5-1.3,0-1.7l4.6-4.6
						c-3-3.9-2.3-9.5,1.6-12.5c1.6-1.2,3.5-1.9,5.5-1.9c4.5,0,8.3,3.3,8.9,7.7h6.5c0.7,0,1.2,0.5,1.2,1.2c0,0.7-0.5,1.2-1.2,1.2
						h-7.7c-0.7,0-1.2-0.5-1.2-1.2c0-3.6-2.9-6.5-6.5-6.5s-6.5,2.9-6.5,6.5c0,1.8,0.7,3.5,2,4.7c0.2,0.2,0.3,0.5,0.3,0.9
						c0,0.3-0.1,0.6-0.3,0.9l-5.4,5.4C-19.2-106.8-19.5-106.7-19.8-106.7z"/>
				</g>
				<path id="Tracé_3061" class="st1" d="M227.9,115.9c0-1.3-1-2.3-2.3-2.3h-10.1c-0.9,0-1.7,0.5-2.1,1.4c-0.3,0.8-0.1,1.8,0.5,2.5
					l10.1,10.1c0.6,0.7,1.6,0.9,2.5,0.5c0.8-0.3,1.4-1.2,1.4-2.1L227.9,115.9L227.9,115.9z"/>
				<ellipse id="Ellipse_292" class="st0" cx="191" cy="132.4" rx="3" ry="3"/>
				<path id="Tracé_3063" class="st3" d="M152.7,99.6c0.8,0.8,1.1,2.1,0.7,3.2c-0.5,1.1-1.5,1.8-2.7,1.8h-22.9
					c-0.8,0-1.5-0.3-2.1-0.9L114,92c-0.5-0.6-0.9-1.3-0.9-2.1c0-0.8,0.3-1.5,0.9-2.1l11.5-11.5c1.2-1.1,3-1.1,4.2,0
					C134.3,81.2,146,92.9,152.7,99.6L152.7,99.6z"/>
				<g id="Groupe_859" transform="translate(103.545 145.723)">
					<path id="Tracé_3064" class="st0" d="M-7.8-74.3c-0.3,0-0.6-0.1-0.9-0.3l-12-12c-0.5-0.5-0.5-1.3,0-1.7c0.5-0.5,1.2-0.5,1.7,0
						l11.1,11.2L9.8-94.8v-31.8c0-0.7,0.5-1.2,1.2-1.2s1.2,0.5,1.2,1.2c0,0,0,0,0,0v32.3c0,0.3-0.1,0.6-0.3,0.9L-6.9-74.6
						C-7.2-74.4-7.5-74.3-7.8-74.3z"/>
				</g>
				<g id="Groupe_860" transform="translate(128.633 183.682)">
					<path id="Tracé_3065" class="st0" d="M-8.4-113.9c-0.3,0-0.6-0.1-0.9-0.3l-11.4-11.4c-0.5-0.5-0.5-1.3,0-1.7
						c0.5-0.5,1.2-0.5,1.7,0L-7.5-116c0.5,0.5,0.5,1.3,0,1.7C-7.7-114-8.1-113.9-8.4-113.9z"/>
				</g>
				<g id="Groupe_861" transform="translate(161.213 271.864)">
					<path id="Tracé_3066" class="st0" d="M-19.8-112.7c-0.7,0-1.2-0.5-1.2-1.2v-12.7c0-0.7,0.5-1.2,1.2-1.2s1.2,0.5,1.2,1.2
						c0,0,0,0,0,0v12.7C-18.6-113.2-19.2-112.7-19.8-112.7z"/>
				</g>
				<g id="Groupe_862" transform="translate(69.715 197.446)">
					<path id="Tracé_3067" class="st0" d="M-19.8-86.5c-0.3,0-0.6-0.1-0.9-0.3c-0.5-0.5-0.5-1.3,0-1.7L-4-105.3l-8.1-8.1
						c-0.2-0.2-0.3-0.5-0.3-0.9v-12.3c0-0.7,0.5-1.2,1.2-1.2c0.7,0,1.2,0.5,1.2,1.2l0,0v11.9l8.6,8.6c0.5,0.5,0.5,1.3,0,1.7
						l-17.5,17.5C-19.1-86.7-19.5-86.5-19.8-86.5z"/>
				</g>
				<g id="Groupe_863" transform="translate(69.264 197.446)">
					<path id="Tracé_3068" class="st0" d="M-8.2-97.7c-0.3,0-0.6-0.1-0.9-0.3l-11.6-11.6c-0.2-0.2-0.3-0.5-0.3-0.9v-16.1
						c0-0.7,0.5-1.2,1.2-1.2c0.7,0,1.2,0.5,1.2,1.2l0,0v15.6l11.3,11.3c0.5,0.5,0.5,1.3,0,1.7C-7.6-97.7-7.9-97.7-8.2-97.7z"/>
				</g>
				<path id="Tracé_3069" class="st3" d="M44.3,42.6v19.2c0,1.7,1.3,3,3,3c1.7,0,3-1.3,3-3V42.6c0-1.7-1.3-3-3-3
					C45.7,39.6,44.3,40.9,44.3,42.6z"/>
				<path id="Tracé_3070" class="st3" d="M56.5,42.6v19.2c0,1.7,1.3,3,3,3c1.7,0,3-1.3,3-3V42.6c0-1.7-1.3-3-3-3
					C57.9,39.6,56.5,40.9,56.5,42.6z"/>
				<path id="Tracé_3071" class="st3" d="M68.8,42.6v12.8c0,1.7,1.3,3,3,3c1.7,0,3-1.3,3-3V42.6c0-1.7-1.3-3-3-3
					C70.1,39.6,68.8,40.9,68.8,42.6z"/>
				<path id="Tracé_3072" class="st3" d="M81,42.6v3.8c0,1.7,1.3,3,3,3c1.7,0,3-1.3,3-3v-3.8c0-1.7-1.3-3-3-3c0,0,0,0,0,0
					C82.4,39.6,81,40.9,81,42.6z"/>
				<path id="Tracé_3073" class="st5" d="M188.1,157.9h-56.2c0,0-9.3,9.2-15.3,15.2c-1.2,1.1-1.2,3-0.1,4.1
					c0.6,0.6,1.3,0.9,2.1,0.9h47.8c0.8,0,1.5-0.3,2.1-0.9C172.4,173.5,188.1,157.9,188.1,157.9L188.1,157.9z"/>
				<path id="Tracé_3074" class="st0" d="M38.8,38.2c0,0-3.4,1.5-5.1,2.1c-0.6,0.2-0.9,0.8-0.9,1.4v4.6c0,0.6,0.4,1.2,0.9,1.4
					c1.7,0.7,5.1,2.1,5.1,2.1V38.2z"/>
				<path id="Tracé_3075" class="st0" d="M38.8,54.7c0,0-3.4,1.5-5.1,2.1c-0.6,0.2-0.9,0.8-0.9,1.4v4.6c0,0.6,0.4,1.2,0.9,1.4
					c1.7,0.7,5.1,2.1,5.1,2.1V54.7z"/>
				<path id="Tracé_3076" class="st0" d="M259,178.2h-23.8c-2.6,0-5.1-1-6.9-2.9c-5.6-5.6-17.5-17.4-17.5-17.4h48.2L259,178.2
					L259,178.2z"/>
				<path id="Tracé_3077" class="st0" d="M123.7,159.4h224.4c0.8,0,1.5-0.7,1.5-1.5c0-0.8-0.7-1.5-1.5-1.5H123.7
					c-0.8,0-1.5,0.7-1.5,1.5C122.1,158.7,122.8,159.4,123.7,159.4z"/>
				<path id="Tracé_3078" class="st3" d="M235.5,113.6h25.8c1.4,0,2.5,1.1,2.5,2.5c0,0,0,0,0,0.1v5.8c0,0.7-0.3,1.3-0.7,1.8
					l-3.8,3.8c-0.5,0.5-1.1,0.7-1.8,0.7h-22V113.6z"/>
				<path id="Tracé_3079" class="st3" d="M371.1,115.8c0-0.6-0.2-1.2-0.7-1.5c-0.4-0.4-1-0.7-1.5-0.7h-23.7c-1.4,0-2.5,1.1-2.5,2.5
					c0,0,0,0,0,0.1v5.8c0,0.7,0.3,1.3,0.7,1.8l3.8,3.8c0.5,0.5,1.1,0.7,1.8,0.7h22L371.1,115.8L371.1,115.8z"/>
				<path id="Tracé_3080" class="st1" d="M235.5,137.8h12.3c1.1,0,2.1-0.9,2.1-2.1l0,0c0-1.1-0.9-2.1-2.1-2.1h-12.3V137.8z"/>
				<g id="Groupe_864" transform="translate(245.152 254.844)">
					<path id="Tracé_3082" class="st5" d="M113.5-105.7h-34c-0.7,0-1.2-0.5-1.2-1.2c0-0.3,0.1-0.7,0.4-0.9l9.1-9.1v-8.6H28.6v9.1
						c0,0.3-0.1,0.6-0.3,0.9l-9.4,9.4c-0.2,0.2-0.5,0.3-0.9,0.3h-37.8c-0.7,0-1.2-0.5-1.2-1.2c0-0.7,0.5-1.2,1.2-1.2h37.3l8.7-8.7
						v-9.8c0-0.7,0.5-1.2,1.2-1.2l0,0h61.6c0.7,0,1.2,0.5,1.2,1.2c0,0,0,0,0,0v10.3c0,0.3-0.1,0.6-0.3,0.9l-7.3,7.3h31.1
						c0.7,0,1.2,0.5,1.2,1.2c0,0,0,0,0,0C114.7-106.2,114.1-105.7,113.5-105.7z"/>
				</g>
				<g id="Groupe_865" transform="translate(218.328 190.706)">
					<path id="Tracé_3083" class="st5" d="M-0.5-125.4h-19.4c-0.7,0-1.2-0.5-1.2-1.2c0-0.7,0.5-1.2,1.2-1.2h19.4
						c0.7,0,1.2,0.5,1.2,1.2C0.7-125.9,0.2-125.4-0.5-125.4z"/>
				</g>
				<g id="Groupe_866" transform="translate(221.732 198.314)">
					<path id="Tracé_3084" class="st5" d="M-0.5-125.4h-19.4c-0.7,0-1.2-0.5-1.2-1.2c0-0.7,0.5-1.2,1.2-1.2l0,0h19.4
						c0.7,0,1.2,0.5,1.2,1.2C0.7-125.9,0.2-125.4-0.5-125.4z"/>
				</g>
				<g id="Groupe_867" transform="translate(213.354 179.39)">
					<path id="Tracé_3085" class="st0" d="M2-20.2c-0.3,0-0.6-0.1-0.9-0.3c-0.5-0.5-0.5-1.3,0-1.7L20.9-42v-23.2L-2.6-85
						c-0.1-0.1-0.2-0.3-0.3-0.4l-18-40.6c-0.3-0.6-0.1-1.3,0.5-1.6s1.3-0.1,1.6,0.5c0,0,0,0,0,0.1l17.9,40.4l23.8,20
						c0.3,0.2,0.4,0.6,0.4,0.9v24.2c0,0.3-0.1,0.6-0.3,0.9L2.9-20.5C2.7-20.3,2.4-20.2,2-20.2z"/>
				</g>
				<path id="Tracé_3086" class="st5" d="M309.4,151.1c-1.1,1.1-2.7,1.8-4.3,1.8h-28.6c-0.9,0-1.7-0.5-2-1.3
					c-0.3-0.8-0.1-1.8,0.5-2.4l12.3-12.3c1.1-1.1,2.7-1.8,4.3-1.8h28.6c0.9,0,1.7,0.5,2,1.3c0.3,0.8,0.1,1.8-0.5,2.4L309.4,151.1
					L309.4,151.1z"/>
				<g id="Groupe_868" transform="translate(277.154 212.597)">
					<path id="Tracé_3087" class="st5" d="M26.1-110.5H-2.5c-1.9,0-3.8-0.8-5.1-2.1l-13-13c-0.4-0.4-0.5-0.9-0.3-1.3
						c0.2-0.5,0.6-0.8,1.1-0.7h36.4c0.3,0,0.6,0.1,0.9,0.3l11,11c1,1,1.3,2.5,0.7,3.7C28.7-111.4,27.4-110.6,26.1-110.5z
						 M-16.9-125.4L-6-114.4c0.9,0.9,2.1,1.4,3.4,1.4H26c0.4,0,0.7-0.3,0.9-0.6c0.1-0.4,0.1-0.8-0.2-1.1L16-125.4L-16.9-125.4z"/>
				</g>
				<g id="Groupe_869" transform="translate(304.586 266.173)">
					<path id="Tracé_3088" class="st0" d="M-19.8-116.6c-0.3,0-0.6-0.1-0.9-0.3c-0.5-0.5-0.5-1.3,0-1.7l8.7-8.7
						c0.5-0.5,1.2-0.5,1.7,0c0.5,0.5,0.5,1.2,0,1.7c0,0,0,0,0,0l-8.7,8.7C-19.2-116.7-19.5-116.6-19.8-116.6z"/>
				</g>
				<g id="Groupe_870" transform="translate(313.797 266.173)">
					<path id="Tracé_3089" class="st0" d="M-19.8-116.6c-0.3,0-0.6-0.1-0.9-0.3c-0.5-0.5-0.5-1.3,0-1.7l8.7-8.7
						c0.5-0.5,1.2-0.5,1.7,0c0.5,0.5,0.5,1.2,0,1.7c0,0,0,0,0,0l-8.7,8.7C-19.2-116.7-19.5-116.6-19.8-116.6z"/>
				</g>
				<g id="Groupe_871" transform="translate(323.004 266.173)">
					<path id="Tracé_3090" class="st0" d="M-19.8-116.6c-0.3,0-0.6-0.1-0.9-0.3c-0.5-0.5-0.5-1.3,0-1.7l8.7-8.7
						c0.5-0.5,1.3-0.5,1.7,0c0.5,0.5,0.5,1.2,0,1.7l-8.7,8.7C-19.2-116.8-19.5-116.6-19.8-116.6z"/>
				</g>
				<path id="Tracé_3091" class="st3" d="M226.7,24.2c54.6,0,79.3,9.7,105,61.7c0.8,1.6,0.7,3.5-0.3,5c-0.9,1.5-2.6,2.5-4.4,2.5
					h-92.8c-2.1,0-3.9-1.2-4.7-3.1c-3.3-7.5-11.9-26.9-15.3-34.5c-0.8-1.9-2.7-3.1-4.7-3.1h-30c-2,0-3.9-1.2-4.7-3.1
					c-1.9-4.3-5.5-12.3-8.2-18.2c-0.7-1.6-0.6-3.5,0.4-4.9c0.9-1.5,2.6-2.4,4.3-2.4L226.7,24.2L226.7,24.2z"/>
				<path id="Tracé_3092" class="st3" d="M148.7,112.1c-0.7,0-1.3,0.4-1.7,0.9c-0.3,0.6-0.3,1.3,0,1.9c1.7,2.9,6.1,3.6,8.7,3.8
					c0.5,0.1,1.1-0.1,1.4-0.5c0.4-0.4,0.6-0.9,0.6-1.4V114c0-0.5-0.2-1-0.5-1.3c-0.4-0.3-0.8-0.5-1.3-0.5L148.7,112.1z"/>
				<g id="Groupe_872" transform="translate(218.313 272.447)">
					<path id="Tracé_3093" class="st0" d="M-7.7-113.3c-0.3,0-0.6-0.1-0.9-0.3l-12.1-12.1c-0.5-0.5-0.5-1.3,0-1.7
						c0.5-0.5,1.2-0.5,1.7,0l12.1,12.1c0.5,0.5,0.5,1.3,0,1.7C-7.1-113.4-7.4-113.3-7.7-113.3z"/>
				</g>
				<path id="Tracé_3094" class="st0" d="M253.4,119.3c0-0.3,0.1-0.6,0.3-0.8c0.2-0.2,0.5-0.3,0.8-0.3h5.2c0.6,0,1.2,0.5,1.1,1.2
					c0,0.3-0.1,0.6-0.3,0.8l-5.2,5.2c-0.5,0.5-1.2,0.5-1.7,0c-0.2-0.2-0.3-0.5-0.3-0.8C253.4,122.8,253.4,120.7,253.4,119.3
					L253.4,119.3z"/>
				<path id="Tracé_3095" class="st0" d="M353.2,119.3c0-0.3-0.1-0.6-0.3-0.8c-0.2-0.2-0.5-0.3-0.8-0.3h-5.2
					c-0.6,0-1.2,0.5-1.1,1.2c0,0.3,0.1,0.6,0.3,0.8l5.2,5.2c0.5,0.5,1.2,0.5,1.7,0c0.2-0.2,0.3-0.5,0.3-0.8
					C353.2,122.8,353.2,120.7,353.2,119.3L353.2,119.3z"/>
				<path id="Tracé_3096" class="st1" d="M137,83.9l-15.6,15.6l-4.3-4.3l15.6-15.6L137,83.9z"/>
				<path id="Tracé_3097" class="st1" d="M124.6,102.7l15.6-15.6l2.1,2.1L127,104.6c-0.5-0.1-0.9-0.4-1.3-0.7L124.6,102.7z"/>
				<g id="Groupe_873" transform="translate(114.504 144.922)">
					<path id="Tracé_3098" class="st0" d="M101-125.4H-19.8c-0.7,0-1.2-0.5-1.2-1.2c0-0.7,0.5-1.2,1.2-1.2l0,0h120.7
						c0.7,0,1.2,0.5,1.2,1.2C102.1-125.9,101.6-125.4,101-125.4C101-125.4,101-125.4,101-125.4z"/>
				</g>
				<path id="Tracé_3099" class="st0" d="M155.9,169.8c0,0.8-0.6,1.4-1.3,1.4c0,0,0,0-0.1,0h-9.8c-0.6,0-1.2-0.4-1.4-1.1
					c-0.1-0.6,0.2-1.3,0.7-1.6c3.3-1.7,7.4-3.7,9.8-4.9c0.7-0.4,1.6-0.1,1.9,0.6c0.1,0.2,0.2,0.4,0.2,0.6L155.9,169.8z"/>
				<g id="Groupe_878" transform="translate(81.229 256.642)">
					<g id="Groupe_877" transform="matrix(0.714, 0.7, -0.7, 0.714, 21.684, 0)">
						<g id="Groupe_876" transform="translate(0 0)">
							<g>
								<g>
									<defs>
										
											<rect id="SVGID_00000176752263259774895300000016714043728628925314_" x="-106.5" y="-65.4" transform="matrix(0.6858 -0.7278 0.7278 0.6858 16.5305 -83.7999)" width="35.3" height="8.7"/>
									</defs>
									<clipPath id="SVGID_00000002348054724444104390000002843797621057443459_">
										<use xlink:href="#SVGID_00000176752263259774895300000016714043728628925314_"  style="overflow:visible;"/>
									</clipPath>
									<g id="Groupe_875" style="clip-path:url(#SVGID_00000002348054724444104390000002843797621057443459_);">
										<g id="Groupe_874" transform="translate(-13.055 8.553)">
											<path id="Tracé_3100" class="st3" d="M-55.7-75.3c1.8,0.2,3.6,0.6,5.3,1.1c0.8,0.2,1.5,0.5,2.2,0.9
												c0.1,0.1,0.2,0.1,0.2,0.2c0,0,0.1,0,0.1,0.1c0,0,0,0,0,0c0,0,0,0,0,0l-0.2,0.2c-0.3,0.2-0.7,0.4-1,0.5
												c-2.9,0.9-5.9,1.5-8.9,1.7c-5.8,0.6-11.6,0.9-17.4,0.8c-5.8,0.1-11.6-0.2-17.4-0.8c-3-0.2-6-0.8-8.9-1.7
												c-0.4-0.1-0.7-0.3-1-0.5c-0.1,0-0.1-0.1-0.2-0.2c0,0,0,0,0-0.1c0,0,0,0,0.1-0.1c0.1-0.1,0.2-0.2,0.3-0.3
												c0.5-0.3,1-0.5,1.5-0.7c1.4-0.4,2.9-0.8,4.4-1.1c0.3-0.1,0.6-0.4,0.5-0.7c-0.1-0.3-0.4-0.6-0.7-0.5c0,0,0,0,0,0
												c-1.8,0.2-3.7,0.7-5.4,1.3c-0.6,0.2-1.2,0.5-1.6,1c-0.3,0.3-0.5,0.7-0.5,1.1c0,0.6,0.5,1.3,1.5,1.8
												c2.2,0.9,4.6,1.5,7,1.8c6.8,0.9,13.6,1.4,20.5,1.4c6.9,0,13.7-0.4,20.5-1.3c2.4-0.3,4.8-0.9,7-1.8
												c1.1-0.6,1.5-1.2,1.5-1.8c0-0.5-0.3-0.9-0.6-1.2c-0.6-0.4-1.3-0.8-2-1c-2.1-0.7-4.3-1.1-6.4-1.3c-0.3,0-0.7,0.2-0.7,0.5
												c-0.1,0.3,0.1,0.6,0.3,0.7C-55.8-75.3-55.7-75.3-55.7-75.3L-55.7-75.3z"/>
											<path id="Tracé_3101" class="st3" d="M-56.2-66.4c0-0.3,0.3-0.6,0.6-0.6c0.4,0,0.7,0.3,0.7,0.6c0,0,0,0,0,0
												c0,0.4-0.3,1-1.2,1.4c-1.6,0.7-3.2,1.1-5,1.3c-2.9,0.4-5.8,0.7-8.7,0.9c-1.8,0.1-3.8,0.1-5.8,0.2c-2,0-4,0-5.8-0.2
												c-2.9-0.1-5.8-0.4-8.7-0.9c-1.7-0.2-3.4-0.7-5-1.3c-0.8-0.4-1.2-1-1.2-1.4c0-0.4,0.3-0.6,0.6-0.7c0,0,0,0,0,0
												c0.3,0,0.6,0.2,0.6,0.6l0.1,0.1c0.2,0.1,0.5,0.3,0.7,0.4c2,0.6,4.2,1,6.3,1.2c4.1,0.4,8.1,0.6,12.2,0.5
												c4.1,0.1,8.2-0.1,12.2-0.5c2.1-0.2,4.2-0.5,6.3-1.1c0.2-0.1,0.5-0.2,0.7-0.4C-56.3-66.3-56.3-66.4-56.2-66.4L-56.2-66.4
												L-56.2-66.4L-56.2-66.4z"/>
										</g>
									</g>
								</g>
							</g>
						</g>
					</g>
				</g>
				<g id="Groupe_883" transform="translate(81.895 256.642)">
					<g id="Groupe_882" transform="matrix(0.714, 0.7, -0.7, 0.714, 21.684, 0)">
						<g id="Groupe_881" transform="translate(0 0)">
							<g>
								<g>
									<defs>
										
											<rect id="SVGID_00000056425127997056724520000015723159142595478408_" x="-106.5" y="-65.4" transform="matrix(0.6858 -0.7278 0.7278 0.6858 16.5305 -83.7999)" width="35.3" height="8.7"/>
									</defs>
									<clipPath id="SVGID_00000001625674573916984490000002378042052428635832_">
										<use xlink:href="#SVGID_00000056425127997056724520000015723159142595478408_"  style="overflow:visible;"/>
									</clipPath>
									<g id="Groupe_880" style="clip-path:url(#SVGID_00000001625674573916984490000002378042052428635832_);">
										<g id="Groupe_879" transform="translate(-13.055 8.553)">
											<path id="Tracé_3102" class="st3" d="M-55.7-75.3c1.8,0.2,3.6,0.6,5.3,1.1c0.8,0.2,1.5,0.5,2.2,0.9
												c0.1,0.1,0.2,0.1,0.2,0.2c0,0,0.1,0,0.1,0.1c0,0,0,0,0,0c0,0,0,0,0,0l-0.2,0.2c-0.3,0.2-0.7,0.4-1,0.5
												c-2.9,0.9-5.9,1.5-8.9,1.7c-5.8,0.6-11.6,0.9-17.4,0.8c-5.8,0.1-11.6-0.2-17.4-0.8c-3-0.2-6-0.8-8.9-1.7
												c-0.4-0.1-0.7-0.3-1-0.5c-0.1,0-0.1-0.1-0.2-0.2c0,0,0,0,0-0.1s0,0,0.1-0.1c0.1-0.1,0.2-0.2,0.3-0.3
												c0.5-0.3,1-0.5,1.5-0.7c1.4-0.4,2.9-0.8,4.4-1.1c0.3-0.1,0.6-0.4,0.5-0.7c-0.1-0.3-0.4-0.6-0.7-0.5c0,0,0,0,0,0
												c-1.8,0.2-3.7,0.7-5.4,1.3c-0.6,0.2-1.2,0.5-1.6,1c-0.3,0.3-0.5,0.7-0.5,1.1c0,0.6,0.5,1.3,1.5,1.8
												c2.2,0.9,4.6,1.5,7,1.8c6.8,0.9,13.6,1.4,20.5,1.4c6.9,0,13.7-0.4,20.5-1.3c2.4-0.3,4.8-0.9,7-1.8
												c1.1-0.6,1.5-1.2,1.5-1.8c0-0.5-0.3-0.9-0.6-1.2c-0.6-0.4-1.3-0.8-2-1c-2.1-0.7-4.3-1.1-6.4-1.3c-0.3,0-0.7,0.2-0.7,0.5
												c-0.1,0.3,0.1,0.6,0.3,0.7C-55.8-75.3-55.7-75.3-55.7-75.3L-55.7-75.3z"/>
											<path id="Tracé_3103" class="st3" d="M-56.2-66.4c0-0.3,0.3-0.6,0.6-0.6c0.4,0,0.7,0.3,0.7,0.6c0,0,0,0,0,0
												c0,0.4-0.3,1-1.2,1.4c-1.6,0.7-3.2,1.1-4.9,1.3c-2.9,0.4-5.8,0.7-8.7,0.9c-1.8,0.1-3.8,0.1-5.8,0.2c-2,0-4,0-5.8-0.2
												c-2.9-0.1-5.8-0.4-8.7-0.9c-1.7-0.2-3.4-0.7-5-1.3c-0.8-0.4-1.2-1-1.2-1.4c0-0.4,0.3-0.6,0.6-0.7c0,0,0,0,0,0
												c0.3,0,0.6,0.2,0.6,0.6l0.1,0.1c0.2,0.1,0.5,0.3,0.7,0.4c2,0.6,4.2,1,6.3,1.2c4.1,0.4,8.1,0.6,12.2,0.5
												c4.1,0.1,8.2-0.1,12.2-0.5c2.1-0.2,4.2-0.5,6.3-1.1c0.2-0.1,0.5-0.2,0.7-0.4C-56.3-66.3-56.3-66.4-56.2-66.4L-56.2-66.4
												L-56.2-66.4L-56.2-66.4z"/>
										</g>
									</g>
								</g>
							</g>
						</g>
					</g>
				</g>
				<path id="Tracé_3104" class="st8" d="M278.6,93.4V75.7c0-1.1-1.5-1.9-3.5-1.9c-1.9,0-3.5,0.9-3.5,1.9v17.7L278.6,93.4z"/>
				<path id="Tracé_3105" class="st0" d="M271.8,88.1V91h6.9v-2.8H271.8z"/>
				<g id="Groupe_884" transform="translate(274.865 187.574)">
					<path id="Tracé_3106" class="st0" d="M13.5-123.8v2.8L12-107.5v2.6c0,0.9-0.7,1.7-1.7,1.7H-8c-0.4,0-0.9-0.2-1.2-0.5l-5.7-5.7
						c-0.2-0.2-0.5-0.4-0.8-0.4c-0.1,0-0.3,0-0.4,0h-3.3c-0.9,0-1.7-0.8-1.7-1.7v-14.5c0-0.9,0.7-1.7,1.7-1.7l0,0H9.6
						c0.4,0,0.9,0.2,1.2,0.5L13-125C13.3-124.7,13.5-124.3,13.5-123.8L13.5-123.8z"/>
					<path id="Tracé_3107" class="st3" d="M-18.9-114h-1.6c-0.2,0-0.4-0.2-0.4-0.4c0,0,0,0,0,0c0,0,0,0,0,0c0-0.2,0.2-0.4,0.4-0.4
						h1.5l1.8-1.8c0.2-0.1,0.4-0.1,0.6,0c0.1,0.2,0.1,0.4,0,0.5l-1.9,1.9C-18.7-114-18.8-114-18.9-114L-18.9-114z"/>
					<path id="Tracé_3108" class="st3" d="M-15.2-115.2c-1.7,0-3-1.3-3-3c0-1.7,1.3-3,3-3c1.7,0,3,1.3,3,3c0,0,0,0,0,0
						C-12.2-116.5-13.5-115.2-15.2-115.2z M-15.2-120.3c-1.2,0-2.2,1-2.2,2.1c0,1.2,1,2.2,2.1,2.2s2.2-1,2.2-2.1c0,0,0,0,0,0
						C-13-119.3-14-120.3-15.2-120.3C-15.2-120.3-15.2-120.3-15.2-120.3z"/>
					<ellipse id="Ellipse_293" class="st3" cx="-15.2" cy="-118.2" rx="0.8" ry="0.8"/>
					<path id="Tracé_3109" class="st3" d="M-9.4-117.7h-3.2c-0.2,0-0.4-0.2-0.4-0.4c0-0.2,0.2-0.4,0.4-0.4h3.2
						c0.2,0,0.4,0.2,0.4,0.4C-9-117.9-9.1-117.7-9.4-117.7z"/>
					<path id="Tracé_3110" class="st5" d="M7.2-106.8h-1c-0.2,0-0.4-0.2-0.4-0.4c0-0.2,0.2-0.4,0.4-0.4h1c0.2,0,0.4,0.2,0.4,0.4
						C7.7-107,7.5-106.8,7.2-106.8z M4.4-106.8h-1c-0.2,0-0.4-0.2-0.4-0.4c0-0.2,0.2-0.4,0.4-0.4h1c0.2,0,0.4,0.2,0.4,0.4
						C4.8-107,4.6-106.8,4.4-106.8z M1.5-106.8h-1c-0.2,0-0.4-0.2-0.4-0.4c0-0.2,0.2-0.4,0.4-0.4h1c0.2,0,0.4,0.2,0.4,0.4
						C1.9-107,1.7-106.8,1.5-106.8z M-1.4-106.8h-1c-0.2,0-0.4-0.2-0.4-0.4c0-0.2,0.2-0.4,0.4-0.4h1c0.2,0,0.4,0.2,0.4,0.4
						C-1-107-1.1-106.8-1.4-106.8z"/>
					<path id="Tracé_3111" class="st5" d="M7.9-123.3H5.3l-2.6-4.4h2.5L7.9-123.3z"/>
					<path id="Tracé_3112" class="st5" d="M1-127.8l2.6,4.4H1l-2.6-4.4C-1.5-127.8,1-127.8,1-127.8z"/>
					<path id="Tracé_3113" class="st5" d="M-6.9-124.3v9.3l5,5h-2.9c-0.2,0-0.5-0.1-0.6-0.3l-4.5-4.5c-0.2-0.2-0.3-0.4-0.3-0.6
						v-8.1c0-0.5,0.4-0.9,0.9-0.9l0,0C-8.3-124.3-6.9-124.3-6.9-124.3L-6.9-124.3z"/>
					<path id="Tracé_3114" class="st3" d="M15.5-124.3c0.5,0,1,0.4,1,1c0,0,0,0,0,0v7.9c0,0.3-0.1,0.5-0.3,0.7l-4.4,4.4
						c-0.2,0.2-0.4,0.3-0.7,0.3H-2.4c-0.2,0-0.4-0.1-0.5-0.2l-4.4-4.4c-0.2-0.2-0.4-0.6-0.4-0.9v-8c0-0.4,0.3-0.7,0.7-0.7
						L15.5-124.3L15.5-124.3z"/>
					<path id="Tracé_3115" class="st1" d="M-5-115.5c-0.1-0.1-0.2-0.3-0.2-0.5v-5.6c0-0.4,0.3-0.7,0.7-0.7l0,0h18.1
						c0.4,0,0.7,0.3,0.7,0.7c0,0,0,0,0,0l0,0v5.6c0,0.2-0.1,0.3-0.2,0.5l-3.2,3.2c-0.1,0.1-0.3,0.2-0.5,0.2H-1.4
						c-0.2,0-0.4-0.1-0.5-0.2C-2.5-112.9-4.4-114.8-5-115.5z"/>
					<path id="Tracé_3116" class="st0" d="M-0.1-112.1h0.8v2.1h-0.8V-112.1z"/>
					<path id="Tracé_3117" class="st0" d="M2.1-112.1H3v2.1H2.1V-112.1z"/>
					<path id="Tracé_3118" class="st0" d="M0.7-117.7H0.1v-1.5h0.6c0.2,0,0.4-0.2,0.4-0.4c0-0.2-0.2-0.4-0.4-0.4c0,0,0,0,0,0h-3
						c-0.2,0-0.4,0.2-0.4,0.4c0,0.2,0.2,0.4,0.4,0.4c0,0,0,0,0,0h0.6v1.5h-0.6c-0.2,0-0.4,0.2-0.4,0.4c0,0.2,0.2,0.4,0.4,0.4
						c0,0,0,0,0,0h3c0.2,0,0.4-0.2,0.4-0.4c0,0,0,0,0,0C1.1-117.5,0.9-117.7,0.7-117.7L0.7-117.7z"/>
					<path id="Tracé_3119" class="st0" d="M12.4-117.7h-0.6v-1.5h0.6c0.2,0,0.4-0.2,0.4-0.4c0-0.2-0.2-0.4-0.4-0.4c0,0,0,0,0,0h-3
						c-0.2,0-0.4,0.2-0.4,0.4c0,0.2,0.2,0.4,0.4,0.4c0,0,0,0,0,0H10v1.5H9.4c-0.2,0-0.4,0.2-0.4,0.4c0,0.2,0.2,0.4,0.4,0.4
						c0,0,0,0,0,0h3c0.2,0,0.4-0.2,0.4-0.4v0C12.8-117.5,12.6-117.7,12.4-117.7L12.4-117.7z"/>
					<path id="Tracé_3120" class="st0" d="M7.6-114.2H2.3c-0.3,0-0.5-0.2-0.5-0.5s0.2-0.5,0.5-0.5h5.4c0.3,0,0.5,0.2,0.5,0.5
						S7.9-114.2,7.6-114.2L7.6-114.2z"/>
				</g>
				<path id="Tracé_3121" class="st1" d="M265.3,27.1c4.6,0.9,9.1,2,13.5,3.5l-52.5,52.5L221,71.3L265.3,27.1L265.3,27.1z"/>
				<path id="Tracé_3122" class="st1" d="M284.2,32.7c1.9,0.9,3.9,1.8,5.7,2.8l-57.6,57.6c-1.3-0.5-2.3-1.5-2.9-2.7l-0.9-2.1
					L284.2,32.7z"/>
				<g id="Groupe_937" transform="translate(176.248 448.367)">
					<g id="Groupe_888" transform="translate(20.444 55.134)">
						<g id="Groupe_887" transform="translate(0 0)">
							<g id="Groupe_886">
								<g>
									<g>
										<defs>
											<rect id="SVGID_00000016759619542882712000000007944158751675452300_" x="-21" y="-127.8" width="1.6" height="1.6"/>
										</defs>
										<clipPath id="SVGID_00000040540151200766662890000002672712504269857971_">
											<use xlink:href="#SVGID_00000016759619542882712000000007944158751675452300_"  style="overflow:visible;"/>
										</clipPath>
										<g id="Groupe_885" style="clip-path:url(#SVGID_00000040540151200766662890000002672712504269857971_);">
											<ellipse id="Ellipse_294" class="st1" cx="-20.2" cy="-127" rx="3.5" ry="3.5"/>
										</g>
									</g>
								</g>
							</g>
						</g>
					</g>
					<g id="Groupe_934" transform="translate(83.403 120.714) rotate(180)">
						<g id="Groupe_933" transform="translate(0 0)">
							<path id="Tracé_3123" class="st5" d="M92.8,231.2c-0.1,0-0.2,0-0.3,0.1c-1.3,1.6-0.8,4.2-0.4,5.6c0.4,1.3,1.2,3.9,2.3,4
								c0.8,0,1.1-1.1,0.9-2.5c0-0.2,0.1-0.3,0.3-0.4c0.1,0,0.2,0,0.3,0.1c1.6,1.9,4.7,6.2,6.8,5.3c1.5-0.6,2-4.5,1.7-6.4
								c-0.4-1.9-3.5-4-5.3-5.2C99,231.8,92.8,231.2,92.8,231.2z"/>
							<path id="Tracé_3124" class="st5" d="M35.3,218.2c0.1,0,0.2,0.1,0.2,0.2c0.5,2-0.9,4.2-1.8,5.3c-0.9,1.1-2.4,3.2-3.7,2.7
								c-0.8-0.3-0.5-1.5,0.2-2.7c0.1-0.2,0-0.4-0.1-0.4c-0.1-0.1-0.2-0.1-0.3,0c-2.2,1.2-7,4.4-8.5,2c-0.3-0.5-0.6-4.2,1-5.5
								c0.7-0.6,1.5-1.1,2.3-1.4c1.6-0.9,3.3-1.3,5.1-1.3L35.3,218.2z"/>
							<path id="Tracé_3125" class="st0" d="M57.1,141.9c0,0,2.7-4.3,3.2-7.7c0.3-2.5-1.2-4.6-2.5-5.9c-0.4-0.4-1-0.5-1.5-0.4
								c-0.5,0.1-1,0.5-1.2,1l-3.7,9c-0.3,0.9,0.1,1.8,0.9,2.2C54.2,140.7,57.1,141.9,57.1,141.9L57.1,141.9z"/>
							<path id="Tracé_3126" class="st0" d="M38.4,165.9c0,0-1.8-4.8-4.3-7.2c-1.8-1.8-4.4-1.9-6.3-1.6c-0.5,0.1-1,0.4-1.3,0.9
								c-0.2,0.5-0.2,1.1,0.1,1.5l5,8.3c0.5,0.8,1.5,1.1,2.3,0.6C35.7,167.5,38.4,165.9,38.4,165.9L38.4,165.9z"/>
							<path id="Tracé_3127" class="st8" d="M59.7,149.9c-9.8-2.5-20.7,4-25,6.9c-1.1,0.7-1.4,2.2-0.7,3.3l2.6,4.5
								c0.7,1.2,2.2,1.6,3.3,0.9c3.3-1.8,10-5.1,15.2-4.8c2.7,0.2,3.5,3,3.6,4.7c0.2,2.7,0,5.4-0.7,8c-0.2,0.8,0.3,1.5,1,1.8
								c0.1,0,0.1,0,0.2,0l26.2,3.2c0.8,0.1,1.5-0.5,1.6-1.2c0,0,0,0,0,0c0.6-5.3,0.7-10.6,0.1-15.9c-1.3-9.4-3.7-12.6-6.3-15.9
								c-1.6-2.1-3.6-3.9-5.7-5.4c-3.8-2.7-7.9-5-12.3-6.9c-1.2-0.5-2.6,0-3.2,1.2l-2.8,5.6c-0.6,1.2-0.1,2.7,1.1,3.3c0,0,0,0,0,0
								c3.2,1.6,9.2,5,12.8,9.5c2.1,2.9,3.4,6.4,3.6,10c0.1,0.8-0.5,1.5-1.3,1.5c0,0-0.1,0-0.1,0l0,0c-0.7,0-1.3-0.5-1.4-1.1
								C70.3,158.1,66.8,151.7,59.7,149.9z"/>
							<path id="Tracé_3128" class="st0" d="M29.2,217.9c1.1,0.8,3.7,2.3,5,3.1s1.8,0.4,2.5-0.7c1.3-2,1.9-3.8,4.9-6.4
								c4.1-3.5,9.3-4.7,14-5.1c2.6-0.2,5.2,0.2,7.7,0.9c3.2,0.9,6.6,1.4,9.9,1.5c1.6,0,3.1,0.4,4.5,1.2c3.5,1.9,8,5.2,10.3,10.7
								c2.4,5.8,2.6,7.4,2.9,9.1c0.2,1.6,0.7,1.7,2.1,1.5c2-0.3,3.9-0.8,5.8-1.4c1.3-0.5,1.1-1.3,1.1-3.2c0-1.8-0.5-18.4-14.5-28.4
								c0.3-1.3,0.6-2.6,0.7-3.9c1.3-7,1.8-14.1,1.6-21.3c0-0.9-0.7-1.7-1.6-1.8c-4.2-0.8-16.4-3-27.6-0.6c-0.8,0.2-1.3,1-1.2,1.8
								c0,4-0.1,15.8-2,19.2c-17,4.2-24.2,13.7-26.7,19.9C27.9,216,27.9,217,29.2,217.9z"/>
							<path id="Tracé_3129" class="st0" d="M65.5,173.2c-0.1-0.9-0.3-1.7-0.7-2.6c-0.3-0.8-0.8-1.5-1.4-2.2
								c-0.4-0.4-0.8-0.7-1.2-0.9c-1.1-0.6-2.3-0.9-3.5-0.9c-0.3,0-0.5-0.2-0.5-0.5c0,0,0,0,0,0c0-0.3,0.2-0.5,0.5-0.5c0,0,0,0,0,0
								c1.4-0.1,2.9,0.2,4.2,0.8c0.6,0.3,1.1,0.7,1.5,1.1c0.7,0.7,1.2,1.6,1.6,2.6c0.3,1,0.5,2,0.6,3c0,0.3-0.2,0.5-0.4,0.5
								C65.7,173.7,65.5,173.5,65.5,173.2L65.5,173.2z"/>
							<path id="Tracé_3130" class="st0" d="M82.6,173.3c0.1-1.1,0.3-2.2,0.6-3.2c0.1-0.4,0.3-0.8,0.5-1.3c0.1-0.3,0.3-0.6,0.4-0.8
								c0.6-1.3,2-2,3.4-1.9c0.3,0,0.5,0.3,0.4,0.5c0,0,0,0,0,0c0,0.3-0.3,0.5-0.5,0.4c0,0,0,0,0,0c-1-0.1-1.7,0.7-2.2,1.6
								c-0.1,0.2-0.2,0.5-0.3,0.7c-0.2,0.4-0.3,0.7-0.5,1.1c-0.3,1-0.6,1.9-0.8,2.9c0,0.2-0.2,0.4-0.5,0.4c0,0,0,0,0,0
								C82.7,173.8,82.6,173.6,82.6,173.3L82.6,173.3z"/>
							<g id="Groupe_890" transform="translate(40.285 34.435)">
								<g id="Groupe_889" transform="translate(0 0)">
									<path id="Tracé_3131" class="st0" d="M22.2,129.2c0-0.2,0-0.4-0.1-0.5c0-0.2-0.1-0.4-0.1-0.5c-0.1-0.3-0.3-0.4-0.6-0.4
										c0,0,0,0,0,0c-0.3,0.1-0.4,0.3-0.4,0.6c0,0.2,0.1,0.3,0.1,0.5c0,0.2,0.1,0.3,0.1,0.5c0,0.3,0.3,0.5,0.6,0.4
										C22,129.8,22.2,129.5,22.2,129.2C22.2,129.3,22.2,129.2,22.2,129.2z"/>
								</g>
							</g>
							<g id="Groupe_892" transform="translate(39.115 31.603)">
								<g id="Groupe_891" transform="translate(0 0)">
									<path id="Tracé_3132" class="st0" d="M22.5,129l-0.2-0.5L22,128c-0.1-0.2-0.4-0.3-0.7-0.2c0,0,0,0,0,0
										c-0.2,0.2-0.3,0.5-0.1,0.7l0.2,0.4l0.2,0.4c0.1,0.2,0.4,0.4,0.7,0.2C22.5,129.5,22.6,129.2,22.5,129
										C22.5,129,22.5,129,22.5,129z"/>
								</g>
							</g>
							<g id="Groupe_894" transform="translate(36.967 29.445)">
								<g id="Groupe_893" transform="translate(0 0)">
									<path id="Tracé_3133" class="st0" d="M22.7,128.5c-0.1-0.1-0.3-0.2-0.4-0.4c-0.1-0.1-0.3-0.2-0.5-0.3
										c-0.2-0.1-0.6-0.1-0.7,0.2c0,0,0,0,0,0c-0.1,0.2,0,0.5,0.2,0.7c0.1,0.1,0.3,0.2,0.4,0.3c0.1,0.1,0.2,0.2,0.4,0.3
										c0.2,0.2,0.5,0.2,0.7,0C22.9,129,22.9,128.7,22.7,128.5C22.7,128.5,22.7,128.5,22.7,128.5z"/>
								</g>
							</g>
							<g id="Groupe_896" transform="translate(34.054 28.501)">
								<g id="Groupe_895" transform="translate(0 0)">
									<path id="Tracé_3134" class="st0" d="M22.7,128c-0.1,0-0.2,0-0.3-0.1l-0.3,0l-0.5-0.1c-0.3,0-0.5,0.2-0.6,0.4c0,0,0,0,0,0
										c0,0.3,0.2,0.5,0.5,0.5l0.5,0.1l0.2,0c0.1,0,0.2,0,0.2,0.1c0.3,0.1,0.5-0.1,0.6-0.4C23.1,128.3,23,128.1,22.7,128
										C22.7,128,22.7,128,22.7,128z"/>
								</g>
							</g>
							<g id="Groupe_898" transform="translate(30.978 28.459)">
								<g id="Groupe_897" transform="translate(0 0)">
									<path id="Tracé_3135" class="st0" d="M22.5,127.8c-0.2,0-0.4,0-0.5,0l-0.5,0.1c-0.3,0-0.5,0.3-0.4,0.5c0,0,0,0,0,0
										c0,0.3,0.3,0.5,0.6,0.4l0.5-0.1c0.2,0,0.3,0,0.5,0c0.3,0,0.5-0.3,0.5-0.5C23.1,128,22.8,127.8,22.5,127.8
										C22.5,127.8,22.5,127.8,22.5,127.8z"/>
								</g>
							</g>
							<g id="Groupe_900" transform="translate(27.967 28.931)">
								<g id="Groupe_899" transform="translate(0 0)">
									<path id="Tracé_3136" class="st0" d="M22.4,127.8l-1,0.3c-0.3,0.1-0.4,0.3-0.4,0.6c0.1,0.3,0.3,0.4,0.6,0.4c0,0,0,0,0,0
										l1-0.3c0.3,0,0.5-0.3,0.4-0.6C23,127.9,22.8,127.7,22.4,127.8C22.5,127.8,22.4,127.8,22.4,127.8z"/>
								</g>
							</g>
							<g id="Groupe_902" transform="translate(25.05 29.82)">
								<g id="Groupe_901" transform="translate(0 0)">
									<path id="Tracé_3137" class="st0" d="M22.3,127.8c-0.3,0.1-0.6,0.2-1,0.4c-0.3,0.1-0.4,0.4-0.3,0.7c0,0,0,0,0,0
										c0.1,0.3,0.4,0.4,0.7,0.3c0.3-0.1,0.6-0.2,0.9-0.4c0.3-0.1,0.4-0.4,0.3-0.6C22.9,127.8,22.6,127.7,22.3,127.8
										C22.3,127.8,22.3,127.8,22.3,127.8z"/>
								</g>
							</g>
							<g id="Groupe_904" transform="translate(22.226 30.98)">
								<g id="Groupe_903" transform="translate(0 0)">
									<path id="Tracé_3138" class="st0" d="M22.3,127.8c-0.3,0.1-0.6,0.3-0.9,0.4c-0.3,0.1-0.4,0.4-0.2,0.7c0,0,0,0,0,0
										c0.1,0.2,0.4,0.4,0.7,0.2c0.3-0.1,0.6-0.3,0.9-0.4c0.3-0.1,0.4-0.4,0.3-0.7C22.8,127.8,22.5,127.7,22.3,127.8
										C22.3,127.8,22.3,127.8,22.3,127.8z"/>
								</g>
							</g>
							<g id="Groupe_906" transform="translate(19.483 32.329)">
								<g id="Groupe_905" transform="translate(0 0)">
									<path id="Tracé_3139" class="st0" d="M22.2,127.8c-0.3,0.2-0.6,0.3-0.9,0.5c-0.2,0.1-0.3,0.4-0.2,0.7c0,0,0,0,0,0
										c0.1,0.2,0.4,0.3,0.7,0.2c0.3-0.2,0.6-0.3,0.9-0.5c0.3-0.1,0.4-0.4,0.3-0.7C22.8,127.8,22.5,127.7,22.2,127.8
										C22.2,127.8,22.2,127.8,22.2,127.8L22.2,127.8z"/>
								</g>
							</g>
							<g id="Groupe_908" transform="translate(16.821 33.83)">
								<g id="Groupe_907" transform="translate(0 0)">
									<path id="Tracé_3140" class="st0" d="M22.1,127.8l-0.9,0.5c-0.2,0.1-0.3,0.5-0.2,0.7c0,0,0,0,0,0c0.2,0.2,0.5,0.3,0.7,0.2
										l0.9-0.5c0.2-0.1,0.3-0.4,0.2-0.7C22.7,127.8,22.4,127.7,22.1,127.8C22.2,127.8,22.2,127.8,22.1,127.8z"/>
								</g>
							</g>
							<g id="Groupe_910" transform="translate(55.844 31.255)">
								<g id="Groupe_909" transform="translate(0 0)">
									<path id="Tracé_3141" class="st0" d="M22.2,129.2c-0.1-0.3-0.1-0.7-0.2-1c-0.1-0.3-0.3-0.4-0.6-0.4c0,0,0,0,0,0
										c-0.3,0.1-0.4,0.3-0.4,0.6c0.1,0.3,0.1,0.6,0.2,1c0,0.3,0.3,0.5,0.6,0.4C22.1,129.7,22.3,129.5,22.2,129.2
										C22.2,129.2,22.2,129.2,22.2,129.2z"/>
								</g>
							</g>
							<g id="Groupe_912" transform="translate(54.987 28.323)">
								<g id="Groupe_911" transform="translate(0 0)">
									<path id="Tracé_3142" class="st0" d="M22.3,129.1c-0.1-0.3-0.2-0.7-0.3-1c-0.1-0.3-0.4-0.4-0.6-0.3c0,0,0,0,0,0
										c-0.3,0.1-0.4,0.4-0.3,0.7c0.1,0.3,0.2,0.6,0.3,0.9c0.1,0.3,0.4,0.4,0.6,0.3C22.3,129.7,22.4,129.4,22.3,129.1
										C22.3,129.1,22.3,129.1,22.3,129.1z"/>
								</g>
							</g>
							<g id="Groupe_914" transform="translate(53.772 25.524)">
								<g id="Groupe_913" transform="translate(0 0)">
									<path id="Tracé_3143" class="st0" d="M22.4,129c-0.1-0.3-0.3-0.6-0.4-0.9c-0.1-0.3-0.4-0.4-0.7-0.2c0,0,0,0,0,0
										c-0.2,0.1-0.3,0.4-0.2,0.7c0,0,0,0,0,0c0.1,0.3,0.3,0.6,0.4,0.9c0.1,0.3,0.4,0.4,0.7,0.3C22.4,129.5,22.5,129.3,22.4,129
										C22.4,129,22.4,129,22.4,129z"/>
								</g>
							</g>
							<g id="Groupe_916" transform="translate(52.261 22.868)">
								<g id="Groupe_915" transform="translate(0 0)">
									<path id="Tracé_3144" class="st0" d="M22.5,128.9c-0.2-0.3-0.3-0.6-0.5-0.9c-0.2-0.2-0.5-0.3-0.7-0.2c0,0,0,0,0,0
										c-0.2,0.1-0.3,0.5-0.2,0.7c0,0,0,0,0,0c0.2,0.3,0.3,0.6,0.5,0.9c0.1,0.2,0.5,0.3,0.7,0.2C22.6,129.5,22.6,129.1,22.5,128.9
										C22.5,128.9,22.5,128.9,22.5,128.9z"/>
								</g>
							</g>
							<g id="Groupe_918" transform="translate(50.508 20.364)">
								<g id="Groupe_917" transform="translate(0 0)">
									<path id="Tracé_3145" class="st0" d="M22.5,128.8l-0.6-0.8c-0.2-0.2-0.5-0.3-0.7-0.1c0,0,0,0,0,0
										c-0.2,0.2-0.3,0.5-0.1,0.7l0.6,0.8c0.2,0.2,0.5,0.3,0.7,0.1C22.7,129.4,22.7,129,22.5,128.8
										C22.6,128.8,22.5,128.8,22.5,128.8z"/>
								</g>
							</g>
							<g id="Groupe_920" transform="translate(48.407 18.151)">
								<g id="Groupe_919" transform="translate(0 0)">
									<path id="Tracé_3146" class="st0" d="M22.6,128.6c-0.3-0.2-0.5-0.5-0.8-0.7c-0.2-0.2-0.5-0.2-0.7,0c0,0,0,0,0,0
										c-0.2,0.2-0.2,0.5,0,0.7c0.3,0.2,0.5,0.4,0.7,0.7c0.2,0.2,0.5,0.2,0.7,0C22.8,129.1,22.8,128.8,22.6,128.6
										C22.6,128.6,22.6,128.6,22.6,128.6z"/>
								</g>
							</g>
							<g id="Groupe_922" transform="translate(45.997 16.27)">
								<g id="Groupe_921" transform="translate(0 0)">
									<path id="Tracé_3147" class="st0" d="M22.7,128.5c-0.3-0.2-0.6-0.4-0.8-0.6c-0.2-0.2-0.5-0.1-0.7,0.1c0,0,0,0,0,0
										c-0.2,0.2-0.1,0.5,0.1,0.7c0.3,0.2,0.5,0.4,0.8,0.6c0.2,0.2,0.5,0.1,0.7-0.1C22.9,129,22.9,128.7,22.7,128.5
										C22.7,128.5,22.7,128.5,22.7,128.5z"/>
								</g>
							</g>
							<g id="Groupe_924" transform="translate(43.42 14.624)">
								<g id="Groupe_923" transform="translate(0 0)">
									<path id="Tracé_3148" class="st0" d="M22.7,128.4c-0.3-0.2-0.6-0.4-0.9-0.5c-0.2-0.2-0.6-0.1-0.7,0.2
										c-0.2,0.2-0.1,0.6,0.2,0.7c0,0,0,0,0,0c0.3,0.2,0.6,0.3,0.9,0.5c0.2,0.1,0.5,0.1,0.7-0.2C23,128.8,22.9,128.5,22.7,128.4
										C22.7,128.4,22.7,128.4,22.7,128.4z"/>
								</g>
							</g>
							<g id="Groupe_926" transform="translate(40.744 13.142)">
								<g id="Groupe_925" transform="translate(0 0)">
									<path id="Tracé_3149" class="st0" d="M22.7,128.3l-0.9-0.5c-0.2-0.1-0.6,0-0.7,0.2c0,0,0,0,0,0c-0.1,0.2,0,0.6,0.2,0.7
										c0,0,0,0,0,0l0.9,0.5c0.2,0.1,0.6,0,0.7-0.2C23,128.7,22.9,128.4,22.7,128.3L22.7,128.3z"/>
								</g>
							</g>
							<g id="Groupe_928" transform="translate(38.005 11.779)">
								<g id="Groupe_927" transform="translate(0 0)">
									<path id="Tracé_3150" class="st0" d="M22.7,128.3c-0.3-0.2-0.6-0.3-0.9-0.4c-0.3-0.1-0.6,0-0.7,0.2c0,0,0,0,0,0
										c-0.1,0.3,0,0.6,0.2,0.7c0.3,0.1,0.6,0.3,0.9,0.4c0.3,0.1,0.6,0,0.7-0.3C23,128.7,22.9,128.4,22.7,128.3z"/>
								</g>
							</g>
							<path id="Tracé_3151" class="st0" d="M74.3,164.2c0.5,0,1,0,1.5,0l1.9,0.1c0.3,0,0.5-0.2,0.5-0.5c0.1-0.4-0.1-0.7-0.4-0.7
								c0,0-0.8-0.2-2-0.3c-0.5,0-1.1-0.1-1.7-0.1C74.3,163.2,74.3,163.7,74.3,164.2z"/>
							<g id="Groupe_929" transform="translate(19.228 71.318)">
								<path id="Tracé_3152" class="st3" d="M23.4,127.8c-0.6,0.3-1.9,1.1-2,1.2c-0.4,1.3-0.5,2.7-0.2,4.1c0.2,1.6,1,3.1,2.1,4.2
									c0.9,0.9,1.5,2.1,1.7,3.3c0.4-0.3,0.9-0.5,1.3-0.7c-0.4-1.4-1.1-2.7-2.1-3.7c-0.9-0.9-1.5-2.1-1.7-3.3
									c-0.3-1.2-0.2-2.5,0.3-3.7C23.2,128.7,23.3,128.2,23.4,127.8z"/>
							</g>
							<g id="Groupe_930" transform="translate(24.705 68.253)">
								<path id="Tracé_3153" class="st3" d="M21.6,130.4c-0.7,1.6-0.8,3.3-0.5,5c0.3,1.7,1.1,3.2,2.3,4.5c0.5,0.5,0.8,1.1,1.1,1.7
									c0.8-0.2,1.6-0.4,2.5-0.6c-0.4-1.1-1-2.2-1.9-3c-0.8-0.8-1.3-1.9-1.5-3c-0.3-1.1-0.2-2.3,0.2-3.4c0.5-1.2,0.7-2.5,0.6-3.8
									c-0.9,0.3-1.7,0.6-2.5,1C22,129.3,21.9,129.9,21.6,130.4z"/>
							</g>
							<g id="Groupe_931" transform="translate(63.112 79.267)">
								<path id="Tracé_3154" class="st3" d="M23.3,136.3c-0.6,0.6-1.4,1.2-2.2,1.5c0.6,0.6,1.2,1.3,1.7,2c0.9-0.4,1.6-1,2.3-1.7
									c1.2-1.2,2.1-2.7,2.4-4.4c0.3-1.1,0.9-2.1,1.7-2.9c0.4-0.4,0.8-0.7,1.3-1c-0.4-0.7-0.9-1.4-1.5-2c-0.6,0.4-1.1,0.8-1.6,1.3
									c-1.2,1.2-2.1,2.7-2.4,4.4C24.7,134.5,24.1,135.5,23.3,136.3z"/>
							</g>
							<g id="Groupe_932" transform="translate(66.635 84.69)">
								<path id="Tracé_3155" class="st3" d="M25.4,136.6c1.2-1.1,2-2.5,2.3-4.1c0.3-1.3,1-2.4,2-3.3l0,0c-0.2-0.5-0.4-1-0.7-1.4
									c-0.2,0.1-0.4,0.3-0.5,0.5c-1.2,1.1-2,2.5-2.3,4.1c-0.3,1.2-0.9,2.4-1.9,3.2c-0.9,0.9-2,1.6-3.2,1.8l-0.1,0
									c0.1,0.3,0.3,0.6,0.4,0.9c0.1,0.2,0.1,0.3,0.2,0.5C23.1,138.5,24.4,137.7,25.4,136.6z"/>
							</g>
							<path id="Tracé_3156" class="st1" d="M84.4,204.8c0,0,0.3-0.5,0.7-1.1c0.2-0.3,0.4-0.8,0.6-1.2c0.1-0.2,0.2-0.5,0.3-0.8
								c0.1-0.4,0.2-0.8,0.3-1.3c0.1-0.3,0.1-0.5,0.1-0.5c0-0.2-0.1-0.3-0.4-0.4c-0.3,0-0.5,0.1-0.5,0.2c0,0-0.1,0.2-0.2,0.5
								c-0.1,0.3-0.3,0.7-0.5,1.1c-0.1,0.2-0.2,0.4-0.3,0.7l-0.5,1.1l-0.5,1.2c-0.1,0.1,0,0.4,0.2,0.5
								C84.1,204.9,84.4,204.9,84.4,204.8z"/>
						</g>
					</g>
					<g id="Groupe_936" transform="translate(47.211 39.768) rotate(180)">
						<g id="Groupe_935" transform="translate(0 0)">
							<path id="Tracé_3157" class="st5" d="M23,154.5c1.8,3.2,5.6,4.7,9.8,4.7c4.2-0.2,7.9-1.8,9.7-5.1c1.8-3.4,2-7.1,1.5-11.1
								c-0.6-5.7-1.9-9.9-6.8-12.2c0,0,0-1.4,0-2c0-0.5-0.3-0.8-0.8-0.9c-1.4-0.1-2.8-0.2-4.1-0.1c-1.4,0-2.8,0.1-4.1,0.3
								c-0.4,0.1-0.8,0.5-0.7,0.9c0,0.6,0.1,2,0.1,2c-4.9,2.5-6,6.8-6.4,12.5C20.8,147.5,21.1,151.1,23,154.5z"/>
							<path id="Tracé_3158" class="st0" d="M30.3,131.2c0.1,0.3,0.2,0.4,0.5,0.4c0.1,0,0.1,0,0.2-0.1c0.5-0.3,1.1-0.4,1.6-0.4
								c0.6,0,1.1,0.1,1.6,0.3c0.1,0.1,0.2,0.1,0.3,0.1c0.2,0,0.4-0.2,0.5-0.4c0-0.2,0-0.5-0.2-0.6c0,0,0,0,0,0
								c-0.6-0.5-1.4-0.8-2.1-0.8c-0.8,0.1-1.5,0.4-2.1,0.9C30.4,130.7,30.3,131,30.3,131.2z"/>
						</g>
					</g>
					<path id="Tracé_3159" class="st0" d="M1.7-113.5c0,0.5-0.1,1-0.1,1.5c0,0.8,0.1,1.6,0.3,2.3c0.5,2.5,1.4,5.1,2.1,5.2
						c0,0,0,0,0-0.1c-0.2-2.2,0-4.5,0.6-6.6c0.7-1.9,1.1-2.9,3.4-3.1c1.5-0.1,3.1-0.2,4.6-0.1c3.5,0.5,4,3,5.8,4.4
						c1.6,1.2,2.3,1.6,2.6,2.9c0.1,0.6,0.1,1.2,0,1.8c-0.1,0.6-0.2,1.1-0.4,1.7c-0.3,0.8-0.3,1.7-0.1,2.5c0.2,0.7,0.5,1.2,0.6,1.6
						c0.2,0.5,0.3,1,0.3,1.5c0.1,0.5,0.3,0.9,0.5,0.9c0.4-0.1,0.5-0.8,0.5-1.4c0-0.4,0-0.8-0.1-1.3c-0.1-0.6-0.3-1.1-0.3-1.7
						c-0.1-0.6,0-0.7,0.2-1.3c0.4-0.7,0.8-1.4,1-2.2c0,0,0.2-1.4,1.1-1.2c1.1,0.2,1.2,1.5,1,3.6c-0.4,4.3-4.1,8.4-2.7,9.9
						c6-3.8,8.6-12.7,7.8-18.5c4.6-0.5,8.3-4.2,8.2-8.5c-0.1-3.5-2.4-6.5-5.7-7.6c-4.7-1.7-10,0.3-11.9,4.6
						c-2.5-0.6-5.1-0.8-7.7-0.5c-3.3,0.3-6.4,1.5-9,3.5C2.8-118,1.8-115.8,1.7-113.5L1.7-113.5z"/>
				</g>
				<g id="Groupe_986" transform="translate(172.213 307.619)">
					<g id="Groupe_985" transform="translate(89.004 124.711) rotate(180)">
						<g id="Groupe_984" transform="translate(0 0)">
							<g>
								<g>
									<defs>
										<rect id="SVGID_00000096782278695497959890000013583833516802434984_" x="21" y="127.8" width="89" height="124.7"/>
									</defs>
									<clipPath id="SVGID_00000080184816435986987930000016924214463996000140_">
										<use xlink:href="#SVGID_00000096782278695497959890000013583833516802434984_"  style="overflow:visible;"/>
									</clipPath>
									<g id="Groupe_983" style="clip-path:url(#SVGID_00000080184816435986987930000016924214463996000140_);">
										<g id="Groupe_982" transform="translate(2.803 3.87)">
											<path id="Tracé_3160" class="st5" d="M32.6,232.2c0.1,0,0.2,0,0.3,0.1c1.3,1.6,0.9,4.2,0.5,5.6c-0.4,1.4-1.1,4-2.3,4
												c-0.8,0-1.1-1.1-0.9-2.5c0-0.2-0.1-0.3-0.3-0.4c-0.1,0-0.2,0-0.3,0.1c-1.5,1.9-4.6,6.3-6.7,5.4c-1.5-0.6-2.1-4.5-1.8-6.4
												c0.4-2,3.4-4.1,5.2-5.3C26.3,232.9,32.6,232.2,32.6,232.2z"/>
											<path id="Tracé_3161" class="st5" d="M90,218.2c-0.1,0-0.2,0.1-0.2,0.2c-0.5,2,1,4.2,1.9,5.3c0.9,1.1,2.5,3.2,3.7,2.7
												c0.8-0.3,0.5-1.5-0.2-2.7c-0.1-0.2,0-0.4,0.1-0.4c0.1-0.1,0.2-0.1,0.3,0c2.2,1.1,7.1,4.3,8.6,1.9
												c0.3-0.5,0.5-4.2-1.1-5.5c-0.7-0.6-1.5-1.1-2.4-1.4c-1.6-0.8-3.3-1.3-5.1-1.2L90,218.2z"/>
											<path id="Tracé_3162" class="st0" d="M66.8,142c0,0-2.8-4.3-3.3-7.7c-0.4-2.5,1.1-4.7,2.4-6c0.4-0.4,1-0.6,1.5-0.5
												c0.5,0.1,1,0.5,1.2,1l3.8,8.9c0.4,0.9,0,1.8-0.9,2.2C69.7,140.7,66.8,142,66.8,142L66.8,142z"/>
											<path id="Tracé_3163" class="st0" d="M86,165.7c0,0,1.7-4.8,4.2-7.3c1.8-1.8,4.4-1.9,6.2-1.7c0.5,0.1,1,0.4,1.3,0.9
												c0.2,0.5,0.2,1.1,0,1.6l-4.8,8.4c-0.5,0.8-1.5,1.1-2.3,0.6C88.7,167.3,86,165.7,86,165.7z"/>
											<path id="Tracé_3164" class="st8" d="M64.3,150c9.8-2.6,20.8,3.7,25.2,6.5c1.1,0.7,1.4,2.1,0.8,3.3l-2.5,4.5
												c-0.7,1.2-2.1,1.6-3.3,1c-3.4-1.8-10.2-4.9-15.3-4.5c-2.7,0.2-3.4,3-3.5,4.8c-0.2,2.7,0.1,5.4,0.8,8
												c0.2,0.8-0.2,1.6-1,1.8c-0.1,0-0.1,0-0.2,0l-26.2,3.6c-0.8,0.1-1.5-0.4-1.6-1.2c0,0,0,0,0,0c-0.7-5.3-0.8-10.7-0.4-16
												c1.2-9.5,3.5-12.7,6.1-16.1c1.6-2.1,3.5-4,5.7-5.5c3.8-2.8,7.9-5.2,12.2-7.1c1.2-0.5,2.6,0,3.2,1.1l2.9,5.6
												c0.6,1.2,0.2,2.7-1.1,3.3c0,0,0,0,0,0c-3.2,1.7-9.2,5.1-12.6,9.7c-2.1,3-3.3,6.5-3.4,10.1c-0.1,0.8,0.5,1.5,1.3,1.5
												c0,0,0.1,0,0.1,0l0,0c0.7,0,1.3-0.5,1.4-1.2C53.8,158.5,57.2,151.9,64.3,150z"/>
											<path id="Tracé_3165" class="st0" d="M96.1,217.7c-1.1,0.8-3.7,2.4-4.9,3.2s-1.8,0.4-2.5-0.7c-1.3-2-2-3.8-5.1-6.3
												c-4.2-3.4-9.4-4.6-14.1-4.8c-2.6-0.1-5.2,0.2-7.7,1.1c-3.2,1-6.6,1.5-10,1.7c-1.6,0.1-3.1,0.5-4.5,1.2
												c-3.5,1.9-8,5.4-10.2,10.9c-2.3,5.9-2.5,7.5-2.7,9.2c-0.2,1.6-0.6,1.8-2.1,1.5c-2-0.3-3.9-0.7-5.8-1.3
												c-1.3-0.5-1.2-1.3-1.2-3.2c0-1.8,0.1-18.5,14.1-28.8c-0.3-1.3-0.6-2.6-0.8-3.9c-1.4-7-2.1-14.2-2-21.3
												c0-0.9,0.7-1.7,1.5-1.9c4.2-0.9,16.4-3.3,27.7-1.1c0.8,0.2,1.3,1,1.3,1.8c0,4,0.4,15.8,2.4,19.2
												c17.2,4,24.5,13.3,27.1,19.5C97.4,215.8,97.4,216.8,96.1,217.7z"/>
											<path id="Tracé_3166" class="st0" d="M58.9,173.5c0.1-0.9,0.3-1.8,0.7-2.6c0.3-0.8,0.8-1.5,1.4-2.2
												c0.4-0.4,0.7-0.7,1.2-1c1.1-0.6,2.3-1,3.5-1c0.3,0,0.5-0.2,0.5-0.5c0,0,0,0,0,0c0-0.3-0.2-0.5-0.5-0.5c0,0,0,0,0,0
												c-1.4-0.1-2.9,0.2-4.2,0.9c-0.6,0.3-1.1,0.7-1.5,1.2c-0.7,0.8-1.2,1.7-1.5,2.6c-0.3,1-0.5,2-0.5,3c0,0.3,0.2,0.5,0.5,0.5
												C58.7,174,58.9,173.8,58.9,173.5z"/>
											<path id="Tracé_3167" class="st0" d="M41.8,174c-0.1-1.1-0.3-2.2-0.6-3.2c-0.1-0.4-0.3-0.8-0.5-1.3
												c-0.1-0.3-0.3-0.5-0.4-0.8c-0.6-1.3-2-2-3.4-1.9c-0.3,0-0.5,0.3-0.4,0.5c0,0,0,0,0,0c0,0.3,0.3,0.5,0.5,0.4c0,0,0,0,0,0
												c1,0,1.9,0.7,2.2,1.6c0.1,0.2,0.2,0.5,0.3,0.7c0.2,0.4,0.3,0.7,0.5,1.1c0.4,1,0.7,1.9,0.9,2.9c0,0.2,0.3,0.4,0.5,0.4
												c0,0,0,0,0,0C41.6,174.4,41.8,174.2,41.8,174L41.8,174z"/>
											<g id="Groupe_939" transform="translate(40.739 34.649)">
												<g id="Groupe_938" transform="translate(0 0)">
													<path id="Tracé_3168" class="st0" d="M21,129.3c0-0.2,0-0.4,0.1-0.5c0-0.2,0.1-0.4,0.1-0.5c0-0.3,0.3-0.5,0.6-0.4
														c0,0,0,0,0,0c0.3,0.1,0.4,0.3,0.4,0.6c0,0.2-0.1,0.3-0.1,0.5s-0.1,0.3-0.1,0.5c0,0.3-0.3,0.5-0.5,0.5
														C21.2,129.8,21,129.6,21,129.3C21,129.3,21,129.3,21,129.3z"/>
												</g>
											</g>
											<g id="Groupe_941" transform="translate(41.539 31.787)">
												<g id="Groupe_940" transform="translate(0 0)">
													<path id="Tracé_3169" class="st0" d="M21.1,129l0.2-0.5l0.3-0.5c0.1-0.2,0.4-0.3,0.7-0.2c0,0,0,0,0,0
														c0.2,0.2,0.3,0.5,0.2,0.7l-0.2,0.4l-0.2,0.4c-0.1,0.2-0.4,0.4-0.7,0.3C21.1,129.6,20.9,129.3,21.1,129
														C21.1,129,21.1,129,21.1,129z"/>
												</g>
											</g>
											<g id="Groupe_943" transform="translate(43.311 29.583)">
												<g id="Groupe_942" transform="translate(0 0)">
													<path id="Tracé_3170" class="st0" d="M21.2,128.5c0.1-0.1,0.3-0.2,0.4-0.4c0.1-0.1,0.3-0.2,0.5-0.3
														c0.2-0.2,0.6-0.1,0.7,0.2c0,0,0,0,0,0c0.1,0.2,0.1,0.5-0.2,0.7c-0.1,0.1-0.3,0.2-0.4,0.3s-0.2,0.2-0.4,0.3
														c-0.2,0.2-0.5,0.2-0.7,0C21,129.1,21,128.8,21.2,128.5C21.2,128.5,21.2,128.5,21.2,128.5z"/>
												</g>
											</g>
											<g id="Groupe_945" transform="translate(46.022 28.585)">
												<g id="Groupe_944" transform="translate(0 0)">
													<path id="Tracé_3171" class="st0" d="M21.4,128c0.1,0,0.2-0.1,0.3-0.1l0.3,0l0.5-0.1c0.3,0,0.5,0.2,0.6,0.4
														c0,0,0,0,0,0c0,0.3-0.2,0.5-0.4,0.6l-0.5,0.1l-0.2,0c-0.1,0-0.2,0-0.2,0.1c-0.3,0.1-0.5-0.1-0.6-0.4
														C21,128.4,21.1,128.1,21.4,128C21.4,128,21.4,128,21.4,128z"/>
												</g>
											</g>
											<g id="Groupe_947" transform="translate(49.095 28.506)">
												<g id="Groupe_946" transform="translate(0 0)">
													<path id="Tracé_3172" class="st0" d="M21.6,127.8c0.2,0,0.4,0,0.5,0l0.5,0.1c0.3,0,0.5,0.3,0.5,0.5c0,0,0,0,0,0
														c0,0.3-0.3,0.5-0.6,0.4l-0.5-0.1c-0.2,0-0.3,0-0.5,0c-0.3,0-0.5-0.2-0.5-0.5C21,128,21.2,127.8,21.6,127.8
														C21.5,127.8,21.5,127.8,21.6,127.8z"/>
												</g>
											</g>
											<g id="Groupe_949" transform="translate(52.154 28.927)">
												<g id="Groupe_948" transform="translate(0 0)">
													<path id="Tracé_3173" class="st0" d="M21.6,127.8l1,0.2c0.3,0.1,0.4,0.4,0.4,0.6c-0.1,0.3-0.4,0.4-0.6,0.4l0,0l-1-0.2
														c-0.3-0.1-0.5-0.3-0.4-0.6S21.4,127.7,21.6,127.8L21.6,127.8z"/>
												</g>
											</g>
											<g id="Groupe_951" transform="translate(55.126 29.767)">
												<g id="Groupe_950" transform="translate(0 0)">
													<path id="Tracé_3174" class="st0" d="M21.7,127.8c0.3,0.1,0.7,0.2,1,0.4c0.3,0.1,0.4,0.4,0.3,0.6c0,0,0,0,0,0
														c-0.1,0.3-0.4,0.4-0.7,0.3c-0.3-0.1-0.6-0.2-1-0.3c-0.3-0.1-0.4-0.4-0.3-0.6C21.1,127.9,21.4,127.7,21.7,127.8
														C21.7,127.8,21.7,127.8,21.7,127.8z"/>
												</g>
											</g>
											<g id="Groupe_953" transform="translate(58.01 30.881)">
												<g id="Groupe_952" transform="translate(0 0)">
													<path id="Tracé_3175" class="st0" d="M21.7,127.8c0.3,0.1,0.6,0.3,1,0.4c0.3,0.1,0.4,0.4,0.3,0.7c0,0,0,0,0,0
														c-0.1,0.3-0.4,0.4-0.7,0.2c-0.3-0.1-0.6-0.3-0.9-0.4c-0.3-0.1-0.4-0.4-0.3-0.7C21.2,127.8,21.5,127.7,21.7,127.8
														C21.7,127.8,21.7,127.8,21.7,127.8z"/>
												</g>
											</g>
											<g id="Groupe_955" transform="translate(60.81 32.186)">
												<g id="Groupe_954" transform="translate(0 0)">
													<path id="Tracé_3176" class="st0" d="M21.8,127.8c0.3,0.2,0.6,0.3,0.9,0.5c0.3,0.1,0.3,0.4,0.2,0.7c0,0,0,0,0,0
														c-0.1,0.2-0.4,0.3-0.7,0.2c-0.3-0.2-0.6-0.3-0.9-0.5c-0.3-0.1-0.4-0.4-0.2-0.7S21.5,127.7,21.8,127.8z"/>
												</g>
											</g>
											<g id="Groupe_957" transform="translate(63.534 33.646)">
												<g id="Groupe_956" transform="translate(0 0)">
													<path id="Tracé_3177" class="st0" d="M21.8,127.8l0.9,0.5c0.2,0.1,0.3,0.5,0.2,0.7c0,0,0,0,0,0
														c-0.1,0.2-0.5,0.3-0.7,0.2l-0.9-0.5c-0.2-0.1-0.3-0.5-0.2-0.7C21.2,127.8,21.5,127.7,21.8,127.8z"/>
												</g>
											</g>
											<g id="Groupe_959" transform="translate(25.065 31.731)">
												<g id="Groupe_958" transform="translate(0 0)">
													<path id="Tracé_3178" class="st0" d="M21,129.2c0.1-0.4,0.1-0.7,0.2-1c0-0.3,0.3-0.5,0.6-0.4c0,0,0,0,0,0
														c0.3,0.1,0.5,0.3,0.4,0.6c-0.1,0.3-0.1,0.7-0.2,1c0,0.3-0.3,0.5-0.6,0.4C21.2,129.8,21,129.5,21,129.2
														C21,129.2,21,129.2,21,129.2z"/>
												</g>
											</g>
											<g id="Groupe_961" transform="translate(25.731 28.774)">
												<g id="Groupe_960" transform="translate(0 0)">
													<path id="Tracé_3179" class="st0" d="M21,129.1c0.1-0.3,0.2-0.7,0.3-1c0.1-0.3,0.4-0.4,0.6-0.3c0,0,0,0,0,0
														c0.3,0.1,0.4,0.4,0.3,0.7c-0.1,0.3-0.2,0.6-0.3,1c-0.1,0.3-0.4,0.4-0.6,0.3C21.1,129.7,21,129.4,21,129.1
														C21,129.1,21,129.1,21,129.1z"/>
												</g>
											</g>
											<g id="Groupe_963" transform="translate(26.784 25.943)">
												<g id="Groupe_962" transform="translate(0 0)">
													<path id="Tracé_3180" class="st0" d="M21.1,129c0.1-0.3,0.3-0.6,0.4-0.9c0.1-0.3,0.4-0.4,0.7-0.2c0,0,0,0,0,0
														c0.2,0.1,0.4,0.4,0.2,0.7c0,0,0,0,0,0c-0.1,0.3-0.3,0.6-0.4,0.9c-0.1,0.3-0.4,0.4-0.7,0.3
														C21.1,129.6,20.9,129.3,21.1,129C21.1,129,21.1,129,21.1,129z"/>
												</g>
											</g>
											<g id="Groupe_965" transform="translate(28.162 23.251)">
												<g id="Groupe_964" transform="translate(0 0)">
													<path id="Tracé_3181" class="st0" d="M21.1,128.9c0.2-0.3,0.3-0.6,0.5-0.9c0.1-0.2,0.5-0.3,0.7-0.2
														c0.2,0.1,0.3,0.4,0.2,0.7c0,0,0,0,0,0c-0.2,0.3-0.3,0.6-0.5,0.9c-0.1,0.2-0.5,0.3-0.7,0.2
														C21,129.5,20.9,129.2,21.1,128.9C21.1,128.9,21.1,128.9,21.1,128.9z"/>
												</g>
											</g>
											<g id="Groupe_967" transform="translate(29.801 20.708)">
												<g id="Groupe_966" transform="translate(0 0)">
													<path id="Tracé_3182" class="st0" d="M21.1,128.8l0.6-0.8c0.2-0.2,0.5-0.3,0.7-0.1c0,0,0,0,0,0
														c0.2,0.2,0.3,0.5,0.1,0.7c0,0,0,0,0,0l-0.6,0.8c-0.2,0.2-0.5,0.3-0.7,0.1C21,129.4,21,129.1,21.1,128.8
														C21.1,128.8,21.1,128.8,21.1,128.8z"/>
												</g>
											</g>
											<g id="Groupe_969" transform="translate(31.728 18.449)">
												<g id="Groupe_968" transform="translate(0 0)">
													<path id="Tracé_3183" class="st0" d="M21.2,128.6c0.2-0.2,0.5-0.5,0.8-0.7c0.2-0.2,0.5-0.2,0.7,0c0,0,0,0,0,0
														c0.2,0.2,0.2,0.5,0,0.7c-0.3,0.2-0.5,0.5-0.7,0.7c-0.2,0.2-0.5,0.2-0.7,0C21,129.2,21,128.9,21.2,128.6
														C21.1,128.7,21.2,128.6,21.2,128.6z"/>
												</g>
											</g>
											<g id="Groupe_971" transform="translate(34.028 16.52)">
												<g id="Groupe_970" transform="translate(0 0)">
													<path id="Tracé_3184" class="st0" d="M21.2,128.5c0.3-0.2,0.6-0.4,0.8-0.6c0.2-0.2,0.5-0.1,0.7,0.1c0,0,0,0,0,0
														c0.2,0.2,0.1,0.5-0.1,0.7c-0.3,0.2-0.5,0.4-0.8,0.6c-0.2,0.2-0.5,0.1-0.7-0.1C21,129,21,128.7,21.2,128.5
														C21.2,128.5,21.2,128.5,21.2,128.5z"/>
												</g>
											</g>
											<g id="Groupe_973" transform="translate(36.538 14.823)">
												<g id="Groupe_972" transform="translate(0 0)">
													<path id="Tracé_3185" class="st0" d="M21.3,128.4c0.3-0.2,0.6-0.4,0.9-0.6c0.2-0.1,0.6-0.1,0.7,0.2s0.1,0.6-0.2,0.7
														l0,0c-0.3,0.2-0.6,0.4-0.9,0.5c-0.2,0.2-0.6,0.1-0.7-0.2C20.9,128.9,21,128.6,21.3,128.4
														C21.2,128.4,21.2,128.4,21.3,128.4z"/>
												</g>
											</g>
											<g id="Groupe_975" transform="translate(39.168 13.288)">
												<g id="Groupe_974" transform="translate(0 0)">
													<path id="Tracé_3186" class="st0" d="M21.3,128.3l0.9-0.5c0.2-0.1,0.6,0,0.7,0.2c0.1,0.2,0,0.6-0.2,0.7l-0.9,0.5
														c-0.2,0.1-0.6,0.1-0.7-0.2S21,128.5,21.3,128.3C21.2,128.3,21.3,128.3,21.3,128.3L21.3,128.3z"/>
												</g>
											</g>
											<g id="Groupe_977" transform="translate(41.873 11.872)">
												<g id="Groupe_976" transform="translate(0 0)">
													<path id="Tracé_3187" class="st0" d="M21.3,128.3c0.3-0.2,0.6-0.3,0.9-0.5c0.2-0.1,0.6,0,0.7,0.2c0,0,0,0,0,0
														c0.1,0.3,0,0.6-0.2,0.7c-0.3,0.2-0.6,0.3-0.9,0.5c-0.2,0.1-0.6,0-0.7-0.2C20.9,128.7,21,128.4,21.3,128.3
														C21.3,128.3,21.3,128.3,21.3,128.3z"/>
												</g>
											</g>
											<path id="Tracé_3188" class="st0" d="M49.9,164.6c-0.5,0-1,0-1.5,0l-1.9,0.1c-0.3,0.1-0.5-0.2-0.5-0.5
												c-0.1-0.4,0.1-0.7,0.4-0.7c0,0,0.8-0.2,2-0.4c0.5-0.1,1.1-0.1,1.7-0.2C49.9,163.6,49.9,164.1,49.9,164.6z"/>
											<g id="Groupe_978" transform="translate(58.488 71.326)">
												<path id="Tracé_3189" class="st3" d="M23.8,127.8c0.6,0.3,1.9,1.1,2.1,1.2c0.4,1.3,0.5,2.7,0.2,4.1
													c-0.2,1.6-0.9,3.1-2.1,4.2c-0.8,1-1.4,2.1-1.7,3.4c-0.4-0.2-0.9-0.5-1.4-0.7c0.4-1.4,1.1-2.7,2-3.8
													c0.9-0.9,1.4-2.1,1.6-3.4c0.3-1.2,0.1-2.5-0.4-3.7C24.1,128.7,23.9,128.2,23.8,127.8z"/>
											</g>
											<g id="Groupe_979" transform="translate(52.334 68.366)">
												<path id="Tracé_3190" class="st3" d="M26.2,130.4c0.7,1.6,0.9,3.3,0.5,5c-0.3,1.7-1,3.3-2.2,4.5
													c-0.5,0.5-0.8,1.1-1.1,1.7c-0.8-0.2-1.6-0.4-2.5-0.5c0.4-1.1,1-2.2,1.8-3.1c0.8-0.9,1.3-1.9,1.4-3.1
													c0.3-1.1,0.1-2.3-0.3-3.4c-0.5-1.2-0.8-2.5-0.7-3.8c0.9,0.3,1.7,0.6,2.5,1C25.8,129.3,26,129.9,26.2,130.4z"/>
											</g>
											<g id="Groupe_980" transform="translate(10.347 80.173)">
												<path id="Tracé_3191" class="st3" d="M28.4,136.3c0.6,0.6,1.4,1.1,2.3,1.4c-0.6,0.7-1.1,1.3-1.7,2
													c-0.9-0.4-1.7-1-2.4-1.7c-1.3-1.2-2.1-2.7-2.5-4.3c-0.3-1.1-0.9-2.1-1.8-2.9c-0.4-0.4-0.8-0.7-1.3-1
													c0.4-0.7,0.9-1.4,1.5-2.1c0.6,0.4,1.1,0.8,1.6,1.2c1.3,1.2,2.2,2.7,2.5,4.3C26.9,134.5,27.5,135.5,28.4,136.3z"/>
											</g>
											<g id="Groupe_981" transform="translate(7.707 85.677)">
												<path id="Tracé_3192" class="st3" d="M25.4,136.6c-1.2-1.1-2-2.5-2.4-4.1c-0.3-1.3-1-2.4-2-3.3l0,0
													c0.2-0.5,0.4-1,0.7-1.4c0.2,0.1,0.4,0.3,0.5,0.5c1.2,1.1,2,2.5,2.4,4.1c0.3,1.2,1,2.4,1.9,3.2c0.9,0.9,2,1.5,3.3,1.8
													l0.1,0c-0.1,0.3-0.3,0.6-0.4,0.9c-0.1,0.2-0.1,0.3-0.2,0.5C27.8,138.4,26.5,137.7,25.4,136.6z"/>
											</g>
											<path id="Tracé_3193" class="st1" d="M40.5,205.5c0,0-0.3-0.4-0.7-1.1c-0.2-0.3-0.4-0.7-0.6-1.2
												c-0.1-0.2-0.2-0.5-0.3-0.7c-0.1-0.4-0.3-0.8-0.3-1.3c-0.1-0.3-0.1-0.5-0.1-0.5c0-0.2,0.1-0.3,0.4-0.4
												c0.3-0.1,0.5,0,0.5,0.2c0,0,0.1,0.2,0.2,0.5c0.1,0.3,0.3,0.7,0.5,1.1c0.1,0.2,0.2,0.4,0.3,0.7l0.5,1.1l0.5,1.1
												c0.1,0.1,0,0.4-0.2,0.5C40.8,205.7,40.5,205.7,40.5,205.5z"/>
										</g>
									</g>
								</g>
							</g>
						</g>
					</g>
				</g>
				<g id="Groupe_991" transform="translate(202.283 309.841)">
					<g id="Groupe_990" transform="matrix(0.979, -0.204, 0.204, 0.979, 0, 6.113)">
						<g id="Groupe_989" transform="translate(0 0)">
							<g>
								<g>
									<defs>
										
											<rect id="SVGID_00000111190802699173849800000016142106492099354280_" x="8.6" y="-127.3" transform="matrix(0.816 -0.5781 0.5781 0.816 67.7233 -8.5277)" width="23.6" height="33.3"/>
									</defs>
									<clipPath id="SVGID_00000175291512080035472020000012194571676720908465_">
										<use xlink:href="#SVGID_00000111190802699173849800000016142106492099354280_"  style="overflow:visible;"/>
									</clipPath>
									<g id="Groupe_988" style="clip-path:url(#SVGID_00000175291512080035472020000012194571676720908465_);">
										<g id="Groupe_987" transform="translate(3.601 2.972)">
											<path id="Tracé_3194" class="st5" d="M9.3-101.6c-1.7-0.9-2.8-2.6-3.1-4.5c-0.8-4.4-1-8.9-0.4-13.3
												c0.8-5.5,5.4-9.7,10.9-9.9c0.2,0-0.2,0,0,0c6.1,0.1,11.3,4,11.3,10.3c0,4.5-0.3,8.9-1,13.4c-0.5,2.3-2.2,4.1-4.5,4.7
												c0,0,0,1.1,0,1.8c0,0.5-0.3,0.8-0.7,0.9c-3.9,0.6-7.9,0.6-11.8,0c-0.5-0.1-0.8-0.5-0.8-0.9
												C9.4-100.1,9.3-101.6,9.3-101.6L9.3-101.6z"/>
											<path id="Tracé_3195" class="st0" d="M21.8-101.2c-0.2,0-0.5,0-0.7,0c-0.3,0-0.7,0-1.1,0c-0.3,0-0.7,0.1-1.1,0.1
												c-0.2,0-0.5,0.1-0.8,0.1c-0.3,0-0.6,0.2-0.6,0.5c0,0.3,0.2,0.6,0.5,0.6c0.3,0.1,0.5,0.2,0.8,0.2c0.4,0.1,0.8,0.1,1.2,0.1
												c0.4,0,0.8-0.1,1.2-0.2c0.3-0.1,0.5-0.2,0.8-0.3c0.3-0.1,0.5-0.4,0.4-0.7C22.5-101,22.2-101.2,21.8-101.2
												C21.9-101.2,21.8-101.2,21.8-101.2L21.8-101.2z"/>
										</g>
									</g>
								</g>
							</g>
						</g>
					</g>
				</g>
				<g id="Groupe_999" transform="translate(218.66 326.401)">
					<g id="Groupe_998" transform="matrix(0.974, -0.227, 0.227, 0.974, 0, 2.763)">
						<g id="Groupe_997" transform="translate(0 0)">
							<g>
								<g>
									<defs>
										
											<rect id="SVGID_00000044876429598205963940000017276413321334703529_" x="9.5" y="-128.2" transform="matrix(0.7734 -0.6339 0.6339 0.7734 81.4906 -18.6677)" width="10.3" height="9.6"/>
									</defs>
									<clipPath id="SVGID_00000114789171808290824150000006620515378063523753_">
										<use xlink:href="#SVGID_00000044876429598205963940000017276413321334703529_"  style="overflow:visible;"/>
									</clipPath>
									<g id="Groupe_996" style="clip-path:url(#SVGID_00000114789171808290824150000006620515378063523753_);">
										<g id="Groupe_995" transform="translate(1.016 1.173)">
											<g id="Groupe_992" transform="translate(8.304 0.165)">
												<path id="Tracé_3196" class="st0" d="M8.7-128.4c-0.1,0.2-0.1,0.5-0.1,0.7c0,0.3,0,0.5,0.1,0.8c0,0.4,0.3,0.8,0.8,0.9
													c0.4,0,0.8-0.3,0.8-0.8c0.1-0.2,0.1-0.5,0.1-0.7c0-0.3,0-0.5-0.1-0.8c0-0.4-0.3-0.8-0.8-0.9
													C9.1-129.2,8.7-128.9,8.7-128.4z"/>
											</g>
											<g id="Groupe_993" transform="translate(0 0)">
												<path id="Tracé_3197" class="st0" d="M8.7-128.4c-0.1,0.2-0.1,0.5-0.1,0.7c0,0.3,0,0.5,0.1,0.8c0,0.4,0.3,0.8,0.8,0.9
													c0.4,0,0.8-0.3,0.8-0.8c0.1-0.2,0.1-0.5,0.1-0.7c0-0.3,0-0.5-0.1-0.8c0-0.4-0.3-0.8-0.8-0.9
													C9.1-129.2,8.7-128.9,8.7-128.4z"/>
											</g>
											<g id="Groupe_994" transform="translate(2.713 6.821)">
												<path id="Tracé_3198" class="st0" d="M10.8-126.7c1.1,0,2-0.7,2.4-1.7c0-0.4-0.3-0.7-0.7-0.7c0,0,0,0,0,0
													c-0.5-0.1-1.1-0.1-1.6-0.1c-0.6,0-1.1,0-1.7,0.1c-0.4,0-0.7,0.3-0.7,0.7c0,0,0,0,0,0C8.9-127.4,9.8-126.8,10.8-126.7z"
													/>
											</g>
										</g>
									</g>
								</g>
							</g>
						</g>
					</g>
				</g>
				<g id="Groupe_1004" transform="translate(197.074 302.904)">
					<g id="Groupe_1003" transform="matrix(0.974, -0.226, 0.226, 0.974, 0, 8.189)">
						<g id="Groupe_1002" transform="translate(0 0)">
							<g>
								<g>
									<defs>
										
											<rect id="SVGID_00000073708466934715414690000010486673682157889410_" x="11.3" y="-126.1" transform="matrix(0.7753 -0.6316 0.6316 0.7753 76.5651 -8.3443)" width="30.6" height="28.7"/>
									</defs>
									<clipPath id="SVGID_00000134207650338201804490000007399978150766516873_">
										<use xlink:href="#SVGID_00000073708466934715414690000010486673682157889410_"  style="overflow:visible;"/>
									</clipPath>
									<g id="Groupe_1001" style="clip-path:url(#SVGID_00000134207650338201804490000007399978150766516873_);">
										<g id="Groupe_1000" transform="translate(3.776 3.88)">
											<path id="Tracé_3199" class="st0" d="M36.2-113c2.2-4.2,0.9-12-5.7-16.2c-0.1-0.1-0.3-0.1-0.5,0
												c-0.2,0.1-0.3,0.3-0.3,0.4c0,0.9-0.3,1.8-0.7,2.7c-0.1,0.2-0.3,0.3-0.4,0.3c-0.2,0-0.3-0.1-0.4-0.2
												c-0.6-0.8-1.3-1.5-2.2-2.1c-0.1-0.1-0.3-0.1-0.4-0.1c-0.1,0-0.3,0.1-0.3,0.3c-0.3,0.9-1.1,2.4-2.6,2.5l0,0
												c-1.7,0.1-3.4,0.5-5,1.1c-11.5,4.2-10.9,16.1-5.8,21.9c0.3,0.3,0.8,0.3,1.1,0c0,0,0,0,0.1-0.1c0.7-0.8,1.1-1.7,1.1-2.7
												c0.1-2.4-1.2-5.2,0.7-5.5c1.4-0.2,1.7,1.4,1.5,2.9c-0.4,2,2.8,1.9,2.3-0.2c-0.9-3.9-0.4-8.5,3.8-9
												c3.7-0.5,4.1,3.3,9.8,1.8c1-0.3,2,0.3,2.3,1.3c0,0.1,0.1,0.2,0.1,0.3c0,0.5,0.1,1.1,0.1,1.7c0,0.2,0.2,0.4,0.4,0.3
												c0.1,0,0.2-0.1,0.3-0.1C35.6-112,36-112.5,36.2-113L36.2-113z"/>
										</g>
									</g>
								</g>
							</g>
						</g>
					</g>
				</g>
				<g id="Groupe_1012" transform="translate(201.709 466.69)">
					<g id="Groupe_1011" transform="matrix(0.974, -0.227, 0.227, 0.974, 0, 3.083)">
						<g id="Groupe_1010" transform="translate(0 0)">
							<g>
								<g>
									<defs>
										
											<rect id="SVGID_00000068662243672467042570000000235962467759904162_" x="9" y="-128.7" transform="matrix(0.9292 -0.3697 0.3697 0.9292 46.5319 -3.0394)" width="12.7" height="11.5"/>
									</defs>
									<clipPath id="SVGID_00000088831189775478747880000015220655056329140147_">
										<use xlink:href="#SVGID_00000068662243672467042570000000235962467759904162_"  style="overflow:visible;"/>
									</clipPath>
									<g id="Groupe_1009" style="clip-path:url(#SVGID_00000088831189775478747880000015220655056329140147_);">
										<g id="Groupe_1008" transform="translate(1.733 -0.828)">
											<g id="Groupe_1005" transform="translate(9.572 3.255)">
												<path id="Tracé_3200" class="st0" d="M9.2-128.5c-0.2,0.2-0.3,0.5-0.4,0.8c-0.1,0.3-0.2,0.6-0.2,0.9
													c-0.2,0.5,0.1,1.1,0.6,1.3c0.5,0.2,1.1-0.1,1.3-0.6c0.2-0.2,0.3-0.5,0.4-0.8c0.1-0.3,0.2-0.6,0.2-0.9
													c0.2-0.5-0.1-1.1-0.6-1.3C10-129.3,9.4-129,9.2-128.5z"/>
											</g>
											<g id="Groupe_1006" transform="translate(0 0)">
												<path id="Tracé_3201" class="st0" d="M9.2-128.5c-0.2,0.2-0.3,0.5-0.4,0.8c-0.1,0.3-0.2,0.6-0.2,0.9
													c-0.2,0.5,0.1,1.1,0.6,1.3c0.5,0.2,1.1-0.1,1.3-0.6c0.2-0.2,0.3-0.5,0.4-0.8c0.1-0.3,0.2-0.6,0.2-0.9
													c0.2-0.5-0.1-1.1-0.6-1.3C10-129.3,9.4-129,9.2-128.5z"/>
											</g>
											<g id="Groupe_1007" transform="translate(1.109 8.988)">
												<path id="Tracé_3202" class="st0" d="M10.6-125.8c1.3,0.4,2.6,0,3.4-1.1c0.1-0.4-0.1-0.9-0.5-1c0,0,0,0,0,0
													c-0.6-0.3-1.2-0.5-1.9-0.7c-0.7-0.2-1.3-0.4-2-0.5c-0.4-0.1-0.9,0.1-1,0.5c0,0,0,0,0,0C8.6-127.4,9.4-126.3,10.6-125.8z
													"/>
											</g>
										</g>
									</g>
								</g>
							</g>
						</g>
					</g>
				</g>
			</g>
		</g>
	</g>
	<g id="TEXTES_GB">
	</g>
</g>
</svg>
