<?xml version="1.0" encoding="utf-8"?>
<!-- Generator: Adobe Illustrator 26.2.1, SVG Export Plug-In . SVG Version: 6.00 Build 0)  -->
<svg version="1.1" id="Calque_1" xmlns="http://www.w3.org/2000/svg" xmlns:xlink="http://www.w3.org/1999/xlink" x="0px" y="0px"
	 viewBox="0 0 331.1 680.4" style="enable-background:new 0 0 331.1 680.4;" xml:space="preserve">
<style type="text/css">
	.st0{fill:#272F60;}
	.st1{fill-rule:evenodd;clip-rule:evenodd;fill:#FFBCC6;}
	.st2{fill-rule:evenodd;clip-rule:evenodd;fill:#272F60;}
	.st3{fill:#FFBCC6;}
	.st4{fill:#FFFFFF;}
	.st5{fill-rule:evenodd;clip-rule:evenodd;fill:#FFFFFF;}
	.st6{fill-rule:evenodd;clip-rule:evenodd;fill:#FB657C;}
	.st7{fill:#FB657C;}
	.st8{fill:#FFF5F7;}
</style>
<g id="ILLUSTRATIONS">
	<g id="ICONO_00000145032721793256884470000017842323671867150735_">
		<g id="Groupe_1082_00000179647069635048442310000006950384948233443238_" transform="translate(37 94.335)">
			<g>
				<g id="Groupe_1081_00000072278312316310116400000008952892016752106884_" transform="translate(0 0)">
					<path id="Tracé_4012_00000128475440271400558160000002782852942319260810_" class="st0" d="M50.7,79.7
						c-0.2-0.1-0.3-0.3-0.3-0.5c1-3.4,1.6-6.9,1.6-10.4c0,0-0.2-5.5-0.7-11.6c-0.4-6.1-2.8-17.3-2.8-17.4c0-0.2,0.1-0.4,0.3-0.5
						c0.2,0,0.4,0.1,0.5,0.3c0,0.1,2.4,11.3,2.8,17.5c0.4,6.1,0.7,11.6,0.7,11.6c0,3.6-0.6,7.2-1.7,10.6
						C51.2,79.6,51,79.8,50.7,79.7L50.7,79.7"/>
					<path id="Tracé_4013_00000079487295572852719430000016170256235848265360_" class="st0" d="M54.3,54.8c-0.1,0-0.2-0.2-0.3-0.3
						c-1.4-5.4-3.1-10.6-5.2-15.8c-0.1-0.2,0-0.5,0.2-0.5c0,0,0,0,0,0c0.2-0.1,0.5,0,0.5,0.2c2.1,5.2,3.8,10.5,5.2,15.9
						c0.1,0.2-0.1,0.4-0.3,0.5C54.5,54.9,54.4,54.9,54.3,54.8L54.3,54.8z"/>
					<path id="Tracé_4014_00000087414596899763724110000008154367298264037526_" class="st1" d="M52.8,69.6l-0.4,0
						c-0.9,0-1.6-0.6-1.7-1.5l-0.4-6.8c-0.1-0.9,0.6-1.6,1.5-1.7c0,0,0,0,0,0l0.4,0c0.9,0,1.6,0.6,1.7,1.5l0.4,6.8
						C54.4,68.8,53.7,69.5,52.8,69.6C52.8,69.6,52.8,69.6,52.8,69.6"/>
					<path id="Tracé_4015_00000127020162153829186450000011571445227365197992_" class="st0" d="M51.2,70c-0.5-0.2-0.8-0.6-0.9-1.2
						l-0.5-8.2c0-0.7,0.5-1.4,1.3-1.4c0,0,0,0,0,0l1.8-0.1c0.4,0,0.7,0.1,1,0.3c0.3,0.2,0.4,0.6,0.4,0.9l0.5,8.2
						c0,0.7-0.5,1.4-1.2,1.4c0,0,0,0,0,0l0,0l-1.8,0.1C51.5,70.1,51.4,70,51.2,70z M53.1,60c-0.1,0-0.1,0-0.2,0l-1.8,0.1
						c-0.1,0-0.3,0.1-0.4,0.2c-0.1,0.1-0.1,0.2-0.1,0.4l0.5,8.2c0,0.3,0.3,0.5,0.5,0.5l1.8-0.1c0.1,0,0.3-0.1,0.4-0.2
						c0.1-0.1,0.1-0.2,0.1-0.4l-0.5-8.2c0-0.1-0.1-0.3-0.2-0.4C53.2,60,53.2,60,53.1,60L53.1,60z"/>
					<path id="Tracé_4016_00000066473562246941664870000012198029987147736449_" class="st2" d="M54.9,53.4
						c0.6,0.2,0.9,0.9,0.6,1.4c-0.2,0.6-0.9,0.9-1.4,0.6c-0.6-0.2-0.9-0.9-0.6-1.4C53.7,53.5,54.3,53.2,54.9,53.4"/>
					<path id="Tracé_4017_00000020356310951656443630000015067441406107004569_" class="st2" d="M51.2,78.5
						c0.6,0.2,0.9,0.9,0.6,1.4c-0.2,0.6-0.9,0.9-1.4,0.6c-0.6-0.2-0.9-0.9-0.6-1.4C50,78.6,50.6,78.3,51.2,78.5"/>
					<path id="Tracé_4018_00000137822221318645890930000017327470276294837896_" class="st0" d="M95.8-24.4c-0.2,0-0.3,0-0.4-0.2
						c-1.8-2.3-1.1-6-0.5-8c0.6-1.9,1.7-5.6,3.3-5.6c1.2,0,1.5,1.6,1.2,3.6c0,0.3,0.1,0.5,0.4,0.5c0.2,0,0.3,0,0.4-0.2
						c2.2-2.7,6.8-8.7,9.7-7.5c2.1,0.9,2.9,6.4,2.3,9.1c-0.6,2.8-7.9,8.4-11.7,9.1C100.4-23.4,95.8-24.4,95.8-24.4z"/>
					<path id="Tracé_4019_00000098931232083468603610000002157896458003567537_" class="st0" d="M-16.6,3.5c0.2,0,0.3,0.1,0.4,0.2
						c1.3,2.6-0.1,6.1-1,7.9c-0.9,1.8-2.4,5.2-4.4,4.8c-1.2-0.2-1.1-1.9-0.5-3.8c0.2-0.4-0.3-0.7-0.7-0.5c-3,1.4-2.7,5.8-5,6.5
						c-2.6,0.8-4.6-8.3-3.2-11c1.4-2.7,4.5-4.2,5.7-4.8c1.9-0.8,4-1.1,6.1-0.7L-16.6,3.5z"/>
					<path id="Tracé_4020_00000091017640575220660910000018403526557832908478_" class="st0" d="M0.8,64.1c0,0-6.7,2.9-9.9,6.5
						c-2.4,2.7-2.3,6.4-1.8,9c0.2,0.8,0.7,1.4,1.4,1.7c0.7,0.3,1.5,0.2,2.2-0.2c3.2-2.1,8.6-5.7,11.5-7.5c1.1-0.7,1.4-2.2,0.7-3.3
						c0,0,0,0,0,0C3.3,67.8,0.8,64.1,0.8,64.1z"/>
					<path id="Tracé_4021_00000116917827018402026340000000159790103376398244_" class="st0" d="M3.8,80.1c0,0,5.1,5.2,6.8,9.7
						c1.3,3.4-0.2,6.8-1.6,9c-0.4,0.7-1.2,1.1-2,1.1c-0.8,0-1.5-0.4-2-1c-2.2-3.2-5.9-8.4-7.9-11.3c-0.8-1.1-0.5-2.5,0.6-3.3
						c0,0,0,0,0,0C0.1,82.6,3.8,80.1,3.8,80.1z"/>
					<path id="Tracé_4022_00000119112086809209017180000000797914089985915317_" class="st0" d="M38.8,74.6
						c-6.8,9.7-19.4,15.8-24.3,17.2c-1.3,0.4-3.7-0.2-4.1-1L3.8,80.4c-0.5-0.8,0.7-3.5,2.3-4.7c3.3-2.4,11.7-5,17-14
						c3.1-5.2,3.8-11,4.2-15.7c0.1-0.9-0.4-1.8-1.3-2.2L20.5,41l-1.9-1c-0.7-0.3-1.4-0.4-2.1-0.4c-0.1,0-0.2,0-0.4,0
						c-5.3,0.6-14.1,2.5-16.4,8c-2.6,6.2,1,11.2,1.9,14.4c0.3,1.3,0.1,3-0.7,3.5l-10.6,5.9c-0.7,0.4-3.6-0.7-5.3-2.7
						c-3.2-3.9-7.7-19.9-2.2-31.9c4.3-9.4,14-12.3,21-13.9c17.2-4,25.7,1.6,25.7,1.6l18,7.7c0,3.8,1.9,2.5,1.8,7.1
						C49,48.8,45.9,64.5,38.8,74.6z"/>
					<path id="Tracé_4023_00000119813557221398467560000007028812047611731080_" class="st3" d="M22.7,40.7c0,0-0.9,0.1-2.2,0.4
						l-1.9-1c-0.7-0.3-1.4-0.4-2.1-0.4l0.3-0.1c0.6-0.1,1.1-0.2,1.7-0.3c1.3-0.2,2.7-0.3,4-0.3c0.4,0,0.7,0.4,0.7,0.8
						C23.3,40.2,23.1,40.6,22.7,40.7"/>
					<path id="Tracé_4024_00000023276195689398182630000007850055520335461514_" class="st3" d="M11.4,37.2
						c-0.5,0.1-0.9,0.1-1.4,0.2c-0.4,0.1-0.8-0.2-0.8-0.6c-0.1-0.4,0.2-0.8,0.6-0.8c0,0,0,0,0,0c0.5-0.1,1-0.2,1.5-0.2
						c0.4-0.1,0.8,0.2,0.8,0.6c0,0,0,0,0,0C12.1,36.8,11.8,37.1,11.4,37.2z"/>
					<path id="Tracé_4025_00000132768933204572048400000013559271573987817887_" class="st3" d="M7.2,38c-0.5,0.1-0.9,0.3-1.4,0.4
						c-0.4,0.1-0.8-0.1-0.9-0.4c-0.1-0.4,0-0.8,0.4-0.9c0,0,0,0,0,0c0.5-0.2,0.9-0.3,1.4-0.4c0.4-0.1,0.8,0.1,0.9,0.5
						C7.8,37.5,7.6,37.9,7.2,38z"/>
					<path id="Tracé_4026_00000072251022268990235000000011622248329446553732_" class="st3" d="M3.3,39.5
						c-0.4,0.2-0.8,0.4-1.2,0.7c-0.3,0.2-0.8,0.1-1-0.2c-0.2-0.3-0.1-0.8,0.2-1c0,0,0,0,0.1,0c0.4-0.3,0.9-0.5,1.3-0.7
						c0.4-0.2,0.8,0,1,0.3c0,0,0,0,0,0C3.8,38.9,3.6,39.3,3.3,39.5z"/>
					<path id="Tracé_4027_00000183240351213702467360000017672911465669169314_" class="st3" d="M-0.2,41.7l-0.5,0.5l-0.5,0.5
						c-0.3,0.3-0.7,0.3-1,0.1c-0.3-0.3-0.3-0.7-0.1-1c0,0,0,0,0,0l0.5-0.6l0.6-0.5c0.3-0.3,0.7-0.2,1,0.1c0,0,0,0,0,0
						C0.1,41,0.1,41.5-0.2,41.7z"/>
					<path id="Tracé_4028_00000178902576957414294850000009060165997155347641_" class="st3" d="M-2.8,44.9
						c-0.2,0.4-0.4,0.8-0.6,1.2c-0.1,0.2-0.2,0.3-0.4,0.4c-0.2,0.1-0.4,0.1-0.6,0c-0.2-0.1-0.3-0.2-0.4-0.4c-0.1-0.2-0.1-0.4,0-0.6
						c0.2-0.5,0.4-0.9,0.7-1.4c0.2-0.3,0.6-0.5,1-0.3c0,0,0,0,0,0C-2.7,44.2-2.6,44.6-2.8,44.9z"/>
					<path id="Tracé_4029_00000180336203594176701780000009074942997154801572_" class="st3" d="M-4.3,48.8
						c-0.1,0.4-0.2,0.9-0.3,1.4c-0.1,0.4-0.4,0.7-0.8,0.6c-0.4,0-0.7-0.4-0.6-0.8c0,0,0,0,0-0.1c0.1-0.5,0.2-1,0.3-1.5
						c0.1-0.4,0.5-0.6,0.9-0.5C-4.5,48-4.2,48.4-4.3,48.8"/>
					<path id="Tracé_4030_00000100349944243800991850000003103300527763898557_" class="st3" d="M-4.7,52.9c0,0.5,0.1,0.9,0.1,1.4
						c0,0.4-0.3,0.8-0.7,0.8s-0.8-0.3-0.8-0.7l0,0c0-0.5-0.1-1-0.1-1.5c0-0.4,0.3-0.7,0.7-0.7C-5.1,52.2-4.7,52.5-4.7,52.9
						L-4.7,52.9L-4.7,52.9z"/>
					<path id="Tracé_4031_00000054267143524132785740000000294580851024960685_" class="st3" d="M-4.2,57.1
						c0.1,0.5,0.2,0.9,0.4,1.4c0.1,0.4-0.1,0.8-0.5,0.9c-0.4,0.1-0.8-0.1-0.9-0.5c0,0,0,0,0,0c-0.1-0.5-0.3-1-0.4-1.4
						C-5.7,57-5.4,56.6-5,56.5S-4.3,56.6-4.2,57.1C-4.2,57-4.2,57.1-4.2,57.1L-4.2,57.1z"/>
					<path id="Tracé_4032_00000067207749641995975540000011700289590066066101_" class="st3" d="M-2.8,61c0.2,0.4,0.4,0.9,0.6,1.3
						c0.2,0.4,0,0.8-0.3,1c-0.3,0.2-0.8,0.1-1-0.3c0,0,0,0,0,0c-0.2-0.4-0.4-0.9-0.7-1.3c-0.2-0.4,0-0.8,0.3-0.9c0,0,0,0,0,0
						C-3.3,60.5-2.9,60.7-2.8,61z"/>
					<path id="Tracé_4033_00000057120849608863819710000000497076694372339645_" class="st0" d="M-21-3.4
						c6.8-8.3,16.2-13.4,26.9-15.9c4.5-1,13.4-2.6,18.4-1.7c0,0,26.8,2.7,33.9,6.5c6.3,3.4,16.3-0.7,21.8-4.7
						c3.2-2.3,6.3-4.8,9.2-7.6c4.2-4.2,6-3.5,7.8-2c1.1,0.9,2.5,2,3.6,3.2c2.4,2.5,2.6,4,1.6,6.8C101-15.7,95.9-7.7,84.9-0.6
						c-6.7,4-13.9,7-21.5,8.7c-1,0.2-1.8,1-2.1,2c-1.2,4.8-3.5,12.9-5.9,20.2C53.1,37,48.8,40.7,47,40.4
						c-1.5-0.5-23.1-4.2-38.8-15.7C7.3,24,6.1,21.1,8.4,14.2c1.5-4.4,4.2-10.3,5.9-13.9c0.3-0.6,0-1.2-0.5-1.5
						c-0.1,0-0.2-0.1-0.2-0.1C10.3-1.9,7.2-1.4,2.8,0C-5.8,2.8-7.5,6.1-11.9,8.1c-2.2,0.7-4.7,0.3-6.6-1.1c-1.2-0.9-2.2-2-3.1-3.1
						C-23.9,1.2-22.3-1.7-21-3.4z"/>
					<path id="Tracé_4034_00000009558572847947201660000003622523404509817256_" class="st3" d="M13.3-5.3c0,0,0.1,0.5,0.2,1.2
						c0.1,0.4,0.1,0.8,0.2,1.2c0,0.2,0.1,0.5,0.2,0.7c0.1,0.4,0.2,0.8,0.3,1.1l0.1,0.5c0,0.2,0.2,0.3,0.5,0.2c0.3,0,0.4-0.2,0.4-0.3
						c0,0,0-0.2,0-0.5S15.1-2,15.1-2.5C15-2.7,15-3,14.9-3.2c-0.1-0.4-0.2-0.8-0.3-1.2c-0.1-0.4-0.3-0.8-0.4-1.2
						c0-0.2-0.3-0.2-0.5-0.2C13.4-5.6,13.3-5.4,13.3-5.3z"/>
					<path id="Tracé_4035_00000011029010114854828390000015884035400834701191_" class="st4" d="M56.7-76.3
						c17.6,6.7,26.4,26.4,19.6,43.9C69.7-14.8,50-6,32.5-12.7C15-19.4,6.2-39,12.8-56.5C19.4-74.1,39.1-83,56.7-76.3
						C56.7-76.3,56.7-76.3,56.7-76.3"/>
					<path id="Tracé_4036_00000050637479144976610630000016861834070098679175_" class="st3" d="M28.3-14.7c-2.6-1.4-4.9-3.1-7-5.1
						c-10.5-15.6-6.4-36.8,9.1-47.3c13.3-9,31-7.5,42.6,3.5c10.6,15.5,6.7,36.7-8.8,47.3C53.5-9,39.6-8.3,28.3-14.7"/>
					<path id="Tracé_4037_00000023962517204354938180000012754049946536555192_" class="st0" d="M32.3-11.6
						C14-18.5,4.8-38.9,11.7-57.2S39-84.8,57.3-77.9S84.9-50.5,78-32.2C71.6-15.3,53.5-5.9,35.9-10.4C34.7-10.7,33.5-11.1,32.3-11.6
						z M56.4-75.2c-1.1-0.4-2.3-0.8-3.4-1.1c-17.7-4.6-35.7,6.1-40.2,23.7s6.1,35.7,23.7,40.2s35.7-6.1,40.2-23.7
						C80.9-52.4,72.2-69.3,56.4-75.2z"/>
					<path id="Tracé_4038_00000023960655711579019880000004600813738822763148_" class="st0" d="M60.5-14.5l-1.9-0.8
						c-0.6-0.2-1.3-0.5-2-0.7c-0.4-0.1-0.8-0.2-1.2-0.3c-0.8-0.2-1.5-0.3-2.1-0.4c-0.5-0.1-0.9-0.1-0.9-0.1
						c-0.2-0.1-0.5,0.1-0.5,0.4c0,0,0,0,0,0c0,0.3,0.2,0.5,0.4,0.5c0,0,0.3,0.1,0.8,0.2c0.5,0.1,1.2,0.3,1.9,0.5
						c0.4,0.1,0.8,0.2,1.2,0.4l2,0.6c1.1,0.4,2,0.6,2,0.6c0.2,0.1,0.5,0,0.6-0.2C60.9-14.1,60.8-14.4,60.5-14.5
						C60.5-14.5,60.5-14.5,60.5-14.5"/>
					<path id="Tracé_4039_00000046305428859845548830000000750658561301214384_" class="st0" d="M20.1-20.9c0,0,0.7,0,1.6,0.1
						c0.5,0,1,0.1,1.6,0.2c0.3,0,0.6,0.1,1,0.1c0.6,0.1,1.2,0.1,1.6,0.2s0.6,0.1,0.6,0.1c0.2,0,0.4-0.1,0.5-0.3
						c0.1-0.2,0-0.4-0.2-0.5c0,0,0,0,0,0c0,0-0.3-0.1-0.7-0.2c-0.5-0.2-1.1-0.3-1.6-0.4c-0.3-0.1-0.7-0.1-1-0.1
						c-0.6-0.1-1.1-0.1-1.7-0.1c-0.6,0-1.1,0-1.7,0.1c-0.2,0-0.4,0.2-0.4,0.4c0,0,0,0,0,0C19.7-21.1,19.9-20.9,20.1-20.9"/>
					<path id="Tracé_4040_00000086669581993717030900000017946509224326012313_" class="st0" d="M51.3-15.5c0,0-0.1,0.8-0.3,2
						c-0.1,0.6-0.2,1.3-0.3,2c0,0.4-0.1,0.8-0.1,1.2c-0.1,1.6-0.2,2.8-0.2,2.8C50.3-7.2,50.5-7,50.7-7c0.2,0.1,0.5-0.1,0.5-0.3
						c0,0,0,0,0-0.1c0,0,0.2-1.3,0.5-2.8c0.1-0.4,0.1-0.8,0.2-1.2c0.1-0.7,0.1-1.4,0.2-2c0.1-1.2,0.1-2,0.1-2c0-0.2-0.1-0.5-0.4-0.5
						C51.6-16,51.3-15.8,51.3-15.5C51.3-15.6,51.3-15.5,51.3-15.5z"/>
					<path id="Tracé_4041_00000158009303319375684660000003962112854974437820_" class="st0" d="M27.2-19.8
						c0.5,0.3,1.1,0.5,1.6,0.8c1.4,0.5,2.8,1,4.2,1.4c1.8,0.5,3.9,1,5.9,1.4c1.2,0.2,2.4,0.4,3.6,0.6c2,0.3,4,0.4,6,0.5
						c0.6,0,1.3,0,1.9-0.1c0.2,0,0.5-0.1,0.7-0.1c0.4-0.1,0.8-0.3,1-0.6c0-0.1,0.1-0.1,0.1-0.2c0-0.1,0-0.1,0-0.2
						c0-0.1-0.1-0.2-0.1-0.2c-0.1,0-0.1,0-0.2,0c-0.1,0-0.1,0.1-0.2,0.1c-0.2,0-0.5,0.1-0.8,0.2c-0.2,0-0.4,0.1-0.6,0.1
						c-0.6,0-1.2,0.1-1.8,0c-2-0.1-3.9-0.3-5.8-0.6c-1.2-0.2-2.3-0.4-3.6-0.6c-2.1-0.4-4.1-0.8-5.9-1.3c-1.7-0.4-3.1-0.8-4.1-1.2
						c-0.5-0.2-0.9-0.3-1.2-0.5c-0.3-0.1-0.4-0.2-0.4-0.2c-0.3-0.2-0.6-0.3-0.8-0.4c0,0-0.1,0-0.1-0.1s-0.1,0-0.1,0
						c-0.1,0-0.1,0-0.2-0.1c-0.1,0-0.1,0.1-0.2,0.2c0,0.1,0,0.1,0,0.2c0,0.1,0,0.2,0.1,0.2C26.5-20.2,26.8-19.9,27.2-19.8z"/>
					<path id="Tracé_4042_00000157303817302291489520000000846653378073271953_" class="st5" d="M34.7-3.5c2.2,0.9,3.4,3.4,2.5,5.6
						s-3.4,3.4-5.6,2.5c-2.2-0.9-3.4-3.4-2.5-5.6C29.9-3.2,32.4-4.3,34.7-3.5"/>
					<path id="Tracé_4043_00000115496041869654307190000008636896740372794266_" class="st6" d="M34.1-1.8c1.3,0.5,2,2,1.5,3.3
						c-0.5,1.3-2,2-3.3,1.5c-1.3-0.5-2-1.9-1.5-3.2C31.3-1.6,32.8-2.2,34.1-1.8"/>
					<path id="Tracé_4044_00000050660878232741482570000006293541077802195604_" class="st3" d="M62.8,6.8c0,0,0.1-0.9,0.2-2.3
						c0.1-0.7,0.1-1.6,0.1-2.6c0-0.5,0-1,0-1.5c0-0.3,0-0.5,0-0.8l0-0.2c0,0,0-0.1,0-0.1l0-0.1c-0.2-1.1-1.3-1.8-2.4-1.6l-2,0.3
						l-4.1,0.7c-1.5,0.3-3.2,0.6-4.8,0.9l-11,2C37.8,1.6,37,1.9,37,2.1c0,0.3,0.9,0.3,1.9,0.1l11-1.8c1.6-0.2,3.1-0.5,4.8-0.8
						l4.1-0.7l1.9-0.4l0.1,0l0,0h0c0.1,0,0.1,0,0.2,0c0.1,0,0.2,0,0.3,0.1c0.2,0.1,0.3,0.2,0.4,0.4c0,0.1,0.1,0.2,0.1,0.2
						c0,0,0,0.1,0,0.1l0,0.2c0,0.3,0,0.5,0.1,0.8c0,0.5,0,1,0.1,1.5c0,1,0,1.8,0,2.5S62,5.7,61.9,6.1s-0.1,0.6-0.1,0.6
						c-0.1,1.1-0.1,1.8,0.1,1.9c0.1,0,0.3-0.1,0.5-0.5C62.6,7.7,62.7,7.3,62.8,6.8z"/>
					<path id="Tracé_4045_00000093861735560798277990000013821653986709202361_" class="st3" d="M15.2-0.5l0.2,0
						c0.2,0,0.4-0.1,0.7-0.1c0.6-0.1,1.4-0.2,2.3-0.2c1-0.1,2.1-0.1,3.3-0.1c0.6,0,1.3,0,2,0c1.1,0,2.1,0.1,3.2,0.2
						c0.4,0.1,0.7,0.1,0.9,0.2l0.3,0.1c0.2,0.1,0.4,0.1,0.5,0.1c0.1,0,0.3-0.1,0.3-0.2c0.1-0.2-0.2-0.6-0.6-0.7c0,0-0.1,0-0.4-0.1
						c-0.3-0.1-0.7-0.2-1-0.3C26-2,24.9-2.1,23.8-2.2c-0.3,0-0.7,0-1,0c-0.3,0-0.7,0-1,0c-1.2,0-2.3,0.1-3.4,0.2
						c-1,0.1-1.8,0.3-2.4,0.4c-0.3,0.1-0.5,0.1-0.7,0.2L15-1.4c-0.5,0.1-0.7,0.4-0.7,0.6C14.4-0.5,14.9-0.4,15.2-0.5z"/>
					<path id="Tracé_4046_00000016776098254052509720000015104531321662561958_" class="st3" d="M31.5,5.1
						c-2.5-0.9-3.7-3.7-2.8-6.2c0.9-2.5,3.7-3.7,6.2-2.8c1.9,0.7,3.2,2.6,3.1,4.7c-0.1,2.6-2.4,4.7-5,4.5c0,0,0,0,0,0
						C32.4,5.3,32,5.2,31.5,5.1z M34.6-3.1c-0.4-0.1-0.8-0.2-1.2-0.3c-2.2-0.1-4.1,1.6-4.2,3.8c-0.1,2.2,1.6,4.1,3.8,4.2
						C35.2,4.7,37,3,37.1,0.8C37.2-0.9,36.2-2.5,34.6-3.1"/>
					<path id="Tracé_4047_00000065752715728678011750000013514749512495723659_" class="st3" d="M38-1.6l4-1.6l4-1.6
						c0.8-0.3,1.6-0.7,2.4-1c0.4-0.2,0.8-0.3,1.1-0.5l0.1-0.1l0.2-0.1c0.1-0.1,0.2-0.1,0.3-0.2c0.2-0.1,0.4-0.3,0.5-0.5
						c0.3-0.3,0.5-0.7,0.6-1.1c0-0.1,0-0.2,0.1-0.3c0-0.1,0-0.2,0-0.2c0-0.1,0-0.3,0.1-0.4c0.1-1.1,0.2-1.8,0.2-1.8
						c0.1-0.6,0-1-0.3-1.1c-0.2-0.1-0.5,0.4-0.6,0.9c0,0-0.1,0.7-0.3,1.8c0,0.1-0.1,0.3-0.1,0.4c0,0.1,0,0.1,0,0.2
						c0,0.1,0,0.1,0,0.2c-0.1,0.3-0.2,0.5-0.4,0.7c-0.1,0.1-0.2,0.2-0.3,0.3c-0.1,0-0.1,0.1-0.2,0.1c-0.1,0-0.1,0.1-0.2,0.1
						l-1.1,0.4c-0.8,0.3-1.6,0.6-2.4,1c-1.4,0.6-2.8,1.2-4,1.7c-2.3,1-4,1.8-4,1.8c-0.5,0.2-0.8,0.6-0.8,0.8C37-1.4,37.5-1.4,38-1.6
						z"/>
					<path id="Tracé_4048_00000038409688680786828160000007607711023885529236_" class="st3" d="M2.5-16.2c0,0-0.1,0.4-0.3,1
						C2.1-14.8,2-14.4,1.8-14c-0.1,0.2-0.2,0.4-0.3,0.5c0,0.1-0.1,0.1-0.2,0.2c0,0,0,0,0,0l0,0c0,0-0.1-0.1-0.3-0.3
						c-0.1-0.2-0.2-0.5-0.3-0.8c-0.1-0.3-0.2-0.6-0.3-1c0-0.1-0.1-0.2-0.1-0.3c-0.1-0.1-0.2-0.2-0.3-0.4c-0.2-0.2-0.5-0.4-0.9-0.3
						c-0.1,0-0.1,0-0.2,0c-0.2,0.1-0.4,0.2-0.5,0.3c-0.1,0.1-0.2,0.2-0.3,0.4c-0.1,0.2-0.2,0.4-0.3,0.6c-0.2,0.4-0.3,0.8-0.4,1.2
						C-2.6-13.4-2.8-13-3-12.6c0,0.1-0.1,0.1-0.1,0.1c0,0,0,0,0,0c0,0,0,0-0.1,0c0,0-0.1,0-0.1,0c-0.1,0-0.2-0.1-0.3-0.1
						c-0.2-0.1-0.5-0.2-0.7-0.3c-0.4-0.2-0.7-0.3-1-0.5C-5.8-13.6-6-13.7-6-13.7C-6.5-14-6.9-14-7-13.8c-0.2,0.2,0.1,0.6,0.5,0.9
						c0,0,0.2,0.2,0.8,0.5c0.3,0.2,0.6,0.3,1,0.6c0.2,0.1,0.5,0.2,0.7,0.3c0.2,0.1,0.3,0.1,0.5,0.1c0.1,0,0.2,0,0.3,0
						c0.1,0,0.3,0,0.4-0.1c0,0,0,0,0.2-0.1c0.2-0.1,0.3-0.3,0.5-0.4c0.3-0.4,0.5-0.9,0.6-1.4c0.1-0.4,0.2-0.7,0.4-1.1
						c0.1-0.2,0.1-0.3,0.2-0.5c0,0,0-0.1,0.1-0.1c0,0,0-0.1,0,0l0,0l0,0c0,0.1,0.1,0.1,0.1,0.2c0.1,0.2,0.2,0.6,0.3,0.9
						c0.1,0.3,0.2,0.7,0.4,1c0.1,0.2,0.2,0.3,0.4,0.5c0.1,0.1,0.2,0.1,0.3,0.2c0.1,0,0.1,0,0.2,0.1c0.1,0,0.1,0,0.2,0h0
						c0.3,0,0.5,0,0.8-0.2c0.2-0.1,0.3-0.2,0.4-0.4c0.2-0.2,0.3-0.5,0.4-0.8C2.9-14,3-14.4,3.2-14.8C3.3-15.5,3.4-16,3.4-16
						c0.1-0.5,0-1-0.2-1C2.9-17,2.6-16.6,2.5-16.2z"/>
					<path id="Tracé_4049_00000057854111750432066370000010752722947077765785_" class="st3" d="M-11.5,40.6l-0.3-0.2
						c-0.2-0.1-0.5-0.3-0.9-0.5c-0.4-0.3-0.8-0.6-1.2-0.9c0,0-0.1-0.1-0.1-0.1l-0.1-0.1l0,0c0,0,0,0,0-0.1c0,0,0,0,0.1,0l0.1,0
						c0.1,0,0.2,0,0.3,0c0.2,0,0.4,0.1,0.6,0.1c0.4,0.1,0.8,0.2,1.2,0.3c0.8,0.2,1.7,0.4,2.5,0.6c0.5,0.1,1,0.2,1.5,0.3
						c0.3,0,0.6,0.1,0.9,0c0.2,0,0.4-0.1,0.6-0.1c0.2-0.1,0.3-0.2,0.4-0.4c0.1-0.2,0.1-0.4,0-0.5c0-0.1-0.1-0.2-0.1-0.3
						c0-0.1-0.1-0.1-0.1-0.2c-0.1-0.1-0.2-0.2-0.3-0.3c-0.2-0.2-0.4-0.4-0.6-0.5c-0.4-0.3-0.7-0.6-1.1-0.8c-0.7-0.5-1.4-0.8-2-1.1
						s-1-0.5-1.4-0.7s-0.5-0.2-0.5-0.2c-0.6-0.3-1.1-0.3-1.3-0.1c-0.1,0.2,0.3,0.6,0.8,0.9c0,0,0.7,0.4,1.8,1
						c0.5,0.3,1.2,0.7,1.8,1.2c0.3,0.2,0.7,0.5,1,0.8c0.2,0.1,0.3,0.3,0.4,0.4c0.1,0.1,0.1,0.1,0.2,0.2c0,0,0,0.1,0.1,0.1l0,0.1
						c0,0,0,0,0,0c0,0,0,0,0.1,0c0,0,0.1,0,0.1,0c0,0,0.1,0,0.1,0c0.1,0,0,0,0-0.1c0-0.1-0.1-0.1-0.1-0.2c0,0,0,0,0-0.1l0,0h0
						c0,0-0.1,0-0.1,0c-0.2,0-0.4,0-0.6,0c-0.5-0.1-0.9-0.2-1.5-0.3l-2.5-0.6c-0.4-0.1-0.8-0.2-1.2-0.2c-0.2,0-0.4-0.1-0.6-0.1
						c-0.1,0-0.2,0-0.3,0l-0.2,0H-14c0,0-0.1,0-0.1,0c-0.3,0-0.6,0-0.9,0.2c-0.1,0.1-0.2,0.2-0.3,0.3c0,0.1-0.1,0.3-0.1,0.4
						c0,0.3,0.1,0.5,0.3,0.8c0,0.1,0.1,0.1,0.1,0.2l0.1,0.1l0,0c0.1,0.1,0.1,0.1,0.2,0.2c0.4,0.4,0.9,0.7,1.4,1
						c0.4,0.2,0.7,0.4,0.9,0.5l0.3,0.2c0.6,0.3,1.1,0.4,1.3,0.2C-10.5,41.3-10.9,40.9-11.5,40.6z"/>
					<path id="Tracé_4050_00000060022977419149644700000000845286191916379283_" class="st3" d="M36.9,68.3l-0.3-0.2
						c-0.2-0.1-0.5-0.3-0.9-0.6c-0.5-0.3-0.9-0.6-1.4-0.8c-0.1-0.1-0.3-0.1-0.5-0.2c0,0-0.1,0-0.2-0.1l-0.2,0c-0.1,0-0.1,0-0.2,0
						c-0.1,0-0.1,0-0.2,0c-0.3,0-0.5,0.1-0.7,0.4c-0.2,0.2-0.2,0.5-0.1,0.8c0.1,0.2,0.1,0.3,0.2,0.5l0.1,0.1l0,0.1l0.1,0.1
						c0.1,0.2,0.2,0.3,0.3,0.5c0.2,0.3,0.5,0.7,0.7,1c0.5,0.7,1,1.3,1.4,2c0.2,0.4,0.5,0.7,0.6,1.2c0,0.1,0.1,0.2,0.1,0.3v0l0,0
						c0,0,0,0,0,0c0,0-0.1,0-0.1,0c-0.7,0.1-1.5,0-2.1-0.4c-0.6-0.3-1.1-0.8-1.6-1.2c-0.3-0.3-0.6-0.7-0.9-1
						c-0.2-0.3-0.3-0.4-0.3-0.4c-0.4-0.5-0.8-0.8-1-0.7c-0.2,0.1-0.1,0.7,0.3,1.2c0,0,0.1,0.2,0.3,0.5c0.3,0.4,0.6,0.8,1,1.2
						c0.5,0.6,1.1,1.1,1.7,1.5c0.4,0.3,0.8,0.4,1.3,0.6c0.5,0.1,1.1,0.2,1.6,0.1c0.2,0,0.4-0.1,0.5-0.2c0.2-0.1,0.4-0.3,0.5-0.5
						c0.1-0.2,0.1-0.4,0.1-0.6c0-0.2,0-0.3-0.1-0.5c-0.2-0.5-0.4-1-0.7-1.5c-0.5-0.7-1-1.4-1.5-2.1c-0.2-0.3-0.5-0.6-0.7-0.9
						c-0.1-0.2-0.2-0.3-0.3-0.5c0-0.1-0.1-0.2-0.1-0.2l0,0c0,0,0,0,0,0c0,0,0,0,0,0c0,0,0,0,0.1,0c0.1,0,0.2,0.1,0.4,0.1
						c0.5,0.2,0.9,0.4,1.3,0.7c0.4,0.2,0.7,0.4,0.9,0.5c0.2,0.1,0.3,0.2,0.3,0.2c0.5,0.4,1,0.5,1.2,0.3
						C37.8,69.2,37.4,68.7,36.9,68.3z"/>
					<path id="Tracé_4051_00000163053059985352696520000017760661035797846916_" class="st3" d="M8.9,24.1l0.2,0.1l0.5,0.3
						c0.4,0.3,1,0.7,1.8,1.2c1.6,0.9,3.7,2.3,6.4,3.6c2.7,1.4,6,2.9,9.3,4.1c0.9,0.4,1.9,0.7,2.9,1.1s1.9,0.7,2.9,1
						c3.7,1.2,7.1,2.2,9.6,2.8c1.2,0.3,2.3,0.6,3,0.7c0.7,0.2,1.1,0.3,1.1,0.3c1.3,0.3,2.3,0.3,2.4,0.1c0.1-0.2-1-0.7-2.2-1
						l-0.3-0.1c-0.2,0-0.5-0.1-0.8-0.2c-0.7-0.2-1.7-0.4-2.9-0.8c-2.5-0.7-5.8-1.7-9.4-3c-0.9-0.3-1.9-0.7-2.8-1
						c-0.9-0.3-1.9-0.7-2.9-1.1c-3.3-1.3-6.4-2.7-9.2-4l-1.9-0.9c-0.6-0.3-1.2-0.6-1.7-0.9c-0.3-0.1-0.5-0.3-0.8-0.4l-0.7-0.4
						c-0.5-0.3-0.9-0.5-1.3-0.7c-0.8-0.5-1.4-0.9-1.8-1.1c-0.2-0.1-0.4-0.2-0.5-0.3s-0.2-0.1-0.2-0.1c-1.1-0.8-2-1.2-2.2-1
						C7.1,22.6,7.9,23.4,8.9,24.1z"/>
					<path id="Tracé_4052_00000061444228163893560470000007534654699698847927_" class="st0" d="M14.6,29.9
						C14.5,29.9,14.5,29.9,14.6,29.9l-8-3.9c-0.3-0.2-0.5-0.6-0.3-0.9l1.5-3c0.2-0.3,0.5-0.5,0.9-0.3c0,0,0,0,0.1,0l7.9,3.9
						c0.3,0.2,0.5,0.6,0.3,0.9l-1.5,3C15.3,29.9,14.9,30,14.6,29.9z"/>
					<path id="Tracé_4053_00000165922275142478755400000017657446484597817789_" class="st3" d="M8.4,22.1L8.4,22.1l8,3.9
						c0.1,0,0.1,0.1,0.1,0.2c0,0.1,0,0.1,0,0.2l-1.5,3c-0.1,0.1-0.2,0.2-0.3,0.1l0,0l-7.9-3.9c-0.1-0.1-0.2-0.2-0.1-0.4c0,0,0,0,0,0
						l1.5-3C8.1,22.1,8.3,22.1,8.4,22.1 M8.7,21.3c-0.5-0.2-1.1,0-1.4,0.5l-1.5,3c-0.3,0.5,0,1.2,0.5,1.5c0,0,0,0,0,0l7.9,3.9
						c0,0,0.1,0,0.1,0c0.5,0.2,1.1,0,1.4-0.5l1.5-3c0.3-0.5,0-1.2-0.5-1.5c0,0,0,0,0,0L8.7,21.3C8.8,21.4,8.8,21.4,8.7,21.3
						L8.7,21.3z"/>
					<path id="Tracé_4054_00000064324951711799742180000009849480652173420987_" class="st3" d="M14.8,27.3l-6.3-3.1
						c-1-0.5-1.4-1.7-0.9-2.7l0.4-0.8c0.5-1,1.7-1.4,2.7-0.9l6.3,3.1c1,0.5,1.4,1.7,0.9,2.7l-0.4,0.8C17,27.4,15.8,27.8,14.8,27.3z"
						/>
					<path id="Tracé_4055_00000017514023724497428070000007091725386238875037_" class="st0" d="M18.8,31.6
						c-0.2-0.1-0.3-0.2-0.4-0.4c-0.1-0.2-0.1-0.4,0-0.5l1.2-3.1c0.1-0.4,0.5-0.5,0.9-0.4l8.2,3.2c0.4,0.1,0.5,0.5,0.4,0.9l-1.2,3.1
						c-0.1,0.4-0.5,0.5-0.9,0.4L18.8,31.6z"/>
					<path id="Tracé_4056_00000163782070430925987950000014185785505497363086_" class="st3" d="M20.7,26.9l-0.3,0.8l8.2,3.2
						c0.1,0,0.1,0.1,0.2,0.1c0,0.1,0,0.1,0,0.2l-1.2,3.1c-0.1,0.1-0.2,0.2-0.4,0.2L19,31.3c-0.1,0-0.1-0.1-0.2-0.1
						c0-0.1,0-0.1,0-0.2l1.2-3.1c0.1-0.1,0.2-0.2,0.4-0.2L20.7,26.9 M20.7,26.9c-0.6-0.2-1.2,0.1-1.4,0.6L18,30.6
						c-0.2,0.6,0.1,1.2,0.6,1.4c0,0,0,0,0,0l8.2,3.2l0,0c0.6,0.2,1.2-0.1,1.4-0.6l1.2-3.1c0.2-0.6-0.1-1.2-0.6-1.4c0,0,0,0,0,0
						L20.7,26.9L20.7,26.9"/>
					<path id="Tracé_4057_00000067225391187748760700000008621150648235092925_" class="st3" d="M27.1,32.3l-6.6-2.6
						c-1-0.4-1.5-1.5-1.1-2.6c0,0,0,0,0,0l0.4-1c0.4-1,1.6-1.5,2.6-1.1c0,0,0,0,0,0l6.6,2.6c1,0.4,1.5,1.5,1.1,2.6c0,0,0,0,0,0
						l-0.4,1C29.2,32.2,28.1,32.7,27.1,32.3z"/>
					<path id="Tracé_4058_00000157998925277478657040000011472962140809887935_" class="st3" d="M8.8,80.2
						c-0.4-0.1-0.5-0.5-0.4-0.9c0.1-0.2,0.2-0.3,0.3-0.4c0.5-0.3,1-0.5,1.5-0.8c0.3-0.2,0.8,0,0.9,0.3c0.2,0.3,0,0.7-0.3,0.9
						c-0.5,0.3-1,0.5-1.5,0.8C9.2,80.2,9,80.2,8.8,80.2z M12.7,78c-0.4-0.1-0.5-0.5-0.4-0.9c0.1-0.1,0.2-0.3,0.3-0.4
						c0.5-0.3,1-0.6,1.4-0.9c0.3-0.2,0.8-0.1,0.9,0.2c0.2,0.3,0.1,0.7-0.2,0.9c-0.5,0.3-1,0.6-1.5,0.9C13.1,78.1,12.9,78.1,12.7,78
						L12.7,78z M16.5,75.6c-0.4-0.1-0.5-0.5-0.4-0.9c0-0.1,0.1-0.2,0.2-0.3c0.5-0.3,0.9-0.6,1.3-1c0.3-0.2,0.7-0.2,1,0.1
						c0.2,0.3,0.2,0.7-0.1,1c-0.4,0.3-0.9,0.7-1.4,1C17,75.7,16.7,75.7,16.5,75.6 M20,72.9c-0.1,0-0.2-0.1-0.3-0.2
						c-0.3-0.3-0.2-0.7,0.1-1c0,0,0,0,0,0c0.4-0.4,0.8-0.7,1.2-1.1c0.3-0.3,0.7-0.2,1,0.1c0.2,0.3,0.2,0.7,0,0.9
						c-0.4,0.4-0.8,0.8-1.3,1.2C20.6,72.9,20.3,73,20,72.9L20,72.9z M23.2,69.8c-0.1,0-0.1-0.1-0.2-0.1c-0.3-0.2-0.3-0.7-0.1-1
						c0,0,0,0,0,0c0.4-0.4,0.7-0.8,1-1.3c0.2-0.3,0.7-0.4,1-0.1c0.3,0.2,0.4,0.7,0.1,1c0,0,0,0,0,0c-0.3,0.4-0.7,0.9-1.1,1.3
						C23.8,69.8,23.5,69.9,23.2,69.8L23.2,69.8z M25.9,66.2c0,0-0.1,0-0.1-0.1c-0.3-0.2-0.4-0.6-0.2-0.9c0,0,0,0,0,0
						c0.3-0.5,0.6-0.9,0.8-1.4c0.2-0.3,0.6-0.4,0.9-0.3c0.3,0.2,0.4,0.6,0.3,0.9c-0.3,0.5-0.6,1-0.9,1.5
						C26.5,66.2,26.2,66.3,25.9,66.2L25.9,66.2z M27.9,62.2L27.9,62.2c-0.4-0.2-0.5-0.6-0.4-0.9c0,0,0,0,0,0
						c0.1-0.3,0.2-0.5,0.3-0.8c0.1-0.2,0.2-0.5,0.3-0.7c0.1-0.4,0.5-0.6,0.9-0.4c0.4,0.1,0.6,0.5,0.4,0.9l0,0
						c-0.1,0.3-0.2,0.5-0.3,0.8c-0.1,0.3-0.2,0.6-0.3,0.8C28.7,62.2,28.3,62.3,27.9,62.2L27.9,62.2z M29.3,57.9
						c-0.3-0.1-0.5-0.5-0.4-0.8c0.1-0.5,0.2-1.1,0.3-1.6c0.1-0.4,0.4-0.6,0.8-0.5c0.4,0.1,0.6,0.4,0.5,0.8l0,0
						c-0.1,0.6-0.2,1.1-0.4,1.7C30.1,57.8,29.7,58.1,29.3,57.9C29.3,58,29.3,58,29.3,57.9L29.3,57.9z M30.1,53.5
						c-0.3-0.1-0.5-0.4-0.4-0.7c0.1-0.5,0.1-1.1,0.2-1.6c0-0.4,0.4-0.7,0.7-0.6c0.4,0,0.7,0.4,0.6,0.7l0,0c0,0.6-0.1,1.1-0.2,1.7
						c0,0.4-0.4,0.6-0.8,0.6C30.2,53.6,30.1,53.6,30.1,53.5L30.1,53.5z M30.3,49.1c-0.3-0.1-0.5-0.4-0.4-0.7c0-0.5,0-1.1,0-1.7
						c0-0.4,0.3-0.7,0.7-0.7s0.7,0.3,0.7,0.7l0,0c0,0.6,0,1.1,0,1.7c0,0.4-0.3,0.7-0.7,0.7C30.5,49.1,30.4,49.1,30.3,49.1L30.3,49.1
						z"/>
					<path id="Tracé_4059_00000001646116653544189340000011722861880503460789_" class="st4" d="M68.7-56.4
						c2.7,5.8,3.6,12.2,2.6,18.5c-0.1,1.1-1.1,1.8-2.2,1.7c-1-0.1-1.7-1-1.6-2.1c0.6-5.5-0.5-11-3.1-15.9c-0.6-1.2-0.2-2.7,1-3.3
						c1.1-0.6,2.5-0.3,3.2,0.8c0,0,0,0.1,0,0.1C68.7-56.5,68.7-56.5,68.7-56.4"/>
					<path id="Tracé_4060_00000100376788566170144440000008298059427231604902_" class="st4" d="M60.1-63.4
						c0.1-0.3,0.3-0.5,0.5-0.7c1-0.9,2.5-0.9,3.4,0c0,0,0,0,0,0c1.1,0.9,1.2,2.5,0.3,3.6s-2.5,1.2-3.6,0.3c-0.1-0.1-0.2-0.2-0.4-0.4
						C59.7-61.3,59.6-62.5,60.1-63.4"/>
					<path id="Tracé_4061_00000141442027013533614590000012292703786813248684_" class="st3" d="M0.5-50.5c0,0-0.9-0.3-2-0.5
						c-0.7-0.2-1.4-0.3-2.1-0.3c-0.4,0-0.9,0-1.3,0c-1.6,0.1-2.9,0.3-2.9,0.3c-0.9,0-1.6,0.6-1.7,1.5c0,0.9,0.6,1.6,1.4,1.7
						c0,0,1.3,0.4,2.8,0.7c0.4,0,0.8,0.2,1.3,0.2c0.7,0,1.4,0,2.1,0c1.2-0.1,2.1-0.2,2.1-0.2c0.9,0,1.6-0.6,1.7-1.5
						C2-49.7,1.3-50.4,0.5-50.5"/>
					<path id="Tracé_4062_00000031185026021352811020000003386781204670336424_" class="st3" d="M5.1-59.8c-0.1-0.4-0.2-0.7-0.4-1
						c-0.1-0.3-0.3-0.6-0.5-0.9c-0.1-0.2-0.3-0.3-0.5-0.4c-0.4-0.3-0.8-0.6-1.3-0.8c-0.6-0.6-1.6-0.7-2.3-0.2
						c-0.6,0.6-0.7,1.6-0.2,2.3c0.1,0.5,0.3,1,0.6,1.4c0.1,0.2,0.2,0.4,0.4,0.5c0.3,0.3,0.5,0.5,0.8,0.7l0.9,0.6
						C3.3-57,4.3-57,4.9-57.5C5.6-58,5.7-59,5.2-59.6C5.2-59.7,5.1-59.7,5.1-59.8"/>
					<path id="Tracé_4063_00000034773558730687988650000010622315183465251005_" class="st3" d="M1.5-39.8c-0.4,0.1-0.7,0.2-1,0.4
						c-0.3,0.1-0.6,0.3-0.9,0.5c-0.2,0.1-0.3,0.3-0.4,0.5C-1.2-38-1.5-37.5-1.7-37c-0.6,0.6-0.7,1.6-0.2,2.3
						c0.6,0.6,1.6,0.7,2.3,0.2c0.5-0.1,1-0.3,1.4-0.6c0.2-0.1,0.4-0.2,0.5-0.4c0.2-0.3,0.5-0.5,0.7-0.8l0.6-1
						c0.6-0.6,0.7-1.6,0.2-2.3C3.1-40.3,2.1-40.3,1.5-39.8"/>
					<path id="Tracé_4064_00000173133161518617201790000001532760478853910687_" class="st7" d="M-33.7-91c0.1-1.4,0.2-2.5,0.2-2.5
						c0-0.4,0.4-0.8,0.8-0.8c0.4,0,0.8,0.4,0.8,0.8c0,0,0.2,1.2,0.2,2.5c0.3,0,0.5,0.1,0.7,0.1c1,0.1,1.8,0.2,1.8,0.2
						c0.4,0,0.8,0.4,0.8,0.8c0,0.4-0.4,0.8-0.8,0.8c0,0-0.7,0.1-1.8,0.2c-0.2,0-0.5,0.1-0.7,0.1c0,0.3-0.1,0.5-0.1,0.7
						c-0.1,1-0.2,1.8-0.2,1.8c0,0.4-0.4,0.8-0.8,0.8c-0.4,0-0.8-0.4-0.8-0.8l0,0c0,0-0.1-0.7-0.2-1.8c0-0.2-0.1-0.5-0.1-0.7
						c-1.4-0.1-2.5-0.2-2.5-0.2c-0.4,0-0.8-0.4-0.8-0.8c0-0.4,0.4-0.8,0.8-0.8C-35.4-90.9-34.5-91-33.7-91"/>
				</g>
			</g>
		</g>
		<g id="Groupe_1078_00000088836554878855045320000010694760582712043933_" transform="translate(239.135 540.373)">
			<g>
				<g id="Groupe_1077_00000134932861129685749130000007866515683529269159_">
					<path id="Tracé_3921_00000176036070829873474120000001335059114448728209_" class="st0" d="M18.4,119.7c0,0-6.7,5.1-9.4,9.3
						c-2,3.1-1.4,6.8-0.5,9.3c0.3,0.7,0.9,1.3,1.7,1.5c0.8,0.2,1.6,0,2.2-0.5c2.9-2.6,7.7-7,10.3-9.4c1-0.9,0.8-2.2,0.2-3.4
						c-1.9-3.8-3.4-6.3-3.4-6.3L18.4,119.7z"/>
					<path id="Tracé_3922_00000036971096937222905110000007601198789388111271_" class="st0" d="M20.7,118.9
						c0.8,1.8-0.1,3.9-1.9,4.7l-8.2,3.6c-1.7,0.7-3.7,0-4.6-1.7c-3.4-6.7-6-13.7-8-20.9c-0.5-1.9-0.8-3.8-1.1-5.8
						c-0.2-1.8-0.3-3.7-0.2-5.5c0-2.6,0.3-5.1,0.8-7.6c0-0.2,0.1-0.4,0.1-0.5c0.9-3.9,2.8-8.6,7-15.3c4.7-7.4,11.8-14.5,14.9-17.5
						c0.8-0.8,2.1-0.7,2.9,0.1c0,0,0,0,0,0l25.7,27.9c0.8,0.8,0.7,2.2-0.1,2.9c-0.1,0.1-0.1,0.1-0.2,0.2c-3.2,2.2-5.9,5-8.2,8.1
						c-0.5,0.7-0.9,1.4-1.2,2.1L23.7,82.1c0-0.1,0.1-0.2,0.1-0.4c0.2-1.1-0.6-2.2-1.7-2.3c-0.8-0.1-1.5,0.2-2,0.8
						c-2.6,3.6-5.2,8.4-5.4,14.4C14.3,102.9,18.7,114.1,20.7,118.9z"/>
					<path id="Tracé_3923_00000031202145397697146700000001778294530694110129_" class="st7" d="M6.3,97.2c0.1,0.3,0,0.5-0.2,0.7
						c-0.1,0.1-0.3,0.1-0.4,0c-0.6-0.3-1.4-0.5-2.1-0.5c-1.8-0.1-2.8,0.8-4.4,1.2c-0.7,0.2-1.4,0.3-2.1,0.3c-0.1,0-0.1-0.1-0.1-0.1
						c-0.2-1.8-0.2-3.6-0.2-5.4c0-2.5,0.3-5,0.7-7.4c0-0.1,0.1-0.1,0.2-0.1c0,0,0,0,0,0c1.1,0.5,2.2,1.1,3.2,1.8
						c0.6,0.8,0.8,1.7,1.9,2.6c1,0.7,2.1,1.1,3.3,1c0.1,0,0.1,0.1,0.1,0.1c0,0.5-0.2,1.1-0.6,1.4c-1.1,0.9-2.5,1.1-3.8,0.6
						c-0.2-0.1-0.4,0.1-0.5,0.3c0,0.1,0,0.2,0.1,0.3c0.2,0.2,0.4,0.4,0.6,0.6C3.7,96,5.6,95.8,6.3,97.2L6.3,97.2z"/>
					<path id="Tracé_3924_00000049900740099724244340000003653322996643922099_" class="st4" d="M-2.2,85.9c0,0,0.2,0.1,0.6,0.3
						c0.5,0.2,0.9,0.5,1.4,0.9c0.1,0.1,0.2,0.2,0.4,0.3c0.1,0.1,0.2,0.3,0.3,0.4c0.2,0.3,0.4,0.6,0.6,1c0.3,0.5,0.7,1,1.1,1.3
						c0.7,0.6,1.6,1,2.5,1.2c0.4,0.1,0.7,0.1,1.1,0.2c0.3,0,0.6-0.2,0.7-0.5c0,0,0,0,0,0c0.1-0.3-0.1-0.6-0.5-0.7
						c-0.3-0.1-0.6-0.2-0.9-0.3c-0.7-0.2-1.3-0.6-1.8-1.1c-0.3-0.3-0.5-0.6-0.7-1c-0.2-0.4-0.5-0.8-0.8-1.2
						c-0.2-0.2-0.3-0.3-0.5-0.5c-0.2-0.2-0.4-0.3-0.6-0.4c-0.5-0.3-1.1-0.6-1.7-0.9c-0.4-0.2-0.7-0.2-0.7-0.2
						c-0.3-0.1-0.7,0-0.8,0.4c0,0,0,0,0,0C-2.6,85.4-2.5,85.8-2.2,85.9z"/>
					<path id="Tracé_3925_00000007416830981774427540000000261366151522752186_" class="st0" d="M49.5,125.4l3.1-4.8
						c0.6-0.9,1.9-1.2,2.8-0.6c0,0,0,0,0,0l5.9,3.8c1.3,0.9,1.7,2.6,0.9,3.9l-7,10.9c-0.8,1.3-2.5,1.7-3.8,0.8c0,0,0,0,0,0
						C47,136.8,46.8,129.7,49.5,125.4z"/>
					<path id="Tracé_3926_00000145774092817105024260000012554304288952087989_" class="st0" d="M42.8,81.3c-2,5-3.7,10.1-5,15.3
						c-0.7,3-1,7.3,4.2,12.1c2.8,2.6,7.4,5.4,12.4,9.1c0.9,0.7,1.1,2,0.4,2.9l-6.3,9.5c-0.7,0.9-1.9,1.1-2.8,0.4
						c-4.3-3.1-9.8-6.8-12.8-9c-2.2-1.6-4.3-3.4-6.3-5.4c-1.7-1.7-3.1-3.7-4.2-5.8c-0.8-1.8-1.3-3.7-1.6-5.6
						c-0.7-5-0.3-11.7,2.6-21.3c0.7-2.5,1.4-4.6,1.9-6.3L42.8,81.3z"/>
					<path id="Tracé_3927_00000082353476520529501780000002987014328882966200_" class="st7" d="M29.7,104.7
						c0.3,0.5,0.4,1.1,0.3,1.7c-0.4,1.3-1.5,2.4-2.9,2.7c-0.2,0.1-0.3,0.3-0.2,0.5c0,0.1,0.1,0.2,0.2,0.2c0.3,0.1,0.6,0.1,0.9,0.2
						c2.3,0.3,3.7-0.9,5.1-0.1c0.1,0.1,0.3,0.2,0.4,0.3c0.1,0.1,0.2,0.3,0,0.5c-0.1,0.1-0.1,0.1-0.2,0.1c-0.8,0.1-1.7,0.3-2.4,0.8
						c-1.5,0.9-1.9,2.2-2.9,3.5c-0.4,0.5-0.9,0.9-1.4,1.2c-1.7-1.7-3.1-3.7-4.2-5.8c-0.8-1.8-1.3-3.7-1.6-5.6
						c0.8-0.1,1.6-0.1,2.4,0.1c1,0.3,1.6,1,3,1C27.5,105.9,28.7,105.5,29.7,104.7"/>
					<path id="Tracé_3928_00000027567411437697678990000015356303912393836971_" class="st4" d="M20.5,105c0.2,0,0.4,0,0.6-0.1
						c0.5,0,0.9,0,1.4,0.1c0.3,0.1,0.6,0.2,0.9,0.3c0.3,0.1,0.6,0.3,1.1,0.5c0.5,0.2,1.1,0.3,1.6,0.3c0.9,0,1.7-0.2,2.5-0.5
						c0.3-0.1,0.6-0.3,0.9-0.4c0.3-0.2,0.4-0.5,0.2-0.8c0,0,0,0,0,0c-0.1-0.3-0.4-0.4-0.7-0.4c0,0-0.3,0.1-0.8,0.3
						c-0.6,0.2-1.3,0.2-1.9,0.2c-0.4-0.1-0.7-0.1-1.1-0.3c-0.3-0.1-0.7-0.3-1.1-0.5c-0.4-0.2-0.8-0.3-1.2-0.3
						c-0.6-0.1-1.2-0.1-1.8,0c-0.2,0-0.5,0.1-0.7,0.2c-0.3,0.1-0.5,0.4-0.4,0.7c0,0,0,0,0,0.1C20,104.9,20.3,105.1,20.5,105z"/>
					<path id="Tracé_3929_00000068653675574811042720000002611214961435985552_" class="st0" d="M82.7,41.7
						c-0.4-8-7.8-17.5-14.6-23c-3-2.4-6.4-2.6-8.8-3.8c-4.2-2.1-8.7-3.6-13.3-4.4c-4.3-0.9-8.8-0.9-13.1-0.2
						c-1.2,0.2-4.7-0.8-5.8-0.5c-1,0.3,0.3,2.1-0.6,2.6c-1.5,0.7-2.6-0.1-5.4,1.5c-3.7,2.3-5,6.7-7.4,8.8c-2.5,2.3-4.9,4-7.4,4.3
						c-3.5,0.3-10.3-3.5-14.8-7.5c-1.4-1.2-3.5-1.1-4.7,0.3c0,0.1-0.1,0.1-0.1,0.2l-3.8,4.9c-1.1,1.4-0.9,3.3,0.4,4.5
						c4,3.7,13,10.9,22.2,12.1c3.3,0.4,6.7-0.1,9.8-1.4C14.4,45,13.5,51,12.8,57.3c-0.2,1.3,0.6,2.5,1.8,2.9
						c5.9,2.1,22.7,7.7,39.2,6.7c1.2-0.2,2.1-1.1,2.2-2.3c0.1-0.8,0.2-1.6,0.4-2.4l5.2,7.4c0.5,0.7,1.4,0.9,2.1,0.4c0,0,0,0,0,0
						c7.5-5.3,18.5-12.9,19-26.5C82.7,42.9,82.7,42.2,82.7,41.7z M57.6,56c0.9-4.4,2-9.2,2.7-13.6c0.3-2,0.6-3.9,0.9-5.6
						c2.7,1.4,6,3.6,6,6.3C67.2,47.4,62.7,52,57.6,56z"/>
					<path id="Tracé_3930_00000028288829346268281010000009985608132971495348_" class="st7" d="M-11.5,25.5
						c-2.6,3.7-6.6,2.5-8.5,1.5c-1.2-0.6-2.4-1.4-3.4-2.3c-0.9-1-1.4-2.2-1.3-3.5c0-2.6,2.1-4.6,4.7-4.6c0.9,0,1.7,0.3,2.4,0.7l0,0
						c0.2,0.1,0.3,0.2,0.5,0.3c0.4,0.2,0.9,0,0.8-0.5c-0.6-1.9-0.5-3.6,0.7-3.8c2-0.3,3.3,3.3,4.2,5.1
						C-10.5,20.2-9.6,22.8-11.5,25.5z"/>
					<path id="Tracé_3931_00000101078578686500381210000016421543874021223041_" class="st7" d="M-15.5,21.1c0,2.5-2,4.6-4.6,4.6
						c0,0,0,0,0,0c-1.2,0.1-2.4-0.3-3.3-1.1c-0.9-1-1.4-2.2-1.3-3.5c0-2.6,2.1-4.6,4.7-4.6c0.9,0,1.7,0.3,2.4,0.7
						C-16.3,18.1-15.5,19.5-15.5,21.1"/>
					<path id="Tracé_3932_00000093178068664166470590000011414785217598706577_" class="st4" d="M60.7,34.1c0,0,0,0.6,0,1.4
						c0,0.4,0,0.9,0,1.4c0,0.3,0,0.6,0.1,0.9c0.1,1.1,0.1,2,0.1,2c0,0.2,0.2,0.3,0.5,0.4c0.2,0,0.4-0.1,0.5-0.3c0,0,0.1-0.9,0.2-2.1
						c0-0.3,0-0.6,0-0.9c0-0.5-0.1-1-0.1-1.5c-0.1-0.5-0.1-1-0.2-1.5c0-0.2-0.3-0.3-0.5-0.3C60.9,33.7,60.7,33.9,60.7,34.1z"/>
					<path id="Tracé_3933_00000075147490094955320110000016642345299391840651_" class="st4" d="M15.9,39.5c0,0,0-0.1,0-0.3
						s0.1-0.4,0.1-0.7c0.1-0.6,0.3-1.4,0.6-2.4c0.2-1,0.5-2.2,0.8-3.4c0.2-0.7,0.3-1.4,0.5-2c0.3-1.3,0.6-2.5,0.8-3.3
						s0.4-1.4,0.4-1.4c0.1-0.4,0-0.8-0.2-0.9c-0.3-0.1-0.6,0.2-0.7,0.6c0,0-0.2,0.5-0.5,1.4s-0.6,2-1,3.3c-0.2,0.7-0.4,1.3-0.6,2
						c-0.3,1.2-0.6,2.4-0.8,3.4c-0.2,1-0.3,1.9-0.4,2.5c0,0.3-0.1,0.6-0.1,0.8s0,0.3,0,0.3c-0.1,0.5,0.1,0.9,0.4,0.9
						C15.6,40.2,15.8,39.9,15.9,39.5z"/>
					<path id="Tracé_3934_00000122711339125780571410000008533716902682538624_" class="st7" d="M35.8,9.7c-2.1,1-5.8,4.8-5.1,13.5
						C31,27.9,30.3,36,32,38.9c2-1.2,7.4-9.5,9.2-13.4c0.4-1.1,1.1-2.1,2-2.9c0.7-1.9,1.3-3.8,2-5.7c3,0.6,5.1,1.1,6.8,1.6
						c0.7,0.2,3.3,1,4.3,0.4c0.1-0.1,2.5-1.4,2.6-2.2c0.1-1.1-1.8-1.7-3.2-3C51.7,9.9,39.6,7.9,35.8,9.7z"/>
					<path id="Tracé_3935_00000178171678707374081800000006540659179696123562_" class="st4" d="M56.3,14.5c0,0,0.3,0.2,0.8,0.5
						c0.3,0.2,0.5,0.4,0.8,0.7c0.1,0.1,0.2,0.3,0.3,0.4c0.1,0.1,0.1,0.2,0.1,0.4c0,0.2-0.4,0.6-0.9,0.9c-0.6,0.3-1.2,0.6-1.8,0.7
						c-1.6,0.2-3.3,0.1-4.9-0.3c-0.8-0.2-1.5-0.4-2.2-0.7c-0.4-0.1-0.8-0.3-1.2-0.5c-0.2-0.1-0.4-0.2-0.6-0.3L45.8,16
						c-0.3-0.1-0.5-0.2-0.8-0.1c-0.3,0-0.5,0.2-0.7,0.4c-0.1,0.1-0.2,0.2-0.3,0.4L43.8,17c-0.1,0.1-0.2,0.3-0.2,0.4
						c-0.3,0.6-0.6,1.2-0.9,1.9c-0.3,0.6-0.5,1.3-0.8,2s-0.4,1.4-0.6,2.1c-0.8,2.6-1.1,5.4-1.1,8.1c0,2.5,0.4,5,1.2,7.3
						c0.2,0.5,0.4,1.1,0.6,1.6c0.2,0.5,0.5,1,0.7,1.4c0.4,0.8,0.8,1.6,1.1,2.4c0.4,1.2,0.7,2.5,0.8,3.7c0,0.5,0.1,0.8,0.1,1
						c0,0.2,0,0.4,0,0.4c0,1.7,0.1,3,0.4,3.1c0.4,0.1,0.9-1.4,0.9-3.1V49c0-0.3,0-0.6-0.1-1.1c-0.1-1.4-0.4-2.8-0.8-4.1
						c-0.3-0.9-0.7-1.8-1.2-2.6c-0.2-0.4-0.4-0.9-0.7-1.3c-0.2-0.5-0.4-0.9-0.6-1.4c-0.7-2.2-1.1-4.4-1-6.7c0-2.6,0.4-5.2,1.1-7.7
						c0.2-0.7,0.4-1.3,0.6-2c0.2-0.7,0.4-1.3,0.7-1.9s0.5-1.2,0.8-1.8c0.1-0.1,0.1-0.3,0.2-0.4l0-0.1l0,0v0c0,0,0,0,0,0c0,0,0,0,0,0
						h0l0.1,0.1l0.3,0.2c0.2,0.1,0.4,0.2,0.6,0.3c0.4,0.2,0.8,0.3,1.2,0.5c0.8,0.3,1.5,0.5,2.3,0.7c1.8,0.5,3.7,0.6,5.5,0.3
						c0.8-0.1,1.7-0.4,2.4-0.9c0.3-0.2,0.7-0.4,0.9-0.7c0.3-0.3,0.6-0.7,0.7-1.1c0.1-0.4,0.1-0.9-0.1-1.3c-0.1-0.3-0.3-0.6-0.5-0.8
						c-0.3-0.3-0.6-0.6-1-0.9c-0.6-0.4-0.9-0.6-0.9-0.6c-0.6-0.4-1.3-0.7-2.1-0.9c-0.5-0.2-0.9-0.2-1,0c-0.1,0.2,0.1,0.5,0.6,0.9
						C55.1,13.7,55.7,14.1,56.3,14.5z"/>
					<path id="Tracé_3936_00000139986163425892327820000003835920563069959311_" class="st4" d="M33.8,9.1c0,0-0.4,0-1.4,0
						c-0.5,0-1.2,0-2-0.1C30,9,29.5,9,29,8.9c-0.2,0-0.5-0.1-0.8-0.1l-0.4-0.1c-0.1,0-0.1,0-0.2,0l-0.1,0c-0.1,0-0.1,0-0.2-0.1
						c0.1,0,0.1,0,0.1,0c-0.1-0.1-0.2-0.1-0.3-0.1c-0.2-0.1-0.4-0.1-0.6-0.1c-0.4,0-0.7,0.3-0.9,0.6c0,0.1,0,0.2-0.1,0.3
						c0,0.2-0.1,0.4-0.1,0.6c0,0.1,0,0.2,0,0.3c0,0.1,0,0.1,0,0.2c0,0.1,0,0.3,0,0.4c0,0.6,0,1.2,0,1.8c0,1.7,0.1,3.5,0.1,5.3
						c0,0.9,0,1.9,0.1,2.8s0.1,1.9,0,2.8c-0.2,2.1-0.5,4.2-1.1,6.3c-1,3.5-1.8,7.1-2.4,10.7c-0.1,0.7-0.2,1.3-0.2,1.9
						C22,43,22,43.5,22,43.9c0,0.4,0,0.7,0,0.9c0,0.2,0,0.3,0,0.3c0,0.4,0,0.7,0.1,1.1c0.1,0.3,0.1,0.6,0.2,0.8
						c0.2,0.4,0.4,0.7,0.5,0.7c0.2,0,0.3-0.3,0.4-0.8c0-0.3,0-0.5,0-0.8c0-0.3,0-0.6,0-0.9l0-0.3c0-0.3,0-0.6,0-0.9
						c0-0.4,0-0.8,0.1-1.4c0.1-0.5,0.1-1.2,0.2-1.8c0.3-1.6,0.6-3.2,1-4.7c0.4-1.8,1-3.7,1.6-5.7c0.7-2.2,1.1-4.4,1.2-6.7
						c0-0.2,0-0.5,0-0.8l0-0.7c0-0.5,0-1,0-1.4c0-0.9-0.1-1.9-0.1-2.8c-0.1-1.8-0.1-3.6-0.2-5.3c0-0.6,0-1.3,0-1.8
						c0-0.2,0-0.5,0-0.7c0,0,0-0.1,0-0.1c0-0.1,0.1,0,0.1,0c0,0,0,0,0,0l0.1,0c0.1,0,0.2,0,0.2,0.1l0.5,0.1c0.3,0,0.6,0.1,0.8,0.1
						c0.5,0,1,0.1,1.4,0.1c0.9,0,1.5,0,2.1,0c1,0,1.5-0.1,1.5-0.1c0.6,0,1.3-0.1,1.9-0.3c0.5-0.2,0.7-0.4,0.7-0.6
						c-0.1-0.2-0.4-0.3-0.8-0.4C35,9,34.4,9,33.8,9.1z"/>
					<path id="Tracé_3937_00000158002975256040341240000012050106330332476321_" class="st3" d="M42.7,45.9
						c-4.2-0.9-6.8,9.1-11,8.8c-3.7-0.3-3.9-3.7-6-1.6c-5.5,5.7-10.4,11.6-6.5,15.3c3.2,3.1,8.6,1.4,11.2,6
						c5.3,9.4,2.8,13.8,9.2,20.2c7.4,7.3,16.5,5.3,25-3.4s10.2-17.8,2.8-25.1c-6.1-6-16.2-5.1-19.3-8.1
						C45.1,55.1,46.4,46.7,42.7,45.9z"/>
					<path id="Tracé_3938_00000182508170453237337210000013418777207165681554_" class="st3" d="M-35-1.4l5.4-5.6l78.3,76.9
						l-5.4,5.6L-35-1.4z"/>
					<path id="Tracé_3939_00000162332908772193400040000003948436353234431899_" class="st0" d="M57.4,77.5L51,84
						c-0.2,0.2-0.4,0.2-0.6,0c0,0,0,0,0,0l-2.1-2.1c-0.2-0.2-0.2-0.4,0-0.6l6.3-6.5c0.2-0.2,0.4-0.2,0.6,0c0,0,0,0,0,0l2.1,2.1
						C57.5,77.1,57.5,77.3,57.4,77.5C57.4,77.5,57.4,77.5,57.4,77.5"/>
					<path id="Tracé_3940_00000057828809312632679490000000287094935475064221_" class="st0" d="M52.6,72.8l-6.3,6.5
						c-0.2,0.2-0.4,0.2-0.6,0c0,0,0,0,0,0l-2.1-2.1c-0.2-0.2-0.2-0.4,0-0.6l6.3-6.5c0.2-0.2,0.4-0.2,0.6,0c0,0,0,0,0,0l2.1,2.1
						C52.8,72.4,52.8,72.7,52.6,72.8"/>
					<path id="Tracé_3941_00000047768733347830402340000008667772609868868515_" class="st4" d="M41.9,62.7l-6.3,6.5
						c-0.2,0.2-0.4,0.2-0.6,0c0,0,0,0,0,0l-2.1-2.1c-0.2-0.2-0.2-0.4,0-0.6l6.3-6.5c0.2-0.2,0.4-0.2,0.6,0c0,0,0,0,0,0l2.1,2.1
						C42.1,62.2,42.1,62.5,41.9,62.7"/>
					<path id="Tracé_3942_00000124134416336175288030000011655817664740414136_" class="st3" d="M-19.1,2.8L-25,8.9
						c-0.4,0.5-1.2,0.5-1.7,0.1l-8.1-6.7c-1-0.9-1.2-2.4-0.3-3.5c0-0.1,0.1-0.1,0.1-0.1l5.5-5.6c0.9-1,2.5-1,3.5,0
						C-26-7-26-6.9-25.9-6.9l6.9,8C-18.6,1.6-18.7,2.3-19.1,2.8"/>
					<path id="Tracé_3943_00000002369177734650017800000015932367244290370472_" class="st0" d="M-32.9,1.7c0.9,0,1.7,0.8,1.7,1.7
						s-0.8,1.7-1.7,1.7c-0.9,0-1.7-0.8-1.7-1.7c0,0,0,0,0,0C-34.6,2.5-33.8,1.7-32.9,1.7C-32.9,1.7-32.9,1.7-32.9,1.7"/>
					<path id="Tracé_3944_00000156589049181249033540000013341775580157239971_" class="st0" d="M-28.5,5.5c0.9,0,1.7,0.8,1.7,1.7
						s-0.8,1.7-1.7,1.7c-0.9,0-1.7-0.8-1.7-1.7c0,0,0,0,0,0C-30.2,6.3-29.4,5.5-28.5,5.5C-28.5,5.5-28.5,5.5-28.5,5.5"/>
					<path id="Tracé_3945_00000083793141100770188370000005453799133539464099_" class="st0" d="M-24.7-6.6c0.9,0,1.7,0.8,1.7,1.7
						s-0.8,1.7-1.7,1.7c-0.9,0-1.7-0.8-1.7-1.7c0,0,0,0,0,0C-26.4-5.9-25.7-6.6-24.7-6.6C-24.7-6.6-24.7-6.6-24.7-6.6"/>
					<path id="Tracé_3946_00000108275703138191354600000011836563146764700095_" class="st0" d="M-20.9-2.3c0.9,0,1.7,0.8,1.7,1.7
						c0,0.9-0.8,1.7-1.7,1.7c-0.9,0-1.7-0.8-1.7-1.7c0,0,0,0,0,0C-22.6-1.5-21.8-2.3-20.9-2.3"/>
					<path id="Tracé_3947_00000130629443825010627760000016745073203911970724_" class="st7" d="M60.6,59.5c0-0.2-0.1-0.3-0.3-0.4
						c-2.8-1-6.2,0.9-7.8,2.1c-1.6,1.2-4.9,3.1-4.3,5c0.4,1.1,2.1,0.9,3.8,0c0.4-0.2,0.8,0.2,0.6,0.7c-1,3.2-5.4,3.5-5.9,5.9
						c-0.5,2.8,9,3.5,11.5,1.8c2.5-1.8,3.7-5.1,4.1-6.4c0.6-2,0.6-4.2-0.1-6.2L60.6,59.5z"/>
					<path id="Tracé_3948_00000016762564323787949200000000274747695849057208_" class="st0" d="M73.7,60.3c0.4,0.4,0.4,1.1,0,1.5
						c-3.1,3-6.4,5.7-10,8.1c-0.7,0.5-1.7,0.3-2.1-0.4c0,0,0,0,0,0L54.8,60c-0.5-0.7-0.3-1.6,0.4-2.1c3-2.1,5.7-4.4,8.2-7
						c0.4-0.4,1.1-0.5,1.5-0.1c0,0,0,0,0.1,0.1L73.7,60.3z"/>
					<path id="Tracé_3949_00000039832864935836557860000011206506314287351487_" class="st7" d="M-14.4,19.8L-14.4,19.8
						c-1.3-2.8,2-4.6-1.5-7.8c-2.1-1.9-8.3,5-8.5,8c0,1.2,0.2,2.4,0.6,3.5c0.5,1.1,1.3,2,2.4,2.5c2.2,1.2,5,0.4,6.2-1.9c0,0,0,0,0,0
						C-14.5,22.7-13.8,21.1-14.4,19.8z"/>
					<path id="Tracé_3950_00000071538745573444266910000012281568499214891450_" class="st3" d="M68.7,24.7c0.8,0,1.5,0.7,1.5,1.5
						c0,0.8-0.7,1.5-1.5,1.5c-0.8,0-1.5-0.7-1.5-1.5c0,0,0,0,0,0C67.2,25.3,67.9,24.7,68.7,24.7"/>
					<path id="Tracé_3951_00000058581737888930731700000010511571921712626843_" class="st3" d="M73.8,39.5c-0.2,0-0.3-0.1-0.4-0.2
						c0,0-0.1-0.1-5.1-8.4l-3.2-1.7c-0.3-0.2-0.4-0.5-0.3-0.8c0.2-0.3,0.5-0.4,0.8-0.3l0,0l3.3,1.8c0.1,0.1,0.2,0.1,0.2,0.2
						c1.7,2.8,4,6.7,4.8,8c0.8-0.4,2.5-1.3,4.2-2.2L77.2,34l-2.6,1.4c-0.3,0.2-0.7,0.1-0.8-0.2l-2-3.4c-0.2-0.3-0.1-0.7,0.2-0.8
						c0.1,0,0.2-0.1,0.3-0.1l3.8-0.3c0.3,0,0.6,0.2,0.7,0.6c0,0.3-0.2,0.6-0.6,0.7l0,0L73.4,32l1.2,2l2.6-1.4
						c0.3-0.2,0.7-0.1,0.8,0.2c0,0,0,0,0,0l1.7,3c0.2,0.3,0.1,0.7-0.2,0.8C75.4,38.9,74.2,39.5,73.8,39.5z"/>
					<path id="Tracé_3952_00000041281006872703596650000015346692037930656151_" class="st3" d="M68.9,31c-0.3,0-0.6-0.3-0.6-0.6
						c0-0.2,0.1-0.4,0.3-0.5l3.2-2.1c0.3-0.2,0.7-0.1,0.8,0.2c0,0,0,0,0,0c0.2,0.3,0.1,0.7-0.2,0.9l-3.2,2.1C69.1,31,69,31,68.9,31"
						/>
					<path id="Tracé_3953_00000137825615216679361580000001195140291078907056_" class="st3" d="M71.6,44.1c-0.3,0-0.6-0.3-0.6-0.6
						c0-0.3,0.2-0.5,0.5-0.6l6.5-1.5c0.3-0.1,0.7,0.1,0.7,0.5c0.1,0.3-0.1,0.7-0.5,0.7l0,0l-6.5,1.5C71.7,44.1,71.7,44.1,71.6,44.1"
						/>
					<path id="Tracé_3954_00000034077516372314716230000014167175611783832990_" class="st3" d="M73.4,47c-0.3,0-0.6-0.3-0.6-0.6
						c0-0.3,0.3-0.6,0.6-0.6l3.3-0.1l0.9-3.6l-2-3.9c-0.2-0.3-0.1-0.7,0.2-0.8c0.3-0.2,0.7-0.1,0.8,0.2c0,0,0,0,0,0l2.1,4.1
						c0.1,0.1,0.1,0.3,0.1,0.4l-1,4.3c-0.1,0.3-0.3,0.5-0.6,0.5L73.4,47L73.4,47"/>
					<path id="Tracé_3955_00000060021945002964538160000003422952465315801508_" class="st3" d="M80,40.2c-0.2,0-0.4-0.1-0.5-0.3
						l-1.7-3c-0.2-0.3-0.1-0.7,0.2-0.8c0.3-0.2,0.7-0.1,0.8,0.2l1.7,3c0.2,0.3,0.1,0.7-0.2,0.8C80.2,40.2,80.1,40.2,80,40.2"/>
					<path id="Tracé_3956_00000134249577207274439280000014064542593087496105_" class="st0" d="M37.8,9.7c0.3,0,0.5,0,0.8,0.1
						c0.3,0,0.8,0.1,1.2,0.2c0.4,0.1,0.8,0.2,1.2,0.3c0.3,0.1,0.5,0.2,0.8,0.3c0.4,0,0.7,0.4,0.6,0.7c0,0.4-0.3,0.7-0.7,0.7
						c-0.3,0.1-0.6,0.1-0.9,0.1c-0.5,0-0.9,0-1.4-0.1c-0.5-0.1-0.9-0.3-1.3-0.5c-0.3-0.1-0.6-0.3-0.8-0.5c-0.3-0.2-0.5-0.6-0.3-0.9
						C37.1,9.8,37.4,9.6,37.8,9.7C37.8,9.7,37.8,9.7,37.8,9.7z"/>
					<path id="Tracé_3957_00000163059946395492696120000016837575439950580865_" class="st7" d="M54.2,11.3
						c0.5-0.1,2.1-2.2,2.6-3.8c1.8-5.5,2.8-11.2,2.9-16.9c0-6.6-4.6-12.4-10.8-13.4c-0.2,0,0.2,0,0,0c-6.9-0.8-13.4,3.1-14.4,10.4
						c-0.7,5.3-1,10.6-1,16c0.2,4.2,2.7,5.8,3.3,6.1c0,0-0.2,1.3-0.3,2.1c-0.1,0.5,0.2,1,0.7,1.2c5,1.4,10.3,2.1,15.5,2.1
						c0.6,0,1-0.4,1.1-1C53.9,13.1,54.2,11.3,54.2,11.3"/>
					<path id="Tracé_3958_00000176724469555547927450000013599312861294461057_" class="st0" d="M37.8,9.7c0.3,0,0.5,0,0.8,0.1
						c0.3,0,0.8,0.1,1.2,0.2c0.4,0.1,0.8,0.2,1.2,0.3c0.3,0.1,0.5,0.2,0.8,0.3c0.4,0,0.7,0.4,0.6,0.7c0,0.4-0.3,0.7-0.7,0.7
						c-0.3,0.1-0.6,0.1-0.9,0.1c-0.5,0-0.9,0-1.4-0.1c-0.5-0.1-0.9-0.3-1.3-0.5c-0.3-0.1-0.6-0.3-0.8-0.5c-0.3-0.2-0.5-0.6-0.3-0.9
						C37.1,9.8,37.4,9.6,37.8,9.7C37.8,9.7,37.8,9.7,37.8,9.7z"/>
					<path id="Tracé_3959_00000094603756898024732590000000524545548614927245_" class="st0" d="M28.4-33.2
						c1.8-2.6,5.1-3.9,8.2-3.2c-0.1-0.9,0.3-1.7,1-2.2c0.8-0.3,1.8,0.2,2.6,1.1h0c0.6-1.7,2.1-3,4-3.2c1.4-0.3,2.9,0.1,4.1,0.9h0
						c1.3-1.2,3-1.8,4.8-1.6c3.2,0.2,5.6,2.5,5.5,5.1c0,0.1,0,0.1,0,0.2c1-1,2.7-1.7,3.6-1.1c1,0.6,1,2.4,0.4,3.8l0,0
						c2.7-1.1,6.2-0.3,8.7,2.2c2.5,2.5,3.2,6,1.9,8.6v0c0.8,0,1.6,0.3,2.1,1c0.4,0.8-0.2,1.9-1.1,2.7v0c1.6,0.7,2.7,2.3,2.9,4.1
						c0.2,1.7-0.4,3.4-1.8,4.4v0c1.6,1.5,2.3,3.8,1.6,5.9c-0.5,2-2.1,3.6-4.2,4.1v0c1,0.9,1.6,2.2,1.2,3c-0.5,0.9-2.1,1-3.5,0.5
						c0.3,2.3-1.2,4.7-3.9,5.8c-1.4,0.6-3,0.7-4.5,0.2l0,0c0.1,0.6-0.2,1.2-0.6,1.6c-0.5,0.2-1.2-0.1-1.8-0.6c0,0,0,0,0,0
						c0,0,0,0,0,0c-0.5,0.9-1.2,1.7-1.8,1.6c-0.7-0.1-1.1-1.1-1.3-2.2l0,0c-0.4,0.2-1,0.7-1.5,0.5c-3.6-1.5,1.2-10.3,2.3-13.1
						c1-2.6,2.8-5.5,0.8-6.5c-1.5-0.7-2.7,2.6-2.9,4.2l0,0c0,0.1,0,0.2,0,0.2c-0.2,2.4-3.9,1.3-2.7-1l0,0c1-2.9,1.3-5.8-0.2-8.1
						c-0.6-1.1-1.6-1.8-2.8-2c-1.7-0.3-3.4-0.7-5.1-1.2c-1.6-0.4-3.1-1-4.6-1.6c-1.3-0.5-2.7,0-3.4,1.3c-4.3,8.4-3,13.1-3.6,16.3
						c-0.1,0.6-0.7,0.7-1.3,0.4C30.9-1.7,30.3-2.3,30-3h0c-0.7,0.3-1.5,0.3-2.2-0.2c-0.4-0.5-0.1-1.5,0.6-2.2v0
						C27.2-6,26.2-7,25.6-8.2c-0.6-1.4-0.6-3,0.2-4.3c-1-0.1-1.9-0.5-2.1-1.1c-0.3-0.8,0.9-1.8,2.2-2.4v0c-0.8-0.6-1.4-1.4-1.3-2
						c0.2-0.7,1.3-1,2.5-1v0c-2-1.3-2.6-4-1.3-5.9c0.3-0.5,0.8-1,1.3-1.3v0C26.4-28.7,26.9-31.3,28.4-33.2z"/>
					<path id="Tracé_3960_00000031172563482201526330000016205881829700801462_" class="st0" d="M46-6c-0.2,0.3-0.3,0.6-0.4,0.9
						c-0.1,0.3-0.1,0.6-0.1,1c-0.1,0.6,0.3,1.2,0.8,1.3c0.6,0.2,1.2-0.1,1.4-0.7c0.2-0.3,0.3-0.6,0.4-0.9c0.1-0.3,0.1-0.6,0.1-1
						C48.4-6,48-6.5,47.4-6.7C46.8-6.8,46.2-6.5,46-6"/>
					<path id="Tracé_3961_00000092428175771452809090000012134927073486245311_" class="st0" d="M34.3-8.8
						c-0.2,0.3-0.3,0.6-0.4,0.9c-0.1,0.3-0.1,0.6-0.1,1c-0.1,0.6,0.3,1.2,0.8,1.3c0.6,0.2,1.2-0.1,1.4-0.7c0.2-0.3,0.3-0.6,0.4-0.9
						c0.1-0.3,0.1-0.6,0.1-1c0.1-0.6-0.3-1.2-0.8-1.3C35.1-9.6,34.5-9.3,34.3-8.8"/>
					<path id="Tracé_3962_00000157273292293321581670000012171141383095525817_" class="st0" d="M38.9,3.3c2,0.4,3.7-0.8,3.9-1.3
						c0.1-0.5-0.3-1-0.8-1.1c0,0,0,0,0,0c-0.8-0.3-1.5-0.5-2.3-0.7c-0.8-0.2-1.6-0.3-2.5-0.4c-0.5-0.1-1,0.1-1.1,0.6c0,0,0,0,0,0
						C36,1.1,37.2,2.9,38.9,3.3"/>
					<path id="Tracé_3963_00000007388086797378783520000016173077181564236160_" class="st0" d="M63.3-80c1.8,0.2,3.5,0.5,3.5,0.5
						c1.1,0.1,2.1,0.7,2.6,1.7c0.5,1,0.6,2.1,0.3,3.2c0,0-1.6,2.9-3.3,6.1c-2.4,4.3-5.2,9.1-5.2,9.1c-0.4,0.9-1.3,1.3-2.2,0.9
						c0,0-0.1,0-0.1,0c-0.9-0.4-1.3-1.4-0.9-2.3c0,0,0,0,0,0c0,0,1.6-5.3,3.1-10c0.2-0.7,0.5-1.3,0.7-2c-1.8-0.2-3.5-0.5-3.5-0.5
						c-1.1-0.1-2.1-0.8-2.6-1.7c-0.5-1-0.6-2.1-0.3-3.2c0,0,1.4-2.9,3.1-6.1c2.2-4.3,4.9-8.9,4.9-8.9c0.4-0.9,1.3-1.3,2.2-0.9
						c0,0,0.1,0,0.1,0c0.9,0.4,1.3,1.4,0.9,2.3c0,0,0,0,0,0c0,0-1.4,5.3-2.7,9.8C63.6-81.3,63.4-80.7,63.3-80"/>
					<path id="Tracé_3964_00000050663346782626246340000005960555120887471039_" class="st3" d="M-23.6-17.5c0,0,0.4-0.6,0.8-1.5
						c0.3-0.5,0.5-1,0.7-1.6c0.1-0.3,0.2-0.7,0.2-1c0.2-1.3,0.3-2.4,0.3-2.4c0.2-0.7-0.3-1.5-1-1.7c-0.7-0.2-1.4,0.2-1.6,0.9
						c0,0-0.5,0.9-1.1,2.1c-0.1,0.3-0.3,0.6-0.4,1c-0.2,0.5-0.3,1.1-0.3,1.7c-0.1,1-0.2,1.7-0.2,1.7c-0.2,0.7,0.2,1.4,0.9,1.6
						c0,0,0,0,0,0C-24.6-16.5-23.8-16.8-23.6-17.5C-23.6-17.5-23.6-17.5-23.6-17.5"/>
					<path id="Tracé_3965_00000052793055958052816450000011085168812758627212_" class="st3" d="M-16.6-12c0.3,0,0.6,0,0.9-0.1
						c0.3,0,0.6-0.1,0.9-0.2c0.2-0.1,0.3-0.2,0.4-0.3c0.3-0.3,0.7-0.6,0.9-0.9c0.6-0.3,0.9-1.1,0.5-1.8c0,0,0,0,0,0
						c-0.4-0.6-1.2-0.9-1.9-0.6c-0.4,0-0.9,0.1-1.3,0.2c-0.2,0-0.4,0.1-0.5,0.2c-0.3,0.2-0.5,0.3-0.7,0.5l-0.6,0.6
						c-0.6,0.3-0.9,1.1-0.5,1.8C-18.1-11.9-17.3-11.7-16.6-12C-16.6-12-16.6-12-16.6-12"/>
					<path id="Tracé_3966_00000029763467418304977470000004332462399643935660_" class="st3" d="M-32.7-18.8c0-0.3-0.1-0.6-0.2-0.9
						c-0.1-0.3-0.2-0.6-0.3-0.8c-0.1-0.2-0.2-0.3-0.3-0.4c-0.3-0.3-0.6-0.6-1-0.9c-0.4-0.6-1.2-0.9-1.9-0.6
						c-0.6,0.3-0.9,1.1-0.5,1.8c0,0,0,0,0,0c0,0.4,0.1,0.8,0.2,1.3c0,0.2,0.1,0.4,0.2,0.5c0.2,0.2,0.4,0.5,0.6,0.7l0.7,0.6
						c0.4,0.6,1.2,0.9,1.9,0.6C-32.6-17.3-32.4-18.1-32.7-18.8"/>
				</g>
			</g>
		</g>
		<g id="Groupe_1080_00000049188986437776764370000017150164435160053146_" transform="translate(37.279 550)">
			<g>
				<g id="Groupe_1079_00000114069753960771688270000000421976426508404639_">
					<path id="Tracé_3967_00000049200280187867330080000018354748227873566369_" class="st7" d="M-22.8,14c0.2,0,0.4,0,0.5,0.2
						c1.7,2.4,0.9,6.2,0.2,8.2c-0.7,1.9-1.7,5.7-3.7,5.6c-1.2,0-1.5-1.7-1.1-3.7c0.1-0.5-0.4-0.7-0.8-0.4c-2.9,1.9-1.9,6.3-4.1,7.4
						c-2.6,1.3-6-7.8-5-10.7c1-3,4-5,5.1-5.8c1.8-1.2,3.9-1.8,6.1-1.7L-22.8,14z"/>
					<path id="Tracé_3968_00000177448799591766429720000008770238153981174157_" class="st0" d="M-23.4,78.1c0,0,6.6,3.5,9.6,7.5
						c2.3,3,1.9,6.7,1.1,9.3c-0.2,0.8-0.8,1.4-1.6,1.6c-0.8,0.2-1.6,0.1-2.2-0.4l-11.2-8.7c-1.1-0.8-1.2-2.4-0.4-3.4c0,0,0,0,0,0
						C-26.2,81.7-23.4,78.1-23.4,78.1z"/>
					<path id="Tracé_3969_00000137130083469036914740000006231678028722984600_" class="st0" d="M29.5,71.9c0,0,5.4,5.2,7.2,9.9
						c1.3,3.5,0,7-1.5,9.3c-0.4,0.7-1.2,1.1-2,1.1c-0.8,0-1.6-0.3-2-1l-8.3-11.4c-0.8-1.1-0.5-2.6,0.5-3.4c0,0,0,0,0,0
						C25.7,74.6,29.5,71.9,29.5,71.9z"/>
					<path id="Tracé_3970_00000011723400920388050760000011073916168031622540_" class="st3" d="M-24.4,77.6
						c5-10.5,27.2-62.3,27.2-62.3l21.8,10.4l-1.1,1.8c2.2,1,7.2,0.3,12.9,3.2C54.1,39.6,56,47.1,56.7,54.9
						c1.1,12.7-13,24.8-17.9,28.2c-1,0.7-2.3,0.5-3.1-0.4l-7-8.7c-0.8-1-0.6-2.3,0.3-3.1c3.2-2.6,9.1-7.9,9.2-12.4
						C38.4,52,24,47.3,19.2,45.7c-0.9-0.3-1.5-0.5-2-0.6c-0.8-0.2-1.6,0.1-2.1,0.7l-26.4,39.9c-0.6,1.1-2,1.4-3.1,0.8
						c0,0-0.1,0-0.1-0.1l-9.1-6C-24.5,79.8-24.8,78.6-24.4,77.6z"/>
					<path id="Tracé_3971_00000080206309508026715660000000048884873025918106_" class="st0" d="M-30.1,11.5
						c2.3-4.9,7.8-15.2,15.7-21.9c1.4-1.1,2.7-2.2,4.1-3.2c12.1-8.7,27.5-11.3,41.8-7.3C50.7-15.6,56-7.2,61,4.5
						c1.3,3.1,2.7,5.8,4.9,7.1c3.1,1.8,10.9,1.3,16.9-0.3c1.9-0.5,3.8,0.6,4.3,2.4c0,0.1,0,0.1,0,0.2l1.3,6c0.4,1.8-0.7,3.5-2.4,4
						c-5.3,1.6-16.7,4.2-25.6,1.2c-2.5-0.8-4.8-2.2-6.8-4c-0.4,3.4-0.5,10.1-4.6,16c-0.4,0.5-1,0.8-1.7,0.8
						c-8-0.8-34.4-2.8-48.6-10.8c-0.7-0.4-1.1-1.2-1-2.1c1.9-9.8,4.7-19.3,8.1-28.7c-4.8,0.8-9.3,2.8-13.1,6c-4,3.3-8,9.8-11.5,15.6
						c-0.9,1.6-3,2.1-4.6,1.2c0,0,0,0,0,0l-5.4-3.3C-30.3,14.9-30.9,13.1-30.1,11.5z"/>
					<path id="Tracé_3972_00000046305308346026749270000004980341868627841459_" class="st0" d="M34,47c0.4,0.2,0.9,0.5,1.3,0.7
						c0.3,0.2,0.5,0.6,0.3,1c0,0,0,0,0,0c-0.2,0.3-0.6,0.5-1,0.3c-0.4-0.2-0.8-0.4-1.2-0.7c-0.4-0.2-0.5-0.6-0.3-1
						C33.2,47,33.6,46.8,34,47C34,47,34,47,34,47"/>
					<path id="Tracé_3973_00000169523034095382438200000016196143435929662906_" class="st0" d="M37.8,49.4c0.4,0.3,0.8,0.6,1.1,1
						c0.3,0.3,0.3,0.7,0,1c0,0,0,0,0,0c-0.3,0.3-0.7,0.3-1,0c-0.3-0.3-0.7-0.6-1-0.9c-0.3-0.3-0.4-0.7-0.1-1
						C37,49.2,37.5,49.1,37.8,49.4C37.8,49.4,37.8,49.4,37.8,49.4"/>
					<path id="Tracé_3974_00000114761134009130164250000006038687671543684767_" class="st0" d="M41,52.7c0.3,0.4,0.5,0.9,0.8,1.3
						c0.2,0.3,0,0.8-0.3,0.9c0,0-0.1,0-0.1,0c-0.4,0.1-0.8,0-1-0.3c-0.2-0.4-0.4-0.8-0.7-1.2c-0.2-0.3-0.1-0.8,0.2-1
						C40.2,52.2,40.7,52.3,41,52.7C40.9,52.6,40.9,52.7,41,52.7"/>
					<path id="Tracé_3975_00000065763665356720928930000004985291764171603597_" class="st0" d="M42.6,57c0.1,0.5,0.1,1,0,1.5
						c0,0.4-0.3,0.7-0.7,0.7c0,0-0.1,0-0.1,0c-0.4,0-0.7-0.4-0.7-0.7c0-0.4,0-0.9,0-1.3c0-0.4,0.3-0.7,0.6-0.8
						C42.1,56.3,42.5,56.5,42.6,57C42.6,56.9,42.6,57,42.6,57z"/>
					<path id="Tracé_3976_00000157298592781381134780000000371536180092174250_" class="st0" d="M42.1,61.6c-0.1,0.5-0.3,1-0.5,1.4
						c-0.1,0.4-0.6,0.5-0.9,0.4c0,0,0,0-0.1,0c-0.4-0.2-0.5-0.6-0.4-0.9c0.2-0.4,0.3-0.8,0.5-1.3c0.1-0.4,0.5-0.6,0.9-0.5
						C42,60.7,42.2,61.1,42.1,61.6C42.1,61.5,42.1,61.6,42.1,61.6z"/>
					<path id="Tracé_3977_00000141425141560257075680000010815170543944423349_" class="st0" d="M40.1,65.6
						c-0.3,0.4-0.6,0.8-0.9,1.2c-0.2,0.3-0.7,0.4-1,0.1c0,0,0,0,0,0c-0.3-0.2-0.4-0.7-0.1-1c0.3-0.4,0.6-0.7,0.8-1.1
						c0.2-0.3,0.7-0.4,1-0.2C40.2,64.8,40.3,65.3,40.1,65.6C40.1,65.6,40.1,65.6,40.1,65.6"/>
					<path id="Tracé_3978_00000078765010139380316830000015579347068958135229_" class="st0" d="M37.3,69.1c-0.3,0.4-0.7,0.7-1,1.1
						c-0.3,0.3-0.8,0.3-1.1,0c-0.3-0.3-0.3-0.7,0-1c0.3-0.3,0.7-0.7,1-1c0.3-0.3,0.7-0.3,1,0C37.5,68.3,37.6,68.7,37.3,69.1
						C37.3,69.1,37.3,69.1,37.3,69.1"/>
					<path id="Tracé_3979_00000058570140561619734790000011967447474928591530_" class="st0" d="M34.2,72.2l-1,1
						c-0.3,0.3-0.8,0.3-1.1,0c-0.3-0.3-0.3-0.8,0-1l1-1c0.3-0.3,0.8-0.3,1,0C34.5,71.4,34.5,71.9,34.2,72.2
						C34.2,72.1,34.2,72.2,34.2,72.2"/>
					<path id="Tracé_3980_00000156582181106187805660000013962099519092417976_" class="st0" d="M1.6,30.9L1,32.3
						c-0.1,0.4-0.6,0.6-0.9,0.5s-0.6-0.6-0.5-0.9c0,0,0-0.1,0-0.1l0.6-1.4c0.2-0.4,0.6-0.6,1-0.4C1.6,30.1,1.8,30.5,1.6,30.9
						C1.6,30.9,1.6,30.9,1.6,30.9"/>
					<path id="Tracé_3981_00000049909555112591831540000000085439510442926243_" class="st0" d="M-0.2,35.2l-0.6,1.4
						C-1,37-1.4,37.2-1.8,37c-0.4-0.1-0.6-0.6-0.4-1c0,0,0,0,0-0.1l0.6-1.4c0.2-0.4,0.6-0.6,1-0.4C-0.2,34.3-0.1,34.8-0.2,35.2
						C-0.2,35.2-0.2,35.2-0.2,35.2z"/>
					<path id="Tracé_3982_00000117641056968518287800000013574339776517865607_" class="st0" d="M-2.1,39.4l-0.6,1.4
						c-0.2,0.4-0.6,0.6-1,0.4c-0.4-0.2-0.6-0.6-0.4-1c0,0,0,0,0,0l0.6-1.4c0.2-0.4,0.6-0.6,1-0.4C-2.1,38.5-1.9,39-2.1,39.4
						C-2.1,39.4-2.1,39.4-2.1,39.4L-2.1,39.4z"/>
					<path id="Tracé_3983_00000074428812100457348390000012541885267399984301_" class="st0" d="M-3.9,43.6L-4.5,45
						c-0.2,0.4-0.6,0.6-1,0.4s-0.6-0.6-0.4-1c0,0,0,0,0,0l0.6-1.4c0.2-0.4,0.6-0.6,1-0.4c0,0,0,0,0,0C-3.9,42.8-3.7,43.2-3.9,43.6
						C-3.9,43.6-3.9,43.6-3.9,43.6"/>
					<path id="Tracé_3984_00000140004829471175701350000015473327327435573404_" class="st0" d="M-5.8,47.8l-0.6,1.4
						c-0.2,0.4-0.6,0.6-1,0.4c-0.4-0.2-0.6-0.6-0.4-1l0.6-1.4c0.2-0.4,0.6-0.6,1-0.4C-5.8,47-5.6,47.5-5.8,47.8L-5.8,47.8"/>
					<path id="Tracé_3985_00000062872940056507206280000001593571187424516285_" class="st0" d="M-7.6,52.1l-0.6,1.4
						c-0.2,0.4-0.6,0.6-1,0.4c0,0,0,0,0,0c-0.4-0.2-0.5-0.6-0.4-1c0,0,0,0,0,0l0.6-1.4c0.2-0.4,0.6-0.6,1-0.4
						C-7.6,51.2-7.5,51.7-7.6,52.1C-7.6,52-7.6,52.1-7.6,52.1"/>
					<path id="Tracé_3986_00000139274433333632177930000002420512190097897118_" class="st0" d="M-9.5,56.3l-0.6,1.4
						c-0.2,0.4-0.6,0.6-1,0.4c-0.4-0.2-0.6-0.6-0.4-1c0,0,0,0,0,0l0.6-1.4c0.1-0.4,0.6-0.6,1-0.4S-9.3,55.8-9.5,56.3
						C-9.5,56.2-9.5,56.3-9.5,56.3z"/>
					<path id="Tracé_3987_00000124877395062065432760000001550430501134879932_" class="st0" d="M-11.4,60.5l-0.6,1.4
						c-0.2,0.4-0.6,0.6-1,0.4c0,0,0,0,0,0c-0.4-0.2-0.5-0.6-0.4-1c0,0,0,0,0,0l0.6-1.4c0.2-0.4,0.6-0.6,1-0.4c0,0,0,0,0,0
						C-11.4,59.7-11.2,60.1-11.4,60.5C-11.4,60.5-11.4,60.5-11.4,60.5z"/>
					<path id="Tracé_3988_00000100366334574705870000000017006139236889000634_" class="st0" d="M-13.3,64.7l-0.6,1.4
						c-0.2,0.4-0.6,0.6-1,0.4c-0.4-0.2-0.6-0.6-0.4-1c0,0,0,0,0,0l0.6-1.4c0.2-0.4,0.6-0.6,1-0.4C-13.2,63.9-13.1,64.3-13.3,64.7
						C-13.3,64.7-13.3,64.7-13.3,64.7z"/>
					<path id="Tracé_3989_00000109751329560454562700000000703498970710200968_" class="st0" d="M-15.2,68.9l-0.6,1.4
						c-0.2,0.4-0.6,0.6-1,0.4s-0.6-0.6-0.4-1c0,0,0,0,0-0.1l0.6-1.4c0.2-0.4,0.6-0.6,1-0.4C-15.2,68.1-15,68.5-15.2,68.9
						C-15.2,68.9-15.2,68.9-15.2,68.9z"/>
					<path id="Tracé_3990_00000155856428506604729730000013714030087220418230_" class="st0" d="M-17.1,73.1l-0.7,1.4
						c-0.2,0.4-0.6,0.6-1,0.4c-0.4-0.2-0.6-0.6-0.4-1c0,0,0,0,0-0.1l0.7-1.4c0.2-0.4,0.6-0.6,1-0.4C-17.1,72.3-16.9,72.7-17.1,73.1
						C-17.1,73.1-17.1,73.1-17.1,73.1z"/>
					<path id="Tracé_3991_00000053503431469822158660000014741957128718598279_" class="st0" d="M-19.1,77.3l-0.7,1.4
						c-0.2,0.4-0.6,0.5-1,0.4c0,0,0,0,0,0c-0.4-0.2-0.5-0.6-0.3-1c0,0,0,0,0,0l0.7-1.4c0.2-0.4,0.6-0.5,1-0.4c0,0,0,0,0,0
						C-19,76.4-18.9,76.9-19.1,77.3C-19.1,77.3-19.1,77.3-19.1,77.3"/>
					<path id="Tracé_3992_00000139975203415544755080000011178042188483681466_" class="st0" d="M17.4,31.9
						C16.8,33,16,34.1,15.1,35c-0.9,0.9-1.9,1.7-3.1,2.2c-0.7,0.3-1.4,0.5-2.1,0.7c-1.8,0.3-3.6,0.1-5.3-0.6c-0.4-0.1-0.8,0-0.9,0.4
						c-0.1,0.4,0,0.8,0.4,0.9c1.9,0.9,4,1.3,6.1,1.1c0.9-0.1,1.8-0.4,2.6-0.8c1.4-0.6,2.6-1.6,3.5-2.7c1-1.1,1.8-2.4,2.3-3.7
						c0.1-0.4,0-0.8-0.4-0.9C17.9,31.4,17.5,31.5,17.4,31.9L17.4,31.9z"/>
					<path id="Tracé_3993_00000103244869453163947700000015939170275792590985_" class="st0" d="M40.1,37.7c1,1.2,2.2,2.4,3.4,3.4
						c0.5,0.4,1.1,0.8,1.6,1.1c0.4,0.2,0.8,0.4,1.2,0.6c2,0.9,4.1,0.9,5.7-0.5c0.3-0.2,0.3-0.7,0.1-1c0,0,0,0,0,0
						c-0.3-0.3-0.7-0.3-1-0.1c0,0,0,0,0,0c-1.2,0.9-2.6,0.6-4-0.1c-0.3-0.2-0.7-0.4-1-0.6c-0.5-0.3-1-0.6-1.5-0.9
						c-1.2-0.8-2.4-1.8-3.5-2.8c-0.2-0.3-0.7-0.3-0.9-0.1c0,0,0,0,0,0C39.9,37.1,39.8,37.5,40.1,37.7z"/>
					<path id="Tracé_3994_00000133517363247889046770000015197015267238557841_" class="st0" d="M17.6,45.2c0,0,0.1,0,0.1,0
						c1.3,0.2,2.6,0.3,3.9,0.3c0.5,0,1.1,0,1.7,0c1,0,1.9,0.1,2.8,0.1l2.8,0c0.4-0.1,0.7,0.3,0.8,0.8c0.1,0.5-0.2,1-0.6,1
						c0,0-1.2,0.2-2.9,0.4l-1,0c-2.5-0.9-4.7-1.6-6-2.1C18.6,45.5,18.1,45.3,17.6,45.2z"/>
					<path id="Tracé_3995_00000031185817945435906480000014952523566674239104_" class="st7" d="M83.7,16.5c-0.2-3.3,1.9-5,3.6-6.2
						c1.7-1.1,4.8-3.5,6.4-2.2c0.9,0.8,0.1,2.3-1.4,3.6c-0.4,0.3-0.1,0.8,0.4,0.8c3.4,0.2,5.3-3.9,7.8-3.4c2.8,0.6,0,9.8-2.6,11.5
						c-2.6,1.8-6.2,1.6-7.6,1.5C88.2,22.1,84.1,21,83.7,16.5"/>
					<path id="Tracé_3996_00000062901151023773379780000018056091909834624407_" class="st3" d="M-20.3-4.4c0.5-0.6,1-1.2,1.5-1.8
						c0.2,0.3,0.4,0.7,0.6,1c0.9,1.6,2.3,2.9,4,3.6C-12-0.6-10.2,1-9,3c0.1,0.2,0.2,0.4,0.4,0.6c-0.5,0.5-1.1,1.1-1.6,1.7
						c-0.2-0.4-0.4-0.8-0.6-1.2c-0.9-1.6-2.3-2.9-4-3.6C-17-0.4-18.8-2-20-4C-20.1-4.1-20.2-4.2-20.3-4.4"/>
					<path id="Tracé_3997_00000119821131923863270240000003005568642788773041_" class="st3" d="M-6.4-6.9c2.3,1,4.2,2.7,5.5,4.8
						C-0.9-2-0.8-1.8-0.7-1.7C-1.8-1.2-2.9-0.7-4,0c0,0,0-0.1-0.1-0.1c-0.9-1.4-2.1-2.6-3.6-3.3c-2.3-1-4.2-2.7-5.5-4.8
						c-0.4-0.7-0.8-1.4-1.1-2.2c0.9-0.9,2-1.7,3.1-2.4c0.3,0.9,0.7,1.8,1.2,2.6C-9.2-8.8-7.9-7.6-6.4-6.9z"/>
					<path id="Tracé_3998_00000071547467491384831590000016377457063215054266_" class="st3" d="M64.2,10.7c1,5-1,10-5.1,13
						c-0.3,0.2-0.6,0.4-0.8,0.6c-1.1-0.5-2.2-1.2-3.2-1.9c0.6-0.7,1.3-1.4,2.1-1.9c1.4-1,2.4-2.4,2.9-4c0.7-1.5,0.9-3.2,0.5-4.9
						c-0.5-2.3-0.3-4.6,0.5-6.8c0.8,1.8,1.7,3.6,2.9,5.2C64.1,10.3,64.2,10.5,64.2,10.7z"/>
					<path id="Tracé_3999_00000163042453214092521360000014753610000534784173_" class="st4" d="M7.4-5.8c0,0-0.3,0.5-0.7,1.3
						C6.5-4.1,6.3-3.7,6.1-3.2C6-3,5.8-2.7,5.7-2.5c-0.6,1-1,1.8-1,1.8C4.6-0.5,4.3-0.5,4.1-0.5C3.9-0.6,3.7-0.8,3.8-1.1
						c0,0,0.3-0.9,0.8-2c0.1-0.3,0.2-0.6,0.4-0.8c0.2-0.5,0.5-0.9,0.8-1.3C5.9-5.6,6.2-6,6.5-6.4c0.1-0.2,0.4-0.2,0.6,0
						C7.4-6.2,7.5-5.9,7.4-5.8z"/>
					<path id="Tracé_4000_00000131349849326567685020000003494173512950231985_" class="st4" d="M53,2.5c0.2,0.5,0.4,0.9,0.5,1.4
						c0.3,1.2,0.6,2.4,0.7,3.6c0.2,1.7,0.2,3.4,0.1,5.2c0,0.3-0.1,0.5-0.1,0.8c0,0.1-0.1,0.3-0.1,0.4l0,0.1c0,0,0,0,0,0s0,0,0,0
						c0.1,0.5,0.1,1,0.2,1.5c0.2,0.9,0.3,1.9,0.3,2.8c0,0.8,0,1.5-0.1,2.3c-0.1,0.6-0.1,1.2-0.2,1.5l-0.1,0.6
						c-0.1,0.7-0.4,1.1-0.6,1.1c-0.3,0-0.4-0.6-0.3-1.2c0,0,0-0.2,0-0.5s0.1-0.9,0.1-1.5c0.1-1.6-0.1-3.2-0.4-4.8
						c-0.1-0.5-0.2-1-0.3-1.5l0-0.3c0-0.1,0-0.1,0-0.2l0-0.2c0-0.1,0.1-0.2,0.1-0.3c0-0.2,0.1-0.5,0.1-0.7c0.1-0.8,0.1-1.7,0.1-2.5
						c0-0.8,0-1.6-0.1-2.4c-0.1-1.2-0.3-2.3-0.5-3.5c-0.1-0.5-0.2-0.9-0.4-1.3c-0.1-0.1-0.1-0.3-0.1-0.4c0-0.1-0.1-0.2-0.1-0.4
						c0-0.2,0-0.3,0.1-0.5c0.1-0.1,0.3,0,0.5,0.1c0.1,0.1,0.2,0.2,0.3,0.3C52.8,2.2,52.9,2.4,53,2.5z"/>
					<path id="Tracé_4001_00000118393716942919865440000012872099795335086226_" class="st0" d="M44.9-18.1c0,0-0.4-0.1-1-0.3
						c-0.4-0.1-1-0.2-1.6-0.3c-0.5-0.1-1-0.1-1.6-0.2c-0.4,0-0.7,0-1.1-0.1c-0.5-0.1-0.9,0.1-1.1,0.5c-0.1,0.5,0.1,0.9,0.5,1.1
						c0.4,0.2,0.7,0.4,1.1,0.6c0.6,0.3,1.1,0.4,1.8,0.5c0.6,0.1,1.2,0.1,1.9,0.1c0.4,0,0.8-0.1,1.3-0.2c0.5,0,0.9-0.4,0.9-0.9
						c0,0,0,0,0,0C45.8-17.7,45.5-18.1,44.9-18.1C45-18.1,44.9-18.1,44.9-18.1"/>
					<path id="Tracé_4002_00000077313808611231139080000006400833090773386650_" class="st7" d="M24.1-24c-0.6-0.4-1.6-3.4-1.5-5.5
						c0.3-7.1,1.8-14,4.3-20.6c3.2-7.6,11.3-11.9,19.4-10.2c0.3,0.1-0.3-0.1,0,0c8.8,2.3,15,9.8,12.8,18.6
						c-1.6,6.4-3.7,12.6-6.2,18.6c-2.2,4.7-6,5.3-6.9,5.4c0,0-0.3,1.6-0.6,2.5c-0.2,0.6-0.7,1.1-1.4,1.1c-6.8-0.8-13.5-2.4-19.9-4.8
						c-0.7-0.2-1-0.9-0.8-1.6L24.1-24"/>
					<path id="Tracé_4003_00000167392542880692499690000001532875139532047747_" class="st0" d="M44.9-18.1c0,0-0.4-0.1-1-0.3
						c-0.4-0.1-1-0.2-1.6-0.3c-0.5-0.1-1-0.1-1.6-0.2c-0.4,0-0.7,0-1.1-0.1c-0.5-0.1-0.9,0.1-1.1,0.5c-0.1,0.5,0.1,0.9,0.5,1.1
						c0.4,0.2,0.7,0.4,1.1,0.6c0.6,0.3,1.1,0.4,1.8,0.5c0.6,0.1,1.2,0.1,1.9,0.1c0.4,0,0.8-0.1,1.3-0.2c0.5,0,0.9-0.4,0.9-0.9
						c0,0,0,0,0,0C45.8-17.7,45.5-18.1,44.9-18.1C45-18.1,44.9-18.1,44.9-18.1"/>
					<path id="Tracé_4004_00000177442783052115697090000011480784440303596973_" class="st0" d="M52.8-64
						c-5.6-2.5-12.3,0.1-14.7,3.5c-6.3-3.7-15.4-1.1-18.1,13.1c-1,4.9-0.7,10,0.9,14.8c0.4,1,1.4,1.5,2.4,1.1c0.1,0,0.2-0.1,0.2-0.1
						c1.2-0.6,2.1-1.6,2.6-2.9c0.9-3.3,0.1-7.7,2.9-7.5c2.1,0.2,1.9,2.6,1,4.5c-1.3,2.7,3.2,3.7,3.3,0.5c2.2-6.5,5.4-3.6,7.8-10
						c0.3-0.9,1.3-1.3,2.2-1c0,0,0.1,0,0.1,0c2.6,1.2,2.3,3.1,8.7,4.3c1.8,0.3,3.2,1.8,3.4,3.6c0.5,4.5,0,9-1.5,13.2
						c-0.2,0.5,0.1,0.9,0.5,1.1c0.3,0.1,0.6,0,0.8-0.1c1.6-1.4,2.9-3.1,3.7-5C69.6-51.1,60.4-60.6,52.8-64"/>
					<path id="Tracé_4005_00000107554273381734817160000008074925556096490636_" class="st0" d="M51.1-34.1c-0.2,0.3-0.4,0.7-0.5,1
						c-0.1,0.4-0.2,0.8-0.2,1.2c-0.2,0.7,0.2,1.3,0.8,1.5c0.6,0.2,1.3-0.2,1.5-0.8c0.2-0.3,0.4-0.7,0.5-1c0.1-0.4,0.2-0.8,0.2-1.2
						c0.2-0.7-0.2-1.3-0.9-1.5C52-35.1,51.3-34.7,51.1-34.1"/>
					<path id="Tracé_4006_00000119083438831114369710000002414776257342813066_" class="st0" d="M38.8-37.3c-0.2,0.3-0.4,0.7-0.5,1
						c-0.1,0.4-0.2,0.8-0.2,1.2c-0.2,0.7,0.2,1.3,0.8,1.5c0.6,0.2,1.3-0.2,1.5-0.8c0.2-0.3,0.4-0.7,0.5-1c0.1-0.4,0.2-0.8,0.2-1.2
						c0.2-0.7-0.2-1.3-0.9-1.5C39.7-38.3,39-37.9,38.8-37.3"/>
					<path id="Tracé_4007_00000026866242120238412970000005848897196225833875_" class="st0" d="M43-23.1c2.1,0.5,4-0.9,4.2-1.6
						c0.1-0.5-0.2-1.1-0.7-1.2c0,0,0,0,0,0c-0.8-0.3-1.6-0.6-2.4-0.8c-0.9-0.2-1.7-0.3-2.6-0.4c-0.6-0.1-1.1,0.2-1.3,0.8
						c0,0,0,0,0,0C40-25.7,41.3-23.5,43-23.1"/>
					<path id="Tracé_4008_00000143600261432804675470000018217432511677256339_" class="st8" d="M109.1,84.4
						c-0.2-2-0.3-3.4-0.3-3.4c0-0.6-0.5-1.1-1.1-1.1c0,0,0,0-0.1,0c-0.6,0-1.1,0.4-1.1,1c0,0,0,0,0,0.1c0,0-0.2,1.6-0.3,3.4
						c-0.4,0-0.7,0.1-1,0.1c-1.4,0.1-2.5,0.2-2.5,0.2c-0.6,0-1.1,0.5-1.1,1.1c0,0.6,0.5,1.1,1.1,1.1c0,0,0,0,0,0c0,0,1,0.2,2.5,0.2
						c0.3,0,0.6,0.1,1,0.1c0,0.4,0.1,0.7,0.1,1c0.1,1.4,0.2,2.4,0.2,2.4c0,0.6,0.5,1.1,1.1,1.1c0,0,0,0,0.1,0c0.6,0,1.1-0.4,1.1-1
						c0,0,0,0,0-0.1c0,0,0.2-1,0.2-2.4c0-0.3,0.1-0.7,0.1-1c1.9-0.2,3.5-0.3,3.5-0.3c0.6,0,1.1-0.5,1.1-1.1c0-0.6-0.5-1.1-1.1-1.1
						c0,0,0,0,0,0C111.5,84.6,110.3,84.5,109.1,84.4"/>
					<path id="Tracé_4009_00000153702735359760145870000014405372503980454072_" class="st8" d="M22.9-88.9
						c-0.2-2.4-0.4-4.2-0.4-4.2c0-0.7-0.6-1.3-1.3-1.3s-1.3,0.6-1.3,1.3c0,0-0.3,1.9-0.4,4.2c-0.5,0-0.9,0.1-1.2,0.1
						c-1.7,0.1-3,0.3-3,0.3c-0.7,0-1.3,0.6-1.3,1.3s0.6,1.3,1.3,1.3c0,0,0,0,0,0c0,0,1.3,0.2,3,0.3c0.4,0,0.8,0.1,1.2,0.1
						c0,0.5,0.1,0.8,0.1,1.2c0.1,1.7,0.3,2.9,0.3,2.9c0,0.7,0.6,1.3,1.3,1.3s1.3-0.6,1.3-1.3c0,0,0.2-1.2,0.3-2.9
						c0-0.4,0.1-0.9,0.1-1.2c2.3-0.2,4.2-0.4,4.2-0.4c0.7,0,1.3-0.6,1.3-1.3s-0.6-1.3-1.3-1.3c0,0,0,0,0,0
						C25.8-88.7,24.3-88.8,22.9-88.9"/>
					<path id="Tracé_4010_00000047749269408814162900000010298211871703373968_" class="st8" d="M-3.5-70.4
						c-0.1-1.4-0.2-2.5-0.2-2.5c0-0.5-0.4-0.8-0.8-0.8c-0.4,0-0.8,0.4-0.8,0.8c0,0-0.2,1.2-0.2,2.5c-0.3,0-0.5,0.1-0.8,0.1
						c-1.1,0.1-1.8,0.2-1.8,0.2c-0.4,0-0.8,0.4-0.8,0.8s0.4,0.8,0.8,0.8c0,0,0.8,0.1,1.8,0.2c0.2,0,0.5,0.1,0.8,0.1
						c0,0.3,0.1,0.5,0.1,0.7c0.1,1,0.2,1.8,0.2,1.8c0,0.5,0.4,0.8,0.8,0.8c0.4,0,0.8-0.4,0.8-0.8c0,0,0.1-0.7,0.2-1.8
						c0-0.2,0.1-0.5,0.1-0.7c1.4-0.1,2.6-0.2,2.6-0.2c0.4,0,0.8-0.4,0.8-0.8c0-0.4-0.4-0.8-0.8-0.8c0,0,0,0,0,0
						C-1.8-70.3-2.6-70.4-3.5-70.4"/>
					<path id="Tracé_4011_00000103258319489361526410000015873864565579619248_" class="st8" d="M90,66.4c-0.1-1.4-0.2-2.5-0.2-2.5
						c0-0.5-0.4-0.8-0.8-0.8c-0.4,0-0.8,0.4-0.8,0.8c0,0-0.2,1.2-0.2,2.5c-0.3,0-0.5,0.1-0.8,0.1c-1.1,0.1-1.8,0.2-1.8,0.2
						c-0.4,0-0.8,0.4-0.8,0.8c0,0.4,0.4,0.8,0.8,0.8c0,0,0.8,0.1,1.8,0.2c0.2,0,0.5,0.1,0.8,0.1c0,0.3,0.1,0.5,0.1,0.7
						c0.1,1,0.2,1.8,0.2,1.8c0,0.5,0.4,0.8,0.8,0.8c0.4,0,0.8-0.4,0.8-0.8c0,0,0.1-0.7,0.2-1.8c0-0.2,0.1-0.5,0.1-0.7
						c1.4-0.1,2.6-0.2,2.6-0.2c0.4,0,0.8-0.4,0.8-0.8c0-0.4-0.4-0.8-0.8-0.8C91.7,66.5,90.8,66.4,90,66.4"/>
				</g>
			</g>
		</g>
		<g id="Groupe_1076_00000127745172885136316370000007982258685720797105_" transform="translate(237.145 136.479)">
			<g>
				<g id="Groupe_1075_00000174559743628476293030000005624827163420615306_" transform="translate(0 0)">
					<path id="Tracé_3887_00000074424815161450826720000014763432428198718352_" class="st0" d="M76.6,61.1
						c-0.3,0.4-0.2,0.9,0.2,1.2c2.5,2,5.3,3.7,8.2,5.1c2.9,1.2,6,0.1,8-1.1c0.6-0.4,1-1,1-1.7c0-0.7-0.3-1.3-0.8-1.8
						c-2.7-2-7.2-5.4-9.7-7.3c-0.9-0.7-2.2-0.5-2.9,0.4C79.4,57.4,77.5,59.9,76.6,61.1z"/>
					<path id="Tracé_3888_00000064316900428074994420000013094666577638727809_" class="st0" d="M64.5,95c-0.5,0.1-0.8,0.5-0.7,1
						c0.5,3.2,1.3,6.3,2.5,9.3c1.3,2.9,4.3,4.1,6.6,4.6c0.7,0.1,1.4-0.1,1.9-0.5c0.5-0.5,0.7-1.2,0.6-1.8c-0.6-3.3-1.6-8.9-2.1-11.9
						c-0.2-1.1-1.3-1.9-2.4-1.7C69,94.2,66,94.8,64.5,95z"/>
					<path id="Tracé_3889_00000168796701165509362020000004901983676457542283_" class="st7" d="M2.6,22.2C1.4,21.9,0.2,21.5-1,21
						c-1.2-0.5-2.4-1-3.5-1.7c-2.3-1.3-4.5-2.9-6.5-4.7c-1-0.9-2-1.9-2.9-2.9c-0.5-0.5-0.9-1-1.3-1.6c-0.2-0.3-0.4-0.5-0.6-0.8
						c0,0-0.4-0.5-0.5-0.7c-1.1-1.7-2.3-5.8-3.6-8.2c-0.9-1.7-3-4.1-4.5-3.5c-1.1,0.5-0.9,2.3,0.1,4c0.1,0.2,0.1,0.5-0.1,0.6
						c-0.1,0.1-0.3,0.1-0.4,0c-3.1-1.5-7.6-4.4-10.9-1.4c-2.2,1.9-1.8,6,2.8,9c2.4,1.7,5.1,3,7.9,3.9l0.2,0.6l0.3,0.6
						c0.2,0.4,0.4,0.8,0.6,1.2c0.4,0.8,0.8,1.6,1.3,2.4c4.6,8,11.6,14.3,19.9,18.2c3.5,1.6,7.1,2.7,10.8,3.5L10,23.1
						C7.5,23.1,5,22.8,2.6,22.2z"/>
					<path id="Tracé_3890_00000148625148900916342920000003741793691513582517_" class="st7" d="M74-22.5c-4.2-1.7-7.4,2.6-9.8,5
						c-0.2,0.2-0.5,0.2-0.6,0c-0.1-0.1-0.2-0.3-0.1-0.4c0.4-1.9-0.1-3.7-1.2-3.8c-1.6-0.1-2.8,2.9-3.1,4.8c-0.4,2.7-0.1,7-0.7,8.9
						c0,0.1-0.1,0.3-0.1,0.3l-0.1,0.5c-0.1,0.3-0.2,0.6-0.3,0.9c-0.2,0.6-0.4,1.3-0.7,1.9c-0.5,1.3-1.1,2.5-1.7,3.7
						C54.4,1.8,52.9,4,51.1,6c-0.9,1-1.8,1.9-2.7,2.7c-1,0.8-2,1.6-3,2.3c-2.1,1.4-4.3,2.5-6.7,3.4L46,29.4c3.3-1.9,6.3-4.3,9-6.9
						c1.3-1.3,2.6-2.7,3.7-4.2c1.1-1.5,2.2-3,3.1-4.6c1.9-3.1,3.3-6.5,4.4-9.9c0.5-1.7,1-3.4,1.3-5.2c0.2-0.9,0.3-1.8,0.4-2.7
						c0.1-0.4,0.1-0.9,0.2-1.4l0.1-0.7l0-0.6c2.8-2.6,3.9-3.3,6.2-6.3C77.7-17.5,76.7-21.4,74-22.5z"/>
					<path id="Tracé_3891_00000127724342118269057590000009970956663756203691_" class="st0" d="M48.4,6.6c-2,1.7-4.2,3.2-6.5,4.4
						c-3.3,1.9-6.9,3.1-10.7,3.6c-4.2,0.5-11.3,3.1-15.6,5c-2,0.9-4.3,1.3-6.5,1.2c-4.2-0.3-8.4-1.2-12.3-2.8C-4,17.7-5,18.2-5.4,19
						c0,0.1-0.1,0.2-0.1,0.2l-3.6,16c-0.2,0.8,0.2,1.6,1,1.9c4.6,1.9,8.2,1.9,12.4,2.2c0.7,11.6,4.3,22.9,10.3,32.8
						c0.5,0.9,1.6,1.4,2.6,1.2c6-1.5,24.6-7,37.3-16.1c0.7-0.6,0.9-1.5,0.7-2.3c-1.4-8.1-3.5-16-6-23.8c-0.1-0.6,0.2-1.2,0.7-1.5
						c3.9-2.5,7.5-5.4,10.8-8.7c0.6-0.6,0.6-1.6,0-2.2l-10-11.9C50.2,6.1,49.2,6,48.4,6.6z"/>
					<path id="Tracé_3892_00000175315911289136660540000012106581167267061916_" class="st4" d="M2.6,35.7c0,0-0.2,0.8-0.3,1.8
						c0,0.6-0.1,1.2-0.1,1.9c0,0.4,0,0.8,0.1,1.1c0.1,0.9,0.3,1.7,0.6,2.6c0,0.3,0.5,0.3,1,0.2c0.5-0.1,0.8-0.4,0.8-0.6
						c0,0-0.1-1.1-0.1-2.3c0-0.3,0-0.7,0-1c0-0.6-0.1-1.2-0.1-1.7c0-1-0.1-1.7-0.1-1.7c0-0.2-0.4-0.4-0.8-0.5
						C3.1,35.3,2.6,35.5,2.6,35.7z"/>
					<path id="Tracé_3893_00000089550065608245630590000006739011734768256398_" class="st3" d="M88.4,71.2
						C84.7,76.6,77,83.3,69.1,85.4c-10.9,2.9-17.4-2.8-21.8-8c-0.8-1-2.2-1.3-3.4-0.7l-2.1,1.2c-0.1,0-0.1,0.1-0.2,0.1h0
						c-1.2,0.7-1.8,2.1-1.3,3.5c0,0.1,0.1,0.2,0.1,0.3c2.3,4.7,5,8.2,9.4,9.9c5,1.9,10.2,1.8,14.6,1.6c0.9,0,1.7,0.7,1.8,1.6
						l0.5,14.7c0.1,0.9-0.6,1.7-1.5,1.8c-8,0.9-15.4,1.1-23.3-2.7c-5.1-2.5-10.5-4.7-19.8-18.3c-5.4-7.9-9.7-19.9-10.7-24.1
						c-0.1-0.6,0.2-1.2,0.8-1.3l2.5-0.8c1.5-0.5,2.3-2,1.8-3.5l-5-16.9c-0.5-1.8,0.5-3.7,2.3-4.3c0,0,0,0,0,0l24.9-7.9
						c1.8-0.5,3.7,0.5,4.3,2.3l4.7,15.9c0.5,1.5,2,2.4,3.6,1.9c0,0,0,0,0.1,0l2.3-0.8c0.6-0.2,1.2,0.1,1.4,0.7c0,0,0,0,0,0.1
						c1.3,4.7,5.1,16.1,10.4,16.2c4.5,0.1,7.9-4.3,9.5-6.8c0.5-0.8,1.6-1,2.3-0.5c0.1,0,0.1,0.1,0.2,0.1c2.3,1.9,8.4,6.7,10.5,8.4
						C88.7,69.5,88.8,70.5,88.4,71.2z"/>
					<path id="Rectangle_591_00000140693053012133895830000005269746165911781000_" class="st3" d="M8.3,19.7l2.6-0.7
						c0.4-0.1,0.9,0.1,1,0.6l7,24.5c0.1,0.4-0.1,0.9-0.6,1l-2.6,0.7c-0.4,0.1-0.9-0.1-1-0.6l-7-24.5C7.7,20.3,7.9,19.8,8.3,19.7z"/>
					<path id="Tracé_3894_00000008128987257340033550000009516699329389608371_" class="st3" d="M38,10.9l1.4,0.1
						c0.8,0.1,1.4,0.7,1.3,1.5c0,0,0,0,0,0l-1.6,24.1c-0.1,0.8-0.7,1.4-1.5,1.3c0,0,0,0,0,0l-1.4-0.1c-0.8-0.1-1.4-0.7-1.3-1.5
						c0,0,0,0,0,0l1.6-24.1C36.5,11.5,37.2,10.9,38,10.9z"/>
					<path id="Tracé_3895_00000158023771092678614230000005994195198513588611_" class="st0" d="M21.1,47.4c0,0,0.2,0.9,0.7,2.4
						c0.2,0.8,0.5,1.7,0.8,2.7c0.3,1,0.7,2.2,1.2,3.4c0.1,0.3,0.2,0.5,0.4,0.8c0.1,0.1,0.2,0.3,0.2,0.4c0.1,0.2,0.2,0.4,0.4,0.6
						c0.2,0.2,0.4,0.3,0.6,0.5c0.2,0.1,0.3,0.1,0.5,0.2c0.3,0.1,0.6,0.2,0.9,0.3c0.6,0.2,1.2,0.3,1.8,0.4c0.6,0.1,1.2,0.2,1.9,0.3
						c0.7,0.1,1.3,0.1,2,0.1c0.2,0,0.5,0,0.7-0.1l0.3-0.1l0.1-0.1l0.1-0.1c0.1-0.1,0.2-0.1,0.3-0.2c0.2-0.1,0.4-0.3,0.5-0.4
						c0.3-0.3,0.7-0.5,1-0.8c0.6-0.6,1.2-1.1,1.8-1.7c0.3-0.3,0.6-0.6,0.9-1l0.2-0.3c0.1-0.1,0.2-0.2,0.2-0.3
						c0.1-0.2,0.2-0.3,0.2-0.5l0.1-0.4c0.1-0.9,0-1.7-0.1-2.6c-0.2-1.5-0.6-2.8-0.8-3.9c-0.6-2.2-0.9-3.5-0.9-3.5
						c-0.3-1.2-0.9-1.9-1.3-1.8c-0.5,0.1-0.6,1.1-0.3,2.2c0,0,0.3,1.4,0.8,3.5c0.2,1.1,0.5,2.4,0.7,3.8c0.1,0.7,0.1,1.3,0.1,2
						c0,0.1,0,0.1,0,0.2s0,0,0,0c0,0.1-0.1,0.2-0.3,0.3c-0.2,0.3-0.5,0.5-0.8,0.8c-0.6,0.5-1.1,1.1-1.7,1.6
						c-0.3,0.3-0.6,0.5-0.9,0.8c-0.2,0.1-0.3,0.2-0.5,0.3c-0.2,0.1-0.3,0.2-0.2,0.2c0,0,0,0-0.2,0c-0.6,0-1.1,0-1.7-0.1
						c-0.6-0.1-1.2-0.1-1.7-0.2c-0.6-0.1-1.1-0.2-1.7-0.3c-0.3-0.1-0.5-0.1-0.7-0.2c-0.1,0-0.2-0.1-0.3-0.1l0,0
						c0-0.1-0.1-0.1-0.1-0.2C26.1,56.1,26,56,26,55.9c-0.1-0.2-0.2-0.4-0.3-0.6c-0.5-1.1-0.9-2.2-1.3-3.2c-0.4-1-0.7-1.9-0.9-2.6
						L22.7,47c-0.3-1.1-0.9-1.9-1.3-1.8C20.9,45.3,20.8,46.4,21.1,47.4z"/>
					<path id="Tracé_3896_00000111171174561407536220000017337225002729289128_" class="st0" d="M16.7,43.9
						c-0.5,0.2-1.1-0.1-1.3-0.6c0,0,0,0,0,0l-0.6-1.9c-0.2-0.5,0.1-1.1,0.7-1.3s1.1,0.1,1.3,0.7l0.6,1.9
						C17.5,43.1,17.2,43.7,16.7,43.9C16.7,43.9,16.7,43.9,16.7,43.9L16.7,43.9z"/>
					<path id="Tracé_3897_00000024722184630486461050000016677903247724557464_" class="st0" d="M37.9,36.9
						c-0.6,0.1-1.1-0.3-1.1-0.9c0,0,0,0,0,0l-0.2-2c-0.1-0.6,0.3-1.1,0.9-1.2c0.6-0.1,1.1,0.3,1.2,0.9c0,0,0,0,0,0.1l0.2,2
						C38.9,36.3,38.6,36.8,37.9,36.9C38,36.9,38,36.9,37.9,36.9"/>
					<path id="Tracé_3898_00000160182773865589803820000001522863597574056602_" class="st0" d="M20.3,68.6c0,0,0,0.1,0,0.2
						c0,0.2,0.1,0.4,0.1,0.7c0.2,1.8-0.1,3.6-0.7,5.3c-0.2,0.6-0.5,1.2-0.7,1.7c-0.5,0.9-1.1,1.7-1.8,2.4c-0.2,0.2-0.5,0.4-0.7,0.6
						l-0.3,0.2c-0.2,0.1-0.3,0.2-0.3,0.4c-0.1,0.2-0.1,0.4,0,0.7c0,0.2,0.2,0.4,0.4,0.5c0.2,0.1,0.5,0.1,0.7,0l0.4-0.2
						c0.1-0.1,0.3-0.2,0.5-0.3c0.2-0.1,0.4-0.2,0.6-0.4c1-0.8,1.9-1.7,2.6-2.8c0.4-0.6,0.8-1.3,1-2.1c0.2-0.6,0.4-1.3,0.5-1.9
						c0.1-0.6,0.2-1.2,0.2-1.8c0-0.5,0-1-0.1-1.5c0-0.4-0.1-0.8-0.2-1.2c0-0.3-0.1-0.5-0.2-0.8c-0.1-0.2-0.1-0.3-0.1-0.3
						c-0.1-0.4-0.6-0.7-1-0.6c0,0,0,0-0.1,0C20.4,67.7,20.1,68.2,20.3,68.6z"/>
					<path id="Tracé_3899_00000007418552112721778010000015587187002630840983_" class="st0" d="M44.2,58.1l0.1,0.3
						c0.1,0.2,0.3,0.4,0.5,0.7c0.6,0.8,1.3,1.5,2,2.2c1.1,0.8,2.4,1.5,3.7,1.8c0.8,0.2,1.6,0.3,2.5,0.3c1.4,0,2.7-0.3,4-0.7
						c0.4-0.1,0.8-0.3,1.1-0.5c0.3-0.1,0.4-0.2,0.4-0.2c0.4-0.2,0.6-0.7,0.4-1.2c0,0,0,0,0-0.1c-0.2-0.4-0.7-0.6-1.2-0.4l-0.1,0
						l-0.3,0.1c-0.3,0.1-0.6,0.2-1,0.3c-1.1,0.3-2.2,0.4-3.3,0.3c-0.7-0.1-1.3-0.2-2-0.3c-1.1-0.3-2.1-0.7-3-1.3
						c-0.7-0.4-1.3-1-1.8-1.6l-0.5-0.5c-0.1-0.1-0.1-0.2-0.1-0.2c-0.3-0.4-0.8-0.5-1.2-0.3c-0.4,0.2-0.6,0.7-0.5,1.1
						C44.1,58,44.1,58,44.2,58.1z"/>
					<path id="Tracé_3900_00000138568532129012167410000013300623844959497359_" class="st0" d="M34.6,85.2
						c0.4,0.6,0.7,1.2,1.1,1.8c0.3,0.5,0.9,0.6,1.4,0.3c0,0,0,0,0,0c0.5-0.3,0.6-0.9,0.3-1.4c-0.4-0.6-0.7-1.1-1.1-1.7
						c-0.3-0.5-0.9-0.6-1.4-0.4C34.5,84,34.3,84.6,34.6,85.2C34.6,85.1,34.6,85.1,34.6,85.2z"/>
					<path id="Tracé_3901_00000175281729846908994420000005506727218506558341_" class="st0" d="M38.3,90.3l0.7,0.8l0.7,0.8
						c0.4,0.4,1,0.4,1.4,0c0,0,0,0,0,0c0.4-0.4,0.4-1,0-1.4l-0.7-0.7L39.9,89c-0.4-0.4-1-0.5-1.4-0.1C38,89.2,37.9,89.9,38.3,90.3
						C38.3,90.3,38.3,90.3,38.3,90.3"/>
					<path id="Tracé_3902_00000168107961984750768890000005479889056772169870_" class="st0" d="M42.9,94.7
						c0.6,0.4,1.1,0.9,1.7,1.2c0.5,0.3,1.1,0.2,1.4-0.2c0,0,0,0,0-0.1c0.3-0.5,0.2-1.1-0.3-1.4c-0.6-0.3-1.1-0.8-1.6-1.1
						c-0.4-0.3-1.1-0.3-1.4,0.2C42.4,93.7,42.4,94.3,42.9,94.7C42.9,94.7,42.9,94.7,42.9,94.7z"/>
					<path id="Tracé_3903_00000067197834969985276800000005361264866573670577_" class="st0" d="M48.4,98c0.7,0.3,1.3,0.5,2,0.8
						c0.3,0.1,0.6,0.1,0.8,0c0.2-0.1,0.4-0.4,0.5-0.6c0.1-0.3,0-0.5-0.1-0.8c-0.1-0.2-0.3-0.4-0.6-0.5c-0.6-0.2-1.2-0.4-1.8-0.7
						c-0.5-0.2-1.1,0-1.3,0.5C47.6,97.1,47.8,97.7,48.4,98C48.3,98,48.3,98,48.4,98z"/>
					<path id="Tracé_3904_00000003793376117441589330000017576829186543690377_" class="st0" d="M54.6,99.8
						c0.7,0.1,1.4,0.2,2.1,0.2c0.6,0,1-0.4,1.1-0.9c0,0,0,0,0-0.1c0-0.6-0.4-1-1-1.1c-0.7,0-1.3-0.1-2-0.2c-0.6-0.1-1.1,0.3-1.2,0.9
						C53.6,99.1,54,99.7,54.6,99.8C54.5,99.8,54.5,99.8,54.6,99.8L54.6,99.8z"/>
					<path id="Tracé_3905_00000106111224212079889030000006917338317393745592_" class="st0" d="M60.9,99.8l1.1-0.1l1-0.2
						c0.5-0.1,0.9-0.6,0.8-1.1c0,0,0,0,0-0.1c-0.1-0.5-0.6-0.9-1.2-0.8l-1,0.2l-1,0.1c-0.6,0.1-1,0.6-0.9,1.1
						C59.9,99.5,60.3,99.9,60.9,99.8C60.9,99.8,60.9,99.8,60.9,99.8"/>
					<path id="Tracé_3906_00000167367496311012994390000009598848401977097372_" class="st0" d="M56,67.2c0.4,0.6,0.8,1.2,1.3,1.7
						c0.3,0.4,1,0.5,1.4,0.2c0,0,0.1,0,0.1-0.1c0.4-0.4,0.4-1,0.1-1.4c-0.4-0.5-0.8-1-1.1-1.5c-0.3-0.5-0.9-0.6-1.4-0.3
						C55.9,66,55.7,66.6,56,67.2C56,67.1,56,67.2,56,67.2z"/>
					<path id="Tracé_3907_00000104668423113145749010000011233750365096155033_" class="st0" d="M60.7,71.7
						c0.7,0.4,1.4,0.7,2.1,0.9c0.5,0.2,1.1-0.1,1.2-0.6c0,0,0-0.1,0-0.1c0.1-0.5-0.2-1-0.7-1.2c-0.6-0.2-1.1-0.4-1.6-0.7
						c-0.5-0.2-1.1-0.1-1.4,0.4c-0.3,0.4-0.2,1,0.2,1.4C60.6,71.7,60.7,71.7,60.7,71.7"/>
					<path id="Tracé_3908_00000164484832273664851800000012851872595590974130_" class="st0" d="M67.2,72.8l1.1-0.2l1-0.3
						c0.5-0.1,0.8-0.7,0.7-1.2c0,0,0-0.1,0-0.1c-0.2-0.5-0.7-0.8-1.3-0.6l-0.9,0.3l-0.9,0.2c-0.5,0.1-0.9,0.6-0.8,1.1
						c0,0.5,0.5,0.9,1,0.9C67.1,72.8,67.2,72.8,67.2,72.8z"/>
					<path id="Tracé_3909_00000158745405340758245090000009631445498994617481_" class="st0" d="M73.3,70.5l0.9-0.6l0.9-0.6
						c0.4-0.3,0.5-0.9,0.2-1.4c0,0,0,0-0.1-0.1c-0.4-0.4-1-0.5-1.4-0.2L73,68.2l-0.8,0.5c-0.5,0.3-0.6,0.9-0.3,1.4
						C72.1,70.6,72.7,70.8,73.3,70.5C73.2,70.5,73.2,70.5,73.3,70.5z"/>
					<path id="Tracé_3910_00000122714137401971540680000011187951058393720230_" class="st0" d="M78.1,66.4
						c0.5-0.5,0.9-1.1,1.4-1.6c0.3-0.4,0.3-1.1-0.2-1.4c0,0,0,0,0,0c-0.4-0.3-1.1-0.2-1.4,0.2c-0.4,0.5-0.8,1-1.3,1.5
						c-0.4,0.4-0.3,1,0.1,1.4C77.1,66.8,77.7,66.8,78.1,66.4C78.1,66.4,78.1,66.4,78.1,66.4z"/>
					<path id="Tracé_3911_00000114039065073744668240000017557805842169136316_" class="st0" d="M41.7,77.9
						c-1.2,0.7-1.8,2.1-1.3,3.5c-0.8,0.2-1.8,0.5-2.1,0.5c-1.7,0.3-3.2,0.5-3.2,0.5c-0.6,0.2-1.3-0.2-1.4-0.8s0.2-1.3,0.8-1.4
						c0,0,1.3-0.6,3-1.2c0.4-0.2,0.9-0.3,1.3-0.4C39.3,78.5,40.7,78.1,41.7,77.9"/>
					<path id="Tracé_3912_00000005975465410091542630000008813304753664500901_" class="st7" d="M27.2-25.1
						c-4.1-4-10.5-4.7-16.9-2.9C4-25.9-0.9-21.8-2.2-16.2c-1.3,5.9,0,11.5,2.4,17.3c3.4,8.3,7,14.1,15.5,15.5c0,0,0.6,2.1,0.9,3.1
						c0.2,0.7,0.9,1.1,1.6,1.1c2.1-0.4,4.3-0.9,6.3-1.6c2.1-0.6,4.1-1.3,6.2-2.2c0.6-0.3,0.9-1.1,0.7-1.7c-0.3-1-1-3.1-1-3.1
						c6.3-5.9,6.1-12.8,4.4-21.5C33.6-15.5,31.6-20.9,27.2-25.1z"/>
					<path id="Tracé_3913_00000057115359334619732330000001307521676050284982_" class="st0" d="M26.1,13.1
						c-0.1-0.4-0.5-0.5-0.9-0.4c-0.1,0-0.2,0.1-0.3,0.2c-0.7,0.6-1.5,1.1-2.3,1.3c-0.8,0.3-1.7,0.3-2.6,0.2c-0.1-0.1-0.3-0.1-0.5,0
						c-0.4,0.1-0.6,0.5-0.5,0.8c0,0.4,0.3,0.7,0.6,0.8c0,0,0.1,0,0.1,0c1.1,0.5,2.4,0.6,3.6,0.3c1.1-0.4,2.1-1.2,2.7-2.2
						C26.2,13.9,26.3,13.5,26.1,13.1z"/>
					<path id="Tracé_3914_00000172408575691910337850000016259675124759416727_" class="st0" d="M23.1-8.9c0,0.5,0,1,0.2,1.5
						c0.1,0.5,0.3,1,0.6,1.4c0.2,0.9,1.1,1.4,1.9,1.2C26.7-5.1,27.2-6,27-6.8c0-0.5,0-1-0.2-1.5c-0.1-0.5-0.3-1-0.6-1.4
						c-0.2-0.9-1.1-1.4-1.9-1.2C23.4-10.7,22.9-9.8,23.1-8.9L23.1-8.9"/>
					<path id="Tracé_3915_00000039127417852575815510000014595544796010382986_" class="st0" d="M7.1-4.4c0,0.5,0,1,0.2,1.5
						c0.1,0.5,0.3,1,0.6,1.4c0.2,0.9,1.1,1.4,1.9,1.2c0.9-0.2,1.4-1.1,1.2-1.9c0-0.5,0-1-0.2-1.5c-0.1-0.5-0.3-1-0.6-1.4
						C10-6,9.1-6.6,8.3-6.4C7.4-6.1,6.9-5.3,7.1-4.4L7.1-4.4"/>
					<path id="Tracé_3916_00000019660429717673238960000008396003301115912863_" class="st0" d="M21.3,8.9C24,8.1,25.2,5.2,25,4.3
						c-0.2-0.7-0.9-1.1-1.7-0.9c0,0,0,0,0,0c-1.1,0.2-2.2,0.4-3.2,0.7c-1.1,0.3-2.2,0.8-3.2,1.3c-0.7,0.2-1.1,1-0.9,1.7c0,0,0,0,0,0
						C16.2,7.9,19.1,9.6,21.3,8.9z"/>
					<path id="Tracé_3917_00000078030669290860110980000000379605281683236026_" class="st0" d="M29.2-37
						c-7.1-4.6-19.7-3.9-24.6,2.8c-7.5-0.7-14.3,6-16.5,13.6C-15.5-7.7-8.7,3.6-0.5,6.8s-1.1-8.3,8.3-18.5c1.5-1.6,2.9-3.2,4.2-4.9
						c0.3-0.4,0.7-0.5,1.1-0.4c2.5,0.6,5.1,1,7.7,1.2c13.8,1.4,13.1,15.3,17.1,7.5S40.4-29.8,29.2-37"/>
					<path id="Tracé_3918_00000181802499051864500290000008575337063650274223_" class="st8" d="M-21-79c0.2-2.6,0.4-4.5,0.4-4.5
						c0-0.8,0.6-1.4,1.4-1.4c0.8,0,1.4,0.6,1.4,1.4c0,0,0.3,2.1,0.4,4.5c0.5,0,0.9,0.1,1.3,0.1c1.8,0.1,3.2,0.3,3.2,0.3
						c0.8,0,1.4,0.6,1.4,1.4s-0.6,1.4-1.4,1.4c0,0-1.3,0.2-3.2,0.3c-0.4,0-0.8,0.1-1.3,0.1c0,0.5-0.1,0.9-0.1,1.3
						c-0.1,1.8-0.3,3.2-0.3,3.2c0,0.8-0.6,1.4-1.4,1.4c-0.8,0-1.4-0.6-1.4-1.4c0,0-0.2-1.3-0.3-3.2c0-0.4-0.1-0.9-0.1-1.3
						c-2.5-0.2-4.5-0.4-4.5-0.4c-0.8,0-1.4-0.6-1.4-1.4c0-0.8,0.6-1.4,1.4-1.4C-24.1-78.8-22.5-79-21-79"/>
					<path id="Tracé_3919_00000137823460806216695930000004360828562248797098_" class="st8" d="M30.3-88.9
						c0.2-2.4,0.4-4.2,0.4-4.2c0-0.7,0.6-1.3,1.3-1.3c0.7,0,1.3,0.6,1.3,1.3c0,0,0,0,0,0c0,0,0.3,1.9,0.4,4.2c0.5,0,0.8,0.1,1.2,0.1
						c1.7,0.1,2.9,0.3,2.9,0.3c0.7,0,1.3,0.6,1.3,1.3c0,0.7-0.6,1.3-1.3,1.3c0,0-1.2,0.2-2.9,0.3c-0.4,0-0.8,0.1-1.2,0.1
						c0,0.5-0.1,0.8-0.1,1.2c-0.1,1.7-0.3,2.9-0.3,2.9c0,0.7-0.6,1.3-1.3,1.3c-0.7,0-1.3-0.6-1.3-1.3c0,0-0.2-1.2-0.3-2.9
						c0-0.4-0.1-0.9-0.1-1.2c-2.3-0.2-4.2-0.4-4.2-0.4c-0.7,0-1.3-0.6-1.3-1.3s0.6-1.3,1.3-1.3c0,0,0,0,0,0
						C27.5-88.7,28.9-88.8,30.3-88.9"/>
					<path id="Tracé_3920_00000044162503686862717160000010081874895643025299_" class="st8" d="M-8-56c0.1-1.4,0.2-2.5,0.2-2.5
						c0-0.4,0.4-0.8,0.8-0.8s0.8,0.4,0.8,0.8c0,0,0.2,1.2,0.2,2.5c0.3,0,0.5,0.1,0.7,0.1c1,0.1,1.8,0.2,1.8,0.2
						c0.4,0,0.8,0.4,0.8,0.8c0,0.4-0.4,0.8-0.8,0.8c0,0-0.7,0.1-1.8,0.2C-5.5-54-5.7-54-6-54c0,0.3-0.1,0.5-0.1,0.7
						c-0.1,1-0.2,1.8-0.2,1.8c0,0.4-0.4,0.8-0.8,0.8s-0.8-0.4-0.8-0.8c0,0-0.1-0.7-0.2-1.8C-8-53.4-8-53.7-8-54
						c-1.4-0.1-2.5-0.2-2.5-0.2c-0.4,0-0.8-0.4-0.8-0.8c0-0.4,0.4-0.8,0.8-0.8l0,0C-9.7-55.9-8.9-56-8-56"/>
				</g>
			</g>
		</g>
	</g>
</g>
<g id="TEXTES_FR">
</g>
<g id="TEXTES_GB">
</g>
</svg>
