<?xml version="1.0" encoding="UTF-8"?>
<svg id="Calque_2" data-name="Calque 2" xmlns="http://www.w3.org/2000/svg" width="8" height="6" viewBox="0 0 8 6">
  <g id="ILLUSTRATIONS">
    <path id="Path_6968" data-name="Path 6968" d="m5.5428287,3.8823458l-1.4047969.7610196c-.0808406.0565543-.1955511.0565543-.2763917,0L.1589134,2.6406828c-.1892293-.1403954-.2128215-.3887024-.0526869-.5546103.0160723-.0166525.0336956-.0321036.0526869-.0461949L3.8616401.037195c.0477376-.0312403.108184-.0435822.1667482-.034046.0405575.0034627.0796512.0151169.1142094.034046l3.7027268,2.0026826c.1892293.1463161.207345.3994246.0404617.5653325-.0126304.0125538-.0261409.024401-.0404617.0354727l-.6521448.3534741v1.3538127c-.0079947.2873856-.4271504.4746367-.5813336.1552086-.0256703-.0485441-.037804-.1017427-.0354034-.1552086v-1.0193651l-.4111609.2222979v1.4649617c-.0135628.14496-.1040929.2758861-.2444127.3534741-.803801.6130572-1.9238542.7951936-2.924949.4756375-.3622557-.1357104-.6994511-.3179499-1.0004892-.5407252-.0849927-.0791255-.1383113-.1803506-.1519002-.2883864v-.3504698c-.0023222-.0530324.0094064-.1058146.034262-.1542059.0521031-.1322496.2166163-.2024272.3674577-.156748.067853.0205487.1245525.0625036.1590541.1176961.0405663.057958.0600804.1253548.0559632.1932597v.1692273c.6313715.4704941,1.4950221.6219345,2.2842234.4005361.2804-.0949491.5435557-.2251513.7812022-.3865174l.0262672-.017023-.0091319-.9492734Zm1.2848757-1.441932l.1884495-.1001345L3.9998382.7070911.9835225,2.3402793l3.0163157,1.634189,1.859356-1.0073499-1.9027585-.3004016c-.0627555-.0156918-.1198079-.0453603-.1656067-.0861158-.1781674-.1782383-.0902252-.5767728.2169997-.5797771h.0365449l2.7833309.4395899Z" style="fill: #fff;"/>
  </g>
</svg>