<?xml version="1.0" encoding="utf-8"?>
<!-- Generator: Adobe Illustrator 26.2.1, SVG Export Plug-In . SVG Version: 6.00 Build 0)  -->
<svg version="1.1" xmlns="http://www.w3.org/2000/svg" xmlns:xlink="http://www.w3.org/1999/xlink" x="0px" y="0px"
	 viewBox="0 0 183.572998 318.6759644" style="enable-background:new 0 0 183.572998 318.6759644;" xml:space="preserve">
<style type="text/css">
	.st0{fill:url(#FOND_00000117641391952620959720000017271487395867212697_);}
	.st1{fill:url(#FOND_00000030472143657182329030000014845992251261762979_);}
	.st2{fill:#FFF5F7;}
	.st3{fill:url(#FOND_00000090272413177760737310000001098314928967366034_);}
	.st4{fill:url(#FOND_00000130608498952840784380000012481141787942739380_);}
	.st5{fill:url(#FOND_00000173866307568660399090000015848663977621033092_);}
	.st6{fill:url(#FOND_00000044143524664252721590000008010263935214078906_);}
	.st7{fill:url(#FOND_00000131347415152163071670000002299704826611009178_);}
	.st8{fill:url(#FOND_00000168802164961768752320000003369780693226227342_);}
	.st9{fill:url(#FOND_00000129888338726706880220000016273453083294120836_);}
	.st10{fill:url(#FOND_00000126325621676962628920000000100931736258117532_);}
	.st11{fill:url(#FOND_00000005241200513504878840000009230120409925931173_);}
	.st12{fill:#272F60;}
	.st13{fill:#FD657C;}
	.st14{fill:url(#FOND_00000061438200088371332960000005526294526725818525_);}
	.st15{fill:#F4AAB9;}
	.st16{clip-path:url(#Rectangle_10_00000079470090674486806110000008949603399641842582_);}
	.st17{fill:#FB657C;}
	.st18{fill:#FFFFFF;}
	.st19{fill:#FFBCC6;}
	.st20{clip-path:url(#SVGID_00000088098962691052459970000006647878193167338413_);}
	.st21{enable-background:new    ;}
	.st22{fill:#FB657C;stroke:#FD657C;stroke-width:3.8352001;stroke-linecap:round;stroke-linejoin:round;stroke-miterlimit:1.4382;}
	.st23{fill:#FFBCC6;stroke:#FFBCC6;stroke-width:3.8352001;stroke-linecap:round;stroke-linejoin:round;stroke-miterlimit:1.4382;}
	.st24{clip-path:url(#SVGID_00000163776100558753554540000015680072640575402663_);fill:#FB657C;}
	.st25{clip-path:url(#SVGID_00000030445136432681806060000002479592320107508357_);fill:#FFBCC6;}
	.st26{clip-path:url(#SVGID_00000059296563149928384280000006971933500104224157_);fill:#FFBCC6;}
	.st27{clip-path:url(#SVGID_00000006695720160303968430000003921720053486604939_);fill:#FFBCC6;}
	.st28{clip-path:url(#SVGID_00000011733456840392123400000014122986451249775511_);fill:#FFBCC6;}
	.st29{clip-path:url(#SVGID_00000179618922339155012060000003535175273604828045_);fill:#FFBCC6;}
	.st30{clip-path:url(#SVGID_00000049935400791998652890000010487163073652829375_);fill:#FFBCC6;}
	.st31{clip-path:url(#SVGID_00000109729900046382648870000013412490962512081288_);fill:#FFBCC6;}
	.st32{clip-path:url(#SVGID_00000116956060800723264250000016109999267103480726_);fill:#272F60;}
	.st33{clip-path:url(#SVGID_00000116956060800723264250000016109999267103480726_);fill:#FB657C;}
	.st34{clip-path:url(#SVGID_00000116956060800723264250000016109999267103480726_);fill:#FFBCC6;}
	.st35{clip-path:url(#SVGID_00000116956060800723264250000016109999267103480726_);fill:#FFFFFF;}
	.st36{fill:none;}
	.st37{clip-path:url(#SVGID_00000005256802376759167570000011043780042212167568_);fill:#FFFFFF;}
	.st38{clip-path:url(#SVGID_00000054980772661478082140000017653777906700207294_);fill:#FFFFFF;}
	.st39{clip-path:url(#SVGID_00000153707137402347623740000015314923774096623026_);fill:#FFFFFF;}
	.st40{clip-path:url(#SVGID_00000037663810175957243390000006071367101201344654_);fill:#FFFFFF;}
	.st41{clip-path:url(#SVGID_00000137132033884627637320000004461029203196236169_);fill:#FFFFFF;}
	.st42{clip-path:url(#SVGID_00000142894429497870939610000006889521256902415295_);fill:#FFFFFF;}
	.st43{clip-path:url(#SVGID_00000173879169605203873300000001319321232761840825_);fill:#FFFFFF;}
	.st44{clip-path:url(#SVGID_00000160173501261158392760000006939977840457489539_);fill:#FFFFFF;}
	.st45{clip-path:url(#SVGID_00000029753028317815132770000010402537976158921861_);fill:#FFFFFF;}
	.st46{clip-path:url(#SVGID_00000179615333581120590510000007009332907860466324_);fill:#FFFFFF;}
	.st47{clip-path:url(#SVGID_00000060749684715045629150000014832779042310295984_);fill:#FFFFFF;}
	.st48{clip-path:url(#SVGID_00000067197037426043060110000001835184373946983841_);fill:#FFFFFF;}
	.st49{clip-path:url(#SVGID_00000043442228778317931020000010320269790418484878_);fill:#FB657C;}
	.st50{clip-path:url(#SVGID_00000125603613202318572930000017432072154259347633_);fill:#FFFFFF;}
	.st51{clip-path:url(#SVGID_00000070100074936699872490000017362310415070568363_);fill:#FFFFFF;}
	.st52{fill:#FF647B;}
	.st53{fill:#FF657C;}
	.st54{clip-path:url(#SVGID_00000003824113167368592820000015673608554844298417_);}
	.st55{clip-path:url(#SVGID_00000179648374238060910320000000771973192182220953_);}
	.st56{clip-path:url(#SVGID_00000116922109050962389040000008380326396236478127_);}
	.st57{clip-path:url(#SVGID_00000016793554107918700320000006651362638935332526_);}
	.st58{fill:none;stroke:#272E5F;stroke-width:3;}
	.st59{clip-path:url(#SVGID_00000059278636065360898270000012045415242440131736_);}
	.st60{fill:#E94B67;}
	.st61{fill:#FFF5F7;stroke:#272E5F;stroke-width:2;}
	.st62{fill:none;stroke:#272E5F;stroke-width:2;stroke-linecap:round;stroke-linejoin:round;stroke-miterlimit:10;}
	.st63{fill:none;stroke:#272E5F;stroke-width:2;}
	.st64{fill:none;stroke:#272E5F;stroke-width:3;stroke-linecap:round;stroke-linejoin:round;stroke-miterlimit:10;}
	.st65{fill:none;stroke:#142664;stroke-width:2;stroke-linecap:round;stroke-linejoin:round;stroke-miterlimit:10;}
	.st66{clip-path:url(#SVGID_00000127739941223243375680000000431207879154636730_);}
	.st67{clip-path:url(#SVGID_00000168105114980042760550000008849623508785616044_);}
	.st68{clip-path:url(#SVGID_00000151539018372444420370000003478212831266816941_);fill:#FD657C;}
	.st69{clip-path:url(#SVGID_00000118382554926954736560000003315737811211161528_);fill:#FD657C;}
	.st70{clip-path:url(#SVGID_00000173162497234970621890000002370528001874120100_);}
	.st71{clip-path:url(#SVGID_00000071520569361551843820000017607961156369116593_);}
	.st72{clip-path:url(#SVGID_00000134957613396331507300000004454730712366949797_);}
	.st73{fill:none;stroke:#142664;stroke-width:3;stroke-linecap:round;stroke-linejoin:round;}
	.st74{clip-path:url(#SVGID_00000119816751212661795460000008049977124483320240_);}
	.st75{clip-path:url(#SVGID_00000113329476648822236550000008213489635258458765_);}
	.st76{clip-path:url(#SVGID_00000134233779455882966250000012502951823008249486_);}
	.st77{clip-path:url(#SVGID_00000024699799394004064490000010529687053123802755_);}
	.st78{clip-path:url(#SVGID_00000137819308569243643810000002984341112200131723_);}
	.st79{clip-path:url(#SVGID_00000069356974863075617060000016633560828585545862_);}
	.st80{clip-path:url(#SVGID_00000026151139475635641500000011269182279075687084_);}
	.st81{clip-path:url(#SVGID_00000052099914986657092660000003480144913908947647_);}
	.st82{clip-path:url(#SVGID_00000148656148308920551140000017819308633904838801_);}
	.st83{clip-path:url(#SVGID_00000029750128793125361130000005998225208454866869_);}
	.st84{clip-path:url(#SVGID_00000164513496090075845550000003713122754852463790_);}
	.st85{clip-path:url(#SVGID_00000061451325533601200530000000518933831552170158_);}
	.st86{clip-path:url(#SVGID_00000031905549217423380710000005200414495031416491_);}
	.st87{clip-path:url(#SVGID_00000108270075437463003020000011350343981372641450_);}
	.st88{clip-path:url(#SVGID_00000101078375560145223960000008187973737539302575_);}
	.st89{clip-path:url(#SVGID_00000036215371506118675470000008445993781899272382_);}
	.st90{clip-path:url(#SVGID_00000096056768136611284670000009959154024968891827_);}
	.st91{clip-path:url(#SVGID_00000010310007134290133510000010370672397148004240_);}
	.st92{clip-path:url(#SVGID_00000039829833831714591880000009921908740881933450_);}
	.st93{clip-path:url(#SVGID_00000143608349050570812140000014777102564993837463_);}
	.st94{clip-path:url(#SVGID_00000160895964951003917870000006720922548376832132_);}
	.st95{clip-path:url(#SVGID_00000054974332411860295080000015729677401570300085_);}
	.st96{clip-path:url(#SVGID_00000125594839241914858030000014381756331233550268_);}
	.st97{clip-path:url(#SVGID_00000029008257095735681470000003206359988596306833_);}
	.st98{clip-path:url(#SVGID_00000079446443666578274500000009154171517347769266_);}
	.st99{clip-path:url(#SVGID_00000072274955161599121500000017297458401044441779_);}
	.st100{clip-path:url(#SVGID_00000100370129274875289550000017292133305262320818_);}
	.st101{clip-path:url(#SVGID_00000140727152405026630170000005084635984951953576_);}
	.st102{clip-path:url(#SVGID_00000178170403266163188670000006368987750296561546_);}
	.st103{clip-path:url(#SVGID_00000168799313253013452530000000036744471124984721_);}
	.st104{clip-path:url(#SVGID_00000013897128270521741840000000711670625438222979_);}
	.st105{clip-path:url(#SVGID_00000026131696707905007750000006982290396659957678_);}
	.st106{clip-path:url(#SVGID_00000161629400389153725690000001049223821206286471_);}
	.st107{clip-path:url(#SVGID_00000155120071821869150670000006471571308384813720_);}
	.st108{clip-path:url(#SVGID_00000053516971437408194590000006298183409294473351_);}
	.st109{clip-path:url(#SVGID_00000150099367753617706510000001034678486196930987_);}
	.st110{clip-path:url(#SVGID_00000101064022059171584660000009802823126390130599_);}
	.st111{clip-path:url(#SVGID_00000141431307472504361830000015252499614333955975_);}
	.st112{clip-path:url(#SVGID_00000103255023114067828910000010450070075125267623_);}
	.st113{clip-path:url(#SVGID_00000072246182310255550410000018418612742937356685_);}
	.st114{clip-path:url(#SVGID_00000107586014083108949970000003782968504754797232_);}
	.st115{clip-path:url(#SVGID_00000137827997998111658060000003152854449692549550_);}
	.st116{clip-path:url(#SVGID_00000121264775383463243650000012595166939184076181_);}
	.st117{fill:#FFFFFF;stroke:#142664;stroke-width:3;stroke-linecap:round;stroke-linejoin:round;}
	.st118{clip-path:url(#SVGID_00000051348363941248648660000006731224936455487616_);}
	.st119{fill-rule:evenodd;clip-rule:evenodd;fill:#FFBCC6;}
	.st120{fill-rule:evenodd;clip-rule:evenodd;fill:#272F60;}
	.st121{fill-rule:evenodd;clip-rule:evenodd;fill:#FFFFFF;}
	.st122{fill-rule:evenodd;clip-rule:evenodd;fill:#FB657C;}
	.st123{clip-path:url(#SVGID_00000057835267709645081110000003810607986282224531_);}
	.st124{clip-path:url(#SVGID_00000069390932078405623140000000041795824600679849_);}
	.st125{clip-path:url(#SVGID_00000070095662413560563110000005624458821899049650_);}
	.st126{clip-path:url(#SVGID_00000127017997190304115160000010333655713051922354_);}
	.st127{clip-path:url(#SVGID_00000018229858444507577410000002804873840107881364_);}
	.st128{clip-path:url(#SVGID_00000163781486668959701540000017811815484396420767_);}
	.st129{clip-path:url(#SVGID_00000054985155104224564680000013567724371899424386_);}
	.st130{clip-path:url(#SVGID_00000128456977422903496340000011873656067646587275_);}
	.st131{clip-path:url(#SVGID_00000036231770600361900760000002404356666415430047_);}
	.st132{clip-path:url(#SVGID_00000047747376341478266990000003423596388270228378_);}
	.st133{clip-path:url(#SVGID_00000072983169560065602590000003276158986941207192_);}
	.st134{clip-path:url(#SVGID_00000177474026260426120180000003308866690416881293_);}
	.st135{clip-path:url(#SVGID_00000178169491307793720500000008505538870114852013_);}
	.st136{clip-path:url(#SVGID_00000043425119084455287830000000739251813640001708_);}
	.st137{clip-path:url(#SVGID_00000034077422276411885970000012217719761381129883_);}
	.st138{clip-path:url(#SVGID_00000084488240022468804890000002902132567010493074_);}
	.st139{clip-path:url(#SVGID_00000082329787835230883740000014159396310680936122_);}
	.st140{clip-path:url(#SVGID_00000175315773471812752150000000653514566537419142_);}
	.st141{clip-path:url(#SVGID_00000170268344293830805410000014951946761082474670_);}
	.st142{clip-path:url(#SVGID_00000160885589554385954950000004641475077619994541_);}
	.st143{clip-path:url(#SVGID_00000049907730007987845810000012075438782998858626_);}
	.st144{clip-path:url(#SVGID_00000028299152363464510360000013606840107696202936_);}
	.st145{clip-path:url(#SVGID_00000172408152213731418890000011486889934365128592_);}
	.st146{clip-path:url(#SVGID_00000030485627421588111700000010940877707768507569_);}
	.st147{clip-path:url(#SVGID_00000093873571247167132630000003591340260531712428_);}
	.st148{clip-path:url(#SVGID_00000156563616980215119670000004591143577563976115_);}
	.st149{clip-path:url(#SVGID_00000167378169788100055310000012858769404504690851_);}
	.st150{clip-path:url(#SVGID_00000160911564262227288050000009549379830393344656_);}
	.st151{clip-path:url(#SVGID_00000075146832470164660030000001904874571427565454_);}
	.st152{clip-path:url(#SVGID_00000098191488621519499850000008971344044981002173_);}
	.st153{clip-path:url(#SVGID_00000010304579766359761510000006472179205917359753_);}
	.st154{clip-path:url(#SVGID_00000142856046775500394520000008891055940090790076_);}
	.st155{clip-path:url(#SVGID_00000067936845129111313400000012483311868641794216_);}
	.st156{clip-path:url(#SVGID_00000004539184570776199880000006189675282450986663_);}
	.st157{clip-path:url(#SVGID_00000022530099540673848840000002667540526836463507_);}
	.st158{clip-path:url(#SVGID_00000086692662676673643470000002513211689023160204_);}
	.st159{clip-path:url(#SVGID_00000062902058323943532210000013034551404792521091_);}
	.st160{clip-path:url(#SVGID_00000070830880546790272540000014557126971962972290_);}
	.st161{clip-path:url(#SVGID_00000121240161976083120250000000358106385702384794_);}
	.st162{clip-path:url(#SVGID_00000154413471929778484740000004786503166950972078_);}
	.st163{clip-path:url(#SVGID_00000079454365319388985600000010912246065869044108_);}
	.st164{clip-path:url(#SVGID_00000134249794534530002280000007679518482610578616_);}
	.st165{clip-path:url(#SVGID_00000163055031022369973710000015530278213286564002_);}
	.st166{clip-path:url(#SVGID_00000077304251888964983190000012745802359876001175_);}
	.st167{clip-path:url(#SVGID_00000136409664338892462210000003614382658972556735_);}
	.st168{clip-path:url(#SVGID_00000158020308176462468410000010114836014668501943_);}
	.st169{clip-path:url(#SVGID_00000050658632689207674550000012382127302560379520_);}
	.st170{clip-path:url(#SVGID_00000175312708886480834390000017999250562878136449_);}
	.st171{clip-path:url(#SVGID_00000079467494132556971350000009423361198204877961_);}
	.st172{clip-path:url(#SVGID_00000036971451842728717250000003311770773204933818_);}
	.st173{clip-path:url(#SVGID_00000102545881931207695130000013623409474044530829_);}
	.st174{clip-path:url(#SVGID_00000174573575668527234150000004068118840364768674_);}
	.st175{clip-path:url(#SVGID_00000124849648958165354830000008206616955216261536_);}
	.st176{clip-path:url(#SVGID_00000036223548403366483610000009106521528197660311_);}
	.st177{clip-path:url(#SVGID_00000007411888933730417980000009472925818062540177_);}
	.st178{clip-path:url(#SVGID_00000167392168754539383410000010715330318877416351_);}
	.st179{clip-path:url(#SVGID_00000038397976881934208440000007187940875800912310_);}
	.st180{clip-path:url(#SVGID_00000065778167772360319720000000262047283097023638_);}
	.st181{clip-path:url(#SVGID_00000129914267261376096940000008859617341703494065_);}
	.st182{clip-path:url(#SVGID_00000166654346617005084520000004097718081976421778_);}
	.st183{clip-path:url(#SVGID_00000071561167876392032200000001053309967893063322_);}
	.st184{clip-path:url(#SVGID_00000181086555379369847350000000293164148330851481_);}
	.st185{clip-path:url(#SVGID_00000044146797069473611660000008452331947179620738_);}
	.st186{clip-path:url(#SVGID_00000024717128468374719630000001363113563746100643_);}
	.st187{clip-path:url(#SVGID_00000131355397245221250870000009298476782005107113_);}
	.st188{clip-path:url(#SVGID_00000006678786777980129720000012386164057668694952_);}
	.st189{clip-path:url(#SVGID_00000176723638333379288950000006319774458496425404_);}
	.st190{clip-path:url(#SVGID_00000152253838089831894440000001880444965470284190_);}
	.st191{clip-path:url(#SVGID_00000124120765445831433760000012468139754151991697_);}
	.st192{clip-path:url(#SVGID_00000113338165241117929880000017314164433671839159_);}
	.st193{clip-path:url(#SVGID_00000088846503318336369170000008829589055698699691_);}
	.st194{clip-path:url(#SVGID_00000111152582358099449190000018249888799575627938_);}
	.st195{clip-path:url(#SVGID_00000058590077642342470690000005296569223000916610_);}
	.st196{clip-path:url(#SVGID_00000148663184313469947240000002197218395666374557_);}
	.st197{clip-path:url(#SVGID_00000088830459729887688340000010198403983525255573_);}
	.st198{clip-path:url(#SVGID_00000125587304446448514800000018170361119395709829_);}
	.st199{clip-path:url(#SVGID_00000077312497206905021860000015037285705982555030_);}
	.st200{clip-path:url(#SVGID_00000140724251001033127480000014644662991586670515_);}
	.st201{clip-path:url(#SVGID_00000019650299571217984070000005080542920183786409_);}
	.st202{clip-path:url(#SVGID_00000084500852898107319290000014512854526559526835_);}
	.st203{clip-path:url(#SVGID_00000164497862426486721000000010980034665629611140_);}
	.st204{clip-path:url(#SVGID_00000134243523189568318880000014168644055945561734_);}
	.st205{clip-path:url(#SVGID_00000124860563857041804020000004646826744285752209_);}
	.st206{clip-path:url(#SVGID_00000101067173160348177080000018382206571747495556_);}
	.st207{clip-path:url(#SVGID_00000142143371917256164040000015981077495975634304_);}
	.st208{clip-path:url(#SVGID_00000031202904445834156330000016108930318001850777_);}
	.st209{clip-path:url(#SVGID_00000136387157373366920280000012637049848395302299_);}
	.st210{clip-path:url(#SVGID_00000013878111822258302690000011822236946734254753_);}
	.st211{clip-path:url(#SVGID_00000008137826597321016600000006810511027057964472_);}
	.st212{clip-path:url(#SVGID_00000059998878165747405420000010873489620390538411_);}
	.st213{clip-path:url(#SVGID_00000127013738981645784630000013372120760429882023_);}
	.st214{clip-path:url(#SVGID_00000049900660574085948320000001646044544830957484_);}
	.st215{clip-path:url(#SVGID_00000170974971468358802610000001129012821633555871_);}
	.st216{clip-path:url(#SVGID_00000152965194820705699070000008971070299069361067_);}
	.st217{clip-path:url(#SVGID_00000065040596999993314980000009467056072329347744_);}
	.st218{clip-path:url(#SVGID_00000106869241275981996330000012545736616797597360_);}
	.st219{clip-path:url(#SVGID_00000132792176096571289510000014886204556974123154_);}
	.st220{clip-path:url(#SVGID_00000067217185879626019890000007675012292872516249_);}
	.st221{clip-path:url(#SVGID_00000179640528509112792480000010923290619208388023_);}
	.st222{clip-path:url(#SVGID_00000139975588079659725410000004908557927961527997_);}
	.st223{clip-path:url(#SVGID_00000141447113078593279180000015842357127651521972_);}
	.st224{clip-path:url(#SVGID_00000049218906316325340550000009591956180092246689_);}
	.st225{clip-path:url(#SVGID_00000106854475291048248280000009331450216503587742_);}
	.st226{clip-path:url(#SVGID_00000162327936960119529120000008841686421571179930_);}
	.st227{clip-path:url(#SVGID_00000061469761751986614520000015353299832702674322_);}
	.st228{clip-path:url(#SVGID_00000129893454897148753720000002347201477790610851_);}
	.st229{clip-path:url(#SVGID_00000016773115979700641990000001173034692429054851_);}
	.st230{clip-path:url(#SVGID_00000004523429712682493030000011944344727740320698_);}
	.st231{clip-path:url(#SVGID_00000178204366979887005400000013203204169263357579_);}
	.st232{clip-path:url(#SVGID_00000161613917699429124550000008971754238171220123_);}
	.st233{clip-path:url(#SVGID_00000082360028761531795760000017119592852262737071_);}
	.st234{clip-path:url(#SVGID_00000062164706116913296380000009352928420310578570_);}
	.st235{clip-path:url(#SVGID_00000028288715874111450830000010558295848617957762_);}
	.st236{clip-path:url(#SVGID_00000055684611456204204310000018314613071459923105_);}
	.st237{clip-path:url(#SVGID_00000001625480362429341530000005313038370881574834_);}
	.st238{clip-path:url(#SVGID_00000034052879365283351480000008630270036714517905_);}
	.st239{clip-path:url(#SVGID_00000116193575706742654510000015295177109214860943_);}
	.st240{clip-path:url(#SVGID_00000044159667272153452820000011776660970958158269_);}
	.st241{clip-path:url(#SVGID_00000114770500757342376550000011056713402357817270_);}
	.st242{clip-path:url(#SVGID_00000008857027220681076490000003283874713659351465_);}
	.st243{clip-path:url(#SVGID_00000078041271518054739470000000046243470410692001_);}
	.st244{clip-path:url(#SVGID_00000005985668727510071220000009085809178371450240_);}
	.st245{clip-path:url(#SVGID_00000156588253991347595430000007180408632989504398_);}
	.st246{clip-path:url(#SVGID_00000023242227850127175230000009053113065198413454_);}
	.st247{clip-path:url(#SVGID_00000011737658914264987460000011268569360677738126_);}
	.st248{clip-path:url(#SVGID_00000166676926097569328550000014568758373398838917_);}
	.st249{clip-path:url(#SVGID_00000003795202548085878030000003564681524813111443_);}
	.st250{clip-path:url(#SVGID_00000000221414251245041430000008937985499783595170_);}
	.st251{clip-path:url(#SVGID_00000158723701194610223110000011037965025798263739_);}
	.st252{clip-path:url(#SVGID_00000084527704816257805600000017617489741664624784_);}
	.st253{fill:#E94966;}
	.st254{fill:#13224F;}
	.st255{fill:url(#);}
	.st256{clip-path:url(#SVGID_00000023273237981777608550000003388968804059983005_);}
	.st257{fill:#FFCE00;}
	.st258{fill-rule:evenodd;clip-rule:evenodd;fill:#FD657C;}
	.st259{clip-path:url(#SVGID_00000166666231925712787060000007298159106383243394_);}
	.st260{fill:url(#SVGID_00000134237406043728906530000010910861225164489092_);}
	.st261{fill:#FFFFFF;stroke:#FFFFFF;stroke-width:10;}
	.st262{fill:none;stroke:#272F60;stroke-width:3;stroke-linecap:round;stroke-linejoin:round;}
	.st263{clip-path:url(#SVGID_00000146484253970144080120000003628206519313066173_);}
	.st264{fill:none;stroke:#FFFFFF;stroke-width:5;}
	.st265{fill:#3580F8;}
	.st266{clip-path:url(#SVGID_00000112614048198055741490000002886914303035866243_);}
	.st267{fill:#FDF2F5;}
	.st268{clip-path:url(#SVGID_00000025401079147637552160000002772818980460576701_);}
	.st269{fill:#44C400;}
	.st270{clip-path:url(#SVGID_00000017485033166886453350000015441397178872029099_);}
	.st271{clip-path:url(#SVGID_00000140014102670092169440000017877123885965530801_);}
	.st272{clip-path:url(#SVGID_00000065049850550205058310000015204288601837906366_);}
	.st273{fill:#F1AAB9;}
	.st274{fill:#E34C6A;}
	.st275{clip-path:url(#SVGID_00000068638794680434636740000007716280873802733715_);}
	.st276{clip-path:url(#SVGID_00000161627398658981316750000001311593117887229827_);}
	.st277{clip-path:url(#SVGID_00000173122538448546672960000013410590145547040143_);}
	.st278{clip-path:url(#SVGID_00000150099029630567622780000018002802588141298059_);}
	.st279{clip-path:url(#SVGID_00000173128417405675301670000002763319064967257276_);}
	.st280{clip-path:url(#SVGID_00000145765561879526281110000001360232993554781615_);}
	.st281{clip-path:url(#SVGID_00000013908318911529412690000004321406876206121344_);}
	.st282{clip-path:url(#SVGID_00000057857913353351992170000007392674140322697884_);}
	.st283{display:none;}
	.st284{display:inline;}
	.st285{display:inline;enable-background:new    ;}
	.st286{clip-path:url(#SVGID_00000096054591186979076540000011862606339091204482_);}
	.st287{clip-path:url(#SVGID_00000002372084174757089330000005459337403746548623_);}
	.st288{clip-path:url(#SVGID_00000130647802902172255040000004961263355622554785_);}
	.st289{clip-path:url(#SVGID_00000111913043200979616280000008965921104593115552_);}
	.st290{fill:none;stroke:#FFFFFF;stroke-miterlimit:10;}
	.st291{clip-path:url(#SVGID_00000171705465727187280590000004769950741111893905_);}
	.st292{clip-path:url(#SVGID_00000111177833186425978180000018119678873652619399_);}
	.st293{clip-path:url(#SVGID_00000076599973692780495560000007799682490873333431_);}
	.st294{clip-path:url(#SVGID_00000073684027893660382940000012277352809236736445_);}
	.st295{clip-path:url(#SVGID_00000142865026095456107590000015869132362167291270_);}
	.st296{clip-path:url(#SVGID_00000023262141968184190620000014923154850101963187_);}
	.st297{clip-path:url(#SVGID_00000072238193075381741450000003467438655063520401_);}
	.st298{clip-path:url(#SVGID_00000039104344173121402810000004837925918587115177_);}
	.st299{clip-path:url(#SVGID_00000109732353551265067280000018391029188281078946_);}
	.st300{clip-path:url(#SVGID_00000103982414477986303710000009239863332723828403_);}
	.st301{clip-path:url(#SVGID_00000132052507216357301590000009551062682186953658_);}
	.st302{clip-path:url(#SVGID_00000070835614463752514290000014576330042645012117_);}
	.st303{clip-path:url(#SVGID_00000183958752387368665950000005168605563473329066_);}
	.st304{clip-path:url(#SVGID_00000158718321747928187020000004000546861811284921_);}
	.st305{clip-path:url(#SVGID_00000026157286880111485310000014423074845915223449_);}
	.st306{clip-path:url(#SVGID_00000157302149589793092890000010138276486093809836_);}
	.st307{fill:none;stroke:#142664;stroke-width:4.0018654;stroke-linecap:round;stroke-linejoin:round;stroke-miterlimit:4.0018654;}
	.st308{clip-path:url(#SVGID_00000128475436445808216910000003502797790802880164_);}
	.st309{clip-path:url(#SVGID_00000124846836706785062290000007387126791399690124_);}
	.st310{clip-path:url(#SVGID_00000023999229179580153140000004946944419831578510_);}
	.st311{clip-path:url(#SVGID_00000176005895869889209910000014252248345301039789_);}
	.st312{clip-path:url(#SVGID_00000041984502632318552600000002722143656141589668_);}
	.st313{clip-path:url(#SVGID_00000141434543529014546390000013738989639022389409_);}
	.st314{clip-path:url(#SVGID_00000106831191346052085080000016406919032285777037_);}
	.st315{clip-path:url(#SVGID_00000183244230799047208740000007579216035619275404_);}
	.st316{clip-path:url(#SVGID_00000163034521725903264190000010537644752060348329_);}
	.st317{clip-path:url(#SVGID_00000106829444196895370390000005904881160698778812_);}
	.st318{clip-path:url(#SVGID_00000069369490175110399840000016746377320103305608_);}
	.st319{clip-path:url(#SVGID_00000163057501883470741800000016928702942990314883_);}
	.st320{clip-path:url(#SVGID_00000032627166329227296730000014614965415489142947_);}
	.st321{clip-path:url(#SVGID_00000015329363417957850210000007009629982885249187_);}
	.st322{clip-path:url(#SVGID_00000039836358548571068210000005699950675871579831_);}
	.st323{clip-path:url(#SVGID_00000103234085192142769240000004223159277079400885_);}
	.st324{clip-path:url(#SVGID_00000042733455442470948370000006480875751189141693_);fill:#FD657C;}
	.st325{clip-path:url(#SVGID_00000042733455442470948370000006480875751189141693_);fill:#272F60;}
</style>
<g id="FONDS">
</g>
<g id="ILLUSTRATIONS">
</g>
<g id="TEXTES_FR" class="st283">
</g>
<g id="TEXTES_GB">
</g>
<g id="Calque_5">
	<g>
		<g id="Groupe_2551">
			<path id="Tracé_7448" class="st12" d="M97.302002,313.9700012c0,0-3.3470001-0.2480164-8.0570068-0.5
				c-2.4790039-0.1239929-5.2059937-0.2480164-8.0569916-0.2480164c-1.6110077,0-3.2230072,0-4.8339996,0.1240234
				c-6.0740051,0.2479858-11.1560059,0.6199951-11.1560059,0.6199951c-1.0951691,0.0026855-1.9808159,0.8926392-1.9781303,1.987854
				c0.0026741,1.0913696,0.8867455,1.9754333,1.9781303,1.9781189c0,0,5.0820007,0.3720093,11.1560059,0.6199951
				c1.6109924,0,3.2229919,0.1239929,4.8339996,0.1239929c2.7269897,0,5.5780029-0.1239929,8.0569916-0.2479858
				c4.5859985-0.2479858,8.0570068-0.5,8.0570068-0.5c1.0951843,0,1.9830017-0.8878174,1.9830017-1.9830017
				s-0.8878174-1.9830017-1.9830017-1.9830017V313.9700012z"/>
			<path id="Tracé_7449" class="st12" d="M63.0909996,2.2309999H15.1219997
				C8.0080223,2.2254748,2.2365251,7.9880142,2.2309999,15.1019907c-0.0000052,0.00667-0.0000052,0.013339,0,0.020009v240.9620209
				h60.8600006V2.2309999z"/>
			<path id="Tracé_7450" class="st19" d="M181.3420105,15.1219997c0.0055237-7.1139774-5.757019-12.8854752-12.8709869-12.8909998
				c-0.0066833-0.0000052-0.0133514-0.0000052-0.0200195,0H62.3479996
				c-7.1139793-0.0055246-12.8854752,5.7570152-12.8909988,12.8709927c-0.0000038,0.006669-0.0000038,0.0133381,0,0.0200071
				v240.9620209h132.0090027V15.1219997H181.3420105z"/>
			<path id="Tracé_7451" class="st12" d="M181.3419952,250.5070038c-2.7335205,0.0059509-5.3599243-1.0625-7.3130035-2.9750061
				c-1.5874481-1.6248779-2.6275635-3.7051239-2.9750061-5.9499969c-0.1605988-1.0523834-0.4094696-2.0893707-0.7440033-3.1000061
				c-1.4869995-6.0740051-4.4620056-18.3450012-6.6929932-27.3930054c-0.4340057-1.6565857-1.7868347-2.9127502-3.470993-3.2230072
				l-23.6750031-4.3379974c-14.6259995-2.6000061-27.6409988-2.6000061-30.2440033,8.8000031l-0.5,2.727005
				c-0.6200027,3.5946655-1.3636703,7.3133392-2.2310028,11.1560059
				c-3.8350372,18.0165253-9.5243378,35.5877991-16.9769821,52.4329834
				c-2.1796494,5.227478-8.1843033,7.6982117-13.4117737,5.5185547c-5.1946716-2.1659546-7.6729889-8.1138611-5.5532303-13.3275452
				c5.8263321-15.8442078,9.9822083-32.2535248,12.4000015-48.9609985
				c2.9749985-19.7079926,5.3300018-35.6999969,5.2060013-43.8789978h57.8860016l27.5169983,6.6929932
				c3.8004608,0.9390717,7.2457428,2.9633026,9.9160004,5.826004c0.371994,0.371994,0.6199951,0.7440033,0.9920044,1.1159973
				L181.3419952,250.5070038z"/>
			<path id="Tracé_7452" class="st17" d="M181.3410034,242.326004v13.8829803h-8.8000031
				c-0.7498322-0.0070496-1.355957-0.6131592-1.3630066-1.3629913v-12.519989H181.3410034z"/>
			<path id="Tracé_7453" class="st17" d="M67.0579987,272.197998l18.965004,7.5610046c0,0,0.1240005,2.355011,0.2480011,3.8420105
				c0.0332794,0.6399536,0.4138794,1.2104797,0.9919968,1.4869995c2.2588043,1.0322571,4.1579285,2.7155151,5.4540024,4.8339844l0,0
				c0.4486465,0.7463379,0.822464,1.5351562,1.1159973,2.355011c0.1119232,0.4689941,0.0219574,0.9634705-0.2480011,1.3630066
				c-0.290184,0.3933105-0.7512207,0.6238403-1.2399979,0.6199951c-3.8430023,0.1239929-11.5279999,0.1239929-13.7590027,0.1239929
				c-0.4008789-0.0093384-0.7897034-0.1389465-1.1159973-0.3720093
				c-2.1070023-1.7349854-10.9080048-9.0480042-13.8830032-11.5279846c-0.5972786-0.4780884-0.755394-1.3209534-0.3720016-1.9830017
				L67.0579987,272.197998z"/>
			<path id="Tracé_7454" class="st18" d="M181.3419952,169.1940002c-6.6490479-1.4542847-13.0995026-3.701355-19.2129974-6.6929932
				c-24.0469971-12.0230103-32.3509979-32.6000061-32.3509979-32.6000061
				c-2.7724609-7.0852585,0.7237396-15.0765305,7.8090057-17.848999c7.0852661-2.7724762,15.0765381,0.7237396,17.848999,7.8089981
				c0,0,4.2140045,12.7670059,18.3450012,21.5680008c2.3721466,1.4776917,4.8591461,2.7624969,7.4369965,3.8420105
				L181.3419952,169.1940002z"/>
			<path id="Tracé_7455" class="st17" d="M51.6879997,179.2340088c0.6295395,0.0169678,1.2372818,0.2341461,1.7350006,0.6199951
				c3.8397903,3.3345337,6.4208412,7.8842926,7.3129997,12.8910065c0.205452,1.506073-0.8489189,2.8935547-2.3549995,3.098999
				c-1.5060768,0.2054596-2.8935471-0.8489227-3.098999-2.3549957l0,0
				c-0.1194496-0.8851776-0.3271523-1.7561798-0.6199989-2.6000061c-0.2778854-0.8247528-1.1337852-1.3064423-1.9830017-1.1159973
				c-0.8521767,0.1976929-1.4316483,0.9888763-1.3630028,1.8609924c0.4319191,4.1415405,1.3471451,8.218277,2.7270012,12.1470032
				c0.1635704,0.5469818,0.072506,1.1385345-0.2480011,1.6109924c-0.3093796,0.4515076-0.8158951,0.7279968-1.362999,0.7440033
				c-3.0999985-0.371994-8.9249992-1.6109924-15.618-6.9409943c-0.2085953-0.2170868-0.3777885-0.4688568-0.5-0.7440033
				c-0.6199989-1.7350006-2.3549995-8.9250031,1.1160011-19.2129974L51.6879997,179.2340088z"/>
			<path id="Tracé_7456" class="st18" d="M145.6430054,118.8700027H82.1800003c0,0,2.2310028,47.7210007,2.7269974,58.5049973
				c0.0055771,1.1708374,0.9592438,2.1154633,2.1300735,2.1098785c0.0336609-0.0001526,0.0673141-0.0011139,0.1009293-0.0028839
				h53.5470123c1.1915894,0.0178528,2.1807556-0.9163208,2.2310028-2.1069946
				c0.6199951-10.7839966,2.727005-58.5050049,2.727005-58.5050049"/>
			<path id="Tracé_7457" class="st18" d="M86.1470032,106.0999985c7.3257828-2.0544968,14.9300003,2.2187195,16.9844971,9.5445023
				c2.0545044,7.3257751-2.2187119,14.9299927-9.5444946,16.9844971l0,0c0,0-15.2460022,3.3470001-26.2779999,15.4940033
				c-7.1196289,7.6760559-11.2162132,17.6721954-11.5310059,28.1369934c0,5.6999969-4.5859985,4.9579926-10.2879982,4.9579926
				s-10.2879982,0.7440033-10.2879982-4.9580078c-0.8894424-15.6570282,3.9088554-31.1081085,13.5109978-43.5070038
				C63.7109985,113.0439987,86.1470032,106.0999985,86.1470032,106.0999985"/>
			<path id="Tracé_7458" class="st18" d="M72.8840027,112.177002
				c10.5359955-6.4460068,24.7899933-10.5360031,40.5319977-10.5360031c16.4860077,0,37.3099976,4.3379974,42.1439972,18.2210007
				c-9.5440063,12.1470032-24.5419922,13.1390076-41.1520004,13.1390076
				C98.0390091,133.0737152,82.6158295,125.3390884,72.8840027,112.177002"/>
			<path id="Tracé_7459" class="st12" d="M131.1409912,104.2430038c-2.2391663-0.5784302-4.5175476-0.9928665-6.8169937-1.2399979
				c-3.4092331-0.473877-6.8460464-0.722084-10.2879944-0.7430038c-3.3985977,0.071846-6.7911682,0.3201828-10.1640015,0.7440033
				c-2.3550034,0.2480011-4.5859985,0.7440033-6.8170013,1.1159973c-2.3620148-0.0228424-4.2953186,1.8734283-4.318161,4.2354431
				c-0.0226822,2.3459015,1.848587,4.2722244,4.1941605,4.3175583c2.2310028,0.5,4.461998,0.9919968,6.8170013,1.362999
				c3.4053802,0.5248642,6.8428268,0.8148804,10.288002,0.8679962c3.4417801-0.0260391,6.8782806-0.274559,10.288002-0.7440033
				c2.3003998-0.3005219,4.5779114-0.7558823,6.8170013-1.362999c2.359314-0.0394669,4.2429504-1.9785309,4.2140045-4.3379974
				c0.0638428-2.2634659-1.7192841-4.1501389-3.9827576-4.2139969c-0.0770569-0.0021744-0.1541748-0.0021744-0.2312469,0"/>
			<path id="Tracé_7460" class="st17" d="M97.6740036,102.2600021c-0.9919968-0.3720016-3.2229996-3.3470001-3.7190018-6.3219986
				c-2.7269974-17.9729996,4.8339996-39.045002,4.8339996-39.045002s16.237999-8.9249992,40.8999939,2.230999
				c0,0,2.727005,22.3110046-2.1069946,39.2930069c-0.5692749,1.8899078-1.9913483,3.4037857-3.8420105,4.0899963
				c-1.1239624,0.436882-2.2859039,0.768959-3.470993,0.9919968l0.1240082,4.8339996c0,0-13.015007,4.2139969-32.8470078,0
				L97.6740036,102.2600021z"/>
			<path id="Tracé_7461" class="st12" d="M128.5379944,102.6330032c0.8780975-0.1407471,1.7251282,0.388916,1.9830017,1.2399979
				c0.2417755,0.9020767-0.2935181,1.8293457-1.1956024,2.0711136c-0.0551453,0.0147781-0.1110229,0.0267563-0.1673889,0.0358887
				c-0.5065155,0.3426666-1.0462341,0.6334686-1.6110001,0.8679962c-0.8438263,0.2928467-1.7148285,0.5005493-2.5999985,0.6200027
				c-0.9158859,0.0352097-1.832489-0.0481491-2.7269974-0.2480011c-0.5966721-0.1512375-1.1776123-0.3588409-1.7350006-0.6200027
				c-0.9578552-0.0774078-1.6715927-0.9166565-1.5941849-1.8745041c0.0763931-0.9452667,0.8956604-1.6552734,1.842186-1.5964966
				c0.5218048-0.182457,1.062027-0.3071976,1.6110001-0.3720016c0.7363586-0.1644211,1.4811325-0.2886047,2.2310028-0.3720016
				c0.7423553-0.0624008,1.4886475-0.0624008,2.2310028,0C127.9179993,102.5090027,128.5379944,102.6330032,128.5379944,102.6330032
				z"/>
			<path id="Tracé_7462" class="st12" d="M114.9039993,72.8840027l4.8339996-0.3720016
				c0.856041,0.3763809,1.8551178-0.0124588,2.2314987-0.8684998s-0.0124588-1.8551178-0.8684998-2.2314987
				c-0.3914566-0.4094009-0.8530731-0.7453766-1.362999-0.9920044c-0.3512802-0.1791611-0.727478-0.3045578-1.1159973-0.3720016
				c-0.6840134-0.1975021-1.3958282-0.2812805-2.1070023-0.2480011c-0.3720016,0-0.6200027,0.1240005-0.9919968,0.1240005
				c-0.7176285,0.2026901-1.3904572,0.5392761-1.9830017,0.9920044c-0.3202667,0.2566528-0.6113434,0.5477295-0.8679962,0.8679962
				c-0.1355133,0.1995392-0.2597122,0.4065323-0.3720016,0.6200027c-0.7179718,0.6875839-0.7425995,1.8270187-0.0550079,2.5449905
				c0.0179367,0.0187302,0.0362778,0.0370712,0.0550079,0.0550079c0.7633286,0.6520386,1.9021912,0.5977249,2.5999985-0.1240005"/>
			<path id="Tracé_7463" class="st12" d="M133.4960022,73.1309967l4.8339996,0.9920044
				c0.6701508,0.6320801,1.7258148,0.6012115,2.3578949-0.0689392s0.6012115-1.7258148-0.0689392-2.3578949
				c-0.0189056-0.0178375-0.0382385-0.0352325-0.0579529-0.0521698c-0.2698517-0.4956207-0.6033478-0.9538422-0.9920044-1.362999
				c-0.2749023-0.314743-0.6128693-0.568222-0.9919891-0.7439957c-0.6062927-0.3746872-1.279892-0.6274109-1.9830017-0.7440033
				c-0.3202057-0.1020584-0.6565247-0.144104-0.9920044-0.1240005c-0.7605286-0.0185547-1.5176392,0.1076889-2.2310028,0.3720016
				c-0.3997955,0.1520844-0.77565,0.3608856-1.1159973,0.6200027l-0.5,0.5
				c-0.8762665,0.4333038-1.2353516,1.4949265-0.8020325,2.3711853c0.0180969,0.0365982,0.0374451,0.0725555,0.0580292,0.107811
				c0.5913696,0.7529144,1.6420288,0.9648285,2.4790039,0.5"/>
			<path id="Tracé_7464" class="st12" d="M133.2480011,78.2140045c-0.2264557,0.6376114-0.3519745,1.3066711-0.3720093,1.9830017
				c0.0118256,0.6679459,0.0949554,1.3327179,0.2480011,1.9830017c-0.0684814,1.3691177,0.9858856,2.5345154,2.3549957,2.6030045
				c1.3691254,0.0684814,2.5345306-0.9858856,2.6030121-2.3550034c0.2264557-0.6376114,0.3519592-1.3066711,0.371994-1.9830017
				c-0.0118256-0.6679459-0.0949554-1.3327179-0.2480011-1.9830017c0.065155-1.3673935-0.987854-2.5299377-2.3549957-2.5999985
				c-1.3500519-0.0180359-2.4847717,1.009758-2.6000061,2.3549957"/>
			<path id="Tracé_7465" class="st12" d="M114.6559982,77.9660034c-0.2264557,0.6376038-0.3519669,1.3066635-0.3720016,1.9829941
				c0.0118256,0.6679459,0.0949631,1.3327179,0.2480011,1.9830017c-0.0684814,1.3691177,0.9858856,2.5345154,2.3549957,2.6030045
				c1.3691177,0.0684814,2.534523-0.9858856,2.6030045-2.3550034c0.2264557-0.6376114,0.3519669-1.3066711,0.3720016-1.9830017
				c-0.0116119-0.6689529-0.0947495-1.3347397-0.2480011-1.9860001c0.0651474-1.3673859-0.987854-2.5299301-2.3549957-2.5999985
				c-1.3500443-0.0180359-2.4847641,1.0097656-2.5999985,2.3550034"/>
			<path id="Tracé_7466" class="st12" d="M119.612999,93.4599991c0.9301605,0.9329529,2.0222702,1.6889267,3.2229996,2.2310028
				c1.2147903,0.5481567,2.5146713,0.8836975,3.8430023,0.9919968c0.8393784-0.0110397,1.6733551-0.1361847,2.4790039-0.3720016
				c1.8043213-0.4944534,3.435257-1.4816742,4.7100067-2.8509979c0.8899994-0.6845551,1.0565491-1.9609909,0.371994-2.8509979
				s-1.9609833-1.0565567-2.8509979-0.3720016c-1.1416321,0.6116943-2.42453,0.9111176-3.7190018,0.8679962h-2.1090088
				c-1.1379776-0.1340408-2.2593994-0.3833237-3.3470001-0.7440033c-0.8641968-0.6879272-2.1224365-0.5450287-2.8103638,0.3191681
				c-0.0138321,0.0173874-0.0273819,0.034996-0.0406342,0.0528336c-0.6970062,0.6846161-0.7070541,1.8046341-0.0224457,2.5016403
				c0.0824356,0.0839233,0.173027,0.1594162,0.2704468,0.2253571"/>
			<path id="Tracé_7467" class="st12" d="M96.9260025,53.1749992c1.6296387-3.9318428,4.6223068-7.1442757,8.4290009-9.0480003
				c25.5340042-13.2629986,47.8450089,12.3999977,35.0779953,27.6410065l-0.7440033-10.1640053
				c-15.9899979,6.5690041-16.1139984-3.3470001-24.6660004-2.230999s-9.5399933,10.659996-7.8049927,18.8420029
				c0.9919968,4.461998-5.6999969,4.5859985-4.8339996,0.3720016c0.6200027-3.0999985,0-6.4449997-2.9749985-5.9499969
				c-3.9660034,0.6200027-1.2399979,6.5690002-1.4869995,11.5279999c-0.1240005,4.2139969-4.3379974,6.5690002-4.3379974,6.5690002
				C81.9319992,79.2050018,82.8000031,57.8859978,96.9260025,53.1749992"/>
			<path id="Tracé_7468" class="st12" d="M147.75,147.6269989c0.2693176-1.144928,0.4762878-2.3036346,0.6199951-3.4710083
				c0.1852112-1.1496124,0.3093719-2.3082428,0.3720093-3.470993v-2.1070099
				c-0.1240082-2.7269897-0.3720093-4.9579926-0.3720093-4.9579926c0.0257111-1.1296844-0.8692322-2.0663147-1.9989166-2.0920258
				c-1.11763-0.0254211-2.0487671,0.8509064-2.0910797,1.9680176c0,0-0.5,2.2310028-0.8679962,4.9580078
				c-0.1240082,0.7440033-0.1240082,1.3629913-0.2480011,2.1069946c-0.0227814,1.1996918,0.0186005,2.3997345,0.1239929,3.5950012
				c0.1240082,2.1070099,0.3720093,3.5950012,0.3720093,3.5950012c-0.0237732,1.1254272,0.8582001,2.062561,1.9830017,2.1070099
				C146.8142853,149.7662659,147.7253265,148.8016052,147.75,147.6269989"/>
			<path id="Tracé_7469" class="st12" d="M85.651001,139.6940002c0,0,0.8679962-0.1239929,2.3550034-0.371994
				c0.7910309-0.0822449,1.5771408-0.2064209,2.3550034-0.3720093c0.5-0.1239929,0.8679962-0.2480011,1.362999-0.371994
				c0.9919968-0.3720093,1.9830017-0.7440033,3.2229996-1.1159973c1.1001663-0.0985413,1.9121399-1.0702972,1.8135986-2.1704559
				s-1.0702896-1.9121399-2.1704483-1.8135986c-0.0479202,0.0042877-0.095665,0.0103149-0.1431503,0.0180511
				c-1.2779999-0.124054-2.5650024-0.124054-3.8430023,0c-0.5454941,0.0123291-1.0870514,0.0957031-1.6110001,0.2480011
				c-0.9004364,0.2342682-1.7723541,0.566925-2.5999985,0.9919891c-0.8819199,0.3449707-1.7152328,0.8031464-2.4789963,1.3630066
				c-1.0251236,0.4740295-1.4718781,1.6893463-0.9978409,2.7144623c0.0019379,0.0041962,0.0038834,0.0083618,0.0058441,0.0125275
				C83.479805,139.7656708,84.6528549,140.1387939,85.651001,139.6940002z"/>
			<path id="Tracé_7470" class="st12" d="M183.572998,256.2080078h-4.4629974V15.1219997
				c-0.0044098-5.9536219-4.8293762-10.7790394-10.7830048-10.7840004H15.2460003
				C9.2919903,4.3424115,4.4664121,9.1679897,4.4619999,15.1219997v241.0860138H0V15.1219997
				C0.0334315,6.7842369,6.7842369,0.0334317,15.1219997,0H168.321991
				c8.3377533,0.0334346,15.088562,6.7842393,15.121994,15.1219997v241.0860138H183.572998z"/>
			<path id="Tracé_7471" class="st12" d="M87.015007,283.3540039c-0.4714432-0.3289795-0.9687347-0.6192627-1.4869995-0.8680115
				c-0.5427399-0.2536621-1.1359711-0.3808594-1.7350006-0.3719788c-0.3762817-0.0202026-0.7533264,0.021698-1.1159973,0.1239929
				c-0.9502716,0.2085266-1.839859,0.6328125-2.5999985,1.2399902c-1.0222015,0.4893494-1.4541626,1.7146912-0.9648209,2.7368774
				c0.48246,1.007843,1.6825867,1.444397,2.6998215,0.9821167c0.2480011,0,0.5,0.1239929,0.7440033,0.1239929
				c0.3720016,0,0.7440033,0.2480164,1.1159973,0.2480164s0.7440033-0.1239929,1.1159973-0.1239929
				c0.4575195,0.0090942,0.9146347-0.0325012,1.362999-0.1239929c1.0259171,0.2680664,2.0763931-0.3399048,2.3550034-1.3630066
				c0.3524246-1.059082-0.1951981-2.2073059-1.2399979-2.6000061L87.015007,283.3540039z"/>
		</g>
	</g>
</g>
</svg>
