<?xml version="1.0" encoding="UTF-8"?>
<svg id="FONDS" xmlns="http://www.w3.org/2000/svg" width="23" height="25" viewBox="0 0 23 25">
  <path id="Tracé_8341" data-name="Tracé 8341" d="M22.9841895,11.5756575c.0225471-.7865799-.2646825-1.5506402-.8000464-2.1282031-.3369662-.3531121-.8027596-.5550277-1.2912677-.5597494h-4.7867653l.0550084-.0963427c.4217374-.7399089,1.7651198-3.3334454,1.3684735-5.6273569C17.2450683,1.4662546,15.8504823,.1729572,14.1335013,.0145748c-.4068836-.072592-.8130714,.1309386-.9978863,.5000168-.3512548,.7442897-.6217292,1.5239621-.8068018,2.3257044-.3175096,1.2013889-.5674635,2.1445806-1.4688421,2.761172-.3234018,.2129384-.6577771,.4087831-1.0017464,.5867251-1.6221447,.6886546-2.8489333,2.0678918-3.3420497,3.7573514l-.014476,.0452808H1.4476102c-.7979563,.0036917-1.4439122,.6485433-1.4476102,1.4451353v11.1419927c.003698,.7965929,.6496539,1.4414436,1.4476102,1.4451353H6.7323523c.2537389,.00043,.5030917-.0660391,.7228401-.1926854l.0357079-.0211947,.0337774,.0231223c1.2024818,.8295077,3.0689339,1.1676692,6.4418655,1.1676692,1.7718753,0,3.8554674-.0867083,6.2681511-.1926854l.6929231-.0289034c1.2972095-.2009252,2.2046092-1.3877512,2.056572-2.6898783,.0100467-.6061144-.1536937-1.202462-.4719212-1.718748l-.0221974-.0346826,.0221974-.0346826c.6289669-1.059814,.6289669-2.3776819,0-3.4374959l-.0221974-.0346826,.0221974-.0346826c.6289669-1.059814,.6289669-2.377681,0-3.437495l-.0221974-.0346835,.0221974-.0346835c.3182275-.5162859,.4819679-1.1126345,.4719212-1.718748M6.3067549,22.1588646H1.8751377V11.8675743H6.3067549v10.2912903Zm10.6515146-8.1621242c.1743062,.1745834,.4112673,.2723962,.6581793,.271685h3.2291383l.0193019,.0202318c.3232159,.4821666,.3232159,1.1113353,0,1.5935019l-.0193019,.0202318h-3.2812494c-.5183371,0-.9385338,.4194783-.9385338,.9369292s.4201967,.9369292,.9385338,.9369292h3.2812494l.0193019,.0202318c.3234773,.4820866,.3234773,1.1114152,0,1.5935019l-.0193019,.0202318h-3.2812494c-.5183371,0-.9385338,.4194783-.9385338,.9369292s.4201967,.9369292,.9385338,.9369292h3.2812494l.0193019,.0202318c.1724637,.2286929,.2582749,.5109441,.2422329,.7967509,.0194032,.2917147-.0742293,.5797157-.2615348,.8044578l-.017371,.0144508-.6755522,.0289034c-2.5091914,.1040495-4.6082254,.1926854-6.3250914,.1926854-3.0370865,0-4.8716902-.2745756-5.6331337-1.2139139l-.0144764-.0183042V11.4417417c-.0004243-.1083302-.0130499-.216269-.0376374-.3217831v-.0289034c.2167627-1.4755749,1.2123159-2.7204658,2.6056982-3.2582983,.4012445-.2083628,.7910461-.4379851,1.1677389-.6878842,1.203266-.9424254,1.9978904-2.3102917,2.2196691-3.8209378l.009651-.0366102c.1090532-.409455,.211351-.7957878,.3416361-1.1734498l.0231619-.0655129,.0646603,.0279393c.5312305,.1955493,.9290559,.6436958,1.0596502,1.1936816,.5066632,1.9268471-1.325046,5.2468046-1.9079505,5.7458577-.4408027,.2727426-.5766644,.8505738-.3034556,1.2906229,.1698507,.2735741,.4684174,.4410286,.7908178,.4435396l4.3428306,.0048172h2.289154l.0193019,.0202318c.1723882,.2287306,.2581902,.5109542,.2422329,.7967509,.0159573,.2857968-.0698447,.5680204-.2422329,.7967509l-.0193019,.0202318h-3.2233455c-.517945,.0015868-.9374257,.4203521-.9390161,.9374107-.0009572,.2488044,.0981276,.4875884,.2750458,.6628351" style="fill: #fb657c;"/>
</svg>