<?xml version="1.0" encoding="utf-8"?>
<!-- Generator: Adobe Illustrator 26.2.1, SVG Export Plug-In . SVG Version: 6.00 Build 0)  -->
<svg version="1.1" xmlns="http://www.w3.org/2000/svg" xmlns:xlink="http://www.w3.org/1999/xlink" x="0px" y="0px"
	 viewBox="0 0 277.9561462 274" style="enable-background:new 0 0 277.9561462 274;" xml:space="preserve">
<style type="text/css">
	.st0{fill:url(#FOND_00000156586415628381487240000007846596206887473033_);}
	.st1{fill:url(#FOND_00000140736333772563154060000003677274639629130664_);}
	.st2{fill:#FFF5F7;}
	.st3{fill:url(#FOND_00000020374850884443709120000003340960193049392063_);}
	.st4{fill:url(#FOND_00000034775685925831259300000012375267926348038822_);}
	.st5{fill:url(#FOND_00000163788626175684465330000015588159073373583511_);}
	.st6{fill:url(#FOND_00000031913601852518518700000004382091961184186790_);}
	.st7{fill:url(#FOND_00000120559150856761709370000010529939136707151244_);}
	.st8{fill:url(#FOND_00000134940509609437282690000013042024301628291255_);}
	.st9{fill:url(#FOND_00000059301979561353904490000002387442452801977744_);}
	.st10{fill:url(#FOND_00000148640327961619638330000009145257317105352383_);}
	.st11{fill:url(#FOND_00000149373690197932367190000016120014896858955668_);}
	.st12{fill:#272F60;}
	.st13{fill:#FD657C;}
	.st14{fill:url(#FOND_00000066505186203007473390000010603930036584844928_);}
	.st15{fill:#F4AAB9;}
	.st16{clip-path:url(#Rectangle_10_00000033332637843286287520000017909290264946801802_);}
	.st17{fill:#FB657C;}
	.st18{fill:#FFFFFF;}
	.st19{fill:#FFBCC6;}
	.st20{clip-path:url(#SVGID_00000152239733583930582170000016795357680894086042_);}
	.st21{enable-background:new    ;}
	.st22{fill:#FB657C;stroke:#FD657C;stroke-width:3.8352001;stroke-linecap:round;stroke-linejoin:round;stroke-miterlimit:1.4382;}
	.st23{fill:#FFBCC6;stroke:#FFBCC6;stroke-width:3.8352001;stroke-linecap:round;stroke-linejoin:round;stroke-miterlimit:1.4382;}
	.st24{clip-path:url(#SVGID_00000167364307804938310680000015005814788701392780_);fill:#FB657C;}
	.st25{clip-path:url(#SVGID_00000142170140753682245750000014570234637714299540_);fill:#FFBCC6;}
	.st26{clip-path:url(#SVGID_00000178911566487856655560000014508048050837676468_);fill:#FFBCC6;}
	.st27{clip-path:url(#SVGID_00000121277085962109390660000001730245822984048556_);fill:#FFBCC6;}
	.st28{clip-path:url(#SVGID_00000029751478850520328040000008399065943670322615_);fill:#FFBCC6;}
	.st29{clip-path:url(#SVGID_00000155117379710681425040000018213590563670158252_);fill:#FFBCC6;}
	.st30{clip-path:url(#SVGID_00000166640771423278118210000017292232385833537433_);fill:#FFBCC6;}
	.st31{clip-path:url(#SVGID_00000142886719842752334350000018081700658474597267_);fill:#FFBCC6;}
	.st32{clip-path:url(#SVGID_00000034070732920626800500000009607446847929902472_);fill:#272F60;}
	.st33{clip-path:url(#SVGID_00000034070732920626800500000009607446847929902472_);fill:#FB657C;}
	.st34{clip-path:url(#SVGID_00000034070732920626800500000009607446847929902472_);fill:#FFBCC6;}
	.st35{clip-path:url(#SVGID_00000034070732920626800500000009607446847929902472_);fill:#FFFFFF;}
	.st36{fill:none;}
	.st37{clip-path:url(#SVGID_00000139293639201810454820000002749594647619399354_);fill:#FFFFFF;}
	.st38{clip-path:url(#SVGID_00000001625987081233954660000001977504235065545354_);fill:#FFFFFF;}
	.st39{clip-path:url(#SVGID_00000157291142157813009430000015894094561447565205_);fill:#FFFFFF;}
	.st40{clip-path:url(#SVGID_00000033335985029342682980000003079476542539720847_);fill:#FFFFFF;}
	.st41{clip-path:url(#SVGID_00000167384667931532095960000002672342052229302203_);fill:#FFFFFF;}
	.st42{clip-path:url(#SVGID_00000176006304188566390470000002693236625349319603_);fill:#FFFFFF;}
	.st43{clip-path:url(#SVGID_00000117637728399542550330000007667677810333079424_);fill:#FFFFFF;}
	.st44{clip-path:url(#SVGID_00000012466438070870208350000007885154285045176227_);fill:#FFFFFF;}
	.st45{clip-path:url(#SVGID_00000148630627446078869820000011854115562871862672_);fill:#FFFFFF;}
	.st46{clip-path:url(#SVGID_00000110469472611610299450000017391090370130387847_);fill:#FFFFFF;}
	.st47{clip-path:url(#SVGID_00000150799159197404132620000011115465149893917098_);fill:#FFFFFF;}
	.st48{clip-path:url(#SVGID_00000130607431674868618900000017396376393928279945_);fill:#FFFFFF;}
	.st49{clip-path:url(#SVGID_00000056417814784131487190000010876787635513969810_);fill:#FB657C;}
	.st50{clip-path:url(#SVGID_00000041261885823619549540000003333585217198573467_);fill:#FFFFFF;}
	.st51{clip-path:url(#SVGID_00000069363725546024379050000005306961283736110234_);fill:#FFFFFF;}
	.st52{fill:#FF647B;}
	.st53{fill:#FF657C;}
	.st54{clip-path:url(#SVGID_00000158020679255070723540000009652421392297721266_);}
	.st55{clip-path:url(#SVGID_00000060032117404906488850000017756772540014913190_);}
	.st56{clip-path:url(#SVGID_00000150078252786793222360000005186506687989436054_);}
	.st57{clip-path:url(#SVGID_00000089564836889529949900000003570677127595919789_);}
	.st58{fill:none;stroke:#272E5F;stroke-width:3;}
	.st59{clip-path:url(#SVGID_00000155838686619580251130000005813198844482141348_);}
	.st60{fill:#E94B67;}
	.st61{fill:#FFF5F7;stroke:#272E5F;stroke-width:2;}
	.st62{fill:none;stroke:#272E5F;stroke-width:2;stroke-linecap:round;stroke-linejoin:round;stroke-miterlimit:10;}
	.st63{fill:none;stroke:#272E5F;stroke-width:2;}
	.st64{fill:none;stroke:#272E5F;stroke-width:3;stroke-linecap:round;stroke-linejoin:round;stroke-miterlimit:10;}
	.st65{fill:none;stroke:#142664;stroke-width:2;stroke-linecap:round;stroke-linejoin:round;stroke-miterlimit:10;}
	.st66{clip-path:url(#SVGID_00000053512476159169338900000010238585590478141863_);}
	.st67{clip-path:url(#SVGID_00000024680823593922014740000009721595490415660172_);}
	.st68{clip-path:url(#SVGID_00000078731031086743021090000005902920420581186946_);fill:#FD657C;}
	.st69{clip-path:url(#SVGID_00000006707958319873162680000000390103908420063141_);fill:#FD657C;}
	.st70{clip-path:url(#SVGID_00000156565128275841566280000005366785227446939776_);}
	.st71{clip-path:url(#SVGID_00000109743449242469638600000011637692043812641165_);}
	.st72{clip-path:url(#SVGID_00000023276821727101987590000012439777148789740680_);}
	.st73{fill:none;stroke:#142664;stroke-width:3;stroke-linecap:round;stroke-linejoin:round;}
	.st74{clip-path:url(#SVGID_00000018215517833646835420000006952338627299602837_);}
	.st75{clip-path:url(#SVGID_00000072970545354570431880000010773065996478415233_);}
	.st76{clip-path:url(#SVGID_00000055673932944024100200000004938982339444329655_);}
	.st77{clip-path:url(#SVGID_00000051359795974388627690000004595811504241169051_);}
	.st78{clip-path:url(#SVGID_00000154388117837850736390000003996752281304253338_);}
	.st79{clip-path:url(#SVGID_00000013182784424232925280000003752489687976019850_);}
	.st80{clip-path:url(#SVGID_00000041272836389134076800000013224893584655449018_);}
	.st81{clip-path:url(#SVGID_00000165225420070287021590000004079949110660635301_);}
	.st82{clip-path:url(#SVGID_00000069383849747592543360000004645012365859960972_);}
	.st83{clip-path:url(#SVGID_00000034048409686192512660000007677201436349838260_);}
	.st84{clip-path:url(#SVGID_00000101800975868477798300000015034440749669893053_);}
	.st85{clip-path:url(#SVGID_00000129193372238958268140000007118113332434030245_);}
	.st86{clip-path:url(#SVGID_00000121983089579360145700000003910399455675609239_);}
	.st87{clip-path:url(#SVGID_00000119112687609536212440000011997240352408530337_);}
	.st88{clip-path:url(#SVGID_00000158008048163800804400000002478880209077514899_);}
	.st89{clip-path:url(#SVGID_00000083789514704949118750000013891129591707709588_);}
	.st90{clip-path:url(#SVGID_00000181777777000176003800000012572507719147422396_);}
	.st91{clip-path:url(#SVGID_00000047029218994715750350000000658862562863871631_);}
	.st92{clip-path:url(#SVGID_00000088133642119762111660000006620678648040707477_);}
	.st93{clip-path:url(#SVGID_00000132054535572747761110000017370297365976756389_);}
	.st94{clip-path:url(#SVGID_00000183221547047825600420000004457973933979352967_);}
	.st95{clip-path:url(#SVGID_00000078029145433059119690000008784053063521222273_);}
	.st96{clip-path:url(#SVGID_00000034775702536049149420000010324939006304473531_);}
	.st97{clip-path:url(#SVGID_00000043442386361930825450000004556134556651328659_);}
	.st98{clip-path:url(#SVGID_00000178898892613791851100000007084722604376726448_);}
	.st99{clip-path:url(#SVGID_00000007399493965274666980000016900932251941077890_);}
	.st100{clip-path:url(#SVGID_00000051368902686973250170000015033058017070151086_);}
	.st101{clip-path:url(#SVGID_00000043437106844306778320000003968275632616644481_);}
	.st102{clip-path:url(#SVGID_00000062168572793949559490000011942883125991210430_);}
	.st103{clip-path:url(#SVGID_00000173878141470717676940000010151481632550453914_);}
	.st104{clip-path:url(#SVGID_00000082370552200853356870000012802743888538584203_);}
	.st105{clip-path:url(#SVGID_00000124142045875455986830000001594936698653977217_);}
	.st106{clip-path:url(#SVGID_00000000215283050217780500000009526288235025957031_);}
	.st107{clip-path:url(#SVGID_00000062900957408057186170000000478173316000293043_);}
	.st108{clip-path:url(#SVGID_00000018944327320283564790000000107480367753433264_);}
	.st109{clip-path:url(#SVGID_00000063632152481275120820000010108581794872954020_);}
	.st110{clip-path:url(#SVGID_00000044880289104805801650000011314390094013070739_);}
	.st111{clip-path:url(#SVGID_00000093864187271981965930000000328895475270404786_);}
	.st112{clip-path:url(#SVGID_00000034057784100698566010000010294135940470101643_);}
	.st113{clip-path:url(#SVGID_00000142170743861459991060000017626756275743510674_);}
	.st114{clip-path:url(#SVGID_00000162347001944831430720000015945118205748175250_);}
	.st115{clip-path:url(#SVGID_00000027578496885879468840000006409726190047916222_);}
	.st116{clip-path:url(#SVGID_00000051382833459817449240000009036450552079717519_);}
	.st117{fill:#FFFFFF;stroke:#142664;stroke-width:3;stroke-linecap:round;stroke-linejoin:round;}
	.st118{clip-path:url(#SVGID_00000061439877464094125180000006232299526803616149_);}
	.st119{fill-rule:evenodd;clip-rule:evenodd;fill:#FFBCC6;}
	.st120{fill-rule:evenodd;clip-rule:evenodd;fill:#272F60;}
	.st121{fill-rule:evenodd;clip-rule:evenodd;fill:#FFFFFF;}
	.st122{fill-rule:evenodd;clip-rule:evenodd;fill:#FB657C;}
	.st123{clip-path:url(#SVGID_00000152980031367636425020000000864678466845383593_);}
	.st124{clip-path:url(#SVGID_00000073001293119713893560000005014001787548632492_);}
	.st125{clip-path:url(#SVGID_00000075867086762150401900000004345804171162919599_);}
	.st126{clip-path:url(#SVGID_00000086671676103934953150000017941543655581692555_);}
	.st127{clip-path:url(#SVGID_00000106829732649603784130000000068848743200641948_);}
	.st128{clip-path:url(#SVGID_00000059999655315469532210000010115600622698308748_);}
	.st129{clip-path:url(#SVGID_00000145752876638867220450000011213606512970482587_);}
	.st130{clip-path:url(#SVGID_00000126309400853324940460000004148625366825571999_);}
	.st131{clip-path:url(#SVGID_00000105404858494494752140000000907487764564907415_);}
	.st132{clip-path:url(#SVGID_00000157297318112222553870000016684234251205758117_);}
	.st133{clip-path:url(#SVGID_00000017515139598894621610000003514146294283123635_);}
	.st134{clip-path:url(#SVGID_00000183238935901852697890000011220408147272282299_);}
	.st135{clip-path:url(#SVGID_00000131344664089710369360000012075538068689888446_);}
	.st136{clip-path:url(#SVGID_00000132082738880172976000000003261703758755420303_);}
	.st137{clip-path:url(#SVGID_00000152239112441757210490000012835452108015070083_);}
	.st138{clip-path:url(#SVGID_00000120530510125310779120000014466359301862274199_);}
	.st139{clip-path:url(#SVGID_00000105427067767714802520000013422412395167357369_);}
	.st140{clip-path:url(#SVGID_00000106130414296868716920000001729778066899579575_);}
	.st141{clip-path:url(#SVGID_00000167380592726630411050000008456237837456104606_);}
	.st142{clip-path:url(#SVGID_00000080177674550580469340000009117951171116176563_);}
	.st143{clip-path:url(#SVGID_00000019649659232297465170000003797543825383041448_);}
	.st144{clip-path:url(#SVGID_00000017498452527445428590000004459844935345724325_);}
	.st145{clip-path:url(#SVGID_00000166660528029300324060000011968590383101483178_);}
	.st146{clip-path:url(#SVGID_00000017478996478576539510000011954316061393842107_);}
	.st147{clip-path:url(#SVGID_00000173879228056673003450000009482837091378298261_);}
	.st148{clip-path:url(#SVGID_00000114042265933965873510000002371178148913030272_);}
	.st149{clip-path:url(#SVGID_00000137839963243686807330000011044294074784182700_);}
	.st150{clip-path:url(#SVGID_00000016769769807885348150000002832447103370247069_);}
	.st151{clip-path:url(#SVGID_00000135679292405022469780000003766474661321206175_);}
	.st152{clip-path:url(#SVGID_00000055699048258193161650000010926888148991204539_);}
	.st153{clip-path:url(#SVGID_00000018235655673420404210000004074433429473733275_);}
	.st154{clip-path:url(#SVGID_00000077319704572446936330000005361251450096305031_);}
	.st155{clip-path:url(#SVGID_00000028300609057025405440000012579831658211655564_);}
	.st156{clip-path:url(#SVGID_00000155854683781385922170000009392050166326473634_);}
	.st157{clip-path:url(#SVGID_00000175299419742788415540000014810534980421786542_);}
	.st158{clip-path:url(#SVGID_00000020373442051360750770000011437529996743246524_);}
	.st159{clip-path:url(#SVGID_00000067931973819381544630000000012709131803901859_);}
	.st160{clip-path:url(#SVGID_00000011721448469094669150000017712685248885252512_);}
	.st161{clip-path:url(#SVGID_00000046303518350223563750000006091855257220581511_);}
	.st162{clip-path:url(#SVGID_00000133520629703012151410000000543990979233262986_);}
	.st163{clip-path:url(#SVGID_00000083077836743369628640000006127998193682850724_);}
	.st164{clip-path:url(#SVGID_00000008148906945203983900000001297565248390509203_);}
	.st165{clip-path:url(#SVGID_00000017502998513439495620000013547145037627644039_);}
	.st166{clip-path:url(#SVGID_00000008135301715521082980000007057282222254986130_);}
	.st167{clip-path:url(#SVGID_00000053535032698485500510000006032635881337763503_);}
	.st168{clip-path:url(#SVGID_00000052076974642556176280000000682560096628643768_);}
	.st169{clip-path:url(#SVGID_00000103943524373050104060000017071136247217002678_);}
	.st170{clip-path:url(#SVGID_00000127038590796578497410000011038127099104493450_);}
	.st171{clip-path:url(#SVGID_00000000212107864845427020000004929291519709549235_);}
	.st172{clip-path:url(#SVGID_00000031183333328483503240000007994427597420248243_);}
	.st173{clip-path:url(#SVGID_00000113312870447344099370000007978833643566622636_);}
	.st174{clip-path:url(#SVGID_00000183226534904964788840000008906121775474725768_);}
	.st175{clip-path:url(#SVGID_00000059991872772168971100000011455155767814457769_);}
	.st176{clip-path:url(#SVGID_00000143583132706470054220000007637015224995068320_);}
	.st177{clip-path:url(#SVGID_00000047035278809607525500000000033275995402583729_);}
	.st178{clip-path:url(#SVGID_00000018223116945481126270000010605005897746311349_);}
	.st179{clip-path:url(#SVGID_00000003104815807190966520000012539281974351043231_);}
	.st180{clip-path:url(#SVGID_00000091698841603241202130000017445024369632718468_);}
	.st181{clip-path:url(#SVGID_00000098215431406960469520000014617333676572138152_);}
	.st182{clip-path:url(#SVGID_00000023260835565843377650000011785183562523638455_);}
	.st183{clip-path:url(#SVGID_00000129200667977681510170000004309461028885110916_);}
	.st184{clip-path:url(#SVGID_00000078724981343395729360000011026581278001841847_);}
	.st185{clip-path:url(#SVGID_00000022546834928609493010000008203268212328889472_);}
	.st186{clip-path:url(#SVGID_00000140011353521723633010000007810835794878664589_);}
	.st187{clip-path:url(#SVGID_00000074417742072824159660000002040496943441068169_);}
	.st188{clip-path:url(#SVGID_00000178197927082333651380000002020827848870070952_);}
	.st189{clip-path:url(#SVGID_00000154413294490959881650000005782068700370169256_);}
	.st190{clip-path:url(#SVGID_00000106111524836701648590000001600853009275231133_);}
	.st191{clip-path:url(#SVGID_00000163769075460746795300000000891557818879399297_);}
	.st192{clip-path:url(#SVGID_00000163044821913911078770000000714176979326770860_);}
	.st193{clip-path:url(#SVGID_00000004537824221208988360000003432665718967739056_);}
	.st194{clip-path:url(#SVGID_00000089555639234141746370000009244579908916795294_);}
	.st195{clip-path:url(#SVGID_00000170976492558462510230000007241086596959915157_);}
	.st196{clip-path:url(#SVGID_00000018209454284399216570000004116951230777805986_);}
	.st197{clip-path:url(#SVGID_00000031922082644962028950000001246203534951679894_);}
	.st198{clip-path:url(#SVGID_00000139266799131915300050000006492514226293479857_);}
	.st199{clip-path:url(#SVGID_00000000902146760611927040000008403237151448687258_);}
	.st200{clip-path:url(#SVGID_00000155125808082463094280000018403852219358130615_);}
	.st201{clip-path:url(#SVGID_00000081644214659472072230000001261712202457160871_);}
	.st202{clip-path:url(#SVGID_00000132769397570779819970000004504514366660686217_);}
	.st203{clip-path:url(#SVGID_00000039128569692187802810000011800248904682796436_);}
	.st204{clip-path:url(#SVGID_00000114772185974372649440000008824203272652946831_);}
	.st205{clip-path:url(#SVGID_00000113352151549245231900000015688943675621732764_);}
	.st206{clip-path:url(#SVGID_00000040557593436328040870000004598237233987352249_);}
	.st207{clip-path:url(#SVGID_00000130626363770040487980000012650740327499153303_);}
	.st208{clip-path:url(#SVGID_00000145751926558559928570000003560036103739880843_);}
	.st209{clip-path:url(#SVGID_00000088090858230546890880000013899984806669727625_);}
	.st210{clip-path:url(#SVGID_00000181045393062329010850000006454007955014925481_);}
	.st211{clip-path:url(#SVGID_00000005963989506684935400000009026113448793600897_);}
	.st212{clip-path:url(#SVGID_00000077307965967759578500000006603904301959679411_);}
	.st213{clip-path:url(#SVGID_00000164494125101543409420000018318938844709024143_);}
	.st214{clip-path:url(#SVGID_00000060008235577460233950000004440927634254898862_);}
	.st215{clip-path:url(#SVGID_00000150071347901524581410000007455839428429419709_);}
	.st216{clip-path:url(#SVGID_00000130626910794806017650000001848213934072320911_);}
	.st217{clip-path:url(#SVGID_00000044890941467433436800000018348272145993677450_);}
	.st218{clip-path:url(#SVGID_00000098931385097425366670000009772151808208816825_);}
	.st219{clip-path:url(#SVGID_00000057127083773612389660000018256382205842150309_);}
	.st220{clip-path:url(#SVGID_00000021090182276732245520000015820717126109109949_);}
	.st221{clip-path:url(#SVGID_00000132046658100328125440000018350995030507348920_);}
	.st222{clip-path:url(#SVGID_00000183234574002907171190000014959419333780747432_);}
	.st223{clip-path:url(#SVGID_00000046328194761945629670000007916049154110026166_);}
	.st224{clip-path:url(#SVGID_00000067957732383908274400000011376526095502254994_);}
	.st225{clip-path:url(#SVGID_00000135662115153041784900000014150210217404936362_);}
	.st226{clip-path:url(#SVGID_00000147181054212655895410000014144190411431720381_);}
	.st227{clip-path:url(#SVGID_00000039849188528486884210000016032874450349968551_);}
	.st228{clip-path:url(#SVGID_00000008842790637096883510000016271647139027826358_);}
	.st229{clip-path:url(#SVGID_00000088116757317297650270000011120688249724443550_);}
	.st230{clip-path:url(#SVGID_00000022559619915823315010000005635948377716000159_);}
	.st231{clip-path:url(#SVGID_00000111888752000442093590000001848311586585054092_);}
	.st232{clip-path:url(#SVGID_00000150065478289979794240000011586333825757932976_);}
	.st233{clip-path:url(#SVGID_00000178886914824433048440000006753969281664010370_);}
	.st234{clip-path:url(#SVGID_00000095328411779791040810000005691204876290897846_);}
	.st235{clip-path:url(#SVGID_00000165957060624196144230000003877505719556204976_);}
	.st236{clip-path:url(#SVGID_00000052099671479383900590000007684609910819031440_);}
	.st237{clip-path:url(#SVGID_00000152243677110829295270000003250068579056553130_);}
	.st238{clip-path:url(#SVGID_00000179644810960321855550000005560177222617016486_);}
	.st239{clip-path:url(#SVGID_00000155840556518984486370000009885430788332129969_);}
	.st240{clip-path:url(#SVGID_00000023984735573424500540000003692766995215356563_);}
	.st241{clip-path:url(#SVGID_00000011005155599824949840000013940001826454244765_);}
	.st242{clip-path:url(#SVGID_00000176723226196254319650000008504826692143290791_);}
	.st243{clip-path:url(#SVGID_00000020359913377446858480000007177904727814467500_);}
	.st244{clip-path:url(#SVGID_00000091722953196999077140000007219110763440210871_);}
	.st245{clip-path:url(#SVGID_00000111911215993070767840000011248314080205550752_);}
	.st246{clip-path:url(#SVGID_00000127002389922469215780000001458911970582578840_);}
	.st247{clip-path:url(#SVGID_00000064334444269033709310000000552689195144637860_);}
	.st248{clip-path:url(#SVGID_00000164513800235693862810000002716652404318489473_);}
	.st249{clip-path:url(#SVGID_00000006676303353646419060000005985081001527595934_);}
	.st250{clip-path:url(#SVGID_00000114033334388876146680000009930300935570470064_);}
	.st251{clip-path:url(#SVGID_00000119811727613513795110000001048487681016487555_);}
	.st252{clip-path:url(#SVGID_00000070821494732815961480000016364608139549443459_);}
	.st253{fill:#E94966;}
	.st254{fill:#13224F;}
	.st255{fill:url(#);}
	.st256{clip-path:url(#SVGID_00000070822201465917953440000006766094536796688054_);}
	.st257{fill:#FFCE00;}
	.st258{fill-rule:evenodd;clip-rule:evenodd;fill:#FD657C;}
	.st259{clip-path:url(#SVGID_00000152977046637872855730000013890681387947869085_);}
	.st260{fill:url(#SVGID_00000155861165157208375360000013870182931045605771_);}
	.st261{fill:#FFFFFF;stroke:#FFFFFF;stroke-width:10;}
	.st262{fill:none;stroke:#272F60;stroke-width:3;stroke-linecap:round;stroke-linejoin:round;}
	.st263{clip-path:url(#SVGID_00000005988399851519055020000005166375950393392575_);}
	.st264{fill:none;stroke:#FFFFFF;stroke-width:5;}
	.st265{fill:#3580F8;}
	.st266{clip-path:url(#SVGID_00000050658154234077185130000001428794033913820595_);}
	.st267{fill:#FDF2F5;}
	.st268{clip-path:url(#SVGID_00000038414447181978942140000004827721789220667033_);}
	.st269{fill:#44C400;}
	.st270{clip-path:url(#SVGID_00000044884312689565548110000017243485947360610228_);}
	.st271{clip-path:url(#SVGID_00000075842737866759770270000011140946997538159546_);}
	.st272{clip-path:url(#SVGID_00000019663828323109635540000008367319713644408504_);}
	.st273{fill:#F1AAB9;}
	.st274{fill:#E34C6A;}
	.st275{clip-path:url(#SVGID_00000084496443787336405550000003689938226412049281_);}
	.st276{clip-path:url(#SVGID_00000153693835493688078730000017804739719130775690_);}
	.st277{clip-path:url(#SVGID_00000047780038892578376750000017555479124554326459_);}
	.st278{clip-path:url(#SVGID_00000098180925142321930460000016177406839730728608_);}
	.st279{clip-path:url(#SVGID_00000075146048028620376000000004172753628933880511_);}
	.st280{clip-path:url(#SVGID_00000075137510502150193220000008858219364584293561_);}
	.st281{clip-path:url(#SVGID_00000127032547967652094340000014731587789239143043_);}
	.st282{clip-path:url(#SVGID_00000088833279018919503440000017856820574741131950_);}
	.st283{display:none;}
	.st284{display:inline;}
	.st285{display:inline;enable-background:new    ;}
	.st286{clip-path:url(#SVGID_00000026125557583533577750000010085885345400065725_);}
	.st287{clip-path:url(#SVGID_00000161595993396249566160000018321697898037360534_);}
	.st288{clip-path:url(#SVGID_00000039099000386405768640000002566040229205219215_);}
	.st289{clip-path:url(#SVGID_00000043422267104041958020000006950244082657216428_);}
	.st290{fill:none;stroke:#FFFFFF;stroke-miterlimit:10;}
	.st291{clip-path:url(#SVGID_00000030463733803351441440000005017925631988264383_);}
	.st292{clip-path:url(#SVGID_00000152238881935082250230000008548886934552731798_);}
	.st293{clip-path:url(#SVGID_00000084499737916485265300000003834870259242226622_);}
	.st294{clip-path:url(#SVGID_00000067198531185863730010000016231661837653650350_);}
	.st295{clip-path:url(#SVGID_00000007391634879705559140000001719616880589587592_);}
	.st296{clip-path:url(#SVGID_00000026863504644406173730000014986983140797506697_);}
	.st297{clip-path:url(#SVGID_00000137835278615314141690000016879508889948576403_);}
	.st298{clip-path:url(#SVGID_00000094586665155840908820000000979406800718629049_);}
	.st299{clip-path:url(#SVGID_00000045614453159384409480000014449124216487849403_);}
	.st300{clip-path:url(#SVGID_00000139260285723375312810000013688195933405949872_);}
	.st301{clip-path:url(#SVGID_00000023999866814099155960000006025906176298399372_);}
	.st302{clip-path:url(#SVGID_00000032632715489266372430000007250064912722549638_);}
	.st303{clip-path:url(#SVGID_00000064329610483794118670000017150424324304779703_);}
	.st304{clip-path:url(#SVGID_00000163032249484244962880000014125567893024792249_);}
	.st305{clip-path:url(#SVGID_00000067958706568482903290000000233070843695247757_);}
	.st306{clip-path:url(#SVGID_00000092440368831804411410000015880548591680296630_);}
	.st307{fill:none;stroke:#142664;stroke-width:4.0018654;stroke-linecap:round;stroke-linejoin:round;stroke-miterlimit:4.0018654;}
	.st308{clip-path:url(#SVGID_00000044139894386753869940000004523543444460241060_);}
	.st309{clip-path:url(#SVGID_00000098189133832120903400000012103426875515250579_);}
	.st310{clip-path:url(#SVGID_00000034779370582447324330000006478460594542941596_);}
	.st311{clip-path:url(#SVGID_00000079448842117154311070000010923823435634153101_);}
	.st312{clip-path:url(#SVGID_00000029732956039499033050000013992568213864082868_);}
	.st313{clip-path:url(#SVGID_00000112612738087753441230000008329252462354720910_);}
	.st314{clip-path:url(#SVGID_00000165949656334417601460000001301900885381826178_);}
	.st315{clip-path:url(#SVGID_00000085971211656703284680000002423471899872977050_);}
	.st316{clip-path:url(#SVGID_00000047745251940685370380000010829405252356572040_);}
	.st317{clip-path:url(#SVGID_00000110469661342503624300000012744328351791184790_);}
	.st318{clip-path:url(#SVGID_00000046340407539916892380000008072592314378992811_);}
	.st319{clip-path:url(#SVGID_00000041297919063574920860000009793498978759065768_);}
	.st320{clip-path:url(#SVGID_00000183222142593665667260000004984306066509740193_);}
	.st321{clip-path:url(#SVGID_00000025432792214106324650000010751202652028431748_);}
	.st322{clip-path:url(#SVGID_00000034778103940561756070000015035013541375685031_);}
	.st323{clip-path:url(#SVGID_00000107547411820792851730000014475215578006378682_);}
	.st324{clip-path:url(#SVGID_00000129179895667717034930000000462900577897955480_);fill:#FD657C;}
	.st325{clip-path:url(#SVGID_00000129179895667717034930000000462900577897955480_);fill:#272F60;}
</style>
<g id="FONDS">
</g>
<g id="ILLUSTRATIONS">
	<g>
		
			<circle id="Ellipse_419_00000090282469833111831370000015713704308786855335_" class="st18" cx="139.4781647" cy="141.5" r="132.5"/>
		<g id="Groupe_1826">
			<g>
				<defs>
					
						<rect id="SVGID_00000050632377603324485540000012618854265958381486_" x="0.0001657" width="277.9559937" height="182.1320038"/>
				</defs>
				<clipPath id="SVGID_00000085956749616379233240000006673595557960414081_">
					<use xlink:href="#SVGID_00000050632377603324485540000012618854265958381486_"  style="overflow:visible;"/>
				</clipPath>
				<g id="Groupe_1825" style="clip-path:url(#SVGID_00000085956749616379233240000006673595557960414081_);">
					<path id="Tracé_5752" class="st12" d="M52.1381683,97.3990021c0.0043983,1.5118179,1.2291756,2.736145,2.7410011,2.7399979
						h8.5639992c1.5118256-0.0038528,2.7366028-1.2281799,2.7409973-2.7399979v-2.4640045
						c-0.006012-1.1296844-0.920311-2.0439911-2.0499954-2.0500031s-2.0439873-0.920311-2.0499992-2.0500031v-7.8899918
						c-0.0077133-1.5145569-1.2394333-2.7373199-2.7540016-2.7340012h-4.3830032
						c-1.5118256,0.0038528-2.7366028,1.2281799-2.7410011,2.7399979
						c-0.0680008,3.7670059-0.0680008,10.6850052-0.0680008,14.4530106"/>
					<path id="Tracé_5753" class="st12" d="M120.1721649,146.7190094
						c-0.0043945-1.5118256-1.2291718-2.7361603-2.7409973-2.7400055h-5.3440094
						c-1.5118256,0.0038452-2.7366028,1.2281799-2.7409973,2.7400055v3.151001
						c-0.0092316,0.3835449,0.1393433,0.7540741,0.4110031,1.0249939c0.2779465,0.2608337,0.6438522,0.407547,1.0250015,0.4109955
						c0.3835526-0.0103302,0.7543793,0.1380005,1.0250015,0.4100037c0.2608261,0.2779541,0.407547,0.6438446,0.4110031,1.0249939
						v2.7400055c0.0043945,1.5118256,1.2291718,2.7361603,2.7409973,2.7400055h2.3300018
						c1.5118256-0.0038452,2.7366028-1.2281799,2.7409973-2.7400055c0.137001-2.3919983,0.137001-6.1640015,0.137001-8.7720032"/>
					<path id="Tracé_5754" class="st12" d="M193.2731628,119.526001c-0.0043945-1.5118256-1.2291718-2.7361526-2.7409973-2.7399979
						h-13.8379974c-1.5118256,0.0038452-2.7366028,1.2281723-2.7409973,2.7399979v7.7409973
						c0.0043945,1.5118256,1.2291718,2.7361603,2.7409973,2.7400055h2.0500031
						c1.5118256,0.0038452,2.7366028,1.2281647,2.7409973,2.7399902V155.625
						c-0.0205536,0.7286682,0.2799988,1.4295654,0.8220062,1.9170074c0.503418,0.5192566,1.1938171,0.8152924,1.9170074,0.8220062
						h6.3000031c0.7288971,0.0202942,1.4300079-0.2801819,1.9179993-0.8220062
						c0.5192566-0.503418,0.8152924-1.1938171,0.8220062-1.9170074L193.2731628,119.526001z"/>
					<path id="Tracé_5755" class="st19" d="M277.9561462,57.6739998c0.0005493,1.5502625-1.2557373,2.8074455-2.8059998,2.8079987
						h-14.5279846c-1.5505981-0.0000038-2.8078918-1.2564163-2.8089905-2.8069992l0,0v-3.0159988
						c0.0005493-1.5502625-1.2557373-2.8074455-2.8059845-2.8079987h-3.0859985
						c-1.5344543,0.0166626-2.7919769-1.2135544-2.8090057-2.7480011v-1.3619995
						c0.016098-1.5344429-1.2145538-2.7915154-2.7489929-2.8079987h-24.4540253
						c-1.5480194,0.0071106-2.8013458,1.2599754-2.8090057,2.8079987V70.961998
						c0.016098,1.5344467-1.2145538,2.7915115-2.7489929,2.8079987h-2.9380035
						c-1.5344543,0.0166626-2.7919769-1.2135544-2.8090057-2.7480011v-3.5539932
						c-0.0076599-1.5480194-1.2609863-2.8008881-2.8090057-2.8079987h-12.8079834
						c-1.5489349,0.0022125-2.8066864-1.2510719-2.8099976-2.7999992v-2.2690048
						c-0.0005493-1.5505867-1.2574158-2.8074455-2.8079987-2.8079987h-12.3999939
						c-1.5480194,0.0071106-2.8013458,1.2599754-2.8090057,2.8079987v15.5480003
						c0.0005493,1.5502625-1.2557373,2.8074493-2.8059998,2.8079987h-9.9329987
						c-1.5483246,0.0011139-2.8051453-1.2516861-2.8090057-2.8000031V52.8120003
						c-0.0054779-1.5507469-1.2612457-2.8065109-2.8119965-2.8120003h-6.371994
						c-1.5335999-0.0172081-2.7907715,1.2120667-2.8079834,2.7456665c0,0.0004463-0.0000153,0.0008888-0.0000153,0.0013351
						v6.5680008c-0.0076599,1.5480232-1.2609863,2.8008881-2.8090057,2.8079987h-7.0570068
						c-1.5344543,0.0166626-2.7919769-1.2135544-2.8090057-2.7480011V43.2210007
						c0.0005493-1.5502625-1.2557373-2.8074455-2.8059998-2.8079987h-11.7219925
						c-1.548317-0.0011063-2.8051376,1.2516899-2.8089981,2.7999992v33.4330025
						c0.0005493,1.5502625-1.2557373,2.8074493-2.8059998,2.8079987H91.1901703
						c-1.5480194-0.0071106-2.8013306-1.2599792-2.8089981-2.8079987v-4.5880051
						c0.016098-1.5344467-1.2145615-2.7915192-2.7490005-2.8079987H67.8271713
						c-1.548317,0.0011063-2.8051376-1.2516937-2.8089981-2.8000031v-1.7169952
						c0.0005493-1.5502625-1.2557411-2.8074455-2.8060036-2.8079987H50.0121689
						c-1.5502625,0.0027657-2.8092346-1.2517319-2.8120003-2.8019905c0-0.001339-0.0000038-0.0026741-0.0000038-0.0040131V52.743
						c-0.0005531-1.5505867-1.257412-2.8074455-2.8079987-2.8079987h-5.7500038
						c-1.5480194,0.0071144-2.8013344,1.2599792-2.8089981,2.8079987v18.2869987
						c-0.0076637,1.5480194-1.2609787,2.8008881-2.8089981,2.8079987h-4.0429993
						c-1.5482483,0.0065689-2.801878,1.2597504-2.809,2.8079987v21.9199982
						c0.0172081,1.5335999-1.2120686,2.7907791-2.7456665,2.8079834c-0.0004444,0.0000076-0.0008888,0.0000076-0.0013332,0.0000153
						H11.0251675c-1.548316,0.0011063-2.8051414-1.2516937-2.809-2.8000031v-7.9499969
						c-0.0076647-1.5480194-1.2609782-2.8008881-2.8090005-2.8079987H2.8071673
						c-0.7464316,0.0059052-1.4631034-0.2923126-1.9850016-0.8259964C0.2887923,86.466156-0.0080384,85.747551,0.0001657,85V0
						h277.2720032L277.9561462,57.6739998z"/>
					<path id="Tracé_5756" class="st12" d="M181.489151,56.8519974
						c7.4724121-23.8331146,32.8505554-37.0960846,56.68367-29.6236687
						c15.4035339,4.8294792,27.0649414,17.5032387,30.5983582,33.2546692h-8.1500244
						c-1.5483093,0.0011101-2.8051453-1.2516861-2.8089905-2.7999992v-3.0239983
						c0.0005493-1.5502625-1.2557373-2.8074455-2.806015-2.8079987h-3.0870056
						c-1.5344543,0.0166626-2.7919769-1.2135544-2.8090057-2.7480011v-1.3610001
						c0.016098-1.5344429-1.2145538-2.7915154-2.7489929-2.8079987h-24.4499817
						c-1.5480194,0.0071106-2.8013458,1.2599754-2.8090057,2.8079987V70.961998
						c0.016098,1.5344467-1.2145538,2.7915115-2.7489929,2.8079987h-2.9380035
						c-1.5344543,0.0166626-2.7919769-1.2135544-2.8090057-2.7480011v-3.5509949
						c-0.0043945-1.551918-1.2610931-2.8090591-2.8130035-2.8139954h-12.8069916
						c-1.5483093,0.0011063-2.8051453-1.2516899-2.8090057-2.8000031v-2.2650032
						c0.0005493-1.5502625-1.2557373-2.8074455-2.8059998-2.8079987l0,0L181.489151,56.8519974z"/>
					<path id="Tracé_5757" class="st13" d="M193.0001678,63.6329994l39.1869965-46.6409988
						c1.0867615-1.2463741,2.782486-1.7750092,4.3849945-1.3669996c1.5986633,0.4152384,2.8055267,1.7289324,3.0839996,3.3569994
						l4.5910034,25.9599972h-22.1999969c-1.5480804,0.0065727-2.8014221,1.2599144-2.8079987,2.8079987V70.961998
						c0.016098,1.5344467-1.2145538,2.7915115-2.7489929,2.8079987h-2.9380035
						c-1.5344543,0.0166626-2.7919769-1.2135544-2.8090057-2.7480011v-3.5519943
						c-0.0076599-1.5480194-1.2609863-2.8008881-2.8090057-2.8079987h-12.8109894
						c-0.7465973,0.0078506-1.4641418-0.2889862-1.9869995-0.8219986c-0.0679932-0.0680008-0.0679932-0.137001-0.1369934-0.2050018"
						/>
					<path id="Tracé_5758" class="st2" d="M40.901165,16.7119999c0.0211411-0.7491102-0.277813-1.4717588-0.8219986-1.9869995
						c-0.5228539-0.5330114-1.2403946-0.8298502-1.9869995-0.8220005h-8.4300022
						c-0.7491093-0.0211401-1.4717598,0.277812-1.9869995,0.8220005c-0.5326195,0.523119-0.8293858,1.2404861-0.8220005,1.9869995
						v5.8859997c-0.0199432,0.7507706,0.2808228,1.4744968,0.8269997,1.9899998
						c0.5407295,0.5059013,1.2468967,0.7980366,1.9869995,0.8220005h8.4300041
						c0.7477303,0.0199928,1.4686966-0.2788658,1.9829979-0.8220005c0.5060577-0.5406303,0.798214-1.2468586,0.8219986-1.9869995
						L40.901165,16.7119999z"/>
					<path id="Tracé_5759" class="st2" d="M54.5171661,13.835h84.4450073c2.6388092,0,4.7779999,2.139184,4.7779999,4.7780008l0,0
						v2.0900002c0.0005493,2.6377125-2.1372833,4.7764473-4.7749939,4.7770004c-0.0006714,0-0.0013275,0-0.0019989,0h-84.445015
						c-2.6388168,0-4.7779999-2.139183-4.7779999-4.7779999l0,0v-2.0900002
						c-0.0005531-2.6377115,2.1372871-4.7764492,4.7749977-4.7770014C54.515831,13.835,54.5164986,13.835,54.5171661,13.835"/>
					<path id="Tracé_5760" class="st2" d="M157.4241638,13.835h22.371994c2.6388092,0,4.7779999,2.139184,4.7779999,4.7780008l0,0
						v2.0900002c0.0005493,2.6377125-2.1372833,4.7764473-4.7749939,4.7770004c-0.0003357,0-0.0006714,0-0.0010071,0h-22.3730011
						c-2.6384277-0.0005569-4.7769928-2.1395779-4.7769928-4.7780018v-2.0900002
						c-0.0005493-2.6377115,2.1372833-4.7764492,4.7749939-4.7770014c0.0006714,0,0.0013275,0,0.0019989,0"/>
					<path id="Tracé_5761" class="st12" d="M39.7391663,42.4669991c0.5080261,0.0059776,0.9955215,0.2014046,1.3670006,0.5480003
						c0.3575859,0.364399,0.5548592,0.8565025,0.5480003,1.3670006v1.0999985
						c-0.0059776,0.5080261-0.2014046,0.9955215-0.5480003,1.3670006c-0.364399,0.3575859-0.8565025,0.5548592-1.3670006,0.5480003
						H28.7071648c-0.5080261-0.0059776-0.9955196-0.2014046-1.3670006-0.5480003
						c-0.3575859-0.364399-0.5548592-0.8565025-0.5480003-1.3670006V44.382
						c0.0059776-0.5080261,0.2014046-0.9955215,0.5480003-1.3670006c0.364399-0.3575859,0.8565025-0.5548592,1.3670006-0.5480003
						H39.7391663z M82.0731659,45.5509987c-0.0059738,0.5080261-0.2014008,0.9955215-0.5479965,1.3670006
						c-0.3643951,0.3575859-0.8564987,0.5548592-1.3669968,0.5480003H48.0281677
						c-0.5080261-0.0059776-0.9955215-0.2014046-1.3670006-0.5480003c-0.3603401-0.3631287-0.5602226-0.8554535-0.5550003-1.3670006
						v-1.0999985c0.0053978-0.5081406,0.2009048-0.9958382,0.5480003-1.3670006
						c0.364399-0.3575859,0.8565025-0.5548592,1.3670006-0.5480003h32.1399956
						c0.5080261,0.0059776,0.9955139,0.2014046,1.3669968,0.5480003c0.3575821,0.364399,0.5548553,0.8565025,0.5479965,1.3670006
						L82.0731659,45.5509987z M116.8731689,47.4679985H88.3141632c-0.5080261-0.0059776-0.9955139-0.2014046-1.3669968-0.5480003
						c-0.3575821-0.364399-0.5548553-0.8565025-0.5479965-1.3670006v-1.0999985
						c0.0059738-0.5080261,0.2014008-0.9955215,0.5479965-1.3670006c0.3643951-0.3575859,0.8564987-0.5548592,1.3669968-0.5480003
						h28.5699997L116.8731689,47.4679985z M148.0461731,45.5509987c-0.0059814,0.5080261-0.2014008,0.9955215-0.5480042,1.3670006
						c-0.3643951,0.3575859-0.8565063,0.5548592-1.3670044,0.5480003h-7.125
						c-0.5080261-0.0059776-0.9955292-0.2014046-1.3670044-0.5480003c-0.3575897-0.364399-0.5548553-0.8565025-0.5480042-1.3670006
						v-1.0999985c0.0059814-0.5080261,0.2014008-0.9955215,0.5480042-1.3670006
						c0.3643951-0.3575859,0.8565063-0.5548592,1.3670044-0.5480003h7.125
						c0.5080261,0.0059776,0.9955292,0.2014046,1.3670044,0.5480003c0.3575897,0.364399,0.5548553,0.8565025,0.5480042,1.3670006
						V45.5509987z M152.4311676,44.3869972c0.0059814-0.5080261,0.2014008-0.9955215,0.5480042-1.3670006
						c0.3643951-0.3575859,0.8565063-0.5548592,1.3670044-0.5480003h10.8269806
						c0.5080261,0.0059776,0.9955292,0.2014046,1.3670044,0.5480003c0.3575897,0.364399,0.5548553,0.8565025,0.5480042,1.3670006
						v1.0999985c-0.0059814,0.5080261-0.2014008,0.9955215-0.5480042,1.3670006
						c-0.3643951,0.3575859-0.8565063,0.5548592-1.3670044,0.5480003h-10.8179932
						c-0.5080261-0.0059776-0.9955292-0.2014046-1.3670044-0.5480003c-0.3575897-0.364399-0.5548553-0.8565025-0.5480042-1.3670006
						L152.4311676,44.3869972z"/>
					<path id="Tracé_5762" class="st12" d="M58.4411659,33.0839996c1.0576248-0.0016556,1.9163399,0.8543701,1.9179993,1.9119949
						v0.0000076v1.0999985c0.0016594,1.0566826-0.8533173,1.9147911-1.9099998,1.9169998H28.7091656
						c-1.0566845,0.0022125-1.9152412-0.8523178-1.9179993-1.9090004v-1.1000023
						c-0.0005531-1.0573959,0.8556042-1.9153442,1.9130001-1.916996h29.7369995V33.0839996z M73.7871628,36.1669998
						c-0.0059738,0.5080261-0.2014008,0.9955215-0.5479965,1.3670006c-0.3643951,0.3575859-0.8564987,0.5548592-1.3669968,0.5480003
						H66.731163c-0.5080261-0.0059776-0.9955215-0.2014046-1.3669968-0.5480003
						c-0.3575897-0.364399-0.554863-0.8565025-0.5480042-1.3670006v-1.1000023
						c0.0059814-0.5080223,0.2014084-0.9955177,0.5480042-1.3670006c0.3643951-0.3575821,0.8564987-0.5548592,1.3669968-0.5479965
						h5.1419983c0.5080261,0.0059776,0.9955139,0.2014008,1.3669968,0.5479965
						c0.3575821,0.3644028,0.5548553,0.8565063,0.5479965,1.3670006L73.7871628,36.1669998z M129.7611694,36.1669998
						c-0.0054016,0.5081406-0.2009125,0.9958382-0.5480042,1.3670006c-0.3643951,0.3575859-0.8564911,0.5548592-1.3669968,0.5480003
						H80.0911636c-0.5080261-0.0059776-0.9955139-0.2014046-1.3669968-0.5480003
						c-0.3575821-0.364399-0.5548553-0.8565025-0.5479965-1.3670006v-1.1000023
						c0.0059738-0.5080223,0.2014008-0.9955177,0.5479965-1.3670006c0.3643951-0.3575821,0.8564987-0.5548592,1.3669968-0.5479965
						h47.7529984c0.5080261,0.0059776,0.9955139,0.2014008,1.3670044,0.5479965
						c0.3575745,0.3644028,0.5548553,0.8565063,0.5479889,1.3670006L129.7611694,36.1669998z M134.0731659,35.0019989
						c0.0059814-0.5080261,0.2014008-0.9955215,0.5480042-1.3670006c0.3643951-0.3575897,0.8565063-0.5548592,1.3670044-0.5480003
						h29.1179962c0.5080261,0.0059776,0.9955292,0.2014008,1.3670044,0.5480003
						c0.3575897,0.364399,0.5548553,0.8565025,0.5480042,1.3670006v1.0999985
						c-0.0054016,0.5081406-0.2009125,0.9958382-0.5480042,1.3670006c-0.3643951,0.3575859-0.8565063,0.5548592-1.3670044,0.5480003
						h-29.1080017c-0.5080261-0.0059776-0.9955292-0.2014046-1.3670044-0.5480003
						c-0.3575897-0.364399-0.5548553-0.8565025-0.5480042-1.3670006L134.0731659,35.0019989z"/>
					<path id="Tracé_5763" class="st12" d="M36.3801651,51.8509979v5h-7.6730003
						c-0.5080261-0.0059776-0.9955196-0.2014046-1.3670006-0.5480003c-0.3575859-0.364399-0.5548592-0.8565025-0.5480003-1.3670006
						v-1.0999985c0.0053978-0.5081406,0.2009048-0.9958382,0.5480003-1.3670006
						c0.364399-0.3575859,0.8565025-0.5548592,1.3670006-0.5480003c2.809-0.0680008,7.6730003-0.0680008,7.6730003-0.0680008
						 M84.6091614,54.9339981c0.0011063,1.0576248-0.8553696,1.9158936-1.9129944,1.9169998c-0.0000076,0-0.0000076,0-0.0000076,0
						H67.2801666c-1.0551376,0.0049896-1.9152908-0.8448792-1.9229965-1.9000015v-1.1169968
						c0.0005493-1.0576248,0.8583679-1.9145508,1.9159927-1.9140015h15.4209976
						c1.0570755-0.0005531,1.9144516,0.8559265,1.9150009,1.9129982c0,0.0003357,0,0.0006676,0,0.0010033V54.9339981z
						 M95.9821625,54.9339981c0.0005569,1.0558395-0.8531647,1.9131393-1.9089966,1.9169998H90.91716
						c-1.0566864,0.0022125-1.9152451-0.8523178-1.9179993-1.9090004v-1.1079979
						c-0.0011063-1.0576248,0.8553696-1.9158936,1.9129944-1.9169998c0.0000076,0,0.0000076,0,0.0000076,0h3.1529999
						c1.0570755-0.0016594,1.9153442,0.8539238,1.9169998,1.9109955c0,0.0020027,0,0.0040016,0,0.0060043V54.9339981z
						 M116.882164,51.8509979v5h-14.5930023c-0.5080261-0.0059776-0.9955139-0.2014046-1.3669968-0.5480003
						c-0.3584518-0.364727-0.5561295-0.857666-0.5490036-1.3689995v-1.0999985
						c0.0059738-0.5080261,0.2014008-0.9955215,0.5479965-1.3670006c0.3643951-0.3575859,0.8564987-0.5548592,1.3669968-0.5480003
						c4.3850021-0.0680008,14.5940018-0.0680008,14.5940018-0.0680008 M134.216156,51.8509979h6.5090027
						c1.0574036-0.0005569,1.9153442,0.8555984,1.9170074,1.9129982v1.0999985
						c0.0016632,1.0566864-0.8533173,1.9147949-1.9100037,1.9169998h-6.5160065V51.8509979z M51.3161583,53.7629967
						c0.0059776-0.5080261,0.2014046-0.9955215,0.5480003-1.3670006c0.364399-0.3575859,0.8565025-0.5548592,1.3670006-0.5480003
						h5.7579994c0.5080261,0.0059776,0.9955215,0.2014046,1.3670006,0.5480003
						c0.3575859,0.364399,0.5548592,0.8565025,0.5480003,1.3670006v1.0999985
						c-0.0059776,0.5080261-0.2014046,0.9955215-0.5480003,1.3670006c-0.364399,0.3575859-0.8565025,0.5548592-1.3670006,0.5480003
						h-5.7549934c-0.5080261-0.0059776-0.9955215-0.2014046-1.3670006-0.5480003
						c-0.3575859-0.364399-0.5548592-0.8565025-0.5480003-1.3670006L51.3161583,53.7629967z"/>
					<path id="Tracé_5764" class="st19" d="M31.7211647,152.8819885c-1.0572338,0.0016632-1.9157906-0.8537598-1.9179993-1.9109955
						v-18.6399994c-0.0194626-0.7284393,0.2808952-1.4289093,0.8220005-1.9169922
						c0.5038548-0.5192261,1.1945286-0.8152161,1.9180012-0.8220062h4.8639984
						c1.5118256,0.0038452,2.7366028,1.2281799,2.7410011,2.7400055v1.2330017
						c-0.0205727,0.7289429,0.2799492,1.4301758,0.8219986,1.9179993c0.5038567,0.5192108,1.1945305,0.8152161,1.9179993,0.821991
						h1.4389992c0.7286606-0.0201416,1.4295845,0.279892,1.9179993,0.8209991
						c0.5192146,0.5038605,0.8152199,1.1945343,0.8219986,1.9179993v14.4530029
						c0.0205727,0.7289429-0.2799492,1.4301758-0.8219986,1.9179993c-0.5038528,0.5192261-1.1945267,0.8152313-1.9179993,0.8220062
						h-2.4659958c-1.5118294,0.0038452-2.7366066,1.2281799-2.7410011,2.7400055v0.2050018
						c-0.0289268,1.5135345-1.2793388,2.7170563-2.7928734,2.6881256c-1.4727974-0.0281525-2.6599808-1.215332-2.6881256-2.6881256
						v-4.3860016c0.0469398-1.0114136-0.7346153-1.8695068-1.7460022-1.9170074c-0.0580006,0-0.1149998,0-0.1720009,0"/>
					<path id="Tracé_5765" class="st13" d="M180.12117,106.4420013c-0.7179718,0-1.3000031-0.5820236-1.3000031-1.2999954
						v-0.0000076V90.0709991c0.0128937-0.9025574,0.7414398-1.6311035,1.6439972-1.6439972h2.2599945
						c1.016983,0.0113449,1.8386536,0.8330078,1.8500061,1.8499985c0.0113525,1.0164337,0.8325653,1.8376465,1.848999,1.848999
						h0.0679932c0.5080261,0.0059738,0.9955292,0.2014008,1.3670044,0.5479965
						c0.3580627,0.36409,0.5554199,0.8563919,0.5480042,1.3669968v6.439003
						c0.0205536,0.7286606-0.2799988,1.4295654-0.8220062,1.9169998c-0.5038605,0.5192184-1.1945343,0.8152161-1.9179993,0.8219986
						h-0.3419952c-0.7476349,0.0174255-1.3495789,0.6193619-1.3670044,1.3669968v0.5479965
						c-0.0174255,0.7476349-0.6193695,1.3495712-1.3670044,1.3669968c-0.6840057-0.0680008-1.6439972-0.0680008-2.4660034-0.0680008
						"/>
					<path id="Tracé_5766" class="st13" d="M21.9241657,117.6760025c0.0205517-0.7286606-0.279995-1.4295654-0.8220005-1.9169998
						c-0.5038548-0.5192184-1.1945286-0.8152161-1.9179993-0.8219986h-3.5629997
						c-0.7289505-0.0205765-1.4301739,0.2799454-1.9180002,0.8219986c-0.4929743,0.5210953-0.7843657,1.2006531-0.8219995,1.9169998
						v3.5649948c-0.0205507,0.7286606,0.279995,1.4295654,0.8220005,1.9169998
						c0.5038557,0.5192184,1.1945295,0.8152161,1.9180002,0.8219986h3.5619993
						c0.7289505,0.0205765,1.4301739-0.279953,1.9179993-0.8219986c0.5192528-0.503418,0.8152885-1.1938095,0.8220005-1.9169998
						L21.9241657,117.6760025z"/>
					<path id="Tracé_5767" class="st19" d="M59.196167,91.0940018c0.0205498-0.7286606-0.279995-1.4295654-0.8219986-1.9169998
						c-0.5038567-0.5192184-1.1945305-0.8152161-1.9179993-0.8219986h-9.5930023
						c-0.7289505-0.0205765-1.430172,0.279953-1.9179993,0.8219986c-0.5192528,0.503418-0.8152847,1.1938095-0.8219986,1.9169998
						v13.8409958c-0.0205727,0.7289505,0.2799492,1.4301758,0.8219986,1.9179993
						c0.5035057,0.5195999,1.1944885,0.8153763,1.9179993,0.8209991h9.5919991
						c0.7286606,0.0201492,1.4295845-0.2798843,1.9179993-0.8209991c0.5192146-0.5038528,0.8152199-1.1945267,0.8219986-1.9179993
						L59.196167,91.0940018z"/>
					<path id="Tracé_5768" class="st13" d="M193.5061646,129.7310028h2.4799957
						c2.5128937,0,4.5500031,2.0370941,4.5500031,4.5500031l0,0v14.3269958c0,2.5123291-2.0366516,4.5489807-4.548996,4.5489807
						h-2.4799957c-2.5128937,0-4.5500031-2.0370789-4.5500031-4.5500031l0,0v-14.3269806
						c0-2.5123444,2.0366516-4.5490112,4.548996-4.5490112"/>
					<path id="Tracé_5769" class="st13" d="M248.6741638,75.961998h0.3350067
						c1.0062561-0.0005493,1.8224487,0.8147354,1.822998,1.8209991c0,0.0006714,0,0.0013351,0,0.0019989v14.1660004
						c0.0005493,1.0062637-0.814743,1.8224487-1.8209991,1.822998c-0.0006714,0-0.0013275,0-0.0019989,0h-0.3350067
						c-1.0062561,0.0005493-1.8224487-0.8147354-1.822998-1.8209991c0-0.0006714,0-0.0013351,0-0.0019989V77.7799988
						c-0.0005493-1.0062637,0.814743-1.8224487,1.8209991-1.822998c0.0006714,0,0.0013275,0,0.0019989,0"/>
					<path id="Tracé_5770" class="st19" d="M157.6891632,124.1829987h4.0330048
						c1.0062561-0.0005493,1.8224487,0.8147354,1.822998,1.8209991c0,0.0006714,0,0.0013351,0,0.0019989v9.1000061
						c0.0005493,1.0062561-0.814743,1.8224487-1.8209991,1.822998c-0.0006714,0-0.0013275,0-0.0019989,0h-4.0330048
						c-1.0062561,0.0005493-1.8224487-0.814743-1.822998-1.8209991c0-0.0006714,0-0.0013428,0-0.0019989l0,0v-9.1000061
						c-0.0005493-1.0062637,0.814743-1.8224487,1.8209991-1.822998
						C157.6878357,124.1829987,157.6884918,124.1829987,157.6891632,124.1829987"/>
					<path id="Tracé_5771" class="st13" d="M130.3801727,75.3450012c-1.5118256,0.0038452-2.7366104,1.2281723-2.7410049,2.7399979
						v18.2190018c0.0043945,1.5119858,1.2290115,2.7366028,2.7410049,2.7409973h3.9720001
						c1.5119781-0.0043945,2.7366028-1.2290115,2.7409973-2.7409973v-4.3829956
						c0.0182648-0.4210815-0.1588745-0.8270187-0.480011-1.0999985c-0.2914429-0.2952728-0.6853027-0.4671402-1.0999908-0.4800034
						c-0.4207001,0.0184631-0.8264465-0.1578598-1.1000061-0.4779968c-0.2950134-0.2916336-0.4668274-0.685379-0.4799957-1.0999985
						v-10.678009c-0.0043945-1.5118256-1.2291718-2.7361526-2.7409973-2.7399979H130.3801727z"/>
					<path id="Tracé_5772" class="st12" d="M239.795166,76.3030014c1.5118256-0.0038452,2.7366028-1.2281723,2.7409973-2.7399979
						V57.9440002c0.0205536-0.7286568-0.2799988-1.4295654-0.8220062-1.9169998
						c-0.5038605-0.5192146-1.1945343-0.8152199-1.9179993-0.8219986h-5.2070007
						c-0.7289429-0.0205727-1.4301758,0.2799492-1.9179993,0.8219986c-0.5192566,0.503418-0.8152924,1.1938057-0.8220062,1.9169998
						v5.2789993c-0.0072021,0.9764175,0.7784882,1.7737961,1.7549133,1.7809982c0.0000305,0,0.000061,0,0.0000916,0h0.026001
						c1.016983,0.0113525,1.8386536,0.8330078,1.8500061,1.8499985v6.7120056
						c0.0043945,1.5118256,1.2291718,2.7361526,2.7409973,2.7399979L239.795166,76.3030014z"/>
					<path id="Tracé_5773" class="st19" d="M224.7901611,99.7290039c-1.5118256,0.0038452-2.7366028,1.2281723-2.7409973,2.7399979
						v20.7539978c0.0043945,1.5118256,1.2291718,2.7361526,2.7409973,2.7399979h7.8099976
						c1.5118256-0.0038452,2.7366028-1.2281723,2.7409973-2.7399979v-13.0819931
						c-0.0097961-1.2444763-1.0165253-2.2507553-2.2610016-2.2600021c-1.2442474-0.0097809-2.2506714-1.0157547-2.2610016-2.2600021
						v-3.2190018c0.0205536-0.7286606-0.2799988-1.4295654-0.8220062-1.9169998
						c-0.5038605-0.5192184-1.1945343-0.8152161-1.9179993-0.8219986c-0.9589996,0.0680008-2.1920013,0.0680008-3.2890015,0.0680008
						"/>
					<path id="Tracé_5774" class="st12" d="M20.6241646,159.7330017c-1.5118294,0.0038452-2.7366066,1.2281799-2.7409992,2.7400055
						v19.6589966h12.1259995v-13.6269989c0.0192509-0.7291107-0.2818851-1.4300537-0.8239994-1.9179993
						c-0.5038548-0.5192261-1.1945286-0.8152313-1.9179993-0.8220062c-1.5118294-0.0038452-2.7366066-1.2281799-2.7409992-2.7400055
						v-0.4799957c-0.0043926-1.5118256-1.2291698-2.7361603-2.7409992-2.7400055
						c-0.385479-0.0545349-0.7747917-0.0772858-1.1639996-0.0679932"/>
					<path id="Tracé_5775" class="st19" d="M101.1241684,106.9219971c0.0205536-0.7286606-0.2799911-1.4295654-0.8219986-1.9169998
						c-0.503418-0.519249-1.1938095-0.8152847-1.9169998-0.8219986h-7.9480057
						c-1.5116653,0.0038452-2.7361526,1.2283325-2.7399979,2.7399979v26.5040054
						c0.0038452,1.5116577,1.2283325,2.736145,2.7399979,2.7399902h5.4820023
						c1.5118256-0.0038452,2.7366028-1.2281647,2.7409973-2.7399902v-2.3919983
						c-0.0499344-0.962738-0.8192673-1.7320709-1.7819977-1.7819977c-0.9619751-0.0503845-1.7306213-0.8190308-1.7809982-1.7810059
						v-10.8880005c-0.0205536-0.7286606,0.2799911-1.4295654,0.8219986-1.9169998
						c0.503418-0.519249,1.1938095-0.8152847,1.9169998-0.8219986h0.4800034
						c0.7291946,0.0203247,1.4306183-0.2801285,1.9189987-0.8219986c0.519249-0.503418,0.8152847-1.1938095,0.8219986-1.9169998
						c0.0680008-1.3000031,0.0680008-2.8779984,0.0680008-4.1780014"/>
					<path id="Tracé_5776" class="st2" d="M239.725174,182.0559998v-17.4649963
						c0.0027466-1.4740143,1.196991-2.6682587,2.6710052-2.6710052s2.6682587-1.196991,2.6710052-2.6710052v-6.7779999
						c-0.0205536-0.7286682,0.2799988-1.4295654,0.8220062-1.9170074c0.5038605-0.5192261,1.1945343-0.8152313,1.9179993-0.8220062
						h1.7089996c0.7289581-0.0205688,1.4301758,0.279953,1.9179993,0.8220062
						c0.5192566,0.503418,0.8152924,1.1938171,0.8220062,1.9170074v2.1200104
						c-0.0205536,0.7286682,0.2799988,1.4295654,0.8220062,1.9170074c0.5214996,0.4929657,1.2013702,0.7843475,1.9179993,0.8220062
						h1.4389801c0.7289734-0.0205688,1.4301758,0.279953,1.9179993,0.8220062
						c0.5192566,0.503418,0.8153076,1.1938171,0.8220215,1.9170074v21.9219666H239.725174V182.0559998z"/>
					<path id="Tracé_5777" class="st13" d="M90.91716,126.3809967c-0.0043945-1.5118256-1.2291718-2.7361526-2.7409973-2.7399902
						h-2.9459991c-1.5118256,0.0038376-2.7366028,1.2281647-2.7409973,2.7399902v16.7129974
						c0.0178986,1.6568604,1.3581238,2.9948578,3.0149994,3.0100098h2.4649963
						c1.6586456-0.0146484,2.999794-1.3553619,3.0149994-3.0140076c-0.0680008-4.3829956-0.0680008-12.4669952-0.0680008-16.7129974
						"/>
					<path id="Tracé_5778" class="st13" d="M267.5021667,121.9219971h1.6579895
						c2.5129089,0,4.5500183,2.0371017,4.5500183,4.5499954v0.0000076v1.6549988c0,2.5123444-2.0366516,4.548996-4.5490112,4.548996
						h-1.6589966c-2.5128784,0-4.5499878-2.0370941-4.5499878-4.5499878v-0.0000153v-1.6539993
						c0-2.5128937,2.0370789-4.5500031,4.5499878-4.5500031l0,0"/>
					<path id="Tracé_5779" class="st12" d="M255.594162,104.25h1.423996
						c0.8179321-0.0000076,1.4809875,0.6630554,1.4809875,1.4809952c0,0.0013351,0,0.0026703,0,0.0040054v1.4199982
						c0,0.8179321-0.6630554,1.4810028-1.4809875,1.4810028l0,0h-1.423996c-0.8179321,0-1.4810028-0.663063-1.4810028-1.4809952
						v-0.0000076v-1.4199982c0-0.8179321,0.6630707-1.4810028,1.4810028-1.4810028l0,0"/>
					<path id="Tracé_5780" class="st12" d="M161.1841583,92.538002h1.4260101c0.8179321,0,1.4810028,0.663063,1.4810028,1.4809952
						v0.0000076v1.4240036c0,0.8179321-0.6630707,1.4810028-1.4810028,1.4810028l0,0h-1.423996
						c-0.8179321,0-1.4810028-0.663063-1.4810028-1.4809952v-0.0000076v-1.4240112
						c0-0.8179321,0.6630707-1.4810028,1.4810028-1.4810028l0,0"/>
					<path id="Tracé_5781" class="st12" d="M103.5571671,156.3759918L103.5571671,156.3759918
						c0.8135147,0,1.4729996,0.6594849,1.4729996,1.4730072c0,0.8135071-0.6594849,1.4729919-1.4729996,1.4729919
						s-1.4729919-0.6594849-1.4729996-1.4729919c-0.0000076-0.8135223,0.6594772-1.4730072,1.4729919-1.4730072H103.5571671"/>
					<path id="Tracé_5782" class="st12" d="M261.4781494,147.1279907L261.4781494,147.1279907
						c0.8135376,0,1.4729919,0.6594849,1.4729919,1.4730225c0,0.8135071-0.6594849,1.4729919-1.4729919,1.4729919
						s-1.4729919-0.6594849-1.4729919-1.4729919C260.0051575,147.7874756,260.6646423,147.1279907,261.4781494,147.1279907
						L261.4781494,147.1279907"/>
					<path id="Tracé_5783" class="st13" d="M202.2151642,162.0610046L202.2151642,162.0610046
						c0.8135223,0,1.4729919,0.6594849,1.4729919,1.4730072s-0.6594849,1.4729919-1.4730072,1.4729919
						c-0.8135071,0-1.4729919-0.6594849-1.4729919-1.4729919c0-0.8135223,0.6594849-1.4730072,1.4729919-1.4730072H202.2151642"/>
					<path id="Tracé_5784" class="st273" d="M206.3931732,138.3609924L206.3931732,138.3609924
						c0.8135223,0.0000153,1.4729919,0.6595001,1.4729919,1.4730072c0,0.8135223-0.6594849,1.4730072-1.4730072,1.4729919
						c-0.8135071,0-1.4729919-0.6594849-1.4729919-1.4729919
						C204.920166,139.0204773,205.5796509,138.3609924,206.3931732,138.3609924L206.3931732,138.3609924"/>
					<path id="Tracé_5785" class="st12" d="M233.2501678,81.7839966L233.2501678,81.7839966
						c0.8135223,0.0000076,1.4729919,0.6594925,1.4729919,1.4730072s-0.6594849,1.4729996-1.4730072,1.4729919
						c-0.8135071,0-1.4729919-0.6594849-1.4729919-1.4729996S232.4366455,81.7839966,233.2501678,81.7839966L233.2501678,81.7839966
						"/>
					<path id="Tracé_5786" class="st12" d="M79.1661682,93.0849991L79.1661682,93.0849991
						c0.8135147,0.0011063,1.4720993,0.6614914,1.470993,1.4750061s-0.6614914,1.4720993-1.4750061,1.470993
						c-0.8127289-0.0011063-1.470993-0.6602707-1.470993-1.4729996c0-0.8135147,0.6594849-1.4729996,1.4729996-1.4729996"/>
					<path id="Tracé_5787" class="st13" d="M46.0061684,119.0429993L46.0061684,119.0429993
						c0.8135147,0,1.4729996,0.6594849,1.4729996,1.4729996s-0.6594849,1.4729996-1.4729996,1.4729996
						s-1.4729996-0.6594849-1.4729996-1.4729996l0,0C44.5331688,119.7024841,45.1926537,119.0429993,46.0061684,119.0429993"/>
					<path id="Tracé_5788" class="st13" d="M62.8601646,143.0879974L62.8601646,143.0879974
						c0.8135147,0,1.4730034,0.6594849,1.4730034,1.4730072c0,0.8135071-0.6594887,1.4729919-1.4730034,1.4729919
						s-1.4729996-0.6594849-1.4729996-1.4729919l0,0C61.3871651,143.7474823,62.0466499,143.0879974,62.8601646,143.0879974"/>
					<path id="Tracé_5789" class="st13" d="M109.382164,163.7730103L109.382164,163.7730103
						c0.8135147,0,1.4729996,0.6594849,1.4729996,1.4730072c0,0.8135071-0.6594849,1.4729919-1.4729996,1.4729919
						s-1.4729919-0.6594849-1.4729996-1.4729919c-0.0000076-0.8135223,0.6594772-1.4730072,1.4729919-1.4730072H109.382164"/>
					<path id="Tracé_5790" class="st13" d="M255.9931641,64.3170013L255.9931641,64.3170013
						c0.8135071,0,1.4729919,0.6594925,1.4729919,1.4730072s-0.6594849,1.4729919-1.4730072,1.4729919
						c-0.8135071-0.0000076-1.4729919-0.6594849-1.4729919-1.4729996S255.1796417,64.3170013,255.9931641,64.3170013
						L255.9931641,64.3170013"/>
					<path id="Tracé_5791" class="st13" d="M152.8861694,118.9779968L152.8861694,118.9779968
						c0.8135223,0.0000076,1.4729919,0.6594925,1.4729919,1.4730148c0,0.8135147-0.6594849,1.4729919-1.4730072,1.4729919
						c-0.8135071,0-1.4729919-0.6594925-1.4729919-1.4730072S152.0726471,118.9779968,152.8861694,118.9779968
						L152.8861694,118.9779968"/>
					<path id="Tracé_5792" class="st274" d="M129.318161,55.5499992L129.318161,55.5499992
						c0.8135223,0,1.4730072,0.6594849,1.4730072,1.4729996s-0.6594849,1.4729996-1.4730072,1.4729996
						c-0.8135071,0-1.4729996-0.6594849-1.4729996-1.4729996l0,0
						C127.8451614,56.2094841,128.5046539,55.5499992,129.318161,55.5499992"/>
					<path id="Tracé_5793" class="st13" d="M58.064167,74.522995L58.064167,74.522995
						c0.8135147,0,1.4729996,0.6594849,1.4729996,1.4730072c0,0.8135071-0.6594849,1.4729919-1.4729996,1.4729919
						s-1.4729996-0.6594849-1.4729996-1.4729919l0,0C56.5911674,75.1824799,57.2506523,74.522995,58.064167,74.522995"/>
					<path id="Tracé_5794" class="st273" d="M24.6981659,147.470993L24.6981659,147.470993
						c0.8135147,0,1.4729996,0.6594849,1.4730015,1.4730072c0,0.8135071-0.6594849,1.4729919-1.4729996,1.4729919
						s-1.4729977-0.6594849-1.4730015-1.4729919c-0.0000038-0.8135223,0.6594772-1.4730072,1.4729939-1.4730072
						C24.6981621,147.470993,24.698164,147.470993,24.6981659,147.470993"/>
					<path id="Tracé_5795" class="st273" d="M145.3491669,158.5709991L145.3491669,158.5709991
						c0.8135223,0,1.4730072,0.6594849,1.4730072,1.4730072c0,0.8135071-0.6594849,1.4729919-1.4730072,1.4729919
						c-0.8135071,0-1.4729919-0.6594849-1.4729919-1.4729919
						C143.8761597,159.230484,144.5356445,158.5709991,145.3491669,158.5709991L145.3491669,158.5709991"/>
					<path id="Tracé_5796" class="st273" d="M166.9311676,99.7289963L166.9311676,99.7289963
						c0.8135223,0.0000076,1.4729919,0.6594925,1.4729919,1.4730072s-0.6594849,1.4729996-1.4730072,1.4729919
						c-0.8135071,0-1.4729919-0.6594849-1.4729919-1.4729996S166.1176453,99.7289963,166.9311676,99.7289963L166.9311676,99.7289963
						"/>
					<path id="Tracé_5797" class="st13" d="M195.5771637,81.7839966h1.423996c0.8179321,0,1.4810028,0.663063,1.4810028,1.4809952
						v0.0000076v1.4259949c0,0.8179321-0.6630707,1.4810028-1.4810028,1.4810028l0,0h-1.423996
						c-0.8179321,0-1.4810028-0.663063-1.4810028-1.4809952v-0.0000076v-1.4259949
						C194.0961609,82.4470673,194.7592316,81.7839966,195.5771637,81.7839966L195.5771637,81.7839966"/>
					<path id="Tracé_5798" class="st13" d="M138.5751648,143.019989h1.4240112
						c0.8179321,0,1.4810028,0.6630707,1.4810028,1.4810028l0,0v1.4240112c0,0.8179321-0.6630707,1.4810028-1.4810028,1.4810028l0,0
						h-1.4240112c-0.8179321,0-1.4810028-0.6630707-1.4810028-1.4810028l0,0v-1.4240112
						C137.094162,143.683075,137.7572327,143.019989,138.5751648,143.019989L138.5751648,143.019989"/>
					<path id="Tracé_5799" class="st13" d="M238.7401581,137.2689972h1.423996
						c0.8179321,0,1.4810028,0.6630707,1.4810028,1.4810028l0,0v1.4190063c0,0.8179321-0.6630707,1.4810028-1.4810028,1.4810028l0,0
						h-1.423996c-0.8179321,0-1.4810028-0.6630707-1.4810028-1.4810028l0,0v-1.4240112
						c0-0.8179321,0.6630707-1.4810028,1.4810028-1.4810028l0,0"/>
					<path id="Tracé_5800" class="st12" d="M38.9571686,111.0320053h1.4209976c0.8179321,0,1.480999,0.6630707,1.480999,1.4810028
						l0,0v1.4240036c0,0.8179321-0.663063,1.4810028-1.4809952,1.4810028c-0.0000038,0-0.0000038,0-0.0000038,0h-1.4209976
						c-0.8179321,0-1.480999-0.6630707-1.480999-1.4810028l0,0v-1.4240112c0-0.8179321,0.663063-1.4810028,1.4809952-1.4810028
						c0.0000038,0,0.0000038,0,0.0000038,0"/>
					<path id="Rectangle_1017" class="st12" d="M148.0541687,66.7149963h1.7859955
						c0.7179718,0,1.3000031,0.5820312,1.3000031,1.3000031v1.7859955c0,0.7179718-0.5820312,1.3000031-1.3000031,1.3000031
						h-1.7859955c-0.7179718,0-1.3000031-0.5820312-1.3000031-1.3000031v-1.7859955
						C146.7541656,67.2970276,147.3361969,66.7149963,148.0541687,66.7149963z"/>
					<path id="Tracé_5801" class="st19" d="M82.120163,84.2490005h1.4240036c0.8179321,0,1.4810028,0.663063,1.4810028,1.4809952
						v0.0000076v1.4240036c0,0.8179321-0.663063,1.4810028-1.4809952,1.4810028h-0.0000076H82.120163
						c-0.8179321,0-1.4810028-0.663063-1.4810028-1.4809952V87.154007v-1.4240036
						c0-0.8179321,0.663063-1.4810028,1.4809952-1.4810028H82.120163"/>
					<path id="Tracé_5802" class="st273" d="M209.2091675,144.2519989h1.427002
						c0.8162842-0.0005646,1.4784546,0.6607208,1.4790039,1.4769897c0,0.0006714,0,0.0013275,0,0.0019989v1.4259949
						c0.0005493,0.8162842-0.6607208,1.4784546-1.4769897,1.4790039c-0.0006714,0-0.0013428,0-0.0020142,0h-1.427002
						c-0.8162842,0.0005493-1.4784546-0.6607208-1.4790039-1.4769897c0-0.0006714,0-0.0013428,0-0.0020142v-1.4259949
						c-0.0005493-0.8162689,0.6607208-1.4784393,1.477005-1.4789886
						C209.20784,144.2519989,209.2084961,144.2519989,209.2091675,144.2519989"/>
					<path id="Tracé_5803" class="st12" d="M124.7331696,102.538002h1.423996
						c0.8162766-0.0005493,1.478447,0.6607285,1.4789963,1.477005c0,0.0006638,0,0.0013275,0,0.0019913v4.7829971
						c0.0005493,0.8162766-0.6607285,1.478447-1.477005,1.4789963c-0.0006638,0-0.0013275,0-0.0019913,0h-1.427002
						c-0.8162766,0.0005493-1.478447-0.6607285-1.4789963-1.477005c0-0.0006638,0-0.0013275,0-0.0019913v-4.7829971
						c-0.0005493-0.8162766,0.6607285-1.478447,1.477005-1.4789963c0.0006638,0,0.0013275,0,0.0019913,0"/>
					<path id="Tracé_5804" class="st273" d="M188.1771545,69.3170013h1.423996c0.8179321,0,1.4810028,0.663063,1.4810028,1.4809952
						l0,0v4.7840042c0,0.8179321-0.6630707,1.4810028-1.4810028,1.4810028l0,0h-1.423996
						c-0.8179321,0-1.4810028-0.663063-1.4810028-1.4809952v-0.0000076v-4.7839966
						C186.6961517,69.980072,187.3592224,69.3170013,188.1771545,69.3170013L188.1771545,69.3170013"/>
					<path id="Rectangle_1018" class="st12" d="M124.2801666,61.0289993h1.7860031
						c0.7179718,0,1.3000031,0.5820312,1.3000031,1.2999992v5.1459999c0,0.7179718-0.5820312,1.3000031-1.3000031,1.3000031
						h-1.7860031c-0.7179642,0-1.2999954-0.5820312-1.2999954-1.3000031v-5.1459999
						C122.9801712,61.6110306,123.5622025,61.0289993,124.2801666,61.0289993z"/>
					<path id="Tracé_5805" class="st12" d="M9.9771662,129.4570007h1.4239998c0.817934,0,1.4809999,0.6630554,1.4809999,1.4810028
						l0,0v4.7839966c0.0000019,0.8179321-0.663063,1.4810028-1.4809971,1.4810028c-0.000001,0-0.0000019,0-0.0000029,0H9.9771662
						c-0.817934,0-1.4809999-0.6630707-1.4809999-1.4810028l0,0v-4.7839966
						c-0.0000019-0.8179321,0.663063-1.4810028,1.4809971-1.4810028
						C9.9771643,129.4570007,9.9771652,129.4570007,9.9771662,129.4570007"/>
					<path id="Tracé_5806" class="st13" d="M50.9041672,74.4550018v-5.8880005
						c-0.0111008-0.4874115-0.4035873-0.8798981-0.8909988-0.8909988h-2.5999985
						c-0.4874115,0.0111008-0.8798981,0.4035873-0.8909988,0.8909988v1.7089996
						c-0.0059242,0.4514999-0.3704987,0.8160706-0.8219986,0.8219986h-1.708004
						c-0.4874115,0.0111008-0.8798981,0.4035873-0.8909988,0.8909988v2.5999985
						c0.0116272,0.4870224,0.403965,0.8789215,0.8909988,0.8899994h5.9599991L50.9041672,74.4550018z"/>
					<path id="Tracé_5807" class="st19" d="M176.8311615,149.2519989v-5.9559937
						c-0.0110931-0.4874268-0.403595-0.8799133-0.8910065-0.8910065h-2.6000061
						c-0.4874115,0.0110931-0.8799133,0.4035797-0.8910065,0.8910065v1.7089996
						c-0.0059204,0.4514923-0.3704987,0.8160706-0.8220062,0.821991h-1.7089996
						c-0.4870453,0.0110779-0.8793793,0.4029694-0.8910065,0.8899994v2.6000061
						c0.0110931,0.4874115,0.403595,0.8799133,0.8910065,0.8910065h5.9600067L176.8311615,149.2519989z"/>
					<path id="Tracé_5808" class="st12" d="M63.7851677,135.072998h5.9599953
						c0.4874115-0.0110931,0.8798981-0.4035797,0.8909988-0.8909912v-2.6000061
						c-0.0111008-0.4874115-0.4035873-0.8798981-0.8909988-0.8909912h-1.7080002
						c-0.4514999-0.0059357-0.8160706-0.3704987-0.8219986-0.8220062v-1.7120056
						c-0.0116272-0.4870224-0.4039612-0.8789215-0.8909988-0.8899994h-2.6069984
						c-0.4870338,0.0110779-0.8793716,0.402977-0.8909988,0.8899994v5.9589996L63.7851677,135.072998z"/>
					<path id="Tracé_5809" class="st13" d="M226.9141693,169.0479889c0.0205536-0.7286682-0.2799988-1.4295654-0.8220062-1.9170074
						c-0.5038605-0.5192261-1.1945343-0.8152313-1.9179993-0.8220062h-2.6710052
						c-0.7289581-0.0205688-1.4301758,0.279953-1.9179993,0.8220062c-0.5192566,0.503418-0.8152924,1.1938171-0.8220062,1.9170074
						v13.0140076h8.1529999L226.9141693,169.0479889z"/>
					<path id="Tracé_5810" class="st19" d="M132.5721588,158.3590088
						c-1.5118256,0.0038452-2.7366028,1.2281799-2.7409973,2.7400055v21.0279999h11.4420013v-13.2880096
						c0.0022125-1.0566864-0.8523102-1.9152374-1.9089966-1.9179993h-0.0090027
						c-1.0576172,0.0010986-1.9158936-0.8553772-1.9169922-1.9129944v-3.8410034
						c-0.0043945-1.5118256-1.2291718-2.7361603-2.7409973-2.7400055c-0.6829987-0.0679932-1.4380035-0.0679932-2.1230011-0.0679932
						"/>
					<path id="Tracé_5811" class="st273" d="M69.9251633,132.8820038h1.4240036
						c0.8179321,0,1.4810028,0.6630554,1.4810028,1.4809875v0.0000153v1.423996c0,0.8179321-0.663063,1.4810028-1.4809952,1.4810028
						c-0.0000076,0-0.0000076,0-0.0000076,0h-1.4240036c-0.8179321,0-1.4809952-0.6630707-1.4809952-1.4810028l0,0v-1.4240112
						c0-0.8179321,0.663063-1.4810028,1.4809952-1.4810028c0,0,0,0,0,0"/>
				</g>
			</g>
		</g>
	</g>
</g>
<g id="TEXTES_FR" class="st283">
</g>
<g id="TEXTES_GB">
</g>
<g id="Calque_5">
</g>
</svg>
