<?xml version="1.0" encoding="utf-8"?>
<!-- Generator: Adobe Illustrator 26.2.1, SVG Export Plug-In . SVG Version: 6.00 Build 0)  -->
<svg version="1.1" xmlns="http://www.w3.org/2000/svg" xmlns:xlink="http://www.w3.org/1999/xlink" x="0px" y="0px"
	 viewBox="0 0 297.0009155 271.9302368" style="enable-background:new 0 0 297.0009155 271.9302368;" xml:space="preserve">
<style type="text/css">
	.st0{fill:url(#FOND_00000126304320330842928120000007739585150448533122_);}
	.st1{fill:url(#FOND_00000099632525434981775000000012162461017923636914_);}
	.st2{fill:#FFF5F7;}
	.st3{fill:url(#FOND_00000069373226758234963340000003393758754078303915_);}
	.st4{fill:url(#FOND_00000152945103555692044330000007932972341247715460_);}
	.st5{fill:url(#FOND_00000056395133050320012580000009040373214396365952_);}
	.st6{fill:url(#FOND_00000076588801461137326430000013385428074827430038_);}
	.st7{fill:url(#FOND_00000147184036369947299650000011183331074983601809_);}
	.st8{fill:url(#FOND_00000036937979405843919800000013999848104284048788_);}
	.st9{fill:url(#FOND_00000160149820021291689550000000898405695891360425_);}
	.st10{fill:url(#FOND_00000117646334496824652260000016689462056537099960_);}
	.st11{fill:url(#FOND_00000123417149703646764980000018431204150037641130_);}
	.st12{fill:#272F60;}
	.st13{fill:#FD657C;}
	.st14{fill:url(#FOND_00000096759118095281251990000009095719975315485824_);}
	.st15{fill:#F4AAB9;}
	.st16{clip-path:url(#Rectangle_10_00000027575070337245554920000001818859143322085307_);}
	.st17{fill:#FB657C;}
	.st18{fill:#FFFFFF;}
	.st19{fill:#FFBCC6;}
	.st20{clip-path:url(#SVGID_00000129202318129453816810000007324904885030728853_);}
	.st21{enable-background:new    ;}
	.st22{fill:#FB657C;stroke:#FD657C;stroke-width:3.8352001;stroke-linecap:round;stroke-linejoin:round;stroke-miterlimit:1.4382;}
	.st23{fill:#FFBCC6;stroke:#FFBCC6;stroke-width:3.8352001;stroke-linecap:round;stroke-linejoin:round;stroke-miterlimit:1.4382;}
	.st24{clip-path:url(#SVGID_00000165218762802083909180000018239646102392883133_);fill:#FB657C;}
	.st25{clip-path:url(#SVGID_00000143614372978900142970000011296060887084026262_);fill:#FFBCC6;}
	.st26{clip-path:url(#SVGID_00000018924967329731581010000018412860811320799377_);fill:#FFBCC6;}
	.st27{clip-path:url(#SVGID_00000159457775204118530740000007476038027544606104_);fill:#FFBCC6;}
	.st28{clip-path:url(#SVGID_00000111901559486144550390000012170473512458484889_);fill:#FFBCC6;}
	.st29{clip-path:url(#SVGID_00000163045985120406894490000013830268921057223831_);fill:#FFBCC6;}
	.st30{clip-path:url(#SVGID_00000011024977960325873790000012134691418362098592_);fill:#FFBCC6;}
	.st31{clip-path:url(#SVGID_00000116927388941940713290000004851821361209354430_);fill:#FFBCC6;}
	.st32{clip-path:url(#SVGID_00000146462745430354096250000002916432793665048998_);fill:#272F60;}
	.st33{clip-path:url(#SVGID_00000146462745430354096250000002916432793665048998_);fill:#FB657C;}
	.st34{clip-path:url(#SVGID_00000146462745430354096250000002916432793665048998_);fill:#FFBCC6;}
	.st35{clip-path:url(#SVGID_00000146462745430354096250000002916432793665048998_);fill:#FFFFFF;}
	.st36{fill:none;}
	.st37{clip-path:url(#SVGID_00000156575542343724929800000002753313846504807096_);fill:#FFFFFF;}
	.st38{clip-path:url(#SVGID_00000070109273085962617830000012303480909485433472_);fill:#FFFFFF;}
	.st39{clip-path:url(#SVGID_00000021120828524624418520000008337885379075462272_);fill:#FFFFFF;}
	.st40{clip-path:url(#SVGID_00000139979335097000146570000011437245232012360353_);fill:#FFFFFF;}
	.st41{clip-path:url(#SVGID_00000080191676217792099790000014721084609934855842_);fill:#FFFFFF;}
	.st42{clip-path:url(#SVGID_00000006707813515411344570000003971129035702288293_);fill:#FFFFFF;}
	.st43{clip-path:url(#SVGID_00000170968195343804132870000011939632351171322754_);fill:#FFFFFF;}
	.st44{clip-path:url(#SVGID_00000018217762883564471230000014540579150704711337_);fill:#FFFFFF;}
	.st45{clip-path:url(#SVGID_00000029749433225669672990000001820117660290152848_);fill:#FFFFFF;}
	.st46{clip-path:url(#SVGID_00000023982550984046192250000001949113857921385872_);fill:#FFFFFF;}
	.st47{clip-path:url(#SVGID_00000065787853702432099310000001652713506775550093_);fill:#FFFFFF;}
	.st48{clip-path:url(#SVGID_00000026132052926692001950000005348108859024497850_);fill:#FFFFFF;}
	.st49{clip-path:url(#SVGID_00000000900768250995235780000003706133992124146110_);fill:#FB657C;}
	.st50{clip-path:url(#SVGID_00000169516405002598373550000007564411739026247564_);fill:#FFFFFF;}
	.st51{clip-path:url(#SVGID_00000081641180393297544660000015093682116684098957_);fill:#FFFFFF;}
	.st52{fill:#FF647B;}
	.st53{fill:#FF657C;}
	.st54{clip-path:url(#SVGID_00000013886382341330436070000005725652487105138572_);}
	.st55{clip-path:url(#SVGID_00000055666471047018736890000007610705298468607379_);}
	.st56{clip-path:url(#SVGID_00000072243388373031436640000005415267600303475105_);}
	.st57{clip-path:url(#SVGID_00000116925613848513847930000014907146474688183459_);}
	.st58{fill:none;stroke:#272E5F;stroke-width:3;}
	.st59{clip-path:url(#SVGID_00000093158378476229135610000003761133992678290071_);}
	.st60{fill:#E94B67;}
	.st61{fill:#FFF5F7;stroke:#272E5F;stroke-width:2;}
	.st62{fill:none;stroke:#272E5F;stroke-width:2;stroke-linecap:round;stroke-linejoin:round;stroke-miterlimit:10;}
	.st63{fill:none;stroke:#272E5F;stroke-width:2;}
	.st64{fill:none;stroke:#272E5F;stroke-width:3;stroke-linecap:round;stroke-linejoin:round;stroke-miterlimit:10;}
	.st65{fill:none;stroke:#142664;stroke-width:2;stroke-linecap:round;stroke-linejoin:round;stroke-miterlimit:10;}
	.st66{clip-path:url(#SVGID_00000174565489216929263170000011407090275335453356_);}
	.st67{clip-path:url(#SVGID_00000103971177313888252190000006809149162458297481_);}
	.st68{clip-path:url(#SVGID_00000132766584553014040450000010339402553847797930_);fill:#FD657C;}
	.st69{clip-path:url(#SVGID_00000010998013660913903630000013807918506166913461_);fill:#FD657C;}
	.st70{clip-path:url(#SVGID_00000027580993976013334420000010313059362796973977_);}
	.st71{clip-path:url(#SVGID_00000005977323251692942830000006779958954940638601_);}
	.st72{clip-path:url(#SVGID_00000003071611958005557570000003524926346492821645_);}
	.st73{fill:none;stroke:#142664;stroke-width:3;stroke-linecap:round;stroke-linejoin:round;}
	.st74{clip-path:url(#SVGID_00000107554332639573287970000009061801376536747189_);}
	.st75{clip-path:url(#SVGID_00000059306903850814465450000014618488962562480538_);}
	.st76{clip-path:url(#SVGID_00000157283837680522093310000011980882099140284328_);}
	.st77{clip-path:url(#SVGID_00000148634533479325286770000012101619176947225742_);}
	.st78{clip-path:url(#SVGID_00000006709083526976076830000007609936413816690363_);}
	.st79{clip-path:url(#SVGID_00000108286915775706541150000002261205442584677813_);}
	.st80{clip-path:url(#SVGID_00000152266437753295339680000000293800925699910072_);}
	.st81{clip-path:url(#SVGID_00000073700539579483047670000013293118388469598121_);}
	.st82{clip-path:url(#SVGID_00000024723025203487665440000016451187873416494466_);}
	.st83{clip-path:url(#SVGID_00000064355739565860873810000005228227840298093961_);}
	.st84{clip-path:url(#SVGID_00000103979836403997479540000000845492544838330031_);}
	.st85{clip-path:url(#SVGID_00000010277602824370839720000007093634007890240687_);}
	.st86{clip-path:url(#SVGID_00000023984989307221306540000015885396545471633565_);}
	.st87{clip-path:url(#SVGID_00000009585594553110902890000001998241449166960829_);}
	.st88{clip-path:url(#SVGID_00000124121729214091303760000008886164523287058829_);}
	.st89{clip-path:url(#SVGID_00000104664300349143707390000000986464635097794473_);}
	.st90{clip-path:url(#SVGID_00000012444313932013427980000001364201825891310232_);}
	.st91{clip-path:url(#SVGID_00000012470294684583404710000014072220685387401350_);}
	.st92{clip-path:url(#SVGID_00000127029517525142394250000009683639260716824983_);}
	.st93{clip-path:url(#SVGID_00000033354523419476517430000017997555472349375125_);}
	.st94{clip-path:url(#SVGID_00000040568474516642585550000017030976859867107231_);}
	.st95{clip-path:url(#SVGID_00000182501045294585099160000006305220332194411698_);}
	.st96{clip-path:url(#SVGID_00000070818946263416428340000003473562921683259061_);}
	.st97{clip-path:url(#SVGID_00000051371994373743353790000015155230552136392582_);}
	.st98{clip-path:url(#SVGID_00000079481483029089534880000014981886504238232973_);}
	.st99{clip-path:url(#SVGID_00000128480773645779732940000010803732314799181189_);}
	.st100{clip-path:url(#SVGID_00000152238232380922683240000001352813629396593063_);}
	.st101{clip-path:url(#SVGID_00000119807197884199498870000000864252221280998034_);}
	.st102{clip-path:url(#SVGID_00000077321812211098016120000010037012769094273720_);}
	.st103{clip-path:url(#SVGID_00000154417067309652962400000017792745192582311865_);}
	.st104{clip-path:url(#SVGID_00000036225556680517524490000002724262948939980706_);}
	.st105{clip-path:url(#SVGID_00000088115584856746288570000017122491114139664816_);}
	.st106{clip-path:url(#SVGID_00000064341365483782050370000007939266754703060890_);}
	.st107{clip-path:url(#SVGID_00000055701507453112453720000008035810909054375842_);}
	.st108{clip-path:url(#SVGID_00000049208724648421423060000016462770603248816572_);}
	.st109{clip-path:url(#SVGID_00000170251895899654167090000006307310894680928417_);}
	.st110{clip-path:url(#SVGID_00000027575050099420983560000001375746223668125115_);}
	.st111{clip-path:url(#SVGID_00000030449159876264843430000007742230097138337433_);}
	.st112{clip-path:url(#SVGID_00000093880034191856728710000011195376945592623757_);}
	.st113{clip-path:url(#SVGID_00000113346591687759282260000017792445864272264110_);}
	.st114{clip-path:url(#SVGID_00000010989916218570589090000007308869620886583214_);}
	.st115{clip-path:url(#SVGID_00000148627856088247192660000003306155843762601388_);}
	.st116{clip-path:url(#SVGID_00000005958912268540797450000011023059110819695271_);}
	.st117{fill:#FFFFFF;stroke:#142664;stroke-width:3;stroke-linecap:round;stroke-linejoin:round;}
	.st118{clip-path:url(#SVGID_00000005230396117689808120000012829556051364574597_);}
	.st119{fill-rule:evenodd;clip-rule:evenodd;fill:#FFBCC6;}
	.st120{fill-rule:evenodd;clip-rule:evenodd;fill:#272F60;}
	.st121{fill-rule:evenodd;clip-rule:evenodd;fill:#FFFFFF;}
	.st122{fill-rule:evenodd;clip-rule:evenodd;fill:#FB657C;}
	.st123{clip-path:url(#SVGID_00000095331700890669341070000010736065567153276083_);}
	.st124{clip-path:url(#SVGID_00000076589718365785816300000015705427248731042189_);}
	.st125{clip-path:url(#SVGID_00000045590036194856377510000012021005829691655333_);}
	.st126{clip-path:url(#SVGID_00000015325782578964925770000004656224210642204858_);}
	.st127{clip-path:url(#SVGID_00000072258387671299154020000003830196008194926773_);}
	.st128{clip-path:url(#SVGID_00000054944846666820135040000004134048653657038770_);}
	.st129{clip-path:url(#SVGID_00000153701360652479672260000012557026411531411597_);}
	.st130{clip-path:url(#SVGID_00000152965396646014187880000010071488083803791039_);}
	.st131{clip-path:url(#SVGID_00000134969714338472973890000010585139183034952111_);}
	.st132{clip-path:url(#SVGID_00000127751494759311804140000018207809818342189482_);}
	.st133{clip-path:url(#SVGID_00000109005774127836465880000005475830362230241674_);}
	.st134{clip-path:url(#SVGID_00000123436808050395240400000016930455946672518816_);}
	.st135{clip-path:url(#SVGID_00000087405417094431149430000000036917491279246261_);}
	.st136{clip-path:url(#SVGID_00000169547502795959345950000017083733408711433386_);}
	.st137{clip-path:url(#SVGID_00000135669722277852079900000000803733179159925687_);}
	.st138{clip-path:url(#SVGID_00000174566476238885224520000003490749149344108198_);}
	.st139{clip-path:url(#SVGID_00000172399485419959254660000005536130193564985236_);}
	.st140{clip-path:url(#SVGID_00000062181493515099188160000017597557960373747361_);}
	.st141{clip-path:url(#SVGID_00000125596607600070467700000015265571943128944823_);}
	.st142{clip-path:url(#SVGID_00000089550481479983540270000001576731002664688013_);}
	.st143{clip-path:url(#SVGID_00000068648071070482414460000013695376194181264823_);}
	.st144{clip-path:url(#SVGID_00000145050662782132200590000002349663287334557835_);}
	.st145{clip-path:url(#SVGID_00000139286463503372384120000014330023728014877621_);}
	.st146{clip-path:url(#SVGID_00000094585951019088814890000010787119253805919654_);}
	.st147{clip-path:url(#SVGID_00000045597816321224813370000013748115028045081776_);}
	.st148{clip-path:url(#SVGID_00000014618106942604480890000003218170860700707757_);}
	.st149{clip-path:url(#SVGID_00000060002948616925696280000010208761767981638296_);}
	.st150{clip-path:url(#SVGID_00000152955989364651592850000005254258493896352935_);}
	.st151{clip-path:url(#SVGID_00000003086380552902707780000005165089233421184655_);}
	.st152{clip-path:url(#SVGID_00000146491239521554106060000004347423566685938603_);}
	.st153{clip-path:url(#SVGID_00000010995050432154845090000015364920727260393872_);}
	.st154{clip-path:url(#SVGID_00000074428109918630543240000016973303103264233857_);}
	.st155{clip-path:url(#SVGID_00000000223449208566910160000003083612675457357207_);}
	.st156{clip-path:url(#SVGID_00000044895383250475317010000013335792903778156468_);}
	.st157{clip-path:url(#SVGID_00000047045800079250982320000003981653463730437009_);}
	.st158{clip-path:url(#SVGID_00000150097415581002037770000008154013736611034516_);}
	.st159{clip-path:url(#SVGID_00000014594680868548863270000011365905034356529052_);}
	.st160{clip-path:url(#SVGID_00000126299600218776495940000006510481180801547946_);}
	.st161{clip-path:url(#SVGID_00000170259802993230823000000002900772642024529299_);}
	.st162{clip-path:url(#SVGID_00000021809445969373874850000010676898647860228229_);}
	.st163{clip-path:url(#SVGID_00000083084718240435003830000003626294165595285393_);}
	.st164{clip-path:url(#SVGID_00000039829644973306831490000018319764735274635430_);}
	.st165{clip-path:url(#SVGID_00000005954754169123498290000015003237816964931467_);}
	.st166{clip-path:url(#SVGID_00000029040363923111164140000007802583572207820469_);}
	.st167{clip-path:url(#SVGID_00000183225637449376579790000013983993769277853108_);}
	.st168{clip-path:url(#SVGID_00000086675952371651092070000011307993599797182361_);}
	.st169{clip-path:url(#SVGID_00000101798444890431131880000012715673654889085872_);}
	.st170{clip-path:url(#SVGID_00000031180684453883108320000008518915077396845228_);}
	.st171{clip-path:url(#SVGID_00000073708923801524712420000000752224660897439118_);}
	.st172{clip-path:url(#SVGID_00000063630426229134995370000016507508453982113408_);}
	.st173{clip-path:url(#SVGID_00000094612331501530739370000010163872483271717274_);}
	.st174{clip-path:url(#SVGID_00000158747021138126325160000016399464921703411370_);}
	.st175{clip-path:url(#SVGID_00000171001268255824626520000011991252583384545982_);}
	.st176{clip-path:url(#SVGID_00000121262584478809720980000011335870003390438055_);}
	.st177{clip-path:url(#SVGID_00000039102463955678154660000006357870231124905869_);}
	.st178{clip-path:url(#SVGID_00000146485146140209486190000002581353731133784973_);}
	.st179{clip-path:url(#SVGID_00000176034167313441780650000003268449815725653917_);}
	.st180{clip-path:url(#SVGID_00000004512947231177051610000012604442216341782446_);}
	.st181{clip-path:url(#SVGID_00000131355465802807231890000012682633736074821282_);}
	.st182{clip-path:url(#SVGID_00000153685007695535793260000005042211326001794975_);}
	.st183{clip-path:url(#SVGID_00000113319104439122238210000002625146243209484676_);}
	.st184{clip-path:url(#SVGID_00000073716878192311759620000017754660335756108452_);}
	.st185{clip-path:url(#SVGID_00000029012087864422219050000015930068700664876696_);}
	.st186{clip-path:url(#SVGID_00000152961516527198440380000017599934563538458244_);}
	.st187{clip-path:url(#SVGID_00000096753930591717684180000000679087786939564681_);}
	.st188{clip-path:url(#SVGID_00000129919394515685468420000002657313938167782033_);}
	.st189{clip-path:url(#SVGID_00000159459645301015460680000012165065758708005267_);}
	.st190{clip-path:url(#SVGID_00000072257771794037774030000003955549639523007634_);}
	.st191{clip-path:url(#SVGID_00000120524713412937215160000006979103834467968897_);}
	.st192{clip-path:url(#SVGID_00000183243583451799758450000001467062861450752155_);}
	.st193{clip-path:url(#SVGID_00000103234039327329687680000007475092866404152980_);}
	.st194{clip-path:url(#SVGID_00000148638477306472642180000015739185680916696218_);}
	.st195{clip-path:url(#SVGID_00000178192145704530960020000001993646700164688263_);}
	.st196{clip-path:url(#SVGID_00000060030372831998702510000006655940135245788042_);}
	.st197{clip-path:url(#SVGID_00000085236192467795910020000007390037764486203020_);}
	.st198{clip-path:url(#SVGID_00000001637841216360594420000017041370595942258563_);}
	.st199{clip-path:url(#SVGID_00000026848875889957848740000002988216454640787391_);}
	.st200{clip-path:url(#SVGID_00000143597057130267958640000004957146974501522876_);}
	.st201{clip-path:url(#SVGID_00000033343908570349605140000007280621522807061162_);}
	.st202{clip-path:url(#SVGID_00000018954180209564028730000014733987021006448829_);}
	.st203{clip-path:url(#SVGID_00000145756548515996836980000014734862540040363692_);}
	.st204{clip-path:url(#SVGID_00000052067961624023289530000000322592979145153163_);}
	.st205{clip-path:url(#SVGID_00000052825322631217661050000009776646971705653906_);}
	.st206{clip-path:url(#SVGID_00000013911387885215330480000005859101908124711564_);}
	.st207{clip-path:url(#SVGID_00000170266126232222618740000004869444525286044851_);}
	.st208{clip-path:url(#SVGID_00000097470755420734775530000014439411517433171886_);}
	.st209{clip-path:url(#SVGID_00000124157238818739987090000014774632648067087271_);}
	.st210{clip-path:url(#SVGID_00000038378600566357718230000005312683138272386179_);}
	.st211{clip-path:url(#SVGID_00000127002384876837764400000007162078298847276681_);}
	.st212{clip-path:url(#SVGID_00000160156741648009336800000002608637601830352771_);}
	.st213{clip-path:url(#SVGID_00000124154210145434839700000008677280414374249661_);}
	.st214{clip-path:url(#SVGID_00000010283827661875505910000003815993815163813042_);}
	.st215{clip-path:url(#SVGID_00000020356335874444409530000003291159480041029010_);}
	.st216{clip-path:url(#SVGID_00000003070645388035518710000009412788274658425492_);}
	.st217{clip-path:url(#SVGID_00000078767361514841875330000001749337570966269106_);}
	.st218{clip-path:url(#SVGID_00000072267013782353256170000011850892036452352915_);}
	.st219{clip-path:url(#SVGID_00000072991613268162274590000001803326631129360272_);}
	.st220{clip-path:url(#SVGID_00000015330475484553771830000000377778239932238507_);}
	.st221{clip-path:url(#SVGID_00000040539758810817296410000002030186691209999292_);}
	.st222{clip-path:url(#SVGID_00000119819688784815325220000005320674527636318386_);}
	.st223{clip-path:url(#SVGID_00000163032828310660048950000003108789041820005819_);}
	.st224{clip-path:url(#SVGID_00000163035438436110739580000011938017524873009319_);}
	.st225{clip-path:url(#SVGID_00000157284206330427723420000012319645377398576517_);}
	.st226{clip-path:url(#SVGID_00000108272425045512654180000008978978065925018028_);}
	.st227{clip-path:url(#SVGID_00000175299316853683307590000011984350550243833010_);}
	.st228{clip-path:url(#SVGID_00000138555733899730064740000014206472728200431802_);}
	.st229{clip-path:url(#SVGID_00000152244267527487108780000000731469435226370483_);}
	.st230{clip-path:url(#SVGID_00000008149741068454980940000006937343831530506662_);}
	.st231{clip-path:url(#SVGID_00000114058750343586220990000005059890810585580984_);}
	.st232{clip-path:url(#SVGID_00000101103555827144036350000011071429477128411782_);}
	.st233{clip-path:url(#SVGID_00000002358524288411687680000007686876584995333769_);}
	.st234{clip-path:url(#SVGID_00000068669345615119428700000006054907878008194967_);}
	.st235{clip-path:url(#SVGID_00000163753006152454036570000015554268559789097146_);}
	.st236{clip-path:url(#SVGID_00000039096251933841389280000013573754281910759307_);}
	.st237{clip-path:url(#SVGID_00000036954830356032547380000001293855659410527362_);}
	.st238{clip-path:url(#SVGID_00000098941426395412227340000000342833982473980333_);}
	.st239{clip-path:url(#SVGID_00000065063862664875379150000007558678840761584008_);}
	.st240{clip-path:url(#SVGID_00000000224222287656694910000005870842376424312746_);}
	.st241{clip-path:url(#SVGID_00000114058297596590583130000002128260196718963127_);}
	.st242{clip-path:url(#SVGID_00000155849377218746340370000001897828177933829254_);}
	.st243{clip-path:url(#SVGID_00000180362857414824156020000009104554904626611860_);}
	.st244{clip-path:url(#SVGID_00000057117929001745095930000000551349671342802365_);}
	.st245{clip-path:url(#SVGID_00000123420196330995349490000016604379746457255080_);}
	.st246{clip-path:url(#SVGID_00000068640325294832809110000016231810335013890965_);}
	.st247{clip-path:url(#SVGID_00000178205532001021695680000001485191265758056116_);}
	.st248{clip-path:url(#SVGID_00000164508440375642193760000009152078366405369232_);}
	.st249{clip-path:url(#SVGID_00000127035273740316187690000017812179575075679630_);}
	.st250{clip-path:url(#SVGID_00000170248964726885324050000010112431903364093591_);}
	.st251{clip-path:url(#SVGID_00000005972821376601423090000002561244758833615510_);}
	.st252{clip-path:url(#SVGID_00000072253781021828613640000012808642919387388587_);}
	.st253{fill:#E94966;}
	.st254{fill:#13224F;}
	.st255{fill:url(#);}
	.st256{clip-path:url(#SVGID_00000008847113338119055250000015887881684302985655_);}
	.st257{fill:#FFCE00;}
	.st258{fill-rule:evenodd;clip-rule:evenodd;fill:#FD657C;}
	.st259{clip-path:url(#SVGID_00000164486954309112266340000014907777972023804086_);}
	.st260{fill:url(#SVGID_00000165923180461160872310000009018647196376573617_);}
	.st261{fill:#FFFFFF;stroke:#FFFFFF;stroke-width:10;}
	.st262{fill:none;stroke:#272F60;stroke-width:3;stroke-linecap:round;stroke-linejoin:round;}
	.st263{clip-path:url(#SVGID_00000158024407964101275870000015090719214667296643_);}
	.st264{fill:none;stroke:#FFFFFF;stroke-width:5;}
	.st265{fill:#3580F8;}
	.st266{clip-path:url(#SVGID_00000139253955652278358790000005847468816142037681_);}
	.st267{fill:#FDF2F5;}
	.st268{clip-path:url(#SVGID_00000111889637051759109940000007732588259425868221_);}
	.st269{fill:#44C400;}
	.st270{clip-path:url(#SVGID_00000132066394649019505830000016360429803704900020_);}
	.st271{clip-path:url(#SVGID_00000125575035069288031650000014227080450794893230_);}
	.st272{clip-path:url(#SVGID_00000014620120897032351400000012137977875944740516_);}
	.st273{fill:#F1AAB9;}
	.st274{fill:#E34C6A;}
	.st275{clip-path:url(#SVGID_00000116228309324679496270000009218483972779798663_);}
	.st276{clip-path:url(#SVGID_00000033363046075256130110000015325908109087522735_);}
	.st277{clip-path:url(#SVGID_00000063596667483464033040000016399480052149581444_);}
	.st278{clip-path:url(#SVGID_00000054986360813843221120000006726947422120193707_);}
	.st279{clip-path:url(#SVGID_00000025403855866018803140000014430088807666006151_);}
	.st280{clip-path:url(#SVGID_00000091723505497729867430000006236508900128102847_);}
	.st281{clip-path:url(#SVGID_00000144327785263489882710000014054499782873177262_);}
	.st282{clip-path:url(#SVGID_00000014618400496144876890000014749105006466012804_);}
	.st283{display:none;}
	.st284{display:inline;}
	.st285{display:inline;enable-background:new    ;}
	.st286{clip-path:url(#SVGID_00000157995637910202126060000004478438082670204333_);}
	.st287{clip-path:url(#SVGID_00000011008615899674992880000016343657811939224720_);}
	.st288{clip-path:url(#SVGID_00000086681211245793424060000000497010612987121027_);}
	.st289{clip-path:url(#SVGID_00000080201027373840695560000011299479677510617535_);}
	.st290{fill:none;stroke:#FFFFFF;stroke-miterlimit:10;}
	.st291{clip-path:url(#SVGID_00000072239230197134136950000017499283226292819634_);}
	.st292{clip-path:url(#SVGID_00000157273617004213478050000007965455406882783149_);}
	.st293{clip-path:url(#SVGID_00000132787866911024635110000013673080603393095838_);}
	.st294{clip-path:url(#SVGID_00000079486478772490407430000014441422255105349800_);}
	.st295{clip-path:url(#SVGID_00000062189759376326502850000004079008824916022451_);}
	.st296{clip-path:url(#SVGID_00000035520307338564551130000011422360585868264076_);}
	.st297{clip-path:url(#SVGID_00000060032594969513263620000007589051607721781894_);}
	.st298{clip-path:url(#SVGID_00000120530039399527866790000017570567126814262960_);}
	.st299{clip-path:url(#SVGID_00000017497377224006840090000004417598213799300010_);}
	.st300{clip-path:url(#SVGID_00000164505031825435154740000013587572248969115521_);}
	.st301{clip-path:url(#SVGID_00000132046374251917378580000000783756105898898052_);}
	.st302{clip-path:url(#SVGID_00000131344422880487192100000012568641772176972420_);}
	.st303{clip-path:url(#SVGID_00000159461530602945603640000000406497890140875649_);}
	.st304{clip-path:url(#SVGID_00000011006210729816472880000003343247228441154196_);}
	.st305{clip-path:url(#SVGID_00000163042310333832025020000012809230819382345095_);}
	.st306{clip-path:url(#SVGID_00000080177271513673129670000016346366778766021310_);}
	.st307{fill:none;stroke:#142664;stroke-width:4.0018654;stroke-linecap:round;stroke-linejoin:round;stroke-miterlimit:4.0018654;}
	.st308{clip-path:url(#SVGID_00000024713412092978222200000010872089469537065138_);}
	.st309{clip-path:url(#SVGID_00000077298544131740989820000016284021806702315155_);}
	.st310{clip-path:url(#SVGID_00000067948863755525105340000001080920487903794353_);}
	.st311{clip-path:url(#SVGID_00000114041271616865409420000003279478793618375098_);}
	.st312{clip-path:url(#SVGID_00000110432130000619194480000005424068110869582521_);}
	.st313{clip-path:url(#SVGID_00000150085243815919241240000010368899216464160932_);}
	.st314{clip-path:url(#SVGID_00000033360930969550886160000000812180199408523174_);}
	.st315{clip-path:url(#SVGID_00000138548515601059378580000003584037893208584353_);}
	.st316{clip-path:url(#SVGID_00000070079625070924658420000008760294350540434308_);}
	.st317{clip-path:url(#SVGID_00000101782623461203263900000011600902051727934102_);}
	.st318{clip-path:url(#SVGID_00000116941055308077297270000007579333251231145645_);}
	.st319{clip-path:url(#SVGID_00000004520441010990366960000003990977559248154780_);}
	.st320{clip-path:url(#SVGID_00000163755154368083693670000010457575702284583574_);}
	.st321{clip-path:url(#SVGID_00000041284332350413779220000009886289831252987786_);}
	.st322{clip-path:url(#SVGID_00000173147943660214901780000010152408355970273675_);}
	.st323{clip-path:url(#SVGID_00000138552932081297711860000011802035743892944572_);}
	.st324{clip-path:url(#SVGID_00000170962652892875555040000006847331070006162617_);fill:#FD657C;}
	.st325{clip-path:url(#SVGID_00000170962652892875555040000006847331070006162617_);fill:#272F60;}
</style>
<g id="FONDS">
</g>
<g id="ILLUSTRATIONS">
	<g>
		
			<circle id="Ellipse_419_00000111166300722270421860000003299166935331117712_" class="st18" cx="132.5" cy="139.4302368" r="132.5"/>
		<g id="Groupe_1824" transform="translate(3.082 33.079) rotate(-7)">
			<g>
				<defs>
					
						<rect id="SVGID_00000030449744378624194460000001075913753322964914_" x="0.0000291" y="0.0002147" transform="matrix(0.9925461 -0.1218693 0.1218693 0.9925461 -11.2434778 17.2891769)" width="271.4320068" height="201.1179962"/>
				</defs>
				<clipPath id="SVGID_00000176030578575259989620000003226353126367268499_">
					<use xlink:href="#SVGID_00000030449744378624194460000001075913753322964914_"  style="overflow:visible;"/>
				</clipPath>
				<g id="Groupe_1823" style="clip-path:url(#SVGID_00000176030578575259989620000003226353126367268499_);">
					<path id="Tracé_5728" class="st13" d="M67.6040344,162.502243
						c-20.3006096-2.6054382-34.6453743-21.174469-32.0399323-41.4750748
						c2.1466217-16.7256317,15.3142776-29.8932953,32.0399094-32.0399323v-0.3710022
						c0.2743912-29.2554474,24.2130661-52.7492371,53.4685135-52.4748421
						c10.9632874,0.1028252,21.624588,3.6047592,30.5134888,10.0228081
						c20.5774078-12.0751114,47.0475006-5.1826439,59.1226044,15.3947601
						c2.97789,5.0746536,4.8877411,10.704155,5.6124268,16.5432281c1.4905243-0.2070007,2.9958954-0.2876205,4.5-0.2410049
						c17.568573-0.0494156,31.8701019,14.1157532,31.9890137,31.6839981
						c0.0261688,4.5319595-0.9555054,9.0130615-2.8739929,13.1190033
						c10.2782898,6.0704651,13.6894226,19.323761,7.6189575,29.6020508
						c-3.9344788,6.6617279-11.1296234,10.7123871-18.8659363,10.6209564L67.6040344,162.502243z"/>
					<path id="Tracé_5729" class="st12" d="M214.1950226,69.0621796c1.0297699,2.9265518,1.7422028,5.9552612,2.1250153,9.0339966
						c0.9941711-0.1412735,1.9960327-0.221756,3-0.2409973c0.0200653,2.4840469-0.1470642,4.9660721-0.5,7.4250031
						c-0.3736572,2.491066-1.0019379,4.9372177-1.875,7.3000107c-1.6289825,4.7138748-3.9913483,9.1412888-7,13.1190033
						c-0.5884247,0.7731934-1.6613464,0.9856339-2.5,0.4950027c-0.7797241-0.5732193-0.9961853-1.6451187-0.5-2.4759979
						c2.4992065-3.8565369,4.3956757-8.0716629,5.6239929-12.5c0.6620178-2.1811981,1.1222839-4.418602,1.375-6.6839981
						c0.3993073-2.2473984,0.6083832-4.5244751,0.625-6.8070068c0.1282654-2.3170929,0.0025024-4.6412659-0.3750153-6.9309998
						c0.1870575-0.5621796,0.1870575-1.1698151,0-1.7319946"/>
					<path id="Tracé_5730" class="st12" d="M255.1860657,127.2301788c-1.305191-1.2481995-2.7281647-2.3670883-4.2490082-3.3410034
						c-1.7544861-1.0750732-3.646286-1.9079514-5.6239929-2.4759979c-1.9790802-0.6395874-4.0441895-0.9734344-6.1239929-0.9899979
						c-2.2821503-0.094017-4.563736,0.1991348-6.7480011,0.8670044c-2.2188263,0.6156845-4.3271942,1.5760574-6.2480011,2.8460007
						c-0.796402,0.5741577-1.9052734,0.4091568-2.5-0.3720016c-0.5783081-0.7877426-0.4106293-1.8948288,0.375-2.4759979
						c2.1445312-1.6292038,4.499115-2.9615555,7-3.9609985c2.5821838-0.8740311,5.2761536-1.3741074,8-1.4850082
						c2.5358124-0.0534744,5.0649261,0.280365,7.5,0.9899979c1.6209564,0.4554443,3.1752014,1.1214523,4.6230011,1.9810028
						c-0.3697052,1.3258667-0.8722382,2.6110382-1.5,3.8359985c2.0977631,1.1773987,3.9618988,2.7293854,5.5000153,4.5790024"/>
					<path id="Tracé_5731" class="st12" d="M67.6020126,85.6472321c0.9965668-0.1018829,1.9984589-0.1422882,3-0.1210022
						c3.8823166-0.0186462,7.7497711,0.4807587,11.5,1.4850006c3.7226715,1.0731583,7.2624054,2.7010956,10.5000076,4.8289948
						c6.4906311,4.1881332,11.6850891,10.10289,15.0000076,17.0800018c0.4310608,0.8575134,0.0979004,1.9023132-0.75,2.3519974
						c-0.8624496,0.4270935-1.9082794,0.1002197-2.3740005-0.7419968
						c-3.2540588-6.1232452-8.1448059-11.2224045-14.1270065-14.7290039
						c-2.9798279-1.7603226-6.172348-3.1327667-9.5000076-4.083992c-3.2928543-0.9337082-6.6937103-1.4326096-10.1159973-1.4840012
						c-3.5817032-0.0925369-7.1584015,0.3239594-10.6230049,1.2370071c-1.7490005,0.4950027-3.5,1.1139984-5.1240005,1.7320023
						c3.9241219-2.1130447,8.1989861-3.4967804,12.6170006-4.0840073v-3.465004L67.6020126,85.6472321z"/>
					<path id="Tracé_5732" class="st12" d="M120.0930328,126.8602295c4.9826813-2.4507065,11.012085-0.675621,13.8720093,4.0839996
						c1.3241119,2.2339478,1.7693481,4.8807678,1.2489929,7.4250031c-0.5914459,2.6550446-2.209137,4.9683533-4.5,6.4349976
						c-0.8132629,0.4431763-1.113266,1.461731-0.6700897,2.2749939c0.0003662,0.0006714,0.0007324,0.0013428,0.0010986,0.0019989
						l0.0429993,0.0749969c0.4665375,0.8217621,1.51091,1.109726,2.3326721,0.6431885
						c0.0001068-0.000061,0.0002289-0.0001221,0.0003357-0.0001831l0.0410004-0.0240021
						c3.3306732-1.7051544,5.8153381-4.7028046,6.8729858-8.2920074c2.2544556-7.2862549-1.8246155-15.0205078-9.1108704-17.2749634
						c-0.0000458-0.0000076-0.0000916-0.0000229-0.0001373-0.0000381c-0.3739929-0.1160049-0.7526703-0.216011-1.1360016-0.3000031
						c-3.6676254-0.9130554-7.5490875-0.2873383-10.7439957,1.7320099
						c-0.8132629,0.4431839-1.1132736,1.4617386-0.6700897,2.2750015c0.0003662,0.0006714,0.0007248,0.0013351,0.001091,0.0019989
						l0.0429993,0.0749969c0.2703934,0.8412704,1.1715775,1.3040543,2.0128403,1.0336609
						c0.0017242-0.0005493,0.0034409-0.0011063,0.0051575-0.0016632c0.1252136-0.0396042,0.2448502-0.0950546,0.3560028-0.1650009"
						/>
					<path id="Tracé_5733" class="st12" d="M154.9590149,44.4321976c1.1424255,1.0984612,2.2272186,2.2553444,3.25,3.4659958
						c2.29776,2.7148972,4.3084717,5.660244,6,8.7889977c1.0235596,1.8683357,1.9008484,3.8131523,2.6239929,5.8170013
						c1.6347961,4.6751442,2.6435699,9.5461159,3.0000153,14.4860039c0.0553131,1.0047379-0.7143402,1.86409-1.7190857,1.9194107
						c-0.938446,0.0516663-1.762207-0.6189804-1.9019165-1.5484085c-0.7097321-4.5493317-1.9686127-8.9957962-3.7490082-13.2420044
						c-0.75-1.8569946-1.625-3.5889969-2.5-5.3219948c-0.1210022-0.3709984-0.375-0.6189995-0.5-0.9900017
						c-0.7397156,2.1245232-1.7926636,4.1266174-3.1239929,5.9399986c-3.6336365,5.1375237-9.1664886,8.6133842-15.371994,9.6570091
						c0.3777008,1.4950333,0.504425,3.0424347,0.375,4.5790024c-0.1999054,2.2075806-0.8372955,4.3532867-1.875,6.3119965
						c-1.3126984,2.0828171-3.06073,3.856781-5.1239929,5.2000046c-2.1083679,1.218605-4.4506226,1.9775391-6.8730087,2.2269974
						c-0.9559784,0.1459198-1.8492432-0.5107574-1.995163-1.4667358c-0.1459274-0.9559784,0.5107574-1.8492432,1.4667358-1.995163
						c0.0094604-0.0014496,0.0189362-0.0028152,0.0284271-0.0041046c1.7839432-0.3986816,3.4518509-1.2035522,4.8740005-2.3519974
						c1.4460449-1.0443573,2.6416016-2.3973846,3.5-3.9609985c1.5427399-2.4276505,2.2046814-5.3115921,1.875-8.1690063
						c-2.3711853,0.0450211-4.734314-0.2891922-7-0.9899902c-6.2154694-1.8048706-11.4704437-5.9842758-14.6280136-11.6339951
						c-0.4902267-0.7704735-0.2632675-1.7924538,0.5070038-2.2830009c0.0390015-0.0250015,0.0780029-0.0470009,0.1179962-0.0690002
						c0.7919998-0.4938698,1.8343964-0.2521896,2.3282623,0.5398064c0.0002441,0.0003967,0.0004959,0.0007935,0.0007401,0.0011902
						c0.0159988,0.0250015,0.0309982,0.0519981,0.0459976,0.0779991c4.388855,6.9692726,12.4679337,10.7031975,20.620018,9.529995
						c2.6318512-0.3533554,5.1750641-1.192955,7.5-2.4760056c2.4217072-1.2798309,4.5497284-3.0509109,6.2479858-5.2000008
						c1.7090912-2.1685753,2.9821777-4.6475182,3.7489929-7.3000031c0-0.1209984,0.1210022-0.2470016,0.1210022-0.3720016
						c-0.75-1.1139984-1.5-2.2270012-2.125-3.2179985c-1.7489929-2.3520012-3.25-4.0839996-4.3730011-5.3219986
						c0.5,0.2410011,0.875,0.618,1.375,0.8670006c1.1079865-0.4391479,2.192749-0.9347992,3.25-1.4850006"/>
					<path id="Tracé_5734" class="st12" d="M198.9550171,48.5161858c1.2904358,0.8840523,2.5019531,1.8780899,3.6210175,2.9710007
						c-1.0176086,0.3699417-1.9835052,0.8690224-2.8739929,1.4850006c-2.0219269,1.2401505-3.7662659,2.884079-5.1239929,4.8290024
						c-1.3349762,1.7121315-2.2741394,3.6987152-2.75,5.8170013c-0.5607758,2.0985985-0.6890411,4.2893028-0.3769989,6.4389992
						c0.2154236,0.9642639-0.3916168,1.9206009-1.3558807,2.1360321c-0.9642639,0.2154236-1.9206085-0.3916245-2.1360321-1.3558884
						c-0.0028381-0.0126877-0.0055237-0.0253983-0.0080872-0.0381393c-0.7497406-2.6155396-0.8781433-5.3700562-0.375-8.0439987
						c0.8939667-5.8377457,4.5788574-10.8726273,9.8729858-13.4900093L198.9550171,48.5161858z"/>
					<path id="Tracé_5735" class="st12" d="M68.353035,162.4992523c0.2645111-3.485199,1.1978455-6.8868256,2.7490005-10.0189972
						c1.3417282-2.8079224,3.1599731-5.3620453,5.3740005-7.548996c1.2883453-1.3550415,2.7611465-2.5218506,4.375-3.4660034
						c-1.2277908-1.2849274-2.3171082-2.695343-3.2500076-4.2080078c-0.8672791-1.4763336-1.5395432-3.0588379-2-4.7079926
						c-0.329155-1.2142792-0.5384903-2.4578857-0.625-3.7130127c-0.231781-2.9255142,0.1078644-5.8681946,1-8.6639938
						c0.2287521-0.9183655,1.1585693-1.4775085,2.0770035-1.2490005l0.0469971,0.012001
						c0.9100952,0.2088623,1.4786377,1.11586,1.2699966,2.026001c-0.0059967,0.0270004-0.0130005,0.052002-0.0210037,0.0780029
						c-0.3967972,2.4209747-0.3558121,4.8935089,0.1210022,7.2999954c0.1314316,1.0165558,0.383194,2.0138702,0.75,2.9710083
						c0.4603577,1.6688385,1.0885696,3.2867584,1.875,4.8289948c0.6346207,1.1989441,1.344368,2.3565826,2.1250076,3.4660034
						c4.1899185-1.9199371,8.7649384-2.8515778,13.3720016-2.7229919c0.9571075,0,1.7330017,0.7758942,1.7330017,1.7330017
						s-0.7758942,1.7330017-1.7330017,1.7330017c-4.6819687,0.1449127-9.22892,1.6030426-13.1220016,4.2079926
						c-1.6247711,1.1304474-3.1700668,2.3710175-4.625,3.7130127c-2.3649292,2.2555542-4.2742386,4.9446716-5.6240005,7.9210052
						c-0.9088287,1.9763947-1.5801773,4.0535583-2,6.1880035L68.353035,162.4992523z"/>
					<path id="Tracé_5736" class="st12" d="M217.4450684,162.8741913c1.0987701-4.7570801,0.661499-9.7400055-1.2489929-14.2330017
						c-1.0525208-2.5145569-2.485611-4.8522339-4.2490082-6.9309998
						c-7.4911194-8.6369324-19.8677979-11.1292877-30.1179962-6.0649872
						c-0.6017761,4.6835632-2.8079376,9.0138855-6.2429962,12.2539978c-4.0335693,3.8470306-9.4273529,5.938736-15,5.8170013
						c-0.9571075,0-1.7330017-0.7758942-1.7330017-1.7330017s0.7758942-1.7330017,1.7330017-1.7330017
						c9.2261047-0.3105621,16.5618286-7.848877,16.6210022-17.0800018
						c0.1081848-4.4068909-1.6105804-8.6623993-4.7489929-11.7580109c-3.1170349-3.2470169-7.3740997-5.1553726-11.8720093-5.321991
						c-0.9571075,0-1.7330017-0.7758942-1.7330017-1.7330017s0.7758942-1.7330017,1.7330017-1.7330017
						c5.5474091-0.1086197,10.9220276,1.9315796,15.0000153,5.6939926
						c3.6646118,3.5429001,5.9275513,8.2893066,6.3729553,13.3670273c3.6756134-1.7549133,7.6767578-2.7242126,11.7480011-2.8460083
						c5.0213165-0.0770874,9.9755096,1.1601715,14.3710022,3.5889893c2.8132324,1.6506042,5.3450623,3.7395325,7.5,6.1880035
						c2.119751,2.4877014,3.7707825,5.3391571,4.8730164,8.4160004c1.7873993,5.0906372,2.0908661,10.5844879,0.875,15.8410034
						L217.4450684,162.8741913z"/>
					<path id="Tracé_5737" class="st19" d="M127.5890503,163.1192322
						c-0.1740494,16.0659027-13.0591125,29.0982971-29.1220016,29.4550171c-0.3688736-0.0098572-0.7272491,0.1234436-1,0.371994
						l-7.8730011,7.8000031c-0.3999939,0.3862305-0.9972839,0.4845886-1.5,0.246994
						c-0.5287781-0.2485657-0.8687439-0.7777405-0.875-1.3619995l-0.0000076-19.5579987
						c-0.0093994-0.3663635,0.1252365-0.7218018,0.375-0.9900055c0.2731781-0.2477417,0.6313477-0.3806152,1-0.3710022
						c2.8740005-0.0000153,8.8720093,0.1209869,9.2480087,0.1209869c8.7461243-0.1266327,15.7936859-7.208374,15.8779907-15.9550018
						h13.8720093L127.5890503,163.1192322z"/>
					<path id="Tracé_5738" class="st19" d="M198.1990509,162.8782043l18.3700104,18.1930084
						c0.2727509,0.2485504,0.6311188,0.3818512,1,0.371994h11.2480011c0.5860291,0.0036316,1.1191254,0.3397827,1.375,0.8670044
						c0.2391663,0.4980469,0.1390533,1.0927124-0.25,1.4850006l-14,13.8619995c-0.5745544,0.4956055-1.4254456,0.4956055-2,0
						l-35.2490082-34.7779999L198.1990509,162.8782043z"/>
					<path id="Tracé_5739" class="st12" d="M35.1100159,126.8612518c3.6570091-0.8667679,7.4659958-0.8667679,11.1230049-0.0000076
						c1.3000793,0.2761459,2.1301422,1.5539322,1.8540001,2.8539963c-0.2761421,1.3000793-1.5539207,2.1301575-2.8540001,1.8540039
						c-3.1772499-0.7266235-6.4861069-0.6437531-9.6230011,0.2409973
						C35.3600197,130.0782471,35.2350159,128.4692383,35.1100159,126.8612518 M37.6100121,112.3752441
						c3.4276505-0.2883987,6.8789978-0.0799103,10.2470055,0.6190033c1.3000793,0.2761459,2.1301422,1.5539246,1.8540001,2.8539963
						c-0.2761421,1.3000793-1.5539207,2.1301498-2.8540001,1.8540039c-3.5336189-0.7383957-7.1678658-0.863884-10.7439995-0.3710022
						c0.3852119-1.6822968,0.8864098-3.3359146,1.4999962-4.9489975"/>
					<path id="Tracé_5740" class="st19" d="M250.812027,51.9801674c-1.9552917,0.0000954-3.7642975-1.0356865-4.7539978-2.7219963
						c-1.1006775-1.9738464-0.9033203-4.416481,0.5-6.1880035c1.0128021-1.1047096,1.3042145-2.6915169,0.75-4.0839996
						l-0.1210022-0.1209984c-2-4.2080002-4-8.7869987-5.3739929-11.7579994
						c-0.5102386-0.9710121-0.3605194-2.1572304,0.375-2.9710007c0.6536713-0.9066601,1.7800293-1.3432503,2.8739929-1.1140022
						c5.1239929,0.7419987,12.621994,1.7319965,15.9999847,2.2279949c1.0332031,0.1389732,1.9263,0.7905254,2.3740234,1.7320004
						c1.2489929,2.7229996,4.8739929,10.5200005,6.3739929,13.9860001c0.3742981,0.782547,0.3742981,1.6924515,0,2.4749985
						c-0.75,2.2280045-2.3739929,6.6840057-0.875,10.6430054c1.6530762,3.9168282,2.5032043,8.1256142,2.5,12.3769989
						c-0.1018982,17.9199066-14.6959534,32.3725662-32.6159973,32.3000107
						c-2.5963593,0.1403656-4.8149261-1.8506165-4.9552917-4.4469833c-0.1403656-2.5963593,1.8506165-4.8149185,4.4469757-4.9552841
						c0.0274353-0.0014877,0.0548706-0.0027313,0.0823212-0.0037308c0.1410065-0.0059967,0.2839966-0.0059967,0.4259949,0
						c12.6349335,0.0526047,22.9250488-10.1381683,22.9949951-22.7730103c0.0211792-2.7933655-0.4878235-5.5653839-1.5-8.1690025
						c-1.4576416-3.9613914-5.2805481-6.5508919-9.5000153-6.4350014"/>
					<path id="Tracé_5741" class="st19" d="M0.240022,159.9042664c0.2499996-1.4850006,0.4999992-2.845993,0.6249989-3.9609985
						c0.08405-0.8506775,0.5416453-1.6200562,1.2489995-2.1000061c1.7489998-1.4850006,5.4999995-4.5789948,6.1239986-8.7870026
						c0.5395432-4.2416534,1.9434795-8.3275452,4.1249962-12.0050049
						c9.0984297-15.4538345,28.9444466-20.6988297,44.4900055-11.7580109
						c2.2526932,1.265892,3.052742,4.1182175,1.7870026,6.3710022l-0.0369987,0.0650024
						c-1.3236465,2.2640381-4.2252846,3.0372162-6.5,1.7319946c-10.9986839-6.3148193-25.0301895-2.6203613-31.4930038,8.2920227
						c-1.4271545,2.3907318-2.3618145,5.0427399-2.7489986,7.8000031c-0.625,4.3309937,1.5000019,7.8000031,5.0000038,10.147995
						c1.6770382,0.9803009,2.7199039,2.765686,2.7500019,4.7079926c-0.0022507,2.2523346-1.3947372,4.269455-3.4999981,5.0700073
						c-1.0476494,0.3416595-1.9070568,1.1018829-2.3740005,2.1000061c-1,1.9799957-2,2.845993-3.8740015,2.352005l-0.75-0.2409973
						c-1.4279242-0.5440216-2.8872156-1.0018463-4.3700008-1.3710022l-7.5000019-2.352005
						c-3.124001-1.2339935-3.5000014-2.7180023-3.1240022-4.9470062c-0.0000001-0.2409973,0.1209998-0.6179962,0.1209997-0.8670044
						L0.240021,159.912262"/>
					<path id="Tracé_5742" class="st12" d="M113.2180481,167.3312378c0.3994675-1.4521942,0.6095428-2.9499359,0.6249924-4.4559937
						h13.8720093v0.2409973c-0.0010376,1.4517212-0.126503,2.9006958-0.375,4.3309937L113.2180481,167.3312378z"/>
					<path id="Tracé_5743" class="st12" d="M248.8130341,86.8831711c1.9608612,2.4952621,3.715332,5.146019,5.2460175,7.9260025
						c-1.4007721,0.7452469-2.8640137,1.3666153-4.3730011,1.8570099c-1.5739288-2.9483109-3.504425-5.6918945-5.7480164-8.1689987
						c1.7001495-0.2726822,3.3456421-0.8158951,4.8739929-1.6090088"/>
					<path id="Tracé_5744" class="st12" d="M202.6980743,167.3302002h-19.5000153l-4.5-4.4519958h19.5L202.6980743,167.3302002z"/>
					<path id="Tracé_5745" class="st19" d="M136.6829987,11.6651974l-74.677002,26.7510319l3.6270065,25.5349998
						c0.4141006,2.9830055,3.1679916,5.0655098,6.151001,4.6514168c0.0009995-0.0001373,0.0019989-0.0002823,0.0029984-0.0004196
						l0.1170044-0.0169983c26.6246948-4.379364,52.2316055-13.5619659,75.5720062-27.1000252
						c2.5857697-1.5097084,3.4705353-4.8219872,1.9819946-7.420002L136.6829987,11.6651974z"/>
					<path id="Tracé_5746" class="st12" d="M74.1440048,62.5222244c0,0,0.5059967-0.0709991,1.4319992-0.2459984
						l3.9589996-0.7220001c3.362999-0.6760025,8.0930023-1.6310043,13.461998-3.0500069
						c5.625-1.5159988,12.072998-3.4490051,18.3560028-5.7770042c1.7779999-0.6480026,3.6070023-1.3650055,5.4179993-2.1170044
						c1.822998-0.7190018,3.5999985-1.5369987,5.3150024-2.3120003c6.7560043-3.0110054,12.7260056-6.1410065,16.9870071-8.522007
						c2.1399994-1.1720047,3.8399963-2.189003,5.0219879-2.8810043s1.822998-1.0699997,1.8730011-1.1130028
						c1.1610413-0.6904106,1.9641113-1.8519478,2.1999969-3.1819992c0.1329956-0.9790001-0.1809998-1.5669994-0.5249939-1.6669998
						c-0.4120026-0.1000004-0.8150024,0.3360004-1.3130035,0.8379993c-0.5411377,0.5828228-1.1509094,1.0979099-1.8159943,1.5340023
						l-0.0879974,0.0519981c-0.0509949,0.0300026-0.1459961,0.0860023-0.3150024,0.1749992l-1.3849945,0.7510033
						c-1.1999969,0.6419983-2.9140015,1.5999985-5.0690002,2.6809998
						c-4.2839966,2.2140007-10.2440033,5.1000061-16.8720016,7.8650055
						c-3.473999,1.3940048-6.9079971,2.8190041-10.6640015,4.2150078c-6.1709976,2.2910004-12.4120026,4.352005-17.8949966,5.932003
						c-5.2050095,1.529007-9.8600082,2.6290054-13.1880112,3.435009l-3.9350052,0.8779984l-1.4280014,0.3110008
						c-2.5509949,0.4259987-4.2319946,1.4350052-4.1999969,2.1830025c0.0999985,0.9230003,2.4000015,1.2069969,4.6619949,0.7419968"
						/>
					<path id="Tracé_5747" class="st12" d="M58.117012,87.3272324c-0.7269325,0.2593994-1.5383377,0.026474-2.0169983-0.5790024
						L46.590004,74.8022308c-0.2650452-0.3313904-0.4064713-0.7447052-0.4000015-1.1689987l0.4999924-29.5220032
						c0.0212631-0.9963226,0.84618-1.7867622,1.8425026-1.7655029c0.9963188,0.0212631,1.7867622,0.84618,1.7654991,1.8425026l0,0
						L49.814003,73.0542297l9.1000061,11.4339981c0.6242218,0.7811127,0.5009499,1.9196091-0.276001,2.5490036
						c-0.1553574,0.1250229-0.3304062,0.2233658-0.5180016,0.2910004"/>
					<path id="Tracé_5748" class="st12" d="M47.2039909,40.5652313c1.9752502-0.7221069,4.1618843,0.2937584,4.8839912,2.2690048
						c0.7221107,1.9752426-0.2937584,4.1618805-2.2690048,4.8839874c-1.9752388,0.7221107-4.1618729-0.2937508-4.8839836-2.2689896
						l-0.0079994-0.0239983C44.2166862,43.4545441,45.2351646,41.2807007,47.2039909,40.5652313L47.2039909,40.5652313"/>
					<path id="Tracé_5749" class="st12" d="M46.1119995,68.4202347c2.8933372-1.0594254,6.0976791,0.4272537,7.1571083,3.3205948
						c1.0594215,2.8933334-0.4272575,6.0976791-3.3205948,7.1571045s-6.097683-0.4272614-7.1571083-3.3205948
						c-0.0001335-0.0003662-0.0002708-0.0007324-0.0004044-0.0011063l-0.012001-0.0359955
						c-1.046978-2.8831787,0.441555-6.0691986,3.3247337-7.1161804c0.0007553-0.0002747,0.0015106-0.0005493,0.0022659-0.000824
						h0.0060005"/>
					<path id="Tracé_5750" class="st12" d="M56.2370071,82.074234c1.9520302-0.7132263,4.1126518,0.2910156,4.8258781,2.2430496
						c0.7132301,1.9520264-0.2910156,4.112648-2.2430458,4.8258743c-1.9519768,0.7132111-4.1125488-0.2909698-4.8258286-2.2429199
						l-0.007-0.0210037c-0.7072906-1.9430237,0.2944756-4.0915298,2.2375031-4.7988129
						c0.000164-0.000061,0.0003281-0.0001221,0.0004921-0.0001831l0.0159988-0.0059967"/>
					<path id="Tracé_5751" class="st12" d="M165.4880066,0.0081858L95.2019958,9.6082106
						c-1.1739349,0.1599293-2.2980499,0.5772038-3.2919998,1.222002L32.0479927,49.607235
						c-0.4195518,0.275692-0.5361729,0.8393021-0.260479,1.2588539c0.1912842,0.2910995,0.532093,0.4472923,0.8774796,0.4021454
						l70.2860107-9.6000214c1.1736526-0.1610489,2.2975311-0.5782356,3.2919998-1.2220001l59.8619919-38.7770271
						c0.4204254-0.2733542,0.5396423-0.8357705,0.2662964-1.2561921c-0.1914062-0.2943699-0.5353699-0.4520058-0.8833008-0.404808"
						/>
				</g>
			</g>
		</g>
	</g>
</g>
<g id="TEXTES_FR" class="st283">
</g>
<g id="TEXTES_GB">
</g>
<g id="Calque_5">
</g>
</svg>
