<?xml version="1.0" encoding="UTF-8"?>
<svg id="Calque_2" data-name="Calque 2" xmlns="http://www.w3.org/2000/svg" viewBox="0 0 22 22">
  <defs>
    <style>
      .cls-1 {
        fill: #272f60;
      }
    </style>
  </defs>
  <g id="Calque_5" data-name="Calque 5">
    <path id="Icon_material-tag-faces" data-name="Icon material-tag-faces" class="cls-1" d="M10.99,0C4.91,0,0,4.94,0,11.01c0,6.08,4.94,11,11.01,10.99,6.07,0,10.99-4.93,10.99-11C22,4.93,17.08,0,11.01,0c0,0-.01,0-.02,0Zm.01,19.8c-4.86,0-8.8-3.94-8.8-8.8S6.14,2.2,11,2.2s8.8,3.94,8.8,8.8h0c0,4.86-3.94,8.8-8.8,8.8Zm3.85-9.9c.91,0,1.65-.74,1.65-1.65s-.74-1.65-1.65-1.65-1.65,.74-1.65,1.65h0c0,.91,.74,1.65,1.65,1.65,0,0,0,0,0,0Zm-7.7,0c.91,0,1.65-.74,1.65-1.65,0-.91-.74-1.65-1.65-1.65-.91,0-1.65,.74-1.65,1.65,0,.91,.74,1.65,1.65,1.65,0,0,0,0,0,0Zm3.85,7.15c2.49,0,4.72-1.53,5.62-3.85H5.38c.9,2.32,3.13,3.85,5.62,3.85Z"/>
  </g>
</svg>