<?xml version="1.0" encoding="utf-8"?>
<!-- Generator: Adobe Illustrator 26.2.1, SVG Export Plug-In . SVG Version: 6.00 Build 0)  -->
<svg version="1.1" id="Calque_1" xmlns="http://www.w3.org/2000/svg" xmlns:xlink="http://www.w3.org/1999/xlink" x="0px" y="0px"
	 viewBox="0 0 384.4 437.9" style="enable-background:new 0 0 384.4 437.9;" xml:space="preserve">
<style type="text/css">
	.st0{fill:#272F60;}
	.st1{fill:#FB657C;}
	.st2{fill:#FFBCC6;}
	.st3{fill:#FFFFFF;}
	.st4{fill:none;stroke:#142664;stroke-width:3;stroke-linecap:round;stroke-linejoin:round;}
</style>
<g id="TEXTES_FR">
</g>
<g>
	<g id="ILLUSTRATIONS">
		<path id="Tracé_3427_00000142857305305311554400000013277643710033864588_" class="st0" d="M360.3,199.4
			c-2.4-3.5-6.4-9.2-7.5-10.8c-0.2-0.2-0.4-0.4-0.7-0.4c-0.9-0.1-2.9-0.5-3.7-0.7c-0.3,0-0.6,0-0.8,0.2L332,198.5
			c-1-0.5-2.2-0.6-3.3-0.4c-1.6-0.8-3.4-1.1-5.2-0.8c-2.5,0.4-4.8-1.3-5.2-3.8c-0.5-2.7-2.1-5-4.5-6.3c-0.3-0.2-0.6-0.3-0.9-0.4
			l-0.2-0.1c-1.4-0.5-3-0.7-4.5-0.4c-2.5,0.4-4.8,1.9-6.1,4.1c-0.8-0.3-1.7-0.5-2.6-0.5l-0.1-0.5c-0.8,1.4-1.5,2.8-2.1,4.3
			c-0.4,1.3-1,2.5-1.8,3.5c0.2,0.3,0.1,0.7-0.2,0.9c-0.9,0.8-1.8,1.6-2.6,2.4c1.8,3.7,6.3,5.2,10,3.4c1.2-0.6,2.3-1.5,3-2.7l12,2.1
			l6.3,1.1c0.3,2.3,1.9,4.2,4.1,4.8l4.4,18.1c0.1,0.3,0.2,0.5,0.5,0.7c0.7,0.5,2.5,1.5,3.2,2c0.2,0.2,0.5,0.2,0.8,0.1
			c1.8-0.4,8.6-2.1,12.7-3.1c0.6-0.1,1-0.7,0.8-1.3c-0.1-0.3-0.3-0.6-0.7-0.8c-1.1-0.5-2.3-1-2.8-1.2c-0.2-0.1-0.5-0.1-0.7-0.1
			c-1.1,0.3-4.8,1.2-6,1.5c-0.3,0.1-0.6,0-0.8-0.1c-0.6-0.4-1.8-1.1-2.4-1.4c-0.2-0.2-0.4-0.4-0.5-0.7l-3.6-14.6
			c1.9-1.4,2.7-3.7,2.2-6l12.5-8.7c0.2-0.2,0.5-0.2,0.8-0.2c0.7,0.1,2,0.4,2.7,0.5c0.3,0,0.5,0.2,0.7,0.4c0.7,1.1,2.8,4.1,3.5,5.1
			c0.1,0.2,0.3,0.4,0.5,0.4c0.5,0.2,1.7,0.6,2.9,1c0.4,0.2,0.9,0,1.2-0.4C360.6,200.3,360.6,199.8,360.3,199.4"/>
		<path id="Tracé_3428_00000128467398548262482790000000984289652690604179_" class="st1" d="M90.8,210.7c1.1-3.9,1.9-7.9,2.3-12
			c0.4-3.9,0.6-8,0.6-12.4c0.1-3.8-0.1-7.7-0.5-11.5c-0.3-3.8-0.9-7.6-1.9-11.3c-0.2-0.9,0.3-1.9,1.1-2.3c0.9-0.2,1.9,0.2,2.3,1.1
			c1.3,3.8,2.2,7.8,2.8,11.8c0.6,4,0.9,8,1,12c-0.1,4.3-0.4,8.6-1,12.9c-0.7,4.3-1.8,8.5-3.3,12.6c-0.4,0.9-1.3,1.4-2.3,1.1
			C91.1,212.5,90.6,211.6,90.8,210.7"/>
		<path id="Tracé_3431_00000100379385977201342700000011992812982600621483_" class="st2" d="M76,176.5c0,0-2.8,0.2-6.4,0.4
			c-2,0.1-4.2,0.2-6.4,0.2c-1.3,0-2.7,0-3.9-0.1c-4.9-0.2-9.1-0.5-9.1-0.5c-1,0-1.8-0.7-1.8-1.7c0-1,0.7-1.8,1.7-1.8
			c0,0,0.1,0,0.1,0c0,0,4-0.4,9.1-0.5c1.3,0,2.5-0.1,3.9-0.1c2.3,0,4.5,0.1,6.4,0.2c3.7,0.1,6.4,0.4,6.4,0.4c1,0,1.8,0.7,1.8,1.7
			c0,1-0.7,1.8-1.7,1.8C76.1,176.5,76.1,176.5,76,176.5"/>
		<path id="Tracé_3433_00000140727077417313520900000004027523544107712157_" class="st2" d="M44.8,167.4c-0.9,0.2-1.8,0.3-2.7,0.4
			c-0.9,0.2-1.8,0.2-2.7,0.2c-0.6,0-1.1,0-1.6-0.1c-2-0.2-3.8-0.5-3.8-0.5c-1,0-1.8-0.7-1.8-1.7c0-1,0.7-1.8,1.7-1.8
			c0,0,0.1,0,0.1,0c1.2-0.3,2.5-0.4,3.8-0.5c0.5,0,1-0.1,1.6-0.1c0.9,0,1.8,0.1,2.7,0.2c0.9,0.1,1.8,0.2,2.7,0.4
			c1,0,1.8,0.7,1.8,1.7c0,1-0.7,1.8-1.7,1.8C44.9,167.4,44.9,167.4,44.8,167.4"/>
		<path id="Tracé_3434_00000054950203569664690600000015080623621189100985_" class="st2" d="M80.2,214.9c0,0-1.8,0.2-4.3,0.4
			c-1.3,0.1-2.8,0.2-4.3,0.2c-0.8,0-1.7,0-2.5-0.1c-3.3-0.2-5.9-0.5-5.9-0.5c-1,0-1.8-0.7-1.8-1.7c0-1,0.7-1.8,1.7-1.8
			c0,0,0.1,0,0.1,0c0,0,2.7-0.4,5.9-0.5c0.9,0,1.6-0.1,2.5-0.1c1.5,0,3,0.1,4.3,0.2c2.5,0.1,4.3,0.4,4.3,0.4c1,0,1.8,0.7,1.8,1.7
			c0,1-0.7,1.8-1.7,1.8C80.3,214.9,80.3,214.9,80.2,214.9"/>
		<path id="Tracé_3435_00000027598144326153842980000006571667804071269009_" class="st2" d="M64.7,199.9c0,0-5.9,0.2-13.9,0.4
			c-4.2,0.1-9.1,0.2-13.9,0.2c-2.8,0-5.6,0-8.3-0.1c-10.6-0.2-19.3-0.5-19.3-0.5c-1,0-1.8-0.7-1.8-1.7c0-1,0.7-1.8,1.7-1.8
			c0,0,0.1,0,0.1,0c0,0,8.8-0.4,19.3-0.5c2.7,0,5.6-0.1,8.3-0.1c4.8,0,9.6,0.1,13.9,0.2c8,0.1,13.9,0.4,13.9,0.4
			c0.9,0,1.7,0.7,1.8,1.7c0,0,0,0.1,0,0.1c0.1,0.9-0.6,1.7-1.5,1.8C64.8,199.9,64.7,199.9,64.7,199.9"/>
		<path id="Tracé_3436_00000150791223283513539360000007404008898768534682_" class="st1" d="M113.9,150.6
			c-1.2-3.8-3.2-7.4-5.8-10.5c-1.8-2-3.7-3.3-5.7-3.3c-2.1,0-4.2,1.5-6.1,3.9c-2.5,3.6-4.4,7.6-5.7,11.8c-2.8,8.9-4.5,20.6-4.4,33.6
			c-0.2,11.4,1.3,22.7,4.4,33.7c1.2,4.3,3.1,8.3,5.7,11.9c1.9,2.4,3.9,3.9,6.1,4c2-0.1,3.8-1,5.1-2.5c2.3-2.6,4.2-5.5,5.4-8.8
			c0.4-0.9,1.4-1.3,2.3-1c0.9,0.3,1.4,1.4,1,2.3c-1.4,3.7-3.4,7-5.9,10c-2.4,2.5-5.1,3.9-7.8,3.9c-2.9-0.1-5.6-1.3-7.6-3.4
			c-2.3-2.1-4.3-5.4-6.2-9.4c-4.3-9.6-7.1-24.1-7.2-40.5c0.1-16.4,2.9-30.9,7.2-40.5c1.4-3.5,3.5-6.7,6.2-9.4
			c2.4-2.3,5.1-3.5,7.7-3.4c3,0,6.1,1.6,8.7,4.8c2.7,3.6,4.8,7.5,6.2,11.8c0.3,0.9-0.1,1.9-1,2.2c0,0-0.1,0-0.1,0
			C115.4,152.1,114.3,151.7,113.9,150.6C114,150.7,114,150.7,113.9,150.6z"/>
		<path id="Tracé_3437_00000085226455469861727940000003652527234608829606_" class="st1" d="M83.1,151.9c-1.4,0-2.7,1.1-3.9,2.6
			c-1.8,2.5-3,5.3-3.8,8.3c-2.1,7.7-3.1,15.6-2.9,23.5c-0.2,7.9,0.8,15.9,2.9,23.5c1.3,4.1,2.8,7.4,4.7,9.3c0.7,0.9,1.8,1.5,3,1.6
			c1,0,1.8,0.7,1.8,1.7c0,1-0.7,1.8-1.7,1.8c0,0-0.1,0-0.1,0c-3.7,0.1-7.5-3.3-10.1-9.1c-2.4-5.5-3.9-11.2-4.5-17.1
			c-0.5-3.9-0.8-7.7-0.8-11.6c0-3.9,0.2-7.8,0.8-11.6c0.7-5.9,2.2-11.7,4.5-17.1c2.8-6,6.4-9.3,10.2-9.1c0.9,0,1.7,0.7,1.8,1.7
			c0,0,0,0.1,0,0.1C84.9,151.1,84.1,151.8,83.1,151.9z"/>
		<path id="Tracé_3438_00000026858980564239861090000018342899917803590789_" class="st1" d="M66.2,167.4c-0.6,0-1,0.6-1.5,1.3
			c-0.9,1.4-1.5,2.9-1.9,4.5c-1.2,4.3-1.7,8.7-1.5,13.1c-0.1,4.4,0.4,8.9,1.5,13.1c0.4,1.6,1,3.1,1.9,4.5c0.5,0.6,1,1.3,1.5,1.3
			c1,0,1.8,0.7,1.8,1.7c0,1-0.7,1.8-1.7,1.8c0,0-0.1,0-0.1,0c-2.3,0.1-4.8-1.9-6.6-5.6c-1.5-3.2-2.4-6.5-2.8-10
			c-0.3-2.2-0.5-4.5-0.5-6.8c0-2.3,0.1-4.5,0.5-6.8c0.4-3.5,1.3-6.8,2.8-10c1.8-3.8,4.3-5.8,6.6-5.6c0.9,0,1.7,0.7,1.8,1.7
			c0,0,0,0.1,0,0.1C67.9,166.6,67.2,167.4,66.2,167.4"/>
		<path id="Tracé_3439_00000169515851227710827250000007403755073480009376_" class="st1" d="M107.8,167.2
			c0-6.8,5.6-12.4,12.4-12.4c0,0,0.1,0,0.1,0h26.3v38.8h-38.7v-26.4H107.8z"/>
		<path id="Tracé_3440_00000042731345800171009220000009132616198743198884_" class="st0" d="M116.5,167h-8.3
			c-1.3,0-2.4-1.1-2.4-2.4c0-1.3,1.1-2.4,2.4-2.4c0,0,0,0,0,0h8.3c1.3,0,2.4,1.1,2.4,2.4c0,0,0,0,0,0c0,1.3-1,2.3-2.2,2.4
			C116.6,167,116.5,167,116.5,167"/>
		<path id="Tracé_3441_00000004533177044463929230000001931127442106978710_" class="st0" d="M116.5,174.3h-8.3
			c-1.3,0-2.4-1.1-2.4-2.4c0,0,0,0,0,0c0.1-1.3,1.1-2.3,2.4-2.4h8.3c1.3,0,2.4,1.1,2.4,2.4C118.8,173.2,117.8,174.3,116.5,174.3
			C116.5,174.3,116.5,174.3,116.5,174.3"/>
		<path id="Tracé_3442_00000168811455543944674970000012283458582112391317_" class="st0" d="M116.5,181.7h-8.3
			c-1.3,0-2.4-1.1-2.4-2.4c0-1.3,1.1-2.4,2.4-2.4c0,0,0,0,0,0h8.3c1.3,0,2.4,1.1,2.4,2.4c0,0,0,0,0,0c0,1.3-1,2.3-2.2,2.4
			C116.6,181.7,116.5,181.7,116.5,181.7"/>
		<path id="Tracé_3443_00000154385695937425962760000010976157325498033575_" class="st2" d="M131.9,219.6c2,0,3.9,1,4.9,2.8
			c11,17.4,30.1,28,50.7,27.9c33,0,59.6-26.5,59.6-59c0-32.6-26.8-59-59.6-59c-30.2,0-55.3,22.4-59.1,51.3c-0.4,2.9-2.8,5-5.7,5
			h-17.6c-1.1,0-2,0.5-2.7,1.4c-0.6,0.9-0.8,2-0.5,3c1.4,4.3,3.5,11.1,5.3,16.8c1.9,6.1,7.6,10.3,14,10.3L131.9,219.6z"/>
		<path id="Tracé_3444_00000159468762682884123740000013169028136582463394_" class="st0" d="M157.8,161.9c-1.6,0-2.9,1.3-2.8,2.9
			c0,1.6,1.3,2.9,2.9,2.8c1.6,0,2.8-1.3,2.8-2.9C160.7,163.2,159.4,161.9,157.8,161.9"/>
		<path id="Tracé_3445_00000045579479965534693770000016555193041716010941_" class="st0" d="M128.2,207.6c-1.6,0-2.9,1.3-2.8,2.9
			c0,1.6,1.3,2.9,2.9,2.8c1.6,0,2.8-1.3,2.8-2.9C131.1,208.8,129.8,207.5,128.2,207.6"/>
		<path id="Tracé_3446_00000055700392267822143040000003133454135022155455_" class="st0" d="M118.6,207.6c-1.6,0-2.9,1.3-2.8,2.9
			c0,1.6,1.3,2.9,2.9,2.8c1.6,0,2.8-1.3,2.8-2.9C121.5,208.8,120.2,207.5,118.6,207.6"/>
		<path id="Tracé_3447_00000026143426743059846210000012621507423919947904_" class="st0" d="M185.2,164l-24-23.8
			c-1-0.9-2.4-0.9-3.4,0c-0.9,1-0.9,2.4,0,3.4l24.6,24.5c0.5,0.5,1.1,0.8,1.8,0.8h55.1c1.3,0,2.4-1.1,2.4-2.4c0-1.3-1.1-2.4-2.4-2.4
			l0,0L185.2,164z"/>
		<path id="Tracé_3448_00000157289939947029968700000007645390655049020603_" class="st0" d="M181,150.8h-10.2
			c-1.3,0-2.4,1.1-2.4,2.4c0,0,0,0,0,0c0.1,1.3,1.1,2.3,2.4,2.4h16c1,0,1.9-0.6,2.3-1.5c0.3-0.9,0.1-1.9-0.5-2.6l-16-15.9
			c-1-0.9-2.4-0.9-3.4,0c-0.9,1-0.9,2.4,0,3.4L181,150.8z"/>
		<path id="Tracé_3449_00000046326329211204368810000017187165178499471775_" class="st0" d="M211.7,229.2v-8.5
			c0-1.3-1.1-2.4-2.4-2.4c-1.3,0-2.4,1.1-2.4,2.4l0,0v10.9c0,1.3,1.1,2.4,2.4,2.4c0,0,0,0,0,0h17.9c1.3,0,2.4-1.1,2.4-2.4
			c0,0,0,0,0,0c-0.1-1.3-1.1-2.3-2.4-2.4H211.7z"/>
		<path id="Tracé_3450_00000134957774370790433080000011593410304072301184_" class="st0" d="M194.3,238.3l-7.8,7.8
			c-0.9,1-0.9,2.4,0,3.4c1,0.9,2.4,0.9,3.4,0l8.5-8.4c0.5-0.4,0.8-1.1,0.8-1.8v-18.6c0-1.3-1.1-2.4-2.4-2.4c-1.3,0-2.4,1.1-2.4,2.4
			l0,0L194.3,238.3z"/>
		<path id="Tracé_3451_00000127026680800924280490000002895656460616545957_" class="st3" d="M186.6,233.8
			c-0.2,0.5-0.5,0.9-0.8,1.4c-0.3,0.4-0.6,0.8-0.9,1.1c-0.2,0.2-0.5,0.4-0.8,0.5c-1,0.6-1.9,1.1-1.9,1.1c-0.6,0.7-1.7,0.8-2.4,0.1
			c0,0-0.1-0.1-0.1-0.1c-0.7-0.6-0.8-1.7-0.2-2.3c0-0.1,0.1-0.1,0.2-0.2c0.3-0.7,0.7-1.3,1.1-1.9c0.1-0.2,0.4-0.5,0.5-0.8
			c0.3-0.3,0.7-0.6,1.1-0.9c0.4-0.3,0.9-0.5,1.4-0.8c0.6-0.7,1.7-0.8,2.4-0.1c0,0,0.1,0.1,0.1,0.1
			C187.1,231.9,187.2,233,186.6,233.8"/>
		<path id="Tracé_3452_00000006691748636385719370000015526386759075470515_" class="st3" d="M178.1,233.8
			c-0.2,0.5-0.5,0.9-0.8,1.4c-0.3,0.4-0.6,0.8-0.9,1.1c-0.2,0.2-0.5,0.4-0.8,0.5c-1,0.6-1.9,1.1-1.9,1.1c-0.6,0.7-1.7,0.8-2.4,0.1
			c0,0-0.1-0.1-0.1-0.1c-0.7-0.6-0.8-1.7-0.2-2.3c0-0.1,0.1-0.1,0.2-0.2c0.3-0.7,0.7-1.3,1.1-1.9c0.1-0.2,0.4-0.5,0.5-0.8
			c0.3-0.3,0.7-0.6,1.1-0.9c0.4-0.3,0.9-0.5,1.4-0.8c0.6-0.7,1.7-0.8,2.4-0.1c0,0,0.1,0.1,0.1,0.1
			C178.7,231.9,178.7,233,178.1,233.8z"/>
		<path id="Tracé_3453_00000139979870568044071520000015312147950283794599_" class="st3" d="M169.5,233.8
			c-0.2,0.5-0.5,0.9-0.8,1.4c-0.3,0.4-0.6,0.8-0.9,1.1c-0.2,0.2-0.5,0.4-0.8,0.5c-1,0.6-1.9,1.1-1.9,1.1c-0.6,0.7-1.7,0.8-2.4,0.1
			c0,0-0.1-0.1-0.1-0.1c-0.7-0.6-0.8-1.7-0.2-2.3c0-0.1,0.1-0.1,0.2-0.2c0.3-0.7,0.7-1.3,1.1-1.9c0.1-0.2,0.4-0.5,0.5-0.8
			c0.3-0.3,0.7-0.6,1.1-0.9c0.4-0.3,0.9-0.5,1.4-0.8c0.6-0.7,1.7-0.8,2.4-0.1c0,0,0.1,0.1,0.1,0.1C170,232,170.3,233.2,169.5,233.8"
			/>
		<path id="Tracé_3454_00000026866541296741868920000008373950566157268352_" class="st0" d="M131.5,179
			c1.8-8.3,5.5-16.1,10.7-22.8c0.8-1,0.7-2.5-0.3-3.4c0,0,0,0,0,0c-1-0.8-2.6-0.7-3.4,0.4c-6.8,8.6-11.1,18.8-12.6,29.6
			c-0.2,1.6-1.6,2.9-3.3,2.9h-14.9c-1.3,0-2.4,1.1-2.4,2.4c0,1.3,1.1,2.4,2.4,2.4h10v6.1h-10.1c-1.3,0-2.4,1.1-2.4,2.4c0,0,0,0,0,0
			c0.1,1.3,1.1,2.3,2.4,2.4H120c1.3,0,2.4-1.1,2.4-2.4c0,0,0,0,0,0v-8.5h0.1c4,0.1,7.4-2.8,8-6.8h8v26.9c0,0.7,0.3,1.3,0.8,1.8
			l13.8,13.6c1,0.9,2.4,0.9,3.4,0l11.2-11.1c0.9-1,0.9-2.4,0-3.4c-1-0.9-2.4-0.9-3.4,0l-9.6,9.5l-11.2-11.1v-28.3
			c0-1.3-1.1-2.4-2.4-2.4c0,0,0,0,0,0h-9.5L131.5,179z"/>
		<path id="Tracé_3455_00000152236004215787088740000006839817550403304838_" class="st0" d="M249.4,175.2h-96.3
			c-1.3,0-2.4,1.1-2.4,2.4c0,0,0,0,0,0v28.8c0,0.9,0.5,1.7,1.3,2.1l27.3,14.4c0.4,0.1,0.7,0.2,1.1,0.2h41.7c0.4,0,0.8-0.1,1.1-0.2
			l27.3-14.4c0.8-0.4,1.3-1.2,1.3-2.1v-28.8C251.7,176.2,250.7,175.2,249.4,175.2"/>
		<path id="Tracé_3456_00000124161245839827346940000005337315748681286291_" class="st1" d="M161.9,332.2c1.4,0,2.6-1.1,2.6-2.5
			c0,0,0,0,0,0v-4.9c0-2.8,0.6-4.8,1.6-5.8c1.9-1.7,6-1.7,10.6-1.6h7.1c4.8-0.1,8.9-0.1,10.6,1.6c1.2,1,1.6,3,1.6,5.8v4.8
			c0,1.4,1.2,2.6,2.6,2.6c1.4,0,2.5-1.1,2.6-2.5c0,0,0-0.1,0-0.1v-4.8c0-4.4-1-7.5-3.2-9.5c-3.5-3.3-8.7-3.1-14.4-3.1h-7
			c-5.7-0.1-11-0.3-14.5,3.1c-2.2,2.1-3.2,5.3-3.2,9.5v4.8C159.3,331.1,160.5,332.2,161.9,332.2"/>
		<path id="Tracé_3457_00000040545746260357236970000005518693897006644640_" class="st0" d="M140.7,332.5c0-1.1,0.4-2.2,1.3-3
			c0.8-0.8,1.9-1.2,3.1-1.3h9.4c1.2,0,2.3,0.4,3.1,1.3c0.8,0.8,1.3,1.9,1.3,3v46.8c0,1.1-0.4,2.2-1.3,3c-0.8,0.8-1.9,1.2-3.1,1.3
			h-9.4c-1.2,0-2.3-0.4-3.1-1.3c-0.8-0.8-1.3-1.9-1.3-3L140.7,332.5z"/>
		<path id="Tracé_3458_00000042722839243282259710000018023334170472002946_" class="st1" d="M153.2,332.5c0-1.1,0.4-2.2,1.3-3
			c0.8-0.8,1.9-1.2,3.1-1.3h56.7c1.2,0,2.3,0.4,3,1.3c0.8,0.8,1.3,1.9,1.3,3v46.8c0,1.1-0.4,2.2-1.3,3c-0.8,0.8-1.9,1.3-3,1.3h-56.7
			c-1.2,0-2.3-0.4-3.1-1.3c-0.8-0.8-1.3-1.9-1.3-3L153.2,332.5z"/>
		<path id="Tracé_3459_00000059271908818406301530000001414745184969112227_" class="st2" d="M294.1,208.2v11.3
			c0,1.8-1.5,3.3-3.3,3.3c-1.8,0-3.3-1.5-3.3-3.3v-12.7c0-0.9,0.4-1.7,1-2.4l8.3-8.4c1.3-1.3,3.3-1.3,4.6-0.1c0,0,0,0,0.1,0.1
			c1.3,1.3,1.3,3.4,0,4.7c0,0,0,0,0,0L294.1,208.2z"/>
		<path id="Tracé_3460_00000032647832528514815860000012746094668197962407_" class="st2" d="M222.1,233.5l-3.6-3.6
			c-2-2-2-5.3,0-7.3c2-2,5.3-2,7.3,0l10.3,10.3c0.4,0.4,0.6,0.9,0.6,1.5v5.6c0,0.5,0.2,1.1,0.6,1.5c1.4,1.4,4.8,4.8,4.8,4.8l9.2,9.2
			c1,1,1,2.6,0,3.6c-1,1-2.6,1-3.6,0c0,0,0,0,0,0l-10.1-10.2L222.1,233.5z"/>
		<path id="Tracé_3461_00000072965845819837620250000012367358837877998512_" class="st2" d="M264.3,251.3l-3.6,3.6
			c-2,2-5.3,2-7.3,0c-2-2-2-5.3,0-7.3l28.7-28.9c0.4-0.4,0.9-0.6,1.5-0.6h5.5c0.5,0,1.1-0.2,1.5-0.6c1.4-1.4,4.7-4.9,4.7-4.9
			l9.1-9.3c1-1,2.6-1,3.6,0c0,0,0,0,0,0c1,1,1,2.6,0,3.6l-10.1,10.2L264.3,251.3z"/>
		<path id="Tracé_3462_00000092421637628377644890000007867287480241335205_" class="st0" d="M295.8,196.3
			c0.1-7.1,5.8-12.7,12.9-12.7c7.1,0.1,12.7,5.8,12.7,12.9c-0.1,7-5.8,12.7-12.8,12.7C301.5,209.1,295.8,203.4,295.8,196.3"/>
		<path id="Tracé_3463_00000127044476962006009870000017565019314263293841_" class="st0" d="M242.5,254.9c0-5.2,4.3-9.3,9.4-9.3
			s9.3,4.3,9.3,9.4c0,5.1-4.2,9.3-9.3,9.3C246.7,264.3,242.5,260.1,242.5,254.9"/>
		<path id="Tracé_3464_00000031189020718432272040000009069834261986879164_" class="st2" d="M173.2,289.3c0.1,1.9-0.2,3.7-0.7,5.6
			c-0.8,2.8-2.3,6-5.7,7.7c-1.6,0.8-2.4,2.7-1.6,4.4c0,0,0,0.1,0.1,0.1c0.7,1.6,2.6,2.4,4.3,1.6c0.1,0,0.1-0.1,0.2-0.1
			c3.9-1.9,7-5.3,8.5-9.4c1.2-3.3,1.8-6.8,1.8-10.3c-0.1-1.8-1.7-3.3-3.5-3.2C174.5,285.9,173.1,287.4,173.2,289.3"/>
		<path id="Tracé_3465_00000007408800598234339840000015706229611588320896_" class="st1" d="M105.4,161.2c0-4.7,3.8-8.5,8.5-8.6
			c0,0,0,0,0,0h31.2V193h-39.7V161.2z"/>
		<path id="Tracé_3466_00000168804104911868814240000016548623412574676400_" class="st0" d="M130.2,220.3c2,0,3.9,1.1,5,2.9
			c11.1,18,30.7,29,51.9,29.1c33.8,0,61.2-27.6,61.2-61.6s-27.4-61.6-61.2-61.6c-31,0-56.6,23.3-60.6,53.5c-0.4,2.9-2.9,5.2-5.8,5.2
			h-18c-1.1,0-2.1,0.5-2.8,1.4c-0.6,0.9-0.8,2-0.5,3.1c1.4,4.5,3.6,11.6,5.4,17.5c1.9,6.3,7.8,10.7,14.4,10.7H130.2z"/>
		<path id="Tracé_3467_00000030457748016488466450000001233451797215624846_" class="st1" d="M156.8,160c1.7,0,3.1,1.4,3.1,3.1
			c0,1.7-1.4,3.1-3.1,3.1c-1.7,0-3.1-1.4-3.1-3.1c0,0,0,0,0,0C153.7,161.4,155.1,160,156.8,160C156.8,160,156.8,160,156.8,160"/>
		<path id="Tracé_3468_00000072276434048603071800000002616184453569229737_" class="st1" d="M126.4,207.6c1.7,0,3.1,1.4,3.1,3.1
			c0,1.7-1.4,3.1-3.1,3.1c-1.7,0-3.1-1.4-3.1-3.1c0,0,0,0,0,0C123.3,209,124.7,207.6,126.4,207.6
			C126.4,207.6,126.4,207.6,126.4,207.6"/>
		<path id="Tracé_3469_00000098933132296821434040000000656801149560914078_" class="st1" d="M116.5,207.6c1.7,0,3.1,1.4,3.1,3.1
			c0,1.7-1.4,3.1-3.1,3.1c-1.7,0-3.1-1.4-3.1-3.1c0,0,0,0,0,0C113.4,209,114.8,207.6,116.5,207.6
			C116.5,207.6,116.5,207.6,116.5,207.6"/>
		<path id="Tracé_3470_00000067236752555033669350000012606545688813084084_" class="st1" d="M170.7,149.3h11.8l-13.7-13.8
			c-0.6-0.7-0.6-1.7,0-2.4c0.7-0.6,1.7-0.6,2.4,0l16.5,16.6c0.5,0.5,0.6,1.2,0.4,1.9c-0.3,0.6-0.9,1-1.5,1H174l10.3,10.4h55.8
			c0.9,0.1,1.7,0.9,1.6,1.8c-0.1,0.9-0.7,1.5-1.6,1.6h-56.5c-0.4,0-0.8-0.2-1.1-0.5l-25.3-25.5c-0.6-0.7-0.6-1.7,0-2.4
			c0.7-0.6,1.7-0.6,2.4,0L170.7,149.3z"/>
		<path id="Tracé_3471_00000047052642309560391850000000223906292643645878_" class="st1" d="M137.8,182.1h-8.6
			c-0.9-0.1-1.7-0.9-1.6-1.8c0.1-0.9,0.7-1.5,1.6-1.6h10.3c0.9,0,1.7,0.8,1.7,1.7v29.8l12.4,12.5l10.4-10.5c0.7-0.6,1.7-0.6,2.4,0
			c0.6,0.7,0.6,1.7,0,2.4l-11.6,11.6c-0.7,0.6-1.7,0.6-2.4,0L138.3,212c-0.3-0.3-0.5-0.7-0.5-1.2L137.8,182.1L137.8,182.1z"/>
		<path id="Tracé_3472_00000016066567944809063010000010838263362382319004_" class="st1" d="M116.5,197.2V190
			c0-0.9,0.8-1.7,1.7-1.7c0.9,0,1.7,0.8,1.7,1.7v8.9c0,0.9-0.8,1.7-1.7,1.7h-12.9c-0.9-0.1-1.7-0.9-1.6-1.8c0.1-0.9,0.7-1.5,1.6-1.6
			L116.5,197.2z"/>
		<path id="Tracé_3473_00000056395659911613619320000004385287653176030629_" class="st1" d="M211.1,231.1h16.8
			c0.9,0.1,1.7,0.9,1.6,1.8c-0.1,0.9-0.7,1.5-1.6,1.6h-18.4c-0.9,0-1.7-0.8-1.7-1.7v-11.4c0-0.9,0.8-1.7,1.7-1.7
			c0.9,0,1.7,0.8,1.7,1.7V231.1z"/>
		<path id="Tracé_3474_00000025430305610372264600000008933571722882947498_" class="st1" d="M195,240.1v-18.8
			c0-0.9,0.8-1.7,1.7-1.7c0.9,0,1.7,0.8,1.7,1.7l0,0v19.5c0,0.4-0.2,0.9-0.5,1.2l-8.7,8.8c-0.7,0.6-1.7,0.6-2.4,0
			c-0.6-0.7-0.6-1.7,0-2.4L195,240.1z"/>
		<path id="Tracé_3475_00000132079370661654792440000003293790012175196817_" class="st3" d="M184,233c0,0-0.5,0.3-1.3,0.8
			c-0.4,0.3-0.8,0.6-1.1,1c-0.2,0.2-0.4,0.5-0.6,0.7c-0.5,0.6-0.9,1.1-1.2,1.8c-0.5,0.5-0.5,1.3,0,1.8c0.5,0.5,1.3,0.5,1.8,0
			c0,0,0.8-0.5,1.8-1.2c0.2-0.2,0.5-0.4,0.7-0.6c0.4-0.4,0.7-0.8,1-1.2c0.3-0.4,0.6-0.9,0.8-1.3c0.5-0.5,0.5-1.3,0-1.8
			c-0.4-0.5-1.1-0.5-1.6-0.1C184.1,232.9,184.1,232.9,184,233"/>
		<path id="Tracé_3476_00000138547159075572471470000013840533891545842862_" class="st3" d="M175.4,233c0,0-0.5,0.3-1.3,0.8
			c-0.4,0.3-0.8,0.6-1.1,1c-0.2,0.2-0.4,0.5-0.6,0.7c-0.5,0.6-0.9,1.1-1.2,1.8c-0.5,0.5-0.5,1.3,0,1.8c0.5,0.5,1.3,0.5,1.8,0
			c0,0,0.8-0.5,1.8-1.2c0.2-0.2,0.5-0.4,0.7-0.6c0.4-0.4,0.7-0.8,1-1.2c0.3-0.4,0.6-0.9,0.8-1.3c0.5-0.5,0.5-1.3,0-1.8
			c-0.4-0.5-1.1-0.5-1.6-0.1C175.5,232.9,175.4,232.9,175.4,233"/>
		<path id="Tracé_3477_00000074427643528250430010000015501992048535291052_" class="st3" d="M166.6,233c0,0-0.5,0.3-1.3,0.8
			c-0.4,0.3-0.8,0.6-1.1,1c-0.2,0.2-0.4,0.5-0.6,0.7c-0.5,0.6-0.9,1.1-1.2,1.8c-0.5,0.5-0.5,1.3,0,1.8c0.5,0.5,1.3,0.5,1.8,0
			c0,0,0.8-0.5,1.8-1.2c0.2-0.2,0.5-0.4,0.7-0.6c0.4-0.4,0.7-0.8,1-1.2c0.3-0.4,0.6-0.9,0.8-1.3c0.5-0.5,0.5-1.3,0-1.8
			c-0.4-0.5-1.1-0.5-1.6-0.1C166.7,232.9,166.7,232.9,166.6,233"/>
		<path id="Tracé_3478_00000170966007665854417810000016150763541749502372_" class="st0" d="M114.4,161.2h-8.6
			c-0.9,0.1-1.7,0.9-1.6,1.8c0.1,0.9,0.7,1.5,1.6,1.6h8.6c0.9-0.1,1.7-0.9,1.6-1.8C116,161.9,115.3,161.2,114.4,161.2"/>
		<path id="Tracé_3479_00000004537188547006699040000004812606421601132727_" class="st0" d="M114.4,168.8h-8.6
			c-0.9,0-1.7,0.8-1.7,1.7c0,0.9,0.8,1.7,1.7,1.7h8.6c0.9,0,1.7-0.8,1.7-1.7C116.1,169.6,115.4,168.9,114.4,168.8"/>
		<path id="Tracé_3480_00000043426278289836678290000007848481816376889766_" class="st0" d="M114.4,176.5h-8.6
			c-0.9,0.1-1.7,0.9-1.6,1.8c0.1,0.9,0.7,1.5,1.6,1.6h8.6c0.9,0,1.7-0.8,1.7-1.7C116.1,177.2,115.4,176.5,114.4,176.5"/>
		<path id="Tracé_3481_00000083064393072204610250000008922253056265904020_" class="st2" d="M135.5,226.1l3.6-3.6c2-2,5.3-2,7.3,0
			c2,2,2,5.3,0,7.3l-10.3,10.3c-0.4,0.4-0.9,0.6-1.5,0.6h-5.5c-0.5,0-1.1,0.2-1.5,0.6c-1.4,1.4-4.7,4.9-4.7,4.9l-9.1,9.3
			c-1,1-2.6,1-3.6,0c0,0,0,0,0,0c-1-1-1-2.6,0-3.6l10.1-10.2L135.5,226.1z"/>
		<path id="Tracé_3482_00000017508789922982345320000012169882441677272979_" class="st2" d="M118,268.6l-3.6-3.6c-2-2-2-5.3,0-7.3
			c2-2,5.3-2,7.3,0l28.7,28.9c0.4,0.4,0.6,0.9,0.6,1.5v5.6c0,0.5,0.2,1.1,0.6,1.5c1.4,1.4,4.8,4.8,4.8,4.8l9.2,9.2c1,1,1,2.6,0,3.6
			c-1,1-2.6,1-3.6,0c0,0,0,0,0,0l-10.1-10.2L118,268.6z"/>
		<path id="Tracé_3483_00000128480664783153491940000000618990898881372337_" class="st0" d="M172.5,300.4
			c7.1-0.1,12.9,5.7,13,12.8c0.1,7.1-5.7,12.9-12.8,13c-7.1,0.1-12.9-5.7-13-12.8c0,0,0-0.1,0-0.1
			C159.6,306.2,165.4,300.4,172.5,300.4C172.5,300.4,172.5,300.4,172.5,300.4"/>
		<path id="Tracé_3484_00000014614467001326133890000009857158614747164566_" class="st2" d="M182.7,312.6h4.7
			c1.8,0,3.3-1.5,3.3-3.4c0-1.8-1.5-3.2-3.3-3.3h-4.7c-1.8,0-3.3,1.5-3.3,3.3c0,0,0,0,0,0c0,1.8,1.4,3.3,3.1,3.3
			C182.6,312.6,182.7,312.6,182.7,312.6"/>
		<path id="Tracé_3485_00000027603629386861335350000006274795338497515180_" class="st2" d="M182.7,323.5h4.7
			c1.8,0,3.3-1.5,3.3-3.4c0-1.8-1.5-3.2-3.3-3.3h-4.7c-1.8,0-3.3,1.5-3.3,3.3c0,0,0,0,0,0c0,1.8,1.4,3.3,3.1,3.3
			C182.6,323.5,182.7,323.5,182.7,323.5"/>
		<path id="Tracé_3486_00000060001377066981611120000017606864285926174614_" class="st2" d="M179.1,222.8c0.2,0.1,0.5,0.2,0.8,0.2
			h42.7c0.3,0,0.5-0.1,0.8-0.2l27.9-15c0.5-0.3,0.9-0.9,0.8-1.5v-29.5c0-0.6-0.2-1.1-0.6-1.5c-0.4-0.4-1-0.6-1.5-0.6h-98.1
			c-0.9,0-1.7,0.8-1.7,1.7v29.9c0,0.6,0.3,1.2,0.8,1.5L179.1,222.8z"/>
		<path id="Tracé_3487_00000021104163624473934200000005380326006036497024_" class="st0" d="M114.4,246.7c5.2,0,9.4,4.1,9.5,9.3
			c0,5.2-4.1,9.4-9.3,9.5c-5.2,0-9.4-4.1-9.5-9.3c0,0,0,0,0-0.1C105,251,109.2,246.7,114.4,246.7"/>
		<path id="Tracé_3488_00000073686080989366148310000015888336750559709347_" class="st1" d="M114.4,253c1.7,0,3.1,1.4,3.1,3.1
			c0,1.7-1.4,3.1-3.1,3.1s-3.1-1.4-3.1-3.1c0,0,0,0,0,0C111.3,254.4,112.7,253.1,114.4,253C114.4,253,114.4,253,114.4,253"/>
		<path id="Tracé_3489_00000121258027587930155820000016735759407195701636_" class="st1" d="M251.8,251.8c1.7,0,3.1,1.4,3.1,3.1
			c0,1.7-1.4,3.1-3.1,3.1c-1.7,0-3.1-1.4-3.1-3.1c0,0,0,0,0,0C248.8,253.2,250.1,251.8,251.8,251.8
			C251.8,251.8,251.8,251.8,251.8,251.8"/>
		<path id="Tracé_3491_00000035532414334050250670000017258787643888236693_" class="st1" d="M333,202c0.7,0.9,0.5,2.2-0.4,2.8
			c-0.9,0.7-2.2,0.5-2.8-0.4c-0.7-0.9-0.5-2.2,0.4-2.8C331,200.9,332.3,201.1,333,202"/>
		<path id="Tracé_3492_00000060018262419125849230000015726204216593528239_" class="st1" d="M303,195.1c0.7,0.9,0.5,2.2-0.4,2.8
			s-2.2,0.5-2.8-0.4c-0.7-0.9-0.5-2.2,0.4-2.8C301,194.1,302.3,194.2,303,195.1C303,195.1,303,195.1,303,195.1"/>
		<path id="Tracé_3493_00000121274698481758896820000007656024994285389461_" class="st1" d="M358.9,227.7l-18.7-6.7
			c-1.3-0.5-2-1.9-1.6-3.2l10.7-37l28.2,10.2l-15.3,35.3C361.7,227.6,360.2,228.2,358.9,227.7"/>
		<path id="Tracé_3494_00000026880250745202617640000014921434152447609756_" class="st0" d="M382.5,184.6L382.5,184.6
			c-0.9-0.3-1.3-1.2-1-2v0c0.6-1.8-0.3-3.8-2.1-4.4l-23.3-8.4c-1.8-0.7-3.8,0.3-4.5,2.1c-0.3,0.8-1.2,1.2-2,0.9l-0.1,0
			c-1.4-0.5-2.8,0.2-3.3,1.6c0,0,0,0,0,0l-0.9,2.4c-0.5,1.4,0.2,2.9,1.6,3.3l32.9,11.9c1.4,0.5,2.8-0.2,3.3-1.6c0,0,0,0,0,0l0.9-2.4
			C384.6,186.6,383.9,185.1,382.5,184.6"/>
		<path id="Tracé_3495_00000132786932634983014430000006532003554396780202_" class="st0" d="M234.2,188.6c-3.3,0-3.6,2.7-3.6,5.9
			s0.1,5.9,3.6,5.9s3.6-2.7,3.6-5.9S237.4,188.6,234.2,188.6"/>
		<path id="Tracé_3496_00000071534760606835908360000017698795103241560720_" class="st0" d="M169,196.3l-5.4-5.3
			c-0.6-0.6-0.6-1.7,0-2.3c0.7-0.6,1.7-0.6,2.4,0l8.2,8c0.5,0.5,0.6,1.2,0.4,1.8c-0.3,0.6-0.9,1-1.5,1h-8.3c-0.9,0-1.6-0.7-1.7-1.6
			c0-0.9,0.7-1.6,1.6-1.7c0,0,0.1,0,0.1,0L169,196.3L169,196.3z"/>
		<path id="Tracé_3497_00000117658637562007657710000006214405500435647617_" class="st0" d="M212.2,195.6
			c-1.1,2.9-5.3,4.8-10.1,4.8s-9-1.9-10.1-4.8c-0.3-0.8-1.3-1.2-2.1-0.9c0,0,0,0,0,0c-0.8,0.3-1.2,1.1-1,2c0,0,0,0.1,0,0.1
			c1.5,3.8,6.9,6.9,13.2,6.9s11.6-3,13.2-6.9c0.3-0.8-0.1-1.8-0.9-2.1c0,0,0,0,0,0C213.6,194.3,212.6,194.7,212.2,195.6"/>
		<path id="Tracé_3498_00000116196890029067629060000010587586526918848950_" class="st0" d="M200.7,356.9c0-0.5,0-1-0.1-1.5
			c-0.1-0.5-0.5-0.8-1-0.8c0,0,0,0,0,0l-3.1,0.5c-0.5,0.1-0.9-0.2-1-0.7c-0.4-1.6-1.1-3-2.1-4.2c-0.3-0.3-0.3-0.9,0.1-1.2l2.2-2.1
			c0.3-0.3,0.4-0.9,0-1.2c0,0,0,0,0,0c-1.9-1.7-4.1-2.9-6.6-3.5c-0.5-0.1-0.9,0.2-1.1,0.6c0,0,0,0,0,0l-0.6,3
			c-0.1,0.4-0.5,0.8-1,0.7c-1.6-0.2-3.2,0-4.7,0.6c-0.4,0.2-0.9,0-1.1-0.5l-1.3-2.8c-0.2-0.4-0.7-0.6-1.2-0.4c0,0,0,0,0,0
			c-2.2,1.2-4.2,2.9-5.6,4.9c-0.3,0.4-0.2,0.9,0.2,1.2c0,0,0,0,0.1,0l2.7,1.6c0.4,0.2,0.5,0.7,0.3,1.1c-0.7,1.4-1.1,3-1.1,4.6v0
			c0,0.5-0.3,0.8-0.8,0.9l-3.1,0.2c-0.5,0-0.8,0.4-0.8,0.9c0,0,0,0,0,0.1c0.3,2.5,1.3,4.9,2.8,6.9c0.3,0.4,0.8,0.5,1.2,0.2
			c0,0,0,0,0,0l2.4-2c0.4-0.3,0.9-0.3,1.2,0.1c1.1,1.1,2.5,2,4,2.6c0.4,0.1,0.7,0.6,0.6,1l-0.8,3c-0.1,0.5,0.1,0.9,0.6,1.1
			c0,0,0,0,0.1,0c2.5,0.5,5.1,0.4,7.5-0.3c0.5-0.1,0.7-0.6,0.6-1.1c0,0,0,0,0-0.1l-1.1-2.9c-0.2-0.4,0.1-0.9,0.5-1.1
			c1.5-0.7,2.8-1.6,3.8-2.9c0.3-0.4,0.8-0.4,1.2-0.2l2.5,1.8c0.4,0.3,1,0.2,1.2-0.2c0,0,0,0,0,0
			C199.9,362.5,200.7,359.7,200.7,356.9"/>
		<path id="Tracé_3499_00000033370456332254654150000011350910012756459697_" class="st2" d="M185.4,353.3c1.9,0,3.5,1.6,3.4,3.5
			c0,1.9-1.6,3.5-3.5,3.4c-1.9,0-3.4-1.6-3.4-3.5C181.9,354.8,183.5,353.3,185.4,353.3C185.4,353.3,185.4,353.3,185.4,353.3"/>
		<path id="Tracé_3500_00000126309942632848117230000001604585091835926681_" class="st1" d="M379.5,166c2.5-1,3.2-2.7,3.8-4.4
			c0.4-1.4,0.4-2.9,0-4.3c-0.1-0.9-0.4-1.7-0.5-2.6c-0.2-0.4-0.3-0.8-0.4-1.2c0-0.3-0.2-0.5-0.2-0.7c0-0.4,0-0.7,0.1-1
			c0.1-0.4,0.2-0.7,0.4-1c0.2-0.4,0.5-0.9,0.8-1.4c0.8-0.6,1-1.7,0.4-2.6c0,0-0.1-0.1-0.1-0.1c-0.7-0.8-1.9-1-2.7-0.4
			c-1.8,0.8-3.4,2-4.7,3.5c-0.4,0.5-0.6,1-0.8,1.6c-0.7,1.5-0.9,3.2-0.6,4.9c0.2,0.9,0.4,1.7,0.7,2.5c0.2,0.6,0.6,1.1,0.8,1.5
			c0.1,0.3,0.3,0.4,0.4,0.7s0.6,0.4,0.5,0.8c0,0.5-0.1,1-0.4,1.5c-0.8,0.6-1,1.7-0.4,2.6c0,0,0.1,0.1,0.1,0.1
			C377.5,166.6,378.6,166.7,379.5,166C379.4,166.1,379.5,166.1,379.5,166"/>
		<path id="Tracé_3501_00000073705480859694267770000006344281190600425371_" class="st1" d="M368.7,167.6l0.1-0.1
			c0.2-0.2,0.5-0.5,1-0.8c0.3-0.3,0.6-0.7,0.9-1.1c0.5-0.8,0.8-1.7,0.9-2.6c0.1-0.5,0-1.1-0.1-1.6c-0.2-1.1-0.7-2.2-1.4-3.1
			c-0.4-1.1-1.6-1.7-2.7-1.3c0,0-0.1,0-0.1,0c-1.1,0.4-1.7,1.5-1.3,2.6c0,0,0,0.1,0.1,0.1c0,0.4-0.1,0.8-0.1,1.2
			c0,0.5-0.1,0.9-0.3,1.4c0,0.9,0.2,1.5-0.1,1.9c-0.1,0.1-0.1,0.2-0.1,0.2c-0.8,0.8-0.9,2.1-0.1,2.9
			C366.2,168.4,367.7,168.5,368.7,167.6"/>
		<path id="Tracé_3502_00000051368383012597272670000006015098142157834156_" class="st3" d="M357,197.3c3.7,0.5,6.3,3.8,5.8,7.5
			c-0.5,3.7-3.8,6.3-7.5,5.8c-3.7-0.5-6.2-3.8-5.8-7.5C350,199.4,353.3,196.8,357,197.3C357,197.3,357,197.3,357,197.3"/>
		<path id="Tracé_3504_00000078740292164613988930000017509409264895601312_" class="st2" d="M14.1,138.5c0.1-1.5,0.2-2.6,0.2-2.6
			c0-0.5,0.4-0.8,0.8-0.8c0.5,0,0.8,0.4,0.8,0.8l0,0c0,0,0.2,1.2,0.2,2.6c0.3,0,0.5,0.1,0.8,0.1c1.1,0.1,1.8,0.2,1.8,0.2
			c0.5,0,0.8,0.4,0.8,0.8c0,0.5-0.4,0.8-0.8,0.8c0,0-0.8,0.1-1.8,0.2c-0.2,0-0.5,0.1-0.8,0.1c0,0.3-0.1,0.5-0.1,0.8
			c-0.1,1.1-0.2,1.8-0.2,1.8c0,0.5-0.4,0.8-0.8,0.8c-0.5,0-0.8-0.4-0.8-0.8c0,0-0.1-0.8-0.2-1.8c0-0.2-0.1-0.5-0.1-0.8
			c-1.4-0.1-2.6-0.2-2.6-0.2c-0.5,0-0.8-0.4-0.8-0.8c0-0.5,0.4-0.8,0.8-0.8C12.3,138.7,13.2,138.6,14.1,138.5"/>
		<path id="Tracé_3506_00000108988920984904288460000002638855134387209656_" class="st2" d="M55.6,242.3c0.2-2.1,0.3-3.7,0.3-3.7
			c0-0.6,0.5-1.2,1.2-1.2c0.6,0,1.2,0.5,1.2,1.2c0,0,0.3,1.7,0.3,3.7c0.4,0,0.8,0.1,1.1,0.1c1.5,0.1,2.6,0.3,2.6,0.3
			c0.6,0,1.2,0.5,1.2,1.2c0,0.6-0.5,1.2-1.2,1.2c0,0-1.1,0.2-2.6,0.3c-0.3,0-0.7,0.1-1.1,0.1c0,0.4-0.1,0.8-0.1,1.1
			c-0.1,1.5-0.3,2.6-0.3,2.6c0,0.6-0.5,1.2-1.2,1.2c-0.6,0-1.2-0.5-1.2-1.2c0,0,0,0,0,0c0,0-0.2-1.1-0.3-2.6c0-0.3-0.1-0.8-0.1-1.1
			c-2-0.2-3.7-0.3-3.7-0.3c-0.6,0-1.2-0.5-1.2-1.2c0-0.6,0.5-1.2,1.2-1.2C53.1,242.5,54.3,242.4,55.6,242.3"/>
		<path id="Tracé_3508_00000102529727862597267660000004041316495038039424_" class="st2" d="M15.1,430.4c0.2-2,0.3-3.5,0.3-3.5
			c0-0.6,0.5-1.1,1.1-1.1c0.6,0,1.1,0.5,1.1,1.1c0,0,0.2,1.6,0.3,3.5c0.4,0,0.7,0.1,1,0.1c1.4,0.1,2.5,0.2,2.5,0.2
			c0.6,0,1.1,0.5,1.1,1.1s-0.5,1.1-1.1,1.1c0,0-1,0.2-2.5,0.2c-0.3,0-0.6,0.1-1,0.1c0,0.4-0.1,0.7-0.1,1c-0.1,1.4-0.2,2.5-0.2,2.5
			c0,0.6-0.5,1.1-1.1,1.1c-0.6,0-1.1-0.5-1.1-1.1c0,0-0.2-1-0.2-2.5c0-0.3-0.1-0.7-0.1-1c-1.9-0.2-3.5-0.3-3.5-0.3
			c-0.6,0-1.1-0.5-1.1-1.1s0.5-1.1,1.1-1.1C12.8,430.5,14,430.4,15.1,430.4z"/>
		<path id="Tracé_3509_00000036953176517035054600000011984655303900604073_" class="st2" d="M270.7,343.1c0.1-1.3,0.2-2.2,0.2-2.2
			c0-0.4,0.3-0.7,0.7-0.7c0.4,0,0.7,0.3,0.7,0.7c0,0,0.2,1,0.2,2.2c0.3,0,0.5,0,0.7,0c0.9,0,1.6,0.2,1.6,0.2c0.4,0,0.7,0.3,0.7,0.7
			c0,0.4-0.3,0.7-0.7,0.7c0,0-0.7,0.1-1.6,0.2c-0.2,0-0.4,0-0.7,0c0,0.3-0.1,0.5-0.1,0.7c0,0.9-0.2,1.6-0.2,1.6
			c0,0.4-0.3,0.7-0.7,0.7c-0.4,0-0.7-0.3-0.7-0.7c0,0-0.1-0.7-0.2-1.6c0-0.2,0-0.5,0-0.7c-1.2-0.1-2.2-0.2-2.2-0.2
			c-0.4,0-0.7-0.3-0.7-0.7c0-0.4,0.3-0.7,0.7-0.7c0,0,0,0,0,0C269.2,343.2,269.9,343.2,270.7,343.1"/>
		<path id="Tracé_3510_00000114753202128144019270000007128593308167117214_" class="st2" d="M93.5,341.6c0.1-1.7,0.3-3,0.3-3
			c0-0.5,0.4-0.9,0.9-0.9c0.5,0,0.9,0.4,0.9,0.9c0,0,0.2,1.3,0.3,3c0.3,0,0.6,0.1,0.9,0.1c1.2,0.1,2.1,0.2,2.1,0.2
			c0.5,0,0.9,0.4,0.9,0.9c0,0.5-0.4,0.9-0.9,0.9c0,0,0,0,0,0c0,0-0.9,0.1-2.1,0.2c-0.3,0-0.5,0.1-0.9,0.1c0,0.3-0.1,0.6-0.1,0.9
			c-0.1,1.2-0.2,2.1-0.2,2.1c0,0.5-0.4,0.9-0.9,0.9c-0.5,0-0.9-0.4-0.9-0.9c0,0,0,0,0,0c0,0-0.1-0.9-0.2-2.1c0-0.3-0.1-0.6-0.1-0.9
			c-1.6-0.1-3-0.3-3-0.3c-0.5,0-0.9-0.4-0.9-0.9c0-0.5,0.4-0.9,0.9-0.9C91.6,341.7,92.6,341.6,93.5,341.6"/>
		<path id="Tracé_3511_00000075882345489539658850000001145689184895683968_" class="st2" d="M208.9,274.4c0.1-1.1,0.2-1.8,0.2-1.8
			c0-0.3,0.2-0.6,0.6-0.6s0.6,0.2,0.6,0.6c0,0,0,0,0,0c0,0,0.1,0.8,0.2,1.8c0.2,0,0.4,0,0.5,0c0.8,0,1.3,0.1,1.3,0.1
			c0.3,0,0.6,0.3,0.6,0.6c0,0.3-0.3,0.6-0.6,0.6c0,0-0.5,0.1-1.3,0.1c-0.2,0-0.3,0-0.5,0c0,0.2,0,0.4,0,0.5c0,0.8-0.1,1.3-0.1,1.3
			c0,0.3-0.3,0.6-0.6,0.6c-0.3,0-0.6-0.3-0.6-0.6c0,0-0.1-0.5-0.1-1.3c0-0.2,0-0.4,0-0.5c-1-0.1-1.8-0.2-1.8-0.2
			c-0.3,0-0.6-0.2-0.6-0.6s0.2-0.6,0.6-0.6c0,0,0,0,0,0C207.7,274.4,208.3,274.4,208.9,274.4"/>
		<path id="Tracé_3512_00000100376957386736867330000005345080606113495692_" class="st2" d="M310,264.4c0.2-2,0.3-3.5,0.3-3.5
			c0-0.6,0.5-1.1,1.1-1.1s1.1,0.5,1.1,1.1c0,0,0.2,1.6,0.3,3.5c0.4,0,0.7,0.1,1,0.1c1.4,0.1,2.5,0.2,2.5,0.2c0.6,0,1.1,0.5,1.1,1.1
			c0,0.6-0.5,1.1-1.1,1.1c0,0,0,0,0,0c0,0-1,0.2-2.5,0.2c-0.3,0-0.6,0.1-1,0.1c0,0.4-0.1,0.7-0.1,1c-0.1,1.4-0.2,2.5-0.2,2.5
			c0,0.6-0.5,1.1-1.1,1.1s-1.1-0.5-1.1-1.1c0,0-0.2-1-0.2-2.5c0-0.3-0.1-0.7-0.1-1c-1.9-0.2-3.5-0.3-3.5-0.3c-0.6,0-1.1-0.5-1.1-1.1
			c0-0.6,0.5-1.1,1.1-1.1c0,0,0,0,0,0C307.7,264.6,308.8,264.5,310,264.4"/>
		<path id="Tracé_3513_00000147222209053432566340000004684261433947389597_" class="st2" d="M290.2,140.6c0.2-2,0.3-3.5,0.3-3.5
			c0-0.6,0.5-1.1,1.1-1.1s1.1,0.5,1.1,1.1c0,0,0.2,1.6,0.3,3.5c0.4,0,0.7,0.1,1,0.1c1.4,0.1,2.5,0.2,2.5,0.2c0.6,0,1.1,0.5,1.1,1.1
			c0,0.6-0.5,1.1-1.1,1.1l0,0c0,0-1,0.2-2.5,0.2c-0.3,0-0.6,0.1-1,0.1c0,0.4-0.1,0.7-0.1,1c-0.1,1.4-0.2,2.5-0.2,2.5
			c0,0.6-0.5,1.1-1.1,1.1s-1.1-0.5-1.1-1.1c0,0-0.2-1-0.2-2.5c0-0.3-0.1-0.7-0.1-1c-1.9-0.2-3.5-0.3-3.5-0.3c-0.6,0-1.1-0.5-1.1-1.1
			c0-0.6,0.5-1.1,1.1-1.1C287.9,140.7,289.1,140.6,290.2,140.6"/>
		<path id="Tracé_3514_00000012463480894934234310000004605906446933992350_" class="st2" d="M136,100.6c0.1-1.3,0.2-2.2,0.2-2.2
			c0-0.4,0.3-0.7,0.7-0.7c0.4,0,0.7,0.3,0.7,0.7c0,0,0.2,1,0.2,2.2c0.3,0,0.5,0.1,0.7,0.1c0.9,0.1,1.6,0.2,1.6,0.2
			c0.4,0,0.7,0.3,0.7,0.7s-0.3,0.7-0.7,0.7c0,0-0.7,0.1-1.6,0.2c-0.2,0-0.4,0.1-0.7,0.1c0,0.3-0.1,0.5-0.1,0.7
			c-0.1,0.9-0.2,1.6-0.2,1.6c0,0.4-0.3,0.7-0.7,0.7c-0.4,0-0.7-0.3-0.7-0.7c0,0-0.1-0.7-0.2-1.6c0-0.2-0.1-0.5-0.1-0.7
			c-1.2-0.1-2.2-0.2-2.2-0.2c-0.4,0-0.7-0.3-0.7-0.7c0-0.4,0.3-0.7,0.7-0.7C134.5,100.7,135.2,100.6,136,100.6"/>
		<path id="Tracé_3515_00000078748385019019845510000016989803205702108306_" class="st2" d="M367,329.1c0.1-1.3,0.2-2.2,0.2-2.2
			c0-0.4,0.3-0.7,0.7-0.7c0.4,0,0.7,0.3,0.7,0.7c0,0,0.2,1,0.2,2.2c0.3,0,0.5,0,0.7,0c0.9,0,1.6,0.2,1.6,0.2c0.4,0,0.7,0.3,0.7,0.7
			c0,0.4-0.3,0.7-0.7,0.7c0,0-0.7,0.1-1.6,0.2c-0.2,0-0.4,0-0.7,0c0,0.3,0,0.5,0,0.7c0,0.9-0.2,1.6-0.2,1.6c0,0.4-0.3,0.7-0.7,0.7
			c-0.4,0-0.7-0.3-0.7-0.7c0,0-0.1-0.7-0.2-1.6c0-0.2,0-0.5,0-0.7c-1.2-0.1-2.2-0.2-2.2-0.2c-0.4,0-0.7-0.3-0.7-0.7
			c0-0.4,0.3-0.7,0.7-0.7C365.6,329.2,366.3,329.1,367,329.1"/>
		<path id="Tracé_3516_00000091726026685957765440000012570058909640522915_" class="st2" d="M367,73.1c0.1-1.3,0.2-2.2,0.2-2.2
			c0-0.4,0.3-0.7,0.7-0.7c0.4,0,0.7,0.3,0.7,0.7c0,0,0.2,1,0.2,2.2c0.3,0,0.5,0.1,0.7,0.1c0.9,0,1.6,0.2,1.6,0.2
			c0.4,0,0.7,0.3,0.7,0.7c0,0.4-0.3,0.7-0.7,0.7c0,0-0.7,0.1-1.6,0.2c-0.2,0-0.4,0.1-0.7,0.1c0,0.3,0,0.5,0,0.7
			c0,0.9-0.2,1.6-0.2,1.6c0,0.4-0.3,0.7-0.7,0.7c-0.4,0-0.7-0.3-0.7-0.7c0,0-0.1-0.7-0.2-1.6c0-0.2,0-0.5,0-0.7
			c-1.2-0.1-2.2-0.2-2.2-0.2c-0.4,0-0.7-0.3-0.7-0.7c0-0.4,0.3-0.7,0.7-0.7C365.6,73.2,366.3,73.2,367,73.1"/>
		<path id="Tracé_3517_00000170971526767982837360000017577627555100126132_" class="st2" d="M341.3,407.4c0.2-2,0.3-3.5,0.3-3.5
			c0-0.6,0.5-1.1,1.1-1.1s1.1,0.5,1.1,1.1l0,0c0,0,0.2,1.6,0.3,3.5c0.4,0,0.7,0.1,1,0.1c1.4,0.1,2.5,0.2,2.5,0.2
			c0.6,0,1.1,0.5,1.1,1.1s-0.5,1.1-1.1,1.1c0,0-1,0.2-2.5,0.2c-0.3,0-0.6,0.1-1,0.1c0,0.4-0.1,0.7-0.1,1c-0.1,1.4-0.2,2.5-0.2,2.5
			c0,0.6-0.5,1.1-1.1,1.1s-1.1-0.5-1.1-1.1c0,0-0.2-1-0.2-2.5c0-0.3-0.1-0.7-0.1-1c-1.9-0.2-3.5-0.3-3.5-0.3c-0.6,0-1.1-0.5-1.1-1.1
			s0.5-1.1,1.1-1.1C338.9,407.5,340.1,407.4,341.3,407.4"/>
		<path id="Tracé_3518_00000117636174952572788760000015480727559284874922_" class="st3" d="M67.3,107.3c-5.1-5.4-13.7-5.6-19-0.4
			c-5.4,5.1-5.6,13.7-0.4,19c5.1,5.4,13.7,5.6,19,0.5C72.3,121.3,72.5,112.8,67.3,107.3C67.4,107.4,67.3,107.3,67.3,107.3"/>
		<path id="Tracé_3519_00000176722086658391773530000018073318058837347735_" class="st4" d="M67.3,106.1c-5.1-5.4-13.7-5.6-19-0.4
			c-5.4,5.1-5.6,13.7-0.4,19c5.1,5.4,13.7,5.6,19,0.5C72.3,120.1,72.5,111.6,67.3,106.1C67.4,106.2,67.3,106.2,67.3,106.1z"/>
		<path id="Tracé_3520_00000053512513873141668450000017760609521598267028_" class="st0" d="M44.1,115.1c0.5,1.1,1.1,2.2,2,3.1
			c3.9,4,10.3,4.2,14.3,0.3c4-3.8,4.2-10.2,0.4-14.2l-0.1-0.1c-0.9-0.9-1.9-1.6-3-2.1C50.4,102,44.4,107.8,44.1,115.1L44.1,115.1z"
			/>
		<path id="Tracé_3521_00000087414094605839878160000003714178878393471406_" class="st0" d="M68.3,115.5c-0.6-0.7-1.7-0.7-2.4-0.1
			s-0.7,1.7-0.1,2.4c0.6,0.7,1.7,0.7,2.4,0.1c0,0,0,0,0,0l0,0C68.9,117.2,68.9,116.1,68.3,115.5"/>
		<path id="Tracé_3522_00000057109714764533582360000012864763206226359466_" class="st2" d="M46.2,110.1c0.2,0.4,0.5,0.8,0.8,1.2
			c1.9,2,5.1,2,7.1,0.1c1.9-1.9,2-5,0.2-7c-0.3-0.4-0.7-0.6-1.1-0.9c-1.5,0.6-2.9,1.5-4.1,2.7C47.8,107.3,46.9,108.7,46.2,110.1z"/>
		<path id="Tracé_3523_00000017510923528349787440000002484208454435600282_" class="st0" d="M65.6,125.4c-0.4,0-0.7-0.2-1-0.4
			l-8.1-8.5c-0.5-0.6-0.4-1.5,0.1-2c0.5-0.5,1.4-0.5,1.9,0l8.1,8.5c0.5,0.5,0.6,1.4,0,1.9c0,0-0.1,0.1-0.1,0.1
			C66.3,125.3,66,125.4,65.6,125.4"/>
		<path id="Tracé_3524_00000169530405189138516730000006624998524663742902_" class="st2" d="M39.8,67.7c0,0-1.3-0.4-3.1-0.7
			c-1-0.2-2.1-0.4-3.1-0.5c-0.6-0.1-1.3-0.1-1.9-0.1c-2.5-0.1-4.5-0.1-4.5-0.1c-0.7-0.1-1.3,0.4-1.4,1.1c-0.1,0.7,0.4,1.3,1.1,1.4
			c0,0,2,0.5,4.4,0.9c0.6,0.1,1.2,0.2,1.9,0.3c1.1,0.1,2.2,0.1,3.2,0.2l3.2,0.1c0.7,0.1,1.3-0.4,1.4-1.1c0,0,0-0.1,0-0.1
			C41,68.5,40.5,67.9,39.8,67.7L39.8,67.7z"/>
		<path id="Tracé_3525_00000147936058476997320510000018165456512837933469_" class="st2" d="M55.5,98.2c0,0-0.1-1.3-0.3-3.2
			c-0.1-1-0.2-2.1-0.3-3.2c-0.1-0.6-0.2-1.3-0.4-1.9c-0.5-2.4-1.1-4.3-1.1-4.3c-0.1-0.7-0.8-1.2-1.5-1.1c-0.7,0.1-1.2,0.8-1.1,1.5
			l0,0c0,0,0,0,0,0.1c0,0,0.1,2,0.3,4.5c0.1,0.6,0.1,1.2,0.2,1.9c0.2,1.1,0.4,2.2,0.7,3.1c0.5,1.8,0.8,3.1,0.8,3.1
			c0.1,0.7,0.8,1.2,1.5,1.1c0.7,0,1.2-0.6,1.2-1.3C55.5,98.4,55.5,98.3,55.5,98.2L55.5,98.2z"/>
		<path id="Tracé_3526_00000010296225219057612170000000051070018093640350_" class="st2" d="M39,114.8c-0.3-0.1-0.6-0.2-1-0.3
			c-0.3-0.1-0.7-0.1-1-0.1c-0.2,0-0.4,0.1-0.6,0.2c-0.5,0.1-1,0.3-1.4,0.5c-0.7,0.1-1.2,0.7-1.2,1.4c0.1,0.7,0.7,1.2,1.3,1.2
			c0.5,0.1,0.9,0.2,1.4,0.3l0.6,0c0.3,0,0.7-0.1,1-0.2c0.3-0.1,0.7-0.2,1-0.4c0.7-0.1,1.2-0.7,1.2-1.4v0
			C40.3,115.2,39.7,114.8,39,114.8z"/>
		<path id="Tracé_3527_00000062187792722074450870000015898683699206159531_" class="st2" d="M61.2,97.6c0,0,0.2-0.4,0.4-1
			c0.1-0.3,0.2-0.7,0.2-1c0-0.2,0-0.4-0.1-0.6c-0.1-0.5-0.2-1-0.4-1.4c0-0.7-0.6-1.3-1.3-1.4c-0.7,0-1.3,0.6-1.4,1.3v0
			c-0.2,0.5-0.3,0.9-0.4,1.4c0,0.2-0.1,0.4-0.1,0.6c0,0.3,0.1,0.7,0.1,1c0.2,0.6,0.3,1,0.3,1c0,0.7,0.5,1.3,1.3,1.4c0,0,0,0,0,0h0
			C60.6,98.9,61.2,98.4,61.2,97.6z"/>
		<path id="Tracé_3528_00000119100863253376493930000001596225118599335832_" class="st2" d="M45.4,100.8c0,0-1-1.3-2.5-3.1
			c-0.8-0.9-1.6-2-2.6-3c-0.5-0.6-1.1-1.1-1.7-1.6c-2.2-2-4-3.7-4-3.7c-0.6-0.5-1.4-0.4-1.9,0.1c-0.4,0.5-0.4,1.2,0,1.7
			c0,0,1.5,2,3.4,4.2c0.5,0.6,1,1.2,1.6,1.8c0.9,1,1.9,1.9,2.8,2.7c1.7,1.5,2.9,2.6,2.9,2.6c0.5,0.4,1.3,0.4,1.8,0
			C45.8,102.1,45.8,101.4,45.4,100.8"/>
		<path id="Tracé_3529_00000054224751615225395260000004308403912255668920_" class="st3" d="M40.1,297.3c-5.8,4.2-7.1,12.2-2.9,18
			s12.2,7.1,18,2.9s7.1-12.2,2.9-18c0,0,0,0,0,0C53.9,294.4,45.8,293.1,40.1,297.3"/>
		<path id="Tracé_3530_00000067224515787562930350000007164214432961367221_" class="st4" d="M40.1,297.3c-5.8,4.2-7.1,12.2-2.9,18
			s12.2,7.1,18,2.9s7.1-12.2,2.9-18c0,0,0,0,0,0C53.9,294.4,45.8,293.1,40.1,297.3z"/>
		<path id="Tracé_3531_00000079451045559699062480000015020645782235277482_" class="st0" d="M45.5,320.4c1.1-0.3,2.2-0.8,3.2-1.5
			c4.4-3,5.6-9,2.6-13.5c-3-4.4-9-5.6-13.5-2.6c-0.1,0.1-0.3,0.2-0.4,0.3l-0.1,0.1c-1,0.7-1.8,1.6-2.4,2.6
			C34,312.8,38.6,319.2,45.5,320.4L45.5,320.4z"/>
		<path id="Tracé_3532_00000159464439493338126170000000725806080549219979_" class="st0" d="M49,297.6c-0.7,0.5-0.9,1.5-0.4,2.3
			s1.5,0.9,2.3,0.4c0.7-0.5,0.9-1.5,0.4-2.3c0,0,0,0,0,0l0,0C50.8,297.2,49.7,297,49,297.6C49,297.6,49,297.6,49,297.6"/>
		<path id="Tracé_3533_00000005264737518193751420000005671516059087455627_" class="st1" d="M41.1,317.9c0.4-0.2,0.8-0.4,1.2-0.6
			c2.1-1.6,2.6-4.6,1-6.7c-1.6-2.1-4.5-2.6-6.6-1.1c-0.4,0.3-0.7,0.6-1,1c0.4,1.5,1.1,3,2,4.3C38.7,315.9,39.8,317,41.1,317.9
			L41.1,317.9z"/>
		<path id="Tracé_3534_00000016069548611900513890000000428831313592205756_" class="st0" d="M58.1,301.3c-0.1,0.3-0.3,0.7-0.5,0.9
			l-9.1,6.6c-0.6,0.4-1.5,0.2-1.9-0.4c-0.4-0.6-0.3-1.4,0.3-1.8L56,300c0.6-0.4,1.4-0.3,1.8,0.2c0,0,0,0,0,0c0,0,0,0.1,0.1,0.1
			C58.1,300.6,58.2,301,58.1,301.3"/>
		<path id="Tracé_3535_00000065073042967035787750000016878412518188357037_" class="st1" d="M39.3,323.8c0,0-0.5,1.2-1,2.9
			c-0.3,0.9-0.6,1.9-0.9,2.9c-0.2,0.6-0.3,1.2-0.4,1.8c-0.5,2.3-0.7,4.2-0.7,4.2c-0.2,0.7,0.2,1.3,0.9,1.5c0.7,0.2,1.3-0.2,1.5-0.9
			c0,0,0,0,0-0.1c0,0,0.7-1.8,1.4-4c0.2-0.5,0.3-1.2,0.5-1.8c0.2-1,0.4-2.1,0.6-3l0.5-3.1c0.2-0.6-0.2-1.3-0.8-1.5c0,0,0,0-0.1,0
			C40.3,322.7,39.5,323.1,39.3,323.8L39.3,323.8z"/>
		<path id="Tracé_3536_00000010288533883237305480000002980808586252707500_" class="st1" d="M31.1,307.5c0,0-1.3-0.1-3.1-0.2
			c-1-0.1-2-0.1-3-0.1c-0.6,0-1.2,0-1.9,0.1c-2.4,0.2-4.3,0.5-4.3,0.5c-0.7,0-1.3,0.6-1.3,1.3c0,0.7,0.6,1.3,1.3,1.3h0.1
			c0,0,1.9,0.1,4.3,0.3c0.6,0,1.2,0,1.8,0.1c1.1-0.1,2.1-0.1,3-0.2c1.8-0.2,3-0.4,3-0.4c0.7,0,1.3-0.6,1.3-1.3
			c0.1-0.7-0.4-1.2-1.1-1.3c0,0,0,0,0,0C31.2,307.5,31.1,307.5,31.1,307.5L31.1,307.5z"/>
		<path id="Tracé_3537_00000125582475212784517960000017391956398113885865_" class="st1" d="M44.6,325.3c-0.2,0.3-0.3,0.6-0.4,0.9
			c-0.1,0.3-0.2,0.6-0.2,0.9c0,0.2,0,0.4,0.1,0.6c0.1,0.5,0.1,0.9,0.3,1.4c-0.1,0.7,0.5,1.3,1.1,1.3c0.7,0.1,1.3-0.5,1.3-1.1
			c0,0,0,0,0,0c0.2-0.4,0.3-0.9,0.4-1.3l0.1-0.5c0-0.3,0-0.7-0.1-1c0-0.3-0.1-0.7-0.2-1c0-0.7-0.5-1.3-1.1-1.3c0,0,0,0,0,0h0
			C45.2,324.1,44.7,324.6,44.6,325.3L44.6,325.3z"/>
		<path id="Tracé_3538_00000170239299171817666020000002800880331791354809_" class="st1" d="M31.2,301.9c0,0-0.4-0.2-0.9-0.5
			c-0.3-0.1-0.6-0.2-0.9-0.3c-0.2,0-0.4-0.1-0.6,0c-0.5,0-0.9,0.1-1.4,0.2c-0.7-0.1-1.3,0.4-1.4,1.1c-0.1,0.6,0.4,1.2,1,1.4h0
			c0.4,0.2,0.8,0.4,1.3,0.6c0.2,0,0.4,0.1,0.5,0.2c0.3,0,0.6,0,1,0c0.6-0.1,1-0.2,1-0.2c0.7,0.1,1.3-0.3,1.4-1c0,0,0,0,0,0l0,0
			C32.4,302.7,31.9,302.1,31.2,301.9z"/>
		<path id="Tracé_3539_00000011020382887425390980000008529720491379794823_" class="st1" d="M32.2,317.4c0,0-1.4,0.8-3.2,2
			c-1,0.6-2.1,1.3-3.1,2.1c-0.6,0.4-1.2,0.9-1.8,1.4c-2.2,1.8-4,3.4-4,3.4c-0.5,0.5-0.6,1.3-0.1,1.8c0.4,0.5,1.1,0.6,1.6,0.3
			c0,0,2.1-1.2,4.5-2.7c0.6-0.4,1.3-0.8,1.9-1.3c1-0.7,2.1-1.6,3-2.3c1.6-1.4,2.9-2.5,2.9-2.5c0.5-0.4,0.6-1.2,0.2-1.7
			C33.5,317.2,32.7,317.1,32.2,317.4z"/>
		<path id="Tracé_3540_00000159457573668559249700000014191410357132292769_" class="st2" d="M329.2,4.6c0.2-2,0.3-3.5,0.3-3.5
			c0-0.6,0.5-1.1,1.1-1.1s1.1,0.5,1.1,1.1c0,0,0.2,1.6,0.3,3.5c0.4,0,0.7,0.1,1,0.1c1.4,0.1,2.5,0.2,2.5,0.2c0.6,0,1.1,0.5,1.1,1.1
			s-0.5,1.1-1.1,1.1c0,0-1,0.2-2.5,0.2c-0.3,0-0.6,0.1-1,0.1c0,0.4-0.1,0.7-0.1,1c-0.1,1.4-0.2,2.5-0.2,2.5c0,0.6-0.5,1.1-1.1,1.1
			s-1.1-0.5-1.1-1.1c0,0-0.2-1-0.2-2.5c0-0.3-0.1-0.7-0.1-1c-1.9-0.2-3.5-0.3-3.5-0.3c-0.6,0-1.1-0.5-1.1-1.1s0.5-1.1,1.1-1.1
			C326.8,4.8,328,4.7,329.2,4.6"/>
		<path id="Tracé_3542_00000112620360114176228500000010994250131135237534_" class="st2" d="M147.5,2.9c0.1-1.3,0.2-2.2,0.2-2.2
			c0-0.4,0.3-0.7,0.7-0.7c0.4,0,0.7,0.3,0.7,0.7c0,0,0.2,1,0.2,2.2c0.3,0,0.5,0,0.7,0c0.9,0,1.6,0.2,1.6,0.2c0.4,0,0.7,0.3,0.7,0.7
			c0,0.4-0.3,0.7-0.7,0.7c0,0-0.7,0.1-1.6,0.2c-0.2,0-0.4,0.1-0.7,0.1c0,0.3-0.1,0.5-0.1,0.7c-0.1,0.9-0.2,1.6-0.2,1.6
			c0,0.4-0.3,0.7-0.7,0.7c-0.4,0-0.7-0.3-0.7-0.7c0,0-0.1-0.7-0.2-1.6c0-0.2-0.1-0.5-0.1-0.7c-1.2-0.1-2.2-0.2-2.2-0.2
			c-0.4,0-0.7-0.3-0.7-0.7s0.3-0.7,0.7-0.7C146,3,146.7,3,147.5,2.9"/>
		<path id="Tracé_3543_00000111909246348562121900000010482953983485391755_" class="st2" d="M231.4,58.2c0.1-1.7,0.3-3,0.3-3
			c0-0.5,0.4-0.9,0.9-0.9c0.5,0,0.9,0.4,0.9,0.9c0,0,0.2,1.3,0.3,3c0.3,0,0.6,0.1,0.9,0.1c1.2,0.1,2.1,0.2,2.1,0.2
			c0.5,0,0.9,0.4,0.9,0.9c0,0.5-0.4,0.9-0.9,0.9c0,0,0,0,0,0c0,0-0.9,0.1-2.1,0.2c-0.3,0-0.5,0.1-0.9,0.1c0,0.3-0.1,0.6-0.1,0.9
			c-0.1,1.2-0.2,2.1-0.2,2.1c0,0.5-0.4,0.9-0.9,0.9c-0.5,0-0.9-0.4-0.9-0.9c0,0-0.1-0.9-0.2-2.1c0-0.3-0.1-0.6-0.1-0.9
			c-1.6-0.1-3-0.3-3-0.3c-0.5,0-0.9-0.4-0.9-0.9c0-0.5,0.4-0.9,0.9-0.9C229.4,58.3,230.4,58.2,231.4,58.2"/>
		<path class="st2" d="M99.8,184.5c0,0-13.8-0.2-32.3-0.4c-9.9-0.1-21.1-0.2-32.3-0.2c-6.6,0-13.1,0.1-19.5,0.1
			c-5.5,0-10.8,0.1-15.7,0.1v4.2c4.9,0.1,10.2,0.1,15.7,0.2c6.3,0.1,12.9,0.1,19.5,0.1c11.2,0,22.5-0.1,32.3-0.2
			c18.6-0.1,32.3-0.4,32.3-0.4v0c0,0,0.1,0,0.1,0c1,0,1.7-0.8,1.7-1.8C101.6,185.3,100.8,184.5,99.8,184.5z"/>
		<path class="st2" d="M33.6,173c0,0-5.6-0.2-13.1-0.4c-4-0.1-8.6-0.2-13.1-0.2c-2.5,0-4.9,0.1-7.3,0.1v4.5c2.4,0.1,4.8,0.1,7.3,0.1
			c4.5,0,9.1-0.1,13.1-0.2c7.6-0.1,13.1-0.4,13.1-0.4v0c0,0,0.1,0,0.1,0c1,0,1.7-0.8,1.7-1.8C35.4,173.8,34.6,173,33.6,173z"/>
	</g>
	<g id="TEXTES_GB">
	</g>
</g>
</svg>
