<?xml version="1.0" encoding="UTF-8"?>
<svg id="Calque_2" data-name="Calque 2" xmlns="http://www.w3.org/2000/svg" width="21.1666663mm" height="21.1666663mm" viewBox="0 0 60 60">
  <g id="Calque_1-2" data-name="Calque 1">
    <path d="m46.6470471,0H13.3817617c-3.5221234,0-6.7152036,1.3748169-9.1010872,3.6029053l-.0032959-.0032959-.0706183.0706177c-.0918587.0870972-.1912857.1661377-.2806419.2557983h-.0002441v.0002441c-.0841682.0844727-.1583265.1784058-.2402363.2650757l-.1152963.1152954.0056763.0056763C1.3809927,6.6917114.0288088,9.8603516.0288088,13.3528442v16.1622925h-.0288088v1h.0288088v16.1027222c0,3.6798706,1.4892089,7.0113525,3.8970654,9.4265747v.0300293h.0300906c2.4151808,2.4073486,5.7463236,3.8963013,9.4257969,3.8963013h4.8884065v.0292358h1.0000081v-.0292358h10.2149269v.0292358h1.0000081v-.0292358h10.2159034v.0292358h1.0000081v-.0292358h4.9460241c3.492338,0,6.6610039-1.3521729,9.0403568-3.5469971l.0059205.0059204.1206675-.1206665c.0845954-.0800171.176393-.1523438.2588522-.2345581h.0018921v-.001709c.0881965-.0879517.1659559-.185791.25165-.276123l.0739752-.0739746-.003418-.003418c2.2283507-2.3859253,3.6030567-5.5792236,3.6030567-9.1013794V13.3528442c0-7.3745728-5.9783201-13.3528442-13.3529529-13.3528442ZM3.9258742,54.5577393c-1.8719024-2.2218628-2.8970573-5.0006714-2.8970573-7.9398804v-4.8971558h2.8970573v12.8370361Zm0-13.8370361H1.028817v-10.2055664h2.8970573v10.2055664Zm0-11.2055664H1.028817v-10.2363281h2.8970573v10.2363281Zm0-11.2363281H1.028817v-4.9259644c0-2.939209,1.0251548-5.7179565,2.8970573-7.9398193v12.8657837ZM30.4851114,1h10.2159034v2.9260254h-10.2159034V1Zm-11.214935,52.7277222c1.1873266.538208,2.4214675.9894409,3.6957698,1.3467407h-3.6957698v-1.3467407Zm0-20.3429565c.4986002,1.5820312,1.3449206,3.005249,2.4381302,4.199707l-2.4381302,2.4381104v-6.6378174Zm18.3110621-10.2588501c1.5501225,1.7078247,2.5286461,3.9346924,2.6443086,6.3892212h-9.0336429l6.3893342-6.3892212Zm.003479-1.4174805c-1.1884252-1.0877075-2.603781-1.9300537-4.1763646-2.4296265h6.6060108l-2.4296462,2.4296265Zm-.710516.7104492l-6.3890901,6.3889771v-9.0332642c2.4544877.1157227,4.6811904,1.0942993,6.3890901,2.6442871Zm-.015442,15.1762695c-1.7058244,1.5419312-3.9265456,2.5148926-6.3736481,2.630249v-9.0039673l6.3736481,6.3737183Zm-7.3736562-19.3163452h-8.9950683c2.5493372-2.074646,5.6805272-3.2332764,8.9950683-3.3381958v3.3381958Zm-2.8933341,1c-1.5792975.501709-3.0002075,1.3490601-4.1916845,2.4435425l-2.4435013-2.4435425h6.6351858Zm2.8933341.4973145v9.03125l-6.3745026-6.3745728c1.7028337-1.5517578,3.9244704-2.5340576,6.3745026-2.6566772Zm-.7063046,9.7390137h-9.0042237c.1153574-2.4472046,1.0883267-4.6679688,2.6303315-6.3739014l6.3738922,6.3739014Zm-6.3599761,7.3588867c-1.5435917-1.7008057-2.5204063-3.9163208-2.6427217-6.3588867h9.0017212l-6.3589995,6.3588867Zm-.003479,1.4174805c1.188059,1.0874023,2.6030485,1.9296265,4.1750828,2.4291992h-6.6043018l2.429219-2.4291992Zm.710516-.7104492l6.3592436-6.3591309v9.0019531c-2.4427079-.1222534-4.6583021-1.0990601-6.3592436-2.6428223Zm7.3592518,4.1396484h8.8924674c-2.5287071,2.0325317-5.6196136,3.1723633-8.8924674,3.2821655v-3.2821655Zm2.9245843-1c1.5651983-.4973755,2.9746336-1.3345947,4.1595797-2.4151001l2.4150587,2.4151001h-6.5746385Zm-2.2168149-10.2055664h9.0311404c-.1226817,2.4500122-1.1050505,4.6715088-2.6567599,6.3743896l-6.3743805-6.3743896Zm7.0988737-8.0996704l2.4092603-2.4092407v6.5299683c-.50153-1.5500488-1.3346056-2.9466553-2.4092603-4.1207275Zm2.4092603-16.1983643c-1.1371553-.512085-2.3171575-.9443359-3.5340253-1.2910767h3.5340253v1.2910767Zm-10.2159034-1.2815552c3.2170672.0587158,6.3389188.711731,9.2842552,1.9575195.3188503.1348267.6198171.3006592.9316482.447876v10.7127686c-2.7255471-2.4554443-6.2888695-3.9859619-10.2159034-4.1107178V4.9355469Zm0,10.0065308c3.3037378.1108398,6.4241245,1.2681885,8.9659543,3.336731h-8.9659543v-3.336731ZM19.2701764,1h10.2149269v2.9260254h-10.2149269V1Zm0,3.9260254h3.5919482c-1.2374979.3526001-2.4369095.7937012-3.5919482,1.3172607v-1.3172607Zm0,2.442749c.3307522-.1571655.6509452-.3324585.989571-.475708,2.927331-1.2381592,6.0291628-1.8903809,9.2253558-1.9560547v9.0045166c-3.9239821.1176147-7.4864501,1.6391602-10.2149269,4.0848389V7.3687744Zm2.4242751,15.0620117c-1.0863736,1.1913452-1.9278111,2.6091309-2.4242751,4.1844482v-6.6087646l2.4242751,2.4243164ZM4.9258824,5.6621704l6.2867943,6.2868042c-1.790725,1.8662109-3.3055079,3.9968872-4.4808714,6.329834h-1.8059229V5.6621704Zm2.4673663,35.0585327c-.1556409-.3276978-.3294094-.6448975-.4713173-.9804077-1.2381693-2.9273071-1.8903962-6.0290527-1.9560706-9.2251587h8.9764524c.1314708,3.9244385,1.6666395,7.484314,4.1256439,10.2055664H7.3932486Zm10.1787938,1l-5.6155853,5.6154785c-1.6235484-1.6884155-2.9952636-3.5652466-4.0824307-5.6154785h9.6980159Zm-3.6340628-12.2055664H4.9643959c.0587773-3.2171021.7117367-6.3389893,1.9575355-9.2843628.1378185-.3258057.3069483-.6335449.4576453-.9519653h10.6387585c-2.448018,2.7341309-3.9693316,6.3043823-4.0803555,10.2363281Zm-6.0776251-11.2363281c1.0831997-2.0490112,2.4500932-3.9251709,4.0685146-5.6136475l5.6136321,5.6136475H7.8603545Zm-2.9344721,1h1.3292955c-.5304609,1.1752319-.975838,2.3961792-1.3292955,3.6564331v-3.6564331Zm0,17.757019c.3563261,1.2703857.8060368,2.5009155,1.342174,3.6848755h-1.342174v-3.6848755Zm0,4.6848755h1.8205104c1.179575,2.3341064,2.6988135,4.4654541,4.4945434,6.3309937l-6.3150538,6.3149414v-12.6459351Zm13.3442858,17.250061h-4.8884065c-2.9388667,0-5.7173317-1.0248413-7.9390905-2.8963013h12.827497v2.8963013Zm0-3.8963013H5.6321259l6.3158473-6.3157349c1.8631743,1.7935181,3.9915486,3.3110962,6.322195,4.4901123v1.8256226Zm0-2.9530029c-2.0468306-1.0864868-3.9205641-2.4569092-5.606674-4.0782471l5.606674-5.6065674v9.6848145Zm0-12.6773682c-2.0583053-2.532959-3.2124285-5.6393433-3.3288235-8.9289551h3.3288235v8.9289551Zm0-9.9289551h-3.3329739c.0989388-3.321228,1.2568462-6.4592285,3.3329739-9.0142212v9.0142212Zm0-11.9227295l-5.6370088-5.6370239c1.6936783-1.6338501,3.5781541-3.0130005,5.6370088-4.105835v9.7428589Zm0-10.8702393c-2.3429756,1.1851807-4.4816039,2.7125244-6.3518583,4.5183716l-6.3145045-6.3145142h12.6663628v1.7961426Zm0-2.7961426H5.4098951c2.227252-1.8895874,5.0181683-2.9260254,7.9718666-2.9260254h4.8884065v2.9260254Zm11.214935,55.0447388h-10.2149269v-2.8963013h10.2149269v2.8963013Zm0-3.9367676c-3.196193-.0656738-6.2980249-.7178955-9.2253558-1.9560547-.3386258-.1432495-.6588188-.3185425-.989571-.475708v-10.6836548c2.7284768,2.4456787,6.2909448,3.9672241,10.2149269,4.0848389v9.0305786Zm0-10.0296631c-3.2836571-.1039429-6.3853059-1.2450562-8.9215814-3.2836304h8.9215814v3.2836304Zm11.2159116,13.9664307h-10.2159034v-2.8963013h10.2159034v2.8963013Zm0-3.8963013h-3.637847c1.2536113-.3515015,2.4683428-.7938843,3.637847-1.3205566v1.3205566Zm0-2.444397c-.3118312.1472168-.612798.3130493-.9316482.447876-2.9453365,1.2457886-6.067188,1.8988037-9.2842552,1.9575195v-9.0335083c3.9270339-.1247559,7.4903564-1.6553345,10.2159034-4.1107788v10.7388916Zm-2.4232985-15.0300903c1.0814907-1.1772461,1.9195713-2.5793457,2.4232985-4.1361694v6.5595093l-2.4232985-2.4233398ZM41.701023,1h4.9460241c2.9536984,0,5.7446757,1.036438,7.9719277,2.9260254h-12.9179518V1Zm0,3.9260254h12.6663628l-6.286306,6.2861938c-1.8787384-1.8084106-4.0267051-3.3366699-6.3800568-4.5197144v-1.7664795Zm.1721205,35.7946777c2.4590044-2.7212524,3.9941121-6.2811279,4.1255829-10.2055664h9.0645269c-.0656744,3.196106-.7179014,6.2978516-1.9560706,9.2251587-.1419079.3355103-.3156764.65271-.4713173.9804077h-10.7627219Zm10.281944,1c-1.0936368,2.0623779-2.4740802,3.9501343-4.110385,5.6462402l-5.6462862-5.6462402h9.7566712Zm-6.1520276-12.2055664c-.1110239-3.9319458-1.6322765-7.5021973-4.0802944-10.2363281h10.7267719c.150697.3184204.3198268.6261597.4576453.9519653,1.2457987,2.9453735,1.8987581,6.0672607,1.9575355,9.2843628h-9.0616582Zm-3.5746141-11.2363281l5.6441499-5.644043c1.6309337,1.696106,3.0066163,3.5830078,4.0961637,5.644043h-9.7403136Zm-.7274229-10.4570923c2.0688645,1.0913086,3.9629229,2.4698486,5.6645358,4.1060181l-5.6645358,5.6644287V7.8217163Zm0,12.7198486c2.0561691,2.5477905,3.2043718,5.6694336,3.3028223,8.9735718h-3.3028223v-8.9735718Zm0,9.9735718h3.2986719c-.1157846,3.272522-1.2602642,6.3625488-3.2986719,8.8883057v-8.8883057Zm0,11.9222412l5.6338349,5.6338501c-1.6939835,1.6235352-3.5771165,2.9931641-5.6338349,4.078064v-9.7119141Zm0,10.8411255c2.3409004-1.1768188,4.47843-2.6953125,6.3500273-4.4910889l6.2870385,6.2870483h-12.6370657v-1.7959595Zm4.9460241,5.6922607h-4.9460241v-2.8963013h12.8851757c-2.2217588,1.87146-5.0002848,2.8963013-7.9391515,2.8963013Zm8.4276809-4.5737305l-6.3152369-6.3152466c1.8083033-1.8726807,3.3373685-4.0145264,4.5232302-6.361084h1.7920068v12.6763306Zm0-13.6763306h-1.3136704c.5220379-1.15271.9619219-2.3496704,1.3136704-3.5845337v3.5845337Zm0-17.8858032c-.3488798-1.2247314-.7844302-2.4121094-1.3007918-3.5560913h1.3007918v3.5560913Zm0-4.5560913h-1.7774192c-1.1815892-2.3452759-2.7060767-4.4863281-4.509192-6.3595581l6.2866112-6.286499v12.6460571Zm3.9252639,28.3390503c0,2.9533081-1.0361412,5.7438965-2.9252557,7.9710083v-12.8681641h2.9252557v4.8971558Zm0-5.8971558h-2.9252557v-10.2055664h2.9252557v10.2055664Zm0-11.2055664h-2.9252557v-10.2363281h2.9252557v10.2363281Zm0-11.2363281h-2.9252557V5.381897c1.8891145,2.2271118,2.9252557,5.0176392,2.9252557,7.9709473v4.9259644Z" style="fill: #273060;"/>
  </g>
</svg>