<?xml version="1.0" encoding="utf-8"?>
<!-- Generator: Adobe Illustrator 26.2.1, SVG Export Plug-In . SVG Version: 6.00 Build 0)  -->
<svg version="1.1" xmlns="http://www.w3.org/2000/svg" xmlns:xlink="http://www.w3.org/1999/xlink" x="0px" y="0px"
	 viewBox="0 0 286.385376 246.3682556" style="enable-background:new 0 0 286.385376 246.3682556;" xml:space="preserve">
<style type="text/css">
	.st0{fill:url(#FOND_00000034061558188740213830000017317959855784442295_);}
	.st1{fill:url(#FOND_00000163036489465321601940000016008607528090080954_);}
	.st2{fill:#FFF5F7;}
	.st3{fill:url(#FOND_00000067202623760543343380000005153167030248308608_);}
	.st4{fill:url(#FOND_00000137851125357971667830000004239465954379661980_);}
	.st5{fill:url(#FOND_00000009585226840582037760000010335648675756390814_);}
	.st6{fill:url(#FOND_00000052086544994643871360000016528392187797639339_);}
	.st7{fill:url(#FOND_00000177471718437325260800000013643813815173673620_);}
	.st8{fill:url(#FOND_00000067929308053716008700000017946446801688041636_);}
	.st9{fill:url(#FOND_00000155120676204706438290000002928665736195806894_);}
	.st10{fill:url(#FOND_00000093152535135377847140000007926020366129437355_);}
	.st11{fill:url(#FOND_00000165194917935924462760000003732393234186922897_);}
	.st12{fill:#272F60;}
	.st13{fill:#FD657C;}
	.st14{fill:url(#FOND_00000142865574181509426430000004717305032399777676_);}
	.st15{fill:#F4AAB9;}
	.st16{clip-path:url(#Rectangle_10_00000059300061362111567190000014285486606087669910_);}
	.st17{fill:#FB657C;}
	.st18{fill:#FFFFFF;}
	.st19{fill:#FFBCC6;}
	.st20{clip-path:url(#SVGID_00000132800274962749075150000008712368604217175696_);}
	.st21{enable-background:new    ;}
	.st22{fill:#FB657C;stroke:#FD657C;stroke-width:3.8352001;stroke-linecap:round;stroke-linejoin:round;stroke-miterlimit:1.4382;}
	.st23{fill:#FFBCC6;stroke:#FFBCC6;stroke-width:3.8352001;stroke-linecap:round;stroke-linejoin:round;stroke-miterlimit:1.4382;}
	.st24{clip-path:url(#SVGID_00000129889896515111168190000003786765085917784193_);fill:#FB657C;}
	.st25{clip-path:url(#SVGID_00000094609826223030257760000018072438751771689092_);fill:#FFBCC6;}
	.st26{clip-path:url(#SVGID_00000165212116712455962800000002926227395148434878_);fill:#FFBCC6;}
	.st27{clip-path:url(#SVGID_00000096032720356184021860000013544999468190087590_);fill:#FFBCC6;}
	.st28{clip-path:url(#SVGID_00000039854970588591719990000007085768427868547514_);fill:#FFBCC6;}
	.st29{clip-path:url(#SVGID_00000005988008045410977770000016921441822144613562_);fill:#FFBCC6;}
	.st30{clip-path:url(#SVGID_00000137845443992708722750000004156345775738935477_);fill:#FFBCC6;}
	.st31{clip-path:url(#SVGID_00000115507878261301019290000009477138875864648334_);fill:#FFBCC6;}
	.st32{clip-path:url(#SVGID_00000170278930794415576400000014578207596705245842_);fill:#272F60;}
	.st33{clip-path:url(#SVGID_00000170278930794415576400000014578207596705245842_);fill:#FB657C;}
	.st34{clip-path:url(#SVGID_00000170278930794415576400000014578207596705245842_);fill:#FFBCC6;}
	.st35{clip-path:url(#SVGID_00000170278930794415576400000014578207596705245842_);fill:#FFFFFF;}
	.st36{fill:none;}
	.st37{clip-path:url(#SVGID_00000017490003860422187890000016093153093371553972_);fill:#FFFFFF;}
	.st38{clip-path:url(#SVGID_00000089568322696861413040000008077644054425266306_);fill:#FFFFFF;}
	.st39{clip-path:url(#SVGID_00000131365042064269328310000010518084348108680111_);fill:#FFFFFF;}
	.st40{clip-path:url(#SVGID_00000116221993431713240000000017914478629305178800_);fill:#FFFFFF;}
	.st41{clip-path:url(#SVGID_00000153671097293885389630000007062488402436708495_);fill:#FFFFFF;}
	.st42{clip-path:url(#SVGID_00000078750524739262428460000010530596765873676199_);fill:#FFFFFF;}
	.st43{clip-path:url(#SVGID_00000031916770982504357460000014653693096595737218_);fill:#FFFFFF;}
	.st44{clip-path:url(#SVGID_00000067229643693061814720000006396931593022604699_);fill:#FFFFFF;}
	.st45{clip-path:url(#SVGID_00000078736413810195450130000009913861460867860654_);fill:#FFFFFF;}
	.st46{clip-path:url(#SVGID_00000012442985598122802100000002269517045285223591_);fill:#FFFFFF;}
	.st47{clip-path:url(#SVGID_00000088104367424505795640000006777968052352611984_);fill:#FFFFFF;}
	.st48{clip-path:url(#SVGID_00000171702032642382610920000002979558510714248127_);fill:#FFFFFF;}
	.st49{clip-path:url(#SVGID_00000018224374537973192380000011147133826855934122_);fill:#FB657C;}
	.st50{clip-path:url(#SVGID_00000028305535870631996630000013899885293509718180_);fill:#FFFFFF;}
	.st51{clip-path:url(#SVGID_00000140728234059505535510000014307700945355574167_);fill:#FFFFFF;}
	.st52{fill:#FF647B;}
	.st53{fill:#FF657C;}
	.st54{clip-path:url(#SVGID_00000010996726215827472750000002870402781762885528_);}
	.st55{clip-path:url(#SVGID_00000059295786337823306920000009072596669446840468_);}
	.st56{clip-path:url(#SVGID_00000022533378260693318730000015048091126887061132_);}
	.st57{clip-path:url(#SVGID_00000155832625357586573730000002926187656245415830_);}
	.st58{fill:none;stroke:#272E5F;stroke-width:3;}
	.st59{clip-path:url(#SVGID_00000030480063246061016900000014115207888364063390_);}
	.st60{fill:#E94B67;}
	.st61{fill:#FFF5F7;stroke:#272E5F;stroke-width:2;}
	.st62{fill:none;stroke:#272E5F;stroke-width:2;stroke-linecap:round;stroke-linejoin:round;stroke-miterlimit:10;}
	.st63{fill:none;stroke:#272E5F;stroke-width:2;}
	.st64{fill:none;stroke:#272E5F;stroke-width:3;stroke-linecap:round;stroke-linejoin:round;stroke-miterlimit:10;}
	.st65{fill:none;stroke:#142664;stroke-width:2;stroke-linecap:round;stroke-linejoin:round;stroke-miterlimit:10;}
	.st66{clip-path:url(#SVGID_00000030479125203170820020000000426041391457446568_);}
	.st67{clip-path:url(#SVGID_00000119115551184361822690000006115166162932974465_);}
	.st68{clip-path:url(#SVGID_00000158722271579862206670000010636260594802790808_);fill:#FD657C;}
	.st69{clip-path:url(#SVGID_00000080900443879845995080000004353457289506646691_);fill:#FD657C;}
	.st70{clip-path:url(#SVGID_00000024716570933372742040000007351928551673349762_);}
	.st71{clip-path:url(#SVGID_00000097498520479975758890000017565393733918887304_);}
	.st72{clip-path:url(#SVGID_00000153669519445532411260000002292425457934113440_);}
	.st73{fill:none;stroke:#142664;stroke-width:3;stroke-linecap:round;stroke-linejoin:round;}
	.st74{clip-path:url(#SVGID_00000129905238057915990230000002397695156356839868_);}
	.st75{clip-path:url(#SVGID_00000147901395336264824560000017724749318555887782_);}
	.st76{clip-path:url(#SVGID_00000101817619553152149360000006194924619579632040_);}
	.st77{clip-path:url(#SVGID_00000178906154968052640680000009305600557031190947_);}
	.st78{clip-path:url(#SVGID_00000085953970144584180300000014950782232675406754_);}
	.st79{clip-path:url(#SVGID_00000072244144413888804640000017806365656406702257_);}
	.st80{clip-path:url(#SVGID_00000030483465301948644040000004443689784002481562_);}
	.st81{clip-path:url(#SVGID_00000070796916518074270590000010874461931152046000_);}
	.st82{clip-path:url(#SVGID_00000121279142360949842760000010924850857950963599_);}
	.st83{clip-path:url(#SVGID_00000095333294609214530700000009753830570486611370_);}
	.st84{clip-path:url(#SVGID_00000051375832014607560340000003832997492386235286_);}
	.st85{clip-path:url(#SVGID_00000171687947621976488500000010072773489556348088_);}
	.st86{clip-path:url(#SVGID_00000147213649194228229670000003282055595161133456_);}
	.st87{clip-path:url(#SVGID_00000021841612978566927140000002111240574408252801_);}
	.st88{clip-path:url(#SVGID_00000163792694300872517340000011575417024321360043_);}
	.st89{clip-path:url(#SVGID_00000088846785726036007420000016114233673731733910_);}
	.st90{clip-path:url(#SVGID_00000171709052066570015760000015338109662417573787_);}
	.st91{clip-path:url(#SVGID_00000064335466754597508450000007021588816946591145_);}
	.st92{clip-path:url(#SVGID_00000052806211471942904560000007998905780218237626_);}
	.st93{clip-path:url(#SVGID_00000121252718899027791430000003640364822231251370_);}
	.st94{clip-path:url(#SVGID_00000165934596489836174290000005827827013051246489_);}
	.st95{clip-path:url(#SVGID_00000054953381439011017000000005204830551507240093_);}
	.st96{clip-path:url(#SVGID_00000121986763567510931370000005660384822908890545_);}
	.st97{clip-path:url(#SVGID_00000155147306433498417760000017424997787414391467_);}
	.st98{clip-path:url(#SVGID_00000023970939780202724290000001233948904172457885_);}
	.st99{clip-path:url(#SVGID_00000085210613688063923060000014046070499810578828_);}
	.st100{clip-path:url(#SVGID_00000061466575665439670570000004403115252619783588_);}
	.st101{clip-path:url(#SVGID_00000179637336227861895030000009070899134629865089_);}
	.st102{clip-path:url(#SVGID_00000034779144809151583410000000753550966838172298_);}
	.st103{clip-path:url(#SVGID_00000034082358558966317780000003609653628327460499_);}
	.st104{clip-path:url(#SVGID_00000003798007866549919490000006704122922231265468_);}
	.st105{clip-path:url(#SVGID_00000096765335635546032490000004174922985969149584_);}
	.st106{clip-path:url(#SVGID_00000105421477194589021360000004950055915081958065_);}
	.st107{clip-path:url(#SVGID_00000071521952547026502440000016976664288153655968_);}
	.st108{clip-path:url(#SVGID_00000067206370619490446580000007198201566246026115_);}
	.st109{clip-path:url(#SVGID_00000113321753126952651360000006083208186413948069_);}
	.st110{clip-path:url(#SVGID_00000070109531047713146050000000181238327164613801_);}
	.st111{clip-path:url(#SVGID_00000072266768434934716830000003913151482629329826_);}
	.st112{clip-path:url(#SVGID_00000180339001715813699310000014251935149650579372_);}
	.st113{clip-path:url(#SVGID_00000096051406752664658580000004507094884491682460_);}
	.st114{clip-path:url(#SVGID_00000080922792648738386310000014777851117096631686_);}
	.st115{clip-path:url(#SVGID_00000054249601399894434380000000936784077929364630_);}
	.st116{clip-path:url(#SVGID_00000045593058081899427700000001771715214702870963_);}
	.st117{fill:#FFFFFF;stroke:#142664;stroke-width:3;stroke-linecap:round;stroke-linejoin:round;}
	.st118{clip-path:url(#SVGID_00000072238795517194928800000006847416002882992788_);}
	.st119{fill-rule:evenodd;clip-rule:evenodd;fill:#FFBCC6;}
	.st120{fill-rule:evenodd;clip-rule:evenodd;fill:#272F60;}
	.st121{fill-rule:evenodd;clip-rule:evenodd;fill:#FFFFFF;}
	.st122{fill-rule:evenodd;clip-rule:evenodd;fill:#FB657C;}
	.st123{clip-path:url(#SVGID_00000076566908273268389190000005725283036899826351_);}
	.st124{clip-path:url(#SVGID_00000016069181805466344230000005799501918996524962_);}
	.st125{clip-path:url(#SVGID_00000175298345851355602730000014614337248193026468_);}
	.st126{clip-path:url(#SVGID_00000109712586559684620130000003588388002704825486_);}
	.st127{clip-path:url(#SVGID_00000116210390248199498140000016740528353739509662_);}
	.st128{clip-path:url(#SVGID_00000039095960729236153790000002203731836819716789_);}
	.st129{clip-path:url(#SVGID_00000152256914116444955540000013309392203637562775_);}
	.st130{clip-path:url(#SVGID_00000177456788720295329920000012773459744243287214_);}
	.st131{clip-path:url(#SVGID_00000139253706433840179610000001123049237065161890_);}
	.st132{clip-path:url(#SVGID_00000176023147774402052150000007152456901643682185_);}
	.st133{clip-path:url(#SVGID_00000090260869924725164540000002751035024276426670_);}
	.st134{clip-path:url(#SVGID_00000147914370704615419530000016180977011052920466_);}
	.st135{clip-path:url(#SVGID_00000167392106135227009330000013438611951737711246_);}
	.st136{clip-path:url(#SVGID_00000164491599349771996680000015915866688590295691_);}
	.st137{clip-path:url(#SVGID_00000011009446239831439020000005656594847624149891_);}
	.st138{clip-path:url(#SVGID_00000133492493004562887330000007905876592672816808_);}
	.st139{clip-path:url(#SVGID_00000042003454016023329490000003092658876118020746_);}
	.st140{clip-path:url(#SVGID_00000123424675430236925290000012741989885849409695_);}
	.st141{clip-path:url(#SVGID_00000116950485815654566540000011816335802719438724_);}
	.st142{clip-path:url(#SVGID_00000110433442531832016820000008773562569784595384_);}
	.st143{clip-path:url(#SVGID_00000015351519076703742950000006225242892457208709_);}
	.st144{clip-path:url(#SVGID_00000027568341038382299650000011658432838933288323_);}
	.st145{clip-path:url(#SVGID_00000159458745439336279900000017276716539531630221_);}
	.st146{clip-path:url(#SVGID_00000128450242275961970590000015221111676296085688_);}
	.st147{clip-path:url(#SVGID_00000129205006821961523090000016390271170206352553_);}
	.st148{clip-path:url(#SVGID_00000052814163013953706060000005411477417364756137_);}
	.st149{clip-path:url(#SVGID_00000013909271766880117230000012946957133974741376_);}
	.st150{clip-path:url(#SVGID_00000072275502699301160530000009981296751476933304_);}
	.st151{clip-path:url(#SVGID_00000046327147784883374920000002014032589460577178_);}
	.st152{clip-path:url(#SVGID_00000093165199781831994570000007557038706107407270_);}
	.st153{clip-path:url(#SVGID_00000137826443693136088820000005892553960672928177_);}
	.st154{clip-path:url(#SVGID_00000182495087237905046830000002609631679335603118_);}
	.st155{clip-path:url(#SVGID_00000015340276655009559630000010554092638158270356_);}
	.st156{clip-path:url(#SVGID_00000071534076641818391850000007873277807965549229_);}
	.st157{clip-path:url(#SVGID_00000145776459282824584940000018367775273214705316_);}
	.st158{clip-path:url(#SVGID_00000031194322302818745820000012851061369007335070_);}
	.st159{clip-path:url(#SVGID_00000070801860782070737230000015915874684590302863_);}
	.st160{clip-path:url(#SVGID_00000130634299624585453640000009540076214675898537_);}
	.st161{clip-path:url(#SVGID_00000090278840631656503720000015781547149163618717_);}
	.st162{clip-path:url(#SVGID_00000137835876172585205880000012391167719954972315_);}
	.st163{clip-path:url(#SVGID_00000154421784569924988240000012434315661359620280_);}
	.st164{clip-path:url(#SVGID_00000016067000259049920430000009381757298685295257_);}
	.st165{clip-path:url(#SVGID_00000086655269822770303880000006215394778211783837_);}
	.st166{clip-path:url(#SVGID_00000133515139627112452730000013491309857531528099_);}
	.st167{clip-path:url(#SVGID_00000060724775198154993890000005629470176962267790_);}
	.st168{clip-path:url(#SVGID_00000102541244892977722640000006452185549757702814_);}
	.st169{clip-path:url(#SVGID_00000148638515654710395790000002433698120127289772_);}
	.st170{clip-path:url(#SVGID_00000119087191846572535910000000345548929943293858_);}
	.st171{clip-path:url(#SVGID_00000051348007561076252140000016226057285086189202_);}
	.st172{clip-path:url(#SVGID_00000083778025853610336820000001692435977640040115_);}
	.st173{clip-path:url(#SVGID_00000085249378834747827820000005009809844777389964_);}
	.st174{clip-path:url(#SVGID_00000085947538646517549020000005091690313123418265_);}
	.st175{clip-path:url(#SVGID_00000018195990973347595270000014512740817626140837_);}
	.st176{clip-path:url(#SVGID_00000085969443111547119930000004192656847234843021_);}
	.st177{clip-path:url(#SVGID_00000034791251984126457950000011934289569333949346_);}
	.st178{clip-path:url(#SVGID_00000114056681904269094490000014167858991911290025_);}
	.st179{clip-path:url(#SVGID_00000180334592795348342660000005480494864959328429_);}
	.st180{clip-path:url(#SVGID_00000074413614595471434880000012362316243715560632_);}
	.st181{clip-path:url(#SVGID_00000128455557220638593990000016222680087224199825_);}
	.st182{clip-path:url(#SVGID_00000137110180884841302620000000371403206550996616_);}
	.st183{clip-path:url(#SVGID_00000101080310398317787570000012268211729623777671_);}
	.st184{clip-path:url(#SVGID_00000089535616670480176760000002846665872814191530_);}
	.st185{clip-path:url(#SVGID_00000019640560671026257820000013891737569148820147_);}
	.st186{clip-path:url(#SVGID_00000031184247248214804240000015945624164338006676_);}
	.st187{clip-path:url(#SVGID_00000032621579671689533530000007832675117192549763_);}
	.st188{clip-path:url(#SVGID_00000085932914636945305350000007226865973736620721_);}
	.st189{clip-path:url(#SVGID_00000017517743439070185510000017402672173995771834_);}
	.st190{clip-path:url(#SVGID_00000155844197505021612300000008382675930190732955_);}
	.st191{clip-path:url(#SVGID_00000091001371245225713550000012315647259206368901_);}
	.st192{clip-path:url(#SVGID_00000172424820055685994870000017223183023866602149_);}
	.st193{clip-path:url(#SVGID_00000067210733499142099170000014943603710809088699_);}
	.st194{clip-path:url(#SVGID_00000107572810900778076730000013057494859235146164_);}
	.st195{clip-path:url(#SVGID_00000138553742070042488130000006902394625671485088_);}
	.st196{clip-path:url(#SVGID_00000160163421735320421510000008749358748532247440_);}
	.st197{clip-path:url(#SVGID_00000070831375937112137840000017122702102729996948_);}
	.st198{clip-path:url(#SVGID_00000013913205185179138310000010925904577526387378_);}
	.st199{clip-path:url(#SVGID_00000047027761009942568650000004363614781922609080_);}
	.st200{clip-path:url(#SVGID_00000142160513631040672390000004893765129627307697_);}
	.st201{clip-path:url(#SVGID_00000003107318611941528750000012883007035776079274_);}
	.st202{clip-path:url(#SVGID_00000139263040585243797530000004252414016417049245_);}
	.st203{clip-path:url(#SVGID_00000106862914078847737310000010786208040552474807_);}
	.st204{clip-path:url(#SVGID_00000034050037916058016510000005788265129559047319_);}
	.st205{clip-path:url(#SVGID_00000016056137493434806020000002913919862557998749_);}
	.st206{clip-path:url(#SVGID_00000100383626400819171270000016018699488408469389_);}
	.st207{clip-path:url(#SVGID_00000061457462037899842400000011529255169468131210_);}
	.st208{clip-path:url(#SVGID_00000124150862240280281150000017279370028875212208_);}
	.st209{clip-path:url(#SVGID_00000070798793178806667330000013933249262876915124_);}
	.st210{clip-path:url(#SVGID_00000036969502869993429180000001274905694656800137_);}
	.st211{clip-path:url(#SVGID_00000053517369648242193990000014661924549321416354_);}
	.st212{clip-path:url(#SVGID_00000122711092134870371170000007373112860908376236_);}
	.st213{clip-path:url(#SVGID_00000167361779667361097910000013529653657263095720_);}
	.st214{clip-path:url(#SVGID_00000142886623275170435600000011593150101552137407_);}
	.st215{clip-path:url(#SVGID_00000057833509666262301960000011199134593778463138_);}
	.st216{clip-path:url(#SVGID_00000122707936458004843830000003077449690807836858_);}
	.st217{clip-path:url(#SVGID_00000181773396924425182300000017577891010891335041_);}
	.st218{clip-path:url(#SVGID_00000016077241162593225520000006474078076070184073_);}
	.st219{clip-path:url(#SVGID_00000099659719211271201120000015879222655004257681_);}
	.st220{clip-path:url(#SVGID_00000114040208540815357740000017759966060673292163_);}
	.st221{clip-path:url(#SVGID_00000181781446651605183110000011382352098174368439_);}
	.st222{clip-path:url(#SVGID_00000136391533156230664760000004986882087314873218_);}
	.st223{clip-path:url(#SVGID_00000054957028798623317360000010731748914634919553_);}
	.st224{clip-path:url(#SVGID_00000116205986036925468140000014382348340677271951_);}
	.st225{clip-path:url(#SVGID_00000025400848275102109400000003356162011661515697_);}
	.st226{clip-path:url(#SVGID_00000031905652022584199470000012307573111636364470_);}
	.st227{clip-path:url(#SVGID_00000111874499364338864800000017072718284733958843_);}
	.st228{clip-path:url(#SVGID_00000083800030194905629900000011770004230905840295_);}
	.st229{clip-path:url(#SVGID_00000031917862850688407950000002348763645540125319_);}
	.st230{clip-path:url(#SVGID_00000034786274407293567430000000525519770334457250_);}
	.st231{clip-path:url(#SVGID_00000021087698233650825050000015666235126903284159_);}
	.st232{clip-path:url(#SVGID_00000016791678270402603630000010737448673426633916_);}
	.st233{clip-path:url(#SVGID_00000167390043982996895210000003672985023527008642_);}
	.st234{clip-path:url(#SVGID_00000025406846298251913520000004823339267403260817_);}
	.st235{clip-path:url(#SVGID_00000039819561259391213410000013421937369166584252_);}
	.st236{clip-path:url(#SVGID_00000059289486060248655300000014915172907461628554_);}
	.st237{clip-path:url(#SVGID_00000121268074037032837190000015065129568010333329_);}
	.st238{clip-path:url(#SVGID_00000173876030184036520320000011991387221365768593_);}
	.st239{clip-path:url(#SVGID_00000085210280056638023810000015739799644165834686_);}
	.st240{clip-path:url(#SVGID_00000014619477762875915180000015891913696955436430_);}
	.st241{clip-path:url(#SVGID_00000030473054101486041630000003644002332777106865_);}
	.st242{clip-path:url(#SVGID_00000019673836181308240910000013204363370560172457_);}
	.st243{clip-path:url(#SVGID_00000049190424919948693810000000904273335817342902_);}
	.st244{clip-path:url(#SVGID_00000181082355430554612240000006854611735944670651_);}
	.st245{clip-path:url(#SVGID_00000126303999139904380470000008280205410553757851_);}
	.st246{clip-path:url(#SVGID_00000101821849983517950320000005060995918424699054_);}
	.st247{clip-path:url(#SVGID_00000018206594281775785810000009263441885012615061_);}
	.st248{clip-path:url(#SVGID_00000036945923813307150330000016508450392394770087_);}
	.st249{clip-path:url(#SVGID_00000097483741505253942010000016250742160989842861_);}
	.st250{clip-path:url(#SVGID_00000152970773917939679060000004834794038101157002_);}
	.st251{clip-path:url(#SVGID_00000058583648155789015670000000040912665742884752_);}
	.st252{clip-path:url(#SVGID_00000156553252018470019790000015833999957374888886_);}
	.st253{fill:#E94966;}
	.st254{fill:#13224F;}
	.st255{fill:url(#);}
	.st256{clip-path:url(#SVGID_00000129892955586943996380000016380184707444834699_);}
	.st257{fill:#FFCE00;}
	.st258{fill-rule:evenodd;clip-rule:evenodd;fill:#FD657C;}
	.st259{clip-path:url(#SVGID_00000109008048700244601970000005907690465590882701_);}
	.st260{fill:url(#SVGID_00000013187552905522033420000002623253551501191588_);}
	.st261{fill:#FFFFFF;stroke:#FFFFFF;stroke-width:10;}
	.st262{fill:none;stroke:#272F60;stroke-width:3;stroke-linecap:round;stroke-linejoin:round;}
	.st263{clip-path:url(#SVGID_00000153676621276058338190000004402259130481565883_);}
	.st264{fill:none;stroke:#FFFFFF;stroke-width:5;}
	.st265{fill:#3580F8;}
	.st266{clip-path:url(#SVGID_00000122000339507805439620000016747246864602606218_);}
	.st267{fill:#FDF2F5;}
	.st268{clip-path:url(#SVGID_00000028290344865371636580000002891122712610177717_);}
	.st269{fill:#44C400;}
	.st270{clip-path:url(#SVGID_00000035516241195309207840000016082172217813537947_);}
	.st271{clip-path:url(#SVGID_00000123406147613096879460000006213000860908630195_);}
	.st272{clip-path:url(#SVGID_00000038412572810492848040000010722510131513925031_);}
	.st273{fill:#F1AAB9;}
	.st274{fill:#E34C6A;}
	.st275{clip-path:url(#SVGID_00000052105763423788484160000015905972312477683090_);}
	.st276{clip-path:url(#SVGID_00000006683206732095958560000007037828989840501888_);}
	.st277{clip-path:url(#SVGID_00000178915321508371914840000017507511053352527271_);}
	.st278{clip-path:url(#SVGID_00000044888975131941218310000007499859993718503085_);}
	.st279{clip-path:url(#SVGID_00000031905519485576389870000001407686450758037436_);}
	.st280{clip-path:url(#SVGID_00000071533714614897343220000006734889023673334660_);}
	.st281{clip-path:url(#SVGID_00000014618451295121020190000001226429296133603250_);}
	.st282{clip-path:url(#SVGID_00000106834940374744113450000003862834613535899267_);}
	.st283{display:none;}
	.st284{display:inline;}
	.st285{display:inline;enable-background:new    ;}
	.st286{clip-path:url(#SVGID_00000044881580079853524000000017668953233231221136_);}
	.st287{clip-path:url(#SVGID_00000107579775827359241090000015378514304388276121_);}
	.st288{clip-path:url(#SVGID_00000096061477262072166010000004996004918186577330_);}
	.st289{clip-path:url(#SVGID_00000021080430073190057890000000766582803219071656_);}
	.st290{fill:none;stroke:#FFFFFF;stroke-miterlimit:10;}
	.st291{clip-path:url(#SVGID_00000182528717608039570950000008488189994467279527_);}
	.st292{clip-path:url(#SVGID_00000145764319914458940090000008253770075388133546_);}
	.st293{clip-path:url(#SVGID_00000136405592605597306390000010559252553094218905_);}
	.st294{clip-path:url(#SVGID_00000133505588666155392210000012168962475780511416_);}
	.st295{clip-path:url(#SVGID_00000008121466912212280040000007758291523032331434_);}
	.st296{clip-path:url(#SVGID_00000110452766112220076470000010437666474317958811_);}
	.st297{clip-path:url(#SVGID_00000079470702803243651920000003902562613582589118_);}
	.st298{clip-path:url(#SVGID_00000066508492892591473150000007398064260697944999_);}
	.st299{clip-path:url(#SVGID_00000009553716776886272180000006186138228648582335_);}
	.st300{clip-path:url(#SVGID_00000073702034817007282580000003525533873265584788_);}
	.st301{clip-path:url(#SVGID_00000101806714102957519990000011510005552735438491_);}
	.st302{clip-path:url(#SVGID_00000168815195296005604150000005140632628463428243_);}
	.st303{clip-path:url(#SVGID_00000087406996959473646000000011265910136768420741_);}
	.st304{clip-path:url(#SVGID_00000003082814562244048560000001084211107823875751_);}
	.st305{clip-path:url(#SVGID_00000150087132047224562640000017945892543241416122_);}
	.st306{clip-path:url(#SVGID_00000091736726490402590320000004958574615013866936_);}
	.st307{fill:none;stroke:#142664;stroke-width:4.0018654;stroke-linecap:round;stroke-linejoin:round;stroke-miterlimit:4.0018654;}
	.st308{clip-path:url(#SVGID_00000017503410979648464600000000079112515466904968_);}
	.st309{clip-path:url(#SVGID_00000115508056136953025980000017609865520740500901_);}
	.st310{clip-path:url(#SVGID_00000091016451618718227780000014662423384026914972_);}
	.st311{clip-path:url(#SVGID_00000003080429812905709930000017118592795840690574_);}
	.st312{clip-path:url(#SVGID_00000144317951295418039410000014523745272745289398_);}
	.st313{clip-path:url(#SVGID_00000154404909730381757190000015969162097891503782_);}
	.st314{clip-path:url(#SVGID_00000004530853559042707660000007856379701572769976_);}
	.st315{clip-path:url(#SVGID_00000092455697186185330510000016121626647681828017_);}
	.st316{clip-path:url(#SVGID_00000133527731926524228380000012592443639336731569_);}
	.st317{clip-path:url(#SVGID_00000145043266014866444090000013305083292420770198_);}
	.st318{clip-path:url(#SVGID_00000173161956527880027840000010603417039499191481_);}
	.st319{clip-path:url(#SVGID_00000178922917520910908820000008431660574224913826_);}
	.st320{clip-path:url(#SVGID_00000104681541973777670180000003645157831325169043_);}
	.st321{clip-path:url(#SVGID_00000021839319794767110640000012657135634451989148_);}
	.st322{clip-path:url(#SVGID_00000178163089525785784620000011760245461564673196_);}
	.st323{clip-path:url(#SVGID_00000124852888252650675330000018067481318274230168_);}
	.st324{clip-path:url(#SVGID_00000084490208196867285330000016651597740569439898_);fill:#FD657C;}
	.st325{clip-path:url(#SVGID_00000084490208196867285330000016651597740569439898_);fill:#272F60;}
</style>
<g id="FONDS">
</g>
<g id="ILLUSTRATIONS">
</g>
<g id="TEXTES_FR" class="st283">
</g>
<g id="TEXTES_GB">
</g>
<g id="Calque_5">
	<g id="Groupe_1935" transform="matrix(0.993, -0.122, 0.122, 0.993, 0, 35.019)">
		<g>
			<g id="Groupe_1934">
				<path id="Rectangle_1048" class="st18" d="M69.1716003,33.7515869h1.7329941
					c5.6106644,0,10.1590042,4.5483398,10.1590042,10.1590004v24.614994c0,5.6106644-4.5483398,10.1590042-10.1590042,10.1590042
					h-1.7329941c-5.6106644,0-10.1590042-4.5483398-10.1590042-10.1590042v-24.614994
					C59.0125961,38.2999268,63.560936,33.7515869,69.1716003,33.7515869z"/>
				<path id="Tracé_6326" class="st12" d="M9.1505995,52.6805878c0-1.8777695-1.5222325-3.4000015-3.400001-3.4000015
					s-3.3999994,1.5222321-3.3999994,3.4000015v7.1419983c0,1.8777695,1.5222321,3.4000015,3.3999994,3.4000015
					s3.400001-1.5222321,3.400001-3.4000015V52.6805878z"/>
				<path id="Tracé_6327" class="st12" d="M76.9025955,52.6805878c0-1.8777695-1.5222321-3.4000015-3.4000015-3.4000015
					s-3.4000015,1.5222321-3.4000015,3.4000015v7.1419983c0,1.8777695,1.5222321,3.4000015,3.4000015,3.4000015
					s3.4000015-1.5222321,3.4000015-3.4000015V52.6805878z"/>
				<path id="Tracé_6328" class="st17" d="M258.8555908,35.2765884L242.0056,52.1955872
					c-1.1843567,1.1515274-3.0779724,1.1249084-4.2294922-0.0594482c-1.1289062-1.1610832-1.1286926-3.0097351,0.0004883-4.1705513
					l16.9179993-16.9189987l0.1380005-0.1380005c6.6659698-5.9818001,7.2205963-16.2348442,1.2387848-22.9008179
					c-5.9817657-6.6659732-16.2348175-7.2206063-22.9008026-1.2388072
					c-3.4287415,3.0768361-5.3870544,7.4667544-5.3859863,12.0736256c0,1.6466408-1.3348694,2.9815063-2.9815063,2.9815063
					s-2.9815063-1.3348656-2.9815063-2.9815063c0.0825195-12.2930298,10.1148682-22.1916103,22.4078979-22.1091003
					c12.1764984,0.0817287,22.027359,9.9325953,22.1090851,22.1091003
					C266.1703796,25.1073742,263.4705811,31.0365906,258.8555908,35.2765884z"/>
				<path id="Tracé_6329" class="st12" d="M271.4746094,35.2765884l-16.9190216,16.9189987
					c-1.1680908,1.168087-3.0619202,1.168087-4.230011,0.0000076c-1.1680908-1.1680832-1.1680908-3.0619202,0-4.2300072
					l16.9190216-16.9189987l0.1390076-0.1380005c6.668457-5.9790363,7.2273254-16.2318516,1.248291-22.9003029
					s-16.2318573-7.2273335-22.9003143-1.2482977c-3.4329224,3.078022-5.3933411,7.4718237-5.3909912,12.0826006
					c0.0031433,1.6469097-1.3293762,2.9845467-2.9762878,2.9876938s-2.9845581-1.3293858-2.9877014-2.9762955
					c0-0.0037994,0-0.0075989,0-0.0113983c-0.0825195-12.2930298,9.8160706-22.325386,22.1091156-22.4078979
					c12.2930298-0.0825107,22.3253784,9.8160706,22.4078979,22.1091003c0.0006714,0.0995979,0.0006714,0.1991997,0,0.2987976
					C278.8117065,25.1135235,276.1238098,31.0675201,271.4746094,35.2765884z"/>
				<path id="Tracé_6330" class="st12" d="M213.575592,99.6255875H164.275589l7.4889984-7.4889984
					c1.4746094-1.4648056,3.4685059-2.2872467,5.5469971-2.288002h23.2270203
					c2.0792389-0.0005646,4.0743256,0.8211975,5.5499878,2.2859955L213.575592,99.6255875z"/>
				<path id="Tracé_6331" class="st12" d="M20.5975971,77.8535919c0,0-7.6999998,0.0690002-8.1819983,0
					C0.9650794,77.0189896-7.64082,67.0599289-6.8062153,55.6094055
					c0.7499638-10.2892799,8.9325333-18.4718475,19.2218132-19.2218132v-0.0690002h8.1819983V77.8535919z"/>
				<path id="Tracé_6332" class="st12" d="M20.5965977,36.3165894c11.4875202,0,20.7999973,9.3124771,20.7999973,20.7999916
					c0,11.4875298-9.3124733,20.8000069-20.7999973,20.8000069S-0.2034011,68.6041107-0.2034012,57.116581h0.0000005
					c-0.0000001-11.4875183,9.3124771-20.7999954,20.7999992-20.7999954l0,0"/>
				<path id="Tracé_6333" class="st19" d="M41.6075974,73.6185837H22.1225986
					c-9.1143551-0.6735382-15.9569912-8.6081848-15.2834568-17.722538
					c0.6042995-8.1774521,7.1060061-14.6791611,15.2834568-15.2834587v-0.0699997h19.4849987V73.6185837z"/>
				<path id="Tracé_6334" class="st12" d="M135.9125977,99.6265869H90.91259
					c-2.8136597,0.0060349-5.511879-1.1180801-7.4889984-3.1200027L71.563591,84.6465912
					c-1.9839325-1.9904556-4.6766891-3.1122284-7.4869995-3.1190033H31.4145966
					c-2.8137474,0.006485-5.5121384-1.1176987-7.4889984-3.1200027c-1.9910278-1.9844437-3.1131592-4.6779175-3.1199989-7.4889984
					v-10.887001c-0.006443-2.813446,1.1177521-5.5115089,3.1199989-7.487999l17.1279984-17.1279984
					c1.9840775-1.9909706,4.6772194-3.1131134,7.487999-3.1199989h37.4449997v-3.5370026
					c0.0005493-2.5656853,2.0803146-4.6454468,4.6459961-4.6459999h28.6380005v8.1829987h16.7110062v67.3310013H135.9125977z
					 M116.2195969,43.2465897l-9.2919998,9.2999992c-1.9909744,1.9840775-3.1131134,4.6772194-3.1200027,7.4880028v17.125
					c-0.006485,2.8137436,1.1176987,5.5121384,3.1200027,7.4889984l4.7160034,4.7149963L116.2195969,43.2465897z"/>
				<path id="Tracé_6335" class="st17" d="M178.2115936,32.3645897h-35.572998
					c2.2256012-7.9613285,9.4854431-13.4626408,17.7519989-13.4519997h17.7510071v13.4519997H178.2115936z"/>
				<path id="Tracé_6336" class="st12" d="M145.3446045,26.7475872h18.7899933c0.842514,0,1.5254974,0.682991,1.5254974,1.5255013
					c0,0.8425064-0.6829834,1.5254974-1.5254974,1.5254974h-20.5249939
					c0.4526215-1.0833168,1.0348663-2.1077843,1.7339935-3.0509987"/>
				<path id="Tracé_6337" class="st12" d="M151.999588,20.9235878h17.473999c0.842514,0,1.5254974,0.6829891,1.5254974,1.5255013
					c0,0.8425102-0.6829834,1.5254993-1.5254974,1.5254993h-21.6999969
					c1.2383728-1.2359562,2.6663971-2.2659588,4.2299957-3.0510006"/>
				<path id="Tracé_6338" class="st12" d="M200.2615967,32.3645897h24.5470123V16.9755878h-6.2409973
					c-1.8383179,0.0134735-3.6010132,0.7335205-4.9230042,2.0109997
					c-4.2299957,4.1609993-13.3829956,13.3829994-13.3829956,13.3829994"/>
				<path id="Tracé_6339" class="st17" d="M127.9375992,18.2875881c-0.0146637-1.6789074-1.3720856-3.0363331-3.0509949-3.0510006
					H97.0755997c-1.6789093,0.0146618-3.0363388,1.3720894-3.0510025,3.0510006v5.8939991h33.9769897v-5.8939991H127.9375992z"/>
				<path id="Tracé_6340" class="st12" d="M103.8076019,17.8025894c0.0030823-0.1646194-0.0750885-0.3202038-0.2089996-0.4160004
					c-0.1049957-0.1218338-0.2545166-0.1964111-0.4150009-0.2070007h-5.340004
					c-0.5151443,0.0051842-1.0096512,0.2032013-1.3860016,0.5550003c-0.3628616,0.3692169-0.5627441,0.8683777-0.5550003,1.3859997
					v3.1900005c-0.0045471,0.1647129,0.0735016,0.3208065,0.2080002,0.4160004
					c0.1380005,0.0699997,0.2770004,0.2080002,0.4160004,0.2080002h6.6569977
					c0.1643982,0.0043831,0.3201141-0.0736656,0.4149933-0.2080002c0.122818-0.1048851,0.1981659-0.2548561,0.2089996-0.4160004
					L103.8076019,17.8025894z"/>
				<path id="Tracé_6341" class="st19" d="M36.8236008,69.2545929v10.4700012c0,0.8425064-0.682991,1.5254974-1.5255013,1.5254974
					c-0.8425064,0-1.5254974-0.682991-1.5254974-1.5254974v-11.927002c0.0070572-0.8394547,0.6855469-1.5183945,1.5250015-1.526001
					H60.884594c0.8394547,0.0076065,1.5179443,0.6865463,1.5250015,1.526001v11.9269943
					c0,0.842514-0.682991,1.5255051-1.5255051,1.5255051c-0.8425064,0-1.5254974-0.682991-1.5254974-1.5255051V69.2545929
					H36.8236008z"/>
				<path id="Tracé_6342" class="st19" d="M46.0445976,76.8125916h4.159996c0.842514,0,1.5254974-0.682991,1.5254974-1.5255051
					c0-0.8425064-0.6829834-1.5254974-1.5254974-1.5254974h-4.1599998c-0.8425102,0-1.5255013,0.682991-1.5255013,1.5254974
					c0,0.842514,0.682991,1.5255051,1.5255013,1.5255051"/>
				<path id="Tracé_6343" class="st17" d="M71.9795914,59.9625893c1.5701447,0,2.8430023,1.2728577,2.8429947,2.8430023
					c0,1.5701485-1.2728577,2.8430061-2.8430023,2.8429985c-1.570137,0-2.8429947-1.27285-2.8429947-2.8429985
					c0-1.5701447,1.27285-2.8430023,2.8429947-2.8430023H71.9795914"/>
				<path id="Tracé_6344" class="st17" d="M82.2415924,59.9625893c1.5701447,0,2.8430023,1.2728577,2.8429947,2.8430023
					c0,1.5701485-1.2728577,2.8430061-2.8430023,2.8429985c-1.570137,0-2.8429947-1.27285-2.8429947-2.8429985
					c0-1.5701447,1.27285-2.8430023,2.8429947-2.8430023C82.2415924,59.9625893,82.2415924,59.9625893,82.2415924,59.9625893"/>
				<path id="Tracé_6345" class="st17" d="M92.5735931,59.9625893c1.5701447,0,2.8430023,1.2728577,2.8429947,2.8430023
					c0,1.5701485-1.2728577,2.8430061-2.8430023,2.8429985c-1.570137,0-2.8429947-1.27285-2.8429947-2.8429985
					c0-1.5701447,1.27285-2.8430023,2.8429947-2.8430023C92.5735931,59.9625893,92.5735931,59.9625893,92.5735931,59.9625893"/>
				<path id="Tracé_6346" class="st19" d="M96.3906021,31.7395859v-3.6049995
					c0.1198273-1.0931206,0.4495239-2.1528358,0.9710007-3.1209984c0.4211197-0.7276344,1.3523636-0.9761162,2.0800018-0.5550003
					s0.97612,1.3523674,0.5550003,2.0800018c-0.3026047,0.5572281-0.491272,1.169117-0.5550003,1.7999992v4.0209999
					c0.0110474,0.3895607-0.1395187,0.7663383-0.4160004,1.0410004l-2.5660019,2.5660019h10.8869934
					c0.6049957-0.0193939,1.1582184,0.3395844,1.3869934,0.9000015c0.199707,0.5765572,0.0664062,1.2162209-0.3470001,1.6650009
					l-8.4589996,8.4589996c-0.2816238,0.2651405-0.6532135,0.4137802-1.0400009,0.4160004H82.1075897
					c-0.8425064,0-1.5254974-0.682991-1.5254974-1.5254974c0-0.8425102,0.682991-1.5255013,1.5254974-1.5255013l0,0H98.263588
					l5.4779968-5.4780006H92.781601c-0.6050034,0.0193977-1.158226-0.3395844-1.387001-0.9000015
					c-0.2350082-0.5738029-0.0976562-1.2328453,0.3470001-1.6650009L96.3906021,31.7395859z"/>
				<path id="Tracé_6347" class="st19" d="M40.7066002,56.5655861l10.6779938-10.678997
					c0.5992889-0.5878487,1.5616531-0.5785789,2.1495056,0.02071c0.5796585,0.5909424,0.5798798,1.537075,0.0004959,2.1282883
					L42.3705978,59.2005882c-0.281765,0.2655487-0.6538277,0.4142303-1.0410004,0.4160004H28.363596l-6.5879974,5.9639931
					c-0.623764,0.5626373-1.5855331,0.5130844-2.1481686-0.1106873c-0.5474529-0.606926-0.5173492-1.5380135,0.0681686-2.1083107
					l7.0000019-6.3789978c0.2744217-0.2762222,0.6507835-0.4267654,1.0400009-0.4160004L40.7066002,56.5655861z"/>
				<path id="Tracé_6348" class="st19" d="M210.5935974,32.3645897c1.3228912-0.0083542,2.5907745-0.530426,3.5359955-1.4560013
					c0.9414978-0.934639,1.4664001-2.2094002,1.4559937-3.5359993v-6.4490013
					c0.0253754-2.1721954,1.7798004-3.9270763,3.9519958-3.9529991h27.1820068
					c2.1725769,0.0253792,3.9276123,1.7804165,3.9530029,3.9529991v7.9000015
					c-0.0032349,2.2636623,0.8965759,4.4351196,2.5,6.0330009L271.4795837,53.16259
					c1.5922241,1.6053505,2.4900513,3.7719727,2.5,6.0329971v18.7959976c0.0032349,2.2636642-0.8965759,4.4351196-2.5,6.0329971
					L258.4395752,97.060585c-1.6052856,1.5923233-3.7719269,2.4901581-6.0329742,2.5h-42.7840118
					c-2.2636719,0.0032501-4.4351196-0.8965759-6.0330048-2.5l-4.7839966-4.7850037
					c-1.6049805-1.5921707-3.7712708-2.4900055-6.0319977-2.5h-7.628006c-2.2633209-0.0029831-4.4343567,0.8968201-6.0319977,2.5
					l-4.7850037,4.7850037c-1.6053467,1.5922394-3.7719727,2.4900589-6.0330048,2.5h-42.7839813
					c-2.2636719,0.0032501-4.4351196-0.8965759-6.0330048-2.5l-13.0370026-13.0370026
					c-1.5923309-1.6052856-2.4901581-3.7719498-2.5-6.0329971V59.1995888c-0.0032501-2.2636642,0.8965759-4.4351196,2.5-6.0330009
					l18.3069916-18.3059998c1.6049805-1.5921745,3.7712708-2.4900093,6.0319977-2.5L210.5935974,32.3645897z"/>
				<path id="Tracé_6349" class="st12" d="M237.9835968,87.1435852
					c-13.097168-0.9515076-22.9431458-12.3402023-21.9916382-25.4373512
					c0.8553162-11.7731895,10.2184448-21.1363258,21.9916229-21.9916458v-0.0699997h14.631012v47.4999962H241.450592
					c-0.5761108,0.0574951-1.1551514,0.0805359-1.7340088,0.0690002c-0.5549927,0-1.1789856-0.0690002-1.7339935-0.0690002"/>
				<line id="Ligne_77" class="st307" x1="263.9866028" y1="46.9265862" x2="263.9866028" y2="79.9325867"/>
				<path id="Tracé_6350" class="st12" d="M135.1485901,83.7485809c-0.6997223-0.0000076-1.3716431-0.2738724-1.871994-0.7630005
					l-9.154007-9.1529922c-0.4891815-0.5007248-0.7630463-1.1729813-0.7630005-1.8730011V54.4845848
					c0.0001068-0.6996994,0.2739563-1.371582,0.7630005-1.8720016l9.9170074-9.9160004H144.30159l-10.6779938,10.6780014V72.999588
					L144.30159,83.6775818L135.1485901,83.7485809z"/>
				<path id="Tracé_6351" class="st18" d="M174.1195984,83.7485809c0.6994171-0.0000534,1.3710175-0.2739334,1.8710022-0.7630005
					l9.154007-9.1529999c0.4891815-0.5007172,0.7630463-1.1729736,0.7630005-1.8729935V54.4845848
					c-0.0001068-0.6996994-0.2739563-1.371582-0.7630005-1.8720016l-9.9170074-9.9160004h-30.8570099l-10.6779938,10.6780014
					V72.999588l10.6779938,10.6779938L174.1195984,83.7485809z"/>
				<path id="Tracé_6352" class="st12" d="M168.2255859,70.1555862c0.4395447-0.4974594,0.6858215-1.1362305,0.6940002-1.8000031
					V58.0205879c0.0206604-0.7381897-0.2838898-1.4482117-0.8329926-1.9420013
					c-2.0099945-1.8000031-6.7259979-6.0999985-6.7259979-6.0999985h8.3209991
					c0.6441193,0.008007,1.2622223,0.2553902,1.7339935,0.6940002c1.3860016,1.3170013,4.4369965,4.0220032,5.9629974,5.4079971
					c0.5485077,0.494133,0.8526459,1.2040253,0.8320007,1.9420013v10.329998
					c0.0206451,0.7379761-0.283493,1.4478683-0.8320007,1.9420013c-1.526001,1.3860016-4.5070038,4.0910034-5.9629974,5.4079971
					c-0.4786987,0.4275665-1.0924835,0.6732178-1.7339935,0.6940002h-8.3209991L168.2255859,70.1555862z"/>
				<path id="Tracé_6353" class="st17" d="M160.3206024,76.4655838c0.6441345-0.0079117,1.2622681-0.2553101,1.7339935-0.6940002
					c1.3860016-1.3170013,4.4369965-4.0220032,5.9629974-5.4079971c0.5491028-0.4937897,0.853653-1.2038116,0.8329926-1.9420013
					V58.0895882c-0.0114899-0.7313919-0.3107758-1.4287872-0.8329926-1.9410019
					c-2.0110016-1.8000031-6.7259979-6.0999985-6.7259979-6.0999985h-12.4819946l-7.5599976,6.862999v12.6889992
					l7.5579987,6.8649979H160.3206024z"/>
				<path id="Tracé_6354" class="st19" d="M135.9115906,27.9265862c0.0088501-2.0594521-1.6534882-3.736145-3.7129364-3.7449989
					c-0.0106812-0.0000458-0.0213776-0.0000458-0.0320587,0h-16.2939987
					c-2.0583801,0.0237694-3.7212219,1.6866188-3.7449951,3.7449989v4.4379997h23.783989V27.9265862z"/>
				<path id="Tracé_6355" class="st12" d="M136.1905975,92.0675888v6.0329971c0,0.8427811-0.6832123,1.5259933-1.526001,1.5259933
					s-1.526001-0.6832047-1.526001-1.5259933v-7.5579987c0.0081329-0.8388443,0.6861572-1.5168686,1.5249939-1.5250015h19.1389923
					c0.8390656,0.0075989,1.517395,0.685936,1.5249939,1.5250015v7.557991c0,0.8425064-0.6829834,1.5254974-1.5254974,1.5254974
					s-1.5254974-0.682991-1.5254974-1.5254974l0,0v-6.0329895H136.1905975z"/>
				<path id="Tracé_6356" class="st12" d="M158.101593,32.3645897c2.7557526-9.8030548,12.936676-15.5160255,22.7397308-12.7602768
					c6.1864777,1.73909,11.0211792,6.5737896,12.7602692,12.7602768H158.101593z"/>
				<path id="Tracé_6357" class="st17" d="M169.127594,32.3645859c0.8588104-3.0107746,3.5953064-5.0983334,6.7259979-5.1309986
					c3.1400757,0.0051689,5.8912201,2.1039085,6.7259979,5.1309986H169.127594z"/>
				<path id="Tracé_6358" class="st18" d="M226.6815948,23.1415882c2.0296326,0.0005493,3.6745605,1.646349,3.6740112,3.6759968
					c-0.0005493,2.029644-1.6463623,3.6745529-3.6759949,3.6740036c-2.0288696-0.0005493-3.6734619-1.645134-3.6740112-3.6739998
					C223.0056,24.7873917,224.651413,23.1415901,226.6815948,23.1415882"/>
				<path id="Tracé_6359" class="st12" d="M239.578598,23.1415882c2.0296326,0.0005493,3.6745605,1.646349,3.6740112,3.6759968
					c-0.0005493,2.029644-1.6463623,3.6745529-3.6759949,3.6740036c-2.0296631-0.0005493-3.6745605-1.6463509-3.6740112-3.6759949
					c0-0.0006714,0-0.001339,0-0.0020065c-0.0005493-2.0296478,1.6443481-3.6754475,3.6740112-3.6760006
					c0.0006409,0,0.0013123,0,0.0019836,0"/>
				<path id="Tracé_6360" class="st12" d="M163.0935974,89.1535873c1.3807068,0,2.5,1.1192856,2.5,2.5s-1.1192932,2.5-2.5,2.5
					s-2.5-1.1192856-2.5-2.5S161.7128906,89.1535873,163.0935974,89.1535873"/>
				<path id="Tracé_6361" class="st12" d="M202.8965912,45.6075859h-13.9379883
					c-0.8390656-0.0076027-1.517395-0.685936-1.5249939-1.5250015v-11.718998c0-0.8425102,0.6829834-1.5254974,1.5254974-1.5254974
					s1.5254974,0.6829872,1.5254974,1.5254974v10.2630005h13.1060028c0.3891907-0.010643,0.7655029,0.1398811,1.0399933,0.4160004
					l13.243988,13.2459984c0.5997314,0.58741,0.6097107,1.5497665,0.0222778,2.1494904
					c-0.5874023,0.5997162-1.5497437,0.6097031-2.1494751,0.0222931c-0.0073242-0.0071869-0.0145874-0.0144501-0.0217896-0.0217819
					L202.8965912,45.6075859z"/>
				<path id="Tracé_6362" class="st12" d="M210.3856049,83.2615891l13.8000031,13.8000031
					c0.5993347,0.5877914,0.6087036,1.5501633,0.0209045,2.1495056s-1.5501404,0.6087036-2.1495056,0.0209045
					c-0.0072021-0.0070648-0.0143433-0.0141983-0.0213928-0.0214081l-14.2149963-14.2149963
					c-0.2651367-0.2816238-0.4137726-0.6532135-0.4160004-1.0400009V67.5895844
					c0.0075989-0.8390656,0.6859283-1.5174026,1.5249939-1.5250015h7.4199982c0.8424988,0,1.5255127,0.682991,1.5255127,1.5254974
					c0,0.842514-0.6830139,1.5255051-1.5255127,1.5255051h-5.8950043L210.3856049,83.2615891z"/>
				<path id="Tracé_6363" class="st12" d="M229.2456055,94.7025833c0.3715515-1.3037415,1.557373-2.2070541,2.9129944-2.2190018
					c1.364502-0.015152,2.5646057,0.899353,2.9119873,2.2190018v4.9229965h-5.8250122L229.2456055,94.7025833z"/>
				<path id="Tracé_6364" class="st12" d="M238.5375977,94.7025833c0.3715515-1.3037415,1.5573578-2.2070541,2.9129791-2.2190018
					c1.364502-0.015152,2.5646057,0.899353,2.9119873,2.2190018v4.9229965h-5.8249969L238.5375977,94.7025833z"/>
				<path id="Tracé_6365" class="st12" d="M247.8985901,94.7025833c0.3715515-1.3037415,1.557373-2.2070541,2.9129944-2.2190018
					c1.364502-0.015152,2.5646057,0.899353,2.9119873,2.2190018v4.9229965h-5.8249817V94.7025833z"/>
				<path id="Tracé_6366" class="st12" d="M120.7965927,79.7935867l-10.6779938,10.6780014
					c-0.59935,0.5877914-1.5617065,0.5784302-2.1495056-0.0209122c-0.5795288-0.5909195-0.5797424-1.5369034-0.0004883-2.1280899
					l11.0939941-11.0950012c0.2816162-0.2651367,0.6532135-0.4137802,1.0399933-0.4160004h11.5110092
					c0.842514,0,1.5254974,0.682991,1.5254974,1.5254974c0,0.842514-0.6829834,1.5255051-1.5254974,1.5255051h-10.817009V79.7935867
					z"/>
				<path id="Tracé_6367" class="st18" d="M252.6835938,39.6455879c13.1355286,0,23.7839966,10.6484604,23.7839966,23.7839966
					s-10.6484375,23.7840004-23.7839966,23.7840004c-13.1355286,0-23.7839966-10.6484604-23.7839966-23.7840004l0,0
					c0-13.13554,10.648468-23.7840004,23.7839966-23.7840004"/>
				<path id="Tracé_6368" class="st12" d="M263.9866028,79.9325867h-7.7669983
					c-0.4160004,0-0.832016,0.0690002-1.1780243,0.0690002c-0.3942871,0.013588-0.7889709-0.0095139-1.1789856-0.0690002
					c-9.1143494-0.6735382-15.9570007-8.6081848-15.2834473-17.7225418
					c0.6042786-8.1774521,7.1059875-14.6791611,15.2834473-15.2834587v-0.0699997h10.1930084v33.0760002H263.9866028z"/>
				<path id="Tracé_6369" class="st18" d="M263.9866028,46.9205856c9.1127014,0,16.5,7.3872986,16.5,16.5
					s-7.3872986,16.5-16.5,16.5c-9.1127167,0-16.5000153-7.3872986-16.5000153-16.5S254.8738861,46.9205856,263.9866028,46.9205856"
					/>
				<path id="Tracé_6370" class="st17" d="M263.9865723,54.2065887c5.0931702-0.0000076,9.2220154,4.1288147,9.2220154,9.2219849
					s-4.1288147,9.2220078-9.2219849,9.2220154s-9.2220001-4.1288147-9.2220001-9.2219849c0-0.0000076,0-0.0000076,0-0.0000153
					C254.7646027,58.3354263,258.8934021,54.2065964,263.9865723,54.2065887"/>
				<path id="Tracé_6371" class="st18" d="M67.6095963,45.4705887c0.4492874-1.1063538,1.1357498-2.1007118,2.0110016-2.9129982
					c1.1090012-1.1090012,6.2409973,0.9000015,6.2409973,0.9000015s3.5360031-4.7849998,6.3789978-4.7849998
					s3.2590027,1.7999992,3.2590027,3.0509987v1.1100006c-0.0034485,0.3659401-0.1532593,0.7152672-0.4160004,0.9700012
					l-5.2699966,5.2700005c-0.254982,0.2629852-0.6047134,0.4128227-0.9710007,0.4160004H68.7185974
					c-0.7647171-0.0027466-1.3838043-0.6222801-1.3860016-1.387001V46.093586
					c0.062767-0.2199059,0.1560059-0.4299431,0.2770004-0.6240005"/>
				<path id="Tracé_6372" class="st17" d="M84.1835938,40.6155853c0.335907-0.2963409,0.422226-0.7856026,0.2080002-1.1790009
					c-0.1612167-0.4308891-0.5802536-0.7101135-1.0400009-0.6930008h-9.5
					c-0.2896881,0.0115547-0.5634384,0.1356926-0.7630005,0.3460007l-4.0910034,4.0909996
					c-0.3355637,0.2965355-0.4218369,0.7855415-0.2080002,1.1790009c0.160881,0.431282,0.5800018,0.7109642,1.0400009,0.6940002h9.5
					c0.2898102-0.0119247,0.5635376-0.1364136,0.7630005-0.3470001
					C80.7865906,43.9435844,82.7275925,42.0715866,84.1835938,40.6155853"/>
				<path id="Tracé_6373" class="st18" d="M43.7565994,45.4705887c0.4492912-1.1063538,1.1357498-2.1007118,2.0110016-2.9129982
					c1.1090012-1.1090012,6.2410011,0.9000015,6.2410011,0.9000015s3.5360031-4.7849998,6.3789978-4.7849998
					s3.2590027,1.7999992,3.2590027,3.0509987v1.1100006c-0.0034485,0.3659401-0.1532593,0.7152672-0.4160004,0.9700012
					l-5.2699966,5.2700005c-0.254982,0.2629852-0.6047134,0.4128227-0.9710007,0.4160004H44.8655968
					c-0.765892,0.0000076-1.3876991-0.6191216-1.3909988-1.385006V46.093586
					c0.120945-0.1940842,0.21418-0.4041138,0.2770004-0.6240005"/>
				<path id="Tracé_6374" class="st19" d="M60.3995972,40.6155853c0.335907-0.2963409,0.422226-0.7856026,0.2080002-1.1790009
					c-0.1612167-0.4308891-0.5802536-0.7101135-1.0400009-0.6930008h-9.5
					c-0.2896881,0.0115547-0.5634384,0.1356926-0.7630005,0.3460007l-4.0909996,4.0909996
					c-0.3355637,0.2965355-0.421833,0.7855415-0.2080002,1.1790009c0.1608849,0.431282,0.579998,0.7109642,1.0400009,0.6940002
					h9.5000038c0.2898102-0.0119247,0.5635376-0.1364136,0.7630005-0.3470001
					c0.6940002-0.7630005,2.6350021-2.6349983,4.0910034-4.0909996"/>
				<path id="Tracé_6375" class="st19" d="M98.8835983,47.4815865h19.9699936c0.842514,0,1.5254974-0.682991,1.5254974-1.5255013
					c0-0.8425064-0.6829834-1.5254974-1.5254974-1.5254974H98.8835983c-0.8425064,0-1.5254974,0.682991-1.5254974,1.5254974
					C97.3581009,46.7985954,98.0410919,47.4815865,98.8835983,47.4815865L98.8835983,47.4815865"/>
				<path id="Tracé_6376" class="st12" d="M113.8605881,48.4505882l10.3320007,10.3319969
					c0.5879059,0.5992355,1.5502777,0.6084213,2.1495056,0.0205154c0.5992432-0.5878983,0.608429-1.5502701,0.0205231-2.1495056
					c-0.0069427-0.0070724-0.0139465-0.0140762-0.0210266-0.0210114l-10.3309937-10.3329964
					c-0.5993958-0.5877419-1.5617523-0.5782967-2.1495056,0.0210991c-0.5794067,0.5908928-0.5796204,1.5367355-0.0004883,2.1278992"
					/>
				<path id="Tracé_6377" class="st12" d="M79.3295975,73.2765884h12.9670029v90.9769974
					c0,40.8419952,24.2000046,59.4259949,52.9780121,59.4259949s52.9769897-18.6529999,52.9769897-59.4259949V99.6955872h12.9669952
					v64.5579987c-0.0069885,36.4198608-29.5367889,65.9383392-65.9566345,65.9313507
					c-36.409996-0.0069733-65.9243774-29.5213623-65.9313583-65.9313507L79.3295975,73.2765884z"/>
				<path id="Tracé_6378" class="st17" d="M94.2375946,201.1415863l1.8730011,2.5
					c0.5382538,0.649231,1.5009003,0.7391968,2.1501389,0.200943c0.646431-0.5359344,0.7388382-1.4932556,0.2068634-2.1429443
					c-0.6162186-0.7329407-1.1949539-1.496582-1.7340012-2.2879944c-0.4645157-0.6678619-1.3824844-0.8327026-2.0503387-0.3681793
					c-0.0099792,0.0069427-0.0198669,0.0139923-0.0296631,0.0211792c-0.6789169,0.406723-0.8995819,1.2868042-0.4928665,1.9657288
					c0.0237503,0.0396271,0.0494003,0.0781097,0.0768661,0.1152649 M89.4525909,193.3095856
					c0.4166641,0.7626648,0.9020004,1.662674,1.4560013,2.6999969c0.3981018,0.7409515,1.3214874,1.0188904,2.062439,0.6208038
					c0.7409592-0.3981018,1.018898-1.3214874,0.6208038-2.0624542c-0.0151978-0.0282745-0.0312881-0.056076-0.0482407-0.0833435
					c-0.5550003-0.9700012-1.0410004-1.871994-1.4560013-2.5659943c-0.3528442-0.718277-1.2211609-1.0145111-1.9394302-0.6616669
					c-0.0242081,0.0118866-0.0480728,0.0244598-0.0715714,0.037674c-0.714798,0.3410187-1.017807,1.1969147-0.676796,1.9117126
					c0.0162735,0.0341187,0.0338898,0.0675659,0.052803,0.1002808L89.4525909,193.3095856z M86.3325882,184.5025787
					l0.8320007,2.9120026c0.2149811,0.8086243,1.0447769,1.289856,1.8534012,1.0748749
					c0.8086166-0.2149811,1.289856-1.0447693,1.0748749-1.8533936c-0.0047607-0.0179138-0.0098572-0.0357513-0.015274-0.0534821
					c-0.2770004-0.970993-0.5550003-1.871994-0.7630005-2.8430023c-0.1935272-0.7747955-0.978508-1.2460175-1.7533112-1.0524902
					c-0.0156326,0.0039062-0.0311966,0.0080719-0.0466919,0.0124969c-0.8066483,0.1450653-1.3429718,0.9165802-1.1978989,1.7232361
					c0.0046234,0.0257263,0.0099258,0.0513153,0.0159073,0.076767L86.3325882,184.5025787z M84.598587,175.4875793
					c0.1389999,1.0399933,0.2770004,2.0110016,0.4850006,3.0509949c0.1148071,0.8265686,0.8779449,1.4035645,1.7045135,1.2887573
					c0.826561-0.1148071,1.4035568-0.8779449,1.2887497-1.7045135c-0.0032196-0.0231628-0.0069733-0.0462494-0.011261-0.0692444
					c-0.1389999-0.9700012-0.3460007-1.9409943-0.4160004-2.9120026c-0.1120758-0.8140106-0.8460159-1.3948975-1.6640015-1.3170013
					c-0.7825851,0.0027618-1.4147491,0.6394196-1.4119797,1.4219971c0.0002823,0.0797882,0.0073013,0.1594086,0.0209885,0.2380219
					L84.598587,175.4875793z M84.0435867,166.3345795v0.8999939c0,0.7630005,0,1.4559937,0.0690002,2.1490021
					c0.0190506,0.8234558,0.7020416,1.4755554,1.5255051,1.4564972c0.8234558-0.019043,1.4755478-0.7020416,1.4564972-1.5254974
					v-2.9789886c0-0.842514-0.682991-1.5254974-1.5254974-1.5254974c-0.842514,0-1.5255051,0.6829834-1.5255051,1.5254974
					V166.3345795z M84.0435867,157.3195801v2.9819946c0,0.842514,0.682991,1.5254974,1.5255051,1.5254974
					c0.8425064,0,1.5254974-0.6829834,1.5254974-1.5254974v-2.9819946c0-0.842514-0.682991-1.5254974-1.5254974-1.5254974
					C84.7265778,155.7940826,84.0435867,156.477066,84.0435867,157.3195801 M84.0435867,148.3055725v2.9819946
					c0,0.842514,0.682991,1.5254974,1.5255051,1.5254974c0.8425064,0,1.5254974-0.6829834,1.5254974-1.5254974v-2.9819946
					c0-0.842514-0.682991-1.5254974-1.5254974-1.5254974C84.7265778,146.7800751,84.0435867,147.4630585,84.0435867,148.3055725
					 M84.0435867,139.2905731v2.9819946c0,0.842514,0.682991,1.5254974,1.5255051,1.5254974
					c0.8425064,0,1.5254974-0.6829834,1.5254974-1.5254974v-2.9819946c0-0.842514-0.682991-1.5254974-1.5254974-1.5254974
					C84.7265778,137.7650757,84.0435867,138.4480591,84.0435867,139.2905731 M84.0435867,130.2765808v2.9810028
					c0,0.842514,0.682991,1.5254974,1.5255051,1.5254974c0.8425064,0,1.5254974-0.6829834,1.5254974-1.5254974v-2.9810028
					c-0.0075989-0.8390656-0.685936-1.517395-1.5250015-1.5249939c-0.8289185,0.031311-1.4936829,0.6960754-1.5250015,1.5249939
					 M84.0445862,121.2615738v2.9819946c0,0.842514,0.682991,1.5254974,1.5254974,1.5254974
					c0.842514,0,1.5255051-0.6829834,1.5255051-1.5254974v-2.9819946c-0.0075989-0.8390656-0.685936-1.517395-1.5250015-1.5249939
					c-0.8287048,0.0317841-1.4932098,0.6962891-1.5250015,1.5249939 M84.0455856,112.2465744v2.9819946
					c0,0.842514,0.682991,1.5254974,1.5255051,1.5254974c0.8425064,0,1.5254974-0.6829834,1.5254974-1.5254974v-2.9829865
					c-0.0070572-0.8394623-0.6855469-1.5183945-1.5250015-1.526001c-0.8184509,0.0556717-1.4698715,0.7075195-1.5250015,1.526001
					 M84.0465851,103.3005905v2.9820023c0,0.842514,0.682991,1.5254898,1.5254974,1.5254898
					c0.842514,0,1.5255051-0.6829834,1.5255051-1.5254898v-2.9820023c0-0.842514-0.682991-1.5255051-1.5254974-1.5255051
					C84.7295761,101.7750854,84.0465851,102.4580765,84.0465851,103.3005905L84.0465851,103.3005905 M84.0465851,94.2855911
					v2.9820023c0,0.842514,0.682991,1.5254974,1.5254974,1.5254974c0.842514,0,1.5255051-0.6829834,1.5255051-1.5254974v-2.9820023
					c0-0.842514-0.682991-1.5255051-1.5255051-1.5255051C84.7295761,92.7600861,84.0465851,93.4430771,84.0465851,94.2855911
					 M84.0465851,85.2715912v2.9810028c0,0.842514,0.682991,1.5254974,1.5254974,1.5254974
					c0.842514,0,1.5255051-0.6829834,1.5255051-1.5254974v-2.9810028c0-0.842514-0.682991-1.5254974-1.5255051-1.5254974
					C84.7295761,83.7460938,84.0465851,84.4290771,84.0465851,85.2715912 M84.0465851,76.2565918v2.9789963
					c0,0.842514,0.682991,1.5255051,1.5254974,1.5255051c0.842514,0,1.5255051-0.682991,1.5255051-1.5255051v-2.9789963
					c0-0.842514-0.682991-1.5254974-1.5255051-1.5254974C84.7295761,74.7310944,84.0465851,75.4140778,84.0465851,76.2565918"/>
				<path id="Tracé_6379" class="st17" d="M189.2355957,205.7205811c-0.5942535,0.719635-1.2435455,1.391983-1.9420013,2.0110016
					c-0.6318054,0.5553284-0.6938171,1.5176849-0.1384888,2.1494904c0.5553131,0.6318207,1.5176849,0.6938324,2.1494904,0.138504
					l0,0c0.8140717-0.7094574,1.578537-1.4739227,2.2879944-2.2879944c0.5509796-0.633194,0.4889526-1.5920715-0.1390076-2.1490021
					C190.7966309,205.0270691,189.8186188,205.0879211,189.2355957,205.7205811z M194.2975922,198.5785828
					c-0.4160004,0.6940002-0.970993,1.5249939-1.6000061,2.5c-0.4597778,0.6903534-0.2728577,1.6227264,0.417511,2.082489
					c0.6903534,0.4597778,1.6227112,0.2728577,2.082489-0.4174957c0.625-0.970993,1.1790009-1.8730011,1.6649933-2.5659943
					c0.4404449-0.7085724,0.2230835-1.6400452-0.4854889-2.0805054c-0.7085876-0.4404449-1.6400604-0.2230682-2.0805054,0.4855042
					 M198.1795807,190.746582c-0.345993,0.8999939-0.7630005,1.8000031-1.1790009,2.6999969
					c-0.353241,0.762146-0.021759,1.6663361,0.740387,2.019577s1.6663361,0.021759,2.019577-0.740387
					c0.0048065-0.0103455,0.0094757-0.0207367,0.0140381-0.031189c0.4160004-0.8999939,0.8339996-1.8730011,1.2489929-2.8430023
					c0.318161-0.7385101-0.0225983-1.595108-0.7610931-1.913269c-0.0237122-0.0102081-0.0476837-0.0197906-0.0718994-0.0287323
					c-0.7842865-0.2957001-1.6634827,0.0677948-2.0099792,0.8310089L198.1795807,190.746582z M200.9535828,182.4255829
					c-0.2079926,0.970993-0.4850006,1.8730011-0.7630005,2.8430023c-0.2485199,0.78508,0.1864319,1.6229706,0.9714966,1.8715057
					c0.78508,0.2485199,1.6229858-0.1864319,1.8715057-0.9715118c0.2769928-0.970993,0.5549927-1.9420013,0.8329926-2.9819946
					c0.2052155-0.7797852-0.2605743-1.5782776-1.0403595-1.783493c-0.0230713-0.006073-0.0462952-0.0115814-0.0696411-0.01651
					c-0.7351379-0.2396088-1.5253143,0.1620941-1.7649384,0.8972168c-0.0146484,0.0449371-0.0270081,0.0905914-0.0370331,0.1367798
					L200.9535828,182.4255829z M202.548584,173.7585754c-0.1380005,0.970993-0.2070007,1.9420013-0.4149933,2.9129944
					c-0.1339264,0.8231812,0.4248199,1.5990753,1.2480011,1.7330017s1.5990753-0.4248199,1.7330017-1.2480011
					c0.1390076-1.0399933,0.2779999-2.0099945,0.4160004-3.0509949c0.0955505-0.8234558-0.4945526-1.5684509-1.3180084-1.6639862
					c-0.8234406-0.0955505-1.5684357,0.4945374-1.6639862,1.3179932l0,0L202.548584,173.7585754z M202.9655914,164.9515686
					v2.9819946c-0.0285645,0.8229675,0.6154327,1.5132599,1.438385,1.5418091
					c0.8229675,0.0285645,1.5132599-0.6154175,1.5418243-1.438385c0.0003967-0.0114746,0.0006561-0.0229492,0.0007935-0.0344238
					v-3.0509949c-0.0075989-0.8390656-0.6859283-1.517395-1.5249939-1.5249939
					c-0.817276,0.0128784-1.4693756,0.6858521-1.4564972,1.5031281c0.0001068,0.0072937,0.0002747,0.0145874,0.0005035,0.0218658
					 M202.9656067,155.937561v2.9810028c0,0.8422394,0.6827698,1.5250092,1.5250092,1.5250092
					c0.8422241,0,1.5249939-0.6827698,1.5249939-1.5250092v-2.9810028c-0.0075989-0.8390656-0.6859283-1.517395-1.5249939-1.5249939
					c-0.8249359-0.0173035-1.5076904,0.6374207-1.5249939,1.4623566c-0.0004425,0.020874-0.0004425,0.0417633,0,0.0626373
					 M202.9656219,146.9225616v2.9819946c0,0.8422394,0.6827698,1.5249939,1.5249939,1.5249939
					c0.8422394,0,1.5250092-0.6827545,1.5250092-1.5249939v-2.9839783c-0.0075989-0.8390656-0.6859283-1.517395-1.5249939-1.5249939
					c-0.8249359-0.0173035-1.5076904,0.6374207-1.5249939,1.4623566c-0.0004425,0.020874-0.0004425,0.0417633,0,0.0626373
					 M202.9656372,137.9055786v2.9819946c0,0.8422394,0.6827698,1.5249939,1.5250092,1.5249939
					c0.8422241,0,1.5249939-0.6827545,1.5249939-1.5249939v-2.9819946c0-0.8422394-0.6827698-1.5249939-1.5249939-1.5249939
					C203.648407,136.3805847,202.9656372,137.0633392,202.9656372,137.9055786 M202.9656372,128.891571v2.9810028
					c0,0.8422394,0.6827698,1.5250092,1.5250092,1.5250092c0.8422241,0,1.5249939-0.6827698,1.5249939-1.5250092v-2.9810028
					c0-0.8422394-0.6827698-1.5249939-1.5250092-1.5249939C203.648407,127.3665771,202.9656372,128.0493317,202.9656372,128.891571
					 M202.9656372,119.8765717v2.9819946c0,0.8422394,0.6827698,1.5250092,1.5250092,1.5250092
					c0.8422241,0,1.5249939-0.6827698,1.5249939-1.5250092v-2.9819946c0-0.8422394-0.6827698-1.5250092-1.5249939-1.5250092
					C203.648407,118.3515625,202.9656372,119.0343323,202.9656372,119.8765717 M202.9656372,110.9315796v2.9810028
					c0,0.8422394,0.6827698,1.5250092,1.5250092,1.5250092c0.8422241,0,1.5249939-0.6827698,1.5249939-1.5250092l0,0v-2.9810028
					c-0.0075989-0.8390656-0.6859283-1.517395-1.5249939-1.5249939c-0.8249359-0.0173035-1.5076904,0.6374207-1.5249939,1.4623566
					c-0.0004425,0.020874-0.0004425,0.0417633,0,0.0626373 M202.9656525,101.9165802v2.9820023
					c0,0.8422318,0.6827698,1.5250015,1.5249939,1.5250015c0.8422394,0,1.5250092-0.6827698,1.5250092-1.5250015v-2.9820023
					c-0.0075989-0.8390656-0.6859283-1.5174026-1.5249939-1.5250015c-0.8249359-0.0172958-1.5076904,0.6374207-1.5249939,1.4623489
					c-0.0004425,0.0208817-0.0004425,0.0417709,0,0.0626526"/>
				<path id="Tracé_6380" class="st17" d="M211.2175903,99.6265869h4.7149963v64.5599976
					c-0.0104828,36.4151306-29.5278625,65.9329529-65.9429932,65.9440002c-0.7630005,0-1.6000061,0-2.3580017-0.0700073
					c35.4830627-1.2981415,63.5800781-30.4362183,63.5870056-65.9430084L211.2175903,99.6265869z M92.3626022,164.1865845
					V75.0865936c0.0186386-0.98629,0.8137131-1.7813644,1.8000031-1.8000031h1.1100006
					c0.9860764,0.0191498,1.7808533,0.8139267,1.8000031,1.8000031v89.1729889
					c0,39.6640015,22.8820038,58.3860016,50.6189957,59.4259949c-0.7630005,0-1.6000061,0.0690002-2.3580017,0.0690002
					C116.4966049,223.6785889,92.3626022,205.025589,92.3626022,164.1865845z"/>
				<path id="Tracé_6381" class="st17" d="M78.9825974,87.8375854V74.874588c0-0.842514-0.682991-1.5254974-1.5255051-1.5254974
					c-0.8425064,0-1.5254974,0.6829834-1.5254974,1.5254974v12.9670029c0,0.842514,0.682991,1.5255051,1.5254974,1.5255051
					c0.842514,0,1.5255051-0.682991,1.5255051-1.5255051"/>
				<path id="Tracé_6382" class="st18" d="M157.9635925,69.5315857c0,0,0.6239929-0.4160004,1.3860016-1.0400009
					c0.4160004-0.3460007,0.8999939-0.6940002,1.3179932-1.1100006c0.2769928-0.2770004,0.4850006-0.5550003,0.6929932-0.7630005
					c0.8329926-1.0400009,1.5249939-1.9410019,1.5249939-1.9410019c0.4418335-0.4404449,0.4429474-1.155674,0.0025024-1.5974998
					c-0.4404449-0.4418335-1.1556702-0.4429474-1.5975037-0.0025024c0,0-0.8999939,0.625-1.9420013,1.5260048
					c-0.2860718,0.1934357-0.5430145,0.426796-0.7630005,0.6930008c-0.4091797,0.4041519-0.7803955,0.8450012-1.1089935,1.3170013
					l-1.0399933,1.387001c-0.444519,0.3977127-0.4824677,1.0804749-0.0847473,1.5249939
					c0.3977051,0.4445267,1.0804749,0.4824677,1.5249939,0.0847549c0.0298004-0.0266571,0.0580902-0.0549545,0.0847473-0.0847473
					L157.9635925,69.5315857z"/>
				<path id="Tracé_6383" class="st18" d="M159.3495941,59.4765892c0.3127594-0.0789032,0.6149292-0.1950684,0.8999939-0.3460007
					c0.2783508-0.120369,0.5358734-0.2840652,0.7630005-0.4850006c0.131134-0.1497879,0.2470398-0.3122559,0.345993-0.4850006
					c0.2401123-0.3892365,0.4267883-0.8089981,0.5549927-1.2480011c0.6642151-0.6375198,0.6858673-1.6927795,0.0483398-2.3569946
					c-0.6375122-0.6642227-1.6927795-0.6858673-2.3569946-0.0483475c-0.016449,0.0157852-0.0325623,0.0318985-0.0483398,0.0483398
					c-0.4390106,0.1282043-0.8587646,0.3148804-1.2480011,0.5550003c-0.1772003,0.0918503-0.3404846,0.2083435-0.4850006,0.3460007
					c-0.1858978,0.2380905-0.3483276,0.4936142-0.4850006,0.7630005c-0.1510773,0.2850037-0.2672577,0.5871887-0.345993,0.9000015
					c-0.6244202,0.6616058-0.6244202,1.6953964,0,2.3570023c0.5976715,0.6508713,1.6098175,0.6939926,2.2606964,0.0963211
					C159.2867279,59.5421867,159.3188629,59.5100517,159.3495941,59.4765892z"/>
				<path id="Tracé_6384" class="st18" d="M148.8795929,69.9475861c0.6986237-0.4450073,1.3701477-0.9311981,2.0110016-1.4560013
					c0.5549927-0.4850006,1.2480011-0.9710007,1.871994-1.5950012c0.3597717-0.3364334,0.6850433-0.7079391,0.970993-1.1090012
					c1.1790009-1.4560013,2.0800018-2.7750015,2.0800018-2.7750015c0.6642151-0.6375198,0.6858673-1.6927795,0.0483398-2.3569946
					c-0.6375122-0.6642227-1.6927795-0.6858673-2.3569946-0.0483475c-0.016449,0.0157852-0.0325623,0.0318985-0.0483398,0.0483398
					c0,0-1.2480011,0.8330002-2.7740021,2.0800018c-0.3865356,0.3038712-0.7567291,0.6279907-1.1089935,0.9710007
					c-0.572937,0.5890427-1.1073761,1.2143326-1.6000061,1.8720016c-0.5243835,0.6415176-1.0105591,1.3133469-1.4559937,2.012001
					c-0.6316681,0.6697769-0.6007843,1.7248077,0.0690002,2.3564835c0.6424103,0.6058655,1.6458282,0.6056595,2.2879944-0.0004807
					L148.8795929,69.9475861z"/>
				<path id="Tracé_6385" class="st12" d="M174.3965912,51.9185867l4.0220032-4.0219994
					c0.5874634-0.5996666,0.5775757-1.562027-0.0220947-2.1494904c-0.591156-0.5791359-1.5370026-0.5789185-2.1278992,0.0004921
					l-4.0220032,4.0219994c-0.5874634,0.5996666-0.5775757,1.562027,0.0220947,2.1494904
					C172.859848,52.4982147,173.8056946,52.4979935,174.3965912,51.9185867"/>
				<path id="Tracé_6386" class="st12" d="M178.6266022,56.079586l4.0220032-4.0220032
					c0.5993958-0.5877419,0.6088409-1.550106,0.0211029-2.1495018c-0.5877533-0.5993919-1.5501099-0.6088409-2.1495056-0.0210991
					c-0.0072632,0.0071297-0.0144653,0.0143318-0.0215912,0.0216026l-4.0220032,4.0219994
					c-0.5526428,0.6097412-0.5526428,1.5392609,0,2.1490021c0.5529327,0.5937042,1.4824677,0.6267548,2.0761719,0.0738297
					C178.5782471,56.1296883,178.6028748,56.1050606,178.6266022,56.079586"/>
				<path id="Tracé_6387" class="st12" d="M160.1816101,82.9835892v-5.685997c0-0.8425064-0.6829834-1.5254974-1.5254974-1.5254974
					s-1.5254974,0.682991-1.5254974,1.5254974v5.685997c0,0.8425064,0.6829834,1.5254974,1.5254974,1.5254974
					S160.1816101,83.8260956,160.1816101,82.9835892"/>
				<path id="Tracé_6388" class="st17" d="M220.4405823,58.8535843h-2.2890015
					c-0.8424988,0-1.5255127-0.682991-1.5255127-1.5255051c0-0.8425064,0.6830139-1.5254974,1.5255127-1.5254974h4.1600037
					c0.474823-0.0114594,0.9214478,0.2249146,1.1789856,0.6240005c0.2684937,0.3839111,0.3452148,0.8700714,0.2080078,1.3180008
					c-0.847168,3.0156326-0.847168,6.2063675,0,9.2220001c0.2487488,0.7855606-0.1864014,1.6240463-0.9719543,1.8728104
					c-0.1343994,0.0425491-0.2741089,0.0658493-0.4150391,0.069191h-4.5759888c-0.8424988,0-1.5255127-0.682991-1.5255127-1.5254974
					c0-0.842514,0.6830139-1.5255051,1.5255127-1.5255051h2.6350098
					C220.0375061,63.5329514,220.0611267,61.1710968,220.4405823,58.8535843z"/>
			</g>
		</g>
	</g>
</g>
</svg>
