<?xml version="1.0" encoding="utf-8"?>
<!-- Generator: Adobe Illustrator 27.0.0, SVG Export Plug-In . SVG Version: 6.00 Build 0)  -->
<svg version="1.1" id="Calque_2_00000132798347580130677160000015909453316521488818_"
	 xmlns="http://www.w3.org/2000/svg" xmlns:xlink="http://www.w3.org/1999/xlink" x="0px" y="0px" viewBox="0 0 380 558.4"
	 style="enable-background:new 0 0 380 558.4;" xml:space="preserve">
<style type="text/css">
	.st0{fill:#FFFFFF;}
	.st1{fill:url(#SVGID_1_);}
	.st2{fill:#FFFFFF;stroke:#FFFFFF;stroke-width:10;}
	.st3{clip-path:url(#SVGID_00000043421801744693007200000005474338247043413695_);}
	.st4{fill:#272F60;}
	.st5{fill:#FD657C;}
	.st6{fill:none;stroke:#FFFFFF;stroke-width:5;}
	.st7{fill:#FFBCC6;}
	.st8{clip-path:url(#SVGID_00000073716242765513058880000008401750916810262921_);}
	.st9{clip-path:url(#SVGID_00000011003669292432556420000011137614606593853831_);}
	.st10{clip-path:url(#SVGID_00000160890792148376814910000017737448496698625707_);}
	.st11{clip-path:url(#SVGID_00000098192697378374583690000002634028746362056117_);}
	.st12{clip-path:url(#SVGID_00000136385049090999267850000008972323549498676415_);}
	.st13{clip-path:url(#SVGID_00000067235243667877572650000004144852938769115299_);}
	.st14{clip-path:url(#SVGID_00000036951214204030627410000017330264471844830654_);}
	.st15{clip-path:url(#SVGID_00000178925701009525413610000002059908443427101569_);}
	.st16{clip-path:url(#SVGID_00000144335571860754280490000004169873305550220442_);}
	.st17{clip-path:url(#SVGID_00000000198099001159273900000003958777174013760190_);}
	.st18{clip-path:url(#SVGID_00000034061166570155522090000007490876512253634688_);}
	.st19{clip-path:url(#SVGID_00000056389483927946611150000008494806887083078586_);}
	.st20{clip-path:url(#SVGID_00000141447734772651890380000004113608410856379812_);}
	.st21{clip-path:url(#SVGID_00000036948916345351814710000016640821854880429471_);}
	.st22{clip-path:url(#SVGID_00000136398655790246301970000014167562804342008746_);}
	.st23{clip-path:url(#SVGID_00000159447821259051992050000002149196010028209285_);}
	.st24{clip-path:url(#SVGID_00000092426805361435104440000007838073548323061390_);}
	.st25{clip-path:url(#SVGID_00000065775774849285793950000007129477655371589800_);}
	.st26{clip-path:url(#SVGID_00000044857094482409733270000005662584692588243349_);}
	.st27{clip-path:url(#SVGID_00000104664824798808823900000017970578952989956278_);}
	.st28{enable-background:new    ;}
</style>
<g id="Calque_1-2">
	<g id="Groupe_2797">
		<g id="Groupe_2315">
			<g id="Groupe_2313">
				<path id="Rectangle_1251" class="st0" d="M22,205.4h336c12.2,0,22,9.8,22,22v309c0,12.2-9.8,22-22,22H22c-12.2,0-22-9.8-22-22
					v-309C0,215.2,9.8,205.4,22,205.4z"/>
				<g id="Rectangle">
					
						<linearGradient id="SVGID_1_" gradientUnits="userSpaceOnUse" x1="-1923.9291" y1="704.5879" x2="-1924.8451" y2="704.4529" gradientTransform="matrix(2.416950e-14 394.7178 375 -2.296213e-14 -264006.25 759790.3125)">
						<stop  offset="0" style="stop-color:#B1B1B1"/>
						<stop  offset="0" style="stop-color:#F6FFB1"/>
						<stop  offset="1" style="stop-color:#00C8E2"/>
					</linearGradient>
					<path class="st1" d="M2.5,397.2V20.5c0-4.8,2-9.3,5.6-12.7c1.8-1.7,3.9-3,6.2-3.9c2.4-1,5-1.4,7.6-1.4h336
						c2.7,0,5.2,0.5,7.6,1.4c2.3,0.9,4.4,2.2,6.2,3.9c3.6,3.4,5.6,7.9,5.6,12.7v331L2.5,397.2z"/>
					<path class="st0" d="M375,20.5c0-8.5-7.6-15.5-17-15.5H22C12.6,5,5,11.9,5,20.5v373.9l370-45.1V20.5 M380,20.5v333.2L0,400
						V20.5C0,9.2,9.8,0,22,0h336C370.2,0,380,9.2,380,20.5z"/>
				</g>
			</g>
			<path id="Rectangle-2" class="st2" d="M42,18.4h218c12.2,0,22,9.8,22,22v30.5c0,12.2-9.8,22-22,22H42c-12.2,0-22-9.8-22-22V40.4
				C20,28.3,29.8,18.4,42,18.4z"/>
			<g id="Groupe_2307">
				<g>
					<g>
						<defs>
							<rect id="SVGID_00000055705437418471923870000004966997173353983640_" x="230" y="53.4" width="32.8" height="22.7"/>
						</defs>
						<clipPath id="SVGID_00000036240804825558123090000009823161084277395615_">
							<use xlink:href="#SVGID_00000055705437418471923870000004966997173353983640_"  style="overflow:visible;"/>
						</clipPath>
						<g style="clip-path:url(#SVGID_00000036240804825558123090000009823161084277395615_);">
							<g id="Groupe_2306">
								<path id="Tracé_7231" class="st4" d="M261.5,53.4h-30.3c-0.7,0-1.3,0.6-1.3,1.3c0,0,0,0,0,0v20.2c0,0.7,0.6,1.3,1.3,1.3
									h30.3c0.7,0,1.3-0.6,1.3-1.3V54.7C262.8,54,262.2,53.4,261.5,53.4C261.5,53.4,261.5,53.4,261.5,53.4 M260.3,73.6h-27.8V56
									h27.8V73.6z"/>
								<path id="Tracé_7232" class="st4" d="M247.7,71.1c0.7,0,1.3-0.6,1.3-1.3V59.7c0-0.7-0.6-1.3-1.3-1.3s-1.3,0.6-1.3,1.3v10.1
									C246.4,70.5,247,71.1,247.7,71.1L247.7,71.1"/>
								<path id="Tracé_7233" class="st4" d="M236.3,64.8h6.3c0.7,0,1.3-0.6,1.3-1.3s-0.6-1.3-1.3-1.3h-6.3c-0.7,0-1.3,0.6-1.3,1.3
									S235.6,64.8,236.3,64.8"/>
								<path id="Tracé_7234" class="st4" d="M236.3,68.6h6.3c0.7,0,1.3-0.6,1.3-1.3s-0.6-1.3-1.3-1.3h-6.3c-0.7,0-1.3,0.6-1.3,1.3
									S235.6,68.6,236.3,68.6"/>
								<path id="Tracé_7235" class="st4" d="M254,64.8h2.5c0.7,0,1.3-0.6,1.3-1.3v-3.8c0-0.7-0.6-1.3-1.3-1.3H254
									c-0.7,0-1.3,0.6-1.3,1.3v3.8C252.7,64.2,253.3,64.8,254,64.8L254,64.8"/>
							</g>
						</g>
					</g>
				</g>
			</g>
			<g id="Groupe_2314">
				<g id="Ellipse_421">
					<circle class="st5" cx="328.6" cy="354.4" r="30.6"/>
					<circle class="st6" cx="328.6" cy="354.4" r="33.1"/>
				</g>
				<g id="Groupe_2312">
					<path id="Tracé_7237" class="st0" d="M343.4,337.9c-1.2,0-2.1,0.9-2.1,2.1v14.6h4.2V340C345.5,338.8,344.5,337.9,343.4,337.9"
						/>
					<path id="Tracé_7238" class="st0" d="M324.3,337.9c-0.1,0-0.2,0-0.3,0l0,0c-1,0-1.9,0.7-2.1,1.8l-2.4,15h4.3l2.3-14.3
						C326.2,339.1,325.4,338.1,324.3,337.9"/>
					<path id="Tracé_7239" class="st0" d="M312,369.2c-0.1,1.2,0.8,2.2,2,2.2s2.2-0.8,2.2-2c0-0.1,0-0.2,0-0.3v-14.6H312V369.2z"/>
					<path id="Tracé_7240" class="st0" d="M331.5,368.9c-0.2,1.1,0.6,2.2,1.7,2.4c0.1,0,0.2,0,0.3,0l0,0c1,0,1.9-0.7,2.1-1.8
						l2.4-15h-4.2L331.5,368.9z"/>
					<path id="Tracé_7241" class="st4" d="M314.1,337.9c-1.2,0-2.1,0.9-2.1,2.1v14.6h4.2V340C316.2,338.8,315.3,337.9,314.1,337.9"
						/>
					<path id="Tracé_7242" class="st4" d="M333.3,337.9c-1.1,0.2-1.9,1.3-1.7,2.4l2.3,14.3h4.2l-2.4-14.9
						C335.5,338.5,334.4,337.7,333.3,337.9"/>
					<path id="Tracé_7243" class="st4" d="M341.2,354.6v14.6c0,1.2,0.9,2.1,2,2.1c1.2,0,2.1-0.9,2.1-2c0,0,0-0.1,0-0.1v-14.6H341.2
						z"/>
					<path id="Tracé_7244" class="st4" d="M323.7,354.6h-4.2l2.4,14.9c0.2,1.1,1.3,1.9,2.4,1.7c1.1-0.2,1.9-1.3,1.7-2.4l0,0
						L323.7,354.6z"/>
				</g>
			</g>
		</g>
		<g id="Groupe_2601">
			<g id="Groupe_2279">
				<path id="Tracé_7081" class="st4" d="M326.8,265.4L68.4,378.9c-0.9,0.4-2,0-2.4-0.9c0,0,0,0,0,0l-2.5-5.8c-0.4-0.9,0-2,0.9-2.4
					c0,0,0,0,0,0l258.4-113.5c0.9-0.4,2,0,2.4,0.9c0,0,0,0,0,0l2.5,5.8C328.2,264,327.8,265,326.8,265.4
					C326.8,265.4,326.8,265.4,326.8,265.4L326.8,265.4z"/>
				<path id="Tracé_7082" class="st5" d="M311.4,256.2L284.5,268c-1.4,0.6-2,2.2-1.4,3.6c0,0,0,0,0,0l1.1,2.5
					c0.6,1.4,2.2,2,3.6,1.4c0,0,0,0,0,0l26.9-11.8c1.4-0.6,2-2.2,1.4-3.6c0,0,0,0,0,0l-1.1-2.5C314.4,256.2,312.8,255.6,311.4,256.2
					C311.4,256.2,311.4,256.2,311.4,256.2"/>
				<path id="Tracé_7083" class="st4" d="M269.5,285.9l-9.1-20.8c-0.6-1.4,0-3,1.4-3.6l2.9-1.3c1.4-0.6,3,0,3.6,1.4l9.1,20.8l2.2-1
					l-9.1-20.8c-1.1-2.6-4.1-3.8-6.7-2.6c0,0,0,0,0,0l-2.9,1.3c-2.6,1.1-3.8,4.1-2.6,6.7c0,0,0,0,0,0l9.1,20.8L269.5,285.9z"/>
				<path id="Tracé_7084" class="st5" d="M72,361.3l26.9-11.8c1.4-0.6,3,0,3.6,1.4c0,0,0,0,0,0l1.1,2.5c0.6,1.4,0,3-1.4,3.6
					c0,0,0,0,0,0l-26.9,11.8c-1.4,0.6-3,0-3.6-1.4c0,0,0,0,0,0l-1.1-2.5C70,363.5,70.6,361.9,72,361.3C72,361.3,72,361.3,72,361.3"
					/>
				<path id="Tracé_7085" class="st4" d="M122.3,350.6l-9.1-20.8c-0.6-1.4-2.2-2-3.6-1.4l-2.9,1.3c-1.4,0.6-2,2.2-1.4,3.6l9.1,20.8
					l-2.2,1l-9.1-20.8c-1.1-2.6,0-5.6,2.6-6.7l2.9-1.3c2.6-1.1,5.6,0,6.7,2.6l9.1,20.8L122.3,350.6L122.3,350.6z"/>
				<path id="Tracé_7086" class="st4" d="M200.6,305l-14.5,1.8c-4.4,0.5-7.6,4.6-7.1,9l0,0l5.8,47c0.1,1,1,1.7,2,1.6l27.1-3.3
					c1-0.1,1.7-1,1.6-2l-5.8-47C209.1,307.6,205,304.4,200.6,305L200.6,305z"/>
				<path id="Tracé_7087" class="st5" d="M207.9,357.1l-16.4,2c-1.3,0.2-2.4-0.7-2.6-2l-4.2-33.9c-0.4-3.4,2-6.4,5.3-6.8l8.8-1.1
					c3.4-0.4,6.4,2,6.8,5.3l4.2,33.9C210.1,355.8,209.2,356.9,207.9,357.1 M191.3,356.7l16.2-2l-4.1-33.8c-0.3-2-2.1-3.5-4.1-3.2
					l-8.8,1.1c-2,0.3-3.5,2.1-3.2,4.1L191.3,356.7L191.3,356.7L191.3,356.7z"/>
				<path id="Tracé_7088" class="st7" d="M194.3,314.1c1.8-0.2,3.5,1.1,3.7,2.9s-1.1,3.5-2.9,3.7s-3.5-1.1-3.7-2.9
					C191.2,316,192.5,314.4,194.3,314.1L194.3,314.1"/>
				<path id="Tracé_7089" class="st7" d="M194.8,326.5c0,0,0.2,2.4,0.5,5.7c0.2,1.7,0.4,3.7,0.6,5.7c0.1,1.1,0.3,2.3,0.5,3.4
					c0.7,4.3,1.3,7.9,1.3,7.9c0,0.6,0.5,1.2,1.1,1.2c0.6,0,0.9-0.7,0.8-1.4c0,0-0.3-3.6-0.7-7.9c-0.1-1.1-0.2-2.2-0.4-3.4
					c-0.2-2-0.5-3.9-0.8-5.6c-0.5-3.2-0.9-5.7-0.9-5.7c0-0.6-0.5-1.2-1.1-1.2C195.1,325.2,194.7,325.8,194.8,326.5
					C194.8,326.5,194.8,326.5,194.8,326.5L194.8,326.5z"/>
			</g>
		</g>
		<g id="Groupe_2603">
			<g id="Groupe_2602">
				<path id="Tracé_7781" class="st5" d="M45.8,323.3c0.1-0.1,0.2-0.2,0.2-0.3c0.1-2.5-2.2-4.7-3.6-5.8c-1.3-1-4-3-5.1-2.2
					c-0.8,0.6-0.2,1.9,0.9,3.1c0.1,0.2,0.1,0.4,0,0.6c-0.1,0.1-0.2,0.1-0.4,0.1c-2.9-0.8-9-2.7-10.4-0.4c-1,1.6,1.2,5.9,2.9,7.5
					c1.8,1.6,6.3,1.5,8.8,1.4c0.1,0,3.1-0.2,3.1-0.2L45.8,323.3L45.8,323.3z"/>
				<path id="Tracé_7782" class="st4" d="M84.4,302.8c0,0-14.7,0.3-21.2,13.1c-2.9,5.8-2.4,10.9-5.6,11.4c-1.9,0.3-4.7-1.5-8.4-4.7
					c-0.8-0.7-2.9-2.9-4.7-1.5c-1.8,1.5-3.5,3.1-5.1,4.9c-1.5,1.8-0.4,3,0.5,4.3s8.6,12.3,19.6,10.9c9.9-1.3,11.8-8.9,14.2-13.2
					C76.5,323.3,90.7,309,84.4,302.8L84.4,302.8z"/>
				<path id="Tracé_7783" class="st5" d="M111.3,349.6c-0.1,0-0.3,0.1-0.4,0.2c-1.2,2.2-0.1,5.2,0.7,6.8c0.8,1.5,2.2,4.5,3.6,4.2
					c1-0.2,1-1.6,0.5-3.2c-0.1-0.2,0-0.4,0.3-0.5c0.1,0,0.3,0,0.4,0.1c2.3,1.9,5.8,6.3,8.1,5.5c2.7-0.9,0.9-7.8-1-9.5
					c-3.1-2.9-5.2-1.8-7.6-2.8c0,0,0.2-2.4,0.1-2.4C116,347.9,111.3,349.6,111.3,349.6z"/>
				<path id="Tracé_7784" class="st4" d="M85.9,389.6c0,0-6.2-0.3-10,1.2c-2.9,1.1-4.2,4-4.8,6.2c-0.2,0.6,0,1.3,0.4,1.8
					c0.4,0.5,1.1,0.8,1.7,0.7l11.6-1.4c1.1-0.1,1.9-1.1,1.8-2.3C86.3,393.4,85.9,389.6,85.9,389.6"/>
				<path id="Tracé_7785" class="st4" d="M68,391.8c0,0-6.2-0.3-10,1.2c-2.9,1.1-4.2,4-4.8,6.2c-0.2,0.6,0,1.3,0.4,1.8
					c0.4,0.5,1.1,0.8,1.7,0.7l11.6-1.4c1.1-0.1,1.9-1.1,1.8-2.3C68.4,395.6,67.9,391.8,68,391.8"/>
				<path id="Tracé_7786" class="st7" d="M81.9,366c0,0-3.6,0.4-10.9,2.1c-2.4,0.6-3.1,1.9-3.8,3.6c-0.5,1.6-0.7,3.3-0.5,5
					c0.3,4.9,1.3,11.7,1.7,14.7c0.1,0.9-0.5,1.6-1.3,1.8c0,0,0,0-0.1,0l-9.5,1.1c-0.8,0.1-1.6-0.5-1.7-1.3c-1-6.4-1.6-12.9-1.9-19.4
					c-1-19.3,24.1-20.9,24.1-20.9l16.8-2.1L81.9,366L81.9,366z"/>
				<path id="Tracé_7787" class="st7" d="M87.1,350.8l0.2,1.5c-6.6,2.4-15.7,7.7-15.1,18.8c0.3,6.5,0.9,13,1.9,19.4
					c0.1,0.8,0.9,1.4,1.7,1.3l9.5-1.1c0.9-0.1,1.5-0.9,1.4-1.7c0,0,0,0,0-0.1c-0.4-3-1.4-9.8-1.7-14.7c-0.2-1.7,0-3.4,0.5-5
					c0.7-1.7,1.4-3,3.7-3.6c0.8-0.2,1.5-0.3,2.3-0.5c0.4-0.1,0.9-0.2,1.4-0.3c7-1.3,11.8-7.8,10.9-14.9l-0.6-4.7
					C103.3,345.5,95.8,347.7,87.1,350.8L87.1,350.8z"/>
				<path id="Tracé_7788" class="st4" d="M81.8,354.2l-0.3,0.1l-0.4,0.2l-0.5,0.2c-0.9,0.5-1.8,1-2.7,1.6c-1.2,0.8-2.3,1.9-3.3,3
					c-0.1,0.2-0.3,0.4-0.4,0.5l-0.4,0.6c-0.2,0.4-0.5,0.8-0.7,1.2c-0.6,1.3-1.1,2.8-1.3,4.2l-0.1,0.8c0,0.2,0,0.4,0,0.6l0,0.5
					c0,0.6,0.2,1,0.5,1.1c0.3,0,0.6-0.4,0.6-0.9l0.1-0.5l0.1-0.5l0.1-0.7c0.3-1.3,0.7-2.6,1.3-3.8c0.2-0.3,0.4-0.7,0.6-1l0.4-0.5
					c0.1-0.2,0.2-0.3,0.4-0.5c0.9-1.1,1.8-2,2.9-2.8c0.8-0.6,1.6-1.2,2.5-1.7l0.4-0.3l0.3-0.2l0.3-0.2c0.5-0.2,0.8-0.7,0.7-0.9
					C82.8,354,82.3,354,81.8,354.2L81.8,354.2z"/>
				<path id="Tracé_7789" class="st4" d="M85.9,347.2c0.3,1,0.8,2,1.4,2.9c0.6,0.9,1.3,1.6,2.2,2.2c0.5,0.3,1.1,0.6,1.6,0.8
					c1.4,0.5,2.9,0.6,4.4,0.2c0.3-0.1,0.6,0.1,0.7,0.5c0.1,0.3-0.1,0.6-0.4,0.7c-1.7,0.5-3.4,0.5-5.1,0.1c-0.7-0.2-1.4-0.5-2-1
					c-1-0.7-1.9-1.6-2.5-2.7c-0.6-1-1.1-2.2-1.4-3.4c-0.1-0.3,0.1-0.6,0.4-0.7C85.5,346.7,85.8,346.8,85.9,347.2L85.9,347.2
					L85.9,347.2z"/>
				<path id="Tracé_7790" class="st4" d="M99.1,353l0,0.6c0,0.2,0,0.4,0,0.6c0,0.3,0.2,0.6,0.6,0.7c0.3,0,0.6-0.2,0.7-0.5
					c0,0,0,0,0-0.1c0-0.2,0-0.4,0-0.6l0-0.6c0-0.3-0.3-0.6-0.6-0.6c0,0,0,0-0.1,0C99.4,352.4,99.1,352.7,99.1,353L99.1,353z"/>
				<path id="Tracé_7791" class="st4" d="M98.7,356.4c-0.1,0.3-0.3,0.7-0.5,1c-0.1,0.1-0.1,0.3,0,0.4c0,0.2,0.1,0.3,0.3,0.4
					c0.1,0.1,0.3,0.1,0.5,0.1c0.2,0,0.3-0.2,0.4-0.3c0.2-0.4,0.4-0.8,0.6-1.2c0.1-0.3-0.1-0.7-0.4-0.8S98.8,356.1,98.7,356.4"/>
				<path id="Tracé_7792" class="st4" d="M96.8,359.1c-0.1,0.1-0.3,0.2-0.5,0.3l-0.2,0.2l-0.2,0.1c-0.1,0.1-0.2,0.2-0.3,0.4
					c0,0.2,0,0.3,0,0.5c0.1,0.1,0.2,0.3,0.4,0.3c0.2,0,0.3,0,0.5-0.1l0.3-0.2l0.3-0.2c0.2-0.1,0.4-0.2,0.5-0.4
					c0.3-0.2,0.3-0.6,0.1-0.8c0,0,0,0,0-0.1C97.4,358.9,97.1,358.9,96.8,359.1"/>
				<path id="Tracé_7793" class="st4" d="M93.8,360.6c-0.4,0.1-0.8,0.2-1.1,0.4c-0.3,0.1-0.5,0.4-0.4,0.8c0.1,0.3,0.4,0.5,0.8,0.4
					c0.4-0.1,0.8-0.2,1.2-0.4c0.3-0.1,0.5-0.4,0.4-0.8c0,0,0,0,0,0C94.4,360.7,94.1,360.5,93.8,360.6"/>
				<path id="Tracé_7794" class="st4" d="M90.3,361.7c-0.4,0.1-0.8,0.2-1.2,0.4c-0.3,0.1-0.5,0.4-0.4,0.7c0,0,0,0,0,0
					c0.1,0.3,0.4,0.5,0.8,0.4c0.4-0.1,0.8-0.2,1.1-0.3c0.3-0.1,0.5-0.4,0.4-0.8S90.6,361.6,90.3,361.7L90.3,361.7L90.3,361.7
					L90.3,361.7z"/>
				<path id="Tracé_7795" class="st4" d="M86.8,362.9c-0.2,0.1-0.4,0.2-0.6,0.3c-0.2,0.1-0.4,0.2-0.6,0.3c-0.3,0.2-0.4,0.5-0.2,0.8
					c0,0,0,0,0,0c0.2,0.3,0.5,0.4,0.8,0.2c0.2-0.1,0.3-0.2,0.5-0.3c0.2-0.1,0.3-0.2,0.5-0.3c0.3-0.1,0.4-0.5,0.3-0.8
					C87.5,362.9,87.1,362.8,86.8,362.9C86.8,362.9,86.8,362.9,86.8,362.9"/>
				<path id="Tracé_7796" class="st4" d="M83.6,365.2c-0.1,0.2-0.3,0.3-0.4,0.5l-0.4,0.5c-0.1,0.1-0.1,0.3-0.1,0.5
					c0,0.2,0.2,0.3,0.3,0.4c0.1,0.1,0.3,0.1,0.5,0.1c0.1,0,0.3-0.1,0.4-0.3l0.3-0.5l0.4-0.4c0.1-0.1,0.1-0.3,0.1-0.4
					c0-0.2-0.1-0.3-0.2-0.4c-0.1-0.1-0.3-0.2-0.4-0.2C83.9,364.9,83.7,365,83.6,365.2L83.6,365.2z"/>
				<path id="Tracé_7797" class="st4" d="M81.8,368.6c0,0.2-0.1,0.4-0.1,0.7c0,0.2-0.1,0.4-0.1,0.6c0,0.3,0.2,0.6,0.5,0.7
					c0,0,0,0,0,0c0.3,0,0.6-0.2,0.7-0.6c0-0.2,0-0.4,0.1-0.6c0-0.2,0-0.4,0.1-0.5c0-0.1,0-0.3-0.1-0.4c-0.1-0.1-0.2-0.2-0.4-0.3
					c-0.2-0.1-0.3,0-0.5,0C82,368.3,81.8,368.5,81.8,368.6L81.8,368.6z"/>
				<path id="Tracé_7798" class="st4" d="M81.6,372.4c0,0.4,0,0.8,0,1.2c0,0.3,0.3,0.6,0.6,0.6c0,0,0,0,0,0c0.3,0,0.6-0.3,0.6-0.6
					c0-0.4,0-0.8,0-1.2c0-0.3-0.3-0.6-0.6-0.6C81.9,371.8,81.6,372,81.6,372.4C81.6,372.4,81.6,372.4,81.6,372.4L81.6,372.4z"/>
				<path id="Tracé_7799" class="st4" d="M81.7,376.1l0.1,1.2c0,0.3,0.3,0.6,0.7,0.6s0.6-0.3,0.6-0.7l0,0l-0.1-1.2
					c0-0.3-0.3-0.6-0.7-0.6C82,375.5,81.7,375.7,81.7,376.1C81.7,376.1,81.7,376.1,81.7,376.1z"/>
				<path id="Tracé_7800" class="st4" d="M82,379.7l0.1,1.2c0,0.3,0.3,0.6,0.7,0.6c0.3,0,0.6-0.3,0.6-0.7l-0.1-1.2
					c0-0.3-0.3-0.6-0.7-0.6C82.2,379.1,82,379.4,82,379.7L82,379.7L82,379.7z"/>
				<path id="Tracé_7801" class="st4" d="M82.4,383.4l0.1,1.2c0,0.3,0.3,0.6,0.7,0.5c0,0,0,0,0,0c0.3,0,0.6-0.3,0.5-0.7l-0.1-1.2
					c-0.1-0.3-0.4-0.6-0.7-0.5C82.6,382.8,82.4,383.1,82.4,383.4L82.4,383.4z"/>
				<path id="Tracé_7802" class="st4" d="M82.9,387l0.2,1.2c0.1,0.3,0.4,0.6,0.7,0.5c0.3-0.1,0.6-0.4,0.5-0.7l-0.2-1.2
					c0-0.3-0.4-0.6-0.7-0.5C83,386.4,82.8,386.7,82.9,387C82.9,387,82.9,387,82.9,387z"/>
				<path id="Tracé_7803" class="st4" d="M69.2,365c-0.4,0.2-0.8,0.3-1.2,0.6c-0.3,0.2-0.4,0.5-0.3,0.8c0,0,0,0,0,0.1
					c0.2,0.3,0.5,0.4,0.8,0.2c0.3-0.2,0.7-0.4,1-0.5c0.3-0.1,0.5-0.5,0.4-0.8C69.9,365,69.5,364.9,69.2,365
					C69.2,365,69.2,365,69.2,365"/>
				<path id="Tracé_7804" class="st4" d="M65.8,367.1c-0.2,0.1-0.3,0.3-0.5,0.5c-0.2,0.2-0.3,0.3-0.4,0.5c-0.2,0.2-0.2,0.6,0.1,0.8
					c0,0,0,0,0.1,0.1c0.3,0.2,0.6,0.1,0.8-0.1c0.2-0.3,0.5-0.6,0.8-0.8c0.2-0.2,0.3-0.6,0-0.9C66.5,366.9,66.1,366.9,65.8,367.1
					C65.9,367.1,65.9,367.1,65.8,367.1"/>
				<path id="Tracé_7805" class="st4" d="M63.7,370.5c-0.1,0.4-0.2,0.8-0.3,1.3c-0.1,0.3,0.1,0.6,0.4,0.7c0,0,0,0,0.1,0
					c0.3,0.1,0.6-0.2,0.7-0.5c0.1-0.4,0.2-0.8,0.3-1.1c0.1-0.3-0.1-0.7-0.4-0.8C64.2,370,63.9,370.2,63.7,370.5
					C63.8,370.5,63.7,370.5,63.7,370.5"/>
				<path id="Tracé_7806" class="st4" d="M63.1,374.3c0,0.4,0,0.8,0,1.3c0,0.3,0.3,0.6,0.6,0.6c0,0,0,0,0,0c0.3,0,0.6-0.3,0.6-0.6
					c0-0.4,0-0.8,0-1.2c0-0.3-0.2-0.6-0.6-0.7C63.4,373.7,63.1,374,63.1,374.3C63.1,374.3,63.1,374.3,63.1,374.3z"/>
				<path id="Tracé_7807" class="st4" d="M63.1,378.1c0,0.4,0,0.8,0.1,1.3c0,0.3,0.3,0.6,0.7,0.6s0.6-0.3,0.6-0.7
					c0-0.4-0.1-0.8-0.1-1.2c0-0.3-0.3-0.6-0.6-0.6C63.4,377.5,63.1,377.8,63.1,378.1C63.1,378.1,63.1,378.1,63.1,378.1"/>
				<path id="Tracé_7808" class="st4" d="M63.4,381.9l0.2,1.2c0,0.3,0.4,0.6,0.7,0.5c0.3,0,0.6-0.4,0.5-0.7l0,0l-0.2-1.2
					c0-0.3-0.3-0.6-0.7-0.5S63.4,381.6,63.4,381.9"/>
				<path id="Tracé_7809" class="st4" d="M63.9,385.6l0.2,1.2c0,0.3,0.3,0.6,0.7,0.5c0.3,0,0.6-0.3,0.5-0.7c0,0,0,0,0-0.1l-0.2-1.2
					c-0.1-0.3-0.4-0.6-0.7-0.5S63.9,385.3,63.9,385.6z"/>
				<path id="Tracé_7810" class="st4" d="M64.5,389.3l0.2,1.2c0,0.3,0.3,0.6,0.7,0.5s0.6-0.3,0.5-0.7c0,0,0,0,0-0.1l-0.2-1.2
					c-0.1-0.3-0.4-0.6-0.7-0.5C64.7,388.7,64.4,389,64.5,389.3C64.5,389.3,64.5,389.3,64.5,389.3z"/>
				<path id="Tracé_7811" class="st7" d="M62.5,333.6c-1.3-0.8-2.3-2.1-2.8-3.5c-0.4-1.1-1-2.1-1.7-2.9c-0.1,0-0.2,0.1-0.3,0.1
					c-0.6,0.1-1.2,0-1.7-0.2c-0.3-0.1-0.6-0.2-0.9-0.3c0.1,0.2,0.3,0.3,0.4,0.5c1.1,0.9,2,2,2.5,3.3c0.7,1.8,1.9,3.4,3.5,4.4
					c1.5,1.2,3.4,1.8,5.3,1.9c0.4,0,0.9,0.1,1.3,0.2l0,0c0.2-0.2,0.4-0.5,0.6-0.7l0.1-0.1l0,0c0.2-0.2,0.4-0.5,0.6-0.7
					c-0.9-0.3-1.8-0.5-2.7-0.5C65.1,335,63.7,334.5,62.5,333.6"/>
				<path id="Tracé_7812" class="st7" d="M65.5,326.3c-1.2-0.7-2.1-1.8-2.7-3.1c-0.4-0.9-0.9-1.7-1.5-2.5c-0.4,1.5-0.8,2.8-1.2,3.9
					c0.8,1.7,2.1,3.1,3.7,4.2c1.7,1.2,3.7,1.8,5.8,1.8c0.8,0,1.7,0.1,2.4,0.5l0,0c0.1-0.2,0.2-0.4,0.3-0.7c0.2-0.5,0.5-0.9,0.7-1.4
					l0-0.1c0.1-0.2,0.2-0.4,0.3-0.6c-1.2-0.6-2.6-0.8-4-0.8C68,327.6,66.6,327.1,65.5,326.3"/>
				<path id="Tracé_7813" class="st4" d="M86.5,302.5c-5.3,0.1-10.6,1.7-15.1,4.6c-5.7,3.6-6,8.4-5.6,17c0,0,1.3,13.5,4.1,27.8
					c0.1,1.1,1,1.9,2.2,2c5.2-0.2,15.6-1.6,30.7-4.3c1.2-0.3,1.9-1.4,1.6-2.6c0,0,0,0,0,0c-0.6-5.2-1.6-13.3-2.5-19.8
					c0.8,1.2,1.6,2.5,2.4,3.8c4.2,6.8,3.9,12.9,4.8,18.3c0.3,1.8,0.7,3.6,3,3.5c1.8-0.1,3.7-0.3,5.5-0.7c3-0.4,3.4-2.9,3.2-4.7
					c-1.2-15.5-3.7-22.6-8.1-29.1C112.5,317.9,103.7,301.9,86.5,302.5z"/>
				<path id="Tracé_7814" class="st7" d="M112.5,328.8c1.5-0.3,3.1,0,4.4,0.6c0.4,0.2,0.9,0.4,1.3,0.5c-0.2-0.8-0.5-1.5-0.7-2.3
					c-1.7-0.7-3.5-1-5.3-0.7c-1.9,0.2-3.7,1-5.2,2.3c-0.8,0.7-1.8,1.2-2.8,1.5c0.1,0.1,0.1,0.2,0.2,0.3c0.3,0.4,0.5,0.9,0.8,1.3
					c1.2-0.4,2.3-1,3.2-1.8C109.5,329.6,110.9,328.9,112.5,328.8L112.5,328.8z"/>
				<path id="Tracé_7815" class="st0" d="M67.9,337c0,0-0.2-1.8-0.4-4.4c-0.1-1.3-0.2-2.8-0.3-4.3c0-0.9-0.1-1.8-0.1-2.6
					c0-1.7,0-3.2,0.1-4.3s0.1-1.8,0.1-1.8c0.1-0.6-0.1-1-0.3-1.1c-0.2,0-0.5,0.4-0.5,1c0,0-0.1,0.7-0.2,1.8s-0.2,2.7-0.3,4.3
					c0,0.9,0,1.7,0,2.7c0.1,1.5,0.2,3.1,0.3,4.4c0.3,2.5,0.6,4.4,0.6,4.4c0.1,0.6,0.3,1,0.5,1C67.9,338,68,337.5,67.9,337"/>
				<path id="Tracé_7816" class="st7" d="M113,318.5c-0.5,0-1,0-1.5,0.1c-2,0.2-4,1.1-5.5,2.4c-1.1,0.9-2.4,1.5-3.8,1.6
					c-1.2,0.2-2.5,0.1-3.6-0.3l0,0c-0.5-0.3-1-0.5-1.6-0.6l3.5,4.3c0.4,0,0.8,0,1.3,0c2.3-0.2,4.5-1.2,6.3-2.8
					c1.1-0.9,2.4-1.5,3.8-1.6c1-0.2,2.1-0.1,3.1,0.2C114.4,320.7,113.7,319.6,113,318.5L113,318.5z"/>
				<path id="Tracé_7817" class="st0" d="M102.5,327.9c0,0-0.6-1-1.4-2.3c-0.5-0.7-1-1.5-1.6-2.2c-0.3-0.4-0.7-0.9-1.1-1.3
					c-0.6-0.7-1.3-1.3-1.9-1.9l-0.8-0.7c-0.3-0.3-0.6-0.3-0.7-0.1c-0.2,0.2-0.1,0.5,0.2,0.7l0.8,0.8c0.5,0.5,1.1,1.2,1.7,1.9l1,1.3
					c0.6,0.7,1.1,1.5,1.6,2.1c0.9,1.3,1.6,2.2,1.6,2.2c0.2,0.3,0.5,0.4,0.7,0.3C102.7,328.5,102.7,328.1,102.5,327.9"/>
				<path id="Tracé_7818" class="st5" d="M92.4,299c0.5-0.2,1.6-2.7,1.7-4.4c0.4-5.9-0.1-11.7-1.5-17.4
					c-1.9-6.6-8.1-10.9-14.9-10.3c-0.2,0,0.2,0,0,0c-7.5,1.1-13.3,6.6-12.3,14.1c0.7,5.4,1.8,10.7,3.3,16c1.3,4.1,4.4,5,5.1,5.1
					c0,0,0.1,1.3,0.2,2.1c0.1,0.5,0.5,1,1.1,1c5.7,0,11.3-0.7,16.8-2.1c0.6-0.1,0.9-0.7,0.9-1.2L92.4,299L92.4,299z"/>
				<path id="Tracé_7819" class="st4" d="M70.1,286.5c0.1,0.3,0.2,0.6,0.2,0.9c0,0.3,0,0.6,0,1c0.1,0.6-0.3,1.1-0.9,1.1
					s-1.1-0.3-1.1-0.9c-0.1-0.3-0.2-0.6-0.2-0.9c0-0.3,0-0.6,0-1c-0.1-0.6,0.3-1.1,0.9-1.2C69.5,285.6,70,285.9,70.1,286.5
					L70.1,286.5L70.1,286.5L70.1,286.5z"/>
				<path id="Tracé_7820" class="st4" d="M80.5,285.2c0.1,0.3,0.2,0.6,0.2,0.9c0,0.3,0,0.6,0,1c0.1,0.6-0.3,1.1-0.9,1.1
					c-0.5,0.1-1-0.3-1.1-0.8l0,0c-0.1-0.3-0.2-0.6-0.2-0.9c0-0.3,0-0.6,0-1c-0.1-0.6,0.3-1.1,0.9-1.1S80.4,284.6,80.5,285.2
					L80.5,285.2"/>
				<path id="Tracé_7821" class="st4" d="M75.6,296.7c-1.2,0.1-2.4-0.5-3-1.5c-0.1-0.5,0.3-0.9,0.7-1h0l0,0c0,0,0.6-0.2,1.4-0.4
					c0.2-0.1,0.4-0.1,0.6-0.1c0.4,0,0.7,0,1.1,0c0.6,0,1.1,0.1,1.1,0.1c0.5-0.1,0.9,0.3,1,0.7l0,0C78.6,294.9,77.4,296.4,75.6,296.7
					"/>
				<path id="Tracé_7822" class="st4" d="M58.5,273.6c-0.2-2.2,0.4-4.4,1.8-6.2c0.2-0.2,0.3-0.5,0.4-0.7c1.8-4.8,7.1-7.2,11.9-5.4
					c1,0.4,1.9,0.9,2.7,1.6c0.5,0.5,1.3,0.7,1.9,0.5c0.3-0.1,0.6-0.1,1-0.2c4.5-0.5,7.8,0.6,9.9,3.2c0.4,0.5,0.9,0.7,1.5,0.8
					c1.7,0.2,2.9,1.8,3.5,2.8c2.3,4.4,2.5,12.7,2.5,12.7l0,0c0.3,2.9-0.2,5.8-1.4,8.5c-1.3-0.4-2.4-1.3-3.1-2.4
					c-0.1-0.1-0.1-0.2-0.2-0.3c-0.1-0.2-0.1-0.4-0.2-0.7c-0.3-2.2,0.3-4.8-0.5-5.9c-0.2-0.3-0.6-0.5-1.1-0.5c-0.3,0-0.5,0-0.8,0.1
					c-1,0.5-1,2.1-0.5,3.5c0.8,2.4-3,2.8-2.8,0.1c0.3-3.3-0.2-7-2.1-8.9c-1.5,0.8-3.1,1.2-4.8,1.1c-1.3-0.2-2.6-0.2-3.9-0.2
					c-1.8,0-3.6,0.4-5.2,1.3c-1.2,0.7-2.4,1.2-3.8,1.3l0,0.6c0,0.7,0.1,1.3,0.2,2l0.1,0.5c0,0-0.4,0-0.6-0.1
					C61.5,282.3,58.8,277.8,58.5,273.6z"/>
				<path id="Tracé_7823" class="st4" d="M75,301.8c0,0,0.3-0.1,0.9-0.1c0.4,0,0.8-0.1,1.3-0.1c0.4,0,0.9,0,1.4,0
					c0.3,0,0.6,0,0.9,0.1c0.4-0.1,0.8,0.2,0.8,0.6c0.1,0.4-0.2,0.7-0.5,0.8c-0.3,0.1-0.6,0.3-1,0.4c-0.5,0.2-1,0.3-1.5,0.3
					c-0.5,0-1,0-1.5-0.1c-0.3-0.1-0.7-0.2-1-0.3c-0.4-0.1-0.7-0.4-0.6-0.8l0,0C74.2,302.1,74.5,301.8,75,301.8
					C74.9,301.8,74.9,301.8,75,301.8C75,301.8,75,301.8,75,301.8C75,301.8,75,301.8,75,301.8z"/>
			</g>
		</g>
		<g id="Groupe_2654">
			<g id="Groupe_2605">
				<g id="Groupe_2604">
					<path id="Tracé_7824" class="st5" d="M329.4,143.5c-0.1,0-0.2,0-0.3-0.1c-1.3-1.6-0.9-4.2-0.5-5.6c0.4-1.4,1.1-4,2.3-4
						c0.8,0,1.1,1.1,0.9,2.5c0,0.2,0.1,0.3,0.3,0.4c0.1,0,0.2,0,0.3-0.1c1.5-1.9,4.7-6.3,6.7-5.5c1.5,0.6,2.1,4.5,1.8,6.4
						c-0.4,2-3.4,4.1-5.2,5.3C335.6,142.8,329.4,143.5,329.4,143.5"/>
					<path id="Tracé_7825" class="st5" d="M271.9,157.6c0.1,0,0.2-0.1,0.2-0.2c0.5-2-1-4.2-1.9-5.3c-0.9-1.1-2.5-3.2-3.7-2.7
						c-0.8,0.3-0.5,1.5,0.2,2.7c0.1,0.2,0,0.4-0.1,0.4c-0.1,0.1-0.2,0.1-0.3,0c-2.2-1.1-7.1-4.3-8.6-1.9c-0.3,0.5-0.5,4.2,1.1,5.6
						c0.7,0.6,1.5,1.1,2.4,1.4c1.6,0.8,3.3,1.3,5.1,1.2L271.9,157.6L271.9,157.6z"/>
					<path id="Tracé_7826" class="st4" d="M295.1,233.9c0,0,2.8,4.3,3.3,7.7c0.4,2.5-1.1,4.7-2.4,6c-0.4,0.4-1,0.6-1.5,0.5
						c-0.5-0.1-1-0.5-1.2-1l-3.8-8.9c-0.4-0.9,0-1.8,0.9-2.2C292.2,235.1,295.1,233.9,295.1,233.9"/>
					<path id="Tracé_7827" class="st4" d="M275.9,210.1c0,0-1.7,4.8-4.2,7.3c-1.8,1.8-4.4,1.9-6.3,1.7c-0.5-0.1-1-0.4-1.3-0.9
						c-0.2-0.5-0.2-1.1,0-1.6l4.8-8.4c0.5-0.8,1.5-1.1,2.3-0.6C273.1,208.5,275.9,210.1,275.9,210.1"/>
					<path id="Tracé_7828" class="st7" d="M297.6,225.8c-9.8,2.6-20.9-3.7-25.2-6.5c-1.1-0.7-1.4-2.1-0.8-3.3l2.5-4.5
						c0.7-1.2,2.1-1.6,3.3-1c3.4,1.8,10.2,4.9,15.3,4.6c2.7-0.2,3.4-3.1,3.5-4.8c0.2-2.7-0.1-5.4-0.9-8c-0.2-0.8,0.2-1.6,1-1.8
						c0.1,0,0.1,0,0.2,0l26.2-3.7c0.8-0.1,1.5,0.4,1.6,1.2c0,0,0,0,0,0c0.7,5.3,0.9,10.7,0.4,16c-1.2,9.5-3.5,12.7-6.1,16.1
						c-1.6,2.1-3.5,4-5.7,5.5c-3.8,2.8-7.9,5.2-12.2,7.1c-1.2,0.5-2.6,0-3.2-1.1l-2.9-5.6c-0.6-1.2-0.2-2.7,1.1-3.3c0,0,0,0,0,0
						c3.2-1.7,9.2-5.2,12.7-9.8c2.1-3,3.3-6.5,3.4-10.1c0.1-0.8-0.5-1.5-1.3-1.5c-0.7-0.1-1.4,0.5-1.5,1.2
						C308.1,217.3,304.7,223.9,297.6,225.8"/>
					<path id="Tracé_7829" class="st4" d="M265.7,158c1.1-0.8,3.7-2.4,4.9-3.2s1.8-0.4,2.5,0.7c1.3,2,2,3.8,5.1,6.3
						c4.2,3.4,9.4,4.6,14.1,4.8c2.6,0.1,5.3-0.2,7.7-1.1c3.2-1,6.6-1.5,10-1.7c1.6-0.1,3.1-0.5,4.5-1.3c3.5-1.9,8-5.4,10.2-10.9
						c2.3-5.9,2.5-7.5,2.7-9.2c0.2-1.6,0.6-1.8,2.1-1.5c2,0.3,3.9,0.7,5.8,1.3c1.3,0.5,1.2,1.3,1.2,3.2c0,1.8-0.1,18.5-14.1,28.8
						c0.3,1.3,0.6,2.6,0.8,3.9c1.4,7,2.1,14.2,2,21.4c0,0.9-0.7,1.7-1.5,1.9c-4.2,0.9-16.4,3.3-27.7,1.1c-0.8-0.2-1.3-1-1.3-1.8
						c0-4-0.4-15.9-2.4-19.3c-17.2-4-24.5-13.4-27.1-19.5C264.5,159.9,264.5,158.9,265.7,158"/>
					<path id="Tracé_7830" class="st4" d="M303,202.3c-0.1,0.9-0.3,1.8-0.7,2.6c-0.3,0.8-0.8,1.6-1.4,2.2c-0.4,0.4-0.7,0.7-1.2,1
						c-1.1,0.6-2.3,1-3.5,1c-0.3,0-0.5,0.2-0.5,0.5c0,0.3,0.2,0.5,0.5,0.5c1.4,0.1,2.9-0.2,4.2-0.9c0.6-0.3,1.1-0.7,1.5-1.2
						c0.7-0.8,1.2-1.7,1.5-2.6c0.3-1,0.5-2,0.5-3c0-0.3-0.2-0.5-0.5-0.5C303.2,201.8,303,202,303,202.3"/>
					<path id="Tracé_7831" class="st4" d="M320.1,201.8c0.1,1.1,0.3,2.2,0.6,3.2c0.1,0.4,0.3,0.8,0.5,1.3c0.1,0.3,0.3,0.5,0.4,0.8
						c0.6,1.3,2,2,3.4,1.9c0.3,0,0.5-0.3,0.4-0.5s-0.3-0.5-0.5-0.4c-1,0-1.9-0.7-2.2-1.6c-0.1-0.2-0.2-0.5-0.3-0.7
						c-0.2-0.4-0.3-0.7-0.5-1.1c-0.4-1-0.7-1.9-0.9-2.9c0-0.2-0.3-0.4-0.5-0.4c0,0,0,0,0,0C320.3,201.4,320.1,201.6,320.1,201.8"/>
					<path id="Tracé_7832" class="st4" d="M300.1,211.9c0,0.2,0,0.4-0.1,0.5s-0.1,0.4-0.1,0.5c0,0.3-0.3,0.5-0.6,0.4c0,0,0,0,0,0
						c-0.3-0.1-0.4-0.3-0.4-0.6c0-0.2,0.1-0.3,0.1-0.5s0.1-0.3,0.1-0.5c0-0.3,0.3-0.5,0.5-0.5C299.9,211.3,300.2,211.6,300.1,211.9
						C300.1,211.9,300.1,211.9,300.1,211.9"/>
					<path id="Tracé_7833" class="st4" d="M299.3,215l-0.2,0.5l-0.3,0.5c-0.1,0.2-0.4,0.3-0.7,0.2c0,0,0,0,0,0
						c-0.2-0.2-0.3-0.5-0.2-0.7l0.2-0.4l0.2-0.4c0.1-0.3,0.4-0.4,0.7-0.3C299.3,214.5,299.4,214.7,299.3,215
						C299.3,215,299.3,215,299.3,215"/>
					<path id="Tracé_7834" class="st4" d="M297.4,217.7c-0.1,0.1-0.3,0.2-0.4,0.4s-0.3,0.2-0.5,0.3c-0.2,0.2-0.6,0.1-0.7-0.2
						c0,0,0,0,0,0c-0.1-0.2-0.1-0.5,0.2-0.7c0.1-0.1,0.3-0.2,0.4-0.3s0.2-0.2,0.4-0.3c0.2-0.2,0.5-0.2,0.7,0
						C297.6,217.2,297.6,217.5,297.4,217.7C297.4,217.7,297.4,217.7,297.4,217.7"/>
					<path id="Tracé_7835" class="st4" d="M294.5,219.2c-0.1,0-0.2,0.1-0.3,0.1l-0.3,0l-0.5,0.1c-0.3,0-0.5-0.2-0.6-0.4
						c0,0,0,0,0,0c0-0.3,0.2-0.5,0.4-0.6l0.5-0.1l0.2,0c0.1,0,0.2,0,0.2-0.1c0.3-0.1,0.5,0.1,0.6,0.4
						C294.9,218.9,294.8,219.2,294.5,219.2C294.5,219.2,294.5,219.2,294.5,219.2"/>
					<path id="Tracé_7836" class="st4" d="M291.2,219.5c-0.2,0-0.4,0-0.5,0l-0.5-0.1c-0.3,0-0.5-0.3-0.5-0.5c0,0,0,0,0,0
						c0-0.3,0.3-0.5,0.6-0.4l0.5,0.1c0.2,0,0.3,0,0.5,0c0.3,0,0.5,0.2,0.5,0.5C291.8,219.3,291.6,219.5,291.2,219.5
						C291.3,219.5,291.3,219.5,291.2,219.5"/>
					<path id="Tracé_7837" class="st4" d="M288.1,219.1l-1-0.2c-0.3-0.1-0.4-0.4-0.4-0.6c0.1-0.3,0.4-0.4,0.6-0.4l1,0.2
						c0.3,0.1,0.5,0.3,0.4,0.6C288.6,219,288.4,219.2,288.1,219.1L288.1,219.1"/>
					<path id="Tracé_7838" class="st4" d="M285.1,218.2c-0.3-0.1-0.7-0.2-1-0.4c-0.3-0.1-0.4-0.4-0.3-0.6c0,0,0,0,0,0
						c0.1-0.3,0.4-0.4,0.7-0.3c0.3,0.1,0.6,0.2,1,0.3c0.3,0.1,0.4,0.4,0.3,0.6C285.6,218.2,285.3,218.3,285.1,218.2
						C285.1,218.2,285.1,218.2,285.1,218.2"/>
					<path id="Tracé_7839" class="st4" d="M282.1,217.1c-0.3-0.1-0.6-0.3-1-0.4c-0.3-0.1-0.4-0.4-0.3-0.7c0,0,0,0,0,0
						c0.1-0.3,0.4-0.4,0.7-0.2c0.3,0.1,0.6,0.3,0.9,0.4c0.3,0.1,0.4,0.4,0.3,0.7C282.7,217.1,282.4,217.2,282.1,217.1
						C282.1,217.1,282.1,217.1,282.1,217.1"/>
					<path id="Tracé_7840" class="st4" d="M279.3,215.8c-0.3-0.2-0.6-0.3-0.9-0.5c-0.3-0.1-0.3-0.4-0.2-0.7c0,0,0,0,0,0
						c0.1-0.2,0.4-0.3,0.7-0.2c0.3,0.2,0.6,0.3,0.9,0.5c0.3,0.1,0.4,0.4,0.2,0.7C279.9,215.8,279.6,215.9,279.3,215.8"/>
					<path id="Tracé_7841" class="st4" d="M276.5,214.3l-0.9-0.5c-0.2-0.1-0.3-0.5-0.2-0.7c0,0,0,0,0,0c0.1-0.2,0.5-0.3,0.7-0.2
						l0.9,0.5c0.2,0.1,0.3,0.4,0.2,0.7S276.8,214.5,276.5,214.3C276.6,214.3,276.5,214.3,276.5,214.3"/>
					<path id="Tracé_7842" class="st4" d="M315.8,214.9c-0.1,0.3-0.1,0.7-0.2,1c0,0.3-0.3,0.5-0.6,0.4c0,0,0,0,0,0
						c-0.3-0.1-0.5-0.3-0.4-0.6c0.1-0.3,0.1-0.7,0.2-1c0-0.3,0.3-0.5,0.6-0.4C315.7,214.3,315.9,214.5,315.8,214.9
						C315.8,214.8,315.8,214.8,315.8,214.9"/>
					<path id="Tracé_7843" class="st4" d="M315.1,217.9c-0.1,0.3-0.2,0.7-0.3,1c-0.1,0.3-0.4,0.4-0.6,0.3c0,0,0,0,0,0
						c-0.3-0.1-0.4-0.4-0.3-0.6c0.1-0.3,0.2-0.6,0.3-1c0.1-0.3,0.4-0.4,0.6-0.3C315.1,217.4,315.2,217.6,315.1,217.9
						C315.1,217.9,315.1,217.9,315.1,217.9"/>
					<path id="Tracé_7844" class="st4" d="M314.1,220.9c-0.1,0.3-0.3,0.6-0.4,0.9c-0.1,0.3-0.4,0.4-0.7,0.2c0,0,0,0,0,0
						c-0.2-0.1-0.4-0.4-0.2-0.7c0,0,0,0,0,0c0.1-0.3,0.3-0.6,0.4-0.9c0.1-0.3,0.4-0.4,0.7-0.3C314.1,220.3,314.2,220.6,314.1,220.9
						C314.1,220.8,314.1,220.9,314.1,220.9"/>
					<path id="Tracé_7845" class="st4" d="M312.7,223.7c-0.2,0.3-0.3,0.6-0.5,0.9c-0.1,0.2-0.5,0.3-0.7,0.2c0,0,0,0,0,0
						c-0.2-0.1-0.3-0.5-0.2-0.7c0,0,0,0,0,0c0.2-0.3,0.3-0.6,0.5-0.9c0.1-0.2,0.5-0.3,0.7-0.2C312.7,223.1,312.8,223.4,312.7,223.7
						C312.7,223.6,312.7,223.7,312.7,223.7"/>
					<path id="Tracé_7846" class="st4" d="M311,226.3l-0.6,0.8c-0.2,0.2-0.5,0.3-0.7,0.1c0,0,0,0,0,0c-0.2-0.2-0.3-0.5-0.1-0.7
						l0.6-0.8c0.2-0.2,0.5-0.3,0.7-0.1C311.1,225.7,311.2,226,311,226.3C311,226.3,311,226.3,311,226.3"/>
					<path id="Tracé_7847" class="st4" d="M309,228.7c-0.2,0.2-0.5,0.5-0.8,0.7c-0.2,0.2-0.5,0.2-0.7,0c0,0,0,0,0,0
						c-0.2-0.2-0.2-0.5,0-0.7c0.3-0.2,0.5-0.5,0.7-0.7c0.2-0.2,0.5-0.2,0.7,0C309.2,228.2,309.2,228.5,309,228.7
						C309,228.7,309,228.7,309,228.7"/>
					<path id="Tracé_7848" class="st4" d="M306.7,230.8c-0.3,0.2-0.5,0.4-0.8,0.6c-0.2,0.2-0.5,0.1-0.7-0.1c0,0,0,0,0,0
						c-0.2-0.2-0.1-0.5,0.1-0.7c0.3-0.2,0.5-0.4,0.8-0.6c0.2-0.2,0.5-0.1,0.7,0.1C306.9,230.3,306.9,230.6,306.7,230.8
						C306.7,230.8,306.7,230.8,306.7,230.8"/>
					<path id="Tracé_7849" class="st4" d="M304.1,232.6c-0.3,0.2-0.6,0.4-0.9,0.6c-0.2,0.1-0.6,0.1-0.7-0.2s-0.1-0.6,0.2-0.7
						c0.3-0.2,0.6-0.4,0.9-0.5c0.2-0.2,0.6-0.1,0.7,0.2C304.4,232.1,304.4,232.4,304.1,232.6C304.1,232.6,304.1,232.6,304.1,232.6"
						/>
					<path id="Tracé_7850" class="st4" d="M301.5,234.2l-0.9,0.5c-0.2,0.1-0.6,0-0.7-0.2s0-0.6,0.2-0.7l0.9-0.5
						c0.2-0.2,0.6-0.1,0.7,0.1S301.7,234,301.5,234.2C301.5,234.2,301.5,234.2,301.5,234.2"/>
					<path id="Tracé_7851" class="st4" d="M298.7,235.7c-0.3,0.2-0.6,0.3-0.9,0.5c-0.3,0.1-0.6,0-0.7-0.2c-0.1-0.2,0-0.5,0.2-0.7
						c0.3-0.2,0.6-0.3,0.9-0.5c0.2-0.1,0.6,0,0.7,0.2C299.1,235.2,299,235.5,298.7,235.7C298.7,235.7,298.7,235.7,298.7,235.7"/>
					<path id="Tracé_7852" class="st4" d="M312,211.2c0.5,0,1,0,1.5,0l1.9-0.1c0.3,0,0.5,0.2,0.5,0.5c0.1,0.4-0.1,0.7-0.4,0.7
						c0,0-0.8,0.2-2,0.4c-0.5,0.1-1.1,0.1-1.7,0.2C312,212.2,312,211.7,312,211.2"/>
					<path id="Tracé_7853" class="st7" d="M279.6,176.7c-0.6-0.3-1.9-1.1-2.1-1.2c-0.4-1.3-0.5-2.7-0.2-4.1
						c0.2-1.6,0.9-3.1,2.1-4.2c0.8-1,1.4-2.1,1.7-3.4c0.4,0.2,0.9,0.5,1.4,0.7c-0.4,1.4-1.1,2.7-2,3.8c-1.7,2-2.2,4.7-1.2,7.1
						C279.3,175.8,279.5,176.2,279.6,176.7"/>
					<path id="Tracé_7854" class="st7" d="M283.3,177c-1.3-3.2-0.7-6.9,1.7-9.5c0.5-0.5,0.8-1.1,1.1-1.7c0.8,0.2,1.6,0.4,2.5,0.5
						c-0.4,1.1-1,2.2-1.8,3.1c-0.8,0.9-1.3,1.9-1.4,3.1c-0.3,1.1-0.1,2.3,0.3,3.4c0.5,1.2,0.8,2.5,0.7,3.8c-0.9-0.3-1.7-0.6-2.5-1
						C283.7,178.1,283.6,177.5,283.3,177"/>
					<path id="Tracé_7855" class="st7" d="M323.2,159.3c-0.6-0.6-1.4-1.1-2.3-1.4c0.6-0.7,1.1-1.3,1.7-2c0.9,0.4,1.7,1,2.4,1.7
						c1.3,1.2,2.2,2.7,2.5,4.4c0.3,1.1,0.9,2.1,1.8,2.9c0.4,0.4,0.8,0.7,1.3,1c-0.4,0.7-0.9,1.4-1.5,2.1c-0.6-0.4-1.1-0.8-1.6-1.2
						c-1.3-1.2-2.2-2.7-2.5-4.3C324.7,161.1,324.1,160.1,323.2,159.3"/>
					<path id="Tracé_7856" class="st7" d="M328.8,153.5c1.2,1.1,2,2.5,2.4,4.1c0.3,1.3,1,2.4,2,3.3l0,0c-0.2,0.5-0.4,1-0.7,1.4
						c-0.2-0.1-0.4-0.3-0.5-0.5c-1.2-1.1-2-2.5-2.4-4.1c-0.7-2.5-2.7-4.4-5.2-5l-0.1,0c0.1-0.3,0.3-0.6,0.4-0.9
						c0.1-0.2,0.1-0.3,0.2-0.5C326.4,151.7,327.7,152.4,328.8,153.5"/>
					<path id="Tracé_7857" class="st0" d="M321.5,170.2c0,0,0.3,0.5,0.7,1.1c0.2,0.3,0.4,0.7,0.6,1.2c0.1,0.2,0.2,0.5,0.3,0.8
						c0.1,0.4,0.3,0.8,0.3,1.3c0.1,0.3,0.1,0.5,0.1,0.5c0,0.2-0.1,0.3-0.4,0.4c-0.3,0.1-0.5,0-0.5-0.2c0,0-0.1-0.2-0.2-0.5
						s-0.3-0.7-0.5-1.1c-0.1-0.2-0.2-0.4-0.3-0.7l-0.5-1.1l-0.5-1.2c-0.1-0.1,0-0.4,0.2-0.5C321.1,170.1,321.4,170.1,321.5,170.2"/>
				</g>
			</g>
			<g id="Groupe_2607">
				<g id="Groupe_2606">
					<path id="Tracé_7858" class="st5" d="M298.3,164c-1.8-0.6-3.3-2-4-3.8c-1.7-4.1-2.8-8.5-3.1-13c-0.4-5.6,3.3-10.6,8.7-12
						c0.2,0-0.2,0,0,0c6-1.2,11.9,1.6,13.2,7.7c0.9,4.4,1.5,8.8,1.7,13.3c0,2.3-1.3,4.5-3.4,5.5c0,0,0.3,1.1,0.4,1.7
						c0.1,0.4-0.1,0.9-0.5,1.1c-3.7,1.4-7.6,2.2-11.5,2.4c-0.5,0-0.9-0.3-1-0.7L298.3,164"/>
					<path id="Tracé_7859" class="st4" d="M310.6,161.9c-0.2,0-0.5,0.1-0.7,0.1c-0.3,0.1-0.7,0.1-1.1,0.3c-0.3,0.1-0.7,0.2-1,0.4
						c-0.2,0.1-0.4,0.2-0.7,0.3c-0.3,0.1-0.5,0.4-0.5,0.7c0.1,0.3,0.3,0.5,0.6,0.5c0.3,0,0.6,0.1,0.8,0.1c0.4,0,0.8-0.1,1.2-0.2
						c0.4-0.1,0.8-0.3,1.2-0.5c0.3-0.1,0.5-0.3,0.7-0.5c0.3-0.2,0.4-0.5,0.3-0.8C311.3,162,311,161.8,310.6,161.9
						C310.7,161.9,310.7,161.9,310.6,161.9"/>
				</g>
			</g>
			<g id="Groupe_2609">
				<g id="Groupe_2608">
					<path id="Tracé_7860" class="st4" d="M310.8,148.6c0,0.3,0,0.5,0,0.8c0,0.3,0.1,0.5,0.3,0.7c0.1,0.4,0.5,0.7,0.9,0.6
						s0.7-0.5,0.6-0.9c0-0.3,0-0.5,0-0.8c0-0.3-0.1-0.5-0.3-0.7c-0.1-0.4-0.5-0.7-0.9-0.6S310.8,148.1,310.8,148.6"/>
					<path id="Tracé_7861" class="st4" d="M302.7,150.3c0,0.3,0,0.5,0,0.8c0,0.3,0.1,0.5,0.3,0.7c0.1,0.4,0.5,0.7,0.9,0.6
						s0.7-0.5,0.6-0.9l0,0c0-0.3,0-0.5,0-0.8c0-0.3-0.1-0.5-0.3-0.7c-0.1-0.4-0.5-0.7-0.9-0.6S302.6,149.9,302.7,150.3L302.7,150.3"
						/>
					<path id="Tracé_7862" class="st4" d="M309.4,157.5c1.1-0.3,1.8-1.1,2-2.2c-0.1-0.4-0.4-0.6-0.8-0.5c0,0,0,0,0,0
						c-0.5,0.1-1.1,0.1-1.6,0.3c-0.6,0.1-1.1,0.3-1.6,0.5c-0.4,0.1-0.6,0.5-0.5,0.8c0,0,0,0,0,0
						C307.3,157.3,308.4,157.7,309.4,157.5"/>
				</g>
			</g>
			<g id="Groupe_2611">
				<g id="Groupe_2610">
					<path id="Tracé_7863" class="st4" d="M314.9,143.1c1.2-4.6-1.8-11.9-9.2-14.5c-0.2-0.1-0.4,0-0.5,0.1
						c-0.1,0.1-0.2,0.3-0.2,0.5c0.2,0.9,0.2,1.8,0,2.7c0,0.2-0.2,0.3-0.4,0.4c-0.2,0-0.3,0-0.5-0.1c-0.8-0.7-1.6-1.2-2.6-1.5
						c-0.1,0-0.3,0-0.4,0c-0.1,0.1-0.2,0.2-0.3,0.3c-0.1,0.9-0.6,2.6-2,3.1c-1.6,0.5-3.2,1.3-4.6,2.2c-10.3,6.7-7,18.2-0.7,22.6
						c0.3,0.2,0.8,0.2,1.1-0.2c0,0,0-0.1,0.1-0.1c0.5-0.9,0.7-1.9,0.5-2.9c-0.4-2.3-2.3-4.8-0.6-5.5c1.3-0.5,2,1,2.1,2.5
						c0,2.1,3.1,1.3,2.2-0.7c-1.7-3.7-2.3-8.2,1.6-9.7c3.5-1.3,4.8,2.3,9.9-0.4c0.9-0.5,2-0.1,2.5,0.7c0.1,0.1,0.1,0.2,0.1,0.3
						c0.1,0.5,0.3,1,0.5,1.6c0.1,0.2,0.3,0.3,0.5,0.2c0.1,0,0.2-0.1,0.2-0.2C314.5,144.2,314.7,143.6,314.9,143.1"/>
				</g>
			</g>
			<g id="Groupe_2613">
				<g id="Groupe_2612">
					<path id="Tracé_7864" class="st4" d="M344.2,232.3c0.3-0.4,0.6-0.7,0.9-1.1s0.6-0.7,0.8-1.1c0.2-0.2,0.3-0.4,0.5-0.6
						c0.4-0.5,0.8-1,1.2-1.5c0.1-0.2,0.4-0.2,0.5-0.1s0.2,0.4,0.1,0.5l0,0c-0.3,0.6-0.7,1.1-1.1,1.7c-0.2,0.2-0.3,0.5-0.5,0.7
						c-0.3,0.4-0.6,0.7-0.9,1.1c-0.3,0.3-0.7,0.7-1,1c-0.1,0.2-0.4,0.2-0.6,0C344.1,232.7,344.1,232.5,344.2,232.3"/>
					<path id="Tracé_7865" class="st4" d="M336.3,231.1c4.1-3.6,7.2-8.1,9.1-13.2c0.6-1.5,1-3.1,1.4-4.6c0.8-3.7,1-7.5,0.5-11.3
						c0-0.2,0.1-0.4,0.3-0.4c0,0,0,0,0,0c0.2,0,0.4,0.1,0.4,0.3c0,0,0,0,0,0.1c0.6,3.9,0.5,7.8-0.3,11.6c-0.3,1.6-0.8,3.3-1.4,4.8
						c-2,5.2-5.3,9.9-9.6,13.5c-0.2,0.1-0.4,0.1-0.5,0c0,0,0,0,0,0C336.1,231.5,336.1,231.3,336.3,231.1
						C336.3,231.1,336.3,231.1,336.3,231.1"/>
					<path id="Tracé_7866" class="st4" d="M346,196.1c-0.3-1-0.8-1.9-1.2-2.8c-0.4-0.9-0.9-1.8-1.4-2.7c-0.3-0.5-0.6-1.1-0.9-1.6
						c-0.7-1.2-1.6-2.4-2.5-3.5c-0.1-0.2-0.1-0.4,0.1-0.6c0.1-0.1,0.3-0.1,0.5,0c1,1.1,1.9,2.3,2.8,3.5c0.3,0.5,0.7,1.1,1,1.6
						c0.5,0.9,1,1.9,1.4,2.8c0.4,1,0.8,2,1.1,3c0.1,0.2,0,0.4-0.2,0.5C346.3,196.4,346.1,196.3,346,196.1"/>
					<path id="Tracé_7867" class="st4" d="M350,223.9c1.5-3.1,2.6-6.4,3.2-9.8c0.6-3.4,0.8-6.9,0.5-10.3c-0.2-2.8-0.7-5.5-1.5-8.1
						c-1.1-4-2.9-7.7-5.3-11.1c-0.5-0.8-1.1-1.5-1.7-2.2c-0.6-0.7-1.2-1.4-1.9-2.1c-0.2-0.1-0.2-0.4,0-0.5c0,0,0,0,0,0
						c0.1-0.2,0.4-0.2,0.6,0c0,0,0,0,0,0c0.7,0.7,1.3,1.4,1.9,2.1c0.6,0.7,1.2,1.5,1.8,2.2c2.5,3.5,4.4,7.3,5.6,11.4
						c1.8,6.1,2.1,12.6,0.9,18.9c-0.7,3.5-1.8,6.9-3.4,10c-0.1,0.2-0.3,0.3-0.5,0.2C350,224.3,349.9,224.1,350,223.9"/>
					<path id="Tracé_7868" class="st4" d="M338.2,219c1.1-1.7,1.9-3.6,2.5-5.6c0.6-2,0.9-4,1.1-6c0.1-1.2,0.1-2.4,0-3.6
						c-0.2-2.9-1-5.6-2.4-8.1c-0.1-0.2,0-0.4,0.1-0.5c0.2-0.1,0.4,0,0.5,0.1c1.5,2.6,2.5,5.5,2.7,8.4c0.1,1.3,0.2,2.6,0.1,3.8
						c-0.1,2.1-0.5,4.2-1.2,6.3c-0.7,2-1.6,4-2.8,5.7c-0.1,0.2-0.4,0.2-0.6,0.1C338.2,219.4,338.1,219.2,338.2,219"/>
				</g>
			</g>
			<g id="Groupe_2615">
				<g>
					<g>
						<defs>
							
								<rect id="SVGID_00000003107391632454787200000013380499946840385966_" x="268.4" y="190.7" transform="matrix(0.7497 -0.6618 0.6618 0.7497 -59.9236 227.2757)" width="4.3" height="4.3"/>
						</defs>
						<clipPath id="SVGID_00000178197342691925544170000003410911128291096503_">
							<use xlink:href="#SVGID_00000003107391632454787200000013380499946840385966_"  style="overflow:visible;"/>
						</clipPath>
						<g style="clip-path:url(#SVGID_00000178197342691925544170000003410911128291096503_);">
							<g id="Groupe_2614">
								<path id="Tracé_7869" class="st4" d="M269.8,192.8L269.8,192.8c-0.4-0.6-0.7-1-0.7-1c-0.1-0.2-0.1-0.4,0-0.6
									c0.2-0.1,0.4-0.1,0.6,0l0,0c0,0,0.4,0.4,0.9,0.9c0.1-0.1,0.2-0.1,0.3-0.2c0.4-0.3,0.7-0.5,0.7-0.5c0.2-0.1,0.4-0.1,0.6,0
									c0.1,0.2,0.1,0.4,0,0.6c0,0-0.2,0.3-0.6,0.6c-0.1,0.1-0.1,0.2-0.3,0.3c0.1,0.1,0.1,0.2,0.2,0.3c0.3,0.4,0.5,0.7,0.5,0.7
									c0.1,0.2,0.1,0.4,0,0.6c-0.2,0.1-0.4,0.1-0.6,0l0,0c0,0-0.3-0.2-0.6-0.6c-0.1-0.1-0.2-0.2-0.3-0.3c-0.5,0.4-1,0.7-1,0.7
									c-0.2,0.1-0.4,0.1-0.6,0c-0.1-0.2-0.1-0.4,0-0.6l0,0C269.2,193.4,269.5,193.1,269.8,192.8"/>
							</g>
						</g>
					</g>
				</g>
			</g>
			<g id="Groupe_2617">
				<g>
					<g>
						<defs>
							
								<rect id="SVGID_00000162326471162839031190000008106901127572823429_" x="243.3" y="162.5" transform="matrix(0.735 -0.678 0.678 0.735 -46.4535 209.7656)" width="3.7" height="3.7"/>
						</defs>
						<clipPath id="SVGID_00000157989874188050367990000004501029906856941982_">
							<use xlink:href="#SVGID_00000162326471162839031190000008106901127572823429_"  style="overflow:visible;"/>
						</clipPath>
						<g style="clip-path:url(#SVGID_00000157989874188050367990000004501029906856941982_);">
							<g id="Groupe_2616">
								<path id="Tracé_7870" class="st4" d="M244.5,164.3L244.5,164.3c-0.4-0.5-0.7-0.9-0.7-0.9c-0.1-0.1-0.1-0.4,0-0.5
									s0.4-0.1,0.5,0c0,0,0.4,0.3,0.8,0.7c0.1-0.1,0.2-0.1,0.3-0.2c0.3-0.3,0.6-0.5,0.6-0.5c0.1-0.1,0.4-0.1,0.5,0
									c0.1,0.1,0.1,0.4,0,0.5l0,0c0,0-0.2,0.3-0.5,0.6c-0.1,0.1-0.1,0.2-0.2,0.2c0.1,0.1,0.1,0.2,0.2,0.3c0.3,0.3,0.5,0.6,0.5,0.6
									c0.1,0.1,0.1,0.4,0,0.5s-0.4,0.1-0.5,0c0,0-0.3-0.2-0.6-0.5c-0.1-0.1-0.2-0.1-0.2-0.2c-0.5,0.4-0.9,0.7-0.9,0.7
									c-0.1,0.1-0.4,0.1-0.5,0c-0.1-0.1-0.1-0.3,0-0.5C244,164.8,244.3,164.5,244.5,164.3"/>
							</g>
						</g>
					</g>
				</g>
			</g>
			<g id="Groupe_2619">
				<g>
					<g>
						<defs>
							<rect id="SVGID_00000168812401550554814180000004835777218701873076_" x="351.9" y="157.6" width="5.1" height="5.1"/>
						</defs>
						<clipPath id="SVGID_00000036962710384904594290000010258052166592592812_">
							<use xlink:href="#SVGID_00000168812401550554814180000004835777218701873076_"  style="overflow:visible;"/>
						</clipPath>
						<g style="clip-path:url(#SVGID_00000036962710384904594290000010258052166592592812_);">
							<g id="Groupe_2618">
								<path id="Tracé_7871" class="st4" d="M353.8,159.6L353.8,159.6c0.1-0.8,0.1-1.5,0.1-1.5c0-0.3,0.2-0.5,0.4-0.5
									c0.3,0,0.5,0.2,0.5,0.4c0,0,0,0,0,0c0,0,0.1,0.7,0.1,1.5c0.2,0,0.3,0,0.4,0c0.6,0,1,0.1,1,0.1c0.3,0,0.5,0.2,0.5,0.4
									c0,0.3-0.2,0.5-0.4,0.5c0,0,0,0,0,0c0,0-0.4,0.1-1,0.1c-0.1,0-0.3,0-0.4,0c0,0.2,0,0.3,0,0.4c0,0.6-0.1,1-0.1,1
									c0,0.3-0.2,0.5-0.4,0.5c-0.3,0-0.5-0.2-0.5-0.4c0,0,0,0,0,0c0,0-0.1-0.4-0.1-1c0-0.1,0-0.3,0-0.4c-0.8-0.1-1.5-0.1-1.5-0.1
									c-0.3,0-0.5-0.2-0.4-0.5c0-0.2,0.2-0.4,0.4-0.4C352.8,159.6,353.3,159.6,353.8,159.6"/>
							</g>
						</g>
					</g>
				</g>
			</g>
			<g id="Groupe_2621">
				<g>
					<g>
						<defs>
							
								<rect id="SVGID_00000001624085741137910120000014510278063460627585_" x="303" y="117.4" transform="matrix(0.8186 -0.5744 0.5744 0.8186 -12.9102 196.2621)" width="2.4" height="2.4"/>
						</defs>
						<clipPath id="SVGID_00000051375766935553777210000014233631086752096680_">
							<use xlink:href="#SVGID_00000001624085741137910120000014510278063460627585_"  style="overflow:visible;"/>
						</clipPath>
						<g style="clip-path:url(#SVGID_00000051375766935553777210000014233631086752096680_);">
							<g id="Groupe_2620">
								<path id="Tracé_7872" class="st4" d="M303.7,118.5c-0.1-0.2-0.2-0.4-0.2-0.4c-0.1-0.1-0.1-0.4,0.1-0.5
									c0.1-0.1,0.4-0.1,0.5,0.1l0,0c0.1,0.1,0.2,0.2,0.3,0.3l0,0c0.1-0.1,0.3-0.1,0.4-0.2c0.2-0.1,0.4-0.1,0.5,0.1
									c0.1,0.1,0.1,0.3-0.1,0.4c-0.1,0.1-0.2,0.2-0.3,0.3l0,0l0,0c0.1,0.1,0.1,0.3,0.2,0.4c0.1,0.2,0.1,0.4-0.1,0.5
									c-0.1,0.1-0.3,0.1-0.4-0.1c-0.1-0.1-0.2-0.2-0.3-0.3l0,0c-0.2,0.1-0.4,0.2-0.4,0.2c-0.1,0.1-0.4,0.1-0.5-0.1
									s-0.1-0.4,0.1-0.5C303.4,118.8,303.5,118.7,303.7,118.5"/>
							</g>
						</g>
					</g>
				</g>
			</g>
			<g id="Groupe_2623">
				<g>
					<g>
						<defs>
							
								<rect id="SVGID_00000115503945589931285910000001126448839494563238_" x="308.4" y="119" transform="matrix(0.8682 -0.4961 0.4961 0.8682 -19.0263 169.7633)" width="3.5" height="3.5"/>
						</defs>
						<clipPath id="SVGID_00000134936349842511165660000005476858465163405492_">
							<use xlink:href="#SVGID_00000115503945589931285910000001126448839494563238_"  style="overflow:visible;"/>
						</clipPath>
						<g style="clip-path:url(#SVGID_00000134936349842511165660000005476858465163405492_);">
							<g id="Groupe_2622">
								<path id="Tracé_7873" class="st4" d="M309.6,120.6L309.6,120.6c-0.2-0.5-0.4-0.9-0.4-0.9c-0.1-0.2,0-0.3,0.1-0.4
									s0.3,0,0.4,0.1l0,0c0,0,0.3,0.4,0.6,0.8c0.1-0.1,0.2-0.1,0.3-0.1c0.4-0.2,0.6-0.3,0.6-0.3c0.2-0.1,0.3,0,0.4,0.1
									s0,0.3-0.1,0.4c0,0-0.2,0.2-0.6,0.4c-0.1,0-0.1,0.1-0.2,0.2c0.1,0.1,0.1,0.2,0.1,0.3c0.2,0.4,0.3,0.6,0.3,0.6
									c0.1,0.2,0,0.4-0.1,0.4c-0.1,0.1-0.3,0-0.4-0.1c0,0-0.2-0.2-0.4-0.6c0-0.1-0.1-0.2-0.2-0.2c-0.5,0.2-0.9,0.4-0.9,0.4
									c-0.2,0.1-0.4,0-0.4-0.1c-0.1-0.1,0-0.3,0.1-0.4C309,120.9,309.3,120.7,309.6,120.6"/>
							</g>
						</g>
					</g>
				</g>
			</g>
			<g id="Groupe_2625">
				<g>
					<g>
						<defs>
							
								<rect id="SVGID_00000077322928640900223440000017559667461117920646_" x="295.3" y="123" transform="matrix(0.8683 -0.4961 0.4961 0.8683 -22.9307 164.1192)" width="4.5" height="4.5"/>
						</defs>
						<clipPath id="SVGID_00000024683111155950648880000009482647049478850749_">
							<use xlink:href="#SVGID_00000077322928640900223440000017559667461117920646_"  style="overflow:visible;"/>
						</clipPath>
						<g style="clip-path:url(#SVGID_00000024683111155950648880000009482647049478850749_);">
							<g id="Groupe_2624">
								<path id="Tracé_7874" class="st4" d="M296.8,125L296.8,125c-0.3-0.7-0.5-1.2-0.5-1.2c-0.1-0.2-0.1-0.5,0.1-0.6
									c0.2-0.1,0.5-0.1,0.6,0.1c0,0,0,0,0,0c0,0,0.4,0.5,0.8,1.1c0.1-0.1,0.2-0.1,0.4-0.2c0.5-0.2,0.8-0.4,0.8-0.4
									c0.2-0.1,0.5-0.1,0.6,0.1c0.1,0.2,0.1,0.5-0.1,0.6c0,0,0,0,0,0c0,0-0.3,0.2-0.8,0.5c-0.1,0.1-0.2,0.1-0.3,0.2
									c0.1,0.1,0.1,0.2,0.2,0.4c0.2,0.5,0.4,0.8,0.4,0.8c0.1,0.2,0,0.5-0.2,0.6c-0.2,0.1-0.5,0-0.6-0.2l0,0c0,0-0.2-0.3-0.5-0.8
									c-0.1-0.1-0.2-0.2-0.2-0.3c-0.7,0.3-1.2,0.5-1.2,0.5c-0.2,0.1-0.5,0-0.6-0.2c-0.1-0.2,0-0.4,0.1-0.5
									C296.1,125.5,296.5,125.3,296.8,125"/>
							</g>
						</g>
					</g>
				</g>
			</g>
			<g id="Groupe_2627">
				<g>
					<g>
						<defs>
							
								<rect id="SVGID_00000154422344247367891040000001537107358696723892_" x="271.3" y="114.7" transform="matrix(0.8189 -0.5739 0.5739 0.8189 -17.1185 177.287)" width="2.1" height="2.1"/>
						</defs>
						<clipPath id="SVGID_00000034069303389652261280000012812328364165623183_">
							<use xlink:href="#SVGID_00000154422344247367891040000001537107358696723892_"  style="overflow:visible;"/>
						</clipPath>
						<g style="clip-path:url(#SVGID_00000034069303389652261280000012812328364165623183_);">
							<g id="Groupe_2626">
								<path id="Tracé_7875" class="st4" d="M271.9,115.7c-0.1-0.2-0.2-0.4-0.2-0.4c-0.1-0.1-0.1-0.3,0.1-0.4s0.3-0.1,0.4,0.1
									c0,0,0,0,0,0c0.1,0.1,0.2,0.2,0.3,0.3l0,0c0.1-0.1,0.2-0.1,0.4-0.2c0.1-0.1,0.3-0.1,0.4,0.1c0.1,0.1,0.1,0.3-0.1,0.4l0,0
									c-0.1,0.1-0.2,0.2-0.3,0.3l0,0l0,0c0.1,0.1,0.1,0.2,0.2,0.4c0.1,0.1,0.1,0.3-0.1,0.4c-0.1,0.1-0.3,0.1-0.4-0.1l0,0
									c-0.1-0.1-0.2-0.2-0.3-0.3l0,0c-0.2,0.1-0.4,0.2-0.4,0.2c-0.1,0.1-0.3,0.1-0.4-0.1c-0.1-0.1-0.1-0.3,0.1-0.4
									C271.6,116,271.7,115.9,271.9,115.7"/>
							</g>
						</g>
					</g>
				</g>
			</g>
			<g id="Groupe_2629">
				<g>
					<g>
						<defs>
							
								<rect id="SVGID_00000037656123743138522830000009725914713222338749_" x="277.4" y="123.2" transform="matrix(0.8682 -0.4962 0.4962 0.8682 -25.414 155.315)" width="4.5" height="4.5"/>
						</defs>
						<clipPath id="SVGID_00000058582509455008116790000007648286219063276966_">
							<use xlink:href="#SVGID_00000037656123743138522830000009725914713222338749_"  style="overflow:visible;"/>
						</clipPath>
						<g style="clip-path:url(#SVGID_00000058582509455008116790000007648286219063276966_);">
							<g id="Groupe_2628">
								<path id="Tracé_7876" class="st4" d="M279,125.3L279,125.3c-0.3-0.7-0.5-1.2-0.5-1.2c-0.1-0.2-0.1-0.5,0.1-0.6
									c0.2-0.1,0.5-0.1,0.6,0.1c0,0,0,0,0,0c0,0,0.4,0.5,0.8,1.1c0.1-0.1,0.2-0.1,0.4-0.2c0.5-0.2,0.8-0.4,0.8-0.4
									c0.2-0.1,0.5-0.1,0.6,0.1s0.1,0.5-0.1,0.6c0,0,0,0,0,0c0,0-0.3,0.2-0.8,0.5c-0.1,0.1-0.2,0.1-0.3,0.2
									c0.1,0.1,0.1,0.2,0.2,0.4c0.2,0.5,0.4,0.8,0.4,0.8c0.1,0.2,0,0.5-0.2,0.6c-0.2,0.1-0.5,0-0.6-0.2c0,0-0.2-0.3-0.5-0.8
									c-0.1-0.1-0.2-0.2-0.2-0.3c-0.7,0.3-1.2,0.5-1.2,0.5c-0.2,0.1-0.5,0-0.6-0.2c-0.1-0.2,0-0.4,0.1-0.5
									C278.2,125.8,278.6,125.5,279,125.3"/>
							</g>
						</g>
					</g>
				</g>
			</g>
			<g id="Groupe_2631">
				<g>
					<g>
						<defs>
							
								<rect id="SVGID_00000091009925872732076270000015783263587355872419_" x="282.8" y="133.6" transform="matrix(0.8186 -0.5743 0.5743 0.8186 -26.1466 187.9564)" width="3.5" height="3.5"/>
						</defs>
						<clipPath id="SVGID_00000012437787847136415620000008703615277808515984_">
							<use xlink:href="#SVGID_00000091009925872732076270000015783263587355872419_"  style="overflow:visible;"/>
						</clipPath>
						<g style="clip-path:url(#SVGID_00000012437787847136415620000008703615277808515984_);">
							<g id="Groupe_2630">
								<path id="Tracé_7877" class="st4" d="M283.7,135.2c-0.2-0.3-0.3-0.6-0.3-0.6c-0.2-0.2-0.1-0.5,0.1-0.7
									c0.2-0.2,0.5-0.1,0.7,0.1c0,0,0,0,0,0c0.2,0.2,0.3,0.3,0.5,0.5l0,0c0.2-0.1,0.4-0.2,0.6-0.3c0.2-0.2,0.5-0.1,0.7,0.1
									c0.2,0.2,0.1,0.5-0.1,0.7c0,0,0,0,0,0c-0.1,0.2-0.3,0.3-0.5,0.5l0,0l0,0c0.1,0.2,0.2,0.4,0.3,0.6c0.1,0.2,0.1,0.5-0.1,0.7
									c-0.2,0.1-0.5,0.1-0.7-0.1c-0.2-0.1-0.3-0.3-0.5-0.5l0,0c-0.3,0.2-0.6,0.3-0.6,0.3c-0.2,0.2-0.5,0.1-0.7-0.1
									c-0.2-0.2-0.1-0.5,0.1-0.7c0,0,0,0,0,0C283.2,135.7,283.4,135.5,283.7,135.2"/>
							</g>
						</g>
					</g>
				</g>
			</g>
			<g id="Groupe_2633">
				<g>
					<g>
						<defs>
							
								<rect id="SVGID_00000156562200527922171430000008512598433785778059_" x="254.8" y="122.7" transform="matrix(0.8683 -0.4961 0.4961 0.8683 -27.993 143.7187)" width="3.7" height="3.7"/>
						</defs>
						<clipPath id="SVGID_00000146482042543741816660000014809316439988567958_">
							<use xlink:href="#SVGID_00000156562200527922171430000008512598433785778059_"  style="overflow:visible;"/>
						</clipPath>
						<g style="clip-path:url(#SVGID_00000146482042543741816660000014809316439988567958_);">
							<g id="Groupe_2632">
								<path id="Tracé_7878" class="st4" d="M256,124.4L256,124.4c-0.3-0.6-0.5-1-0.5-1c-0.1-0.2,0-0.4,0.1-0.5s0.4,0,0.5,0.1
									c0,0,0.3,0.4,0.6,0.9c0.1-0.1,0.2-0.1,0.3-0.1c0.4-0.2,0.7-0.3,0.7-0.3c0.2-0.1,0.4,0,0.5,0.1c0.1,0.2,0,0.4-0.1,0.5
									c0,0-0.3,0.2-0.6,0.4c-0.1,0-0.2,0.1-0.3,0.2c0.1,0.1,0.1,0.2,0.1,0.3c0.2,0.4,0.3,0.7,0.3,0.7c0.1,0.2,0,0.4-0.1,0.5
									s-0.4,0-0.5-0.1l0,0c0,0-0.2-0.3-0.4-0.6c0-0.1-0.1-0.2-0.2-0.3c-0.5,0.2-1,0.5-1,0.5c-0.2,0.1-0.4,0-0.5-0.1
									c-0.1-0.2,0-0.4,0.1-0.5l0,0C255.4,124.8,255.7,124.6,256,124.4"/>
							</g>
						</g>
					</g>
				</g>
			</g>
			<g id="Groupe_2635">
				<g>
					<g>
						<defs>
							
								<rect id="SVGID_00000160906533412532015020000010800821093410799006_" x="272.4" y="225.7" transform="matrix(0.8189 -0.5739 0.5739 0.8189 -80.7706 198.2977)" width="2.9" height="2.9"/>
						</defs>
						<clipPath id="SVGID_00000036237567890093956060000011530555597015423383_">
							<use xlink:href="#SVGID_00000160906533412532015020000010800821093410799006_"  style="overflow:visible;"/>
						</clipPath>
						<g style="clip-path:url(#SVGID_00000036237567890093956060000011530555597015423383_);">
							<g id="Groupe_2634">
								<path id="Tracé_7879" class="st4" d="M273.2,227c-0.1-0.3-0.3-0.5-0.3-0.5c-0.1-0.2-0.1-0.4,0.1-0.6
									c0.2-0.1,0.4-0.1,0.6,0.1c0.1,0.1,0.3,0.3,0.4,0.4l0,0c0.2-0.1,0.3-0.2,0.5-0.2c0.2-0.1,0.4-0.1,0.6,0.1
									c0.1,0.2,0.1,0.4-0.1,0.6c-0.1,0.1-0.3,0.3-0.4,0.4l0,0l0,0c0.1,0.2,0.2,0.3,0.2,0.5c0.1,0.2,0.1,0.4-0.1,0.6
									c-0.2,0.1-0.4,0.1-0.6-0.1l0,0c-0.1-0.1-0.3-0.3-0.4-0.4l0,0c-0.3,0.1-0.5,0.3-0.5,0.3c-0.2,0.1-0.4,0.1-0.6-0.1
									c-0.1-0.2-0.1-0.4,0.1-0.6l0,0C272.8,227.4,272.9,227.3,273.2,227"/>
							</g>
						</g>
					</g>
				</g>
			</g>
			<g id="Groupe_2637">
				<g>
					<g>
						<defs>
							
								<rect id="SVGID_00000183222278829049331490000014833778390542705283_" x="267" y="231" transform="matrix(0.8189 -0.5739 0.5739 0.8189 -84.5888 195.799)" width="1.9" height="1.9"/>
						</defs>
						<clipPath id="SVGID_00000170245294285741599230000010228828696935109311_">
							<use xlink:href="#SVGID_00000183222278829049331490000014833778390542705283_"  style="overflow:visible;"/>
						</clipPath>
						<g style="clip-path:url(#SVGID_00000170245294285741599230000010228828696935109311_);">
							<g id="Groupe_2636">
								<path id="Tracé_7880" class="st4" d="M267.5,231.9c-0.1-0.2-0.2-0.3-0.2-0.3c-0.1-0.1-0.1-0.3,0.1-0.4
									c0.1-0.1,0.3-0.1,0.4,0.1l0,0c0.1,0.1,0.2,0.2,0.3,0.3l0,0c0.1-0.1,0.2-0.1,0.3-0.2c0.1-0.1,0.3-0.1,0.4,0.1
									c0.1,0.1,0.1,0.3-0.1,0.4l0,0c-0.1,0.1-0.2,0.2-0.3,0.2l0,0l0,0c0.1,0.1,0.1,0.2,0.2,0.3c0.1,0.1,0.1,0.3-0.1,0.4
									s-0.3,0.1-0.4-0.1l0,0c-0.1-0.1-0.2-0.2-0.2-0.3l0,0c-0.2,0.1-0.3,0.2-0.3,0.2c-0.1,0.1-0.3,0.1-0.4-0.1s-0.1-0.3,0.1-0.4
									C267.3,232.1,267.4,232,267.5,231.9"/>
							</g>
						</g>
					</g>
				</g>
			</g>
			<g id="Groupe_2639">
				<g>
					<g>
						<defs>
							
								<rect id="SVGID_00000081621554794589587040000007559910290452885176_" x="285.2" y="194.7" transform="matrix(0.8189 -0.5739 0.5739 0.8189 -60.745 200.1435)" width="3.2" height="3.2"/>
						</defs>
						<clipPath id="SVGID_00000029031216099839259680000010403547719381906565_">
							<use xlink:href="#SVGID_00000081621554794589587040000007559910290452885176_"  style="overflow:visible;"/>
						</clipPath>
						<g style="clip-path:url(#SVGID_00000029031216099839259680000010403547719381906565_);">
							<g id="Groupe_2638">
								<path id="Tracé_7881" class="st4" d="M286,196.2c-0.1-0.3-0.3-0.6-0.3-0.6c-0.2-0.2-0.1-0.5,0.1-0.6s0.5-0.1,0.6,0.1
									c0,0,0,0,0,0.1c0.2,0.1,0.3,0.3,0.4,0.5l0,0c0.2-0.1,0.4-0.2,0.5-0.3c0.2-0.2,0.5-0.1,0.6,0.1s0.1,0.5-0.1,0.6
									c0,0,0,0-0.1,0c-0.1,0.1-0.3,0.3-0.4,0.4l0,0l0,0c0.1,0.2,0.2,0.4,0.3,0.5c0.1,0.2,0.1,0.5-0.2,0.6
									c-0.2,0.1-0.4,0.1-0.6-0.1c-0.1-0.1-0.3-0.3-0.4-0.4l0,0c-0.3,0.1-0.6,0.3-0.6,0.3c-0.2,0.1-0.5,0.1-0.6-0.2
									c-0.1-0.2-0.1-0.4,0.1-0.6C285.6,196.7,285.8,196.5,286,196.2"/>
							</g>
						</g>
					</g>
				</g>
			</g>
			<g id="Groupe_2641">
				<g>
					<g>
						<defs>
							
								<rect id="SVGID_00000039113643204399071660000014754843714114994050_" x="284.6" y="203" transform="matrix(0.8186 -0.5744 0.5744 0.8186 -65.484 201.3303)" width="2.7" height="2.7"/>
						</defs>
						<clipPath id="SVGID_00000139274481735191204460000009739022518385148545_">
							<use xlink:href="#SVGID_00000039113643204399071660000014754843714114994050_"  style="overflow:visible;"/>
						</clipPath>
						<g style="clip-path:url(#SVGID_00000139274481735191204460000009739022518385148545_);">
							<g id="Groupe_2640">
								<path id="Tracé_7882" class="st4" d="M285.4,204.2c-0.1-0.3-0.2-0.5-0.2-0.5c-0.1-0.2-0.1-0.4,0.1-0.5s0.4-0.1,0.5,0.1l0,0
									c0.1,0.1,0.3,0.2,0.4,0.4l0,0c0.1-0.1,0.3-0.2,0.5-0.2c0.2-0.1,0.4-0.1,0.5,0.1c0.1,0.2,0.1,0.4-0.1,0.5
									c-0.1,0.1-0.2,0.2-0.4,0.3l0,0l0,0c0.1,0.1,0.2,0.3,0.2,0.5c0.1,0.2,0.1,0.4-0.1,0.5s-0.4,0.1-0.5-0.1
									c-0.1-0.1-0.2-0.2-0.3-0.4l0,0c-0.3,0.1-0.5,0.2-0.5,0.2c-0.2,0.1-0.4,0.1-0.5-0.1c-0.1-0.2-0.1-0.4,0.1-0.5
									C285,204.6,285.1,204.4,285.4,204.2"/>
							</g>
						</g>
					</g>
				</g>
			</g>
			<g id="Groupe_2643">
				<g>
					<g>
						<defs>
							
								<rect id="SVGID_00000131343366278915247200000013191956082675030437_" x="269.4" y="184.1" transform="matrix(0.8189 -0.5739 0.5739 0.8189 -57.3142 188.8765)" width="2.4" height="2.4"/>
						</defs>
						<clipPath id="SVGID_00000008868237330906779970000010924040481008639647_">
							<use xlink:href="#SVGID_00000131343366278915247200000013191956082675030437_"  style="overflow:visible;"/>
						</clipPath>
						<g style="clip-path:url(#SVGID_00000008868237330906779970000010924040481008639647_);">
							<g id="Groupe_2642">
								<path id="Tracé_7883" class="st4" d="M270.1,185.2c-0.1-0.2-0.2-0.4-0.2-0.4c-0.1-0.1-0.1-0.4,0.1-0.5
									c0.1-0.1,0.4-0.1,0.5,0.1c0.1,0.1,0.2,0.2,0.3,0.3l0,0c0.1-0.1,0.3-0.1,0.4-0.2c0.2-0.1,0.4-0.1,0.5,0.1
									c0.1,0.1,0.1,0.3-0.1,0.4c-0.1,0.1-0.2,0.2-0.3,0.3l0,0l0,0c0.1,0.1,0.1,0.3,0.2,0.4c0.1,0.2,0.1,0.4-0.1,0.5
									c-0.1,0.1-0.3,0.1-0.4-0.1c-0.1-0.1-0.2-0.2-0.3-0.3l0,0c-0.2,0.1-0.4,0.2-0.4,0.2c-0.1,0.1-0.4,0.1-0.5-0.1
									s-0.1-0.4,0.1-0.5C269.7,185.5,269.9,185.4,270.1,185.2"/>
							</g>
						</g>
					</g>
				</g>
			</g>
			<g id="Groupe_2645">
				<g>
					<g>
						<defs>
							
								<rect id="SVGID_00000178179906633285694720000010268142266953154207_" x="254" y="197.1" transform="matrix(0.8186 -0.5744 0.5744 0.8186 -67.626 182.5389)" width="2.4" height="2.4"/>
						</defs>
						<clipPath id="SVGID_00000008133845599400410920000001115824944280454272_">
							<use xlink:href="#SVGID_00000178179906633285694720000010268142266953154207_"  style="overflow:visible;"/>
						</clipPath>
						<g style="clip-path:url(#SVGID_00000008133845599400410920000001115824944280454272_);">
							<g id="Groupe_2644">
								<path id="Tracé_7884" class="st4" d="M254.6,198.2c-0.1-0.2-0.2-0.4-0.2-0.4c-0.1-0.1-0.1-0.4,0.1-0.5
									c0.1-0.1,0.4-0.1,0.5,0.1c0.1,0.1,0.2,0.2,0.3,0.3l0,0c0.1-0.1,0.3-0.1,0.4-0.2c0.2-0.1,0.4-0.1,0.5,0.1
									c0.1,0.1,0.1,0.3-0.1,0.4c-0.1,0.1-0.2,0.2-0.3,0.3l0,0l0,0c0.1,0.1,0.1,0.3,0.2,0.4c0.1,0.2,0.1,0.4-0.1,0.5
									c-0.1,0.1-0.3,0.1-0.4-0.1c-0.1-0.1-0.2-0.2-0.3-0.3l0,0c-0.2,0.1-0.4,0.2-0.4,0.2c-0.1,0.1-0.4,0.1-0.5-0.1
									c-0.1-0.1-0.1-0.4,0.1-0.5C254.3,198.6,254.4,198.4,254.6,198.2"/>
							</g>
						</g>
					</g>
				</g>
			</g>
			<g id="Groupe_2647">
				<g>
					<g>
						<defs>
							
								<rect id="SVGID_00000181783013351246893110000010250548551394829954_" x="258.8" y="180.9" transform="matrix(0.8186 -0.5743 0.5743 0.8186 -57.6189 182.7317)" width="3.5" height="3.5"/>
						</defs>
						<clipPath id="SVGID_00000099628052836046658840000007973472281722317959_">
							<use xlink:href="#SVGID_00000181783013351246893110000010250548551394829954_"  style="overflow:visible;"/>
						</clipPath>
						<g style="clip-path:url(#SVGID_00000099628052836046658840000007973472281722317959_);">
							<g id="Groupe_2646">
								<path id="Tracé_7885" class="st4" d="M259.7,182.4c-0.2-0.3-0.3-0.6-0.3-0.6c-0.1-0.2-0.1-0.5,0.1-0.7
									c0.2-0.1,0.5-0.1,0.7,0.1c0.2,0.2,0.3,0.3,0.5,0.5l0,0c0.2-0.1,0.4-0.2,0.6-0.3c0.2-0.2,0.5-0.1,0.7,0.1s0.1,0.5-0.1,0.7
									c0,0,0,0,0,0c-0.1,0.2-0.3,0.3-0.5,0.5l0,0l0,0c0.1,0.2,0.2,0.4,0.3,0.6c0.1,0.2,0.1,0.5-0.1,0.7c-0.2,0.1-0.5,0.1-0.7-0.1
									c-0.2-0.1-0.3-0.3-0.5-0.5l0,0c-0.3,0.2-0.6,0.3-0.6,0.3c-0.2,0.1-0.5,0.1-0.7-0.1c-0.1-0.2-0.1-0.5,0.1-0.7
									C259.2,183,259.4,182.7,259.7,182.4"/>
							</g>
						</g>
					</g>
				</g>
			</g>
			<g id="Groupe_2649">
				<g>
					<g>
						<defs>
							
								<rect id="SVGID_00000174593453579436572020000006931668748625019045_" x="240.4" y="171.8" transform="matrix(0.8189 -0.5739 0.5739 0.8189 -55.6422 170.1678)" width="2.9" height="2.9"/>
						</defs>
						<clipPath id="SVGID_00000178904588328749874930000016312304381692553379_">
							<use xlink:href="#SVGID_00000174593453579436572020000006931668748625019045_"  style="overflow:visible;"/>
						</clipPath>
						<g style="clip-path:url(#SVGID_00000178904588328749874930000016312304381692553379_);">
							<g id="Groupe_2648">
								<path id="Tracé_7886" class="st4" d="M241.1,173.1c-0.1-0.3-0.3-0.5-0.3-0.5c-0.1-0.2-0.1-0.4,0.1-0.6s0.4-0.1,0.6,0.1
									c0.1,0.1,0.3,0.3,0.4,0.4l0,0c0.2-0.1,0.3-0.2,0.5-0.2c0.2-0.1,0.4-0.1,0.6,0.1s0.1,0.4-0.1,0.6l0,0
									c-0.1,0.1-0.3,0.3-0.4,0.4l0,0l0,0c0.1,0.2,0.2,0.3,0.2,0.5c0.1,0.2,0.1,0.4-0.1,0.6s-0.4,0.1-0.6-0.1
									c-0.1-0.1-0.3-0.3-0.4-0.4l0,0c-0.3,0.1-0.5,0.3-0.5,0.3c-0.2,0.1-0.4,0.1-0.6-0.1s-0.1-0.4,0.1-0.6l0,0
									C240.7,173.6,240.9,173.4,241.1,173.1"/>
							</g>
						</g>
					</g>
				</g>
			</g>
			<g id="Groupe_2651">
				<g>
					<g>
						<defs>
							
								<rect id="SVGID_00000162324032862597645950000017140348536331226528_" x="250.5" y="165.1" transform="matrix(0.8189 -0.5739 0.5739 0.8189 -49.9266 174.6772)" width="2.7" height="2.7"/>
						</defs>
						<clipPath id="SVGID_00000032607806636414881700000005168856736397137049_">
							<use xlink:href="#SVGID_00000162324032862597645950000017140348536331226528_"  style="overflow:visible;"/>
						</clipPath>
						<g style="clip-path:url(#SVGID_00000032607806636414881700000005168856736397137049_);">
							<g id="Groupe_2650">
								<path id="Tracé_7887" class="st4" d="M251.2,166.3c-0.1-0.3-0.2-0.5-0.2-0.5c-0.1-0.2-0.1-0.4,0.1-0.5
									c0.2-0.1,0.4-0.1,0.5,0.1c0.1,0.1,0.3,0.2,0.4,0.4l0,0c0.1-0.1,0.3-0.2,0.5-0.2c0.2-0.1,0.4-0.1,0.5,0.1
									c0.1,0.2,0.1,0.4-0.1,0.5l0,0c-0.1,0.1-0.2,0.2-0.4,0.3l0,0l0,0c0.1,0.1,0.2,0.3,0.2,0.5c0.1,0.2,0.1,0.4-0.1,0.5
									c-0.2,0.1-0.4,0.1-0.5-0.1c-0.1-0.1-0.2-0.2-0.3-0.4l0,0c-0.3,0.1-0.5,0.2-0.5,0.2c-0.2,0.1-0.4,0.1-0.5-0.1
									c-0.1-0.2-0.1-0.4,0.1-0.5C250.8,166.7,251,166.6,251.2,166.3"/>
							</g>
						</g>
					</g>
				</g>
			</g>
			<g id="Groupe_2653">
				<g>
					<g>
						<defs>
							
								<rect id="SVGID_00000039112796698734279920000009975887166514686396_" x="238" y="147.2" transform="matrix(0.8189 -0.5739 0.5739 0.8189 -42.044 164.4464)" width="3.2" height="3.2"/>
						</defs>
						<clipPath id="SVGID_00000126282874589406331520000004352261612334644387_">
							<use xlink:href="#SVGID_00000039112796698734279920000009975887166514686396_"  style="overflow:visible;"/>
						</clipPath>
						<g style="clip-path:url(#SVGID_00000126282874589406331520000004352261612334644387_);">
							<g id="Groupe_2652">
								<path id="Tracé_7888" class="st4" d="M238.8,148.7c-0.1-0.3-0.3-0.6-0.3-0.6c-0.1-0.2-0.1-0.5,0.2-0.6
									c0.2-0.1,0.4-0.1,0.6,0.1c0.2,0.1,0.3,0.3,0.4,0.5l0,0c0.2-0.1,0.4-0.2,0.5-0.3c0.2-0.1,0.5-0.1,0.6,0.1s0.1,0.5-0.1,0.6
									c-0.1,0.1-0.3,0.3-0.4,0.4l0,0l0,0c0.1,0.2,0.2,0.4,0.3,0.5c0.1,0.2,0.1,0.5-0.2,0.6c-0.2,0.1-0.4,0.1-0.6-0.1
									c-0.1-0.1-0.3-0.3-0.4-0.4l0,0c-0.3,0.1-0.6,0.3-0.6,0.3c-0.2,0.1-0.5,0.1-0.6-0.2c-0.1-0.2-0.1-0.4,0.1-0.6
									C238.4,149.2,238.5,149,238.8,148.7"/>
							</g>
						</g>
					</g>
				</g>
			</g>
		</g>
		<g id="Groupe_2656">
			<g id="Groupe_2655">
				<path id="Tracé_7889" class="st4" d="M153.3,174.4c0-0.3-0.2-0.6-0.5-0.7c-2.1-0.4-4.3-0.5-6.5-0.3c-1.9,0.4-3.5,1.6-4.3,3.3
					c-0.2,0.4-0.2,0.9,0,1.3c0.2,0.4,0.6,0.7,1,0.8l8.1,1.1c0.8,0.1,1.5-0.4,1.6-1.2C152.8,177.5,153.1,175.4,153.3,174.4
					L153.3,174.4z"/>
				<path id="Tracé_7890" class="st4" d="M149.3,150.4c0.2-0.2,0.3-0.6,0.1-0.8c-1.3-1.7-2.8-3.3-4.5-4.7c-1.6-1-3.6-1.2-5.4-0.6
					c-0.4,0.1-0.8,0.5-0.9,0.9c-0.1,0.4,0,0.9,0.2,1.3l5.1,6.4c0.5,0.6,1.4,0.7,2,0.2C146.9,152.4,148.5,151,149.3,150.4z"/>
				<path id="Tracé_7891" class="st5" d="M209.8,173.2c1.7-0.4,3.4-0.7,5.1-0.7c1.8,0,3.6,0.2,5.4,0.7c0.9,0.2,1.8,0.5,2.6,0.8
					c0.4,0.2,0.9,0.3,1.3,0.5c0.2,0.1,0.4,0.2,0.6,0.3c0,0,0.4,0.2,0.5,0.2c1.2,0.6,3.3,2.7,4.8,3.7c1.1,0.7,3.2,1.4,3.8,0.6
					c0.5-0.6-0.2-1.7-1.4-2.3c-0.2-0.1-0.2-0.2-0.2-0.4c0-0.1,0.2-0.2,0.3-0.2c2.3-0.1,5.9,0.1,6.9-2.7c0.6-1.9-0.9-4.1-4.6-4.4
					c-2-0.2-4-0.1-6,0.3l-0.3-0.3l-0.4-0.3c-0.3-0.2-0.5-0.4-0.8-0.5c-0.5-0.3-1-0.7-1.5-1c-5.3-3.2-11.5-4.7-17.8-4.3
					c-2.6,0.2-5.1,0.7-7.5,1.5l4.3,10.3C206.6,174.2,208.1,173.6,209.8,173.2L209.8,173.2z"/>
				<path id="Tracé_7892" class="st5" d="M182.2,223c3-0.4,3.6-3.9,4.1-6.2c0-0.2,0.2-0.3,0.4-0.2c0.1,0,0.2,0.1,0.2,0.2
					c0.4,1.3,1.2,2.2,2,1.8c1-0.5,0.7-2.6,0.2-3.8c-0.6-1.7-2.2-4.2-2.5-5.5c0-0.1,0-0.2,0-0.2l-0.1-0.3c0-0.2-0.1-0.4-0.1-0.7
					c-0.1-0.4-0.2-0.9-0.2-1.4c-0.1-0.9-0.2-1.8-0.2-2.8c0-1.8,0.1-3.6,0.5-5.4c0.4-1.7,0.9-3.3,1.7-4.9c0.8-1.5,1.7-2.9,2.8-4.2
					l-9.2-6.4c-1.3,2.2-2.3,4.6-3.1,7c-1.7,6-1.6,12.4,0.4,18.3c0.2,0.6,0.4,1.1,0.6,1.7c0.1,0.3,0.2,0.6,0.4,0.9l0.2,0.4l0.2,0.4
					c-0.8,1.8-1.3,3.8-1.6,5.8C178.4,221.3,180.3,223.3,182.2,223L182.2,223z"/>
				<path id="Tracé_7893" class="st4" d="M187.8,197.4c0.6-1.7,1.4-3.2,2.4-4.8c1.3-2.2,3.1-4.1,5.1-5.6c2.8-2.4,5.4-5.1,7.6-8.1
					c0.9-1.2,2.1-2.2,3.4-2.8c2.6-1.2,5.3-2,8.2-2.4c0.6-0.1,1.1-0.7,1-1.3c0-0.1,0-0.1,0-0.2l-3.1-10.6c-0.2-0.5-0.7-0.9-1.2-0.8
					c-3.3,0.4-5.5,1.6-8.1,2.8c-4.2-6.6-10-12.2-16.9-16c-0.6-0.4-1.4-0.3-1.9,0.1c-3.1,2.8-12.3,12.2-16.7,21.8
					c-0.2,0.6-0.1,1.2,0.4,1.6c3.5,4.3,7.3,8.3,11.4,12.1c0.3,0.3,0.3,0.8,0.1,1.2c-1.5,2.8-2.7,5.7-3.6,8.7
					c-0.1,0.6,0.2,1.1,0.7,1.3l9.8,3.8C186.9,198.3,187.5,198,187.8,197.4L187.8,197.4z"/>
				<path id="Tracé_7894" class="st0" d="M205.3,165.2c0,0-0.1-0.5-0.4-1.2c-0.2-0.3-0.3-0.7-0.5-1.1c-0.1-0.2-0.3-0.4-0.4-0.6
					c-0.4-0.5-0.8-0.9-1.2-1.3c-0.1-0.1-0.4,0-0.6,0.2c-0.3,0.2-0.4,0.5-0.3,0.6c0,0,0.4,0.6,0.8,1.4c0.1,0.2,0.2,0.4,0.3,0.6
					c0.2,0.3,0.4,0.7,0.6,1c0.3,0.6,0.6,1,0.6,1c0.1,0.1,0.4,0.1,0.7,0C205.2,165.6,205.4,165.4,205.3,165.2L205.3,165.2z"/>
				<path id="Tracé_7895" class="st7" d="M143,172.3c0.4-4.4,2.7-10.9,6.7-14.7c5.5-5.3,11.2-4,15.5-2.4c0.8,0.3,1.7,0,2.2-0.7
					l0.9-1.4c0,0,0.1-0.1,0.1-0.1l0,0c0.5-0.8,0.4-1.8-0.4-2.5c0,0-0.1-0.1-0.1-0.1c-2.9-2-5.7-3.2-8.8-2.8
					c-3.6,0.5-6.6,2.3-9.2,3.8c-0.5,0.3-1.2,0.1-1.6-0.4l-5.1-8.5c-0.3-0.5-0.2-1.2,0.3-1.6c4.4-3.1,8.7-5.7,14.7-6
					c3.9-0.2,7.7-0.6,17.7,4.3c5.3,2.9,10.1,6.5,14.3,10.7c0.3,0.3,0.3,0.8,0,1l-1.2,1.3c-0.7,0.8-0.7,2,0.1,2.7l8.5,8.3
					c0.9,0.9,0.9,2.4,0,3.3l-12.1,12.8c-0.9,0.9-2.4,0.9-3.3,0l-8-7.8c-0.8-0.7-2-0.7-2.7,0c0,0,0,0,0,0l-1.1,1.2
					c-0.3,0.3-0.8,0.3-1.1,0c0,0,0,0,0,0c-2.3-2.4-8.3-7.8-11.5-6.2c-2.7,1.4-3.3,5.1-3.4,7.1c0,0.6-0.6,1.1-1.2,1.1
					c0,0-0.1,0-0.1,0c-2-0.4-7.2-1.2-9-1.6C143.4,173.4,143,172.9,143,172.3L143,172.3z"/>
				<path id="Tracé_7896" class="st7" d="M206.9,176.8l-0.7,0.7c-0.4,0.4-1,0.4-1.4,0c0,0,0,0,0,0l-11.5-11.6c-0.4-0.4-0.4-1,0-1.4
					l0.7-0.7c0.4-0.4,1-0.4,1.4,0c0,0,0,0,0,0l11.5,11.6C207.3,175.9,207.3,176.5,206.9,176.8L206.9,176.8z"/>
				<path id="Tracé_7897" class="st7" d="M192.5,191.4l-0.9,0.4c-0.5,0.2-1.1,0-1.3-0.5c0,0,0,0,0,0l-6.9-14.8
					c-0.2-0.5,0-1.1,0.5-1.3c0,0,0,0,0,0l0.9-0.4c0.5-0.2,1.1,0,1.3,0.5c0,0,0,0,0,0l6.9,14.8C193.2,190.6,193,191.2,192.5,191.4
					C192.5,191.4,192.5,191.4,192.5,191.4z"/>
				<path id="Tracé_7898" class="st4" d="M190.6,164.4c0,0-0.4-0.5-1.2-1.2c-0.4-0.4-0.8-0.8-1.4-1.3s-1.1-1.1-1.8-1.6
					c-0.1-0.1-0.3-0.2-0.5-0.4c-0.1-0.1-0.2-0.1-0.3-0.2c-0.1-0.1-0.3-0.2-0.4-0.2c-0.2,0-0.3-0.1-0.5-0.1c-0.1,0-0.2,0-0.4,0
					c-0.2,0-0.4,0.1-0.6,0.1c-0.4,0.1-0.8,0.2-1.2,0.4s-0.8,0.3-1.2,0.4c-0.4,0.2-0.8,0.4-1.2,0.6c-0.1,0.1-0.3,0.2-0.4,0.3
					l-0.1,0.2l-0.1,0.1l0,0.1c0,0.1-0.1,0.2-0.1,0.2c-0.1,0.1-0.1,0.3-0.2,0.4c-0.1,0.3-0.2,0.5-0.3,0.8c-0.2,0.5-0.4,1.1-0.5,1.6
					c-0.1,0.3-0.1,0.6-0.2,0.9l0,0.2c0,0.1,0,0.2,0,0.3c0,0.1,0,0.3,0,0.4l0.1,0.3c0.2,0.5,0.5,1,0.9,1.5c0.6,0.8,1.3,1.5,1.8,2
					c1,1.1,1.7,1.8,1.7,1.8c0.6,0.6,1.1,0.8,1.4,0.6c0.3-0.2,0-0.9-0.5-1.4c0,0-0.6-0.7-1.6-1.8c-0.5-0.6-1.1-1.2-1.6-2
					c-0.3-0.4-0.5-0.8-0.7-1.2c0,0,0-0.1,0-0.1s0,0,0,0c0,0,0-0.2,0-0.3c0-0.2,0.1-0.5,0.2-0.7c0.2-0.5,0.3-1,0.5-1.5
					c0.1-0.2,0.2-0.5,0.3-0.7c0-0.1,0.1-0.2,0.2-0.3s0.1-0.2,0.1-0.2c0,0,0.1,0,0.1-0.1c0.3-0.2,0.7-0.4,1-0.5
					c0.4-0.2,0.7-0.3,1.1-0.4s0.7-0.3,1.1-0.4c0.2-0.1,0.3-0.1,0.5-0.1c0.1,0,0.2,0,0.2,0l0,0c0,0,0.1,0,0.1,0.1l0.2,0.1
					c0.1,0.1,0.3,0.2,0.4,0.3c0.7,0.5,1.3,1,1.8,1.5s1,0.9,1.4,1.3l1.3,1.2c0.6,0.6,1.1,0.8,1.4,0.6
					C191.4,165.5,191.1,164.8,190.6,164.4L190.6,164.4z"/>
				<path id="Tracé_7899" class="st4" d="M194.3,164.9c0.3-0.3,0.7-0.3,1,0c0,0,0,0,0,0l1,0.9c0.3,0.3,0.3,0.7,0,1s-0.7,0.3-1,0
					l0,0l-1-0.9C194.1,165.7,194.1,165.3,194.3,164.9C194.3,165,194.3,165,194.3,164.9L194.3,164.9L194.3,164.9z"/>
				<path id="Tracé_7900" class="st4" d="M184.1,176.1c0.3-0.2,0.7-0.2,1,0.2c0,0,0,0,0,0l0.8,1.1c0.2,0.3,0.1,0.7-0.2,1
					c-0.3,0.2-0.7,0.1-1-0.2l-0.8-1.1C183.7,176.8,183.7,176.4,184.1,176.1C184,176.1,184,176.1,184.1,176.1"/>
				<path id="Tracé_7901" class="st4" d="M184.1,151.5l-0.1-0.1c-0.1-0.1-0.2-0.2-0.3-0.4c-0.7-1-1.1-2.2-1.3-3.4
					c-0.1-0.4-0.1-0.8-0.1-1.3c0-0.7,0.1-1.4,0.3-2c0.1-0.2,0.1-0.4,0.2-0.6l0.1-0.2c0.1-0.1,0.1-0.2,0.1-0.4c0-0.2-0.1-0.3-0.2-0.4
					c-0.1-0.1-0.3-0.2-0.4-0.2c-0.2,0-0.3,0.1-0.4,0.2l-0.2,0.2c-0.1,0.1-0.1,0.2-0.2,0.3c-0.1,0.1-0.1,0.3-0.2,0.4
					c-0.4,0.8-0.6,1.6-0.6,2.5c0,0.5,0,1,0.1,1.6c0.1,0.4,0.2,0.9,0.3,1.3c0.1,0.4,0.3,0.8,0.5,1.1c0.2,0.3,0.3,0.6,0.5,0.9
					c0.2,0.2,0.3,0.4,0.5,0.6c0.1,0.1,0.2,0.3,0.4,0.4c0.1,0.1,0.1,0.1,0.1,0.1c0.2,0.2,0.6,0.2,0.8,0c0,0,0,0,0,0
					C184.3,152.1,184.3,151.7,184.1,151.5L184.1,151.5z"/>
				<path id="Tracé_7902" class="st4" d="M173.5,165.6l-0.2-0.1c-0.1-0.1-0.3-0.2-0.5-0.3c-0.6-0.3-1.2-0.5-1.9-0.6
					c-0.9-0.1-1.9-0.1-2.8,0.1c-0.5,0.1-1.1,0.4-1.6,0.6c-0.8,0.4-1.5,1-2.1,1.7c-0.2,0.2-0.3,0.4-0.5,0.7c-0.1,0.2-0.2,0.3-0.2,0.3
					c-0.2,0.3-0.1,0.6,0.1,0.8c0,0,0,0,0,0c0.3,0.2,0.6,0.1,0.8-0.2l0-0.1l0.1-0.1c0.1-0.2,0.3-0.3,0.5-0.5c0.5-0.5,1.2-0.9,1.8-1.2
					c0.4-0.2,0.8-0.3,1.3-0.5c0.7-0.2,1.5-0.3,2.2-0.2c0.5,0,1.1,0.2,1.6,0.3l0.5,0.2l0.2,0.1c0.3,0.1,0.6,0,0.8-0.2
					C173.8,166.2,173.8,165.9,173.5,165.6C173.5,165.6,173.5,165.6,173.5,165.6L173.5,165.6z"/>
				<path id="Tracé_7903" class="st4" d="M170.2,146.5c-0.4-0.2-0.8-0.5-1.2-0.7c-0.3-0.2-0.7-0.1-0.9,0.3c0,0,0,0,0,0
					c-0.2,0.3,0,0.7,0.3,0.9c0.4,0.2,0.8,0.4,1.2,0.7c0.3,0.2,0.7,0.1,0.9-0.2C170.6,147.1,170.5,146.7,170.2,146.5
					C170.2,146.5,170.2,146.5,170.2,146.5L170.2,146.5z"/>
				<path id="Tracé_7904" class="st4" d="M166.3,144.6l-0.7-0.2l-0.7-0.2c-0.4-0.1-0.7,0.1-0.9,0.4c0,0,0,0,0,0
					c-0.1,0.4,0.1,0.7,0.5,0.9l0.6,0.2l0.6,0.2c0.4,0.1,0.7,0,0.9-0.4C166.9,145.2,166.7,144.8,166.3,144.6
					C166.4,144.6,166.3,144.6,166.3,144.6"/>
				<path id="Tracé_7905" class="st4" d="M162.2,143.5c-0.5-0.1-1-0.1-1.4-0.2c-0.4,0-0.7,0.2-0.7,0.6c0,0,0,0,0,0
					c0,0.4,0.3,0.7,0.6,0.7c0.4,0,0.9,0.1,1.3,0.1c0.4,0.1,0.7-0.2,0.8-0.6C162.8,143.9,162.6,143.6,162.2,143.5
					C162.2,143.5,162.2,143.5,162.2,143.5L162.2,143.5z"/>
				<path id="Tracé_7906" class="st4" d="M157.9,143.4c-0.5,0.1-1,0.1-1.4,0.2c-0.2,0-0.4,0.1-0.5,0.3c-0.1,0.2-0.1,0.3-0.1,0.5
					c0,0.2,0.1,0.3,0.3,0.4c0.1,0.1,0.3,0.1,0.5,0.1c0.4-0.1,0.9-0.1,1.3-0.2c0.4,0,0.6-0.4,0.6-0.7
					C158.6,143.6,158.3,143.3,157.9,143.4C157.9,143.4,157.9,143.4,157.9,143.4L157.9,143.4z"/>
				<path id="Tracé_7907" class="st4" d="M153.6,144.4c-0.4,0.2-0.9,0.4-1.3,0.6c-0.3,0.2-0.5,0.6-0.3,0.9c0,0,0,0,0,0
					c0.2,0.3,0.6,0.5,0.9,0.3c0.4-0.2,0.8-0.4,1.2-0.5c0.4-0.1,0.6-0.5,0.4-0.9C154.4,144.4,154,144.2,153.6,144.4
					C153.7,144.3,153.7,144.4,153.6,144.4L153.6,144.4L153.6,144.4z"/>
				<path id="Tracé_7908" class="st4" d="M149.8,146.4l-0.6,0.4l-0.6,0.5c-0.3,0.2-0.4,0.6-0.1,0.9c0,0,0,0,0,0
					c0.2,0.3,0.7,0.3,1,0.1l0.5-0.4l0.5-0.4c0.3-0.2,0.4-0.6,0.2-1C150.6,146.3,150.2,146.2,149.8,146.4
					C149.9,146.4,149.8,146.4,149.8,146.4"/>
				<path id="Tracé_7909" class="st4" d="M163.4,164.1c-0.4-0.2-0.9-0.4-1.3-0.6c-0.3-0.1-0.7,0-0.9,0.4c0,0,0,0,0,0.1
					c-0.1,0.4,0.1,0.7,0.4,0.9c0.4,0.1,0.8,0.3,1.2,0.5c0.3,0.2,0.7,0,0.9-0.3C163.9,164.7,163.8,164.3,163.4,164.1
					C163.5,164.1,163.4,164.1,163.4,164.1z"/>
				<path id="Tracé_7910" class="st4" d="M159.2,162.9c-0.5,0-1,0.1-1.5,0.2c-0.4,0.1-0.6,0.4-0.5,0.8c0,0,0,0.1,0,0.1
					c0.1,0.3,0.5,0.5,0.8,0.5c0.4-0.1,0.8-0.1,1.2-0.1c0.4,0,0.7-0.3,0.7-0.7c0-0.4-0.2-0.7-0.6-0.7
					C159.3,162.9,159.2,162.9,159.2,162.9"/>
				<path id="Tracé_7911" class="st4" d="M155,164.5l-0.6,0.5l-0.5,0.5c-0.3,0.2-0.3,0.7,0,0.9c0,0,0,0,0.1,0.1
					c0.3,0.2,0.7,0.2,1,0l0.4-0.5l0.5-0.4c0.3-0.2,0.3-0.6,0.1-1C155.8,164.3,155.4,164.2,155,164.5C155,164.4,155,164.4,155,164.5z
					"/>
				<path id="Tracé_7912" class="st4" d="M152.2,167.8l-0.3,0.6l-0.3,0.7c-0.2,0.3,0,0.7,0.3,0.9c0,0,0,0,0.1,0
					c0.3,0.1,0.7,0,0.9-0.4l0.3-0.6l0.3-0.6c0.2-0.3,0.1-0.7-0.3-0.9C152.8,167.3,152.4,167.4,152.2,167.8
					C152.2,167.7,152.2,167.8,152.2,167.8L152.2,167.8z"/>
				<path id="Tracé_7913" class="st4" d="M150.6,171.8c-0.1,0.5-0.2,0.9-0.3,1.4c-0.1,0.4,0.2,0.7,0.5,0.8c0,0,0,0,0,0
					c0.4,0,0.7-0.2,0.8-0.6c0.1-0.4,0.2-0.9,0.3-1.3c0.1-0.4-0.1-0.7-0.5-0.8C151.1,171.2,150.8,171.4,150.6,171.8
					C150.6,171.8,150.6,171.8,150.6,171.8L150.6,171.8z"/>
				<path id="Tracé_7914" class="st4" d="M168.4,153.1c0.5-0.8,0.4-1.8-0.4-2.5c0.4-0.4,0.9-0.9,1-1c0.9-0.8,1.7-1.4,1.7-1.4
					c0.3-0.3,0.8-0.3,1.1,0c0.3,0.3,0.3,0.8,0,1.1c0,0-0.6,0.8-1.4,1.7c-0.2,0.2-0.4,0.5-0.6,0.7C169.6,152,168.9,152.6,168.4,153.1
					"/>
				<path id="Tracé_7915" class="st5" d="M210.7,209.2c3.7,1,7.7-0.7,10.9-3.8c3.1-3.3,4.6-7.3,3.5-11c-1.2-3.9-3.8-6.8-7.1-9.5
					c-4.7-3.8-8.8-6-14.3-4.1c0,0-1-1.1-1.5-1.5c-0.3-0.3-0.9-0.4-1.3-0.1c-1.1,0.9-2.2,1.9-3.2,3c-1,1-2,2.1-2.9,3.3
					c-0.3,0.4-0.2,0.9,0.1,1.3c0.5,0.5,1.6,1.5,1.6,1.5c-1.8,5.6,0.6,9.6,4.5,14.2C203.8,205.6,206.8,208.1,210.7,209.2L210.7,209.2
					z"/>
				<path id="Tracé_7916" class="st4" d="M198.8,186.3c0.2,0.2,0.5,0.1,0.7,0c0.1-0.1,0.1-0.1,0.1-0.2c0.2-0.6,0.5-1.1,0.9-1.5
					c0.4-0.4,0.9-0.8,1.5-1c0.1,0,0.2-0.1,0.3-0.1c0.2-0.2,0.2-0.5,0.1-0.7c-0.1-0.2-0.4-0.3-0.6-0.3c0,0,0,0-0.1,0
					c-0.8,0.1-1.6,0.4-2.2,1c-0.5,0.6-0.8,1.4-0.9,2.2C198.5,185.9,198.6,186.1,198.8,186.3"/>
				<path id="Tracé_7917" class="st4" d="M207.8,198.3c-0.1-0.3-0.3-0.6-0.6-0.8c-0.2-0.3-0.5-0.5-0.8-0.6c-0.4-0.4-1.1-0.4-1.5,0
					c-0.4,0.4-0.4,1-0.1,1.5c0.1,0.3,0.3,0.6,0.6,0.8c0.2,0.3,0.5,0.5,0.8,0.6c0.4,0.4,1.1,0.4,1.5,0
					C208.2,199.4,208.2,198.7,207.8,198.3"/>
				<path id="Tracé_7918" class="st4" d="M215.8,190.4c-0.1-0.3-0.3-0.6-0.6-0.8c-0.2-0.3-0.5-0.5-0.8-0.6c-0.4-0.4-1.1-0.4-1.5,0
					c-0.4,0.4-0.4,1-0.1,1.5c0.1,0.3,0.3,0.6,0.6,0.8c0.2,0.3,0.5,0.5,0.8,0.6c0.4,0.4,1.1,0.4,1.5,0
					C216.2,191.5,216.2,190.8,215.8,190.4"/>
				<path id="Tracé_7919" class="st4" d="M203.1,187.2c-1.3,1.3-1.1,3.5-0.7,3.9c0.4,0.4,0.9,0.4,1.3,0c0,0,0,0,0,0
					c0.6-0.5,1.1-1,1.7-1.5c0.5-0.6,1-1.2,1.5-1.8c0.4-0.4,0.3-0.9,0-1.3c0,0,0,0,0,0C206.4,186.1,204.2,186.1,203.1,187.2
					L203.1,187.2z"/>
				<path id="Tracé_7920" class="st4" d="M213.4,216.9c5.7,0.4,12.9-4.2,13.6-9.8c4.7-2.1,6.5-8.2,5.3-13.5
					c-2-8.8-9.8-13.2-15.7-12.4s3.4,4.5,1.1,13.7c-0.4,1.4-0.6,2.8-0.8,4.3c0,0.3-0.3,0.5-0.5,0.6c-1.7,0.5-3.3,1.1-4.9,1.8
					c-8.6,3.7-12.8-4.8-12.6,1.2C199,208.7,204.4,216.3,213.4,216.9"/>
			</g>
		</g>
	</g>
</g>
<g class="st28">
	<path class="st4" d="M240,38.8c0-3.4,1.8-5.4,4.3-5.4c2.4,0,4.3,1.9,4.3,5.4s-1.8,5.4-4.3,5.4C241.8,44.2,240,42.3,240,38.8z
		 M247,38.8c0-2.7-1.1-4-2.8-4c-1.7,0-2.8,1.3-2.8,4c0,2.7,1.1,4,2.8,4C245.9,42.9,247,41.5,247,38.8z"/>
	<path class="st4" d="M257.3,42.8v1.3h-7.5v-1L254,39c1.1-1.1,1.3-1.7,1.3-2.4c0-1.1-0.8-1.7-2.2-1.7c-1.1,0-2,0.4-2.7,1.1l-1-0.9
		c0.8-1,2.2-1.6,3.8-1.6c2.2,0,3.6,1.1,3.6,2.9c0,1-0.3,1.9-1.7,3.3l-3.2,3.1H257.3z"/>
</g>
<g class="st28">
	<path class="st4" d="M42,37.2h-4.3v-3.1h12.5v3.1H46v10.9h-4V37.2z"/>
	<path class="st4" d="M51.7,34.1h4v14h-4V34.1z"/>
	<path class="st4" d="M71.2,48.1l0-7.4l-3.6,6h-1.8l-3.6-5.8v7.2h-3.7v-14h3.3l4.9,8.1l4.8-8.1h3.3l0,14H71.2z"/>
	<path class="st4" d="M88.8,45v3.1H77.6v-14h11v3.1h-7.1v2.4h6.2v3h-6.2V45H88.8z"/>
	<path class="st4" d="M95.9,46.8l1.3-2.9c1.2,0.8,3,1.4,4.6,1.4c1.6,0,2.3-0.5,2.3-1.1c0-2.2-8-0.6-8-5.8c0-2.5,2-4.5,6.2-4.5
		c1.8,0,3.7,0.4,5.1,1.2l-1.2,2.9c-1.3-0.7-2.7-1.1-3.9-1.1c-1.7,0-2.3,0.6-2.3,1.3c0,2.1,7.9,0.5,7.9,5.7c0,2.4-2,4.5-6.2,4.5
		C99.5,48.4,97.2,47.8,95.9,46.8z"/>
	<path class="st4" d="M119.2,45.4h-5.9l-1.1,2.7h-4l6.2-14h3.9l6.2,14h-4.1L119.2,45.4z M118,42.5l-1.8-4.5l-1.8,4.5H118z"/>
	<path class="st4" d="M138.9,34.1l-6,14H129l-6-14h4.3l3.8,9.1l3.9-9.1H138.9z"/>
	<path class="st4" d="M151,45v3.1h-11.2v-14h11v3.1h-7.1v2.4h6.2v3h-6.2V45H151z"/>
	<path class="st4" d="M153.2,34.1h6.6c4.6,0,7.8,2.7,7.8,7c0,4.3-3.2,7-7.8,7h-6.6V34.1z M159.7,44.9c2.4,0,4-1.4,4-3.8
		c0-2.4-1.6-3.8-4-3.8h-2.5v7.7H159.7z"/>
</g>
<g class="st28">
	<path class="st4" d="M43,62.2v3.1h6.2v3.1H43v4.8h-4v-14h11v3.1H43z"/>
	<path class="st4" d="M58,69.4h-2.2v3.7h-4v-14h6.4c3.8,0,6.2,2,6.2,5.2c0,2.1-1,3.6-2.7,4.4l3,4.4h-4.2L58,69.4z M58,62.2h-2.2v4.1
		H58c1.6,0,2.5-0.8,2.5-2C60.5,63,59.7,62.2,58,62.2z"/>
	<path class="st4" d="M65.9,66.1c0-4.2,3.3-7.3,7.8-7.3s7.8,3.1,7.8,7.3c0,4.2-3.3,7.3-7.8,7.3S65.9,70.3,65.9,66.1z M77.5,66.1
		c0-2.4-1.7-4-3.8-4c-2.1,0-3.8,1.6-3.8,4c0,2.4,1.7,4,3.8,4C75.9,70.1,77.5,68.5,77.5,66.1z"/>
	<path class="st4" d="M96.2,73.1l0-7.4l-3.6,6h-1.8l-3.6-5.8v7.2h-3.7v-14h3.3l4.9,8.1l4.8-8.1h3.3l0,14H96.2z"/>
	<path class="st4" d="M107.5,71.8l1.3-2.9c1.2,0.8,3,1.4,4.6,1.4c1.6,0,2.3-0.5,2.3-1.1c0-2.2-8-0.6-8-5.8c0-2.5,2-4.5,6.2-4.5
		c1.8,0,3.7,0.4,5.1,1.2l-1.2,2.9c-1.3-0.7-2.7-1.1-3.9-1.1c-1.7,0-2.3,0.6-2.3,1.3c0,2.1,7.9,0.5,7.9,5.7c0,2.4-2,4.5-6.2,4.5
		C111.1,73.4,108.8,72.8,107.5,71.8z"/>
	<path class="st4" d="M120.7,66.1c0-4.3,3.3-7.3,7.7-7.3c2.6,0,4.7,0.9,6,2.6l-2.5,2.3c-0.9-1.1-2-1.6-3.3-1.6c-2.3,0-3.9,1.6-3.9,4
		c0,2.4,1.6,4,3.9,4c1.3,0,2.4-0.6,3.3-1.6l2.5,2.3c-1.4,1.7-3.4,2.6-6,2.6C124,73.4,120.7,70.4,120.7,66.1z"/>
	<path class="st4" d="M142.3,69.4h-2.2v3.7h-4v-14h6.4c3.8,0,6.2,2,6.2,5.2c0,2.1-1,3.6-2.7,4.4l3,4.4h-4.2L142.3,69.4z M142.3,62.2
		h-2.2v4.1h2.2c1.6,0,2.5-0.8,2.5-2C144.8,63,144,62.2,142.3,62.2z"/>
	<path class="st4" d="M162.2,70v3.1H151v-14h11v3.1h-7.1v2.4h6.2v3h-6.2V70H162.2z"/>
	<path class="st4" d="M175.7,70v3.1h-11.2v-14h11v3.1h-7.1v2.4h6.2v3h-6.2V70H175.7z"/>
	<path class="st4" d="M191.2,59.1v14h-3.3l-6.2-7.5v7.5h-3.9v-14h3.3l6.2,7.5v-7.5H191.2z"/>
	<path class="st4" d="M193,71.8l1.3-2.9c1.2,0.8,3,1.4,4.6,1.4c1.6,0,2.3-0.5,2.3-1.1c0-2.2-8-0.6-8-5.8c0-2.5,2-4.5,6.2-4.5
		c1.8,0,3.7,0.4,5.1,1.2l-1.2,2.9c-1.3-0.7-2.7-1.1-3.9-1.1c-1.7,0-2.3,0.6-2.3,1.3c0,2.1,7.9,0.5,7.9,5.7c0,2.4-2,4.5-6.2,4.5
		C196.6,73.4,194.3,72.8,193,71.8z"/>
</g>
</svg>
