<?xml version="1.0" encoding="utf-8"?>
<!-- Generator: Adobe Illustrator 27.0.1, SVG Export Plug-In . SVG Version: 6.00 Build 0)  -->
<svg version="1.1" id="Calque_2_00000095331625990257642340000007102808714651346109_"
	 xmlns="http://www.w3.org/2000/svg" xmlns:xlink="http://www.w3.org/1999/xlink" x="0px" y="0px" viewBox="0 0 428 500"
	 style="enable-background:new 0 0 428 500;" xml:space="preserve">
<style type="text/css">
	.st0{clip-path:url(#SVGID_00000018945519759033362430000004853714467253746572_);}
	.st1{fill:#FB657C;}
	.st2{fill:#272F60;}
	.st3{fill:#FFBCC6;}
	.st4{fill:#FFFFFF;}
	.st5{clip-path:url(#SVGID_00000034072512372670700340000013667561184049327280_);}
</style>
<g id="ILLUSTRATIONS">
	<g>
		<defs>
			<rect id="SVGID_1_" y="0" width="428" height="500"/>
		</defs>
		<clipPath id="SVGID_00000025443745612245234520000016464839690983647658_">
			<use xlink:href="#SVGID_1_"  style="overflow:visible;"/>
		</clipPath>
		<g style="clip-path:url(#SVGID_00000025443745612245234520000016464839690983647658_);">
			<g>
				<g>
					<path class="st1" d="M94.6,233.3c2.7-1.1,4.5-3.6,4.8-6.5c0.3-2.9-1.1-5.6-3.5-7.2c-1.4-0.9-2.9-1.8-4.3-2.7
						c-2-1.3-3.4-3.4-3.5-5.8c-0.3-2.3,0.7-4.7,2.4-6.4c3.4-3,7.1-6.5,10-9.1c2.5-2.3,3.2-6,1.7-9.1c-3.9-7.8-11.3-22.7-16-32.2
						c-1.1-2.1-1.1-4.6-0.1-6.7c1-2.1,2.9-3.7,5.2-4.2c5.1-1.2,11.1-2.6,15.2-3.5c2.9-0.7,5-2.9,5.7-5.7c1-4.2,2.6-10.4,3.7-14.9
						c0.8-3.3,3.7-5.7,7-5.9c6.1-0.3,15.7-0.8,21.2-1.2c2.8-0.2,5.2-1.8,6.5-4.2c3.2-6.3,9.6-18.8,13.4-26.4
						c1.8-3.7,6.3-5.2,10.1-3.5c10.2,4.6,29.4,13.3,36.9,16.6c2,0.9,4.3,0.9,6.3,0c7.6-3.4,26.7-12,36.9-16.6
						c3.8-1.7,8.1-0.2,10.1,3.5c3.9,7.6,10.2,20.1,13.4,26.4c1.3,2.4,3.7,4,6.5,4.2c5.5,0.3,15.1,0.8,21.2,1.2
						c3.4,0.2,6.3,2.6,7,5.9c1.1,4.4,2.6,10.7,3.7,14.9c0.7,2.9,2.9,5,5.7,5.7c4,0.9,10.1,2.3,15.2,3.5c2.3,0.5,4.2,2.1,5.2,4.2
						s1,4.6-0.1,6.7c-4.8,9.5-12.2,24.4-16,32.2c-1.5,3.1-0.8,6.8,1.7,9.1c2.9,2.6,6.6,6.1,10,9.1c1.8,1.6,2.7,3.9,2.4,6.4
						c-0.3,2.3-1.5,4.5-3.5,5.8c-1.3,0.8-2.9,1.8-4.3,2.7c-2.4,1.5-3.8,4.4-3.5,7.2s2.1,5.4,4.8,6.5c1.3,0.5,2.3,0.9,3.4,1.3
						c1.8,0.8,3.4,2.2,4.1,3.9c2.7,6,9.1,20.2,12.2,27c1.1,2.3,3.2,4,5.7,4.4c4.2,0.8,10.7,1.8,14.8,2.6c2.4,0.4,4.5,1.9,5.6,4.2
						c1.1,2.1,2.4,4.9,3.9,7.8c0.6,1.1,0.3,2.4-0.7,3.2s-2.3,0.8-3.3,0c-0.5-0.4-1-0.8-1.4-1.1c-1.5-1.3-3.4-1.8-5.4-1.7
						c-6,0.4-19.4,1.4-26.2,1.9c-2.6,0.2-5-0.9-6.6-2.9c-4-5.1-11.7-14.8-15.1-19.2c-1.1-1.3-2.6-2.3-4.3-2.8
						c-1.8-0.4-4.4-1-6.9-1.6c-1.9-0.4-4,0.1-5.5,1.5s-2.1,3.4-1.7,5.4l0,0c0.3,1.6-0.7,3.2-2.3,3.6c-7.7,2-28.9,7.4-36.1,9.2
						c-1.5,0.4-2.9,1.3-3.9,2.4c-2.6,3-7.8,9.1-11.3,13.3c-2.2,2.5-5.7,3.4-8.8,2.1c-7.4-3-20.9-8.6-26.8-10.9
						c-1.8-0.8-3.9-0.8-5.8,0c-5.9,2.4-19.4,7.9-26.8,10.9c-3.1,1.3-6.6,0.4-8.8-2.1c-3.5-4.1-8.7-10.2-11.3-13.3
						c-1-1.2-2.4-2.1-3.9-2.4c-7.1-1.8-28.4-7.2-36.1-9.2c-1.6-0.4-2.6-2-2.3-3.6l0,0c0.4-2-0.3-4-1.7-5.4c-1.4-1.4-3.5-1.9-5.5-1.5
						c-2.5,0.6-5,1.2-6.9,1.6c-1.7,0.4-3.2,1.3-4.3,2.8c-3.4,4.3-11.1,14.1-15.1,19.2c-1.6,2-4.1,3.1-6.6,2.9
						c-6.8-0.5-20.1-1.5-26.2-1.9c-1.9-0.2-3.9,0.4-5.4,1.7c-0.4,0.3-0.9,0.8-1.4,1.1c-0.9,0.8-2.3,0.8-3.3,0s-1.3-2.1-0.7-3.2
						c1.4-2.9,2.8-5.6,3.9-7.8s3.2-3.8,5.6-4.2c4.1-0.8,10.6-1.8,14.8-2.6c2.5-0.4,4.6-2.1,5.7-4.4c3-6.8,9.5-21,12.2-27
						c0.8-1.8,2.3-3.3,4.1-3.9C92.2,234.3,93.4,233.8,94.6,233.3L94.6,233.3L94.6,233.3z"/>
					<path class="st1" d="M74,235.4c-0.1,0.4-0.2,1-0.3,1.5c-0.2,0.9-0.4,2-0.7,3.1c-1.1,4.4-2.6,9.1-2.6,9.1
						c-0.1,0.9-1,1.6-1.8,1.4c-0.9-0.1-1.6-1-1.4-1.8c0,0-0.3-5-0.2-9.6c0-1.1,0.1-2.2,0.2-3.2c0.2-1.8,0.4-3.1,0.4-3.1
						c0.2-1.1,0.8-2,1.8-2.5c0,0,2.3-1,4.9-1.9c3.5-1.3,7.6-2.5,7.6-2.5c0.8-0.4,1.8-0.1,2.3,0.8s0.1,1.8-0.8,2.3
						c0,0-3.4,2.5-6.6,4.6C75.8,234.2,74.8,234.9,74,235.4L74,235.4L74,235.4z"/>
					<path class="st1" d="M351.5,204.3c-0.8-0.8-1.8-2.1-2.8-3.4c-2.8-3.5-5.7-7.7-5.7-7.7c-0.7-0.7-0.6-1.8,0-2.3
						c0.7-0.7,1.8-0.6,2.3,0c0,0,4.1,3,7.6,6c2.6,2.2,4.7,4.3,4.7,4.3c0.8,0.8,1.2,2.1,0.8,3.3c0,0-0.3,1.1-0.8,2.7
						c-0.4,1.2-0.9,2.5-1.5,4c-1.8,4.7-4.2,9.9-4.2,9.9c-0.3,0.9-1.2,1.4-2.1,1.2s-1.4-1.2-1.2-2.1c0,0,0.8-5.6,1.7-10.6
						c0.3-1.5,0.6-3,0.8-4.2C351.4,205,351.4,204.7,351.5,204.3L351.5,204.3L351.5,204.3z"/>
					<path class="st1" d="M269.6,71.8c-1.1-0.2-2.4-0.4-3.9-0.7c-4.6-0.8-9.7-2-9.7-2c-1.2-0.1-2-1.1-1.9-2.3c0.1-1.2,1.1-2,2.3-1.9
						c0,0,5.3-0.5,10-0.7c3.5-0.2,6.6-0.2,6.6-0.2c1.5,0.1,2.8,1,3.4,2.3c0,0,1,1.8,2.2,4.4c0.6,1.3,1.2,2.9,1.8,4.5
						c2.3,6.5,4.5,14.1,4.5,14.1c0.5,1.1,0,2.3-1,2.8c-1.1,0.5-2.3,0-2.8-1c0,0-4.4-6.6-7.8-12.6c-0.8-1.5-1.7-3-2.3-4.3
						C270.3,73.3,269.9,72.5,269.6,71.8C269.6,71.8,269.6,71.8,269.6,71.8z"/>
					<path class="st1" d="M125.4,93.2c1.3-2.1,2.9-4.9,4.7-7.6c3.5-5.7,7.2-11.1,7.2-11.1c0.3-0.8,1.2-1.1,1.9-0.8s1.1,1.2,0.8,1.9
						c0,0-1.6,6.3-3.4,12.8c-1.8,6.4-3.8,12.6-3.8,12.6c-0.9,2-2.9,3.2-5.1,3.1c0,0-5.1,0.3-10.2,0c-2.8-0.2-5.5-0.4-7.4-0.8
						c-1.3,1.6-2.9,3.6-4.7,5.7c-5.1,6-11.2,12.5-11.2,12.5c-0.4,0.7-1.3,0.9-2,0.4c-0.7-0.4-0.9-1.3-0.4-2c0,0,3.3-8.2,6.5-15.4
						c2.4-5.4,4.8-10,4.8-10c1.1-1.7,3-2.7,4.9-2.5c0,0,5.1-0.2,10.2,0.3C121,92.5,123.6,92.8,125.4,93.2
						C125.4,93.2,125.4,93.2,125.4,93.2z"/>
					<path class="st1" d="M315.6,280.2l-5.6-3.9c-0.7-0.3-1-1-0.8-1.7s1-1,1.7-0.8l9.3,1.3c1.1,0.4,1.9,1.4,2.1,2.6
						c0,0,1.1,2.5,2.2,6c0.4,1.3,0.8,2.6,1.2,4c0.3,1.4,0.6,2.8,0.8,4.1c0.3,2.2,0.3,4,0.3,5.1c0.7,0.6,1.5,1.3,2.3,2.1
						c3,2.9,6.2,6.1,6.2,6.1c0.6,0.3,0.8,1.2,0.4,1.8s-1.2,0.8-1.8,0.4c0,0-4.4-1.4-8.2-2.9c-2.9-1.1-5.4-2.1-5.4-2.1
						c-1-0.7-1.8-1.7-1.9-2.9c0,0-1-2.6-1.8-6c-0.3-1.3-0.5-2.7-0.7-4.1c-0.2-1.4-0.3-2.9-0.3-4.2L315.6,280.2L315.6,280.2
						L315.6,280.2z"/>
					<path class="st1" d="M386,257.6c0,0-0.3-0.7-1.9-2.1c-0.3-0.3-0.4-0.3-0.8-0.5c-0.2-0.1-0.3-0.2-0.5-0.2s-0.3,0.1-0.5,0.2
						c-0.3,0.2-0.5,0.3-0.8,0.5c-1.8,1.2-2.1,1.8-2.1,1.8c-0.5,0-0.8,0.3-0.9,0.8c0,0.5,0.3,0.8,0.8,0.9c0,0,0.3,0.6,1.9,1.9
						c0.3,0.3,0.4,0.3,0.8,0.5c0.2,0.1,0.3,0.2,0.5,0.2s0.3,0,0.5-0.1c0.3-0.1,0.6-0.3,0.8-0.4c1.8-1.3,2.1-1.8,2.1-1.8
						c0.5,0,0.8-0.3,0.9-0.8C386.9,258,386.4,257.7,386,257.6L386,257.6z"/>
					<path class="st1" d="M358.1,330.3c0,0-0.9-0.8-2.3-1.6c-0.8-0.4-1.5-0.9-2.4-1.3c-0.5-0.3-1.1-0.3-1.6-0.5
						c-2.1-0.6-3.9-0.8-3.9-0.8c-1.3-0.5-2.8,0.1-3.3,1.3s0.1,2.8,1.3,3.3c0,0,1.4,1.1,3.3,2.2c0.5,0.3,0.9,0.6,1.5,0.8
						c0.9,0.3,1.8,0.6,2.7,0.8c1.6,0.4,2.8,0.5,2.8,0.5c1.3,0.5,2.8-0.1,3.3-1.3C359.9,332.3,359.3,330.9,358.1,330.3L358.1,330.3
						L358.1,330.3z"/>
					<path class="st1" d="M95.6,302.6c0,0-1.2,0-2.9,0.3c-0.8,0.1-1.8,0.3-2.8,0.5c-0.5,0.2-1.1,0.4-1.6,0.6c-2,0.9-3.5,1.8-3.5,1.8
						c-1.3,0.4-2.1,1.8-1.7,3.1s1.8,2.1,3.1,1.7c0,0,1.8-0.1,3.9-0.4c0.5-0.1,1.1-0.2,1.6-0.3c0.9-0.3,1.8-0.7,2.6-1.1
						c1.5-0.8,2.5-1.3,2.5-1.3c1.3-0.4,2.1-1.8,1.7-3.1C98.3,303.1,96.9,302.3,95.6,302.6L95.6,302.6z"/>
					<path class="st1" d="M136.4,289.1c0,0-0.6-0.2-1.5-0.2c-0.4,0-0.9,0-1.4,0.1c-0.3,0.1-0.5,0.3-0.8,0.3c-1,0.7-1.7,1.3-1.7,1.3
						c-1.3,0.4-2.1,1.8-1.7,3.1s1.8,2.1,3.1,1.7c0,0,0.8,0.2,2.1,0.2c0.3,0,0.6,0,0.8-0.1c0.5-0.2,0.8-0.4,1.3-0.7
						c0.8-0.5,1.2-0.9,1.2-0.9c1.3-0.4,2.1-1.8,1.7-3.1C139.1,289.6,137.7,288.8,136.4,289.1L136.4,289.1L136.4,289.1z"/>
					<path class="st1" d="M52.1,228.5c0,0-1.4-0.1-3.7,0.4c-0.8,0.2-1.4,0.3-2.1,0.8c-0.7,0.4-1.1,1.1-1.5,1.7
						c-1.3,1.8-1.9,3.2-1.9,3.2c-0.9,0.7-1.3,1.9-0.6,2.9s1.9,1.3,2.9,0.6c0,0,1.4,0.1,3.7-0.5c0.8-0.2,1.5-0.3,2.2-0.8
						s1.2-1,1.6-1.6c1.4-1.8,1.8-3.2,1.8-3.2c0.9-0.7,1.3-1.9,0.6-2.9C54.4,228.1,53.1,227.9,52.1,228.5z"/>
					<path class="st1" d="M75.4,118.8c0,0-0.8,0.9-1.6,2.3c-0.4,0.8-0.9,1.6-1.3,2.4c-0.3,0.5-0.3,1.1-0.5,1.6
						c-0.5,2.1-0.8,3.9-0.8,3.9c-0.5,1.3,0.1,2.8,1.3,3.3s2.8-0.1,3.3-1.3c0,0,1.1-1.4,2.2-3.4c0.3-0.5,0.6-0.9,0.8-1.5
						c0.3-0.9,0.6-1.8,0.8-2.7c0.3-1.6,0.5-2.8,0.5-2.8c0.5-1.3-0.1-2.8-1.3-3.3C77.4,116.9,75.9,117.6,75.4,118.8
						C75.4,118.8,75.4,118.8,75.4,118.8z"/>
					<path class="st1" d="M307.1,101.1c0,0-0.1-1.2-0.4-2.8c-0.2-0.8-0.3-1.8-0.7-2.7c-0.2-0.5-0.4-1-0.8-1.5
						c-1-1.9-2.1-3.4-2.1-3.4c-0.5-1.3-1.9-1.9-3.2-1.4s-1.9,1.9-1.4,3.2c0,0,0.2,1.8,0.7,3.9c0.1,0.5,0.3,1.1,0.4,1.6
						c0.3,0.9,0.8,1.8,1.3,2.5c0.8,1.4,1.5,2.3,1.5,2.3c0.5,1.3,1.9,1.9,3.2,1.4C306.9,103.7,307.5,102.3,307.1,101.1L307.1,101.1z"
						/>
					<path class="st1" d="M347.6,302.5c0,0-0.4-0.4-1.1-0.9c-0.3-0.3-0.8-0.5-1.2-0.8c-0.3-0.1-0.5-0.2-0.8-0.3
						c-1.1-0.3-2-0.3-2-0.3c-0.9-0.4-2,0.1-2.4,1s0.1,2,1,2.4c0,0,0.7,0.6,1.6,1.3c0.3,0.2,0.5,0.3,0.8,0.4c0.4,0.2,0.9,0.3,1.3,0.3
						c0.8,0.2,1.4,0.2,1.4,0.2c0.9,0.4,2-0.1,2.4-1C349,304,348.5,302.9,347.6,302.5L347.6,302.5L347.6,302.5z"/>
					<path class="st1" d="M114.9,290.6c0,0,0.6,0,1.4-0.2c0.4-0.1,0.9-0.2,1.3-0.3c0.3-0.1,0.5-0.3,0.8-0.4c0.9-0.7,1.6-1.3,1.6-1.3
						c0.9-0.4,1.4-1.5,1-2.4s-1.5-1.4-2.4-1c0,0-0.9,0-2,0.3c-0.3,0.1-0.6,0.1-0.8,0.3c-0.4,0.2-0.8,0.5-1.2,0.8
						c-0.7,0.5-1.1,0.9-1.1,0.9c-0.9,0.4-1.4,1.5-1,2.4C112.9,290.5,114,290.9,114.9,290.6L114.9,290.6z"/>
					<path class="st1" d="M74.3,322.5c0,0,0.6,0,1.4-0.2c0.4-0.1,0.9-0.2,1.3-0.3c0.3-0.1,0.5-0.3,0.8-0.4c0.9-0.7,1.6-1.3,1.6-1.3
						c0.9-0.4,1.4-1.5,1-2.4s-1.5-1.4-2.4-1c0,0-0.8,0-2,0.3c-0.3,0.1-0.6,0.1-0.8,0.3c-0.4,0.2-0.8,0.5-1.2,0.8
						c-0.7,0.5-1.1,0.9-1.1,0.9c-0.9,0.4-1.4,1.5-1,2.4C72.2,322.4,73.3,322.9,74.3,322.5L74.3,322.5L74.3,322.5z"/>
					<path class="st1" d="M354.1,183.4c0,0,0-0.6-0.2-1.4c-0.1-0.4-0.2-0.9-0.4-1.3c-0.1-0.3-0.3-0.5-0.4-0.7
						c-0.7-0.9-1.3-1.5-1.3-1.5c-0.4-0.9-1.5-1.3-2.5-0.9c-0.9,0.4-1.3,1.5-0.9,2.5c0,0,0.1,0.8,0.3,2c0.1,0.3,0.2,0.5,0.3,0.8
						c0.3,0.4,0.5,0.8,0.8,1.2c0.5,0.7,1,1.1,1,1.1c0.4,0.9,1.5,1.3,2.5,0.9C354.1,185.5,354.6,184.4,354.1,183.4L354.1,183.4
						L354.1,183.4z"/>
					<path class="st1" d="M322.3,113c0,0,0.3-0.5,0.5-1.3c0.1-0.4,0.3-0.8,0.3-1.3c0-0.3,0-0.6-0.1-0.8c-0.2-1.2-0.4-1.9-0.4-1.9
						c0.1-1-0.8-1.9-1.8-2s-1.9,0.8-2,1.8c0,0-0.3,0.8-0.7,1.9c-0.1,0.3-0.2,0.5-0.2,0.8c0,0.5,0.1,1,0.2,1.4
						c0.2,0.8,0.3,1.4,0.3,1.4c-0.1,1,0.8,1.9,1.8,2C321.4,114.8,322.3,114,322.3,113L322.3,113L322.3,113z"/>
					<path class="st1" d="M295.2,292.7c0,0-0.4-0.4-1.2-0.9c-0.3-0.3-0.8-0.5-1.3-0.7c-0.3-0.1-0.6-0.2-0.8-0.2
						c-1.2-0.2-2-0.2-2-0.2c-1-0.3-2,0.2-2.4,1.1c-0.3,1,0.2,2,1.1,2.4c0,0,0.7,0.6,1.6,1.2c0.3,0.2,0.5,0.3,0.8,0.4
						c0.5,0.2,0.9,0.3,1.3,0.3c0.8,0.1,1.4,0.1,1.4,0.1c1,0.3,2-0.2,2.4-1.1C296.7,294.3,296.2,293.2,295.2,292.7L295.2,292.7
						L295.2,292.7z"/>
				</g>
				<g>
					<path class="st2" d="M417.8,372.4l45.1-19.5c0,0,0.8,8.7,1.3,14.2c0.3,2.6-1.1,5.2-3.3,6.5c-5.1,3-14.3,8.3-19.6,11.3
						c-2.3,1.3-5.3,1.2-7.4-0.5C428.2,380.3,417.8,372.4,417.8,372.4L417.8,372.4z"/>
					<path class="st3" d="M447,328.2c0,0,10.9,11,17.1,17.2c1.1,1.1,1.7,2.6,1.7,4.1s-0.6,3-1.7,4.1c-5.5,5.5-14.7,14.8-18.6,18.7
						c-1.1,1.1-2.6,1.7-4.1,1.7h-23.1c-1.5,0-3-0.6-4.1-1.7c-1.1-1.1-1.7-2.6-1.7-4.1v-21.7L447,328.2L447,328.2L447,328.2z"/>
					<path class="st3" d="M391.6,323l-8.2-8.2c-2.5-2.5-6.7-2.5-9.2,0s-2.5,6.7,0,9.2l10.1,10.2c1.2,1.2,2.9,1.9,4.6,1.9h19.2
						c3.6,0,6.5-2.9,6.5-6.6s-2.9-6.6-6.5-6.6L391.6,323L391.6,323L391.6,323z"/>
					<path class="st2" d="M398.8,335.7c0,1.3,0.5,2.5,1.5,3.5c3,3,9.7,9.8,9.7,9.8l21.2,0.7l24.3-24.4v-50.5l-12.7-6.3v8.9
						c0,0-34.9,35.1-42.5,42.7c-0.9,0.9-1.5,2.2-1.5,3.5C398.8,326.6,398.8,332.5,398.8,335.7L398.8,335.7z"/>
					<path class="st3" d="M457,274.6c0-1.7-0.6-3.3-1.9-4.7l-23.5-23.5c-1.2-1.2-2.9-1.9-4.6-1.9h-19.3c-1.7,0-3.4,0.7-4.6,1.9
						L393,256.6c-2.5,2.5-2.5,6.7,0,9.2c2.5,2.5,6.7,2.5,9.2,0l8.2-8.2h13.9c0,0,15.1,15.2,17.9,18c0.3,0.3,0.5,0.7,0.5,1.1l0,0
						c0,0.8-0.5,1.5-1.2,1.8s-1.5,0.1-2.1-0.4c-3.3-3.3-7.7-7.8-7.7-7.8c-1.2-1.2-2.9-1.9-4.6-1.9h-19.3c-1.7,0-3.4,0.7-4.6,1.9
						L393,280.5c-2.5,2.5-2.5,6.7,0,9.2s6.7,2.5,9.2,0l8.2-8.2h13.9c0,0,15.1,15.2,17.9,18c0.3,0.3,0.5,0.7,0.5,1.1l0,0
						c0,0.8-0.5,1.5-1.2,1.8s-1.5,0.1-2.1-0.4c-3.3-3.3-7.7-7.8-7.7-7.8c-1.2-1.2-2.9-1.9-4.6-1.9h-19.3c-1.7,0-3.4,0.7-4.6,1.9
						L393,304.3c-2.5,2.5-2.5,6.7,0,9.2c2.5,2.5,6.7,2.5,9.2,0l8.2-8.2h13.9c0,0,6.5,6.5,10.7,10.7c1.9,1.9,1.9,4.9,0,6.9
						c-4,4-10.5,10.5-13.3,13.3c-0.9,0.9-2.1,1.5-3.5,1.5h-11.8c-1.3,0-2.5,0.8-2.9,1.9c-0.5,1.2-0.2,2.5,0.7,3.5l6.1,6.2
						c1.2,1.2,2.9,1.9,4.5,1.9h13.7c1.7,0,3.3-0.7,4.5-1.9c4.8-4.8,17.3-17.4,22.1-22.2c1.2-1.2,1.9-2.9,1.9-4.5
						C457,312,457,274.6,457,274.6L457,274.6z"/>
					<path class="st2" d="M415.6,352.7h12.9c2,0,3.9-0.8,5.3-2.2l15.8-15.9c0.4-0.4,0.4-1.1,0-1.5c-0.4-0.4-1.1-0.4-1.5,0L432.3,349
						c-1,1-2.3,1.6-3.8,1.6h-12.9c-0.6,0-1.1,0.5-1.1,1.1S415,352.7,415.6,352.7L415.6,352.7z"/>
					<path class="st2" d="M406.2,293.8c0,0,0.6,1,1.3,2.3c0.4,0.7,0.9,1.5,1.3,2.4c0.3,0.5,0.5,1,0.7,1.5c0.8,1.9,1.3,3.5,1.3,3.5
						c0.3,0.5,0,1.1-0.5,1.3s-1.1,0-1.3-0.5c0,0-0.9-1.5-1.9-3.3c-0.3-0.5-0.5-0.9-0.7-1.5c-0.4-0.9-0.7-1.7-1.1-2.5
						c-0.6-1.5-0.9-2.5-0.9-2.5c-0.3-0.5,0-1.1,0.5-1.3C405.4,293.2,406,293.4,406.2,293.8L406.2,293.8z"/>
					<path class="st2" d="M406.2,270.2c0,0,0.6,1,1.3,2.3c0.4,0.7,0.9,1.5,1.3,2.4c0.3,0.5,0.5,1,0.7,1.5c0.8,1.9,1.3,3.5,1.3,3.5
						c0.3,0.5,0,1.1-0.5,1.3s-1.1,0-1.3-0.5c0,0-0.9-1.5-1.9-3.3c-0.3-0.5-0.5-0.9-0.7-1.5c-0.4-0.9-0.7-1.7-1.1-2.5
						c-0.6-1.5-0.9-2.5-0.9-2.5c-0.3-0.5,0-1.1,0.5-1.3C405.4,269.5,406,269.7,406.2,270.2L406.2,270.2L406.2,270.2z"/>
					<path class="st2" d="M406.2,245.9c0,0,0.6,1,1.3,2.3c0.4,0.7,0.9,1.5,1.3,2.4c0.3,0.5,0.5,1,0.7,1.5c0.8,1.9,1.3,3.5,1.3,3.5
						c0.3,0.5,0,1.1-0.5,1.3s-1.1,0-1.3-0.5c0,0-0.9-1.5-1.9-3.3c-0.3-0.5-0.5-0.9-0.7-1.5c-0.4-0.9-0.7-1.7-1.1-2.5
						c-0.6-1.5-0.9-2.5-0.9-2.5c-0.3-0.5,0-1.1,0.5-1.3C405.4,245.2,406,245.4,406.2,245.9L406.2,245.9L406.2,245.9z"/>
					<path class="st2" d="M423.7,303.7c0,0,0.3-1.1,0.8-2.6c0.3-0.8,0.6-1.7,0.9-2.6c0.2-0.5,0.5-1,0.7-1.5c0.9-1.9,1.7-3.5,1.7-3.5
						c0.2-0.5,0.8-0.7,1.3-0.5c0.5,0.2,0.7,0.8,0.5,1.3c0,0-0.5,1.7-1.2,3.7c-0.2,0.5-0.3,1-0.6,1.5c-0.3,0.9-0.8,1.7-1.1,2.5
						c-0.7,1.4-1.3,2.5-1.3,2.5c-0.2,0.5-0.8,0.7-1.3,0.5C423.7,304.8,423.5,304.2,423.7,303.7L423.7,303.7z"/>
					<path class="st2" d="M423.7,280c0,0,0.3-1.1,0.8-2.6c0.3-0.8,0.6-1.7,0.9-2.6c0.2-0.5,0.5-1,0.7-1.5c0.9-1.9,1.7-3.5,1.7-3.5
						c0.2-0.5,0.8-0.7,1.3-0.5c0.5,0.2,0.7,0.8,0.5,1.3c0,0-0.5,1.7-1.2,3.7c-0.2,0.5-0.3,1-0.6,1.5c-0.3,0.9-0.8,1.7-1.1,2.5
						c-0.7,1.4-1.3,2.5-1.3,2.5c-0.2,0.5-0.8,0.7-1.3,0.5C423.7,281.1,423.5,280.5,423.7,280L423.7,280z"/>
					<path class="st2" d="M423.7,255.8c0,0,0.3-1.1,0.8-2.6c0.3-0.8,0.6-1.7,0.9-2.6c0.2-0.5,0.5-1,0.7-1.5c0.9-1.9,1.7-3.5,1.7-3.5
						c0.2-0.5,0.8-0.7,1.3-0.5c0.5,0.2,0.7,0.8,0.5,1.3c0,0-0.5,1.7-1.2,3.7c-0.2,0.5-0.3,1-0.6,1.5c-0.3,0.9-0.8,1.7-1.1,2.5
						c-0.7,1.4-1.3,2.5-1.3,2.5c-0.2,0.5-0.8,0.7-1.3,0.5C423.7,256.9,423.5,256.3,423.7,255.8L423.7,255.8z"/>
					<path class="st2" d="M391.9,324.9c0,0-0.3,1-0.8,2.4c-0.3,0.7-0.5,1.5-0.9,2.3c-0.2,0.5-0.4,0.9-0.7,1.3
						c-0.9,1.7-1.7,3.1-1.7,3.1c-0.2,0.5-0.8,0.7-1.3,0.5s-0.7-0.8-0.5-1.3c0,0,0.5-1.5,1.1-3.3c0.1-0.5,0.3-0.9,0.5-1.4
						c0.3-0.8,0.7-1.5,1.1-2.3c0.7-1.3,1.2-2.2,1.2-2.2c0.2-0.5,0.8-0.7,1.3-0.5C391.9,323.7,392.1,324.3,391.9,324.9L391.9,324.9z"
						/>
					<path class="st2" d="M420.6,359.4c0,0-0.3,0.2-0.9,0.3c-0.3,0.1-0.5,0.2-0.9,0.2c-0.2,0-0.3-0.1-0.5-0.1
						c-0.7-0.2-1.2-0.5-1.2-0.5c-0.8,0-1.5-0.7-1.5-1.5s0.7-1.5,1.5-1.5c0,0,0.5-0.3,1.2-0.5c0.2-0.1,0.3-0.1,0.5-0.1
						c0.3,0,0.6,0.1,0.9,0.2c0.5,0.1,0.9,0.3,0.9,0.3c0.8,0,1.5,0.7,1.5,1.5C422.2,358.7,421.5,359.4,420.6,359.4L420.6,359.4z"/>
					<path class="st2" d="M420.6,364.9c0,0-0.3,0.2-0.9,0.3c-0.3,0.1-0.5,0.2-0.9,0.2c-0.2,0-0.3-0.1-0.5-0.1
						c-0.7-0.2-1.2-0.5-1.2-0.5c-0.8,0-1.5-0.7-1.5-1.5s0.7-1.5,1.5-1.5c0,0,0.5-0.3,1.2-0.5c0.2-0.1,0.3-0.1,0.5-0.1
						c0.3,0,0.6,0.1,0.9,0.2c0.5,0.1,0.9,0.3,0.9,0.3c0.8,0,1.5,0.7,1.5,1.5S421.5,364.9,420.6,364.9z"/>
					<path class="st2" d="M420.6,370.5c0,0-0.3,0.2-0.9,0.3c-0.3,0.1-0.5,0.2-0.9,0.2c-0.2,0-0.3-0.1-0.5-0.1
						c-0.7-0.2-1.2-0.5-1.2-0.5c-0.8,0-1.5-0.7-1.5-1.5s0.7-1.5,1.5-1.5c0,0,0.5-0.3,1.2-0.5c0.2-0.1,0.3-0.1,0.5-0.1
						c0.3,0,0.6,0.1,0.9,0.2c0.5,0.1,0.9,0.3,0.9,0.3c0.8,0,1.5,0.7,1.5,1.5C422.2,369.8,421.5,370.5,420.6,370.5L420.6,370.5z"/>
					<ellipse class="st1" cx="404.1" cy="323.5" rx="1.6" ry="1.6"/>
					<ellipse class="st1" cx="408.6" cy="319.1" rx="1.6" ry="1.6"/>
					<path class="st1" d="M422.2,332.2c0.3,0,0.5-0.1,0.7-0.3c0.4-0.4,0.4-1.1,0-1.5l-7.2-7.2v-12.6c0-0.6-0.5-1.1-1.1-1.1
						s-1.1,0.5-1.1,1.1v13c0,0.3,0.1,0.5,0.3,0.7l7.5,7.6C421.6,332.2,421.9,332.2,422.2,332.2L422.2,332.2z"/>
				</g>
				<g>
					<path class="st2" d="M11.3,374.1l-44.2-19c0,0-0.8,8.5-1.2,13.8c-0.3,2.5,1,5,3.3,6.3c5,2.9,14,8.1,19.2,11
						c2.3,1.3,5.2,1.2,7.2-0.5C1.1,381.7,11.3,374.1,11.3,374.1z"/>
					<path class="st3" d="M-17.3,331c0,0-10.7,10.7-16.8,16.8c-1,1-1.7,2.5-1.7,4s0.6,2.9,1.7,4c5.4,5.3,14.4,14.4,18.2,18.2
						c1,1,2.5,1.7,4,1.7h22.6c1.5,0,2.9-0.6,4-1.7c1-1,1.7-2.5,1.7-4v-21.2L-17.3,331C-17.3,331-17.3,331-17.3,331z"/>
					<path class="st3" d="M36.9,325.9l8-8c2.5-2.5,6.5-2.5,9,0s2.5,6.5,0,9l-9.9,9.9c-1.2,1.2-2.8,1.9-4.5,1.9H20.7
						c-3.5,0-6.4-2.9-6.4-6.4s2.9-6.4,6.4-6.4L36.9,325.9L36.9,325.9L36.9,325.9z"/>
					<path class="st2" d="M29.9,338.2c0,1.3-0.5,2.5-1.4,3.4c-2.9,2.9-9.5,9.5-9.5,9.5l-20.7,0.7L-25.6,328v-49.2l12.5-6.1v8.7
						c0,0,34.2,34.2,41.6,41.6c0.9,0.9,1.4,2.2,1.4,3.4C29.9,329.4,29.9,335.2,29.9,338.2L29.9,338.2L29.9,338.2z"/>
					<path class="st3" d="M-27.1,278.7c0-1.6,0.6-3.3,1.9-4.6l23-23c1.2-1.2,2.8-1.9,4.5-1.9h18.9c1.7,0,3.3,0.7,4.5,1.9l9.9,9.9
						c2.5,2.5,2.5,6.5,0,9s-6.5,2.5-9,0l-8-8H4.9c0,0-14.8,14.8-17.6,17.5c-0.3,0.3-0.5,0.7-0.5,1l0,0c0,0.8,0.5,1.4,1.2,1.8
						s1.5,0.1,2.1-0.4c3.2-3.2,7.6-7.6,7.6-7.6c1.2-1.2,2.8-1.9,4.5-1.9h18.9c1.7,0,3.3,0.7,4.5,1.9l9.9,9.9c2.5,2.5,2.5,6.5,0,9
						c-2.5,2.5-6.5,2.5-9,0l-8-8H4.9c0,0-14.8,14.8-17.6,17.5c-0.3,0.3-0.5,0.7-0.5,1l0,0c0,0.8,0.5,1.4,1.2,1.8s1.5,0.1,2.1-0.4
						c3.2-3.2,7.6-7.6,7.6-7.6c1.2-1.2,2.8-1.9,4.5-1.9h18.9c1.7,0,3.3,0.7,4.5,1.9l9.9,9.9c2.5,2.5,2.5,6.5,0,9s-6.5,2.5-9,0l-8-8
						H4.9c0,0-6.3,6.3-10.4,10.4c-1.8,1.8-1.8,4.8,0,6.7c3.9,3.9,10.2,10.2,13,13c0.9,0.9,2.1,1.4,3.4,1.4h11.5
						c1.2,0,2.4,0.8,2.9,1.9c0.5,1.2,0.2,2.5-0.7,3.4l-6,6c-1.2,1.2-2.8,1.8-4.4,1.8H0.8c-1.7,0-3.3-0.7-4.4-1.8
						c-4.7-4.7-17-17-21.7-21.7c-1.2-1.2-1.8-2.8-1.8-4.4C-27.1,315.2-27.1,278.7-27.1,278.7L-27.1,278.7L-27.1,278.7z"/>
					<path class="st2" d="M13.4,354.9H0.8c-2,0-3.8-0.8-5.2-2.2l-15.5-15.5c-0.4-0.4-0.4-1,0-1.5c0.4-0.4,1-0.4,1.5,0l15.5,15.5
						c1,1,2.3,1.6,3.7,1.6h12.6c0.6,0,1,0.5,1,1S14,354.9,13.4,354.9L13.4,354.9z"/>
					<path class="st2" d="M22.6,297.5c0,0-0.6,1-1.3,2.3c-0.4,0.7-0.8,1.5-1.2,2.3c-0.3,0.5-0.5,1-0.7,1.4c-0.8,1.9-1.3,3.5-1.3,3.5
						c-0.3,0.5,0,1,0.5,1.3s1,0,1.3-0.5c0,0,0.8-1.4,1.8-3.2c0.3-0.5,0.5-0.9,0.7-1.4c0.4-0.8,0.7-1.7,1-2.4
						c0.6-1.4,0.9-2.5,0.9-2.5c0.3-0.5,0-1-0.5-1.3C23.4,296.8,22.8,297,22.6,297.5L22.6,297.5L22.6,297.5z"/>
					<path class="st2" d="M22.6,274.4c0,0-0.6,1-1.3,2.3c-0.4,0.7-0.8,1.5-1.2,2.3c-0.3,0.5-0.5,1-0.7,1.4c-0.8,1.9-1.3,3.5-1.3,3.5
						c-0.3,0.5,0,1,0.5,1.3s1,0,1.3-0.5c0,0,0.8-1.4,1.8-3.2c0.3-0.5,0.5-0.9,0.7-1.4c0.4-0.8,0.7-1.7,1-2.4
						c0.6-1.4,0.9-2.5,0.9-2.5c0.3-0.5,0-1-0.5-1.3C23.4,273.7,22.8,273.9,22.6,274.4L22.6,274.4L22.6,274.4z"/>
					<path class="st2" d="M22.6,250.7c0,0-0.6,1-1.3,2.3c-0.4,0.7-0.8,1.5-1.2,2.3c-0.3,0.5-0.5,1-0.7,1.4c-0.8,1.9-1.3,3.5-1.3,3.5
						c-0.3,0.5,0,1,0.5,1.3s1,0,1.3-0.5c0,0,0.8-1.4,1.8-3.2c0.3-0.5,0.5-0.9,0.7-1.4c0.4-0.8,0.7-1.7,1-2.4
						c0.6-1.4,0.9-2.5,0.9-2.5c0.3-0.5,0-1-0.5-1.3C23.4,250,22.8,250.2,22.6,250.7L22.6,250.7L22.6,250.7z"/>
					<path class="st2" d="M5.5,307c0,0-0.3-1.1-0.8-2.5c-0.3-0.8-0.6-1.6-0.9-2.5c-0.2-0.5-0.5-1-0.7-1.5c-0.9-1.9-1.7-3.4-1.7-3.4
						c-0.2-0.5-0.8-0.7-1.2-0.5c-0.5,0.2-0.7,0.8-0.5,1.2c0,0,0.5,1.6,1.2,3.6c0.2,0.5,0.3,1,0.6,1.5c0.3,0.8,0.8,1.7,1.1,2.4
						c0.7,1.4,1.2,2.4,1.2,2.4c0.2,0.5,0.8,0.7,1.2,0.5C5.5,308.2,5.7,307.6,5.5,307z"/>
					<path class="st2" d="M5.5,284c0,0-0.3-1.1-0.8-2.5c-0.3-0.8-0.6-1.6-0.9-2.5c-0.2-0.5-0.5-1-0.7-1.5c-0.9-1.9-1.7-3.4-1.7-3.4
						c-0.2-0.5-0.8-0.7-1.2-0.5c-0.5,0.2-0.7,0.8-0.5,1.2c0,0,0.5,1.6,1.2,3.6c0.2,0.5,0.3,1,0.6,1.5c0.3,0.8,0.8,1.7,1.1,2.4
						c0.7,1.4,1.2,2.4,1.2,2.4c0.2,0.5,0.8,0.7,1.2,0.5C5.5,285.1,5.7,284.5,5.5,284z"/>
					<path class="st2" d="M5.5,260.3c0,0-0.3-1.1-0.8-2.5c-0.3-0.8-0.6-1.6-0.9-2.5c-0.2-0.5-0.5-1-0.7-1.5
						c-0.9-1.9-1.7-3.4-1.7-3.4c-0.2-0.5-0.8-0.7-1.2-0.5c-0.5,0.2-0.7,0.8-0.5,1.2c0,0,0.5,1.6,1.2,3.6c0.2,0.5,0.3,1,0.6,1.5
						c0.3,0.8,0.8,1.7,1.1,2.4c0.7,1.4,1.2,2.4,1.2,2.4c0.2,0.5,0.8,0.7,1.2,0.5C5.5,261.4,5.7,260.8,5.5,260.3z"/>
					<path class="st2" d="M36.6,327.7c0,0,0.3,1,0.8,2.3c0.3,0.7,0.5,1.5,0.8,2.3c0.2,0.5,0.4,0.9,0.7,1.3c0.8,1.7,1.6,3,1.6,3
						c0.2,0.5,0.8,0.7,1.3,0.5s0.7-0.8,0.5-1.3c0,0-0.5-1.5-1.1-3.3c-0.1-0.5-0.3-0.9-0.5-1.4c-0.3-0.8-0.7-1.5-1-2.2
						c-0.7-1.2-1.2-2.2-1.2-2.2c-0.2-0.5-0.8-0.7-1.3-0.5C36.6,326.6,36.4,327.2,36.6,327.7L36.6,327.7z"/>
					<path class="st2" d="M8.5,361.4c0,0,0.3,0.2,0.8,0.3c0.3,0.1,0.5,0.2,0.8,0.2c0.2,0,0.3-0.1,0.5-0.1c0.7-0.2,1.2-0.5,1.2-0.5
						c0.8,0,1.4-0.7,1.4-1.4s-0.7-1.4-1.4-1.4c0,0-0.5-0.3-1.2-0.5c-0.2-0.1-0.3-0.1-0.5-0.1c-0.3,0-0.6,0.1-0.8,0.2
						c-0.5,0.1-0.8,0.3-0.8,0.3c-0.8,0-1.4,0.7-1.4,1.4C7,360.7,7.6,361.4,8.5,361.4L8.5,361.4z"/>
					<path class="st2" d="M8.5,366.8c0,0,0.3,0.2,0.8,0.3c0.3,0.1,0.5,0.2,0.8,0.2c0.2,0,0.3-0.1,0.5-0.1c0.7-0.2,1.2-0.5,1.2-0.5
						c0.8,0,1.4-0.7,1.4-1.4s-0.7-1.4-1.4-1.4c0,0-0.5-0.3-1.2-0.5c-0.2-0.1-0.3-0.1-0.5-0.1c-0.3,0-0.6,0.1-0.8,0.2
						c-0.5,0.1-0.8,0.3-0.8,0.3c-0.8,0-1.4,0.7-1.4,1.4S7.6,366.8,8.5,366.8z"/>
					<path class="st2" d="M8.5,372.2c0,0,0.3,0.2,0.8,0.3c0.3,0.1,0.5,0.2,0.8,0.2c0.2,0,0.3-0.1,0.5-0.1c0.7-0.2,1.2-0.5,1.2-0.5
						c0.8,0,1.4-0.7,1.4-1.4s-0.7-1.4-1.4-1.4c0,0-0.5-0.3-1.2-0.5c-0.2-0.1-0.3-0.1-0.5-0.1c-0.3,0-0.6,0.1-0.8,0.2
						c-0.5,0.1-0.8,0.3-0.8,0.3c-0.8,0-1.4,0.7-1.4,1.4C7,371.6,7.6,372.2,8.5,372.2L8.5,372.2z"/>
					<circle class="st1" cx="24.7" cy="326.4" r="1.6"/>
					<circle class="st1" cx="20.3" cy="322.1" r="1.6"/>
					<path class="st1" d="M7,334.9c-0.3,0-0.5-0.1-0.7-0.3c-0.4-0.4-0.4-1,0-1.5l7-7v-12.3c0-0.6,0.5-1,1-1s1,0.5,1,1v12.7
						c0,0.3-0.1,0.5-0.3,0.7l-7.4,7.4C7.5,334.8,7.2,334.9,7,334.9L7,334.9z"/>
				</g>
				<g>
					<path class="st1" d="M283,372.8c0,0,5.7,5.8,9,9.1c1.4,1.4,2.2,3.4,2.2,5.4v20.1c0,2-0.8,4-2.2,5.4
						c-4.4,4.4-13.6,13.7-13.6,13.7l-10.3-4.8v-21.8L283,372.8L283,372.8z"/>
					<path class="st1" d="M143.7,372.8c0,0-5.7,5.8-9,9.1c-1.4,1.4-2.2,3.4-2.2,5.4v20.1c0,2,0.8,4,2.2,5.4
						c4.4,4.4,13.6,13.7,13.6,13.7l10.3-4.8v-21.8L143.7,372.8L143.7,372.8L143.7,372.8z"/>
					<path class="st3" d="M225,548.7c-0.3,0.7-1,1.2-1.8,1.2h-19.5c-0.8,0-1.5-0.5-1.8-1.2c-1.6-3.6-6.2-14.4-6.2-14.4h-5.7
						l-22-50.9h-9.3l-20.3-46.8h17.5l30.1-30.2h8.3l8.1-8.1v-45.3l-13.5-13.5h-15.1l18.3-18.3h43l18.3,18.3H238l-13.5,13.5v45.3
						l8.1,8.1h8.3l30.1,30.2h17.5l-20.3,46.8H259l-22,50.9h-5.7C231.2,534.4,226.5,545.1,225,548.7L225,548.7z"/>
					<path class="st2" d="M142.2,433.9c0-0.7,0.3-1.5,0.8-2c2.8-2.8,6.2-6.2,8.3-8.3c1.3-1.3,2-3,2-4.8v-16.1c0-1.8-0.7-3.5-2-4.8
						c-1.6-1.6-3.9-3.9-5.5-5.5c-1.3-1.3-2-3-2-4.8v-23.9c0-1.8,0.7-3.5,2-4.8c4.1-4.1,13.2-13.2,17.2-17.3c1.3-1.3,3-2,4.8-2h23.6
						c1.8,0,3.5,0.7,4.8,2c2.5,2.5,6.9,6.9,9.5,9.5c1.3,1.3,2,3,2,4.8v39.6c0,1.8-0.7,3.5-2,4.8c-1.3,1.3-2.9,2.9-4.2,4.2
						c-1.3,1.3-3,2-4.8,2H194c-1.8,0-3.5,0.7-4.8,2c-5.5,5.5-20.6,20.7-26.1,26.2c-1.3,1.3-3,2-4.8,2h-16.2L142.2,433.9L142.2,433.9
						L142.2,433.9z"/>
					<path class="st2" d="M284.6,436.7h-16.2c-1.8,0-3.5-0.7-4.8-2c-5.5-5.5-20.6-20.7-26.1-26.2c-1.3-1.3-3-2-4.8-2h-2.7
						c-1.8,0-3.5-0.7-4.8-2c-1.3-1.3-2.9-2.9-4.2-4.2c-1.3-1.3-2-3-2-4.8v-39.6c0-1.8,0.7-3.5,2-4.8c2.5-2.5,6.9-6.9,9.5-9.5
						c1.3-1.3,3-2,4.8-2H259c1.8,0,3.5,0.7,4.8,2c4.1,4.1,13.2,13.2,17.2,17.3c1.3,1.3,2,3,2,4.8v23.9c0,1.8-0.7,3.5-2,4.8
						c-1.6,1.6-3.9,3.9-5.5,5.5c-1.3,1.3-2,3-2,4.8v16.1c0,1.8,0.7,3.5,2,4.8c2.1,2.1,5.5,5.5,8.3,8.3c0.6,0.6,0.8,1.3,0.8,2l0,0
						L284.6,436.7L284.6,436.7L284.6,436.7z"/>
					<path class="st4" d="M158.6,384.9V365h30.7v19.9c0,6.2-6.9,11.2-15.4,11.2C165.6,396.1,158.6,391.1,158.6,384.9L158.6,384.9z"
						/>
					<path class="st2" d="M180.8,396.1c-0.6,0-1.1-0.5-1.1-1.1v-24.8c0-0.6,0.5-1.1,1.1-1.1s1.1,0.5,1.1,1.1V395
						C181.9,395.6,181.4,396.1,180.8,396.1L180.8,396.1z"/>
					<path class="st1" d="M192.3,401h-6.5c-0.3,0-0.6-0.1-0.8-0.4l-5-5c-0.4-0.4-0.4-1.1,0-1.6c0.4-0.4,1.1-0.4,1.6,0l4.6,4.6h5.6
						l7.7-7.7v-10.5c0-0.6,0.5-1.1,1.1-1.1h7.1c0.6,0,1.1,0.5,1.1,1.1s-0.5,1.1-1.1,1.1h-5.9v9.8c0,0.3-0.1,0.6-0.3,0.8l-8.4,8.4
						C192.9,401,192.6,401,192.3,401L192.3,401z"/>
					<path class="st1" d="M241,401h-6.5c-0.3,0-0.6-0.1-0.8-0.4l-8.4-8.4c-0.2-0.2-0.3-0.5-0.3-0.8v-9.8H219c-0.6,0-1.1-0.5-1.1-1.1
						s0.5-1.1,1.1-1.1h7.1c0.6,0,1.1,0.5,1.1,1.1v10.5l7.7,7.7h5.6l4.6-4.6c0.4-0.4,1.1-0.4,1.6,0s0.4,1.1,0,1.6l-5,5
						C241.6,401,241.3,401,241,401L241,401z"/>
					<path class="st1" d="M161.4,359.7c-0.3,0-0.6-0.1-0.8-0.4l-7.7-7.7c-0.4-0.4-0.4-1.1,0-1.6c0.4-0.4,1.1-0.4,1.6,0l7.7,7.7
						c0.4,0.4,0.4,1.1,0,1.6C162,359.7,161.7,359.7,161.4,359.7L161.4,359.7z"/>
					<path class="st1" d="M265.3,359.7c-0.3,0-0.6-0.1-0.8-0.4c-0.4-0.4-0.4-1.1,0-1.6l7.7-7.7c0.4-0.4,1.1-0.4,1.6,0s0.4,1.1,0,1.6
						l-7.7,7.7C265.9,359.7,265.6,359.7,265.3,359.7z"/>
					<path class="st1" d="M166.1,356.5c-0.3,0-0.6-0.1-0.8-0.4l-8.5-8.5c-0.4-0.4-0.4-1.1,0-1.6c0.4-0.4,1.1-0.4,1.6,0l8.5,8.5
						c0.4,0.4,0.4,1.1,0,1.6C166.7,356.4,166.4,356.5,166.1,356.5L166.1,356.5z"/>
					<path class="st1" d="M260.6,356.5c-0.3,0-0.6-0.1-0.8-0.4c-0.4-0.4-0.4-1.1,0-1.6l8.5-8.5c0.4-0.4,1.1-0.4,1.6,0s0.4,1.1,0,1.6
						l-8.5,8.5C261.1,356.4,260.9,356.5,260.6,356.5z"/>
					<path class="st3" d="M192.9,344.4c0.6,0.6,0.6,1.7,0,2.3s-1.7,0.6-2.3,0c-0.6-0.6-0.6-1.7,0-2.3
						C191.2,343.7,192.3,343.7,192.9,344.4z"/>
					<path class="st3" d="M234.2,344.4c-0.6,0.6-0.6,1.7,0,2.3s1.7,0.6,2.3,0s0.6-1.7,0-2.3C236,343.7,234.9,343.7,234.2,344.4z"/>
					<ellipse class="st2" cx="164.9" cy="476.6" rx="1.7" ry="1.7"/>
					<ellipse class="st2" cx="261.9" cy="476.6" rx="1.7" ry="1.7"/>
					<path class="st3" d="M197.8,349.2c0.6,0.6,0.6,1.7,0,2.3s-1.7,0.6-2.3,0c-0.6-0.6-0.6-1.7,0-2.3
						C196.1,348.5,197.1,348.5,197.8,349.2z"/>
					<path class="st3" d="M229.4,349.2c-0.6,0.6-0.6,1.7,0,2.3s1.7,0.6,2.3,0s0.6-1.7,0-2.3C231.1,348.5,230.1,348.5,229.4,349.2z"
						/>
					<ellipse class="st2" cx="171.7" cy="476.6" rx="1.7" ry="1.7"/>
					<ellipse class="st2" cx="255.1" cy="476.6" rx="1.7" ry="1.7"/>
					<path class="st4" d="M243.6,430.7c1,1,1.3,2.5,0.8,3.8c-0.6,1.3-1.8,2.2-3.2,2.2h-55.7c-1.4,0-2.7-0.8-3.2-2.2
						c-0.6-1.3-0.2-2.8,0.8-3.8c5-5,11.6-11.6,14.1-14.2c0.6-0.6,1.5-1.1,2.4-1.1H227c0.9,0,1.8,0.4,2.4,1.1
						C232,419.1,238.7,425.7,243.6,430.7L243.6,430.7z"/>
					<path class="st1" d="M200.5,415.6h2.2v3.7h9.6v-3.7h2.2v3.7h9.6v-3.7h2.2v3.7h6.1l2.2,2.2h-8.3v3.5h9.6v-2.2l2.2,2.2l0,0
						l2.2,2.2h-2.2v3.5h5.7l1.3,1.3c0.3,0.3,0.4,0.6,0.6,0.9h-7.6v3.7h-2.2v-3.7h-9.6v3.7H224v-3.7h-9.6v3.7h-2.2v-3.7h-9.6v3.7
						h-2.2v-3.7h-9.6v3.7h-2.2v-3.7h-7.6c0.1-0.4,0.3-0.6,0.6-0.9l1.3-1.3h5.7v-3.5h-2.2l4.3-4.3v2.2h9.6v-3.5h-8.2l2.2-2.2h6V415.6
						L200.5,415.6z M191,427.2v3.5h9.6v-3.5H191z M202.7,427.2v3.5h9.6v-3.5H202.7z M214.4,427.2v3.5h9.6v-3.5H214.4z M226.2,427.2
						v3.5h9.6v-3.5H226.2z M202.7,421.5v3.5h9.6v-3.5H202.7z M214.4,421.5v3.5h9.6v-3.5H214.4z"/>
					<path class="st2" d="M187.9,449.6h-28.6c-0.4,0-0.8-0.3-1-0.7l-5.1-11.8c-0.3-0.6,0-1.3,0.6-1.5c0.6-0.3,1.3,0,1.5,0.6
						l4.8,11.2h26.7v-10.7c0-0.6,0.5-1.1,1.1-1.1s1.1,0.5,1.1,1.1v11.8C189,449.1,188.5,449.6,187.9,449.6L187.9,449.6z"/>
					<path class="st2" d="M267.4,449.6h-28.6c-0.6,0-1.1-0.5-1.1-1.1v-11.8c0-0.6,0.5-1.1,1.1-1.1s1.1,0.5,1.1,1.1v10.7h26.7
						l4.8-11.2c0.3-0.6,0.9-0.8,1.5-0.6s0.8,0.9,0.6,1.5l-5.1,11.8C268.3,449.4,267.9,449.6,267.4,449.6L267.4,449.6z"/>
					<path class="st2" d="M155.2,477c-0.3,0-0.6-0.1-0.8-0.4c-0.4-0.4-0.4-1.1,0-1.6l17.4-17.5v-9.1c0-0.6,0.5-1.1,1.1-1.1
						s1.1,0.5,1.1,1.1v9.5c0,0.3-0.1,0.6-0.3,0.8L156,476.6C155.8,476.9,155.5,477,155.2,477L155.2,477z"/>
					<path class="st2" d="M271.6,477c-0.3,0-0.6-0.1-0.8-0.4L253,458.8c-0.2-0.2-0.3-0.5-0.3-0.8v-9.5c0-0.6,0.5-1.1,1.1-1.1
						s1.1,0.5,1.1,1.1v9.1l17.4,17.5c0.4,0.4,0.4,1.1,0,1.6C272.1,476.9,271.8,477,271.6,477L271.6,477z"/>
					<g>
						<ellipse class="st2" cx="213.4" cy="471.7" rx="10.8" ry="10.8"/>
						<path class="st2" d="M213.4,483.7c-6.6,0-11.9-5.3-11.9-11.9s5.3-11.9,11.9-11.9s11.9,5.3,11.9,11.9
							C225.3,478.3,219.9,483.7,213.4,483.7z M213.4,462c-5.3,0-9.7,4.3-9.7,9.7s4.3,9.7,9.7,9.7s9.7-4.3,9.7-9.7
							C223.1,466.4,218.7,462,213.4,462z"/>
					</g>
					<ellipse class="st1" cx="213.4" cy="471.7" rx="5.4" ry="5.4"/>
					<path class="st2" d="M202.6,471.9c-0.3,0-0.6-0.1-0.8-0.4l-22.2-22.3c-0.4-0.4-0.4-1.1,0-1.6c0.4-0.4,1.1-0.4,1.6,0l22.2,22.3
						c0.4,0.4,0.4,1.1,0,1.6C203.2,471.8,202.9,471.9,202.6,471.9z"/>
					<path class="st2" d="M224.1,471.9c-0.3,0-0.6-0.1-0.8-0.4c-0.4-0.4-0.4-1.1,0-1.6l22.2-22.3c0.4-0.4,1.1-0.4,1.6,0
						s0.4,1.1,0,1.6L225,471.6C224.7,471.8,224.4,471.9,224.1,471.9z"/>
					<path class="st2" d="M167.7,483.5h8.7c1.6,0,3.1,1,3.8,2.5c1.5,3.4,4.1,9.6,6.2,14.2c0.6,1.3,0.4,2.7-0.3,3.9s-2,1.9-3.4,1.9
						h-5L167.7,483.5z"/>
					<path class="st2" d="M259,483.5h-8.6c-1.6,0-3.1,1-3.8,2.5c-1.5,3.4-4.1,9.6-6.2,14.2c-0.6,1.3-0.4,2.7,0.3,3.9s2,1.9,3.4,1.9
						h5L259,483.5L259,483.5z"/>
					<path class="st2" d="M194.7,534.4c-0.8,0-1.5-0.5-1.8-1.3s-0.1-1.6,0.4-2.2c3.1-3.2,7.7-7.7,9.8-9.8c0.8-0.8,1.1-1.8,1.1-2.8
						v-19.7c0-1.1,0.4-2,1.1-2.8c0.8-0.8,1.7-1.1,2.8-1.1h10.5c1,0,2,0.4,2.8,1.1c0.8,0.8,1.1,1.8,1.1,2.8v19.7c0,1.1,0.4,2,1.1,2.8
						c2.1,2.1,6.6,6.7,9.8,9.8c0.6,0.6,0.8,1.4,0.4,2.2c-0.3,0.8-1,1.3-1.8,1.3h-0.9c0,0-4.6,10.7-6.2,14.4c-0.3,0.7-1,1.2-1.8,1.2
						h-3.6v-5.3c0-0.9-0.3-1.8-1-2.4s-1.5-1-2.4-1h-5.7c-0.9,0-1.7,0.4-2.4,1s-1,1.5-1,2.4v5.3h-3.6c-0.8,0-1.5-0.5-1.8-1.2
						c-1.6-3.6-6.2-14.4-6.2-14.4H194.7L194.7,534.4z"/>
					<ellipse class="st3" cx="174" cy="365" rx="15.4" ry="11.2"/>
					<path class="st4" d="M162.3,363.2v-7.5h23.4v7.5c0,4.7-5.2,8.6-11.8,8.6S162.3,367.9,162.3,363.2z"/>
					<path class="st2" d="M169.6,396.8c-0.6,0-1.1-0.5-1.1-1.1v-12.1c-6.1-1.6-12-6-12-11.6c0-0.6,0.5-1.1,1.1-1.1s1.1,0.5,1.1,1.1
						c0,4.6,5.7,8.4,11.1,9.6c0.5,0.1,0.9,0.6,0.9,1.1v13C170.7,396.3,170.2,396.8,169.6,396.8L169.6,396.8z"/>
					<polygon class="st2" points="232.5,419.5 241.3,410.7 242.9,412.3 234.1,421.1 					"/>
					<polygon class="st2" points="183.8,412.3 185.4,410.7 194.2,419.6 192.6,421.1 					"/>
					<polygon class="st2" points="236.3,423.3 245.1,414.5 246.7,416.1 237.9,424.9 					"/>
					<polygon class="st2" points="180.1,416.1 181.6,414.5 190.4,423.3 188.9,424.9 					"/>
					<rect x="212.2" y="482.1" class="st2" width="2.2" height="15.4"/>
					<path class="st1" d="M162.4,415.5h-9.2c-0.6,0-1.1-0.5-1.1-1.1c0-0.6,0.5-1.1,1.1-1.1h8v-10.4c0-0.3,0.1-0.6,0.3-0.8l7.2-7.2
						c0.4-0.4,1.1-0.4,1.6,0s0.4,1.1,0,1.6l-6.9,6.9v11C163.5,415,163,415.5,162.4,415.5z"/>
					<path class="st1" d="M273.5,415.5h-9.2c-0.6,0-1.1-0.5-1.1-1.1v-11l-6.9-6.9c-0.4-0.4-0.4-1.1,0-1.6c0.4-0.5,1.1-0.4,1.6,0
						l7.2,7.2c0.2,0.2,0.3,0.5,0.3,0.8v10.4h8c0.6,0,1.1,0.5,1.1,1.1S274.1,415.5,273.5,415.5L273.5,415.5z"/>
					<path class="st2" d="M197.3,321.3c0,0,7,7,11.8,11.8c2.4,2.4,6.2,2.4,8.6,0c4.8-4.8,11.8-11.8,11.8-11.8H197.3z"/>
					<path class="st4" d="M268.1,384.9V365h-30.7v19.9c0,6.2,6.9,11.2,15.4,11.2C261.2,396.1,268.1,391.1,268.1,384.9L268.1,384.9z"
						/>
					<path class="st2" d="M246,396.1c-0.6,0-1.1-0.5-1.1-1.1v-24.8c0-0.6,0.5-1.1,1.1-1.1s1.1,0.5,1.1,1.1V395
						C247.1,395.6,246.6,396.1,246,396.1L246,396.1z"/>
					<ellipse class="st3" cx="252.7" cy="365" rx="15.4" ry="11.2"/>
					<path class="st4" d="M264.4,363.2v-7.5H241v7.5c0,4.7,5.2,8.6,11.8,8.6S264.4,367.9,264.4,363.2z"/>
					<path class="st2" d="M257.1,396.8c-0.6,0-1.1-0.5-1.1-1.1v-13c0-0.6,0.3-1,0.9-1.1c5.4-1.2,11.1-5,11.1-9.6
						c0-0.6,0.5-1.1,1.1-1.1s1.1,0.5,1.1,1.1c0,5.6-5.9,10-12,11.6v12.2C258.3,396.3,257.8,396.8,257.1,396.8L257.1,396.8z"/>
					<path class="st2" d="M166.5,369.5c-0.6,0-1.1-0.5-1.1-1.1v-7.5c0-0.6,0.5-1.1,1.1-1.1s1.1,0.5,1.1,1.1v7.5
						C167.7,369,167.1,369.5,166.5,369.5L166.5,369.5z"/>
					<path class="st2" d="M259.9,369.5c-0.6,0-1.1-0.5-1.1-1.1v-7.5c0-0.6,0.5-1.1,1.1-1.1s1.1,0.5,1.1,1.1v7.5
						C261,369,260.5,369.5,259.9,369.5L259.9,369.5z"/>
					<path class="st2" d="M170.8,371.4c-0.6,0-1.1-0.5-1.1-1.1v-7.5c0-0.6,0.5-1.1,1.1-1.1s1.1,0.5,1.1,1.1v7.5
						C171.9,370.9,171.4,371.4,170.8,371.4z"/>
					<path class="st2" d="M255.6,371.4c-0.6,0-1.1-0.5-1.1-1.1v-7.5c0-0.6,0.5-1.1,1.1-1.1s1.1,0.5,1.1,1.1v7.5
						C256.7,370.9,256.2,371.4,255.6,371.4z"/>
					<ellipse class="st3" cx="174" cy="355.7" rx="11.8" ry="8.6"/>
					<ellipse class="st2" cx="174" cy="355.7" rx="8.1" ry="5.2"/>
					<path class="st1" d="M171.7,350.7c0.8-0.1,1.5-0.2,2.3-0.2c0.8,0,1.6,0.1,2.3,0.2v2.7c0,1.3-1,2.3-2.3,2.3l0,0
						c-1.3,0-2.3-1.1-2.3-2.3V350.7L171.7,350.7z"/>
					<ellipse class="st3" cx="252.7" cy="355.7" rx="11.8" ry="8.6"/>
					<ellipse class="st2" cx="252.7" cy="355.7" rx="8.1" ry="5.2"/>
					<path class="st1" d="M255.1,350.7c-0.8-0.1-1.5-0.2-2.3-0.2c-0.8,0-1.6,0.1-2.3,0.2v2.7c0,1.3,1,2.3,2.3,2.3l0,0
						c1.3,0,2.3-1.1,2.3-2.3V350.7L255.1,350.7z"/>
				</g>
				<g>
					<defs>
						
							<rect id="SVGID_00000077317627545976762660000002215976020274869643_" x="278.3" y="59.2" transform="matrix(0.4786 -0.878 0.878 0.4786 91.8798 280.1027)" width="6.9" height="6.9"/>
					</defs>
					<clipPath id="SVGID_00000076596231976572076340000011931712007488271531_">
						<use xlink:href="#SVGID_00000077317627545976762660000002215976020274869643_"  style="overflow:visible;"/>
					</clipPath>
					<g style="clip-path:url(#SVGID_00000076596231976572076340000011931712007488271531_);">
						<path class="st1" d="M279.3,61.3c0,0-0.1,0.4-0.1,1.2c0,0.3,0,0.7,0.1,1.1c0,0.2,0.2,0.4,0.2,0.6c0.6,0.8,1,1.3,1,1.3
							c0.3,1,1.4,1.5,2.4,1.2s1.5-1.5,1.3-2.6c0,0,0.1-0.7,0-1.6c0-0.2,0-0.5-0.1-0.6c-0.1-0.3-0.4-0.6-0.5-0.9
							c-0.4-0.5-0.8-0.9-0.8-0.9c-0.3-1-1.4-1.5-2.4-1.2C279.6,59,279.1,60.2,279.3,61.3z"/>
					</g>
				</g>
			</g>
		</g>
	</g>
</g>
<g>
	<path class="st4" d="M134,131.1l-0.3,1.3h4.7l-0.5,2.7h-4.7l-0.3,1.5h5.5l-0.6,2.8h-9.2l2.2-11.1h9l-0.6,2.8
		C139.2,131.1,134,131.1,134,131.1z M136.3,127.4h-2.5l2.4-2.5h3.5L136.3,127.4z"/>
	<path class="st4" d="M139.9,134.7c0-3.9,2.9-6.6,7-6.6c2.1,0,3.9,0.8,4.7,2.2l-2.7,2.1c-0.5-0.8-1.2-1.3-2.2-1.3
		c-1.8,0-3,1.4-3,3.4c0,1.3,0.9,2.2,2.3,2.2c0.9,0,1.7-0.4,2.5-1.3l2.2,2.1c-1.3,1.6-3,2.2-5,2.2
		C142.1,139.6,139.9,137.6,139.9,134.7z"/>
	<path class="st4" d="M151.4,134.7c0-3.9,2.9-6.6,7-6.6c3.4,0,5.6,2,5.6,4.9c0,3.9-2.9,6.6-7,6.6
		C153.6,139.6,151.4,137.6,151.4,134.7z M160.2,133.2c0-1.3-0.8-2.1-2.2-2.1c-1.8,0-2.9,1.6-2.9,3.4c0,1.3,0.8,2.1,2.2,2.1
		C159.2,136.6,160.2,135.1,160.2,133.2z"/>
	<path class="st4" d="M165,135.6c0-0.4,0-0.8,0.1-1.2l1.2-6.1h3.7l-1.2,6c-0.1,0.3-0.1,0.6-0.1,0.8c0,1,0.5,1.5,1.5,1.5
		c1.1,0,1.7-0.6,2-2.3l1.2-6h3.7l-1.2,6.2c-0.7,3.3-2.7,5.1-6.1,5.1C166.8,139.6,165,138.1,165,135.6z"/>
	<path class="st4" d="M180.4,131.2h-3.2l0.6-2.9H188l-0.6,2.9h-3.2l-1.6,8.2h-3.7L180.4,131.2z"/>
	<path class="st4" d="M192,131.1l-0.3,1.3h4.7l-0.5,2.7h-4.7l-0.3,1.5h5.5l-0.6,2.8h-9.2l2.2-11.1h9l-0.6,2.8
		C197.2,131.1,192,131.1,192,131.1z"/>
	<path class="st4" d="M217.5,128.3l-2.2,11.1h-3.4l1-5l-3.1,4h-1.6l-1.7-4l-1,5h-3.4l2.2-11.1h3l2.4,5.9l4.6-5.9H217.5z"/>
	<path class="st4" d="M217.8,134.7c0-3.9,2.9-6.6,7-6.6c3.4,0,5.6,2,5.6,4.9c0,3.9-2.9,6.6-7,6.6
		C219.9,139.6,217.8,137.6,217.8,134.7z M226.6,133.2c0-1.3-0.8-2.1-2.2-2.1c-1.8,0-2.9,1.6-2.9,3.4c0,1.3,0.8,2.1,2.2,2.1
		C225.5,136.6,226.6,135.1,226.6,133.2z"/>
	<path class="st4" d="M243.6,128.3l-2.2,11.1h-3.1l-3.2-5.1l-1,5.1h-3.6l2.2-11.1h3.1l3.2,5.1l1-5.1H243.6z"/>
	<path class="st4" d="M256,137.5h-4.2l-1.1,1.9h-3.9l7-11.1h3.7l2.6,11.1h-3.7L256,137.5z M255.5,134.8L255,132l-1.6,2.8H255.5z"/>
	<path class="st4" d="M276.1,128.3l-2.2,11.1h-3.4l1-5l-3.1,4h-1.6l-1.7-4l-1,5h-3.4l2.2-11.1h3l2.4,5.9l4.6-5.9H276.1z"/>
	<path class="st4" d="M278,128.3h3.7l-2.2,11.1h-3.7L278,128.3z"/>
	<path class="st4" d="M281.1,137.7c0-1.3,1-2.2,2.2-2.2s1.9,0.8,1.9,1.9c0,1.3-1,2.2-2.2,2.2C281.9,139.5,281.1,138.8,281.1,137.7z"
		/>
	<path class="st4" d="M291.4,131.1l-0.3,1.3h4.7l-0.5,2.7h-4.7l-0.3,1.5h5.5l-0.5,2.8h-9.2l2.2-11.1h9l-0.6,2.8
		C296.7,131.1,291.4,131.1,291.4,131.1z"/>
	<path class="st4" d="M300.8,137.4c0,0.6-0.2,1-0.7,1.8l-1.9,2.7H296l1.4-2.7c-0.5-0.3-0.7-0.9-0.7-1.5c0-1.3,1-2.2,2.2-2.2
		C300,135.5,300.8,136.2,300.8,137.4z"/>
	<path class="st4" d="M123.4,157.5l1.4-2.7c1.2,0.7,2.5,1,3.7,1c1,0,1.5-0.3,1.5-0.6c0-1.2-5.3-0.5-5.3-3.9c0-2.5,2.1-4.2,5.6-4.2
		c1.6,0,3.1,0.3,4.1,0.9l-1.3,2.7c-0.9-0.6-2-0.8-3-0.8c-1.1,0-1.6,0.4-1.6,0.7c0,1.2,5.3,0.4,5.3,3.9c0,2.5-2.1,4.1-5.6,4.1
		C126.2,158.6,124.5,158.1,123.4,157.5z"/>
	<path class="st4" d="M134.8,153.6c0-3.9,2.9-6.6,7-6.6c3.4,0,5.6,2,5.6,4.9c0,3.9-2.9,6.6-7,6.6C137,158.6,134.8,156.5,134.8,153.6
		z M143.6,152.2c0-1.3-0.8-2.1-2.2-2.1c-1.8,0-2.9,1.6-2.9,3.4c0,1.3,0.8,2.1,2.2,2.1C142.6,155.6,143.6,154,143.6,152.2z"/>
	<path class="st4" d="M149.8,147.3h3.7l-2.2,11.1h-3.7L149.8,147.3z"/>
	<path class="st4" d="M157.1,150.2h-3.2l0.6-2.9h10.2l-0.6,2.9h-3.2l-1.6,8.2h-3.7L157.1,150.2z"/>
	<path class="st4" d="M172.2,150.2H169l0.6-2.9h10.2l-0.6,2.9H176l-1.6,8.2h-3.7L172.2,150.2z"/>
	<path class="st4" d="M179.1,154.5c0-0.4,0-0.8,0.1-1.2l1.2-6.1h3.7l-1.2,6c-0.1,0.3-0.1,0.6-0.1,0.8c0,1,0.5,1.5,1.5,1.5
		c1.1,0,1.7-0.6,2-2.3l1.2-6h3.7l-1.2,6.2c-0.7,3.3-2.7,5.1-6.1,5.1C180.9,158.6,179.1,157,179.1,154.5z"/>
	<path class="st4" d="M207.2,150.9c0,2.8-2.2,4.7-5.6,4.7h-1.9l-0.5,2.7h-3.7l2.2-11.1h4.9C205.5,147.3,207.2,148.6,207.2,150.9z
		 M203.4,151.3c0-0.8-0.5-1.1-1.4-1.1h-1.2l-0.5,2.6h1.5C202.8,152.7,203.4,152.2,203.4,151.3z"/>
	<path class="st4" d="M215.8,155.1l1.8,3.2h-3.9l-1.6-2.8h-0.8l-0.6,2.8H207l2.2-11.1h5c2.9,0,4.6,1.3,4.6,3.6
		C218.8,152.9,217.7,154.4,215.8,155.1z M213.6,150.2h-1.2l-0.5,2.6h1.5c1,0,1.6-0.5,1.6-1.5C215,150.5,214.5,150.2,213.6,150.2z"/>
	<path class="st4" d="M224.1,150.1l-0.3,1.3h4.7l-0.5,2.7h-4.7l-0.3,1.5h5.5l-0.6,2.8h-9.2l2.2-11.1h9l-0.6,2.8
		C229.3,150.1,224.1,150.1,224.1,150.1z"/>
	<path class="st4" d="M242.5,147.3l-2.2,11.1h-3.1l-3.2-5.1l-1,5.1h-3.6l2.2-11.1h3.1l3.2,5.1l1-5.1H242.5z"/>
	<path class="st4" d="M244.3,147.3h5c3.5,0,5.6,1.8,5.6,4.7c0,3.9-2.9,6.4-6.9,6.4h-5.9L244.3,147.3z M248.1,155.4c2,0,3-1.4,3-3.2
		c0-1.3-0.8-2-2.3-2h-1.4l-1,5.2H248.1z"/>
	<path class="st4" d="M254.7,157.5l1.4-2.7c1.2,0.7,2.5,1,3.7,1c1,0,1.5-0.3,1.5-0.6c0-1.2-5.3-0.5-5.3-3.9c0-2.5,2.1-4.2,5.6-4.2
		c1.6,0,3.1,0.3,4.1,0.9l-1.3,2.7c-0.9-0.6-2-0.8-3-0.8c-1.1,0-1.6,0.4-1.6,0.7c0,1.2,5.3,0.4,5.3,3.9c0,2.5-2.1,4.1-5.6,4.1
		C257.6,158.6,255.8,158.1,254.7,157.5z"/>
	<path class="st4" d="M274.3,150.2h-3.2l0.6-2.9h10.2l-0.6,2.9h-3.2l-1.6,8.2h-3.7L274.3,150.2z"/>
	<path class="st4" d="M281,153.6c0-3.9,2.9-6.6,7-6.6c3.4,0,5.6,2,5.6,4.9c0,3.9-2.9,6.6-7,6.6C283.2,158.6,281,156.5,281,153.6z
		 M289.8,152.2c0-1.3-0.8-2.1-2.2-2.1c-1.8,0-2.9,1.6-2.9,3.4c0,1.3,0.8,2.1,2.2,2.1C288.8,155.6,289.8,154,289.8,152.2z"/>
	<path class="st4" d="M306.9,147.3l-2.2,11.1h-3.1l-3.2-5.1l-1,5.1h-3.6l2.2-11.1h3.1l3.2,5.1l1-5.1H306.9z"/>
	<path class="st4" d="M124.6,166.2h5c3.5,0,5.6,1.8,5.6,4.7c0,3.9-2.9,6.4-6.9,6.4h-5.9L124.6,166.2z M128.4,174.4c2,0,3-1.4,3-3.2
		c0-1.3-0.8-2-2.3-2h-1.4l-1,5.2H128.4z"/>
	<path class="st4" d="M140.7,169l-0.3,1.3h4.7l-0.5,2.7h-4.7l-0.3,1.5h5.5l-0.6,2.8h-9.2l2.2-11.1h9l-0.6,2.8
		C145.9,169,140.7,169,140.7,169z"/>
	<path class="st4" d="M145.6,176.4l1.4-2.7c1.2,0.7,2.5,1,3.7,1c1,0,1.5-0.3,1.5-0.6c0-1.2-5.3-0.5-5.3-3.9c0-2.5,2.1-4.2,5.6-4.2
		c1.6,0,3.1,0.3,4.1,0.9l-1.3,2.7c-0.9-0.6-2-0.8-3-0.8c-1.1,0-1.6,0.4-1.6,0.7c0,1.2,5.3,0.4,5.3,3.9c0,2.5-2.1,4.1-5.6,4.1
		C148.5,177.5,146.7,177.1,145.6,176.4z"/>
	<path class="st4" d="M160.3,169.1h-3.2l0.6-2.9h10.2l-0.6,2.9h-3.2l-1.6,8.2h-3.7L160.3,169.1z"/>
	<path class="st4" d="M168.8,166.2h3.7l-2.2,11.1h-3.7L168.8,166.2z"/>
	<path class="st4" d="M185.2,166.2l-2.2,11.1h-3.1l-3.2-5.1l-1,5.1h-3.6l2.2-11.1h3.1l3.2,5.1l1-5.1H185.2z"/>
	<path class="st4" d="M194.8,169l-0.3,1.3h4.7l-0.5,2.7H194l-0.3,1.5h5.5l-0.6,2.8h-9.2l2.2-11.1h9L200,169
		C200,169,194.8,169,194.8,169z"/>
	<path class="st4" d="M213.3,166.2l-2.2,11.1H208l-3.2-5.1l-1,5.1h-3.6l2.2-11.1h3.1l3.2,5.1l1-5.1H213.3z"/>
	<path class="st4" d="M233,166.2l-2.2,11.1h-3.4l1-5l-3.1,4h-1.6l-1.7-4l-1,5h-3.4l2.2-11.1h3l2.4,5.9l4.6-5.9H233z"/>
	<path class="st4" d="M240.7,175.4h-4.2l-1.1,1.9h-3.9l7-11.1h3.7l2.6,11.1h-3.7L240.7,175.4z M240.2,172.7l-0.5-2.8l-1.6,2.8H240.2
		z"/>
	<path class="st4" d="M247.6,166.2h3.7l-2.2,11.1h-3.7L247.6,166.2z"/>
	<path class="st4" d="M264,166.2l-2.2,11.1h-3.1l-3.2-5.1l-1,5.1h-3.6l2.2-11.1h3.1l3.2,5.1l1-5.1H264z"/>
	<path class="st4" d="M267.9,176.4l1.4-2.7c1.2,0.7,2.5,1,3.7,1c1,0,1.5-0.3,1.5-0.6c0-1.2-5.3-0.5-5.3-3.9c0-2.5,2.1-4.2,5.6-4.2
		c1.6,0,3.1,0.3,4.1,0.9l-1.3,2.7c-0.9-0.6-2-0.8-3-0.8c-1.1,0-1.6,0.4-1.6,0.7c0,1.2,5.3,0.4,5.3,3.9c0,2.5-2.1,4.1-5.6,4.1
		C270.7,177.5,269,177.1,267.9,176.4z"/>
	<path class="st4" d="M279.3,172.6c0-3.9,2.9-6.6,7-6.6c3.4,0,5.6,2,5.6,4.9c0,3.9-2.9,6.6-7,6.6
		C281.5,177.5,279.3,175.5,279.3,172.6z M288.1,171.1c0-1.3-0.8-2.1-2.2-2.1c-1.8,0-2.9,1.6-2.9,3.4c0,1.3,0.8,2.1,2.2,2.1
		C287.1,174.5,288.1,173,288.1,171.1z"/>
	<path class="st4" d="M294.3,166.2h3.7l-2.2,11.1h-3.7L294.3,166.2z"/>
	<path class="st4" d="M301.6,169.1h-3.2l0.6-2.9h10.2l-0.6,2.9h-3.2l-1.6,8.2h-3.7L301.6,169.1z"/>
	<path class="st4" d="M134.8,188.1h-3.2l0.6-2.9h10.2l-0.6,2.9h-3.2l-1.6,8.2h-3.7L134.8,188.1z"/>
	<path class="st4" d="M146.4,188l-0.3,1.3h4.7l-0.5,2.7h-4.7l-0.3,1.4h5.5l-0.6,2.8H141l2.2-11.1h9l-0.6,2.8h-5.2L146.4,188
		L146.4,188z"/>
	<path class="st4" d="M151.3,195.4l1.4-2.7c1.2,0.7,2.5,1,3.7,1c1,0,1.5-0.3,1.5-0.6c0-1.2-5.3-0.5-5.3-3.9c0-2.5,2.1-4.2,5.6-4.2
		c1.6,0,3.1,0.3,4.1,0.9l-1.3,2.7c-0.9-0.6-2-0.8-3-0.8c-1.1,0-1.6,0.4-1.6,0.7c0,1.2,5.3,0.4,5.3,3.9c0,2.5-2.1,4.1-5.6,4.1
		C154.2,196.5,152.4,196,151.3,195.4z"/>
	<path class="st4" d="M178.6,188.8c0,2.8-2.2,4.7-5.6,4.7h-1.9l-0.5,2.7h-3.7l2.2-11.1h4.9C176.9,185.2,178.6,186.5,178.6,188.8z
		 M174.8,189.2c0-0.8-0.5-1.1-1.4-1.1h-1.2l-0.5,2.6h1.5C174.2,190.6,174.8,190.1,174.8,189.2z"/>
	<path class="st4" d="M185.9,194.3h-4.2l-1.1,1.9h-3.9l7-11.1h3.7l2.6,11.1h-3.7L185.9,194.3z M185.4,191.6l-0.5-2.8l-1.6,2.8H185.4
		z"/>
	<path class="st4" d="M199.4,193l1.8,3.2h-3.9l-1.6-2.8h-0.9l-0.6,2.8h-3.7l2.2-11.1h5c2.9,0,4.6,1.3,4.6,3.6
		C202.4,190.8,201.2,192.3,199.4,193z M197.2,188H196l-0.5,2.6h1.5c1,0,1.6-0.5,1.6-1.5C198.6,188.4,198,188,197.2,188z"/>
	<path class="st4" d="M207.7,188l-0.3,1.3h4.7l-0.5,2.7h-4.7l-0.3,1.5h5.5l-0.6,2.8h-9.2l2.2-11.1h9l-0.6,2.8H207.7z"/>
	<path class="st4" d="M226.1,185.2l-2.2,11.1h-3.1l-3.2-5.1l-1,5.1H213l2.2-11.1h3.1l3.2,5.1l1-5.1H226.1z"/>
	<path class="st4" d="M229.7,188.1h-3.2l0.6-2.9h10.2l-0.6,2.9h-3.2l-1.6,8.2h-3.7L229.7,188.1z"/>
	<path class="st4" d="M235.6,195.4l1.4-2.7c1.2,0.7,2.5,1,3.7,1c1,0,1.5-0.3,1.5-0.6c0-1.2-5.3-0.5-5.3-3.9c0-2.5,2.1-4.2,5.6-4.2
		c1.6,0,3.1,0.3,4.1,0.9l-1.3,2.7c-0.9-0.6-2-0.8-3-0.8c-1.1,0-1.6,0.4-1.6,0.7c0,1.2,5.3,0.4,5.3,3.9c0,2.5-2.1,4.1-5.6,4.1
		C238.4,196.5,236.7,196,235.6,195.4z"/>
	<path class="st4" d="M265.1,185.2l-6.9,11.1h-3.7l-2.5-11.1h3.8l1.4,6.4l4-6.4H265.1z"/>
	<path class="st4" d="M263.7,191.5c0-3.9,2.9-6.6,7-6.6c3.4,0,5.6,2,5.6,4.9c0,3.9-2.9,6.6-7,6.6
		C265.9,196.5,263.7,194.4,263.7,191.5z M272.5,190.1c0-1.3-0.8-2.1-2.2-2.1c-1.8,0-2.9,1.6-2.9,3.4c0,1.3,0.8,2.1,2.2,2.1
		C271.5,193.5,272.5,191.9,272.5,190.1z"/>
	<path class="st4" d="M289.6,185.2l-2.2,11.1h-3.1l-3.2-5.1l-1,5.1h-3.6l2.2-11.1h3.1l3.2,5.1l1-5.1H289.6z"/>
	<path class="st4" d="M293.2,188.1H290l0.6-2.9h10.2l-0.6,2.9H297l-1.6,8.2h-3.7L293.2,188.1z"/>
	<path class="st4" d="M142.9,206.9l-0.4,1.9h4.6l-0.6,2.8h-4.6l-0.7,3.5h-3.7l2.2-11.1h9l-0.6,2.8h-5.2V206.9z"/>
	<path class="st4" d="M149.9,204.1h3.7l-2.2,11.1h-3.7L149.9,204.1z"/>
	<path class="st4" d="M161.5,209.7l3,5.5h-4l-1.4-2.8l-2.4,2.8h-4.5l5.2-5.7l-2.8-5.3h4l1.4,2.8l2.4-2.8h4.2L161.5,209.7z"/>
	<path class="st4" d="M170.2,206.9l-0.3,1.3h4.7l-0.5,2.7h-4.7l-0.3,1.5h5.5l-0.6,2.8h-9.2l2.2-11.1h9l-0.6,2.8H170.2z"/>
	<path class="st4" d="M184.3,211.9l1.8,3.2h-3.8l-1.6-2.8h-0.9l-0.6,2.8h-3.7l2.2-11.1h5c2.9,0,4.6,1.3,4.6,3.6
		C187.3,209.7,186.2,211.2,184.3,211.9z M182.2,207H181l-0.5,2.6h1.5c1,0,1.6-0.5,1.6-1.5C183.5,207.3,183,207,182.2,207z"/>
	<path class="st4" d="M194.3,204.1h3.7l-1.6,8.2h5l-0.6,2.9h-8.7L194.3,204.1z"/>
	<path class="st4" d="M207.1,206.9l-0.3,1.3h4.7l-0.5,2.7h-4.7l-0.3,1.5h5.5l-0.6,2.8h-9.2l2.2-11.1h9l-0.6,2.8H207.1z"/>
	<path class="st4" d="M212,214.3l1.4-2.7c1.2,0.7,2.5,1,3.7,1c1,0,1.5-0.3,1.5-0.6c0-1.2-5.3-0.5-5.3-3.9c0-2.5,2.1-4.2,5.6-4.2
		c1.6,0,3.1,0.3,4.1,0.9l-1.3,2.7c-0.9-0.6-2-0.8-3-0.8c-1.1,0-1.6,0.4-1.6,0.7c0,1.2,5.3,0.4,5.3,3.9c0,2.5-2.1,4.1-5.6,4.1
		C214.8,215.4,213.1,214.9,212,214.3z"/>
	<path class="st4" d="M236.3,211.9l1.8,3.2h-3.8l-1.6-2.8h-0.9l-0.6,2.8h-3.7l2.2-11.1h5c2.9,0,4.6,1.3,4.6,3.6
		C239.3,209.7,238.2,211.2,236.3,211.9z M234.1,207h-1.2l-0.5,2.6h1.5c1,0,1.6-0.5,1.6-1.5C235.5,207.3,235,207,234.1,207z"/>
	<path class="st4" d="M244.6,206.9l-0.3,1.3h4.7l-0.5,2.7h-4.7l-0.3,1.5h5.5l-0.6,2.8h-9.1l2.2-11.1h9l-0.6,2.8H244.6z M245.5,203.2
		l-2.6-2.5h3.4l1.6,2.5H245.5z"/>
	<path class="st4" d="M258.4,209.3h3.2l-0.9,4.8c-1.2,0.8-2.7,1.3-4.5,1.3c-3.4,0-5.7-2-5.7-4.9c0-3.9,2.9-6.6,7.1-6.6
		c2.3,0,4,0.7,5,2.2l-2.7,2.1c-0.7-0.9-1.5-1.2-2.5-1.2c-1.9,0-3.2,1.4-3.2,3.4c0,1.3,0.9,2.2,2.4,2.2c0.4,0,0.7,0,1.1-0.2
		L258.4,209.3z"/>
	<path class="st4" d="M264.3,204.1h3.7l-1.6,8.2h5l-0.6,2.9h-8.7L264.3,204.1z"/>
	<path class="st4" d="M277.1,206.9l-0.3,1.3h4.7l-0.5,2.7h-4.7l-0.3,1.5h5.5l-0.6,2.8h-9.2l2.2-11.1h9l-0.6,2.8H277.1z"/>
	<path class="st4" d="M282,214.3l1.4-2.7c1.2,0.7,2.5,1,3.7,1c1,0,1.5-0.3,1.5-0.6c0-1.2-5.3-0.5-5.3-3.9c0-2.5,2.1-4.2,5.6-4.2
		c1.6,0,3.1,0.3,4.1,0.9l-1.3,2.7c-0.9-0.6-2-0.8-3-0.8c-1.1,0-1.6,0.4-1.6,0.7c0,1.2,5.3,0.4,5.3,3.9c0,2.5-2.1,4.1-5.6,4.1
		C284.8,215.4,283.1,214.9,282,214.3z"/>
	<path class="st4" d="M148,223.1h5c3.5,0,5.6,1.8,5.6,4.7c0,3.9-2.9,6.4-6.9,6.4h-5.9L148,223.1z M151.8,231.2c2,0,3-1.4,3-3.2
		c0-1.3-0.8-2-2.3-2h-1.4l-1,5.2H151.8z"/>
	<path class="st4" d="M159.6,230.3c0-0.4,0-0.8,0.1-1.2l1.2-6.1h3.7l-1.2,6c-0.1,0.3-0.1,0.6-0.1,0.8c0,1,0.5,1.5,1.5,1.5
		c1.1,0,1.7-0.6,2-2.3l1.2-6h3.7l-1.2,6.2c-0.7,3.3-2.7,5.1-6.1,5.1C161.4,234.4,159.6,232.8,159.6,230.3z"/>
	<path class="st4" d="M175,232.7l2.4-2.3c0.5,0.7,1,1,1.7,1s1.2-0.4,1.3-1.2l0.9-4.4h-3.8l0.6-2.8h7.4l-1.4,6.9
		c-0.6,3.2-2.3,4.4-5.1,4.4C177.1,234.4,175.8,233.8,175,232.7z"/>
	<path class="st4" d="M190.3,225.9l-0.3,1.3h4.7l-0.5,2.7h-4.7l-0.3,1.5h5.5l-0.6,2.8h-9.2l2.2-11.1h9l-0.6,2.8H190.3z"/>
	<path class="st4" d="M196.4,230.3c0-0.4,0-0.8,0.1-1.2l1.2-6.1h3.7l-1.2,6c-0.1,0.3-0.1,0.6-0.1,0.8c0,1,0.5,1.5,1.5,1.5
		c1.1,0,1.7-0.6,2-2.3l1.2-6h3.7l-1.2,6.2c-0.7,3.3-2.7,5.1-6.1,5.1C198.2,234.4,196.4,232.8,196.4,230.3z"/>
	<path class="st4" d="M212.3,233.2l1.4-2.7c1.2,0.7,2.5,1,3.7,1c1,0,1.5-0.3,1.5-0.6c0-1.2-5.3-0.5-5.3-3.9c0-2.5,2.1-4.2,5.6-4.2
		c1.6,0,3.1,0.3,4.1,0.9l-1.3,2.7c-0.9-0.6-2-0.8-3-0.8c-1.1,0-1.6,0.4-1.6,0.7c0,1.2,5.3,0.4,5.3,3.9c0,2.5-2.1,4.1-5.6,4.1
		C215.1,234.4,213.4,233.9,212.3,233.2z"/>
	<path class="st4" d="M231.1,232.2h-4.2l-1.1,1.9h-3.9l7-11.1h3.7l2.6,11.1h-3.7L231.1,232.2z M230.6,229.5l-0.5-2.8l-1.6,2.8H230.6
		z"/>
	<path class="st4" d="M248.9,223.1l-2.2,11.1h-3.1l-3.2-5.1l-1,5.1h-3.6l2.2-11.1h3.1l3.2,5.1l1-5.1H248.9z"/>
	<path class="st4" d="M248.1,233.2l1.4-2.7c1.2,0.7,2.5,1,3.7,1c1,0,1.5-0.3,1.5-0.6c0-1.2-5.3-0.5-5.3-3.9c0-2.5,2.1-4.2,5.6-4.2
		c1.6,0,3.1,0.3,4.1,0.9l-1.3,2.7c-0.9-0.6-2-0.8-3-0.8c-1.1,0-1.6,0.4-1.6,0.7c0,1.2,5.3,0.4,5.3,3.9c0,2.5-2.1,4.1-5.6,4.1
		C250.9,234.4,249.2,233.9,248.1,233.2z"/>
	<path class="st4" d="M267.6,226h-3.2l0.6-2.9h10.2l-0.6,2.9h-3.2l-1.6,8.2h-3.7L267.6,226z"/>
	<path class="st4" d="M279.2,225.9l-0.3,1.3h4.7l-0.5,2.7h-4.7l-0.3,1.5h5.5l-0.6,2.8h-9.2l2.2-11.1h9l-0.6,2.8H279.2z"/>
	<path class="st4" d="M119.8,242h5c3.5,0,5.6,1.8,5.6,4.7c0,3.9-2.9,6.4-6.9,6.4h-5.9L119.8,242z M123.6,250.2c2,0,3-1.4,3-3.2
		c0-1.3-0.8-2-2.3-2h-1.4l-1,5.2H123.6z"/>
	<path class="st4" d="M135.9,244.8l-0.3,1.3h4.7l-0.5,2.7h-4.7l-0.3,1.5h5.5l-0.6,2.8h-9.2l2.2-11h9l-0.6,2.8h-5.2L135.9,244.8
		L135.9,244.8z"/>
	<path class="st4" d="M156.7,242l-2.2,11h-3.4l1-5l-3.1,4h-1.7l-1.7-4l-1,5h-3.3l2.2-11h3l2.4,5.9l4.6-5.9H156.7z"/>
	<path class="st4" d="M164.4,251.1h-4.2l-1.1,1.9h-3.9l7-11h3.7l2.6,11h-3.7L164.4,251.1z M163.8,248.4l-0.5-2.8l-1.6,2.8H163.8z"/>
	<path class="st4" d="M182.1,242l-2.2,11h-3.1l-3.2-5.1l-1,5.1H169l2.2-11h3.1l3.2,5.1l1-5.1H182.1z"/>
	<path class="st4" d="M183.9,242h5c3.5,0,5.6,1.8,5.6,4.7c0,3.9-2.9,6.4-6.9,6.4h-5.9L183.9,242z M187.8,250.2c2,0,3-1.4,3-3.2
		c0-1.3-0.8-2-2.3-2h-1.4l-1,5.2H187.8z"/>
	<path class="st4" d="M200.1,244.8l-0.3,1.3h4.7l-0.5,2.7h-4.7l-0.3,1.5h5.5l-0.6,2.8h-9.2l2.2-11h9l-0.6,2.8h-5.2L200.1,244.8
		L200.1,244.8z"/>
	<path class="st4" d="M214.2,249.8l1.8,3.2h-3.9l-1.6-2.8h-0.9L209,253h-3.7l2.2-11h5c2.9,0,4.6,1.3,4.6,3.6
		C217.2,247.6,216,249.1,214.2,249.8z M212,244.9h-1.2l-0.5,2.6h1.5c1,0,1.6-0.5,1.6-1.5C213.4,245.2,212.8,244.9,212,244.9z"/>
	<path class="st4" d="M225.9,244.9h-3.2l0.6-2.9h10.2l-0.6,2.9h-3.2l-1.6,8.2h-3.8L225.9,244.9z"/>
	<path class="st4" d="M232.7,248.4c0-3.9,2.9-6.6,7-6.6c3.4,0,5.6,2,5.6,4.9c0,3.9-2.9,6.6-7,6.6
		C234.8,253.3,232.7,251.3,232.7,248.4z M241.5,246.9c0-1.3-0.8-2.1-2.2-2.1c-1.8,0-2.9,1.6-2.9,3.4c0,1.3,0.8,2.1,2.2,2.1
		C240.4,250.3,241.5,248.7,241.5,246.9z"/>
	<path class="st4" d="M258.5,242l-2.2,11h-3l-3.2-5.1l-1,5.1h-3.6l2.2-11h3.1l3.2,5.1l1-5.1H258.5z"/>
	<path class="st4" d="M270.9,251.1h-4.2l-1.1,1.9h-3.9l7-11h3.7l2.6,11h-3.7L270.9,251.1z M270.4,248.4l-0.5-2.8l-1.6,2.8H270.4z"/>
	<path class="st4" d="M289,242l-6.9,11h-3.7l-2.5-11h3.8l1.4,6.4l4-6.4H289z"/>
	<path class="st4" d="M289.4,242h3.7l-2.2,11h-3.7L289.4,242z"/>
	<path class="st4" d="M292.3,252.2l1.4-2.7c1.2,0.7,2.5,1,3.7,1c1,0,1.5-0.3,1.5-0.6c0-1.2-5.3-0.5-5.3-3.9c0-2.5,2.1-4.2,5.6-4.2
		c1.6,0,3.1,0.3,4.1,0.9l-1.3,2.7c-0.9-0.6-2-0.8-3-0.8c-1.1,0-1.6,0.4-1.6,0.7c0,1.2,5.3,0.4,5.3,3.9c0,2.5-2.1,4.1-5.6,4.1
		C295.1,253.3,293.3,252.8,292.3,252.2z"/>
	<path class="st4" d="M307.6,251.5c0-1.2,0.9-2,2.2-2c1.2,0,2,0.7,2,1.7c0,1.2-0.9,2.1-2.2,2.1C308.4,253.2,307.6,252.4,307.6,251.5
		z M309.4,242h4.3l-2.1,6.8h-2.8L309.4,242z"/>
</g>
</svg>
