<?xml version="1.0" encoding="utf-8"?>
<!-- Generator: Adobe Illustrator 26.2.1, SVG Export Plug-In . SVG Version: 6.00 Build 0)  -->
<svg version="1.1" xmlns="http://www.w3.org/2000/svg" xmlns:xlink="http://www.w3.org/1999/xlink" x="0px" y="0px"
	 viewBox="0 0 428 926" style="enable-background:new 0 0 428 926;" xml:space="preserve">
<style type="text/css">
	.st0{fill:url(#FOND_00000136388672819096382660000006508328166923568547_);}
	.st1{fill:url(#FOND_00000102538860836236860580000007372092097200058541_);}
	.st2{fill:#FFF5F7;}
	.st3{fill:url(#FOND_00000170248040692074889200000016347335130324843919_);}
	.st4{fill:url(#FOND_00000083805710730144019700000017892991464775872958_);}
	.st5{fill:url(#FOND_00000005968801088289677400000017496256546211319485_);}
	.st6{fill:url(#FOND_00000154391114618053117210000002138116539242804635_);}
	.st7{fill:url(#FOND_00000125594338287865640220000011073793248014679448_);}
	.st8{fill:url(#FOND_00000043435587223460502640000005635151582525892494_);}
	.st9{fill:url(#FOND_00000179625245616181433590000017664368916061805476_);}
	.st10{fill:url(#FOND_00000093862874252428984500000013870783609597408438_);}
	.st11{fill:#272F60;}
	.st12{fill:#FD657C;}
	.st13{fill:url(#FOND_00000140723021796435363010000016392754488873436078_);}
	.st14{fill:url(#FOND_00000180347328203421756000000014540906532604809883_);}
	.st15{fill:#F4AAB9;}
	.st16{clip-path:url(#Rectangle_10_00000135667762675757409200000015322491648961179535_);}
	.st17{fill:#FB657C;}
	.st18{fill:#FFFFFF;}
	.st19{fill:#FFBCC6;}
	.st20{clip-path:url(#SVGID_00000177443961113366133310000011575724565192430505_);}
	.st21{enable-background:new    ;}
	.st22{fill:#FB657C;stroke:#FD657C;stroke-width:3.8352001;stroke-linecap:round;stroke-linejoin:round;stroke-miterlimit:1.4382;}
	.st23{fill:#FFBCC6;stroke:#FFBCC6;stroke-width:3.8352001;stroke-linecap:round;stroke-linejoin:round;stroke-miterlimit:1.4382;}
	.st24{clip-path:url(#SVGID_00000011713561477957431480000006813712737708528266_);fill:#FB657C;}
	.st25{clip-path:url(#SVGID_00000120533133432767556340000002549004738754739877_);fill:#FFBCC6;}
	.st26{clip-path:url(#SVGID_00000083079427598109135060000008898935922894941335_);fill:#FFBCC6;}
	.st27{clip-path:url(#SVGID_00000119111705869816918990000017108137386691921316_);fill:#FFBCC6;}
	.st28{clip-path:url(#SVGID_00000134958306785883428020000005801118187732942268_);fill:#FFBCC6;}
	.st29{clip-path:url(#SVGID_00000129194661173396928770000012721674129592752792_);fill:#FFBCC6;}
	.st30{clip-path:url(#SVGID_00000111157224862587056320000017827185600658477444_);fill:#FFBCC6;}
	.st31{clip-path:url(#SVGID_00000124876563270500177880000002868699213787799200_);fill:#FFBCC6;}
	.st32{clip-path:url(#SVGID_00000070841470617788224370000018252962124249105341_);fill:#FFBCC6;}
	.st33{clip-path:url(#SVGID_00000023246273158174531290000015510833290118019727_);fill:#FFBCC6;}
	.st34{clip-path:url(#SVGID_00000079468832197087134450000015216881630800924812_);fill:#FFBCC6;}
	.st35{clip-path:url(#SVGID_00000047019702836608542260000012649557937407732138_);fill:#FFBCC6;}
	.st36{clip-path:url(#SVGID_00000150783253995688254070000004194392092144389775_);fill:#FFBCC6;}
	.st37{clip-path:url(#SVGID_00000053537506041804417190000016440305546906128562_);fill:#FFBCC6;}
	.st38{clip-path:url(#SVGID_00000176730571974050090850000007649427884406531509_);fill:#FFBCC6;}
	.st39{clip-path:url(#SVGID_00000088826675107454413830000013005061586705313421_);fill:#272F60;}
	.st40{clip-path:url(#SVGID_00000088826675107454413830000013005061586705313421_);fill:#FB657C;}
	.st41{clip-path:url(#SVGID_00000088826675107454413830000013005061586705313421_);fill:#FFBCC6;}
	.st42{clip-path:url(#SVGID_00000088826675107454413830000013005061586705313421_);fill:#FFFFFF;}
	.st43{fill:none;}
	.st44{clip-path:url(#SVGID_00000075161391657004511220000008087216177367642557_);fill:#FFFFFF;}
	.st45{clip-path:url(#SVGID_00000061462588459918876730000000253573944430686361_);fill:#FFFFFF;}
	.st46{clip-path:url(#SVGID_00000161607802516705260720000001363205532848287379_);fill:#FFFFFF;}
	.st47{clip-path:url(#SVGID_00000075154708243872397640000014055686977053199034_);fill:#FFFFFF;}
	.st48{clip-path:url(#SVGID_00000144323415347346509720000013066787339177462182_);fill:#FFFFFF;}
	.st49{clip-path:url(#SVGID_00000032650641293844517440000008576250349731751356_);fill:#FFFFFF;}
	.st50{clip-path:url(#SVGID_00000138537385033252344860000013830093245132292265_);fill:#FFFFFF;}
	.st51{clip-path:url(#SVGID_00000027563686548041916620000002894445046699149967_);fill:#FFFFFF;}
	.st52{clip-path:url(#SVGID_00000000184651837131875680000010891267967121616769_);fill:#FFFFFF;}
	.st53{clip-path:url(#SVGID_00000019676176968386832310000016641405494705593021_);fill:#FFFFFF;}
	.st54{clip-path:url(#SVGID_00000030474858735518598530000015856788441894735519_);fill:#FFFFFF;}
	.st55{clip-path:url(#SVGID_00000173861691260538827190000006446842089277949622_);fill:#FFFFFF;}
	.st56{clip-path:url(#SVGID_00000178902809217180988010000009335150934743097780_);fill:#FB657C;}
	.st57{clip-path:url(#SVGID_00000106119209710446037300000013737317575181700244_);fill:#FFFFFF;}
	.st58{clip-path:url(#SVGID_00000083048489198647399890000009575499135165034908_);fill:#FFFFFF;}
	.st59{fill:#FF647B;}
	.st60{fill:#FF657C;}
	.st61{fill:#272E5F;}
	.st62{fill:none;stroke:#272E5F;stroke-width:3;}
	.st63{clip-path:url(#SVGID_00000031909795793608082210000008000566144736602245_);}
	.st64{fill:#606060;}
	.st65{fill:#E94B67;}
	.st66{fill:#132350;}
	.st67{fill:#050605;}
	.st68{fill:#FFF5F7;stroke:#272E5F;stroke-width:2;}
	.st69{fill:none;stroke:#272E5F;stroke-width:2;stroke-linecap:round;stroke-linejoin:round;stroke-miterlimit:10;}
	.st70{fill:none;stroke:#272E5F;stroke-width:2;}
	.st71{fill:none;stroke:#272E5F;stroke-width:3;stroke-linecap:round;stroke-linejoin:round;stroke-miterlimit:10;}
	.st72{fill:none;stroke:#142664;stroke-width:2;stroke-linecap:round;stroke-linejoin:round;stroke-miterlimit:10;}
	.st73{clip-path:url(#SVGID_00000129892033568684386430000005446465913191749265_);}
	.st74{clip-path:url(#SVGID_00000075849062152771573470000007168309814465769098_);}
	.st75{clip-path:url(#SVGID_00000163774154853251084650000016230915054489914543_);fill:#FD657C;}
	.st76{clip-path:url(#SVGID_00000119089412832344134640000015947724671060194465_);fill:#FD657C;}
	.st77{clip-path:url(#SVGID_00000180338867251662236480000003731750838055581620_);}
	.st78{clip-path:url(#SVGID_00000154402008393350887480000002115323480930103191_);}
	.st79{clip-path:url(#SVGID_00000176045534775405069000000008890393651178694795_);}
	.st80{fill:none;stroke:#142664;stroke-width:3;stroke-linecap:round;stroke-linejoin:round;}
	.st81{clip-path:url(#SVGID_00000049193095134250419970000016013310003132012672_);}
	.st82{clip-path:url(#SVGID_00000073002162898996469100000006934304747713824959_);}
	.st83{clip-path:url(#SVGID_00000074427934771815017280000013406639347651425175_);}
	.st84{clip-path:url(#SVGID_00000058586613421821894120000017723597762214847881_);}
	.st85{clip-path:url(#SVGID_00000171686967758445209010000008995909300198217863_);}
	.st86{clip-path:url(#SVGID_00000135668640484416902420000005601600519537823934_);}
	.st87{clip-path:url(#SVGID_00000067197732701353590970000006018225857680619959_);}
	.st88{clip-path:url(#SVGID_00000066504259066762681690000014015613495623776171_);}
	.st89{clip-path:url(#SVGID_00000069388976008308382080000007025226639500356279_);}
	.st90{clip-path:url(#SVGID_00000093876389173172698050000014859362937329943457_);}
	.st91{clip-path:url(#SVGID_00000075851835868125966320000009514348746854080384_);}
	.st92{clip-path:url(#SVGID_00000117672127053836981710000007445105670843100558_);}
	.st93{clip-path:url(#SVGID_00000142155491979789440060000004791766734763043213_);}
	.st94{clip-path:url(#SVGID_00000016793108183285389650000015553488787032466605_);}
	.st95{clip-path:url(#SVGID_00000070809460700423830230000013971815089552389299_);}
	.st96{clip-path:url(#SVGID_00000006684115858864034170000012871650373293214611_);}
	.st97{clip-path:url(#SVGID_00000022530283744753677240000013099863823348583040_);}
	.st98{clip-path:url(#SVGID_00000168117565993504205270000015474013122804039304_);}
	.st99{clip-path:url(#SVGID_00000119832737987727529720000010413250114843337625_);}
	.st100{clip-path:url(#SVGID_00000080913315409685543490000002979656738167549826_);}
	.st101{clip-path:url(#SVGID_00000109719539552461265930000002334164085849090693_);}
	.st102{clip-path:url(#SVGID_00000183247848099698477500000017815438229541039237_);}
	.st103{clip-path:url(#SVGID_00000019647502750861272980000011660529050024784281_);}
	.st104{clip-path:url(#SVGID_00000117656801561481804760000008315375639524771256_);}
	.st105{clip-path:url(#SVGID_00000150796090752799478450000012767214770620073120_);}
	.st106{clip-path:url(#SVGID_00000176027557404635480260000008487901297870655108_);}
	.st107{clip-path:url(#SVGID_00000163778496241729742500000005800100210579202715_);}
	.st108{clip-path:url(#SVGID_00000033332481893061942040000004384385027825359748_);}
	.st109{clip-path:url(#SVGID_00000000905432488108294400000004706778818540432543_);}
	.st110{clip-path:url(#SVGID_00000117654737145868839920000005722265450381972106_);}
	.st111{clip-path:url(#SVGID_00000138568827846328006540000004417190877246836610_);}
	.st112{clip-path:url(#SVGID_00000096033168609856475790000008404903211532822446_);}
	.st113{clip-path:url(#SVGID_00000036957755567687742270000005095646106755071628_);}
	.st114{clip-path:url(#SVGID_00000016778678692223666180000004964716221881840574_);}
	.st115{clip-path:url(#SVGID_00000026164507517635750870000001108502524213185203_);}
	.st116{clip-path:url(#SVGID_00000181787341065755455660000010465989198141364926_);}
	.st117{clip-path:url(#SVGID_00000167384853316125823240000017843109842231463816_);}
	.st118{clip-path:url(#SVGID_00000091731259274914702440000006874567843944730527_);}
	.st119{clip-path:url(#SVGID_00000013898199526704425810000016696098285970480055_);}
	.st120{clip-path:url(#SVGID_00000132087841362260608470000014055277749454281643_);}
	.st121{clip-path:url(#SVGID_00000096766255146289793350000017564643063111173035_);}
	.st122{clip-path:url(#SVGID_00000010312638847286932070000007868653053909406340_);}
	.st123{clip-path:url(#SVGID_00000094603925925173816600000013939290643903382435_);}
	.st124{fill:#FFFFFF;stroke:#142664;stroke-width:3;stroke-linecap:round;stroke-linejoin:round;}
	.st125{clip-path:url(#SVGID_00000054965717415722864430000007032103765336744857_);}
	.st126{fill-rule:evenodd;clip-rule:evenodd;fill:#FFBCC6;}
	.st127{fill-rule:evenodd;clip-rule:evenodd;fill:#272F60;}
	.st128{fill-rule:evenodd;clip-rule:evenodd;fill:#FFFFFF;}
	.st129{fill-rule:evenodd;clip-rule:evenodd;fill:#FB657C;}
	.st130{clip-path:url(#SVGID_00000168830255151215866540000014292384900994356619_);}
	.st131{clip-path:url(#SVGID_00000000218642288396154700000010309844257007908786_);}
	.st132{clip-path:url(#SVGID_00000081632427899024110110000006353551873468247208_);}
	.st133{clip-path:url(#SVGID_00000118372103695509349630000007812522149206473914_);}
	.st134{clip-path:url(#SVGID_00000161620911994750174240000008451673957094145930_);}
	.st135{clip-path:url(#SVGID_00000160171800704259303930000009219184051620455062_);}
	.st136{clip-path:url(#SVGID_00000078747713236925363290000008187368634793351332_);}
	.st137{clip-path:url(#SVGID_00000003804874652716373730000014983191518104630703_);}
	.st138{clip-path:url(#SVGID_00000016793480899195551030000007431220576135424640_);}
	.st139{clip-path:url(#SVGID_00000096779157009478059450000017510128073237063348_);}
	.st140{clip-path:url(#SVGID_00000040546864094801387730000006864139902019208874_);}
	.st141{clip-path:url(#SVGID_00000065763862703117663660000008094274962669076133_);}
	.st142{clip-path:url(#SVGID_00000150809725051293331810000000624599711349546882_);}
	.st143{clip-path:url(#SVGID_00000082347141293950695260000012074934731726351753_);}
	.st144{clip-path:url(#SVGID_00000168108950645774614460000000055883978160158900_);}
	.st145{clip-path:url(#SVGID_00000129173057692518075480000009638867741277712521_);}
	.st146{clip-path:url(#SVGID_00000127015585317025346370000001872875882545079966_);}
	.st147{clip-path:url(#SVGID_00000153678240433369117180000003152959603532520124_);}
	.st148{clip-path:url(#SVGID_00000099661224174322354820000015032901791735834276_);}
	.st149{clip-path:url(#SVGID_00000033340228279607290100000011865525037076650159_);}
	.st150{clip-path:url(#SVGID_00000042727032229589916710000016837062092234832542_);}
	.st151{clip-path:url(#SVGID_00000168111195639356615150000001510231923263567759_);}
	.st152{clip-path:url(#SVGID_00000076584311878300456380000002812945287529102218_);}
	.st153{clip-path:url(#SVGID_00000150075563222858948600000016183505288457126567_);}
	.st154{clip-path:url(#SVGID_00000085931944578314007380000011771810792458773656_);}
	.st155{clip-path:url(#SVGID_00000069399539359127938920000018060305750058012048_);}
	.st156{clip-path:url(#SVGID_00000017506308447071173710000007752365907888153992_);}
	.st157{clip-path:url(#SVGID_00000013193379273289582240000015908398084492309434_);}
	.st158{clip-path:url(#SVGID_00000154410485461155785740000017085346549014088064_);}
	.st159{clip-path:url(#SVGID_00000064356118615076102630000007249948298600025490_);}
	.st160{clip-path:url(#SVGID_00000064339163607065084530000013832442642311283385_);}
	.st161{clip-path:url(#SVGID_00000038415454733858639930000010547089226845220241_);}
	.st162{clip-path:url(#SVGID_00000017502899162583893910000001965289034636752823_);}
	.st163{clip-path:url(#SVGID_00000129891590122573145730000011731214159900241554_);}
	.st164{clip-path:url(#SVGID_00000156583118747794204130000017712290989597854350_);}
	.st165{clip-path:url(#SVGID_00000138569878473429097670000008107619360975994033_);}
	.st166{clip-path:url(#SVGID_00000067925757287973397820000015623085548983321274_);}
	.st167{clip-path:url(#SVGID_00000008856921027275267360000009207812955526837676_);}
	.st168{clip-path:url(#SVGID_00000150094392461209907210000016204049865221122197_);}
	.st169{clip-path:url(#SVGID_00000103232596122311374460000011389078194917802383_);}
	.st170{clip-path:url(#SVGID_00000109720631048945919480000004405994184306305444_);}
	.st171{clip-path:url(#SVGID_00000106843357994399648230000006116189513723651466_);}
	.st172{clip-path:url(#SVGID_00000019663877860406277860000009320433468862326959_);}
	.st173{clip-path:url(#SVGID_00000118368033359720664920000000990444408323999121_);}
	.st174{clip-path:url(#SVGID_00000168079635547933087460000013051751556259306625_);}
	.st175{clip-path:url(#SVGID_00000161602839660522711680000005962906610438594995_);}
	.st176{clip-path:url(#SVGID_00000041269794460793041170000012428793093855288195_);}
	.st177{clip-path:url(#SVGID_00000077322544413142462410000008749897140528489627_);}
	.st178{clip-path:url(#SVGID_00000088134460677193623610000002938672977378729364_);}
	.st179{clip-path:url(#SVGID_00000012465103483093217840000010847152704609432743_);}
	.st180{clip-path:url(#SVGID_00000175301188635924005450000007133693624682304403_);}
	.st181{clip-path:url(#SVGID_00000134236229642312363340000008023203799642058383_);}
	.st182{clip-path:url(#SVGID_00000096738559566502615950000007612504343884634554_);}
	.st183{clip-path:url(#SVGID_00000097501004541801440390000008749631520787510969_);}
	.st184{clip-path:url(#SVGID_00000040557289857829205740000004821904565146130105_);}
	.st185{clip-path:url(#SVGID_00000000181853272725603030000015856904202098016959_);}
	.st186{clip-path:url(#SVGID_00000136369235881025872890000017614919432685039489_);}
	.st187{clip-path:url(#SVGID_00000039824600743551095540000015219778725632466594_);}
	.st188{clip-path:url(#SVGID_00000079471208700609622470000015155530627923539852_);}
	.st189{clip-path:url(#SVGID_00000111900275397162338180000012743527804934576257_);}
	.st190{clip-path:url(#SVGID_00000147194879205019923130000015512973104268737682_);}
	.st191{clip-path:url(#SVGID_00000103247275396067861500000011000259587865877633_);}
	.st192{clip-path:url(#SVGID_00000126305262653519587720000011641756977419285168_);}
	.st193{clip-path:url(#SVGID_00000079448280345987221850000013290782743954196107_);}
	.st194{clip-path:url(#SVGID_00000010272538503981328820000013057741825643491233_);}
	.st195{clip-path:url(#SVGID_00000150801836753589314680000011799792088436836030_);}
	.st196{clip-path:url(#SVGID_00000065041339864060082170000017786274159778051769_);}
	.st197{clip-path:url(#SVGID_00000105426515614125438840000000297519959962841253_);}
	.st198{clip-path:url(#SVGID_00000143614445840756254570000015899590077907574688_);}
	.st199{clip-path:url(#SVGID_00000040564874526951885600000008823403832874001562_);}
	.st200{clip-path:url(#SVGID_00000145024312912481205080000015969764169432587141_);}
	.st201{clip-path:url(#SVGID_00000119101263308328613530000004196949146812261795_);}
	.st202{clip-path:url(#SVGID_00000120539048514485539730000013281771410455530941_);}
	.st203{clip-path:url(#SVGID_00000014626309350132555370000011601106950036038071_);}
	.st204{clip-path:url(#SVGID_00000057115341684694834950000012149127259302051722_);}
	.st205{clip-path:url(#SVGID_00000160911672077925930390000004771335507370514574_);}
	.st206{clip-path:url(#SVGID_00000170977977324910411220000010173585424164506044_);}
	.st207{clip-path:url(#SVGID_00000126311315854341014360000002383138506932512397_);}
	.st208{clip-path:url(#SVGID_00000127013854605761907830000001832614458691896485_);}
	.st209{clip-path:url(#SVGID_00000119090285578610664530000006177063713151609009_);}
	.st210{clip-path:url(#SVGID_00000075145684213143516180000007698277250379559334_);}
	.st211{clip-path:url(#SVGID_00000150063731133747538350000001527897095828878237_);}
	.st212{clip-path:url(#SVGID_00000085962471175115511850000012515681519290854582_);}
	.st213{clip-path:url(#SVGID_00000152985049653750036610000015079633871318921869_);}
	.st214{clip-path:url(#SVGID_00000145756008940320287680000001134672516029472644_);}
	.st215{clip-path:url(#SVGID_00000165208940715910083910000005423702040548338617_);}
	.st216{clip-path:url(#SVGID_00000021098301627529342870000003776029240611101863_);}
	.st217{clip-path:url(#SVGID_00000134949151738205580420000008708083981613384123_);}
	.st218{clip-path:url(#SVGID_00000065074884231332670530000018367246946337480335_);}
	.st219{clip-path:url(#SVGID_00000166658453124835193590000007624541493999976066_);}
	.st220{clip-path:url(#SVGID_00000095336151347880602750000007054634696382442391_);}
	.st221{clip-path:url(#SVGID_00000056393090192701698900000016336473033958600334_);}
	.st222{clip-path:url(#SVGID_00000003820336518090159420000007698006826156076173_);}
	.st223{clip-path:url(#SVGID_00000058579912185325599170000006126399498245551275_);}
	.st224{clip-path:url(#SVGID_00000039855417389152398470000002922703732304854207_);}
	.st225{clip-path:url(#SVGID_00000114061045402865649760000004227056121400207283_);}
	.st226{clip-path:url(#SVGID_00000085218628797129977830000004920920275635815813_);}
	.st227{clip-path:url(#SVGID_00000044162166904442680220000017215993633291685509_);}
	.st228{clip-path:url(#SVGID_00000161618282419475941640000010372581893132729507_);}
	.st229{clip-path:url(#SVGID_00000070100144102218857670000013303691039660690328_);}
	.st230{clip-path:url(#SVGID_00000035491637849339590700000001288338179659145621_);}
	.st231{clip-path:url(#SVGID_00000152250316906745240090000008878578342111608474_);}
	.st232{clip-path:url(#SVGID_00000061456861517747036860000009755507375679719312_);}
	.st233{clip-path:url(#SVGID_00000151536902699296190990000018098977393679200136_);}
	.st234{clip-path:url(#SVGID_00000048491358194140392270000001904902632712757402_);}
	.st235{clip-path:url(#SVGID_00000085223898487762396150000007863267080417963190_);}
	.st236{clip-path:url(#SVGID_00000054258060054730814110000002622931204037296054_);}
	.st237{clip-path:url(#SVGID_00000133504345729469688750000008282870448208860091_);}
	.st238{clip-path:url(#SVGID_00000024708059197271471830000002212063314751892406_);}
	.st239{clip-path:url(#SVGID_00000047741903632802842580000013229756962847059093_);}
	.st240{clip-path:url(#SVGID_00000153669464813307917200000011357769620627187606_);}
	.st241{clip-path:url(#SVGID_00000046312423539415989340000004295885256513394326_);}
	.st242{clip-path:url(#SVGID_00000019649060540066778300000010322024108671688584_);}
	.st243{clip-path:url(#SVGID_00000137117528205552457120000011201112757457675154_);}
	.st244{clip-path:url(#SVGID_00000048461864477600980420000014879721250148230533_);}
	.st245{clip-path:url(#SVGID_00000052788797059006829070000017826451279746505391_);}
	.st246{clip-path:url(#SVGID_00000176024386087524969710000017137071923057681282_);}
	.st247{clip-path:url(#SVGID_00000107578873781772666210000001125808897001772964_);}
	.st248{clip-path:url(#SVGID_00000003814532975505559650000011296674749464792477_);}
	.st249{clip-path:url(#SVGID_00000093162547066019889780000002389271149237991346_);}
	.st250{clip-path:url(#SVGID_00000068662462242070638360000014206462907429694642_);}
	.st251{clip-path:url(#SVGID_00000173162999524350089620000011351538391069072780_);}
	.st252{clip-path:url(#SVGID_00000078761325094829151830000017145765640479260862_);}
	.st253{clip-path:url(#SVGID_00000082363298291252146380000014949987247650164900_);}
	.st254{clip-path:url(#SVGID_00000015350575486946361440000009488518878878480808_);}
	.st255{clip-path:url(#SVGID_00000032625036891329428800000002727716418897999775_);}
	.st256{clip-path:url(#SVGID_00000081607022317450639960000016679138014350679470_);}
	.st257{clip-path:url(#SVGID_00000119822669158302653950000001074317669363447186_);}
	.st258{clip-path:url(#SVGID_00000068650771879141092810000001486711205241527687_);}
	.st259{clip-path:url(#SVGID_00000082355083442718071810000004401940435168189372_);}
	.st260{fill:#E94966;}
	.st261{fill:#13224F;}
</style>
<g id="FONDS">
	<rect id="FOND_00000066483194284810861450000016689887220031026840_" class="st2" width="428" height="926"/>
</g>
<g id="ILLUSTRATIONS">
	<polygon class="st19" points="428,393.449707 404.2998047,400.1000977 380.3999023,406.8999023 359.1000977,412.7998047 
		350.7001953,415.1000977 335.2001953,419.5 251.2001953,443.1000977 276.7001953,534 384.7998047,503.7001953 
		406.1000977,497.7998047 428,491.7524414 	"/>
	<g id="icono_00000119821431858780371390000006694636857203142328_" transform="translate(0 268)">
		<g>
			<g id="Groupe_92_00000013878399945436128320000001293841010136223120_">
				<path id="Tracé_94_00000134252260895159946370000001210517688914860439_" class="st11" d="M400.3999939,133.1999969
					L376.6000061,140l-21.2999878,5.8999939l25.5,90.8999939l21.2999878-5.8999939L426,224.2999878L400.3999939,133.1999969z"/>
				
					<circle id="Ellipse_2_00000083777711177442056370000000271616657992352919_" class="st11" cx="251.4000092" cy="226.3999939" r="82.4000015"/>
				<path id="Tracé_95_00000102530443752307373170000003282176288769253813_" class="st12" d="M287.8999939,268.1000061
					c-3.1579285,9.3110046-13.0084229,14.5646057-22.5,12c1.3008118,3.7915344,1.3008118,7.9084778,0,11.7000122
					c-3.2349548,9.7084961-13.7277222,14.9563599-23.4362183,11.721405
					c-0.0212708-0.0071106-0.0425415-0.0142212-0.0637817-0.0213928c0,0-3.3000031-0.7000122-8.8000031-1.8999939
					c0.5910492,10.3356934-7.308548,19.193573-17.6442413,19.7846069c-2.3203278,0.1326904-4.6451111-0.1672668-6.8557587-0.884613
					c0,0-19-3.6000061-40.1999969-9s-35.3999939-9.7000122-45-13c-0.4000015-0.1000061-0.6999969-0.2999878-1.0999985-0.3999939
					c-0.8000031-0.2999878-1.6999969-0.5-2.5-0.7999878c-0.3930283-0.1534119-0.7935333-0.2868958-1.1999969-0.3999939
					c-1.4169922-0.4781189-2.7889862-1.0804749-4.0999985-1.7999878c-27.0999985-13-31-41-44.9000015-45.6000061
					l-26.2999992-8.8999939l31.1000023-88.8000031l13.5,4.6999969c18.4000015,6.1999969,25.2999954,0.8999939,35.5-7.6999969
					l20.9000015-18.6999969c2.1047516-2.1730881,4.6200562-3.9066086,7.3999939-5.0999985l39.0999908-12.4000015
					c9.5545349-3.8107681,20.3892365,0.8454742,24.2000122,10.4000015
					c3.8107605,9.5545273-0.8454742,20.3892441-10.4000092,24.2000046l-31.3000031,15l-5.6000061,6.6999969
					c13.8999939,4.8999939,35.6000061,12.6000061,55.1999969,20.6000061
					c24.6000061,9.8999939,45.6999969,19.6000061,45.6999969,19.6000061
					c9.7129211,3.2444,14.9567261,13.7483826,11.7123108,23.4613037c-1.4472046,4.3325958-4.4427795,7.9785156-8.412323,10.2386932
					c2.8999939,1.1999969,4.3999939,1.8999939,4.3999939,1.8999939
					C285.956604,247.9680634,291.145813,258.4358826,287.8999939,268.1000061z"/>
				<g id="Groupe_91_00000028296384203946672050000006356745026866760891_">
					<path id="Tracé_96_00000030446012130172658220000014729825939127968958_" class="st11" d="M274.2000122,243.6000061
						c0,0-11.7000122-4.3000031-24.6000061-8.8000031C242.9000092,232.3000031,235,229.6000061,227.3000031,227
						c-4.5-1.5-9.1000061-3-13.5-4.3999939c-17.1999969-5.5-31.6000061-10-31.6000061-10
						c-1.0259247-0.3470459-2.1389313,0.2032776-2.4859772,1.2292023c-0.3413391,1.0090179,0.1852112,2.1059875,1.1859741,2.4707947
						c0,0,14,5.1999969,31.1999969,11.1000061c4.3000031,1.5,8.8000031,3.1999969,13.3000031,4.6999969
						c7.8000031,2.6000061,15.5,5.1000061,22.6000061,7.3000031c12.8999939,4.1999969,21.1000061,6.6999969,21.1000061,6.6999969
						C270.2000122,246.5,274.7000122,246.5,276.5,244.9000092
						C278.8999939,242.8000031,275.2000122,243.9000092,274.2000122,243.6000061z"/>
					<path id="Tracé_97_00000002353254981578232650000003987950935217382588_" class="st11" d="M267.7000122,280.6000061
						c0,0-12.8000031-4.7000122-26.6000061-9.2999878c-7.3000031-2.6000061-15.5-5.5-23.8000031-8.2000122
						C212.5,261.5,207.6999969,259.8000183,202.9000092,258.3999939
						c-18.3000031-5.8999939-33.6999969-10.6999969-33.6999969-10.6999969
						c-1.0259247-0.3470459-2.1389313,0.2032776-2.4859772,1.2292023c-0.3413391,1.0090179,0.1852112,2.1059875,1.1859741,2.4707947
						c0,0,15.1000061,5.5,33.3000031,11.7999878c4.6999969,1.5,9.5,3.2999878,14.3000031,4.8999939
						c8.3999939,2.7000122,16.6000061,5.2999878,23.8999939,7.7000122
						c13.8000031,4.3999939,26.3000031,8.3999939,26.3000031,8.3999939c0.7999878,0.3999939-0.2999878,2.5,1.2000122,1.7999878
						c1.2000122-0.6000061,1.8999939-5,0.7999878-5.3999939V280.6000061z"/>
					<path id="Tracé_98_00000163040487265068029330000001277659796698893493_" class="st11" d="M234.8000031,302.2999878
						c0,0-7.8000031-2.8999939-18.6999969-6.6000061C210.5,293.5999756,204,291.2999878,197.4000092,289.0999756
						c-3.6999969-1.2000122-7.6000061-2.5-11.3999939-3.7000122c-14.3999939-4.5-16.1999969-4.7999878-16.1999969-4.7999878
						c-1.0258026-0.3473816-2.1389923,0.2026062-2.4863739,1.2284241c-0.3418121,1.0093384,0.1850281,2.1069336,1.1863708,2.4715881
						c0,0,1.5,0.7999878,15.8000031,5.7999878c3.6999969,1.2000122,7.3999939,2.6000061,11.3000031,4
						c6.5,2.2000122,13.1000061,4.2000122,18.8999939,6c10.8999939,3.3999939,19,5.7999878,19,5.7999878
						c0.9479218,0.3944092,2.036087-0.0542908,2.4304962-1.0021973c0.0268707-0.0645752,0.0500793-0.1306152,0.0695038-0.1978149
						c0.3298035-0.993988-0.2069244-2.0674438-1.1999969-2.3999939L234.8000031,302.2999878z"/>
					<path id="Tracé_99_00000155860696035717813460000003982751360596427159_" class="st11" d="M66,248.1999969
						c-0.6999969-1-1.4000015-2.1000061-2.0999985-3c-5-7.3000031-8.7999992-13.5-8.7999992-13.5
						c-0.635128-0.9112701-0.4112701-2.1648712,0.5-2.8000031c0.9112663-0.6351318,2.1648712-0.4112701,2.7999992,0.5
						c0,0,4.4000015,5.8000031,9.8000031,12.8000031c1.1999969,1.8000031,2.8000031,3.6999969,4.0999985,5.6000061
						c1.6999969,2.3000031,3.3000031,4.8000031,5,7c-2.3000031-2.5-4.6999969-4.5-7.4000015-5.3999939L66,248.1999969z"/>
					<path id="Tracé_100_00000117661462401934285280000009791947036613485995_" class="st11" d="M268.2999878,218
						c4.5992737,1.5009766,7.1109619,6.4462128,5.6099854,11.0455017s-6.4461975,7.1109772-11.0455017,5.6100006
						c-0.0550232-0.0179596-0.1098328-0.0364532-0.1644897-0.0554962c-4.5-1.5-5.3999939-6-3.8999939-10.6000061
						C260.2999878,219.6000061,263.6000061,216.5,268.2999878,218z"/>
					<path id="Tracé_101_00000155116462563156788820000007983591916285637524_" class="st11" d="M191.3000031,115.5999985
						c4.832489-0.9664993,9.5335083,2.167511,10.5,7c0.966507,4.8324966-2.167511,9.5335159-7,10.5000076
						c-4.8000031,1-7.6999969-2.5-8.6999969-7.3000031C185.1999969,120.9000015,186.6000061,116.8000031,191.3000031,115.5999985z"
						/>
					<path id="Tracé_102_00000009577529686381800240000018030018081063770507_" class="st11" d="M274.7999878,254.6000061
						c4.5992737,1.5009766,7.1109619,6.446228,5.6099854,11.0455017c-1.5009766,4.5993042-6.4461975,7.1109619-11.0455017,5.6099854
						c-0.0550232-0.0179443-0.1098328-0.036438-0.1644897-0.055481c-4.5-1.5-5.3999939-6-3.8999939-10.6000061
						S270.1000061,253,274.7999878,254.6000061z"/>
					<path id="Tracé_103_00000118384286000536392480000007205780208881484709_" class="st11" d="M251,281.8999939
						c4.301651,1.4544373,6.6097717,6.120697,5.155304,10.4223328c-1.4456024,4.2755432-6.0675049,6.5864868-10.3553009,5.1776733
						c-4.3000031-1.3999939-5.1000061-5.6000061-3.6000061-9.8999939C243.6999969,283.3999939,246.8000031,280.5,251,281.8999939z"
						/>
					<path id="Tracé_104_00000103959460928015830870000010259982277159997835_" class="st11" d="M217.1999969,302.7000122
						c3.7762451,1.3180237,5.7690277,5.4477234,4.4510193,9.2239685c-1.3081055,3.7478333-5.3894653,5.7441406-9.1510162,4.4760437
						c-3.6999969-1.2000122-4.3999939-4.8999939-3.1999969-8.7999878
						C210.5,303.8999939,213.1999969,301.2999878,217.1999969,302.7000122z"/>
					<path id="Tracé_105_00000083799242903695473260000017636687919749407677_" class="st11" d="M229.1999969,202.3999939
						c-0.6113892,1.1980896-1.145813,2.4339294-1.6000061,3.6999969c-0.5946198,1.1928253-1.0961151,2.4298401-1.5,3.6999969
						c-0.2789001,0.7520599-0.5126343,1.5200958-0.6999969,2.3000031c-0.6999969,3-1.1999969,5.5-1.1999969,5.5
						c-0.3709259,1.0175323,0.1532593,2.1430969,1.1707916,2.5140228c1.0175323,0.3709106,2.1430969-0.1532745,2.5140228-1.1708069
						c0.0052338-0.0143433,0.0102844-0.0287476,0.0151825-0.0432129c0.8810883-1.6804352,1.6494446-3.4176025,2.3000031-5.1999969
						c0.3000031-0.8000031,0.6999969-1.5,1-2.3000031c0.3999939-1.1999969,0.6999969-2.6000061,1-3.8999939
						c0.5-2.1999969,0.8000031-3.8999939,0.8000031-3.8999939c0.3944092-0.9479218-0.0542908-2.036087-1.0021973-2.4305115
						c-0.0645752-0.0268555-0.1306152-0.0500641-0.1977997-0.0694885c-1.0755005-0.3395844-2.2263641,0.2358551-2.6000061,1.3000031
						V202.3999939z"/>
					<path id="Tracé_106_00000078767641199858469850000007260110733484489900_" class="st11" d="M223.1000061,237.5
						c0,0-0.8000031,1.8000031-1.8000031,4.1000061c-0.6585541,1.3835754-1.1939697,2.822464-1.6000061,4.3000031
						c-0.3000031,1-0.5,1.6999969-0.6999969,2.6000061c-0.8000031,3.3000031-1.5,6.1999969-1.5,6.1999969
						c-0.3710327,1.0174866,0.1530304,2.1431274,1.1705322,2.5141296c1.0174866,0.3710327,2.1431122-0.1530151,2.5141296-1.1705017
						c0.0052948-0.0144958,0.0103912-0.0290527,0.0153351-0.0436401c0.9725037-1.8703308,1.8080292-3.8087616,2.5-5.8000031
						c0.3000031-0.8000031,0.6999969-1.6999969,1-2.6000061c0.5-1.3999939,0.8000031-3,1.1999969-4.3999939
						c0.6999969-2.5,1.1000061-4.3999939,1.1000061-4.3999939c0.3944092-0.9479218-0.0542908-2.036087-1.0021973-2.4305115
						c-0.0645752-0.0268555-0.1306152-0.0500641-0.1977997-0.0694885c-0.9343567-0.4775848-2.0789642-0.1072998-2.5565643,0.8270569
						C223.182663,237.2459869,223.1345825,237.3709869,223.1000061,237.5z"/>
					<path id="Tracé_107_00000137126202476852496400000002376466553337080482_" class="st11" d="M211.6999969,271.7000122
						c-0.5402374,0.8946838-1.0083923,1.8309631-1.3999939,2.7999878c-0.3999939,0.7999878-0.8000031,1.7999878-1.1999969,2.7999878
						c-0.1807709,0.5884705-0.3145294,1.1903381-0.3999939,1.7999878c-0.5,2.2999878-0.8000031,4.1000061-0.8000031,4.1000061
						c-0.3710327,1.0174866,0.1530304,2.1431274,1.1705322,2.5141296c1.0174866,0.3710327,2.1431122-0.1530151,2.5141296-1.1705017
						c0.0052948-0.0144958,0.0103912-0.0290527,0.0153351-0.0436401c0.7314911-1.164917,1.3349915-2.4054565,1.8000031-3.7000122
						c0.1902466-0.5834656,0.4242401-1.1517639,0.6999969-1.7000122c0.2938232-0.9510498,0.5276031-1.9196167,0.6999969-2.8999939
						c0.2277832-0.9888611,0.3947601-1.9907227,0.5-3c0.3944092-0.9479065-0.0542908-2.0361023-1.0021973-2.4305115
						c-0.0645752-0.0268555-0.1306152-0.0500488-0.1977997-0.0694885c-0.8000031-0.6000061-2,0.1000061-2.3999939,1
						L211.6999969,271.7000122z"/>
					<path id="Tracé_108_00000116196252030118777000000015830815148128828317_" class="st11" d="M159,143.1000061
						c-0.2693176-0.9875641-0.6033783-1.9563293-1-2.8999939c-0.3000031-0.8000031-0.6999969-1.8000031-1.1000061-2.6999969
						c-0.2969666-0.5552216-0.631073-1.0897675-1-1.6000061c-0.6714783-1.1948853-1.4407806-2.3321075-2.3000031-3.3999939
						c-0.4764404-0.9497986-1.6326447-1.3335266-2.582428-0.8570862c-0.9497986,0.4764404-1.3335266,1.6326447-0.8570862,2.5824432
						c0.012619,0.0251617,0.0258026,0.0500488,0.0395203,0.074646c0,0,0.6000061,1.8000031,1.1999969,3.8000031
						c0.3000031,0.5,0.3999939,1.1000061,0.6999969,1.6000061c0.4405518,0.8675995,0.9417877,1.7030029,1.5,2.5
						c1,1.5,1.8000031,2.5,1.8000031,2.5c0.3670197,0.89888,1.3932343,1.3300323,2.292099,0.9630127
						c0.1077881-0.0440063,0.2109222-0.0986176,0.3079071-0.1630096C159,145.3000031,159.3000031,144,159,143.1000061z"/>
				</g>
				<path id="Tracé_109_00000108305854656944932030000003144929658164237458_" class="st19" d="M231.1999969,168.6000061
					c-1.3568115-10.155838-10.6283112-17.3323364-20.8000031-16.1000061L139,161.8000031
					C129,163,121.8000031,172.4000092,122.9000015,182.6000061c1.1999969,10,10.5999985,17.1999969,20.7999954,16.1000061
					l71.4000092-9.3000031c10.1335144-1.2253418,17.355011-10.4335175,16.1296692-20.5670319
					C231.2202759,168.7552643,231.2103882,168.677597,231.1999969,168.6000061z"/>
				<path id="Tracé_110_00000102516715965355954360000009379069068550473877_" class="st11" d="M82.4000015,309.2000122
					c7.2297363,3.8675537,16.2258835,1.1419983,20.0934525-6.087738c0.002182-0.0040894,0.004364-0.0081787,0.006546-0.0122681
					l25.6999969-48.6999969c3.8857422-7.2243805,1.1792297-16.2309113-6.0451508-20.1166382
					c-7.2243805-3.8857422-16.2309036-1.1792297-20.1166458,6.0451508c-0.0127945,0.0237885-0.025528,0.0476227-0.0382004,0.0714874
					l-25.6999969,48.6999969c-3.867569,7.2297363-1.1419983,16.2258911,6.087738,20.0934448
					C82.3918228,309.1956482,82.3959122,309.1978149,82.4000015,309.2000122z"/>
				<path id="Tracé_111_00000113310784111482660890000001452159088618090124_" class="st11" d="M114.4000015,326.5
					c7.2297363,3.8675537,16.2258835,1.1419983,20.0934525-6.087738c0.002182-0.0040894,0.004364-0.0081787,0.006546-0.0122681
					l23.6000061-44c3.8857422-7.2243652,1.1792297-16.230896-6.0451508-20.1166382s-16.2309113-1.1792297-20.1166382,6.0451355
					c-0.0128021,0.0238037-0.0255432,0.0476379-0.038208,0.0715027l-23.5999985,44
					c-3.9008713,7.1200256-1.2912369,16.0541992,5.8287811,19.9550781
					C114.218689,326.4043274,114.3090973,326.4526367,114.4000015,326.5z"/>
				<path id="Tracé_112_00000049215354098728818970000007666566951519331731_" class="st11" d="M152.1999969,333.2000122
					c7.2297363,3.8675842,16.2258759,1.1419983,20.0934448-6.087738c0.0021973-0.0040894,0.0043793-0.0081787,0.0065613-0.0122681
					l15.5-28.7999878c3.8857422-7.2243652,1.1792297-16.230896-6.0451508-20.1166382s-16.2309113-1.1792297-20.1166382,6.0451355
					c-0.0128021,0.0238037-0.0255432,0.0476379-0.038208,0.0715027l-15.5,28.7999878
					c-3.9008789,7.1200256-1.2912445,16.0541992,5.8287811,19.9550781
					C152.0186768,333.1043396,152.1090851,333.1526489,152.1999969,333.2000122z"/>
				<path id="Tracé_114_00000173154267478945641480000005892452231524211113_" class="st11" d="M231.6999969,305.2999878
					L233.3999939,305l-0.5,1.7999878C232.6000061,306,232.3999939,305.6000061,231.6999969,305.2999878z"/>
			</g>
		</g>
	</g>
	<polygon class="st12" points="0,392.5571289 0,492.5209961 46,509.5 77.3999023,420.8999023 	"/>
</g>
<g id="TEXTES_FR">
</g>
<g id="TEXTES_GB">
</g>
</svg>
