<?xml version="1.0" encoding="utf-8"?>
<!-- Generator: Adobe Illustrator 26.2.1, SVG Export Plug-In . SVG Version: 6.00 Build 0)  -->
<svg version="1.1" id="Calque_1" xmlns="http://www.w3.org/2000/svg" xmlns:xlink="http://www.w3.org/1999/xlink" x="0px" y="0px"
	 viewBox="0 0 293.4 330.6" style="enable-background:new 0 0 293.4 330.6;" xml:space="preserve">
<style type="text/css">
	.st0{fill:#FFFFFF;}
	.st1{fill:#FFBCC6;}
	.st2{fill:#FB657C;}
	.st3{fill:#272F60;}
	.st4{fill:none;}
	.st5{clip-path:url(#SVGID_00000020387757340075757840000018029575102988964761_);fill:#FFFFFF;}
	.st6{clip-path:url(#SVGID_00000177484532678566290440000013262487943433724846_);fill:#FFFFFF;}
	.st7{clip-path:url(#SVGID_00000170960893764071691890000006522163752826506121_);fill:#FFFFFF;}
	.st8{clip-path:url(#SVGID_00000060724911853524337520000018242759750798253493_);fill:#FFFFFF;}
	.st9{clip-path:url(#SVGID_00000110450690610981049120000007844366519836577944_);fill:#FFFFFF;}
	.st10{clip-path:url(#SVGID_00000039122355465572626910000015612886466050002850_);fill:#FFFFFF;}
	.st11{clip-path:url(#SVGID_00000111185308703388892260000011860720275915753125_);fill:#FFFFFF;}
	.st12{clip-path:url(#SVGID_00000034768617916364894220000011965492647067800753_);fill:#FFFFFF;}
	.st13{clip-path:url(#SVGID_00000061460082244389421990000005470403853244529560_);fill:#FFFFFF;}
	.st14{clip-path:url(#SVGID_00000160872909298290792930000010076269215466950815_);fill:#FFFFFF;}
	.st15{clip-path:url(#SVGID_00000107567885374012148170000010789871838046233222_);fill:#FFFFFF;}
	.st16{clip-path:url(#SVGID_00000178174927215020390440000010040974480545927611_);fill:#FFFFFF;}
	.st17{clip-path:url(#SVGID_00000128475998832831819420000008177817872285993364_);fill:#FB657C;}
	.st18{clip-path:url(#SVGID_00000024695834922268986770000011706716824550644865_);fill:#FFFFFF;}
	.st19{clip-path:url(#SVGID_00000000924447154669723690000007940001946897963914_);fill:#FFFFFF;}
</style>
<g id="TEXTES_FR">
</g>
<g>
	<g id="ILLUSTRATIONS">
		<g>
			<g>
				<path class="st0" d="M228.7,326.5c0,0,4.6-0.8,7.1-1.6c1.9-0.6,3.2-2.3,3.2-4.3v-19.5c0-2-1.3-3.7-3.2-4.3
					c-2.5-0.7-7.1-1.6-7.1-1.6V326.5L228.7,326.5z"/>
				<path class="st1" d="M237.9,226.6V259c0,0-12.6,7.3-17.8,10.2c-0.4,0.3-1,0.3-1.5,0c-0.4-0.3-0.7-0.8-0.7-1.3
					c0-6.8,0-24.9,0-29.1c0-0.6,0.3-1,0.7-1.3C222.2,235.6,237.9,226.6,237.9,226.6L237.9,226.6z"/>
				<circle class="st0" cx="225.7" cy="240" r="1.4"/>
				<circle class="st0" cx="223.3" cy="259.4" r="2"/>
				<circle class="st0" cx="228.8" cy="262.4" r="1.4"/>
				<circle class="st0" cx="234.9" cy="251.5" r="1.4"/>
				<ellipse class="st0" cx="232.3" cy="242" rx="3.1" ry="3.1"/>
				<path class="st0" d="M164.4,126.4c0-26.5-21.5-48-48-48h-47c-26.5,0-48,21.5-48,48v149.1h143L164.4,126.4L164.4,126.4z"/>
				<path class="st1" d="M106.6,80.5l5-1.1c6.2-1.4,12.5-1.3,18.6,0.1c7.1,1.7,17.4,4,27.4,6.3c19.2,4.4,32.8,21.4,32.8,41.1v149.9
					h-28.1V126.9c0-19.7-13.6-36.7-32.8-41.1L106.6,80.5L106.6,80.5z"/>
				<path class="st2" d="M268.4,212.1c-9.1-0.2-15.8-3.4-20.3-7.9c-5-4.9-7.7-11.7-7.7-19.6c0-9.2-0.2-57.9-0.2-70.4
					c0-6.4-4.5-13-10.9-13h-41.2V78.9h41.2c18.5,0,33.3,16.9,33.3,35.3c0,12.4,0.2,61.2,0.2,70.4c0,1.4,0.2,2.8,1.1,3.7
					c1.2,1.2,3.2,1.5,5.7,1.5c4.3,0,10.7,2.4,15.7,7.1c4.8,4.5,8.1,11,8.1,17.5c0,7.1-0.1,47.9-0.1,55.6c0,12.4-6,25.6-16,35.6
					c-9.8,9.9-23.3,16.5-37.5,16.5v-22.3c8.3,0,16-4.2,21.7-9.9c5.6-5.7,9.5-12.9,9.5-19.9c0-7.6,0.1-47.5,0.1-55.3
					c-0.1-0.2-0.4-0.7-0.6-1C269.9,213.1,268.8,212.4,268.4,212.1L268.4,212.1z"/>
				<path class="st3" d="M241.7,299.8c-0.7,0.1-1.3,0.1-2,0.1v22.3c1.3,0,2.6-0.1,3.8-0.2L241.7,299.8L241.7,299.8z M261.9,289.4
					c-1.9,2-4.2,3.9-6.6,5.5l12.1,18.7c3.8-2.5,7.4-5.5,10.5-8.8L261.9,289.4z M270.9,269.1c0,0.3,0,0.6,0,0.9
					c0,2.2-0.4,4.4-1.1,6.6l21.2,6.9c1.4-4.5,2.2-9,2.2-13.5c0-0.3,0-0.6,0-0.9L270.9,269.1z M270.9,237.9c0,3.7,0,7.5-0.1,11.1
					l22.3,0.1c0-3.7,0-7.5,0.1-11.1L270.9,237.9L270.9,237.9z M271,214.7c-0.1-0.2-0.3-0.6-0.4-0.7l17.9-13.4c3,4,4.9,8.9,4.9,13.8
					c0,0.8,0,1.9,0,3.4l-22.3-0.1V214.7L271,214.7z M243.4,198c2.9,5.5,7.7,10,14.6,12.4l7.3-21.1c-0.9-0.3-1.7-0.8-2.1-1.6
					L243.4,198L243.4,198z M240.2,161.9c0,4,0,7.8,0.1,11.1l22.3-0.1c0-3.3,0-7.1-0.1-11.1L240.2,161.9z M240.2,130.7
					c0,3.5,0,7.3,0.1,11.1l22.3-0.1c0-3.9,0-7.6-0.1-11.1L240.2,130.7z M237.8,106.5c1.2,1.7,1.9,3.7,2.3,5.8l22.1-3.4
					c-0.8-5.3-2.8-10.4-5.8-14.8L237.8,106.5L237.8,106.5z M219.3,101.3h9.9c0.2,0,0.4,0,0.6,0l1.4-22.3c-0.7-0.1-1.3-0.1-1.9-0.1
					h-9.9V101.3L219.3,101.3z M188,101.3h11.1V79H188V101.3z"/>
				<path class="st3" d="M216,119.2c-0.1-0.9-0.9-1.6-1.8-1.6h-1.9c-0.9,0-1.7,0.7-1.8,1.6c-0.3,2-0.8,5.4-0.8,5.4h7.1
					C216.7,124.6,216.2,121.3,216,119.2L216,119.2z"/>
				<path class="st1" d="M197.1,89.7c0,0,4.7,0,8,0c1.8,0,3.2,1.4,3.2,3.2c0,0.2,0,0.4,0,0.6c0,1.6-1.1,2.8-2.6,3.2
					c1.4,0.3,2.6,1.6,2.6,3.2c0,0.2,0,0.4,0,0.6c0,1.6-1.1,2.8-2.6,3.2c1.4,0.3,2.6,1.6,2.6,3.2c0,0.2,0,0.4,0,0.6
					c0,1.6-1.1,2.8-2.6,3.2c1.4,0.3,2.6,1.6,2.6,3.2c0,0.2,0,0.4,0,0.6c0,1.6-1.1,2.8-2.6,3.2c1.4,0.3,2.6,1.6,2.6,3.2
					c0,0.2,0,0.4,0,0.6c0,1.8-1.4,3.2-3.2,3.2h-8V89.7L197.1,89.7z"/>
				<path class="st2" d="M108.2,43.1c0-11.5,9.3-20.8,20.8-20.8s20.8,9.3,20.8,20.8v13.1c0,6.1,5,11.1,11.1,11.1s11.1-5,11.1-11.1
					V43.1c0-23.8-19.3-43.1-43.1-43.1S85.8,19.3,85.8,43.1c0,6.1,5,11.1,11.1,11.1C103.1,54.3,108.2,49.2,108.2,43.1z"/>
				<path class="st3" d="M108.2,43.1c0-2.5,0.4-4.9,1.3-7.1l-21-7.6c-1.7,4.6-2.6,9.6-2.6,14.7H108.2z M148,34.7
					c0.9,2.2,1.6,4.5,1.7,7l22.3-1.5c-0.3-5.2-1.6-10.1-3.6-14.6L148,34.7z M116.2,26.8c1.9-1.5,4-2.7,6.4-3.4l-6.9-21.2
					c-4.8,1.6-9.3,4-13.3,7L116.2,26.8z M134,23c2.4,0.6,4.6,1.6,6.6,2.9l12.5-18.4c-4.1-2.8-8.8-4.9-13.7-6.1L134,23z"/>
				<path class="st3" d="M119.6,41.6c0-3.8,3-6.8,6.8-6.8c3.8,0,6.8,3,6.8,6.8v8.1c0,1.8,1.4,3.2,3.2,3.2c1.8,0,3.2-1.4,3.2-3.2
					v-8.1c0-7.3-5.9-13.2-13.3-13.2s-13.3,5.9-13.3,13.2c0,1.8,1.4,3.2,3.2,3.2C118.2,44.8,119.6,43.4,119.6,41.6z"/>
				<path class="st0" d="M123.8,48.3c0,0-1.1-4.1-1.8-7c-0.4-1.7-1.9-2.8-3.6-2.8c-6.9,0-24.4,0-31.4,0c-1.7,0-3.2,1.2-3.6,2.8
					c-0.7,2.9-1.8,7-1.8,7H123.8L123.8,48.3z"/>
				<path class="st2" d="M63.1,68.5c0,0-1.1-7-1.7-11.2c-0.3-1.8-1.8-3.2-3.7-3.2c-0.9,0-2,0-2.9,0c-1.8,0-3.4,1.3-3.7,3.2
					c-0.6,4.3-1.7,11.2-1.7,11.2H63.1L63.1,68.5z"/>
				<path class="st3" d="M58.3,66.4c0,0-0.3-4.5-0.5-6.9c-0.1-0.8-0.7-1.3-1.4-1.3l0,0c-0.8,0-1.4,0.6-1.4,1.3
					c-0.2,2.3-0.5,6.9-0.5,6.9H58.3z"/>
				<path class="st2" d="M57.1,50.9c0,0,0.1-0.9,0.2-2.2c0.1-0.7,0.1-1.4,0.1-2.2c0-0.4,0-0.9-0.1-1.3c-0.1-1.7-0.2-3.1-0.2-3.1
					c0-0.4-0.3-0.8-0.8-0.8c-0.4,0-0.8,0.3-0.8,0.8c0,0-0.2,1.4-0.2,3.1c0,0.4-0.1,0.9-0.1,1.3c0,0.8,0.1,1.6,0.1,2.2
					c0.1,1.3,0.2,2.2,0.2,2.2c0,0.4,0.3,0.8,0.8,0.8C56.8,51.7,57.1,51.4,57.1,50.9z"/>
				<path class="st2" d="M48.4,55.7c0,0-0.8-0.6-1.8-1.3c-0.6-0.4-1.2-0.8-1.9-1.2c-0.4-0.2-0.8-0.4-1.2-0.6
					c-1.5-0.8-2.8-1.3-2.8-1.3c-0.4-0.2-0.8-0.1-1.1,0.3c-0.2,0.4-0.1,0.8,0.3,1.1c0,0,1.2,0.8,2.6,1.8c0.4,0.2,0.7,0.5,1.1,0.7
					c0.7,0.4,1.3,0.7,1.9,1.1c1.2,0.6,2,0.9,2,0.9c0.4,0.2,0.8,0.1,1.1-0.3C48.9,56.3,48.8,55.9,48.4,55.7z"/>
				<path class="st2" d="M62.7,51.4c0,0,0.3-0.3,0.7-0.9c0.2-0.3,0.4-0.6,0.6-0.9c0.1-0.2,0.2-0.4,0.3-0.6c0.3-0.8,0.6-1.4,0.6-1.4
					c0.2-0.4,0.1-0.8-0.3-1.1c-0.4-0.2-0.8-0.1-1.1,0.3c0,0-0.4,0.5-1,1.2c-0.1,0.2-0.3,0.3-0.4,0.6c-0.2,0.3-0.3,0.7-0.5,1
					c-0.3,0.6-0.4,1.1-0.4,1.1c-0.2,0.4-0.1,0.8,0.3,1.1C61.9,51.9,62.4,51.7,62.7,51.4L62.7,51.4z"/>
				<path class="st2" d="M51.4,50.5c0,0-0.2-0.4-0.4-1.1c-0.1-0.3-0.3-0.7-0.5-1c-0.1-0.2-0.2-0.4-0.4-0.6c-0.5-0.7-1-1.2-1-1.2
					c-0.2-0.4-0.7-0.5-1.1-0.3c-0.4,0.2-0.5,0.7-0.3,1.1c0,0,0.2,0.7,0.6,1.4c0.1,0.2,0.2,0.4,0.3,0.6c0.2,0.3,0.4,0.7,0.6,0.9
					c0.4,0.5,0.7,0.9,0.7,0.9c0.2,0.4,0.7,0.5,1.1,0.3C51.5,51.4,51.6,50.9,51.4,50.5L51.4,50.5z"/>
				<path class="st2" d="M46.3,61c0,0-0.4-0.1-1.1-0.2c-0.3-0.1-0.7-0.1-1.1-0.1c-0.2,0-0.4,0-0.7,0.1c-0.9,0.1-1.6,0.2-1.6,0.2
					c-0.4,0-0.8,0.3-0.8,0.8s0.3,0.8,0.8,0.8c0,0,0.7,0.2,1.6,0.2c0.2,0,0.4,0.1,0.7,0.1c0.4,0,0.8-0.1,1.1-0.1
					c0.7-0.1,1.1-0.2,1.1-0.2c0.4,0,0.8-0.3,0.8-0.8S46.8,61,46.3,61z"/>
				<path class="st1" d="M197.1,136.1L197.1,136.1c21.1,0,34.3,4,34.3,20.5v66.6h-34.3V136.1L197.1,136.1z"/>
				<path class="st3" d="M105.4,89.7c0,0,5.4-14.8,7.6-20.8c0.6-1.5,2-2.5,3.6-2.5h9.6c1.6,0,3-1,3.6-2.5l0.7-1.9L126,49.7
					c-0.6-1.5-2-2.5-3.6-2.5h57.8c1.6,0,3,1,3.6,2.5c1.3,3.7,3.8,10.5,5.2,14.2c0.6,1.5,2,2.5,3.6,2.5h9.6c1.6,0,3,1,3.6,2.5
					c1.4,3.8,4,11.1,5.9,16c0.4,1.1,0.2,2.3-0.4,3.3c-0.7,0.9-1.8,1.6-2.9,1.6c-4.8,0-11.1,0-11.1,0V219c0,1.1,0.4,2.2,1.2,2.9
					s1.8,1.2,2.9,1.2c9.3,0,31.4,0,37.3,0c0.8,0,1.4,0.6,1.4,1.4c0,0.7,0,1.6,0,2.2c0,0.5-0.3,1-0.7,1.2
					c-3.2,1.8-15.7,9.1-18.9,10.9c-0.4,0.3-0.7,0.7-0.7,1.2c0,1.7,0,5.4,0,7.9c0,0.5,0.3,1,0.7,1.2c0.4,0.2,1,0.3,1.4,0
					c3.9-2.3,12.1-7,16-9.3c0.4-0.3,1-0.3,1.4,0c0.4,0.3,0.7,0.7,0.7,1.2c0,1.1,0,2.2,0,3c0,0.5-0.3,1-0.7,1.2
					c-3.2,1.8-15.7,9.1-18.9,10.9c-0.4,0.3-0.7,0.7-0.7,1.2c0,1.7,0,5.4,0,7.9c0,0.5,0.3,1,0.7,1.2c0.4,0.2,1,0.3,1.4,0
					c3.9-2.3,12.1-7,16-9.3c0.4-0.3,1-0.3,1.4,0c0.4,0.3,0.7,0.7,0.7,1.2v12.2l-17.5,10.1l0.8,1.4h-51.2V125.9
					c0-13.8-6.4-26.4-17.1-36.1H105.4L105.4,89.7z"/>
				<path class="st3" d="M229.7,295.1c0-2.7-2.2-4.9-4.9-4.9c-15.1,0-59.5,0-59.5,0v40.3h59.5c2.7,0,4.9-2.2,4.9-4.9
					C229.7,317.8,229.7,302.8,229.7,295.1z"/>
				<path class="st1" d="M181.6,294c0.3-0.9,0.2-1.9-0.3-2.7c-0.6-0.8-1.4-1.2-2.4-1.2c-24.1,0-146.1,0-163.4,0
					c-1.2,0-2.3,0.8-2.7,1.9c-2.3,6.2-9.5,26-12.6,34.5c-0.3,0.9-0.2,1.9,0.3,2.7c0.6,0.8,1.4,1.2,2.4,1.2h163.7
					c1.2,0,2.3-0.8,2.7-1.9C171.5,322.3,178.6,302.5,181.6,294z"/>
				<circle class="st3" cx="137.6" cy="308.4" r="1.6"/>
				<path class="st1" d="M128.4,118.7l23.3,141.5H35.2l23.3-141.5H128.4L128.4,118.7z"/>
				<path class="st1" d="M154.1,169c0.1-0.2,0.1-0.3,0.1-0.3c0-0.4,0.3-0.8,0.8-0.8s0.8,0.3,0.8,0.8c0,0,0.1,0.1,0.1,0.3
					c0.2,0.1,0.3,0.1,0.3,0.1c0.4,0,0.8,0.3,0.8,0.8c0,0.4-0.3,0.8-0.8,0.8c0,0-0.1,0.1-0.3,0.1c-0.1,0.2-0.1,0.3-0.1,0.3
					c0,0.4-0.3,0.8-0.8,0.8s-0.8-0.3-0.8-0.8c0,0-0.1-0.1-0.1-0.3c-0.2-0.1-0.3-0.1-0.3-0.1c-0.4,0-0.8-0.3-0.8-0.8
					c0-0.4,0.3-0.8,0.8-0.8C153.8,169.1,153.9,169.1,154.1,169L154.1,169z M38.8,164.3L38.8,164.3c0.1-1.4,0.2-2.4,0.2-2.4
					c0-0.4,0.3-0.8,0.8-0.8s0.8,0.3,0.8,0.8c0,0,0.2,1.1,0.2,2.4l0,0c0.3,0,0.5,0.1,0.7,0.1c1,0.1,1.7,0.2,1.7,0.2
					c0.4,0,0.8,0.3,0.8,0.8c0,0.4-0.3,0.8-0.8,0.8c0,0-0.7,0.1-1.7,0.2c-0.2,0-0.4,0.1-0.7,0.1c0,0.3-0.1,0.5-0.1,0.7
					c-0.1,1-0.2,1.7-0.2,1.7c0,0.4-0.3,0.8-0.8,0.8s-0.8-0.3-0.8-0.8c0,0-0.1-0.7-0.2-1.7c0-0.2-0.1-0.5-0.1-0.7l0,0
					c-1.3-0.1-2.4-0.2-2.4-0.2c-0.4,0-0.8-0.3-0.8-0.8c0-0.4,0.3-0.8,0.8-0.8C36.3,164.6,37.4,164.4,38.8,164.3L38.8,164.3
					L38.8,164.3z M149,151.8c0.1-0.6,0.2-1.1,0.2-1.1c0-0.4,0.3-0.8,0.8-0.8s0.8,0.3,0.8,0.8c0,0,0.1,0.4,0.2,1.1h0.1
					c0.6,0.1,1.1,0.2,1.1,0.2c0.4,0,0.8,0.3,0.8,0.8c0,0.4-0.3,0.8-0.8,0.8c0,0-0.4,0.1-1.1,0.2h-0.1v0.1c-0.1,0.6-0.2,1.1-0.2,1.1
					c0,0.4-0.3,0.8-0.8,0.8s-0.8-0.3-0.8-0.8c0,0-0.1-0.4-0.2-1.1v-0.1c-0.6-0.1-1.1-0.2-1.1-0.2c-0.4,0-0.8-0.3-0.8-0.8
					c0-0.4,0.3-0.8,0.8-0.8C147.9,152.1,148.4,152,149,151.8L149,151.8z M36.4,145.9c0.1-0.2,0.1-0.3,0.1-0.3c0-0.4,0.3-0.8,0.8-0.8
					c0.4,0,0.8,0.3,0.8,0.8c0,0,0.1,0.1,0.1,0.3c0.2,0.1,0.3,0.1,0.3,0.1c0.4,0,0.8,0.3,0.8,0.8c0,0.4-0.3,0.8-0.8,0.8
					c0,0-0.1,0.1-0.3,0.1c-0.1,0.2-0.1,0.3-0.1,0.3c0,0.4-0.3,0.8-0.8,0.8c-0.4,0-0.8-0.3-0.8-0.8c0,0-0.1-0.1-0.1-0.3
					c-0.2-0.1-0.3-0.1-0.3-0.1c-0.4,0-0.8-0.3-0.8-0.8c0-0.4,0.3-0.8,0.8-0.8C36.1,145.9,36.2,145.9,36.4,145.9L36.4,145.9z
					 M44.8,136.8c0.1-0.6,0.2-1.1,0.2-1.1c0-0.4,0.3-0.8,0.8-0.8c0.4,0,0.8,0.3,0.8,0.8c0,0,0.1,0.4,0.2,1.1h0.1
					c0.6,0.1,1.1,0.2,1.1,0.2c0.4,0,0.8,0.3,0.8,0.8s-0.3,0.8-0.8,0.8c0,0-0.4,0.1-1.1,0.2h-0.1v0.1c-0.1,0.6-0.2,1.1-0.2,1.1
					c0,0.4-0.3,0.8-0.8,0.8c-0.4,0-0.8-0.3-0.8-0.8c0,0-0.1-0.4-0.2-1.1v-0.1c-0.6-0.1-1.1-0.2-1.1-0.2c-0.4,0-0.8-0.3-0.8-0.8
					s0.3-0.8,0.8-0.8C43.7,136.9,44.1,136.8,44.8,136.8L44.8,136.8z M31.5,202.1c0.1-0.2,0.1-0.3,0.1-0.3c0-0.4,0.3-0.8,0.8-0.8
					s0.8,0.3,0.8,0.8c0,0,0.1,0.1,0.1,0.3c0.2,0.1,0.3,0.1,0.3,0.1c0.4,0,0.8,0.3,0.8,0.8c0,0.4-0.3,0.8-0.8,0.8
					c0,0-0.1,0.1-0.3,0.1c-0.1,0.2-0.1,0.3-0.1,0.3c0,0.4-0.3,0.8-0.8,0.8s-0.8-0.3-0.8-0.8c0,0-0.1-0.1-0.1-0.3
					c-0.2-0.1-0.3-0.1-0.3-0.1c-0.4,0-0.8-0.3-0.8-0.8c0-0.4,0.3-0.8,0.8-0.8C31.2,202.2,31.3,202.2,31.5,202.1L31.5,202.1z
					 M152.8,218c0.1-0.2,0.1-0.3,0.1-0.3c0-0.4,0.3-0.8,0.8-0.8s0.8,0.3,0.8,0.8c0,0,0.1,0.1,0.1,0.3c0.2,0.1,0.3,0.1,0.3,0.1
					c0.4,0,0.8,0.3,0.8,0.8s-0.3,0.8-0.8,0.8c0,0-0.1,0.1-0.3,0.1c-0.1,0.2-0.1,0.3-0.1,0.3c0,0.4-0.3,0.8-0.8,0.8s-0.8-0.3-0.8-0.8
					c0,0-0.1-0.1-0.1-0.3c-0.2-0.1-0.3-0.1-0.3-0.1c-0.4,0-0.8-0.3-0.8-0.8s0.3-0.8,0.8-0.8C152.5,218,152.7,218,152.8,218
					L152.8,218z M32,224.6c0.1-0.2,0.1-0.3,0.1-0.3c0-0.4,0.3-0.8,0.8-0.8s0.8,0.3,0.8,0.8c0,0,0.1,0.1,0.1,0.3
					c0.2,0.1,0.3,0.1,0.3,0.1c0.4,0,0.8,0.3,0.8,0.8s-0.3,0.8-0.8,0.8c0,0-0.1,0.1-0.3,0.1c-0.1,0.2-0.1,0.3-0.1,0.3
					c0,0.4-0.3,0.8-0.8,0.8s-0.8-0.3-0.8-0.8c0,0-0.1-0.1-0.1-0.3c-0.2-0.1-0.3-0.1-0.3-0.1c-0.4,0-0.8-0.3-0.8-0.8s0.3-0.8,0.8-0.8
					C31.7,224.6,31.8,224.6,32,224.6L32,224.6z M37.1,183.6c0.1-0.6,0.2-1.1,0.2-1.1c0-0.4,0.3-0.8,0.8-0.8c0.4,0,0.8,0.3,0.8,0.8
					c0,0,0.1,0.4,0.2,1.1h0.1c0.6,0.1,1.1,0.2,1.1,0.2c0.4,0,0.8,0.3,0.8,0.8c0,0.4-0.3,0.8-0.8,0.8c0,0-0.4,0.1-1.1,0.2H39v0.1
					c-0.1,0.6-0.2,1.1-0.2,1.1c0,0.4-0.3,0.8-0.8,0.8c-0.4,0-0.8-0.3-0.8-0.8c0,0-0.1-0.4-0.2-1.1v-0.1c-0.6-0.1-1.1-0.2-1.1-0.2
					c-0.4,0-0.8-0.3-0.8-0.8c0-0.4,0.3-0.8,0.8-0.8C36,183.8,36.4,183.7,37.1,183.6L37.1,183.6z M145.4,132.5L145.4,132.5
					c0.1-1.4,0.2-2.4,0.2-2.4c0-0.4,0.3-0.8,0.8-0.8s0.8,0.3,0.8,0.8c0,0,0.2,1.1,0.2,2.4l0,0c0.3,0,0.5,0.1,0.7,0.1
					c1,0.1,1.7,0.2,1.7,0.2c0.4,0,0.8,0.3,0.8,0.8s-0.3,0.8-0.8,0.8c0,0-0.7,0.1-1.7,0.2c-0.2,0-0.4,0.1-0.7,0.1
					c0,0.3-0.1,0.5-0.1,0.7c-0.1,1-0.2,1.7-0.2,1.7c0,0.4-0.3,0.8-0.8,0.8s-0.8-0.3-0.8-0.8c0,0-0.1-0.7-0.2-1.7
					c0-0.2-0.1-0.5-0.1-0.7l0,0c-1.3-0.1-2.4-0.2-2.4-0.2c-0.4,0-0.8-0.3-0.8-0.8c0-0.4,0.3-0.8,0.8-0.8
					C142.9,132.7,144.1,132.6,145.4,132.5L145.4,132.5L145.4,132.5z M149.9,187.3L149.9,187.3c0.1-1.4,0.2-2.4,0.2-2.4
					c0-0.4,0.3-0.8,0.8-0.8s0.8,0.3,0.8,0.8c0,0,0.2,1.1,0.2,2.4l0,0c0.3,0,0.5,0.1,0.7,0.1c1,0.1,1.7,0.2,1.7,0.2
					c0.4,0,0.8,0.3,0.8,0.8s-0.3,0.8-0.8,0.8c0,0-0.7,0.1-1.7,0.2c-0.2,0-0.4,0.1-0.7,0.1c0,0.3-0.1,0.5-0.1,0.7
					c-0.1,1-0.2,1.7-0.2,1.7c0,0.4-0.3,0.8-0.8,0.8s-0.8-0.3-0.8-0.8c0,0-0.1-0.7-0.2-1.7c0-0.2-0.1-0.5-0.1-0.7l0,0
					c-1.3-0.1-2.4-0.2-2.4-0.2c-0.4,0-0.8-0.3-0.8-0.8s0.3-0.8,0.8-0.8C147.4,187.5,148.5,187.4,149.9,187.3L149.9,187.3
					L149.9,187.3z M137.3,125.8c0.1-0.2,0.1-0.3,0.1-0.3c0-0.4,0.3-0.8,0.8-0.8s0.8,0.3,0.8,0.8c0,0,0.1,0.1,0.1,0.3
					c0.2,0.1,0.3,0.1,0.3,0.1c0.4,0,0.8,0.3,0.8,0.8c0,0.4-0.3,0.8-0.8,0.8c0,0-0.1,0.1-0.3,0.1c-0.1,0.2-0.1,0.3-0.1,0.3
					c0,0.4-0.3,0.8-0.8,0.8s-0.8-0.3-0.8-0.8c0,0-0.1-0.1-0.1-0.3c-0.2-0.1-0.3-0.1-0.3-0.1c-0.4,0-0.8-0.3-0.8-0.8
					c0-0.4,0.3-0.8,0.8-0.8C137,125.9,137.1,125.8,137.3,125.8z"/>
				<path class="st3" d="M127,90.7c0,0,2.9,17.7,4.1,25c0.1,0.8-0.1,1.6-0.6,2.1c-0.5,0.6-1.2,0.9-2,0.9h-70c-0.8,0-1.5-0.3-2-0.9
					s-0.7-1.4-0.6-2.1c1.2-7.3,4.1-25,4.1-25H127L127,90.7z"/>
				<path class="st2" d="M132.5,89.7c0,0,2.3,13.8,3.3,20.1c0.1,0.8-0.1,1.6-0.6,2.1c-0.5,0.6-1.2,0.9-2,0.9c-13.4,0-66,0-79.3,0
					c-0.8,0-1.5-0.3-2-0.9c-0.5-0.6-0.7-1.4-0.6-2.1c1.1-6.3,3.3-20.1,3.3-20.1H132.5z"/>
				<path class="st4" d="M159.1,268.5l-7.3-8.2H32.6l-7.6,8.6"/>
				<path class="st0" d="M197.1,124.6h17.7c1.3,0,2.5,0.5,3.4,1.4c0.9,0.9,1.4,2.1,1.4,3.4c0,4.2,0,9.6,0,9.6h-22.5L197.1,124.6
					L197.1,124.6z"/>
				<ellipse class="st0" cx="195.8" cy="255.7" rx="11.8" ry="13.4"/>
				<path class="st1" d="M194.7,236.1v2.6c0,0.6,0.5,1.1,1.1,1.1c0.6,0,1.1-0.5,1.1-1.1v-2.6c0-0.6-0.5-1.1-1.1-1.1
					C195.2,234.9,194.7,235.4,194.7,236.1z"/>
				<path class="st1" d="M177.9,256.8h2c0.6,0,1.1-0.5,1.1-1.1c0-0.6-0.5-1.1-1.1-1.1h-2c-0.6,0-1.1,0.5-1.1,1.1
					C176.8,256.3,177.3,256.8,177.9,256.8z"/>
				<path class="st1" d="M190.2,238.9l0.2,0.6c0.2,0.6,0.7,0.9,1.3,0.8c0.6-0.2,0.9-0.7,0.8-1.3l-0.2-0.6c-0.2-0.6-0.7-0.9-1.3-0.8
					C190.4,237.8,190,238.4,190.2,238.9z"/>
				<path class="st1" d="M186,240.9l0.3,0.5c0.3,0.5,0.9,0.7,1.4,0.4c0.5-0.3,0.7-0.9,0.4-1.4l-0.3-0.5c-0.3-0.5-0.9-0.7-1.4-0.4
					C185.9,239.8,185.8,240.4,186,240.9L186,240.9z"/>
				<path class="st1" d="M182.5,243.9l0.3,0.4c0.3,0.4,1,0.6,1.5,0.2c0.4-0.3,0.6-1,0.2-1.5l-0.3-0.4c-0.3-0.4-1-0.6-1.5-0.2
					C182.3,242.8,182.2,243.4,182.5,243.9z"/>
				<path class="st1" d="M180.6,247.7l0.4,0.3c0.4,0.3,1.1,0.3,1.5-0.2c0.3-0.4,0.3-1.1-0.2-1.5l-0.4-0.3c-0.4-0.3-1.1-0.3-1.5,0.2
					C180,246.7,180.2,247.4,180.6,247.7L180.6,247.7z"/>
				<path class="st1" d="M179.5,252.2l0.4,0.2c0.6,0.2,1.2-0.1,1.3-0.7c0.2-0.6-0.1-1.2-0.7-1.3l-0.4-0.2c-0.6-0.2-1.2,0.1-1.3,0.7
					C178.7,251.3,179,252,179.5,252.2z"/>
				<path class="st2" d="M212.4,253.7h-2.2c-0.6,0-1.1,0.5-1.1,1.1c0,0.6,0.5,1.1,1.1,1.1h2.2c0.6,0,1.1-0.5,1.1-1.1
					C213.5,254.2,213,253.7,212.4,253.7z"/>
				<path class="st2" d="M209.9,249.2l-0.5,0.2c-0.6,0.2-0.9,0.8-0.7,1.3c0.2,0.6,0.8,0.9,1.3,0.7l0.5-0.2c0.6-0.2,0.9-0.8,0.7-1.3
					C211,249.4,210.4,249.1,209.9,249.2L209.9,249.2z"/>
				<path class="st2" d="M208.1,245.1l-0.4,0.3c-0.5,0.3-0.6,1-0.3,1.5c0.3,0.5,1,0.6,1.5,0.3l0.4-0.3c0.5-0.3,0.6-1,0.3-1.5
					C209.3,244.9,208.6,244.8,208.1,245.1L208.1,245.1z"/>
				<path class="st1" d="M205.7,241.7l-0.3,0.3c-0.4,0.4-0.4,1.1-0.1,1.5c0.4,0.4,1.1,0.4,1.5,0.1l0.3-0.3c0.4-0.4,0.4-1.1,0.1-1.5
					S206,241.3,205.7,241.7L205.7,241.7z"/>
				<path class="st1" d="M202.3,239.7l-0.3,0.4c-0.3,0.5-0.2,1.2,0.3,1.4c0.5,0.3,1.2,0.2,1.4-0.3l0.3-0.4c0.3-0.5,0.2-1.2-0.3-1.4
					C203.3,239.1,202.7,239.2,202.3,239.7L202.3,239.7z"/>
				<path class="st1" d="M198.6,238.7l-0.1,0.4c-0.2,0.6,0.2,1.2,0.7,1.3c0.6,0.2,1.2-0.2,1.3-0.7l0.1-0.4c0.2-0.6-0.2-1.2-0.7-1.3
					C199.4,237.8,198.8,238.1,198.6,238.7L198.6,238.7z"/>
				<ellipse class="st1" cx="198.8" cy="255.7" rx="8.8" ry="10.1"/>
				<ellipse class="st3" cx="198.8" cy="255.7" rx="1.5" ry="1.7"/>
				<path class="st3" d="M204.5,250.2c0.1-0.3,0-0.7-0.2-0.9c-0.2-0.2-0.6-0.3-0.9-0.2c-0.9,0.3-2.2,0.6-3.1,0.8
					c-0.3,0.1-0.6,0.3-0.6,0.6c-0.1,0.3,0,0.7,0.2,0.9c0.7,0.7,1.6,1.6,2.2,2.2c0.2,0.2,0.6,0.3,0.9,0.2c0.3-0.1,0.6-0.3,0.6-0.6
					C203.9,252.4,204.2,251.2,204.5,250.2L204.5,250.2z"/>
				<path class="st1" d="M186.2,181.5l-12.9,12.9c-0.4,0.4-1.1,0.4-1.5,0c-0.4-0.4-0.4-1.1,0-1.5l14.7-14.7c0.3-0.3,0.8-0.4,1.2-0.2
					c0.4,0.2,0.7,0.6,0.7,1v30.8h8.7c0.6,0,1.1,0.5,1.1,1.1c0,0.6-0.5,1.1-1.1,1.1h-9.8c-0.6,0-1.1-0.5-1.1-1.1L186.2,181.5
					L186.2,181.5z"/>
				<path class="st1" d="M210.4,229.1l5.5-5.5c0.4-0.4,1.1-0.4,1.5,0s0.4,1.1,0,1.5l-5.8,5.8c-0.2,0.2-0.4,0.3-0.8,0.3h-23.5
					c-0.3,0-0.6-0.1-0.8-0.3l-14.7-14.6c-0.4-0.4-0.4-1.1,0-1.5c0.4-0.4,1.1-0.4,1.5,0l14.4,14.3H210.4L210.4,229.1z"/>
				<path class="st3" d="M172.1,235.4h-8.7c-0.6,0-1.1,0.5-1.1,1.1c0,0.6,0.5,1.1,1.1,1.1h8.7c0.6,0,1.1-0.5,1.1-1.1
					C173.2,235.8,172.7,235.4,172.1,235.4z"/>
				<path class="st3" d="M172.1,146.1h-8.7c-0.6,0-1.1,0.5-1.1,1.1s0.5,1.1,1.1,1.1h8.7c0.6,0,1.1-0.5,1.1-1.1
					S172.7,146.1,172.1,146.1z"/>
				<path class="st3" d="M172.1,241.7h-8.7c-0.6,0-1.1,0.5-1.1,1.1s0.5,1.1,1.1,1.1h8.7c0.6,0,1.1-0.5,1.1-1.1
					S172.7,241.7,172.1,241.7z"/>
				<path class="st2" d="M224.8,278.8c0-1.6-0.6-3-1.7-4.2c-1.1-1.1-2.6-1.7-4.2-1.7c-30,0-166.6,0-196.6,0c-1.6,0-3,0.6-4.2,1.7
					c-1.1,1.1-1.7,2.6-1.7,4.2c0,1.8,0,3.7,0,5.5c0,1.6,0.6,3,1.7,4.2s2.6,1.7,4.2,1.7c30,0,166.6,0,196.6,0c1.6,0,3-0.6,4.2-1.7
					c1.1-1.1,1.7-2.6,1.7-4.2C224.8,282.5,224.8,280.5,224.8,278.8z"/>
				<path class="st3" d="M224.8,277c0,0-22.2-0.2-52.1-0.3c-15.9-0.1-34-0.1-52.1-0.2c-10.5,0-21.1,0.1-31.3,0.1
					c-39.8,0.1-72.9,0.3-72.9,0.3c-0.7,0-1.2,0.6-1.2,1.2c0,0.6,0.6,1.2,1.2,1.2c0,0,33.1,0.2,72.9,0.3c10.1,0.1,20.7,0.1,31.3,0.1
					c18.1,0,36.1-0.1,52.1-0.2c29.9-0.1,52.1-0.3,52.1-0.3c0.7,0,1.2-0.6,1.2-1.2C226,277.4,225.4,277,224.8,277L224.8,277z"/>
				<path class="st3" d="M224.8,283.7c0,0-22.2-0.2-52.1-0.3c-15.9-0.1-34-0.1-52.1-0.2c-10.5,0-21.1,0.1-31.3,0.1
					c-39.8,0.1-72.9,0.3-72.9,0.3c-0.7,0-1.2,0.6-1.2,1.2c0,0.7,0.6,1.2,1.2,1.2c0,0,33.1,0.2,72.9,0.3c10.1,0.1,20.7,0.1,31.3,0.1
					c18.1,0,36.1-0.1,52.1-0.2c29.9-0.1,52.1-0.3,52.1-0.3c0.7,0,1.2-0.6,1.2-1.2C226,284.3,225.4,283.7,224.8,283.7L224.8,283.7z"
					/>
				<ellipse class="st0" cx="219.3" cy="201.5" rx="3.1" ry="3.1"/>
				<circle class="st0" cx="212.3" cy="206.6" r="2"/>
				<circle class="st0" cx="215.2" cy="178.9" r="2"/>
				<circle class="st0" cx="217.2" cy="147" r="2"/>
				<path class="st0" d="M197.1,162.1c0.3-0.1,0.6-0.2,0.9-0.2c1.7,0,3.1,1.4,3.1,3.1s-1.4,3.1-3.1,3.1c-0.3,0-0.7-0.1-0.9-0.2
					V162.1L197.1,162.1z"/>
				<circle class="st0" cx="202.2" cy="190" r="2"/>
				<circle class="st0" cx="202.7" cy="217.9" r="2"/>
				<circle class="st0" cx="221.7" cy="191.7" r="1.4"/>
				<ellipse class="st0" cx="203.8" cy="154.2" rx="1.4" ry="1.4"/>
				<circle class="st0" cx="206.4" cy="170.6" r="1.4"/>
				<circle class="st0" cx="224.8" cy="155" r="1.4"/>
				<path class="st3" d="M20.7,298.8c0.4-1.2,1.6-2,2.9-2c7.1,0,29.8,0,39.5,0c1,0,1.9,0.5,2.6,1.3c0.6,0.8,0.7,1.9,0.4,2.8
					c-2.2,5.9-6,16.5-7.7,20.9c-0.4,1.2-1.6,2-2.9,2c-7.1,0-29.8,0-39.5,0c-1,0-1.9-0.5-2.6-1.3c-0.6-0.8-0.7-1.9-0.4-2.8
					C15.2,313.8,19.1,303.1,20.7,298.8L20.7,298.8z"/>
				<path class="st0" d="M57.3,300c-0.1-0.3-0.3-0.4-0.5-0.6c-0.3-0.1-0.5,0-0.7,0.2c-2.1,2.1-7.4,7.3-9.9,9.7
					c-0.2,0.2-0.3,0.5-0.2,0.8c0.1,0.3,0.4,0.4,0.7,0.4c3.2,0,9.8,0,12.1,0c0.2,0,0.4-0.1,0.6-0.3s0.2-0.4,0.1-0.6
					C59.2,307.6,58,302.4,57.3,300L57.3,300z"/>
				<path class="st2" d="M55.5,304.1c0-0.1-0.1-0.2-0.2-0.2c-0.1-0.1-0.2,0-0.3,0.1c-0.8,0.8-2.9,2.8-3.8,3.8
					c-0.1,0.1-0.1,0.2-0.1,0.3c0.1,0.1,0.2,0.2,0.3,0.2c1.2,0,3.8,0,4.7,0c0.1,0,0.2-0.1,0.2-0.1c0.1-0.1,0.1-0.2,0.1-0.2
					C56.1,307,55.7,305,55.5,304.1L55.5,304.1z"/>
				<path class="st2" d="M44.9,315.7h3.6c0.6,0,1.1-0.5,1.1-1.1s-0.5-1.1-1.1-1.1h-3.6c-0.6,0-1.1,0.5-1.1,1.1
					S44.3,315.7,44.9,315.7z"/>
				<path class="st2" d="M51.6,315.7h5.1c0.6,0,1.1-0.5,1.1-1.1s-0.5-1.1-1.1-1.1h-5.1c-0.6,0-1.1,0.5-1.1,1.1S51,315.7,51.6,315.7z
					"/>
				<path class="st2" d="M43.3,319.2h6c0.6,0,1.1-0.5,1.1-1.1c0-0.6-0.5-1.1-1.1-1.1h-6c-0.6,0-1.1,0.5-1.1,1.1
					C42.3,318.8,42.7,319.2,43.3,319.2z"/>
				<path class="st2" d="M52.5,319.2h0.8c0.6,0,1.1-0.5,1.1-1.1c0-0.6-0.5-1.1-1.1-1.1h-0.8c-0.6,0-1.1,0.5-1.1,1.1
					C51.5,318.8,51.9,319.2,52.5,319.2z"/>
				<path class="st2" d="M30.6,312.9l6.1-11.9c0.3-0.7,1.2-1.1,1.9-0.8c0.8,0.2,1.2,0.9,1.1,1.8l-1.7,13.4l2.7-6
					c0.2-0.6,0.9-0.8,1.4-0.6c0.6,0.2,0.8,0.9,0.6,1.4c0,0-2.4,5.5-4.1,9.3c-0.3,0.7-1.2,1.1-1.9,0.9c-0.8-0.2-1.3-0.9-1.2-1.8
					l1.8-14l-5.6,10.9c-0.3,0.7-1.1,1-1.8,0.8s-1.2-0.7-1.3-1.4l-0.2-2.2l-3.3,5.9c-0.4,0.7-1.2,1-1.9,0.7c-0.7-0.2-1.2-0.9-1.1-1.7
					l0.8-8.4l-3.1,5.7c-0.3,0.5-0.9,0.7-1.4,0.4c-0.5-0.3-0.7-0.9-0.4-1.4c0,0,2.7-4.8,4.3-7.8c0.4-0.7,1.2-1,1.9-0.8
					c0.7,0.2,1.2,0.9,1.1,1.7l-0.9,8.4l2.9-5.2c0.3-0.6,1.1-0.9,1.8-0.8c0.7,0.2,1.2,0.7,1.3,1.4L30.6,312.9L30.6,312.9z"/>
				<ellipse class="st2" cx="71.7" cy="316.6" rx="4.1" ry="4.1"/>
				<path class="st3" d="M71.7,311.5c-2.8,0-5.2,2.3-5.2,5.2c0,2.8,2.3,5.2,5.2,5.2s5.2-2.3,5.2-5.2
					C76.8,313.7,74.5,311.5,71.7,311.5z M71.7,313.6c1.7,0,3,1.4,3,3s-1.4,3-3,3s-3-1.4-3-3S69.9,313.6,71.7,313.6z"/>
				<ellipse class="st0" cx="83.8" cy="316.6" rx="4.1" ry="4.1"/>
				<path class="st3" d="M83.8,311.5c-2.8,0-5.2,2.3-5.2,5.2c0,2.8,2.3,5.2,5.2,5.2s5.2-2.3,5.2-5.2C89,313.7,86.7,311.5,83.8,311.5
					z M83.8,313.6c1.7,0,3,1.4,3,3s-1.4,3-3,3s-3-1.4-3-3S82.2,313.6,83.8,313.6z"/>
				<ellipse class="st1" cx="203" cy="83" rx="1.6" ry="1.6"/>
				<circle class="st1" cx="181.5" cy="194.8" r="1.6"/>
				<circle class="st3" cx="101.1" cy="95" r="1.6"/>
				<circle class="st3" cx="201.5" cy="135.3" r="1.6"/>
				<circle class="st3" cx="234.9" cy="301.4" r="1.6"/>
				<circle class="st3" cx="201.5" cy="130" r="1.6"/>
				<ellipse class="st1" cx="203" cy="77" rx="1.6" ry="1.6"/>
				<path class="st2" d="M190.9,310.1v-7.2c0-1.2-0.9-2.1-2.1-2.1s-2.1,0.9-2.1,2.1v7.2c0,1.2,0.9,2.1,2.1,2.1
					S190.9,311.2,190.9,310.1z"/>
				<path class="st2" d="M214.2,310.1v-7c0-1.2-0.9-2.1-2.1-2.1s-2.1,0.9-2.1,2.1v7c0,1.2,0.9,2.1,2.1,2.1S214.2,311.2,214.2,310.1z
					"/>
				<path class="st0" d="M218.8,297.6l-7.8,7.8c-0.6,0.6-0.6,1.6,0,2.3c0.6,0.6,1.6,0.6,2.3,0l7.8-7.8c0.6-0.6,0.6-1.6,0-2.3
					C220.5,297,219.5,297,218.8,297.6z"/>
				<path class="st0" d="M195.4,297.6l-7.8,7.8c-0.6,0.6-0.6,1.6,0,2.3c0.6,0.6,1.6,0.6,2.3,0l7.8-7.8c0.6-0.6,0.6-1.6,0-2.3
					C197.1,297,196.1,297,195.4,297.6L195.4,297.6z"/>
				<path class="st2" d="M207.8,321.3c0-0.7-0.3-1.3-0.7-1.7c-0.4-0.4-1.1-0.7-1.7-0.7c-2.5,0-6.3,0-8.8,0c-0.7,0-1.3,0.3-1.7,0.7
					c-0.4,0.4-0.7,1.1-0.7,1.7c0,1.4,0,3.2,0,4.7c0,0.7,0.3,1.3,0.7,1.7c0.4,0.4,1.1,0.7,1.7,0.7c2.5,0,6.3,0,8.8,0
					c0.7,0,1.3-0.3,1.7-0.7c0.4-0.4,0.7-1.1,0.7-1.7C207.8,324.5,207.8,322.8,207.8,321.3z"/>
				<path class="st2" d="M212.9,329.5c0-2.9,0-8.9,0-11.8c0-1.9-1.5-3.4-3.3-3.4c-4.2,0-13,0-17.2,0c-1.8,0-3.3,1.5-3.3,3.4
					c0,2.9,0,8.9,0,11.8c0,0.6,0.5,1.1,1.1,1.1c0.6,0,1.1-0.5,1.1-1.1c0-2.9,0-8.9,0-11.8c0-0.7,0.6-1.3,1.2-1.3c4.2,0,13,0,17.2,0
					c0.7,0,1.2,0.6,1.2,1.3c0,2.9,0,8.9,0,11.8c0,0.6,0.5,1.1,1.1,1.1C212.4,330.6,212.9,330.1,212.9,329.5z"/>
				<path class="st3" d="M196.5,322.9h4c0.6,0,1.1-0.5,1.1-1.1c0-0.6-0.5-1.1-1.1-1.1h-4c-0.6,0-1.1,0.5-1.1,1.1
					C195.4,322.4,195.9,322.9,196.5,322.9z"/>
				<path class="st3" d="M203.9,322.9h1.6c0.6,0,1.1-0.5,1.1-1.1c0-0.6-0.5-1.1-1.1-1.1h-1.6c-0.6,0-1.1,0.5-1.1,1.1
					C202.8,322.4,203.3,322.9,203.9,322.9z"/>
				<path class="st3" d="M196.5,326.5h5.5c0.6,0,1.1-0.5,1.1-1.1c0-0.6-0.5-1.1-1.1-1.1h-5.5c-0.6,0-1.1,0.5-1.1,1.1
					C195.4,326,195.9,326.5,196.5,326.5z"/>
				<circle class="st2" cx="223.5" cy="323.4" r="1.9"/>
				<circle class="st2" cx="223.5" cy="316.4" r="1.9"/>
				<path class="st3" d="M205.8,96c0,0-0.9-0.1-2.2-0.2c-0.7-0.1-1.4-0.1-2.2-0.1c-0.4,0-0.9,0-1.3,0.1c-1.7,0.1-3,0.2-3,0.2
					c-0.4,0-0.8,0.3-0.8,0.8c0,0.4,0.3,0.8,0.8,0.8c0,0,1.4,0.2,3,0.2c0.4,0,0.9,0.1,1.3,0.1c0.8,0,1.5-0.1,2.2-0.1
					c1.3-0.1,2.2-0.2,2.2-0.2c0.4,0,0.8-0.3,0.8-0.8C206.6,96.3,206.2,96,205.8,96L205.8,96z"/>
				<path class="st3" d="M205.8,102.9c0,0-0.9-0.1-2.2-0.2c-0.7-0.1-1.4-0.1-2.2-0.1c-0.4,0-0.9,0-1.3,0.1c-1.7,0.1-3,0.2-3,0.2
					c-0.4,0-0.8,0.3-0.8,0.8c0,0.4,0.3,0.8,0.8,0.8c0,0,1.4,0.2,3,0.2c0.4,0,0.9,0.1,1.3,0.1c0.8,0,1.5-0.1,2.2-0.1
					c1.3-0.1,2.2-0.2,2.2-0.2c0.4,0,0.8-0.3,0.8-0.8C206.6,103.3,206.2,102.9,205.8,102.9z"/>
				<path class="st3" d="M205.8,109.9c0,0-0.9-0.1-2.2-0.2c-0.7-0.1-1.4-0.1-2.2-0.1c-0.4,0-0.9,0-1.3,0.1c-1.7,0.1-3,0.2-3,0.2
					c-0.4,0-0.8,0.3-0.8,0.8c0,0.4,0.3,0.8,0.8,0.8c0,0,1.4,0.2,3,0.2c0.4,0,0.9,0.1,1.3,0.1c0.8,0,1.5-0.1,2.2-0.1
					c1.3-0.1,2.2-0.2,2.2-0.2c0.4,0,0.8-0.3,0.8-0.8C206.5,110.2,206.2,109.9,205.8,109.9z"/>
				<path class="st3" d="M205.8,116.8c0,0-0.9-0.1-2.2-0.2c-0.7-0.1-1.4-0.1-2.2-0.1c-0.4,0-0.9,0-1.3,0.1c-1.7,0.1-3,0.2-3,0.2
					c-0.4,0-0.8,0.3-0.8,0.8c0,0.4,0.3,0.8,0.8,0.8c0,0,1.4,0.2,3,0.2c0.4,0,0.9,0.1,1.3,0.1c0.8,0,1.5-0.1,2.2-0.1
					c1.3-0.1,2.2-0.2,2.2-0.2c0.4,0,0.8-0.3,0.8-0.8C206.6,117.2,206.2,116.8,205.8,116.8L205.8,116.8z"/>
				<path class="st3" d="M99,321.5l6.2-17.5H85.8c-0.3,0-0.7-0.2-0.9-0.4c-0.2-0.3-0.2-0.7-0.1-1l4.7-12.9c0.2-0.6,0.8-0.8,1.4-0.6
					c0.6,0.2,0.8,0.8,0.6,1.4l-4.2,11.4h19.4c0.3,0,0.7,0.2,0.9,0.4c0.2,0.3,0.2,0.7,0.1,0.9l-6.2,17.5h28.7l2.7-7.8
					c0.2-0.4,0.6-0.7,1-0.7h30.2c0.3,0,0.7,0.2,0.9,0.4c0.2,0.3,0.2,0.7,0.1,0.9l-5.7,15.8c-0.2,0.6-0.8,0.8-1.3,0.7
					c-0.6-0.2-0.8-0.8-0.7-1.3l5.2-14.4h-6.2l-1.8,5c-0.2,0.4-0.6,0.7-1,0.7H140c-0.3,0-0.7-0.2-0.9-0.4c-0.2-0.3-0.3-0.7-0.1-0.9
					l1.5-4.3h-5.8l-2.7,7.8c0,0,0,0,0,0.1l-2.6,7.3c-0.2,0.6-0.8,0.8-1.3,0.7c-0.6-0.2-0.8-0.8-0.7-1.3l2.1-5.9h-28.7l-2.4,6.6
					c-0.2,0.6-0.8,0.8-1.3,0.7c-0.6-0.2-0.8-0.8-0.7-1.3L99,321.5L99,321.5L99,321.5z M142.8,314.4l-1.2,3.5h11.4l1.3-3.5H142.8z
					 M14,315.8H4.2c-0.6,0-1.1,0.5-1.1,1.1c0,0.6,0.5,1.1,1.1,1.1H14c0.6,0,1.1-0.5,1.1-1.1C15.2,316.3,14.7,315.8,14,315.8z"/>
				<path class="st3" d="M147,290.2h-4.7c0,0-1.1,3.1-2,5.6c-0.3,0.7-0.2,1.6,0.3,2.2c0.4,0.6,1.2,1,1.9,1l0,0
					c0.8,0,1.5-0.5,1.8-1.2C145.2,295.3,147,290.2,147,290.2L147,290.2z"/>
				<path class="st3" d="M156.2,290.2h-4.7c0,0-1.1,3.1-2,5.6c-0.3,0.7-0.2,1.6,0.3,2.2c0.4,0.6,1.2,1,1.9,1l0,0
					c0.8,0,1.5-0.5,1.8-1.2C154.4,295.3,156.2,290.2,156.2,290.2L156.2,290.2z"/>
				<path class="st3" d="M137.8,290.2h-4.7c0,0-1.1,3.1-2,5.6c-0.3,0.7-0.2,1.6,0.3,2.2c0.4,0.6,1.2,1,1.9,1l0,0
					c0.8,0,1.5-0.5,1.8-1.2C136,295.3,137.8,290.2,137.8,290.2L137.8,290.2z"/>
				<path class="st2" d="M190.1,136c0-1.4-0.6-2.7-1.6-3.7c-1-1-2.3-1.6-3.7-1.6l0,0c-1.4,0-2.7,0.6-3.7,1.6c-1,1-1.6,2.3-1.6,3.7
					c0,7.8,0,22.3,0,30.1c0,1.4,0.6,2.7,1.6,3.7c1,1,2.3,1.6,3.7,1.6l0,0c1.4,0,2.7-0.6,3.7-1.6c1-1,1.6-2.3,1.6-3.7
					C190.1,158.3,190.1,143.8,190.1,136z"/>
				<path class="st0" d="M180.6,160h4.3c0.6,0,1.1-0.5,1.1-1.1c0-0.6-0.5-1.1-1.1-1.1h-4.3c-0.6,0-1.1,0.5-1.1,1.1
					C179.5,159.5,180,160,180.6,160z"/>
				<path class="st0" d="M180.6,143.9h4.3c0.6,0,1.1-0.5,1.1-1.1c0-0.6-0.5-1.1-1.1-1.1h-4.3c-0.6,0-1.1,0.5-1.1,1.1
					C179.5,143.4,180,143.9,180.6,143.9z"/>
				<path class="st0" d="M180.6,168h2.2c0.6,0,1.1-0.5,1.1-1.1c0-0.6-0.5-1.1-1.1-1.1h-2.2c-0.6,0-1.1,0.5-1.1,1.1
					C179.5,167.5,180,168,180.6,168z"/>
				<path class="st0" d="M180.6,155.9h2.2c0.6,0,1.1-0.5,1.1-1.1s-0.5-1.1-1.1-1.1h-2.2c-0.6,0-1.1,0.5-1.1,1.1
					S180,155.9,180.6,155.9z"/>
				<path class="st0" d="M180.6,164h2.2c0.6,0,1.1-0.5,1.1-1.1c0-0.6-0.5-1.1-1.1-1.1h-2.2c-0.6,0-1.1,0.5-1.1,1.1
					C179.5,163.5,180,164,180.6,164z"/>
				<path class="st0" d="M180.6,152h2.2c0.6,0,1.1-0.5,1.1-1.1c0-0.6-0.5-1.1-1.1-1.1h-2.2c-0.6,0-1.1,0.5-1.1,1.1
					C179.5,151.5,180,152,180.6,152z"/>
				<path class="st0" d="M180.6,139.9h2.2c0.6,0,1.1-0.5,1.1-1.1c0-0.6-0.5-1.1-1.1-1.1h-2.2c-0.6,0-1.1,0.5-1.1,1.1
					C179.5,139.4,180,139.9,180.6,139.9z"/>
				<path class="st0" d="M180.6,147.9h2.2c0.6,0,1.1-0.5,1.1-1.1c0-0.6-0.5-1.1-1.1-1.1h-2.2c-0.6,0-1.1,0.5-1.1,1.1
					C179.5,147.5,180,147.9,180.6,147.9z"/>
				<path class="st0" d="M180.6,135.9h2.2c0.6,0,1.1-0.5,1.1-1.1s-0.5-1.1-1.1-1.1h-2.2c-0.6,0-1.1,0.5-1.1,1.1
					S180,135.9,180.6,135.9z"/>
				<path class="st3" d="M109.7,37.4C109.7,37.4,109.7,37.4,109.7,37.4h8.9c2.2,0,4,1.4,4.6,3.5l0.7,2.5c0,0,0,0,0,0.1l1,3.5
					c0.2,0.6-0.2,1.2-0.7,1.3s-1.2-0.2-1.3-0.7l-0.8-2.7h-10.7c-0.4,0-0.9-0.3-1-0.8l-1.4-4.5H91.4l-1.9,7c-0.2,0.6-0.7,0.9-1.3,0.7
					c-0.6-0.2-0.9-0.7-0.7-1.3l1.8-6.4h-2.2c-1.2,0-2.2,0.8-2.6,1.9c-0.7,2.5-1.7,6-1.7,6c-0.2,0.6-0.7,0.9-1.3,0.7
					c-0.6-0.2-0.9-0.7-0.7-1.3c0,0,1-3.5,1.7-6c0.6-2,2.4-3.5,4.6-3.5h3.5c0,0,0,0,0.1,0L109.7,37.4L109.7,37.4z M121.4,42.7
					l-0.3-1.2c-0.3-1.2-1.4-1.9-2.6-1.9h-7.4l0.9,3.1H121.4L121.4,42.7z"/>
				<path class="st3" d="M197.1,123.6h16.7h1c1.6,0,3,0.6,4.2,1.7c1.1,1.1,1.7,2.6,1.7,4.2v9.6c0,0.6-0.5,1.1-1.1,1.1
					c-0.6,0-1.1-0.5-1.1-1.1v-6.1h-10.2c-0.6,0-1.1-0.5-1.1-1.1v-6.1h-10.2c-0.6,0-1.1-0.5-1.1-1.1S196.5,123.6,197.1,123.6
					L197.1,123.6z M209.4,130.8h9.1v-1.3c0-1-0.4-1.9-1.1-2.7s-1.7-1.1-2.7-1.1h-5.4V130.8z"/>
				<path class="st3" d="M238,306.6v-5.4c0-1.5-1-2.8-2.4-3.2c-2.5-0.7-5.5-1.6-5.5-1.6c-0.6-0.2-0.9-0.7-0.7-1.3
					c0.2-0.6,0.7-0.9,1.3-0.7c0,0,3,0.8,5.5,1.6c2.4,0.7,4,2.8,4,5.3v5.3c0.2,0.3,0.2,0.7,0,0.9v4.8c0.2,0.3,0.2,0.7,0,0.9v7.5
					c0,2.4-1.7,4.6-4,5.3c-2.5,0.7-5.5,1.6-5.5,1.6c-0.6,0.2-1.2-0.2-1.3-0.7s0.2-1.2,0.7-1.3c0,0,3-0.8,5.5-1.6
					c1.4-0.4,2.4-1.7,2.4-3.2v-5.3l-7.5,7.5c-0.4,0.4-1.1,0.4-1.5,0c-0.4-0.4-0.4-1.1,0-1.5l9-9v-2.8l-7.5,7.5
					c-0.4,0.4-1.1,0.4-1.5,0c-0.4-0.4-0.4-1.1,0-1.5L238,306.6z"/>
				<path class="st3" d="M22.5,270.5V125.9v-0.3c0.1-12.2,5.3-23.4,14.1-32.5c0.4-0.4,0.4-1.1,0-1.5c-0.4-0.4-1.1-0.4-1.5,0
					c-9.1,9.4-14.6,21.2-14.7,33.9v0.4v144.6c0,0.6,0.5,1.1,1.1,1.1C22,271.6,22.5,271.1,22.5,270.5z M48.4,261.3H33.1l-7.3,8.3
					c-0.4,0.4-1.1,0.5-1.5,0.1c-0.4-0.4-0.5-1.1-0.1-1.5l7.6-8.6c0.2-0.2,0.5-0.4,0.8-0.4h119.2c0.3,0,0.6,0.1,0.8,0.4l7.3,8.2
					c0.4,0.4,0.3,1.1-0.1,1.5c-0.4,0.4-1.1,0.3-1.5-0.1l-6.9-7.9h-8.9v8c0,0.6-0.5,1.1-1.1,1.1c-0.6,0-1.1-0.5-1.1-1.1v-8h-12.5v3.3
					c0,0.3-0.1,0.6-0.3,0.8l-4.8,4.8c-0.4,0.4-1.1,0.4-1.5,0s-0.4-1.1,0-1.5l4.5-4.5v-2.9H58.2l-2.7,3.1h12.9c0.6,0,1.1,0.5,1.1,1.1
					v3.9c0,0.6-0.5,1.1-1.1,1.1c-0.6,0-1.1-0.5-1.1-1.1v-2.9H53.1c-0.4,0-0.8-0.2-0.9-0.6c-0.2-0.4-0.1-0.8,0.2-1.2l3-3.4h-4.1
					l-7.3,8.3c-0.4,0.4-1.1,0.5-1.5,0.1c-0.4-0.4-0.5-1.1-0.1-1.5L48.4,261.3L48.4,261.3z"/>
				<circle class="st3" cx="76.1" cy="267.3" r="1.6"/>
				<circle class="st3" cx="81.4" cy="267.3" r="1.6"/>
				<circle class="st3" cx="149.3" cy="264.5" r="1.6"/>
				<circle class="st3" cx="167.2" cy="152.9" r="1.6"/>
				<path class="st0" d="M56.1,109.8h2.6c0.6,0,1.1-0.5,1.1-1.1s-0.5-1.1-1.1-1.1h-2.6c-0.6,0-1.1,0.5-1.1,1.1
					S55.5,109.8,56.1,109.8z"/>
				<path class="st0" d="M62.8,109.8h2.6c0.6,0,1.1-0.5,1.1-1.1s-0.5-1.1-1.1-1.1h-2.6c-0.6,0-1.1,0.5-1.1,1.1
					S62.2,109.8,62.8,109.8z"/>
				<ellipse class="st0" cx="129.1" cy="107.4" rx="2.8" ry="2.8"/>
				<path class="st3" d="M169.1,214.4h2.5c0.6,0,1.1,0.5,1.1,1.1c0,0.6-0.5,1.1-1.1,1.1H168c-0.6,0-1.1-0.5-1.1-1.1v-21.9
					c0-0.6,0.5-1.1,1.1-1.1h3.6c0.6,0,1.1,0.5,1.1,1.1c0,0.6-0.5,1.1-1.1,1.1h-2.5L169.1,214.4L169.1,214.4z"/>
				<path class="st1" d="M158.8,65.6c-1.2-2.9-1.8-6.1-1.8-9.5c0-2.7,0.4-5.3,1.1-7.6c0.2-0.6,0.8-0.9,1.3-0.7
					c0.6,0.2,0.9,0.8,0.7,1.3c-0.7,2.2-1.1,4.6-1.1,7c0,3.3,0.7,6.5,1.9,9.4c0,0,0,0,0,0.1c0.3,0,0.7,0,1.1-0.1
					c2.3-0.1,4.9-0.1,7.4-0.1c0.1,0,0.2,0,0.2,0c-1.1-1.7-1.9-3.5-2.5-5.5c-0.1-0.3,0-0.7,0.2-0.9c0.2-0.3,0.5-0.4,0.8-0.4h11.5
					c0.6,0,1.1,0.5,1.1,1.1c0,0.6-0.5,1.1-1.1,1.1h-10c0.6,1.7,1.5,3.3,2.6,4.8c1.6,0,3.1,0.1,4.5,0.1c6.2,0.2,11.1,0.4,11.1,0.4
					c0.3,0,0.5,0.2,0.5,0.5s-0.2,0.5-0.5,0.5c0,0-2.9,0.2-7.2,0.3c3.3,3.6,8.1,5.8,13.4,5.8c0.7,0,1.4-0.1,2.1-0.1v-5.5
					c0-0.6,0.5-1.1,1.1-1.1c0.6,0,1.1,0.5,1.1,1.1v6.4c0,0,0,0,0,0.1v9.5c0,0.5-0.4,0.9-0.9,1.1c-1.6,0.3-3.1,0.4-4.7,0.4
					c-7.3,0-14-2.8-19.1-7.3l-7.7,7.7L180,99.3c0.2,0.2,0.3,0.4,0.3,0.8V114h16.7c0.6,0,1.1,0.5,1.1,1.1c0,0.6-0.5,1.1-1.1,1.1
					h-17.8c-0.6,0-1.1-0.5-1.1-1.1v-7.7h-10.5c-0.6,0-1.1-0.5-1.1-1.1c0-0.6,0.5-1.1,1.1-1.1h10.5v-4.7l-20.6-20.6h-6.1
					c-0.6,0-1.1-0.5-1.1-1.1c0-0.6,0.5-1.1,1.1-1.1h6.5c0.3,0,0.6,0.1,0.8,0.3l5.5,5.5l7.6-7.6c-2.4-2.5-4.4-5.4-5.8-8.6
					c-1.4,0-2.8-0.1-4.2-0.1c-6.2-0.2-11.1-0.4-11.1-0.4c-0.3,0-0.5-0.2-0.5-0.5s0.2-0.5,0.5-0.5C151,65.9,154.2,65.8,158.8,65.6z
					 M178,67.3c-0.4,0-0.8,0-1.2,0.1c-1.6,0.1-3.2,0.1-4.9,0.1c-0.1,0-0.3,0.1-0.4,0c-0.7,0-1.4,0-2.1,0c-0.3,0-0.6,0-0.9,0
					c1.4,2.9,3.3,5.6,5.7,7.8l0,0c4.8,4.5,11.3,7.4,18.4,7.4c1.2,0,2.3-0.1,3.5-0.2v-7.4c-0.7,0.1-1.4,0.1-2.1,0.1
					C187.5,75.2,181.7,72.1,178,67.3C178,67.4,178,67.4,178,67.3L178,67.3z M149.4,54.6v-5.8c0-0.6,0.5-1.1,1.1-1.1
					c0.6,0,1.1,0.5,1.1,1.1v6.9c0,0.6-0.5,1.1-1.1,1.1H135l-4.6,4.6c-0.4,0.4-1.1,0.4-1.5,0c-0.4-0.4-0.4-1.1,0-1.5l4.9-4.9
					c0.2-0.2,0.4-0.3,0.8-0.3H149.4z"/>
				<path class="st3" d="M161.8,113.7l6.7-6.6c0.4-0.4,0.4-1.1,0-1.5c-0.4-0.4-1.1-0.4-1.5,0l-6.7,6.6c-0.4,0.4-0.4,1.1,0,1.5
					C160.7,114.1,161.4,114.1,161.8,113.7z"/>
				<path class="st1" d="M38,89.7c0,0,5.4-14.8,7.6-20.8c0.6-1.5,2-2.5,3.6-2.5h9.6c1.6,0,3-1,3.6-2.5c1.3-3.7,3.8-10.5,5.2-14.2
					c0.6-1.5,2-2.5,3.6-2.5h51.3c1.6,0,3,1,3.6,2.5c1.3,3.7,3.8,10.5,5.2,14.2c0.6,1.5,2,2.5,3.6,2.5h9.6c1.6,0,3,1,3.6,2.5
					c2.2,6,8.4,22.8,8.4,22.8l-16.2-2H38z"/>
				<path class="st2" d="M111.9,58.4c-0.6-0.7-1.5-1.1-2.4-1.1c-5,0-21.6,0-26.7,0c-0.9,0-1.8,0.4-2.4,1.1c-1.6,1.7-4.7,5.2-6.8,7.4
					c-1.2,1.3-1.2,3.2,0,4.4c2.1,2.3,5.3,5.7,6.8,7.4c0.6,0.7,1.5,1.1,2.4,1.1c5,0,21.6,0,26.7,0c0.9,0,1.8-0.4,2.4-1.1
					c1.6-1.7,4.7-5.2,6.8-7.4c1.2-1.3,1.2-3.2,0-4.4C116.7,63.7,113.5,60.2,111.9,58.4z"/>
				<path class="st3" d="M82.9,56.3h26.7c1.2,0,2.4,0.5,3.2,1.4l6.8,7.4c1.5,1.7,1.5,4.2,0,5.9c-2.1,2.3-5.3,5.7-6.8,7.4
					c-0.8,0.9-2,1.4-3.2,1.4H82.9c-1.2,0-2.4-0.5-3.2-1.4c-1.6-1.7-4.7-5.2-6.8-7.4c-1.5-1.7-1.5-4.2,0-5.9c2.1-2.3,5.3-5.7,6.8-7.4
					C80.5,56.8,81.6,56.3,82.9,56.3L82.9,56.3z M112.8,75.2v-0.7h-3.8v3.2h0.4c0.6,0,1.2-0.3,1.7-0.7L112.8,75.2z M103.2,74.6v3.2
					h3.8v-3.2H103.2z M97.3,74.6v3.2h3.8v-3.2H97.3z M91.4,74.6v3.2h3.8v-3.2H91.4z M85.6,74.6v3.2h3.8v-3.2H85.6z M83.5,77.8v-3.2
					h-3.8v0.9l1.5,1.7c0.4,0.4,1,0.7,1.7,0.7L83.5,77.8L83.5,77.8z M77,72.4h0.6v-3.2h-3.5c0.1,0.2,0.2,0.3,0.3,0.4L77,72.4z
					 M79.7,69.2v3.2h3.8v-3.2H79.7z M85.6,69.2v3.2h3.8v-3.2H85.6z M91.4,69.2v3.2h3.8v-3.2H91.4z M97.3,69.2v3.2h3.8v-3.2H97.3z
					 M103.2,69.2v3.2h3.8v-3.2H103.2z M109.1,69.2v3.2h3.8v-3.2H109.1z M118.3,69.2H115v3.2h0.4l2.6-2.8
					C118.1,69.5,118.2,69.4,118.3,69.2z M74.1,67.1h3.5v-3.2H77l-2.6,2.8C74.3,66.8,74.1,66.9,74.1,67.1L74.1,67.1z M79.7,63.8V67
					h3.8v-3.2H79.7z M85.6,63.8V67h3.8v-3.2H85.6z M91.4,63.8V67h3.8v-3.2H91.4z M97.3,63.8V67h3.8v-3.2H97.3z M103.2,63.8V67h3.8
					v-3.2H103.2z M109.1,63.8V67h3.8v-3.2H109.1z M115.4,63.8H115V67h3.3c-0.1-0.2-0.2-0.3-0.3-0.4L115.4,63.8L115.4,63.8z
					 M83.5,58.4h-0.6c-0.6,0-1.2,0.3-1.7,0.7l-1.5,1.7v0.9h3.8V58.4L83.5,58.4z M85.6,61.7h3.8v-3.2h-3.8V61.7z M91.4,61.7h3.8v-3.2
					h-3.8V61.7z M97.3,61.7h3.8v-3.2h-3.8V61.7z M103.2,61.7h3.8v-3.2h-3.8V61.7z M109.1,58.4v3.2h3.8V61l-1.7-1.9
					c-0.4-0.4-1-0.7-1.7-0.7L109.1,58.4L109.1,58.4z"/>
				<circle class="st3" cx="113.2" cy="52.7" r="1.6"/>
				<circle class="st3" cx="107" cy="52.7" r="1.6"/>
				<path class="st3" d="M137.6,79.9v9.8c0,0.6-0.5,1.1-1.1,1.1c-0.6,0-1.1-0.5-1.1-1.1V78.8c0-0.6,0.5-1.1,1.1-1.1h15
					c0.6,0,1.1,0.5,1.1,1.1c0,0.6-0.5,1.1-1.1,1.1L137.6,79.9L137.6,79.9z"/>
				<path class="st3" d="M112.5,77.1l13.4,13.4c0.4,0.4,1.1,0.4,1.5,0s0.4-1.1,0-1.5L114,75.6c-0.4-0.4-1.1-0.4-1.5,0
					C112.1,76,112.1,76.7,112.5,77.1z M52.9,81.7c-0.5-0.8-0.8-1.8-0.8-2.8c0-2.8,2.3-5.1,5.1-5.1c2.4,0,4.5,1.7,5,4h25.2
					c0.6,0,1.1,0.5,1.1,1.1c0,0.6-0.5,1.1-1.1,1.1H62.1c-0.5,2.3-2.6,4-5,4c-1.1,0-2-0.3-2.8-0.8L47,90.5c-0.4,0.4-1.1,0.4-1.5,0
					c-0.4-0.4-0.4-1.1,0-1.5L52.9,81.7z M55,81c0.6,0.6,1.3,0.9,2.1,0.9c1.7,0,3-1.3,3-3s-1.3-3-3-3s-3,1.3-3,3
					C54.1,79.7,54.5,80.4,55,81C55,80.9,55,80.9,55,81L55,81z M129.6,59.5h-15.8c-0.6,0-1.1,0.5-1.1,1.1s0.5,1.1,1.1,1.1h15.8
					c0.6,0,1.1-0.5,1.1-1.1S130.2,59.5,129.6,59.5z"/>
				<path class="st3" d="M105,98.9l-4.5,4.5c-0.2,0.2-0.4,0.3-0.8,0.3h-6.4l-2.7,2.7v6.4c0,0.6-0.5,1.1-1.1,1.1
					c-0.6,0-1.1-0.5-1.1-1.1v-6.8c0-0.3,0.1-0.6,0.3-0.8l8.2-8.2v-6.3H68.9l-2,12.1c-0.1,0.5-0.6,0.9-1.1,0.9H53.4
					c-0.6,0-1.1-0.5-1.1-1.1c0-0.6,0.5-1.1,1.1-1.1h11.5l1.8-10.9H37.9c-0.6,0-1.1-0.5-1.1-1.1c0-0.6,0.5-1.1,1.1-1.1h29.9
					c0,0,0,0,0.1,0h72.2c0.6,0,1.1,0.5,1.1,1.1c0,0.6-0.5,1.1-1.1,1.1H99v6h15.1c0.3,0,0.6,0.1,0.8,0.3l7.4,7.4
					c0.8-2.2,2.7-3.8,5-4.2v-4.5c0-0.6,0.5-1.1,1.1-1.1h4.1c0.6,0,1.1,0.5,1.1,1.1c0,0.6-0.5,1.1-1.1,1.1h-3v4.4
					c0,0.6-0.5,1.1-1.1,1.1c-2.4,0-4.3,1.9-4.3,4.3c0,0.4-0.3,0.8-0.7,1s-0.8,0.1-1.2-0.2l-8.5-8.5L105,98.9L105,98.9z M99.2,101.7
					l2.8-2.8h-3.9l-2.8,2.8H99.2z"/>
				<path class="st1" d="M154.5,86.8c0.9,2.6,1.8,4.4,5.3,7.8c3.4,3.4-7.2-1.6-7.2-1.6S153.6,84.2,154.5,86.8z"/>
				<path class="st1" d="M220.9,302.1c1.7,0,3-1.7,3-3.8s-1.4-3.8-3-3.8h-26v7.5H220.9L220.9,302.1L220.9,302.1z"/>
				<ellipse class="st0" cx="194.8" cy="298.4" rx="3" ry="3.8"/>
				<path class="st3" d="M192.5,300.6c0.2,0.2,0.3,0.4,0.6,0.7c0.5,0.4,1.3,0.8,2.3,0.9l-1.8,1.8c-0.8-0.3-1.4-0.6-1.9-1
					c-0.3-0.3-0.6-0.6-0.8-0.8L192.5,300.6L192.5,300.6z"/>
			</g>
			<g>
				<g>
					<defs>
						<rect id="SVGID_1_" x="105.2" y="145.1" width="8" height="8"/>
					</defs>
					<clipPath id="SVGID_00000124127867169890019880000011445143230963169976_">
						<use xlink:href="#SVGID_1_"  style="overflow:visible;"/>
					</clipPath>
					<path style="clip-path:url(#SVGID_00000124127867169890019880000011445143230963169976_);fill:#FFFFFF;" d="M108.3,148.1
						L108.3,148.1c0.1-1.3,0.2-2.3,0.2-2.3c0-0.4,0.3-0.7,0.7-0.7s0.7,0.3,0.7,0.7c0,0,0.2,1,0.2,2.3l0,0c0.3,0,0.5,0.1,0.7,0.1
						c0.9,0.1,1.6,0.2,1.6,0.2c0.4,0,0.7,0.3,0.7,0.7c0,0.4-0.3,0.7-0.7,0.7c0,0-0.7,0.1-1.6,0.2c-0.2,0-0.4,0.1-0.7,0.1
						c0,0.3-0.1,0.5-0.1,0.7c-0.1,0.9-0.2,1.6-0.2,1.6c0,0.4-0.3,0.7-0.7,0.7s-0.7-0.3-0.7-0.7c0,0-0.1-0.7-0.2-1.6
						c0-0.2-0.1-0.5-0.1-0.7l0,0c-1.3-0.1-2.3-0.2-2.3-0.2c-0.4,0-0.7-0.3-0.7-0.7c0-0.4,0.3-0.7,0.7-0.7
						C106,148.3,107,148.2,108.3,148.1L108.3,148.1L108.3,148.1z"/>
				</g>
			</g>
			<g>
				<g>
					<defs>
						<rect id="SVGID_00000160901395014481930250000009114115889097352332_" x="66.4" y="124.4" width="8" height="8"/>
					</defs>
					<clipPath id="SVGID_00000060735669477056994440000002108673216233283491_">
						<use xlink:href="#SVGID_00000160901395014481930250000009114115889097352332_"  style="overflow:visible;"/>
					</clipPath>
					<path style="clip-path:url(#SVGID_00000060735669477056994440000002108673216233283491_);fill:#FFFFFF;" d="M69.5,127.4
						L69.5,127.4c0.1-1.3,0.2-2.3,0.2-2.3c0-0.4,0.3-0.7,0.7-0.7s0.7,0.3,0.7,0.7c0,0,0.2,1,0.2,2.3l0,0c0.3,0,0.5,0.1,0.7,0.1
						c0.9,0.1,1.6,0.2,1.6,0.2c0.4,0,0.7,0.3,0.7,0.7c0,0.4-0.3,0.7-0.7,0.7c0,0-0.7,0.1-1.6,0.2c-0.2,0-0.4,0.1-0.7,0.1
						c0,0.3-0.1,0.5-0.1,0.7c-0.1,0.9-0.2,1.6-0.2,1.6c0,0.4-0.3,0.7-0.7,0.7s-0.7-0.3-0.7-0.7c0,0-0.1-0.7-0.2-1.6
						c0-0.2-0.1-0.5-0.1-0.7l0,0c-1.3-0.1-2.3-0.2-2.3-0.2c-0.4,0-0.7-0.3-0.7-0.7c0-0.4,0.3-0.7,0.7-0.7
						C67.2,127.6,68.2,127.5,69.5,127.4L69.5,127.4L69.5,127.4z"/>
				</g>
			</g>
			<g>
				<g>
					<defs>
						<rect id="SVGID_00000134247461770235383090000003722203207965776521_" x="80.8" y="190.3" width="3.7" height="3.7"/>
					</defs>
					<clipPath id="SVGID_00000127032779863939188440000001762261537911761582_">
						<use xlink:href="#SVGID_00000134247461770235383090000003722203207965776521_"  style="overflow:visible;"/>
					</clipPath>
					<path style="clip-path:url(#SVGID_00000127032779863939188440000001762261537911761582_);fill:#FFFFFF;" d="M81.8,191.3
						c0.1-0.2,0.1-0.3,0.1-0.3c0-0.4,0.3-0.7,0.7-0.7c0.4,0,0.7,0.3,0.7,0.7c0,0,0.1,0.1,0.1,0.3c0.2,0.1,0.3,0.1,0.3,0.1
						c0.4,0,0.7,0.3,0.7,0.7s-0.3,0.7-0.7,0.7c0,0-0.1,0.1-0.3,0.1c-0.1,0.2-0.1,0.3-0.1,0.3c0,0.4-0.3,0.7-0.7,0.7
						c-0.4,0-0.7-0.3-0.7-0.7c0,0-0.1-0.1-0.1-0.3c-0.2-0.1-0.3-0.1-0.3-0.1c-0.4,0-0.7-0.3-0.7-0.7s0.3-0.7,0.7-0.7
						C81.5,191.4,81.6,191.3,81.8,191.3z"/>
				</g>
			</g>
			<g>
				<g>
					<defs>
						<rect id="SVGID_00000033352460021923745180000010941641614080511403_" x="120.1" y="139.8" width="3.7" height="3.7"/>
					</defs>
					<clipPath id="SVGID_00000036968631876477385390000011258384846366870418_">
						<use xlink:href="#SVGID_00000033352460021923745180000010941641614080511403_"  style="overflow:visible;"/>
					</clipPath>
					<path style="clip-path:url(#SVGID_00000036968631876477385390000011258384846366870418_);fill:#FFFFFF;" d="M121.1,140.8
						c0.1-0.2,0.1-0.3,0.1-0.3c0-0.4,0.3-0.7,0.7-0.7c0.4,0,0.7,0.3,0.7,0.7c0,0,0.1,0.1,0.1,0.3c0.2,0.1,0.3,0.1,0.3,0.1
						c0.4,0,0.7,0.3,0.7,0.7s-0.3,0.7-0.7,0.7c0,0-0.1,0.1-0.3,0.1c-0.1,0.2-0.1,0.3-0.1,0.3c0,0.4-0.3,0.7-0.7,0.7
						c-0.4,0-0.7-0.3-0.7-0.7c0,0-0.1-0.1-0.1-0.3c-0.2-0.1-0.3-0.1-0.3-0.1c-0.4,0-0.7-0.3-0.7-0.7s0.3-0.7,0.7-0.7
						C120.9,140.9,121,140.8,121.1,140.8z"/>
				</g>
			</g>
			<g>
				<g>
					<defs>
						<rect id="SVGID_00000106841840297963066870000016535565035873602214_" x="72.8" y="141.9" width="5.3" height="5.3"/>
					</defs>
					<clipPath id="SVGID_00000041285246651643998110000010947749205134131616_">
						<use xlink:href="#SVGID_00000106841840297963066870000016535565035873602214_"  style="overflow:visible;"/>
					</clipPath>
					<path style="clip-path:url(#SVGID_00000041285246651643998110000010947749205134131616_);fill:#FFFFFF;" d="M74.6,143.7
						c0.1-0.6,0.2-1,0.2-1c0-0.4,0.3-0.7,0.7-0.7s0.7,0.3,0.7,0.7c0,0,0.1,0.4,0.2,1h0.1c0.6,0.1,1,0.2,1,0.2c0.4,0,0.7,0.3,0.7,0.7
						c0,0.4-0.3,0.7-0.7,0.7c0,0-0.4,0.1-1,0.2h-0.1v0.1c-0.1,0.6-0.2,1-0.2,1c0,0.4-0.3,0.7-0.7,0.7s-0.7-0.3-0.7-0.7
						c0,0-0.1-0.4-0.2-1v-0.1c-0.6-0.1-1-0.2-1-0.2c-0.4,0-0.7-0.3-0.7-0.7c0-0.4,0.3-0.7,0.7-0.7C73.5,143.9,74,143.8,74.6,143.7
						L74.6,143.7z"/>
				</g>
			</g>
			<g>
				<g>
					<defs>
						<rect id="SVGID_00000096739679847088804410000002494634076307055520_" x="114.3" y="127" width="5.8" height="5.8"/>
					</defs>
					<clipPath id="SVGID_00000174573675459402874210000001892082435693489329_">
						<use xlink:href="#SVGID_00000096739679847088804410000002494634076307055520_"  style="overflow:visible;"/>
					</clipPath>
					<path style="clip-path:url(#SVGID_00000174573675459402874210000001892082435693489329_);fill:#FFFFFF;" d="M116.2,129
						c0.1-0.6,0.2-1.1,0.2-1.1c0-0.5,0.3-0.8,0.8-0.8s0.8,0.3,0.8,0.8c0,0,0.1,0.5,0.2,1.1h0.1c0.6,0.1,1.1,0.2,1.1,0.2
						c0.5,0,0.8,0.3,0.8,0.8c0,0.5-0.3,0.8-0.8,0.8c0,0-0.5,0.1-1.1,0.2h-0.1v0.1c-0.1,0.6-0.2,1.1-0.2,1.1c0,0.5-0.3,0.8-0.8,0.8
						s-0.8-0.3-0.8-0.8c0,0-0.1-0.5-0.2-1.1v-0.1c-0.6-0.1-1.1-0.2-1.1-0.2c-0.5,0-0.8-0.3-0.8-0.8c0-0.5,0.3-0.8,0.8-0.8
						C115.1,129.2,115.5,129.1,116.2,129L116.2,129z"/>
				</g>
			</g>
			<g>
				<g>
					<defs>
						<rect id="SVGID_00000088103864491254956450000010977719151109237683_" x="57.9" y="157.3" width="8" height="8"/>
					</defs>
					<clipPath id="SVGID_00000101074645891908172050000000600844499599104916_">
						<use xlink:href="#SVGID_00000088103864491254956450000010977719151109237683_"  style="overflow:visible;"/>
					</clipPath>
					<path style="clip-path:url(#SVGID_00000101074645891908172050000000600844499599104916_);fill:#FFFFFF;" d="M61,160.4L61,160.4
						c0.1-1.3,0.2-2.3,0.2-2.3c0-0.4,0.3-0.7,0.7-0.7s0.7,0.3,0.7,0.7c0,0,0.2,1,0.2,2.3l0,0c0.3,0,0.5,0.1,0.7,0.1
						c0.9,0.1,1.6,0.2,1.6,0.2c0.4,0,0.7,0.3,0.7,0.7c0,0.4-0.3,0.7-0.7,0.7c0,0-0.7,0.1-1.6,0.2c-0.2,0-0.4,0.1-0.7,0.1
						c0,0.3-0.1,0.5-0.1,0.7c-0.1,0.9-0.2,1.6-0.2,1.6c0,0.4-0.3,0.7-0.7,0.7s-0.7-0.3-0.7-0.7c0,0-0.1-0.7-0.2-1.6
						c0-0.2-0.1-0.5-0.1-0.7l0,0c-1.3-0.1-2.3-0.2-2.3-0.2c-0.4,0-0.7-0.3-0.7-0.7c0-0.4,0.3-0.7,0.7-0.7
						C58.7,160.6,59.7,160.4,61,160.4L61,160.4L61,160.4z"/>
				</g>
			</g>
			<g>
				<g>
					<defs>
						<rect id="SVGID_00000011026025850145354320000011245808758029491351_" x="134.5" y="216.8" width="3.7" height="3.7"/>
					</defs>
					<clipPath id="SVGID_00000096034642471078580540000015506407495347350972_">
						<use xlink:href="#SVGID_00000011026025850145354320000011245808758029491351_"  style="overflow:visible;"/>
					</clipPath>
					<path style="clip-path:url(#SVGID_00000096034642471078580540000015506407495347350972_);fill:#FFFFFF;" d="M135.5,217.8
						c0.1-0.2,0.1-0.3,0.1-0.3c0-0.4,0.3-0.7,0.7-0.7c0.4,0,0.7,0.3,0.7,0.7c0,0,0.1,0.1,0.1,0.3c0.2,0.1,0.3,0.1,0.3,0.1
						c0.4,0,0.7,0.3,0.7,0.7s-0.3,0.7-0.7,0.7c0,0-0.1,0.1-0.3,0.1c-0.1,0.2-0.1,0.3-0.1,0.3c0,0.4-0.3,0.7-0.7,0.7
						c-0.4,0-0.7-0.3-0.7-0.7c0,0-0.1-0.1-0.1-0.3c-0.2-0.1-0.3-0.1-0.3-0.1c-0.4,0-0.7-0.3-0.7-0.7s0.3-0.7,0.7-0.7
						C135.2,217.9,135.3,217.9,135.5,217.8z"/>
				</g>
			</g>
			<g>
				<g>
					<defs>
						<rect id="SVGID_00000163063895307569129380000010863633760307350155_" x="125.4" y="246.1" width="3.7" height="3.7"/>
					</defs>
					<clipPath id="SVGID_00000169548062811843916410000006159722782044849321_">
						<use xlink:href="#SVGID_00000163063895307569129380000010863633760307350155_"  style="overflow:visible;"/>
					</clipPath>
					<path style="clip-path:url(#SVGID_00000169548062811843916410000006159722782044849321_);fill:#FFFFFF;" d="M128.1,247.1
						c-0.1-0.2-0.1-0.3-0.1-0.3c0-0.4-0.3-0.7-0.7-0.7c-0.4,0-0.7,0.3-0.7,0.7c0,0-0.1,0.1-0.1,0.3c-0.2,0.1-0.3,0.1-0.3,0.1
						c-0.4,0-0.7,0.3-0.7,0.7c0,0.4,0.3,0.7,0.7,0.7c0,0,0.1,0.1,0.3,0.1c0.1,0.2,0.1,0.3,0.1,0.3c0,0.4,0.3,0.7,0.7,0.7
						c0.4,0,0.7-0.3,0.7-0.7c0,0,0.1-0.1,0.1-0.3c0.2-0.1,0.3-0.1,0.3-0.1c0.4,0,0.7-0.3,0.7-0.7c0-0.4-0.3-0.7-0.7-0.7
						C128.4,247.2,128.3,247.1,128.1,247.1z"/>
				</g>
			</g>
			<g>
				<g>
					<defs>
						<rect id="SVGID_00000068662583201568246930000005234146810413279678_" x="105.8" y="228" width="8" height="8"/>
					</defs>
					<clipPath id="SVGID_00000136406708810162307070000008631103782392391563_">
						<use xlink:href="#SVGID_00000068662583201568246930000005234146810413279678_"  style="overflow:visible;"/>
					</clipPath>
					<path style="clip-path:url(#SVGID_00000136406708810162307070000008631103782392391563_);fill:#FFFFFF;" d="M108.8,231
						L108.8,231c0.1-1.3,0.2-2.3,0.2-2.3c0-0.4,0.3-0.7,0.7-0.7c0.4,0,0.7,0.3,0.7,0.7c0,0,0.2,1,0.2,2.3l0,0c0.3,0,0.5,0.1,0.7,0.1
						c0.9,0.1,1.6,0.2,1.6,0.2c0.4,0,0.7,0.3,0.7,0.7c0,0.4-0.3,0.7-0.7,0.7c0,0-0.7,0.1-1.6,0.2c-0.2,0-0.4,0.1-0.7,0.1
						c0,0.3-0.1,0.5-0.1,0.7c-0.1,0.9-0.2,1.6-0.2,1.6c0,0.4-0.3,0.7-0.7,0.7c-0.4,0-0.7-0.3-0.7-0.7c0,0-0.1-0.7-0.2-1.6
						c0-0.2-0.1-0.5-0.1-0.7l0,0c-1.3-0.1-2.3-0.2-2.3-0.2c-0.4,0-0.7-0.3-0.7-0.7c0-0.4,0.3-0.7,0.7-0.7
						C106.5,231.2,107.5,231.1,108.8,231L108.8,231L108.8,231z"/>
				</g>
			</g>
			<g>
				<g>
					<defs>
						<rect id="SVGID_00000035493091248300048240000001863263287114955963_" x="54.7" y="229.6" width="8" height="8"/>
					</defs>
					<clipPath id="SVGID_00000111180913162473796550000014561775814715440768_">
						<use xlink:href="#SVGID_00000035493091248300048240000001863263287114955963_"  style="overflow:visible;"/>
					</clipPath>
					<path style="clip-path:url(#SVGID_00000111180913162473796550000014561775814715440768_);fill:#FFFFFF;" d="M57.8,232.6
						L57.8,232.6c0.1-1.3,0.2-2.3,0.2-2.3c0-0.4,0.3-0.7,0.7-0.7s0.7,0.3,0.7,0.7c0,0,0.2,1,0.2,2.3l0,0c0.3,0,0.5,0.1,0.7,0.1
						c0.9,0.1,1.6,0.2,1.6,0.2c0.4,0,0.7,0.3,0.7,0.7c0,0.4-0.3,0.7-0.7,0.7c0,0-0.7,0.1-1.6,0.2c-0.2,0-0.4,0.1-0.7,0.1
						c0,0.3-0.1,0.5-0.1,0.7c-0.1,0.9-0.2,1.6-0.2,1.6c0,0.4-0.3,0.7-0.7,0.7s-0.7-0.3-0.7-0.7c0,0-0.1-0.7-0.2-1.6
						c0-0.2-0.1-0.5-0.1-0.7l0,0c-1.3-0.1-2.3-0.2-2.3-0.2c-0.4,0-0.7-0.3-0.7-0.7c0-0.4,0.3-0.7,0.7-0.7
						C55.5,232.8,56.5,232.7,57.8,232.6L57.8,232.6L57.8,232.6z"/>
				</g>
			</g>
			<g>
				<g>
					<defs>
						<rect id="SVGID_00000075149950234390391630000000567464828875161243_" x="56.9" y="205.7" width="3.7" height="3.7"/>
					</defs>
					<clipPath id="SVGID_00000002347011976159773980000015440008164795699112_">
						<use xlink:href="#SVGID_00000075149950234390391630000000567464828875161243_"  style="overflow:visible;"/>
					</clipPath>
					<path style="clip-path:url(#SVGID_00000002347011976159773980000015440008164795699112_);fill:#FFFFFF;" d="M57.9,206.7
						c0.1-0.2,0.1-0.3,0.1-0.3c0-0.4,0.3-0.7,0.7-0.7c0.4,0,0.7,0.3,0.7,0.7c0,0,0.1,0.1,0.1,0.3c0.2,0.1,0.3,0.1,0.3,0.1
						c0.4,0,0.7,0.3,0.7,0.7c0,0.4-0.3,0.7-0.7,0.7c0,0-0.1,0.1-0.3,0.1c-0.1,0.2-0.1,0.3-0.1,0.3c0,0.4-0.3,0.7-0.7,0.7
						c-0.4,0-0.7-0.3-0.7-0.7c0,0-0.1-0.1-0.1-0.3c-0.2-0.1-0.3-0.1-0.3-0.1c-0.4,0-0.7-0.3-0.7-0.7c0-0.4,0.3-0.7,0.7-0.7
						C57.6,206.8,57.7,206.7,57.9,206.7z"/>
				</g>
			</g>
			<g>
				<g>
					<defs>
						<rect id="SVGID_00000120557893925221026410000002146839753081407379_" x="70.7" y="166.9" width="52.6" height="86.1"/>
					</defs>
					<clipPath id="SVGID_00000031191065704063045050000017002568142164673703_">
						<use xlink:href="#SVGID_00000120557893925221026410000002146839753081407379_"  style="overflow:visible;"/>
					</clipPath>
					<path style="clip-path:url(#SVGID_00000031191065704063045050000017002568142164673703_);fill:#FB657C;" d="M123.3,195.9
						c0,2.2-0.4,4.6-1.1,7.2c-0.8,2.6-2,4.9-3.7,7.2c-1.7,2.2-4,4-6.7,5.5c-2.8,1.5-6.1,2.2-10.1,2.2H91.4c-1.6,0-2.9,1.3-2.9,2.9
						v8.3c0,1.6-1.3,2.9-2.9,2.9h-9.8c-1.6,0-2.9-1.3-2.9-2.9v-19c0-1.1,0.2-2.1,0.6-3c0.4-0.9,0.9-1.8,1.6-2.5
						c0.7-0.7,1.5-1.3,2.4-1.7c0.9-0.4,1.9-0.6,3-0.6h21c2,0,3.6-0.5,4.6-1.6c1.1-1,1.6-2.6,1.6-4.7v-7c0-2-0.5-3.6-1.5-4.7
						c-1-1.1-2.6-1.6-4.6-1.6H73.5c-1.6,0-2.9-1.3-2.9-2.9v-9.8c0-1.6,1.3-2.9,2.9-2.9h28.1c2.2,0,4.5,0.4,7.1,1.2
						c2.5,0.8,4.9,2,7,3.8c2.2,1.7,4,4,5.4,6.8c1.4,2.8,2.1,6.2,2.1,10.2L123.3,195.9L123.3,195.9z M88.3,245.2c0,1.1-0.2,2.1-0.6,3
						c-0.4,0.9-0.9,1.8-1.6,2.5c-0.7,0.7-1.5,1.3-2.4,1.7c-0.9,0.4-1.9,0.6-3,0.6c-1,0-2-0.2-2.9-0.6c-0.9-0.4-1.7-1-2.4-1.7
						c-0.7-0.7-1.2-1.5-1.7-2.5c-0.4-0.9-0.6-2-0.6-3c0-1,0.2-2,0.6-3c0.4-0.9,1-1.8,1.7-2.5c0.7-0.7,1.5-1.3,2.4-1.7
						c0.9-0.4,1.9-0.6,2.9-0.6c1.1,0,2.1,0.2,3,0.6c0.9,0.4,1.7,1,2.4,1.7c0.7,0.7,1.2,1.5,1.6,2.5
						C88.1,243.2,88.3,244.2,88.3,245.2z"/>
				</g>
			</g>
			<g>
				<g>
					<defs>
						<rect id="SVGID_00000007412594553995369610000000285798492391838366_" x="121.2" y="160.5" width="3.7" height="3.7"/>
					</defs>
					<clipPath id="SVGID_00000051361714947091772260000012404619737551904138_">
						<use xlink:href="#SVGID_00000007412594553995369610000000285798492391838366_"  style="overflow:visible;"/>
					</clipPath>
					<path style="clip-path:url(#SVGID_00000051361714947091772260000012404619737551904138_);fill:#FFFFFF;" d="M122.2,161.5
						c0.1-0.2,0.1-0.3,0.1-0.3c0-0.4,0.3-0.7,0.7-0.7c0.4,0,0.7,0.3,0.7,0.7c0,0,0.1,0.1,0.1,0.3c0.2,0.1,0.3,0.1,0.3,0.1
						c0.4,0,0.7,0.3,0.7,0.7c0,0.4-0.3,0.7-0.7,0.7c0,0-0.1,0.1-0.3,0.1c-0.1,0.2-0.1,0.3-0.1,0.3c0,0.4-0.3,0.7-0.7,0.7
						c-0.4,0-0.7-0.3-0.7-0.7c0,0-0.1-0.1-0.1-0.3c-0.2-0.1-0.3-0.1-0.3-0.1c-0.4,0-0.7-0.3-0.7-0.7c0-0.4,0.3-0.7,0.7-0.7
						C121.9,161.6,122,161.6,122.2,161.5z"/>
				</g>
			</g>
			<g>
				<g>
					<defs>
						<rect id="SVGID_00000145778220497254626860000002342967830549083311_" x="88.8" y="153.1" width="3.7" height="3.7"/>
					</defs>
					<clipPath id="SVGID_00000148661351387501961970000011212132715535711158_">
						<use xlink:href="#SVGID_00000145778220497254626860000002342967830549083311_"  style="overflow:visible;"/>
					</clipPath>
					<path style="clip-path:url(#SVGID_00000148661351387501961970000011212132715535711158_);fill:#FFFFFF;" d="M89.8,154.1
						c0.1-0.2,0.1-0.3,0.1-0.3c0-0.4,0.3-0.7,0.7-0.7c0.4,0,0.7,0.3,0.7,0.7c0,0,0.1,0.1,0.1,0.3c0.2,0.1,0.3,0.1,0.3,0.1
						c0.4,0,0.7,0.3,0.7,0.7s-0.3,0.7-0.7,0.7c0,0-0.1,0.1-0.3,0.1c-0.1,0.2-0.1,0.3-0.1,0.3c0,0.4-0.3,0.7-0.7,0.7
						c-0.4,0-0.7-0.3-0.7-0.7c0,0-0.1-0.1-0.1-0.3c-0.2-0.1-0.3-0.1-0.3-0.1c-0.4,0-0.7-0.3-0.7-0.7s0.3-0.7,0.7-0.7
						C89.5,154.2,89.6,154.1,89.8,154.1z"/>
				</g>
			</g>
		</g>
	</g>
	<g id="TEXTES_GB">
	</g>
</g>
</svg>
