<?xml version="1.0" encoding="utf-8"?>
<!-- Generator: Adobe Illustrator 27.0.1, SVG Export Plug-In . SVG Version: 6.00 Build 0)  -->
<svg version="1.1" id="Calque_1" xmlns="http://www.w3.org/2000/svg" xmlns:xlink="http://www.w3.org/1999/xlink" x="0px" y="0px"
	 viewBox="0 0 356 399" style="enable-background:new 0 0 356 399;" xml:space="preserve">
<style type="text/css">
	.st0{fill:none;stroke:#272F60;stroke-dasharray:2;}
	.st1{fill:#272F60;}
	.st2{fill:#007AFF;}
	.st3{fill:#FFFFFF;}
	.st4{font-family:'Montserrat-Bold';}
	.st5{font-size:20px;}
	.st6{fill:#FD657C;}
	.st7{font-size:15px;}
	.st8{enable-background:new    ;}
	.st9{clip-path:url(#SVGID_00000013188164858582844540000017312228462650253500_);}
	.st10{clip-path:url(#SVGID_00000087378509067035829110000012441143830112444063_);}
	.st11{fill:#FFBCC6;}
	.st12{clip-path:url(#SVGID_00000153700389644902004680000000352498411878548895_);}
	.st13{clip-path:url(#SVGID_00000012430166960758613690000005333728282340105875_);}
	.st14{clip-path:url(#SVGID_00000044136582050558267250000016926539100209980328_);}
	.st15{clip-path:url(#SVGID_00000044148236157235598060000012894549062497385610_);}
	.st16{clip-path:url(#SVGID_00000095314319782852292010000017832033392300580502_);}
	.st17{clip-path:url(#SVGID_00000132053892001810493920000005550800760637460612_);}
	.st18{display:none;}
</style>
<g id="FONDS">
</g>
<g id="ILLUSTRATIONS">
	<g>
		<line id="Ligne_128" class="st0" x1="115" y1="65" x2="115" y2="398"/>
		<line id="Ligne_129" class="st0" x1="239" y1="65" x2="239" y2="398"/>
		<g id="Groupe_2571" transform="translate(-48.5 -418)">
			<path id="Rectangle_632" class="st1" d="M374.5,433.5L374.5,433.5c0,8.6-6.9,15.5-15.5,15.5H93c-8.6,0-15.5-6.9-15.5-15.5l0,0
				c0-8.6,6.9-15.5,15.5-15.5h266C367.6,418,374.5,424.9,374.5,433.5z"/>
		</g>
		<g transform="matrix(1, 0, 0, 1, 24, 239)">
			<path class="st2" d="M0,80.9c-1.4,0-2.5-1.1-2.5-2.5s1.1-2.5,2.5-2.5c33.9,0,65.1-9,92.7-26.7c28.7-18.4,46.1-41.5,55.6-57.6
				C159-26.3,177.5-52,205.1-72.8c29-21.8,60.9-32.9,94.9-32.9c1.4,0,2.5,1.1,2.5,2.5s-1.1,2.5-2.5,2.5c-27.4,0-96.5,9.2-147.3,94.8
				c-9.8,16.6-27.8,40.3-57.2,59.2C67,71.6,34.9,80.9,0,80.9z"/>
		</g>
		<g id="Groupe_2567" transform="translate(-182 -133.537)">
			<path id="Rectangle_632-2" class="st1" d="M268,455.5L268,455.5c0,8.6-6.9,15.5-15.5,15.5h-55c-8.6,0-15.5-6.9-15.5-15.5l0,0
				c0-8.6,6.9-15.5,15.5-15.5h55C261.1,440,268,446.9,268,455.5z"/>
			<text id="educ_start_time" transform="matrix(1 0 0 1 191.6 463)" class="st3 st4 st5">15 min</text>
		</g>
		<g id="Groupe_2570" transform="translate(88 -321)">
			<path id="Rectangle_632-3" class="st1" d="M268,455.5L268,455.5c0,8.6-6.9,15.5-15.5,15.5h-55c-8.6,0-15.5-6.9-15.5-15.5l0,0
				c0-8.6,6.9-15.5,15.5-15.5h55C261.1,440,268,446.9,268,455.5z"/>
			<text id="educ_year_time" transform="matrix(1 0 0 1 196.1132 463)" class="st3 st4 st5">200 h</text>
		</g>
		<g id="Groupe_2575" transform="translate(0 -64.933)">
			<g id="Groupe_2573" transform="translate(112 451.958)">
				<g>
					<g id="Groupe_2572">
						<path id="Tracé_7698" class="st6" d="M41-204.9c0,3.1-3.8,5.5-4.7,8.3c-0.9,2.9,0.8,7-0.9,9.5c-1.7,2.4-6.2,2.4-8.5,4.4
							c-2.2,1.9-2.9,6.4-5.6,7.7c-2.6,1.3-6.6-0.9-9.5-0.2c-2.8,0.6-5.4,4.3-8.5,4.3s-5.7-3.7-8.5-4.3c-3-0.7-6.9,1.5-9.5,0.2
							c-2.7-1.3-3.4-5.8-5.6-7.7c-2.3-2-6.8-2-8.5-4.4c-1.7-2.5,0-6.6-0.9-9.5c-0.9-2.8-4.7-5.2-4.7-8.3s3.8-5.5,4.7-8.3
							c0.9-2.9-0.8-7,0.9-9.5c1.7-2.4,6.2-2.4,8.5-4.4c2.2-1.9,2.9-6.4,5.6-7.7c2.6-1.3,6.6,0.9,9.5,0.2c2.8-0.6,5.4-4.3,8.5-4.3
							s5.7,3.7,8.5,4.3c3,0.7,6.9-1.5,9.5-0.2c2.7,1.3,3.4,5.8,5.6,7.7c2.3,2,6.8,2,8.5,4.4c1.7,2.5,0,6.6,0.9,9.5
							C37.2-210.4,41-208,41-204.9z"/>
					</g>
				</g>
			</g>
		</g>
		<g id="Groupe_2569" transform="translate(-6 -285.458)">
			<path id="Rectangle_632-4" class="st1" d="M278.1,452.5L278.1,452.5c0,6.4-5.1,11.5-11.5,11.5h-47.1c-6.4,0-11.5-5.1-11.5-11.5
				l0,0c0-6.4,5.1-11.5,11.5-11.5h47.1C272.9,441,278.1,446.1,278.1,452.5z"/>
			<text id="educ_language_time" transform="matrix(1 0 0 1 226.9199 458)" class="st3 st4 st7">120 h</text>
		</g>
		<g id="Groupe_2596" transform="translate(-130 -161.458)">
			<path id="Rectangle_632-5" class="st1" d="M278.1,452.5L278.1,452.5c0,6.4-5.1,11.5-11.5,11.5h-47.1c-6.4,0-11.5-5.1-11.5-11.5
				l0,0c0-6.4,5.1-11.5,11.5-11.5h47.1C272.9,441,278.1,446.1,278.1,452.5z"/>
			<g class="st8">
				<path class="st3" d="M233.4,454.7c0,1.9-1.4,3.5-4.4,3.5c-1.5,0-3-0.4-4-1.1l1-1.9c0.8,0.6,1.9,0.9,3,0.9c1.2,0,2-0.5,2-1.4
					c0-0.8-0.5-1.4-2.4-1.4h-2.7l0.5-5.9h6.4v2h-4.4l-0.2,2h0.9C232.2,451.4,233.4,452.8,233.4,454.7z"/>
				<path class="st3" d="M234.4,452.8c0-3.5,1.9-5.4,4.5-5.4s4.5,2,4.5,5.4s-1.9,5.4-4.5,5.4C236.3,458.2,234.4,456.2,234.4,452.8z
					 M241,452.8c0-2.4-0.8-3.4-2.1-3.4c-1.2,0-2,1-2,3.4s0.8,3.4,2,3.4C240.1,456.1,241,455.1,241,452.8z"/>
				<path class="st3" d="M257.6,453.4v4.6h-2.3v-4.3c0-1.3-0.6-1.9-1.6-1.9c-1.1,0-1.9,0.7-1.9,2.2v4h-2.3v-11.1h2.3v3.9
					c0.6-0.6,1.5-1,2.6-1C256.2,449.8,257.6,450.9,257.6,453.4z"/>
			</g>
		</g>
		<g id="Groupe_2576" transform="translate(-22 10.416)">
			<g id="Groupe_2574" transform="translate(257 429.084)">
				<g>
					<g id="Groupe_2572-2">
						<path id="Tracé_7698-2" class="st6" d="M41-204.9c0,3.1-3.8,5.5-4.7,8.3c-0.9,2.9,0.8,7-0.9,9.5c-1.7,2.4-6.2,2.4-8.5,4.4
							c-2.2,1.9-2.9,6.4-5.6,7.7c-2.6,1.3-6.6-0.9-9.5-0.2c-2.8,0.6-5.4,4.3-8.5,4.3s-5.7-3.7-8.5-4.3c-3-0.7-6.9,1.5-9.5,0.2
							c-2.7-1.3-3.4-5.8-5.6-7.7c-2.3-2-6.8-2-8.5-4.4c-1.7-2.5,0-6.6-0.9-9.5c-0.9-2.8-4.7-5.2-4.7-8.3s3.8-5.5,4.7-8.3
							c0.9-2.9-0.8-7,0.9-9.5c1.7-2.4,6.2-2.4,8.5-4.4c2.2-1.9,2.9-6.4,5.6-7.7c2.6-1.3,6.6,0.9,9.5,0.2c2.8-0.6,5.4-4.3,8.5-4.3
							s5.7,3.7,8.5,4.3c3,0.7,6.9-1.5,9.5-0.2c2.7,1.3,3.4,5.8,5.6,7.7c2.3,2,6.8,2,8.5,4.4c1.7,2.5,0,6.6,0.9,9.5
							C37.2-210.4,41-208,41-204.9z"/>
					</g>
				</g>
			</g>
		</g>
		<g id="Groupe_2592" transform="translate(293.64 506.463)">
			<g id="Groupe_2579" transform="translate(19.623 126.973)">
				<g>
					<g>
						<g>
							<defs>
								<rect id="SVGID_1_" x="-37" y="-261" width="45.7" height="0.8"/>
							</defs>
							<clipPath id="SVGID_00000141421219578308802960000007020328543476798610_">
								<use xlink:href="#SVGID_1_"  style="overflow:visible;"/>
							</clipPath>
							<g id="Groupe_2578" style="clip-path:url(#SVGID_00000141421219578308802960000007020328543476798610_);">
								<path id="Tracé_7699" class="st1" d="M-36.4-260.2H8.2c0.3,0,0.6-0.2,0.6-0.4S8.5-261,8.2-261h-44.6
									c-0.3,0-0.6,0.2-0.6,0.4S-36.7-260.2-36.4-260.2"/>
							</g>
						</g>
					</g>
				</g>
			</g>
			<g id="Groupe_2581" transform="translate(69.084 71.419)">
				<g>
					<g>
						<g>
							<defs>
								
									<rect id="SVGID_00000116208518245574418270000000029595935029033354_" x="-35.4" y="-257.3" transform="matrix(0.9115 -0.4114 0.4114 0.9115 101.1439 -32.5933)" width="20.5" height="12.1"/>
							</defs>
							<clipPath id="SVGID_00000173156752876408603020000009428377759533431434_">
								<use xlink:href="#SVGID_00000116208518245574418270000000029595935029033354_"  style="overflow:visible;"/>
							</clipPath>
							
								<g id="Groupe_2580" transform="translate(0 0)" style="clip-path:url(#SVGID_00000173156752876408603020000009428377759533431434_);">
								<path id="Tracé_7700" class="st1" d="M-36.3-251l3.6,7.9c0.4,0.9,1.4,1.3,2.3,0.9l0,0l15.4-7c0.9-0.4,1.3-1.4,0.9-2.3
									l-3.6-7.9c-0.4-0.9-1.4-1.3-2.3-0.9l-15.4,7C-36.3-252.9-36.7-251.9-36.3-251"/>
								<path id="Tracé_7701" class="st6" d="M-20.8-253.8l2.1-1c0.3-0.1,0.4-0.4,0.3-0.7l-0.5-1.1c-0.1-0.3-0.4-0.4-0.7-0.3l0,0
									l-2.1,1c-0.3,0.1-0.4,0.4-0.3,0.7l0.5,1.1C-21.4-253.8-21-253.7-20.8-253.8L-20.8-253.8"/>
								<path id="Tracé_7702" class="st11" d="M-21.1-250.4l3.8-1.7c0.2-0.1,0.3-0.3,0.2-0.5l0,0l-0.1-0.1
									c-0.1-0.2-0.3-0.3-0.5-0.2l-3.8,1.7c-0.2,0.1-0.3,0.3-0.2,0.5l0,0l0.1,0.1C-21.4-250.4-21.2-250.4-21.1-250.4L-21.1-250.4"
									/>
								<path id="Tracé_7703" class="st11" d="M-31.1-245.9l3.8-1.7c0.2-0.1,0.3-0.3,0.2-0.5l0,0l-0.1-0.1
									c-0.1-0.2-0.3-0.3-0.5-0.2l-3.8,1.7c-0.2,0.1-0.3,0.3-0.2,0.5l0,0l0.1,0.1C-31.5-245.9-31.3-245.8-31.1-245.9L-31.1-245.9"
									/>
								<path id="Tracé_7704" class="st11" d="M-26.1-248.2l3.8-1.7c0.2-0.1,0.3-0.3,0.2-0.5l0,0l-0.1-0.1
									c-0.1-0.2-0.3-0.3-0.5-0.2l-3.8,1.7c-0.2,0.1-0.3,0.3-0.2,0.5l0,0l0.1,0.1C-26.5-248.2-26.3-248.1-26.1-248.2L-26.1-248.2"
									/>
								<path id="Tracé_7705" class="st3" d="M-32-250.5L-32-250.5c0.1-0.1,0-0.2,0-0.2l0,0c-0.3,0-0.5-0.2-0.5-0.5
									c0-0.1,0-0.2,0.1-0.3v-0.1l0,0h-0.1c-0.2,0.3-0.2,0.7,0.1,0.9C-32.4-250.5-32.2-250.5-32-250.5
									C-32.1-250.5-32-250.5-32-250.5"/>
								<path id="Tracé_7706" class="st3" d="M-32.4-249.5C-32.3-249.5-32.3-249.5-32.4-249.5c0.1-0.1,0-0.2,0-0.2l0,0
									c-0.8-0.2-1.4-1-1.2-1.8c0-0.2,0.1-0.3,0.2-0.5v-0.1l0,0h-0.1c-0.5,0.8-0.2,1.9,0.6,2.3C-32.8-249.6-32.6-249.5-32.4-249.5
									L-32.4-249.5"/>
								<path id="Tracé_7707" class="st3" d="M-32.2-250C-32.2-250-32.1-250-32.2-250c0.1-0.1,0-0.2,0-0.2l0,0
									c-0.5-0.1-0.9-0.6-0.8-1.1c0-0.1,0.1-0.3,0.2-0.4v-0.1l0,0h-0.1c-0.4,0.5-0.2,1.2,0.3,1.6C-32.6-250.1-32.4-250-32.2-250
									L-32.2-250"/>
							</g>
						</g>
					</g>
				</g>
			</g>
			<g id="Groupe_2583" transform="translate(0 8.071)">
				<g>
					<g id="Groupe_2582">
						<path id="Tracé_7708" class="st6" d="M-28.2-246.2c0.1,0.1,0.2,0.1,0.3,0c1.7-1.1,2.2-3.7,2.3-5.1c0.1-1.4,0.2-4.1-0.8-4.5
							c-0.8-0.3-1.4,0.7-1.7,2.1c0,0.2-0.2,0.3-0.4,0.3c-0.1,0-0.2-0.1-0.2-0.2c-0.8-2.3-2.3-7.4-4.5-7.3c-1.6,0.1-3.5,3.5-3.8,5.4
							c-0.3,2,3.1,7.5,5.4,8.9C-31.5-246.7-28.2-246.2-28.2-246.2"/>
						<path id="Tracé_7709" class="st6" d="M38.5-199.9c-0.1,0-0.2,0-0.3,0.1c-1.5,1.4-1.5,4.1-1.3,5.5s0.3,4,1.7,4.3
							c0.8,0.2,1.2-1,1.3-2.4c0-0.3,0.4-0.4,0.6-0.2c1.6,1.7,0.4,4.5,1.7,5.5c1.5,1.2,5.1-4.4,4.8-6.5c-0.4-1.8-1.3-3.3-2.6-4.6
							c-1-1-2.4-1.7-3.8-2L38.5-199.9z"/>
						<path id="Tracé_7710" class="st1" d="M12.2-164.3c0,0,3.7,3.6,4.9,6.8c0.9,2.4,0,4.8-1,6.4c-0.3,0.5-0.8,0.8-1.4,0.8
							c-0.5,0-1.1-0.2-1.4-0.7l-5.7-7.8c-0.5-0.7-0.4-1.8,0.4-2.3C9.7-162.5,12.2-164.3,12.2-164.3"/>
						<path id="Tracé_7711" class="st1" d="M5.9-155.5c0,0-4.3,2.7-6.2,5.5c-1.4,2.1-1,4.7-0.4,6.4c0.2,0.5,0.6,0.9,1.2,1
							c0.5,0.1,1.1,0,1.5-0.4l7.2-6.4c0.7-0.6,0.7-1.7,0.1-2.4C8-153.2,5.9-155.5,5.9-155.5"/>
						<path id="Tracé_7712" class="st11" d="M27.8-176.9c-0.2-4.5-3.5-10.5-7.6-13.3c-10.3-6.9-17.1-7.2-17.1-7.2l-13.7,0.6
							c-1.1,2.9-1.8,5.8-2.4,8.8c-1.5,9.4-1.4,13.5-0.3,18c2.2,9.4,9.4,17.8,11.7,20.3c0.4,0.5,1.1,0.5,1.6,0.1l6.1-4.8
							c0.5-0.4,0.6-1.2,0.2-1.7l0,0c-1.8-2.2-6.3-8.3-8.2-15.4c-0.9-3.9-0.7-8,0.4-11.8c0.2-0.6,0.7-1.1,1.4-1.1l6.5-0.3
							c0.6,0,1.2,0.1,1.7,0.4c3.3,1.7,8.9,5.2,9,9.4c0.2,4.7-3.5,8.3-5.3,9.8c-0.5,0.4-0.6,1.1-0.2,1.7l4.6,5.8
							c0.4,0.5,1,0.5,1.5,0.2c0,0,0,0,0.1,0C20.4-159.8,28.2-167.6,27.8-176.9"/>
						<path id="Tracé_7713" class="st1" d="M9-192c0.7,0.6,1.4,1.1,2.2,1.5s1.6,0.6,2.5,0.7c0.5,0,1,0,1.5-0.1
							c1.2-0.2,2.3-0.8,3.2-1.6c0.2-0.2,0.5-0.2,0.7,0s0.2,0.5,0,0.7l0,0c-1,1-2.3,1.8-3.6,2.1c-0.6,0.2-1.2,0.2-1.9,0.1
							c-1-0.1-2-0.4-2.9-0.9s-1.7-1.1-2.4-1.8c-0.2-0.2-0.2-0.5,0-0.7C8.5-192.1,8.8-192.1,9-192"/>
						<path id="Tracé_7714" class="st1" d="M-5.4-191.7c-0.2,0.9-0.6,1.7-1.1,2.4s-1,1.4-1.7,1.9c-0.4,0.3-0.8,0.6-1.3,0.8
							c-1.1,0.5-2.4,0.6-3.6,0.4c-0.3,0-0.5,0.1-0.5,0.4c0,0.3,0.1,0.5,0.4,0.5c1.4,0.3,2.8,0.3,4.2-0.2c0.6-0.2,1.2-0.5,1.6-0.9
							c0.8-0.6,1.5-1.4,1.9-2.3c0.5-0.9,0.8-1.8,1-2.8c0.1-0.3-0.1-0.5-0.4-0.5S-5.4-192-5.4-191.7"/>
						<path id="Tracé_7715" class="st1" d="M6.9-185c-0.3-0.2-0.7-0.4-1-0.6c-0.8-0.5-1.7-0.8-2.6-1.2c-0.3-0.1-0.6,0.1-0.7,0.3
							l0,0c-0.1,0.2-0.1,0.6,0.2,0.7c0,0,0.9,0.5,2,1.2l2.6-0.1l0,0C7.2-184.7,7-184.8,6.9-185"/>
						<path id="Tracé_7716" class="st1" d="M-4.8-183.9c-0.1,0.3-0.2,0.6-0.3,1c-0.1,0.3,0.1,0.5,0.4,0.6l0,0
							c0.3,0.1,0.5-0.1,0.6-0.3c0.1-0.3,0.2-0.6,0.3-0.9c0.1-0.3-0.1-0.5-0.3-0.6C-4.4-184.3-4.7-184.2-4.8-183.9L-4.8-183.9"/>
						<path id="Tracé_7717" class="st1" d="M-5.5-181l-0.1,1c0,0.3,0.2,0.5,0.4,0.5l0,0c0.3,0,0.5-0.2,0.6-0.4l0.1-0.9
							c0-0.3-0.2-0.5-0.5-0.5C-5.2-181.4-5.4-181.2-5.5-181"/>
						<path id="Tracé_7718" class="st1" d="M-5.8-178c0,0.3,0,0.7,0,1s0.2,0.5,0.5,0.5s0.5-0.2,0.5-0.5s0-0.6,0-1
							c0-0.3-0.2-0.5-0.5-0.5C-5.6-178.5-5.8-178.3-5.8-178L-5.8-178"/>
						<path id="Tracé_7719" class="st1" d="M-5.8-175v0.5l0.1,0.5c0,0.3,0.3,0.5,0.6,0.4c0.3,0,0.4-0.3,0.4-0.5v-0.5v-0.5
							c0-0.3-0.3-0.5-0.5-0.5C-5.6-175.5-5.8-175.3-5.8-175L-5.8-175"/>
						<path id="Tracé_7720" class="st1" d="M-5.5-172c0.1,0.3,0.1,0.7,0.2,1s0.3,0.4,0.6,0.4l0,0c0.3-0.1,0.4-0.3,0.4-0.6l0,0
							c-0.1-0.3-0.1-0.6-0.2-0.9c-0.1-0.3-0.3-0.4-0.6-0.4C-5.3-172.6-5.5-172.3-5.5-172L-5.5-172"/>
						<path id="Tracé_7721" class="st1" d="M-4.8-169.1c0.1,0.3,0.2,0.6,0.3,1c0.1,0.3,0.4,0.4,0.6,0.3l0,0
							c0.3-0.1,0.4-0.4,0.3-0.6c-0.1-0.3-0.2-0.6-0.3-0.9c-0.1-0.3-0.4-0.4-0.6-0.3C-4.7-169.7-4.9-169.4-4.8-169.1L-4.8-169.1"/>
						<path id="Tracé_7722" class="st1" d="M-3.8-166.3c0.1,0.3,0.3,0.6,0.4,0.9c0.1,0.2,0.4,0.4,0.7,0.2l0,0
							c0.3-0.1,0.4-0.4,0.3-0.7c-0.1-0.3-0.3-0.6-0.4-0.9c-0.1-0.3-0.4-0.4-0.7-0.3S-3.9-166.5-3.8-166.3"/>
						<path id="Tracé_7723" class="st1" d="M-2.6-163.6c0.1,0.3,0.3,0.6,0.5,0.9c0.1,0.2,0.4,0.3,0.7,0.2l0,0
							c0.2-0.1,0.3-0.4,0.2-0.7c-0.2-0.3-0.3-0.6-0.4-0.9c-0.1-0.2-0.4-0.3-0.7-0.2S-2.7-163.9-2.6-163.6L-2.6-163.6"/>
						<path id="Tracé_7724" class="st1" d="M-1.1-161l0.5,0.8c0.2,0.2,0.5,0.3,0.7,0.1c0.2-0.1,0.3-0.4,0.2-0.7l-0.5-0.8
							c-0.2-0.2-0.5-0.3-0.7-0.2C-1.2-161.5-1.3-161.2-1.1-161"/>
						<path id="Tracé_7725" class="st1" d="M0.4-158.5c0.2,0.3,0.4,0.6,0.6,0.8s0.5,0.3,0.7,0.1s0.3-0.5,0.1-0.7
							c-0.2-0.3-0.4-0.5-0.5-0.8c-0.2-0.2-0.5-0.3-0.7-0.1C0.3-159,0.3-158.7,0.4-158.5L0.4-158.5"/>
						<path id="Tracé_7726" class="st1" d="M2.1-156.1l0.6,0.8c0.2,0.2,0.5,0.2,0.7,0.1l0,0c0.2-0.2,0.3-0.5,0.1-0.7l0,0l-0.6-0.8
							c-0.2-0.2-0.5-0.3-0.7-0.1C2-156.6,1.9-156.3,2.1-156.1L2.1-156.1"/>
						<path id="Tracé_7727" class="st1" d="M11.9-184.7c0.3,0.2,0.6,0.3,0.9,0.5c0.2,0.1,0.6,0.1,0.7-0.2c0.1-0.2,0.1-0.5-0.2-0.7
							l0,0c-0.3-0.2-0.6-0.3-0.9-0.5c-0.2-0.1-0.5,0-0.7,0.2l0,0C11.5-185.1,11.6-184.8,11.9-184.7"/>
						<path id="Tracé_7728" class="st1" d="M14.4-183.1c0.3,0.2,0.5,0.4,0.8,0.6c0.2,0.2,0.5,0.1,0.7-0.1c0.2-0.2,0.2-0.5,0-0.7
							l0,0c-0.3-0.2-0.5-0.4-0.8-0.6c-0.2-0.2-0.5-0.1-0.7,0.1l0,0C14.1-183.6,14.2-183.2,14.4-183.1"/>
						<path id="Tracé_7729" class="st1" d="M16.6-181.1c0.2,0.2,0.4,0.5,0.6,0.7s0.5,0.2,0.7,0.1c0.2-0.2,0.3-0.5,0.1-0.7l0,0
							c-0.2-0.3-0.5-0.5-0.7-0.8c-0.2-0.2-0.5-0.2-0.7,0l0,0C16.5-181.6,16.5-181.3,16.6-181.1"/>
						<path id="Tracé_7730" class="st1" d="M18.4-178.8l0.2,0.4l0.2,0.4c0.1,0.3,0.4,0.4,0.6,0.3c0.3-0.1,0.4-0.4,0.3-0.6l0,0
							l-0.2-0.5l-0.2-0.5c-0.1-0.2-0.4-0.3-0.7-0.2l0,0C18.3-179.3,18.2-179,18.4-178.8"/>
						<path id="Tracé_7731" class="st1" d="M19.3-176c0.1,0.3,0.1,0.6,0.1,1c0,0.1,0.1,0.2,0.2,0.3s0.2,0.1,0.4,0.1
							c0.1,0,0.3-0.1,0.4-0.2c0.1-0.1,0.1-0.2,0.1-0.4c0-0.4-0.1-0.7-0.1-1.1c0-0.3-0.3-0.5-0.5-0.5s-0.5,0.3-0.5,0.5
							C19.3-176.1,19.3-176.1,19.3-176"/>
						<path id="Tracé_7732" class="st1" d="M19.3-173.1c0,0.3-0.1,0.6-0.2,1c-0.1,0.3,0.1,0.5,0.4,0.6s0.5-0.1,0.6-0.4l0,0
							c0.1-0.4,0.1-0.7,0.2-1.1c0-0.3-0.2-0.5-0.4-0.6S19.3-173.4,19.3-173.1"/>
						<path id="Tracé_7733" class="st1" d="M18.6-170.3c-0.1,0.3-0.3,0.6-0.4,0.9c-0.1,0.2-0.1,0.6,0.2,0.7
							c0.2,0.1,0.6,0.1,0.7-0.2l0,0c0.1-0.3,0.3-0.6,0.4-1c0.1-0.3,0-0.6-0.3-0.7C19-170.7,18.7-170.6,18.6-170.3L18.6-170.3"/>
						<path id="Tracé_7734" class="st1" d="M17.2-167.7c-0.2,0.3-0.4,0.5-0.6,0.8c-0.2,0.2-0.2,0.5,0,0.7s0.5,0.2,0.7,0l0,0
							c0.2-0.3,0.4-0.6,0.6-0.8s0.1-0.6-0.1-0.7l0,0C17.6-168,17.3-167.9,17.2-167.7L17.2-167.7"/>
						<path id="Tracé_7735" class="st1" d="M15.3-165.4c-0.2,0.2-0.5,0.5-0.7,0.7s-0.2,0.5,0,0.7s0.5,0.2,0.7,0.1l0,0
							c0.3-0.2,0.5-0.5,0.8-0.7c0.2-0.2,0.2-0.5,0-0.7l0,0C15.8-165.6,15.5-165.6,15.3-165.4"/>
						<path id="Tracé_7736" class="st1" d="M42.9-202.6c-3.4-10.2-11.7-18.2-22.1-22.5c-3.2-1.3-6.4-2.2-9.8-2.8l0,0
							c-4.2-0.8-8.5-1.4-12.8-1.6c-4.9-0.1-9.6-1.7-13.5-4.7c-1.7-1.4-3.1-3-4.2-4.8c-3.3-5.4-4.2-7.9-4.7-9.6
							c-0.5-1.5-0.9-1.6-2.3-1.2c-1.9,0.6-3.7,1.3-5.5,2.2c-1.2,0.7-0.9,1.5-0.6,3.3c0.3,1.8,3.8,18.5,18.9,26.4
							c-0.1,1.1-0.2,2.3-0.3,3.6c-0.4,7-0.2,14.1,0.5,21.1c0.1,0.9,0.8,1.6,1.7,1.7c4.3,0.5,16.5,1.8,27.5-1.3
							c0.8-0.3,1.2-1.1,1.1-1.9c-0.3-5.9-0.1-11.8,0.5-17.7c3.5,0.5,6.9,1.9,9.7,4.1c5,3.7,6.5,7,8.4,10.1c0.8,1.3,1.9,1.7,3.7,1
							c1-0.3,1.9-0.8,2.8-1.3C43.9-199.6,43.3-201.2,42.9-202.6"/>
						<path id="Tracé_7737" class="st3" d="M17.1-216.5c0,0-0.1,0.4-0.2,1.1c0,0.3-0.1,0.7-0.1,1.1c0,0.2,0,0.4,0,0.6
							c0,0.4,0,0.8,0.1,1.1s0.1,0.5,0.1,0.5c0,0.2,0.2,0.2,0.5,0.2s0.4-0.2,0.4-0.3c0,0,0-0.2,0-0.4s0.1-0.6,0.1-1
							c0-0.2,0.1-0.4,0.1-0.6c0-0.4,0-0.7,0.1-1c0-0.6,0-1,0-1c0-0.1-0.2-0.3-0.4-0.3C17.3-216.7,17.1-216.6,17.1-216.5"/>
						<path id="Tracé_7738" class="st3" d="M-12.6-222.7c-0.6,0.7-1,1.4-1.4,2.2c-0.1,0.2-0.2,0.5-0.3,0.8
							c-0.1,0.4-0.2,0.9-0.3,1.3c0,0.3-0.1,0.6-0.1,0.6c0,0.2,0.2,0.3,0.4,0.4c0.3,0,0.5-0.1,0.5-0.2c0,0,0-0.2,0.1-0.5
							c0.1-0.4,0.3-0.7,0.4-1.1c0.1-0.2,0.2-0.4,0.3-0.7c0.2-0.4,0.3-0.8,0.5-1.1c0.3-0.6,0.6-1.1,0.6-1.1c0.1-0.1,0-0.4-0.2-0.5
							C-12.2-222.8-12.5-222.8-12.6-222.7"/>
						<path id="Tracé_7739" class="st11" d="M30.7-209.7c1.3-0.9,2.3-2.2,2.8-3.7c0.4-0.9,0.6-1.9,0.6-2.9
							c-0.5-0.6-1.1-1.1-1.7-1.5c0,0.1,0,0.1,0,0.2c0.4,2.5-0.6,5.1-2.6,6.7c-1.1,0.8-2,1.9-2.6,3.1c0.4,0.3,0.8,0.7,1.2,1
							C29-208,29.7-209,30.7-209.7"/>
						<path id="Tracé_7740" class="st11" d="M24.1-210c0.3-0.6,0.8-1.1,1.4-1.4c2.8-2.1,4.1-5.5,3.5-9c0-0.1,0-0.2-0.1-0.3
							c-0.8-0.6-1.6-1.1-2.5-1.6c-0.1,0.9-0.1,1.7,0.1,2.6c0.2,1.1,0.1,2.3-0.4,3.4c-0.4,1.1-1.1,2-2,2.7c-1,0.6-1.7,1.5-2.3,2.5
							C22.5-210.8,23.3-210.5,24.1-210"/>
						<path id="Tracé_7741" class="st11" d="M-16.7-235.5c-0.8,0.6-1.5,1.2-2,2c-1.1,1.3-1.7,3-1.8,4.7c-0.1,1.1-0.5,2.2-1.2,3.1
							c-0.3,0.3-0.5,0.7-0.9,1c0.6,0.6,1.1,1.2,1.8,1.8c0.4-0.4,0.8-0.8,1.1-1.2c1-1.3,1.7-3,1.8-4.7c0.1-1.1,0.5-2.2,1.2-3.1
							c0.5-0.7,1.2-1.3,2-1.8c-0.2-0.1-0.4-0.3-0.6-0.5C-15.8-234.6-16.3-235-16.7-235.5"/>
						<path id="Tracé_7742" class="st11" d="M-26.1-229c0.3,0.4,0.6,0.8,0.9,1.3c0.1-0.1,0.2-0.2,0.2-0.3c1-1.3,1.6-2.8,1.6-4.4
							c0.3-2.6,1.9-4.8,4.3-5.7h0.1c-0.2-0.3-0.4-0.6-0.5-0.8l0,0l0,0c-0.1-0.1-0.2-0.3-0.3-0.4c-1.4,0.6-2.5,1.5-3.4,2.7
							c-1,1.3-1.6,2.8-1.6,4.4C-24.9-231.2-25.4-230-26.1-229"/>
					</g>
				</g>
			</g>
			<g id="Groupe_2585" transform="translate(73.63 75.902)">
				<g>
					<g>
						<g>
							<defs>
								
									<rect id="SVGID_00000078024340358538165070000004425309716205895331_" x="-36.6" y="-260.4" transform="matrix(0.9179 -0.3969 0.3969 0.9179 99.9694 -35.0541)" width="3.8" height="2.7"/>
							</defs>
							<clipPath id="SVGID_00000033359794145756022590000012287805500821570452_">
								<use xlink:href="#SVGID_00000078024340358538165070000004425309716205895331_"  style="overflow:visible;"/>
							</clipPath>
							
								<g id="Groupe_2584" transform="translate(0 0)" style="clip-path:url(#SVGID_00000033359794145756022590000012287805500821570452_);">
								<path id="Tracé_7743" class="st1" d="M-35.5-260.8c-0.8,0.3-1.1,1.2-0.8,2s1.2,1.1,2,0.8c0.8-0.3,1.1-1.2,0.8-2l0,0
									C-33.8-260.8-34.7-261.1-35.5-260.8"/>
								<path id="Tracé_7744" class="st1" d="M-35.6-261.2c1-0.4,2.1,0,2.5,1s0,2.1-1,2.5s-2.1,0-2.5-1
									C-37.1-259.6-36.6-260.7-35.6-261.2 M-35.3-260.4c-0.6,0.2-0.8,0.9-0.6,1.5s0.9,0.8,1.5,0.6c0.6-0.2,0.8-0.9,0.6-1.5
									C-34.1-260.4-34.8-260.7-35.3-260.4L-35.3-260.4"/>
							</g>
						</g>
					</g>
				</g>
			</g>
			<g id="Groupe_2587" transform="translate(27.474 7.211)">
				<g>
					<g>
						<g>
							<defs>
								
									<rect id="SVGID_00000085217744000822831560000012163671851251560894_" x="-40.2" y="-255.3" transform="matrix(8.951876e-02 -0.996 0.996 8.951876e-02 220.8987 -244.5775)" width="33.8" height="24.4"/>
							</defs>
							<clipPath id="SVGID_00000165236577547457388140000013467725798616560304_">
								<use xlink:href="#SVGID_00000085217744000822831560000012163671851251560894_"  style="overflow:visible;"/>
							</clipPath>
							<g id="Groupe_2586" style="clip-path:url(#SVGID_00000165236577547457388140000013467725798616560304_);">
								<path id="Tracé_7745" class="st1" d="M-30.7-230.3c0,0,0.3,0,0.8,0c0.3,0,0.7,0.1,1.2,0.1c0.4,0.1,0.7,0.2,1.2,0.3
									c0.3,0.1,0.5,0.1,0.8,0.2c0.4,0,0.6,0.3,0.6,0.6c0,0.4-0.3,0.6-0.6,0.6c-0.3,0.1-0.6,0.1-0.9,0.2c-0.4,0-0.9,0-1.3,0
									c-0.4-0.1-0.9-0.2-1.3-0.4c-0.3-0.1-0.6-0.3-0.8-0.4c-0.3-0.1-0.5-0.5-0.4-0.8C-31.4-230.1-31.1-230.3-30.7-230.3
									L-30.7-230.3"/>
								<path id="Tracé_7746" class="st6" d="M-15.1-229.4c0.5-0.1,1.9-2,2.3-3.5c1.4-5,2.1-10.2,1.9-15.4
									c-0.4-6-4.9-10.9-10.9-11.6c-0.2,0,0.2,0,0,0c-6.6-0.5-12.6,3.3-13.1,9.9c-0.4,4.8-0.4,9.6-0.1,14.4
									c0.4,3.8,2.8,5.1,3.5,5.3c0,0-0.1,1.2-0.2,1.9c-0.1,0.5,0.3,0.9,0.7,1.1c4.8,1,9.8,1.5,14.8,1.3c0.5,0,0.9-0.4,1-0.9
									C-15.3-227.8-15.1-229.4-15.1-229.4"/>
								<path id="Tracé_7747" class="st1" d="M-30.7-230.3c0,0,0.3,0,0.8,0c0.3,0,0.7,0.1,1.2,0.1c0.4,0.1,0.7,0.2,1.2,0.3
									c0.3,0.1,0.5,0.1,0.8,0.2c0.4,0,0.6,0.3,0.6,0.6c0,0.4-0.3,0.6-0.6,0.6c-0.3,0.1-0.6,0.1-0.9,0.2c-0.4,0-0.9,0-1.3,0
									c-0.4-0.1-0.9-0.2-1.3-0.4c-0.3-0.1-0.6-0.3-0.8-0.4c-0.3-0.1-0.5-0.5-0.4-0.8C-31.4-230.1-31.1-230.3-30.7-230.3
									L-30.7-230.3"/>
							</g>
						</g>
					</g>
				</g>
			</g>
			<g id="Groupe_2589" transform="translate(29.985 23.337)">
				<g>
					<g>
						<g>
							<defs>
								
									<rect id="SVGID_00000033352429922611405470000005331272431603550083_" x="-35.8" y="-260.9" transform="matrix(0.1379 -0.9904 0.9904 0.1379 226.3002 -250.9301)" width="9.6" height="10.8"/>
							</defs>
							<clipPath id="SVGID_00000003817806869967172120000002988204606378279318_">
								<use xlink:href="#SVGID_00000033352429922611405470000005331272431603550083_"  style="overflow:visible;"/>
							</clipPath>
							
								<g id="Groupe_2588" transform="translate(0 0)" style="clip-path:url(#SVGID_00000003817806869967172120000002988204606378279318_);">
								<path id="Tracé_7748" class="st1" d="M-34-259.8c0.1,0.3,0.1,0.5,0,0.8c0,0.3-0.1,0.5-0.2,0.8c0,0.5-0.5,0.8-0.9,0.8
									c-0.5,0-0.8-0.5-0.8-0.9c-0.1-0.3-0.1-0.5,0-0.8c0-0.3,0.1-0.5,0.2-0.8c0-0.5,0.5-0.8,0.9-0.8
									C-34.3-260.7-34-260.3-34-259.8"/>
								<path id="Tracé_7749" class="st1" d="M-25.2-258.7c0.1,0.3,0.1,0.5,0,0.8c0,0.3-0.1,0.5-0.2,0.8c0,0.5-0.5,0.8-0.9,0.8
									c-0.5,0-0.8-0.5-0.8-0.9c-0.1-0.3-0.1-0.5,0-0.8c0-0.3,0.1-0.5,0.2-0.8c0-0.5,0.5-0.8,0.9-0.8
									C-25.5-259.6-25.2-259.2-25.2-258.7L-25.2-258.7"/>
								<path id="Tracé_7750" class="st1" d="M-31.6-250.7c-1.1-0.2-2.1-1-2.3-2.1c0.1-0.4,0.4-0.7,0.8-0.6l0,0
									c0.6,0,1.2,0,1.8,0.1c0.6,0.1,1.2,0.2,1.8,0.4c0.4,0,0.7,0.4,0.6,0.8l0,0C-29.5-251.1-30.5-250.6-31.6-250.7"/>
							</g>
						</g>
					</g>
				</g>
			</g>
			<g id="Groupe_2591" transform="translate(24.791 0)">
				<g>
					<g>
						<g>
							<defs>
								
									<rect id="SVGID_00000042008529736768880190000000026290954295360423_" x="-34.6" y="-260.7" transform="matrix(8.999860e-02 -0.9959 0.9959 8.999860e-02 225.692 -241.2048)" width="30.9" height="33.1"/>
							</defs>
							<clipPath id="SVGID_00000063626162395407469370000016569335194199241863_">
								<use xlink:href="#SVGID_00000042008529736768880190000000026290954295360423_"  style="overflow:visible;"/>
							</clipPath>
							
								<g id="Groupe_2590" transform="translate(0 0)" style="clip-path:url(#SVGID_00000063626162395407469370000016569335194199241863_);">
								<path id="Tracé_7751" class="st1" d="M-35.1-251.1c0.2-2.3,1.9-4.1,4.2-4.6c0.5-0.1,0.9-0.4,1.2-0.8c1.7-2.8,6-4.1,10.5-3
									c1.5,0.4,2.9,1.1,4.2,2c0.4,0.3,0.8,0.4,1.3,0.4c1.3-0.1,2.6,0.2,3.7,1c1.2,0.8,2,2.1,2.3,3.5c0.1,0.6,0.5,1.2,1.2,1.4
									c0.7,0.3,1.2,0.7,1.8,1.2c1.6,1.5,2.1,3.9,1.1,6c-0.3,0.5-0.2,1.2,0.1,1.7c0.6,1.1,0.8,2.4,0.7,3.6
									c-0.2,2.4-2.5,7.6-5.1,10.4c-0.7,0.8-1.8,0.8-2.6,0.2c-0.1-0.1-0.2-0.2-0.2-0.2c-0.5-0.6-0.8-1.4-0.8-2.1
									c0.1-2.5,1.7-5.3-0.2-5.8c-1.4-0.4-1.9,1.3-1.8,2.8c0.2,2.2-3.1,1.8-2.4-0.4c0.3-1,0.5-2,0.7-3c0.2-1.6-1-3-2.6-3.2h-0.1
									c-0.3,0-0.7-0.1-1-0.1c-0.9-0.2-1.7-0.5-2.5-1.1c-1-0.7-2.3-1-3.6-0.9c-0.2,0-0.5,0.1-0.7,0.2c-1.4,0.4-2.8,0.7-4.3,0.8
									c-1.3,0.1-2.3,1.1-2.4,2.4l0,0c0,0.3-0.2,0.4-0.5,0.4c-0.1,0-0.2-0.1-0.3-0.2c-1-1.3-1.5-2.9-1.5-4.6c0-0.9,0.2-1.9,0.6-2.7
									c0.3-0.6,0.2-1.3-0.1-1.8C-34.9-248.7-35.2-249.9-35.1-251.1"/>
							</g>
						</g>
					</g>
				</g>
			</g>
		</g>
		<g id="Groupe_2594" transform="translate(50.776 408.822)">
			<g>
				<g id="Groupe_2593">
					<path id="Tracé_7752" class="st1" d="M-17.9-135.7c0,0,4.9-0.9,8.2,0c2.4,0.6,3.8,2.8,4.5,4.5c0.2,0.5,0.1,1.1-0.2,1.5
						c-0.3,0.4-0.8,0.7-1.3,0.7h-9.5c-0.9,0-1.6-0.7-1.6-1.6C-17.9-132.6-17.9-135.7-17.9-135.7z"/>
					<path id="Tracé_7753" class="st1" d="M-1.7-135.7c0,0,4.9-0.9,8.2,0c2.4,0.6,3.8,2.8,4.5,4.5c0.2,0.5,0.1,1.1-0.2,1.5
						S10-129,9.5-129H0c-0.9,0-1.6-0.7-1.6-1.6C-1.7-132.6-1.7-135.7-1.7-135.7z"/>
					<path id="Tracé_7754" class="st11" d="M8.7-181c0,0-0.6,36.2-0.6,44.3c0,0.8-0.7,1.5-1.5,1.5l0,0h-7.3c-0.8,0-1.5-0.7-1.5-1.5
						l0,0l0,0l-0.6-29.1c0-2-4.6-2-4.6,0L-8-136.7c0,0.8-0.7,1.5-1.5,1.5l0,0h-7.3c-0.8,0-1.5-0.7-1.5-1.5l0,0l0,0
						c0-8.1-0.6-44.3-0.6-44.3H8.7z"/>
					<path id="Tracé_7755" class="st1" d="M-12.2-175.7c-0.1,0.9-0.3,1.7-0.6,2.5s-0.8,1.5-1.4,2.1c-0.3,0.4-0.7,0.7-1.1,0.9
						c-1,0.6-2.2,1-3.4,1c-0.3,0-0.5,0.2-0.5,0.5s0.2,0.5,0.5,0.5c1.4,0.1,2.8-0.2,4.1-0.9c0.5-0.3,1-0.7,1.4-1.1
						c0.7-0.7,1.2-1.6,1.5-2.6c0.3-0.9,0.5-1.9,0.5-2.9c0-0.3-0.2-0.5-0.4-0.5C-12-176.1-12.2-175.9-12.2-175.7"/>
					<path id="Tracé_7756" class="st1" d="M4.5-175.7c0,1.1,0,2.1,0.2,3.2c0.1,0.4,0.2,0.9,0.3,1.3c0.1,0.3,0.2,0.6,0.3,0.8
						c0.5,1.3,1.7,2.2,3.1,2.2c0.3,0,0.5-0.2,0.5-0.5s-0.2-0.5-0.5-0.5c-1-0.1-1.6-0.9-2-1.8c-0.1-0.2-0.2-0.5-0.2-0.7
						c-0.1-0.4-0.2-0.8-0.3-1.1c-0.2-1-0.4-2-0.5-2.9c0-0.2-0.2-0.4-0.4-0.4l0,0l0,0C4.7-176.1,4.5-175.9,4.5-175.7"/>
					<path id="Tracé_7757" class="st1" d="M-15.9-137c-0.3,0-0.5-0.2-0.5-0.5v-1c0-0.3,0.2-0.5,0.5-0.5l0,0c0.3,0,0.5,0.2,0.5,0.5
						v1C-15.4-137.2-15.6-137-15.9-137 M-15.9-140c-0.3,0-0.5-0.2-0.5-0.5v-1c0-0.1,0.1-0.3,0.1-0.4c0.1-0.1,0.2-0.1,0.4-0.1
						c0.3,0,0.5,0.2,0.5,0.5v1C-15.4-140.2-15.6-140-15.9-140L-15.9-140 M-15.9-143c-0.3,0-0.5-0.2-0.5-0.5v-1
						c0-0.3,0.2-0.5,0.5-0.5l0,0c0.3,0,0.5,0.2,0.5,0.5v1C-15.4-143.2-15.7-143-15.9-143L-15.9-143 M-16-146c-0.3,0-0.5-0.2-0.5-0.5
						v-1c0-0.1,0.1-0.3,0.1-0.4c0.1-0.1,0.2-0.1,0.4-0.1c0.3,0,0.5,0.2,0.5,0.5v1c0,0.1-0.1,0.3-0.1,0.4C-15.7-146-15.8-146-16-146
						 M-16-149c-0.3,0-0.5-0.2-0.5-0.5v-1c0-0.1,0.1-0.3,0.1-0.4c0.1-0.1,0.2-0.1,0.4-0.1c0.3,0,0.5,0.2,0.5,0.5v1
						C-15.5-149.2-15.7-149-16-149L-16-149L-16-149 M-16-152c-0.3,0-0.5-0.2-0.5-0.5v-1c0-0.3,0.2-0.5,0.5-0.5l0,0
						c0.3,0,0.5,0.2,0.5,0.5v1C-15.5-152.2-15.7-152-16-152L-16-152L-16-152 M-16.1-155c-0.3,0-0.5-0.2-0.5-0.5v-1
						c0-0.3,0.2-0.5,0.5-0.5l0,0c0.3,0,0.5,0.2,0.5,0.5v1c0,0.1-0.1,0.3-0.1,0.4C-15.8-155.1-15.9-155-16.1-155 M-16.1-158
						c-0.3,0-0.5-0.2-0.5-0.5v-1c0-0.3,0.2-0.5,0.5-0.5l0,0c0.3,0,0.5,0.2,0.5,0.5v1C-15.6-158.2-15.8-158-16.1-158L-16.1-158
						 M-16.1-161c-0.3,0-0.5-0.2-0.5-0.5v-1c0-0.3,0.2-0.5,0.5-0.5l0,0c0.3,0,0.5,0.2,0.5,0.5v1C-15.6-161.2-15.8-161-16.1-161
						L-16.1-161L-16.1-161 M-16.2-164c-0.3,0-0.5-0.2-0.5-0.5v-1c0-0.3,0.2-0.5,0.5-0.5l0,0c0.3,0,0.5,0.2,0.5,0.5v1
						C-15.7-164.2-15.9-164-16.2-164L-16.2-164"/>
					<path id="Tracé_7758" class="st1" d="M0-137.7c-0.3,0-0.5-0.2-0.5-0.5l0,0v-1c0-0.3,0.2-0.5,0.5-0.5l0,0
						c0.3,0,0.5,0.2,0.5,0.5v1c0,0.1-0.1,0.3-0.1,0.4C0.2-137.7,0.1-137.7,0-137.7 M-0.1-140.7c-0.3,0-0.5-0.2-0.5-0.5l0,0v-1
						c0-0.3,0.2-0.5,0.5-0.5l0,0c0.3,0,0.5,0.2,0.5,0.5l0,0v1C0.4-140.9,0.2-140.7-0.1-140.7 M-0.1-143.7c-0.3,0-0.5-0.2-0.5-0.5v-1
						c0-0.1,0.1-0.3,0.1-0.4c0.1-0.1,0.2-0.2,0.4-0.1c0.3,0,0.5,0.2,0.5,0.5l0,0v1C0.4-143.9,0.2-143.7-0.1-143.7L-0.1-143.7z
						 M-0.1-146.7c-0.3,0-0.5-0.2-0.5-0.5v-1c0-0.1,0.1-0.3,0.1-0.4c0.1-0.1,0.2-0.1,0.4-0.1c0.3,0,0.5,0.2,0.5,0.5v1
						C0.3-146.9,0.1-146.7-0.1-146.7 M-0.2-149.7c-0.3,0-0.5-0.2-0.5-0.5v-1c0-0.1,0.1-0.3,0.1-0.4c0.1-0.1,0.2-0.1,0.4-0.1
						c0.3,0,0.5,0.2,0.5,0.5v1C0.3-150,0.1-149.7-0.2-149.7 M-0.2-152.7c-0.3,0-0.5-0.2-0.5-0.5v-1c0-0.1,0.1-0.3,0.1-0.4
						c0.1-0.1,0.2-0.1,0.4-0.1c0.3,0,0.5,0.2,0.5,0.5v1C0.3-152.9,0.1-152.7-0.2-152.7 M-0.2-155.7c-0.3,0-0.5-0.2-0.5-0.5l0,0v-1
						c0-0.3,0.2-0.5,0.5-0.5l0,0c0.3,0,0.5,0.2,0.5,0.5l0,0v1C0.2-155.9,0-155.7-0.2-155.7 M-0.3-158.7c-0.3,0-0.5-0.2-0.5-0.5l0,0
						v-1c0-0.3,0.2-0.5,0.5-0.5l0,0c0.3,0,0.5,0.2,0.5,0.5l0,0v1C0.2-158.9,0-158.7-0.3-158.7L-0.3-158.7 M-0.3-161.7
						c-0.3,0-0.5-0.2-0.5-0.5v-1c0-0.1,0.1-0.3,0.1-0.4c0.1-0.1,0.2-0.2,0.4-0.1c0.3,0,0.5,0.2,0.5,0.5v1
						C0.2-161.9-0.1-161.7-0.3-161.7L-0.3-161.7"/>
					<path id="Tracé_7759" class="st1" d="M-0.1-167c0,0-0.9-0.1-1.9-0.2c-0.3,0-0.5,0-0.8,0c-0.4,0-0.9,0-1.3,0.1
						c0.7,0.2,1.3,0.7,1.3,1.4v0.4c0.3,0,0.5,0,0.8,0c1.1-0.1,1.9-0.2,1.9-0.2c0.4,0,0.7-0.3,0.7-0.7S0.3-167-0.1-167L-0.1-167z"/>
					<path id="Tracé_7760" class="st6" d="M24.9-223.9c-0.1,0-0.2-0.1-0.3-0.2c-0.9-1.8,0.1-4.2,0.8-5.5c0.7-1.2,2-3.5,3.1-3.3
						c0.8,0.2,0.8,1.3,0.3,2.6c-0.1,0.2,0,0.3,0.2,0.4c0.1,0,0.2,0,0.3,0c1.9-1.5,5.8-4.9,7.6-3.6c1.3,0.9,1,4.7,0.2,6.5
						s-4.2,3.1-6.1,3.8C30.9-223.1,24.9-223.9,24.9-223.9z"/>
					<path id="Tracé_7761" class="st6" d="M-33.1-223.1c0.1,0,0.2-0.1,0.3-0.2c0.9-1.8,0-4.2-0.6-5.5c-0.6-1.2-1.6-3.6-2.9-3.4
						c-0.8,0.1-0.8,1.3-0.4,2.6c0.1,0.2,0,0.3-0.2,0.4c-0.1,0-0.2,0-0.3-0.1c-1.8-1.6-5.8-5.7-7.7-3.7c-0.4,0.4-1.5,3.9-0.2,5.5
						c0.5,0.7,1.2,1.3,1.9,1.9c1.3,1.2,2.9,2,4.6,2.3L-33.1-223.1z"/>
					<path id="Tracé_7762" class="st1" d="M-15.8-209.7c-4.6-0.2-9.1-3.6-12.3-7.8c-2.4-3.1-2.5-5-3.4-7.2
						c-0.4-1.2-0.9-1.6-2.2-1.2c-1.4,0.4-4.2,1.4-5.4,1.9c-1.4,0.5-1.6,1.5-1.3,3.6c1.1,6.5,5.8,18.6,21.8,24.7
						c8.5,3.3,17.5,3.1,29.9-0.4c15.6-6.6,19.5-22.4,19.9-24.1c0.4-1.8,0.7-2.6-0.4-3.3c-1.7-1-3.4-1.8-5.2-2.5
						c-1.3-0.5-1.8-0.5-2.3,1c-0.6,1.6-1.1,3.1-4.7,8.1c-3,4-7.3,6.8-12.1,8c0,0-3.2-2.1-11.6-1.8S-13.3-209.7-15.8-209.7z"/>
					<path id="Tracé_7763" class="st1" d="M-5-212.2c8,0,14.4,6.4,14.4,14.4v20.8c0,0.7-0.6,1.4-1.4,1.4l0,0h-26.1
						c-0.7,0-1.4-0.6-1.4-1.4l0,0c0,0,0.8-13.4,0.8-20.8C-18.6-205.7-13-212.2-5-212.2"/>
					<path id="Tracé_7764" class="st6" d="M-10-213.4c-3.1-2.6-4.8-7.4-5-11.2c-0.2-5.5,0.7-8.7,1.9-10.7c2-3.2,5.5-5.2,9.3-5.2
						c0.2,0-0.2,0,0,0c4.2,0.2,7.8,1.8,9.6,5c1.8,3.4,2,7,1.5,10.9c-0.6,5.6-1.8,9.7-6.8,12c0,0,0,1.4,0,2c0,0.4-0.3,0.8-0.8,0.9
						c-3,0.2-6.1,0.1-9.1-0.2c-0.5-0.1-0.8-0.5-0.8-0.9L-10-213.4L-10-213.4z"/>
					<path id="Tracé_7765" class="st1" d="M4.3-224.9c-0.1,0.2-0.1,0.5-0.2,0.7c0,0.3,0,0.5,0.1,0.8c0,0.5,0.3,0.8,0.8,0.9
						c0.5,0,0.8-0.3,0.9-0.8l0,0C6-223.5,6-223.8,6-224c0-0.3,0-0.5-0.1-0.8c0-0.5-0.3-0.8-0.8-0.9C4.7-225.7,4.3-225.4,4.3-224.9
						L4.3-224.9L4.3-224.9z"/>
					<path id="Tracé_7766" class="st1" d="M-4.2-225.2c-0.1,0.2-0.1,0.5-0.2,0.7c0,0.3,0,0.5,0.1,0.8c0,0.5,0.3,0.8,0.8,0.9
						c0.5,0,0.8-0.3,0.9-0.8l0,0c0.1-0.2,0.1-0.5,0.2-0.7c0-0.3,0-0.5-0.1-0.8c0-0.5-0.3-0.8-0.8-0.9C-3.8-226-4.2-225.7-4.2-225.2
						L-4.2-225.2z"/>
					<path id="Tracé_7767" class="st1" d="M0.6-216.9c1,0,2-0.6,2.5-1.5c0-0.4-0.3-0.7-0.7-0.8l0,0c0,0-0.5-0.2-1.2-0.3
						c-0.2,0-0.4-0.1-0.6-0.1c-0.3,0-0.6,0-0.9,0c-0.5,0.1-0.9,0.1-0.9,0.1c-0.4,0-0.7,0.3-0.8,0.7l0,0
						C-2-218.3-0.9-217.1,0.6-216.9z"/>
					<path id="Tracé_7768" class="st1" d="M9.6-234.1c-0.1-2.3-1-4.5-2.7-6.2c-2.4-2-5.3-3.2-8.4-3.5c-2.4-0.3-4.8-0.1-7.1,0.6
						c-1.8-4.3-6.7-6.4-11-4.7c-3.1,1.3-5.2,4.3-5.3,7.7c0,4.4,3.3,8.1,7.7,8.7c-0.7,5.9,1.6,14.9,7.2,18.8c1.3-1.5-2.1-5.7-2.5-10
						c-0.2-2.1-0.1-3.4,0.9-3.7c0.9-0.2,1.1,1.2,1.1,1.2c0.2,0.8,0.5,1.5,0.9,2.2c0.2,0.6,0.3,0.7,0.2,1.3s-0.2,1.2-0.3,1.7
						c-0.1,0.4-0.1,0.9-0.1,1.3c0,0.6,0.1,1.3,0.5,1.4c0.2,0,0.4-0.4,0.5-0.9s0.1-1,0.3-1.5c0.1-0.4,0.4-1,0.6-1.7
						c0.2-0.8,0.2-1.7-0.1-2.5c-0.1-0.6-0.2-1.2-0.3-1.8s-0.1-1.2,0-1.8c0.3-1.4,1-1.7,2.4-3c1.6-1.4,2.1-4,5.4-4.5
						c1.4-0.1,2.9-0.1,4.3,0.1c2.1,0.2,2.5,1.3,3.1,3.2c0.5,2.2,0.7,4.5,0.6,6.7c0,0.1,0,0.1,0,0.1c0.7-0.1,1.5-2.8,1.9-5.3
						c0.1-0.8,0.2-1.6,0.3-2.4C9.7-233.1,9.7-233.6,9.6-234.1z"/>
					<path id="Tracé_7769" class="st1" d="M-0.3-212.5c0,0-0.2,0-0.7,0c-0.3,0-0.7,0-1.1,0c-0.3,0-0.7,0.1-1.1,0.1
						c-0.2,0-0.5,0.1-0.8,0.1s-0.6,0.2-0.7,0.5s0.2,0.6,0.5,0.7l0,0c0.3,0.1,0.5,0.2,0.8,0.2c0.4,0.1,0.8,0.1,1.2,0.1
						s0.8-0.1,1.2-0.2c0.3-0.1,0.5-0.2,0.8-0.3s0.5-0.4,0.4-0.7l0,0C0.3-212.4,0.1-212.6-0.3-212.5L-0.3-212.5L-0.3-212.5
						L-0.3-212.5z"/>
					<path id="Tracé_7770" class="st3" d="M10.3-195.9c0,0,0.1-0.5,0.2-1.3c0-0.4,0.1-0.8,0-1.3c0-0.3,0-0.5-0.1-0.8
						c-0.1-0.4-0.1-0.8-0.2-1.3c-0.1-0.3-0.1-0.5-0.1-0.5c0-0.2-0.3-0.2-0.5-0.2c-0.2,0.1-0.4,0.2-0.4,0.4c0,0,0,0.2,0.1,0.5
						s0.1,0.7,0.1,1.2c0,0.2,0,0.5,0,0.7v1.2c0,0.7,0,1.2,0,1.2c0,0.2,0.2,0.3,0.4,0.3C10.1-195.7,10.3-195.8,10.3-195.9z"/>
					<path id="Tracé_7771" class="st6" d="M5.8-178.4H4.3c-0.3,0-0.6-0.2-0.6-0.6c0-0.3,0.2-0.6,0.6-0.6h0.9v-1.9l-1.8-1.3
						c-0.1-0.1-0.2-0.3-0.2-0.5v-2c0-0.3,0.2-0.6,0.6-0.6c0.3,0,0.6,0.2,0.6,0.6v1.7l1.8,1.3c0.1,0.1,0.2,0.3,0.2,0.5v2.7
						C6.3-178.7,6.1-178.4,5.8-178.4"/>
					<path id="Tracé_7772" class="st6" d="M5.8-185.6c-0.3,0-0.6-0.2-0.6-0.6v-4.4c0-0.3,0.2-0.6,0.6-0.6s0.6,0.2,0.6,0.6v4.4
						C6.3-185.8,6.1-185.6,5.8-185.6"/>
					<path id="Tracé_7773" class="st6" d="M5.8-193c0.3,0,0.5,0.2,0.5,0.5S6.1-192,5.8-192c-0.3,0-0.5-0.2-0.5-0.5S5.5-193,5.8-193
						L5.8-193"/>
					<path id="Tracé_7774" class="st6" d="M5.8-184.5c0.3,0,0.5,0.2,0.5,0.5s-0.2,0.5-0.5,0.5s-0.5-0.2-0.5-0.5
						S5.5-184.5,5.8-184.5L5.8-184.5"/>
					<path id="Tracé_7775" class="st6" d="M2.3-179.5c0.3,0,0.5,0.2,0.5,0.5s-0.2,0.5-0.5,0.5s-0.5-0.2-0.5-0.5
						S2.1-179.5,2.3-179.5L2.3-179.5"/>
					<path id="Tracé_7776" class="st11" d="M-13.2-187.7c-0.1,0-0.2,0-0.3-0.1l-2.1-1.5c-0.1-0.1-0.2-0.3-0.2-0.5v-2.7
						c0-0.3,0.2-0.6,0.6-0.6h1.5c0.3,0,0.6,0.2,0.6,0.6c0,0.3-0.2,0.6-0.6,0.6l0,0h-0.9v1.9l1.8,1.3c0.3,0.2,0.3,0.5,0.1,0.8
						C-12.9-187.8-13-187.7-13.2-187.7"/>
					<path id="Tracé_7777" class="st11" d="M-15.3-180.3c-0.3,0-0.6-0.2-0.6-0.6v-4.4c0-0.3,0.2-0.6,0.6-0.6c0.3,0,0.6,0.2,0.6,0.6
						v4.4C-14.7-180.5-15-180.3-15.3-180.3L-15.3-180.3z"/>
					<path id="Tracé_7778" class="st11" d="M-15.3-179.4c0.3,0,0.5,0.2,0.5,0.5s-0.2,0.5-0.5,0.5s-0.5-0.2-0.5-0.5
						S-15.6-179.4-15.3-179.4L-15.3-179.4"/>
					<path id="Tracé_7779" class="st11" d="M-15.3-187.9c0.3,0,0.5,0.2,0.5,0.5s-0.2,0.5-0.5,0.5s-0.5-0.2-0.5-0.5
						S-15.6-187.9-15.3-187.9L-15.3-187.9"/>
					<path id="Tracé_7780" class="st11" d="M-11.8-192.9c0.3,0,0.5,0.2,0.5,0.5s-0.2,0.5-0.5,0.5s-0.5-0.2-0.5-0.5
						S-12.1-192.9-11.8-192.9L-11.8-192.9"/>
				</g>
			</g>
		</g>
		<g id="Groupe_2595" transform="translate(64.269 591.436)">
			<g>
				<g>
					<g>
						<defs>
							<rect id="SVGID_00000094597301385386791740000002639920184423261067_" x="-37" y="-261" width="45.7" height="0.8"/>
						</defs>
						<clipPath id="SVGID_00000057840593746784790290000014427685226832590235_">
							<use xlink:href="#SVGID_00000094597301385386791740000002639920184423261067_"  style="overflow:visible;"/>
						</clipPath>
						<g id="Groupe_2578-2" style="clip-path:url(#SVGID_00000057840593746784790290000014427685226832590235_);">
							<path id="Tracé_7699-2" class="st1" d="M-36.4-260.2H8.2c0.3,0,0.6-0.2,0.6-0.4S8.5-261,8.2-261h-44.6
								c-0.3,0-0.6,0.2-0.6,0.4S-36.7-260.2-36.4-260.2"/>
						</g>
					</g>
				</g>
			</g>
		</g>
	</g>
	<g id="Groupe_2800" transform="translate(-24 -261)">
		<g id="Groupe_2595_00000116196739239490662330000009104408864928378010_" transform="translate(64.269 633.436)">
			<g>
				<g>
					<g>
						<defs>
							<rect id="SVGID_00000150783562400032998920000011861436843176124043_" x="-11.2" y="0" width="45.7" height="0.8"/>
						</defs>
						<clipPath id="SVGID_00000046307931788374516190000007436380351923029400_">
							<use xlink:href="#SVGID_00000150783562400032998920000011861436843176124043_"  style="overflow:visible;"/>
						</clipPath>
						
							<g id="Groupe_2578_00000146484366547691710540000013281349271813818509_" style="clip-path:url(#SVGID_00000046307931788374516190000007436380351923029400_);">
							<path id="Tracé_7699_00000129204757667042569890000014244201270783393961_" class="st1" d="M-10.6,0.8H34
								c0.3,0,0.6-0.2,0.6-0.4S34.3,0,34,0h-44.6c-0.3,0-0.6,0.2-0.6,0.4S-10.9,0.8-10.6,0.8"/>
						</g>
					</g>
				</g>
			</g>
		</g>
	</g>
</g>
<g id="TEXTES_FR" class="st18">
</g>
<g id="TEXTES_GB">
</g>
<g id="Calque_5">
</g>
<g class="st8">
	<path class="st3" d="M59.7,10.7h-4.5V8.1h12.2v2.6h-4.5v11.4h-3.2V10.7z"/>
	<path class="st3" d="M78.3,17.6h-8.1c0.3,1.3,1.4,2.2,3.1,2.2c1.1,0,2-0.3,2.7-1l1.7,1.8c-1,1.1-2.5,1.7-4.4,1.7
		c-3.7,0-6.1-2.3-6.1-5.5s2.5-5.5,5.7-5.5s5.6,2.1,5.6,5.6C78.3,17,78.3,17.3,78.3,17.6z M70.1,15.7h5.3c-0.2-1.4-1.2-2.2-2.6-2.2
		C71.3,13.5,70.3,14.4,70.1,15.7z"/>
	<path class="st3" d="M98.6,15.9v6.2h-3.1v-5.7c0-1.7-0.8-2.5-2-2.5c-1.4,0-2.4,0.9-2.4,2.8v5.4H88v-5.7c0-1.7-0.7-2.5-2-2.5
		c-1.4,0-2.4,0.9-2.4,2.8v5.4h-3.1V11.3h3v1.2c0.8-0.9,2-1.4,3.4-1.4c1.5,0,2.8,0.6,3.5,1.8c0.9-1.1,2.3-1.8,3.9-1.8
		C96.8,11.1,98.6,12.6,98.6,15.9z"/>
	<path class="st3" d="M113.1,16.7c0,3.4-2.3,5.5-5.4,5.5c-1.3,0-2.4-0.4-3.2-1.3v5h-3.1V11.3h3v1.2c0.8-0.9,1.9-1.4,3.4-1.4
		C110.8,11.1,113.1,13.3,113.1,16.7z M110,16.7c0-1.9-1.2-3-2.7-3c-1.6,0-2.7,1.1-2.7,3s1.2,3,2.7,3S110,18.5,110,16.7z"/>
	<path class="st3" d="M114.2,21.1l1-2.2c1,0.6,2.4,1,3.7,1c1.4,0,2-0.4,2-1c0-1.8-6.5,0-6.5-4.3c0-2,1.8-3.5,5-3.5
		c1.5,0,3.1,0.3,4.1,0.9l-1,2.2c-1.1-0.6-2.1-0.8-3.1-0.8c-1.4,0-2,0.4-2,1c0,1.8,6.5,0.1,6.5,4.3c0,2-1.9,3.4-5.1,3.4
		C117,22.2,115.2,21.7,114.2,21.1z"/>
	<path class="st3" d="M142.4,7.2V22h-3v-1.2c-0.8,0.9-1.9,1.4-3.4,1.4c-3,0-5.4-2.2-5.4-5.5s2.3-5.5,5.4-5.5c1.3,0,2.4,0.4,3.2,1.3
		V7.2H142.4z M139.4,16.7c0-1.9-1.2-3-2.7-3c-1.6,0-2.8,1.1-2.8,3s1.2,3,2.8,3C138.2,19.7,139.4,18.5,139.4,16.7z"/>
	<path class="st3" d="M148.4,9c0,0.5-0.1,0.9-0.5,2l-1.2,2.9h-2l0.9-3.2c-0.6-0.3-1.1-0.9-1.1-1.7c0-1.2,0.8-1.9,1.9-1.9
		C147.6,7.1,148.4,7.8,148.4,9z"/>
	<path class="st3" d="M160.6,17.6h-8.1c0.3,1.3,1.4,2.2,3.1,2.2c1.1,0,2-0.3,2.7-1l1.7,1.8c-1,1.1-2.5,1.7-4.4,1.7
		c-3.7,0-6.1-2.3-6.1-5.5s2.5-5.5,5.7-5.5s5.6,2.1,5.6,5.6C160.6,17,160.6,17.3,160.6,17.6z M152.4,15.7h5.3
		c-0.2-1.4-1.2-2.2-2.6-2.2C153.6,13.5,152.6,14.4,152.4,15.7z M155.6,9.9h-2.4l2.7-2.9h3.4L155.6,9.9z"/>
	<path class="st3" d="M161.9,16.7c0-3.2,2.5-5.5,6-5.5c2.3,0,4,1,4.8,2.7l-2.4,1.3c-0.6-1-1.4-1.5-2.4-1.5c-1.6,0-2.8,1.1-2.8,3
		s1.2,3,2.8,3c1,0,1.8-0.4,2.4-1.5l2.4,1.3c-0.8,1.7-2.6,2.7-4.8,2.7C164.4,22.2,161.9,19.9,161.9,16.7z"/>
	<path class="st3" d="M181.2,11.1V14c-0.3,0-0.5,0-0.7,0c-1.7,0-2.9,0.9-2.9,3v5.1h-3.1V11.3h3v1.4
		C178.3,11.7,179.5,11.1,181.2,11.1z"/>
	<path class="st3" d="M192.5,15.9V22h-2.9v-1.3c-0.6,1-1.7,1.5-3.3,1.5c-2.5,0-4-1.4-4-3.3s1.3-3.2,4.6-3.2h2.5
		c0-1.3-0.8-2.1-2.5-2.1c-1.1,0-2.3,0.4-3.1,1l-1.1-2.2c1.2-0.8,2.9-1.3,4.6-1.3C190.6,11.1,192.5,12.7,192.5,15.9z M189.4,18.7
		v-1.1h-2.1c-1.5,0-1.9,0.5-1.9,1.3s0.7,1.3,1.8,1.3C188.1,20.1,189,19.6,189.4,18.7z"/>
	<path class="st3" d="M206.3,15.9v6.2h-3.1v-5.7c0-1.7-0.8-2.5-2.2-2.5c-1.5,0-2.6,0.9-2.6,2.9v5.3h-3.1V11.3h3v1.3
		c0.8-0.9,2.1-1.4,3.6-1.4C204.4,11.1,206.3,12.6,206.3,15.9z"/>
	<path class="st3" d="M225.3,17.6h-8.1c0.3,1.3,1.4,2.2,3.1,2.2c1.1,0,2-0.3,2.7-1l1.7,1.8c-1,1.1-2.5,1.7-4.4,1.7
		c-3.7,0-6.1-2.3-6.1-5.5s2.5-5.5,5.7-5.5s5.6,2.1,5.6,5.6C225.4,17,225.3,17.3,225.3,17.6z M217.1,15.7h5.3
		c-0.2-1.4-1.2-2.2-2.6-2.2S217.3,14.4,217.1,15.7z M220.3,9.9h-2.4l2.7-2.9h3.4L220.3,9.9z"/>
	<path class="st3" d="M238.4,7.2V22h-3v-1.2c-0.8,0.9-1.9,1.4-3.4,1.4c-3,0-5.4-2.2-5.4-5.5s2.3-5.5,5.4-5.5c1.3,0,2.4,0.4,3.2,1.3
		V7.2H238.4z M235.3,16.7c0-1.9-1.2-3-2.7-3c-1.6,0-2.8,1.1-2.8,3s1.2,3,2.8,3C234.1,19.7,235.3,18.5,235.3,16.7z"/>
	<path class="st3" d="M252.1,11.3v10.8h-3v-1.3c-0.8,0.9-2,1.4-3.3,1.4c-2.7,0-4.6-1.5-4.6-4.8v-6.1h3.1v5.6c0,1.8,0.8,2.6,2.2,2.6
		s2.5-0.9,2.5-2.9v-5.3C249,11.3,252.1,11.3,252.1,11.3z"/>
	<path class="st3" d="M254.2,16.7c0-3.2,2.5-5.5,6-5.5c2.3,0,4,1,4.8,2.7l-2.4,1.3c-0.6-1-1.4-1.5-2.4-1.5c-1.6,0-2.8,1.1-2.8,3
		s1.2,3,2.8,3c1,0,1.8-0.4,2.4-1.5l2.4,1.3c-0.8,1.7-2.6,2.7-4.8,2.7C256.7,22.2,254.2,19.9,254.2,16.7z"/>
	<path class="st3" d="M276.4,15.9V22h-2.9v-1.3c-0.6,1-1.7,1.5-3.3,1.5c-2.5,0-4-1.4-4-3.3s1.3-3.2,4.6-3.2h2.5
		c0-1.3-0.8-2.1-2.5-2.1c-1.1,0-2.3,0.4-3.1,1l-1.1-2.2c1.2-0.8,2.9-1.3,4.6-1.3C274.5,11.1,276.4,12.7,276.4,15.9z M273.2,18.7
		v-1.1h-2.1c-1.5,0-1.9,0.5-1.9,1.3s0.7,1.3,1.8,1.3C272,20.1,272.9,19.6,273.2,18.7z"/>
	<path class="st3" d="M286.1,21.5c-0.6,0.5-1.6,0.7-2.5,0.7c-2.5,0-4-1.3-4-3.9v-4.4h-1.7v-2.4h1.7V8.9h3.1v2.6h2.7v2.4h-2.7v4.4
		c0,0.9,0.5,1.4,1.3,1.4c0.5,0,0.9-0.1,1.3-0.4L286.1,21.5z"/>
	<path class="st3" d="M287.5,8.1c0-1,0.8-1.7,1.9-1.7s1.9,0.7,1.9,1.7s-0.8,1.8-1.9,1.8S287.5,9,287.5,8.1z M287.9,11.3h3.1v10.8
		h-3.1V11.3z"/>
	<path class="st3" d="M297.3,11.5h2.8v2.4h-2.7V22h-3.1v-8.1h-1.7v-2.4h1.7V11c0-2.4,1.5-4,4.2-4c0.9,0,1.8,0.2,2.4,0.6L300,9.9
		c-0.3-0.2-0.8-0.4-1.3-0.4c-0.9,0-1.4,0.5-1.4,1.6L297.3,11.5L297.3,11.5z"/>
</g>
<g class="st8">
	<path class="st1" d="M8.4,65.1h5c3.5,0,5.9,2,5.9,5.2s-2.4,5.2-5.9,5.2h-5V65.1z M13.2,73.2c1.8,0,3-1.1,3-2.9s-1.2-2.9-3-2.9h-1.9
		v5.8H13.2z"/>
	<path class="st1" d="M29.2,73.3v2.3h-8.4V65.1H29v2.3h-5.3v1.8h4.7v2.2h-4.7v1.9H29.2z M25.5,64.2h-2l2-2.3h2.8L25.5,64.2z"/>
	<path class="st1" d="M30.3,70.3c0-3.2,2.4-5.5,5.8-5.5c1.9,0,3.5,0.7,4.5,2l-1.9,1.7c-0.7-0.8-1.5-1.2-2.5-1.2
		c-1.7,0-2.9,1.2-2.9,3s1.2,3,2.9,3c1,0,1.8-0.4,2.5-1.2l1.9,1.7c-1,1.3-2.6,2-4.5,2C32.7,75.8,30.3,73.5,30.3,70.3z"/>
	<path class="st1" d="M41.1,70.3c0-3.1,2.5-5.5,5.8-5.5s5.8,2.3,5.8,5.5s-2.5,5.5-5.8,5.5S41.1,73.5,41.1,70.3z M49.8,70.3
		c0-1.8-1.2-3-2.8-3s-2.8,1.2-2.8,3s1.2,3,2.8,3S49.8,72.1,49.8,70.3z"/>
	<path class="st1" d="M54.3,70.9v-5.8h3v5.7c0,1.8,0.8,2.5,2,2.5s2-0.7,2-2.5v-5.7h2.9v5.8c0,3.1-1.8,4.9-4.9,4.9
		C56.1,75.8,54.3,74,54.3,70.9z"/>
	<path class="st1" d="M76.8,65.1l-4.5,10.5h-2.9l-4.5-10.5h3.2l2.8,6.8l2.9-6.8H76.8z"/>
	<path class="st1" d="M82,72.8h-1.6v2.8h-3V65.1h4.8c2.9,0,4.7,1.5,4.7,3.9c0,1.5-0.8,2.7-2.1,3.3l2.3,3.3h-3.2L82,72.8z M82.1,67.4
		h-1.6v3.1h1.6c1.2,0,1.8-0.6,1.8-1.5C83.9,68,83.3,67.4,82.1,67.4z"/>
	<path class="st1" d="M88.5,65.1h3v10.5h-3V65.1z"/>
	<path class="st1" d="M98.2,72.8h-1.6v2.8h-3V65.1h4.8c2.9,0,4.7,1.5,4.7,3.9c0,1.5-0.8,2.7-2.1,3.3l2.3,3.3h-3.2L98.2,72.8z
		 M98.2,67.4h-1.6v3.1h1.6c1.2,0,1.8-0.6,1.8-1.5C100.1,68,99.5,67.4,98.2,67.4z"/>
</g>
<g class="st8">
	<path class="st1" d="M22.5,385.2v10.5h-3v-8.2h-2v-2.3H22.5z"/>
</g>
<g class="st8">
	<path class="st1" d="M29.1,389.3v1.3h-4.9v-6.1H29v1.3h-3.1v1h2.7v1.3h-2.7v1.1h3.2V389.3z"/>
	<path class="st1" d="M32.8,389h-0.9v1.6h-1.7v-6.1H33c1.7,0,2.7,0.9,2.7,2.3c0,0.9-0.4,1.6-1.2,1.9l1.3,1.9h-1.9L32.8,389z
		 M32.8,385.9h-1v1.8h1c0.7,0,1.1-0.3,1.1-0.9C33.9,386.2,33.5,385.9,32.8,385.9z"/>
</g>
<g class="st8">
	<path class="st1" d="M40,394.3l1.6-1.9c0.6,0.7,1.1,1.1,1.8,1.1c0.9,0,1.3-0.5,1.3-1.5v-4.5h-3.6v-2.3h6.6v6.6c0,2.7-1.4,4.1-4,4.1
		C42.1,395.9,40.8,395.3,40,394.3z"/>
	<path class="st1" d="M49.2,390.4c0-3.1,2.5-5.5,5.8-5.5s5.8,2.3,5.8,5.5s-2.5,5.5-5.8,5.5S49.2,393.6,49.2,390.4z M57.9,390.4
		c0-1.8-1.2-3-2.8-3s-2.8,1.2-2.8,3s1.2,3,2.8,3S57.9,392.2,57.9,390.4z"/>
	<path class="st1" d="M62.3,391v-5.8h3v5.7c0,1.8,0.8,2.5,2,2.5s2-0.7,2-2.5v-5.7h2.9v5.8c0,3.1-1.8,4.9-4.9,4.9
		C64.2,395.9,62.3,394.1,62.3,391z"/>
	<path class="st1" d="M78.8,392.9h-1.6v2.8h-3v-10.5H79c2.9,0,4.7,1.5,4.7,3.9c0,1.5-0.8,2.7-2.1,3.3l2.3,3.3h-3.2L78.8,392.9z
		 M78.8,387.5h-1.6v3.1h1.6c1.2,0,1.8-0.6,1.8-1.5C80.7,388.1,80.1,387.5,78.8,387.5z"/>
</g>
<g class="st8">
	<path class="st1" d="M257.6,385.2h5c3.5,0,5.9,2,5.9,5.2s-2.4,5.2-5.9,5.2h-5V385.2z M262.5,393.3c1.8,0,3-1.1,3-2.9
		s-1.2-2.9-3-2.9h-1.9v5.8H262.5z"/>
	<path class="st1" d="M276.9,393.6h-4.4l-0.8,2h-3l4.6-10.5h2.9l4.6,10.5h-3.1L276.9,393.6z M276,391.4l-1.4-3.4l-1.4,3.4H276z"/>
	<path class="st1" d="M291.6,385.2v10.5h-2.4l-4.6-5.6v5.6h-2.9v-10.5h2.4l4.6,5.6v-5.6H291.6z"/>
	<path class="st1" d="M293,394.7l1-2.2c0.9,0.6,2.2,1,3.5,1c1.2,0,1.7-0.3,1.7-0.9c0-1.7-6-0.5-6-4.3c0-1.9,1.5-3.4,4.6-3.4
		c1.4,0,2.8,0.3,3.8,0.9l-0.9,2.2c-1-0.5-2-0.8-2.9-0.8c-1.2,0-1.7,0.4-1.7,0.9c0,1.6,6,0.4,6,4.3c0,1.8-1.5,3.4-4.6,3.4
		C295.7,395.9,294,395.4,293,394.7z"/>
	<path class="st1" d="M311.8,385.2v10.5h-3v-8.2h-2v-2.3H311.8z"/>
	<path class="st1" d="M325.3,393.6h-4.4l-0.8,2h-3l4.6-10.5h2.9l4.6,10.5h-3.1L325.3,393.6z M324.4,391.4L323,388l-1.4,3.4H324.4z"
		/>
	<path class="st1" d="M340,385.2v10.5h-2.4l-4.6-5.6v5.6h-3v-10.5h2.4l4.6,5.6v-5.6H340z"/>
</g>
<g class="st8">
	<path class="st1" d="M146.8,69c0,2.4-1.8,3.9-4.7,3.9h-1.8v2.7h-3V65.1h4.8C145,65.1,146.8,66.6,146.8,69z M143.8,69
		c0-1-0.6-1.5-1.8-1.5h-1.6v3.1h1.6C143.2,70.5,143.8,69.9,143.8,69z"/>
	<path class="st1" d="M152.9,72.8h-1.6v2.8h-3V65.1h4.8c2.9,0,4.7,1.5,4.7,3.9c0,1.5-0.8,2.7-2.1,3.3l2.3,3.3h-3.2L152.9,72.8z
		 M152.9,67.4h-1.6v3.1h1.6c1.2,0,1.8-0.6,1.8-1.5C154.7,68,154.1,67.4,152.9,67.4z"/>
	<path class="st1" d="M158.8,70.3c0-3.1,2.5-5.5,5.8-5.5s5.8,2.3,5.8,5.5s-2.5,5.5-5.8,5.5S158.8,73.5,158.8,70.3z M167.5,70.3
		c0-1.8-1.2-3-2.8-3s-2.8,1.2-2.8,3s1.2,3,2.8,3S167.5,72.1,167.5,70.3z"/>
	<path class="st1" d="M175,67.4v2.3h4.6V72H175v3.6h-3V65.1h8.2v2.3H175z"/>
	<path class="st1" d="M181.7,65.1h3v10.5h-3V65.1z"/>
	<path class="st1" d="M189,67.4h-3.2V65h9.4v2.4H192v8.1h-3V67.4z"/>
	<path class="st1" d="M204.7,73.3v2.3h-8.4V65.1h8.2v2.3h-5.3v1.8h4.7v2.2h-4.7v1.9H204.7z"/>
	<path class="st1" d="M211,72.8h-1.6v2.8h-3V65.1h4.8c2.9,0,4.7,1.5,4.7,3.9c0,1.5-0.8,2.7-2.1,3.3l2.3,3.3h-3.2L211,72.8z
		 M211,67.4h-1.6v3.1h1.6c1.2,0,1.8-0.6,1.8-1.5C212.9,68,212.2,67.4,211,67.4z"/>
</g>
<g class="st8">
	<path class="st1" d="M254.9,73.5h-4.4l-0.8,2h-3l4.6-10.5h2.9l4.6,10.5h-3.1L254.9,73.5z M254,71.3l-1.4-3.4l-1.4,3.4H254z"/>
	<path class="st1" d="M269.1,69c0,2.4-1.8,3.9-4.7,3.9h-1.8v2.7h-3V65.1h4.8C267.3,65.1,269.1,66.6,269.1,69z M266.1,69
		c0-1-0.6-1.5-1.8-1.5h-1.6v3.1h1.6C265.5,70.5,266.1,69.9,266.1,69z"/>
	<path class="st1" d="M280,69c0,2.4-1.8,3.9-4.7,3.9h-1.8v2.7h-3V65.1h4.8C278.2,65.1,280,66.6,280,69z M277,69c0-1-0.6-1.5-1.8-1.5
		h-1.6v3.1h1.6C276.4,70.5,277,69.9,277,69z"/>
	<path class="st1" d="M286,72.8h-1.6v2.8h-3V65.1h4.8c2.9,0,4.7,1.5,4.7,3.9c0,1.5-0.8,2.7-2.1,3.3l2.3,3.3h-3.2L286,72.8z
		 M286,67.4h-1.6v3.1h1.6c1.2,0,1.8-0.6,1.8-1.5C287.9,68,287.3,67.4,286,67.4z"/>
	<path class="st1" d="M301,73.3v2.3h-8.4V65.1h8.2v2.3h-5.3v1.8h4.7v2.2h-4.7v1.9H301z"/>
	<path class="st1" d="M312.6,65.1v10.5h-2.4l-4.6-5.6v5.6h-2.9V65.1h2.4l4.6,5.6v-5.6H312.6z"/>
	<path class="st1" d="M314.7,65.1h5c3.5,0,5.9,2,5.9,5.2s-2.4,5.2-5.9,5.2h-5V65.1z M319.5,73.2c1.8,0,3-1.1,3-2.9s-1.2-2.9-3-2.9
		h-1.9v5.8H319.5z"/>
	<path class="st1" d="M331.7,72.8h-1.6v2.8h-3V65.1h4.8c2.9,0,4.7,1.5,4.7,3.9c0,1.5-0.8,2.7-2.1,3.3l2.3,3.3h-3.2L331.7,72.8z
		 M331.7,67.4h-1.6v3.1h1.6c1.2,0,1.8-0.6,1.8-1.5C333.5,68,332.9,67.4,331.7,67.4z"/>
	<path class="st1" d="M346.6,73.3v2.3h-8.4V65.1h8.2v2.3h-5.3v1.8h4.7v2.2h-4.7v1.9H346.6z"/>
</g>
<g id="Groupe_2576_00000018234994662879674980000015319398916087238541_" transform="translate(-22 32.416)">
	<g class="st8">
		<path class="st3" d="M263.1,182.2v8.4h-1.9v-6.8h-1.7v-1.6L263.1,182.2L263.1,182.2z"/>
	</g>
	<g class="st8">
		<path class="st3" d="M244,200.9v3.7h-1.9v-3.4c0-1-0.5-1.5-1.3-1.5c-0.9,0-1.5,0.6-1.5,1.7v3.2h-1.9v-6.5h1.8v0.8
			c0.5-0.6,1.3-0.9,2.1-0.9C242.9,198,244,198.9,244,200.9z"/>
		<path class="st3" d="M245.3,201.3c0-1.9,1.5-3.3,3.5-3.3c2.1,0,3.5,1.4,3.5,3.3c0,1.9-1.5,3.3-3.5,3.3
			C246.8,204.7,245.3,203.3,245.3,201.3z M250.5,201.3c0-1.1-0.7-1.8-1.6-1.8c-0.9,0-1.7,0.7-1.7,1.8s0.7,1.8,1.7,1.8
			C249.8,203.1,250.5,202.4,250.5,201.3z"/>
		<path class="st3" d="M260.1,198.1v6.5h-1.8v-0.8c-0.5,0.6-1.2,0.9-2,0.9c-1.6,0-2.8-0.9-2.8-2.9v-3.6h1.9v3.4
			c0,1.1,0.5,1.6,1.3,1.6c0.9,0,1.5-0.6,1.5-1.7v-3.2h1.9V198.1z"/>
		<path class="st3" d="M268.3,198.1l-2.7,6.5h-1.9l-2.7-6.5h1.9l1.8,4.4l1.8-4.4H268.3z"/>
		<path class="st3" d="M275.2,201.9h-4.9c0.2,0.8,0.9,1.3,1.8,1.3c0.7,0,1.2-0.2,1.6-0.6l1,1.1c-0.6,0.7-1.5,1-2.7,1
			c-2.2,0-3.7-1.4-3.7-3.3c0-1.9,1.5-3.3,3.4-3.3s3.4,1.3,3.4,3.3C275.2,201.5,275.2,201.7,275.2,201.9z M270.3,200.8h3.2
			c-0.1-0.8-0.7-1.3-1.6-1.3C271,199.4,270.4,199.9,270.3,200.8z"/>
		<path class="st3" d="M276.4,195.7h1.9v8.9h-1.9V195.7z"/>
		<path class="st3" d="M280.1,195.7h1.9v8.9h-1.9V195.7z"/>
		<path class="st3" d="M290,201.9h-4.9c0.2,0.8,0.9,1.3,1.8,1.3c0.7,0,1.2-0.2,1.6-0.6l1,1.1c-0.6,0.7-1.5,1-2.7,1
			c-2.2,0-3.7-1.4-3.7-3.3c0-1.9,1.5-3.3,3.4-3.3s3.4,1.3,3.4,3.3C290,201.5,290,201.7,290,201.9z M285.1,200.8h3.2
			c-0.1-0.8-0.7-1.3-1.6-1.3C285.8,199.4,285.2,199.9,285.1,200.8z"/>
	</g>
	<g class="st8">
		<path class="st3" d="M240.8,209.7h1.9v8.9h-1.9V209.7z"/>
		<path class="st3" d="M250.2,214.9v3.7h-1.8v-0.8c-0.3,0.6-1,0.9-2,0.9c-1.5,0-2.4-0.8-2.4-2c0-1.1,0.8-1.9,2.8-1.9h1.5
			c0-0.8-0.5-1.3-1.5-1.3c-0.7,0-1.4,0.2-1.9,0.6l-0.7-1.3c0.7-0.5,1.8-0.8,2.8-0.8C249,212,250.2,212.9,250.2,214.9z M248.3,216.5
			v-0.7H247c-0.9,0-1.2,0.3-1.2,0.8s0.4,0.8,1.1,0.8C247.5,217.4,248.1,217.1,248.3,216.5z"/>
		<path class="st3" d="M258.4,214.9v3.7h-1.9v-3.4c0-1-0.5-1.5-1.3-1.5c-0.9,0-1.5,0.6-1.5,1.7v3.2h-1.9v-6.5h1.8v0.8
			c0.5-0.6,1.3-0.9,2.1-0.9C257.3,212,258.4,212.9,258.4,214.9z"/>
		<path class="st3" d="M266.9,212.1v5.4c0,2.4-1.3,3.5-3.6,3.5c-1.2,0-2.4-0.3-3.2-0.9l0.7-1.3c0.6,0.4,1.5,0.7,2.3,0.7
			c1.3,0,1.9-0.6,1.9-1.8v-0.3c-0.5,0.5-1.2,0.8-2,0.8c-1.8,0-3.2-1.2-3.2-3.1c0-1.9,1.4-3.1,3.2-3.1c0.9,0,1.6,0.3,2.1,0.9v-0.8
			L266.9,212.1L266.9,212.1z M265,215.1c0-0.9-0.7-1.6-1.7-1.6s-1.7,0.6-1.7,1.6c0,0.9,0.7,1.6,1.7,1.6S265,216.1,265,215.1z"/>
		<path class="st3" d="M275.1,212.1v6.5h-1.8v-0.8c-0.5,0.6-1.2,0.9-2,0.9c-1.6,0-2.8-0.9-2.8-2.9v-3.6h1.9v3.4
			c0,1.1,0.5,1.6,1.3,1.6c0.9,0,1.5-0.6,1.5-1.7v-3.2h1.9V212.1z"/>
		<path class="st3" d="M283.1,215.9h-4.9c0.2,0.8,0.9,1.3,1.8,1.3c0.7,0,1.2-0.2,1.6-0.6l1,1.1c-0.6,0.7-1.5,1-2.7,1
			c-2.2,0-3.7-1.4-3.7-3.3c0-1.9,1.5-3.3,3.4-3.3s3.4,1.3,3.4,3.3C283.2,215.5,283.2,215.7,283.1,215.9z M278.2,214.8h3.2
			c-0.1-0.8-0.7-1.3-1.6-1.3C279,213.4,278.4,213.9,278.2,214.8z"/>
	</g>
</g>
<g class="st8">
	<path class="st3" d="M107.9,164.4h1.7v1.4H108v4.9h-1.9v-4.9h-1v-1.4h1v-0.3c0-1.5,0.9-2.4,2.5-2.4c0.5,0,1.1,0.1,1.4,0.3l-0.5,1.4
		c-0.2-0.1-0.5-0.2-0.8-0.2c-0.6,0-0.9,0.3-0.9,0.9v0.3H107.9z"/>
	<path class="st3" d="M116.1,167v3.7h-1.8v-0.8c-0.3,0.6-1,0.9-2,0.9c-1.5,0-2.4-0.8-2.4-2c0-1.1,0.8-1.9,2.8-1.9h1.5
		c0-0.8-0.5-1.3-1.5-1.3c-0.7,0-1.4,0.2-1.9,0.6l-0.7-1.3c0.7-0.5,1.8-0.8,2.8-0.8C114.9,164.1,116.1,165,116.1,167z M114.2,168.6
		V168h-1.3c-0.9,0-1.2,0.3-1.2,0.8s0.4,0.8,1.1,0.8C113.4,169.5,114,169.2,114.2,168.6z"/>
	<path class="st3" d="M124.4,167v3.7h-1.9v-3.4c0-1-0.5-1.5-1.3-1.5c-0.9,0-1.5,0.6-1.5,1.7v3.2h-1.9v-6.5h1.8v0.8
		c0.5-0.6,1.3-0.9,2.1-0.9C123.2,164.1,124.4,165,124.4,167z"/>
</g>
<g class="st8">
	<path class="st3" d="M111.4,175.8v8.9h-1.8V184c-0.5,0.6-1.2,0.8-2,0.8c-1.8,0-3.2-1.3-3.2-3.3s1.4-3.3,3.2-3.3
		c0.8,0,1.5,0.3,1.9,0.8v-3.1L111.4,175.8L111.4,175.8z M109.6,181.5c0-1.1-0.7-1.8-1.6-1.8s-1.7,0.7-1.7,1.8s0.7,1.8,1.7,1.8
		C108.8,183.2,109.6,182.6,109.6,181.5z"/>
	<path class="st3" d="M119.4,182h-4.9c0.2,0.8,0.9,1.3,1.8,1.3c0.7,0,1.2-0.2,1.6-0.6l1,1.1c-0.6,0.7-1.5,1-2.7,1
		c-2.2,0-3.7-1.4-3.7-3.3c0-1.9,1.5-3.3,3.4-3.3s3.4,1.3,3.4,3.3C119.4,181.6,119.4,181.8,119.4,182z M114.5,180.9h3.2
		c-0.1-0.8-0.7-1.3-1.6-1.3C115.3,179.6,114.6,180.1,114.5,180.9z"/>
	<path class="st3" d="M120.1,184.1l0.6-1.3c0.6,0.4,1.5,0.6,2.2,0.6c0.9,0,1.2-0.2,1.2-0.6c0-1.1-3.9,0-3.9-2.6c0-1.2,1.1-2.1,3-2.1
		c0.9,0,1.9,0.2,2.5,0.6l-0.6,1.3c-0.6-0.4-1.3-0.5-1.9-0.5c-0.8,0-1.2,0.3-1.2,0.6c0,1.1,3.9,0,3.9,2.6c0,1.2-1.1,2.1-3,2.1
		C121.8,184.8,120.7,184.5,120.1,184.1z"/>
</g>
<g class="st8">
	<path class="st3" d="M106.9,195v3.7H105v-3.4c0-1-0.5-1.5-1.2-1.5c-0.8,0-1.4,0.5-1.4,1.7v3.2h-1.9v-3.4c0-1-0.4-1.5-1.2-1.5
		c-0.8,0-1.4,0.5-1.4,1.7v3.2H96v-6.5h1.8v0.7c0.5-0.6,1.2-0.8,2-0.8c0.9,0,1.7,0.3,2.1,1.1c0.5-0.7,1.4-1.1,2.3-1.1
		C105.8,192.1,106.9,193,106.9,195z"/>
	<path class="st3" d="M114.3,195v3.7h-1.8v-0.8c-0.3,0.6-1,0.9-2,0.9c-1.5,0-2.4-0.8-2.4-2c0-1.1,0.8-1.9,2.8-1.9h1.5
		c0-0.8-0.5-1.3-1.5-1.3c-0.7,0-1.4,0.2-1.9,0.6l-0.7-1.3c0.7-0.5,1.8-0.8,2.8-0.8C113.2,192.1,114.3,193,114.3,195z M112.4,196.6
		V196h-1.3c-0.9,0-1.2,0.3-1.2,0.8s0.4,0.8,1.1,0.8C111.7,197.5,112.2,197.2,112.4,196.6z"/>
	<path class="st3" d="M120.2,198.4c-0.4,0.3-0.9,0.4-1.5,0.4c-1.5,0-2.4-0.8-2.4-2.3v-2.7h-1v-1.4h1v-1.6h1.9v1.6h1.6v1.4h-1.6v2.6
		c0,0.6,0.3,0.9,0.8,0.9c0.3,0,0.6-0.1,0.8-0.2L120.2,198.4z"/>
	<path class="st3" d="M127.8,195v3.7h-1.9v-3.4c0-1-0.5-1.5-1.3-1.5c-0.9,0-1.5,0.6-1.5,1.7v3.2h-1.9v-8.9h1.9v3.1
		c0.5-0.5,1.2-0.8,2.1-0.8C126.7,192.1,127.8,193,127.8,195z"/>
	<path class="st3" d="M128.9,198.1l0.6-1.3c0.6,0.4,1.5,0.6,2.2,0.6c0.9,0,1.2-0.2,1.2-0.6c0-1.1-3.9,0-3.9-2.6c0-1.2,1.1-2.1,3-2.1
		c0.9,0,1.9,0.2,2.5,0.6l-0.6,1.3c-0.6-0.4-1.3-0.5-1.9-0.5c-0.8,0-1.2,0.3-1.2,0.6c0,1.1,3.9,0,3.9,2.6c0,1.2-1.1,2.1-3,2.1
		C130.6,198.8,129.5,198.5,128.9,198.1z"/>
</g>
</svg>
