<?xml version="1.0" encoding="utf-8"?>
<!-- Generator: Adobe Illustrator 27.1.1, SVG Export Plug-In . SVG Version: 6.00 Build 0)  -->
<svg version="1.1" xmlns="http://www.w3.org/2000/svg" xmlns:xlink="http://www.w3.org/1999/xlink" x="0px" y="0px"
	 viewBox="0 0 360 399" style="enable-background:new 0 0 360 399;" xml:space="preserve">
<style type="text/css">
	.st0{fill:none;stroke:#272F60;stroke-dasharray:2;}
	.st1{fill:#44C400;}
	.st2{clip-path:url(#SVGID_00000115517137942567891260000015156757364130863762_);}
	.st3{fill:#272F60;}
	.st4{clip-path:url(#SVGID_00000113352505357969093050000018386692560489270915_);}
	.st5{clip-path:url(#SVGID_00000019680445043448937720000015560649770611648422_);}
	.st6{fill:#FFFFFF;}
	.st7{clip-path:url(#SVGID_00000101101696110214447590000007422616838588826765_);}
	.st8{font-family:'Montserrat-Bold';}
	.st9{font-size:20px;}
	.st10{fill-rule:evenodd;clip-rule:evenodd;fill:#FFBCC6;}
	.st11{fill-rule:evenodd;clip-rule:evenodd;fill:#272F60;}
	.st12{fill:#FFBCC6;}
	.st13{fill-rule:evenodd;clip-rule:evenodd;fill:#FFFFFF;}
	.st14{fill-rule:evenodd;clip-rule:evenodd;fill:#FB657C;}
	.st15{fill:#FB657C;}
	.st16{fill:none;stroke:#44C400;stroke-width:3;}
	.st17{fill:#FF647B;}
	.st18{display:none;}
	.st19{enable-background:new    ;}
	.st20{display:inline;}
	.st21{display:inline;enable-background:new    ;}
</style>
<g id="Calque_1">
	<g id="FONDS">
	</g>
	<g id="ILLUSTRATIONS">
		<g id="Groupe_2800" transform="translate(-24 -261)">
			<line id="Ligne_129_00000101103434802478368100000014938454193971879829_" class="st0" x1="203" y1="326" x2="203" y2="659"/>
			<g id="Groupe_2571_00000001641218215328168010000007498477003902179495_" transform="translate(-68.5 -418)">
				<path id="Rectangle_632_00000069397180369050017760000002176983798473616019_" class="st1" d="M452.5,694.5L452.5,694.5
					c0,8.6-6.9,15.5-15.5,15.5H108c-8.6,0-15.5-6.9-15.5-15.5l0,0c0-8.6,6.9-15.5,15.5-15.5h329C445.6,679,452.5,685.9,452.5,694.5z
					"/>
			</g>
			<g id="Groupe_2595_00000157265727026129267740000011126858620433698945_" transform="translate(64.269 633.436)">
				<g>
					<g>
						<defs>
							<rect id="SVGID_1_" x="-11" y="0" width="45.7" height="0.8"/>
						</defs>
						<clipPath id="SVGID_00000070831048545679609410000013204872085242835127_">
							<use xlink:href="#SVGID_1_"  style="overflow:visible;"/>
						</clipPath>
						
							<g id="Groupe_2578_00000153678784455264260570000017373623252283159456_" style="clip-path:url(#SVGID_00000070831048545679609410000013204872085242835127_);">
							<path id="Tracé_7699_00000170962475590426757500000014749107045586985126_" class="st3" d="M-10.4,0.8h44.6
								c0.3,0,0.6-0.2,0.6-0.4S34.5,0,34.2,0h-44.6C-10.7,0-11,0.2-11,0.4S-10.7,0.8-10.4,0.8"/>
						</g>
					</g>
				</g>
			</g>
			<g id="Groupe_2598" transform="translate(318 633.436)">
				<g>
					<g>
						<defs>
							<rect id="SVGID_00000112618592920245924070000015053027406656113311_" x="-11" y="0" width="45.7" height="0.8"/>
						</defs>
						<clipPath id="SVGID_00000105393837429044192470000015206884980592270492_">
							<use xlink:href="#SVGID_00000112618592920245924070000015053027406656113311_"  style="overflow:visible;"/>
						</clipPath>
						
							<g id="Groupe_2578-2_00000006710310802995232830000003213063777694358708_" style="clip-path:url(#SVGID_00000105393837429044192470000015206884980592270492_);">
							<path id="Tracé_7699-2_00000032640234412071252070000011274181776080349628_" class="st3" d="M-10.4,0.8h44.6
								c0.3,0,0.6-0.2,0.6-0.4S34.5,0,34.2,0h-44.6C-10.7,0-11,0.2-11,0.4S-10.7,0.8-10.4,0.8"/>
						</g>
					</g>
				</g>
			</g>
			<g id="Groupe_2597" transform="translate(-224.143 114.283)">
				<g id="Groupe_2029" transform="translate(267.643 150.651)">
					<g>
						<g>
							<defs>
								<rect id="SVGID_00000065076191972495551730000008544011388636156589_" x="-11" y="0" width="24.6" height="21.1"/>
							</defs>
							<clipPath id="SVGID_00000081641740786533086610000007486087062709731747_">
								<use xlink:href="#SVGID_00000065076191972495551730000008544011388636156589_"  style="overflow:visible;"/>
							</clipPath>
							
								<g id="Groupe_2028" transform="translate(0 0)" style="clip-path:url(#SVGID_00000081641740786533086610000007486087062709731747_);">
								<path id="Tracé_6887" class="st6" d="M-10.1,9.7H-9c0.5-2.3,1.8-4.3,3.7-5.6l1,1.5c-3.2,2.1-4.1,6.3-2.1,9.6
									c0.2,0.3,0.2,0.6,0,0.9l-1.4,2.5l1.5,0.9l0.9-1.6c0.3-0.4,0.8-0.6,1.2-0.3c0,0,0,0,0,0c1.1,0.7,2.4,1.1,3.7,1.1h3.5
									c1.1,0,2.1-0.2,3.1-0.7c0.4-0.2,0.9-0.1,1.2,0.4l0.7,1.3l1.5-0.9l-1-1.8c-0.2-0.3-0.2-0.7,0.1-1c0.5-0.6,0.9-1.4,1.1-2.1
									c0.1-0.3,0.3-0.5,0.6-0.6l1.6-0.5v-2.1l-1.3-0.2c-0.3-0.1-0.6-0.3-0.7-0.6c-0.2-1-0.7-1.9-1.3-2.6C8.4,6.8,8.3,6.5,8.4,6.3
									c0-0.9,0-1.7-0.2-2.6C7.4,4,6.7,4.3,6,4.7L5.1,3.2C6.2,2.5,7.3,2,8.5,1.7c0.4-0.1,0.9,0.2,1,0.6c0.4,1.2,0.5,2.5,0.5,3.8
									c0.6,0.7,1,1.6,1.3,2.4l1.5,0.2c0.4,0.1,0.7,0.4,0.7,0.9v3.5c0,0.4-0.2,0.7-0.6,0.8l-1.8,0.6c-0.2,0.6-0.5,1.2-0.9,1.8
									l0.7,1.2c0.5,0.8,0.2,1.9-0.6,2.4l-1.5,0.9c-0.3,0.2-0.6,0.2-0.9,0.2c-0.2,0-0.3,0-0.5-0.1c-0.5-0.1-0.8-0.4-1.1-0.8
									l-0.3-0.6c-1,0.4-2.1,0.6-3.1,0.6h-3.5c-1.3,0-2.6-0.3-3.8-0.9l-0.5,0.9c-0.5,0.8-1.6,1.1-2.4,0.7c0,0,0,0,0,0L-8.7,20
									c-0.8-0.5-1.1-1.6-0.6-2.4c0,0,0,0,0,0l1.1-2c-0.7-1.3-1-2.7-1.1-4.2h-0.9c-0.5,0-0.9-0.4-0.9-0.9
									C-11,10.1-10.6,9.7-10.1,9.7z"/>
								<path id="Tracé_6888" class="st6" d="M5.7,8.8c0,0.5,0.4,0.9,0.9,0.9c0.5,0,0.9-0.4,0.9-0.9S7.1,7.9,6.6,7.9
									C6.1,7.9,5.7,8.3,5.7,8.8"/>
							</g>
						</g>
					</g>
				</g>
				<g id="Groupe_2033" transform="translate(275.266 150.65)">
					<g>
						<g>
							<defs>
								<rect id="SVGID_00000057117574938427467900000011866038759988808117_" x="-11" y="0" width="7.4" height="7.4"/>
							</defs>
							<clipPath id="SVGID_00000014596641820353787180000015218124481110505603_">
								<use xlink:href="#SVGID_00000057117574938427467900000011866038759988808117_"  style="overflow:visible;"/>
							</clipPath>
							
								<g id="Groupe_2032" transform="translate(0 0)" style="clip-path:url(#SVGID_00000014596641820353787180000015218124481110505603_);">
								<path id="Tracé_6891" class="st6" d="M-7.3,7.4L-7.3,7.4c2.1,0,3.7-1.7,3.7-3.7C-3.6,1.7-5.2,0-7.3,0S-11,1.7-11,3.7
									c0,1,0.4,1.9,1.1,2.6C-9.2,7.1-8.3,7.4-7.3,7.4L-7.3,7.4z"/>
								<path id="Tracé_6892" class="st1" d="M-8.5,3.4h0.9V1.9c0-0.2,0.2-0.3,0.4-0.3c0.2,0,0.3,0.2,0.3,0.3v1.8
									c0,0.2-0.2,0.4-0.4,0.4h-1.3c-0.2,0-0.3-0.2-0.3-0.4C-8.9,3.5-8.7,3.4-8.5,3.4L-8.5,3.4z"/>
							</g>
						</g>
					</g>
				</g>
			</g>
			<g transform="matrix(1, 0, 0, 1, 24, 261)">
				<path class="st1" d="M26,319.9c-1.4,0-2.5-1.1-2.5-2.5s1.1-2.5,2.5-2.5c33.9,0,65.1-9,92.7-26.7c28.7-18.4,46.1-41.5,55.6-57.6
					c10.6-17.9,29.1-43.5,56.7-64.4c29-21.8,60.9-32.9,94.9-32.9c1.4,0,2.5,1.1,2.5,2.5s-1.1,2.5-2.5,2.5
					c-27.4,0-96.5,9.2-147.3,94.8c-9.8,16.6-27.8,40.3-57.2,59.2C93,310.6,60.9,319.9,26,319.9z"/>
			</g>
			<path id="Rectangle_632-2_00000100378643607598919930000016572663992632866997_" class="st1" d="M121.5,575.9L121.5,575.9
				c0,8.6-6.9,15.5-15.5,15.5H51c-8.6,0-15.5-6.9-15.5-15.5l0,0c0-8.6,6.9-15.5,15.5-15.5h55C114.6,560.4,121.5,567.3,121.5,575.9z"
				/>
			<text id="saved_start_time" transform="matrix(1 0 0 1 44.8197 583.406)" class="st6 st8 st9">15 min</text>
			<path id="Rectangle_632-3_00000024690808362388642210000012349646037124983723_" class="st1" d="M379,395.5L379,395.5
				c0,8.6-6.9,15.5-15.5,15.5h-55c-8.6,0-15.5-6.9-15.5-15.5l0,0c0-8.6,6.9-15.5,15.5-15.5h55C372.1,380,379,386.9,379,395.5z"/>
			<text id="saved_year_time" transform="matrix(1 0 0 1 311.7406 403)" class="st6 st8 st9">200 h</text>
			<text xmlns="http://www.w3.org/2000/svg" transform="matrix(1 0 0 1 46.5531082 355.5)" class="st3" id="saved_afternoon_time">86 afternoons</text>
			<text xmlns="http://www.w3.org/2000/svg" transform="matrix(1 0 0 1 260.6531982 555.6870117)" class="st3" id="saved_books_time">45 books</text>
			<g id="Groupe_2599" transform="translate(78.269 391.974)">
				<g>
					<g id="Groupe_1081" transform="translate(0 0)">
						<path id="Tracé_4012" class="st3" d="M23.4,68.1c-0.1,0-0.1-0.1-0.1-0.2c0.4-1.3,0.6-2.7,0.6-4.1c0,0-0.1-2.1-0.3-4.5
							c-0.3-2.3-0.6-4.6-1.1-6.8c0-0.1,0-0.2,0.1-0.2c0.1,0,0.2,0,0.2,0.1l0,0c0.5,2.3,0.9,4.5,1.1,6.8c0.2,2.4,0.3,4.5,0.3,4.6
							c0,1.4-0.2,2.8-0.7,4.2C23.5,68.1,23.4,68.2,23.4,68.1L23.4,68.1"/>
						<path id="Tracé_4013" class="st3" d="M24.8,58.4c0,0-0.1-0.1-0.1-0.1c-0.5-2.1-1.2-4.2-2-6.2c0-0.1,0-0.2,0.1-0.2
							c0,0,0,0,0,0c0.1,0,0.2,0,0.2,0.1c0.8,2,1.5,4.1,2,6.2C25,58.3,25,58.4,24.8,58.4C24.8,58.4,24.8,58.4,24.8,58.4L24.8,58.4z"
							/>
						<path id="Tracé_4014" class="st10" d="M24.2,64.2l-0.2,0c-0.3,0-0.6-0.2-0.7-0.6l-0.2-2.7c0-0.3,0.2-0.6,0.6-0.7c0,0,0,0,0,0
							l0.2,0c0.3,0,0.6,0.2,0.7,0.6l0.2,2.7C24.8,63.9,24.5,64.2,24.2,64.2C24.2,64.2,24.2,64.2,24.2,64.2"/>
						<path id="Tracé_4015" class="st3" d="M23.5,64.3c-0.2-0.1-0.3-0.3-0.3-0.5L23,60.7c0-0.3,0.2-0.5,0.5-0.6c0,0,0,0,0,0l0.7,0
							c0.1,0,0.3,0,0.4,0.1c0.1,0.1,0.2,0.2,0.2,0.4l0.2,3.2c0,0.3-0.2,0.5-0.5,0.6c0,0,0,0,0,0l0,0l-0.7,0
							C23.7,64.4,23.6,64.4,23.5,64.3z M24.3,60.4C24.3,60.4,24.2,60.4,24.3,60.4l-0.8,0c-0.1,0-0.1,0-0.1,0.1c0,0-0.1,0.1,0,0.1
							l0.2,3.2c0,0.1,0.1,0.2,0.2,0.2c0,0,0,0,0,0l0.7,0c0.1,0,0.1,0,0.1-0.1c0,0,0.1-0.1,0-0.1l-0.2-3.2
							C24.4,60.6,24.4,60.5,24.3,60.4C24.3,60.5,24.3,60.4,24.3,60.4L24.3,60.4z M24.4,64.2L24.4,64.2z"/>
						<path id="Tracé_4016" class="st11" d="M25,57.9c0.2,0.1,0.3,0.3,0.3,0.6s-0.3,0.3-0.6,0.3c-0.2-0.1-0.3-0.3-0.3-0.6
							C24.5,57.9,24.8,57.8,25,57.9"/>
						<path id="Tracé_4017" class="st11" d="M23.5,67.7c0.2,0.1,0.3,0.3,0.3,0.6s-0.3,0.3-0.6,0.3c-0.2-0.1-0.3-0.3-0.3-0.6
							C23.1,67.7,23.3,67.6,23.5,67.7"/>
						<path id="Tracé_4018" class="st3" d="M41,27.4c-0.1,0-0.1,0-0.2-0.1c-0.5-1-0.6-2.1-0.2-3.1c0.2-0.7,0.7-2.2,1.3-2.2
							c0.5,0,0.6,0.6,0.5,1.4c0,0.1,0.1,0.2,0.2,0.2c0.1,0,0.1,0,0.2-0.1c0.9-1.1,2.7-3.4,3.8-2.9c0.8,0.3,1.1,2.5,0.9,3.6
							c-0.2,1.1-3.1,3.3-4.6,3.6C42.8,27.8,41,27.4,41,27.4z"/>
						<path id="Tracé_4019" class="st3" d="M-3,38.3c0.1,0,0.1,0,0.2,0.1c0.3,1,0.2,2.2-0.4,3.1c-0.4,0.7-1,2-1.7,1.9
							c-0.5-0.1-0.4-0.7-0.2-1.5c0.1-0.2-0.1-0.3-0.3-0.2c-1.2,0.5-1.1,2.3-2,2.5c-1,0.3-1.8-3.3-1.3-4.3c0.5-0.8,1.3-1.5,2.2-1.9
							c0.7-0.3,1.6-0.4,2.4-0.3L-3,38.3z"/>
						<path id="Tracé_4020" class="st3" d="M3.8,62c-1.4,0.6-2.7,1.5-3.9,2.6c-0.8,1-1,2.3-0.7,3.5c0.1,0.3,0.3,0.6,0.6,0.7
							c0.3,0.1,0.6,0.1,0.9-0.1l4.5-3c0.4-0.3,0.5-0.9,0.3-1.3c0,0,0,0,0,0C4.8,63.5,3.8,62,3.8,62z"/>
						<path id="Tracé_4021" class="st3" d="M5,68.3c1.1,1.1,2,2.4,2.7,3.8C8,73.3,7.8,74.6,7,75.6c-0.2,0.3-0.5,0.4-0.8,0.4
							c-0.3,0-0.6-0.1-0.8-0.4l-3.1-4.4c-0.3-0.4-0.2-1,0.2-1.3c0,0,0,0,0,0C3.5,69.3,5,68.3,5,68.3z"/>
						<path id="Tracé_4022" class="st3" d="M18.7,66.2c-2.4,3.1-5.8,5.5-9.5,6.7c-0.6,0.1-1.2,0-1.6-0.4L5,68.4
							c-0.2-0.3,0.3-1.4,0.9-1.8c1.3-0.9,4.6-2,6.7-5.5c1-1.9,1.6-4,1.6-6.1c0-0.4-0.2-0.7-0.5-0.8L11.5,53l-0.7-0.4
							c-0.3-0.1-0.5-0.2-0.8-0.2c0,0-0.1,0-0.1,0c-2.1,0.2-5.5,1-6.4,3.1c-1,2.4,0.4,4.4,0.7,5.7c0.1,0.5,0,1.2-0.3,1.4l-4.1,2.3
							c-0.3,0.2-1.4-0.3-2.1-1c-1.3-1.5-3-7.8-0.9-12.5c1.7-3.7,5.5-4.8,8.2-5.4c6.8-1.6,10.1,0.6,10.1,0.6l7,3c0,1.5,0.8,1,0.7,2.8
							C22.7,56.1,21.5,62.2,18.7,66.2z"/>
						<path id="Tracé_4023" class="st12" d="M12.4,52.9c0,0-0.4,0-0.9,0.1l-0.7-0.4c-0.3-0.1-0.5-0.2-0.8-0.2l0.1,0
							c0.2-0.1,0.4-0.1,0.7-0.1c0.5-0.1,1-0.1,1.6-0.1c0.2,0,0.3,0.1,0.3,0.3C12.6,52.7,12.5,52.8,12.4,52.9"/>
						<path id="Tracé_4024" class="st12" d="M8,51.5c-0.2,0-0.4,0.1-0.5,0.1c-0.2,0-0.3-0.1-0.3-0.2c0-0.2,0.1-0.3,0.2-0.3
							c0,0,0,0,0,0c0.2,0,0.4-0.1,0.6-0.1c0.2,0,0.3,0.1,0.3,0.2c0,0,0,0,0,0C8.2,51.3,8.1,51.5,8,51.5z"/>
						<path id="Tracé_4025" class="st12" d="M6.3,51.8c-0.2,0-0.4,0.1-0.5,0.2c-0.1,0-0.3,0-0.4-0.2c-0.1-0.1,0-0.3,0.2-0.4
							c0,0,0,0,0,0c0.2-0.1,0.4-0.1,0.6-0.2c0.2,0,0.3,0,0.3,0.2C6.6,51.6,6.5,51.8,6.3,51.8L6.3,51.8L6.3,51.8z"/>
						<path id="Tracé_4026" class="st12" d="M4.8,52.4c-0.2,0.1-0.3,0.2-0.5,0.3c-0.1,0.1-0.3,0-0.4-0.1c-0.1-0.1,0-0.3,0.1-0.4
							c0,0,0,0,0,0c0.2-0.1,0.3-0.2,0.5-0.3c0.1-0.1,0.3,0,0.4,0.1c0,0,0,0,0,0C5,52.2,4.9,52.3,4.8,52.4z"/>
						<path id="Tracé_4027" class="st12" d="M3.4,53.3l-0.2,0.2L3,53.7c-0.1,0.1-0.3,0.1-0.4,0c-0.1-0.1-0.1-0.3,0-0.4c0,0,0,0,0,0
							l0.2-0.2L3,52.9c0.1-0.1,0.3-0.1,0.4,0c0,0,0,0,0,0C3.5,53,3.5,53.2,3.4,53.3z"/>
						<path id="Tracé_4028" class="st12" d="M2.4,54.5c-0.1,0.2-0.2,0.3-0.2,0.5c0,0.1-0.1,0.1-0.2,0.1c-0.1,0-0.1,0-0.2,0
							c-0.1,0-0.1-0.1-0.2-0.2c0-0.1,0-0.2,0-0.2c0.1-0.2,0.2-0.4,0.3-0.5c0.1-0.1,0.3-0.2,0.4-0.1c0,0,0,0,0,0
							C2.4,54.2,2.5,54.4,2.4,54.5z"/>
						<path id="Tracé_4029" class="st12" d="M1.8,56c0,0.2-0.1,0.4-0.1,0.5c0,0.2-0.2,0.3-0.3,0.2c-0.2,0-0.3-0.1-0.3-0.3
							c0,0,0,0,0,0c0-0.2,0.1-0.4,0.1-0.6c0-0.2,0.2-0.2,0.3-0.2C1.7,55.7,1.8,55.9,1.8,56"/>
						<path id="Tracé_4030" class="st12" d="M1.6,57.7c0,0.2,0,0.4,0,0.5c0,0.2-0.1,0.3-0.3,0.3c-0.2,0-0.3-0.1-0.3-0.3
							c0-0.2,0-0.4,0-0.6c0-0.2,0.1-0.3,0.3-0.3S1.6,57.5,1.6,57.7z"/>
						<path id="Tracé_4031" class="st12" d="M1.9,59.3c0,0.2,0.1,0.4,0.1,0.5c0,0.1,0,0.3-0.2,0.4c0,0,0,0,0,0
							c-0.1,0-0.3,0-0.4-0.2c0,0,0,0,0,0c-0.1-0.2-0.1-0.4-0.2-0.6c0-0.2,0.1-0.3,0.2-0.3C1.7,59,1.8,59.1,1.9,59.3L1.9,59.3z"/>
						<path id="Tracé_4032" class="st12" d="M2.4,60.8c0.1,0.2,0.2,0.3,0.2,0.5c0.1,0.1,0,0.3-0.1,0.4c-0.1,0.1-0.3,0-0.4-0.1
							c0,0,0,0,0,0c-0.1-0.2-0.2-0.4-0.3-0.5c-0.1-0.1,0-0.3,0.1-0.4c0,0,0,0,0,0C2.2,60.6,2.3,60.7,2.4,60.8z"/>
						<path id="Tracé_4033" class="st3" d="M-4.7,35.6c2.7-3.2,6.4-5.4,10.5-6.2c1.8-0.4,5.3-1,7.2-0.7c0,0,10.5,1,13.3,2.5
							c2.5,1.3,6.4-0.3,8.5-1.8c1.3-0.9,2.5-1.9,3.6-3c1.7-1.6,2.3-1.4,3.1-0.8c0.4,0.4,1,0.8,1.4,1.2c0.8,0.6,1.1,1.7,0.6,2.7
							c-0.5,1.2-2.5,4.3-6.8,7.1c-2.6,1.6-5.5,2.7-8.4,3.4c-0.4,0.1-0.7,0.4-0.8,0.8c-0.5,1.9-1.4,5-2.3,7.9c-0.9,2.6-2.6,4.1-3.3,4
							c-0.6-0.2-9-1.6-15.2-6.2c-0.4-0.3-0.8-1.4,0.1-4.1c0.6-1.7,1.7-4,2.3-5.4c0.1-0.2,0-0.5-0.2-0.6c0,0-0.1,0-0.1,0
							c-1.4-0.2-2.9-0.1-4.2,0.5c-3.4,1.1-4,2.4-5.8,3.2c-0.9,0.3-1.8,0.1-2.6-0.4c-0.5-0.4-0.9-0.8-1.2-1.2
							C-5.6,37.6-5.5,36.4-4.7,35.6z"/>
						<path id="Tracé_4034" class="st12" d="M8.7,34.9l0.1,0.5c0,0.1,0.1,0.3,0.1,0.5c0,0.1,0,0.2,0.1,0.3c0,0.2,0.1,0.3,0.1,0.4
							l0,0.2c0,0.1,0.1,0.1,0.2,0.1s0.2-0.1,0.2-0.1c0,0,0-0.1,0-0.2s0-0.3,0-0.5c0-0.1,0-0.2-0.1-0.3c0-0.2-0.1-0.3-0.1-0.5
							c0-0.2-0.1-0.3-0.2-0.5c0-0.1-0.1-0.1-0.2-0.1C8.7,34.7,8.7,34.8,8.7,34.9z"/>
						<path id="Tracé_4035" class="st6" d="M25.7,7.1c6.9,2.6,10.3,10.3,7.7,17.2c-2.6,6.9-10.3,10.3-17.2,7.7
							C9.3,29.4,5.9,21.7,8.5,14.8C11.1,7.9,18.8,4.5,25.7,7.1"/>
						<path id="Tracé_4036" class="st12" d="M14.6,31.2c-1-0.6-1.9-1.2-2.8-2c-4.1-6.1-2.5-14.4,3.6-18.5C20.6,7.1,27.5,7.7,32,12
							c4.2,6.1,2.6,14.4-3.4,18.5C24.4,33.4,19,33.7,14.6,31.2"/>
						<path id="Tracé_4037" class="st3" d="M16.1,32.4C9,29.7,5.4,21.7,8.1,14.5S18.8,3.7,25.9,6.4S36.7,17.1,34,24.3
							c-2.5,6.6-9.6,10.3-16.5,8.5C17.1,32.7,16.6,32.6,16.1,32.4z M25.6,7.5c-0.4-0.2-0.9-0.3-1.3-0.4c-6.9-1.8-14,2.4-15.7,9.3
							s2.4,14,9.3,15.7c6.9,1.8,14-2.4,15.7-9.3C35.2,16.4,31.8,9.8,25.6,7.5L25.6,7.5z"/>
						<path id="Tracé_4038" class="st3" d="M27.2,31.3L26.4,31c-0.2-0.1-0.5-0.2-0.8-0.3c-0.2,0-0.3-0.1-0.5-0.1
							c-0.3-0.1-0.6-0.1-0.8-0.2s-0.3,0-0.3,0c-0.1,0-0.2,0-0.2,0.1c0,0,0,0,0,0c0,0.1,0.1,0.2,0.2,0.2c0,0,0.1,0,0.3,0.1
							s0.5,0.1,0.8,0.2c0.2,0.1,0.3,0.1,0.5,0.1l0.8,0.2c0.4,0.1,0.8,0.2,0.8,0.2c0.1,0,0.2,0,0.2-0.1
							C27.3,31.4,27.3,31.3,27.2,31.3C27.2,31.3,27.2,31.3,27.2,31.3"/>
						<path id="Tracé_4039" class="st3" d="M11.3,28.8c0,0,0.3,0,0.6,0c0.2,0,0.4,0,0.6,0.1c0.1,0,0.3,0,0.4,0
							c0.2,0,0.5,0.1,0.6,0.1s0.2,0.1,0.2,0.1c0.1,0,0.2,0,0.2-0.1c0-0.1,0-0.2-0.1-0.2c0,0,0,0,0,0c0,0-0.1,0-0.3-0.1
							c-0.2-0.1-0.4-0.1-0.6-0.2c-0.1,0-0.3,0-0.4-0.1c-0.2,0-0.4,0-0.7,0c-0.2,0-0.4,0-0.7,0c-0.1,0-0.2,0.1-0.1,0.2c0,0,0,0,0,0
							C11.2,28.7,11.3,28.8,11.3,28.8"/>
						<path id="Tracé_4040" class="st3" d="M23.6,30.9c0,0-0.1,0.3-0.1,0.8c0,0.2-0.1,0.5-0.1,0.8c0,0.2,0,0.3,0,0.5
							c0,0.6-0.1,1.1-0.1,1.1c0,0.1,0,0.2,0.1,0.2s0.2,0,0.2-0.1c0,0,0,0,0,0c0,0,0.1-0.5,0.2-1.1c0-0.2,0-0.3,0.1-0.5
							c0-0.3,0.1-0.5,0.1-0.8c0-0.5,0.1-0.8,0.1-0.8c0-0.1,0-0.2-0.1-0.2C23.7,30.7,23.6,30.7,23.6,30.9
							C23.6,30.9,23.6,30.9,23.6,30.9z"/>
						<path id="Tracé_4041" class="st3" d="M14.1,29.2c0.2,0.1,0.4,0.2,0.6,0.3c0.5,0.2,1.1,0.4,1.6,0.5c0.7,0.2,1.5,0.4,2.3,0.5
							c0.5,0.1,1,0.2,1.4,0.2c0.8,0.1,1.6,0.2,2.4,0.2c0.2,0,0.5,0,0.7,0c0.1,0,0.2,0,0.3,0c0.2,0,0.3-0.1,0.4-0.2c0,0,0-0.1,0-0.1
							c0,0,0,0,0-0.1c0,0,0-0.1-0.1-0.1c0,0-0.1,0-0.1,0c0,0-0.1,0-0.1,0c-0.1,0-0.2,0-0.3,0.1c-0.1,0-0.2,0-0.2,0
							c-0.2,0-0.5,0-0.7,0c-0.8,0-1.5-0.1-2.3-0.2c-0.5-0.1-0.9-0.2-1.4-0.2c-0.8-0.2-1.6-0.3-2.3-0.5c-0.7-0.2-1.2-0.3-1.6-0.5
							c-0.2-0.1-0.3-0.1-0.5-0.2s-0.2-0.1-0.2-0.1c-0.1-0.1-0.2-0.1-0.3-0.2c0,0,0,0,0,0l0,0c0,0,0,0-0.1,0c0,0,0,0-0.1,0.1
							c0,0,0,0.1,0,0.1c0,0,0,0.1,0,0.1C13.9,29,14,29.1,14.1,29.2z"/>
						<path id="Tracé_4042" class="st13" d="M17.1,35.6c0.9,0.3,1.3,1.3,1,2.2c-0.3,0.9-1.3,1.3-2.2,1c-0.9-0.3-1.3-1.3-1-2.2
							C15.2,35.7,16.2,35.2,17.1,35.6"/>
						<path id="Tracé_4043" class="st14" d="M16.8,36.3c0.5,0.2,0.8,0.8,0.6,1.3c-0.2,0.5-0.8,0.8-1.3,0.6
							c-0.5-0.2-0.8-0.8-0.6-1.3C15.7,36.3,16.3,36.1,16.8,36.3C16.8,36.3,16.8,36.3,16.8,36.3"/>
						<path id="Tracé_4044" class="st12" d="M28.1,39.6c0,0,0.1-0.3,0.1-0.9c0-0.3,0-0.6,0-1c0-0.2,0-0.4,0-0.6c0-0.1,0-0.2,0-0.3
							l0-0.1c0,0,0,0,0,0l0-0.1c-0.1-0.4-0.5-0.7-0.9-0.6l-0.8,0.1l-1.6,0.3c-0.6,0.1-1.3,0.2-1.9,0.3l-4.3,0.8
							c-0.4,0.1-0.7,0.2-0.7,0.3s0.4,0.1,0.7,0l4.3-0.7c0.6-0.1,1.2-0.2,1.9-0.3l1.6-0.3l0.8-0.1l0,0h0h0c0,0,0,0,0.1,0
							c0,0,0.1,0,0.1,0c0.1,0,0.1,0.1,0.2,0.1c0,0,0,0.1,0,0.1c0,0,0,0,0,0.1l0,0.1c0,0.1,0,0.2,0,0.3c0,0.2,0,0.4,0,0.6
							c0,0.4,0,0.7,0,1s0,0.5,0,0.7l0,0.2c-0.1,0.4-0.1,0.7,0,0.8c0.1,0,0.1-0.1,0.2-0.2C28,40,28.1,39.8,28.1,39.6z"/>
						<path id="Tracé_4045" class="st12" d="M9.5,36.7L9.5,36.7c0.2,0,0.2,0,0.4-0.1c0.2,0,0.5-0.1,0.9-0.1c0.4,0,0.8-0.1,1.3-0.1
							l0.8,0c0.4,0,0.8,0,1.3,0.1c0.2,0,0.3,0,0.4,0.1l0.1,0c0.1,0,0.1,0,0.2,0c0.1,0,0.1,0,0.1-0.1c0.1-0.1-0.1-0.2-0.2-0.3l-0.1,0
							c-0.1,0-0.3-0.1-0.4-0.1c-0.4-0.1-0.9-0.1-1.3-0.2c-0.1,0-0.3,0-0.4,0H12c-0.5,0-0.9,0-1.3,0.1c-0.4,0-0.7,0.1-0.9,0.2
							c-0.1,0-0.2,0-0.3,0.1l-0.1,0c-0.2,0-0.3,0.2-0.3,0.2C9.1,36.7,9.3,36.8,9.5,36.7z"/>
						<path id="Tracé_4046" class="st12" d="M15.8,38.9c-1-0.4-1.5-1.4-1.1-2.4c0.4-1,1.4-1.5,2.4-1.1c0.8,0.3,1.2,1,1.2,1.8
							c0,1-0.9,1.8-1.9,1.8c0,0,0,0,0,0C16.2,39,16,39,15.8,38.9z M17,35.7c-0.2-0.1-0.3-0.1-0.5-0.1c-0.9,0-1.6,0.6-1.6,1.5
							c0,0.9,0.6,1.6,1.5,1.6c0.9,0,1.6-0.6,1.6-1.5C18.1,36.6,17.7,36,17,35.7"/>
						<path id="Tracé_4047" class="st12" d="M18.4,36.3l1.6-0.6l1.6-0.6c0.3-0.1,0.6-0.3,0.9-0.4l0.4-0.2l0.1,0l0.1,0
							c0,0,0.1,0,0.1-0.1c0.1-0.1,0.1-0.1,0.2-0.2c0.1-0.1,0.2-0.3,0.2-0.4c0,0,0-0.1,0-0.1s0-0.1,0-0.1c0-0.1,0-0.1,0-0.2l0.1-0.7
							c0-0.2,0-0.4-0.1-0.4s-0.2,0.2-0.2,0.4l-0.1,0.7c0,0.1,0,0.1,0,0.2c0,0,0,0.1,0,0.1c0,0,0,0,0,0.1c0,0.1-0.1,0.2-0.1,0.3
							c0,0-0.1,0.1-0.1,0.1c0,0,0,0-0.1,0c0,0,0,0-0.1,0l-0.4,0.2c-0.3,0.1-0.6,0.2-1,0.4c-0.5,0.2-1.1,0.5-1.6,0.7
							c-0.9,0.4-1.6,0.7-1.6,0.7c-0.2,0.1-0.3,0.2-0.3,0.3C18,36.4,18.2,36.4,18.4,36.3z"/>
						<path id="Tracé_4048" class="st12" d="M4.5,30.6c0,0,0,0.2-0.1,0.4c0,0.1-0.1,0.3-0.2,0.4c0,0.1-0.1,0.1-0.1,0.2
							c0,0,0,0-0.1,0.1c0,0,0,0,0,0l0,0c0,0-0.1,0-0.1-0.1c0-0.1-0.1-0.2-0.1-0.3c0-0.1-0.1-0.2-0.1-0.4c0,0,0-0.1-0.1-0.1
							c0-0.1-0.1-0.1-0.1-0.1c-0.1-0.1-0.2-0.1-0.3-0.1c0,0-0.1,0-0.1,0c-0.1,0-0.1,0.1-0.2,0.1c0,0-0.1,0.1-0.1,0.1
							c0,0.1-0.1,0.2-0.1,0.3c-0.1,0.2-0.1,0.3-0.1,0.5c0,0.2-0.1,0.3-0.2,0.4c0,0,0,0,0,0.1c0,0,0,0,0,0s0,0,0,0c0,0,0,0-0.1,0
							c0,0-0.1,0-0.1,0C2,32,1.9,32,1.8,31.9c-0.2-0.1-0.3-0.1-0.4-0.2c-0.2-0.1-0.3-0.2-0.3-0.2c-0.2-0.1-0.3-0.1-0.4-0.1
							s0.1,0.2,0.2,0.3c0,0,0.1,0.1,0.3,0.2c0.1,0.1,0.2,0.1,0.4,0.2c0.1,0,0.2,0.1,0.3,0.1c0.1,0,0.1,0,0.2,0.1c0,0,0.1,0,0.1,0
							c0.1,0,0.1,0,0.2,0c0,0,0,0,0.1,0c0.1,0,0.1-0.1,0.2-0.2c0.1-0.2,0.2-0.3,0.2-0.5C3,31.6,3,31.4,3.1,31.3c0-0.1,0-0.1,0.1-0.2
							l0,0c0,0,0,0,0,0l0,0c0,0,0,0.1,0,0.1c0,0.1,0.1,0.2,0.1,0.3c0,0.1,0.1,0.3,0.2,0.4c0,0.1,0.1,0.1,0.2,0.2
							c0,0,0.1,0.1,0.1,0.1c0,0,0,0,0.1,0c0,0,0.1,0,0.1,0l0,0c0.1,0,0.2,0,0.3-0.1c0.1,0,0.1-0.1,0.2-0.2c0.1-0.1,0.1-0.2,0.2-0.3
							c0.1-0.2,0.1-0.3,0.2-0.5c0.1-0.3,0.1-0.4,0.1-0.4c0.1-0.2,0-0.4-0.1-0.4C4.6,30.3,4.5,30.4,4.5,30.6z"/>
						<path id="Tracé_4049" class="st12" d="M-1,52.8l-0.1-0.1c-0.1,0-0.2-0.1-0.3-0.2c-0.2-0.1-0.3-0.2-0.5-0.4c0,0,0,0-0.1-0.1
							l0,0l0,0c0,0,0,0,0,0c0,0,0,0,0,0h0.1c0,0,0.1,0,0.1,0c0.1,0,0.1,0,0.2,0c0.1,0,0.3,0.1,0.5,0.1c0.3,0.1,0.6,0.2,1,0.2
							c0.2,0,0.4,0.1,0.6,0.1c0.1,0,0.2,0,0.3,0c0.1,0,0.2,0,0.2-0.1c0.1,0,0.1-0.1,0.2-0.2c0-0.1,0-0.1,0-0.2c0,0,0-0.1,0-0.1
							c0,0,0-0.1,0-0.1c0,0-0.1-0.1-0.1-0.1c-0.1-0.1-0.1-0.1-0.2-0.2c-0.1-0.1-0.3-0.2-0.4-0.3C0,51.1-0.2,51-0.5,50.9
							s-0.4-0.2-0.5-0.3l-0.2-0.1c-0.2-0.1-0.4-0.1-0.5-0.1s0.1,0.2,0.3,0.4c0,0,0.3,0.1,0.7,0.4c0.2,0.1,0.5,0.3,0.7,0.5
							c0.1,0.1,0.3,0.2,0.4,0.3c0.1,0.1,0.1,0.1,0.2,0.2c0,0,0,0.1,0.1,0.1c0,0,0,0,0,0l0,0c0,0,0,0,0,0l0,0c0,0,0,0,0,0
							c0,0,0,0,0.1,0c0,0,0,0,0,0c0,0,0-0.1,0-0.1c0,0,0,0,0,0l0,0h0c-0.1,0-0.2,0-0.2,0c-0.2,0-0.4-0.1-0.6-0.1l-1-0.2
							c-0.2,0-0.3-0.1-0.5-0.1c-0.1,0-0.2,0-0.2,0l-0.1,0h-0.1H-2c-0.1,0-0.2,0-0.3,0.1c0,0-0.1,0.1-0.1,0.1c0,0,0,0.1,0,0.2
							c0,0.1,0.1,0.2,0.1,0.3l0.1,0.1l0,0l0,0c0,0,0,0,0.1,0.1c0.2,0.1,0.3,0.3,0.5,0.4c0.2,0.1,0.3,0.2,0.4,0.2l0.1,0.1
							c0.2,0.1,0.4,0.1,0.5,0.1C-0.6,53.1-0.8,53-1,52.8z"/>
						<path id="Tracé_4050" class="st12" d="M18,63.7l-0.1-0.1c-0.1-0.1-0.2-0.1-0.3-0.2c-0.2-0.1-0.4-0.2-0.6-0.3
							c-0.1,0-0.1-0.1-0.2-0.1c0,0,0,0-0.1,0l-0.1,0c0,0-0.1,0-0.1,0c0,0-0.1,0-0.1,0c-0.1,0-0.2,0.1-0.3,0.1
							c-0.1,0.1-0.1,0.2,0,0.3c0,0.1,0,0.1,0.1,0.2l0,0l0,0l0,0.1c0,0.1,0.1,0.1,0.1,0.2c0.1,0.1,0.2,0.3,0.3,0.4
							c0.2,0.3,0.4,0.5,0.6,0.8c0.1,0.1,0.2,0.3,0.2,0.5c0,0,0,0.1,0,0.1v0l0,0l0,0c0,0,0,0,0,0c-0.3,0.1-0.6,0-0.8-0.2
							c-0.2-0.1-0.4-0.3-0.6-0.5c-0.1-0.1-0.3-0.3-0.4-0.4c-0.1-0.1-0.1-0.2-0.1-0.2c-0.1-0.2-0.3-0.3-0.4-0.3s0,0.3,0.1,0.5
							c0,0,0,0.1,0.1,0.2c0.1,0.2,0.2,0.3,0.4,0.5c0.2,0.2,0.4,0.4,0.7,0.6c0.2,0.1,0.3,0.2,0.5,0.2c0.2,0.1,0.4,0.1,0.6,0
							c0.1,0,0.1,0,0.2-0.1c0.1,0,0.2-0.1,0.2-0.2c0-0.1,0.1-0.2,0.1-0.3c0-0.1,0-0.1,0-0.2c-0.1-0.2-0.2-0.4-0.3-0.6
							c-0.2-0.3-0.4-0.6-0.6-0.8c-0.1-0.1-0.2-0.2-0.3-0.4c0-0.1-0.1-0.1-0.1-0.2c0,0,0-0.1,0-0.1l0,0c0,0,0,0,0,0c0,0,0,0,0,0
							c0,0,0,0,0,0c0,0,0.1,0,0.1,0c0.2,0.1,0.4,0.2,0.5,0.3c0.1,0.1,0.3,0.2,0.3,0.2l0.1,0.1c0.2,0.1,0.4,0.2,0.5,0.1
							C18.3,64,18.1,63.8,18,63.7z"/>
						<path id="Tracé_4051" class="st12" d="M7,46.4L7,46.4l0.2,0.2L7.9,47c0.6,0.4,1.5,0.9,2.5,1.4c1.1,0.5,2.3,1.1,3.6,1.6
							c0.4,0.1,0.7,0.3,1.1,0.4s0.8,0.3,1.1,0.4c1.4,0.5,2.8,0.9,3.8,1.1c0.5,0.1,0.9,0.2,1.2,0.3s0.4,0.1,0.4,0.1
							c0.5,0.1,0.9,0.1,1,0.1s-0.4-0.3-0.8-0.4l-0.1,0c-0.1,0-0.2,0-0.3-0.1c-0.3-0.1-0.7-0.2-1.2-0.3c-1-0.3-2.3-0.7-3.7-1.2
							c-0.4-0.1-0.7-0.3-1.1-0.4s-0.7-0.3-1.1-0.4c-1.3-0.5-2.5-1-3.6-1.6l-0.7-0.4l-0.7-0.4c-0.1-0.1-0.2-0.1-0.3-0.2L8.7,47
							l-0.5-0.3c-0.3-0.2-0.5-0.3-0.7-0.4l-0.2-0.1c0,0-0.1,0-0.1,0c-0.4-0.3-0.8-0.5-0.9-0.4C6.3,45.8,6.6,46.1,7,46.4z"/>
						<path id="Tracé_4052" class="st3" d="M9.2,48.6L9.2,48.6l-3.1-1.5c-0.1-0.1-0.2-0.2-0.1-0.4l0.6-1.2c0.1-0.1,0.2-0.2,0.3-0.1
							l0,0L10,47c0.1,0.1,0.2,0.2,0.1,0.4l-0.6,1.2C9.5,48.6,9.3,48.7,9.2,48.6z"/>
						<path id="Tracé_4053" class="st12" d="M6.8,45.6L6.8,45.6l3.1,1.5c0,0,0,0,0.1,0.1c0,0,0,0.1,0,0.1l-0.6,1.2
							c0,0-0.1,0.1-0.1,0.1h0L6.1,47c-0.1,0-0.1-0.1,0-0.1c0,0,0,0,0,0l0.6-1.2C6.7,45.6,6.7,45.6,6.8,45.6 M6.9,45.3
							c-0.2-0.1-0.4,0-0.5,0.2l-0.6,1.2c-0.1,0.2,0,0.5,0.2,0.6c0,0,0,0,0,0l3.1,1.5l0,0c0.2,0.1,0.4,0,0.5-0.2l0.6-1.2
							c0.1-0.2,0-0.5-0.2-0.6L6.9,45.3L6.9,45.3z"/>
						<path id="Tracé_4054" class="st12" d="M9.3,47.6l-2.5-1.2c-0.4-0.2-0.5-0.7-0.4-1L6.6,45c0.2-0.4,0.7-0.5,1-0.4l2.5,1.2
							c0.4,0.2,0.5,0.7,0.4,1l-0.2,0.3C10.1,47.6,9.7,47.8,9.3,47.6C9.3,47.6,9.3,47.6,9.3,47.6z"/>
						<path id="Tracé_4055" class="st3" d="M10.9,49.3c-0.1,0-0.1-0.1-0.1-0.1c0-0.1,0-0.1,0-0.2l0.5-1.2c0.1-0.1,0.2-0.2,0.3-0.2
							l3.2,1.3c0.1,0.1,0.2,0.2,0.2,0.3l-0.5,1.2c-0.1,0.1-0.2,0.2-0.3,0.2L10.9,49.3z"/>
						<path id="Tracé_4056" class="st12" d="M11.6,47.5l-0.1,0.3l3.2,1.3c0,0,0,0,0.1,0.1c0,0,0,0.1,0,0.1l-0.5,1.2
							c0,0.1-0.1,0.1-0.1,0.1l-3.2-1.3c0,0,0,0-0.1-0.1c0,0,0-0.1,0-0.1l0.5-1.2c0-0.1,0.1-0.1,0.1-0.1L11.6,47.5 M11.6,47.5
							c-0.2-0.1-0.5,0-0.6,0.2l-0.5,1.2c-0.1,0.2,0,0.5,0.2,0.6l3.2,1.3h0c0.2,0.1,0.5,0,0.6-0.2l0.5-1.2c0.1-0.2,0-0.5-0.2-0.6
							L11.6,47.5L11.6,47.5"/>
						<path id="Tracé_4057" class="st12" d="M14.1,49.6l-2.6-1c-0.4-0.2-0.6-0.6-0.4-1c0,0,0,0,0,0l0.1-0.4c0.2-0.4,0.6-0.6,1-0.4
							c0,0,0,0,0,0l2.6,1c0.4,0.2,0.6,0.6,0.4,1c0,0,0,0,0,0l-0.1,0.4C14.9,49.6,14.5,49.8,14.1,49.6z"/>
						<path id="Tracé_4058" class="st12" d="M6.9,68.3c-0.1-0.1-0.2-0.2-0.2-0.3c0-0.1,0.1-0.1,0.1-0.1c0.2-0.1,0.4-0.2,0.6-0.3
							c0.1-0.1,0.3,0,0.4,0.1c0.1,0.1,0,0.3-0.1,0.4c-0.2,0.1-0.4,0.2-0.6,0.3C7.1,68.4,7,68.4,6.9,68.3z M8.5,67.5
							c-0.1-0.1-0.2-0.2-0.2-0.3c0-0.1,0.1-0.1,0.1-0.1c0.2-0.1,0.4-0.2,0.6-0.3c0.1-0.1,0.3,0,0.4,0.1c0.1,0.1,0,0.3-0.1,0.4
							c-0.2,0.1-0.4,0.2-0.6,0.3C8.6,67.5,8.6,67.5,8.5,67.5L8.5,67.5z M10,66.6c-0.1-0.1-0.2-0.2-0.2-0.3c0-0.1,0.1-0.1,0.1-0.1
							c0.2-0.1,0.4-0.3,0.5-0.4c0.1-0.1,0.3-0.1,0.4,0.1s0.1,0.3-0.1,0.4c-0.2,0.1-0.4,0.3-0.5,0.4C10.1,66.6,10,66.6,10,66.6
							 M11.3,65.5c0,0-0.1,0-0.1-0.1c-0.1-0.1-0.1-0.3,0-0.4c0,0,0,0,0,0c0.2-0.1,0.3-0.3,0.5-0.4c0.1-0.1,0.3-0.1,0.4,0
							c0.1,0.1,0.1,0.3,0,0.4c-0.2,0.2-0.3,0.3-0.5,0.5C11.5,65.5,11.4,65.5,11.3,65.5z M12.6,64.3C12.5,64.2,12.5,64.2,12.6,64.3
							c-0.2-0.1-0.2-0.3-0.1-0.4c0,0,0,0,0,0c0.1-0.2,0.3-0.3,0.4-0.5c0.1-0.1,0.3-0.1,0.4,0c0.1,0.1,0.1,0.3,0.1,0.4c0,0,0,0,0,0
							c-0.1,0.2-0.3,0.4-0.4,0.5C12.8,64.3,12.7,64.3,12.6,64.3L12.6,64.3z M13.6,62.9C13.6,62.9,13.6,62.8,13.6,62.9
							c-0.2-0.1-0.2-0.3-0.1-0.4c0,0,0,0,0,0c0.1-0.2,0.2-0.4,0.3-0.6c0.1-0.1,0.2-0.2,0.4-0.1c0.1,0.1,0.2,0.2,0.1,0.3
							c-0.1,0.2-0.2,0.4-0.3,0.6C13.9,62.9,13.7,62.9,13.6,62.9L13.6,62.9z M14.4,61.3L14.4,61.3c-0.1-0.1-0.2-0.2-0.2-0.4
							c0,0,0,0,0,0c0-0.1,0.1-0.2,0.1-0.3c0-0.1,0.1-0.2,0.1-0.3c0.1-0.1,0.2-0.2,0.4-0.2c0.1,0.1,0.2,0.2,0.2,0.3
							c0,0.1-0.1,0.2-0.1,0.3s-0.1,0.2-0.1,0.3C14.7,61.3,14.6,61.3,14.4,61.3L14.4,61.3z M15,59.6c-0.1,0-0.2-0.2-0.2-0.3
							c0-0.2,0.1-0.4,0.1-0.6c0-0.1,0.2-0.2,0.3-0.2c0.1,0,0.2,0.2,0.2,0.3c0,0.2-0.1,0.4-0.1,0.7C15.3,59.6,15.1,59.7,15,59.6
							C15,59.6,15,59.6,15,59.6L15,59.6z M15.3,57.9c-0.1,0-0.2-0.2-0.2-0.3c0-0.2,0-0.4,0.1-0.6c0-0.1,0.1-0.3,0.3-0.2
							c0.1,0,0.3,0.1,0.2,0.3c0,0.2,0,0.4-0.1,0.7C15.6,57.8,15.5,57.9,15.3,57.9C15.3,57.9,15.3,57.9,15.3,57.9
							C15.3,57.9,15.3,57.9,15.3,57.9L15.3,57.9z M15.4,56.2c-0.1,0-0.2-0.1-0.2-0.3c0-0.2,0-0.4,0-0.6c0-0.1,0.1-0.3,0.3-0.3
							s0.3,0.1,0.3,0.3c0,0.2,0,0.4,0,0.7C15.7,56.1,15.6,56.2,15.4,56.2C15.4,56.2,15.4,56.2,15.4,56.2L15.4,56.2z"/>
						<path id="Tracé_4059" class="st6" d="M30.4,14.8c1,2.3,1.4,4.8,1,7.2c-0.1,0.4-0.4,0.7-0.8,0.7c-0.4-0.1-0.7-0.4-0.6-0.8
							c0.2-2.1-0.2-4.3-1.2-6.2c-0.2-0.5-0.1-1,0.4-1.3C29.5,14.2,30.1,14.3,30.4,14.8C30.4,14.8,30.4,14.8,30.4,14.8
							C30.4,14.8,30.4,14.8,30.4,14.8"/>
						<path id="Tracé_4060" class="st6" d="M27,12.1c0.1-0.1,0.1-0.2,0.2-0.3c0.4-0.4,1-0.4,1.3,0c0,0,0,0,0,0c0.4,0.4,0.4,1,0,1.4
							c-0.4,0.4-1,0.4-1.4,0c0,0,0,0-0.1-0.1C26.9,12.9,26.8,12.5,27,12.1"/>
						<path id="Tracé_4061" class="st12" d="M3.7,17.2c0,0-0.3-0.1-0.8-0.2c-0.3-0.1-0.5-0.1-0.8-0.1c-0.2,0-0.3,0-0.5,0
							c-0.6,0-1.1,0.1-1.1,0.1c-0.3,0-0.6,0.2-0.7,0.6c0,0.3,0.2,0.6,0.6,0.7c0,0,0.5,0.2,1.1,0.3c0.2,0,0.3,0.1,0.5,0.1
							c0.3,0,0.5,0,0.8,0c0.5,0,0.8-0.1,0.8-0.1c0.3,0,0.6-0.2,0.7-0.6C4.3,17.5,4,17.2,3.7,17.2L3.7,17.2"/>
						<path id="Tracé_4062" class="st12" d="M5.5,13.5c0-0.1-0.1-0.3-0.2-0.4c-0.1-0.1-0.1-0.3-0.2-0.4c-0.1-0.1-0.1-0.1-0.2-0.2
							c-0.2-0.1-0.3-0.2-0.5-0.3C4.2,12,3.8,12,3.5,12.2c-0.2,0.2-0.3,0.6-0.1,0.9c0.1,0.2,0.1,0.4,0.2,0.6c0,0.1,0.1,0.2,0.1,0.2
							C3.9,14,4,14.1,4.2,14.1l0.4,0.2c0.2,0.3,0.6,0.3,0.9,0.1C5.7,14.2,5.7,13.8,5.5,13.5C5.5,13.6,5.5,13.5,5.5,13.5"/>
						<path id="Tracé_4063" class="st12" d="M4.1,21.4c-0.1,0-0.3,0.1-0.4,0.2c-0.1,0.1-0.3,0.1-0.4,0.2c-0.1,0-0.1,0.1-0.2,0.2
							c-0.1,0.2-0.2,0.3-0.3,0.5c-0.3,0.2-0.3,0.6-0.1,0.9c0.2,0.3,0.6,0.3,0.9,0.1c0.2-0.1,0.4-0.1,0.6-0.2c0.1,0,0.2-0.1,0.2-0.1
							c0.1-0.1,0.2-0.2,0.3-0.3l0.2-0.4c0.3-0.2,0.3-0.6,0.1-0.9C4.7,21.2,4.3,21.1,4.1,21.4"/>
						<path id="Tracé_4064" class="st15" d="M-9.7,1.3c0-0.6,0.1-1,0.1-1C-9.6,0.1-9.5,0-9.3,0S-9,0.1-9,0.3c0,0,0,0,0,0
							c0,0,0.1,0.5,0.1,1c0.1,0,0.2,0,0.3,0c0.4,0,0.7,0.1,0.7,0.1c0.2,0,0.3,0.2,0.3,0.3C-7.6,1.9-7.7,2-7.9,2c0,0-0.3,0-0.7,0.1
							c-0.1,0-0.2,0-0.3,0c0,0.1,0,0.2,0,0.3C-8.9,2.8-9,3.1-9,3.1c0,0.2-0.2,0.3-0.3,0.3c-0.2,0-0.3-0.1-0.3-0.3c0,0,0-0.3-0.1-0.7
							c0-0.1,0-0.2,0-0.3c-0.5,0-1-0.1-1-0.1C-10.9,2-11,1.9-11,1.7c0-0.2,0.1-0.3,0.3-0.3c0,0,0,0,0,0C-10.4,1.3-10,1.3-9.7,1.3"/>
					</g>
				</g>
			</g>
			<line id="Ligne_130" class="st16" x1="282" y1="423" x2="304" y2="445"/>
			<line id="Ligne_131" class="st16" x1="172.5" y1="462.8" x2="194.5" y2="484.8"/>
			<g id="Groupe_1028_00000137105419881204897140000002985103544188898488_" transform="translate(290.5 436.267)">
				<g>
					<g id="Groupe_450_00000033361314904719858550000009291783690819900314_">
						<g id="Groupe_447_00000126308604758956063030000002670680043359416735_" transform="translate(21.157 0.219)">
							<path id="Tracé_1669_00000011022596588444437360000016271539261997605000_" class="st17" d="M32.3,15.4l-1.8,4.8
								c0,0,0,0,0-0.1c0.2-1.2-0.5-2.4-1.6-2.9c-0.1-0.1-0.3-0.1-0.4-0.1L-7.3,4C-7.4,4-7.5,4-7.6,3.9c-0.3-0.1-0.7-0.3-1-0.4
								C-9.2,3.3-9.8,3-10.3,2.6c-0.2-0.2-0.4-0.3-0.5-0.5C-11.1,1.4-11,0.6-10.6,0"/>
						</g>
						<g id="Groupe_448_00000039113739948223478570000004805030160106061725_" transform="translate(4.101 3.761)">
							<path id="Tracé_1670_00000120539199634195199170000000041020990833093804_" class="st12" d="M47.8,16.3L28.9,68.2
								c0,0.1-0.1,0.3-0.2,0.4c0,0.1-0.1,0.2-0.1,0.2c-0.6,0.8-1.5,1.2-2.4,1.1c-0.2,0-0.3,0-0.5-0.1L-11,56.5
								c0-0.1,0.1-0.2,0.1-0.4C-4.1,37.5,2.7,18.9,9.5,0.3c0-0.1,0.1-0.2,0.1-0.3c0.1,0,0.2,0.1,0.3,0.1l35.9,13.1
								c0.1,0,0.3,0.1,0.4,0.1C47.3,13.8,47.9,15,47.8,16.3C47.7,16.2,47.7,16.2,47.8,16.3 M27.9,24.2l3.4,1.2
								c0.1,0,0.2,0.1,0.2,0.1c0.2,0.1,0.5-0.1,0.6-0.3c0-0.1,0.1-0.1,0.1-0.2l2.1-5.7c0-0.1,0-0.1,0.1-0.2c0.1-0.2,0-0.5-0.3-0.6
								c-0.1,0-0.2-0.1-0.3-0.1L27.1,16c-0.1,0-0.1-0.1-0.2-0.1c-0.3-0.1-0.5,0-0.6,0.3c0,0,0,0,0,0c0,0.1,0,0.1-0.1,0.2l-2.1,5.7
								c0,0.1,0,0.1-0.1,0.2c-0.1,0.2,0,0.5,0.3,0.6c0.1,0,0.2,0.1,0.2,0.1L27.9,24.2 M15.3,15.6c-0.4,1-0.7,2-1.1,2.9
								c-0.2,0.5-0.1,0.6,0.4,0.8c1.1,0.4,2.1,0.8,3.2,1.2c0.4,0.2,0.6,0.1,0.8-0.4c0.7-1.9,1.4-3.9,2.1-5.8c0-0.1,0.1-0.1,0.1-0.2
								c0-0.4,0-0.5-0.3-0.6c-0.1,0-0.1,0-0.2-0.1l-1.7-0.6c-0.5-0.2-1-0.4-1.5-0.6c-0.4-0.1-0.6-0.1-0.8,0.4
								C16,13.7,15.7,14.7,15.3,15.6 M40.8,25c0.4-1,0.7-2,1.1-2.9c0.1-0.3,0-0.6-0.2-0.7c0,0-0.1,0-0.1,0c-0.7-0.3-1.5-0.5-2.2-0.8
								c-0.2-0.1-0.6-0.1-0.7,0.2c0,0.1-0.1,0.1-0.1,0.2c-0.7,1.9-1.4,3.9-2.1,5.8c-0.1,0.3-0.1,0.6,0.2,0.7c0.1,0,0.1,0,0.2,0.1
								c0.4,0.1,0.8,0.3,1.1,0.4c0.4,0.1,0.7,0.3,1.1,0.4c0.2,0.1,0.5,0.1,0.7-0.2c0,0,0-0.1,0.1-0.1c0-0.1,0-0.1,0.1-0.2L40.8,25
								 M11.1,14.1l0.2-0.7c0.3-0.8,0.6-1.5,0.8-2.3c0.1-0.2,0-0.5-0.2-0.6c0,0-0.1,0-0.1,0c-0.6-0.2-1.3-0.5-1.9-0.7
								c-0.2-0.1-0.5,0-0.6,0.3c0,0,0,0,0,0c0,0,0,0.1,0,0.1c-0.7,1.9-1.4,3.9-2.1,5.8c-0.2,0.4,0,0.6,0.4,0.8
								c0.6,0.2,1.1,0.4,1.7,0.6c0.1,0,0.1,0,0.2,0.1c0.2,0,0.4-0.1,0.5-0.3c0-0.1,0.1-0.2,0.1-0.3C10.4,16,10.7,15.1,11.1,14.1
								 M21,17.7l-0.3,0.8c-0.3,0.7-0.5,1.5-0.8,2.2c-0.1,0.4,0,0.6,0.3,0.7c0.6,0.2,1.1,0.4,1.7,0.6c0.5,0.2,0.6,0.1,0.8-0.4
								c0.7-1.9,1.4-3.8,2.1-5.8c0-0.1,0.1-0.2,0.1-0.3c0-0.3,0-0.4-0.3-0.5c-0.6-0.2-1.2-0.5-1.8-0.7c-0.4-0.1-0.6,0-0.7,0.3
								C21.7,15.7,21.3,16.7,21,17.7 M14,15.2c0.4-1,0.7-2,1.1-2.9c0.1-0.2,0-0.6-0.2-0.7c0,0-0.1,0-0.1-0.1
								c-0.2-0.1-0.4-0.1-0.6-0.2c-0.2-0.1-0.5,0-0.7,0.2c0,0,0,0.1,0,0.1c0,0,0,0.1-0.1,0.1l-2.1,5.7c0,0.1-0.1,0.1-0.1,0.2
								c-0.1,0.2,0,0.5,0.3,0.6c0.2,0.1,0.5,0.2,0.8,0.3c0.2,0.1,0.5,0,0.6-0.3c0-0.1,0.1-0.1,0.1-0.2L14,15.2 M36.1,23.2l0.7-1.9
								c0.1-0.4,0.3-0.8,0.4-1.1c0.1-0.2,0-0.5-0.2-0.6c0,0,0,0,0,0c-0.3-0.1-0.5-0.2-0.8-0.3c-0.2-0.1-0.5,0.1-0.5,0.3
								c0,0.1-0.1,0.2-0.1,0.2l-1.2,3.4c-0.3,0.8-0.6,1.6-0.9,2.4c-0.1,0.3,0,0.6,0.2,0.7c0,0,0,0,0.1,0c0.2,0.1,0.4,0.2,0.7,0.2
								c0.2,0.1,0.5,0,0.6-0.3c0,0,0,0,0,0c0-0.1,0-0.1,0.1-0.2L36.1,23.2 M20.1,36.1l0.6,0.2c0.1,0,0.1,0,0.2-0.1
								c0.1-0.4,0.3-0.7,0.4-1.1c0,0,0-0.1,0-0.1c0,0,0,0,0,0l-1.3-0.5c-0.1,0-0.1,0-0.2,0.1c-0.1,0.3-0.2,0.7-0.4,1
								c0,0.1,0,0.2,0.1,0.2C19.7,36,19.9,36,20.1,36.1 M13.6,32.3c-0.2-0.1-0.4-0.1-0.6-0.2c-0.2-0.1-0.2-0.1-0.2,0.1
								c-0.1,0.3-0.2,0.6-0.3,0.9c0,0.1,0,0.2,0.1,0.2c0.4,0.1,0.8,0.3,1.2,0.4c0.1,0,0.2,0,0.2-0.1c0.1-0.3,0.2-0.6,0.4-1
								c0-0.1,0-0.2-0.1-0.2C14,32.4,13.8,32.3,13.6,32.3 M22.4,36.9c0.2,0.1,0.4,0.1,0.6,0.2c0.1,0,0.2,0,0.2-0.1
								c0.1-0.3,0.2-0.7,0.4-1c0-0.1,0-0.2-0.1-0.2c-0.4-0.1-0.8-0.3-1.2-0.4c-0.1,0-0.2,0-0.2,0.1c-0.1,0.3-0.2,0.7-0.4,1
								c0,0.1,0,0.2,0.1,0.2C22,36.8,22.2,36.9,22.4,36.9 M15.9,33.1c-0.2-0.1-0.4-0.1-0.6-0.2c-0.1,0-0.2,0-0.2,0.1
								c-0.1,0.3-0.2,0.7-0.4,1c0,0.1,0,0.2,0.1,0.2c0.4,0.1,0.8,0.3,1.2,0.4c0.1,0,0.2,0,0.2-0.1c0.1-0.3,0.2-0.7,0.4-1
								c0-0.1,0-0.2-0.1-0.2C16.3,33.3,16.1,33.2,15.9,33.1 M17.7,35.2c0.2,0.1,0.4,0.1,0.6,0.2c0.1,0,0.2,0,0.2-0.1
								c0.1-0.3,0.2-0.7,0.4-1c0-0.1,0-0.1-0.1-0.2c-0.4-0.2-0.8-0.3-1.3-0.5c-0.1,0-0.1,0-0.2,0.1c-0.1,0.3-0.2,0.7-0.4,1
								c0,0.1,0,0.2,0.1,0.2C17.4,35.1,17.5,35.2,17.7,35.2 M24.8,37.8c0.2,0.1,0.4,0.1,0.6,0.2c0.1,0,0.2,0,0.2-0.1
								c0.1-0.3,0.2-0.7,0.4-1c0-0.1,0-0.1-0.1-0.2c-0.4-0.1-0.8-0.3-1.2-0.4c-0.1,0-0.2,0-0.2,0.1c-0.1,0.3-0.2,0.6-0.3,0.9
								c-0.1,0.2-0.1,0.2,0.1,0.2C24.4,37.7,24.6,37.7,24.8,37.8 M16.2,32.3c0.2,0.1,0.4,0.1,0.6,0.2c0.1,0,0.2,0,0.2-0.1
								c0.1-0.3,0.2-0.6,0.4-1c0.1-0.1,0-0.2-0.1-0.2c-0.4-0.1-0.8-0.3-1.2-0.4c-0.1,0-0.2,0-0.2,0.1c-0.1,0.3-0.2,0.6-0.4,1
								c0,0.1,0,0.2,0.1,0.2C15.8,32.1,16,32.2,16.2,32.3 M21.4,32.7c-0.2-0.1-0.4-0.2-0.6-0.2c-0.1,0-0.2,0-0.2,0.1
								c-0.1,0.3-0.2,0.7-0.4,1c0,0.1,0,0.1,0,0.2c0,0,0,0,0,0c0.4,0.1,0.8,0.3,1.2,0.5c0.1,0,0.1,0,0.2,0c0,0,0,0,0,0
								c0.1-0.3,0.2-0.7,0.4-1c0-0.1,0-0.2-0.1-0.2C21.7,32.9,21.6,32.8,21.4,32.7 M23.7,33.6c-0.2-0.1-0.4-0.1-0.6-0.2
								c-0.1,0-0.2,0-0.2,0.1c-0.1,0.3-0.2,0.7-0.4,1c0,0.1,0,0.2,0.1,0.2c0.4,0.1,0.8,0.3,1.2,0.4c0.1,0,0.2,0,0.2-0.1
								c0.1-0.3,0.2-0.7,0.4-1c0-0.1,0-0.2-0.1-0.2C24.1,33.7,23.9,33.6,23.7,33.6 M12.3,35.7c0.2,0.1,0.4,0.1,0.6,0.2
								c0.1,0,0.2,0,0.2-0.1c0.1-0.3,0.2-0.7,0.4-1c0-0.1,0-0.1-0.1-0.2c-0.4-0.1-0.8-0.3-1.2-0.4c-0.1,0-0.2,0-0.2,0.1
								c-0.1,0.3-0.2,0.7-0.4,1c0,0.1,0,0.2,0.1,0.2C11.9,35.5,12.1,35.6,12.3,35.7 M19.8,37c-0.2-0.1-0.4-0.1-0.6-0.2
								c-0.1,0-0.2,0-0.2,0.1c-0.1,0.3-0.2,0.7-0.4,1c0,0.1,0,0.2,0.1,0.2c0.4,0.1,0.8,0.3,1.2,0.4c0.1,0,0.2,0,0.2-0.1
								c0.1-0.3,0.2-0.6,0.4-1c0.1-0.1,0-0.2-0.1-0.2C20.2,37.1,20,37,19.8,37 M22.1,37.8L22.1,37.8c-0.2-0.1-0.4-0.1-0.6-0.2
								c-0.1,0-0.2,0-0.2,0.1c-0.1,0.3-0.2,0.7-0.4,1c0,0.1,0,0.2,0.1,0.2c0.4,0.1,0.8,0.3,1.2,0.4c0.1,0,0.2,0,0.2-0.1
								c0.1-0.3,0.2-0.7,0.4-1c0-0.1,0-0.2-0.1-0.2C22.5,38,22.3,37.9,22.1,37.8 M19,39.1c-0.2-0.1-0.4-0.1-0.6-0.2
								c-0.1,0-0.1,0-0.2,0.1c-0.1,0.3-0.2,0.7-0.4,1c0,0.1,0,0.1,0.1,0.2c0.4,0.2,0.8,0.3,1.3,0.5c0.1,0,0.1,0,0.2-0.1
								c0.1-0.3,0.2-0.7,0.4-1c0-0.1,0-0.2-0.1-0.2C19.4,39.2,19.2,39.2,19,39.1 M21.3,39.9c-0.2-0.1-0.4-0.1-0.6-0.2
								c-0.1,0-0.1,0-0.2,0.1c-0.1,0.4-0.3,0.7-0.4,1.1c0,0.1,0,0.1,0.1,0.1c0,0,0,0,0,0c0.4,0.2,0.9,0.3,1.3,0.5c0,0,0.1,0,0.1,0
								c0,0,0,0,0,0c0.1-0.3,0.3-0.7,0.4-1c0-0.1,0-0.1-0.1-0.2C21.7,40.1,21.5,40,21.3,39.9 M15.1,35.3c-0.2-0.1-0.4-0.2-0.6-0.2
								c-0.1,0-0.1,0-0.2,0.1c-0.1,0.3-0.2,0.7-0.4,1c0,0.1,0,0.1,0,0.2c0,0,0,0,0,0c0.4,0.1,0.8,0.3,1.2,0.4c0.1,0,0.2,0,0.2-0.1
								c0.1-0.3,0.2-0.7,0.4-1c0-0.1,0-0.2-0.1-0.2C15.5,35.4,15.3,35.3,15.1,35.3 M17,37.4c0.2,0.1,0.4,0.1,0.6,0.2
								c0.1,0,0.2,0,0.2-0.1c0.1-0.3,0.2-0.6,0.4-1c0-0.1,0-0.2-0.1-0.2c-0.4-0.1-0.8-0.3-1.2-0.4c-0.1,0-0.2,0-0.2,0.1
								c-0.1,0.3-0.2,0.6-0.4,1c0,0.1,0,0.2,0.1,0.2C16.6,37.2,16.8,37.3,17,37.4 M24.5,38.7c-0.2-0.1-0.4-0.1-0.6-0.2
								c-0.1,0-0.2,0-0.2,0.1c-0.1,0.3-0.2,0.6-0.4,1c0,0.1,0,0.2,0.1,0.2c0.4,0.1,0.8,0.3,1.2,0.4c0.1,0,0.2,0,0.2-0.1
								c0.1-0.3,0.2-0.7,0.4-1c0-0.1,0-0.2-0.1-0.2C24.9,38.8,24.7,38.7,24.5,38.7 M14.3,37.4c-0.2-0.1-0.4-0.2-0.6-0.2
								c-0.1,0-0.1,0-0.2,0c0,0,0,0,0,0c-0.1,0.3-0.3,0.7-0.4,1c0,0.1,0,0.1,0,0.1c0,0,0,0,0,0c0.4,0.2,0.8,0.3,1.3,0.5
								c0.1,0,0.1,0,0.2,0c0,0,0,0,0,0c0.1-0.3,0.2-0.7,0.4-1c0-0.1,0-0.2-0.1-0.2C14.7,37.5,14.5,37.5,14.3,37.4 M16.7,38.2
								L16.7,38.2c-0.2-0.1-0.4-0.2-0.6-0.2c-0.1,0-0.1,0-0.2,0c0,0,0,0,0,0c-0.1,0.3-0.3,0.7-0.4,1c0,0,0,0.1,0,0.1c0,0,0,0,0,0
								c0.4,0.2,0.8,0.3,1.3,0.5c0.1,0,0.1,0,0.2,0c0,0,0,0,0,0c0.1-0.3,0.2-0.7,0.4-1c0-0.1,0-0.2-0.1-0.2
								C17.1,38.4,16.9,38.3,16.7,38.2 M19,31.8c-0.2-0.1-0.4-0.1-0.6-0.2c-0.1-0.1-0.2,0-0.2,0.1c-0.1,0.3-0.2,0.6-0.4,1
								c0,0.1,0,0.2,0.1,0.2c0.4,0.1,0.8,0.3,1.2,0.4c0.1,0,0.1,0,0.2-0.1c0.1-0.3,0.3-0.7,0.4-1c0-0.1,0-0.1-0.1-0.2
								C19.4,32,19.2,31.9,19,31.8 M13.8,31.4c0.2,0.1,0.4,0.1,0.6,0.2c0.1,0,0.2,0,0.2-0.1c0.1-0.3,0.2-0.7,0.4-1
								c0-0.1,0-0.2-0.1-0.2c-0.3-0.1-0.6-0.1-0.9,0c-0.2,0.1-0.4,0.2-0.6,0.3c-0.1,0.1-0.2,0.2-0.3,0.3c0,0.1,0,0.1,0.1,0.2
								C13.4,31.3,13.6,31.3,13.8,31.4 M12,36.5c-0.2-0.1-0.4-0.2-0.6-0.2c-0.1,0-0.1-0.1-0.2,0c-0.1,0.1-0.1,0.2-0.1,0.4
								c0.1,0.3,0.2,0.5,0.3,0.8c0.1,0.3,0.4,0.5,0.7,0.5c0.1,0,0.1,0,0.2,0c0,0,0,0,0,0c0.1-0.3,0.3-0.7,0.4-1c0-0.1,0-0.1-0.1-0.2
								C12.4,36.7,12.2,36.6,12,36.5 M25.5,35.6c0.2,0.1,0.4,0.1,0.6,0.2c0.2,0.1,0.2,0,0.2-0.1c0-0.1,0-0.1,0-0.2
								c-0.1-0.3-0.3-0.6-0.4-0.9c-0.1-0.2-0.3-0.4-0.5-0.5c-0.1,0-0.2,0-0.2,0.1c-0.1,0.3-0.2,0.7-0.4,1c0,0.1,0,0.2,0.1,0.2
								C25.2,35.5,25.4,35.6,25.5,35.6 M23.7,40.8L23.7,40.8c-0.2-0.1-0.4-0.1-0.6-0.2c-0.1,0-0.1,0-0.2,0.1c-0.1,0.3-0.3,0.7-0.4,1
								c0,0.1,0,0.1,0.1,0.2c0.2,0.1,0.5,0.1,0.8,0c0.3-0.1,0.6-0.3,0.9-0.4c0,0,0.1,0,0.1-0.1c0.1-0.1,0.1-0.3-0.1-0.3
								C24,40.9,23.9,40.8,23.7,40.8 M9.8,33.3c0,0,0,0.1,0,0.1c0.2,0.5,0.4,0.9,0.6,1.4c0,0,0,0.1,0.1,0.1c0,0.1,0.1,0.1,0.2,0
								c0,0,0.1-0.1,0.1-0.1c0.1-0.3,0.2-0.6,0.4-1c0-0.1,0-0.2-0.1-0.2c-0.2-0.1-0.5-0.2-0.7-0.2C10.2,33.4,10,33.4,9.8,33.3
								 M10.1,32.5c0.4,0.2,0.9,0.3,1.3,0.5c0.1,0,0.1,0,0.2-0.1c0.1-0.3,0.2-0.7,0.4-1c0-0.1,0-0.2-0.1-0.2c-0.1,0-0.2,0-0.2,0.1
								c-0.4,0.2-0.7,0.4-1.1,0.6C10.3,32.3,10.2,32.4,10.1,32.5 M27.6,38.8c0-0.1,0-0.1,0-0.2c-0.2-0.4-0.4-0.9-0.6-1.3
								c0,0,0-0.1-0.1-0.1c-0.1-0.1-0.2-0.1-0.2,0c-0.1,0.3-0.2,0.7-0.4,1c-0.1,0.1,0,0.2,0.1,0.2c0.2,0.1,0.5,0.2,0.7,0.3
								L27.6,38.8 M27.3,39.7c-0.4-0.1-0.7-0.3-1.1-0.4c-0.1,0-0.2,0-0.2,0.1c-0.1,0.3-0.2,0.7-0.4,1c0,0.1,0,0.2,0.1,0.2
								c0.1,0,0.1,0,0.2-0.1c0.4-0.2,0.8-0.4,1.2-0.7C27.2,39.8,27.3,39.8,27.3,39.7"/>
						</g>
						<g id="Groupe_449_00000057130548317235056670000004189356560280736642_" transform="translate(0 0)">
							<path id="Tracé_1671_00000091720808375525707930000011341689369186967978_" class="st3" d="M13.7,3.7c0,0.1-0.1,0.2-0.1,0.3
								L-6.6,59.4c0,0.1-0.1,0.2-0.1,0.4l-1.8-0.6c-0.2-0.1-0.4-0.2-0.6-0.3c-0.2-0.1-0.5-0.2-0.7-0.3c-1-0.7-1.5-2.1-1-3.2
								c2.6-7,5.1-14,7.6-21C0.8,23.5,4.7,12.7,8.6,1.8c0.1-0.2,0.1-0.4,0.2-0.6C9.1,0.6,9.7,0.1,10.5,0c0.1,0,0.2,0,0.3,0
								c-0.1,0.1-0.2,0.2-0.2,0.3c-0.4,0.4-0.4,1.1,0,1.5c0.2,0.2,0.3,0.4,0.5,0.5c0.5,0.4,1,0.7,1.6,0.9C13,3.4,13.3,3.6,13.7,3.7"
								/>
						</g>
					</g>
				</g>
			</g>
			<g id="Groupe_2600" transform="translate(145.269 395.5)">
				<g>
					<g id="Groupe_1077">
						<path id="Tracé_3921" class="st3" d="M9.4,79.1c-1.3,1-2.5,2.1-3.5,3.4c-0.6,1.1-0.7,2.3-0.2,3.4c0.1,0.3,0.3,0.5,0.6,0.6
							c0.3,0.1,0.6,0,0.8-0.2l3.8-3.5c0.3-0.4,0.3-0.9,0.1-1.3c-0.7-1.4-1.3-2.3-1.3-2.3L9.4,79.1z"/>
						<path id="Tracé_3922" class="st3" d="M10.3,78.8c0.3,0.7,0,1.4-0.7,1.7l-3,1.3c-0.6,0.3-1.4,0-1.7-0.6
							c-1.2-2.5-2.2-5.1-3-7.7c-0.2-0.7-0.3-1.4-0.4-2.1c-0.1-0.7-0.1-1.4-0.1-2c0-0.9,0.1-1.9,0.3-2.8c0-0.1,0-0.1,0-0.2
							c0.5-2,1.4-3.9,2.6-5.6c1.6-2.4,3.4-4.5,5.5-6.5c0.3-0.3,0.8-0.3,1.1,0c0,0,0,0,0,0l9.5,10.3c0.3,0.3,0.3,0.8,0,1.1
							c0,0-0.1,0-0.1,0.1c-1.2,0.8-2.2,1.8-3,3c-0.2,0.2-0.3,0.5-0.5,0.8l-5.5-4.3c0,0,0-0.1,0-0.1c0.1-0.4-0.2-0.8-0.6-0.9
							c-0.3,0-0.6,0.1-0.7,0.3c-1.2,1.5-1.9,3.4-2,5.3C8,72.9,9.6,77,10.3,78.8z"/>
						<path id="Tracé_3923" class="st15" d="M5,70.8C5,70.8,5,71,4.9,71c-0.1,0-0.1,0-0.2,0c-0.2-0.1-0.5-0.2-0.8-0.2
							c-0.6,0-1.1,0.2-1.6,0.4c-0.3,0.1-0.5,0.1-0.8,0.1c0,0-0.1,0-0.1,0c0,0,0,0,0,0c-0.1-0.7-0.1-1.3-0.1-2c0-0.9,0.1-1.8,0.3-2.8
							c0,0,0,0,0.1,0c0,0,0,0,0,0c0.4,0.2,0.8,0.4,1.2,0.7c0.2,0.3,0.3,0.6,0.7,0.9c0.4,0.3,0.8,0.4,1.2,0.4c0,0,0,0,0,0
							c0,0.2-0.1,0.4-0.2,0.5c-0.4,0.3-0.9,0.4-1.4,0.2c-0.1,0-0.2,0-0.2,0.1c0,0,0,0.1,0,0.1c0.1,0.1,0.1,0.2,0.2,0.2
							C4,70.3,4.7,70.2,5,70.8L5,70.8z"/>
						<path id="Tracé_3924" class="st6" d="M1.9,66.6c0,0,0.1,0,0.2,0.1c0.2,0.1,0.4,0.2,0.5,0.3c0,0,0.1,0.1,0.1,0.1
							c0,0,0.1,0.1,0.1,0.1c0.1,0.1,0.2,0.2,0.2,0.4c0.1,0.2,0.2,0.4,0.4,0.5c0.3,0.2,0.6,0.4,0.9,0.4c0.1,0,0.3,0.1,0.4,0.1
							c0.1,0,0.2-0.1,0.3-0.2c0,0,0,0,0,0c0-0.1-0.1-0.2-0.2-0.3c-0.1,0-0.2-0.1-0.3-0.1c-0.2-0.1-0.5-0.2-0.7-0.4
							c-0.1-0.1-0.2-0.2-0.3-0.4c-0.1-0.2-0.2-0.3-0.3-0.4c-0.1-0.1-0.1-0.1-0.2-0.2C3.1,66.6,3,66.6,3,66.5
							c-0.2-0.1-0.4-0.2-0.6-0.3C2.2,66.2,2,66.1,2,66.1c-0.1,0-0.2,0-0.3,0.1c0,0,0,0,0,0C1.7,66.4,1.7,66.5,1.9,66.6
							C1.9,66.6,1.9,66.6,1.9,66.6z"/>
						<path id="Tracé_3925" class="st3" d="M20.9,81.2l1.1-1.8c0.2-0.3,0.7-0.4,1-0.2c0,0,0,0,0,0l2.2,1.4c0.5,0.3,0.6,1,0.3,1.5
							l-2.6,4c-0.3,0.5-0.9,0.6-1.4,0.3c0,0,0,0,0,0C20,85.4,19.9,82.8,20.9,81.2z"/>
						<path id="Tracé_3926" class="st3" d="M18.5,64.9c-0.7,1.8-1.4,3.7-1.8,5.7c-0.4,1.7,0.2,3.4,1.5,4.5c1,1,2.7,2,4.6,3.4
							c0.3,0.2,0.4,0.7,0.2,1.1l-2.3,3.5c-0.2,0.3-0.7,0.4-1,0.2c-1.6-1.2-3.6-2.5-4.7-3.3c-0.8-0.6-1.6-1.3-2.3-2
							c-0.6-0.6-1.2-1.3-1.6-2.1c-0.3-0.7-0.5-1.4-0.6-2.1c-0.3-2.7,0.1-5.4,1-7.9c0.3-0.9,0.5-1.7,0.7-2.3L18.5,64.9z"/>
						<path id="Tracé_3927" class="st15" d="M13.6,73.5c0.1,0.2,0.2,0.4,0.1,0.6c-0.2,0.5-0.6,0.9-1.1,1c-0.1,0-0.1,0.1-0.1,0.2
							c0,0,0,0.1,0.1,0.1c0.1,0,0.2,0.1,0.3,0.1c0.8,0.1,1.4-0.3,1.9-0.1c0.1,0,0.1,0.1,0.1,0.1c0.1,0,0.1,0.1,0,0.2c0,0,0,0-0.1,0
							c-0.3,0-0.6,0.1-0.9,0.3c-0.6,0.3-0.7,0.8-1.1,1.3c-0.1,0.2-0.3,0.3-0.5,0.5c-0.6-0.6-1.2-1.3-1.6-2.1
							c-0.3-0.7-0.5-1.4-0.6-2.1c0.3,0,0.6,0,0.9,0.1c0.3,0.2,0.7,0.3,1.1,0.4C12.8,74,13.3,73.8,13.6,73.5"/>
						<path id="Tracé_3928" class="st6" d="M10.3,73.7c0.1,0,0.1,0,0.2,0c0.2,0,0.4,0,0.5,0.1c0.1,0,0.2,0.1,0.3,0.1
							c0.1,0,0.2,0.1,0.4,0.2c0.2,0.1,0.4,0.1,0.6,0.1c0.3,0,0.6-0.1,0.9-0.2c0.1,0,0.2-0.1,0.3-0.2c0.1-0.1,0.1-0.2,0.1-0.3
							c0,0,0,0,0,0c0-0.1-0.2-0.2-0.3-0.1c0,0-0.1,0-0.3,0.1c-0.2,0.1-0.5,0.1-0.7,0.1c-0.1,0-0.3-0.1-0.4-0.1
							c-0.1,0-0.2-0.1-0.4-0.2c-0.1-0.1-0.3-0.1-0.5-0.1c-0.2,0-0.5,0-0.7,0c-0.1,0-0.2,0-0.3,0.1c-0.1,0-0.2,0.1-0.2,0.3
							c0,0,0,0,0,0C10.1,73.6,10.2,73.7,10.3,73.7z"/>
						<path id="Tracé_3929" class="st3" d="M33.2,50.3c-0.1-3-2.9-6.5-5.4-8.5c-1.1-0.9-2.4-0.9-3.3-1.4c-1.6-0.8-3.2-1.3-4.9-1.6
							c-1.6-0.3-3.2-0.3-4.8-0.1c-0.4,0.1-1.7-0.3-2.1-0.2s0.1,0.8-0.2,1c-0.6,0.3-1,0-2,0.6c-1.4,0.8-1.9,2.5-2.7,3.3
							C7,44.1,6.1,44.6,5,44.8c-1.3,0.1-3.8-1.3-5.5-2.8c-0.5-0.4-1.3-0.4-1.7,0.1c0,0,0,0,0,0.1l-1.4,1.8C-4,44.6-4,45.3-3.5,45.7
							c1.5,1.4,4.8,4,8.2,4.5c1.2,0.1,2.5,0,3.6-0.5c-0.3,1.8-0.7,4-0.9,6.4c-0.1,0.5,0.2,0.9,0.7,1.1c2.2,0.8,8.4,2.8,14.5,2.5
							c0.4-0.1,0.8-0.4,0.8-0.9c0-0.3,0.1-0.6,0.1-0.9l1.9,2.7c0.2,0.3,0.5,0.3,0.8,0.1c0,0,0,0,0,0c2.8-2,6.8-4.8,7-9.8
							C33.2,50.7,33.2,50.4,33.2,50.3z M23.9,55.5c0.3-1.6,0.7-3.4,1-5c0.1-0.7,0.2-1.4,0.3-2.1c1,0.5,2.2,1.3,2.2,2.3
							C27.5,52.4,25.8,54.1,23.9,55.5L23.9,55.5z"/>
						<path id="Tracé_3930" class="st15" d="M-1.6,44.3c-0.7,1-2.1,1.2-3.1,0.6c-0.5-0.2-0.9-0.5-1.3-0.9c-0.3-0.4-0.5-0.8-0.5-1.3
							c0-1,0.8-1.7,1.7-1.7c0.3,0,0.6,0.1,0.9,0.3l0,0c0.1,0,0.1,0.1,0.2,0.1c0.2,0.1,0.3,0,0.3-0.2c-0.2-0.7-0.2-1.3,0.2-1.4
							c0.7-0.1,1.2,1.2,1.6,1.9C-1,42.5-1.1,43.5-1.6,44.3z"/>
						<path id="Tracé_3931" class="st15" d="M-3.1,42.6c0,0.9-0.8,1.7-1.7,1.7c-0.4,0-0.9-0.1-1.2-0.4c-0.3-0.4-0.5-0.8-0.5-1.3
							c0-0.9,0.8-1.7,1.7-1.7c0.3,0,0.6,0.1,0.9,0.3C-3.3,41.5-3.1,42.1-3.1,42.6"/>
						<path id="Tracé_3932" class="st6" d="M25.1,47.4c0,0,0,0.2,0,0.5c0,0.2,0,0.3,0,0.5c0,0.1,0,0.2,0,0.3c0,0.4,0,0.7,0,0.7
							c0,0.1,0.1,0.1,0.2,0.1c0.1,0,0.2,0,0.2-0.1c0,0,0-0.3,0.1-0.8c0-0.1,0-0.2,0-0.3c0-0.2,0-0.4,0-0.5c0-0.2,0-0.4-0.1-0.6
							c0-0.1-0.1-0.1-0.2-0.1C25.2,47.3,25.1,47.4,25.1,47.4z"/>
						<path id="Tracé_3933" class="st6" d="M8.5,49.4C8.5,49.4,8.5,49.4,8.5,49.4c0-0.2,0-0.2,0.1-0.4c0-0.2,0.1-0.5,0.2-0.9
							c0.1-0.4,0.2-0.8,0.3-1.2c0.1-0.2,0.1-0.5,0.2-0.8c0.1-0.5,0.2-0.9,0.3-1.2s0.1-0.5,0.1-0.5c0.1-0.2,0-0.3-0.1-0.3
							s-0.2,0.1-0.3,0.2c0,0-0.1,0.2-0.2,0.5S9,45.6,8.8,46.1c-0.1,0.2-0.1,0.5-0.2,0.8c-0.1,0.4-0.2,0.9-0.3,1.3
							c-0.1,0.4-0.1,0.7-0.2,0.9c0,0.1,0,0.2,0,0.3s0,0.1,0,0.1c0,0.2,0.1,0.3,0.1,0.3C8.4,49.7,8.5,49.6,8.5,49.4z"/>
						<path id="Tracé_3934" class="st15" d="M15.9,38.4c-0.8,0.4-2.1,1.8-1.9,5c0.1,1.7-0.1,4.7,0.5,5.8c0.7-0.5,2.7-3.5,3.4-5
							c0.2-0.4,0.4-0.8,0.8-1.1c0.2-0.7,0.5-1.4,0.7-2.1c1.1,0.2,1.9,0.4,2.5,0.6c0.3,0.1,1.2,0.4,1.6,0.2c0,0,0.9-0.5,1-0.8
							c0.1-0.4-0.7-0.6-1.2-1.1C21.8,38.5,17.3,37.8,15.9,38.4z"/>
						<path id="Tracé_3935" class="st6" d="M23.5,40.2c0,0,0.1,0.1,0.3,0.2c0.1,0.1,0.2,0.2,0.3,0.3c0,0,0.1,0.1,0.1,0.2
							c0,0,0,0.1,0,0.1c0,0.1-0.1,0.2-0.3,0.3c-0.2,0.1-0.4,0.2-0.7,0.2c-0.6,0.1-1.2,0-1.8-0.1c-0.3-0.1-0.6-0.1-0.8-0.2
							c-0.1-0.1-0.3-0.1-0.4-0.2c-0.1,0-0.1-0.1-0.2-0.1l-0.3-0.1c-0.1,0-0.2-0.1-0.3,0c-0.1,0-0.2,0.1-0.3,0.2c0,0-0.1,0.1-0.1,0.1
							l-0.1,0.1l-0.1,0.2c-0.1,0.2-0.2,0.5-0.3,0.7s-0.2,0.5-0.3,0.7s-0.2,0.5-0.2,0.8c-0.3,1-0.4,2-0.4,3c0,0.9,0.2,1.8,0.5,2.7
							c0.1,0.2,0.1,0.4,0.2,0.6s0.2,0.4,0.3,0.5c0.2,0.3,0.3,0.6,0.4,0.9c0.2,0.4,0.3,0.9,0.3,1.4c0,0.2,0,0.3,0,0.4s0,0.1,0,0.1
							c0,0.6,0,1.1,0.1,1.2s0.3-0.5,0.3-1.1v-0.1c0-0.1,0-0.2,0-0.4c0-0.5-0.1-1-0.3-1.5c-0.1-0.3-0.3-0.7-0.4-1
							c-0.1-0.2-0.2-0.3-0.2-0.5s-0.1-0.3-0.2-0.5c-0.3-0.8-0.4-1.6-0.4-2.5c0-1,0.2-1.9,0.4-2.8c0.1-0.2,0.1-0.5,0.2-0.7
							s0.2-0.5,0.3-0.7s0.2-0.5,0.3-0.7l0.1-0.2l0,0l0,0l0,0c0,0,0,0,0,0c0,0,0,0,0,0l0,0l0,0l0.1,0.1c0.1,0,0.2,0.1,0.2,0.1
							c0.2,0.1,0.3,0.1,0.5,0.2c0.3,0.1,0.6,0.2,0.9,0.3c0.7,0.2,1.4,0.2,2,0.1c0.3,0,0.6-0.2,0.9-0.3c0.1-0.1,0.2-0.2,0.3-0.3
							c0.1-0.1,0.2-0.3,0.3-0.4c0-0.2,0-0.3,0-0.5c0-0.1-0.1-0.2-0.2-0.3c-0.1-0.1-0.2-0.2-0.4-0.3c-0.2-0.1-0.3-0.2-0.3-0.2
							c-0.2-0.1-0.5-0.3-0.8-0.3c-0.2-0.1-0.3-0.1-0.4,0c0,0.1,0,0.2,0.2,0.3C23,39.9,23.2,40.1,23.5,40.2z"/>
						<path id="Tracé_3936" class="st6" d="M15.2,38.2c0,0-0.2,0-0.5,0c-0.2,0-0.4,0-0.7,0c-0.2,0-0.3,0-0.5,0c-0.1,0-0.2,0-0.3,0
							l-0.1,0c0,0,0,0-0.1,0l0,0c0,0-0.1,0-0.1,0c0,0,0,0,0,0c0,0-0.1,0-0.1-0.1c-0.1,0-0.1,0-0.2,0c-0.1,0-0.3,0.1-0.3,0.2
							c0,0,0,0.1,0,0.1c0,0.1,0,0.1,0,0.2c0,0,0,0.1,0,0.1c0,0,0,0,0,0.1c0,0,0,0.1,0,0.2c0,0.2,0,0.4,0,0.7c0,0.6,0,1.3,0,2
							c0,0.3,0,0.7,0,1s0,0.7,0,1c-0.1,0.8-0.2,1.6-0.4,2.3c-0.4,1.3-0.7,2.6-0.9,3.9c0,0.3-0.1,0.5-0.1,0.7s0,0.4,0,0.5
							s0,0.3,0,0.3s0,0.1,0,0.1c0,0.1,0,0.3,0,0.4c0,0.1,0.1,0.2,0.1,0.3c0.1,0.2,0.1,0.3,0.2,0.3s0.1-0.1,0.1-0.3
							c0-0.1,0-0.2,0-0.3c0-0.1,0-0.2,0-0.3v-0.1c0-0.1,0-0.2,0-0.3c0-0.1,0-0.3,0-0.5s0-0.4,0.1-0.7c0.1-0.6,0.2-1.2,0.4-1.7
							c0.2-0.6,0.4-1.4,0.6-2.1c0.2-0.8,0.4-1.6,0.5-2.5c0-0.1,0-0.2,0-0.3v-0.3c0-0.2,0-0.4,0-0.5c0-0.3,0-0.7,0-1
							c0-0.7-0.1-1.3-0.1-1.9c0-0.2,0-0.5,0-0.7c0-0.1,0-0.2,0-0.3c0,0,0,0,0,0c0,0,0,0,0,0s0,0,0,0l0.1,0c0,0,0.1,0,0.1,0l0.2,0
							c0.1,0,0.2,0,0.3,0c0.2,0,0.4,0,0.5,0c0.3,0,0.6,0,0.8,0c0.4,0,0.5,0,0.5,0c0.2,0,0.5,0,0.7-0.1c0.2-0.1,0.3-0.2,0.3-0.2
							s-0.1-0.1-0.3-0.1C15.6,38.2,15.4,38.2,15.2,38.2z"/>
						<path id="Tracé_3937" class="st12" d="M18.4,51.8c-1.5-0.3-2.5,3.4-4.1,3.2c-1.4-0.1-1.4-1.4-2.2-0.6c-2,2.1-3.8,4.3-2.4,5.7
							c1.2,1.2,3.2,0.5,4.1,2.2c2,3.5,1,5.1,3.4,7.4c2.7,2.7,6.1,2,9.2-1.2s3.8-6.6,1-9.3c-2.3-2.2-6-1.9-7.1-3
							C19.3,55.2,19.8,52.1,18.4,51.8z"/>
						<path id="Tracé_3938" class="st12" d="M-10.2,34.3l2-2.1l28.9,28.4l-2,2.1L-10.2,34.3z"/>
						<path id="Tracé_3939" class="st3" d="M23.9,63.5l-2.3,2.4c-0.1,0.1-0.2,0.1-0.2,0c0,0,0,0,0,0l-0.8-0.8
							c-0.1-0.1-0.1-0.2,0-0.2l2.3-2.4c0.1-0.1,0.2-0.1,0.2,0c0,0,0,0,0,0l0.8,0.8C23.9,63.3,23.9,63.4,23.9,63.5
							C23.9,63.5,23.9,63.5,23.9,63.5"/>
						<path id="Tracé_3940" class="st3" d="M22.1,61.8l-2.3,2.4c-0.1,0.1-0.2,0.1-0.2,0c0,0,0,0,0,0l-0.8-0.8
							c-0.1-0.1-0.1-0.2,0-0.2l2.3-2.4c0.1-0.1,0.2-0.1,0.2,0c0,0,0,0,0,0l0.8,0.8C22.2,61.6,22.2,61.7,22.1,61.8"/>
						<path id="Tracé_3941" class="st6" d="M18.2,58l-2.3,2.4c-0.1,0.1-0.2,0.1-0.2,0c0,0,0,0,0,0l-0.8-0.8c-0.1-0.1-0.1-0.2,0-0.2
							l2.3-2.4c0.1-0.1,0.2-0.1,0.2,0c0,0,0,0,0,0l0.8,0.8C18.2,57.8,18.2,57.9,18.2,58"/>
						<path id="Tracé_3942" class="st12" d="M-4.4,35.9l-2.2,2.2c-0.2,0.2-0.4,0.2-0.6,0l-3-2.5c-0.4-0.3-0.4-0.9-0.1-1.3
							c0,0,0,0,0-0.1l2-2.1c0.3-0.4,0.9-0.4,1.3,0c0,0,0,0,0.1,0.1l2.5,3C-4.2,35.4-4.2,35.7-4.4,35.9"/>
						<path id="Tracé_3943" class="st3" d="M-9.5,35.5c0.3,0,0.6,0.3,0.6,0.6c0,0.3-0.3,0.6-0.6,0.6c-0.3,0-0.6-0.3-0.6-0.6
							c0,0,0,0,0,0C-10.1,35.8-9.8,35.5-9.5,35.5C-9.5,35.5-9.5,35.5-9.5,35.5"/>
						<path id="Tracé_3944" class="st3" d="M-7.8,36.9c0.3,0,0.6,0.3,0.6,0.6c0,0.3-0.3,0.6-0.6,0.6c-0.3,0-0.6-0.3-0.6-0.6
							c0,0,0,0,0,0C-8.5,37.2-8.2,36.9-7.8,36.9C-7.9,36.9-7.9,36.9-7.8,36.9"/>
						<path id="Tracé_3945" class="st3" d="M-6.5,32.4c0.3,0,0.6,0.3,0.6,0.6c0,0.3-0.3,0.6-0.6,0.6c-0.3,0-0.6-0.3-0.6-0.6
							c0,0,0,0,0,0C-7.1,32.7-6.8,32.4-6.5,32.4C-6.5,32.4-6.5,32.4-6.5,32.4"/>
						<path id="Tracé_3946" class="st3" d="M-5,34c0.3,0,0.6,0.3,0.6,0.6c0,0.3-0.3,0.6-0.6,0.6c-0.3,0-0.6-0.3-0.6-0.6
							c0,0,0,0,0,0C-5.7,34.3-5.4,34-5,34C-5,34-5,34-5,34"/>
						<path id="Tracé_3947" class="st15" d="M25,56.8c0-0.1,0-0.1-0.1-0.1c-1-0.2-2.1,0.1-2.9,0.8c-0.6,0.4-1.8,1.2-1.6,1.9
							c0.1,0.4,0.8,0.3,1.4,0c0.2-0.1,0.3,0.1,0.2,0.2c-0.4,1.2-2,1.3-2.2,2.2c-0.2,1,3.3,1.3,4.3,0.7c0.7-0.6,1.3-1.4,1.5-2.4
							c0.2-0.7,0.2-1.5,0-2.3L25,56.8z"/>
						<path id="Tracé_3948" class="st3" d="M29.9,57.1c0.1,0.2,0.1,0.4,0,0.6c-1.1,1.1-2.4,2.1-3.7,3c-0.3,0.2-0.6,0.1-0.8-0.1
							c0,0,0,0,0,0L22.9,57c-0.2-0.3-0.1-0.6,0.1-0.8c1.1-0.8,2.1-1.6,3-2.6c0.1-0.2,0.4-0.2,0.6,0c0,0,0,0,0,0L29.9,57.1z"/>
						<path id="Tracé_3949" class="st15" d="M-2.7,42.2L-2.7,42.2c-0.5-1,0.8-1.7-0.5-2.9c-0.8-0.7-3.1,1.8-3.1,3
							c0,0.4,0.1,0.9,0.2,1.3c0.2,0.4,0.5,0.7,0.9,0.9c0.8,0.4,1.8,0.1,2.3-0.7c0,0,0,0,0,0C-2.6,43.3-2.5,42.7-2.7,42.2z"/>
						<path id="Tracé_3950" class="st12" d="M28,44c0.3,0,0.5,0.2,0.5,0.5c0,0.3-0.2,0.5-0.5,0.6c-0.3,0-0.5-0.2-0.5-0.5
							c0,0,0,0,0,0C27.5,44.2,27.7,44,28,44C28,44,28,44,28,44"/>
						<path id="Tracé_3951" class="st12" d="M29.9,49.4c-0.1,0-0.1,0-0.1-0.1c0,0,0,0-1.9-3.1l-1.2-0.6c-0.1-0.1-0.1-0.2-0.1-0.3
							c0.1-0.1,0.2-0.1,0.3-0.1l1.2,0.6c0,0,0.1,0,0.1,0.1c0.6,1,1.5,2.5,1.8,3c0.3-0.1,0.9-0.5,1.5-0.8l-0.4-0.7l-1,0.5
							c-0.1,0.1-0.2,0-0.3-0.1l-0.7-1.2c-0.1-0.1,0-0.2,0.1-0.3c0,0,0.1,0,0.1,0l1.4-0.1c0.1,0,0.2,0.1,0.2,0.2
							c0,0.1-0.1,0.2-0.2,0.2l-1,0.1l0.4,0.7l1-0.5c0.1-0.1,0.2,0,0.3,0.1c0,0,0,0,0,0l0.6,1.1c0.1,0.1,0,0.2-0.1,0.3
							C31.4,48.8,30.7,49.2,29.9,49.4z"/>
						<path id="Tracé_3952" class="st12" d="M28.1,46.3c-0.1,0-0.2-0.1-0.2-0.2c0-0.1,0-0.1,0.1-0.2l1.2-0.8c0.1-0.1,0.2,0,0.3,0.1
							c0,0,0,0,0,0c0.1,0.1,0,0.2-0.1,0.3l-1.2,0.8C28.2,46.3,28.2,46.3,28.1,46.3"/>
						<path id="Tracé_3953" class="st12" d="M29.1,51.1c-0.1,0-0.2-0.1-0.2-0.2c0-0.1,0.1-0.2,0.2-0.2l2.4-0.6
							c0.1,0,0.2,0.1,0.3,0.2c0,0.1-0.1,0.2-0.2,0.3L29.1,51.1C29.2,51.1,29.2,51.1,29.1,51.1"/>
						<path id="Tracé_3954" class="st12" d="M29.8,52.2c-0.1,0-0.2-0.1-0.2-0.2c0-0.1,0.1-0.2,0.2-0.2l1.2,0l0.3-1.3l-0.8-1.4
							c-0.1-0.1,0-0.2,0.1-0.3c0.1-0.1,0.2,0,0.3,0.1l0.8,1.5c0,0,0,0.1,0,0.2L31.4,52c0,0.1-0.1,0.2-0.2,0.2L29.8,52.2L29.8,52.2"
							/>
						<path id="Tracé_3955" class="st12" d="M32.2,49.7c-0.1,0-0.2,0-0.2-0.1l-0.6-1.1c-0.1-0.1,0-0.2,0.1-0.3s0.2,0,0.3,0.1
							l0.6,1.1c0.1,0.1,0,0.2-0.1,0.3C32.3,49.7,32.2,49.7,32.2,49.7"/>
						<path id="Tracé_3956" class="st3" d="M16.6,38.4c0.1,0,0.2,0,0.3,0c0.1,0,0.3,0,0.5,0.1c0.1,0,0.3,0.1,0.4,0.1
							c0.1,0,0.2,0.1,0.3,0.1c0.1,0,0.2,0.1,0.2,0.3c0,0.1-0.1,0.2-0.3,0.3c-0.1,0-0.2,0-0.3,0.1c-0.2,0-0.3,0-0.5,0
							c-0.2,0-0.3-0.1-0.5-0.2c-0.1-0.1-0.2-0.1-0.3-0.2c-0.1-0.1-0.2-0.2-0.1-0.3C16.3,38.5,16.5,38.4,16.6,38.4
							C16.6,38.4,16.6,38.4,16.6,38.4z"/>
						<path id="Tracé_3957" class="st15" d="M22.7,39c0.5-0.4,0.8-0.8,1-1.4c0.7-2,1-4.1,1.1-6.3c0-2.4-1.6-4.5-4-4.9
							c-0.1,0,0.1,0,0,0c-2.5-0.4-4.9,1.2-5.3,3.7c0,0.1,0,0.1,0,0.2c-0.3,2-0.4,3.9-0.4,5.9c0,0.9,0.4,1.8,1.2,2.2
							c0,0-0.1,0.5-0.1,0.8c0,0.2,0.1,0.4,0.3,0.5c1.9,0.5,3.8,0.8,5.7,0.8c0.2,0,0.4-0.2,0.4-0.4C22.6,39.7,22.7,39,22.7,39"/>
						<path id="Tracé_3958" class="st3" d="M16.6,38.4c0.1,0,0.2,0,0.3,0c0.1,0,0.3,0,0.5,0.1c0.1,0,0.3,0.1,0.4,0.1
							c0.1,0,0.2,0.1,0.3,0.1c0.1,0,0.2,0.1,0.2,0.3c0,0.1-0.1,0.2-0.3,0.3c-0.1,0-0.2,0-0.3,0.1c-0.2,0-0.3,0-0.5,0
							c-0.2,0-0.3-0.1-0.5-0.2c-0.1-0.1-0.2-0.1-0.3-0.2c-0.1-0.1-0.2-0.2-0.1-0.3C16.3,38.5,16.5,38.4,16.6,38.4
							C16.6,38.4,16.6,38.4,16.6,38.4z"/>
						<path id="Tracé_3959" class="st3" d="M13.2,22.6c0.7-1,1.9-1.4,3-1.2c0-0.3,0.1-0.6,0.4-0.8c0.3-0.1,0.7,0.1,1,0.4l0,0
							c0.2-0.6,0.8-1.1,1.5-1.2c0.5-0.1,1.1,0,1.5,0.3l0,0c0.5-0.4,1.1-0.7,1.8-0.6c1.1,0,2,0.8,2,1.9c0,0,0,0,0,0.1
							c0.3-0.4,0.9-0.6,1.3-0.4c0.4,0.2,0.4,0.9,0.1,1.4l0,0c1.1-0.4,2.4-0.1,3.2,0.8c0.9,0.8,1.2,2.1,0.7,3.2l0,0
							c0.3,0,0.6,0.1,0.8,0.4c0.2,0.3-0.1,0.7-0.4,1l0,0c0.6,0.3,1,0.9,1.1,1.5c0.1,0.6-0.2,1.2-0.7,1.6l0,0
							c0.6,0.5,0.8,1.4,0.6,2.2c-0.2,0.8-0.8,1.3-1.5,1.5l0,0c0.4,0.3,0.6,0.8,0.4,1.1c-0.2,0.3-0.8,0.4-1.3,0.2
							c0.1,1-0.5,1.8-1.4,2.1c-0.5,0.2-1.1,0.2-1.7,0.1l0,0c0,0.2-0.1,0.4-0.2,0.6c-0.2,0.1-0.4,0-0.6-0.2 M24.7,38.5
							c-0.2,0.4-0.4,0.6-0.7,0.6s-0.4-0.4-0.5-0.8l0,0c-0.2,0.1-0.4,0.2-0.6,0.2c-1.3-0.6,0.5-3.8,0.8-4.8c0.4-1,1-2,0.3-2.4
							c-0.6-0.3-1,1-1.1,1.6l0,0c0,0,0,0.1,0,0.1c-0.1,0.9-1.4,0.5-1-0.4l0,0c0.4-1,0.4-2.1-0.1-3c-0.2-0.4-0.6-0.7-1-0.7
							c-0.6-0.1-1.3-0.3-1.9-0.4c-0.6-0.2-1.1-0.4-1.7-0.6c-0.5-0.2-1,0-1.2,0.5c-1.6,3.1-1.1,4.9-1.3,6c0,0.2-0.3,0.2-0.5,0.1
							c-0.3-0.1-0.5-0.3-0.6-0.6l0,0c-0.3,0.1-0.6,0.1-0.8-0.1c-0.2-0.2,0-0.6,0.2-0.8l0,0c-0.5-0.2-0.8-0.6-1-1.1
							c-0.2-0.5-0.2-1.1,0.1-1.6c-0.4,0-0.7-0.2-0.8-0.4c-0.1-0.3,0.3-0.7,0.8-0.9l0,0c-0.3-0.2-0.5-0.5-0.5-0.7
							c0.1-0.3,0.5-0.4,0.9-0.4l0,0c-0.7-0.5-0.9-1.5-0.5-2.2c0.1-0.2,0.3-0.4,0.5-0.5l0,0c-0.3-0.9-0.1-1.8,0.5-2.6L24.7,38.5z"/>
						<path id="Tracé_3960" class="st3" d="M19.7,32.6c-0.1,0.1-0.1,0.2-0.1,0.3c0,0.1,0,0.2,0,0.4c0,0.2,0.1,0.4,0.3,0.5
							c0,0,0,0,0,0c0.2,0.1,0.4,0,0.5-0.3c0.1-0.1,0.1-0.2,0.1-0.3c0-0.1,0-0.2,0-0.4c0-0.2-0.1-0.4-0.3-0.5c0,0,0,0,0,0
							C20,32.3,19.7,32.4,19.7,32.6"/>
						<path id="Tracé_3961" class="st3" d="M15.3,31.6c-0.1,0.1-0.1,0.2-0.1,0.3c0,0.1,0,0.2,0,0.4c0,0.2,0.1,0.4,0.3,0.5
							c0,0,0,0,0,0c0.2,0.1,0.4,0,0.5-0.3c0.1-0.1,0.1-0.2,0.1-0.3c0-0.1,0-0.2,0-0.4c0-0.2-0.1-0.4-0.3-0.5c0,0,0,0,0,0
							C15.6,31.3,15.4,31.4,15.3,31.6"/>
						<path id="Tracé_3962" class="st3" d="M17,36.1c0.5,0.1,1.1-0.1,1.4-0.5c0-0.2-0.1-0.4-0.3-0.4c0,0,0,0,0,0
							c-0.3-0.1-0.6-0.2-0.8-0.2c-0.3-0.1-0.6-0.1-0.9-0.1c-0.2-0.1-0.4,0.1-0.4,0.2c0,0,0,0,0,0C16,35.2,16.4,35.9,17,36.1"/>
						<path id="Tracé_3963" class="st3" d="M26.1,5.3c0.7,0.1,1.3,0.2,1.3,0.2c0.4,0,0.8,0.3,1,0.6c0.2,0.4,0.2,0.8,0.1,1.2
							c0,0-0.6,1.1-1.2,2.2c-0.9,1.6-1.9,3.3-1.9,3.3c-0.1,0.3-0.5,0.5-0.8,0.3c0,0,0,0,0,0c-0.3-0.1-0.5-0.5-0.3-0.8c0,0,0,0,0,0
							c0,0,0.6-1.9,1.2-3.7c0.1-0.3,0.2-0.5,0.3-0.7c-0.7-0.1-1.3-0.2-1.3-0.2c-0.4,0-0.8-0.3-1-0.6c-0.2-0.4-0.2-0.8-0.1-1.2
							c0,0,0.5-1.1,1.2-2.2c0.8-1.6,1.8-3.3,1.8-3.3c0.1-0.3,0.5-0.5,0.8-0.4c0,0,0,0,0,0c0.3,0.1,0.5,0.5,0.3,0.8c0,0,0,0,0,0
							c0,0-0.5,2-1,3.6C26.2,4.8,26.1,5,26.1,5.3"/>
						<path id="Tracé_3964" class="st12" d="M-6,28.4c0,0,0.1-0.2,0.3-0.6c0.1-0.2,0.2-0.4,0.2-0.6c0-0.1,0.1-0.3,0.1-0.4
							c0.1-0.5,0.1-0.9,0.1-0.9c0.1-0.3-0.1-0.5-0.3-0.6c-0.3-0.1-0.5,0.1-0.6,0.3c0,0-0.2,0.3-0.4,0.8c0,0.1-0.1,0.2-0.1,0.4
							c-0.1,0.2-0.1,0.4-0.1,0.6c0,0.4-0.1,0.6-0.1,0.6c-0.1,0.3,0.1,0.5,0.3,0.6C-6.4,28.8-6.1,28.6-6,28.4"/>
						<path id="Tracé_3965" class="st12" d="M-3.5,30.4c0.1,0,0.2,0,0.3-0.1c0.1,0,0.2,0,0.3-0.1c0.1,0,0.1-0.1,0.2-0.1
							c0.1-0.1,0.2-0.2,0.3-0.3c0.2-0.1,0.3-0.4,0.2-0.7c0,0,0,0,0,0c-0.1-0.2-0.4-0.3-0.7-0.2C-3,29-3.1,29-3.3,29
							c-0.1,0-0.1,0-0.2,0.1c-0.1,0.1-0.2,0.1-0.3,0.2L-4,29.5c-0.2,0.1-0.3,0.4-0.2,0.7c0,0,0,0,0,0C-4,30.4-3.7,30.5-3.5,30.4
							C-3.5,30.4-3.5,30.4-3.5,30.4"/>
						<path id="Tracé_3966" class="st12" d="M-9.4,27.9c0-0.1,0-0.2-0.1-0.3c0-0.1-0.1-0.2-0.1-0.3c0-0.1-0.1-0.1-0.1-0.2
							c-0.1-0.1-0.2-0.2-0.4-0.3c-0.1-0.2-0.4-0.3-0.7-0.2c-0.2,0.1-0.3,0.4-0.2,0.7c0,0,0,0,0,0c0,0.2,0,0.3,0.1,0.5
							c0,0.1,0,0.1,0.1,0.2c0.1,0.1,0.1,0.2,0.2,0.3l0.3,0.2c0.1,0.2,0.4,0.3,0.7,0.2C-9.4,28.4-9.3,28.1-9.4,27.9
							C-9.4,27.9-9.4,27.9-9.4,27.9"/>
					</g>
				</g>
			</g>
			<g id="Ellipse_422" transform="translate(200 476)">
				<circle class="st6" cx="3.5" cy="14.5" r="14.5"/>
				<circle class="st16" cx="3.5" cy="14.5" r="13"/>
			</g>
			<g id="Ellipse_423" transform="translate(276 401)">
				<circle class="st6" cx="3.5" cy="14.5" r="14.5"/>
				<circle class="st16" cx="3.5" cy="14.5" r="13"/>
			</g>
		</g>
	</g>
	<g id="TEXTES_FR" class="st18">
	</g>
	<g id="TEXTES_GB">
	</g>
	<g id="Calque_5">
	</g>
</g>
<g id="EN">
	<g class="st19">
		<path class="st3" d="M31.9,384.5h5c3.5,0,5.9,2,5.9,5.2s-2.4,5.2-5.9,5.2h-5V384.5z M36.8,392.6c1.8,0,3-1.1,3-2.9
			c0-1.8-1.2-2.9-3-2.9h-1.9v5.8H36.8z"/>
		<path class="st3" d="M51.2,393h-4.4l-0.8,2h-3l4.6-10.5h2.9l4.6,10.5H52L51.2,393z M50.4,390.8l-1.4-3.4l-1.4,3.4H50.4z"/>
		<path class="st3" d="M60.9,391.2v3.8h-3v-3.8l-4-6.7h3.1l2.5,4.2l2.5-4.2H65L60.9,391.2z"/>
		<path class="st3" d="M74,384.5V395h-3v-8.2h-2v-2.3H74z"/>
	</g>
	<g class="st19">
		<path class="st3" d="M268.4,384.5h3V395h-3V384.5z"/>
		<path class="st3" d="M283.5,384.5V395H281l-4.6-5.6v5.6h-2.9v-10.5h2.4l4.6,5.6v-5.6H283.5z"/>
		<path class="st3" d="M293.9,384.5V395h-3v-8.2h-2v-2.3H293.9z"/>
		<path class="st3" d="M306,391.2v3.8h-3v-3.8l-4-6.7h3.1l2.5,4.2l2.5-4.2h2.9L306,391.2z"/>
		<path class="st3" d="M319.2,392.7v2.3h-8.4v-10.5h8.2v2.3h-5.3v1.8h4.7v2.2h-4.7v1.9H319.2z"/>
		<path class="st3" d="M327.8,393h-4.4l-0.8,2h-3l4.6-10.5h2.9l4.6,10.5h-3.1L327.8,393z M327,390.8l-1.4-3.4l-1.4,3.4H327z"/>
		<path class="st3" d="M337.2,392.2h-1.6v2.8h-3v-10.5h4.8c2.9,0,4.7,1.5,4.7,3.9c0,1.5-0.8,2.7-2.1,3.3l2.3,3.3h-3.2L337.2,392.2z
			 M337.2,386.8h-1.6v3.1h1.6c1.2,0,1.8-0.6,1.8-1.5C339.1,387.4,338.4,386.8,337.2,386.8z"/>
	</g>
	<g>
		<path class="st3" d="M261.8,302.7c-1.3,0-2.4,0.6-3,1.6v-1.6h-1v10.8h1.1v-4.4c0.7,1,1.7,1.6,3,1.6c2.2,0,3.9-1.6,3.9-4
			C265.7,304.3,264.1,302.7,261.8,302.7z M261.7,309.8c-1.7,0-2.9-1.2-2.9-3.1c0-1.8,1.3-3.1,2.9-3.1c1.7,0,2.9,1.2,2.9,3.1
			C264.7,308.6,263.4,309.8,261.7,309.8z"/>
		<path class="st3" d="M271,302.7c-2.2,0-3.9,1.7-3.9,4c0,2.3,1.7,4,4.1,4c1.2,0,2.3-0.5,3-1.3l-0.6-0.7c-0.6,0.7-1.5,1-2.4,1
			c-1.7,0-3-1.1-3.1-2.7h6.6c0-0.1,0-0.2,0-0.3C274.8,304.4,273.2,302.7,271,302.7z M268.2,306.3c0.1-1.5,1.3-2.6,2.8-2.6
			c1.5,0,2.7,1.1,2.8,2.6H268.2z"/>
		<path class="st3" d="M278,304.3v-1.5h-1v7.9h1.1v-4c0-1.9,1-2.9,2.7-2.9c0.1,0,0.2,0,0.3,0v-1C279.5,302.7,278.5,303.3,278,304.3z
			"/>
		<path class="st3" d="M289.5,309.5l-3-6.7h-1.1l3.5,7.9l-0.3,0.8c-0.4,1-0.9,1.3-1.6,1.3c-0.6,0-1.1-0.2-1.4-0.6l-0.5,0.8
			c0.5,0.5,1.2,0.7,1.9,0.7c1.1,0,2-0.5,2.6-2l3.9-8.8h-1L289.5,309.5z"/>
		<path class="st3" d="M297.9,302.7c-2.2,0-3.9,1.7-3.9,4c0,2.3,1.7,4,4.1,4c1.2,0,2.3-0.5,3-1.3l-0.6-0.7c-0.6,0.7-1.5,1-2.4,1
			c-1.7,0-3-1.1-3.1-2.7h6.6c0-0.1,0-0.2,0-0.3C301.7,304.4,300.1,302.7,297.9,302.7z M295.1,306.3c0.1-1.5,1.3-2.6,2.8-2.6
			c1.5,0,2.7,1.1,2.8,2.6H295.1z"/>
		<path class="st3" d="M306.4,302.7c-1.2,0-2.4,0.4-3.2,1.1l0.5,0.8c0.6-0.6,1.6-0.9,2.6-0.9c1.5,0,2.2,0.7,2.2,2.1v0.5H306
			c-2.3,0-3,1-3,2.2c0,1.4,1.1,2.3,2.9,2.3c1.3,0,2.2-0.5,2.7-1.3v1.2h1v-4.9C309.6,303.7,308.5,302.7,306.4,302.7z M308.5,308.3
			c-0.4,1-1.3,1.6-2.5,1.6c-1.3,0-2-0.6-2-1.5c0-0.8,0.5-1.4,2-1.4h2.5V308.3z"/>
		<path class="st3" d="M313.5,304.3v-1.5h-1v7.9h1.1v-4c0-1.9,1-2.9,2.7-2.9c0.1,0,0.2,0,0.3,0v-1C315,302.7,314,303.3,313.5,304.3z
			"/>
	</g>
	<g class="st19">
		<path class="st3" d="M56,103.4l-3,7.9h-1l-2.5-6.5l-2.5,6.5h-1l-3-7.9h1l2.5,6.7l2.5-6.7H50l2.5,6.7l2.5-6.7H56z"/>
		<path class="st3" d="M57.3,100.9c0-0.4,0.3-0.8,0.8-0.8s0.8,0.3,0.8,0.7c0,0.4-0.3,0.8-0.8,0.8C57.7,101.7,57.3,101.3,57.3,100.9z
			 M57.6,103.4h1.1v7.9h-1.1V103.4z"/>
		<path class="st3" d="M65.8,110.8c-0.4,0.4-1,0.6-1.7,0.6c-1.5,0-2.3-0.8-2.3-2.3v-4.8h-1.4v-0.9h1.4v-1.7h1.1v1.7h2.4v0.9h-2.4
			v4.7c0,0.9,0.5,1.4,1.4,1.4c0.4,0,0.9-0.1,1.2-0.4L65.8,110.8z"/>
		<path class="st3" d="M75,106.7v4.6h-1.1v-4.5c0-1.7-0.9-2.5-2.4-2.5c-1.7,0-2.8,1-2.8,2.8v4.1h-1.1v-11.1h1.1v4.6
			c0.6-0.9,1.6-1.4,3-1.4C73.6,103.3,75,104.4,75,106.7z"/>
		<path class="st3" d="M83,102.5v0.9h2.4v0.9H83v7H82v-7h-1.4v-0.9H82v-1c0-1.4,0.8-2.3,2.4-2.3c0.6,0,1.2,0.2,1.6,0.5l-0.4,0.8
			c-0.3-0.3-0.7-0.4-1.2-0.4C83.5,101,83,101.5,83,102.5z"/>
		<path class="st3" d="M92,103.3v1c-0.1,0-0.2,0-0.3,0c-1.6,0-2.7,1-2.7,2.9v4h-1.1v-7.9h1v1.5C89.6,103.9,90.6,103.3,92,103.3z"/>
		<path class="st3" d="M93.7,100.9c0-0.4,0.3-0.8,0.8-0.8s0.8,0.3,0.8,0.7c0,0.4-0.3,0.8-0.8,0.8C94.1,101.7,93.7,101.3,93.7,100.9z
			 M94,103.4H95v7.9H94V103.4z"/>
		<path class="st3" d="M104.9,107.7h-6.6c0.1,1.7,1.4,2.7,3.1,2.7c1,0,1.8-0.3,2.4-1l0.6,0.7c-0.7,0.8-1.8,1.3-3,1.3
			c-2.5,0-4.1-1.7-4.1-4c0-2.3,1.6-4,3.9-4c2.2,0,3.8,1.6,3.8,4C104.9,107.4,104.9,107.5,104.9,107.7z M98.3,106.9h5.6
			c-0.1-1.5-1.3-2.6-2.8-2.6C99.5,104.2,98.4,105.3,98.3,106.9z"/>
		<path class="st3" d="M114.3,106.7v4.6h-1.1v-4.5c0-1.7-0.9-2.5-2.4-2.5c-1.7,0-2.8,1-2.8,2.8v4.1h-1.1v-7.9h1v1.5
			c0.6-1,1.6-1.5,3-1.5C113,103.3,114.3,104.4,114.3,106.7z"/>
		<path class="st3" d="M124.4,100.1v11.1h-1v-1.6c-0.6,1.1-1.7,1.6-3,1.6c-2.2,0-3.9-1.6-3.9-4c0-2.4,1.7-4,3.9-4
			c1.3,0,2.3,0.5,3,1.6v-4.7H124.4z M123.4,107.3c0-1.8-1.3-3.1-2.9-3.1c-1.7,0-2.9,1.2-2.9,3.1c0,1.8,1.3,3.1,2.9,3.1
			C122.1,110.4,123.4,109.2,123.4,107.3z"/>
		<path class="st3" d="M126.3,110.4l0.5-0.8c0.6,0.5,1.7,0.9,2.8,0.9c1.5,0,2.1-0.5,2.1-1.3c0-2.1-5.1-0.4-5.1-3.6
			c0-1.3,1.1-2.2,3.1-2.2c1,0,2.1,0.3,2.8,0.7l-0.5,0.9c-0.7-0.5-1.5-0.7-2.3-0.7c-1.4,0-2.1,0.6-2.1,1.3c0,2.1,5.1,0.5,5.1,3.6
			c0,1.4-1.2,2.2-3.3,2.2C128.2,111.3,127,110.9,126.3,110.4z"/>
	</g>
	<g class="st19">
		<path class="st6" d="M44.5,10.6H40V8h12.2v2.6h-4.5V22h-3.2V10.6z"/>
		<path class="st6" d="M51.7,16.6c0-3.2,2.5-5.5,5.9-5.5c3.4,0,5.9,2.3,5.9,5.5c0,3.2-2.5,5.5-5.9,5.5
			C54.2,22.2,51.7,19.9,51.7,16.6z M60.3,16.6c0-1.9-1.2-3-2.7-3c-1.6,0-2.8,1.1-2.8,3s1.2,3,2.8,3C59.2,19.6,60.3,18.5,60.3,16.6z"
			/>
		<path class="st6" d="M72.3,21.5c-0.6,0.5-1.6,0.7-2.5,0.7c-2.5,0-4-1.3-4-3.9v-4.4h-1.7v-2.4h1.7V8.9h3.1v2.6h2.7v2.4h-2.7v4.4
			c0,0.9,0.5,1.4,1.3,1.4c0.5,0,0.9-0.1,1.3-0.4L72.3,21.5z"/>
		<path class="st6" d="M83.4,15.9V22h-2.9v-1.3c-0.6,1-1.7,1.5-3.3,1.5c-2.5,0-4-1.4-4-3.3c0-1.9,1.3-3.2,4.6-3.2h2.5
			c0-1.3-0.8-2.1-2.5-2.1c-1.1,0-2.3,0.4-3.1,1l-1.1-2.2c1.2-0.8,2.9-1.3,4.6-1.3C81.5,11.1,83.4,12.6,83.4,15.9z M80.3,18.6v-1.1
			h-2.1c-1.5,0-1.9,0.5-1.9,1.3c0,0.8,0.7,1.3,1.8,1.3C79.1,20.1,80,19.6,80.3,18.6z"/>
		<path class="st6" d="M86.1,7.2h3.1V22h-3.1V7.2z"/>
		<path class="st6" d="M104.3,21.5c-0.6,0.5-1.6,0.7-2.5,0.7c-2.5,0-4-1.3-4-3.9v-4.4h-1.7v-2.4h1.7V8.9h3.1v2.6h2.7v2.4h-2.7v4.4
			c0,0.9,0.5,1.4,1.3,1.4c0.5,0,0.9-0.1,1.3-0.4L104.3,21.5z"/>
		<path class="st6" d="M105.5,8c0-1,0.8-1.7,1.9-1.7c1.2,0,1.9,0.7,1.9,1.7c0,1-0.8,1.8-1.9,1.8C106.3,9.7,105.5,9,105.5,8z
			 M105.9,11.2h3.1V22h-3.1V11.2z"/>
		<path class="st6" d="M129.9,15.8V22h-3.1v-5.7c0-1.7-0.8-2.5-2-2.5c-1.4,0-2.4,0.9-2.4,2.8V22h-3.1v-5.7c0-1.7-0.7-2.5-2-2.5
			c-1.4,0-2.4,0.9-2.4,2.8V22h-3.1V11.2h3v1.2c0.8-0.9,2-1.4,3.4-1.4c1.5,0,2.8,0.6,3.5,1.8c0.9-1.1,2.3-1.8,3.9-1.8
			C128.1,11.1,129.9,12.6,129.9,15.8z"/>
		<path class="st6" d="M143.2,17.5H135c0.3,1.3,1.4,2.2,3.1,2.2c1.1,0,2-0.3,2.7-1l1.7,1.8c-1,1.1-2.5,1.7-4.4,1.7
			c-3.7,0-6.1-2.3-6.1-5.5c0-3.2,2.5-5.5,5.7-5.5c3.2,0,5.6,2.1,5.6,5.6C143.2,16.9,143.2,17.2,143.2,17.5z M135,15.7h5.3
			c-0.2-1.4-1.2-2.2-2.6-2.2C136.2,13.4,135.2,14.3,135,15.7z"/>
		<path class="st6" d="M149.6,21l1-2.2c1,0.6,2.4,1,3.7,1c1.4,0,2-0.4,2-1c0-1.8-6.5,0-6.5-4.3c0-2,1.8-3.5,5-3.5
			c1.5,0,3.1,0.3,4.1,0.9l-1,2.2c-1.1-0.6-2.1-0.8-3.1-0.8c-1.4,0-2,0.4-2,1c0,1.8,6.5,0.1,6.5,4.3c0,2-1.9,3.4-5.1,3.4
			C152.4,22.2,150.6,21.7,149.6,21z"/>
		<path class="st6" d="M170.6,15.9V22h-2.9v-1.3c-0.6,1-1.7,1.5-3.3,1.5c-2.5,0-4-1.4-4-3.3c0-1.9,1.3-3.2,4.6-3.2h2.5
			c0-1.3-0.8-2.1-2.5-2.1c-1.1,0-2.3,0.4-3.1,1l-1.1-2.2c1.2-0.8,2.9-1.3,4.6-1.3C168.7,11.1,170.6,12.6,170.6,15.9z M167.4,18.6
			v-1.1h-2.1c-1.5,0-1.9,0.5-1.9,1.3c0,0.8,0.7,1.3,1.8,1.3C166.2,20.1,167.1,19.6,167.4,18.6z"/>
		<path class="st6" d="M183.7,11.2L179.1,22h-3.2l-4.5-10.8h3.2l3,7.3l3.1-7.3H183.7z"/>
		<path class="st6" d="M195,17.5h-8.1c0.3,1.3,1.4,2.2,3.1,2.2c1.1,0,2-0.3,2.7-1l1.7,1.8c-1,1.1-2.5,1.7-4.4,1.7
			c-3.7,0-6.1-2.3-6.1-5.5c0-3.2,2.5-5.5,5.7-5.5c3.2,0,5.6,2.1,5.6,5.6C195,16.9,195,17.2,195,17.5z M186.8,15.7h5.3
			c-0.2-1.4-1.2-2.2-2.6-2.2C188,13.4,187,14.3,186.8,15.7z"/>
		<path class="st6" d="M207.9,7.2V22h-3v-1.2c-0.8,0.9-1.9,1.4-3.4,1.4c-3,0-5.4-2.2-5.4-5.5s2.3-5.5,5.4-5.5c1.3,0,2.4,0.4,3.2,1.3
			V7.2H207.9z M204.8,16.6c0-1.9-1.2-3-2.7-3c-1.6,0-2.8,1.1-2.8,3s1.2,3,2.8,3C203.6,19.6,204.8,18.5,204.8,16.6z"/>
		<path class="st6" d="M219.5,11.5h2.8v2.4h-2.7V22h-3.1v-8.1h-1.7v-2.4h1.7V11c0-2.4,1.5-4,4.2-4c0.9,0,1.8,0.2,2.4,0.6l-0.8,2.3
			c-0.3-0.2-0.8-0.4-1.3-0.4c-0.9,0-1.4,0.5-1.4,1.6V11.5z"/>
		<path class="st6" d="M231.9,11.1V14c-0.3,0-0.5,0-0.7,0c-1.7,0-2.9,0.9-2.9,3V22h-3.1V11.2h3v1.4C229,11.6,230.2,11.1,231.9,11.1z
			"/>
		<path class="st6" d="M232.7,16.6c0-3.2,2.5-5.5,5.9-5.5c3.4,0,5.9,2.3,5.9,5.5c0,3.2-2.5,5.5-5.9,5.5
			C235.2,22.2,232.7,19.9,232.7,16.6z M241.3,16.6c0-1.9-1.2-3-2.7-3c-1.6,0-2.8,1.1-2.8,3s1.2,3,2.8,3
			C240.2,19.6,241.3,18.5,241.3,16.6z"/>
		<path class="st6" d="M264.6,15.8V22h-3.1v-5.7c0-1.7-0.8-2.5-2-2.5c-1.4,0-2.4,0.9-2.4,2.8V22h-3.1v-5.7c0-1.7-0.7-2.5-2-2.5
			c-1.4,0-2.4,0.9-2.4,2.8V22h-3.1V11.2h3v1.2c0.8-0.9,2-1.4,3.4-1.4c1.5,0,2.8,0.6,3.5,1.8c0.9-1.1,2.3-1.8,3.9-1.8
			C262.7,11.1,264.6,12.6,264.6,15.8z"/>
		<path class="st6" d="M271.6,21l1-2.2c1,0.6,2.4,1,3.7,1c1.4,0,2-0.4,2-1c0-1.8-6.5,0-6.5-4.3c0-2,1.8-3.5,5-3.5
			c1.5,0,3.1,0.3,4.1,0.9l-1,2.2c-1.1-0.6-2.1-0.8-3.1-0.8c-1.4,0-2,0.4-2,1c0,1.8,6.5,0.1,6.5,4.3c0,2-1.9,3.4-5.1,3.4
			C274.5,22.2,272.6,21.7,271.6,21z"/>
		<path class="st6" d="M282.3,16.6c0-3.2,2.5-5.5,6-5.5c2.3,0,4,1,4.8,2.7l-2.4,1.3c-0.6-1-1.4-1.5-2.4-1.5c-1.6,0-2.8,1.1-2.8,3
			c0,1.9,1.2,3,2.8,3c1,0,1.8-0.4,2.4-1.5l2.4,1.3c-0.8,1.7-2.6,2.7-4.8,2.7C284.8,22.2,282.3,19.9,282.3,16.6z"/>
		<path class="st6" d="M301.4,11.1V14c-0.3,0-0.5,0-0.7,0c-1.7,0-2.9,0.9-2.9,3V22h-3.1V11.2h3v1.4
			C298.5,11.6,299.8,11.1,301.4,11.1z"/>
		<path class="st6" d="M313.5,17.5h-8.1c0.3,1.3,1.4,2.2,3.1,2.2c1.1,0,2-0.3,2.7-1l1.7,1.8c-1,1.1-2.5,1.7-4.4,1.7
			c-3.7,0-6.1-2.3-6.1-5.5c0-3.2,2.5-5.5,5.7-5.5c3.2,0,5.6,2.1,5.6,5.6C313.6,16.9,313.5,17.2,313.5,17.5z M305.3,15.7h5.3
			c-0.2-1.4-1.2-2.2-2.6-2.2C306.6,13.4,305.5,14.3,305.3,15.7z"/>
		<path class="st6" d="M325.9,17.5h-8.1c0.3,1.3,1.4,2.2,3.1,2.2c1.1,0,2-0.3,2.7-1l1.7,1.8c-1,1.1-2.5,1.7-4.4,1.7
			c-3.7,0-6.1-2.3-6.1-5.5c0-3.2,2.5-5.5,5.7-5.5c3.2,0,5.6,2.1,5.6,5.6C326,16.9,326,17.2,325.9,17.5z M317.8,15.7h5.3
			c-0.2-1.4-1.2-2.2-2.6-2.2C319,13.4,318,14.3,317.8,15.7z"/>
		<path class="st6" d="M338.9,15.8V22h-3.1v-5.7c0-1.7-0.8-2.5-2.2-2.5c-1.5,0-2.6,0.9-2.6,2.9V22h-3.1V11.2h3v1.3
			c0.8-0.9,2.1-1.4,3.6-1.4C337,11.1,338.9,12.6,338.9,15.8z"/>
		<path class="st6" d="M340.5,21l1-2.2c1,0.6,2.4,1,3.7,1c1.4,0,2-0.4,2-1c0-1.8-6.5,0-6.5-4.3c0-2,1.8-3.5,5-3.5
			c1.5,0,3.1,0.3,4.1,0.9l-1,2.2c-1.1-0.6-2.1-0.8-3.1-0.8c-1.4,0-2,0.4-2,1c0,1.8,6.5,0.1,6.5,4.3c0,2-1.9,3.4-5.1,3.4
			C343.3,22.2,341.5,21.7,340.5,21z"/>
	</g>
</g>
<g id="FR" class="st18">
	<g class="st20">
		<path class="st6" d="M43,10.6h-4.5V8h12.2v2.6h-4.5V22H43V10.6z"/>
		<path class="st6" d="M61.4,17.5h-8.1c0.3,1.3,1.4,2.2,3.1,2.2c1.1,0,2-0.3,2.7-1l1.7,1.8c-1,1.1-2.5,1.7-4.4,1.7
			c-3.7,0-6.1-2.3-6.1-5.5s2.5-5.5,5.7-5.5s5.6,2.1,5.6,5.6C61.5,16.9,61.5,17.2,61.4,17.5z M53.3,15.7h5.3
			c-0.2-1.4-1.2-2.2-2.6-2.2C54.5,13.4,53.5,14.3,53.3,15.7z"/>
		<path class="st6" d="M81.6,15.8V22h-3.1v-5.7c0-1.7-0.8-2.5-2-2.5c-1.4,0-2.4,0.9-2.4,2.8V22H71v-5.7c0-1.7-0.7-2.5-2-2.5
			c-1.4,0-2.4,0.9-2.4,2.8V22h-3.2V11.2h3v1.2c0.8-0.9,2-1.4,3.4-1.4c1.5,0,2.8,0.6,3.5,1.8c0.9-1.1,2.3-1.8,3.9-1.8
			C79.7,11,81.6,12.5,81.6,15.8z"/>
		<path class="st6" d="M95.9,16.6c0,3.4-2.3,5.5-5.4,5.5c-1.3,0-2.4-0.4-3.2-1.3v5h-3.1V11.2h3v1.2c0.8-0.9,1.9-1.4,3.4-1.4
			C93.6,11,95.9,13.2,95.9,16.6z M92.8,16.6c0-1.9-1.2-3-2.7-3c-1.6,0-2.7,1.1-2.7,3s1.2,3,2.7,3C91.6,19.6,92.8,18.5,92.8,16.6z"/>
		<path class="st6" d="M96.8,21l1-2.2c1,0.6,2.4,1,3.7,1c1.4,0,2-0.4,2-1c0-1.8-6.5,0-6.5-4.3c0-2,1.8-3.5,5-3.5
			c1.5,0,3.1,0.3,4.1,0.9l-1,2.2c-1.1-0.6-2.1-0.8-3.1-0.8c-1.4,0-2,0.4-2,1c0,1.8,6.5,0.1,6.5,4.3c0,2-1.9,3.4-5.1,3.4
			C99.6,22.1,97.8,21.6,96.8,21z"/>
		<path class="st6" d="M120.7,21.5c-0.6,0.5-1.6,0.7-2.5,0.7c-2.5,0-4-1.3-4-3.9v-4.4h-1.7v-2.4h1.7V8.9h3.1v2.6h2.7v2.4h-2.7v4.4
			c0,0.9,0.5,1.4,1.3,1.4c0.5,0,0.9-0.1,1.3-0.4L120.7,21.5z"/>
		<path class="st6" d="M121.1,16.6c0-3.2,2.5-5.5,5.9-5.5s5.9,2.3,5.9,5.5s-2.5,5.5-5.9,5.5S121.1,19.8,121.1,16.6z M129.8,16.6
			c0-1.9-1.2-3-2.7-3c-1.6,0-2.8,1.1-2.8,3s1.2,3,2.8,3C128.6,19.6,129.8,18.5,129.8,16.6z"/>
		<path class="st6" d="M141.8,21.5c-0.6,0.5-1.6,0.7-2.5,0.7c-2.5,0-4-1.3-4-3.9v-4.4h-1.7v-2.4h1.7V8.9h3.1v2.6h2.7v2.4h-2.7v4.4
			c0,0.9,0.5,1.4,1.3,1.4c0.5,0,0.9-0.1,1.3-0.4L141.8,21.5z"/>
		<path class="st6" d="M152.9,15.8v6.1H150v-1.3c-0.6,1-1.7,1.5-3.3,1.5c-2.5,0-4-1.4-4-3.3s1.3-3.2,4.6-3.2h2.5
			c0-1.3-0.8-2.1-2.5-2.1c-1.1,0-2.3,0.4-3.1,1l-1.1-2.2c1.2-0.8,2.9-1.3,4.6-1.3C151,11,152.9,12.6,152.9,15.8z M149.8,18.6v-1.1
			h-2.1c-1.5,0-1.9,0.5-1.9,1.3s0.7,1.3,1.8,1.3C148.5,20,149.4,19.6,149.8,18.6z"/>
		<path class="st6" d="M155.5,7.1h3.1v14.8h-3.1V7.1z"/>
		<path class="st6" d="M165.8,21l1-2.2c1,0.6,2.4,1,3.7,1c1.4,0,2-0.4,2-1c0-1.8-6.5,0-6.5-4.3c0-2,1.8-3.5,5-3.5
			c1.5,0,3.1,0.3,4.1,0.9l-1,2.2c-1.1-0.6-2.1-0.8-3.1-0.8c-1.4,0-2,0.4-2,1c0,1.8,6.5,0.1,6.5,4.3c0,2-1.9,3.4-5.1,3.4
			C168.6,22.1,166.8,21.6,165.8,21z"/>
		<path class="st6" d="M186.8,15.8v6.1h-2.9v-1.3c-0.6,1-1.7,1.5-3.3,1.5c-2.5,0-4-1.4-4-3.3s1.3-3.2,4.6-3.2h2.5
			c0-1.3-0.8-2.1-2.5-2.1c-1.1,0-2.3,0.4-3.1,1l-1.1-2.2c1.2-0.8,2.9-1.3,4.6-1.3C184.9,11,186.8,12.6,186.8,15.8z M183.7,18.6v-1.1
			h-2.1c-1.5,0-1.9,0.5-1.9,1.3s0.7,1.3,1.8,1.3C182.4,20,183.3,19.6,183.7,18.6z"/>
		<path class="st6" d="M200.3,11.2V22h-3v-1.3c-0.8,0.9-2,1.4-3.3,1.4c-2.7,0-4.6-1.5-4.6-4.8v-6.1h3.1v5.6c0,1.8,0.8,2.6,2.2,2.6
			s2.5-0.9,2.5-2.9v-5.3L200.3,11.2L200.3,11.2z"/>
		<path class="st6" d="M213.7,11.2L209.2,22H206l-4.5-10.8h3.2l3,7.3l3.1-7.3H213.7z"/>
		<path class="st6" d="M225,17.5h-8.1c0.3,1.3,1.4,2.2,3.1,2.2c1.1,0,2-0.3,2.7-1l1.7,1.8c-1,1.1-2.5,1.7-4.4,1.7
			c-3.7,0-6.1-2.3-6.1-5.5s2.5-5.5,5.7-5.5s5.6,2.1,5.6,5.6C225,16.9,225,17.2,225,17.5z M216.8,15.7h5.3c-0.2-1.4-1.2-2.2-2.6-2.2
			C218,13.4,217,14.3,216.8,15.7z M220,9.8h-2.4l2.7-2.9h3.4L220,9.8z"/>
		<path class="st6" d="M243.4,15.8V22h-3.1v-5.7c0-1.7-0.8-2.5-2.2-2.5c-1.5,0-2.6,0.9-2.6,2.9V22h-3.1V7.2h3.1v5.2
			c0.8-0.8,2-1.3,3.4-1.3C241.5,11,243.4,12.5,243.4,15.8z"/>
		<path class="st6" d="M245.4,16.6c0-3.2,2.5-5.5,5.9-5.5s5.9,2.3,5.9,5.5s-2.5,5.5-5.9,5.5S245.4,19.8,245.4,16.6z M254,16.6
			c0-1.9-1.2-3-2.7-3c-1.6,0-2.8,1.1-2.8,3s1.2,3,2.8,3C252.8,19.6,254,18.5,254,16.6z"/>
		<path class="st6" d="M265.8,11v2.9c-0.3,0-0.5,0-0.7,0c-1.7,0-2.9,0.9-2.9,3V22h-3.1V11.2h3v1.4C262.8,11.6,264.1,11,265.8,11z"/>
		<path class="st6" d="M266.4,21l1-2.2c1,0.6,2.4,1,3.7,1c1.4,0,2-0.4,2-1c0-1.8-6.5,0-6.5-4.3c0-2,1.8-3.5,5-3.5
			c1.5,0,3.1,0.3,4.1,0.9l-1,2.2c-1.1-0.6-2.1-0.8-3.1-0.8c-1.4,0-2,0.4-2,1c0,1.8,6.5,0.1,6.5,4.3c0,2-1.9,3.4-5.1,3.4
			C269.3,22.1,267.4,21.6,266.4,21z"/>
		<path class="st6" d="M293.9,17.5h-8.1c0.3,1.3,1.4,2.2,3.1,2.2c1.1,0,2-0.3,2.7-1l1.7,1.8c-1,1.1-2.5,1.7-4.4,1.7
			c-3.7,0-6.1-2.3-6.1-5.5s2.5-5.5,5.7-5.5s5.6,2.1,5.6,5.6C293.9,16.9,293.9,17.2,293.9,17.5z M285.7,15.7h5.3
			c-0.2-1.4-1.2-2.2-2.6-2.2C286.9,13.4,285.9,14.3,285.7,15.7z M288.9,9.8h-2.4l2.7-2.9h3.4L288.9,9.8z"/>
		<path class="st6" d="M295,16.6c0-3.2,2.5-5.5,6-5.5c2.3,0,4,1,4.8,2.7l-2.4,1.3c-0.6-1-1.4-1.5-2.4-1.5c-1.6,0-2.8,1.1-2.8,3
			s1.2,3,2.8,3c1,0,1.8-0.4,2.4-1.5l2.4,1.3c-0.8,1.7-2.6,2.7-4.8,2.7C297.5,22.1,295,19.8,295,16.6z"/>
		<path class="st6" d="M314.2,11v2.9c-0.3,0-0.5,0-0.7,0c-1.7,0-2.9,0.9-2.9,3V22h-3.1V11.2h3v1.4C311.2,11.6,312.5,11,314.2,11z"/>
		<path class="st6" d="M325.3,15.8v6.1h-2.9v-1.3c-0.6,1-1.7,1.5-3.3,1.5c-2.5,0-4-1.4-4-3.3s1.3-3.2,4.6-3.2h2.5
			c0-1.3-0.8-2.1-2.5-2.1c-1.1,0-2.3,0.4-3.1,1l-1.1-2.2c1.2-0.8,2.9-1.3,4.6-1.3C323.4,11,325.3,12.6,325.3,15.8z M322.2,18.6v-1.1
			h-2.1c-1.5,0-1.9,0.5-1.9,1.3s0.7,1.3,1.8,1.3C320.9,20,321.8,19.6,322.2,18.6z"/>
		<path class="st6" d="M338.9,15.8V22h-3.1v-5.7c0-1.7-0.8-2.5-2.2-2.5c-1.5,0-2.6,0.9-2.6,2.9V22h-3.1V11.2h3v1.3
			c0.8-0.9,2.1-1.4,3.6-1.4C337,11,338.9,12.5,338.9,15.8z"/>
		<path class="st6" d="M340.5,21l1-2.2c1,0.6,2.4,1,3.7,1c1.4,0,2-0.4,2-1c0-1.8-6.5,0-6.5-4.3c0-2,1.8-3.5,5-3.5
			c1.5,0,3.1,0.3,4.1,0.9l-1,2.2c-1.1-0.6-2.1-0.8-3.1-0.8c-1.4,0-2,0.4-2,1c0,1.8,6.5,0.1,6.5,4.3c0,2-1.9,3.4-5.1,3.4
			C343.4,22.1,341.5,21.6,340.5,21z"/>
	</g>
	<g class="st20">
		<path class="st3" d="M55.1,92.1c0,1.4,1.1,2.5,3,2.5c1.2,0,2-0.4,2.4-1.2v1h2.7v-4.5c0-2.6-1.5-3.8-4.2-3.8
			c-1.3,0-2.7,0.3-3.6,0.9l1,1.9c0.6-0.4,1.4-0.7,2.2-0.7c1.1,0,1.7,0.5,1.7,1.3h-1.6C56.2,89.6,55.1,90.6,55.1,92.1z M60.3,91.1
			v0.7c-0.2,0.6-0.8,0.9-1.4,0.9c-0.7,0-1.1-0.3-1.1-0.8c0-0.5,0.3-0.8,1.2-0.8H60.3z"/>
		<path class="st3" d="M67.8,93.7c0.6,0.6,1.3,0.9,2.3,0.9c2.2,0,4-1.6,4-4.2c0-2.6-1.8-4.2-4-4.2c-1.1,0-1.9,0.3-2.4,0.9v-0.8H65
			v11h2.8V93.7z M69.5,88.4c1,0,1.7,0.7,1.7,1.9c0,1.2-0.8,1.9-1.7,1.9s-1.7-0.7-1.7-1.9C67.8,89.1,68.5,88.4,69.5,88.4z"/>
		<path class="st3" d="M78.3,90.7c0-1.4,0.8-2,2-2c0.2,0,0.4,0,0.6,0v-2.6c-1.2,0-2.1,0.4-2.7,1.1v-1h-2.7v8.1h2.8V90.7z"/>
		<polygon class="st3" points="87.3,85.3 85.3,83.1 82.5,83.1 85.3,85.3 		"/>
		<path class="st3" d="M85.9,86.2c-2.6,0-4.5,1.7-4.5,4.2c0,2.4,1.9,4.2,4.8,4.2c1.5,0,2.7-0.5,3.5-1.3l-1.5-1.6
			c-0.6,0.5-1.1,0.7-1.9,0.7c-1,0-1.8-0.5-2-1.3h5.9c0-0.2,0-0.5,0-0.7C90.3,87.7,88.3,86.2,85.9,86.2z M84.3,89.6
			c0.2-0.9,0.8-1.4,1.7-1.4c0.9,0,1.5,0.5,1.7,1.4H84.3z"/>
		<path class="st3" d="M93.8,88.8c0-0.3,0.3-0.6,1.3-0.6c0.7,0,1.5,0.2,2.3,0.6l0.9-1.9c-0.8-0.5-2.1-0.7-3.2-0.7
			c-2.6,0-4,1.2-4,2.7c0,3.3,4.8,2,4.8,3.1c0,0.3-0.3,0.6-1.3,0.6c-1,0-2.1-0.3-2.8-0.8l-0.9,2c0.8,0.5,2.2,0.8,3.6,0.8
			c2.6,0,4-1.2,4-2.7C98.5,88.7,93.8,89.9,93.8,88.8z"/>
		<rect x="99.6" y="89.1" class="st3" width="4.4" height="2.2"/>
		<path class="st3" d="M116.6,90.3v4.2h2.9v-4.6c0-2.5-1.4-3.6-3.3-3.6c-1.2,0-2.2,0.5-2.8,1.3c-0.6-0.9-1.5-1.3-2.6-1.3
			c-1,0-1.8,0.3-2.4,1v-0.9h-2.7v8.1h2.8v-4c0-1.3,0.6-1.8,1.4-1.8c0.8,0,1.2,0.5,1.2,1.7v4.2h2.9v-4c0-1.3,0.6-1.8,1.4-1.8
			C116.1,88.6,116.6,89.1,116.6,90.3z"/>
		<rect x="121.3" y="86.3" class="st3" width="2.8" height="8.1"/>
		<path class="st3" d="M122.7,85.4c1,0,1.7-0.7,1.7-1.6c0-0.9-0.7-1.5-1.7-1.5S121,83,121,83.9C121,84.8,121.6,85.4,122.7,85.4z"/>
		<path class="st3" d="M131.8,87c-0.5-0.6-1.3-0.8-2.2-0.8c-2.2,0-4,1.6-4,4.2c0,2.6,1.8,4.2,4,4.2c1.1,0,1.8-0.3,2.4-0.9v0.8h2.7
			V83.3h-2.9V87z M130.1,92.3c-1,0-1.7-0.7-1.7-2c0-1.2,0.7-1.9,1.7-1.9c1,0,1.7,0.7,1.7,1.9C131.8,91.6,131.1,92.3,130.1,92.3z"/>
		<path class="st3" d="M137.9,85.4c1,0,1.7-0.7,1.7-1.6c0-0.9-0.7-1.5-1.7-1.5s-1.7,0.7-1.7,1.5C136.1,84.8,136.8,85.4,137.9,85.4z"
			/>
		<rect x="136.4" y="86.3" class="st3" width="2.8" height="8.1"/>
		<path class="st3" d="M50.2,104.5c-2.3,0-3.9,1.7-3.9,4s1.6,4,4.1,4c1.2,0,2.3-0.5,3-1.3l-0.6-0.7c-0.6,0.7-1.4,1-2.4,1
			c-1.7,0-3-1-3.1-2.7h6.6c0-0.1,0-0.2,0.1-0.3C54,106.1,52.4,104.5,50.2,104.5z M47.3,108c0.1-1.5,1.3-2.6,2.8-2.6s2.7,1.1,2.8,2.6
			H47.3z"/>
		<path class="st3" d="M59.9,104.5c-1.4,0-2.4,0.5-3,1.5v-1.5h-1v7.9H57v-4.1c0-1.8,1.1-2.8,2.8-2.8c1.5,0,2.4,0.8,2.4,2.5v4.5h1.1
			v-4.6C63.3,105.6,62,104.5,59.9,104.5z"/>
		<path class="st3" d="M68.9,111.5c-0.9,0-1.4-0.5-1.4-1.4v-4.7h2.4v-0.9h-2.4v-1.7h-1.1v1.7H65v0.9h1.4v4.8c0,1.5,0.8,2.3,2.3,2.3
			c0.7,0,1.3-0.2,1.7-0.6l-0.3-0.8C69.8,111.4,69.3,111.5,68.9,111.5z"/>
		<path class="st3" d="M73.2,106v-1.5h-1v7.9h1.1v-4c0-1.9,1.1-2.9,2.7-2.9c0.1,0,0.2,0,0.3,0v-1C74.8,104.5,73.8,105,73.2,106z"/>
		<path class="st3" d="M81.3,104.5c-2.3,0-3.9,1.7-3.9,4s1.6,4,4.1,4c1.2,0,2.3-0.5,3-1.3l-0.6-0.7c-0.6,0.7-1.4,1-2.4,1
			c-1.7,0-3-1-3.1-2.7H85c0-0.1,0-0.2,0.1-0.3C85.1,106.1,83.5,104.5,81.3,104.5z M78.4,108c0.2-1.5,1.3-2.6,2.8-2.6
			s2.7,1.1,2.8,2.6H78.4z"/>
		<path class="st3" d="M93.9,104.4c-1.2,0-2.4,0.4-3.2,1.1l0.5,0.8c0.6-0.5,1.6-0.9,2.6-0.9c1.4,0,2.2,0.7,2.2,2.1v0.5h-2.5
			c-2.2,0-3,1-3,2.2c0,1.4,1.1,2.3,2.9,2.3c1.3,0,2.2-0.5,2.7-1.3v1.2h1v-4.9C97.1,105.5,95.9,104.5,93.9,104.4z M96,110.1
			c-0.4,1-1.3,1.6-2.5,1.6c-1.3,0-2-0.6-2-1.5c0-0.8,0.5-1.4,2-1.4H96V110.1z"/>
		<path class="st3" d="M109.8,104.3c-1.4,0-2.5,0.7-3.1,1.7c-0.5-1.1-1.5-1.7-2.8-1.7c-1.3,0-2.3,0.6-2.9,1.5v-1.4h-1v7.9h1.1v-4.1
			c0-1.8,1-2.8,2.6-2.8c1.5,0,2.3,0.8,2.3,2.5v4.5h1v-4.1c0-1.8,1-2.8,2.6-2.8c1.5,0,2.3,0.8,2.3,2.5v4.5h1.1v-4.6
			C113,105.6,111.7,104.5,109.8,104.3z"/>
		<path class="st3" d="M116.5,101.2c-0.5,0-0.8,0.4-0.8,0.8c0,0.5,0.3,0.8,0.8,0.7c0.5,0,0.8-0.4,0.8-0.8
			C117.3,101.5,117,101.2,116.5,101.2z"/>
		<rect x="115.9" y="104.5" class="st3" width="1.1" height="7.9"/>
		<path class="st3" d="M120.1,106.7c0-0.7,0.7-1.3,2.1-1.3c0.8,0,1.6,0.2,2.3,0.7l0.5-0.9c-0.7-0.4-1.8-0.7-2.8-0.7
			c-2,0-3.1,0.9-3.1,2.2c0,3.2,5.1,1.5,5.1,3.6c0,0.8-0.6,1.3-2.1,1.3c-1.1,0-2.2-0.4-2.8-0.9l-0.5,0.8c0.7,0.6,1.9,1,3.1,1
			c2.1,0,3.3-0.8,3.3-2.2C125.2,107.2,120.1,108.8,120.1,106.7z"/>
	</g>
	<g class="st20">
		<rect x="271.9" y="285.7" class="st3" width="2.8" height="11.1"/>
		<path class="st3" d="M278,287.8c1,0,1.7-0.7,1.7-1.6c0-0.9-0.7-1.5-1.7-1.5s-1.7,0.7-1.7,1.5C276.3,287.1,277,287.8,278,287.8z"/>
		<rect x="276.6" y="288.7" class="st3" width="2.8" height="8.1"/>
		<polygon class="st3" points="287.2,288.7 285.1,293.6 283.2,288.7 280.2,288.7 283.6,296.8 286.5,296.8 289.9,288.7 		"/>
		<path class="st3" d="M296.1,288.5c-1.2,0-2.1,0.4-2.7,1.1v-1h-2.7v8.1h2.8v-3.7c0-1.4,0.8-2,2-2c0.2,0,0.4,0,0.6,0V288.5z"/>
		<path class="st3" d="M301.1,288.5c-2.6,0-4.5,1.7-4.5,4.2c0,2.4,1.9,4.2,4.8,4.2c1.5,0,2.7-0.5,3.5-1.3l-1.5-1.6
			c-0.6,0.5-1.1,0.7-1.9,0.7c-1,0-1.8-0.5-2-1.3h5.9c0-0.2,0-0.5,0-0.7C305.5,290.1,303.5,288.5,301.1,288.5z M299.5,292
			c0.2-0.9,0.8-1.4,1.7-1.4s1.5,0.5,1.7,1.4H299.5z"/>
		<path class="st3" d="M309,291.1c0-0.3,0.3-0.6,1.3-0.6c0.7,0,1.5,0.2,2.3,0.6l0.9-1.9c-0.8-0.5-2.1-0.7-3.2-0.7
			c-2.5,0-4,1.2-4,2.7c0,3.3,4.8,2,4.8,3.1c0,0.3-0.3,0.6-1.3,0.6c-1,0-2.1-0.3-2.8-0.8l-0.9,2c0.8,0.5,2.2,0.8,3.6,0.8
			c2.6,0,4-1.2,4-2.7C313.8,291.1,309,292.3,309,291.1z"/>
		<path class="st3" d="M262.3,303.2c-1.3,0-2.4,0.6-3,1.6v-1.6h-1V314h1.1v-4.4c0.7,1.1,1.7,1.6,3,1.6c2.2,0,3.9-1.6,3.9-4
			C266.3,304.8,264.6,303.2,262.3,303.2z M262.3,310.3c-1.6,0-2.9-1.3-2.9-3.1c0-1.9,1.2-3.1,2.9-3.1c1.6,0,2.9,1.3,2.9,3.1
			S263.9,310.3,262.3,310.3z"/>
		<path class="st3" d="M271.2,303.2c-1.2,0-2.4,0.4-3.2,1.1l0.5,0.8c0.6-0.5,1.6-0.9,2.6-0.9c1.4,0,2.2,0.7,2.2,2.1v0.5h-2.5
			c-2.2,0-3,1-3,2.2c0,1.4,1.1,2.3,2.9,2.3c1.3,0,2.2-0.5,2.7-1.3v1.2h1v-4.9C274.4,304.2,273.2,303.2,271.2,303.2z M273.3,308.8
			c-0.4,1-1.3,1.6-2.5,1.6c-1.3,0-2-0.6-2-1.5c0-0.8,0.5-1.4,2-1.4h2.5V308.8z"/>
		<path class="st3" d="M278.1,304.7v-1.5h-1v7.9h1.1v-4c0-1.9,1.1-2.9,2.7-2.9c0.1,0,0.2,0,0.3,0v-1
			C279.8,303.2,278.8,303.7,278.1,304.7z"/>
		<path class="st3" d="M290,303.2c-1.2,0-2.4,0.4-3.2,1.1l0.5,0.8c0.6-0.5,1.6-0.9,2.6-0.9c1.4,0,2.2,0.7,2.2,2.1v0.5h-2.5
			c-2.2,0-3,1-3,2.2c0,1.4,1.1,2.3,2.9,2.3c1.3,0,2.2-0.5,2.7-1.3v1.2h1v-4.9C293.2,304.2,292,303.2,290,303.2z M292.1,308.8
			c-0.4,1-1.3,1.6-2.5,1.6c-1.3,0-2-0.6-2-1.5c0-0.8,0.5-1.4,2-1.4h2.5V308.8z"/>
		<path class="st3" d="M299.9,303.2c-1.4,0-2.4,0.5-3,1.5v-1.5h-1v7.9h1.1V307c0-1.8,1.1-2.8,2.8-2.8c1.5,0,2.4,0.8,2.4,2.5v4.5h1.1
			v-4.6C303.3,304.3,302,303.2,299.9,303.2z"/>
	</g>
	<g class="st21">
		<path class="st3" d="M23.9,384.2v10.5h-3v-8.2h-2v-2.3H23.9z"/>
	</g>
	<g class="st21">
		<path class="st3" d="M30.5,388.4v1.3h-4.9v-6.1h4.8v1.3h-3.1v1H30v1.3h-2.7v1.1h3.2V388.4z"/>
		<path class="st3" d="M34.2,388.1h-0.9v1.6h-1.7v-6.1h2.8c1.7,0,2.7,0.9,2.7,2.3c0,0.9-0.4,1.6-1.2,1.9l1.3,1.9h-1.9L34.2,388.1z
			 M34.2,384.9h-1v1.8h1c0.7,0,1.1-0.3,1.1-0.9C35.2,385.3,34.9,384.9,34.2,384.9z"/>
	</g>
	<g class="st21">
		<path class="st3" d="M41.4,393.4l1.6-1.9c0.6,0.7,1.1,1.1,1.8,1.1c0.9,0,1.3-0.5,1.3-1.5v-4.5h-3.6v-2.3h6.6v6.6
			c0,2.7-1.4,4.1-4,4.1C43.5,394.9,42.2,394.4,41.4,393.4z"/>
		<path class="st3" d="M50.6,389.5c0-3.1,2.5-5.5,5.8-5.5s5.8,2.3,5.8,5.5s-2.5,5.5-5.8,5.5S50.6,392.6,50.6,389.5z M59.2,389.5
			c0-1.8-1.2-3-2.8-3s-2.8,1.2-2.8,3s1.2,3,2.8,3S59.2,391.3,59.2,389.5z"/>
		<path class="st3" d="M63.7,390v-5.8h3v5.7c0,1.8,0.8,2.5,2,2.5s2-0.7,2-2.5v-5.7h2.9v5.8c0,3.1-1.8,4.9-4.9,4.9
			C65.5,394.9,63.7,393.2,63.7,390z"/>
		<path class="st3" d="M80.2,391.9h-1.6v2.8h-3v-10.5h4.8c2.9,0,4.7,1.5,4.7,3.9c0,1.5-0.8,2.7-2.1,3.3l2.3,3.3h-3.2L80.2,391.9z
			 M80.2,386.5h-1.6v3.1h1.6c1.2,0,1.8-0.6,1.8-1.5C82.1,387.1,81.4,386.5,80.2,386.5z"/>
	</g>
	<g class="st21">
		<path class="st3" d="M264.7,384.2h5c3.5,0,5.9,2,5.9,5.2s-2.4,5.2-5.9,5.2h-5V384.2z M269.5,392.3c1.8,0,3-1.1,3-2.9
			s-1.2-2.9-3-2.9h-1.9v5.8H269.5z"/>
		<path class="st3" d="M283.9,392.7h-4.4l-0.8,2h-3l4.6-10.5h2.9l4.6,10.5h-3.1L283.9,392.7z M283.1,390.5l-1.4-3.4l-1.4,3.4H283.1z
			"/>
		<path class="st3" d="M298.7,384.2v10.5h-2.4l-4.6-5.6v5.6h-2.9v-10.5h2.4l4.6,5.6v-5.6H298.7z"/>
		<path class="st3" d="M300,393.8l1-2.2c0.9,0.6,2.2,1,3.5,1c1.2,0,1.7-0.3,1.7-0.9c0-1.7-6-0.5-6-4.3c0-1.9,1.5-3.4,4.6-3.4
			c1.4,0,2.8,0.3,3.8,0.9l-0.9,2.2c-1-0.5-2-0.8-2.9-0.8c-1.2,0-1.7,0.4-1.7,0.9c0,1.6,6,0.4,6,4.3c0,1.8-1.5,3.4-4.6,3.4
			C302.7,394.9,301,394.4,300,393.8z"/>
		<path class="st3" d="M318.8,384.2v10.5h-3v-8.2h-2v-2.3H318.8z"/>
		<path class="st3" d="M332.3,392.7h-4.4l-0.8,2h-3l4.6-10.5h2.9l4.6,10.5h-3.1L332.3,392.7z M331.5,390.5l-1.4-3.4l-1.4,3.4H331.5z
			"/>
		<path class="st3" d="M347.1,384.2v10.5h-2.4l-4.6-5.6v5.6h-2.9v-10.5h2.4l4.6,5.6v-5.6H347.1z"/>
	</g>
</g>
</svg>
