<?xml version="1.0" encoding="UTF-8"?>
<svg id="Calque_2" data-name="Calque 2" xmlns="http://www.w3.org/2000/svg" width="6" height="6" viewBox="0 0 6 6">
  <g id="ILLUSTRATIONS">
    <g id="Group_2214" data-name="Group 2214">
      <path id="Path_6969" data-name="Path 6969" d="m4.7200342,2.0322312c.1088907.1760309.1814717.3720643.2134728.5765641.0175867.0642553.0278593.1302929.030621.1968544l1.0358686-.105864c-.0148716-.105864-.030621-.1968544-.0454927-.3035929-.060915-.3109654-.1745382-.6092299-.3359569-.8819066l-.8985128.517945Z" style="fill: #fff; opacity: .3;"/>
      <path id="Path_6970" data-name="Path 6970" d="m3.8215214,1.2176927c.2516148.1110373.4752117.2769445.6544173.4855735l.7769031-.6999256c-.2799363-.3148663-.6222594-.5681122-1.0052492-.743671l-.4260712.9580231Z" style="fill: #fff; opacity: .3;"/>
      <path id="Path_6971" data-name="Path 6971" d="m2.4059487.0610656c.4122592-.0861648.8383788-.0810883,1.2484687.0148734l-.2283461,1.016642c-.2707667-.0607481-.5516291-.0607482-.8223966,0h-.030621l-.2125992-1.016642c.012175-.0115163.028868-.0169737.0454943-.0148734" style="fill: #fff; opacity: .3;"/>
      <path id="Path_6972" data-name="Path 6972" d="m1.5380573,1.6840182c.1874508-.1995745.4090782-.3640205.6544182-.4855735l-.4260716-.9431497c-.3855488.1723896-.7286692.4271217-1.0052492.7462956l.7769027.6824275Z" style="fill: #fff; opacity: .3;"/>
      <path id="Path_6973" data-name="Path 6973" d="m1.0349954,2.7916505c.0316582-.2735011.1211268-.5371398.2624671-.7734177l-.902012-.5188202C.1850025,1.8626951.0552045,2.2670155.0148731,2.6849121l1.0201223.1067384Z" style="fill: #fff; opacity: .3;"/>
      <path id="Path_6974" data-name="Path 6974" d="m1.2939629,3.9745242c-.1072117-.1836863-.184304-.3833626-.2283464-.5914377-.0148731-.0603688-.0148731-.121612-.0306211-.1819808l-1.0349953.1058657c.0148731.087491.0306212.1819808.0454943.2878448.0617501.3169996.1803094.6202203.3499562.8950305l.8985124-.5153225Z" style="fill: #fff;"/>
      <path id="Path_6975" data-name="Path 6975" d="m2.2073483,4.7934379c-.2564057-.1105565-.4852407-.2763605-.6701659-.4855737l-.7760279.6973017c.2795141.3113592.6222206.5595211,1.0052492.7279233l.4409445-.9396513Z" style="fill: #fff;"/>
      <path id="Path_6976" data-name="Path 6976" d="m3.4111979,4.9124267c-.2707667.0607493-.5516291.0607493-.8223966,0l-.2134736,1.0192642c.406155.0910772.8274403.0910805,1.2335954,0h.0148733l-.2125984-1.0192642Z" style="fill: #fff;"/>
      <path id="Path_6977" data-name="Path 6977" d="m4.4619415,4.3209873c-.1868333.2031757-.4154665.363461-.6701667.4698257l.4260712.9553993c.3865859-.1697188.7338985-.4175486,1.0201226-.7279233l-.776027-.6973017Z" style="fill: #fff;"/>
      <path id="Path_6978" data-name="Path 6978" d="m4.967629,3.213356c-.0316573.2735019-.1211258.5371398-.2624665.7734185l.8985128.5153209c.2150114-.3614869.3501477-.7648161.3963246-1.1828737l-1.032371-.1058657Z" style="fill: #fff;"/>
    </g>
  </g>
</svg>