<?xml version="1.0" encoding="utf-8"?>
<!-- Generator: Adobe Illustrator 26.2.1, SVG Export Plug-In . SVG Version: 6.00 Build 0)  -->
<svg version="1.1" id="Calque_1" xmlns="http://www.w3.org/2000/svg" xmlns:xlink="http://www.w3.org/1999/xlink" x="0px" y="0px"
	 viewBox="0 0 384.5 296.5" style="enable-background:new 0 0 384.5 296.5;" xml:space="preserve">
<style type="text/css">
	.st0{fill:#272F60;}
	.st1{fill:#FFBCC6;}
	.st2{fill:#FD657C;}
	.st3{fill:#FFFFFF;}
	.st4{clip-path:url(#SVGID_00000008842209980759323800000000733546759492615052_);}
	.st5{fill:#FB657C;}
</style>
<g id="TEXTES_FR">
</g>
<g>
	<g id="ILLUSTRATIONS">
		<g id="MrA005_APP_illustr_ONBOARD_ATTENDEE_FR_GB_01_onboard_05" transform="translate(-21475 -10501)">
			<path id="Tracé_2411" class="st0" d="M21638.8,10739.3c0,0,6.8-1.2,11.3,0c3.3,0.9,5.2,3.8,6.2,6.2c0.3,0.7,0.2,1.5-0.2,2.1
				c-0.4,0.6-1.1,1-1.8,1h-13.1c-1.2,0-2.3-1-2.3-2.3C21638.8,10743.6,21638.8,10739.3,21638.8,10739.3L21638.8,10739.3z"/>
			<path id="Tracé_2412" class="st0" d="M21661.2,10739.3c0,0,6.8-1.2,11.3,0c3.3,0.9,5.2,3.8,6.2,6.2c0.3,0.7,0.2,1.5-0.2,2.1
				c-0.4,0.6-1.1,1-1.8,1h-13.1c-1.2,0-2.3-1-2.3-2.3C21661.2,10743.6,21661.2,10739.3,21661.2,10739.3L21661.2,10739.3z"/>
			<path id="Tracé_2413" class="st1" d="M21675.6,10676.7c0,0-0.9,50-0.9,61.2c0,1.1-0.9,2.1-2.1,2.1h-10.1c-1.1,0-2.1-0.9-2.1-2.1
				c0,0,0,0,0,0l-0.9-40.2c0-2.8-6.4-2.8-6.4,0l-0.8,40.2c0,1.1-0.9,2.1-2.1,2.1h-10.1c-1.1,0-2.1-0.9-2.1-2.1c0,0,0,0,0,0
				c0-11.2-0.9-61.2-0.9-61.2H21675.6z"/>
			<path id="Tracé_2414" class="st0" d="M21646.7,10684c-0.1,1.2-0.4,2.4-0.9,3.5c-0.4,1.1-1.1,2.1-1.9,3c-0.5,0.5-1,0.9-1.6,1.3
				c-1.4,0.9-3.1,1.3-4.8,1.3c-0.4,0-0.6,0.3-0.6,0.7c0,0.3,0.3,0.6,0.6,0.6c1.9,0.1,3.9-0.3,5.6-1.2c0.8-0.4,1.4-0.9,2-1.6
				c0.9-1,1.7-2.2,2.1-3.6c0.4-1.3,0.7-2.7,0.7-4c0-0.3-0.3-0.6-0.6-0.6C21647,10683.4,21646.8,10683.7,21646.7,10684L21646.7,10684
				z"/>
			<path id="Tracé_2415" class="st0" d="M21669.8,10684c-0.1,1.5,0.1,3,0.3,4.4c0.1,0.6,0.3,1.2,0.5,1.8c0.1,0.4,0.3,0.8,0.5,1.2
				c0.9,1.8,2.3,3.1,4.3,3.1c0.4,0,0.6-0.3,0.6-0.7c0-0.3-0.3-0.6-0.6-0.6c-1.4-0.1-2.2-1.2-2.7-2.5c-0.1-0.3-0.3-0.7-0.3-1
				c-0.2-0.5-0.3-1-0.5-1.5c-0.3-1.3-0.6-2.7-0.7-4.1c0-0.3-0.3-0.6-0.6-0.6h0C21670.1,10683.4,21669.8,10683.7,21669.8,10684z"/>
			<path id="Tracé_2416" class="st0" d="M21641.6,10737.6c-0.4,0-0.7-0.3-0.7-0.7v0c0,0,0,0,0,0v-1.4c0-0.4,0.3-0.7,0.7-0.7l0,0h0
				c0.4,0,0.7,0.3,0.7,0.7c0,0,0,0,0,0c0,0,0,0,0,0v1.4C21642.3,10737.2,21642,10737.5,21641.6,10737.6z M21641.6,10733.4
				c-0.4,0-0.7-0.3-0.7-0.7c0,0,0,0,0,0v-1.4c0-0.2,0.1-0.4,0.2-0.5c0.1-0.1,0.3-0.2,0.5-0.2c0.4,0,0.7,0.3,0.7,0.7c0,0,0,0,0,0
				s0,0,0,0v1.4C21642.3,10733.1,21642,10733.4,21641.6,10733.4L21641.6,10733.4L21641.6,10733.4z M21641.6,10729.2
				c-0.4,0-0.7-0.3-0.7-0.7v0v-1.4c0-0.4,0.3-0.7,0.7-0.7c0,0,0,0,0,0h0c0.4,0,0.7,0.3,0.7,0.7c0,0,0,0,0,0v1.4
				C21642.2,10728.9,21641.9,10729.2,21641.6,10729.2L21641.6,10729.2L21641.6,10729.2z M21641.5,10725.1c-0.4,0-0.7-0.3-0.7-0.7
				c0,0,0,0,0,0v-1.4c0-0.2,0.1-0.4,0.2-0.5c0.1-0.1,0.3-0.2,0.5-0.2c0.4,0,0.7,0.3,0.7,0.7v0v1.4c0,0.2-0.1,0.4-0.2,0.5
				C21641.8,10725,21641.7,10725.1,21641.5,10725.1L21641.5,10725.1z M21641.4,10720.9c-0.4,0-0.7-0.3-0.7-0.7v0v-1.4
				c0-0.2,0.1-0.4,0.2-0.5c0.1-0.1,0.3-0.2,0.5-0.2c0.4,0,0.7,0.3,0.7,0.7c0,0,0,0,0,0v1.4
				C21642.1,10720.6,21641.9,10720.9,21641.4,10720.9C21641.5,10720.9,21641.5,10720.9,21641.4,10720.9L21641.4,10720.9z
				 M21641.4,10716.8c-0.4,0-0.7-0.3-0.7-0.7c0,0,0,0,0,0s0,0,0,0v-1.4c0-0.4,0.3-0.7,0.7-0.7l0,0h0c0.4,0,0.7,0.3,0.7,0.7
				c0,0,0,0,0,0s0,0,0,0v1.4C21642.1,10716.5,21641.8,10716.8,21641.4,10716.8C21641.4,10716.8,21641.4,10716.8,21641.4,10716.8
				L21641.4,10716.8z M21641.4,10712.6c-0.4,0-0.7-0.3-0.7-0.7v0c0,0,0,0,0,0v-1.4c0-0.4,0.3-0.7,0.7-0.7h0h0c0.4,0,0.7,0.3,0.7,0.7
				c0,0,0,0,0,0c0,0,0,0,0,0v1.4c0,0.2-0.1,0.4-0.2,0.5C21641.7,10712.6,21641.5,10712.6,21641.4,10712.6L21641.4,10712.6z
				 M21641.3,10708.5c-0.4,0-0.7-0.3-0.7-0.7c0,0,0,0,0,0v-1.4c0-0.4,0.3-0.7,0.7-0.7l0,0h0c0.4,0,0.7,0.3,0.7,0.7v0v1.4
				C21642,10708.2,21641.7,10708.5,21641.3,10708.5C21641.3,10708.5,21641.3,10708.5,21641.3,10708.5L21641.3,10708.5z
				 M21641.2,10704.4c-0.4,0-0.7-0.3-0.7-0.7v0v-1.4c0-0.4,0.3-0.7,0.7-0.7c0,0,0,0,0,0h0c0.4,0,0.7,0.3,0.7,0.7c0,0,0,0,0,0v1.4
				C21642,10704,21641.7,10704.3,21641.2,10704.4L21641.2,10704.4C21641.3,10704.4,21641.3,10704.4,21641.2,10704.4L21641.2,10704.4
				z M21641.2,10700.2c-0.4,0-0.7-0.3-0.7-0.7c0,0,0,0,0,0v-1.4c0-0.4,0.3-0.7,0.7-0.7c0,0,0,0,0,0h0c0.4,0,0.7,0.3,0.7,0.7v0v1.4
				C21641.9,10699.9,21641.6,10700.2,21641.2,10700.2C21641.2,10700.2,21641.2,10700.2,21641.2,10700.2L21641.2,10700.2z"/>
			<path id="Tracé_2417" class="st0" d="M21663.5,10736.6c-0.4,0-0.7-0.3-0.7-0.7v0c0,0,0,0,0,0l0-1.4c0-0.4,0.3-0.7,0.7-0.7l0,0h0
				c0.4,0,0.7,0.3,0.7,0.7c0,0,0,0,0,0c0,0,0,0,0,0v1.4c0,0.2-0.1,0.4-0.2,0.5C21663.9,10736.5,21663.7,10736.6,21663.5,10736.6z
				 M21663.5,10732.4c-0.4,0-0.7-0.3-0.7-0.7c0,0,0,0,0,0s0,0,0,0l0-1.4c0-0.4,0.3-0.7,0.7-0.7c0,0,0,0,0,0h0c0.4,0,0.7,0.3,0.7,0.7
				v0c0,0,0,0,0,0l0,1.4C21664.2,10732.1,21663.9,10732.4,21663.5,10732.4L21663.5,10732.4z M21663.4,10728.3
				c-0.4,0-0.7-0.3-0.7-0.7v0v-1.4c0-0.2,0.1-0.4,0.2-0.5c0.1-0.1,0.3-0.2,0.5-0.2c0.4,0,0.7,0.3,0.7,0.7c0,0,0,0,0,0v0l0,1.4
				C21664.1,10727.9,21663.8,10728.2,21663.4,10728.3L21663.4,10728.3z M21663.4,10724.1c-0.4,0-0.7-0.3-0.7-0.7c0,0,0,0,0,0v-1.4
				c0-0.2,0.1-0.4,0.2-0.5c0.1-0.1,0.3-0.2,0.5-0.2c0.4,0,0.7,0.3,0.7,0.7v0c0,0,0,0,0,0v1.4
				C21664.1,10723.8,21663.8,10724.1,21663.4,10724.1L21663.4,10724.1z M21663.4,10719.9c-0.4,0-0.7-0.3-0.7-0.7c0,0,0,0,0,0
				c0,0,0,0,0,0v-1.4c0-0.2,0.1-0.4,0.2-0.5c0.1-0.1,0.3-0.2,0.5-0.2c0.4,0,0.7,0.3,0.7,0.7c0,0,0,0,0,0c0,0,0,0,0,0v1.4
				C21664,10719.6,21663.7,10719.9,21663.4,10719.9L21663.4,10719.9z M21663.3,10715.8c-0.4,0-0.7-0.3-0.7-0.7c0,0,0,0,0,0v-1.4
				c0-0.2,0.1-0.4,0.2-0.5c0.1-0.1,0.3-0.2,0.5-0.2c0.4,0,0.7,0.3,0.7,0.7v0v1.4C21663.9,10715.5,21663.7,10715.8,21663.3,10715.8
				L21663.3,10715.8z M21663.2,10711.7c-0.4,0-0.7-0.3-0.7-0.7v0v0l0-1.4c0-0.4,0.3-0.7,0.7-0.7l0,0h0c0.4,0,0.7,0.3,0.7,0.7
				c0,0,0,0,0,0v0l0,1.4C21663.9,10711.4,21663.6,10711.6,21663.2,10711.7L21663.2,10711.7z M21663.2,10707.5
				c-0.4,0-0.7-0.3-0.7-0.7c0,0,0,0,0,0v0l0-1.4c0-0.4,0.3-0.7,0.7-0.7c0,0,0,0,0,0h0c0.4,0,0.7,0.3,0.7,0.7v0v0l0,1.4
				C21663.9,10707.2,21663.6,10707.5,21663.2,10707.5L21663.2,10707.5L21663.2,10707.5z M21663.1,10703.4c-0.4,0-0.7-0.3-0.7-0.7
				c0,0,0,0,0,0v-1.4c0-0.2,0.1-0.4,0.2-0.5c0.1-0.1,0.3-0.2,0.5-0.2c0.4,0,0.7,0.3,0.7,0.7c0,0,0,0,0,0v1.4
				C21663.8,10703,21663.5,10703.3,21663.1,10703.4L21663.1,10703.4L21663.1,10703.4z"/>
			<path id="Tracé_2418" class="st0" d="M21663.4,10696c0,0-1.2-0.2-2.6-0.3c-0.4,0-0.7,0-1.1,0c-0.6,0-1.2,0.1-1.7,0.1
				c1,0.3,1.7,0.9,1.7,1.9l0,0.5c0.4,0,0.8,0,1.1,0c1.5-0.1,2.6-0.3,2.6-0.3c0.5,0,1-0.4,1-0.9
				C21664.4,10696.5,21664,10696,21663.4,10696C21663.4,10696,21663.4,10696,21663.4,10696L21663.4,10696z"/>
			<path id="Tracé_2419" class="st2" d="M21698,10617.4c-0.2,0-0.3-0.1-0.4-0.2c-1.2-2.5,0.2-5.9,1.1-7.5c0.9-1.7,2.7-4.9,4.2-4.6
				c1.1,0.2,1.1,1.8,0.4,3.6c-0.1,0.2,0,0.5,0.3,0.6c0.1,0.1,0.3,0,0.4-0.1c2.6-2.1,8.1-6.8,10.6-5c1.8,1.2,1.4,6.6,0.3,9
				c-1.1,2.5-5.8,4.3-8.5,5.3C21706.4,10618.4,21698,10617.4,21698,10617.4L21698,10617.4z"/>
			<path id="Tracé_2420" class="st2" d="M21617.8,10618.4c0.2,0,0.3-0.1,0.4-0.2c1.3-2.5,0-5.9-0.8-7.6c-0.9-1.7-2.2-5-4.1-4.7
				c-1.1,0.2-1.1,1.8-0.6,3.6c0.1,0.2,0,0.5-0.3,0.6c-0.1,0.1-0.3,0-0.4-0.1c-2.5-2.2-7.9-7.9-10.7-5.2c-0.6,0.6-2,5.3-0.3,7.6
				c0.8,1,1.6,1.9,2.6,2.6c1.8,1.6,4,2.7,6.3,3.2L21617.8,10618.4z"/>
			<path id="Tracé_2421" class="st0" d="M21641.7,10636.9c-6.4-0.2-12.6-5-17-10.8c-3.3-4.3-3.5-6.9-4.6-9.9
				c-0.6-1.6-1.2-2.2-3.1-1.7c-1.9,0.6-5.8,1.9-7.5,2.6c-1.9,0.8-2.2,2.1-1.8,4.9c1.5,8.9,8,25.7,30.2,34.2
				c11.8,4.5,24.1,4.2,41.3-0.6c21.5-9.1,27-30.9,27.6-33.3c0.6-2.4,1-3.5-0.5-4.6c-2.3-1.3-4.7-2.5-7.2-3.5
				c-1.8-0.7-2.4-0.7-3.2,1.4c-0.8,2.2-1.6,4.3-6.5,11.2c-4.6,6.6-11.6,9.7-16.8,11.1c0,0-4.4-2.9-16.1-2.5
				C21644.8,10635.9,21645.2,10637,21641.7,10636.9L21641.7,10636.9z"/>
			<path id="Tracé_2422" class="st0" d="M21656.6,10633.6c11,0,19.9,8.9,19.9,19.9l0,0l0,0v28.8c0,1-0.8,1.9-1.9,1.9h-36.1
				c-1,0-1.9-0.8-1.9-1.9c0,0,1.2-18.5,1.2-28.8C21637.8,10642.5,21645.6,10633.6,21656.6,10633.6z"/>
			<path id="Tracé_2423" class="st2" d="M21649.8,10631.9c-4.3-3.6-6.6-10.3-6.9-15.5c-0.3-7.6,1-12.1,2.7-14.8
				c2.8-4.4,7.7-7.1,12.9-7.2c0.3,0-0.3,0,0,0c5.8,0.2,10.8,2.5,13.2,6.9c2.5,4.6,2.7,9.7,2.1,15.1c-0.9,7.7-2.6,13.5-9.3,16.7
				c0,0,0,1.9,0,2.8c0,0.6-0.4,1.1-1.1,1.2c-4.2,0.3-8.4,0.2-12.6-0.3c-0.6-0.1-1.1-0.6-1.1-1.3
				C21649.7,10634.3,21649.7,10631.9,21649.8,10631.9L21649.8,10631.9z"/>
			<path id="Tracé_2424" class="st0" d="M21669.5,10615.9c-0.1,0.3-0.2,0.7-0.2,1c0,0.4,0,0.7,0.1,1.1c0,0.6,0.5,1.2,1.1,1.2
				c0.6,0,1.1-0.4,1.2-1l0,0c0.1-0.3,0.2-0.7,0.2-1c0-0.4,0-0.7-0.1-1.1c0-0.6-0.4-1.2-1.1-1.2S21669.6,10615.3,21669.5,10615.9
				L21669.5,10615.9z"/>
			<path id="Tracé_2425" class="st0" d="M21657.8,10615.5c-0.1,0.3-0.2,0.7-0.2,1c0,0.4,0,0.7,0.1,1.1c0,0.6,0.5,1.2,1.1,1.2
				c0.6,0,1.1-0.4,1.2-1c0.1-0.3,0.2-0.7,0.2-1c0-0.4,0-0.7-0.1-1.1c0-0.6-0.4-1.2-1.1-1.2S21657.8,10614.9,21657.8,10615.5
				L21657.8,10615.5L21657.8,10615.5z"/>
			<path id="Tracé_2426" class="st0" d="M21664.5,10627c1.6,0.2,3.4-1.5,3.4-2c0-0.5-0.4-1-0.9-1.1h0c0,0-0.8-0.2-1.7-0.4
				c-0.3-0.1-0.5-0.1-0.8-0.1c-0.4,0-0.8,0-1.3,0c-0.7,0.1-1.3,0.2-1.3,0.2c-0.6,0-1,0.4-1.1,0.9c0,0,0,0,0,0
				C21660.9,10625.1,21662.4,10626.7,21664.5,10627L21664.5,10627z"/>
			<path id="Tracé_2427" class="st0" d="M21676.9,10603.3c-0.1-3.2-1.4-6.3-3.7-8.6c-2.6-2.5-7.8-4.6-11.6-4.9
				c-3.3-0.4-6.7-0.1-9.9,0.8c-2.4-6-9.3-8.9-15.3-6.4c-4.3,1.8-7.2,6-7.3,10.6c0,6.1,4.5,11.2,10.6,12c-1,8.2,2.2,20.7,10,25.9
				c1.7-2.1-3-7.9-3.5-13.9c-0.3-3-0.1-4.7,1.3-5.1c1.2-0.3,1.5,1.6,1.5,1.6c0.3,1.1,0.7,2.1,1.3,3c0.3,0.9,0.4,0.9,0.3,1.8
				c-0.1,0.8-0.3,1.6-0.4,2.4c-0.1,0.6-0.1,1.2-0.1,1.8c0,0.9,0.1,1.9,0.7,2c0.3,0,0.6-0.6,0.7-1.3c0.1-0.7,0.2-1.4,0.4-2.1
				c0.2-0.6,0.5-1.3,0.8-2.3c0.3-1.1,0.3-2.3-0.1-3.5c-0.2-0.9-0.3-1.6-0.5-2.4c-0.1-0.8-0.1-1.7,0-2.5c0.4-1.9,1.3-2.4,3.4-4.1
				c2.3-1.9,2.9-5.5,7.4-6.2c2-0.1,3.9-0.1,5.9,0.1c2.9,0.3,3.5,1.8,4.3,4.4c0.7,3,1,6.2,0.8,9.3c0,0.1,0,0.2,0,0.2
				c0.9-0.1,2-3.8,2.7-7.3c0.2-1.1,0.3-2.2,0.4-3.3C21677,10604.7,21676.9,10604,21676.9,10603.3L21676.9,10603.3z"/>
			<path id="Tracé_2428" class="st0" d="M21663.2,10633.1c0,0-0.3,0-1-0.1c-0.4,0-0.9,0-1.5,0c-0.5,0-1,0.1-1.5,0.2
				c-0.3,0-0.7,0.1-1,0.2c-0.4-0.1-0.9,0.2-0.9,0.7c-0.1,0.4,0.2,0.9,0.7,0.9c0,0,0,0,0,0c0.4,0.1,0.7,0.2,1.1,0.3
				c0.6,0.1,1.1,0.2,1.7,0.1c0.6,0,1.1-0.1,1.7-0.3c0.4-0.1,0.7-0.2,1.1-0.4c0.4-0.1,0.7-0.5,0.6-1l0,0l0,0
				C21664.1,10633.3,21663.7,10633,21663.2,10633.1L21663.2,10633.1C21663.2,10633,21663.2,10633.1,21663.2,10633.1L21663.2,10633.1
				z"/>
			<path id="Tracé_2429" class="st3" d="M21677.8,10656c0,0,0.1-0.7,0.2-1.8c0-0.5,0.1-1.2,0.1-1.8c0-0.4,0-0.7-0.1-1.1
				c-0.1-0.6-0.2-1.2-0.3-1.8c-0.1-0.4-0.2-0.7-0.2-0.7c0-0.2-0.4-0.3-0.7-0.3c-0.3,0.1-0.5,0.3-0.5,0.5c0,0,0,0.3,0.1,0.7
				c0,0.4,0.1,1,0.1,1.6c0,0.3,0,0.7,0,1l0.1,1.7c0,1,0,1.7,0,1.7c0,0.2,0.2,0.4,0.6,0.5
				C21677.5,10656.4,21677.8,10656.2,21677.8,10656L21677.8,10656z"/>
			<path id="Tracé_2430" class="st2" d="M21671.6,10680.2h-2c-0.4,0-0.8-0.3-0.8-0.8c0-0.4,0.3-0.8,0.8-0.8l0,0h1.3v-2.6l-2.5-1.8
				c-0.2-0.1-0.3-0.4-0.3-0.6v-2.7c0-0.4,0.3-0.8,0.8-0.8s0.8,0.3,0.8,0.8c0,0,0,0,0,0v2.3l2.5,1.8c0.2,0.1,0.3,0.4,0.3,0.6v3.8
				C21672.3,10679.9,21672,10680.2,21671.6,10680.2L21671.6,10680.2z"/>
			<path id="Tracé_2431" class="st2" d="M21671.6,10670.3c-0.4,0-0.8-0.3-0.8-0.8l0,0v-6.1c0-0.4,0.3-0.8,0.8-0.8s0.8,0.3,0.8,0.8
				c0,0,0,0,0,0v6.1C21672.3,10670,21672,10670.3,21671.6,10670.3z"/>
			<circle id="Ellipse_230" class="st2" cx="21671.6" cy="10660.8" r="0.7"/>
			<circle id="Ellipse_231" class="st2" cx="21671.6" cy="10672.5" r="0.7"/>
			<circle id="Ellipse_232" class="st2" cx="21666.8" cy="10679.4" r="0.7"/>
			<path id="Tracé_2432" class="st1" d="M21645.3,10667.4c-0.2,0-0.3,0-0.4-0.1l-2.9-2c-0.2-0.1-0.3-0.4-0.3-0.6v-3.8
				c0-0.4,0.3-0.8,0.8-0.8l0,0h2c0.4,0,0.8,0.3,0.8,0.8c0,0.4-0.3,0.8-0.8,0.8h-1.3v2.6l2.5,1.8c0.3,0.2,0.4,0.7,0.2,1.1
				C21645.8,10667.3,21645.6,10667.4,21645.3,10667.4L21645.3,10667.4z"/>
			<path id="Tracé_2433" class="st1" d="M21642.4,10677.7c-0.4,0-0.8-0.3-0.8-0.8l0,0v-6.1c0-0.4,0.3-0.8,0.8-0.8s0.8,0.3,0.8,0.8
				v6.1C21643.2,10677.4,21642.9,10677.7,21642.4,10677.7L21642.4,10677.7z"/>
			<circle id="Ellipse_233" class="st1" cx="21642.4" cy="10679.6" r="0.7"/>
			<circle id="Ellipse_234" class="st1" cx="21642.4" cy="10667.8" r="0.7"/>
			<circle id="Ellipse_235" class="st1" cx="21647.2" cy="10660.9" r="0.7"/>
			<g id="Groupe_838">
				<g>
					<g id="Groupe_746" transform="translate(245.848 126.571)">
						<rect id="Rectangle_440" x="21453.4" y="10557.2" class="st2" width="16.2" height="35.4"/>
					</g>
				</g>
				<g>
					<g id="Groupe_747" transform="translate(245.848 126.571)">
						<path id="Tracé_2434" class="st1" d="M21455.8,10562.1c-0.8,0.8-2,1-3,0.6c-1.1-0.4-1.8-1.4-1.8-2.6v-31.5
							c0-1.9,1.5-3.4,3.4-3.4h76.5c1.9,0,3.4,1.5,3.4,3.4v63.9c0,0.9,0.4,1.7,1,2.4l9.5,9.5c1.3,1.3,1.3,3.4,0,4.7
							c-0.6,0.6-1.5,1-2.4,1h-74.1c-0.9,0-1.7-0.4-2.4-1l-14-13.9c-0.6-0.6-1-1.5-1-2.4v-2.3c0-0.9,0.4-1.7,1-2.4l8.2-8.2
							c1.2-1.2,1.2-3.2,0-4.4c-1.2-1.2-3.2-1.2-4.4,0l0,0l-1.9,1.9c-0.5,0.5-1.2,0.7-1.9,0.4c-0.6-0.3-1.1-0.9-1.1-1.6l0,0
							c0-0.3,0.1-0.6,0.3-0.7l8.9-8.9c1.2-1.2,1.2-3.2-0.1-4.4C21459,10560.9,21457,10560.9,21455.8,10562.1L21455.8,10562.1z"/>
					</g>
				</g>
				<g>
					<g id="Groupe_748" transform="translate(245.848 126.571)">
						<path id="Tracé_2435" class="st1" d="M21530.6,10438.2c0,0.9-0.4,1.7-1,2.4c-0.6,0.6-1.5,1-2.4,1h-72.9c-0.9,0-1.7-0.4-2.4-1
							c-0.6-0.6-1-1.5-1-2.4v-18.4c0-0.9,0.4-1.7,1-2.4c0.6-0.6,1.5-1,2.4-1h72.9c0.9,0,1.7,0.4,2.4,1c0.6,0.6,1,1.5,1,2.4V10438.2z
							"/>
					</g>
				</g>
				<g>
					<g id="Groupe_749" transform="translate(245.848 126.571)">
						<rect id="Rectangle_444" x="21477.2" y="10441.5" class="st1" width="67.6" height="57.5"/>
					</g>
				</g>
				<g>
					<g id="Groupe_750" transform="translate(245.848 126.571)">
						<path id="Tracé_2436" class="st2" d="M21573.4,10463.3l19.1,19.1c0.6,0.6,1,1.5,1,2.4v68.5c0,0.9-0.4,1.7-1,2.4
							c-0.6,0.6-1.5,1-2.4,1h-13.4c-0.9,0-1.7-0.4-2.4-1c-0.6-0.6-1-1.5-1-2.4C21573.4,10536.6,21573.4,10463.3,21573.4,10463.3
							L21573.4,10463.3z"/>
					</g>
				</g>
				<g>
					<g id="Groupe_751" transform="translate(245.848 126.571)">
						<path id="Tracé_2437" class="st0" d="M21520.2,10419.7c0-0.9,0.4-1.7,1-2.4c0.6-0.6,1.5-1,2.4-1h32.8c0.9,0,1.7,0.4,2.4,1
							l13.7,13.7c0.6,0.6,1,1.5,1,2.4v88.5c0,0.9,0.4,1.7,1,2.4c0.6,0.6,1.5,1,2.4,1h16.1c0.9,0,1.7,0.4,2.4,1c0.6,0.6,1,1.5,1,2.4
							v7.5c0,0.9-0.4,1.7-1,2.4c-0.6,0.6-1.5,1-2.4,1h-16.1c-0.9,0-1.7,0.4-2.4,1c-0.6,0.6-1,1.5-1,2.4v5.4c0,0.9,0.4,1.7,1,2.4
							c0.6,0.6,1.5,1,2.4,1h16.1c1.9,0,3.4,1.5,3.4,3.4v37.6c0,0.9-0.4,1.7-1,2.4l-14.3,14.3c-0.6,0.6-1.5,1-2.4,1h-42.3
							c-0.9,0-1.7-0.4-2.4-1l-14.3-14.3c-0.6-0.6-1-1.5-1-2.4v-65.9c0-0.9,0.4-1.7,1-2.4l24.3-24.2c0.6-0.6,1-1.5,1-2.4v-52.7
							c0-0.9-0.4-1.7-1-2.4c-0.6-0.6-1.5-1-2.4-1h-17.9c-0.9,0-1.7-0.4-2.4-1c-0.6-0.6-1-1.5-1-2.4
							C21520.2,10433.4,21520.2,10424.5,21520.2,10419.7z"/>
					</g>
				</g>
				<g>
					<g id="Groupe_752" transform="translate(245.848 126.571)">
						<path id="Tracé_2438" class="st3" d="M21540.2,10448.1c0-1.3-1.1-2.4-2.4-2.4h-53.7c-1.3,0-2.4,1.1-2.4,2.4v44.3
							c0,1.3,1.1,2.4,2.4,2.4h53.7c1.3,0,2.3-1.1,2.4-2.4L21540.2,10448.1z"/>
					</g>
				</g>
				<g>
					<g id="Groupe_753" transform="translate(245.848 126.571)">
						<path id="Tracé_2439" class="st3" d="M21451,10525.3h67.6l26.2-26.2h-67.6L21451,10525.3z"/>
					</g>
				</g>
				<g>
					<g id="Groupe_754" transform="translate(245.848 126.571)">
						<path id="Tracé_2440" class="st0" d="M21487,10503.5c0.1,0.1,0.2,0.2,0.3,0.3l0,0c0.3,0.4,0.4,0.8,0.5,1.3
							c0,1.1-0.9,2.1-2.1,2.1c0,0,0,0,0,0h-4.6c-0.6,0-1.1-0.2-1.5-0.6l0,0l-2-2l2.3-0.8c0.4-0.3,0.9-0.5,1.4-0.5h0l3.9-1.4
							L21487,10503.5L21487,10503.5z"/>
					</g>
				</g>
				<g>
					<g id="Groupe_755" transform="translate(245.848 126.571)">
						<path id="Tracé_2441" class="st1" d="M21479.1,10505.1h4.6c1.1,0,2.1-0.9,2.1-2.1c0-1.1-0.9-2.1-2.1-2.1h-4.6
							c-1.1,0-2.1,0.9-2.1,2.1c0,0,0,0,0,0C21477,10504.2,21477.9,10505.1,21479.1,10505.1z"/>
					</g>
				</g>
				<g>
					<g id="Groupe_756" transform="translate(245.848 126.571)">
						<path id="Tracé_2442" class="st1" d="M21536.3,10549.7l3.9-3.9c0.6-0.6,0.6-1.6,0-2.3c-0.6-0.6-1.6-0.6-2.3,0l0,0l-3.9,3.9
							c-0.6,0.6-0.6,1.6,0,2.3C21534.7,10550.3,21535.7,10550.3,21536.3,10549.7C21536.3,10549.7,21536.3,10549.7,21536.3,10549.7z"
							/>
					</g>
				</g>
				<g>
					<g id="Groupe_757" transform="translate(245.848 126.571)">
						<path id="Tracé_2443" class="st1" d="M21543.9,10549.7l3.9-3.9c0.6-0.6,0.6-1.6,0-2.3s-1.6-0.6-2.3,0l-3.9,3.9
							c-0.6,0.6-0.6,1.6,0,2.3S21543.3,10550.3,21543.9,10549.7z"/>
					</g>
				</g>
				<g>
					<g id="Groupe_758" transform="translate(245.848 126.571)">
						<path id="Tracé_2444" class="st1" d="M21551.6,10549.7l3.9-3.9c0.6-0.6,0.6-1.6,0-2.3c-0.6-0.6-1.6-0.6-2.3,0l0,0l-3.9,3.9
							c-0.6,0.6-0.6,1.6,0,2.3C21549.9,10550.3,21550.9,10550.3,21551.6,10549.7C21551.6,10549.7,21551.6,10549.7,21551.6,10549.7z"
							/>
					</g>
				</g>
				<g>
					<g id="Groupe_759" transform="translate(245.848 126.571)">
						<path id="Tracé_2445" class="st1" d="M21537.5,10557.8l3.9-3.9c0.6-0.6,0.6-1.6,0-2.3s-1.6-0.6-2.3,0l-3.9,3.9
							c-0.6,0.6-0.6,1.6,0,2.3C21535.9,10558.4,21536.8,10558.4,21537.5,10557.8C21537.5,10557.8,21537.5,10557.8,21537.5,10557.8z"
							/>
					</g>
				</g>
				<g>
					<g id="Groupe_760" transform="translate(245.848 126.571)">
						<path id="Tracé_2446" class="st1" d="M21545.1,10557.8l3.9-3.9c0.6-0.6,0.6-1.6,0-2.3c-0.6-0.6-1.6-0.6-2.3,0l0,0l-3.9,3.9
							c-0.6,0.6-0.6,1.6,0,2.3C21543.5,10558.4,21544.5,10558.4,21545.1,10557.8C21545.1,10557.8,21545.1,10557.8,21545.1,10557.8z"
							/>
					</g>
				</g>
				<g>
					<g id="Groupe_761" transform="translate(245.848 126.571)">
						<path id="Tracé_2447" class="st0" d="M21499,10503.5c0.1,0.1,0.2,0.2,0.3,0.3l0,0c0.3,0.4,0.4,0.8,0.5,1.3
							c0,1.1-0.9,2.1-2.1,2.1c0,0,0,0,0,0h-4.6c-0.6,0-1.1-0.2-1.5-0.6l0,0l-2-2l2.3-0.8c0.4-0.3,0.9-0.5,1.4-0.5h0l3.9-1.4
							L21499,10503.5L21499,10503.5z"/>
					</g>
				</g>
				<g>
					<g id="Groupe_762" transform="translate(245.848 126.571)">
						<path id="Tracé_2448" class="st1" d="M21491,10505.1h4.6c1.1,0,2.1-0.9,2.1-2.1c0-1.1-0.9-2.1-2.1-2.1h-4.6
							c-1.1,0-2.1,0.9-2.1,2.1C21488.9,10504.2,21489.9,10505.1,21491,10505.1z"/>
					</g>
				</g>
				<g>
					<g id="Groupe_763" transform="translate(245.848 126.571)">
						<path id="Tracé_2449" class="st0" d="M21510.8,10503.5c0.1,0.1,0.2,0.2,0.3,0.3l0,0c0.3,0.4,0.4,0.8,0.5,1.3
							c0,1.1-0.9,2.1-2.1,2.1c0,0,0,0,0,0h-4.6c-0.6,0-1.1-0.2-1.5-0.6l0,0l-2-2l2.3-0.8c0.4-0.3,0.9-0.5,1.4-0.5h0l3.9-1.4
							L21510.8,10503.5L21510.8,10503.5z"/>
					</g>
				</g>
				<g>
					<g id="Groupe_764" transform="translate(245.848 126.571)">
						<path id="Tracé_2450" class="st1" d="M21502.9,10505.1h4.6c1.1,0,2.1-0.9,2.1-2.1c0-1.1-0.9-2.1-2.1-2.1l0,0h-4.6
							c-1.1,0-2.1,0.9-2.1,2.1c0,0,0,0,0,0C21500.8,10504.2,21501.7,10505.1,21502.9,10505.1z"/>
					</g>
				</g>
				<g>
					<g id="Groupe_765" transform="translate(245.848 126.571)">
						<path id="Tracé_2451" class="st0" d="M21480.2,10510.6c0.1,0.1,0.2,0.2,0.3,0.3l0,0c0.3,0.4,0.4,0.8,0.5,1.3
							c0,1.1-0.9,2.1-2.1,2.1c0,0,0,0,0,0h-4.6c-0.6,0-1.1-0.2-1.5-0.6l0,0l-2-2l2.3-0.8c0.4-0.3,0.9-0.5,1.4-0.5h0l3.9-1.4
							L21480.2,10510.6L21480.2,10510.6z"/>
					</g>
				</g>
				<g>
					<g id="Groupe_766" transform="translate(245.848 126.571)">
						<path id="Tracé_2452" class="st1" d="M21472.3,10512.2h4.6c1.1,0,2.1-0.9,2.1-2.1c0-1.1-0.9-2.1-2.1-2.1l0,0h-4.6
							c-1.1,0-2.1,0.9-2.1,2.1c0,0,0,0,0,0C21470.2,10511.3,21471.2,10512.2,21472.3,10512.2z"/>
					</g>
				</g>
				<g>
					<g id="Groupe_767" transform="translate(245.848 126.571)">
						<path id="Tracé_2453" class="st0" d="M21492.2,10510.6c0.1,0.1,0.2,0.2,0.3,0.3l0,0c0.3,0.4,0.4,0.8,0.5,1.3
							c0,1.1-0.9,2.1-2.1,2.1c0,0,0,0,0,0h-4.6c-0.6,0-1.1-0.2-1.5-0.6l0,0l-2-2l2.3-0.8c0.4-0.3,0.9-0.5,1.4-0.5h0l3.9-1.4
							L21492.2,10510.6L21492.2,10510.6z"/>
					</g>
				</g>
				<g>
					<g id="Groupe_768" transform="translate(245.848 126.571)">
						<path id="Tracé_2454" class="st1" d="M21484.2,10512.2h4.6c1.1,0,2.1-0.9,2.1-2.1c0-1.1-0.9-2.1-2.1-2.1l0,0h-4.6
							c-1.1,0-2.1,0.9-2.1,2.1C21482.1,10511.3,21483.1,10512.2,21484.2,10512.2z"/>
					</g>
				</g>
				<g>
					<g id="Groupe_769" transform="translate(245.848 126.571)">
						<path id="Tracé_2455" class="st0" d="M21504,10510.6c0.1,0.1,0.2,0.2,0.3,0.3l0,0c0.3,0.4,0.4,0.8,0.5,1.3
							c0,1.1-0.9,2.1-2.1,2.1c0,0,0,0,0,0h-4.6c-0.6,0-1.1-0.2-1.5-0.6l0,0l-2-2l2.3-0.8c0.4-0.3,0.9-0.5,1.4-0.5h0l3.9-1.4
							L21504,10510.6L21504,10510.6z"/>
					</g>
				</g>
				<g>
					<g id="Groupe_770" transform="translate(245.848 126.571)">
						<path id="Tracé_2456" class="st3" d="M21496.1,10512.2h4.6c1.1,0,2.1-0.9,2.1-2.1c0-1.1-0.9-2.1-2.1-2.1h-4.6
							c-1.1,0-2.1,0.9-2.1,2.1c0,0,0,0,0,0C21494,10511.3,21494.9,10512.2,21496.1,10512.2z"/>
					</g>
				</g>
				<g>
					<g id="Groupe_771" transform="translate(245.848 126.571)">
						<path id="Tracé_2457" class="st0" d="M21472.9,10517.7c0.1,0.1,0.2,0.2,0.3,0.3l0,0c0.3,0.4,0.4,0.8,0.5,1.3
							c0,1.1-0.9,2.1-2.1,2.1c0,0,0,0,0,0h-4.6c-0.6,0-1.1-0.2-1.5-0.6l0,0l-2-2l2.3-0.8c0.4-0.3,0.9-0.5,1.4-0.5h0l3.9-1.4
							L21472.9,10517.7L21472.9,10517.7z"/>
					</g>
				</g>
				<g>
					<g id="Groupe_772" transform="translate(245.848 126.571)">
						<path id="Tracé_2458" class="st1" d="M21465,10519.3h4.6c1.1,0,2.1-0.9,2.1-2.1c0-1.1-0.9-2.1-2.1-2.1h-4.6
							c-1.1,0-2.1,0.9-2.1,2.1C21462.9,10518.4,21463.8,10519.3,21465,10519.3z"/>
					</g>
				</g>
				<g>
					<g id="Groupe_773" transform="translate(245.848 126.571)">
						<path id="Tracé_2459" class="st0" d="M21484.8,10517.7c0.1,0.1,0.2,0.2,0.3,0.3l0,0c0.3,0.4,0.4,0.8,0.5,1.3
							c0,1.1-0.9,2.1-2.1,2.1c0,0,0,0,0,0h-4.6c-0.6,0-1.1-0.2-1.5-0.6l0,0l-2-2l2.3-0.8c0.4-0.3,0.9-0.5,1.4-0.5h0l3.9-1.4
							L21484.8,10517.7L21484.8,10517.7z"/>
					</g>
				</g>
				<g>
					<g id="Groupe_774" transform="translate(245.848 126.571)">
						<path id="Tracé_2460" class="st1" d="M21476.8,10519.3h4.6c1.1,0,2.1-0.9,2.1-2.1c0-1.1-0.9-2.1-2.1-2.1h-4.6
							c-1.1,0-2.1,0.9-2.1,2.1c0,0,0,0,0,0C21474.8,10518.4,21475.7,10519.3,21476.8,10519.3z"/>
					</g>
				</g>
				<g>
					<g id="Groupe_775" transform="translate(245.848 126.571)">
						<path id="Tracé_2461" class="st0" d="M21496.7,10517.7c0.1,0.1,0.2,0.2,0.3,0.3l0,0c0.3,0.4,0.4,0.8,0.5,1.3
							c0,1.1-0.9,2.1-2.1,2.1c0,0,0,0,0,0h-4.6c-0.6,0-1.1-0.2-1.5-0.6l0,0l-2-2l2.3-0.8c0.4-0.3,0.9-0.5,1.4-0.5h0l3.9-1.4
							L21496.7,10517.7L21496.7,10517.7z"/>
					</g>
				</g>
				<g>
					<g id="Groupe_776" transform="translate(245.848 126.571)">
						<path id="Tracé_2462" class="st2" d="M21488.7,10519.3h4.6c1.1,0,2.1-0.9,2.1-2.1c0-1.1-0.9-2.1-2.1-2.1h-4.6
							c-1.1,0-2.1,0.9-2.1,2.1C21486.7,10518.4,21487.6,10519.3,21488.7,10519.3z"/>
					</g>
				</g>
				<g>
					<g id="Groupe_777" transform="translate(245.848 126.571)">
						<path id="Tracé_2463" class="st0" d="M21519,10519.5h-14.6c-0.5,0-0.8-0.4-0.8-0.8s0.4-0.8,0.8-0.8l0,0h14.6
							c0.5,0,0.8,0.4,0.8,0.8S21519.5,10519.5,21519,10519.5L21519,10519.5z"/>
					</g>
				</g>
				<g>
					<g id="Groupe_778" transform="translate(245.848 126.571)">
						<path id="Tracé_2464" class="st0" d="M21530.5,10501.5h-12.3c-0.5,0-1,0.2-1.3,0.5c-0.9,0.9-1.9,1.9-2.4,2.4
							c-0.7,0.5-1.1,1.3-1.1,2.1c0,1,12.8,3.1,13.8,3.1s1.2-0.4,2.2-1.3l2.6-2.6c0.1-0.1,0.2-0.3,0.2-0.5v-2.4
							C21532,10502.1,21531.8,10501.5,21530.5,10501.5z"/>
					</g>
				</g>
				<g>
					<g id="Groupe_779" transform="translate(245.848 126.571)">
						<path id="Tracé_2465" class="st0" d="M21517.7,10515.4c0.2,0,0.4-0.1,0.6-0.2c0.1-0.2,0.2-0.3,0.2-0.6v-2.3
							c0-0.3-0.1-0.5-0.4-0.7c-0.2-0.1-0.5-0.1-0.8,0l-4.6,2.3c-0.3,0.2-0.5,0.6-0.4,0.9c0.1,0.4,0.4,0.6,0.8,0.6H21517.7z"/>
					</g>
				</g>
				<g>
					<g id="Groupe_780" transform="translate(245.848 126.571)">
						<path id="Tracé_2466" class="st0" d="M21469.6,10434.1h-17c-0.5,0-0.8-0.4-0.8-0.8c0-0.5,0.4-0.8,0.8-0.8h16.7l16.7-16.7
							c0.3-0.3,0.8-0.3,1.2,0c0.3,0.3,0.3,0.8,0,1.1l-16.9,16.9C21470,10434,21469.8,10434.1,21469.6,10434.1z"/>
					</g>
				</g>
				<g>
					<g id="Groupe_781" transform="translate(245.848 126.571)">
						<path id="Tracé_2467" class="st2" d="M21540.3,10511.2c0-0.3,0.1-0.6,0.3-0.8l2.3-2.3c0.3-0.3,0.8-0.4,1.2-0.2
							c0.4,0.2,0.7,0.6,0.7,1v2.8c0,0.3-0.1,0.6-0.3,0.8l-2.3,2.3c-0.3,0.3-0.8,0.4-1.2,0.2c-0.4-0.2-0.7-0.6-0.7-1V10511.2z"/>
					</g>
				</g>
				<g>
					<g id="Groupe_782" transform="translate(245.848 126.571)">
						<circle id="Ellipse_236" class="st0" cx="21458.1" cy="10423.3" r="2.8"/>
					</g>
				</g>
				<g>
					<g id="Groupe_783" transform="translate(245.848 126.571)">
						<circle id="Ellipse_237" class="st3" cx="21468" cy="10423.3" r="2.8"/>
					</g>
				</g>
				<g>
					<g id="Groupe_785" transform="translate(245.848 126.571)">
						<path id="Tracé_2468" class="st0" d="M21477.2,10604.5c1.2,0,2.3,0.5,3.2,1.2c0.7,0.7,0.4,1.2-0.7,1.2
							c-1.2,0-2.3-0.5-3.2-1.2C21475.8,10605,21476.1,10604.5,21477.2,10604.5z"/>
					</g>
				</g>
				<g>
					<g id="Groupe_786" transform="translate(245.848 126.571)">
						<circle id="Ellipse_239" class="st2" cx="21588.9" cy="10557.7" r="1.6"/>
					</g>
				</g>
				<g>
					<g id="Groupe_787" transform="translate(245.848 126.571)">
						<circle id="Ellipse_240" class="st2" cx="21588.9" cy="10563.9" r="1.6"/>
					</g>
				</g>
				<g>
					<g id="Groupe_788" transform="translate(245.848 126.571)">
						<path id="Tracé_2469" class="st3" d="M21464.7,10548.7v-15.6c0-0.3,0.1-0.6,0.3-0.8s0.5-0.3,0.8-0.3h37.6v26.6h-38.7
							c-4.4,0-8.3-2.9-9.5-7.2l0,0c0-0.1,0-0.1,0-0.2c-0.4-1.8,0.7-2.4,2.1-2.4L21464.7,10548.7z"/>
					</g>
				</g>
				<g>
					<g id="Groupe_789" transform="translate(245.848 126.571)">
						<path id="Tracé_2470" class="st0" d="M21503.4,10549.5h-38.7c-0.5,0-0.8-0.4-0.8-0.8c0-0.5,0.4-0.8,0.8-0.8h38.7
							c0.5,0,0.8,0.4,0.8,0.8C21504.3,10549.2,21503.9,10549.5,21503.4,10549.5L21503.4,10549.5z"/>
					</g>
				</g>
				<g>
					<g id="Groupe_790" transform="translate(245.848 126.571)">
						<path id="Tracé_2471" class="st0" d="M21497,10539.6c0-0.8-0.6-1.4-1.4-1.4c0,0,0,0,0,0h-25c-0.8,0-1.4,0.6-1.4,1.4
							c0,0,0,0,0,0v1.2c0,0.8,0.6,1.4,1.4,1.4c0,0,0,0,0,0h25c0.8,0,1.4-0.6,1.4-1.4c0,0,0,0,0,0V10539.6z"/>
					</g>
				</g>
				<g>
					<g id="Groupe_791" transform="translate(245.848 126.571)">
						<path id="Tracé_2472" class="st0" d="M21525.5,10601.6h-14.8c-0.2,0-0.4-0.1-0.6-0.2l-6.7-6.7c-0.2-0.2-0.2-0.4-0.2-0.6
							v-10.4l-11.8-11.8c-0.2-0.2-0.2-0.4-0.2-0.6v-11.6c0-0.5,0.4-0.8,0.8-0.8c0.5,0,0.8,0.4,0.8,0.8v11.3l11.8,11.8
							c0.2,0.2,0.2,0.4,0.2,0.6v10.4l6.2,6.2h14.5c0.5,0,0.8,0.4,0.8,0.9C21526.3,10601.2,21525.9,10601.6,21525.5,10601.6
							L21525.5,10601.6z"/>
					</g>
				</g>
				<g>
					<g id="Groupe_792" transform="translate(245.848 126.571)">
						<path id="Tracé_2473" class="st0" d="M21491.3,10610.2v-11.3h-8c-0.6,0-1.1,0.3-1.3,0.8c-0.2,0.5-0.1,1.1,0.3,1.5
							C21485.6,10604.5,21491.3,10610.2,21491.3,10610.2L21491.3,10610.2z"/>
					</g>
				</g>
				<g>
					<g id="Groupe_793" transform="translate(245.848 126.571)">
						<path id="Tracé_2474" class="st2" d="M21491.3,10610.2v-11.3h6.7c0.4,0,0.7,0.1,1,0.4l10.9,10.9H21491.3z"/>
					</g>
				</g>
				<g>
					<g id="Groupe_794" transform="translate(245.848 126.571)">
						<path id="Tracé_2475" class="st0" d="M21486.3,10592.3h-32.4c-0.5,0-0.8-0.4-0.8-0.8s0.4-0.8,0.8-0.8h31.6v-31
							c0-0.5,0.4-0.8,0.8-0.8s0.8,0.4,0.8,0.8v31.9C21487.2,10592,21486.8,10592.3,21486.3,10592.3
							C21486.3,10592.3,21486.3,10592.3,21486.3,10592.3z"/>
					</g>
				</g>
				<g>
					<g id="Groupe_795" transform="translate(245.848 126.571)">
						<path id="Tracé_2476" class="st3" d="M21473.7,10416.4c-0.9,0-1.7-0.4-2.4-1c-0.6-0.6-1-1.5-1-2.4v-6.7c0-0.9,0.4-1.7,1-2.4
							l8.8-8.8c0.6-0.6,1.5-1,2.4-1h44.4c0.9,0,1.7,0.4,2.4,1l8.8,8.8c0.6,0.6,1,1.5,1,2.4v6.7c0,0.9-0.4,1.7-1,2.4
							c-0.6,0.6-1.5,1-2.4,1L21473.7,10416.4z"/>
					</g>
				</g>
				<g>
					<g id="Groupe_796" transform="translate(245.848 126.571)">
						<path id="Tracé_2477" class="st0" d="M21529.1,10417.4v-10.8c0-0.9-0.3-1.7-0.9-2.4c-1-1-2.6-2.7-4.3-4.4
							c-0.9-1-1.2-2.4-0.7-3.6c0.5-1.2,1.8-2,3.1-2h5c0.9,0,1.7,0.4,2.4,1l8.8,8.8c0.6,0.6,1,1.5,1,2.4v11.1L21529.1,10417.4
							L21529.1,10417.4z"/>
					</g>
				</g>
				<g>
					<g id="Groupe_797" transform="translate(245.848 126.571)">
						<path id="Tracé_2478" class="st0" d="M21585.2,10613.5c0-1.8-1.5-3.3-3.3-3.3H21465c-1.8,0-3.3,1.5-3.3,3.3l0,0
							c0,1.8,1.5,3.3,3.3,3.3h116.9C21583.7,10616.7,21585.1,10615.3,21585.2,10613.5L21585.2,10613.5z"/>
					</g>
				</g>
				<g>
					<g id="Groupe_798" transform="translate(245.848 126.571)">
						<path id="Tracé_2479" class="st0" d="M21590.3,10620c0-1.8-1.5-3.3-3.3-3.3h-127.3c-1.8,0-3.3,1.5-3.3,3.3l0,0
							c0,1.8,1.5,3.3,3.3,3.3h127.3C21588.8,10623.3,21590.3,10621.8,21590.3,10620C21590.3,10620,21590.3,10620,21590.3,10620z"/>
					</g>
				</g>
				<g>
					<g id="Groupe_799" transform="translate(245.848 126.571)">
						<path id="Tracé_2480" class="st1" d="M21581.8,10460.2h-3.3v-10.6c0-2.8,1.1-5.5,3.1-7.5l8.6-8.6c2.8-2.9,2.7-7.4-0.2-10.2
							c-2.8-2.7-7.3-2.7-10.1,0l-7.6,7.7l-2.4-2.4l7.7-7.7c4.1-4.1,10.8-4.1,14.9,0c4.1,4.1,4.1,10.8,0,14.9l-8.6,8.6
							c-1.4,1.4-2.1,3.2-2.1,5.1L21581.8,10460.2L21581.8,10460.2L21581.8,10460.2z"/>
					</g>
				</g>
				<g>
					<g id="Groupe_800" transform="translate(245.848 126.571)">
						<path id="Tracé_2481" class="st2" d="M21590.5,10468.9h-3.3v-31.3c0-1.9-0.8-3.8-2.1-5.1l-9.5-9.5c-2.8-2.8-7.4-2.8-10.3,0
							c0,0,0,0,0,0l-0.5,0.5l-2.4-2.4l0.5-0.5c4.1-4.1,10.8-4.1,15,0l9.5,9.5c2,2,3.1,4.7,3.1,7.5L21590.5,10468.9L21590.5,10468.9z
							"/>
					</g>
				</g>
				<g>
					<g id="Groupe_801" transform="translate(245.848 126.571)">
						<path id="Tracé_2482" class="st0" d="M21591.2,10519.8c-1.5,1.6-3.7,2.5-5.9,2.5c-4.5,0-8.2-3.7-8.2-8.2
							c0-4.5,3.7-8.2,8.2-8.2c2.2,0,4.4,0.9,5.9,2.5l0,0l2.3,2.3v6.8L21591.2,10519.8L21591.2,10519.8z"/>
					</g>
				</g>
				<g>
					<g id="Groupe_802" transform="translate(245.848 126.571)">
						<path id="Tracé_2483" class="st2" d="M21531.2,10432.2h-11c-0.5,0-0.8-0.4-0.8-0.8c0-0.5,0.4-0.8,0.8-0.8h10.7l12.9-12.9
							c0.3-0.3,0.8-0.3,1.2,0c0.3,0.3,0.3,0.8,0,1.1l-13.2,13.2C21531.7,10432.1,21531.5,10432.2,21531.2,10432.2z"/>
					</g>
				</g>
				<g>
					<g id="Groupe_803" transform="translate(245.848 126.571)">
						<path id="Tracé_2484" class="st2" d="M21545.1,10427.7c-0.2,0-0.4-0.1-0.6-0.2l-4.7-4.7c-0.3-0.3-0.3-0.8,0-1.2
							c0.3-0.3,0.8-0.3,1.2,0c0,0,0,0,0,0l4.2,4.2l8.1-8.1c0.3-0.3,0.8-0.3,1.2,0c0.3,0.3,0.3,0.8,0,1.1l-8.7,8.7
							C21545.5,10427.6,21545.3,10427.7,21545.1,10427.7z"/>
					</g>
				</g>
				<g>
					<g id="Groupe_804" transform="translate(245.848 126.571)">
						<path id="Tracé_2485" class="st2" d="M21557.4,10463.3h-12.6c-0.5,0-0.8-0.4-0.8-0.8s0.4-0.8,0.8-0.8h12.2l8.3-8.3v-7.5
							c0-0.2,0.1-0.4,0.2-0.6l5.8-5.8c0.3-0.3,0.8-0.3,1.2,0c0.3,0.3,0.3,0.8,0,1.1l-5.5,5.5v7.5c0,0.2-0.1,0.4-0.2,0.6l-8.8,8.8
							C21557.9,10463.1,21557.7,10463.2,21557.4,10463.3z"/>
					</g>
				</g>
				<g>
					<g id="Groupe_805" transform="translate(245.848 126.571)">
						<path id="Tracé_2486" class="st2" d="M21573.4,10483.8h-9c-0.2,0-0.4-0.1-0.6-0.2l-14.2-14.2h-4.8c-0.5,0-0.8-0.4-0.8-0.8
							s0.4-0.8,0.8-0.8h5.2c0.2,0,0.4,0.1,0.6,0.2l14.2,14.2h8.6c0.5,0,0.8,0.4,0.8,0.8c0,0,0,0,0,0
							C21574.3,10483.4,21573.9,10483.7,21573.4,10483.8z"/>
					</g>
				</g>
				<g>
					<g id="Groupe_806" transform="translate(245.848 126.571)">
						<path id="Tracé_2487" class="st2" d="M21582,10531.6h-19.9c-0.5,0-0.8-0.4-0.8-0.8c0,0,0,0,0,0v-15.7c0-0.2,0.1-0.4,0.2-0.6
							l11.3-11.3c0.3-0.3,0.8-0.3,1.2,0c0.3,0.3,0.3,0.8,0,1.2c0,0,0,0,0,0l-11.1,11.1v14.5h18.2v-4.6c0-0.5,0.4-0.8,0.8-0.8
							s0.8,0.4,0.8,0.8v5.5C21582.8,10531.2,21582.5,10531.5,21582,10531.6C21582,10531.6,21582,10531.6,21582,10531.6z"/>
					</g>
				</g>
				<g>
					<g id="Groupe_807" transform="translate(245.848 126.571)">
						<path id="Tracé_2488" class="st2" d="M21520.2,10549.6c-0.2,0-0.4-0.1-0.6-0.2c-0.3-0.3-0.3-0.8,0-1.1c0,0,0,0,0,0l12.6-12.6
							c0.2-0.1,0.4-0.2,0.6-0.2h15.4l13.3-13.3c0.3-0.3,0.8-0.3,1.2,0c0.3,0.3,0.3,0.8,0,1.2c0,0,0,0,0,0l-13.5,13.5
							c-0.2,0.2-0.4,0.2-0.6,0.2h-15.4l-12.3,12.3C21520.6,10549.5,21520.4,10549.6,21520.2,10549.6z"/>
					</g>
				</g>
				<g>
					<g id="Groupe_808" transform="translate(245.848 126.571)">
						<path id="Tracé_2489" class="st1" d="M21578.3,10604.7h-39c-0.5,0-0.8-0.4-0.8-0.8c0,0,0,0,0,0v-22.4c0-0.2,0.1-0.4,0.2-0.6
							l11.2-11.2c0.2-0.2,0.4-0.2,0.6-0.2h39c0.5,0,0.8,0.4,0.8,0.8c0,0,0,0,0,0v22.4c0,0.2-0.1,0.4-0.2,0.6l-11.2,11.2
							C21578.7,10604.6,21578.5,10604.7,21578.3,10604.7z M21540.1,10603.1h37.8l10.7-10.7v-21.3h-37.8l-10.7,10.7L21540.1,10603.1z
							"/>
					</g>
				</g>
				<g>
					<g id="Groupe_809" transform="translate(245.848 126.571)">
						<path id="Tracé_2490" class="st1" d="M21571.4,10603.9v-7.7h-14.1v7.7"/>
					</g>
				</g>
				<g>
					<g id="Groupe_810" transform="translate(245.848 126.571)">
						<path id="Tracé_2491" class="st1" d="M21572.2,10603.9h-1.7v-6.9h-12.4v6.9h-1.7v-7.7c0-0.5,0.4-0.8,0.8-0.8c0,0,0,0,0,0
							h14.1c0.5,0,0.8,0.4,0.8,0.8c0,0,0,0,0,0V10603.9L21572.2,10603.9z"/>
					</g>
				</g>
				<g>
					<g id="Groupe_811" transform="translate(245.848 126.571)">
						<path id="Tracé_2492" class="st2" d="M21578,10579.2h-27.3c-0.5,0-0.8-0.4-0.8-0.8s0.4-0.8,0.8-0.8h27.3
							c0.5,0,0.8,0.4,0.8,0.8S21578.4,10579.2,21578,10579.2L21578,10579.2L21578,10579.2z"/>
					</g>
				</g>
				<g>
					<g id="Groupe_812" transform="translate(245.848 126.571)">
						<path id="Tracé_2493" class="st2" d="M21578,10584.7h-27.3c-0.5,0-0.8-0.4-0.8-0.8s0.4-0.8,0.8-0.8h27.3
							c0.5,0,0.8,0.4,0.8,0.8S21578.4,10584.7,21578,10584.7L21578,10584.7L21578,10584.7z"/>
					</g>
				</g>
				<g>
					<g id="Groupe_813" transform="translate(245.848 126.571)">
						<path id="Tracé_2494" class="st2" d="M21578,10590.2h-27.3c-0.5,0-0.8-0.4-0.8-0.8s0.4-0.8,0.8-0.8h27.3
							c0.5,0,0.8,0.4,0.8,0.8S21578.4,10590.2,21578,10590.2L21578,10590.2L21578,10590.2z"/>
					</g>
				</g>
				<g>
					<g id="Groupe_814" transform="translate(245.848 126.571)">
						<path id="Tracé_2495" class="st2" d="M21539.2,10571.1c-0.2,0-0.4-0.1-0.6-0.2l-14-13.9c-0.2-0.2-0.2-0.4-0.2-0.6v-12.5
							c0-0.5,0.4-0.8,0.8-0.8s0.8,0.4,0.8,0.8v12.2l13.7,13.7c0.3,0.3,0.3,0.8,0,1.1c0,0,0,0,0,0
							C21539.7,10571,21539.4,10571,21539.2,10571.1z"/>
					</g>
				</g>
				<g>
					<g id="Groupe_815" transform="translate(245.848 126.571)">
						<path id="Tracé_2496" class="st2" d="M21529.4,10572.3h-9.2c-0.5,0-0.8-0.4-0.8-0.8s0.4-0.8,0.8-0.8l0,0h8.9l5.3-5.3
							c0.3-0.3,0.8-0.3,1.2,0c0.3,0.3,0.3,0.8,0,1.2c0,0,0,0,0,0l-5.5,5.5C21529.8,10572.2,21529.6,10572.3,21529.4,10572.3z"/>
					</g>
				</g>
				<g>
					<g id="Groupe_816" transform="translate(245.848 126.571)">
						<path id="Tracé_2497" class="st0" d="M21453.4,10523.7c-0.2,0-0.4-0.1-0.6-0.2c-0.3-0.3-0.3-0.8,0-1.1c0,0,0,0,0,0l21.4-21.4
							c0.3-0.3,0.8-0.3,1.2,0c0.3,0.3,0.3,0.8,0,1.1l-21.4,21.4C21453.8,10523.6,21453.6,10523.7,21453.4,10523.7z"/>
					</g>
				</g>
				<g>
					<g id="Groupe_817" transform="translate(245.848 126.571)">
						<path id="Tracé_2498" class="st0" d="M21544.3,10463.3h-3.4c-0.5,0-0.8-0.4-0.8-0.8s0.4-0.8,0.8-0.8h3.4
							c0.5,0,0.8,0.4,0.8,0.8S21544.8,10463.3,21544.3,10463.3z"/>
					</g>
				</g>
				<g>
					<g id="Groupe_818" transform="translate(245.848 126.571)">
						<path id="Tracé_2499" class="st0" d="M21544.3,10469.3h-3.4c-0.5,0-0.8-0.4-0.8-0.8s0.4-0.8,0.8-0.8h3.4
							c0.5,0,0.8,0.4,0.8,0.8S21544.8,10469.3,21544.3,10469.3z"/>
					</g>
				</g>
				<g>
					<g id="Groupe_819" transform="translate(245.848 126.571)">
						<path id="Tracé_2500" class="st1" d="M21528,10506.3c0-0.3-0.3-0.6-0.6-0.6c0,0,0,0,0,0h-13.3c-0.3,0-0.6,0.3-0.6,0.6
							c0,0,0,0,0,0v2.8c0,0.3,0.3,0.6,0.6,0.6c0,0,0,0,0,0h13.3c0.3,0,0.6-0.3,0.6-0.6c0,0,0,0,0,0V10506.3z"/>
					</g>
				</g>
				<g>
					<g id="Groupe_820" transform="translate(245.848 126.571)">
						<path id="Tracé_2501" class="st0" d="M21500.9,10548.7c0.5,0,1-0.4,1-0.9c0,0,0,0,0,0v-14.7c0-0.5,0.4-1,0.9-1c0,0,0,0,0,0
							h1.6c0.6,0,1.2,0.6,1.2,1.2v24.2c0,0.6-0.6,1.2-1.2,1.2h-2.6c-4.4,0-8.2-2.9-9.5-7.1c0,0,0-0.1,0-0.1c-0.6-2,0.6-2.6,2.1-2.6
							L21500.9,10548.7z"/>
					</g>
				</g>
				<g>
					<g id="Groupe_821" transform="translate(245.848 126.571)">
						<path id="Tracé_2502" class="st0" d="M21470.4,10414.9c-0.5,0-0.8-0.4-0.8-0.8c0,0,0,0,0,0v-6.7c0-1.1,0.4-2.2,1.2-3l8.8-8.8
							c0.8-0.8,1.8-1.2,3-1.2h46.8c0.5,0,0.8,0.4,0.8,0.8s-0.4,0.8-0.8,0.8l0,0h-46.8c-0.7,0-1.3,0.3-1.8,0.7l-8.8,8.8
							c-0.5,0.5-0.7,1.1-0.7,1.8v6.7C21471.2,10414.5,21470.8,10414.9,21470.4,10414.9
							C21470.4,10414.9,21470.4,10414.9,21470.4,10414.9z"/>
					</g>
				</g>
				<g>
					<g id="Groupe_822" transform="translate(245.848 126.571)">
						<path id="Tracé_2503" class="st0" d="M21549.6,10442.4h-72.1c-0.5,0-0.8-0.4-0.8-0.8c0-0.5,0.4-0.8,0.8-0.8h72.1
							c0.5,0,0.8,0.4,0.8,0.8C21550.5,10442,21550.1,10442.4,21549.6,10442.4z"/>
					</g>
				</g>
				<g>
					<g id="Groupe_823" transform="translate(245.848 126.571)">
						<path id="Tracé_2504" class="st0" d="M21496.7,10442.4c-0.2,0-0.4-0.1-0.6-0.2c-0.3-0.3-0.3-0.8,0-1.1c0,0,0,0,0,0l10.2-10.2
							c0.2-0.2,0.4-0.2,0.6-0.2h13.2c0.5,0,0.8,0.4,0.8,0.8s-0.4,0.8-0.8,0.8h-12.9l-10,10
							C21497.1,10442.3,21496.9,10442.4,21496.7,10442.4z"/>
					</g>
				</g>
				<g>
					<g id="Groupe_824" transform="translate(245.848 126.571)">
						<path id="Tracé_2505" class="st0" d="M21582.8,10472.7l-5.4-5.4v-8.1c0-0.6,0.5-1.1,1.1-1.2c0,0,0,0,0,0h3
							c0.6,0,1.1,0.5,1.2,1.1c0,0,0,0,0,0V10472.7z"/>
					</g>
				</g>
				<g>
					<g id="Groupe_825" transform="translate(245.848 126.571)">
						<path id="Tracé_2506" class="st0" d="M21591.5,10481.4l-5.4-5.4v-8.1c0-0.6,0.5-1.1,1.1-1.2c0,0,0,0,0,0h3
							c0.6,0,1.1,0.5,1.2,1.1c0,0,0,0,0,0V10481.4z"/>
					</g>
				</g>
				<g>
					<g id="Groupe_826" transform="translate(245.848 126.571)">
						<rect id="Rectangle_522" x="21577.5" y="10461.4" class="st3" width="5.4" height="1.7"/>
					</g>
				</g>
				<g>
					<g id="Groupe_827" transform="translate(245.848 126.571)">
						<rect id="Rectangle_524" x="21586.2" y="10470" class="st3" width="5.4" height="1.7"/>
					</g>
				</g>
				<g>
					<g id="Groupe_828" transform="translate(245.848 126.571)">
						<path id="Tracé_2507" class="st0" d="M21509.9,10611c-0.2,0-0.4-0.1-0.6-0.2l-10.9-10.9c-0.1-0.1-0.2-0.1-0.4-0.1h-14.6
							c-0.2,0-0.4,0.1-0.5,0.3c-0.1,0.2,0,0.5,0.1,0.6l8.8,8.8c0.2,0.1,0.3,0.3,0.3,0.5c0.1,0.4-0.1,0.9-0.5,1.1c0,0,0,0,0,0h-0.1
							c-0.3,0.1-0.6,0-0.7-0.2l-9-9c-0.6-0.6-0.8-1.6-0.5-2.4c0.3-0.8,1.1-1.4,2-1.4h14.6c0.6,0,1.2,0.2,1.6,0.6l10.9,10.9
							c0.3,0.3,0.3,0.8,0,1.1c0,0,0,0,0,0C21510.3,10610.9,21510.1,10611,21509.9,10611z"/>
					</g>
				</g>
				<g>
					<g id="Groupe_829" transform="translate(245.848 126.571)">
						<path id="Tracé_2508" class="st3" d="M21543.8,10570.2l-4.5,4.5v-4.5H21543.8z"/>
					</g>
				</g>
				<g>
					<g id="Groupe_830" transform="translate(245.848 126.571)">
						<path id="Tracé_2509" class="st3" d="M21539.2,10575.6c-0.1,0-0.2,0-0.3,0c-0.3-0.1-0.5-0.4-0.5-0.8v-4.5
							c0-0.5,0.4-0.8,0.8-0.8c0,0,0,0,0,0h4.5c0.3,0,0.6,0.2,0.8,0.5c0.1,0.3,0.1,0.7-0.2,0.9l-4.5,4.5
							C21539.7,10575.5,21539.4,10575.6,21539.2,10575.6z M21540.1,10571.1v1.7l1.7-1.7H21540.1z"/>
					</g>
				</g>
				<g>
					<g id="Groupe_831" transform="translate(245.848 126.571)">
						<path id="Tracé_2510" class="st3" d="M21536.4,10514.7c0.3-0.3,0.8-0.4,1.2-0.2c0.4,0.2,0.7,0.6,0.7,1v2.8
							c0,0.3-0.1,0.6-0.3,0.8l-12.5,12.5c-0.3,0.3-0.8,0.4-1.2,0.2c-0.4-0.2-0.7-0.6-0.7-1v-2.8c0-0.3,0.1-0.6,0.3-0.8
							L21536.4,10514.7z"/>
					</g>
				</g>
				<g>
					<g id="Groupe_832" transform="translate(245.848 126.571)">
						<path id="Tracé_2511" class="st0" d="M21593.9,10498.8c-0.3,0-0.6-0.1-0.9-0.4l-10.6-10.6c-0.5-0.5-0.5-1.3,0-1.8
							c0.5-0.5,1.3-0.5,1.7,0l10.6,10.6c0.5,0.5,0.5,1.2,0.1,1.7c0,0,0,0-0.1,0.1C21594.6,10498.7,21594.3,10498.8,21593.9,10498.8z
							"/>
					</g>
				</g>
				<g>
					<g id="Groupe_833" transform="translate(245.848 126.571)">
						<path id="Tracé_2512" class="st0" d="M21593.9,10491.2c-0.3,0-0.6-0.1-0.9-0.4l-10.6-10.6c-0.5-0.5-0.5-1.3,0-1.8
							c0.5-0.5,1.3-0.5,1.7,0l10.6,10.6c0.5,0.5,0.5,1.2,0.1,1.7c0,0,0,0-0.1,0.1C21594.6,10491.1,21594.3,10491.2,21593.9,10491.2z
							"/>
					</g>
				</g>
				<g>
					<g id="Groupe_834" transform="translate(245.848 126.571)">
						<path id="Tracé_2513" class="st0" d="M21593.9,10506.4c-0.3,0-0.6-0.1-0.9-0.4l-10.6-10.6c-0.5-0.5-0.5-1.3,0-1.8
							c0.5-0.5,1.3-0.5,1.7,0l10.6,10.6c0.5,0.5,0.5,1.2,0.1,1.7c0,0,0,0-0.1,0.1C21594.6,10506.3,21594.3,10506.4,21593.9,10506.4z
							"/>
					</g>
				</g>
				<g>
					<g id="Groupe_835" transform="translate(245.848 126.571)">
						<path id="Tracé_2514" class="st2" d="M21583.3,10617.6h-118.9c-0.5,0-0.8-0.4-0.8-0.8s0.4-0.8,0.8-0.8h118.8
							c0.5,0,0.8,0.4,0.8,0.8c0,0,0,0,0,0C21584.1,10617.2,21583.8,10617.5,21583.3,10617.6
							C21583.3,10617.6,21583.3,10617.6,21583.3,10617.6z"/>
					</g>
				</g>
				<g>
					<g id="Groupe_836" transform="translate(245.848 126.571)">
						<circle id="Ellipse_241" class="st1" cx="21589.9" cy="10514.2" r="5"/>
					</g>
				</g>
				<g>
					<g id="Groupe_837" transform="translate(245.848 126.571)">
						<circle id="Ellipse_242" class="st0" cx="21589.9" cy="10514.2" r="2.1"/>
					</g>
				</g>
			</g>
			<g id="Groupe_840">
				<g>
					<g>
						<defs>
							<rect id="SVGID_1_" x="21480.5" y="10748.5" width="379" height="1.6"/>
						</defs>
						<clipPath id="SVGID_00000162354488410435317080000010489001608590864052_">
							<use xlink:href="#SVGID_1_"  style="overflow:visible;"/>
						</clipPath>
						<g id="Groupe_839" style="clip-path:url(#SVGID_00000162354488410435317080000010489001608590864052_);">
							<path id="Tracé_2515" class="st0" d="M21482.4,10750.1h375.3c1,0,1.9-0.3,1.9-0.8c0-0.4-0.8-0.8-1.9-0.8h-375.3
								c-1,0-1.9,0.3-1.9,0.8C21480.6,10749.7,21481.4,10750.1,21482.4,10750.1z"/>
						</g>
					</g>
				</g>
			</g>
			<path id="Tracé_2516" class="st2" d="M21539,10629.3c-2.1,0-3.8,1.8-3.7,3.9v33.9l0,0.6c0.3,6.2,5.2,11.2,11.3,11.8
				c0.4,0,0.8,0,1.1,0.1h52.3c2.1,0.1,3.8-1.5,3.9-3.5c0.1-2.1-1.5-3.8-3.5-3.9c0,0-0.1,0-0.1,0c-0.1,0-0.2,0-0.3,0h-52.3
				c-0.2,0-0.3,0-0.5,0c-2.5-0.2-4.4-2.2-4.5-4.7l0-0.2v-33.8C21542.8,10631.1,21541.1,10629.3,21539,10629.3L21539,10629.3z"/>
			<path id="Tracé_2517" class="st0" d="M21542.7,10640.4v3.9h-7.5v-3.9H21542.7z M21542.7,10652.1v3.9h-7.5v-3.9L21542.7,10652.1z
				 M21542.7,10663.8v3.2c0,0.1,0,0.1,0,0.2l0,0.3l-7.5,0.6l0-0.7l0-0.3v-3.2H21542.7z M21545,10671.1c0.6,0.4,1.3,0.7,2.1,0.8
				l-1,7.4c-1.8-0.3-3.6-0.9-5.2-2L21545,10671.1z M21554.3,10671.9h3.9v7.5h-3.9V10671.9z M21566.1,10671.9h3.9v7.5h-3.9V10671.9z
				 M21577.8,10671.9h3.9v7.5h-3.9L21577.8,10671.9z M21589.6,10671.9h3.9v7.5h-3.9V10671.9z"/>
			<path id="Tracé_2518" class="st1" d="M21516.9,10550.5h27.5c1.2,0,2.2,1,2.2,2.2l0,0v11.7c0,1.2-1,2.2-2.2,2.2l0,0h-27.5
				c-1.2,0-2.2-1-2.2-2.2l0,0v-11.7C21514.7,10551.4,21515.7,10550.4,21516.9,10550.5z"/>
			<path id="Tracé_2519" class="st3" d="M21529,10553.8h3.4v9.3h-3.4V10553.8z"/>
			<path id="Tracé_2520" class="st3" d="M21526,10560.2v-3.4h9.4v3.4H21526z"/>
			<path id="Tracé_2521" class="st0" d="M21521.6,10684.6h7.5v103.2h-7.5V10684.6z"/>
			<path id="Tracé_2522" class="st2" d="M21513.3,10629.7c-2.1,0-3.7-1.7-3.7-3.7l0,0v-34.7c0-2.1,1.7-3.7,3.7-3.7s3.7,1.7,3.7,3.7
				l0,0v34.7C21517,10628,21515.4,10629.7,21513.3,10629.7C21513.3,10629.7,21513.3,10629.7,21513.3,10629.7L21513.3,10629.7
				L21513.3,10629.7z"/>
			<path id="Tracé_2523" class="st0" d="M21509.6,10625.9v3.8h7.5v-3.8H21509.6z M21509.6,10614.7v3.7h7.5v-3.7H21509.6z
				 M21509.6,10604.1v3h7.5v-3H21509.6z"/>
			<path id="Tracé_2524" class="st0" d="M21500.2,10791.5c-2.1,0-3.7-1.7-3.7-3.7v-95.6c0-2.1,1.7-3.7,3.7-3.7s3.7,1.7,3.7,3.7
				v95.6C21503.9,10789.8,21502.3,10791.5,21500.2,10791.5L21500.2,10791.5z"/>
			<path id="Tracé_2525" class="st2" d="M21520.7,10786.4h9.4l4.9,4.9c0.2,0.2,0.6,0.4,0.9,0.4h1.4c0.3,0,0.7,0.1,0.9,0.4l1.4,1.4
				c0.3,0.3,0.5,0.8,0.5,1.2v1.9c0,0.3-0.1,0.5-0.3,0.7c-0.2,0.2-0.4,0.3-0.7,0.3h-17.5c-0.3,0-0.5-0.1-0.7-0.3
				c-0.2-0.2-0.3-0.4-0.3-0.7L21520.7,10786.4z"/>
			<path id="Tracé_2526" class="st0" d="M21506.9,10671h11.3v4.6h-11.3V10671z"/>
			<path id="Tracé_2527" class="st1" d="M21486.7,10645.2v-23.4h51.4c6.4,0,11.6,5.2,11.6,11.7c0,6.4-5.2,11.6-11.7,11.6h-6.1
				l-5.3,5.2v13.3l-7.4,7.4h-14l-7.4-7.4v-13.3l-5.2-5.2L21486.7,10645.2L21486.7,10645.2z"/>
			<path id="Tracé_2528" class="st3" d="M21546.7,10640.2h-3.1c-1.6,0-3-1.3-3-2.9v-6.5c0-0.5-0.2-1-0.6-1.4l-5.9-5.9l1-1l5.9,5.8
				c0.7,0.7,1,1.5,1,2.5v6.5c0,0.8,0.6,1.4,1.4,1.4h3.1c0.4,0,0.7,0.3,0.8,0.7S21547.1,10640.2,21546.7,10640.2
				C21546.7,10640.2,21546.7,10640.2,21546.7,10640.2L21546.7,10640.2z"/>
			<path id="Tracé_2529" class="st0" d="M21506.8,10654.3h-10.3c-0.4,0-0.7-0.3-0.7-0.7c0,0,0,0,0,0c0,0,0,0,0,0
				c0-0.4,0.3-0.7,0.7-0.7h10.3c0.4,0,0.8,0.3,0.8,0.7C21507.6,10653.9,21507.2,10654.3,21506.8,10654.3
				C21506.8,10654.3,21506.8,10654.3,21506.8,10654.3L21506.8,10654.3z"/>
			<path id="Tracé_2530" class="st0" d="M21527.8,10654.3h-4.2c-0.4,0-0.7-0.3-0.7-0.7c0,0,0,0,0,0c0,0,0,0,0,0
				c0-0.4,0.3-0.7,0.7-0.7h4.2c0.4,0,0.7,0.3,0.7,0.7c0,0,0,0,0,0c0,0,0,0,0,0C21528.5,10653.9,21528.2,10654.3,21527.8,10654.3z"/>
			<path id="Tracé_2531" class="st0" d="M21506.8,10658.7h-10.3c-0.4,0-0.8-0.3-0.8-0.7c0-0.4,0.3-0.7,0.7-0.8c0,0,0,0,0.1,0h10.3
				c0.4,0,0.8,0.3,0.8,0.7C21507.6,10658.4,21507.2,10658.7,21506.8,10658.7C21506.8,10658.7,21506.8,10658.7,21506.8,10658.7z"/>
			<path id="Tracé_2532" class="st0" d="M21527.8,10658.7h-4.2c-0.4,0-0.7-0.3-0.8-0.7c0-0.4,0.3-0.7,0.7-0.8c0,0,0,0,0.1,0h4.2
				c0.4,0,0.7,0.3,0.7,0.7v0c0,0,0,0,0,0C21528.5,10658.4,21528.2,10658.7,21527.8,10658.7z"/>
			<path id="Tracé_2533" class="st0" d="M21506.8,10663.2h-10.3c-0.4,0-0.7-0.3-0.7-0.7c0,0,0,0,0,0s0,0,0,0c0-0.4,0.3-0.7,0.7-0.7
				h10.3c0.4,0,0.8,0.3,0.8,0.7C21507.6,10662.8,21507.2,10663.2,21506.8,10663.2C21506.8,10663.2,21506.8,10663.2,21506.8,10663.2
				L21506.8,10663.2z"/>
			<path id="Tracé_2534" class="st0" d="M21527.8,10663.2h-4.2c-0.4,0-0.7-0.3-0.7-0.7c0,0,0,0,0,0s0,0,0,0c0-0.4,0.3-0.7,0.7-0.7
				h4.2c0.4,0,0.7,0.3,0.7,0.7v0c0,0,0,0,0,0C21528.5,10662.9,21528.2,10663.2,21527.8,10663.2z"/>
			<path id="Tracé_2535" class="st2" d="M21495.5,10786.4h9.4l4.9,4.9c0.2,0.2,0.6,0.4,0.9,0.4h1.4c0.3,0,0.7,0.1,0.9,0.4l1.4,1.4
				c0.3,0.3,0.5,0.8,0.5,1.2v1.9c0,0.3-0.1,0.5-0.3,0.7c-0.2,0.2-0.4,0.3-0.7,0.3h-17.5c-0.3,0-0.5-0.1-0.7-0.3
				c-0.2-0.2-0.3-0.4-0.3-0.7L21495.5,10786.4z"/>
			<ellipse id="Ellipse_243" class="st1" cx="21486.7" cy="10633.5" rx="11.7" ry="11.7"/>
			<ellipse id="Ellipse_244" class="st0" cx="21486.2" cy="10633.5" rx="6.7" ry="6.7"/>
			<ellipse id="Ellipse_245" class="st3" cx="21524.1" cy="10789.4" rx="1.6" ry="1.6"/>
			<ellipse id="Ellipse_246" class="st3" cx="21498.4" cy="10789.4" rx="1.6" ry="1.6"/>
			<path id="Tracé_2536" class="st0" d="M21563.1,10573.4v5l-2.7,24.5v4.8c0,1.7-1.4,3-3,3h-33.4c-0.8,0-1.6-0.3-2.1-0.9l-4.2-4.2
				l-6.1-6.1c-0.4-0.4-0.9-0.7-1.4-0.8c-0.2-0.1-0.5-0.1-0.7-0.1h-6c-1.7,0-3-1.4-3-3v-26.3c0-1.7,1.4-3,3-3l0,0h52.6
				c0.8,0,1.6,0.3,2.1,0.9l4.1,4.1C21562.8,10571.9,21563.1,10572.6,21563.1,10573.4L21563.1,10573.4z"/>
			<path id="Tracé_2537" class="st1" d="M21510.1,10587.2c-2.8,0-5-2.2-5-5s2.2-5,5-5c2.7,0,5,2.2,5,5l0,0
				C21515.1,10584.9,21512.9,10587.2,21510.1,10587.2z M21510.1,10578.7c-1.9,0-3.5,1.6-3.5,3.5s1.6,3.5,3.5,3.5
				c1.9,0,3.5-1.6,3.5-3.5C21513.6,10580.3,21512.1,10578.7,21510.1,10578.7L21510.1,10578.7z"/>
			<path id="Tracé_2538" class="st1" d="M21510.1,10580.9c0.7,0,1.3,0.6,1.3,1.3s-0.6,1.3-1.3,1.3c-0.7,0-1.3-0.6-1.3-1.3
				S21509.4,10580.9,21510.1,10580.9L21510.1,10580.9z"/>
			<path id="Tracé_2539" class="st1" d="M21518.8,10583h-4.4c-0.4,0-0.8-0.3-0.8-0.7c0-0.4,0.3-0.7,0.7-0.8c0,0,0,0,0.1,0h4.4
				c0.4,0,0.7,0.3,0.8,0.7C21519.6,10582.6,21519.3,10583,21518.8,10583C21518.9,10583,21518.8,10583,21518.8,10583z"/>
			<path id="Tracé_2540" class="st1" d="M21504.3,10589.9h-3c-0.4,0-0.7-0.3-0.7-0.7c0,0,0,0,0,0c0,0,0,0,0,0
				c0-0.4,0.3-0.7,0.7-0.7h2.7l3.2-3.2c0.3-0.3,0.8-0.2,1,0.1c0.2,0.3,0.2,0.7,0,1l-3.4,3.4
				C21504.7,10589.8,21504.5,10589.9,21504.3,10589.9L21504.3,10589.9z"/>
			<path id="Tracé_2541" class="st2" d="M21524.4,10577.2v16.8l9.1,9.1h-5.2c-0.4,0-0.8-0.2-1.1-0.5l-8.2-8.1
				c-0.3-0.3-0.5-0.7-0.5-1.1v-14.6c0-0.9,0.7-1.6,1.6-1.6l0,0h0C21521.9,10577.2,21524.4,10577.2,21524.4,10577.2L21524.4,10577.2z
				"/>
			<path id="Tracé_2542" class="st1" d="M21565.2,10577.2c1,0,1.8,0.8,1.8,1.7c0,0,0,0,0,0v14.3c0,0.5-0.2,0.9-0.5,1.3l-8,8
				c-0.3,0.3-0.8,0.5-1.3,0.5h-24.5c-0.4,0-0.7-0.1-1-0.4l-8-8c-0.4-0.4-0.7-1-0.7-1.6v-14.5c0-0.7,0.6-1.3,1.3-1.3L21565.2,10577.2
				L21565.2,10577.2z"/>
			<path id="Tracé_2543" class="st3" d="M21527.9,10593.2c-0.2-0.2-0.4-0.5-0.3-0.9v-10.2c0-0.7,0.5-1.2,1.2-1.2l0,0h33
				c0.7,0,1.2,0.5,1.2,1.2l0,0l0,0v10.2c0,0.3-0.1,0.6-0.3,0.9l-5.7,5.7c-0.2,0.2-0.5,0.4-0.9,0.3h-21.5c-0.3,0-0.6-0.1-0.9-0.3
				C21532.4,10597.8,21529,10594.3,21527.9,10593.2z"/>
			<path id="Tracé_2544" class="st0" d="M21536.8,10599.3h1.5v3.7h-1.5V10599.3z"/>
			<path id="Tracé_2545" class="st0" d="M21540.9,10599.3h1.5v3.7h-1.5V10599.3z"/>
			<path id="Tracé_2546" class="st2" d="M21546.5,10566.3h-5.7c0,0,4,4,5.9,5.9c0.6,0.6,1.5,1,2.3,1h2.4c0.3,0,0.6-0.2,0.7-0.5
				c0.1-0.3,0.1-0.7-0.2-0.9L21546.5,10566.3z"/>
			<path id="Tracé_2547" class="st2" d="M21535.2,10566.3h-5.7c0,0,4,4,5.9,5.9c0.6,0.6,1.5,1,2.3,1h2.4c0.3,0,0.6-0.2,0.8-0.5
				c0.1-0.3,0.1-0.7-0.2-0.9C21538.7,10569.8,21535.2,10566.3,21535.2,10566.3L21535.2,10566.3z"/>
			<path id="Tracé_2548" class="st1" d="M21496.3,10675.6h31.9c1.2,0,2.2,1,2.2,2.2v73.5c0,1.2-1,2.2-2.2,2.2h-31.9
				c-1.2,0-2.2-1-2.2-2.2v-73.5C21494.1,10676.6,21495.1,10675.6,21496.3,10675.6z"/>
			<path id="Tracé_2549" class="st3" d="M21512.7,10747.6c-0.5,0-0.9-0.4-0.9-0.9l0,0v-64.6c0-0.5,0.4-0.9,0.9-0.9
				c0.5,0,0.9,0.4,0.9,0.9v64.6C21513.6,10747.2,21513.2,10747.6,21512.7,10747.6L21512.7,10747.6L21512.7,10747.6z"/>
			<ellipse id="Ellipse_247" class="st3" cx="21506.5" cy="10687.4" rx="1.7" ry="1.7"/>
			<ellipse id="Ellipse_248" class="st3" cx="21506.5" cy="10718.7" rx="1.7" ry="1.7"/>
			<path id="Tracé_2550" class="st3" d="M21506.2,10728.3c0.9,0,1.7,0.8,1.7,1.7c0,0.9-0.8,1.7-1.7,1.7c-0.9,0-1.7-0.8-1.7-1.7
				C21504.5,10729,21505.3,10728.3,21506.2,10728.3L21506.2,10728.3z"/>
			<path id="Tracé_2551" class="st3" d="M21521.7,10723.2c-0.5,0-0.9-0.4-0.9-0.9l0,0v-18.6h-7.3c-0.5,0-0.9-0.4-0.9-0.8
				c0-0.5,0.4-0.9,0.8-0.9c0,0,0,0,0.1,0h8.1c0.5,0,0.9,0.4,0.9,0.9l0,0v19.4C21522.6,10722.8,21522.2,10723.2,21521.7,10723.2z"/>
			<path id="Tracé_2552" class="st3" d="M21506.4,10640.2h-11.4c-0.4,0-0.7-0.3-0.8-0.7c0-0.4,0.3-0.7,0.7-0.8c0,0,0,0,0.1,0h11.4
				c0.8,0,1.4-0.6,1.4-1.4v-6.5c0-0.5-0.2-1-0.6-1.4l-5.9-5.8l1-1l5.9,5.8c0.7,0.7,1,1.5,1,2.5v6.5
				C21509.3,10639,21508,10640.2,21506.4,10640.2L21506.4,10640.2z"/>
			<path id="Tracé_2553" class="st3" d="M21500.8,10633.5h14.4c1,0,1.7,0.8,1.7,1.7c0,0,0,0,0,0v7.1c0,1-0.8,1.7-1.7,1.7l0,0h-14.4
				c-1,0-1.7-0.8-1.7-1.7l0,0v-7.1C21499.1,10634.3,21499.9,10633.5,21500.8,10633.5z"/>
			<path id="Tracé_2554" class="st2" d="M21514,10636.4h-11.8c-0.2,0-0.4-0.2-0.4-0.4s0.2-0.4,0.4-0.4h11.8c0.2,0,0.4,0.2,0.4,0.4
				S21514.2,10636.4,21514,10636.4L21514,10636.4z"/>
			<path id="Tracé_2555" class="st2" d="M21514,10639.3h-5.8c-0.2,0-0.4-0.2-0.4-0.4s0.2-0.4,0.4-0.4h5.8c0.2,0,0.4,0.2,0.4,0.4
				S21514.2,10639.3,21514,10639.3z"/>
			<path id="Tracé_2556" class="st2" d="M21514,10642.1h-5.8c-0.2,0-0.4-0.2-0.4-0.4c0-0.2,0.2-0.4,0.4-0.4h5.8
				c0.2,0,0.4,0.2,0.4,0.4C21514.4,10641.9,21514.2,10642.1,21514,10642.1z"/>
			<path id="Tracé_2557" class="st2" d="M21503.9,10639.1c0.9,0,1.7,0.8,1.7,1.7l0,0v0.6c0,0.5-0.4,0.9-0.9,0.9l0,0h-1.7
				c-0.5,0-0.9-0.4-0.9-0.9l0,0v-0.6C21502.2,10639.9,21502.9,10639.1,21503.9,10639.1z"/>
			<ellipse id="Ellipse_249" class="st2" cx="21503.9" cy="10638.5" rx="1.2" ry="1.2"/>
			<ellipse id="Ellipse_250" class="st3" cx="21533.1" cy="10639.2" rx="1.7" ry="1.7"/>
			<ellipse id="Ellipse_251" class="st3" cx="21524.8" cy="10639.2" rx="1.7" ry="1.7"/>
			<path id="Tracé_2558" class="st0" d="M21586.9,10676.8l-21-34.1c-0.5-0.9-1.5-1.2-2.4-0.8l-3.1,1.9c-0.8,0.6-1,1.7-0.4,2.5
				l21,34.1c0.2,0.3,0.3,0.5,0.6,0.7c1.3-2,3.4-3.2,5.7-3.5C21587.2,10677.3,21587,10677,21586.9,10676.8L21586.9,10676.8z"/>
			<path id="Tracé_2559" class="st2" d="M21587.2,10677.6c-2.4,0.1-4.5,1.4-5.7,3.5c0.2,0.1,0.3,0.3,0.5,0.4l5.6,4.3
				c0.3,0.2,0.7,0.2,0.9-0.1c0.1-0.1,0.2-0.3,0.1-0.5l-1.3-6.9C21587.4,10678,21587.3,10677.8,21587.2,10677.6L21587.2,10677.6z"/>
			<path id="Tracé_2560" class="st2" d="M21543.7,10692.8h27.2l19.4-39.3h-29.9c-1.1,0-2,0.6-2.5,1.5l-16.6,33.8
				c-0.7,1.4-0.1,3,1.3,3.7C21542.8,10692.7,21543.3,10692.8,21543.7,10692.8L21543.7,10692.8z"/>
			<path id="Tracé_2561" class="st0" d="M21568.3,10692.8h27.8c1.1,0,2-0.6,2.5-1.5l16.6-33.8c0.7-1.4,0.1-3-1.3-3.7
				c-0.4-0.2-0.8-0.3-1.2-0.3h-25.1L21568.3,10692.8z"/>
			<path id="Tracé_2562" class="st3" d="M21608.3,10661.9h-17.3c-0.5,0-0.9-0.4-0.9-0.8s0.4-0.9,0.8-0.9c0,0,0,0,0.1,0h17.3
				c0.5,0,0.9,0.4,0.9,0.8C21609.2,10661.5,21608.8,10661.9,21608.3,10661.9C21608.3,10661.9,21608.3,10661.9,21608.3,10661.9
				L21608.3,10661.9z"/>
			<path id="Tracé_2563" class="st3" d="M21604.7,10667.9h-17.3c-0.5,0-0.9-0.4-0.9-0.8c0-0.5,0.4-0.9,0.8-0.9c0,0,0,0,0.1,0h17.3
				c0.5,0,0.9,0.4,0.9,0.8C21605.6,10667.5,21605.2,10667.9,21604.7,10667.9C21604.7,10667.9,21604.7,10667.9,21604.7,10667.9
				L21604.7,10667.9z"/>
			<path id="Tracé_2564" class="st3" d="M21601.9,10673.9h-17.3c-0.5,0-0.9-0.4-0.9-0.8s0.4-0.9,0.8-0.9c0,0,0,0,0.1,0h17.3
				c0.5,0,0.9,0.4,0.9,0.8C21602.8,10673.5,21602.4,10673.9,21601.9,10673.9C21601.9,10673.9,21601.9,10673.9,21601.9,10673.9z"/>
			<path id="Tracé_2565" class="st2" d="M21550.9,10677.5c0-2.1-1.7-3.7-3.8-3.7h-48c-0.1,0-0.2,0-0.3,0l-0.3,0
				c-1.4-0.1-2.7-0.5-3.9-1.3c-1.2-0.8-2.3-1.9-3.1-3.2c-0.8-1.3-1.4-2.8-1.7-4.3l-0.2-1.2l-0.1-1.2v-27.3c0-2.1-1.7-3.7-3.7-3.7
				c-2.1,0-3.7,1.7-3.7,3.7l0,0v27.3l0.1,1.8c0.1,0.6,0.2,1.2,0.2,1.8c0.4,2.5,1.4,4.8,2.7,7c1.4,2.2,3.2,4,5.4,5.5
				c2.3,1.5,4.9,2.3,7.5,2.4l0.5,0c0.2,0,0.4,0,0.5,0h48C21549.2,10681.2,21550.9,10679.5,21550.9,10677.5L21550.9,10677.5z"/>
			<path id="Tracé_2566" class="st0" d="M21540.1,10681.2h-3.8v-7.5h3.8V10681.2z M21528.6,10681.2h-3.8v-7.5h3.8V10681.2z
				 M21517.1,10681.2h-3.8v-7.5h3.8V10681.2z M21505.7,10681.2h-3.8v-7.5h3.8L21505.7,10681.2z M21492.9,10679.9l-0.6-0.2l-0.6-0.3
				c-0.4-0.2-0.7-0.4-1.1-0.6l-1-0.7c-0.3-0.2-0.6-0.5-1-0.8l4.9-5.6c0.2,0.2,0.3,0.3,0.5,0.4l0.6,0.4c0.2,0.1,0.4,0.2,0.6,0.3
				l0.3,0.2l0.3,0.1L21492.9,10679.9z M21483.4,10669.4c-0.3-0.7-0.5-1.5-0.6-2.2c-0.1-0.4-0.2-0.8-0.2-1.1l-0.2-1.1l7.4-0.8
				l0.1,0.7c0,0.2,0.1,0.5,0.2,0.7c0.1,0.5,0.2,0.9,0.4,1.4L21483.4,10669.4z M21482.2,10656.9v-3.8h7.5v3.8H21482.2z
				 M21482.2,10645.4v-3.8h7.5v3.8H21482.2z"/>
			<path id="Tracé_2567" class="st1" d="M21550.7,10672.2c-1.2-1-1.4-2.7-0.4-3.9c0,0,0,0,0,0l0,0l6.8-8.3c1-1.2,2.7-1.4,3.9-0.4
				c1.2,0.9,1.4,2.7,0.4,3.8l0,0.1l-6.8,8.3C21553.7,10673,21551.9,10673.1,21550.7,10672.2L21550.7,10672.2z"/>
			<path id="Tracé_2568" class="st0" d="M21555.5,10662l1.2-1.4l4.3,3.5l-1.2,1.4L21555.5,10662z"/>
			<path id="Tracé_2569" class="st0" d="M21551.3,10667.1l1.2-1.4l4.3,3.5l-1.2,1.4L21551.3,10667.1z"/>
			<path id="Tracé_2570" class="st1" d="M21550.3,10677c0-1.2,1-2.2,2.2-2.2h22.9c1.2,0,2.2,1,2.2,2.2s-1,2.2-2.2,2.2l0,0h-22.9
				C21551.3,10679.2,21550.3,10678.2,21550.3,10677L21550.3,10677z"/>
			<path id="Tracé_2571" class="st0" d="M21573.8,10674.8h1.5v4.4h-1.5V10674.8z"/>
			<path id="Tracé_2572" class="st0" d="M21568,10674.8h1.5v4.4h-1.5V10674.8z"/>
			<path id="Tracé_2573" class="st1" d="M21550.3,10683.8c0-1.2,1-2.2,2.2-2.2h22.9c1.2,0,2.2,1,2.2,2.2c0,1.2-1,2.2-2.2,2.2h-22.9
				C21551.3,10686,21550.3,10685,21550.3,10683.8L21550.3,10683.8z"/>
			<path id="Tracé_2574" class="st0" d="M21573.8,10681.6h1.5v4.4h-1.5V10681.6z"/>
			<path id="Tracé_2575" class="st0" d="M21568,10681.6h1.5v4.4h-1.5V10681.6z"/>
			<ellipse id="Ellipse_252" class="st0" cx="21553.4" cy="10677" rx="10.3" ry="10.2"/>
			<path id="Tracé_2576" class="st1" d="M21558.8,10670.2c0-1.2,1-2.2,2.2-2.2h14.4c1.2,0,2.2,1,2.2,2.2s-1,2.2-2.2,2.2h-14.4
				C21559.8,10672.4,21558.8,10671.5,21558.8,10670.2C21558.8,10670.3,21558.8,10670.3,21558.8,10670.2
				C21558.8,10670.2,21558.8,10670.2,21558.8,10670.2z"/>
			<path id="Tracé_2577" class="st0" d="M21573.8,10668h1.5v4.4h-1.5V10668z"/>
			<path id="Tracé_2578" class="st0" d="M21568,10668h1.5v4.4h-1.5V10668z"/>
			<path id="Tracé_2579" class="st1" d="M21565.8,10668v18h-7.5v-18H21565.8z"/>
			<path id="Tracé_2580" class="st0" d="M21561.3,10668h1.5v18h-1.5V10668z"/>
			<path id="Tracé_2581" class="st0" d="M21561.3,10668h1.5v18h-1.5V10668z"/>
			<path id="Tracé_2582" class="st0" d="M21538.7,10589.1h-1v-2.6h1c0.4,0,0.8-0.3,0.8-0.7c0-0.4-0.3-0.7-0.7-0.8c0,0,0,0-0.1,0
				h-5.3c-0.4,0-0.7,0.3-0.8,0.7c0,0.4,0.3,0.7,0.7,0.8c0,0,0,0,0.1,0h1v2.6h-1c-0.4,0-0.7,0.3-0.8,0.7c0,0.4,0.3,0.7,0.7,0.8
				c0,0,0,0,0.1,0h5.3c0.4,0,0.7-0.3,0.7-0.7c0,0,0,0,0,0s0,0,0,0C21539.5,10589.4,21539.2,10589.1,21538.7,10589.1L21538.7,10589.1
				C21538.8,10589.1,21538.8,10589.1,21538.7,10589.1L21538.7,10589.1z"/>
			<path id="Tracé_2583" class="st0" d="M21559.5,10589.1h-1v-2.6h1c0.4,0,0.8-0.3,0.8-0.7c0-0.4-0.3-0.7-0.7-0.8c0,0,0,0-0.1,0
				h-5.3c-0.4,0-0.8,0.3-0.8,0.7c0,0.4,0.3,0.7,0.7,0.8c0,0,0,0,0.1,0h1v2.6h-1c-0.4,0-0.8,0.3-0.8,0.7c0,0.4,0.3,0.7,0.7,0.8
				c0,0,0,0,0.1,0h5.3c0.4,0,0.7-0.3,0.7-0.7c0,0,0,0,0,0s0,0,0,0C21560.2,10589.4,21559.9,10589.1,21559.5,10589.1L21559.5,10589.1
				C21559.5,10589.1,21559.5,10589.1,21559.5,10589.1L21559.5,10589.1z"/>
			<path id="Tracé_2584" class="st0" d="M21551.1,10595.3h-9.5c-0.5,0-0.9-0.4-0.9-0.8c0-0.5,0.4-0.9,0.8-0.9c0,0,0,0,0.1,0h9.5
				c0.5,0,0.9,0.4,0.9,0.8S21551.6,10595.3,21551.1,10595.3C21551.1,10595.3,21551.1,10595.3,21551.1,10595.3z"/>
			<path id="Tracé_2585" class="st1" d="M21517.7,10504.9c0.1-1.7,0.3-3,0.3-3c0-0.5,0.4-1,0.9-1c0.5,0,1,0.4,1,0.9c0,0,0,0,0,0.1
				c0,0,0.2,1.3,0.3,3c0.3,0,0.6,0.1,0.9,0.1c1.2,0.1,2.1,0.2,2.1,0.2c0.5,0,1,0.4,1,0.9c0,0.5-0.4,1-0.9,1c0,0,0,0-0.1,0
				c0,0-0.9,0.1-2.1,0.2c-0.3,0-0.5,0.1-0.9,0.1c0,0.3-0.1,0.6-0.1,0.9c-0.1,1.2-0.2,2.1-0.2,2.1c0,0.5-0.5,0.9-1,0.9
				c-0.5,0-0.9-0.4-0.9-0.9c0,0-0.1-0.9-0.2-2.1c0-0.3-0.1-0.6-0.1-0.9c-1.6-0.1-3-0.3-3-0.3c-0.5,0-1-0.4-1-0.9c0-0.5,0.4-1,0.9-1
				c0,0,0,0,0.1,0C21515.7,10505.1,21516.7,10505,21517.7,10504.9L21517.7,10504.9z"/>
			<path id="Tracé_2586" class="st1" d="M21570.1,10717.9c0.1-1.7,0.3-3,0.3-3c0-0.5,0.5-0.9,1-0.9c0.5,0,0.9,0.4,0.9,0.9
				c0,0,0.2,1.3,0.3,3c0.3,0,0.6,0.1,0.9,0.1c1.2,0.1,2.1,0.2,2.1,0.2c0.5,0,0.9,0.5,0.9,1c0,0.5-0.4,0.9-0.9,0.9
				c0,0-0.9,0.1-2.1,0.2c-0.3,0-0.5,0.1-0.9,0.1c0,0.3-0.1,0.6-0.1,0.9c-0.1,1.2-0.2,2.1-0.2,2.1c0,0.5-0.4,1-0.9,1
				c-0.5,0-1-0.4-1-0.9c0,0,0,0,0-0.1c0,0-0.1-0.9-0.2-2.1c0-0.3-0.1-0.6-0.1-0.9c-1.6-0.1-3-0.3-3-0.3c-0.5,0-0.9-0.5-0.9-1
				c0-0.5,0.4-0.9,0.9-0.9C21568.1,10718.1,21569.1,10718,21570.1,10717.9L21570.1,10717.9z"/>
			<path id="Tracé_2587" class="st1" d="M21546.9,10765.5c0.1-1.1,0.2-1.9,0.2-1.9c0-0.3,0.3-0.6,0.6-0.6c0.3,0,0.6,0.3,0.6,0.6
				c0,0,0.1,0.8,0.2,1.9c0.2,0,0.4,0,0.5,0c0.8,0,1.3,0.1,1.3,0.1c0.3,0,0.6,0.2,0.6,0.6c0,0.3-0.2,0.6-0.6,0.6c0,0,0,0,0,0
				c0,0-0.5,0.1-1.3,0.1c-0.2,0-0.3,0-0.5,0c0,0.2,0,0.4,0,0.5c0,0.8-0.1,1.3-0.1,1.3c0,0.3-0.3,0.6-0.6,0.6c-0.3,0-0.6-0.3-0.6-0.6
				c0,0-0.1-0.5-0.1-1.3c0-0.2,0-0.4,0-0.5c-1-0.1-1.9-0.2-1.9-0.2c-0.3,0-0.6-0.2-0.6-0.6c0-0.3,0.2-0.6,0.6-0.6c0,0,0,0,0,0
				C21545.6,10765.6,21546.3,10765.5,21546.9,10765.5z"/>
			<path id="Tracé_2588" class="st1" d="M21479.6,10731c0.1-1.1,0.2-1.8,0.2-1.8c0-0.3,0.3-0.6,0.6-0.6c0.3,0,0.6,0.3,0.6,0.6
				c0,0,0.1,0.8,0.2,1.8c0.2,0,0.4,0,0.5,0c0.8,0,1.3,0.1,1.3,0.1c0.3,0,0.6,0.2,0.6,0.6c0,0.3-0.2,0.6-0.6,0.6c0,0,0,0,0,0
				c0,0-0.5,0.1-1.3,0.1c-0.2,0-0.3,0-0.5,0c0,0.2,0,0.4,0,0.5c0,0.8-0.1,1.3-0.1,1.3c0,0.3-0.3,0.6-0.6,0.6c-0.3,0-0.6-0.3-0.6-0.6
				c0,0-0.1-0.5-0.1-1.3c0-0.2,0-0.4,0-0.5c-1-0.1-1.8-0.2-1.8-0.2c-0.3,0-0.6-0.2-0.6-0.6c0-0.3,0.2-0.6,0.6-0.6c0,0,0,0,0,0
				C21478.3,10731,21478.9,10731,21479.6,10731z"/>
			<path id="Tracé_2589" class="st1" d="M21486,10607.4c0.1-1.1,0.2-1.8,0.2-1.8c0-0.3,0.3-0.6,0.6-0.6c0.3,0,0.6,0.3,0.6,0.6
				c0,0,0.1,0.8,0.2,1.8c0.2,0,0.4,0,0.5,0c0.8,0,1.3,0.1,1.3,0.1c0.3,0,0.6,0.3,0.6,0.6c0,0.3-0.3,0.6-0.6,0.6c0,0-0.5,0.1-1.3,0.1
				c-0.2,0-0.3,0-0.5,0c0,0.2,0,0.4,0,0.5c0,0.8-0.1,1.3-0.1,1.3c0,0.3-0.3,0.6-0.6,0.6c-0.3,0-0.6-0.3-0.6-0.6c0,0-0.1-0.5-0.1-1.3
				c0-0.2,0-0.4,0-0.5c-1-0.1-1.8-0.2-1.8-0.2c-0.3,0-0.6-0.3-0.6-0.6c0-0.3,0.3-0.6,0.6-0.6
				C21484.7,10607.5,21485.3,10607.4,21486,10607.4z"/>
			<path id="Tracé_2590" class="st1" d="M21479.6,10543.9c0.1-1.1,0.2-1.9,0.2-1.9c0-0.3,0.3-0.6,0.6-0.6c0.3,0,0.6,0.3,0.6,0.6
				c0,0,0.1,0.8,0.2,1.9c0.2,0,0.4,0,0.5,0c0.8,0,1.3,0.1,1.3,0.1c0.3,0,0.6,0.3,0.6,0.6c0,0.3-0.3,0.6-0.6,0.6c0,0-0.5,0.1-1.3,0.1
				c-0.2,0-0.3,0-0.5,0c0,0.2,0,0.4,0,0.5c0,0.8-0.1,1.3-0.1,1.3c0,0.3-0.3,0.6-0.6,0.6c-0.3,0-0.6-0.3-0.6-0.6c0,0-0.1-0.5-0.1-1.3
				c0-0.2,0-0.4,0-0.5c-1-0.1-1.8-0.2-1.8-0.2c-0.3,0-0.6-0.3-0.6-0.6c0-0.3,0.3-0.6,0.6-0.6
				C21478.3,10544,21478.9,10544,21479.6,10543.9z"/>
			<path id="Tracé_2591" class="st1" d="M21574.1,10627c0.1-1.1,0.2-1.9,0.2-1.9c0-0.3,0.3-0.6,0.6-0.6c0.3,0,0.6,0.3,0.6,0.6
				c0,0,0.1,0.8,0.2,1.9c0.2,0,0.4,0,0.5,0c0.8,0,1.3,0.1,1.3,0.1c0.3,0,0.6,0.2,0.6,0.6c0,0.3-0.2,0.6-0.6,0.6c0,0,0,0,0,0
				c0,0-0.5,0.1-1.3,0.1c-0.2,0-0.3,0-0.5,0c0,0.2,0,0.4,0,0.5c0,0.8-0.1,1.3-0.1,1.3c0,0.3-0.3,0.6-0.6,0.6c-0.3,0-0.6-0.3-0.6-0.6
				c0,0-0.1-0.5-0.1-1.3c0-0.2,0-0.4,0-0.5c-1-0.1-1.8-0.2-1.8-0.2c-0.3,0-0.6-0.2-0.6-0.6s0.2-0.6,0.6-0.6c0,0,0,0,0,0
				C21572.9,10627.1,21573.5,10627,21574.1,10627z"/>
			<path id="Tracé_2592" class="st5" d="M21743.7,10581.5h25c0.4,0,0.8-0.4,0.8-0.8c0,0,0,0,0,0v-3.7c0-0.4-0.4-0.8-0.8-0.8
				c0,0,0,0,0,0h-25c-0.4,0-0.8,0.4-0.8,0.8c0,0,0,0,0,0v3.7C21742.9,10581.1,21743.3,10581.5,21743.7,10581.5z M21767.9,10579.8
				h-23.3v-2.1h23.3V10579.8z"/>
			<path id="Tracé_2593" class="st5" d="M21743.7,10618.2h25c0.4,0,0.8-0.4,0.8-0.8c0,0,0,0,0,0v-3.7c0-0.4-0.4-0.8-0.8-0.8
				c0,0,0,0,0,0h-25c-0.4,0-0.8,0.4-0.8,0.8c0,0,0,0,0,0v3.7C21742.9,10617.8,21743.3,10618.2,21743.7,10618.2z M21767.9,10616.6
				h-23.3v-2.1h23.3V10616.6z"/>
			<path id="Tracé_2594" class="st5" d="M21745.7,10614.5h21.1c0.4,0,0.8-0.4,0.8-0.8c0,0,0,0,0,0v-3.9c0-4-2.2-7.8-5.7-9.8
				c-1-0.5-1.7-1.5-1.8-2.7c0-1.3,0.7-2.4,1.8-3c3.5-2,5.6-5.7,5.7-9.8v-3.9c0-0.4-0.4-0.8-0.8-0.8c0,0,0,0,0,0h-21.1
				c-0.4,0-0.8,0.4-0.8,0.8c0,0,0,0,0,0v3.9c0,4.1,2.2,7.8,5.8,9.8c1,0.6,1.7,1.7,1.7,2.9c0,1.1-0.7,2.1-1.6,2.7
				c-3.6,2-5.8,5.8-5.8,9.9v3.9C21744.8,10614.1,21745.2,10614.5,21745.7,10614.5C21745.7,10614.5,21745.7,10614.5,21745.7,10614.5z
				 M21765.9,10612.8h-19.4v-3.1c0-3.5,1.9-6.8,5-8.5c0,0,0,0,0,0c0,0,0,0,0,0c1.4-0.8,2.3-2.3,2.4-4c0-1.8-1-3.4-2.4-4.3
				c0,0,0,0,0,0c0,0,0,0,0,0c-3-1.7-4.9-4.9-4.9-8.4v-3.1h19.4v3.1c0,3.5-1.9,6.6-4.8,8.4h0c-1.6,0.9-2.6,2.6-2.6,4.5
				c0.1,1.7,1.1,3.3,2.6,4.1c3,1.7,4.8,4.9,4.8,8.4L21765.9,10612.8L21765.9,10612.8z"/>
			<path id="Tracé_2595" class="st0" d="M21763.5,10609.8c0-0.3-0.1-0.5-0.3-0.7c-0.2-0.2-0.5-0.3-0.7-0.3h-12.6
				c-0.3,0-0.5,0.1-0.7,0.3c-0.2,0.2-0.3,0.4-0.3,0.7l0,0c0,0.6,0.5,1.2,1.2,1.2h12.3C21763,10611,21763.5,10610.4,21763.5,10609.8
				C21763.5,10609.8,21763.5,10609.8,21763.5,10609.8L21763.5,10609.8z"/>
			<path id="Tracé_2596" class="st0" d="M21756.2,10602.4c0.4,0,0.8-0.4,0.8-0.8c0,0,0,0,0,0v-0.8c0-0.5-0.4-0.8-0.8-0.8
				c-0.4,0-0.8,0.4-0.8,0.8v0.8C21755.4,10602.1,21755.8,10602.4,21756.2,10602.4C21756.2,10602.4,21756.2,10602.4,21756.2,10602.4z
				"/>
			<path id="Tracé_2597" class="st0" d="M21761,10590c1.5-1,2.4-2.6,2.4-4.4v-1c0-0.6-0.5-1.2-1.2-1.2h-12.3
				c-0.6,0-1.2,0.5-1.2,1.2v1c0.1,1.8,1,3.4,2.4,4.4c0,0,0.1,0,0.1,0l0,0c0,0,0.1,0,0.1,0.1c2,1.4,3.6,2.9,3.6,4.2l0,0v1.8
				c0,0.6,0.5,1,1,1c0.6,0,1-0.4,1-1c0,0,0,0,0,0v-1.8c0-1.3,1.6-2.8,3.6-4.2C21760.9,10590.2,21760.9,10590.2,21761,10590
				L21761,10590C21761,10590.1,21761,10590.1,21761,10590L21761,10590z"/>
		</g>
	</g>
	<g id="TEXTES_GB">
	</g>
</g>
</svg>
