<?xml version="1.0" encoding="UTF-8"?>
<svg id="ILLUSTRATIONS" xmlns="http://www.w3.org/2000/svg" width="29.0779991" height="29.0779992" viewBox="0 0 29.0779991 29.0779992">
  <g id="SEE_ON_STORE_ICON" data-name="SEE ON STORE ICON">
    <g id="Groupe_2446" data-name="Groupe 2446">
      <path id="Tracé_4539" data-name="Tracé 4539" d="m14.54,0C6.5103321-.0005525.0005525,6.5083313,0,14.5379992c0,.0003338,0,.0006666,0,.0010004H0C0,22.5686665,6.5093317,29.0779992,14.5389996,29.0779992s14.5389996-6.5093327,14.5389996-14.5389996C29.0779991,6.5097223,22.5692768.0005525,14.54,0m-.1230001,6.552h.2460003c1.2476082-.0027657,2.2612362,1.0063782,2.2640018,2.2539864.0000095.0036716.0000076.0073423-.0000019.011014v3.3359995h3.3369999c1.2481613-.0027637,2.2622356,1.0068293,2.2649994,2.2549896.0000076.0033369.0000076.0066738,0,.0100107v.2449999c.0022106,1.2492666-1.008728,2.2637882-2.2579937,2.2659988-.0023346.0000038-.0046711.0000057-.0070057.0000019h-3.3369999v3.3339996c.0033169,1.2481594-1.0058289,2.2626801-2.2539873,2.2659969-.0033379.0000076-.0066748.0000095-.0100126.0000038h-.2460003c-1.2487135.0022125-2.2627897-1.008276-2.2650023-2.2569904-.0000057-.0030041-.0000048-.0060062.0000019-.0090103v-3.3339996h-3.3359995c-1.2481618.0022144-2.2617908-1.0078268-2.2640042-2.2559881-.0000062-.0033379-.0000048-.0066748.0000043-.0100117v-.2449999c-.0033169-1.2476072,1.0053792-2.2616806,2.252986-2.2649975.0036716-.0000105.0073423-.0000114.011014-.0000029h3.3369999v-3.3370008c-.0027647-1.2481604,1.0068283-2.2622356,2.2549887-2.2650003.0033369-.0000076.0066748-.0000076.0100117,0" style="fill: #272f60;"/>
    </g>
  </g>
  <path d="m20.2640618,12.1530295h-3.3371582v-3.3470459c-.0026855-1.2475586-1.0163574-2.2568359-2.263916-2.2539062h-.2458496l.0009766-.0010986h-.0102539c-1.2480469.0028076-2.2575684,1.0168457-2.2548828,2.2650146v3.3370361h-3.3369141c-.0036621-.0001221-.0073242-.0001221-.0109863,0-1.2478027.0032959-2.2563477,1.017334-2.2531738,2.2650146v.2548828c.0024414,1.248291,1.0158691,2.2583008,2.2641602,2.2561035h3.3359375v3.3430176c.0021973,1.2486572,1.0163574,2.2591553,2.2651367,2.256958h.2558594c1.2480469-.0032959,2.2573242-1.0178223,2.2539062-2.2659912v-3.3339844h3.3442383c1.2490234-.0021973,2.2600098-1.0168457,2.2578125-2.2661133v-.2548828c-.0026855-1.248291-1.0168457-2.2578125-2.2648926-2.2550049Z" style="fill: #fff;"/>
</svg>