<?xml version="1.0" encoding="utf-8"?>
<!-- Generator: Adobe Illustrator 26.2.1, SVG Export Plug-In . SVG Version: 6.00 Build 0)  -->
<svg version="1.1" id="Calque_1" xmlns="http://www.w3.org/2000/svg" xmlns:xlink="http://www.w3.org/1999/xlink" x="0px" y="0px"
	 viewBox="0 0 110 110" style="enable-background:new 0 0 110 110;" xml:space="preserve">
<style type="text/css">
	.st0{fill:#FFF5F7;}
	.st1{fill:#FFBCC6;}
	.st2{fill:#272E5F;}
	.st3{fill:#FD657C;}
	.st4{fill:#FFFFFF;}
	.st5{fill:none;}
</style>
<g id="FONDS">
</g>
<g id="ILLUSTRATIONS">
	<g>
		<g id="cyborg-id-3-5" transform="translate(552)">
			<path id="Tracé_1071-5" class="st0" d="M-443.5718689,54.9158287
				c-0.0132751,29.5009422-23.9251709,53.4128685-53.4261169,53.426136c-1.0689697,0-2.1369019-0.0330505-3.1888123-0.100174
				c-29.4526672-1.7622299-51.900177-27.0669022-50.13797-56.5195618
				c1.7622681-29.4526634,27.0668945-51.9001923,56.5195618-50.1379623
				c28.2163391,1.6882564,50.234314,25.0637875,50.2333374,53.3305626V54.9158287z"/>
			<path id="Tracé_1072-5" class="st1" d="M-500.1878052,65.5191116v42.724678
				c-4.8556213-0.281044-9.6495056-1.2286224-14.2468872-2.8161163V65.5191116
				c-0.0466309-3.9341736,3.1048279-7.1612701,7.0390015-7.2079086c3.9341736-0.0466461,7.1612549,3.1048203,7.2078857,7.0389862
				C-500.1871338,65.4064941-500.1871338,65.4628067-500.1878052,65.5191116z"/>
			<g id="Groupe_317-5">
				<path id="Tracé_1073-5" class="st2" d="M-497-0.0000146c-30.3756714,0-55,24.6243401-55,55s24.6243286,55,55,55
					s55-24.6243362,55-55l0,0C-442.0126953,24.6295929-466.6296082,0.0126991-497-0.0000146z M-497,106.6869507
					c-28.5913086,0-51.769104-23.1778183-51.769104-51.7691154S-525.5913086,3.1487098-497,3.1487069
					c28.5912781-0.0000026,51.769104,23.1778202,51.7691345,51.7691154c0,0.0000038,0,0.0000038,0,0.0000076
					C-445.241394,83.5047684-468.4130554,106.676445-497,106.6869507z"/>
				<path id="Tracé_1074-5" class="st2" d="M-514.449707,89.8152847v5.7985382h14.2468872v-5.7985382H-514.449707z"/>
				<path id="Tracé_1075-5" class="st2" d="M-514.449707,101.4123688v5.7985458h14.2468872v-5.7985458H-514.449707z"/>
				<path id="Tracé_1076-5" class="st2" d="M-459.9897156,47.6055412v-5.8756866
					c0.0021362-0.9367676-0.3650208-1.8366356-1.0218506-2.5045547l-4.8548279-4.8548279
					c-0.6678467-0.6569252-1.567749-1.0240898-2.5045471-1.0218582h-61.8283997
					c-1.9752808-0.0005531-3.5769653,1.6002541-3.5775146,3.5755043c0,0.0003357,0,0.0006676,0,0.0010033v31.0173912
					c0.0054932,1.9729614,1.6035156,3.5709991,3.5764771,3.5765076h7.0528564
					c0.9367676-0.0021286,1.8366089,0.3650208,2.5045166,1.0218506l12.11203,12.1100235
					c0.6678772,0.656929,1.5677795,1.024086,2.5045776,1.0218582h39.2403259
					c1.9729614-0.0055084,3.5710144-1.6035461,3.5765076-3.5765076v-5.6202164L-459.9897156,47.6055412z"/>
			</g>
			<path id="Tracé_1077-5" class="st3" d="M-504.2461853,47.6055412v19.826046l10.6794128,10.6794205h-6.1271362
				c-0.5004883-0.0005035-0.9795227-0.203186-1.3283997-0.5620193l-9.6064758-9.6064682
				c-0.3588257-0.348877-0.5615234-0.8279266-0.5620117-1.3284073V49.446888
				c-0.0027771-1.0418434,0.8395691-1.8886719,1.8814087-1.8914413c0.0033264-0.0000076,0.0066833-0.0000076,0.0100098,0
				c2.0447388,0.0520935,5.0592041,0.0520935,5.0592041,0.0520935L-504.2461853,47.6055412z"/>
			<path id="Tracé_1078-5" class="st1" d="M-456.3591003,47.6055374c1.1441345-0.0127983,2.0820007,0.9043274,2.0947876,2.0484657
				c0.0001831,0.0154457,0.0001831,0.0308952,0,0.0463448v16.8115692c0.0055542,0.5567017-0.2157898,1.0916748-0.6130981,1.4816895
				l-9.4562073,9.4531937c-0.389801,0.397583-0.9248962,0.6190033-1.4816895,0.6131134h-28.7683105
				c-0.4208984,0.0021591-0.8253479-0.1632919-1.1240234-0.4598389l-9.4020996-9.4020996
				c-0.515564-0.5156021-0.80896-1.2124329-0.8175049-1.9415283V49.1904221
				c-0.0077515-0.8669739,0.6887512-1.5760918,1.5557251-1.5838585c0.0083923-0.0000725,0.0167847-0.0000801,0.025177-0.0000229
				L-456.3591003,47.6055374z"/>
			<path id="Tracé_1079-5" class="st4" d="M-500.204834,66.5119171c-0.267334-0.2723007-0.4145508-0.6402969-0.4087524-1.0218582
				V53.4822197c-0.0016479-0.7884331,0.6361694-1.4289398,1.4245911-1.4305992c0.0020142-0.0000038,0.0040283-0.0000038,0.006012,0
				h38.7845154c0.7884521-0.0016632,1.4289551,0.6361427,1.430603,1.4245758c0.0000305,0.0020103,0.0000305,0.0040131,0,0.0060234
				v12.0078316c-0.0036926,0.3797455-0.1495056,0.7443237-0.4087219,1.0218582l-6.7452698,6.7452621
				c-0.2723083,0.2673492-0.6402893,0.4145432-1.0218506,0.4087448h-25.2919922
				c-0.3815918,0.0060196-0.7496948-0.1412048-1.0218506-0.4087448
				C-494.8400574,71.9287643-498.8753967,67.8403244-500.204834,66.5119171z"/>
			<circle id="Ellipse_86-5" class="st3" cx="-522.204834" cy="62.4755745" r="2.4845066"/>
			<circle id="Ellipse_87-5" class="st3" cx="-522.204834" cy="50.3946114" r="2.4845066"/>
		</g>
		<path id="Tracé_4292" class="st2" d="M58.8089104,64.4551697c-2.9258003,0-5.2976303-2.3718262-5.2976303-5.2976303
			c0-2.9258003,2.37183-5.2976303,5.2976303-5.2976303s5.2976341,2.37183,5.2976341,5.2976303l0,0
			C64.1026764,62.0817413,61.7331123,64.4513092,58.8089104,64.4551697 M58.8089104,55.788414
			c-1.861824,0-3.3711281,1.5093079-3.3711281,3.3711319c0,1.8618202,1.509304,3.3711281,3.3711281,3.3711281
			s3.3711281-1.5093079,3.3711281-3.3711281l0,0C62.1778336,57.2986374,60.6698189,55.7906227,58.8089104,55.788414"/>
		<path id="Tracé_4293" class="st2" d="M85.6677551,64.312912c-2.9257965,0.0022202-5.2994232-2.3678169-5.3016357-5.2936172
			c-0.0022202-2.9258003,2.3678131-5.299427,5.2936096-5.3016434c2.9258041-0.0022125,5.2994308,2.3678207,5.301651,5.2936211
			c0,0.0013351,0,0.0026741,0,0.0040092c-0.0038605,2.924202-2.373436,5.2937698-5.2976379,5.2976303 M85.6637421,55.6441536
			c-1.861824,0-3.3711243,1.509304-3.3711319,3.3711281c0,1.8618202,1.5093002,3.3711281,3.3711243,3.3711281
			c1.8618317,0.0000038,3.3711395-1.509304,3.3711395-3.3711243c0-0.0000038,0-0.0000038,0-0.0000038
			C89.0332108,57.1541481,87.5248795,55.6458092,85.6637421,55.6441536"/>
		<path id="Tracé_4294" class="st2" d="M60.2094193,59.1575394c0,0.7978477-0.6467819,1.4446259-1.4446259,1.4446259
			c-0.7978477,0-1.4446259-0.6467781-1.4446259-1.4446259c0-0.7978439,0.6467781-1.4446259,1.4446259-1.4446259
			C59.5626373,57.7129135,60.2094193,58.3596954,60.2094193,59.1575394"/>
		<path id="Tracé_4295" class="st2" d="M86.9050293,59.1575394c0,0.6833153-0.5539398,1.2372513-1.2372513,1.2372513
			s-1.2372513-0.553936-1.2372513-1.2372513c0-0.6833115,0.5539398-1.2372475,1.2372513-1.2372475
			S86.9050293,58.4742279,86.9050293,59.1575394"/>
		<rect id="Rectangle_664" x="55.0000229" y="53.7156487" class="st5" width="27.71138" height="25.8900719"/>
		<ellipse id="Ellipse_335" class="st2" cx="73.4156113" cy="69.3858871" rx="4.5598984" ry="2.7252045"/>
	</g>
</g>
<g id="TEXTES_FR">
</g>
<g id="TEXTES_GB">
</g>
</svg>
