<?xml version="1.0" encoding="utf-8"?>
<!-- Generator: Adobe Illustrator 26.2.1, SVG Export Plug-In . SVG Version: 6.00 Build 0)  -->
<svg version="1.1" xmlns="http://www.w3.org/2000/svg" xmlns:xlink="http://www.w3.org/1999/xlink" x="0px" y="0px"
	 viewBox="0 0 284.9320068 277.3330078" style="enable-background:new 0 0 284.9320068 277.3330078;" xml:space="preserve">
<style type="text/css">
	.st0{fill:url(#FOND_00000048470910958287795160000016112082417279957438_);}
	.st1{fill:url(#FOND_00000083801540601885852540000014899753655858822804_);}
	.st2{fill:#FFF5F7;}
	.st3{fill:url(#FOND_00000164483194105343250310000012282650992223508135_);}
	.st4{fill:url(#FOND_00000182520625227037709070000014449209200495528604_);}
	.st5{fill:url(#FOND_00000001652953021988826700000015688931505176532890_);}
	.st6{fill:url(#FOND_00000179645354413929778580000010428818608218450313_);}
	.st7{fill:url(#FOND_00000086686711559320623540000008666698138486293889_);}
	.st8{fill:url(#FOND_00000183970456119130589740000015870471745312254142_);}
	.st9{fill:url(#FOND_00000051379194880505927810000016940410674425531296_);}
	.st10{fill:url(#FOND_00000054978625628488899770000018115002553570486158_);}
	.st11{fill:url(#FOND_00000106861051676358195760000017331954283221250692_);}
	.st12{fill:#272F60;}
	.st13{fill:#FD657C;}
	.st14{fill:url(#FOND_00000039817118224254996540000013176387129489614527_);}
	.st15{fill:#F4AAB9;}
	.st16{clip-path:url(#Rectangle_10_00000169523586155853563910000006751018342446803876_);}
	.st17{fill:#FB657C;}
	.st18{fill:#FFFFFF;}
	.st19{fill:#FFBCC6;}
	.st20{clip-path:url(#SVGID_00000152257032692386220750000013039401105605309060_);}
	.st21{enable-background:new    ;}
	.st22{fill:#FB657C;stroke:#FD657C;stroke-width:3.8352001;stroke-linecap:round;stroke-linejoin:round;stroke-miterlimit:1.4382;}
	.st23{fill:#FFBCC6;stroke:#FFBCC6;stroke-width:3.8352001;stroke-linecap:round;stroke-linejoin:round;stroke-miterlimit:1.4382;}
	.st24{clip-path:url(#SVGID_00000173146252918956203830000003311724241400806538_);fill:#FB657C;}
	.st25{clip-path:url(#SVGID_00000134249947013517432210000013592239402977529526_);fill:#FFBCC6;}
	.st26{clip-path:url(#SVGID_00000031893851267149421000000001144659425646020014_);fill:#FFBCC6;}
	.st27{clip-path:url(#SVGID_00000175301213424659102970000016810501014380491439_);fill:#FFBCC6;}
	.st28{clip-path:url(#SVGID_00000160889521357415237150000002740843062211874178_);fill:#FFBCC6;}
	.st29{clip-path:url(#SVGID_00000044145311685052785850000001009729828053849259_);fill:#FFBCC6;}
	.st30{clip-path:url(#SVGID_00000170263746485930803960000010772374784303562892_);fill:#FFBCC6;}
	.st31{clip-path:url(#SVGID_00000077294068187845754980000010670949055966736051_);fill:#FFBCC6;}
	.st32{clip-path:url(#SVGID_00000183212261469947934250000015059558877977142706_);fill:#272F60;}
	.st33{clip-path:url(#SVGID_00000183212261469947934250000015059558877977142706_);fill:#FB657C;}
	.st34{clip-path:url(#SVGID_00000183212261469947934250000015059558877977142706_);fill:#FFBCC6;}
	.st35{clip-path:url(#SVGID_00000183212261469947934250000015059558877977142706_);fill:#FFFFFF;}
	.st36{fill:none;}
	.st37{clip-path:url(#SVGID_00000028311993052651279610000018073455901409859741_);fill:#FFFFFF;}
	.st38{clip-path:url(#SVGID_00000096061640119711937570000005826408977705254077_);fill:#FFFFFF;}
	.st39{clip-path:url(#SVGID_00000126312962441052131290000016878765126362776501_);fill:#FFFFFF;}
	.st40{clip-path:url(#SVGID_00000178917478966712323180000011777689636936454320_);fill:#FFFFFF;}
	.st41{clip-path:url(#SVGID_00000091731261808803481070000014920016811304506301_);fill:#FFFFFF;}
	.st42{clip-path:url(#SVGID_00000181798057473299117680000001159238214300076197_);fill:#FFFFFF;}
	.st43{clip-path:url(#SVGID_00000052817977536879831460000001676216151528853682_);fill:#FFFFFF;}
	.st44{clip-path:url(#SVGID_00000141433905940578167850000016453963740929023887_);fill:#FFFFFF;}
	.st45{clip-path:url(#SVGID_00000093141943655083418180000001913001705172146053_);fill:#FFFFFF;}
	.st46{clip-path:url(#SVGID_00000107568075817856495700000009754390932784562065_);fill:#FFFFFF;}
	.st47{clip-path:url(#SVGID_00000047031669604135351370000012609247884845121971_);fill:#FFFFFF;}
	.st48{clip-path:url(#SVGID_00000085951411877255251280000010673218148184011407_);fill:#FFFFFF;}
	.st49{clip-path:url(#SVGID_00000038377481903534649830000006512978215570248587_);fill:#FB657C;}
	.st50{clip-path:url(#SVGID_00000123409624624614332760000017262632516933265592_);fill:#FFFFFF;}
	.st51{clip-path:url(#SVGID_00000097461468271778087420000004112830470376833671_);fill:#FFFFFF;}
	.st52{fill:#FF647B;}
	.st53{fill:#FF657C;}
	.st54{clip-path:url(#SVGID_00000057856743393358104130000014265637689035598497_);}
	.st55{clip-path:url(#SVGID_00000133506941923592750320000003933663510963206322_);}
	.st56{clip-path:url(#SVGID_00000149359004930731091120000000189534081090908345_);}
	.st57{clip-path:url(#SVGID_00000026139805484781242570000007519125380189855877_);}
	.st58{fill:none;stroke:#272E5F;stroke-width:3;}
	.st59{clip-path:url(#SVGID_00000165927412039000299940000001748531244317050517_);}
	.st60{fill:#E94B67;}
	.st61{fill:#FFF5F7;stroke:#272E5F;stroke-width:2;}
	.st62{fill:none;stroke:#272E5F;stroke-width:2;stroke-linecap:round;stroke-linejoin:round;stroke-miterlimit:10;}
	.st63{fill:none;stroke:#272E5F;stroke-width:2;}
	.st64{fill:none;stroke:#272E5F;stroke-width:3;stroke-linecap:round;stroke-linejoin:round;stroke-miterlimit:10;}
	.st65{fill:none;stroke:#142664;stroke-width:2;stroke-linecap:round;stroke-linejoin:round;stroke-miterlimit:10;}
	.st66{clip-path:url(#SVGID_00000166671465706252652520000018414885802277968032_);}
	.st67{clip-path:url(#SVGID_00000155860916565252095560000004181474954327518874_);}
	.st68{clip-path:url(#SVGID_00000181808081711188905370000013307894141874274990_);fill:#FD657C;}
	.st69{clip-path:url(#SVGID_00000031204078634470379280000007197327938603551123_);fill:#FD657C;}
	.st70{clip-path:url(#SVGID_00000052783850294729171600000003444543533710836383_);}
	.st71{clip-path:url(#SVGID_00000160176935123599683980000012374449231784727171_);}
	.st72{clip-path:url(#SVGID_00000181076234549678838830000012500787301810365571_);}
	.st73{fill:none;stroke:#142664;stroke-width:3;stroke-linecap:round;stroke-linejoin:round;}
	.st74{clip-path:url(#SVGID_00000101791642246461772400000015548768766195087029_);}
	.st75{clip-path:url(#SVGID_00000034052457913182179590000017575843109454786944_);}
	.st76{clip-path:url(#SVGID_00000145028473694355890520000016506793471873779369_);}
	.st77{clip-path:url(#SVGID_00000049198456106978833980000002158705450359831210_);}
	.st78{clip-path:url(#SVGID_00000052081302176483023740000010207379663517255318_);}
	.st79{clip-path:url(#SVGID_00000006665335216180656570000013170921951675001731_);}
	.st80{clip-path:url(#SVGID_00000132782526220733433570000015408913377185487513_);}
	.st81{clip-path:url(#SVGID_00000005263991062296574890000003573368072622152619_);}
	.st82{clip-path:url(#SVGID_00000164483713353376355930000010876465586340244119_);}
	.st83{clip-path:url(#SVGID_00000146469308904353610800000009815948707633786519_);}
	.st84{clip-path:url(#SVGID_00000132780375373748753100000013201033967525249466_);}
	.st85{clip-path:url(#SVGID_00000141419423139006167560000014096206173307330694_);}
	.st86{clip-path:url(#SVGID_00000151537261933746686690000001798999093993930405_);}
	.st87{clip-path:url(#SVGID_00000108285860412001274920000003691575311030866350_);}
	.st88{clip-path:url(#SVGID_00000093883902873509518800000011602759082408845241_);}
	.st89{clip-path:url(#SVGID_00000051360038004114799560000004211471077816857235_);}
	.st90{clip-path:url(#SVGID_00000130640151167825442440000018116062869780129194_);}
	.st91{clip-path:url(#SVGID_00000152981379827116005500000005740512563672672390_);}
	.st92{clip-path:url(#SVGID_00000029029035426134581640000018416224784929984903_);}
	.st93{clip-path:url(#SVGID_00000029014565672032056400000016155550053259912324_);}
	.st94{clip-path:url(#SVGID_00000053542176624380904690000008791777574431822526_);}
	.st95{clip-path:url(#SVGID_00000129167549721544841050000016734406973007795084_);}
	.st96{clip-path:url(#SVGID_00000057150300318762371020000016413061868655909534_);}
	.st97{clip-path:url(#SVGID_00000062880049179658944250000011729132473280848289_);}
	.st98{clip-path:url(#SVGID_00000013913396549939912920000000070110349601445269_);}
	.st99{clip-path:url(#SVGID_00000069369152704345590900000011794275941258285696_);}
	.st100{clip-path:url(#SVGID_00000081617524136142293990000002170298289797610904_);}
	.st101{clip-path:url(#SVGID_00000099659615679297047880000006413210730679049117_);}
	.st102{clip-path:url(#SVGID_00000032619005945613999340000014923635488303043730_);}
	.st103{clip-path:url(#SVGID_00000152980443465097452820000016407256342227009689_);}
	.st104{clip-path:url(#SVGID_00000160870886767692014380000010031507509009044624_);}
	.st105{clip-path:url(#SVGID_00000106853101169307686230000012461278701414840484_);}
	.st106{clip-path:url(#SVGID_00000029762800483197125710000003592943667761721772_);}
	.st107{clip-path:url(#SVGID_00000046320238743954056400000016464191877155435964_);}
	.st108{clip-path:url(#SVGID_00000121971216749101755770000009294484897210073526_);}
	.st109{clip-path:url(#SVGID_00000089564063759047743780000008074697597789750205_);}
	.st110{clip-path:url(#SVGID_00000093172784152661540900000001295036263930546566_);}
	.st111{clip-path:url(#SVGID_00000160868919795311235300000009366106011115732662_);}
	.st112{clip-path:url(#SVGID_00000084518036374266160930000015599019169807333256_);}
	.st113{clip-path:url(#SVGID_00000168826373617159619650000001605871832410481795_);}
	.st114{clip-path:url(#SVGID_00000124865158768880186090000014729186429846278288_);}
	.st115{clip-path:url(#SVGID_00000140000673510067155420000010870318734555500462_);}
	.st116{clip-path:url(#SVGID_00000083769908852285826470000005310801500623088043_);}
	.st117{fill:#FFFFFF;stroke:#142664;stroke-width:3;stroke-linecap:round;stroke-linejoin:round;}
	.st118{clip-path:url(#SVGID_00000147941029375797053030000016172721351368649133_);}
	.st119{fill-rule:evenodd;clip-rule:evenodd;fill:#FFBCC6;}
	.st120{fill-rule:evenodd;clip-rule:evenodd;fill:#272F60;}
	.st121{fill-rule:evenodd;clip-rule:evenodd;fill:#FFFFFF;}
	.st122{fill-rule:evenodd;clip-rule:evenodd;fill:#FB657C;}
	.st123{clip-path:url(#SVGID_00000121248680841118300420000005682213367435107261_);}
	.st124{clip-path:url(#SVGID_00000002362948213398958880000004513666532088460934_);}
	.st125{clip-path:url(#SVGID_00000149365137406003683080000015713152361291760283_);}
	.st126{clip-path:url(#SVGID_00000065040894939953484310000006414079696797856430_);}
	.st127{clip-path:url(#SVGID_00000093175674725441685850000017416876665822685571_);}
	.st128{clip-path:url(#SVGID_00000009553419585095385660000016186910985537618071_);}
	.st129{clip-path:url(#SVGID_00000155147075510217810810000014102599567150562473_);}
	.st130{clip-path:url(#SVGID_00000080203863883305742000000007617987723986863243_);}
	.st131{clip-path:url(#SVGID_00000183945708905512438250000009588869881347519108_);}
	.st132{clip-path:url(#SVGID_00000060716350808141412660000002003023142448859801_);}
	.st133{clip-path:url(#SVGID_00000085217833666306067340000009717034249851536789_);}
	.st134{clip-path:url(#SVGID_00000072974634659797898950000008392631079502288043_);}
	.st135{clip-path:url(#SVGID_00000155853413601481480100000009342087405659095169_);}
	.st136{clip-path:url(#SVGID_00000029044871911687716630000008577565967177152160_);}
	.st137{clip-path:url(#SVGID_00000135691616192303478800000002155571423608599206_);}
	.st138{clip-path:url(#SVGID_00000070079047946464567630000008213880006346888109_);}
	.st139{clip-path:url(#SVGID_00000026858216221022268290000015027898767971768963_);}
	.st140{clip-path:url(#SVGID_00000075146990619479740230000017511508994123351737_);}
	.st141{clip-path:url(#SVGID_00000013194933541210906030000008576567217057113248_);}
	.st142{clip-path:url(#SVGID_00000183208119095958151200000003933857233484272012_);}
	.st143{clip-path:url(#SVGID_00000063625281382978694340000009705484210755943318_);}
	.st144{clip-path:url(#SVGID_00000079457155898793746930000013056032002866679681_);}
	.st145{clip-path:url(#SVGID_00000010268390013677935610000016089499622909000589_);}
	.st146{clip-path:url(#SVGID_00000046307018622671191690000005800476584519865763_);}
	.st147{clip-path:url(#SVGID_00000057115614462647172440000006232290621051817621_);}
	.st148{clip-path:url(#SVGID_00000175289681049161562080000001175593688770197167_);}
	.st149{clip-path:url(#SVGID_00000090285526357481218810000001269457592675678891_);}
	.st150{clip-path:url(#SVGID_00000150819685610411573770000013577532019661976233_);}
	.st151{clip-path:url(#SVGID_00000050643036866630395240000015939254355350647699_);}
	.st152{clip-path:url(#SVGID_00000108272990226051776760000011946898358626853509_);}
	.st153{clip-path:url(#SVGID_00000003102429224668818330000016783062775175220629_);}
	.st154{clip-path:url(#SVGID_00000057829916825381194730000018375665181990973624_);}
	.st155{clip-path:url(#SVGID_00000124123903202580855180000014827800452913771669_);}
	.st156{clip-path:url(#SVGID_00000056401388768110687990000008759780181505750169_);}
	.st157{clip-path:url(#SVGID_00000101075659874873231800000010451754219187822522_);}
	.st158{clip-path:url(#SVGID_00000182489502288988649830000016852402704793655206_);}
	.st159{clip-path:url(#SVGID_00000106105856288773427580000018154421601164909489_);}
	.st160{clip-path:url(#SVGID_00000179621042252420254610000002952345893140320399_);}
	.st161{clip-path:url(#SVGID_00000145032357876846899300000005212916147156718211_);}
	.st162{clip-path:url(#SVGID_00000000180551035496081830000013447047740950747295_);}
	.st163{clip-path:url(#SVGID_00000052064933115239431070000014109855561439144082_);}
	.st164{clip-path:url(#SVGID_00000114774509110938950030000007587773727072115075_);}
	.st165{clip-path:url(#SVGID_00000161593025315318104740000015321009776404078261_);}
	.st166{clip-path:url(#SVGID_00000131349809810895142800000006469198478706813601_);}
	.st167{clip-path:url(#SVGID_00000133508147696587454260000005048885840428999581_);}
	.st168{clip-path:url(#SVGID_00000106829096415289345640000016258358154329380795_);}
	.st169{clip-path:url(#SVGID_00000051346661819511627940000001697465423383949724_);}
	.st170{clip-path:url(#SVGID_00000155829197919056163970000009594014929357608104_);}
	.st171{clip-path:url(#SVGID_00000005229418281590923320000000163260524640200333_);}
	.st172{clip-path:url(#SVGID_00000055667515510153143970000014938694052415186320_);}
	.st173{clip-path:url(#SVGID_00000009560818240558676720000017944545944001442949_);}
	.st174{clip-path:url(#SVGID_00000106141729601026183870000002904773140368154252_);}
	.st175{clip-path:url(#SVGID_00000080186472592689713370000005727521151214467472_);}
	.st176{clip-path:url(#SVGID_00000049901026646978138110000011478643504267469503_);}
	.st177{clip-path:url(#SVGID_00000015346243019472579840000009340414706036454545_);}
	.st178{clip-path:url(#SVGID_00000021817965125323393500000000735090371925206147_);}
	.st179{clip-path:url(#SVGID_00000027579066616266110260000018187716746375783590_);}
	.st180{clip-path:url(#SVGID_00000112623298110341239870000008718067862128798631_);}
	.st181{clip-path:url(#SVGID_00000011029719699706061270000012604130963111380377_);}
	.st182{clip-path:url(#SVGID_00000007415930177258022170000002081908407476326036_);}
	.st183{clip-path:url(#SVGID_00000163039445277083164810000012875020781002509718_);}
	.st184{clip-path:url(#SVGID_00000139266155097568757770000013118648728353688488_);}
	.st185{clip-path:url(#SVGID_00000021817103369331723220000017349521122974499981_);}
	.st186{clip-path:url(#SVGID_00000041281039024390381910000012029980900727865270_);}
	.st187{clip-path:url(#SVGID_00000006669065147170117490000017447852401291021730_);}
	.st188{clip-path:url(#SVGID_00000001627506531847684730000016631313811918439092_);}
	.st189{clip-path:url(#SVGID_00000020397636249705591400000004523257380681601689_);}
	.st190{clip-path:url(#SVGID_00000036251780531587039690000003991577229942151824_);}
	.st191{clip-path:url(#SVGID_00000019673265432034901450000002307748787212857782_);}
	.st192{clip-path:url(#SVGID_00000120539243227563408210000010458105889636922780_);}
	.st193{clip-path:url(#SVGID_00000168827569404932802430000011096232602573058180_);}
	.st194{clip-path:url(#SVGID_00000166676435304186596680000016723883392647321770_);}
	.st195{clip-path:url(#SVGID_00000055684939524063902500000008031270247894060703_);}
	.st196{clip-path:url(#SVGID_00000021800473125881571410000011667617908383713208_);}
	.st197{clip-path:url(#SVGID_00000072988318833773648480000012700624706281789615_);}
	.st198{clip-path:url(#SVGID_00000049938487383406043500000004329439324424795564_);}
	.st199{clip-path:url(#SVGID_00000118357539329343459980000006089419403418413984_);}
	.st200{clip-path:url(#SVGID_00000051356563495285043440000001412184312437082014_);}
	.st201{clip-path:url(#SVGID_00000023245298365774441650000010054849138578497673_);}
	.st202{clip-path:url(#SVGID_00000011743834763189230780000017737134068368010409_);}
	.st203{clip-path:url(#SVGID_00000122693363063608942620000008671437087305722790_);}
	.st204{clip-path:url(#SVGID_00000050640650606623706120000005886601946119464886_);}
	.st205{clip-path:url(#SVGID_00000010284348352264435100000017946625597846310547_);}
	.st206{clip-path:url(#SVGID_00000149361404979984955650000000362567852610264197_);}
	.st207{clip-path:url(#SVGID_00000038384854849274093150000007328307068574156204_);}
	.st208{clip-path:url(#SVGID_00000096034357275362287400000005266622984592943039_);}
	.st209{clip-path:url(#SVGID_00000098918193776759768380000005324067604666585773_);}
	.st210{clip-path:url(#SVGID_00000039109813684436703450000003596905548176932537_);}
	.st211{clip-path:url(#SVGID_00000019649695056834912360000012483080919511063449_);}
	.st212{clip-path:url(#SVGID_00000169519670624599464610000000624425797654859650_);}
	.st213{clip-path:url(#SVGID_00000090988530371293282600000000003072653910532753_);}
	.st214{clip-path:url(#SVGID_00000154398385138913414540000011811613587935148699_);}
	.st215{clip-path:url(#SVGID_00000150092112353291369850000013212975532155507902_);}
	.st216{clip-path:url(#SVGID_00000181067952620142449790000012488503813143237559_);}
	.st217{clip-path:url(#SVGID_00000178901911002781354520000015791310048922327226_);}
	.st218{clip-path:url(#SVGID_00000181047761409014800590000015444194716315442595_);}
	.st219{clip-path:url(#SVGID_00000132770873408712692260000010651543200044747905_);}
	.st220{clip-path:url(#SVGID_00000016061232538268745780000015156545721691817101_);}
	.st221{clip-path:url(#SVGID_00000023262506864429959060000014049428836390325937_);}
	.st222{clip-path:url(#SVGID_00000072980016066681144630000005592740065574135182_);}
	.st223{clip-path:url(#SVGID_00000012458338894169821070000016612867622887287484_);}
	.st224{clip-path:url(#SVGID_00000047034363048999096860000016674778601679439286_);}
	.st225{clip-path:url(#SVGID_00000057857116454773087960000007603787365900883643_);}
	.st226{clip-path:url(#SVGID_00000095326741093448579910000003733962514731682958_);}
	.st227{clip-path:url(#SVGID_00000055678269874300366580000003997286273784397749_);}
	.st228{clip-path:url(#SVGID_00000173133746327992638060000014266752095957642119_);}
	.st229{clip-path:url(#SVGID_00000039116400885926209850000008022998462502424467_);}
	.st230{clip-path:url(#SVGID_00000111904664506372770810000004031998914806886822_);}
	.st231{clip-path:url(#SVGID_00000088092919956516958560000006304196496617984679_);}
	.st232{clip-path:url(#SVGID_00000132781594705887194670000002404096154459603888_);}
	.st233{clip-path:url(#SVGID_00000073002964007280787920000004125441204885090469_);}
	.st234{clip-path:url(#SVGID_00000115480519449100404480000010037120394611635881_);}
	.st235{clip-path:url(#SVGID_00000079479458249638912320000008171053336694402742_);}
	.st236{clip-path:url(#SVGID_00000100357869706515255390000016733420944590000562_);}
	.st237{clip-path:url(#SVGID_00000054234206107405710620000008921858757678797719_);}
	.st238{clip-path:url(#SVGID_00000044169384488109502660000000413516307248733850_);}
	.st239{clip-path:url(#SVGID_00000169546460929065558610000011847167205301095350_);}
	.st240{clip-path:url(#SVGID_00000003081010785422999890000001279815370278009274_);}
	.st241{clip-path:url(#SVGID_00000147901182726346901100000016783981883396447394_);}
	.st242{clip-path:url(#SVGID_00000170251601236976410230000013662204002220770224_);}
	.st243{clip-path:url(#SVGID_00000011710890332864128480000016628827186868785841_);}
	.st244{clip-path:url(#SVGID_00000010290328137136033010000007814862805468949152_);}
	.st245{clip-path:url(#SVGID_00000078737466365831417080000004498142637357806997_);}
	.st246{clip-path:url(#SVGID_00000183939468057914467360000003878970532053783481_);}
	.st247{clip-path:url(#SVGID_00000042737006890767486960000005064171024360270214_);}
	.st248{clip-path:url(#SVGID_00000008867226046280440910000012214081761482270083_);}
	.st249{clip-path:url(#SVGID_00000152961921341449899720000007239797383612604052_);}
	.st250{clip-path:url(#SVGID_00000145776308592654959490000006705444227378164127_);}
	.st251{clip-path:url(#SVGID_00000015354964115167386800000016463767934361620138_);}
	.st252{clip-path:url(#SVGID_00000160881106438039736420000012412067302968447621_);}
	.st253{fill:#E94966;}
	.st254{fill:#13224F;}
	.st255{fill:url(#);}
	.st256{clip-path:url(#SVGID_00000038402065362387551700000002154801188143006593_);}
	.st257{fill:#FFCE00;}
	.st258{fill-rule:evenodd;clip-rule:evenodd;fill:#FD657C;}
	.st259{clip-path:url(#SVGID_00000160875480874692398810000016630287404556532924_);}
	.st260{fill:url(#SVGID_00000095339204378452721750000016828171559077572739_);}
	.st261{fill:#FFFFFF;stroke:#FFFFFF;stroke-width:10;}
	.st262{fill:none;stroke:#272F60;stroke-width:3;stroke-linecap:round;stroke-linejoin:round;}
	.st263{clip-path:url(#SVGID_00000174560185031889955260000000284195325202159021_);}
	.st264{fill:none;stroke:#FFFFFF;stroke-width:5;}
	.st265{fill:#3580F8;}
	.st266{clip-path:url(#SVGID_00000129188510596811081890000000384880142475216063_);}
	.st267{fill:#FDF2F5;}
	.st268{clip-path:url(#SVGID_00000145757024848998431380000007696262833687760055_);}
	.st269{fill:#44C400;}
	.st270{clip-path:url(#SVGID_00000135671819741374598830000006100486317206269106_);}
	.st271{clip-path:url(#SVGID_00000059289461018862481610000001373055971538502560_);}
	.st272{clip-path:url(#SVGID_00000062911459898897267630000009126138693675883656_);}
	.st273{fill:#F1AAB9;}
	.st274{fill:#E34C6A;}
	.st275{clip-path:url(#SVGID_00000019650380001668863110000016119463000345325213_);}
	.st276{clip-path:url(#SVGID_00000166642506046105373620000004951074499953782946_);}
	.st277{clip-path:url(#SVGID_00000054959817458566668480000010330974778007802528_);}
	.st278{clip-path:url(#SVGID_00000039834134043269589070000009537044374131365539_);}
	.st279{clip-path:url(#SVGID_00000091693900192775906430000008163700554815258287_);}
	.st280{clip-path:url(#SVGID_00000150818310195830781020000018091831549327969943_);}
	.st281{clip-path:url(#SVGID_00000157283419238470801560000005599187405471809969_);}
	.st282{clip-path:url(#SVGID_00000157996265495010295480000017740976033833169824_);}
	.st283{display:none;}
	.st284{display:inline;}
	.st285{display:inline;enable-background:new    ;}
	.st286{clip-path:url(#SVGID_00000129894608067761134150000018218490834406408100_);}
	.st287{clip-path:url(#SVGID_00000101094714984089300990000015570993452601144465_);}
	.st288{clip-path:url(#SVGID_00000162317146758367698950000015970813876804019112_);}
	.st289{clip-path:url(#SVGID_00000027583800745966978790000009607704715158095802_);}
	.st290{fill:none;stroke:#FFFFFF;stroke-miterlimit:10;}
	.st291{clip-path:url(#SVGID_00000145761042521000977320000007599073780621803393_);}
	.st292{clip-path:url(#SVGID_00000173856162764495763810000014946928492171188401_);}
	.st293{clip-path:url(#SVGID_00000116952716281701786990000003890269045512403605_);}
	.st294{clip-path:url(#SVGID_00000119105216947625854870000000945593826220570552_);}
	.st295{clip-path:url(#SVGID_00000130632343375708217300000013810031583624003730_);}
	.st296{clip-path:url(#SVGID_00000111905883263243432710000012412187959725042869_);}
	.st297{clip-path:url(#SVGID_00000025433498199467967800000007736067104133790598_);}
	.st298{clip-path:url(#SVGID_00000116953317886210459760000012850590001040409277_);}
	.st299{clip-path:url(#SVGID_00000173870696367333573280000001268947959007498389_);}
	.st300{clip-path:url(#SVGID_00000124872179815540740890000005554533821973075605_);}
	.st301{clip-path:url(#SVGID_00000114060986819915612430000002139963570599643065_);}
	.st302{clip-path:url(#SVGID_00000060027491352926442350000014573380796992967071_);}
	.st303{clip-path:url(#SVGID_00000026855317775362163230000004711098126093510545_);}
	.st304{clip-path:url(#SVGID_00000004518079112281847390000008675525189965115807_);}
	.st305{clip-path:url(#SVGID_00000047763690921630765800000011574694404211126678_);}
	.st306{clip-path:url(#SVGID_00000063604038026975372190000004682587416775583620_);}
	.st307{fill:none;stroke:#142664;stroke-width:4.0018654;stroke-linecap:round;stroke-linejoin:round;stroke-miterlimit:4.0018654;}
	.st308{clip-path:url(#SVGID_00000093144858140488074320000012136844990860472503_);}
	.st309{clip-path:url(#SVGID_00000134223435165798017710000007474941380136631959_);}
	.st310{clip-path:url(#SVGID_00000147208601656408665800000003243359410129415352_);}
	.st311{clip-path:url(#SVGID_00000082334861750335017900000006527701310996796814_);}
	.st312{clip-path:url(#SVGID_00000126294917020935719890000009073742190492746157_);}
	.st313{clip-path:url(#SVGID_00000116199264724231619130000014112392304329707146_);}
	.st314{clip-path:url(#SVGID_00000022542183330977032960000007910974085080719549_);}
	.st315{clip-path:url(#SVGID_00000114069408679149041740000011469586873657598395_);}
	.st316{clip-path:url(#SVGID_00000130639818540225304790000006992727075626487999_);}
	.st317{clip-path:url(#SVGID_00000139283649691722664510000008709351948716059269_);}
	.st318{clip-path:url(#SVGID_00000059990526170619413950000004249254623266296205_);}
	.st319{clip-path:url(#SVGID_00000012464358708378117560000017957804789556237999_);}
	.st320{clip-path:url(#SVGID_00000075164651148603739100000011483228933431517313_);}
	.st321{clip-path:url(#SVGID_00000047021950837981946570000009600348647570175630_);}
	.st322{clip-path:url(#SVGID_00000080192862270153573940000007616123173912890760_);}
	.st323{clip-path:url(#SVGID_00000130636261644589111680000010801695078835534988_);}
	.st324{clip-path:url(#SVGID_00000060031960628598334480000002866892512197181315_);fill:#FD657C;}
	.st325{clip-path:url(#SVGID_00000060031960628598334480000002866892512197181315_);fill:#272F60;}
</style>
<g id="FONDS">
</g>
<g id="ILLUSTRATIONS">
	<g>
		<circle id="Ellipse_419" class="st18" cx="138.4309998" cy="144.8329926" r="132.5"/>
		<g id="Groupe_1822" transform="translate(0)">
			<g>
				<defs>
					<rect id="SVGID_00000071528487820529018300000013846815668583572378_" width="284.9320068" height="270.2850037"/>
				</defs>
				<clipPath id="SVGID_00000142876641038022441870000003548041758626020224_">
					<use xlink:href="#SVGID_00000071528487820529018300000013846815668583572378_"  style="overflow:visible;"/>
				</clipPath>
				
					<g id="Groupe_1821" transform="translate(0)" style="clip-path:url(#SVGID_00000142876641038022441870000003548041758626020224_);">
					<path id="Tracé_5670" class="st12" d="M179.9349976,78.0650024c0,0-1.2890015-1.2850037-4.6170044-10.413002
						c-2.6309967-7.2130013-11.3130035-16.4500008-24.6999969-10.2939987
						c-5.1299896,2.3600006-11.0549927,13.7310028,1.5200043,17.788002
						c11.4169922,3.6780014,17.4529877,3.7789993,17.4529877,3.7789993L179.9349976,78.0650024z"/>
					<path id="Tracé_5671" class="st12" d="M156.451004,66.8359985c0,0,1.6090088,0.848999,7.477005,8.6000061
						c4.6369934,6.1210022,25.371994,14.5100021,26.7160034,5.0419998
						c1.4219971-10.0610046,0.276001-19.2560043-12.9369965-19.439003c-12-0.1660004-11.621994,1.9500008-11.621994,1.9500008
						L156.451004,66.8359985z"/>
					<path id="Tracé_5672" class="st12" d="M99.7599945,204.2339935l17.9749985,3.5
						c1.2071838,0.2375031,2.3785095-0.5480194,2.6169968-1.7550049c0.0325012-0.1645813,0.0459213-0.3323517,0.0400009-0.5
						l-0.3180008-9.6829987c-0.0341797-1.0373688-0.7810669-1.9132996-1.8000031-2.1109924l-13.7099991-2.6710052
						c-1.019371-0.1987-2.0412292,0.3312988-2.4660034,1.279007l-3.9469833,8.8509979
						c-0.5016556,1.1217651,0.0010529,2.4378204,1.1228256,2.9394684c0.0003891,0.0001831,0.0007858,0.0003662,0.0011749,0.0005341
						c0.1550674,0.0690308,0.3174286,0.1203613,0.4840012,0.1529999L99.7599945,204.2339935z"/>
					<path id="Tracé_5673" class="st19" d="M226.0019989,151.3220062c-1.3950043,4.1109924,0.6620178,7.076004,2.5,9.1190033
						c1.8070221,2.0130005,4.8999939,6.0659943,7.3220062,4.9920044c1.4650116-0.647995,0.8899994-2.8710022-0.5619965-5.1199951
						c-0.3430023-0.5310059,0.1629944-1.0330048,0.7870026-0.9120026c4.460022,0.8630066,5.4700012,6.7230072,8.7420044,6.9290009
						c3.7420044,0.2350006,3.3480072-12.4940033,0.6620026-15.5859985c-2.7180023-3.1260071-7.3729858-4.1260071-9.0910034-4.5
						c-2.75-0.6000061-8.4230042-0.6000061-10.3569946,5.0769958"/>
					<path id="Tracé_5674" class="st19" d="M103.8569946,120.8960037c1.3909988,4.1119995-0.6799927,7.0749969-2.5220032,9.1149979
						c-1.8119965,2.0079956-4.9089966,6.0569916-7.3339996,4.9799957c-1.461998-0.651001-0.8820038-2.8730011,0.5750046-5.1239929
						c0.3440018-0.5299988-0.1600037-1.0319977-0.7809982-0.9160004c-4.4640045,0.8569946-5.4880066,6.7139893-8.7600098,6.9140015
						c-3.7430038,0.2299957-3.3179932-12.5-0.6230011-15.5859985c2.7249985-3.1180038,7.3840027-4.112999,9.0999985-4.4830017
						c2.75-0.5879974,8.4250031-0.5830002,10.3430023,5.0999985"/>
					<path id="Tracé_5675" class="st12" d="M235.5529938,241.7649994c-3.038681,0.3704071-6.1175232,0.2400055-9.1139984-0.3860016
						L50.3000031,204.8090057c-8.0003586-1.6534424-14.8680954-6.742981-18.7780018-13.9160004
						c-1.4797096-2.700119-0.4903774-6.0885315,2.2097378-7.5682373c2.6685905-1.4624481,6.0168953-0.514801,7.523262,2.1292419
						c0.0200005,0.0359955,0.0390015,0.072998,0.0589981,0.1080017c2.3453026,4.3006287,6.4630737,7.3523865,11.2600021,8.3450012
						l176.1399841,36.572998c5.0580444,1.0655823,10.3239594-0.2823181,14.2480011-3.6470032
						c2.3394775-1.9970551,5.8549347-1.7194824,7.852005,0.6199951c1.9970551,2.3394928,1.7194672,5.85495-0.6200104,7.852005l0,0
						c-4.1400146,3.5449677-9.2320099,5.7927399-14.6410065,6.4629974"/>
					<path id="Tracé_5676" class="st12" d="M166.4989929,204.7809906c0,0,9.8679962,0.5440063,15.7200165,3.6399994
						c4.3519897,2.3000031,6.0119781,7,6.5899811,10.5500031c0.1512756,1.0571136-0.2218323,2.1216583-1,2.8530121
						c-0.773407,0.7185364-1.848938,1.0142059-2.8809814,0.7919922l-18.2250214-4.2180023
						c-1.7335663-0.4024811-2.8137207-2.1327972-2.4139862-3.8670044c0.8369904-3.8430023,2.2089996-9.75,2.2089996-9.75
						H166.4989929z"/>
					<path id="Tracé_5677" class="st19" d="M101.9410019,190.9250031c0.2419968-3.0370026,0.5630035-6.1260071,0.9899979-9.2850037
						s0.9649963-6.3690033,1.6070023-9.6000061c0.3339996-1.6119995,0.6999969-3.2259979,1.0780029-4.8379974
						c0.4000015-1.6093292,0.822998-3.2169952,1.2689972-4.822998l0.7089996-2.3919983l0.3679962-1.1920013l0.1809998-0.6000061
						l0.0889969-0.3000031l0.2590027-0.6820068c0.6245499-1.5675964,1.4210892-3.0610657,2.375-4.4530029
						c0.7412491-1.0936279,1.5512161-2.1390686,2.4250031-3.1300049c1.461937-1.6501312,3.0460815-3.1878052,4.7389984-4.5999908
						c1.5197983-1.2666473,3.1035461-2.4545441,4.7450027-3.5590057c3.1388779-2.128952,6.4504318-3.9914551,9.9000015-5.5679932
						c1.7339935-0.7920074,3.5100098-1.5270081,5.3840027-2.1860046c1.9537048-0.6985626,3.950119-1.2713928,5.9769897-1.7149963
						c2.3897247-0.5392914,4.828537-0.8314819,7.2780151-0.871994c1.5814514-0.0194702,3.1613617,0.1057129,4.7200012,0.3740082
						c1.5610352,0.2877197,3.0912476,0.7230072,4.5700073,1.2999878c2.1067352,0.8295288,4.1424713,1.8291626,6.0870056,2.9889984
						c1.6773376,0.9873352,3.3026733,2.0566711,4.8760071,3.2080078c2.9941559,2.1827087,5.824707,4.5814362,8.4689941,7.177002
						c2.7544861,2.6764526,5.2622833,5.5955811,7.4929962,8.7220001c1.2555542,1.7682648,2.3808594,3.6255035,3.3670044,5.5570068
						c0.5616913,1.1112366,1.0575562,2.2545319,1.4850006,3.423996c0.5034485,1.3605042,0.8950806,2.7598114,1.1710052,4.1840057
						c0.3418121,1.7557373,0.4664154,3.5468445,0.3710022,5.3330078c-0.0209961,0.4839935-0.0829926,1.0140076-0.1459961,1.5249939
						l-0.026001,0.1920013l-0.0140076,0.0879974l-0.0310059,0.1569977l-0.0619965,0.3139954l-0.2480011,1.2559967
						c-0.1600037,0.8509979-0.3419952,1.6369934-0.5149994,2.4539948s-0.3509979,1.6060028-0.5420074,2.3999939
						c-0.3739929,1.5890045-0.772995,3.1389923-1.1670074,4.6999969s-0.8359985,3.0820007-1.2559967,4.6109924l-1.3390045,4.5619965
						c-0.4689941,1.5110016-0.927002,3.0249939-1.4219971,4.522995c-0.9660034,3.0140076-2,5.9680023-3.1349945,8.9759979
						l-17.6609955-4.0619965c0.1069946-1.5059967,0.2810059-3.0540009,0.4109955-4.5859985l0.4790039-4.5910034l0.5050049-4.5720062
						l0.5200043-4.5469971l0.5140076-4.5130005c0.1719971-1.4909973,0.345993-2.9880066,0.4869995-4.4530029l0.2259979-2.1869965
						c0.0650024-0.7149963,0.1499939-1.4550018,0.1999969-2.1410065l0.0800018-1.0440063l0.0200043-0.2559967l0.0110016-0.1269989
						v-0.0570068l-0.0110016,0.0449982c-0.0299988,0.1309967-0.0379944,0.272995-0.0570068,0.3670044
						c-0.0500031,0.4450073-0.0310059,0.6670074-0.0570068,0.7189941c-0.0350037,0.0870056-0.2539978-0.4120026-0.6679993-1.0390015
						c-0.502243-0.7872467-1.0540161-1.5417633-1.6519928-2.2590027c-1.5177155-1.8138733-3.1704254-3.510376-4.9440002-5.0749969
						c-1.8624573-1.6667175-3.8301849-3.2118988-5.8910065-4.6260071c-1.0090027-0.6759949-2-1.3170013-2.9340057-1.8419952
						c-0.7248993-0.4232941-1.4818878-0.7890778-2.2639923-1.0939941c-0.1999969-0.0749969-0.2740021-0.0570068,0.1000061,0.0140076
						c0.2339935,0.0410004,0.227005,0.0209961,0.0870056,0.0240021c-0.6553802,0.0252686-1.3067627,0.1140137-1.9450073,0.2649994
						c-2.1380615,0.5000458-4.2245178,1.1994476-6.2320099,2.0890045c-2.212204,0.9689789-4.3535004,2.0924225-6.4079895,3.3619995
						c-1,0.6230011-1.9410095,1.279007-2.7770081,1.9120026c-0.7257538,0.5347595-1.4152527,1.1170349-2.0639954,1.7429962
						c-0.2409973,0.2359924-0.4120026,0.4309998-0.4819946,0.5c-0.0700073,0.0690002-0.0460052,0.0279999,0.1129913-0.3999939
						c0.0172882-0.0462036,0.0310059-0.093689,0.0410004-0.1419983l-0.1000061,0.2480011l-0.2109985,0.5l-0.4219971,0.9940033
						l-0.821991,2c-0.5553436,1.3333435-1.093338,2.6730042-1.6139984,4.0189972
						c-0.5379944,1.3446655-1.0616684,2.7019958-1.5709991,4.0720062c-1.0479965,2.7350006-2.0479965,5.5279999-3.112999,8.3869934
						s-2.1600037,5.8000031-3.4260025,8.7749939L101.9410019,190.9250031z"/>
					<path id="Tracé_5678" class="st12" d="M170.8400116,72.3940048
						c15.7013702,3.3629837,25.7037201,18.8175659,22.3410034,34.5189972c0,0.0139999-0.0059967,0.0279999-0.0090027,0.0410004
						l-8.878006,41.0859909c-0.3180084,1.477066-1.7727356,2.417038-3.25,2.1000061
						c-8.1386566-0.5268402-16.2286682-1.6404114-24.2070007-3.3320007
						c-9.2907257-1.9980621-18.4430237-4.5927734-27.4000092-7.7679901
						c-1.4732056-0.3129578-2.4137802-1.7609253-2.1008224-3.2341309c0.0002747-0.001297,0.0005493-0.0025787,0.000824-0.0038757
						v-0.0059967l8.8790054-41.0910034c3.4111786-15.7126389,18.9015808-25.695488,34.6199951-22.310997"/>
					<path id="Tracé_5679" class="st12" d="M226.2389984,157.07901c-0.6681519,1.0130615-2.0230713,1.3070526-3.0509949,0.6620026
						c-1.2189941-0.7709961-2.423996-1.572998-3.6000061-2.4210052c-1.7779999-1.2630005-3.4689941-2.628006-5.1360016-4.0189972
						c-3.2282867-2.7914429-6.2710876-5.7904816-9.1089935-8.9779968c-2.7779999-3.1179962-5.3200073-6.276001-7.7610016-9.3590088
						l-0.4649963-0.5879974l-0.5529938-0.7429962c-0.3630066-0.5-0.7429962-1-1.0700073-1.5s-0.6779938-1.0110016-1-1.522995
						l-0.9219971-1.5330048c-1.1799927-2.0399933-2.1999969-4.0810013-3.1069946-6.0749969
						c-0.9069977-1.993988-1.6999969-3.9530029-2.4409943-5.8470001l-2.0659943-5.4769974
						c-1.1200256-3.1626053-2.4682312-6.2397003-4.0339966-9.2070007c-0.6450043-1.1881027-1.3805084-2.324791-2.1999969-3.4000015
						c-0.7163544-0.9108658-1.5283356-1.7422867-2.4219971-2.4800034c-0.8580017-0.7222595-1.8013916-1.3365173-2.8090057-1.8290024
						c-0.2614288-0.1381073-0.5301666-0.2619629-0.8049927-0.3710022c-0.2736206-0.1311951-0.5547791-0.2460632-0.8419952-0.3440018
						l-0.8809967-0.3229904l-1.1909943-0.3590088l-1.1909943-0.3610001l-0.6000061-0.1800003l-0.5939941-0.147995
						l-2.3769989-0.5940094l-2.3600616-0.4689941c-0.3910065-0.0920105-0.7850037-0.1290054-1.1759949-0.1869965
						l-1.1710052-0.1670074c-3.0500641-0.3984833-6.133255-0.479248-9.1999969-0.2409973l-2.2489929,0.2460022l-2.2279968,0.4069977
						c-0.3736725,0.0666962-0.7432556,0.1545029-1.1069946,0.2630005l-1.0999908,0.2830048
						c-0.7448425,0.1828613-1.4792328,0.4058609-2.1999969,0.6679916c-2.9927368,0.9964218-5.8746643,2.2989883-8.6000061,3.887001
						c-0.3539886,0.1999969-0.7119904,0.3779984-1.0569916,0.5999985l-1.0370026,0.6660004l-1.0429993,0.666008
						c-0.3560638,0.2133789-0.7008514,0.4450226-1.0330048,0.6940002c-1.3519897,0.9879913-2.7249985,1.9399948-4.064003,3.0299911
						c-2.7156906,2.151886-5.2978058,4.4671783-7.7320023,6.9329987c-2.4765625,2.4912796-4.823967,5.1076889-7.0329971,7.8389969
						c-0.5619965,0.678009-1.0879974,1.3799973-1.644989,2.0690002c-0.5200043,0.6999969-1.0640106,1.4000092-1.5650101,2.1080017
						c-0.5009918,0.7080078-1.0159988,1.4110031-1.5,2.1180115l-0.8000031,1.1919937
						c-0.2831573,0.4288101-0.8452148,0.5732117-1.3000031,0.3339996l-13.8550186-7.2080078
						c-0.4876556-0.2509766-0.6821671-0.8479004-0.435997-1.3379898l0.3830109-0.7510071
						c0.2579956-0.5,0.5149994-0.9609909,0.7750015-1.4449997c0.5159912-0.9400024,1.0469894-1.8699951,1.5919952-2.7770004
						c0.5450058-0.9069977,1.112999-1.7890015,1.67099-2.689003c0.5830002-0.8740005,1.1500015-1.7669983,1.75-2.6279984
						c2.3928452-3.475174,4.9838028-6.8096848,7.7600021-9.9869995c2.8179169-3.2025375,5.835968-6.223259,9.0360107-9.0439987
						l1.211998-1.0630035l0.6089935-0.5299988l0.6399994-0.5110016l2.5830002-2.0250015
						c0.4219971-0.3430023,0.8779984-0.6600037,1.3339996-0.9759979l1.3639984-0.9520035l1.3669968-0.9489975
						c0.4570007-0.3099976,0.951004-0.5999985,1.4260025-0.8929977c3.8610535-2.4678116,7.9868774-4.4944992,12.3000031-6.0419998
						c4.4146729-1.617691,9.0097809-2.6922531,13.6840057-3.2000046c4.6335602-0.4779053,9.3060913-0.4346313,13.9300079,0.1290054
						l1.6999969,0.2220001c0.5670013,0.0769958,1.1369934,0.1459961,1.6869965,0.2610016l3.326004,0.6419983l3.2480011,0.7999954
						l0.8090057,0.2000046l0.7890015,0.2360001l1.5769958,0.473999l1.5780029,0.4799957l1.8410034,0.6720047
						c0.6109924,0.211998,1.223999,0.4899979,1.8329926,0.7610016c0.6089935,0.2709961,1.2189941,0.526001,1.8179932,0.8569946
						c2.4522858,1.2328491,4.7516327,2.7488556,6.8509979,4.5169983c2.0678101,1.7443008,3.9391937,3.7089081,5.5809937,5.8590012
						c1.5116119,2.0028229,2.8558044,4.1266556,4.0189972,6.3499985c1.9672394,3.8987045,3.6447754,7.9369507,5.0189972,12.0820084
						l1.8860016,5.4049911c0.6000061,1.7200089,1.1950073,3.3809967,1.822998,4.9140015s1.2830048,2.9800034,1.9790039,4.314003
						l0.5310059,0.9740067c0.1809998,0.3169937,0.371994,0.6129913,0.5540009,0.9229889s0.3820038,0.586998,0.5720062,0.8830109
						l0.2839966,0.4379959l0.3999939,0.5719986c2.1849976,3.0999985,4.3359985,6.0749969,6.5429993,8.8540039
						c2.1198273,2.7366486,4.4019318,5.3436737,6.8339996,7.8069916c1.1999969,1.1900024,2.4210052,2.3610077,3.7089996,3.4560089
						c0.7579956,0.6759949,1.5399933,1.3179932,2.3379974,1.9490051c0.9059753,0.7211151,1.1096802,2.0154724,0.4689941,2.9799957
						L226.2389984,157.07901z"/>
					<path id="Tracé_5680" class="st267" d="M157.8119965,143.3450012
						c-0.4879303,0.0593872-0.9316254-0.2880402-0.9909973-0.7759705c0,0,0-0.0000305,0-0.0000305
						c-0.0128937-0.1000519-0.0081482-0.2015839,0.0139923-0.3000031l0.4460144-2.0680084
						c0.1150055-0.4790192,0.5965576-0.7741089,1.075592-0.6591034c0.4622192,0.1109924,0.7561951,0.5649261,0.6684113,1.0321198
						l-0.4460144,2.0669861c-0.0791016,0.373291-0.3871155,0.6547546-0.7659912,0.6999969 M159.3899994,136.0499878
						c-0.4870453,0.0619049-0.9320831-0.2827606-0.9939728-0.7698212c-0.0000153-0.000061-0.0000153-0.0001068-0.0000305-0.0001678
						c-0.0127716-0.1000519-0.0080261-0.2015839,0.0140076-0.3000031l0.5639954-2.6119995
						c0.0971985-0.4829712,0.5675354-0.7957001,1.0505066-0.6985016c0.4829559,0.0971985,0.7956848,0.5675201,0.6984863,1.0505066
						l0,0l-0.0050049,0.022995l-0.5650024,2.6119995c-0.0787354,0.3723297-0.3852692,0.6535492-0.7630005,0.6999969
						 M161.0899811,128.2189941c-0.4877167,0.061142-0.9326324-0.2846603-0.9938049-0.7723694
						c-0.0000458-0.0005493-0.0001373-0.001091-0.0001984-0.0016327c-0.0122681-0.100029-0.0078735-0.2014084,0.0130157-0.3000031
						l0.5649872-2.6119995c0.1032715-0.4818649,0.5776367-0.7887726,1.0595093-0.6855011
						c0.4818573,0.1032791,0.7887573,0.5776367,0.6854858,1.0595016l0,0l-0.5650024,2.612999
						c-0.0792999,0.3712387-0.3844452,0.6519012-0.7610016,0.6999969L161.0899811,128.2189941z M162.7899933,120.3829956
						c-0.4877319,0.061142-0.932663-0.2846603-0.9938202-0.7723694c-0.000061-0.0005493-0.0001373-0.001091-0.0001831-0.0016327
						c-0.0122833-0.100029-0.0078888-0.2014084,0.0129852-0.3000031l0.5650024-2.6119995
						c0.1027222-0.4818649,0.5766449-0.7892227,1.0585022-0.6865005c0.4818573,0.1027298,0.7892151,0.5766373,0.6864929,1.0585022
						l-0.5649872,2.612999c-0.0793152,0.3720169-0.3855591,0.652977-0.7630157,0.6999969L162.7899933,120.3829956z
						 M164.4899902,112.5469971c-0.4877319,0.061142-0.932663-0.2846603-0.9938049-0.7723694
						c-0.0000763-0.0005493-0.0001373-0.001091-0.0002136-0.0016327c-0.0129242-0.1000061-0.0085297-0.2014923,0.0130005-0.3000031
						l0.5650177-2.612999c0.1040955-0.4815903,0.5788879-0.7876053,1.0604858-0.6835022s0.7876129,0.5789108,0.6835175,1.0605011
						l-0.5650177,2.6119995c-0.079422,0.3723373-0.3861542,0.6533813-0.7640076,0.6999969L164.4899902,112.5469971z
						 M166.1899719,104.7109985c-0.4877014,0.061142-0.9326477-0.2846603-0.9938049-0.7723694
						c-0.000061-0.0005493-0.0001221-0.001091-0.0001984-0.0016327c-0.0129089-0.1000061-0.0085144-0.2014847,0.0130005-0.3000031
						l0.5650024-2.612999c0.1038361-0.4815903,0.5784149-0.7878342,1.0599976-0.6840057
						c0.4815979,0.1038361,0.7878571,0.5784149,0.6840057,1.0600052l-0.5650024,2.6119995
						c-0.0811462,0.3700638-0.3869934,0.6486435-0.7630005,0.6949997V104.7109985z M167.8899689,96.875
						c-0.4870911,0.0616226-0.9319305-0.283287-0.9935455-0.7703857c-0.0001526-0.0012054-0.0003052-0.0024109-0.0004578-0.0036163
						c-0.0128937-0.1000061-0.0084991-0.2014847,0.0130005-0.3000031l0.5650024-2.612999
						c0.1032867-0.4818649,0.5776367-0.7887726,1.0595093-0.6855011c0.4818573,0.1032791,0.7887573,0.5776367,0.6854858,1.0595016
						l-0.5650024,2.612999c-0.0815277,0.3696747-0.3872681,0.6477737-0.7630005,0.6940002L167.8899689,96.875z
						 M169.5899658,89.0390015c-0.4870911,0.0616226-0.9319305-0.283287-0.9935608-0.7703857
						c-0.0001526-0.0012054-0.0002747-0.0024109-0.0004272-0.0036163c-0.0129395-0.1000061-0.0085449-0.2014923,0.0130005-0.3000031
						l0.5649872-2.612999c0.104126-0.4815903,0.5789185-0.7876053,1.0605164-0.6835022s0.7876129,0.5789108,0.6834869,1.0605011l0,0
						l-0.5649872,2.6119995c-0.081543,0.3696747-0.3872986,0.6477737-0.7630157,0.6940002V89.0390015z"/>
					<path id="Tracé_5681" class="st267" d="M151.5359955,124.0419998
						c-0.1000214,0.0124969-0.2014313,0.0081024-0.3000031-0.0130005l-14.0399933-3.0250015
						c-0.4813232-0.1041031-0.7871094-0.5786819-0.6829987-1.0599976c0.1040955-0.4813232,0.5786743-0.7871094,1.0599976-0.6830063
						l0,0l14.0429993,3.0250015c0.4809113,0.1042404,0.7862701,0.578598,0.6820374,1.0595169
						c-0.0801849,0.369957-0.385376,0.6488571-0.7610474,0.6954803L151.5359955,124.0419998z"/>
					<path id="Tracé_5682" class="st267" d="M191.223999,122.5209961c0,0,0.3999939-1.875,0.9409943-4.4199982
						c0.2510071-1.3410034,0.5740051-2.8820038,0.848999-4.4250031c0.1459961-0.8690033,0.3090057-1.8099976,0.4120026-2.6869965
						c0.5-3.4269943,0.8869934-6.2519989,0.8869934-6.2519989c0.1602783-0.4622421-0.0559082-0.9707108-0.5-1.1760025
						c-0.3999939-0.0849991-0.7749939,0.3690033-0.8849945,0.9000015c0,0-0.6119995,2.8119965-1.2879944,6.1660004
						c-0.1950073,0.8710022-0.345993,1.7429962-0.5050049,2.6839981c-0.276001,1.5429993-0.5059967,3.0880051-0.7140045,4.4329987
						c-0.3999939,2.5530014-0.6289978,4.5080032-0.6289978,4.5080032c-0.1602783,0.4622498,0.0559082,0.9707184,0.5,1.1760025
						c0.4459991,0.0820007,0.8670044-0.3730011,0.9309998-0.9110031"/>
					<path id="Tracé_5683" class="st267" d="M164.8059998,83.5070038c0.4884338-0.059845,0.9328918,0.2875977,0.9927368,0.7760315
						s-0.2875977,0.9328995-0.7760315,0.9927444c-0.488327,0.0598297-0.9327393-0.2874603-0.9927063-0.7757797
						c-0.0599823-0.4884186,0.287323-0.9329834,0.7757416-0.9929657
						C164.8058319,83.5070267,164.8059082,83.5070114,164.8059998,83.5070038"/>
					<path id="Tracé_5684" class="st267" d="M175.0079956,85.8919983c0.4884338-0.059845,0.9328918,0.2875977,0.9927368,0.7760315
						s-0.2875977,0.9328995-0.7760315,0.9927444c-0.488327,0.0598297-0.9327393-0.2874603-0.9927063-0.7757797
						c-0.0599823-0.4884186,0.287323-0.9329834,0.7757416-0.9929657
						C175.0078278,85.8920212,175.0079041,85.8920059,175.0079956,85.8919983"/>
					<path id="Tracé_5685" class="st19" d="M147.1689911,96.5719986c0.4884338-0.059845,0.9329071,0.2875977,0.9927521,0.7760315
						c0.0598297,0.4884338-0.2875977,0.9328995-0.7760315,0.9927444c-0.4883423,0.0598297-0.9327393-0.2874603-0.9927063-0.7757797
						c-0.0599976-0.4884186,0.287323-0.9329834,0.7757416-0.9929657
						C147.1688232,96.5720215,147.1689148,96.5720062,147.1689911,96.5719986"/>
					<path id="Tracé_5686" class="st19" d="M174.8100128,133.1699982c0.4884338-0.059845,0.9328766,0.2875977,0.9927216,0.7760315
						s-0.2875977,0.9329071-0.7760315,0.9927521c-0.488327,0.0598297-0.9327393-0.2874603-0.9927063-0.7757874
						c-0.0599823-0.4884186,0.287323-0.9329834,0.7757416-0.9929657
						C174.809845,133.1700287,174.809906,133.1700134,174.8100128,133.1699982z"/>
					<path id="Tracé_5687" class="st19" d="M177.826004,106.2630005c0.4884338-0.059845,0.9328918,0.2875977,0.9927368,0.7760315
						s-0.2875977,0.9328995-0.7760315,0.9927444c-0.488327,0.0598297-0.9327393-0.2874603-0.9927063-0.7757797
						c-0.0599823-0.4884186,0.287323-0.9329834,0.7757416-0.9929657
						C177.8258362,106.2630234,177.8259125,106.2630081,177.826004,106.2630005z"/>
					<path id="Tracé_5688" class="st19" d="M154.2600098,87.0670013c0.4884338-0.059845,0.9328918,0.2875977,0.9927368,0.7760315
						s-0.2875977,0.9328995-0.7760315,0.9927444c-0.488327,0.0598297-0.9327393-0.2874603-0.9927063-0.7757797
						c-0.0599823-0.4884186,0.287323-0.9329834,0.7757416-0.9929657
						C154.2598419,87.0670242,154.2599182,87.067009,154.2600098,87.0670013"/>
					<path id="Tracé_5689" class="st12" d="M153.2879944,157.378006c-0.1246185,0.0149841-0.2509918,0.0037537-0.3710022-0.0330048
						c-0.7649994-0.2339935-1.2099915-0.3329926-1.2160034-0.3329926c-0.4835815-0.091095-0.8017426-0.5569611-0.7106476-1.0405426
						s0.5569611-0.8017578,1.0405426-0.7106628c0.0157928,0.0029755,0.0314941,0.0063782,0.0471039,0.0102081
						c0.0210114,0,0.5200043,0.1119995,1.3630066,0.3710022c0.4699707,0.1458588,0.7327118,0.6450958,0.5868378,1.1150665
						c-0.1036224,0.3338928-0.3929596,0.5763397-0.7398376,0.6199341V157.378006z"/>
					<path id="Tracé_5690" class="st12" d="M171.2180023,197.4820099c-0.0700531,0.0087891-0.1409454,0.0087891-0.2109985,0
						c-0.4884033-0.0553284-0.8394928-0.496109-0.7841644-0.9845276c0.000061-0.0004883,0.0001068-0.0009766,0.0001678-0.0014648
						l0.3249969-2.8070068c0.0693817-0.4877319,0.5210114-0.8268585,1.0087433-0.7574768
						c0.4678955,0.0665588,0.8026581,0.4865112,0.7632599,0.9574738l-0.3249969,2.8000031
						c-0.0463562,0.4092865-0.367218,0.7334442-0.776001,0.7839966 M172.1950073,189.0590057
						c-0.4877014,0.0612183-0.9326935-0.2845306-0.9939117-0.7722321c-0.0000305-0.0002594-0.000061-0.0005035-0.0000916-0.0007629
						c-0.0087433-0.0704041-0.0087433-0.1416016,0-0.2120056l0.3249969-2.8000031
						c0.0693817-0.4877319,0.5210114-0.8268585,1.0087433-0.7574768c0.4678955,0.0665588,0.8026581,0.4865112,0.7632599,0.9574738
						l-0.3249969,2.8000031c-0.0472107,0.4085083-0.3678741,0.7316437-0.776001,0.7819977 M173.1740112,180.6419983
						c-0.4878998,0.0639954-0.935318-0.2796631-0.9992981-0.7675629c-0.0002441-0.0018158-0.000473-0.0036163-0.0007019-0.0054321
						c-0.0088654-0.0710602-0.0088654-0.1429443,0-0.2140045l0.3249969-2.8000031
						c0.0693817-0.4877319,0.5210114-0.8268585,1.0087433-0.7574768c0.4678955,0.0665588,0.8026581,0.4865112,0.7632599,0.9574738
						l-0.3269958,2.8059998c-0.0480499,0.4071808-0.3680573,0.7288513-0.7749939,0.779007L173.1740112,180.6419983z
						 M173.1440125,172.4530029c-0.3389587,0.0417023-0.6720123-0.1135712-0.8580017-0.3999939
						c-0.5-0.7680054-1.0299988-1.5249939-1.5839996-2.253006c-0.2857208-0.4013062-0.1920319-0.9582672,0.2092896-1.2440033
						c0.3829193-0.2726288,0.9116821-0.2013092,1.2087097,0.1630096c0.5829926,0.7630005,1.1419983,1.5590057,1.6649933,2.3659973
						c0.266449,0.4136963,0.1470947,0.9650726-0.2666168,1.2315369c-0.113266,0.0729523-0.2416229,0.119278-0.3753815,0.1354675
						L173.1440125,172.4530029z M167.7540131,165.9410095c-0.2656403,0.0318909-0.5317078-0.056076-0.7259979-0.2400055
						c-0.6620026-0.6320038-1.3560028-1.2449951-2.0670013-1.8240051c-0.393219-0.2968597-0.4713593-0.8562775-0.1744995-1.2494965
						s0.8562775-0.4713593,1.2494965-0.1744995c0.019165,0.0139465,0.0375366,0.0289612,0.0549927,0.0449982
						c0.7449951,0.6080017,1.4730072,1.2510071,2.1690063,1.9149933c0.3554382,0.3403015,0.3677216,0.9043274,0.02742,1.2597656
						c-0.1421814,0.1484985-0.3313446,0.2432709-0.5354156,0.2682343L167.7540131,165.9410095z M161.0080109,160.8410034
						c-0.1959534,0.0232391-0.3941345-0.0185699-0.5639954-0.1190033c-0.7879944-0.4669952-1.5999908-0.9120026-2.4219971-1.3220062
						c-0.4401703-0.2209167-0.6179047-0.7568207-0.3970032-1.1970062c0.2209167-0.4401703,0.7568359-0.6179047,1.1970062-0.3969879
						c0.8610077,0.4279938,1.7129974,0.8929901,2.5390015,1.3849945c0.4232635,0.2510071,0.5628967,0.7975922,0.3119049,1.2208557
						c-0.1412048,0.2381134-0.3850708,0.3970642-0.6599121,0.4301453"/>
					<path id="Tracé_5691" class="st12" d="M170.4110107,204.4219971c-0.0700531,0.0087891-0.1409454,0.0087891-0.2109985,0
						c-0.487854-0.0553131-0.838501-0.4956512-0.7831726-0.9835052c0.0000458-0.0005035,0.0001068-0.0009918,0.0001678-0.0014954
						l0.1569977-1.3269958c0.0693817-0.4877319,0.5210114-0.8268585,1.0087433-0.7574768
						c0.4678955,0.0665588,0.8026581,0.4865112,0.7632599,0.9574738l-0.1549988,1.3269958
						c-0.0480957,0.4088287-0.3694305,0.7318115-0.7779999,0.7819977"/>
					<path id="Tracé_5692" class="st267" d="M159.6380005,83.75c-0.1049042,0.0129013-0.2112579,0.0068054-0.3139954-0.0179977
						c-15.8470001-3.7580032-14.5720062-11.0820007-14.5090027-11.3919983
						c0.1081238-0.480629,0.5854034-0.7826004,1.0660248-0.674469c0.4595947,0.1033936,0.759552,0.5463333,0.684967,1.011467
						c-0.0179901,0.1180038-0.7740021,6.0139999,13.1710052,9.3210068c0.4781952,0.1161041,0.7717285,0.5978775,0.6556091,1.0760727
						c-0.0873566,0.3598328-0.3881683,0.6281204-0.7556152,0.6739273L159.6380005,83.75z"/>
					<path id="Tracé_5693" class="st13" d="M144.651001,219.5740051c-0.0967255,0.0113831-0.1946716,0.0070038-0.2899933-0.0130157
						l-93.1100082-19.3249969c-6.65625-1.3756104-12.3699341-5.6105652-15.6219978-11.5789795
						c-0.2355499-0.432724-0.0757141-0.9744568,0.3569984-1.2100067c0.4327164-0.2355499,0.974453-0.0757141,1.2099991,0.3569946
						l0,0c3.0019531,5.5084686,8.2755203,9.417099,14.4189987,10.6869965l93.1080093,19.3289948
						c0.4816742,0.0979767,0.7927246,0.5678711,0.6947479,1.0495453c-0.0765839,0.3765106-0.3861694,0.661377-0.767746,0.7064514
						L144.651001,219.5740051z"/>
					<path id="Tracé_5694" class="st13" d="M197.1679993,230.4810028
						c-0.0967255,0.0113831-0.1946716,0.0070038-0.2899933-0.0130005l-40.6699982-8.4440002
						c-0.4818573-0.1005096-0.7910156-0.5726318-0.6904907-1.0544891c0.1005096-0.4818726,0.5726318-0.7910156,1.0544891-0.690506
						l0,0l40.6699982,8.4440002c0.4815216,0.1013794,0.7897034,0.5739288,0.6883087,1.0554504
						c-0.0783234,0.3720245-0.3840637,0.6533661-0.7613068,0.7005463"/>
					<path id="Tracé_5695" class="st13" d="M234.9690094,237.1230011
						c-2.5272675,0.3079834-5.0879517,0.1992188-7.5800018-0.3220215L207.57901,232.687973
						c-0.4804535-0.1063385-0.7837219-0.5820618-0.6773682-1.0625153c0.1023254-0.4622345,0.5482788-0.7637482,1.0153656-0.6864777
						h0.0050049l0.0200043,0.0050049l19.8099976,4.1130066c6.4753571,1.3632202,13.2164612-0.3618774,18.2409973-4.6679993
						c0.3576813-0.3379364,0.9216156-0.3219452,1.259552,0.0357513c0.3379517,0.3576813,0.3219452,0.9216003-0.0357361,1.259552
						c-0.0078125,0.0073853-0.0157471,0.0146027-0.023819,0.0217133l-0.0440063,0.0389862
						c-3.4450073,2.9481812-7.6811829,4.8177948-12.1809998,5.3760071"/>
					<path id="Tracé_5696" class="st19" d="M184.5659943,113.5619965
						c-0.0952148,0.0120468-0.1917267,0.0090103-0.2859955-0.0090027l-11.4750061-2.3160019
						c-0.4817047-0.0950165-0.795166-0.5625381-0.7001495-1.0442429c0.0000458-0.0002518,0.0001068-0.0005035,0.0001526-0.0007553
						v-0.0090027l1.6900024-8.3440018c0.0968781-0.4835815,0.5674286-0.7970734,1.0510101-0.7001953
						c0.0003357,0.0000687,0.0006561,0.0001297,0.0009918,0.0001984l0,0l8.7810059,1.7689972l0.8619995-4.2539978
						l-4.2290039-0.8519974c-0.4826508-0.0958939-0.7961884-0.5648956-0.7002869-1.0475464
						c0.0000916-0.0004883,0.0001984-0.0009689,0.0002899-0.0014572v0.0000076l0.8739929-4.3170013
						c0.119873-0.4789658,0.6053314-0.7700729,1.0843048-0.6501923c0.447525,0.1120071,0.7363281,0.5461502,0.6667023,1.0021896
						l-0.6999969,3.4440002l4.2290039,0.8529968c0.482193,0.0953522,0.7957916,0.5635452,0.7004395,1.0457382
						c-0.0001373,0.0007553-0.0002899,0.0015106-0.0004425,0.0022583v0.0049973l-1.2160034,6
						c-0.0968781,0.4835815-0.5674286,0.7970734-1.0510101,0.7001953c-0.0003357-0.0000687-0.0006561-0.0001297-0.0009918-0.0001984
						l0,0l-8.7810059-1.7689972l-1.3410034,6.5999985l10.6000061,2.137001
						c0.4824371,0.0969772,0.7949066,0.5666885,0.6979218,1.0491257c-0.0757294,0.3767319-0.3844604,0.662468-0.7659149,0.7088776
						L184.5659943,113.5619965z"/>
					<path id="Tracé_5697" class="st267" d="M112.8180008,198.026001
						c-0.1274643,0.0163116-0.2568054,0.0098877-0.3820114-0.0189972l-4.0379944-0.9290009
						c-0.5866776-0.1421661-0.9470139-0.7330017-0.8048553-1.3196564c0.1399155-0.5774231,0.7154465-0.9373169,1.295845-0.8103485
						l4.038002,0.9279938c0.5882568,0.1329346,0.9573669,0.7175903,0.8244247,1.3058472
						c-0.1022873,0.4526062-0.4794388,0.791153-0.9404221,0.8441467L112.8180008,198.026001z"/>
					<path id="Tracé_5698" class="st267" d="M112.1429977,201.875c-0.1274567,0.0163116-0.2567978,0.0098877-0.3820038-0.0189972
						l-4.038002-0.9279938c-0.5912247-0.1220551-0.9715576-0.7002869-0.8495026-1.2915039s0.7002792-0.9715576,1.2915039-0.8495026
						l0.0479965,0.0110016l4.038002,0.9279938c0.5882568,0.1329346,0.9573669,0.7175903,0.8244247,1.3058472
						c-0.1022873,0.4526062-0.4794388,0.791153-0.9404221,0.8441467L112.1429977,201.875z"/>
					<path id="Tracé_5699" class="st19" d="M152.178009,99.5979996c-0.4883575,0.0606003-0.9333496-0.2861557-0.9939575-0.774498
						c-0.0000153-0.0001678-0.0000305-0.0003357-0.000061-0.0005035c-0.0113831-0.0980682-0.0070038-0.1973267,0.0130005-0.2939987
						l0.9860077-4.6360016l-3.9260101-0.8300018c-0.4812469-0.1015625-0.7894745-0.5735168-0.6889954-1.0550003l1.1849976-5.5650024
						c0.1122131-0.4796906,0.592041-0.7775879,1.0717316-0.6653671c0.4652252,0.1088257,0.762085,0.5649109,0.6732788,1.0343704
						l-1,4.6940002l3.9249878,0.8300018c0.4803619,0.1001434,0.7887573,0.5705566,0.6890106,1.0510025l-1.1699982,5.5080032
						c-0.0798187,0.3724899-0.3869019,0.6534805-0.7649994,0.6999969"/>
					<path id="Tracé_5700" class="st19" d="M167.1920013,149.3840027
						c-0.4872742,0.0646057-0.9346466-0.2780304-0.9992676-0.7653046c-0.0002441-0.0018921-0.0004883-0.0037994-0.0007324-0.0057068
						c-0.0123749-0.0965729-0.0090027-0.1945038,0.0099945-0.2899933l1.1239929-5.5169983
						c0.0955658-0.4827118,0.5643616-0.7965546,1.0470886-0.7009888c0.0016327,0.0003204,0.0032806,0.0006561,0.0049133,0.0009918
						l0,0l3.9329987,0.8000031l0.9570007-4.6999969c0.0977478-0.4829712,0.5685272-0.7952576,1.0514984-0.6975098
						c0.4829712,0.0977631,0.7952423,0.5685272,0.6974945,1.0514984l-1.1360016,5.572998
						c-0.0962219,0.4831543-0.5659027,0.796814-1.0490417,0.700592c-0.0009918-0.0001984-0.0019684-0.0003967-0.0029602-0.0005951
						l0,0l-3.9329987-0.8000031l-0.9490051,4.6460114c-0.0786438,0.3712311-0.3835602,0.6520691-0.7599945,0.6999969"/>
					<path id="Tracé_5701" class="st267" d="M133.6419983,97.4029999c0,0,0.779007-0.4560013,1.8799896-1
						c0.5619965-0.3130035,1.233017-0.6289978,1.8950043-0.9540024c0.3679962-0.1949997,0.7709961-0.387001,1.1259918-0.6060028
						c1.4400177-0.7659988,2.6840057-1.288002,2.6840057-1.288002c0.2779999-0.0790024,0.3679962-0.4720001,0.269989-0.8239975
						c-0.0577087-0.331459-0.3663635-0.5585556-0.6999817-0.5149994c-1.0138855,0.2578201-2.0102386,0.5801392-2.983017,0.9649963
						c-0.426178,0.1544266-0.8400269,0.3409576-1.2379913,0.5579987c-0.6633453,0.3370667-1.3067322,0.7120209-1.927002,1.1230011
						c-0.6367798,0.404541-1.2445679,0.8529587-1.8190002,1.3420029c-0.2610016,0.1669998-0.2400055,0.5749969-0.0279999,0.8720016
						c0.2710114,0.3639984,0.6569977,0.5,0.845993,0.3290024"/>
					<path id="Tracé_5702" class="st267" d="M183.2559967,213.2489929
						c-0.1275177,0.0160522-0.2568665,0.0092773-0.3820038-0.0200043l-4.0390015-0.9400024
						c-0.5867615-0.1417542-0.947525-0.7323303-0.8057861-1.3190918c0.1405029-0.5815887,0.7224884-0.9421234,1.3057861-0.8089142
						l4.0390015,0.9400024c0.5875244,0.1361237,0.9534607,0.7227631,0.817337,1.3103027
						c-0.1037598,0.4478607-0.4769135,0.7827606-0.9333344,0.8376923L183.2559967,213.2489929z"/>
					<path id="Tracé_5703" class="st267" d="M184.8939972,217.45401c-0.1275177,0.016037-0.2568665,0.0092621-0.3820038-0.0200043
						l-4.0390015-0.9400024c-0.588501-0.1343994-0.9566193-0.7204132-0.8222198-1.3089142s0.7204132-0.9566193,1.3089142-0.8222198
						c0.0044403,0.0010223,0.0088806,0.0020599,0.0133057,0.0031281l4.0390015,0.9400024
						c0.5875244,0.1361237,0.9534607,0.7227631,0.817337,1.3103027c-0.1037598,0.4478607-0.4769135,0.7827606-0.9333344,0.8376923
						L184.8939972,217.45401z"/>
					<path id="Tracé_5704" class="st13" d="M186.5220032,73.1230011c0.147995,3.6119995-7.1239929,6.1149979-15.3999939,5.5999985
						s-14.8090057-3.8600006-14.57901-7.4690018s14.0230103-7.5329971,22.3000031-7.0169983
						c8.2769928,0.5160065,7.5059967,4.6419983,7.673996,8.8880005"/>
					<path id="Tracé_5705" class="st13" d="M156.3569946,71.3939972
						c-0.3000031-3.5999985,6.1560059-7.0849991,14.4240112-7.7709999s15.2109985,1.6759987,15.5090027,5.2739983
						s-6.1560059,7.0849991-14.4219971,7.7710037c-8.2659912,0.685997-15.2109985-1.677002-15.5100098-5.2740021"/>
					<path id="Tracé_5706" class="st13" d="M156.2140045,67.3570023c-0.8950043-0.1999969-3.4210052-3.6710014-4.1260071-6.2999992
						c-2.4840851-9.001358-3.5362854-18.3375397-3.1179962-27.6660004
						c0.8210754-10.8289318,9.2283936-19.5427895,20.0209961-20.7509995c0.3560028-0.0360003-0.3589935,0.0200005,0,0
						c12.0110016-0.7290001,22.8049927,6.1189995,23.7359924,18.1000004
						c0.6544647,8.6307507,0.6183624,17.2999973-0.1080017,25.9249973c-0.7740021,6.7999992-5.253006,9.1329956-6.4219971,9.5559998
						c0,0,0.223999,2.125,0.322998,3.3710022c0.0773468,0.8744583-0.4815674,1.6791611-1.3280029,1.9120026
						c-8.8424835,1.8010635-17.8731079,2.5063629-26.8880005,2.0999985
						c-0.9194489-0.0276489-1.6665649-0.7509308-1.723999-1.6689987l-0.3659973-4.572998L156.2140045,67.3570023z"/>
					<path id="Tracé_5707" class="st12" d="M187.2819977,41.6319962c-0.1323853,0.4859505-0.1847382,0.9902191-0.1549988,1.493
						c0.0172424,0.5152702,0.1133575,1.0248566,0.2850037,1.5110016c0.0138092,0.8924942,0.7485046,1.604805,1.6409912,1.5909996
						c0.8925018-0.0138092,1.6048126-0.7485085,1.5910034-1.6409988l0,0
						c-0.0009003-0.0144119-0.0025787-0.0287666-0.0050049-0.0429993c0.1322327-0.4852943,0.1845703-0.988884,0.1549988-1.4910011
						c-0.0165558-0.515995-0.1126862-1.0263405-0.2850037-1.5130005c-0.0436707-0.8914223-0.801712-1.5786667-1.6931305-1.5349998
						c-0.8665009,0.0424461-1.5448914,0.7615051-1.5368652,1.6290016L187.2819977,41.6319962z"/>
					<path id="Tracé_5708" class="st12" d="M170.5149841,42.6449966c-0.1317291,0.4853897-0.184082,0.9888954-0.1549988,1.4910011
						c0.0172424,0.5152702,0.1133575,1.0248604,0.2850037,1.5110054c0.0082703,0.8924484,0.7384338,1.6092415,1.6308746,1.6009903
						s1.6092377-0.7384148,1.6009827-1.630867c-0.0001984-0.0213852-0.0008087-0.0427666-0.0018616-0.0641251
						c0.13237-0.4852753,0.1847229-0.988884,0.1549988-1.4910049c-0.0166321-0.515007-0.1127472-1.024353-0.2850037-1.5099983
						c-0.0436707-0.8914185-0.801712-1.5786667-1.6931152-1.5349998c-0.8665161,0.04245-1.5449066,0.7615051-1.5368805,1.6290016
						V42.6449966z"/>
					<path id="Tracé_5709" class="st12" d="M181.6669922,58.4269981c2.1529999-0.0779991,4.2810211-2.6069984,4.2190094-3.368
						c-0.0517731-0.7446861-0.6973114-1.3064919-1.4420166-1.2550011l0,0h-0.0279999c0,0-1.0529938-0.1360016-2.3759918-0.1930008
						c-0.347229-0.0186272-0.6953735-0.0089264-1.0410004,0.0290031c-0.56427,0.067894-1.1241913,0.1680603-1.677002,0.2999992
						c-0.9669952,0.2449989-1.6629944,0.4570007-1.6629944,0.4570007c-0.7462921,0.0507469-1.310318,0.6966629-1.2600098,1.4430008
						v0.0250015c0.0599976,0.7630005,2.3950043,2.6590004,5.2660065,2.5559998"/>
					<path id="Tracé_5710" class="st12" d="M201.1210022,16.8859997c-0.427002-3.7060003-1.7899933-8.1129999-5.6999969-10.066
						c-5.9539948-2.9730003-6.3880005-2.4500003-12.0650024-1.994c-4.3000031,0.3439999-9.5169983-2.3239999-11.9299927,0.7880001
						c-0.6844788,0.8971696-1.7475433,1.4246368-2.8760071,1.427c-0.5059967,0-1.0330048,0.0180001-1.6470032,0.0679998
						c-7.1309967,0.572-12.0050049,3.4389992-14.4400024,8.1769991c-0.426239,0.8255367-1.1681061,1.4437008-2.0570068,1.7140007
						c-2.6459961,0.8099995-3.9899902,3.6709995-4.5269928,5.5429993
						c-2.1589966,7.5209999,0.0939941,20.6060028,0.0939941,20.6060028
						c0.7830048,5.0499992,2.355011,9.6910019,4.8740082,12.8710022c0,0,3.2639923-1.8670006,4.0999908-4.7179985
						c0.0575867-0.1818542,0.1033478-0.3672409,0.1370087-0.5550003c0.0667114-0.3626633,0.0942078-0.7314529,0.0820007-1.0999985
						c-0.1580048-3.5610008-1.9290009-7.4570007-1.0449982-9.4340019c0.2782135-0.6195183,0.8451996-1.0610428,1.5139923-1.1790009
						c0.4031982-0.1108055,0.8280792-0.1163139,1.2340088-0.0159988c1.6660004,0.4420013,2.1940002,2.9199982,1.9290009,5.243
						c-0.4550018,3.9259987,3.6439972,2.4140015,3.2440033-1.8069992c-0.5-5.3230019-0.8190002-9.7639999,1.6820068-13.3880005
						c2.3600006,0.4799995,5.1000061,1.1140003,7.8099976,0.2169991c1.9582672-0.6669579,3.9689636-1.1687107,6.0110016-1.5
						c2.8149567-0.5916977,5.7357635-0.4362106,8.4720001,0.4510002c2.026001,0.7511024,4.1904297,1.0553837,6.3450012,0.8920002
						l0.1710052,1.0189991c0.1774597,1.059248,0.2956543,2.1275787,0.3540039,3.2000008l0.0399933,0.7319984
						c0.0480042-0.0149994,0.6679993-0.2159996,0.9400024-0.3390007c5.2429962-2.2700005,8.026001-10.1490002,7.2550049-16.8549995"
						/>
					<path id="Tracé_5711" class="st12" d="M200.8619995,23.1730003
						c-3.2443085-15.2367229-18.2261505-24.9584942-33.4628754-21.71418
						c-15.1604156,3.2280641-24.8756561,18.0842667-21.755127,33.2671814L169.923996,25.552L200.8619995,23.1730003z"/>
					<path id="Tracé_5712" class="st12" d="M183.4069977,66.2040024c0,0-0.4940033-0.0460052-1.423996-0.0330048
						c-0.6000061,0.0090027-1.3119965,0.0190048-2.1320038,0.0870056c-0.6560059,0.0649948-1.3690033,0.185997-2.1300049,0.3079987
						c-0.4909973,0.0599976-0.927002,0.1769943-1.4730072,0.2939987c-0.6375427-0.0210876-1.171463,0.4786453-1.1925507,1.116188
						c-0.0196838,0.5953903,0.4166718,1.1080856,1.0075531,1.1838074c0.5500031,0.1559982,1.0449982,0.3120041,1.5939941,0.413002
						c0.7943268,0.1446152,1.6038666,0.187294,2.4089966,0.1269989c0.813324-0.0814056,1.6169739-0.2404633,2.3999939-0.4749985
						c0.533844-0.1623764,1.0451813-0.3911667,1.5220032-0.6809998c0.615509-0.1736755,0.9736938-0.8134384,0.8000183-1.4289551
						c0-0.0000153-0.0000153-0.0000305-0.0000153-0.0000458l0,0c-0.0986938-0.6100388-0.6728363-1.0248718-1.2830048-0.927002
						c-0.0339813,0.0028458-0.0675354,0.0095596-0.1000061,0.0200043L183.4069977,66.2040024z"/>
					<path id="Tracé_5713" class="st12" d="M200.6080017,14.0550003
						c-1.3240204-6.3260002-7.2870178-18.0750008-33.1300201-12.6750002s16.4839935,17.8309975,16.4839935,17.8309975
						L200.6080017,14.0550003z"/>
					<path id="Tracé_5714" class="st19" d="M195.3040009,45.1640015c-0.0570068,0.0079994-0.1130066,0.0130005-0.1710052,0.0149994
						l-47.9550018,2.2319984c-1.2290955,0.0583382-2.2727814-0.8907547-2.331131-2.1198616
						c-0.0566864-1.1945534,0.839798-2.2208099,2.0311279-2.3251381h0.0930023l47.9560089-2.230999
						c1.2269897-0.0767517,2.2838745,0.8557014,2.3606262,2.0826874c0.0743561,1.188797-0.8002777,2.2254753-1.9846191,2.352314
						L195.3040009,45.1640015z"/>
					<path id="Tracé_5715" class="st13" d="M159.3280029,46.2269974c-0.3743134-0.3510323-0.5723419-0.8508606-0.5400085-1.362999
						c-0.0032806-0.5677299,0.0240784-1.1352234,0.0820007-1.7000008l-0.0359955-0.8429985l-1.9570007-0.8919983
						l-2.9530029,1.2700005l1.2440033,5.9389992l5.6069946-1.6119995c-0.5370636-0.1489334-1.0321045-0.4207649-1.4459991-0.7939987
						"/>
					<path id="Tracé_5716" class="st19" d="M191.4300079,50.6559982c-0.2160034,0.026001-0.4329987,0.0439987-0.6519928,0.0540009
						l-6.3999939,0.2480011l-5.7570038,0.2169991l-6.4250031,0.2490005c-4.34758,0.1834259-8.0206909-3.1922913-8.2041168-7.539875
						c-0.1673126-3.9654312,2.6410828-7.4362602,6.5541229-8.1001244c0.1230011-0.0229988,0.2640076-0.0439987,0.3999939-0.0599976
						c0.2140045-0.026001,0.4309998-0.0440025,0.651001-0.052002l2.322998-0.0900002l2.4649963-0.0929985l13.8000031-0.531002
						c4.3490448-0.174736,8.0162964,3.2092133,8.19104,7.5582581c0.1299286,3.2338295-1.730423,6.2183495-4.69104,7.5257416
						c-0.5044403,0.2191811-1.0297852,0.3866997-1.5679932,0.5c-0.220993,0.0400009-0.4470062,0.0839996-0.6759949,0.1119995"/>
					<path id="Tracé_5717" class="st12" d="M171.0479889,36.6119995c0.1900024-0.0239983,0.3820038-0.0389977,0.5749969-0.0459976
						l2.3190002-0.0890007l2.4649963-0.0930023l9.25-0.355999l4.5480042-0.1780014
						c3.8574982-0.1514816,7.1074219,2.8528366,7.2588959,6.7103348c0.1125183,2.8652-1.5362244,5.5085106-4.1588898,6.6676674
						c-0.4465485,0.1947975-0.9115601,0.3442154-1.3880005,0.4459991c-0.1999969,0.0400009-0.3999939,0.0740013-0.6000061,0.0999985
						s-0.3829956,0.0390015-0.5789948,0.0460014l-6.3999939,0.2480011l-2.4640045,0.0929985l-3.2879944,0.1240005
						l-6.4250031,0.2459984c-3.8568268,0.154541-7.1086731-2.8467484-7.2632141-6.7035713
						c-0.1404724-3.5055542,2.3397369-6.5719833,5.7972107-7.1674271c0.1170044-0.0200005,0.2359924-0.0390015,0.3569946-0.0540009
						 M170.8349915,34.8379974c-0.1529999,0.019001-0.3000031,0.0410004-0.4539948,0.0680008
						c-4.7733307,0.8281517-7.9715424,5.3690529-7.1433868,10.1423874c0.7517853,4.3331223,4.5959778,7.4398308,8.990387,7.2656136
						l6.4250031-0.2480011l3.2859955-0.1240005l0.1519928-0.0050011l2.3130035-0.0870018l6.3999939-0.2490005
						c0.2420044-0.0089989,0.4859924-0.0289993,0.727005-0.0589981s0.5-0.0719986,0.7510071-0.1240005
						c0.5959473-0.1267509,1.1775513-0.3133659,1.7359924-0.5569992c4.4338074-1.9510384,6.4464874-7.1269798,4.4954529-11.5607872
						c-1.4526062-3.3010826-4.777832-5.3764992-8.3814545-5.2312126l-4.5480042,0.1720009l-9.25,0.3560028l-2.4600067,0.0919991
						l-0.1499939,0.0049973l-2.1710052,0.0839996c-0.2389984,0.0090027-0.4850006,0.0279999-0.723999,0.0569992
						L170.8349915,34.8379974z"/>
					<path id="Tracé_5718" class="st267" d="M193.3119965,49.2280006
						c-0.8120728,0.3555183-1.6832733,0.5566177-2.5690002,0.5929985l-6.3999939,0.2480011l-7.9320068-13.6889992
						l9.2510071-0.3560028L193.3119965,49.2280006z"/>
					<path id="Tracé_5719" class="st267" d="M181.8730011,50.1580009l-3.2880096,0.1240005l-7.8939819-13.6230011
						c0.3079071-0.0552864,0.6193542-0.088707,0.9319916-0.1000023l2.3180084-0.0890007L181.8730011,50.1580009z"/>
					<path id="Tracé_5720" class="st12" d="M191.3479919,49.9920006c-0.1999969,0.0250015-0.3999939,0.0410004-0.6000061,0.0489998
						l-18.5890045,0.7120018c-3.9798584,0.1599197-7.3358307-2.9367561-7.4957428-6.9166222
						c-0.1454163-3.6186981,2.415451-6.7840118,5.9847412-7.397377c0.3175812-0.0559082,0.6387177-0.089325,0.9609985-0.1000023
						l18.5870056-0.711998c3.9811859-0.1543884,7.3337402,2.9478493,7.4881287,6.9290428
						c0.1145477,2.9541168-1.5848846,5.6791382-4.2881317,6.8759575c-0.4603729,0.2015839-0.9402313,0.3553886-1.4320068,0.4589996
						c-0.2059937,0.0439987-0.4149933,0.0789986-0.6210022,0.0999985 M171.071991,36.8260002
						c-0.1170044,0.0139999-0.2310028,0.0309982-0.3439941,0.0519981c-3.6826019,0.6403618-6.148819,4.1448174-5.5084686,7.8274193
						c0.5805206,3.3384171,3.5404205,5.733017,6.9264679,5.6035843l18.5870056-0.7109985
						c0.3851624-0.0161324,0.7684021-0.0632858,1.1459961-0.1409988c0.4599152-0.0978889,0.9085999-0.2426453,1.3390045-0.4319992
						c3.4213409-1.5039825,4.9756622-5.4967384,3.4716797-8.9180756c-1.1214905-2.5511971-3.6922913-4.1539841-6.4766846-4.0379295
						l-18.5890045,0.7109985c-0.186554,0.0039024-0.3727875,0.0172539-0.5579987,0.0400009"/>
					<path id="Tracé_5721" class="st19" d="M276.3330078,252.822998c-2.0698853,0.249115-4.1672058,0.1398621-6.2000122-0.322998
						c-3.7912903-0.7862549-7.3587341-2.4105682-10.4410095-4.7539978c-2.719574-2.0916595-5.873642-3.5467072-9.2299957-4.2579956
						c-3.4928131-0.6959381-7.0862885-0.7197113-10.5879974-0.0700073
						c-4.0804749,0.7038269-8.250946,0.7085724-12.3330078,0.0140076L16.3920002,198.9039917
						c-6.5640841-1.2471008-12.2320366-5.3521881-15.4639997-11.1999969c-0.4787804-0.8284607-0.7779244-1.7483826-0.878-2.6999969
						c-0.4475566-3.6336212,2.1304393-6.9439087,5.7630005-7.3999939c1.6806474-0.2713013,3.3982763,0.1708832,4.7389994,1.2200012
						c1.241395,1.0775757,2.1345367,2.4997864,2.566,4.0859985c2.044836-1.7150421,4.954565-1.9381866,7.2369995-0.5549927
						c1.9233418,1.3598328,2.8642025,3.7256927,2.3999996,6.0350037c2.1478004-0.8008423,4.5600357,0.0644989,5.7089996,2.0480042
						c0.2466412,0.4239044,0.1029472,0.9674683-0.3209496,1.2141113s-0.9674759,0.102951-1.2141171-0.3209381
						c-0.0040741-0.0070038-0.0080528-0.0140686-0.0119343-0.0211792c-0.0090008-0.0149994-0.0179996-0.0299988-0.0249996-0.0449982
						c-0.3585644-0.5983582-0.924942-1.0437012-1.5909996-1.2510071c-1.6700001-0.6410065-3.6650009,0.9880066-3.6849995,1.0059967
						c-0.3759861,0.3157501-0.9367485,0.266922-1.2524948-0.1090698c-0.2528782-0.3011169-0.2778931-0.732605-0.0615044-1.0609283
						c1.3317032-1.9327698,0.9256458-4.568634-0.9260006-6.0110016c-2.0690536-1.1775055-4.6962957-0.5563812-6.0190001,1.4230042
						c-0.2691622,0.4099731-0.819705,0.5241089-1.2296705,0.2549438c-0.2242603-0.1472321-0.369935-0.38797-0.3963299-0.6549377
						c-0.2098055-1.7681427-1.0190735-3.411026-2.2930002-4.6549988c-0.9678907-0.7463684-2.2053809-1.0505676-3.4089999-0.8379974
						c-2.6593158,0.3328552-4.5469737,2.756073-4.2189999,5.4160004c0.0709964,0.6957855,0.2829719,1.3698273,0.6230001,1.9810028
						c0.0109999,0.0189972,0.0250001,0.0410004,0.036,0.0619965c2.9829028,5.4012146,8.2197886,9.1901855,14.283,10.3339996
						l211.1289978,44.522995c3.8963013,0.6535034,7.8750763,0.6433716,11.7680054-0.0299988
						c3.7053375-0.6836395,7.5074615-0.6496887,11.1999969,0.1000061c3.5806274,0.7629547,6.9472656,2.3111877,9.8569946,4.5330048
						c2.8913879,2.2145233,6.2465515,3.7457886,9.8139954,4.4790039c4.5175171,1.0676575,9.2759399,0.0841217,13-2.6869965
						c0.3971863-0.28862,0.9531555-0.2006073,1.2417603,0.196579c0.2571411,0.3538666,0.2186584,0.8422241-0.0907593,1.1514282
						c-2.4159241,1.875946-5.3017273,3.0505371-8.3410034,3.3950043"/>
					<path id="Tracé_5722" class="st19" d="M105.1010056,270.2789917
						c-0.1000214,0.0125122-0.2014389,0.0081177-0.3000031-0.0130005
						c-4.8842239-0.9206543-9.4046402-3.2150574-13.0309982-6.6139832
						c-3.396843-3.2119446-7.6487579-5.3748779-12.2450027-6.2290039c-4.5329895-1.0830688-9.2830811-0.8249512-13.6720047,0.742981
						c-4.6752205,1.6472473-9.725399,1.9158936-14.5489998,0.7740173c-4.8887787-0.921051-9.4132385-3.2179718-13.0419998-6.6210022
						c-3.3967361-3.2118835-7.6487389-5.374527-12.244997-6.2279968c-0.4939537-0.1069183-0.8091793-0.5922546-0.7059994-1.0870056
						c0.0985336-0.4900055,0.574543-0.8082428,1.0650005-0.7120056h0.0090008
						c4.886652,0.9199524,9.409359,3.2151337,13.0369987,6.6159973c3.3965759,3.2128754,7.6484795,5.3768311,12.2449989,6.2319946
						c4.5330887,1.0826721,9.2831688,0.8241882,13.6720047-0.7440186c4.6752243-1.6472168,9.7253952-1.9158783,14.548996-0.7739868
						c4.8861084,0.9210205,9.4080582,3.2168579,13.0350037,6.617981c3.3966675,3.2125549,7.6485748,5.3761902,12.2450027,6.2310181
						c0.4928131,0.1078796,0.8074036,0.5917969,0.7060013,1.0859985c-0.0776901,0.3824158-0.3907928,0.6725464-0.7779999,0.7209778"
						/>
					<path id="Tracé_5723" class="st12" d="M69.7040024,95.6319962c0,0-1.5439987-0.4649963-3.6450043-1.0719986
						c-1.1069946-0.2809982-2.3800011-0.6500015-3.6609993-0.9560013c-0.7220001-0.1650009-1.5-0.3420029-2.2299995-0.4520035
						c-2.8520012-0.5419998-5.192997-0.9520035-5.192997-0.9520035c-0.4560242-0.1114502-0.91605,0.1678848-1.0274963,0.623909
						c-0.0001678,0.0007019-0.0003357,0.0013962-0.0005074,0.0020981c-0.003746,0.0124741-0.0067482,0.0251617-0.0089951,0.038002
						c-0.0941086,0.4868164,0.1999893,0.9646759,0.6769981,1.0999908c0,0,2.317997,0.6999969,5.0829964,1.4639969
						c0.7159996,0.2250061,1.4399986,0.3909988,2.2210007,0.564003c1.2770004,0.3090057,2.5589981,0.5599976,3.6740036,0.7850037
						c2.1179962,0.4310074,3.7439957,0.6800003,3.7439957,0.6800003c0.4552002,0.1124878,0.9153976-0.165329,1.0278854-0.6205215
						c0.0000381-0.0001678,0.0000763-0.0003204,0.0001144-0.000473c0-0.0140076,0.0080032-0.029007,0.0100021-0.0430069
						c0.1270599-0.480072-0.1383057-0.9767609-0.6080017-1.1379929l-0.0670013-0.0180054"/>
					<path id="Tracé_5724" class="st12" d="M101.7809982,79.7089996c0,0-3.060997-0.7840042-7.2160034-1.8190002
						c-2.1900024-0.5050049-4.7070007-1.1310043-7.2259979-1.6920013c-1.4309998-0.3079987-2.9599991-0.6380005-4.3860016-0.8850021
						c-5.5999985-1.0929947-10.2159958-1.9539948-10.2159958-1.9539948
						c-0.9830017-0.2350006-1.7830048,0.0769958-1.9290009,0.5629959c-0.1500015,0.5490036,0.5889969,1.1230011,1.4639969,1.3390045
						c0,0,4.5920029,1.1729965,10.0630035,2.5c1.4199982,0.3720016,2.8450012,0.6819992,4.3799973,1.0099945
						c2.5189972,0.5620041,5.0439987,1.0620041,7.237999,1.5c4.1699982,0.8430023,7.3580017,1.3949966,7.3580017,1.3949966
						c0.9840012,0.2340012,1.7839966-0.0749969,1.9290009-0.5619965c0.1529999-0.6119995-0.5780029-1.25-1.4589996-1.4000015"/>
					<path id="Tracé_5725" class="st12" d="M112.0750046,73.2549973c0,0-1.4120026-0.4000015-3.3320007-0.9209976
						c-1.0130005-0.2439957-2.1760025-0.5579987-3.3450012-0.8199997c-0.6610031-0.1419983-1.3730011-0.2910004-2.0400009-0.3820038
						c-2.5999985-0.4609985-4.7519989-0.8089981-4.7519989-0.8089981c-0.4236069-0.1021729-0.8498306,0.1583939-0.9520035,0.5820007
						v0.0049973c-0.0850906,0.432045,0.1858063,0.8542786,0.6139984,0.9570007c0,0,2.1200027,0.5999985,4.6490021,1.2580032
						c0.6559982,0.1920013,1.3180008,0.3339996,2.0289993,0.4850006c1.1709976,0.2630005,2.336998,0.4720001,3.3619995,0.6679993
						c1.9369965,0.3679962,3.4250031,0.5739975,3.4250031,0.5739975c0.4228745,0.1028366,0.8490448-0.1566086,0.9518814-0.5794907
						c0.0000381-0.0001678,0.0000839-0.0003433,0.0001221-0.0005112v-0.0059967
						c0.1156616-0.4261627-0.1291046-0.8669205-0.552002-0.9940033l-0.0619965-0.0149994"/>
					<path id="Tracé_5726" class="st12" d="M124.9759979,25.5089989c0,0-2.5299988-0.6469994-5.9639969-1.5049992
						c-1.8119965-0.4179993-3.8899994-0.9360008-5.973999-1.3999996c-1.177002-0.2560005-2.4459991-0.5279999-3.625-0.7299995
						c-4.6299973-0.8999996-8.4459991-1.6119995-8.4459991-1.6119995c-0.8119965-0.1949997-1.4749985,0.0650005-1.5999985,0.4710007
						c-0.1259995,0.4570007,0.4860001,0.9360008,1.2099991,1.1170006c0,0,3.7910004,0.9740009,8.3170013,2.0690002
						c1.177002,0.309,2.3479996,0.5650005,3.6210022,0.8360004c2.0820007,0.4650002,4.1699982,0.8789997,5.9830017,1.243
						c3.447998,0.7000008,6.0839996,1.1520004,6.0839996,1.1520004c0.8130035,0.1930008,1.4759979-0.0669994,1.5999985-0.4710007
						c0.1279984-0.5100002-0.4759979-1.0400009-1.1999969-1.1650009"/>
					<path id="Tracé_5727" class="st12" d="M136.197998,18.9759998c0,0-1.4120026-0.3999996-3.3320007-0.9209995
						c-1.0139923-0.2420006-2.1759949-0.5570011-3.3430023-0.8199997c-0.6620026-0.1420002-1.375-0.2910004-2.0419998-0.382
						c-2.5999985-0.4610004-4.7519989-0.809-4.7519989-0.809c-0.4230957-0.1019306-0.8487091,0.1584263-0.9506454,0.581522
						c-0.0001144,0.0004921-0.0002365,0.0009842-0.000351,0.0014782l0,0
						c-0.0850906,0.4320393,0.1858063,0.8542747,0.6139984,0.9569988c0,0,2.1200027,0.6000004,4.6490021,1.2580013
						c0.6569977,0.1919994,1.3180084,0.3339996,2.029007,0.4850006c1.1719971,0.2609997,2.3369904,0.4720001,3.3619995,0.6669998
						c1.9369965,0.3689995,3.4250031,0.5750008,3.4250031,0.5750008c0.4228668,0.1028328,0.8490448-0.1566162,0.9518738-0.5794926
						c0.0000458-0.0001698,0.0000916-0.0003376,0.0001221-0.0005074v-0.0060005
						c0.1156769-0.4261627-0.1291046-0.8669224-0.552002-0.9940014l-0.0619965-0.0149994"/>
				</g>
			</g>
		</g>
	</g>
</g>
<g id="TEXTES_FR" class="st283">
</g>
<g id="TEXTES_GB">
</g>
<g id="Calque_5">
</g>
</svg>
