<?xml version="1.0" encoding="UTF-8"?>
<svg id="Calque_2" data-name="Calque 2" xmlns="http://www.w3.org/2000/svg" width="265" height="318.3333236" viewBox="0 0 265 318.3333236">
  <g id="Calque_5" data-name="Calque 5">
    <g>
      <circle id="Ellipse_442" data-name="Ellipse 442" cx="132.5" cy="165.4112865" r="132.5" style="fill: #fff;"/>
      <path id="Icon_awesome-check" data-name="Icon awesome-check" d="M176.644001,316.667287l-36.978001-36.9779968c-2.221384-2.2216415-2.2213839-5.8233566,0-8.0449982l8.0450004-8.0449982c2.2216396-2.221386,5.8233604-2.221386,8.0450001,0l24.9109993,24.9119949,53.3540039-53.3569984c2.2216415-2.221384,5.8233566-2.221384,8.0449982,0l8.0449982,8.0450001c2.2213821,2.2216396,2.2213821,5.8233604,0,8.0450001l-65.4220009,65.4229965c-2.2216415,2.2213821-5.8233566,2.2213821-8.0449982,0Z" style="fill: #44c400;"/>
      <g id="Groupe_2989" data-name="Groupe 2989">
        <g id="Groupe_2988" data-name="Groupe 2988">
          <path id="Tracé_8343" data-name="Tracé 8343" d="M243.196991,141.6662799c.0320129-16.6229858-10.3840027-30.5849915-12.3880005-33.2730103-7.7590027-10.3999939-24.4909973-25.8479919-38.5509949-21.8999939-4.881012,1.3699951-9.3210144,6.0220032-18.2000122,15.3259888-10.5,11-11.1849976,15.1480103-16.0750122,15.8720093-9.6650085,1.4299927-13.9880066-13.723999-24.230011-13.4679871-10.3779907,.2600098-22.82901,16.2430115-20.4169922,28.6239929,3.4379883,17.6419983,35.0090027,17.4850159,36.7070007,32.7189941,1.5679932,14.0750122-24.3999939,23.0629883-21.9190063,41.3999939,.1480103,1.1000061,.9700012,7.1759949,5.07901,10.6820068,19.4830322,16.6230164,109.9000244-27.0910034,109.9940186-75.9819946Z" style="fill: #fd657c;"/>
          <path id="Tracé_8344" data-name="Tracé 8344" d="M32.5959988,70.0642902c6.5769997-3.8329926,17.2350006-2.9589996,22.3069992,2.6549988,7.2369995,8.0100098-2.7680016,19.1749878,3.7630005,36.3079834,4.4499969,11.6730042,10.3000031,9.6489868,11.9919968,18.5690002,2.7679977,14.5820007-6.9160004,12.7340088-9.0909958,35.5620117-.9400024,9.8699951,8.3669968,21.2359924-.0360031,24.4400024-1.7549973,.6700134-10.6080017-8.2000122-16.2730026-21.6520081-12.9499931-30.7369995-20.5619926-44.0050049-21.5339928-58.4499817-.816-12.1530151-2.0840015-31.0510254,8.8719978-37.4320068Z" style="fill: #fd657c;"/>
          <path id="Tracé_8345" data-name="Tracé 8345" d="M123.4420166,81.6442844c-.0238647,5.2416077,2.0527649,10.2743988,5.7659912,13.973999,.9289856,.8890076,7.3250122,6.8289948,13.8359985,5.1529999,5.2999878-1.3650055,5.4400024-6.4299927,14.9769897-18.3999939,4.3439941-5.451004,6.6000061-8.223999,10.5469971-10.5440063,1.2479858-.7330017,11.8680115-6.8070068,18.4649963-2.5449982,4.4609985,2.8820038,2.3909912,7.4600067,6.8999939,11.5149994,1.2420044,1.1159973,4.7399902,3.7700043,20.5209961,2.7519989,16.4549866-1.0610046,20.7109985-4.4649963,23.5880127-1.5440063,4.3270264,4.3950043-2.9419861,14.4850006,3.2329712,24.2830048,.4400024,.6999969,2.184021,4.1909943,3.3209839,3.8999939,2.0599976-.5330048,.6339722-13.048996-.190979-18.2089996-4.6380005-29.0149994-25.8999939-48.4369965-28.5339966-50.7779999-8.8150024-7.8410034-23.1000061-20.5469971-38.5-17.2440033-1.9299927,.4140015-11.6489868,2.7460022-13.8859863,9.5100021-2.8150024,8.512001,8.6170044,16.7939987,5.4500122,21.875-1.9460144,3.1230011-6.776001,.814003-18.7330017,3.2919998-6.1140137,1.2669983-11.9660034,2.4790039-17.4129944,6.8889923-2.4249878,1.9640198-9.1009827,7.3670197-9.3469849,16.1210175Z" style="fill: #fd657c;"/>
          <path id="Tracé_8346" data-name="Tracé 8346" d="M42.442997,56.5032875c4.7560883,.3688507,9.1087036,2.8125305,11.9000015,6.6809998,3.3399963,4.8000031,1.9079971,9.5410004,3.5080032,9.8779984,1.8160019,.3830032,3.6360016-5.7279968,8.677002-13.2109985,3.8889999-5.7710037,9.538002-14.1579971,16.1660004-14.034996,4.5999985,.0849991,5.0339966,4.185997,10.6059952,5.7630005,7.7870026,2.1999969,17.4449921-2.8359985,22.6699982-9.6220016,6.0299988-7.8339996,8.3399963-20.8419991,2.375-27.1110001-6.227005-6.5449982-18.6999969-2.836998-29.3999939,.3429985-17.9480057,5.3329964-29.0920029,15.6029968-39.1190033,24.8509941-8.1070023,7.4720001-14.802002,15.3610001-13.5620041,16.9520035,.6010056,.7669983,2.4810028-.6930008,6.1790009-.4889984Z" style="fill: #fd657c;"/>
          <path id="Tracé_8347" data-name="Tracé 8347" d="M248.8370056,107.1052829c-.1089935-1.2649994-.2359924-2.5360031-.3849945-3.8000031-2.1008301-17.7881775-8.2387238-34.8610687-17.9450073-49.9149933-.6666718-1.0406685-1.3540039-2.071331-2.0619965-3.0919991-10.2762604-14.9238129-23.9114838-27.2276783-39.8089905-35.9220009-1.875-1.0369997-3.7940063-2.0139999-5.7510071-2.9470005-.9219971-.4379997-1.8549957-.8719997-2.7910004-1.3000002-.1940002-.0799999-.3840027-.1669998-.5769958-.2469997-.2149963-.1000004-.4259949-.1850004-.6320038-.2799997-.6529999-.2779999-1.3000031-.5539999-1.9530029-.823-.3000031-.125-.6139984-.2530003-.9199982-.3690004-1.2140045-.4899998-2.4279938-.96-3.651001-1.4000001-.5070038-.178-1-.3629999-1.5119934-.533-1.2220001-.4239998-2.451004-.8330002-3.6779938-1.2189999-1.4980011-.4666667-3.0009918-.8999996-4.5090027-1.3C147.7906189-.0323681,132.2728806-1.01825,117.0160217,1.0582861c-1.2310028,.1720001-2.4580002,.3559999-3.6709976,.5550001-19.1769638,3.223567-37.2551994,11.1525497-52.616024,23.0769997-.9570007,.7479992-1.9080009,1.507-2.8510017,2.2900009-14.007843,11.6015129-25.0908756,26.3348122-32.3539982,43.0099983-.3360004,.7669983-.6660004,1.5469971-.9840002,2.3199997-.2840004,.6900024-.5559998,1.375-.8309999,2.0680008-7.1669978,18.330658-9.5481442,38.1844559-6.9190001,57.6900024,.28,2.0919952,.612,4.177002,1.0120001,6.2400055,2.6742778,14.1210175,7.9163713,27.6316223,15.4659996,39.8610077,9.7641621,15.849472,23.1924877,29.1217499,39.1549969,38.6999969h.0079994c4.2092781,2.5175781,8.5717812,4.7696381,13.0620003,6.7429962,.8560028,.3820038,1.7099991,.7429962,2.5770035,1.1000061,.5889969,.2420044,1.1719971,.4730072,1.7649994,.7059937,4.6926346,1.8453522,9.4992523,3.3865356,14.3899994,4.6139984,2.0773315,.5200043,4.1600037,.9806519,6.2480011,1.3820038,4.5293121,.8751373,9.1072922,1.4762268,13.7089996,1.8000031-.2109985,.0110016,5.6490021,.3059998,10.6819992,.2649994h.0199966c9.3194962-.2034912,18.5809555-1.5239258,27.5860062-3.9329987,11.6742859-3.1142273,22.7983856-8.0104675,32.9799957-14.5160217,1.7886658-1.1433258,3.5423279-2.3303375,5.2610016-3.5610046,15.5099487-11.1205292,28.0342255-25.8985138,36.4609985-43.0220032,.6430054-1.3000031,1.2619934-2.6100006,1.8600006-3.9459991,.4909973-1.1000061,.9640045-2.1999969,1.423996-3.3200073,7.0649414-17.0993652,9.9385223-35.6402588,8.381012-54.0759811Zm-3.9279938-2.7180023c-5.4964142,1.4622192-11.1414337,2.2939072-16.826004,2.4789963-.5614471-17.5462875-4.5205536-34.8171539-11.6580048-50.8559914,3.5608673-.0098534,7.1056671-.478035,10.5469971-1.3930016,9.8020782,14.9535141,15.9467621,32.0042877,17.9369965,49.7730026M138.0950012,29.6532852c6.8514099,4.1655827,14.0046844,7.8130817,21.3999939,10.9120007-.6519928,1.1780014-1.3159943,2.4099998-2.0090027,3.6889992-6.2769928,11.6210022-12.9049988,24.8590012-19.5899963,39.0999985-13.0390091-5.7346649-25.5995483-12.5008163-37.5619965-20.2339973,8.2170105-9.3934746,17.2893677-18.0028419,27.0999985-25.7169991,3.6446686-2.8579979,7.1993332-5.4413319,10.6640015-7.75m24.7629929,12.3460007c.6950073,.2999992,1.3930054,.5830002,2.1000061,.8730011,7.3860016,3.0400047,14.2156525,5.5496674,20.4889984,7.5289993,.0339966,.348999,.0579987,.6930008,.0879974,1.0499992,1.2344513,16.3462944,.61586,32.7797661-1.8439941,48.9869957-11.8711395-3.4899139-23.538559-7.6386795-34.947998-12.427002-2.5566711-1.0526733-5.0613403-2.112999-7.5139999-3.1809998,6.1810074-13.1559982,12.3089981-25.4680023,18.1509933-36.4129982,1.206665-2.2659988,2.3650055-4.4053307,3.4750061-6.4179993l.0029907,.0000038Zm25.9689941,5.612999c-1.2489929-12.1910019-3.6849976-23.1000004-6.7619934-31.1340008,11.7797241,9.8316784,21.4480896,21.9454479,28.4230042,35.6119976-7.3525085-.7670631-14.6099243-2.2671852-21.6640015-4.4779968h.0029907Zm-10.4400024-30.5130005c2.7079926,6.7810001,5.2489929,16.6210022,6.6580048,29.3300018-5.7860107-1.859333-12.0193329-4.1663322-18.6999969-6.9210014-.5639954-.2319984-1.1360016-.4679985-1.6999969-.7080002,6.2519989-11.1100006,10.7440033-17.8680019,13.7380066-21.7010021l.0039825,.0000019Zm10.8020172,34.4309998c7.5384674,2.3338928,15.3170624,3.806282,23.1869965,4.3889999,7.3976898,16.0277405,11.4998627,33.3783875,12.0630035,51.0220032-12.1329956,.0130005-24.8509979-2.2109985-37.2290039-5.5250015,2.5605316-16.4987335,3.2241821-33.2363281,1.9779968-49.8860016m-12.625-37.9450006c-3.3079987,3.8820009-8.121994,10.9899988-15.3000031,23.7860003-6.8132019-2.8597603-13.4279022-6.1711216-19.8000031-9.9119987,15.125-9.6000004,27.7810059-13.8999996,35.0999908-13.875m-40.1999969,73.0589981c-6.8919983,14.8119965-13.8119965,30.6240005-20.4550018,46.7680054-.5846634,1.4206696-1.1566696,2.8183289-1.7160034,4.1929932-16.4169998-7-32.4620056-14.6200027-46.6399994-23.7420044,.7000008-1.5810013,1.4440002-3.1740036,2.2179985-4.7919998,7.5301552-15.5223846,16.9921532-30.0306931,28.1610222-43.1799927,12.2279129,7.9437103,25.0788956,14.8843842,38.427002,20.7539978l.004982-.0009995Zm-17.0899963,48.1529999c6.5999985-16.0510025,13.5220032-31.8549957,20.4140015-46.6669998,2.5106659,1.0926666,5.0683289,2.1750031,7.6730042,3.2470016,11.6755371,4.8964996,23.6139069,9.1410294,35.7600098,12.7139969-2.6257324,16.0375443-6.8373871,31.7747421-12.572998,46.9800034-.8566589,2.2733307-1.7316589,4.4873352-2.625,6.6419983-14.6470032-4.3000031-29.1439972-9.9190063-43.6790009-15.8999939-2.2373352-.9206543-4.4706726-1.8500061-6.6999969-2.7879944,.5589981-1.3930054,1.1369934-2.7980194,1.7249985-4.2280121h.004982Zm54.6740112,17.5590057c5.7597198-15.3156586,10.0085754-31.1576538,12.6860046-47.3000031,7.7607117,2.1254578,15.6616364,3.7010345,23.6439972,4.7149963,4.7319641,.5895462,9.4954681,.8900986,14.2640076,.9000015,.15802,14.0668488-1.2988434,28.1053543-4.3419952,41.840004-.9912262,4.5508881-2.3771362,9.0067444-4.1419983,13.3170013-15.1096497-.4958954-30.0975342-2.884201-44.6129913-7.1089935,.8519897-2.0566711,1.6863251-4.1776733,2.5029755-6.3630066ZM138.1399994,25.3622848c-4.5283203-2.9002361-8.6935577-6.3315983-12.4069977-10.2209997,13.7913589-3.4796934,28.0360718-4.8163328,42.2340088-3.9630003-8.2510071,2.1220007-18.6420135,6.9120007-29.8270111,14.184Zm-3.2900009,2.1870003c-13.8533783,9.5865192-26.4631271,20.8556881-37.5400009,33.5490017-8.7450714-5.8614693-16.8357391-12.6446495-24.1329994-20.2330017,14.3897972-11.372036,30.9027443-19.7605801,48.5730019-24.6749992,3.8542023,4.3406754,8.2580032,8.1602135,13.0999985,11.3619995m-39.9189987,36.3139992c-11.294342,13.2739868-20.8506851,27.9334488-28.4379997,43.6240005-.7000008,1.4710007-1.3769989,2.9160004-2.0270004,4.3499985-10.75-7.2139969-20.316-15.3720016-28.0259991-24.8699951,2.0746975-4.8086319,4.5560379-9.4314041,7.4169998-13.8180008,7.3122921-11.2467499,16.2437763-21.3532219,26.5059986-29.9930038,7.4235954,7.7628288,15.6602554,14.7050552,24.5680008,20.7070007m-43.5400009,42.7740021c3.7000008,2.9800034,7.5880013,5.8000031,11.6240005,8.4930038-7.7089996,18.0169983-10.8649979,33.3730011-11.3829994,46.1629944-8.024107-5.6306458-15.7336617-11.6967468-23.0939999-18.1710052-1.9630003-18.5350037,.2180004-36.5,6.3640003-52.4199982,4.971302,5.8293762,10.4931946,11.1657486,16.4889984,15.9350052Zm14.7169991,10.5139999c14.4620018,9.2679977,30.6000023,16.9309998,46.7000008,23.8150024-7.7099991,18.8999939-13.5100021,33.7400055-17.7389984,45.3769989-13.8938141-6.4053497-27.2296333-13.9575043-39.8689995-22.5780029,.1949997-12.6889954,3.0999985-28.1790009,10.9099998-46.6139984m50.0500031,25.2330017c2.2386703,.94133,4.4719925,1.8706665,6.6999969,2.7879944,14.2606277,6.0449371,28.8194275,11.3608093,43.6199951,15.927002-7.9329987,18.1999969-17.0240021,31.7619934-25.7220001,41.7859955-12.4097748-3.4222565-24.5957565-7.6096039-36.487999-12.5379944-1.9599991-.8066711-3.9176712-1.6423492-5.8730011-2.5070038,4.2680054-11.7590027,10.114006-26.7059937,17.7610016-45.4530029l.0020065-.0029907Zm53.8590088,19.7279968c14.4748688,4.2410431,29.4104767,6.711731,44.4799957,7.3580017-7.1999969,15.7770081-18.970993,30.0149994-31.7279968,41.1529999-12.8100128-1.2052612-25.5027161-3.4360657-37.9560089-6.6710052,8.6179962-10.2350006,17.4420013-23.8379974,25.1999969-41.8410034m54.7610016-110.7239914c-3.3157959,.7229271-6.7079773,1.0349426-10.1000061,.9290009-5.8113251-11.84095-13.5538788-22.6315308-22.9099884-31.9290028,12.9956207,7.9831295,24.2278595,18.5311222,33.0110016,31.0000019M161.5570068,7.4172851c-12.4954834-.1703644-24.9613113,1.2609568-37.0930023,4.2589998-.4609985,.1160002-.9219971,.2309999-1.3850021,.3549995-1.8257294-2.317173-3.383934-4.8331146-4.6449966-7.5,14.4259033-1.8405294,29.0720062-.8603659,43.1240082,2.8859997m-46.8899994-2.3400002c1.2283325,2.8286095,2.7713928,5.5098476,4.5999985,7.993-17.6963043,5.0551367-34.220314,13.5546865-48.624012,25.0110006-2.8832626-3.2508736-5.5411148-6.6948891-7.954998-10.3079987,15.1364098-11.8262825,33.0164948-19.6347809,51.9789963-22.7000008M27.9040003,73.7002841c6.9379454-16.9271889,17.9041986-31.9042702,31.9459982-43.6299992,2.4331322,3.6109104,5.1005249,7.0583134,7.9850006,10.3200016-10.4572182,8.888237-19.5611725,19.2551651-27.0239983,30.772995-2.6136761,4.0051498-4.9221973,8.2013321-6.9060001,12.5530014-2.2633724-3.0478745-4.3321495-6.2355423-6.1940002-9.5439987l.1929998-.4720001Zm-1.8400002,4.7809982c1.8882618,3.119072,3.9585085,6.1242676,6.1999998,9-6.4689999,15.7919998-9.0930004,33.6179962-7.6999998,52.0769958-1.1633334-1.0666656-2.3090005-2.1383362-3.4370003-3.2149963-3.4521285-19.3867722-1.7496195-39.3403091,4.9370003-57.8619995Zm-3.6210003,64.1820068c.875,.8119965,1.7670002,1.6119995,2.6610003,2.3999939,.5082645,4.4094238,1.2425671,8.789856,2.1999998,13.1239929-1.9847298-5.0550842-3.6101031-10.243988-4.8639998-15.5279999m14.0849996,33.871994c-1.298666-3.4173279-2.465332-6.9243317-3.5-10.5209961-1.6357384-5.6915588-2.8961153-11.4843445-3.7729998-17.3410034,2.4886665,2.1259918,5.0406675,4.2190094,7.6560011,6.279007,4.7453346,3.7433472,9.6263332,7.3396759,14.6430016,10.7890015h.0079994c-.0412827,9.3795929,1.6189194,18.6889038,4.9000015,27.4759979,1.737606,4.5461578,3.9853096,8.8805389,6.7000008,12.9199982-10.5621109-8.2085114-19.5796165-18.2306671-26.6310043-29.5979919l-.0030003-.0040131Zm38.0530033,37.3919983c-6.5346527-6.1068573-11.5708237-13.6402283-14.7159996-22.0130005-2.8409805-7.5827942-4.4009323-15.5853271-4.6160011-23.6799927,12.2729454,8.1875305,25.1737823,15.3922882,38.5820007,21.5469971-5.3000031,14.923996-7.8000031,24.1459961-8.3239975,29.8619995-3.740303-1.7051849-7.385025-3.6126709-10.9179993-5.7140045l-.0080032-.0019989Zm14.8740005,7.4299927l-.4459991-.1840057c.1110001-2.6600037,.8929977-7.1179962,3.0999985-14.5740051,1.2649994-4.2700043,2.9400024-9.3439941,5.0670013-15.3269958,1.8973312,.8406677,3.802002,1.6543274,5.7139969,2.4409943,11.4705429,4.7543945,23.2120132,8.826828,35.163002,12.1960297-11.5859985,12.5249939-22.1819992,18.8659973-28.0390015,21.7189941-7.0364914-1.4338531-13.9210205-3.5322571-20.5610046-6.266983l.0020065-.0040283Zm26.427002,7.3000031c9.8779297-5.726593,18.7499771-13.0342102,26.2630005-21.6320038,12.0585403,3.2147064,24.3423843,5.5152435,36.7470016,6.8820038-5.5592804,4.5480804-11.4851379,8.6286469-17.7169952,12.1999969-.0687714,.0357666-.1403351,.0658722-.2140045,.0899963-.0119934,0-.0149994,.0130005-.022995,.0099945-14.6990967,3.844574-30.0236893,4.677948-45.053009,2.4500275l-.0029984-.0000153Zm59.211998-7.1670074c3.0370026-2.1929932,6.0690002-4.5650024,9.0359955-7.0919952,1.6049957,.1399994,3.1999969,.2550049,4.8000031,.3410034-4.453186,2.5602722-9.0747833,4.8157806-13.8330078,6.7510071m19.3439941-10.128006c-2.1549988-.0700073-4.3209991-.1849976-6.4940033-.3309937,12.5240021-11.4309998,23.7189941-25.6609955,30.5420074-41.4750061,4.8011017,.0361023,9.6009369-.1714935,14.3809967-.621994-8.9373932,17.2193756-22.1755524,31.8351135-38.4290009,42.4279938m25.5540009-45.4859924c1.5791779-4.0964203,2.8386078-8.309021,3.7669983-12.6000061,3.1005554-14.0079193,4.5862274-28.3249207,4.4279938-42.6710052,5.7705994-.171524,11.5034637-.9930496,17.0899963-2.4489975,1.3680115,17.6178055-1.4340057,35.3100967-8.1790009,51.6429977-.7310028,1.7749939-1.5,3.5160065-2.3090057,5.227005-4.9129639,.5549927-9.8527679,.8391113-14.7969666,.8510132l-.0000153-.0010071Z" style="fill: #272f60;"/>
        </g>
      </g>
    </g>
  </g>
</svg>