<?xml version="1.0" encoding="utf-8"?>
<!-- Generator: Adobe Illustrator 26.2.1, SVG Export Plug-In . SVG Version: 6.00 Build 0)  -->
<svg version="1.1" id="Calque_1" xmlns="http://www.w3.org/2000/svg" xmlns:xlink="http://www.w3.org/1999/xlink" x="0px" y="0px"
	 viewBox="0 0 227 227" style="enable-background:new 0 0 227 227;" xml:space="preserve">
<style type="text/css">
	.st0{fill:#272F60;}
	.st1{fill:#FFBCC6;}
	.st2{fill:#FFF5F7;}
	.st3{fill:#FD657C;}
	.st4{fill:#FFFFFF;}
</style>
<g id="TEXTES_FR">
</g>
<g>
	<g id="ILLUSTRATIONS">
		<g id="Groupe_383_00000005963414251027422560000004287071105804998302_" transform="translate(-101 -388)">
			<g id="Ring_Chart19_00000142898647208457454140000014167866710199395749_" transform="translate(0 -48)">
				<path id="Tracé_1612_00000165234579903007358850000007088586861706300826_" class="st0" d="M214.5,436
					c49.2,0,92.8,31.7,107.9,78.4c15.2,46.8-1.4,98-41.2,126.9c-39.8,28.9-93.6,28.9-133.4,0c-39.8-28.9-56.4-80.1-41.2-126.9
					l21.9,7.1c-12.1,37.3,1.2,78.1,32.9,101.2c31.7,23,74.7,23,106.4,0c31.7-23,45-63.9,32.9-101.2c-12.1-37.3-46.9-62.5-86.1-62.5
					V436z"/>
				<path id="Tracé_1613_00000156589356154906947950000005913072304473897147_" class="st1" d="M106.6,514.4
					c15.2-46.8,58.8-78.4,107.9-78.4v23c-39.2,0-74,25.2-86.1,62.5L106.6,514.4z"/>
				<g id="cyborg-id-3_00000043418692148299534760000013137455031638468234_" transform="translate(148 483)">
					<path id="Tracé_1071_00000165204622373651868050000010230466621219453313_" class="st2" d="M130.9,66.3
						c0,35.6-28.9,64.5-64.5,64.5c-1.3,0-2.6,0-3.8-0.1C27,128.6-0.1,98,2,62.4C4.1,26.9,34.7-0.2,70.2,1.9
						C104.3,3.9,130.9,32.2,130.9,66.3z"/>
					<path id="Tracé_1072_00000132796533259492832100000013129438329738148281_" class="st1" d="M62.6,79.1v51.6
						c-5.9-0.3-11.6-1.5-17.2-3.4V79.1c0-4.7,3.8-8.6,8.6-8.6S62.6,74.3,62.6,79.1C62.6,79.1,62.6,79.1,62.6,79.1z"/>
					<g id="Groupe_317_00000026872026306304246910000017055829322031083433_">
						<path id="Tracé_1073_00000129928815515038775520000005258656329423638415_" class="st0" d="M66.4,0C29.7,0,0,29.7,0,66.4
							s29.7,66.4,66.4,66.4s66.4-29.7,66.4-66.4C132.8,29.7,103.1,0,66.4,0z M66.4,128.8c-34.5,0-62.5-28-62.5-62.5
							c0-34.5,28-62.5,62.5-62.5s62.5,28,62.5,62.5l0,0C128.9,100.8,100.9,128.8,66.4,128.8z"/>
						<path id="Tracé_1074_00000021108879803640453550000002986240387243643833_" class="st0" d="M45.3,108.4v7h17.2v-7H45.3z"/>
						<path id="Tracé_1075_00000015349563537177802170000007920362932608801195_" class="st0" d="M45.3,122.4v7h17.2v-7H45.3z"/>
						<path id="Tracé_1076_00000099626721720752048900000003537035556021439666_" class="st0" d="M111.1,57.5v-7.1
							c0-1.1-0.4-2.2-1.2-3l-5.9-5.9c-0.8-0.8-1.9-1.2-3-1.2H26.3c-2.4,0-4.3,1.9-4.3,4.3c0,0,0,0,0,0V82c0,2.4,1.9,4.3,4.3,4.3h8.5
							c1.1,0,2.2,0.4,3,1.2l14.6,14.6c0.8,0.8,1.9,1.2,3,1.2h47.4c2.4,0,4.3-1.9,4.3-4.3v-6.8L111.1,57.5z"/>
					</g>
					<path id="Tracé_1077_00000075869592139558119900000006027748797828749213_" class="st3" d="M57.7,57.5v23.9l12.9,12.9h-7.4
						c-0.6,0-1.2-0.2-1.6-0.7L50,82c-0.4-0.4-0.7-1-0.7-1.6V59.7c0-1.3,1-2.3,2.3-2.3c0,0,0,0,0,0C54,57.5,57.7,57.5,57.7,57.5z"/>
					<path id="Tracé_1078_00000064354050191117176710000016638971470664970890_" class="st1" d="M115.5,57.5c1.4,0,2.5,1.1,2.5,2.5
						c0,0,0,0,0,0.1v20.3c0,0.7-0.3,1.3-0.7,1.8l-11.4,11.4c-0.5,0.5-1.1,0.7-1.8,0.7H69.3c-0.5,0-1-0.2-1.4-0.6L56.6,82.3
						c-0.6-0.6-1-1.5-1-2.3V59.4c0-1,0.8-1.9,1.9-1.9c0,0,0,0,0,0L115.5,57.5z"/>
					<path id="Tracé_1079_00000018941697466327942670000011507722987967900807_" class="st4" d="M62.5,80.3
						C62.2,80,62,79.5,62,79.1V64.6c0-1,0.8-1.7,1.7-1.7c0,0,0,0,0,0h46.8c1,0,1.7,0.8,1.7,1.7c0,0,0,0,0,0v14.5
						c0,0.5-0.2,0.9-0.5,1.2l-8.1,8.1c-0.3,0.3-0.8,0.5-1.2,0.5H71.9c-0.5,0-0.9-0.2-1.2-0.5C69,86.8,64.1,81.9,62.5,80.3z"/>
					<path id="Tracé_1080_00000096037325398073875850000002379610561597764995_" class="st0" d="M76.2,75.6h-1.5v-3.8h1.5
						c0.6,0,1-0.5,1-1s-0.5-1.1-1-1.1h-7.5c-0.6,0-1.1,0.5-1.1,1.1s0.5,1,1.1,1h1.5v3.8h-1.5c-0.6,0-1.1,0.5-1.1,1.1
						c0,0.6,0.5,1,1.1,1h7.5c0.6,0,1-0.5,1-1c0,0,0,0,0,0c0-0.6-0.4-1-0.9-1.1C76.2,75.6,76.2,75.6,76.2,75.6z"/>
					<path id="Tracé_1081_00000117656128288871366570000008467585455496294811_" class="st0" d="M105.6,75.6h-1.5v-3.8h1.5
						c0.6,0,1.1-0.5,1.1-1s-0.5-1.1-1.1-1.1h-7.5c-0.6,0-1.1,0.5-1.1,1.1s0.5,1,1.1,1h1.5v3.8h-1.5c-0.6,0-1.1,0.5-1.1,1.1
						c0,0.6,0.5,1,1.1,1h7.5c0.6,0,1-0.5,1-1c0,0,0,0,0,0c0-0.6-0.4-1-0.9-1.1C105.7,75.6,105.6,75.6,105.6,75.6z"/>
					<path id="Tracé_1082_00000022526613818571459170000013304396241236760211_" class="st0" d="M93.1,80.9h-1.5v-3.4h1.5
						c0.6,0,1-0.5,1-1.1s-0.5-1-1-1h-2.6c-8.1,0-9.9,6.3-9.9,6.4c-0.1,0.3,0,0.7,0.2,0.9c0.2,0.3,0.5,0.4,0.9,0.4h11.4
						c0.6,0,1-0.5,1-1c0,0,0,0,0,0C94.2,81.5,93.8,81,93.1,80.9C93.2,80.9,93.2,80.9,93.1,80.9L93.1,80.9z M89.5,77.5v3.4h-6.1
						C84.7,78.9,87,77.6,89.5,77.5z"/>
					<circle id="Ellipse_86_00000176739524874476714280000017667813994621172881_" class="st3" cx="36" cy="75.4" r="3"/>
					<circle id="Ellipse_87_00000072967132815874146320000009144157593616682120_" class="st3" cx="36" cy="60.8" r="3"/>
				</g>
			</g>
		</g>
	</g>
	<g id="TEXTES_GB">
	</g>
</g>
</svg>
