<?xml version="1.0" encoding="utf-8"?>
<svg id="master-artboard" viewBox="0 0 1200 1920" version="1.1" xmlns="http://www.w3.org/2000/svg" x="0px" y="0px" style="enable-background:new 0 0 1400 980;" width="1200px" height="1920px"><rect id="ee-background" x="0" y="0" width="1200" height="1920" style="fill: white; fill-opacity: 0; pointer-events: none;"/><defs><style id="ee-google-fonts">@import url(https://fonts.googleapis.com/css?family=Fjalla+One:400|Roboto:100,100italic,300,300italic,400,400italic,500,500italic,700,700italic,900,900italic);</style></defs>











































<g transform="matrix(0.9999999999999999, 0, 0, 0.9999999999999999, 1.8189894035458565e-12, 4.547473508864641e-13)">
		<path class="st13" d="M448.4,599.9" style="fill: rgb(223, 243, 251);"/>
	</g>





















































<g transform="matrix(52.17391304347826, 0, 0, 52.17391304347826, 0.000009275309821532574, 20.869626252547604)"><g id="FONDS">
</g><g id="ILLUSTRATIONS">
	<path id="Icon_ionic-md-phone-portrait" class="st11" d="M19.711937,0.0000181H3.2880633&#10;&#9;&#9;C1.4839938-0.0059331,0.0143635,1.4566827,0,3.2723882v29.4552231c0.0143635,1.8157043,1.4839938,3.2783241,3.2880633,3.2723694&#10;&#9;&#9;H19.711937c1.8040695,0.0059547,3.2736988-1.456665,3.288063-3.2723694V3.2723882&#10;&#9;&#9;C22.9856358,1.4566829,21.5160065-0.0059327,19.711937,0.0000181z M20.1229439,29.5720425H2.8770552V6.4289303h17.2458916&#10;&#9;&#9;L20.1229439,29.5720425z" style="fill: rgb(39, 47, 96);"/>
</g><g id="TEXTES_FR">
</g><g id="TEXTES_GB">
</g></g><g transform="matrix(9.00999927520752, 0, 0, 12.100000191526295, -373.17205810546875, -237.4922821432723)"><g id="g-1" transform="matrix(1, 0, 0, 1, 0, 0)">
	<g id="g-2">
		<path class="st0" d="M58,49h100v100H58V49z" style="fill: rgb(255, 255, 255);"/>
	</g>
</g></g></svg>