<?xml version="1.0" encoding="UTF-8"?>
<svg id="Calque_2" data-name="Calque 2" xmlns="http://www.w3.org/2000/svg" width="428" height="500" xmlns:xlink="http://www.w3.org/1999/xlink" viewBox="0 0 428 500">
  <defs>
    <clipPath id="clippath-1">
      <rect id="Rectangle_10" data-name="Rectangle 10" width="428" height="500" style="fill: none;"/>
    </clipPath>
    <clipPath id="clippath-2">
      <rect x="278.3299397" y="59.2325677" width="6.9122177" height="6.9122172" transform="translate(91.8797521 280.1026727) rotate(-61.405793)" style="fill: none;"/>
    </clipPath>
  </defs>
  <g id="ILLUSTRATIONS">
    <g style="clip-path: url(#clippath-1);">
      <g>
        <g>
          <path d="M94.6372578,233.266294c2.6847126-1.090502,4.5304582-3.6070391,4.7821464-6.4591093,.2516946-2.8520702-1.0906681-5.6202636-3.5236861-7.2140781-1.4262556-.9227354-2.8525112-1.845458-4.2787636-2.6843037-2.0135377-1.2582685-3.355894-3.4392725-3.5236893-5.7880302-.2516914-2.3487705,.6711782-4.697541,2.4330244-6.3752324,3.355894-3.0198496,7.1312779-6.542999,9.9837827-9.143413,2.5169205-2.3487705,3.1881019-6.0396865,1.677947-9.143413-3.8592768-7.8012675-11.3261422-22.7327171-16.0243925-32.211676-1.0906649-2.0971142-1.0906649-4.6136513-.0838961-6.7107656,1.0067688-2.0971142,2.9364072-3.6909223,5.2016363-4.1942285,5.1177403-1.1743853,11.0744508-2.6004204,15.1854222-3.5231494,2.8525112-.6710791,5.033841-2.8520766,5.7050224-5.7041533,1.0067656-4.1942285,2.6008166-10.4016879,3.6914847-14.9314495,.8389735-3.2714995,3.6914847-5.7041501,7.0473787-5.8719199,6.1245091-.3355396,15.6888019-.8388457,21.2260321-1.1743853,2.7686151-.1677698,5.2016331-1.7615747,6.4600934-4.1942285,3.1881019-6.2913427,9.5642928-18.7901433,13.423576-26.4236394,1.8457391-3.6909207,6.2923012-5.2008432,10.067682-3.5231526,10.2354741,4.6136513,29.3640724,13.2537614,36.9148339,16.6091441,2.0135313,.922729,4.27877,.922729,6.2923012,0,7.5507615-3.3553828,26.6793598-11.9954928,36.9148339-16.6091441,3.7753679-1.6776914,8.1380404-.1677698,10.0676692,3.5231526,3.8592832,7.6334962,10.2354869,20.1322967,13.423576,26.4236394,1.2584602,2.4326538,3.6914783,4.0264587,6.4601062,4.1942285,5.5372302,.3355396,15.101523,.8388457,21.2260193,1.1743853,3.355894,.1677698,6.2923012,2.6004204,7.0473723,5.8719199,1.0906553,4.4458847,2.600823,10.6533378,3.6914783,14.9314559,.6711686,2.8520766,2.9364072,5.0330742,5.7050095,5.7041533,4.0270626,.922729,10.067682,2.3487705,15.1854254,3.5231494,2.2652387,.5033061,4.1948675,2.0971142,5.2016459,4.1942285s1.0067784,4.6136513-.0839025,6.7107656c-4.7821592,9.4789589-12.1651157,24.4104149-16.0243989,32.2116824-1.5101421,3.1037265-.8389735,6.7946553,1.677947,9.143413,2.8525048,2.6004268,6.6278855,6.1235761,9.9837795,9.143413,1.7618495,1.5938017,2.6847254,3.9425722,2.433018,6.3752324-.2516818,2.3487705-1.5101421,4.5297616-3.5236989,5.7880302-1.3423627,.8388457-2.8525048,1.7615811-4.27877,2.6843037-2.433018,1.5099248-3.7753807,4.3619951-3.5236989,7.2140781,.2516818,2.852083,2.0974337,5.3686073,4.7821592,6.4591093,1.2584602,.5033125,2.3491156,.9227354,3.355894,1.3421582,1.8457519,.754956,3.355894,2.1810039,4.110965,3.9425722,2.6847254,6.0396865,9.144806,20.2161864,12.1651157,27.0108289,1.0906553,2.3487705,3.1880891,4.0264619,5.7050095,4.4458847,4.1948675,.754956,10.6549737,1.845458,14.7659387,2.6004268,2.433018,.4194228,4.5304518,1.9293477,5.6211327,4.1942285,1.0906553,2.097127,2.433018,4.9491973,3.8592832,7.8012675,.5872917,1.0904892,.2516818,2.4326474-.6711686,3.1876034s-2.3491156,.754956-3.2719915,0c-.5033892-.4194228-1.0067784-.754956-1.4262652-1.0904892-1.5101421-1.2582685-3.4397965-1.8454708-5.3694253-1.6776914-5.956717,.4194228-19.3802929,1.4260479-26.1759834,1.9293349-2.600823,.1677794-5.033841-.9227354-6.6278855-2.9359599-4.0270626-5.1169639-11.6617265-14.8475663-15.101523-19.2095613-1.0906553-1.3421582-2.600823-2.3487705-4.27877-2.7681934-1.8457519-.4194228-4.3626724-1.0066123-6.8795929-1.5938017-1.9296288-.4194228-4.0270626,.0838897-5.4533277,1.5099248-1.4262652,1.4260351-2.0974337,3.4392725-1.677947,5.3686073h0c.3355843,1.5938017-.6711686,3.1876162-2.2652387,3.6070391-7.7185664,2.0132246-28.9445857,7.3818447-36.0758604,9.2273155-1.5101421,.4194228-2.9364072,1.2582685-3.9431857,2.4326474-2.600823,3.0198496-7.8024561,9.143413-11.3261422,13.2537518-2.1813362,2.5165371-5.7050224,3.3553828-8.8092217,2.0971142-7.3829693-3.0198496-20.890435-8.5562363-26.7632495-10.904994-1.8457391-.754956-3.9431729-.754956-5.788912,0-5.8728145,2.4326474-19.3802929,7.8851444-26.7632495,10.904994-3.1041994,1.2582685-6.6278855,.4194228-8.8092217-2.0971142-3.5236861-4.1103388-8.7253193-10.2339277-11.3261422-13.2537518-1.0067656-1.1743789-2.433018-2.0971142-3.9431729-2.4326474-7.1312747-1.845458-28.3573068-7.2140781-36.0758604-9.2273027-1.5940509-.4194228-2.6008166-2.0132246-2.2652259-3.6070391h0c.4194867-2.0132246-.2516946-4.0264619-1.677947-5.3686073-1.4262524-1.4260351-3.5236861-1.9293477-5.4533277-1.5099248-2.5169205,.5871894-5.033841,1.1743789-6.8795801,1.5938017-1.677947,.4194228-3.1881019,1.3421582-4.2787636,2.7681934-3.355894,4.2781182-11.0744508,14.0926103-15.101523,19.2095741-1.5940509,2.0132246-4.1109714,3.1037393-6.6278919,2.9359599-6.7956841-.5033125-20.135364-1.509912-26.1759738-1.9293349-1.9296392-.1677794-3.8592784,.4194228-5.3694301,1.6776914-.4194867,.3355332-.9228712,.754956-1.4262548,1.0904892-.9228708,.754956-2.349126,.754956-3.2719967,0s-1.2584602-2.0971142-.6711788-3.1876034c1.426255-2.8520702,2.7686125-5.6202764,3.8592778-7.8012675,1.0906657-2.1810039,3.1880995-3.7748056,5.6211223-4.1942285,4.1109698-.754956,10.5710664-1.845458,14.7659355-2.6004268,2.5169205-.4194228,4.6143542-2.0971142,5.7050191-4.4458847,3.0203033-6.7946553,9.4803999-20.9711424,12.1651157-27.0108289,.8389735-1.845458,2.2652291-3.2714931,4.1109714-3.9425722,.7551222-.3355844,1.9296832-.8388841,3.1881435-1.3421966h0Z" style="fill: #fb657c;"/>
          <path d="M73.998511,235.3634083c-.0838961,.4194228-.1677953,1.0066123-.2516914,1.5099248-.1677953,.9227354-.4194867,2.0132246-.6711782,3.1037265-1.0906649,4.3619951-2.6008166,9.143413-2.6008166,9.143413-.0838961,.9227354-1.0067688,1.5938017-1.8457423,1.4260351-.9228712-.0838897-1.5940493-1.0066123-1.4262556-1.845458,0,0-.2516914-5.0330742-.1677953-9.5628358,0-1.090502,.0838977-2.1810039,.1677953-3.1876162,.1677953-1.845458,.4194867-3.1037265,.4194867-3.1037265,.1677953-1.090502,.8389735-2.0132246,1.8457423-2.5165371,0,0,2.2652291-1.0066123,4.9499449-1.9293477,3.5236893-1.2582685,7.6346608-2.5165371,7.6346608-2.5165371,.8389735-.4194228,1.8457423-.0838897,2.2652291,.754956s.0838961,1.845458-.7550774,2.2648808c0,0-3.4397901,2.5165371-6.6278919,4.6136513-1.0906681,.6710919-2.1813362,1.342171-2.9364104,1.8454708h0Z" style="fill: #fb657c;"/>
          <path d="M351.5309405,204.3261175c-.755071-.8388457-1.7618495-2.0971142-2.7686023-3.3553828-2.7686023-3.5231494-5.7050095-7.7173778-5.7050095-7.7173778-.6711686-.6710791-.5872917-1.7615811,0-2.3487705,.6711686-.6710791,1.7618495-.5871894,2.3491156,0,0,0,4.110965,3.0198496,7.5507615,5.9558096,2.600823,2.1810039,4.6982567,4.2781182,4.6982567,4.2781182,.8389735,.8388457,1.1745578,2.0971142,.8389735,3.2714931,0,0-.2516818,1.090502-.8389735,2.6843037-.4194867,1.1743789-.922876,2.5165371-1.5101421,4.0264619-1.8457519,4.697541-4.1948675,9.8983818-4.1948675,9.8983818-.2516818,.9227354-1.1745578,1.4260351-2.0974337,1.1743789s-1.4262652-1.1743789-1.1745578-2.0971142c0,0,.755071-5.6202636,1.677947-10.5694609,.2516818-1.5099248,.5872917-3.0198496,.8389735-4.1942285,.1677793-.3355332,.2516562-.6710663,.3355587-1.0066123h0Z" style="fill: #fb657c;"/>
          <path d="M269.6471219,71.7884999c-1.0906553-.167769-2.433018-.4194228-3.9431857-.6710767-4.6143542-.8388457-9.7320977-2.0132298-9.7320977-2.0132298-1.1745578-.0838845-2.0135313-1.0904992-1.9296416-2.2648834,.0839025-1.174384,1.0906681-2.0132298,2.2652259-1.9293451,0,0,5.2855228-.5033074,9.9837795-.6710766,3.5236989-.1677691,6.6278855-.1677691,6.6278855-.1677691,1.5101421,.0838846,2.7686023,1.0066149,3.4397965,2.3487679,0,0,1.0067784,1.7615761,2.1813362,4.3619973,.5872917,1.3421534,1.1745578,2.9359599,1.7618495,4.5297672,2.3491156,6.5429974,4.5304518,14.0926071,4.5304518,14.0926071,.5033892,1.0904988,0,2.2648824-1.0067784,2.7681918-1.0906553,.5033061-2.2652387,0-2.7686023-1.0066155,0,0-4.3626724-6.6268807-7.8024433-12.5826854-.8389735-1.5099224-1.677947-3.0198448-2.3491156-4.2781134-.5872661-1.0066139-1.0067528-1.8454596-1.2584602-2.5165363h0Z" style="fill: #fb657c;"/>
          <path d="M125.427589,93.179066c1.2584602-2.0971142,2.9364072-4.8653044,4.6982503-7.6334962,3.5236861-5.7041517,7.2151708-11.072763,7.2151708-11.072763,.3355907-.7549608,1.1745642-1.0904996,1.9296416-.7549608s1.0906681,1.1743837,.7550774,1.9293453c0,0-1.5940509,6.2913427-3.4397901,12.7504536-1.8457391,6.375226-3.7753807,12.5826854-3.7753807,12.5826854-.9228696,2.013231-2.9364072,3.187613-5.1177371,3.1037297,0,0-5.1177371,.2516531-10.1515781,0-2.7686151-.1677698-5.4533277-.4194228-7.3829693-.7549624-1.2584602,1.5938081-2.8525112,3.6070359-4.6982503,5.7041501-5.1177371,6.0396897-11.1583469,12.4988022-11.1583469,12.4988022-.4194867,.6710791-1.3423563,.922729-2.0135377,.4194228-.6711782-.4194228-.9228696-1.3421518-.4194867-2.013231,0,0,3.2719979-8.2206872,6.5439926-15.4347621,2.4330244-5.3686137,4.7821464-9.9822651,4.7821464-9.9822651,1.0906681-1.6776914,3.0203033-2.6843069,4.9499449-2.5165371,0,0,5.1177371-.1677698,10.1515781,.2516531,2.6847126,.2516595,5.2855292,.5871958,7.1312747,.9227354h0Z" style="fill: #fb657c;"/>
          <path d="M315.622885,280.2416658l-5.6211327-3.8586953c-.6711686-.2516563-1.0067784-1.0066123-.755071-1.6776914s1.0067784-1.0066123,1.677947-.754956l9.312611,1.3421582c1.0906553,.4194228,1.9296288,1.4260351,2.0974337,2.6004268,0,0,1.0906553,2.5165371,2.1813362,5.9558096,.4194867,1.2582685,.8389735,2.6004268,1.1745578,4.0264491,.3355843,1.4260479,.5872917,2.7681806,.755071,4.1103388,.2516818,2.1810039,.3355843,4.0264491,.3355843,5.1169639,.6711686,.5872022,1.5101421,1.3421582,2.3491156,2.0971142,3.0203097,2.8520702,6.2083988,6.1235633,6.2083988,6.1235633,.5872917,.3355332,.755071,1.1743789,.4194867,1.7615811s-1.1745578,.754956-1.7618495,.4194228c0,0-4.3626724-1.4260479-8.22193-2.8520702-2.9364072-1.0904892-5.3694253-2.0971142-5.3694253-2.0971142-1.0067784-.6710663-1.7618495-1.6776914-1.9296288-2.8520702,0,0-1.0067784-2.6004268-1.8457519-6.0396993-.3355843-1.2582685-.5033892-2.6843165-.6711686-4.1103388-.1678049-1.4260479-.2516818-2.8520702-.3355843-4.1942285v-5.1169639h0Z" style="fill: #fb657c;"/>
          <path d="M386.0127564,257.5928192s-.2516818-.6710791-1.9296288-2.0971142c-.2516818-.2516563-.4194867-.3355332-.755071-.5033125-.1678049-.0838897-.3355843-.1677666-.5033892-.1677666s-.3355843,.0838897-.5033892,.1677666c-.3355843,.1677666-.5033892,.2516563-.8389735,.5033125-1.7618495,1.1743789-2.0974337,1.7615811-2.0974337,1.7615811-.5033892,0-.8389735,.3355332-.922876,.8388457,0,.5033125,.3355843,.8388457,.8389735,.9227354,0,0,.3355843,.5871894,1.9296288,1.9293477,.2516818,.2516563,.4194867,.3355332,.755071,.5033125,.1678049,.0838897,.3355843,.1677666,.5033892,.1677666s.3355843,0,.5033892-.0838897c.3355843-.0838897,.5872917-.2516563,.8389735-.4194228,1.8457519-1.2582685,2.0974337-1.845458,2.0974337-1.845458,.5033892,0,.8389735-.3355332,.922876-.8388457,0-.4194356-.4194867-.7549688-.8389735-.8388585Z" style="fill: #fb657c;"/>
          <path d="M358.0749491,330.3207385s-.922876-.754956-2.3491156-1.5938017c-.755071-.4194228-1.5101421-.9227354-2.433018-1.3421582-.5033892-.2516435-1.0906553-.3355332-1.5940445-.5033125-2.0974337-.5872022-3.8592832-.8388457-3.8592832-.8388457-1.2584602-.5033125-2.7686023,.0838897-3.2719915,1.3421582-.5033892,1.2582685,.0839025,2.7681806,1.3423627,3.2714931,0,0,1.4262652,1.0904892,3.2719915,2.1810039,.5033892,.2516435,.922876,.5872022,1.5101421,.754956,.922876,.3355332,1.8457519,.5872022,2.6847254,.754956,1.5940445,.4194228,2.7686023,.5033125,2.7686023,.5033125,1.2584602,.5033125,2.7686023-.0838897,3.2719915-1.3421582,.5033636-1.1743789-.0839025-2.6004012-1.3423627-3.1876034h0Z" style="fill: #fb657c;"/>
          <path d="M95.6440298,302.6388305s-1.1745642,0-2.8525112,.2516435c-.8389735,.0838897-1.8457423,.2516435-2.7686119,.5033125-.5033828,.1677794-1.0906649,.4194228-1.5940509,.5872022-2.0135377,.9227354-3.5236893,1.8454708-3.5236893,1.8454708-1.3423563,.4194228-2.0974337,1.7615811-1.677947,3.1037393s1.7618431,2.0971142,3.1042026,1.6776914c0,0,1.7618431-.0838897,3.9431761-.4194228,.5033828-.0838897,1.0906649-.1677794,1.5940509-.3355332,.9228696-.2516435,1.7618431-.6710663,2.6008166-1.0904892,1.5101549-.754956,2.5169205-1.3421582,2.5169205-1.3421582,1.3423563-.4194228,2.0974337-1.7615811,1.677947-3.1037393-.3355907-1.2582941-1.7618431-2.0132502-3.0203033-1.677717h0Z" style="fill: #fb657c;"/>
          <path d="M136.4181406,289.1334097s-.5872789-.1677794-1.5101549-.1677794c-.4194867,0-.9228696,0-1.4262524,.0838897-.2516946,.0838897-.5033828,.2516435-.7550774,.3355332-1.0067656,.6710663-1.677947,1.2582685-1.677947,1.2582685-1.3423563,.4194228-2.0974337,1.7615811-1.677947,3.1037393s1.7618431,2.0971142,3.1041994,1.6776914c0,0,.8389735,.1677794,2.0974337,.1677794,.2516946,0,.5872789,0,.8389735-.0838897,.5033828-.1677794,.8389735-.4194228,1.2584602-.6710663,.7550774-.5033125,1.1745642-.9227354,1.1745642-.9227354,1.3423563-.4194228,2.0974337-1.7615811,1.677947-3.1037393-.4194867-1.2582685-1.8457391-2.0132246-3.1041994-1.6776914h0Z" style="fill: #fb657c;"/>
          <path d="M52.1013024,228.4848761s-1.4262548-.0838897-3.6914835,.4194228c-.7550762,.1677666-1.4262552,.3355332-2.0974337,.8388457-.671179,.4194228-1.0906655,1.090502-1.5101523,1.6776914-1.3423576,1.845458-1.929639,3.1876162-1.929639,3.1876162-.9228709,.6710791-1.2584602,1.9293477-.5872814,2.8520702s1.929639,1.2582685,2.8525099,.5871894c0,0,1.426255,.0838897,3.6914837-.5033125,.7550758-.1677666,1.5101525-.3355332,2.1813314-.754956s1.1745626-1.0066123,1.5940493-1.5938017c1.4262548-1.845458,1.8457415-3.1876162,1.8457415-3.1876162,.9228704-.6710791,1.258461-1.9293477,.5872813-2.8520702-.671179-1.0066123-1.9296392-1.2582685-2.9364072-.6710791Z" style="fill: #fb657c;"/>
          <path d="M75.4247666,118.8477462s-.7550774,.922729-1.5940509,2.3487705c-.4194867,.7549624-.9228696,1.5938081-1.3423563,2.4326538-.2516914,.5033061-.3355907,1.090502-.5033828,1.5938081-.5033828,2.0971142-.7550774,3.8586889-.7550774,3.8586889-.5033828,1.2582685,.0838961,2.7681934,1.3423563,3.2714995s2.7686119-.0838833,3.2719979-1.3421518c0,0,1.0906649-1.4260351,2.1813298-3.3553828,.2516914-.5033061,.5872821-.922729,.7550774-1.5099248,.3355907-.922729,.5872821-1.845458,.7550774-2.6843037,.3355907-1.5938081,.5033828-2.7681934,.5033828-2.7681934,.5033828-1.2582685-.0838961-2.7681934-1.3423563-3.2714995-1.3423595-.5033125-2.7686151,.1677634-3.2719979,1.4260351h0Z" style="fill: #fb657c;"/>
          <path d="M307.0653451,101.0642136s-.0839025-1.1743853-.4194867-2.7681902c-.1678049-.8388457-.3355843-1.7615747-.6711686-2.6843069-.1678049-.5033061-.4194867-1.0066155-.755071-1.5099216-1.0067784-1.9293445-2.0974337-3.3553828-2.0974337-3.3553828-.5033892-1.2582685-1.9296288-1.9293445-3.1880891-1.4260383s-1.9296288,1.9293445-1.4262652,3.187613c0,0,.1678049,1.7615747,.6711686,3.8586889,.0839025,.5033061,.2516818,1.0904988,.4194867,1.5938081,.3355843,.922729,.8389735,1.7615747,1.2584602,2.5165371,.8389735,1.4260383,1.5101421,2.3487673,1.5101421,2.3487673,.5033892,1.2582685,1.9296288,1.9293445,3.1880891,1.4260383,1.3423883-.5033061,1.9296544-1.9293445,1.5101677-3.187613Z" style="fill: #fb657c;"/>
          <path d="M347.5877804,302.4710767s-.4194867-.4194228-1.0906553-.9227354c-.3355843-.2516435-.755071-.5033125-1.1745578-.754956-.2516818-.0838897-.5033892-.1677794-.8389735-.2516435-1.0906553-.2516435-2.0135313-.2516435-2.0135313-.2516435-.922876-.4194228-2.0135313,.0838897-2.433018,1.0066251s.0839025,2.0132246,1.0067784,2.4326474c0,0,.6711686,.5872022,1.5940445,1.2582685,.2516818,.1677794,.5033892,.3355332,.755071,.4194228,.4194867,.1677794,.922876,.2516435,1.3423627,.3355332,.8389735,.1677794,1.4262652,.1677794,1.4262652,.1677794,.922876,.4194228,2.0135313-.0838897,2.433018-1.0066251,.4194355-.922761-.0839537-2.0132502-1.006804-2.432673h0Z" style="fill: #fb657c;"/>
          <path d="M114.9404203,290.5594576s.5872789,0,1.4262524-.1677794c.4194867-.0838897,.9228696-.1677794,1.3423563-.3355332,.2516946-.0838897,.5033828-.2516435,.7550774-.4194228,.9228696-.6710663,1.5940509-1.2582685,1.5940509-1.2582685,.9228696-.4194228,1.4262524-1.509912,1.0067656-2.4326474s-1.5101549-1.4260479-2.4330244-1.0066251c0,0-.9228696,0-2.0135377,.2516435-.2516946,.0838897-.5872789,.0838897-.8389735,.2516435-.4194867,.1677794-.8389735,.5033125-1.1745642,.754956-.6711814,.5033125-1.0906681,.9227354-1.0906681,.9227354-.9228696,.4194228-1.4262524,1.509912-1.0067656,2.4326474,.4194932,.922761,1.5101549,1.3421838,2.4330308,1.0066507Z" style="fill: #fb657c;"/>
          <path d="M74.2502024,322.5194838s.5872821,0,1.4262556-.1677794c.4194867-.0838897,.9228696-.1677794,1.3423563-.3355332,.2516914-.0838897,.5033828-.2516435,.7550774-.4194228,.9228696-.6710663,1.5940509-1.2582685,1.5940509-1.2582685,.9228696-.4194228,1.4262556-1.509912,1.0067688-2.4326474s-1.5101517-1.4260479-2.4330244-1.0066251c0,0-.8389735,0-2.0135377,.2516435-.2516914,.0838897-.5872821,.0838897-.8389735,.2516435-.4194867,.1677794-.8389735,.5033125-1.1745642,.754956-.6711782,.5033125-1.0906649,.9227354-1.0906649,.9227354-.9228696,.4194228-1.4262556,1.509912-1.0067688,2.4326474,.4194867,.922761,1.5101549,1.4260735,2.4330244,1.0066507h0Z" style="fill: #fb657c;"/>
          <path d="M354.1317634,183.4388648s0-.5871894-.1678049-1.4260351c-.0839025-.4194228-.1678049-.9227354-.4194867-1.3421582-.0839025-.2516563-.2516818-.5033125-.4194867-.6710791-.6711686-.9227354-1.3423627-1.5099248-1.3423627-1.5099248-.4194867-.9227354-1.5101421-1.3421582-2.5169205-.9227354-.922876,.4194228-1.3423627,1.5099248-.922876,2.5165371,0,0,.0839025,.8388457,.3355843,2.0132246,.0839025,.2516563,.1678049,.5033125,.2516818,.8388457,.2516818,.4194228,.5033892,.8388457,.755071,1.1743789,.5033892,.6710791,1.0067784,1.090502,1.0067784,1.090502,.4194867,.9227354,1.5101421,1.3421582,2.5169205,.9227354,.9229016-.5871766,1.3423883-1.7615683,.9229016-2.6842909h0Z" style="fill: #fb657c;"/>
          <path d="M322.334673,112.9758231s.2516818-.5033061,.5033892-1.3421518c.0839025-.4194228,.2516818-.8388457,.3355843-1.3421518,0-.2516531,0-.5871926-.0839025-.8388457-.1678049-1.1743853-.4194867-1.9293445-.4194867-1.9293445,.0839025-1.0066155-.755071-1.9293445-1.7618495-2.013231-1.0067784-.0838833-1.9296288,.7549624-2.0135313,1.7615747,0,0-.3355843,.8388457-.6711686,1.9293445-.0839025,.2516531-.1678049,.5033061-.1678049,.8388457,0,.5033061,.0839025,1.0066155,.1678049,1.4260383,.1678049,.8388457,.3355843,1.4260383,.3355843,1.4260383-.0839025,1.0066155,.755071,1.9293445,1.7618495,2.013231,1.0906553-.0838865,2.0135313-.9227322,2.0135313-1.9293477h0Z" style="fill: #fb657c;"/>
          <path d="M295.2358136,292.7404616s-.4194867-.4194228-1.1745578-.9227354c-.3355843-.2516435-.755071-.5033125-1.2584602-.6710663-.2516818-.0838897-.5872917-.1677794-.8389735-.1677794-1.1745578-.1677794-2.0135313-.1677794-2.0135313-.1677794-1.0067784-.3355332-2.0135313,.1677794-2.433018,1.0904892-.3355843,1.0066251,.1678049,2.0132246,1.0906553,2.4326474,0,0,.6711686,.5872022,1.5940445,1.1743789,.2516818,.1677794,.5033892,.2516435,.755071,.4194228,.5033892,.1677794,.922876,.2516435,1.3423627,.2516435,.8389735,.0838897,1.4262652,.0838897,1.4262652,.0838897,1.0067784,.3355332,2.0135313-.1677794,2.433018-1.0904892,.5033892-.9227098,0-2.013199-.922876-2.4326218h0Z" style="fill: #fb657c;"/>
        </g>
        <g>
          <path d="M417.7633204,372.4409315l45.1272706-19.5319345s.7998924,8.6957252,1.2664963,14.180719c.2666306,2.6087135-1.0665237,5.1505429-3.3328857,6.4883467-5.1326432,3.0100587-14.3314073,8.2943799-19.5973678,11.3044387-2.33302,1.3378039-5.2659604,1.2040255-7.3990053-.4682293-5.6659057-4.14719-16.0645081-11.9733406-16.0645081-11.9733406Z" style="fill: #272f60;"/>
          <path d="M446.9593988,328.2265094s10.9318649,10.9699877,17.1310331,17.1907777c1.0665224,1.0702472,1.7330996,2.6087237,1.7330996,4.1472002s-.5999195,3.0100587-1.7331008,4.14719c-5.4659318,5.4849938-14.7313551,14.7827369-18.597502,18.66236-1.0665224,1.0702472-2.5996519,1.7391491-4.1327788,1.7391491h-23.0635707c-1.5331295,0-2.9995971-.6020077-4.1327763-1.7391491-1.0665224-1.0702472-1.7330996-2.6087135-1.7330996-4.14719v-21.739313l34.5286955-18.2610249h0Z" style="fill: #ffbcc6;"/>
          <path d="M391.6334934,323.0090773l-8.1989009-8.2274959c-2.5329952-2.5418294-6.6657714-2.5418294-9.1987666,0s-2.5329952,6.6890194,0,9.2308488l10.1319705,10.1673125c1.1998409,1.2040255,2.8662838,1.9398115,4.5993833,1.9398115h19.1974288c3.5995176,0,6.532458-2.9431644,6.532458-6.555241s-2.9329404-6.555241-6.532458-6.555241l-16.5311152,.0000051h0Z" style="fill: #ffbcc6;"/>
          <path d="M398.7658719,335.651325c0,1.3378039,.5332637,2.5418294,1.4664677,3.478288,2.9995971,3.0100587,9.7320253,9.7659724,9.7320253,9.7659724l21.1971526,.6689019,24.3300657-24.4149207v-50.5021014l-12.731625-6.2876792v8.8963978s-34.9286433,35.0504625-42.5276238,42.6759456c-.933209,.9364637-1.4664677,2.2073784-1.4664677,3.478288,.0000051,3.1438371,.0000051,9.0970704,.0000051,12.2409075h0Z" style="fill: #272f60;"/>
          <path d="M457.0247127,274.6474652c0-1.6722548-.5999192-3.3445097-1.9330735-4.6823136l-23.4635147-23.5453471c-1.1998383-1.2040235-2.8662812-1.9398157-4.5993808-1.9398157h-19.2640805c-1.7330996,0-3.3995424,.6689019-4.5993833,1.9398157l-10.1319705,10.1673096c-2.5329952,2.5418269-2.5329952,6.6890194,0,9.2308475,2.5329952,2.5418294,6.6657714,2.5418269,9.1987666,0l8.1988958-8.2274946h13.8648015s15.1313017,15.1840758,17.9309262,17.9934619c.2666319,.2675618,.4666045,.6689019,.4666045,1.0702421h0c0,.8026828-.4666045,1.4715848-1.1998383,1.8060357s-1.5331269,.1337809-2.1330474-.4013401c-3.266229-3.2776205-7.7322964-7.759264-7.7322964-7.759264-1.1998383-1.204023-2.8662812-1.9398166-4.5993833-1.9398166h-19.2640805c-1.7330996,0-3.3995424,.6689019-4.5993833,1.9398166l-10.1319705,10.16731c-2.5329952,2.5418269-2.5329952,6.6890194,0,9.2308462,2.5329952,2.5418243,6.6657714,2.5418294,9.1987666,0l8.1989009-8.2274933h13.8648015s15.1313017,15.1840745,17.9309262,17.9934606c.2666319,.2675618,.4666045,.6689019,.4666045,1.0702421h0c0,.8026803-.4666045,1.4715822-1.1998383,1.8060332s-1.5331269,.1337783-2.1330474-.4013401c-3.266229-3.2776205-7.7322964-7.7592614-7.7322964-7.7592614-1.1998383-1.2040255-2.8662812-1.9398166-4.5993833-1.9398166h-19.2640805c-1.7330996,0-3.3995424,.6689019-4.5993833,1.9398166l-10.1319705,10.1673074c-2.5329952,2.5418294-2.5329952,6.6890194,0,9.2308488,2.5329952,2.5418294,6.6657714,2.5418294,9.1987666,0l8.1989009-8.2274908h13.8648015s6.4657988,6.4883467,10.6652343,10.702431c1.8664155,1.8729275,1.8664155,4.9498754,0,6.889692-3.9994629,4.0134116-10.4652591,10.5017584-13.2648862,13.3111445-.933209,.9364586-2.1330448,1.4715822-3.4661991,1.4715822h-11.7984185c-1.2664976,0-2.4663334,.8026803-2.9329404,1.9398115-.466602,1.2040255-.1999752,2.5418294,.6665771,3.478288l6.1325077,6.1538958c1.1998409,1.2040255,2.8662838,1.8729275,4.5327266,1.8729275h13.6648314c1.7330996,0,3.3328857-.6689019,4.5327241-1.8729275,4.7993559-4.8160919,17.3310057-17.3914504,22.1303617-22.2075423,1.1998383-1.2040255,1.8664155-2.8762804,1.8664155-4.5485352,.0000051-10.5017482,.0000051-47.8933675,.0000051-47.8933675h0Z" style="fill: #ffbcc6;"/>
          <path d="M415.6302705,352.7083244h12.8649409c1.9997314,0,3.8661469-.8026803,5.3326171-2.2073784l15.7978788-15.8529739c.3999465-.4013452,.3999465-1.0702472,0-1.5384765-.3999465-.4013452-1.0665224-.4013452-1.5331269,0l-15.7978788,15.8529739c-.9998657,1.0033529-2.33302,1.6053606-3.7994902,1.6053606h-12.8649409c-.5999204,0-1.0665224,.4682293-1.0665224,1.0702472s.4666071,1.0702472,1.0665224,1.0702472Z" style="fill: #272f60;"/>
          <path d="M406.1648771,293.8449539s.5999204,1.0033529,1.3331543,2.3411568c.3999453,.7357911,.8665523,1.5384765,1.2664976,2.408046,.2666319,.4682293,.466602,1.0033529,.6665771,1.4715822,.7998905,1.9398166,1.3331543,3.5451823,1.3331543,3.5451823,.2666319,.4682293,0,1.0702421-.466602,1.3378039s-1.0665224,0-1.3331543-.4682293c0,0-.8665523-1.4715822-1.866418-3.2776205-.2666319-.4682293-.5332637-.9364637-.7332338-1.4715822-.3999453-.8695746-.7332338-1.739144-1.0665224-2.4749351-.5999204-1.4715822-.933209-2.5418294-.933209-2.5418294-.2666319-.4682293,0-1.0702421,.466602-1.3378039,.5332637-.2006726,1.1331791-.0000051,1.3331543,.4682293h0Z" style="fill: #272f60;"/>
          <path d="M406.1648771,270.1658243s.5999204,1.0033529,1.3331543,2.3411568c.3999453,.7357911,.8665523,1.5384739,1.2664976,2.408046,.2666319,.4682319,.466602,1.0033529,.6665771,1.4715848,.7998905,1.9398166,1.3331543,3.5451798,1.3331543,3.5451798,.2666319,.4682319,0,1.0702421-.466602,1.3378039s-1.0665224,0-1.3331543-.4682319c0,0-.8665523-1.4715848-1.866418-3.2776205-.2666319-.4682319-.5332637-.9364637-.7332338-1.4715848-.3999453-.869572-.7332338-1.739144-1.0665224-2.4749377-.5999204-1.4715848-.933209-2.5418269-.933209-2.5418269-.2666319-.4682319,0-1.0702421,.466602-1.3378039,.5332637-.2006675,1.1331791,.0000026,1.3331543,.4682344h0Z" style="fill: #272f60;"/>
          <path d="M406.1648771,245.8846829s.5999204,1.0033529,1.3331543,2.3411568c.3999453,.7357921,.8665523,1.5384743,1.2664976,2.4080469,.2666319,.4682312,.466602,1.0033529,.6665771,1.4715841,.7998905,1.9398154,1.3331543,3.545181,1.3331543,3.545181,.2666319,.4682319,0,1.0702434-.466602,1.3378039s-1.0665224,0-1.3331543-.4682319c0,0-.8665523-1.4715841-1.866418-3.2776192-.2666319-.4682312-.5332637-.9364625-.7332338-1.4715841-.3999453-.8695726-.7332338-1.7391447-1.0665224-2.474937-.5999204-1.4715841-.933209-2.5418273-.933209-2.5418273-.2666319-.4682314,0-1.0702431,.466602-1.3378039,.5332637-.2006711,1.1331791-.0000006,1.3331543,.4682307h0Z" style="fill: #272f60;"/>
          <path d="M423.695858,303.6778103s.3332886-1.1371313,.7998905-2.6087186c.2666319-.8026803,.5999204-1.6722548,.933209-2.6087186,.1999752-.5351236,.466602-1.0033529,.6665771-1.5384765,.933209-1.9398166,1.7330996-3.478288,1.7330996-3.478288,.1999726-.5351236,.7998931-.7357911,1.2664976-.5351236,.5332612,.2006726,.7332338,.8026803,.5332612,1.2709147,0,0-.4666045,1.6722548-1.1998383,3.6789607-.1999726,.5351236-.3332886,1.0033529-.5999204,1.5384765-.3332886,.8695746-.7998905,1.739144-1.1331791,2.4749351-.6665771,1.404693-1.2664976,2.4749351-1.2664976,2.4749351-.1999752,.5351236-.7998905,.7357911-1.2664976,.5351236-.466602-.0668892-.6665771-.6688968-.466602-1.2040204Z" style="fill: #272f60;"/>
          <path d="M423.695858,279.9986807s.3332886-1.1371338,.7998905-2.6087186c.2666319-.8026828,.5999204-1.6722548,.933209-2.6087186,.1999752-.535121,.466602-1.0033529,.6665771-1.5384739,.933209-1.9398166,1.7330996-3.4782906,1.7330996-3.4782906,.1999726-.535121,.7998931-.7357911,1.2664976-.535121,.5332612,.2006701,.7332338,.8026828,.5332612,1.2709147,0,0-.4666045,1.6722548-1.1998383,3.6789607-.1999726,.535121-.3332886,1.0033529-.5999204,1.5384739-.3332886,.869572-.7998905,1.739144-1.1331791,2.4749377-.6665771,1.404693-1.2664976,2.4749377-1.2664976,2.4749377-.1999752,.535121-.7998905,.7357911-1.2664976,.535121-.466602-.0668892-.6665771-.6688994-.466602-1.204023Z" style="fill: #272f60;"/>
          <path d="M423.695858,255.7844314s.3332886-1.1371332,.7998905-2.6087173c.2666319-.8026822,.5999204-1.6722548,.933209-2.6087173,.1999752-.5351217,.466602-1.0033529,.6665771-1.5384746,.933209-1.9398157,1.7330996-3.4782902,1.7330996-3.4782902,.1999726-.5351216,.7998931-.7357921,1.2664976-.5351216,.5332612,.2006706,.7332338,.8026823,.5332612,1.2709137,0,0-.4666045,1.6722547-1.1998383,3.6789605-.1999726,.5351217-.3332886,1.0033529-.5999204,1.5384746-.3332886,.8695726-.7998905,1.7391453-1.1331791,2.474937-.6665771,1.4046937-1.2664976,2.474937-1.2664976,2.474937-.1999752,.535121-.7998905,.7357924-1.2664976,.535121-.466602-.1337796-.6665771-.7357911-.466602-1.204023Z" style="fill: #272f60;"/>
          <path d="M391.9001252,324.8819997s-.2666319,1.0033529-.7998905,2.408046c-.2666319,.7357911-.5332637,1.5384765-.8665523,2.3411568-.1999752,.4682293-.3999453,.9364637-.6665771,1.3377988-.8665523,1.7391491-1.6664429,3.076953-1.6664429,3.076953-.1999752,.5351236-.7998905,.7357962-1.3331543,.5351236s-.7332338-.8026803-.5332637-1.3378039c0,0,.466602-1.5384765,1.1331791-3.3445097,.1333134-.4682293,.3332886-.9364637,.5332637-1.404693,.3332886-.8026803,.7332338-1.5384765,1.0665224-2.2742676,.6665771-1.2709147,1.1998409-2.2073784,1.1998409-2.2073784,.1999752-.5351236,.7998905-.7357911,1.3331543-.5351236,.5999204,.2675669,.7998956,.8695797,.5999204,1.4046982Z" style="fill: #272f60;"/>
          <path d="M420.6295991,359.3973437s-.3332886,.2006726-.8665523,.334451c-.2666319,.0668943-.5332637,.2006726-.8665523,.2006726-.1999752,0-.3332886-.0668943-.5332637-.0668943-.7332338-.2006726-1.1998409-.4682293-1.1998409-.4682293-.7998905,0-1.4664677-.6689019-1.4664677-1.4715822s.6665771-1.4715822,1.4664677-1.4715822c0,0,.466602-.2675567,1.1998409-.4682293,.1999752-.0668943,.3332886-.0668943,.5332637-.0668943,.3332886,0,.5999204,.0668943,.8665523,.2006726,.5332637,.1337783,.8665523,.334451,.8665523,.334451,.7998905,0,1.4664677,.6689019,1.4664677,1.4715822,.0666618,.8026803-.5999154,1.4715822-1.4664677,1.4715822h0Z" style="fill: #272f60;"/>
          <path d="M420.6295991,364.9492319s-.3332886,.2006726-.8665523,.334451c-.2666319,.0668943-.5332637,.2006726-.8665523,.2006726-.1999752,0-.3332886-.0668943-.5332637-.0668943-.7332338-.2006726-1.1998409-.4682293-1.1998409-.4682293-.7998905,0-1.4664677-.6689019-1.4664677-1.4715822s.6665771-1.4715822,1.4664677-1.4715822c0,0,.466602-.2675567,1.1998409-.4682293,.1999752-.0668943,.3332886-.0668943,.5332637-.0668943,.3332886,0,.5999204,.0668943,.8665523,.2006726,.5332637,.1337783,.8665523,.334451,.8665523,.334451,.7998905,0,1.4664677,.6689019,1.4664677,1.4715822s-.5999154,1.4715822-1.4664677,1.4715822Z" style="fill: #272f60;"/>
          <path d="M420.6295991,370.5011098s-.3332886,.2006726-.8665523,.334451c-.2666319,.0668943-.5332637,.2006726-.8665523,.2006726-.1999752,0-.3332886-.0668943-.5332637-.0668943-.7332338-.2006726-1.1998409-.4682293-1.1998409-.4682293-.7998905,0-1.4664677-.6689019-1.4664677-1.4715822s.6665771-1.4715822,1.4664677-1.4715822c0,0,.466602-.2675567,1.1998409-.4682293,.1999752-.0668943,.3332886-.0668943,.5332637-.0668943,.3332886,0,.5999204,.0668943,.8665523,.2006726,.5332637,.1337783,.8665523,.334451,.8665523,.334451,.7998905,0,1.4664677,.6689019,1.4664677,1.4715822,.0666618,.8026803-.5999154,1.4715822-1.4664677,1.4715822h0Z" style="fill: #272f60;"/>
          <ellipse cx="404.098489" cy="323.4773067" rx="1.5997862" ry="1.6053657" style="fill: #fb657c;"/>
          <ellipse cx="408.5645538" cy="319.1294441" rx="1.5997862" ry="1.6053657" style="fill: #fb657c;"/>
          <path d="M422.1627286,332.239921c.2666319,0,.5332637-.1337783,.7332338-.334451,.3999453-.4013452,.3999453-1.0702472,0-1.5384765l-7.1990352-7.224143v-12.6422425c0-.6020128-.466602-1.0702421-1.0665224-1.0702421s-1.0665224,.4682293-1.0665224,1.0702421v13.0435878c0,.2675618,.1333134,.5351236,.3332886,.7357911l7.5323238,7.5585888c.1999701,.3344612,.466602,.4013452,.7332338,.4013452Z" style="fill: #fb657c;"/>
        </g>
        <g>
          <path d="M11.2890352,374.1069015l-44.1738771-19.0476722s-.7829933,8.4801289-1.2397393,13.8291313c-.2609976,2.5440347,1.0439915,5.0228436,3.2624726,6.3274788,5.0242071,2.9354292,14.028631,8.0887344,19.1833387,11.0241636,2.2837308,1.3046352,5.1547077,1.1741737,7.2426882-.4566203,5.5462034-4.0443672,15.725117-11.6764812,15.725117-11.6764812Z" style="fill: #272f60;"/>
          <path d="M-17.2902244,330.9887036s-10.7009099,10.6980048-16.7691097,16.7645606c-1.0439902,1.0437122-1.6964848,2.5440446-1.6964848,4.0443771s.5872451,2.9354292,1.696486,4.0443672c5.3504543,5.3490024,14.4201292,14.4162231,18.2045969,18.1996573,1.0439902,1.0437122,2.5447296,1.6960298,4.0454665,1.6960298H10.7670426c1.5007394,0,2.9362253-.5870819,4.045464-1.6960298,1.0439902-1.0437122,1.6964848-2.5440347,1.6964848-4.0443672v-21.2003223l-33.7992157-17.8082727h0Z" style="fill: #ffbcc6;"/>
          <path d="M36.8668234,325.9006292l8.0256846-8.0235086c2.4794812-2.4788089,6.5249452-2.4788089,9.0044264,0,2.4794812,2.4788089,2.4794812,6.5231761,0,9.001985l-9.9179147,9.9152306c-1.1744921,1.1741737-2.8057284,1.8917171-4.5022132,1.8917171H20.6849573c-3.5234714,0-6.3944483-2.8701935-6.3944483-6.3927146s2.8709769-6.3927146,6.3944483-6.3927146l16.1818661,.000005h0Z" style="fill: #ffbcc6;"/>
          <path d="M29.885129,338.229433c0,1.3046352-.5219976,2.4788089-1.435486,3.3920496-2.9362253,2.9354292-9.526419,9.5238411-9.526419,9.5238411l-20.7493253,.6523176-23.81605-23.8095927v-49.2499844l12.4626469-6.1317865v8.6758262s34.1907139,34.1814437,41.6291525,41.6178654c.9134933,.9132456,1.435486,2.1526501,1.435486,3.3920496-.000005,3.0658908-.000005,8.8715235-.000005,11.9374142h0Z" style="fill: #272f60;"/>
          <path d="M-27.1428906,278.7380641c0-1.630794,.5872448-3.261588,1.8922339-4.5662233L-2.2828504,251.2102621c1.1744896-1.1741717,2.8057259-1.8917211,4.5022107-1.8917211H21.076453c1.6964848,0,3.3277211,.6523176,4.5022132,1.8917211l9.9179147,9.9152278c2.4794812,2.4788064,2.4794812,6.5231761,0,9.0019837-2.4794812,2.4788089-6.5249452,2.4788064-9.0044264,0l-8.0256796-8.0235073H4.8945919s-14.8116261,14.8076115-17.5521036,17.5473434c-.2609988,.260928-.4567467,.6523176-.4567467,1.0437072h0c0,.7827816,.4567467,1.4350992,1.1744896,1.761258s1.5007369,.130464,2.087983-.3913896c3.1972242-3.1963573,7.5689379-7.5668858,7.5689379-7.5668858,1.1744896-1.1741712,2.8057259-1.8917221,4.5022132-1.8917221H21.076458c1.6964848,0,3.3277211,.6523176,4.5022132,1.8917221l9.9179147,9.9152281c2.4794812,2.4788064,2.4794812,6.5231761,0,9.0019825-2.4794812,2.4788039-6.5249452,2.4788089-9.0044264,0l-8.0256846-8.0235061H4.8945919s-14.8116261,14.8076102-17.5521036,17.5473422c-.2609988,.260928-.4567467,.6523176-.4567467,1.0437072h0c0,.7827791,.4567467,1.4350967,1.1744896,1.7612556s1.5007369,.1304615,2.087983-.3913896c3.1972242-3.1963573,7.5689379-7.5668833,7.5689379-7.5668833,1.1744896-1.1741737,2.8057259-1.8917221,4.5022132-1.8917221H21.076458c1.6964848,0,3.3277211,.6523176,4.5022132,1.8917221l9.9179147,9.9152257c2.4794812,2.4788089,2.4794812,6.5231761,0,9.001985s-6.5249452,2.4788089-9.0044264,0l-8.0256846-8.0235036H4.8945919s-6.3291974,6.3274788-10.4399123,10.4370817c-1.8269842,1.8264913-1.8269842,4.8271513,0,6.7188734,3.9149671,3.9139057,10.244162,10.2413845,12.984642,12.9811164,.9134933,.9132407,2.0879805,1.4350967,3.3929695,1.4350967h11.549156c1.2397406,0,2.4142277,.7827791,2.8709769,1.8917171,.4567442,1.1741737,.1957503,2.4788089-.6524945,3.3920496l-6.0029476,6.00132c-1.1744921,1.1741737-2.8057284,1.8264913-4.4369647,1.8264913H.7838794c-1.6964848,0-3.2624726-.6523176-4.4369622-1.8264913-4.6979611-4.6966848-16.9648576-16.9602578-21.6628186-21.6569426-1.1744896-1.1741737-1.8269842-2.8049677-1.8269842-4.4357617-.000005-10.2413745-.000005-46.7059298-.000005-46.7059298h0Z" style="fill: #ffbcc6;"/>
          <path d="M13.3770206,354.863532H.7838744c-1.9574836,0-3.7844677-.7827791-5.2199562-2.1526501l-15.4641207-15.4599253c-.391497-.3913945-.391497-1.0437122,0-1.5003325,.391497-.3913945,1.0439902-.3913945,1.5007369,0l15.4641207,15.4599253c.9787418,.9784764,2.2837308,1.5655583,3.7192193,1.5655583H13.3770206c.5872461,0,1.0439902,.4566203,1.0439902,1.0437122s-.4567492,1.0437122-1.0439902,1.0437122Z" style="fill: #272f60;"/>
          <path d="M22.6424409,297.4595825s-.5872461,.9784764-1.304989,2.2831116c-.3914957,.7175484-.8482449,1.5003325-1.2397406,2.3483424-.2609988,.4566203-.4567442,.9784764-.6524945,1.4350967-.7829914,1.8917221-1.304989,3.4572853-1.304989,3.4572853-.2609988,.4566203,0,1.0437072,.4567442,1.3046352s1.0439902,0,1.304989-.4566203c0,0,.8482449-1.4350967,1.8269867-3.1963573,.2609988-.4566203,.5219976-.9132456,.717743-1.4350967,.3914957-.8480149,.717743-1.6960248,1.0439902-2.4135732,.5872461-1.4350967,.9134933-2.4788089,.9134933-2.4788089,.2609988-.4566203,0-1.0437072-.4567442-1.3046352-.5219976-.1956973-1.1092387-.000005-1.304989,.4566203h0Z" style="fill: #272f60;"/>
          <path d="M22.6424409,274.3675381s-.5872461,.9784764-1.304989,2.2831116c-.3914957,.7175484-.8482449,1.50033-1.2397406,2.3483424-.2609988,.4566228-.4567442,.9784764-.6524945,1.4350992-.7829914,1.8917221-1.304989,3.4572828-1.304989,3.4572828-.2609988,.4566228,0,1.0437072,.4567442,1.3046352s1.0439902,0,1.304989-.4566228c0,0,.8482449-1.4350992,1.8269867-3.1963573,.2609988-.4566228,.5219976-.9132456,.717743-1.4350992,.3914957-.8480124,.717743-1.6960248,1.0439902-2.4135756,.5872461-1.4350992,.9134933-2.4788064,.9134933-2.4788064,.2609988-.4566228,0-1.0437072-.4567442-1.3046352-.5219976-.1956923-1.1092387,.0000025-1.304989,.4566253h0Z" style="fill: #272f60;"/>
          <path d="M22.6424409,250.6884079s-.5872461,.9784764-1.304989,2.2831116c-.3914957,.7175493-.8482449,1.5003303-1.2397406,2.3483433-.2609988,.4566222-.4567442,.9784764-.6524945,1.4350986-.7829914,1.8917208-1.304989,3.4572841-1.304989,3.4572841-.2609988,.4566228,0,1.0437084,.4567442,1.3046352s1.0439902,0,1.304989-.4566228c0,0,.8482449-1.4350986,1.8269867-3.196356,.2609988-.4566222,.5219976-.9132444,.717743-1.4350986,.3914957-.848013,.717743-1.6960254,1.0439902-2.413575,.5872461-1.4350986,.9134933-2.4788069,.9134933-2.4788069,.2609988-.4566224,0-1.0437082-.4567442-1.3046352-.5219976-.1956958-1.1092387-.0000005-1.304989,.4566217h0Z" style="fill: #272f60;"/>
          <path d="M5.4818329,307.0486493s-.3262473-1.1089379-.7829914-2.5440397c-.2609988-.7827791-.5872461-1.630794-.9134933-2.5440397-.1957503-.5218561-.4567442-.9784764-.6524945-1.5003325-.9134933-1.8917221-1.6964848-3.3920496-1.6964848-3.3920496-.1957479-.5218561-.7829939-.7175484-1.2397406-.5218561-.5219951,.1956973-.717743,.7827791-.5219951,1.2394045,0,0,.4567467,1.630794,1.1744896,3.5877468,.1957479,.5218561,.3262473,.9784764,.5872461,1.5003325,.3262473,.8480149,.7829914,1.6960248,1.1092387,2.4135732,.6524945,1.369866,1.2397406,2.4135732,1.2397406,2.4135732,.1957503,.5218561,.7829914,.7175484,1.2397406,.5218561,.4567442-.0652308,.6524945-.6523126,.4567442-1.1741687Z" style="fill: #272f60;"/>
          <path d="M5.4818329,283.956605s-.3262473-1.1089404-.7829914-2.5440397c-.2609988-.7827816-.5872461-1.630794-.9134933-2.5440397-.1957503-.5218536-.4567442-.9784764-.6524945-1.50033-.9134933-1.8917221-1.6964848-3.3920521-1.6964848-3.3920521-.1957479-.5218536-.7829939-.7175484-1.2397406-.5218536-.5219951,.1956948-.717743,.7827816-.5219951,1.2394045,0,0,.4567467,1.630794,1.1744896,3.5877468,.1957479,.5218536,.3262473,.9784764,.5872461,1.50033,.3262473,.8480124,.7829914,1.6960248,1.1092387,2.4135756,.6524945,1.369866,1.2397406,2.4135756,1.2397406,2.4135756,.1957503,.5218536,.7829914,.7175484,1.2397406,.5218536,.4567442-.0652308,.6524945-.6523151,.4567442-1.1741712Z" style="fill: #272f60;"/>
          <path d="M5.4818329,260.3427083s-.3262473-1.1089398-.7829914-2.5440384c-.2609988-.782781-.5872461-1.630794-.9134933-2.5440384-.1957503-.5218542-.4567442-.9784764-.6524945-1.5003306-.9134933-1.8917211-1.6964848-3.3920517-1.6964848-3.3920517-.1957479-.5218541-.7829939-.7175494-1.2397406-.5218541-.5219951,.1956953-.717743,.7827811-.5219951,1.2394035,0,0,.4567467,1.6307939,1.1744896,3.5877467,.1957479,.5218542,.3262473,.9784764,.5872461,1.5003306,.3262473,.848013,.7829914,1.696026,1.1092387,2.413575,.6524945,1.3698666,1.2397406,2.413575,1.2397406,2.413575,.1957503,.5218536,.7829914,.7175496,1.2397406,.5218536,.4567442-.1304628,.6524945-.7175484,.4567442-1.1741712Z" style="fill: #272f60;"/>
          <path d="M36.6058246,327.7271155s.2609988,.9784764,.7829914,2.3483424c.2609988,.7175484,.5219976,1.5003325,.8482449,2.2831116,.1957503,.4566203,.3914957,.9132456,.6524945,1.3046302,.8482449,1.6960298,1.6312363,3.000665,1.6312363,3.000665,.1957503,.5218561,.7829914,.7175534,1.304989,.5218561s.717743-.7827791,.5219976-1.3046352c0,0-.4567442-1.5003325-1.1092387-3.261588-.1304969-.4566203-.3262473-.9132456-.5219976-1.369866-.3262473-.7827791-.717743-1.5003325-1.0439902-2.2178809-.6524945-1.2394045-1.1744921-2.1526501-1.1744921-2.1526501-.1957503-.5218561-.7829914-.7175484-1.304989-.5218561-.5872461,.260933-.7829964,.8480199-.5872461,1.369871Z" style="fill: #272f60;"/>
          <path d="M8.4833117,361.3867081s.3262473,.1956973,.8482449,.3261588c.2609988,.0652357,.5219976,.1956973,.8482449,.1956973,.1957503,0,.3262473-.0652357,.5219976-.0652357,.717743-.1956973,1.1744921-.4566203,1.1744921-.4566203,.7829914,0,1.435486-.6523176,1.435486-1.4350967s-.6524945-1.4350967-1.435486-1.4350967c0,0-.4567442-.2609231-1.1744921-.4566203-.1957503-.0652357-.3262473-.0652357-.5219976-.0652357-.3262473,0-.5872461,.0652357-.8482449,.1956973-.5219976,.1304615-.8482449,.3261588-.8482449,.3261588-.7829914,0-1.435486,.6523176-1.435486,1.4350967-.0652534,.7827791,.5872411,1.4350967,1.435486,1.4350967h0Z" style="fill: #272f60;"/>
          <path d="M8.4833117,366.8009462s.3262473,.1956973,.8482449,.3261588c.2609988,.0652357,.5219976,.1956973,.8482449,.1956973,.1957503,0,.3262473-.0652357,.5219976-.0652357,.717743-.1956973,1.1744921-.4566203,1.1744921-.4566203,.7829914,0,1.435486-.6523176,1.435486-1.4350967s-.6524945-1.4350967-1.435486-1.4350967c0,0-.4567442-.2609231-1.1744921-.4566203-.1957503-.0652357-.3262473-.0652357-.5219976-.0652357-.3262473,0-.5872461,.0652357-.8482449,.1956973-.5219976,.1304615-.8482449,.3261588-.8482449,.3261588-.7829914,0-1.435486,.6523176-1.435486,1.4350967s.5872411,1.4350967,1.435486,1.4350967Z" style="fill: #272f60;"/>
          <path d="M8.4833117,372.2151744s.3262473,.1956973,.8482449,.3261588c.2609988,.0652357,.5219976,.1956973,.8482449,.1956973,.1957503,0,.3262473-.0652357,.5219976-.0652357,.717743-.1956973,1.1744921-.4566203,1.1744921-.4566203,.7829914,0,1.435486-.6523176,1.435486-1.4350967s-.6524945-1.4350967-1.435486-1.4350967c0,0-.4567442-.2609231-1.1744921-.4566203-.1957503-.0652357-.3262473-.0652357-.5219976-.0652357-.3262473,0-.5872461,.0652357-.8482449,.1956973-.5219976,.1304615-.8482449,.3261588-.8482449,.3261588-.7829914,0-1.435486,.6523176-1.435486,1.4350967-.0652534,.7827791,.5872411,1.4350967,1.435486,1.4350967h0Z" style="fill: #272f60;"/>
          <circle cx="24.6651729" cy="326.3572495" r="1.5657756" style="fill: #fb657c;"/>
          <circle cx="20.2934616" cy="322.1171851" r="1.5657756" style="fill: #fb657c;"/>
          <path d="M6.9825723,334.9026092c-.2609988,0-.5219976-.1304615-.717743-.3261588-.3914957-.3913945-.3914957-1.0437122,0-1.5003325l7.0469428-7.0450322v-12.3287988c0-.5870868,.4567442-1.0437072,1.0439902-1.0437072s1.0439902,.4566203,1.0439902,1.0437072v12.7201934c0,.260928-.1304969,.5218561-.3262473,.7175484l-7.3731901,7.371186c-.1957454,.3261688-.4567442,.3913945-.717743,.3913945Z" style="fill: #fb657c;"/>
        </g>
        <g>
          <path d="M282.9645884,372.8439538s5.7366597,5.7531841,9.0247442,9.0507453c1.3991858,1.4032162,2.2386952,3.3677209,2.2386952,5.4023801v20.0659901c0,2.0346645-.7695565,3.9991693-2.2386952,5.4023854-4.4074374,4.4201331-13.6420617,13.6813576-13.6420617,13.6813576l-10.2840136-4.8410915v-21.8200157l14.9013311-26.9417514h0Z" style="fill: #fb657c;"/>
          <path d="M143.7455959,372.8439538s-5.7366617,5.7531841-9.0247482,9.0507453c-1.3991858,1.4032162-2.2386973,3.3677209-2.2386973,5.4023801v20.0659901c0,2.0346645,.7695522,3.9991693,2.2386973,5.4023854,4.4074354,4.4201331,13.6420617,13.6813576,13.6420617,13.6813576l10.2840163-4.8410915v-21.8200157l-14.9013297-26.9417514h0Z" style="fill: #fb657c;"/>
          <path d="M224.96833,548.7370926c-.3497965,.7016081-1.0493894,1.1927423-1.8189458,1.1927423h-19.5186432c-.7695511,0-1.5391023-.4911342-1.8189405-1.1927423-1.6090658-3.6483706-6.2263779-14.3829657-6.2263779-14.3829657h-5.7366544l-22.0371766-50.9367511h-9.3045851l-20.2881943-46.797257h17.4898227l30.0824923-30.1691476h8.3251567l8.1152767-8.1386527v-45.2537106l-13.5021399-13.5410368h-15.1112084l18.2593765-18.3119712h42.9550056l18.2593791,18.3119712h-15.1112111l-13.5021452,13.5410368v45.2537213l8.115282,8.1386527h8.3251513l30.082495,30.1691476h17.4898227l-20.2881943,46.797257h-9.2346242l-22.0371766,50.9367404h-5.7366597c0,.0701651-4.687281,10.7346165-6.2263833,14.3829657Z" style="fill: #ffbcc6;"/>
          <path d="M142.206491,433.8838623c0-.7016081,.2798369-1.4733813,.8395114-1.9645048,2.798371-2.8064323,6.1564177-6.1741533,8.2551964-8.2789775,1.2592667-1.2628967,1.9588596-3.0169169,1.9588596-4.8410915v-16.1369859c0-1.8241799-.6995929-3.5080404-1.9588596-4.8410968-1.6090632-1.6137007-3.9177205-3.9290042-5.5267837-5.5427049-1.2592667-1.2628967-1.9588596-3.0169169-1.9588596-4.8410968v-23.8546748c0-1.8241799,.6995929-3.5080404,1.9588596-4.8410968,4.0576383-4.0693263,13.1523461-13.1902314,17.2099844-17.2595591,1.2592667-1.262894,3.008249-1.9645021,4.8271921-1.9645021h23.6462424c1.8189405,0,3.4979645,.7016081,4.8271921,1.9645021,2.5185334,2.5257894,6.9259708,6.9459198,9.5144625,9.5418702,1.2592694,1.262894,1.9588623,3.0169142,1.9588623,4.8410968v39.6408567c0,1.8241799-.6995929,3.5080404-1.9588623,4.8410968-1.2592694,1.2628967-2.8683299,2.8765921-4.1975574,4.2096485-1.2592694,1.2628967-3.0082516,1.9645048-4.8271921,1.9645048h-2.7284134c-1.8189405,0-3.4979645,.7016081-4.8271921,1.9645048-5.4568268,5.4725452-20.6379908,20.6974384-26.0948149,26.1699836-1.2592667,1.2628967-3.008249,1.9645048-4.8271921,1.9645048h-16.1605944l.0699589-2.7362779h0Z" style="fill: #272f60;"/>
          <path d="M284.5736435,436.6902946h-16.1606004c-1.8189458,0-3.4979645-.7016081-4.8271868-1.9645048-5.4568268-5.4725452-20.6379908-20.6974384-26.0948176-26.1699836-1.2592694-1.2628967-3.0082516-1.9645048-4.8271868-1.9645048h-2.7284081c-1.8189458,0-3.4979645-.7016081-4.8271868-1.9645048-1.2592694-1.2628967-2.8683352-2.8765921-4.1975574-4.2096485-1.2592694-1.2628967-1.9588623-3.0169169-1.9588623-4.8410968v-39.6408567c0-1.8241799,.6995929-3.5080404,1.9588623-4.8410968,2.5185281-2.5257827,6.9259655-6.9459131,9.5144571-9.5418635,1.2592694-1.262894,3.0082516-1.9645021,4.8271868-1.9645021h23.7161953c1.8189458,0,3.4979645,.7016081,4.8271868,1.9645021,4.057641,4.0693263,13.1523488,13.1902314,17.2099898,17.2595578,1.2592694,1.262894,1.9588623,3.0169142,1.9588623,4.8410968v23.8546748c0,1.8241799-.6995929,3.5080404-1.9588623,4.8410968-1.6090658,1.6137007-3.9177245,3.9290042-5.5267797,5.5427049-1.2592694,1.2628967-1.9588623,3.0169169-1.9588623,4.8410968v16.1369913c0,1.8241853,.6995929,3.5080404,1.9588623,4.8410915,2.0987787,2.1048242,5.4568268,5.4725452,8.2551984,8.2789775,.5596765,.5612886,.8395094,1.2628967,.8395094,1.9645048h0v2.7362672h0Z" style="fill: #272f60;"/>
          <path d="M158.6469256,384.911616v-19.9256706h30.7121297v19.9256706c0,6.1741533-6.8560126,11.2257293-15.391044,11.2257293-8.3951176,0-15.3210857-5.0515814-15.3210857-11.2257293h0Z" style="fill: #fff;"/>
          <path d="M180.8240186,396.1373453c-.6296347,0-1.1193476-.4911235-1.1193476-1.1225719v-24.7667675c0-.6314483,.4897129-1.1225719,1.1193476-1.1225719s1.1193476,.4911235,1.1193476,1.1225719v24.7667621c0,.5612886-.5596711,1.1225772-1.1193476,1.1225772Z" style="fill: #272f60;"/>
          <path d="M192.2973434,401.0486019h-6.5062162c-.2798382,0-.5596765-.1403195-.7695511-.350804l-4.9671086-4.9814163c-.4197547-.4209638-.4197547-1.1225719,0-1.6137007,.4197547-.4209638,1.1193476-.4209638,1.6090658,0l4.6173121,4.6306123h5.5967433l7.695522-7.7176889v-10.5241212c0-.6314483,.4897129-1.1225719,1.1193476-1.1225719h7.0658873c.6296347,0,1.1193476,.4911235,1.1193476,1.1225719s-.4897129,1.1225719-1.1193476,1.1225719h-5.9465397v9.8225132c0,.2806443-.1399164,.5612886-.3497965,.7717678l-8.3951149,8.419297c-.2098747,.350804-.4897129,.4209691-.7695511,.4209691Z" style="fill: #fb657c;"/>
          <path d="M240.989014,401.0486019h-6.5062162c-.2798329,0-.5596765-.1403195-.7695565-.350804l-8.3951149-8.419297c-.20988-.2104846-.3497965-.4911235-.3497965-.7717678v-9.8225132h-5.9465397c-.6296347,0-1.1193476-.4911235-1.1193476-1.1225719s.4897129-1.1225719,1.1193476-1.1225719h7.0658926c.6296293,0,1.1193529,.4911235,1.1193529,1.1225719v10.5241212l7.695522,7.7176889h5.5967433l4.6173175-4.6306123c.41976-.4209638,1.1193529-.4209638,1.6090658,0s.41976,1.1225719,0,1.6137007l-4.9671139,4.9814163c-.1399271,.2104739-.41976,.280639-.7695565,.280639Z" style="fill: #fb657c;"/>
          <path d="M161.3753363,359.7238848c-.2798382,0-.5596738-.1403222-.7695511-.350804l-7.695522-7.7176889c-.419756-.4209638-.419756-1.1225719,0-1.6136981,.419756-.4209638,1.1193489-.4209638,1.6090632,0l7.695522,7.7176889c.4197547,.4209638,.4197547,1.1225719,0,1.6136981-.2098773,.2806416-.5596738,.350804-.839512,.350804Z" style="fill: #fb657c;"/>
          <path d="M265.3348386,359.7238848c-.2798329,0-.5596765-.1403222-.7695565-.350804-.41976-.4209638-.41976-1.1225719,0-1.6136981l7.695522-7.7176889c.41976-.4209638,1.1193529-.4209638,1.6090658,0s.41976,1.1225719,0,1.6136981l-7.695522,7.7176889c-.2798329,.2806416-.5596658,.350804-.8395094,.350804Z" style="fill: #fb657c;"/>
          <path d="M166.1325676,356.496486c-.2798382,0-.5596738-.1403222-.7695511-.350804l-8.4650731-8.4894567c-.4197547-.4209638-.4197547-1.1225719,0-1.6136981,.4197547-.4209638,1.1193476-.4209638,1.6090632,0l8.4650758,8.4894567c.4197547,.4209638,.4197547,1.1225719,0,1.6136981-.2798382,.2806443-.5596765,.350804-.8395147,.350804Z" style="fill: #fb657c;"/>
          <path d="M260.5776154,356.496486c-.2798329,0-.5596765-.1403222-.7695565-.350804-.41976-.4209638-.41976-1.1225719,0-1.6136981l8.4650784-8.4894567c.41976-.4209638,1.1193529-.4209638,1.6090658,0s.41976,1.1225719,0,1.6136981l-8.4650784,8.4894594c-.2798436,.2806416-.5596765,.3508014-.8395094,.3508014Z" style="fill: #fb657c;"/>
          <path d="M192.9269781,344.3586667c.6296347,.6314483,.6296347,1.6838605,0,2.3153061s-1.679024,.6314483-2.3086587,0c-.6296347-.6314483-.6296347-1.6838605,0-2.3153061,.6296347-.7016081,1.679024-.7016081,2.3086587,0Z" style="fill: #ffbcc6;"/>
          <path d="M234.2029542,344.3586667c-.6296293,.6314483-.6296293,1.6838605,0,2.3153061,.6296293,.6314457,1.6790187,.6314483,2.3086587,0s.6296293-1.6838605,0-2.3153061c-.5596765-.7016081-1.6090658-.7016081-2.3086587,0Z" style="fill: #ffbcc6;"/>
          <ellipse cx="164.8733009" cy="476.6117903" rx="1.679024" ry="1.6838551" style="fill: #272f60;"/>
          <ellipse cx="261.9068376" cy="476.6117903" rx="1.6790187" ry="1.6838551" style="fill: #272f60;"/>
          <path d="M197.7541702,349.1997635c.6296347,.6314483,.6296347,1.6838605,0,2.3153061-.6296347,.6314457-1.679024,.6314483-2.3086587,0-.6296347-.6314483-.6296347-1.6838605,0-2.3153061,.6296347-.7016081,1.679024-.7016081,2.3086587,0Z" style="fill: #ffbcc6;"/>
          <path d="M229.445731,349.1997635c-.6296293,.6314483-.6296293,1.6838605,0,2.3153061,.6296293,.6314457,1.6790187,.6314483,2.3086587,0s.6296293-1.6838605,0-2.3153061c-.62964-.7016081-1.6790294-.7016081-2.3086587,0Z" style="fill: #ffbcc6;"/>
          <ellipse cx="171.6593526" cy="476.6117903" rx="1.679024" ry="1.6838551" style="fill: #272f60;"/>
          <ellipse cx="255.050825" cy="476.6117903" rx="1.6790187" ry="1.6838551" style="fill: #272f60;"/>
          <path d="M243.6474585,430.7266259c.9794258,.982247,1.2592694,2.4556283,.7695565,3.7886794-.5596765,1.3330511-1.8189458,2.1749893-3.2181316,2.1749893h-55.6875943c-1.3991858,0-2.6584552-.8419276-3.2181263-2.1749893-.5596765-1.3330511-.20988-2.8064323,.7695511-3.7886794,4.9671086-4.9814217,11.6132412-11.6466985,14.1317799-14.1724811,.6296347-.631443,1.5391023-1.0524121,2.4485752-1.0524121h27.3540869c.9094729,0,1.8189458,.350804,2.4485752,1.0524121,2.5884916,2.5257827,9.2346242,9.1910595,14.2017275,14.1724811h0Z" style="fill: #fff;"/>
          <path d="M200.4825782,415.5718871h2.1687369v3.718525h9.584426v-3.718525h2.1687369v3.718525h9.584426v-3.718525h2.1687423v3.718525h6.0864562l2.1687423,2.1749893h-8.2551984v3.5080404h9.5844207v-2.2451437l2.1687423,2.1749893h0l2.1687423,2.1749893h-2.2386952v3.5080404h5.7366597l1.3292223,1.3330511c.2798329,.280639,.41976,.5612886,.5596765,.9120926h-7.6255584v3.718525h-2.1687423v-3.718525h-9.5844207v3.718525h-2.0987787v-3.718525h-9.5844207v3.718525h-2.168753v-3.718525h-9.5844207v3.718525h-2.1687369v-3.718525h-9.584426v3.718525h-2.1687369v-3.718525h-7.5556055c.1399164-.350804,.3497965-.631443,.5596765-.9120926l1.3292276-1.3330511h5.6667015v-3.5080404h-2.1687369l4.3374739-4.349968v2.1749893h9.5844207v-3.5080404h-8.1852349l2.1687369-2.1749893h6.0164979v-3.6483813h0Zm-9.5144625,11.6466985v3.5080404h9.5844207v-3.5080404h-9.5844207Zm11.6832048,0v3.5080404h9.5844207v-3.5080404h-9.5844207Zm11.7531576,0v3.5080404h9.584426v-3.5080404h-9.584426Zm11.7531576,0v3.5080404h9.5844207v-3.5080404h-9.5844207Zm-23.5063153-5.7531948v3.5080404h9.5844207v-3.5080404h-9.5844207Zm11.7531576,0v3.5080404h9.584426v-3.5080404h-9.584426Z" style="fill: #fb657c;"/>
          <path d="M187.8899059,449.5998791h-28.6133483c-.4197547,0-.839512-.280639-1.0493894-.7016081l-5.1070277-11.7870179c-.2798369-.5612886,0-1.2628967,.5596738-1.4733813,.5596738-.280639,1.2592667,0,1.469144,.5612886l4.8271921,11.1555642h26.7244496v-10.6644407c0-.631443,.4897129-1.1225772,1.1193476-1.1225772s1.1193476,.4911235,1.1193476,1.1225772v11.7870179c.0699636,.6314537-.4197547,1.1225772-1.0493894,1.1225772Z" style="fill: #272f60;"/>
          <path d="M267.4336173,449.5998791h-28.6133456c-.6296293,0-1.1193529-.4911235-1.1193529-1.1225772v-11.7870179c0-.631443,.4897129-1.1225772,1.1193529-1.1225772s1.1193529,.4911235,1.1193529,1.1225772v10.6644407h26.7244469l4.8271868-11.1555642c.2798329-.5612886,.9094729-.8419276,1.4691494-.5612886s.8395094,.9120926,.5596765,1.4733813l-5.1070304,11.7870179c-.0699636,.4911235-.4897129,.7016081-.9794365,.7016081Z" style="fill: #272f60;"/>
          <path d="M155.2189193,476.9625943c-.2798382,0-.5596738-.1403195-.7695525-.350804-.419756-.4209691-.419756-1.1225772,0-1.6137007l17.4198631-17.470037v-9.05074c0-.631443,.4897156-1.1225772,1.1193476-1.1225772s1.1193476,.4911235,1.1193476,1.1225772v9.5418635c0,.280639-.1399191,.5612886-.3497965,.7717732l-17.7696582,17.820841c-.2098773,.280639-.4897129,.350804-.7695511,.350804Z" style="fill: #272f60;"/>
          <path d="M271.5612219,476.9625943c-.2798329,0-.5596765-.1403195-.7695565-.350804l-17.7696556-17.820841c-.20988-.2104846-.3497965-.4911235-.3497965-.7717732v-9.5418742c0-.631443,.4897129-1.1225772,1.1193529-1.1225772s1.1193529,.4911235,1.1193529,1.1225772v9.05074l17.4198591,17.470037c.41976,.4209691,.41976,1.1225772,0,1.6137007-.20988,.2806497-.4897236,.3508147-.7695565,.3508147Z" style="fill: #272f60;"/>
          <g>
            <ellipse cx="213.3550888" cy="471.7005337" rx="10.7737318" ry="10.8047602" style="fill: #272f60;"/>
            <path d="M213.3550888,483.6980362c-6.5761744,0-11.8930794-5.3322257-11.8930794-11.9273374s5.316905-11.9273374,11.8930794-11.9273374,11.8930848,5.3322257,11.8930848,11.9273374c.0699529,6.5249466-5.3169104,11.9273374-11.8930848,11.9273374Zm0-21.6796962c-5.316905,0-9.6543843,4.349968-9.6543843,9.6821937s4.3374739,9.6821937,9.6543843,9.6821937c5.316905,0,9.6543789-4.349968,9.6543789-9.6821937,.0699636-5.3322257-4.3374739-9.6821937-9.6543789-9.6821937Z" style="fill: #272f60;"/>
          </g>
          <ellipse cx="213.3550888" cy="471.7005337" rx="5.3868632" ry="5.4023801" style="fill: #fb657c;"/>
          <path d="M202.581357,471.9110183c-.2798382,0-.5596765-.1403195-.7695511-.350804l-22.2470512-22.3111392c-.4197547-.4209691-.4197547-1.1225772,0-1.6137007,.4197547-.4209691,1.1193476-.4209691,1.6090658,0l22.2470566,22.3111392c.4197547,.4209691,.4197547,1.1225772,0,1.6137007-.2098853,.280639-.5596818,.350804-.83952,.350804Z" style="fill: #272f60;"/>
          <path d="M224.1288206,471.9110183c-.2798329,0-.5596765-.1403195-.7695565-.350804-.41976-.4209691-.41976-1.1225772,0-1.6137007l22.2470566-22.3111392c.41976-.4209691,1.1193529-.4209691,1.6090658,0s.41976,1.1225772,0,1.6137007l-22.2470566,22.3111392c-.2798329,.280639-.5596765,.350804-.8395094,.350804Z" style="fill: #272f60;"/>
          <path d="M167.7416334,483.4875516h8.6749531c1.6090658,0,3.1481681,.982247,3.7778028,2.4556283,1.469144,3.3677209,4.1275992,9.6120286,6.1564197,14.1724811,.5596765,1.262886,.4197547,2.7362672-.3497965,3.9290095-.7695511,1.1927423-2.0288205,1.8943504-3.4280063,1.8943504h-5.0370668l-9.794306-22.4514694Z" style="fill: #272f60;"/>
          <path d="M258.9685495,483.4875516h-8.6049949c-1.6090658,0-3.1481681,.982247-3.7777974,2.4556283-1.4691494,3.3677209-4.1275939,9.6120286-6.1564197,14.1724811-.5596765,1.262886-.41976,2.7362672,.3497965,3.9290095s2.0288152,1.8943504,3.428001,1.8943504h5.0370668l9.7243478-22.4514694Z" style="fill: #272f60;"/>
          <path d="M194.6759603,534.424292c-.8395094,0-1.5391023-.4911342-1.8189405-1.262886s-.1399164-1.61369,.4197547-2.1749893c3.1481681-3.1572364,7.695522-7.7176889,9.7943007-9.8225132,.7695511-.7717732,1.1193476-1.7540202,1.1193476-2.8064323v-19.7151914c0-1.0524121,.4197547-2.0346592,1.1193476-2.8064323,.7695511-.7717732,1.7489823-1.1225772,2.7983716-1.1225772h10.4938936c1.0493894,0,2.0288205,.4209691,2.7983716,1.1225772,.7695511,.7717732,1.1193476,1.7540202,1.1193476,2.8064323v19.7151914c0,1.0524121,.41976,2.0346592,1.1193529,2.8064323,2.0987787,2.1048242,6.6461326,6.6652768,9.7943007,9.8225132,.5596765,.5612779,.7695565,1.4032162,.41976,2.1749893-.2798329,.7717732-1.0493894,1.262886-1.8189458,1.262886h-.9094729s-4.6173175,10.7345951-6.2263726,14.3829657c-.3497965,.7016081-1.0493894,1.1927423-1.8189458,1.1927423h-3.5679228v-5.2620606c0-.9120819-.3497965-1.7540202-.9794311-2.3854632s-1.469144-.982247-2.378617-.982247h-5.6667015c-.9094729,0-1.7489823,.350804-2.378617,.982247s-.9794311,1.4733813-.9794311,2.3854632v5.2620606h-3.5679228c-.7695511,0-1.5391023-.4911342-1.8189405-1.1927423-1.6090658-3.6483706-6.2263779-14.3829657-6.2263779-14.3829657h-.8395094Z" style="fill: #272f60;"/>
          <ellipse cx="174.0379696" cy="364.9859454" rx="15.391044" ry="11.2257293" style="fill: #ffbcc6;"/>
          <path d="M162.2848066,363.2319252v-7.507207h23.4363624v7.507207c0,4.700772-5.2469468,8.5596165-11.7531603,8.5596165s-11.6832021-3.8588445-11.6832021-8.5596165Z" style="fill: #fff;"/>
          <path d="M169.5605739,396.7687883c-.6296347,0-1.1193476-.4911235-1.1193476-1.1225719v-12.1378166c-6.0864588-1.6137007-11.9630376-5.9636687-11.9630376-11.5765334,0-.6314483,.4897156-1.1225719,1.1193476-1.1225719s1.1193476,.4911235,1.1193476,1.1225719c0,4.6306123,5.7366624,8.419297,11.1235283,9.6120286,.4897156,.1403195,.9094702,.5612886,.9094702,1.1225719v12.9797495c-.0699609,.6314483-.5596738,1.1225719-1.1893085,1.1225719Z" style="fill: #272f60;"/>
          <polygon points="232.5056286 419.5287711 241.310972 410.6980639 242.8939533 412.285605 234.0886099 421.1163121 232.5056286 419.5287711" style="fill: #272f60;"/>
          <polygon points="183.8223575 412.3132207 185.4053388 410.7256796 194.2106822 419.5563867 192.6277009 421.1439278 183.8223575 412.3132207" style="fill: #272f60;"/>
          <polygon points="236.2851384 423.3120674 245.0904817 414.4813603 246.673463 416.0689013 237.8681197 424.8996085 236.2851384 423.3120674" style="fill: #272f60;"/>
          <polygon points="180.0508688 416.0970417 181.6338501 414.5095006 190.4391934 423.3402077 188.8562121 424.9277488 180.0508688 416.0970417" style="fill: #272f60;"/>
          <rect x="212.2357412" y="482.0843355" width="2.2386952" height="15.3652127" style="fill: #272f60;"/>
          <path d="M162.3547675,415.501722h-9.1646673c-.6296333,0-1.1193489-.4911235-1.1193489-1.1225772,0-.631443,.4897156-1.1225772,1.1193489-1.1225772h7.9753589v-10.3838018c0-.2806443,.1399191-.5612886,.3497965-.7717678l7.2058064-7.2265493c.4197547-.4209638,1.1193476-.4209638,1.6090632,0s.4197547,1.1225719,0,1.6137007l-6.85601,6.8757614v11.0152448c0,.631443-.4897156,1.1225665-1.1193476,1.1225665Z" style="fill: #fb657c;"/>
          <path d="M273.5200841,415.501722h-9.1646714c-.6296293,0-1.1193529-.4911235-1.1193529-1.1225772v-11.0152448l-6.8560126-6.8757614c-.41976-.4209638-.41976-1.1225719,0-1.6137007s1.1193529-.4209638,1.6090658,0l7.2058091,7.2265654c.20988,.2104846,.3497965,.4911235,.3497965,.7717678v10.3837964h7.9753549c.6296293,0,1.1193529,.4911235,1.1193529,1.1225772s-.4897129,1.1225772-1.1193422,1.1225772Z" style="fill: #fb657c;"/>
          <path d="M197.3344102,321.2757608s6.9959291,7.0160811,11.753163,11.7870155c2.378617,2.3854672,6.2263779,2.3854672,8.6049949,0,4.7572339-4.7709351,11.753163-11.7870153,11.753163-11.7870153l-32.1113208-.0000003Z" style="fill: #272f60;"/>
          <path d="M268.0632573,384.911616v-19.9256706h-30.712135v19.9256706c0,6.1741533,6.8560126,11.2257293,15.391044,11.2257293,8.4650784,0,15.3210911-5.0515814,15.3210911-11.2257293h0Z" style="fill: #fff;"/>
          <path d="M245.9561172,396.1373453c-.6296293,0-1.1193529-.4911235-1.1193529-1.1225719v-24.7667675c0-.6314483,.4897129-1.1225719,1.1193529-1.1225719s1.1193529,.4911235,1.1193529,1.1225719v24.7667621c0,.5612886-.4897129,1.1225772-1.1193529,1.1225772Z" style="fill: #272f60;"/>
          <ellipse cx="252.6722134" cy="364.9859454" rx="15.391044" ry="11.2257293" style="fill: #ffbcc6;"/>
          <path d="M264.4253764,363.2319252v-7.507207h-23.4363624v7.507207c0,4.700772,5.2469468,8.5596165,11.753163,8.5596165s11.6831994-3.8588445,11.6831994-8.5596165Z" style="fill: #fff;"/>
          <path d="M257.1496037,396.7687883c-.6296293,0-1.1193529-.4911235-1.1193529-1.1225719v-13.0499093c0-.5612886,.3497965-.9822524,.9094729-1.1225719,5.3868632-1.1927316,11.123523-4.9814163,11.123523-9.6120286,0-.6314483,.4897129-1.1225719,1.1193529-1.1225719s1.1193529,.4911235,1.1193529,1.1225719c0,5.6128647-5.8765761,9.9628326-11.963043,11.5765334v12.2079817c-.0699529,.631443-.5596658,1.1225665-1.1893058,1.1225665Z" style="fill: #272f60;"/>
          <path d="M166.482364,369.5463979c-.6296347,0-1.1193476-.4911235-1.1193476-1.1225719v-7.5072097c0-.6314483,.4897156-1.1225719,1.1193476-1.1225719s1.1193476,.4911262,1.1193476,1.1225719v7.5072043c.0699609,.5612886-.4897129,1.1225772-1.1193476,1.1225772Z" style="fill: #272f60;"/>
          <path d="M259.8780225,369.5463979c-.6296293,0-1.1193529-.4911235-1.1193529-1.1225719v-7.5072097c0-.6314483,.4897129-1.1225719,1.1193529-1.1225719s1.1193529,.4911262,1.1193529,1.1225719v7.5072043c-.0000107,.5612886-.4897236,1.1225772-1.1193529,1.1225772Z" style="fill: #272f60;"/>
          <path d="M170.8198406,371.3705779c-.6296347,0-1.1193476-.4911235-1.1193476-1.1225719v-7.507207c0-.6314483,.4897156-1.1225719,1.1193476-1.1225719s1.1193476,.4911262,1.1193476,1.1225719v7.507207c.0000027,.6314483-.4897129,1.1225719-1.1193476,1.1225719Z" style="fill: #272f60;"/>
          <path d="M255.6105015,371.3705779c-.6296293,0-1.1193529-.4911235-1.1193529-1.1225719v-7.507207c0-.6314483,.4897129-1.1225719,1.1193529-1.1225719s1.1193529,.4911262,1.1193529,1.1225719v7.507207c0,.6314483-.4897236,1.1225719-1.1193529,1.1225719Z" style="fill: #272f60;"/>
          <ellipse cx="174.0379689" cy="355.7247182" rx="11.7531583" ry="8.5596191" style="fill: #ffbcc6;"/>
          <ellipse cx="174.0379696" cy="355.7247182" rx="8.1152767" ry="5.1919009" style="fill: #272f60;"/>
          <path d="M171.7293108,350.7432992c.7695511-.1403222,1.5391049-.2104819,2.3086561-.2104819,.839512,0,1.6090632,.0701597,2.3086561,.2104819v2.6661102c0,1.262894-1.0493894,2.3153061-2.3086561,2.3153061h0c-1.2592667,0-2.3086561-1.0524121-2.3086561-2.3153061v-2.6661102h0Z" style="fill: #fb657c;"/>
          <ellipse cx="252.6722134" cy="355.7247182" rx="11.753163" ry="8.5596191" style="fill: #ffbcc6;"/>
          <ellipse cx="252.6722134" cy="355.7247182" rx="8.115282" ry="5.1919009" style="fill: #272f60;"/>
          <path d="M255.050825,350.7432992c-.7695565-.1403222-1.5391023-.2104819-2.3086587-.2104819-.8395094,0-1.6090658,.0701597-2.3086587,.2104819v2.6661102c0,1.262894,1.0493894,2.3153061,2.3086587,2.3153061h0c1.2592694,0,2.3086587-1.0524121,2.3086587-2.3153061v-2.6661102h0Z" style="fill: #fb657c;"/>
        </g>
        <g style="clip-path: url(#clippath-2);">
          <path d="M279.3272068,61.2742105s-.0787837,.4021599-.0657413,1.1511089c-.0164353,.2877773,.0130426,.7489491,.1048689,1.095738,.0459132,.1733945,.200088,.4058009,.2460008,.5791959,.5707856,.7562317,.9873967,1.2800564,.9873967,1.2800564,.275479,1.0403675,1.4204431,1.5161042,2.444103,1.1838798,1.0236599-.3322243,1.5388829-1.5350628,1.2634043-2.5754304,0,0,.0952193-.689937,.0362636-1.6122808-.045913-.1733946-.0294776-.4611718-.0753912-.6345665-.0918261-.346789-.3542625-.6382076-.5084373-.8706141-.416611-.5238249-.7873086-.8742552-.7873086-.8742552-.2754786-1.0403675-1.4204429-1.5161041-2.444103-1.1838797-.9613118,.2178417-1.4765347,1.4206802-1.2010558,2.4610476Z" style="fill: #fb657c;"/>
        </g>
      </g>
    </g>
  </g>
  <g id="TEXTES_GB" data-name="TEXTES GB">
    <g>
      <path d="M181.6398128,128.0957491h4.0316533l-1.7596773,8.8317546h5.3977831l-.6320313,3.1262978h-9.4294364l2.3917086-11.9580524Z" style="fill: #fff;"/>
      <path d="M192.1811925,128.0957491h4.0316533l-2.3917086,11.9580524h-4.0316533l2.3917086-11.9580524Z" style="fill: #fff;"/>
      <path d="M195.3423306,139.1140965l1.5545615-2.9722157c1.3317803,.7689387,2.6988915,1.1104712,4.0306719,1.1104712,1.0422628,0,1.5889111-.2733241,1.5889111-.7007304,0-1.2640627-5.688282-.5294735-5.688282-4.2362783,0-2.7160663,2.271976-4.4929184,6.0474799-4.4929184,1.7763613,0,3.3652724,.3587072,4.4752529,1.0250881l-1.4515129,2.9383568c-.9568797-.5981725-2.1188752-.8881807-3.2798893-.8881807-1.1786795,0-1.7596773,.392566-1.7596773,.8027976,0,1.3150962,5.7059474,.4779492,5.7059474,4.16807,0,2.6650327-2.323991,4.4585688-6.0474799,4.4585688-2.1355593,0-4.0316533-.5122987-5.1759833-1.2130291Z" style="fill: #fff;"/>
      <path d="M211.1784448,131.2220469h-3.5016891l.6320313-3.1262978h11.0360129l-.6320313,3.1262978h-3.5026705l-1.7596773,8.8317546h-4.0306719l1.7586959-8.8317546Z" style="fill: #fff;"/>
      <path d="M223.7356511,131.1366638l-.2728334,1.4009701h5.0562506l-.5809977,2.9040073h-5.0729347l-.3081643,1.5712456h5.9964463l-.6153473,3.0409147h-9.9417351l2.3917086-11.9580524h9.7199352l-.6153473,3.0409147h-5.756981Z" style="fill: #fff;"/>
      <path d="M243.6721176,128.0957491l-2.3917086,11.9580524h-3.3142388l-3.4329901-5.56904-1.1109619,5.56904h-3.9286047l2.3917086-11.9580524h3.3132574l3.4339715,5.56904,1.1109619-5.56904h3.9286047Z" style="fill: #fff;"/>
      <path d="M247.517302,137.8500338c0,.6320313-.2051158,1.1104712-.8027976,1.9814771l-2.0158266,2.9555316h-2.3917086l1.4858625-2.9722157c-.5122987-.3587072-.8027976-.939705-.8027976-1.6232606,0-1.4348289,1.0766124-2.3740431,2.4260581-2.3740431,1.2640627,0,2.1012097,.8194816,2.1012097,2.0325107Z" style="fill: #fff;"/>
      <path d="M137.2111508,151.6379347l-.2728334,1.4004794h5.0562506l-.5809977,2.904498h-5.0729347l-.3081643,1.5712456h5.9964463l-.6153473,3.0409147h-9.9417351l2.3917086-11.9580524h9.7199352l-.6153473,3.0409147h-5.756981Z" style="fill: #fff;"/>
      <path d="M145.3608219,148.59702h4.0316533l-2.3917086,11.9580524h-4.0316533l2.3917086-11.9580524Z" style="fill: #fff;"/>
      <path d="M153.3043958,151.7233178h-3.5016891l.6320313-3.1262978h11.0360129l-.6320313,3.1262978h-3.5026705l-1.7596773,8.8317546h-4.0306719l1.7586959-8.8317546Z" style="fill: #fff;"/>
      <path d="M174.3007906,148.59702l-2.3917086,11.9580524h-4.0316533l.8881807-4.4075353h-3.7234889l-.8881807,4.4075353h-4.0316533l2.3917086-11.9580524h4.0316533l-.8548126,4.236769h3.7244703l.8538311-4.236769h4.0316533Z" style="fill: #fff;"/>
      <path d="M179.597488,151.6379347l-.2728334,1.4004794h5.0562506l-.5809977,2.904498h-5.0729347l-.3081643,1.5712456h5.9964463l-.6153473,3.0409147h-9.9417351l2.3917086-11.9580524h9.7199352l-.6153473,3.0409147h-5.756981Z" style="fill: #fff;"/>
      <path d="M194.8535858,157.0700673l1.9981612,3.4850051h-4.184754l-1.6919596-3.0065652h-.9902478l-.5976818,3.0065652h-4.0316533l2.3917086-11.9580524h5.3634336c3.1601567,0,4.9708675,1.4520037,4.9708675,3.9290954,0,2.1355593-1.1953636,3.7755039-3.2278743,4.543952Zm-2.3573591-5.3639243h-1.3494458l-.5643137,2.8014494h1.6576101c1.1099805,0,1.7586959-.580507,1.7586959-1.5884204,0-.8543219-.5800163-1.2130291-1.5025465-1.2130291Z" style="fill: #fff;"/>
      <path d="M211.1686306,156.2162362l-.8538311,4.3388362h-4.0316533l.8714966-4.3903605-2.9893904-7.5676919h4.0483373l1.6222792,4.1342111,3.3319043-4.1342111h4.0483373l-6.0474799,7.6192162Z" style="fill: #fff;"/>
      <path d="M215.4927456,155.481647c0-4.2195943,3.1424912-7.1579511,7.5333424-7.1579511,3.7234889,0,6.064164,2.2037676,6.064164,5.3472402,0,4.2191036-3.1434726,7.1574604-7.5333424,7.1574604-3.7244703,0-6.064164-2.2037676-6.064164-5.3467495Zm9.5315035-1.5717363c0-1.3837953-.8705152-2.3235003-2.3396936-2.3235003-1.9814771,0-3.1267885,1.6914689-3.1267885,3.6557713,0,1.3837953,.8714966,2.3235003,2.340675,2.3235003,1.9814771,0,3.1258071-1.6914689,3.1258071-3.6557713Z" style="fill: #fff;"/>
      <path d="M230.1511616,156.438036c0-.4097408,.0510336-.8199723,.1364167-1.2640627l1.3150962-6.5769534h4.0316533l-1.2984122,6.508745c-.0677176,.3243577-.1020672,.6148566-.1020672,.8710059,0,1.0761217,.5809977,1.5889111,1.6055951,1.5889111,1.1619955,0,1.7940268-.6663809,2.1522433-2.459917l1.2984122-6.508745h3.9629542l-1.3494458,6.7477196c-.7174144,3.5875629-2.8863418,5.4836569-6.5597786,5.4836569-3.2455398,0-5.1926673-1.708153-5.1926673-4.3903605Z" style="fill: #fff;"/>
      <path d="M260.5593274,152.5604649c0,3.02374-2.3740431,5.0562506-6.0464985,5.0562506h-2.0668602l-.5809977,2.9383568h-4.0316533l2.3917086-11.9580524h5.3124c3.2111902,0,5.0219011,1.4691784,5.0219011,3.9634449Zm-4.0826869,.3587072c0-.8543219-.5800163-1.2130291-1.5025465-1.2130291h-1.3494458l-.5643137,2.8014494h1.6576101c1.1099805,0,1.7586959-.580507,1.7586959-1.5884204Z" style="fill: #fff;"/>
      <path d="M262.7478831,148.59702h4.0316533l-1.7596773,8.8317546h5.3977831l-.6320313,3.1262978h-9.4294364l2.3917086-11.9580524Z" style="fill: #fff;"/>
      <path d="M279.7803423,158.4710374h-4.560636l-1.196345,2.084035h-4.2534531l7.6187255-11.9580524h3.9629542l2.8362897,11.9580524h-4.0149692l-.392566-2.084035Zm-.5633323-2.9040073l-.5809977-3.0580895-1.7596773,3.0580895h2.340675Z" style="fill: #fff;"/>
      <path d="M292.0293843,156.2162362l-.8538311,4.3388362h-4.0316533l.8714966-4.3903605-2.9893904-7.5676919h4.0483373l1.6222792,4.1342111,3.3319043-4.1342111h4.0483373l-6.0474799,7.6192162Z" style="fill: #fff;"/>
      <path d="M142.2683829,178.972799h-4.560636l-1.196345,2.084035h-4.2534531l7.6187255-11.9580524h3.9629542l2.8362897,11.9580524h-4.0149692l-.392566-2.084035Zm-.5633323-2.9040073l-.5809977-3.0580895-1.7596773,3.0580895h2.340675Z" style="fill: #fff;"/>
      <path d="M149.718305,169.0987816h4.0316533l-1.7596773,8.8317546h5.3977831l-.6320313,3.1262978h-9.4294364l2.3917086-11.9580524Z" style="fill: #fff;"/>
      <path d="M158.3635907,175.9834086c0-4.2195943,3.1424912-7.1579511,7.5333424-7.1579511,3.7234889,0,6.064164,2.2037676,6.064164,5.3472402,0,4.2191036-3.1434726,7.1574604-7.5333424,7.1574604-3.7244703,0-6.064164-2.2037676-6.064164-5.3467495Zm9.5315035-1.5717363c0-1.3837953-.8705152-2.3235003-2.3396936-2.3235003-1.9814771,0-3.1267885,1.6914689-3.1267885,3.6557713,0,1.3837953,.8714966,2.3235003,2.340675,2.3235003,1.9814771,0,3.1258071-1.6914689,3.1258071-3.6557713Z" style="fill: #fff;"/>
      <path d="M186.3633637,169.0987816l-2.3917086,11.9580524h-3.3142388l-3.4329901-5.56904-1.1109619,5.56904h-3.9286047l2.3917086-11.9580524h3.3132574l3.4339715,5.56904,1.1109619-5.56904h3.9286047Z" style="fill: #fff;"/>
      <path d="M195.0940325,174.7532047h3.5016891l-1.0245974,5.1592992c-1.2640627,.9053554-2.9550409,1.4176541-4.8521163,1.4176541-3.7068049,0-6.1318816-2.1694181-6.1318816-5.3467495,0-4.2024195,3.1258071-7.1579511,7.6864431-7.1579511,2.5114413,0,4.3054681,.8027976,5.433114,2.340675l-2.8873233,2.2376264c-.768448-.9907386-1.6055951-1.315587-2.7332411-1.315587-2.1012097,0-3.4339715,1.5035279-3.4339715,3.6385965,0,1.4009701,.9735638,2.340675,2.6311739,2.340675,.392566,0,.7861135-.0515243,1.1786795-.1707662l.6320313-3.1434726Z" style="fill: #fff;"/>
      <path d="M203.5175184,178.8530664c0,.6320313-.2051158,1.1104712-.8027976,1.9814771l-2.0158266,2.9555316h-2.3917086l1.4858625-2.9722157c-.5122987-.3587072-.8027976-.939705-.8027976-1.6232606,0-1.4348289,1.0766124-2.3745339,2.4260581-2.3745339,1.2640627,0,2.1012097,.820463,2.1012097,2.0330014Z" style="fill: #fff;"/>
      <path d="M210.2146951,175.9834086c0-4.2195943,3.1424912-7.1579511,7.5333424-7.1579511,3.7234889,0,6.064164,2.2037676,6.064164,5.3472402,0,4.2191036-3.1434726,7.1574604-7.5333424,7.1574604-3.7244703,0-6.064164-2.2037676-6.064164-5.3467495Zm9.5315035-1.5717363c0-1.3837953-.8705152-2.3235003-2.3396936-2.3235003-1.9814771,0-3.1267885,1.6914689-3.1267885,3.6557713,0,1.3837953,.8714966,2.3235003,2.340675,2.3235003,1.9814771,0,3.1258071-1.6914689,3.1258071-3.6557713Z" style="fill: #fff;"/>
      <path d="M233.5340995,177.5718289l1.9981612,3.4850051h-4.184754l-1.6919596-3.0065652h-.9902478l-.5976818,3.0065652h-4.0316533l2.3917086-11.9580524h5.3634336c3.1601567,0,4.9708675,1.4520037,4.9708675,3.9290954,0,2.1355593-1.1953636,3.7755039-3.2278743,4.543952Zm-2.3573591-5.3639243h-1.3494458l-.5643137,2.8014494h1.6576101c1.1099805,0,1.7586959-.580507,1.7586959-1.5884204,0-.8543219-.5800163-1.2130291-1.5025465-1.2130291Z" style="fill: #fff;"/>
      <path d="M249.8491443,176.7179978l-.8538311,4.3388362h-4.0316533l.8714966-4.3903605-2.9893904-7.5676919h4.0483373l1.6222792,4.1342111,3.3319043-4.1342111h4.0483373l-6.0474799,7.6192162Z" style="fill: #fff;"/>
      <path d="M254.1732593,175.9834086c0-4.2195943,3.1424912-7.1579511,7.5333424-7.1579511,3.7234889,0,6.064164,2.2037676,6.064164,5.3472402,0,4.2191036-3.1434726,7.1574604-7.5333424,7.1574604-3.7244703,0-6.064164-2.2037676-6.064164-5.3467495Zm9.5315035-1.5717363c0-1.3837953-.8705152-2.3235003-2.3396936-2.3235003-1.9814771,0-3.1267885,1.6914689-3.1267885,3.6557713,0,1.3837953,.8714966,2.3235003,2.340675,2.3235003,1.9814771,0,3.1258071-1.6914689,3.1258071-3.6557713Z" style="fill: #fff;"/>
      <path d="M268.8316753,176.9397976c0-.4097408,.0510336-.8199723,.1364167-1.2640627l1.3150962-6.5769534h4.0316533l-1.2984122,6.508745c-.0677176,.3243577-.1020672,.6148566-.1020672,.8710059,0,1.0761217,.5809977,1.5889111,1.6055951,1.5889111,1.1619955,0,1.7940268-.6663809,2.1522433-2.459917l1.2984122-6.508745h3.9629542l-1.3494458,6.7477196c-.7174144,3.5875629-2.8863418,5.4836569-6.5597786,5.4836569-3.2455398,0-5.1926673-1.708153-5.1926673-4.3903605Z" style="fill: #fff;"/>
      <path d="M290.8870171,177.5718289l1.9981612,3.4850051h-4.184754l-1.6919596-3.0065652h-.9902478l-.5976818,3.0065652h-4.0316533l2.3917086-11.9580524h5.3634336c3.1601567,0,4.9708675,1.4520037,4.9708675,3.9290954,0,2.1355593-1.1953636,3.7755039-3.2278743,4.543952Zm-2.3573591-5.3639243h-1.3494458l-.5643137,2.8014494h1.6576101c1.1099805,0,1.7586959-.580507,1.7586959-1.5884204,0-.8543219-.5800163-1.2130291-1.5025465-1.2130291Z" style="fill: #fff;"/>
      <path d="M127.3871856,193.5634974c0,3.02374-2.3740431,5.0562506-6.0464985,5.0562506h-2.0668602l-.5809977,2.9383568h-4.0316533l2.3917086-11.9580524h5.3124c3.2111902,0,5.0219011,1.4691784,5.0219011,3.9634449Zm-4.0826869,.3587072c0-.8543219-.5800163-1.2130291-1.5025465-1.2130291h-1.3494458l-.5643137,2.8014494h1.6576101c1.1099805,0,1.7586959-.580507,1.7586959-1.5884204Z" style="fill: #fff;"/>
      <path d="M135.2983728,199.4740699h-4.560636l-1.196345,2.084035h-4.2534531l7.6187255-11.9580524h3.9629542l2.8362897,11.9580524h-4.0149692l-.392566-2.084035Zm-.5633323-2.9040073l-.5809977-3.0580895-1.7596773,3.0580895h2.340675Z" style="fill: #fff;"/>
      <path d="M149.8547217,198.0730999l1.9981612,3.4850051h-4.184754l-1.6919596-3.0065652h-.9902478l-.5976818,3.0065652h-4.0316533l2.3917086-11.9580524h5.3634336c3.1601567,0,4.9708675,1.4520037,4.9708675,3.9290954,0,2.1355593-1.1953636,3.7755039-3.2278743,4.543952Zm-2.3573591-5.3639243h-1.3494458l-.5643137,2.8014494h1.6576101c1.1099805,0,1.7586959-.580507,1.7586959-1.5884204,0-.8543219-.5800163-1.2130291-1.5025465-1.2130291Z" style="fill: #fff;"/>
      <path d="M158.8238744,192.6409672l-.2728334,1.4009701h5.0562506l-.5809977,2.9040073h-5.0729347l-.3081643,1.5712456h5.9964463l-.6153473,3.0409147h-9.9417351l2.3917086-11.9580524h9.7199352l-.6153473,3.0409147h-5.756981Z" style="fill: #fff;"/>
      <path d="M178.7603409,189.6000525l-2.3917086,11.9580524h-3.3142388l-3.4329901-5.56904-1.1109619,5.56904h-3.9286047l2.3917086-11.9580524h3.3142388l3.4329901,5.56904,1.1109619-5.56904h3.9286047Z" style="fill: #fff;"/>
      <path d="M182.6732429,192.7263503h-3.5016891l.6320313-3.1262978h11.0360129l-.6320313,3.1262978h-3.5026705l-1.7596773,8.8317546h-4.0306719l1.7586959-8.8317546Z" style="fill: #fff;"/>
      <path d="M189.0642181,200.6183999l1.5545615-2.9722157c1.3317803,.7689387,2.6988915,1.1104712,4.0316533,1.1104712,1.0412814,0,1.5879296-.2733241,1.5879296-.7007304,0-1.2640627-5.688282-.5294735-5.688282-4.2362783,0-2.7160663,2.271976-4.4929184,6.0474799-4.4929184,1.7763613,0,3.3652724,.3587072,4.4752529,1.0250881l-1.4515129,2.9383568c-.9568797-.5981725-2.1188752-.8881807-3.2798893-.8881807-1.1786795,0-1.7596773,.392566-1.7596773,.8027976,0,1.3150962,5.7059474,.4779492,5.7059474,4.16807,0,2.6650327-2.323991,4.4585688-6.0474799,4.4585688-2.1355593,0-4.0316533-.5122987-5.1759833-1.2130291Z" style="fill: #fff;"/>
      <path d="M227.6887911,189.6000525l-6.2172647,11.9580524h-4.3221521l-.6840463-6.3036292-3.2798893,6.3036292h-4.3211707l-1.4348289-11.9580524h3.9796383l.7694294,6.8159279,3.5527227-6.8159279h3.7068049l.6830649,6.9184858,3.6047377-6.9184858h3.9629542Z" style="fill: #fff;"/>
      <path d="M228.5799161,189.6000525h4.0316533l-2.3917086,11.9580524h-4.0316533l2.3917086-11.9580524Z" style="fill: #fff;"/>
      <path d="M234.5596783,189.6000525h4.0316533l-1.7596773,8.8317546h5.3977831l-.6320313,3.1262978h-9.4294364l2.3917086-11.9580524Z" style="fill: #fff;"/>
      <path d="M245.101058,189.6000525h4.0316533l-1.7596773,8.8317546h5.3977831l-.6320313,3.1262978h-9.4294364l2.3917086-11.9580524Z" style="fill: #fff;"/>
      <path d="M275.0823082,189.6000525l-2.3573591,11.9580524h-3.6724553l1.0589469-5.4493074-3.3652724,4.3731857h-1.7763613l-1.8450604-4.3049774-1.0766124,5.381099h-3.6724553l2.3917086-11.9580524h3.2798893l2.595843,6.3546628,5.0052171-6.3546628h3.4339715Z" style="fill: #fff;"/>
      <path d="M283.3860614,199.4740699h-4.560636l-1.196345,2.084035h-4.2534531l7.6187255-11.9580524h3.9629542l2.8362897,11.9580524h-4.0149692l-.392566-2.084035Zm-.5633323-2.9040073l-.5809977-3.0580895-1.7596773,3.0580895h2.340675Z" style="fill: #fff;"/>
      <path d="M297.1219473,195.0493599l3.8952366,6.508745h-4.4929184l-2.4260581-3.8947459-1.127646,1.0417721-.5633323,2.8529737h-3.9629542l2.3917086-11.9580524h3.9629542l-.8538311,4.236769,4.543952-4.236769h4.6293351l-5.9964463,5.4493074Z" style="fill: #fff;"/>
      <path d="M307.2530954,192.6409672l-.2728334,1.4009701h5.0562506l-.5809977,2.9040073h-5.0729347l-.3081643,1.5712456h5.9964463l-.6153473,3.0409147h-9.9417351l2.3917086-11.9580524h9.7199352l-.6153473,3.0409147h-5.756981Z" style="fill: #fff;"/>
      <path d="M120.1099926,213.2276213h-3.5016891l.6320313-3.1262978h11.0360129l-.6320313,3.1262978h-3.5026705l-1.7596773,8.8317546h-4.0306719l1.7586959-8.8317546Z" style="fill: #fff;"/>
      <path d="M141.1063874,210.1013234l-2.3917086,11.9580524h-4.0316533l.8881807-4.4075353h-3.7234889l-.8881807,4.4075353h-4.0316533l2.3917086-11.9580524h4.0316533l-.8548126,4.236769h3.7244703l.8538311-4.236769h4.0316533Z" style="fill: #fff;"/>
      <path d="M146.4030847,213.1422381l-.2728334,1.4004794h5.0562506l-.5809977,2.904498h-5.0729347l-.3081643,1.5712456h5.9964463l-.6153473,3.0409147h-9.9417351l2.3917086-11.9580524h9.7199352l-.6153473,3.0409147h-5.756981Z" style="fill: #fff;"/>
      <path d="M166.7841323,218.5743708l1.9981612,3.4850051h-4.184754l-1.6919596-3.0065652h-.9902478l-.5976818,3.0065652h-4.0316533l2.3917086-11.9580524h5.3634336c3.1601567,0,4.9708675,1.4520037,4.9708675,3.9290954,0,2.1355593-1.1953636,3.7755039-3.2278743,4.543952Zm-2.3573591-5.3639243h-1.3494458l-.5643137,2.8014494h1.6576101c1.1099805,0,1.7586959-.580507,1.7586959-1.5884204,0-.8543219-.5800163-1.2130291-1.5025465-1.2130291Z" style="fill: #fff;"/>
      <path d="M170.8511165,217.9423394c0-.4097408,.0510336-.8199723,.1364167-1.2640627l1.3150962-6.5769534h4.0316533l-1.2984122,6.508745c-.0677176,.3243577-.1020672,.6148566-.1020672,.8710059,0,1.0761217,.5809977,1.5889111,1.6055951,1.5889111,1.1619955,0,1.7940268-.6663809,2.1522433-2.459917l1.2984122-6.508745h3.9629542l-1.3494458,6.7477196c-.7174144,3.5875629-2.8863418,5.4836569-6.5597786,5.4836569-3.2455398,0-5.1926673-1.708153-5.1926673-4.3903605Z" style="fill: #fff;"/>
      <path d="M185.8000315,210.1013234h4.0316533l-1.7596773,8.8317546h5.3977831l-.6320313,3.1262978h-9.4294364l2.3917086-11.9580524Z" style="fill: #fff;"/>
      <path d="M199.6890181,213.1422381l-.2728334,1.4004794h5.0562506l-.5809977,2.904498h-5.0729347l-.3081643,1.5712456h5.9964463l-.6153473,3.0409147h-9.9417351l2.3917086-11.9580524h9.7199352l-.6153473,3.0409147h-5.756981Z" style="fill: #fff;"/>
      <path d="M205.0200649,221.1196709l1.5545615-2.9722157c1.3317803,.768448,2.6988915,1.1104712,4.0316533,1.1104712,1.0412814,0,1.5879296-.2733241,1.5879296-.7007304,0-1.2640627-5.688282-.5294735-5.688282-4.2362783,0-2.7160663,2.271976-4.4929184,6.0474799-4.4929184,1.7763613,0,3.3652724,.3587072,4.4752529,1.0250881l-1.4515129,2.9383568c-.9568797-.5981725-2.1188752-.8886714-3.2798893-.8886714-1.1786795,0-1.7596773,.3930568-1.7596773,.8032883,0,1.3150962,5.7059474,.4779492,5.7059474,4.16807,0,2.6650327-2.323991,4.4585688-6.0474799,4.4585688-2.1355593,0-4.0316533-.5122987-5.1759833-1.2130291Z" style="fill: #fff;"/>
      <path d="M243.644638,210.1013234l-6.2172647,11.9580524h-4.3221521l-.6840463-6.3036292-3.2798893,6.3036292h-4.3211707l-1.4348289-11.9580524h3.9796383l.7694294,6.8159279,3.5527227-6.8159279h3.7068049l.6830649,6.9184858,3.6047377-6.9184858h3.9629542Z" style="fill: #fff;"/>
      <path d="M244.5357629,210.1013234h4.0316533l-2.3917086,11.9580524h-4.0316533l2.3917086-11.9580524Z" style="fill: #fff;"/>
      <path d="M252.4793368,213.2276213h-3.5016891l.6320313-3.1262978h11.0360129l-.6320313,3.1262978h-3.5026705l-1.7596773,8.8317546h-4.0306719l1.7586959-8.8317546Z" style="fill: #fff;"/>
      <path d="M273.4757316,210.1013234l-2.3917086,11.9580524h-4.0316533l.8881807-4.4075353h-3.7234889l-.8881807,4.4075353h-4.0316533l2.3917086-11.9580524h4.0316533l-.8548126,4.236769h3.7244703l.8538311-4.236769h4.0316533Z" style="fill: #fff;"/>
      <path d="M273.6994943,216.9859504c0-4.2195943,3.1424912-7.1579511,7.5333424-7.1579511,3.7234889,0,6.064164,2.2037676,6.064164,5.3472402,0,4.2191036-3.1434726,7.1574604-7.5333424,7.1574604-3.7244703,0-6.064164-2.2037676-6.064164-5.3467495Zm9.5315035-1.5717363c0-1.3837953-.8705152-2.3235003-2.3396936-2.3235003-1.9814771,0-3.1267885,1.6914689-3.1267885,3.6557713,0,1.3837953,.8714966,2.3235003,2.340675,2.3235003,1.9814771,0,3.1258071-1.6914689,3.1258071-3.6557713Z" style="fill: #fff;"/>
      <path d="M288.3579103,217.9423394c0-.4097408,.0510336-.8199723,.1364167-1.2640627l1.3150962-6.5769534h4.0316533l-1.2984122,6.508745c-.0677176,.3243577-.1020672,.6148566-.1020672,.8710059,0,1.0761217,.5809977,1.5889111,1.6055951,1.5889111,1.1619955,0,1.7940268-.6663809,2.1522433-2.459917l1.2984122-6.508745h3.9629542l-1.3494458,6.7477196c-.7174144,3.5875629-2.8863418,5.4836569-6.5597786,5.4836569-3.2455398,0-5.1926673-1.708153-5.1926673-4.3903605Z" style="fill: #fff;"/>
      <path d="M305.0998707,213.2276213h-3.5016891l.6320313-3.1262978h11.0360129l-.6320313,3.1262978h-3.5026705l-1.7596773,8.8317546h-4.0306719l1.7586959-8.8317546Z" style="fill: #fff;"/>
      <path d="M131.6926537,233.6435091l-.2728334,1.4009701h5.0562506l-.5809977,2.9040073h-5.0729347l-.3081643,1.5712456h5.9964463l-.6153473,3.0409147h-9.9417351l2.3917086-11.9580524h9.7199352l-.6153473,3.0409147h-5.756981Z" style="fill: #fff;"/>
      <path d="M152.4495832,230.6025944l-7.4489407,11.9580524h-3.9629542l-2.664542-11.9580524h4.1337204l1.4858625,6.9700101,4.3221521-6.9700101h4.1347019Z" style="fill: #fff;"/>
      <path d="M156.191719,233.6435091l-.2728334,1.4009701h5.0562506l-.5809977,2.9040073h-5.0729347l-.3081643,1.5712456h5.9964463l-.6153473,3.0409147h-9.9417351l2.3917086-11.9580524h9.7199352l-.6153473,3.0409147h-5.756981Z" style="fill: #fff;"/>
      <path d="M176.1281856,230.6025944l-2.3917086,11.9580524h-3.3142388l-3.4329901-5.56904-1.1109619,5.56904h-3.9286047l2.3917086-11.9580524h3.3142388l3.4329901,5.56904,1.1109619-5.56904h3.9286047Z" style="fill: #fff;"/>
      <path d="M189.522539,240.4766118h-4.560636l-1.196345,2.084035h-4.2534531l7.6187255-11.9580524h3.9629542l2.8362897,11.9580524h-4.0149692l-.392566-2.084035Zm-.5633323-2.9040073l-.5809977-3.0580895-1.7596773,3.0580895h2.340675Z" style="fill: #fff;"/>
      <path d="M194.1538369,241.6209418l1.5545615-2.9722157c1.3317803,.7689387,2.6988915,1.1104712,4.0316533,1.1104712,1.0412814,0,1.5879296-.2733241,1.5879296-.7007304,0-1.2640627-5.688282-.5294735-5.688282-4.2362783,0-2.7160663,2.271976-4.4929184,6.0474799-4.4929184,1.7763613,0,3.3652724,.3587072,4.4752529,1.0250881l-1.4515129,2.9383568c-.9568797-.5981725-2.1188752-.8881807-3.2798893-.8881807-1.1786795,0-1.7596773,.392566-1.7596773,.8027976,0,1.3150962,5.7059474,.4779492,5.7059474,4.16807,0,2.6650327-2.323991,4.4585688-6.0474799,4.4585688-2.1355593,0-4.0316533-.5122987-5.1759833-1.2130291Z" style="fill: #fff;"/>
      <path d="M214.4828694,236.0519017l3.8952366,6.508745h-4.4929184l-2.4260581-3.8947459-1.127646,1.0417721-.5633323,2.8529737h-3.9629542l2.3917086-11.9580524h3.9629542l-.8538311,4.236769,4.543952-4.236769h4.6293351l-5.9964463,5.4493074Z" style="fill: #fff;"/>
      <path d="M221.2664107,230.6025944h4.0316533l-2.3917086,11.9580524h-4.0316533l2.3917086-11.9580524Z" style="fill: #fff;"/>
      <path d="M239.0329684,230.6025944l-2.3917086,11.9580524h-3.3142388l-3.4329901-5.56904-1.1109619,5.56904h-3.9286047l2.3917086-11.9580524h3.3142388l3.4329901,5.56904,1.1109619-5.56904h3.9286047Z" style="fill: #fff;"/>
      <path d="M247.7636372,236.2570175h3.5016891l-1.0245974,5.1592992c-1.2640627,.9053554-2.9550409,1.4176541-4.8511349,1.4176541-3.7077863,0-6.132863-2.1694181-6.132863-5.3467495,0-4.2024195,3.1258071-7.1579511,7.6864431-7.1579511,2.5114413,0,4.3054681,.8027976,5.433114,2.340675l-2.8873233,2.2376264c-.768448-.9907386-1.6055951-1.315587-2.7332411-1.315587-2.1012097,0-3.4339715,1.5035279-3.4339715,3.6390872,0,1.4004794,.9745452,2.3401843,2.6311739,2.3401843,.392566,0,.7861135-.0515243,1.1786795-.1707662l.6320313-3.1434726Z" style="fill: #fff;"/>
      <path d="M264.8137619,238.2218105l-.8538311,4.3388362h-4.0316533l.8714966-4.3903605-2.9893904-7.5676919h4.0483373l1.6222792,4.1342111,3.3319043-4.1342111h4.0483373l-6.0474799,7.6192162Z" style="fill: #fff;"/>
      <path d="M269.1378768,237.4872213c0-4.2195943,3.1424912-7.1579511,7.5333424-7.1579511,3.7234889,0,6.064164,2.2037676,6.064164,5.3472402,0,4.2191036-3.1434726,7.1574604-7.5333424,7.1574604-3.7244703,0-6.064164-2.2037676-6.064164-5.3467495Zm9.5315035-1.5717363c0-1.3837953-.8705152-2.3235003-2.3396936-2.3235003-1.9814771,0-3.1267885,1.6914689-3.1267885,3.6557713,0,1.3837953,.8714966,2.3235003,2.340675,2.3235003,1.9814771,0,3.1258071-1.6914689,3.1258071-3.6557713Z" style="fill: #fff;"/>
      <path d="M283.7962929,238.4436104c0-.4097408,.0510336-.8199723,.1364167-1.2640627l1.3150962-6.5769534h4.0316533l-1.2984122,6.508745c-.0677176,.3243577-.1020672,.6148566-.1020672,.8710059,0,1.0761217,.5809977,1.5889111,1.6055951,1.5889111,1.1619955,0,1.7940268-.6663809,2.1522433-2.459917l1.2984122-6.508745h3.9629542l-1.3494458,6.7477196c-.7174144,3.5875629-2.8863418,5.4836569-6.5597786,5.4836569-3.2455398,0-5.1926673-1.708153-5.1926673-4.3903605Z" style="fill: #fff;"/>
      <path d="M296.182733,240.8524937c0-1.2812374,1.0245974-2.1865929,2.3740431-2.1865929,1.2640627,0,2.1355593,.8027976,2.1355593,1.8450604,0,1.2468879-1.0245974,2.2204517-2.3740431,2.2204517-1.2650441,0-2.1355593-.8371471-2.1355593-1.8789192Zm1.9638116-10.2498994h4.612651l-2.2376264,7.3797509h-3.0747735l.699749-7.3797509Z" style="fill: #fff;"/>
    </g>
  </g>
</svg>