<?xml version="1.0" encoding="utf-8"?>
<!-- Generator: Adobe Illustrator 26.2.1, SVG Export Plug-In . SVG Version: 6.00 Build 0)  -->
<svg version="1.1" id="Calque_1" xmlns="http://www.w3.org/2000/svg" xmlns:xlink="http://www.w3.org/1999/xlink" x="0px" y="0px"
	 viewBox="0 0 386.3 298.4" style="enable-background:new 0 0 386.3 298.4;" xml:space="preserve">
<style type="text/css">
	.st0{fill:#FFBCC6;}
	.st1{fill:#272F60;}
	.st2{fill:#FD657C;}
	.st3{fill:#FFF5F7;}
</style>
<g id="TEXTES_FR">
</g>
<g>
	<g id="ILLUSTRATIONS">
		<g id="FOND_ICONO_00000068639072421753980490000009607919577026364346_" transform="translate(0)">
			<g id="Groupe_145_00000122687188428709878590000018191642002624468136_" transform="translate(0 286)">
				<path id="Tracé_755_00000127007825328396912950000003560499314508837553_" class="st0" d="M296.6-285.5c4.2-1.9,2.3,1.7,1.2,4
					c-19.1,35.3-16.5,78.4,6.6,111.2c9.6-0.6,14.8-3.5,24.8-8.1c9.8-4.6,30.8-8.3,36.6,6.4c0,0.2,0.2,0.2,0.2,0.4
					c0.6,1.7,2.5,8.1,0.2,17.7c-20.2,6.2-47.8,19.8-47.8,19.8c-6.6,3.1-13.9,4.8-21.2,4.8h-30.4c-6.5,0-12.9-1.2-18.9-3.7
					c-9.2-4-22.9-9.8-31-13.1c-4.1-1.7-8.6-2.7-13.1-2.7h-23.1c-3.9,0-7.7-1.2-11-3.3c-2.3-1.7-5.2-3.5-7.5-5.2
					c-0.8-0.6-1.1-1.6-0.8-2.5c0.3-0.9,1.1-1.5,2.1-1.5h47.8c0,0,7.5-2.3,22.5-4.6c-8.9-8.3-15.2-18.1-16.8-28.1
					c19.6,5.8,23.3,0,23.3,0c-27.9-16.4-23.3-45.3-23.3-45.3c9.6,16.4,27.2,19.8,27.2,19.8c-13.7-29.1,6.2-52.8,6.2-52.8
					c-1.2,25.2,10.2,33.5,10.2,33.5c4-19.5,16.3-36.3,33.7-46c0.2,0,0.2-0.2,0.4-0.2C295.4-285,296-285.2,296.6-285.5z"/>
				<g id="Groupe_144_00000017494362516655851450000006354946060359380157_">
					<path id="Tracé_756_00000008860755483554021830000014283454968482297228_" class="st1" d="M312.4-171.3c1.3,2.1,2.9,4,4.8,5.6
						c1.6,1.3,1.9,3.6,0.6,5.2c-1.3,1.6-3.6,1.9-5.2,0.6c-3.3-2.7-6.7-7.5-8.3-10.2C307-170.2,309.7-170.6,312.4-171.3z"/>
					<path id="Tracé_757_00000168826911878255487120000014923552978211278725_" class="st1" d="M366.1-171.3l18.5,8.1
						c1.1,0.5,1.7,1.5,1.7,2.7c-0.1,1.2-0.9,2.1-2.1,2.3l-11.2,2.7c-2.2,0.4-4.3,1.1-6.4,1.9C368.6-163,366.7-169.5,366.1-171.3z"/>
					<path id="Tracé_758_00000002359380657971697590000016304077169052920711_" class="st1" d="M203.6-152.2h0.4c5,0,10,1,14.6,2.9
						c7.9,3.3,21.8,9.2,31,13.1c1.8,0.8,2.7,2.9,1.9,4.7c0,0,0,0.1,0,0.1c-0.5,1.6-2,2.7-3.7,2.7c-9,1.6-18.1,2.2-27.2,1.7
						c-9.1-0.4-18.1-2-26.8-4.8c-2.1-0.6-3.3-2.7-2.7-4.8c0.6-2.1,2.7-3.3,4.8-2.7l0,0c6.6,1.4,13.3,2,20,1.9c4.2,0,8.1,0,11.9-0.2
						l-11.6-5c-3.7-1.5-7.6-2.3-11.6-2.3h-23.1c-4.7-0.1-9.2-1.5-13.1-4c-2.3-1.7-5.2-3.5-7.5-5.2c-2.7-1.9-3.4-5.6-1.5-8.3
						c1.1-1.6,2.9-2.5,4.8-2.6h47.2c5.1-1.4,10.2-2.5,15.4-3.3c-6.9-7.7-11.4-16.4-12.9-25.2c-0.2-1.2,0.2-2.5,1.2-3.3
						c1-0.8,2.3-1,3.5-0.8c4.6,1.5,9.3,2.3,14.1,2.5c-23.3-18.1-18.9-44.7-18.9-44.7c0.3-1.5,1.4-2.7,2.9-3.1c1.5-0.2,3.1,0.4,4,1.7
						c4.1,7,10.4,12.5,17.9,15.6c-8.5-27.9,9.8-49.3,9.8-49.3c1-1.2,2.7-1.7,4.2-1c1.4,0.6,2.3,2,2.3,3.5
						c-0.4,16.2,7.7,28.7,10,33.7c0.9,1.9,0,4.1-1.9,5s-4.1,0-5-1.9c-0.6-1.1-1.2-2.2-1.9-3.3c-3.9,3.2-7.4,6.9-10.4,11
						c0.7,2.2,1.5,4.3,2.5,6.4c0.6,1.2,0.4,2.6-0.4,3.7c-0.8,1-2.2,1.6-3.5,1.5c-1.5-0.2-3-0.6-4.4-1.2c-2,4.7-3.5,9.7-4.4,14.8
						c2.3,1.9,4.7,3.7,7.3,5.2c0.8,0.5,1.4,1.3,1.7,2.3c0.2,1,0,2-0.4,2.9c0,0-1.9,3.5-9.2,4.2c0.5,7.1,1.9,14,4,20.8
						c6.3,4.5,13.1,8.2,20.4,10.8c1.9,0.7,3,2.8,2.3,4.8c-0.6,2.1-2.7,2.9-4.8,2.3c-12.5-4.6-20.4-10.2-23.3-12.7
						c-6.9,1-13.7,2.4-20.4,4.2c-0.4,0-0.6,0.2-1,0.2H204L203.6-152.2z M262.1-242.9c4.8-17.7,16.6-32.7,32.7-41.6
						c0.2,0,0.2-0.2,0.4-0.2c0.6-0.2,1-0.6,1.5-0.8c4.2-1.9,2.3,1.7,1.2,4c-5,9.2-8.6,19.2-10.6,29.5
						C278.3-250.9,269.7-247.8,262.1-242.9z"/>
					<circle id="Ellipse_66_00000062169254806854439740000001548893961334628488_" class="st1" cx="349.9" cy="-170.5" r="4.4"/>
				</g>
			</g>
			<g id="Groupe_148_00000172408093583209056100000003240253738060034494_" transform="translate(205 303)">
				<g id="Groupe_147_00000064324392516045358440000010790208812404184758_">
					<g id="Groupe_146_00000171713823997883704840000000936391154721328535_">
						<path id="Tracé_759_00000084503839721013383260000013874261117251721623_" class="st2" d="M-155.4-54.4h11.3c2,0,4,0.1,6,0.3
							c0.4,0,0.6,0.3,0.7,0.7c0,0.4-0.3,0.6-0.7,0.7c0,0-2.7,0-6,0.3h-11.3c-0.4,0-0.6-0.3-0.7-0.7
							C-156.1-54.1-155.8-54.4-155.4-54.4z"/>
						<path id="Tracé_760_00000146472860315431028180000018053742527518580394_" class="st2" d="M-166.1-24.6h4.3
							c0.8,0,1.6,0.1,2.3,0.3c0.7,0,1,0.3,1,0.7s-0.3,0.7-1,0.7s-1.7,0.3-2.3,0.3h-4.3c-0.7,0-1-0.3-1-0.7S-166.8-24.6-166.1-24.6z"
							/>
					</g>
				</g>
			</g>
			<g id="Groupe_149_00000071558217666013149680000010540600717601655207_" transform="translate(0 -44)">
				<path id="Tracé_761_00000107575824981283830530000005361550158683039134_" class="st2" d="M63.4,323.3c0,0-4.8-1-11.1-1.7
					c-2.5-0.3-4.9-0.5-7.4-0.5c-2.5,0-4.9,0.2-7.4,0.6c-6.3,0.7-11.1,1.6-11.1,1.6c-1.2,0-2.2,1-2.2,2.2s1,2.2,2.2,2.2l0,0
					c0,0,4.8,0.9,11.1,1.6c2.5,0.4,4.9,0.6,7.4,0.6c2.5,0,4.9-0.2,7.4-0.5c6.3-0.7,11.1-1.7,11.1-1.7c1.2,0,2.2-1,2.2-2.2
					C65.6,324.3,64.7,323.4,63.4,323.3C63.5,323.3,63.4,323.3,63.4,323.3L63.4,323.3z"/>
				<path id="Tracé_762_00000101081757230218528770000012581277756966712500_" class="st3" d="M53.3,324.6c0,0-2.2-0.4-5-0.7
					c-1.1-0.1-2.2-0.2-3.3-0.2s-2.3,0.1-3.3,0.2c-2.8,0.3-5,0.7-5,0.7c-0.5,0-0.9,0.4-0.9,0.9c0,0.5,0.4,0.9,0.9,0.9
					c0,0,2.2,0.4,5,0.7c1.1,0.1,2.2,0.2,3.3,0.2s2.3-0.1,3.3-0.2c2.9-0.3,5-0.7,5-0.7c0.5,0,0.9-0.4,0.9-0.9
					C54.2,325,53.8,324.6,53.3,324.6z"/>
				<path id="Tracé_763_00000098186819379239207530000013806653513429983677_" class="st1" d="M102.7,315.5c0,1.8,0.8,3.6,2.3,4.7
					c1.4,1.1,3.3,1.6,5.1,1.2c3.1-0.5,6.1-1.4,9-2.4c3.5-1.6,9.8-3,14-0.9l0,0c0.5,0.3,1,0.6,1.4,0.9l11.1,7.1
					c0.5,0.2,0.8,0.7,0.8,1.3c0,0.6-0.4,1-1,1.1l-5.4,1.3c-1,0.2-5.3,1.6-6.4,2c-9.1,3.2-19.7,8.3-19.7,8.3
					c-3.2,1.5-6.7,2.3-10.2,2.3H89.1c-1.3,0-2.5-0.1-3.8-0.3l0,0c-1.1-0.2-2.2-0.5-3.3-0.8l-30.8-7.4c-0.6-0.1-1-0.7-1-1.3l0,0
					c0-0.5-0.3-1-0.8-1.2c-1-0.4-2.6-1-3.6-1.5c-0.5-0.2-0.9-0.7-0.9-1.3v-6.3c0-0.6,0.4-1.1,0.9-1.3c1-0.4,2.6-1,3.5-1.4
					c0.5-0.2,0.9-0.7,0.9-1.3l0,0c0-0.8,0.6-1.4,1.3-1.4c0,0,0,0,0.1,0c0,0,6-0.1,10.3-0.1c2.4,0,4.4-1.7,4.9-4
					c5.5-26.8,26-37.3,34-40.4c0.6-0.2,1.2-0.1,1.6,0.4c0.3,0.2,0.4,0.6,0.4,0.9l0,0v0.3L102.7,315.5z"/>
				<path id="Tracé_764_00000120554363682137907040000000074023801880969390_" class="st2" d="M81.1,341.2l10-9.9
					c0.4-0.3,0.8-0.5,1.3-0.5h28.7c1,0,1.8,0.8,1.8,1.8c0,0,0,0,0,0v3.7c-1.3,0.5-2.5,1.1-3.5,1.6v-3.6H93.2l-8,7.9
					c-1.1-0.2-2.1-0.4-3.1-0.8L81.1,341.2z M137.9,321.3l5.4,3.5h-13.5c-1,0-1.8-0.8-1.8-1.8c0-1,0.8-1.8,1.8-1.8c0,0,0,0,0,0
					L137.9,321.3L137.9,321.3z M91.6,277l6.2,6.1c1.6-1.1,3.2-2.1,4.9-3v4.1c-12,7-20.6,18.6-24,32.1c0,0.2-0.1,0.3-0.2,0.4l0,0
					c-0.1,0.1-0.2,0.3-0.3,0.4c-0.2,0.2-0.5,0.4-0.8,0.5l0,0c-0.3,0.1-0.6,0.1-0.9,0c-0.2,0-0.3-0.1-0.4-0.2l0,0
					c-0.1-0.1-0.3-0.2-0.4-0.3l-8.1-8c0.4-1.3,0.8-2.6,1.2-3.8l7.3,7.2c0.9-2.9,2.1-5.7,3.4-8.4l-7.1-7c0.6-1.1,1.2-2.1,1.9-3.2
					l7,6.9c1.5-2.5,3.2-4.9,5-7.2l-6.7-6.6c0.8-0.9,1.6-1.7,2.4-2.6l6.6,6.5c1.9-2.1,4.1-4,6.3-5.7l-6.3-6.2
					C89.5,278.3,90.5,277.6,91.6,277z"/>
			</g>
			<g id="Groupe_150_00000091714096861820812230000009581470475010725014_" transform="translate(0 -44)">
				<circle id="Ellipse_67_00000010288052377949820910000003187952019465013411_" class="st2" cx="61.5" cy="331.8" r="2.5"/>
				<circle id="Ellipse_68_00000023257727617109476190000005349553129312114858_" class="st2" cx="68.5" cy="331.8" r="2.5"/>
			</g>
			<path id="Tracé_765_00000082338076247060428270000000244650253918911623_" class="st2" d="M16.7,267.6c0,0,4.6,0.1,10.9,0.2
				c3.3,0.1,7.1,0.1,10.9,0.1c2.2,0,4.4,0,6.5-0.1c8.3-0.1,15.2-0.2,15.2-0.2c0.3,0,0.6-0.3,0.6-0.8s-0.3-0.8-0.6-0.8
				c0,0-6.9-0.2-15.2-0.2c-2.1,0-4.3-0.1-6.5-0.1c-3.8,0-7.6,0.1-10.9,0.1c-6.2,0.1-10.9,0.2-10.9,0.2c-0.3,0-0.6,0.3-0.6,0.8
				S16.4,267.6,16.7,267.6z"/>
			<path id="Tracé_766_00000093857889664216144920000015661062763598827967_" class="st2" d="M41.8,258.5c0,0,1.3,0.1,3.2,0.2
				c0.9,0.1,2.1,0.1,3.2,0.1c0.6,0,1.3,0,1.9-0.1c2.4-0.1,4.4-0.2,4.4-0.2c0.7,0,1.3-0.3,1.3-0.8s-0.6-0.8-1.3-0.8
				c0,0-2-0.2-4.4-0.2c-0.7,0-1.2-0.1-1.9-0.1c-1.1,0-2.2,0.1-3.2,0.1c-1.9,0.1-3.2,0.2-3.2,0.2c-0.7,0-1.3,0.3-1.3,0.8
				S41.1,258.5,41.8,258.5z"/>
			<path id="Tracé_767_00000101103892831088422990000010262145558495001503_" class="st2" d="M27.5,258.5c0,0,0.7,0.1,1.6,0.2
				c0.5,0.1,1.1,0.1,1.6,0.1c0.3,0,0.7,0,1-0.1c1.2-0.1,2.3-0.2,2.3-0.2c0.6,0,1.1-0.3,1.1-0.8s-0.5-0.8-1.1-0.8
				c-0.8-0.1-1.5-0.2-2.3-0.2c-0.3,0-0.6-0.1-1-0.1c-0.5,0-1.1,0-1.6,0.1c-0.9,0.1-1.6,0.2-1.6,0.2c-0.6,0-1.1,0.3-1.1,0.8
				S27,258.5,27.5,258.5z"/>
			<path id="Tracé_768_00000165917826835307085300000010272801016537270432_" class="st2" d="M56.8,277.5c0.4,0.1,0.7,0.1,1.1,0.2
				c0.4,0.1,0.7,0.1,1.1,0.1c0.2,0,0.5,0,0.7-0.1c0.9-0.1,1.6-0.2,1.6-0.2c0.4-0.1,0.8-0.5,0.7-0.9c0-0.4-0.3-0.6-0.7-0.7l0,0
				c-0.5-0.1-1.1-0.2-1.6-0.2c-0.2,0-0.4-0.1-0.7-0.1c-0.4,0-0.7,0-1.1,0.1c-0.4,0-0.7,0.1-1.1,0.2c-0.4,0-0.7,0.3-0.7,0.7
				c0,0,0,0.1,0,0.1c-0.1,0.4,0.2,0.7,0.5,0.8C56.7,277.5,56.7,277.5,56.8,277.5z"/>
			<path id="Tracé_769_00000089547506026186891810000016370985179054099082_" class="st2" d="M9.5,266.1c0,0-2-0.1-4.4-0.2H3.2
				c-1.1,0-2.2,0-3.2,0.1l0,0v1.7l0,0c0.9,0,2.1,0.1,3.2,0.1h1.9c2.4-0.1,4.4-0.2,4.4-0.2c0.7,0,1.3-0.3,1.3-0.7
				C10.8,266.4,10.2,266.1,9.5,266.1z"/>
		</g>
	</g>
	<g id="TEXTES_GB">
	</g>
</g>
</svg>
