<?xml version="1.0" encoding="UTF-8"?>
<svg id="FONDS" xmlns="http://www.w3.org/2000/svg" width="46" height="54" viewBox="0 0 46 54">
  <path d="M45.9479043,14.652691v-.0414577c-.022948-.5177151-.0390605-1.0685459-.0478491-1.6775184-.0317367-1.452282-.6049495-2.8358049-1.6000158-3.8601124-1.0121553-1.0457947-2.3616956-1.6681652-3.7898452-1.7477942-.1372-.0075837-.2641466-.0273014-.3998819-.0366546L13.4866739,49.8113129c2.5535803,1.6881356,5.3166226,3.0279258,8.2237005,3.9713403,.1728427,.0594058,.3495915,.1069304,.5287815,.1418155,.6825823,.1367597,1.3876243,.0872128,2.0457938-.1438379,4.7277855-1.5364613,9.0786372-4.1121447,12.7556953-7.5513607,2.8919419-2.8317603,5.1237614-6.307631,6.5265217-10.1649627,2.6487903-7.17445,2.4979191-15.0685947,2.3807376-21.4116164Z" style="fill: #272f60;"/>
  <path d="M7.3043729,44.4589776L31.7977491,5.3398854c-2.3446066-1.0409917-4.4616859-2.4829093-6.414711-4.3838945l-.0341779-.0351379c-1.3422165-1.2278039-3.3572502-1.2278039-4.6994667,0l-.0371075,.0341267c-4.0989115,4.0049614-8.9106771,6.0250111-15.1183674,6.3708286-1.4286379,.0778595-2.7786665,.6997244-3.7917983,1.7457719C.7060776,10.0958877,.1323764,11.4804218,.1021046,12.9337149c-.0087886,.6069502-.0249011,1.1577809-.0478491,1.6775184v.0932797c-.1210876,6.3296238-.2719587,14.2121402,2.3641369,21.365103,1.1225012,3.0883427,2.7855021,5.9254116,4.8859806,8.3893616Z" style="fill: #272f60;"/>
</svg>