<?xml version="1.0" encoding="utf-8"?>
<!-- Generator: Adobe Illustrator 26.2.1, SVG Export Plug-In . SVG Version: 6.00 Build 0)  -->
<svg version="1.1" id="Calque_1" xmlns="http://www.w3.org/2000/svg" xmlns:xlink="http://www.w3.org/1999/xlink" x="0px" y="0px"
	 viewBox="0 0 227 227" style="enable-background:new 0 0 227 227;" xml:space="preserve">
<style type="text/css">
	.st0{fill:#272F60;}
	.st1{fill:#FFBCC6;}
	.st2{fill:#FFF5F7;}
	.st3{fill:#FB657C;}
	.st4{fill:#FFFFFF;}
	.st5{fill:#FD657C;}
	.st6{fill:#FF657C;}
</style>
<g id="TEXTES_FR">
</g>
<g>
	<g id="ILLUSTRATIONS">
		<g>
			<path id="Tracé_1610_00000016794280984377014820000007198358432457507989_" class="st0" d="M113.5,0
				c49.2,0,92.8,31.7,107.9,78.4l-21.9,7.1C187.5,48.2,152.7,23,113.5,23V0z"/>
			<path id="Tracé_1611_00000027588169855982132510000003599131244972692887_" class="st1" d="M221.5,78.4
				c15.2,46.8-1.4,98-41.2,126.9c-39.8,28.9-93.6,28.9-133.4,0C7,176.4-9.6,125.2,5.6,78.4C20.8,31.7,64.3,0,113.5,0v23
				c-39.2,0-74,25.2-86.1,62.5c-12.1,37.3,1.2,78.1,32.9,101.2c31.7,23,74.7,23,106.4,0c31.7-23,45-63.9,32.9-101.2L221.5,78.4z"/>
		</g>
		<g>
			<path id="Tracé_1071_00000139270434685956688210000000235650410092618896_" class="st2" d="M178,113.3
				c0,35.6-28.9,64.5-64.5,64.5c-1.3,0-2.6,0-3.8-0.1C74.1,175.6,47,145,49.1,109.4s32.7-62.7,68.2-60.5
				C151.4,50.9,178,79.2,178,113.3z"/>
			<path id="Tracé_1072_00000067934866904991303580000005740600835163340461_" class="st1" d="M109.7,126.1v51.6
				c-5.9-0.3-11.6-1.5-17.2-3.4v-48.2c0-4.7,3.8-8.6,8.6-8.6C105.8,117.5,109.7,121.3,109.7,126.1
				C109.7,126.1,109.7,126.1,109.7,126.1z"/>
			<path id="Tracé_1073_00000007424612633684423660000008981212421143057075_" class="st0" d="M113.5,47
				c-36.7,0-66.4,29.7-66.4,66.4s29.7,66.4,66.4,66.4s66.4-29.7,66.4-66.4C179.9,76.7,150.2,47,113.5,47z M113.5,175.8
				c-34.5,0-62.5-28-62.5-62.5c0-34.5,28-62.5,62.5-62.5s62.5,28,62.5,62.5l0,0C176,147.8,148,175.8,113.5,175.8z"/>
			<path id="Tracé_1074_00000124134625688181530140000003790524428225870995_" class="st0" d="M92.4,155.4v7h17.2v-7H92.4z"/>
			<path id="Tracé_1075_00000115487786716828699610000003193155497893166738_" class="st0" d="M92.4,169.4v7h17.2v-7H92.4z"/>
			<path id="Tracé_1076_00000023266285826169569620000013337914668854235272_" class="st0" d="M158.2,104.5v-7.1
				c0-1.1-0.4-2.2-1.2-3l-5.9-5.9c-0.8-0.8-1.9-1.2-3-1.2H73.4c-2.4,0-4.3,1.9-4.3,4.3c0,0,0,0,0,0V129c0,2.4,1.9,4.3,4.3,4.3h8.5
				c1.1,0,2.2,0.4,3,1.2l14.6,14.6c0.8,0.8,1.9,1.2,3,1.2H150c2.4,0,4.3-1.9,4.3-4.3v-6.8L158.2,104.5z"/>
			<path id="Tracé_1077_00000173124407093663589790000011582070313724662429_" class="st3" d="M104.8,104.5v23.9l12.9,12.9h-7.4
				c-0.6,0-1.2-0.2-1.6-0.7L97.1,129c-0.4-0.4-0.7-1-0.7-1.6v-20.7c0-1.3,1-2.3,2.3-2.3c0,0,0,0,0,0
				C101.1,104.5,104.8,104.5,104.8,104.5z"/>
			<path id="Tracé_1078_00000087384278973220088570000001796235600511496079_" class="st1" d="M162.6,104.5c1.4,0,2.5,1.1,2.5,2.5
				c0,0,0,0,0,0.1v20.3c0,0.7-0.3,1.3-0.7,1.8l-11.4,11.4c-0.5,0.5-1.1,0.7-1.8,0.7h-34.7c-0.5,0-1-0.2-1.4-0.6l-11.4-11.4
				c-0.6-0.6-1-1.5-1-2.3v-20.6c0-1,0.8-1.9,1.9-1.9c0,0,0,0,0,0L162.6,104.5z"/>
			<path id="Tracé_1079_00000004541681541048600540000013109675637732760202_" class="st4" d="M109.6,127.3
				c-0.3-0.3-0.5-0.8-0.5-1.2v-14.5c0-1,0.8-1.7,1.7-1.7c0,0,0,0,0,0h46.8c1,0,1.7,0.8,1.7,1.7c0,0,0,0,0,0v14.5
				c0,0.5-0.2,0.9-0.5,1.2l-8.1,8.1c-0.3,0.3-0.8,0.5-1.2,0.5H119c-0.5,0-0.9-0.2-1.2-0.5C116.1,133.8,111.2,128.9,109.6,127.3z"/>
			<circle id="Ellipse_86_00000181063829533159047880000007331421812061650833_" class="st5" cx="83.1" cy="122.4" r="3"/>
			<circle id="Ellipse_87_00000057124025870950240960000013516250371971603329_" class="st5" cx="83.1" cy="107.8" r="3"/>
			<path id="Tracé_834_00000069373633983912983340000009670662897036943752_" class="st6" d="M123.1,129.9c-2.5-0.3-4.2-2.5-4-4.9
				c0,0,0,0,0,0v-0.1c0.3-2,1.9-3.6,4-3.7l0,0c0.1-3.5,3.1-6.3,6.6-6.2c1.4,0,2.7,0.4,3.8,1.2c2.5-1.4,5.7-0.6,7.3,1.8
				c0.4,0.6,0.6,1.3,0.7,2h0.6c2.1,0,3.9,1.6,4,3.7c0,0.5-0.1,1.1-0.4,1.6c1.2,0.6,1.6,2.1,1,3.2c0,0,0,0.1-0.1,0.1
				c0,0.1,0,0.1-0.1,0.1c0,0,0,0,0,0c-0.5,0.8-1.4,1.2-2.3,1.2L123.1,129.9z"/>
			<path id="Tracé_835_00000079471983574928233120000001325719981950754207_" class="st4" d="M133.5,127.5c-0.4,0-0.7-0.3-0.7-0.7
				v-6.2c0-0.4,0.4-0.7,0.8-0.7c0.4,0,0.7,0.3,0.7,0.7v6.2C134.3,127.2,133.9,127.5,133.5,127.5z"/>
			<path id="Tracé_836_00000165197848874312490840000011994377613598519444_" class="st4" d="M135.9,123.1c-0.2,0-0.4-0.1-0.5-0.2
				l-1.8-1.7l-1.8,1.7c-0.3,0.2-0.8,0.2-1.1,0c-0.2-0.3-0.2-0.7,0-1l0,0l2.4-2.2c0.3-0.2,0.8-0.2,1.1,0l2.4,2.2c0.2,0.3,0.2,0.7,0,1
				l0,0C136.4,123,136.1,123.1,135.9,123.1z"/>
		</g>
	</g>
	<g id="TEXTES_GB">
	</g>
</g>
</svg>
